<?xml version="1.0" encoding="UTF-8" standalone="no"?>
<!-- Created with Inkscape (http://www.inkscape.org/) -->

<svg
   xmlns:dc="http://purl.org/dc/elements/1.1/"
   xmlns:cc="http://creativecommons.org/ns#"
   xmlns:rdf="http://www.w3.org/1999/02/22-rdf-syntax-ns#"
   xmlns:svg="http://www.w3.org/2000/svg"
   xmlns="http://www.w3.org/2000/svg"
   xmlns:sodipodi="http://sodipodi.sourceforge.net/DTD/sodipodi-0.dtd"
   xmlns:inkscape="http://www.inkscape.org/namespaces/inkscape"
   width="55"
   height="60"
   viewBox="0 0 14.552083 15.875"
   version="1.1"
   id="svg8"
   inkscape:version="0.92.1 r15371"
   sodipodi:docname="Zeichnung Lasse.svg">
  <defs
     id="defs2">
    <marker
       inkscape:stockid="Arrow2Lstart"
       orient="auto"
       refY="0"
       refX="0"
       id="Arrow2Lstart"
       style="overflow:visible"
       inkscape:isstock="true">
      <path
         id="path4505"
         style="fill:#333333;fill-opacity:1;fill-rule:evenodd;stroke:#000000;stroke-width:0.625;stroke-linejoin:round;stroke-opacity:1"
         d="M 8.7185878,4.0337352 -2.2072895,0.01601326 8.7185884,-4.0017078 c -1.7454984,2.3720609 -1.7354408,5.6174519 -6e-7,8.035443 z"
         transform="matrix(1.1,0,0,1.1,1.1,0)"
         inkscape:connector-curvature="0" />
    </marker>
  </defs>
  <sodipodi:namedview
     id="base"
     pagecolor="#ffffff"
     bordercolor="#666666"
     borderopacity="1.0"
     inkscape:pageopacity="0.0"
     inkscape:pageshadow="2"
     inkscape:zoom="5.6"
     inkscape:cx="83.890395"
     inkscape:cy="45.271233"
     inkscape:document-units="px"
     inkscape:current-layer="layer1"
     showgrid="false"
     inkscape:window-width="1600"
     inkscape:window-height="837"
     inkscape:window-x="-8"
     inkscape:window-y="-8"
     inkscape:window-maximized="1"
     units="px" />
  <metadata
     id="metadata5">
    <rdf:RDF>
      <cc:Work
         rdf:about="">
        <dc:format>image/svg+xml</dc:format>
        <dc:type
           rdf:resource="http://purl.org/dc/dcmitype/StillImage" />
        <dc:title></dc:title>
      </cc:Work>
    </rdf:RDF>
  </metadata>
  <g
     inkscape:label="Ebene 1"
     inkscape:groupmode="layer"
     id="layer1"
     transform="translate(0,-281.12498)">
    <path
       style="fill:#333333;fill-opacity:1;stroke:#1d2100;stroke-width:0.01632288;stroke-linecap:round;stroke-linejoin:round;stroke-miterlimit:4;stroke-dasharray:0.01632288, 0.03264576;stroke-dashoffset:0;stroke-opacity:1;paint-order:markers stroke fill"
       id="path6225"
       d="m 8.4927713,284.99779 c 0.04662,-0.10147 0.06949,-0.20843 0.08494,-0.31566 0.01681,-0.0838 0.04269,-0.16563 0.05403,-0.2502 0.01104,-0.10131 0.01062,-0.20316 0.01076,-0.30478 1.37e-4,-0.10439 0.001,-0.20877 6.13e-4,-0.31315 -4.08e-4,-0.0969 -0.0017,-0.19371 -8.71e-4,-0.29055 -0.0078,-0.14585 -0.05365,-0.28867 -0.09958,-0.42912 -0.04624,-0.12517 -0.07764,-0.25669 -0.14955,-0.37424 -0.06704,-0.0868 -0.167398,-0.15534 -0.275268,-0.20642 -0.110958,-0.047 -0.23706,-0.0409 -0.357003,-0.0564 -0.17889,-0.0111 -0.348813,-0.0553 -0.520155,-0.0953 -0.159941,-0.0381 -0.325249,-0.0547 -0.491008,-0.0625 -0.115885,-0.004 -0.231909,-0.003 -0.347863,-0.003 -0.113874,4.1e-4 -0.227748,7.9e-4 -0.341622,7.9e-4 -0.223556,0.0545 -0.784488,0.34276 0.548768,-0.26344 0.01043,-0.005 -0.01874,0.0121 -0.02775,0.0185 -0.02889,0.0206 -0.02275,0.0166 -0.04588,0.0415 -0.04215,0.0639 -0.04304,0.13831 -0.04635,0.20915 -0.0023,0.0839 -0.0013,0.16779 -9.51e-4,0.25168 4.15e-4,0.0844 5.51e-4,0.16887 6.4e-4,0.25331 5.4e-5,0.0843 5.4e-5,0.16855 5.4e-5,0.25282 -1.63e-4,0.086 4.77e-4,0.17203 -5.99e-4,0.25805 -7.71e-4,0.0968 5.58e-4,0.19353 -3.4e-4,0.29029 -0.0017,0.1082 -5.11e-4,0.2164 1.08e-4,0.32459 0.001,0.0925 3.07e-4,0.18495 -3.5e-5,0.27742 -6e-6,0.0932 4.15e-4,0.18638 6.32e-4,0.27959 0.0022,0.095 -0.0045,0.18999 0.0032,0.28478 0.0048,0.0953 0.0537,0.17768 0.10849,0.2593 0.05079,0.0661 0.113731,0.12322 0.189975,0.1701 0.08339,0.0431 0.180969,0.0496 0.276876,0.0541 0.11461,0.003 0.22932,0.002 0.343974,0.002 0.114745,-0.004 0.230401,0.006 0.34403,-0.008 0.109235,-0.0157 0.223574,-0.0309 0.32455,-0.0697 0.237058,-0.0871 0.574094,-0.25452 -0.528944,0.25286 -0.02619,0.0121 0.04759,-0.0303 0.07357,-0.0426 0.232085,-0.11024 0.46546,-0.21863 0.69819,-0.32795 0.0167,-0.008 0.06685,-0.0317 0.0501,-0.0238 -0.198426,0.0933 -0.396463,0.18715 -0.595141,0.28009 -0.01835,0.009 0.03578,-0.0184 0.05413,-0.027 0.234637,-0.10966 0.467028,-0.22267 0.704813,-0.32768 0.203793,-0.09 -0.401511,0.18894 -0.602811,0.28263 -0.01391,0.006 0.02707,-0.014 0.04061,-0.021 0.06598,-0.0379 0.118385,-0.088 0.175728,-0.13368 0.03298,-0.0304 0.01608,-0.016 0.05055,-0.0432 0,0 0.704189,-0.24275 0.704189,-0.24275 v 0 c -0.03034,0.0323 -0.01327,0.0181 -0.05084,0.043 -0.04968,0.0535 -0.113187,0.0993 -0.173053,0.14494 -0.226958,0.17872 -0.09045,0.0761 -0.736914,0.35796 -0.202574,0.0883 0.397161,-0.18845 0.59549,-0.28302 0.01816,-0.009 -0.0368,0.0166 -0.05496,0.0253 -0.753662,0.35863 -0.462236,0.22727 -0.754492,0.35853 0.201833,-0.0958 0.404018,-0.19104 0.605499,-0.28731 0.02573,-0.0123 -0.0503,0.0262 -0.07593,0.0386 -0.229198,0.11133 -0.458788,0.22214 -0.689757,0.331 -0.01268,0.006 -0.07528,0.0246 -0.08952,0.029 -0.109756,0.0252 -0.220134,0.0489 -0.334292,0.056 -0.116231,0.005 -0.23266,0.003 -0.349011,0.004 -0.116391,1.1e-4 -0.23307,0.002 -0.349207,-0.006 -0.107826,-0.0102 -0.213207,-0.0289 -0.30141,-0.0843 -0.0812,-0.055 -0.151908,-0.11657 -0.204843,-0.19182 -0.05959,-0.0892 -0.11409,-0.17885 -0.121064,-0.28282 -0.01304,-0.0958 -0.0089,-0.19216 -0.0092,-0.2885 2.18e-4,-0.0934 6.33e-4,-0.18674 6.33e-4,-0.28012 -3.4e-4,-0.0925 -0.0011,-0.18492 -3.6e-5,-0.27738 6.26e-4,-0.10823 0.0018,-0.21646 1.09e-4,-0.32468 -8.71e-4,-0.0967 4.36e-4,-0.19334 -3.4e-4,-0.29001 -0.0011,-0.0858 -4.16e-4,-0.1717 -5.92e-4,-0.25755 2e-6,-0.0843 1e-5,-0.16853 -1.9e-5,-0.25279 -5.4e-5,-0.0844 -1.29e-4,-0.16877 -5.03e-4,-0.25315 -3.82e-4,-0.0844 -0.0012,-0.16886 -4.22e-4,-0.25329 0.0017,-0.0785 0.0024,-0.1583 0.02872,-0.23443 0.01299,-0.0278 0.02782,-0.066 0.06161,-0.0827 0.328998,-0.16276 0.466969,-0.329 0.775068,-0.33587 0.113482,-7e-5 0.226962,-1.9e-4 0.340443,-4.1e-4 0.11678,-1.9e-4 0.233725,-7.5e-4 0.350192,0.008 0.166919,0.0132 0.332617,0.0362 0.493341,0.0762 0.170822,0.0396 0.342544,0.0723 0.519989,0.0847 0.13003,0.0118 0.262006,0.0183 0.375698,0.0778 0.114865,0.0627 0.225779,0.13793 0.297873,0.23552 0.07252,0.12229 0.100624,0.25881 0.147828,0.38847 0.04953,0.14463 0.0976,0.29009 0.117924,0.43984 9.5e-4,0.097 -3.41e-4,0.19404 -5.45e-4,0.29106 -2.04e-4,0.10425 0.0013,0.20849 0.0012,0.31274 -7.63e-4,0.10317 -0.0021,0.20635 -0.0074,0.30944 -0.0076,0.0857 -0.02257,0.16973 -0.05478,0.25194 -0.01418,0.10995 -0.03687,0.21891 -0.07313,0.32555 0,0 -0.691128,0.26569 -0.691128,0.26569 z"
       inkscape:connector-curvature="0" />
    <path
       style="fill:#333333;fill-opacity:1;stroke:#1d2100;stroke-width:0.01632288;stroke-linecap:round;stroke-linejoin:round;stroke-miterlimit:4;stroke-dasharray:0.01632288, 0.03264576;stroke-dashoffset:0;stroke-opacity:1;paint-order:markers stroke fill"
       id="path6227"
       d="m 6.7567103,283.07767 c 0.09304,0.0225 0.179525,0.058 0.270495,0.0851 0,0 -0.630892,0.34695 -0.630892,0.34695 v 0 c -0.08645,-0.0287 -0.171569,-0.062 -0.264921,-0.073 0,0 0.625318,-0.35912 0.625318,-0.35912 z"
       inkscape:connector-curvature="0" />
    <path
       style="fill:#333332;fill-opacity:0.09869139;stroke:#1d2100;stroke-width:0.01632288;stroke-linecap:round;stroke-linejoin:round;stroke-miterlimit:4;stroke-dasharray:0.01632288, 0.03264576;stroke-dashoffset:0;stroke-opacity:1;paint-order:markers stroke fill"
       id="path6251"
       d="m 8.0739363,283.65881 c 0.003,-0.0531 0.0029,-0.1063 0.0032,-0.15945 0,0 0.67443,-0.28128 0.67443,-0.28128 v 0 c 2.72e-4,0.0523 6.8e-5,0.10459 0.0032,0.15682 0,0 -0.680715,0.28391 -0.680715,0.28391 z"
       inkscape:connector-curvature="0" />
    <path
       style="fill:#1a1a1a;fill-opacity:0.09869139;stroke:#1d2100;stroke-width:0.01632288;stroke-linecap:round;stroke-linejoin:round;stroke-miterlimit:4;stroke-dasharray:0.01632288, 0.03264576;stroke-dashoffset:0;stroke-opacity:1;paint-order:markers stroke fill"
       id="path6253"
       d="m 7.0626363,283.13168 c 0.02088,0.0649 0.0085,0.0329 0.0371,0.096 0,0 -0.662125,0.30195 -0.662125,0.30195 v 0 c -0.0327,-0.0661 -0.01828,-0.0339 -0.0438,-0.0964 0,0 0.668826,-0.30151 0.668826,-0.30151 z"
       inkscape:connector-curvature="0" />
    <path
       style="fill:#000000;fill-opacity:0.09869139;stroke:#1d2100;stroke-width:0.01632288;stroke-linecap:round;stroke-linejoin:round;stroke-miterlimit:4;stroke-dasharray:0.01632288, 0.03264576;stroke-dashoffset:0;stroke-opacity:1;paint-order:markers stroke fill"
       id="path6255"
       d="m 8.6066213,283.1738 c 0.01736,0.0408 0.03427,0.0844 0.06817,0.11849 0.0048,0.005 0.01022,0.012 0.01792,0.012 0.0052,0 0.01009,-0.0139 0.0055,-0.012 -0.22169,0.0936 -0.440137,0.19223 -0.660206,0.28834 0.04614,-0.0214 0.03507,-0.0965 0.03697,-0.13524 0,0 0.679364,-0.28161 0.679364,-0.28161 v 0 c -7.28e-4,0.0593 -0.004,0.11856 -0.0055,0.17785 -0.633539,0.28408 -0.62021,0.47992 -0.810997,0.13369 0,0 0.668825,-0.30152 0.668825,-0.30152 z"
       inkscape:connector-curvature="0" />
    <path
       style="fill:#000000;fill-opacity:0.09869139;stroke:#1d2100;stroke-width:0.01632288;stroke-linecap:round;stroke-linejoin:round;stroke-miterlimit:4;stroke-dasharray:0.01632288, 0.03264576;stroke-dashoffset:0;stroke-opacity:1;paint-order:markers stroke fill"
       id="path6257"
       d="m 7.8166053,283.53242 c 0.0048,-0.10716 0.0032,-0.21445 0.0025,-0.32166 -3.4e-4,-0.0645 -0.0015,-0.0329 0.0031,-0.0947 0,0 0.681824,-0.2761 0.681824,-0.2761 v 0 c -0.01268,0.0556 -0.0089,0.0261 -0.0093,0.089 -6.12e-4,0.10651 -0.0022,0.21308 0.0025,0.31953 0,0 -0.680715,0.28391 -0.680715,0.28391 z"
       inkscape:connector-curvature="0" />
    <path
       style="fill:#770000;fill-opacity:0.09869139;stroke:#000002;stroke-width:0.01632288;stroke-linecap:round;stroke-linejoin:round;stroke-miterlimit:4;stroke-dasharray:0.01632288, 0.03264576;stroke-dashoffset:0;stroke-opacity:1;paint-order:markers stroke fill"
       id="path6291"
       d="m 7.0562683,285.33113 c -0.0048,0.10716 -0.0032,0.21444 -0.0025,0.32166 5.99e-4,0.091 8.71e-4,0.18208 0.001,0.27313 1.08e-4,0.0843 1.08e-4,0.16865 1.08e-4,0.25298 0.02064,0.2727 -0.410835,0.58103 -0.746874,0.46855 -0.09628,-0.0559 -0.156814,-0.13919 -0.192484,-0.22962 -0.03802,-0.2649 0.527996,-0.58898 0.770761,-0.38556 0.03535,0.0489 0.07743,0.12485 0.04464,0.1826 -0.0081,0.0143 -0.02345,0.0251 -0.03517,0.0377 -0.240651,0.10622 -0.475947,0.22101 -0.721953,0.31866 -0.01133,0.005 -0.214381,0.0116 -0.222141,0.0118 -0.182964,0.005 -0.366212,0.004 -0.549241,0.004 -0.394159,-2e-5 -0.788316,0.002 -1.182469,0.003 -0.230534,0.002 -0.461078,0.002 -0.691614,0.002 -0.106073,0.006 -0.214389,-0.006 -0.32014,0.005 0.219968,-0.10259 0.429362,-0.22214 0.659906,-0.30778 0.02144,-0.008 0.01365,0.037 0.01833,0.0559 0.03558,0.14358 0.04102,0.29213 0.05199,0.43787 0.01569,0.21734 0.0086,0.43519 0.03783,0.65175 0,0 -0.666168,0.28438 -0.666168,0.28438 v 0 c -0.0215,-0.21905 -0.01143,-0.43883 -0.0279,-0.65816 -0.01095,-0.13943 -0.01815,-0.28235 -0.06062,-0.41842 -0.0051,-0.0162 -0.03506,-0.037 -0.01931,-0.0478 0.197997,-0.13511 0.41933,-0.2455 0.628995,-0.36826 0.09933,0.0154 0.205272,-0.006 0.305249,0.005 0.226834,0.002 0.453675,0.002 0.6805,0.004 0.39072,0.003 0.781483,0.006 1.17221,0.002 0.187135,-0.003 0.37489,-0.004 0.561574,-0.0164 0.32343,-0.0216 0.629918,-0.18044 -0.364435,0.25773 0.09616,-0.0122 0.09756,-0.0465 0.05187,-0.11165 -0.01636,3e-5 -0.0078,-0.002 -0.02384,0.01 0.209315,-0.10126 0.41863,-0.20251 0.627945,-0.30376 0.0053,-0.002 -0.09851,0.0336 -0.05808,0.0477 0.01462,0.0563 0.0626,0.15435 0.144066,0.1597 0.190071,-0.152 0.02223,-0.0158 -0.608084,0.29486 -0.0095,0.005 0.02045,-0.008 0.02845,-0.0142 0.03269,-0.0258 0.02908,-0.0655 0.02828,-0.0989 1e-6,-0.0843 -6e-6,-0.16871 1.09e-4,-0.25307 1.63e-4,-0.0913 4.56e-4,-0.18266 0.001,-0.27401 5.92e-4,-0.1065 0.0022,-0.21308 -0.0025,-0.31953 0,0 0.680715,-0.28391 0.680715,-0.28391 z"
       inkscape:connector-curvature="0" />
    <path
       style="fill:#770000;fill-opacity:0.09869139;stroke:#000002;stroke-width:0.01632288;stroke-linecap:round;stroke-linejoin:round;stroke-miterlimit:4;stroke-dasharray:0.01632288, 0.03264576;stroke-dashoffset:0;stroke-opacity:1;paint-order:markers stroke fill"
       id="path6293"
       d="m 8.2399893,285.54176 c -0.0057,0.11743 -0.004,0.23498 -0.0032,0.35245 8.71e-4,0.0948 0.0013,0.18961 0.0016,0.28443 0.0086,0.0625 -0.02766,0.14837 0.03286,0.19749 0.01861,0.006 0.03635,0.0143 0.0574,0.0147 0.03382,6.1e-4 0.05466,-0.0222 0.0809,-0.0362 -0.20913,0.0978 -0.418261,0.19553 -0.627393,0.29329 0.05588,-0.0309 0.08572,-0.0915 0.06845,-0.14523 -0.04696,-0.0362 -0.131308,-0.0371 -0.190695,-0.0261 -0.210286,0.12417 -0.547282,0.25388 0.563873,-0.259 0.02181,-0.0101 -0.03859,0.0136 -0.04761,0.0513 0.0067,0.0628 0.07497,0.0715 0.138907,0.08 0.0972,0.009 0.195252,0.008 0.292905,0.008 0.138342,-0.0106 0.276282,-0.0252 0.415835,-0.0309 0.164088,-0.007 0.328332,-0.0103 0.492607,-0.012 0.110168,-7.9e-4 0.220343,-7.3e-4 0.330515,-6.8e-4 0.102427,6e-5 0.2048547,1.1e-4 0.3072827,1.1e-4 0.111171,-7.9e-4 0.194326,-0.0136 0.280331,0.0533 0.07084,0.0985 0.06358,0.21829 0.06693,0.32901 0.0016,0.13312 7.02e-4,0.26627 -6.13e-4,0.39941 -1.36e-4,0.12223 -6.8e-5,0.24448 7.57e-4,0.36672 6.12e-4,0.0779 9.5e-4,0.1557 0.0012,0.23355 0,0 -0.6775497,0.2826 -0.6775497,0.2826 v 0 c 2.05e-4,-0.0782 6.13e-4,-0.15644 0.0013,-0.23466 10e-4,-0.12277 0.0014,-0.24554 0.0025,-0.36832 -1.8e-5,-0.1325 0.0021,-0.26501 3.41e-4,-0.39751 -0.0021,-0.0915 0.0059,-0.1947 -0.04262,-0.27903 -0.07196,-0.0371 -0.167878,-0.0124 -0.248201,-0.019 -0.102421,-3e-5 -0.204842,-6e-5 -0.307263,-2.3e-4 -0.109242,-1.7e-4 -0.218484,-5e-4 -0.327725,-1.7e-4 -0.161587,7.9e-4 -0.323262,0.002 -0.484541,0.0116 -0.142463,0.01 -0.283678,0.0315 -0.426741,0.0321 -0.101794,-6.3e-4 -0.204815,-1.7e-4 -0.304621,-0.0188 -0.09291,-0.0238 -0.169414,-0.0637 -0.190723,-0.14695 -0.0059,-0.027 -0.02157,-0.0876 0.01705,-0.10736 0.0141,-0.007 0.492282,-0.32247 0.760276,-0.34274 0.09647,0.006 0.19183,0.0218 0.245819,0.0946 0.03219,0.0725 0.01658,0.14741 -0.02785,0.21499 -0.227306,0.10913 -0.453171,0.22029 -0.681918,0.32739 -0.06357,0.0298 -0.147505,-0.0133 -0.19427,-0.0454 -0.06584,-0.0715 -0.05894,-0.15061 -0.05537,-0.23683 2.72e-4,-0.0953 7.49e-4,-0.19051 0.0016,-0.28576 8.71e-4,-0.1166 0.0026,-0.23327 -0.0032,-0.34981 0,0 0.680715,-0.28391 0.680715,-0.28391 z"
       inkscape:connector-curvature="0" />
    <path
       style="fill:#770000;fill-opacity:0.09869139;stroke:#000002;stroke-width:0.01632288;stroke-linecap:round;stroke-linejoin:round;stroke-miterlimit:4;stroke-dasharray:0.01632288, 0.03264576;stroke-dashoffset:0;stroke-opacity:1;paint-order:markers stroke fill"
       id="path6295"
       d="m 8.0373223,285.41082 c 0.01884,0.0832 0.04794,0.15941 0.140512,0.20363 0.04082,0.015 0.08474,0.0186 0.128564,0.0228 0,0 -0.623705,0.35741 -0.623705,0.35741 v 0 c -0.05179,-0.01 -0.102421,-0.0201 -0.147126,-0.0452 -0.09826,-0.0638 -0.141638,-0.14777 -0.173042,-0.24561 0,0 0.674797,-0.29303 0.674797,-0.29303 z"
       inkscape:connector-curvature="0" />
    <path
       style="fill:#770000;fill-opacity:0.09869139;stroke:#000002;stroke-width:0.01632288;stroke-linecap:round;stroke-linejoin:round;stroke-miterlimit:4;stroke-dasharray:0.01632288, 0.03264576;stroke-dashoffset:0;stroke-opacity:1;paint-order:markers stroke fill"
       id="path6297"
       d="m 8.8569893,287.94833 c -0.0082,0.14955 -0.0057,0.29934 -0.004,0.44898 1.36e-4,0.11463 0.0016,0.22925 0.0025,0.34388 6.13e-4,0.087 6.81e-4,0.17402 7.35e-4,0.26103 -0.0033,0.0566 0.01041,0.1126 0.02857,0.16693 0,0 -0.673054,0.29766 -0.673054,0.29766 v 0 c -0.01615,-0.0597 -0.03661,-0.12022 -0.03343,-0.18185 5.4e-5,-0.0872 1.36e-4,-0.17443 7.35e-4,-0.26164 7.91e-4,-0.1153 0.0023,-0.23061 0.0025,-0.34592 0.0017,-0.14852 0.0043,-0.29723 -0.004,-0.44565 0,0 0.679526,-0.28342 0.679526,-0.28342 z"
       inkscape:connector-curvature="0" />
    <path
       style="fill:#770000;fill-opacity:0.09869139;stroke:#000002;stroke-width:0.01632288;stroke-linecap:round;stroke-linejoin:round;stroke-miterlimit:4;stroke-dasharray:0.01632288, 0.03264576;stroke-dashoffset:0;stroke-opacity:1;paint-order:markers stroke fill"
       id="path6299"
       d="m 10.915635,287.69557 c 0.0033,0.15283 -0.05166,0.29932 -0.09388,0.44649 -0.03312,0.13282 -0.08785,0.26087 -0.129158,0.39189 -0.02018,0.0854 -0.03429,0.17117 -0.05563,0.25643 -0.02577,0.0732 -0.05145,0.14589 -0.0723,0.2202 -0.03159,0.0581 -0.06798,0.11519 -0.104235,0.17179 -0.03425,0.0573 -0.06354,0.11695 -0.10292,0.17202 -0.03007,0.0287 -0.01629,0.0148 -0.04161,0.0414 0,0 -0.7095657,0.23617 -0.7095657,0.23617 v 0 c 0.0344,-0.0161 0.0179,-0.006 0.04749,-0.0339 0.05976,-0.0369 0.07915,-0.10457 0.110857,-0.15801 0.01071,-0.0184 0.02571,-0.0351 0.03625,-0.0537 0.02178,-0.0383 0.03178,-0.0802 0.07429,-0.10893 0.03304,-0.0694 0.03267,-0.14814 0.07755,-0.21502 0.01906,-0.0871 0.04312,-0.17252 0.05624,-0.26056 0.03956,-0.13271 0.102455,-0.25968 0.137761,-0.39343 0.03642,-0.14198 0.101778,-0.28237 0.08933,-0.42953 0,0 0.679526,-0.28342 0.679526,-0.28342 z"
       inkscape:connector-curvature="0" />
    <path
       style="fill:#770000;fill-opacity:0.09869139;stroke:#000002;stroke-width:0.01632288;stroke-linecap:round;stroke-linejoin:round;stroke-miterlimit:4;stroke-dasharray:0.01632288, 0.03264576;stroke-dashoffset:0;stroke-opacity:1;paint-order:markers stroke fill"
       id="path6301"
       d="m 10.761237,287.19003 c -0.0063,0.13593 -0.0048,0.27204 -0.0036,0.40803 0.0014,0.1109 0.0011,0.2218 0.0017,0.3327 6.12e-4,0.0901 7.91e-4,0.18016 9.5e-4,0.27024 1.3e-5,0.0141 1.7e-5,0.0283 3.5e-5,0.0424 0,0 -0.677842,0.2827 -0.677842,0.2827 v 0 c 1.3e-5,-0.0141 1.8e-5,-0.0283 3.5e-5,-0.0424 1.36e-4,-0.0904 4.09e-4,-0.18071 9.5e-4,-0.27105 6.13e-4,-0.11139 3.41e-4,-0.22278 0.0017,-0.33417 0.0011,-0.13499 0.0027,-0.2701 -0.0036,-0.40502 0,0 0.679526,-0.28341 0.679526,-0.28341 z"
       inkscape:connector-curvature="0" />
    <path
       style="fill:#770000;fill-opacity:0.09869139;stroke:#000002;stroke-width:0.01632288;stroke-linecap:round;stroke-linejoin:round;stroke-miterlimit:4;stroke-dasharray:0.01632288, 0.03264576;stroke-dashoffset:0;stroke-opacity:1;paint-order:markers stroke fill"
       id="path6303"
       d="m 9.1663803,288.36433 c -0.0075,0.15399 -0.0063,0.30816 -0.0072,0.46225 -0.0014,0.1742 2.72e-4,0.34841 0.0021,0.52261 0.0018,0.11695 0.0018,0.23392 0.0026,0.35087 -6.94e-4,0.10177 1.36e-4,0.20353 6.13e-4,0.30528 3.41e-4,0.0867 4.77e-4,0.17342 5.45e-4,0.26013 3.6e-5,0.0841 1.8e-5,0.16828 1.8e-5,0.25241 -0.0087,0.0757 0.01231,0.14836 0.02861,0.22215 0.01927,0.0409 -0.01185,0.16437 0.05548,0.17369 0.172312,-0.005 0.343841,-0.0447 0.507531,-0.0872 0.154442,-0.0278 0.2976947,-0.0839 0.4508037,-0.11469 0.101631,-0.0173 0.20576,-0.0179 0.309096,-0.0186 0.04772,-0.003 0.09838,0.008 0.144023,-0.009 0.01171,-0.004 0.04255,-0.0233 0.03136,-0.0182 -0.617758,0.28326 -0.8127067,0.41661 -0.60172,0.2744 0.06519,-0.11255 0.04916,-0.25209 0.05131,-0.37421 4.76e-4,-0.17891 -4.77e-4,-0.35782 -0.0013,-0.53674 -1.37e-4,-0.14044 -0.003,-0.28087 -0.0048,-0.4213 0.004,-0.10124 -0.02156,-0.20096 -0.03629,-0.30106 -0.01215,-0.0868 -0.01475,-0.17424 -0.0163,-0.26155 -9.5e-4,-0.0842 -6.81e-4,-0.16847 -5.44e-4,-0.25269 1.36e-4,-0.0842 2.04e-4,-0.16842 2.04e-4,-0.25262 1.8e-5,-0.0843 1.8e-5,-0.16851 1.8e-5,-0.25276 -10e-7,-0.0702 -2e-6,-0.14043 -2e-6,-0.21065 0,0 0.677908,-0.28273 0.677908,-0.28273 v 0 c 0,0.0702 1e-6,0.14042 2e-6,0.21063 0,0.0843 2e-6,0.16852 -1.3e-5,0.25278 -1.7e-5,0.0842 -5.4e-5,0.16844 -2.04e-4,0.25267 -1.36e-4,0.084 -4.09e-4,0.168 6.8e-5,0.25201 8.71e-4,0.0855 0.0021,0.17121 0.01183,0.25646 0.01288,0.10263 0.03908,0.20457 0.03834,0.30793 -0.0016,0.14152 -0.0041,0.28305 -0.0035,0.42459 2.73e-4,0.1791 0.0016,0.35819 0.0015,0.53728 2.72e-4,0.13348 0.0084,0.26891 -0.01853,0.40102 -0.130363,0.27697 -0.558071,0.37539 -0.8882817,0.3705 -0.09986,0.002 -0.200274,0.007 -0.296755,0.0303 -0.147066,0.0365 -0.291588,0.0797 -0.441004,0.10993 -0.170048,0.0376 -0.388541,0.10351 -0.55883,0.0495 -0.09265,-0.0716 -0.06686,-0.12244 -0.08463,-0.21715 -0.0161,-0.0772 -0.0428,-0.15306 -0.03339,-0.23236 -3e-6,-0.0841 -1.3e-5,-0.16828 1.7e-5,-0.25242 5.4e-5,-0.0869 1.37e-4,-0.17371 5.45e-4,-0.26056 4.77e-4,-0.10193 0.0013,-0.20386 6.13e-4,-0.30577 7.92e-4,-0.1177 7.92e-4,-0.2354 0.0026,-0.35309 0.0018,-0.17476 0.0035,-0.34955 0.0021,-0.52432 -9.5e-4,-0.15208 3.4e-4,-0.30424 -0.0072,-0.45622 0,0 0.680716,-0.28391 0.680716,-0.28391 z"
       inkscape:connector-curvature="0" />
    <path
       style="fill:#770000;fill-opacity:0.09869139;stroke:#000002;stroke-width:0.01632288;stroke-linecap:round;stroke-linejoin:round;stroke-miterlimit:4;stroke-dasharray:0.01632288, 0.03264576;stroke-dashoffset:0;stroke-opacity:1;paint-order:markers stroke fill"
       id="path6305"
       d="m 8.6517193,288.36433 c -0.0063,0.13314 -0.0047,0.26644 -0.0051,0.39967 2.73e-4,0.1494 -6.8e-4,0.29882 1.37e-4,0.44822 2.04e-4,0.13988 -2.05e-4,0.27974 0.0012,0.41962 4.09e-4,0.11081 0.0017,0.22164 10e-4,0.33246 -0.0011,0.11634 1.36e-4,0.23269 -8.71e-4,0.34903 -1.36e-4,0.10809 10e-4,0.21617 0.0017,0.32426 9.5e-4,0.0932 -2.73e-4,0.18635 -2.05e-4,0.27953 2.05e-4,0.0912 5.45e-4,0.18233 6.95e-4,0.27349 1.36e-4,0.0847 1.36e-4,0.16948 1.36e-4,0.25421 5e-6,0.0842 10e-7,0.16836 -2e-6,0.25254 -0.0017,0.0851 0.01255,0.17047 -0.02552,0.2512 -0.04272,0.0527 -0.11796,0.0771 -0.180417,0.11119 -0.326775,0.17852 -0.309438,0.16129 -0.857898,0.41974 -0.134261,0.0429 -0.206261,-0.0396 -0.278947,-0.11939 -0.105075,-0.1381 -0.239644,-0.25745 -0.384298,-0.36797 -0.111661,-0.0858 -0.23474,-0.16024 -0.366052,-0.22456 -0.164726,-0.0905 -0.358553,-0.13172 -0.538893,-0.19542 -0.11947,-0.0374 -0.237517,-0.0795 -0.359312,-0.11164 -0.08951,-0.0195 -0.182683,-0.0202 -0.274654,-0.0214 -0.09317,-0.009 -0.179601,0.0184 -0.27034,0.0302 -0.09687,0.0104 -0.194726,0.0114 -0.292267,0.0124 -0.120238,-0.003 -0.176419,0.0322 -0.225299,-0.0756 -0.0058,-0.12796 0.02592,-0.25618 0.06051,-0.38041 0.06052,-0.17655 0.128705,-0.35128 0.178599,-0.53014 0.0449,-0.18907 0.05033,-0.38229 0.05457,-0.57427 3.47e-4,-0.14957 -2.18e-4,-0.29916 -0.0022,-0.44873 -0.0016,-0.1 -0.0026,-0.19999 -0.0032,-0.29999 -3.4e-4,-0.0845 -3.27e-4,-0.16893 -3.27e-4,-0.25339 9e-6,-0.084 1.8e-5,-0.16805 3.6e-5,-0.25207 4e-6,-0.0562 6e-6,-0.11231 7e-6,-0.16846 0,0 0.677909,-0.28274 0.677909,-0.28274 v 0 c 1e-6,0.0561 2e-6,0.11231 3e-6,0.16845 4e-6,0.084 1.2e-5,0.16804 1.5e-5,0.25206 -4e-6,0.0845 0,0.16903 -2.04e-4,0.25354 -3e-4,0.10064 -8.71e-4,0.20127 -0.0017,0.30191 -9.5e-4,0.15099 7.4e-5,0.30198 -0.0044,0.45294 -0.0044,0.1951 -0.0097,0.39093 -0.04635,0.58412 -0.04429,0.18031 -0.115096,0.35521 -0.180287,0.53102 -0.02919,0.11552 -0.05197,0.23145 -0.05883,0.34937 -0.0021,0.002 -0.0077,0.002 -0.0064,0.005 7.92e-4,0.002 0.155911,0.002 0.172337,2.8e-4 0.09579,-0.002 0.191934,-0.006 0.286207,-0.0209 0.09254,-0.0152 0.183887,-0.0275 0.278881,-0.0192 0.09764,0.003 0.196066,0.009 0.288557,0.0373 0.11871,0.0379 0.236957,0.0771 0.353298,0.11964 0.184244,0.0644 0.379128,0.11093 0.548732,0.20086 0.133485,0.0688 0.258733,0.14577 0.370154,0.23776 0.144104,0.11462 0.280388,0.23643 0.393594,0.37278 0.08263,0.0769 0.103613,0.0991 0.220886,0.0485 -0.195372,0.0936 -0.390026,0.18814 -0.586112,0.28069 -0.02547,0.0121 0.05007,-0.0253 0.07419,-0.0391 0.05461,-0.0312 0.0984,-0.0634 0.154765,-0.0923 0.05191,-0.0266 0.05737,-0.0261 0.107351,-0.0402 0.07741,-0.0601 0.03827,-0.13992 0.04541,-0.22019 -3e-6,-0.0842 -7e-6,-0.16835 -2e-6,-0.25253 9e-6,-0.0848 1.8e-5,-0.16956 1.36e-4,-0.25434 1.36e-4,-0.0913 4.77e-4,-0.18271 6.95e-4,-0.27406 1.8e-5,-0.0931 -0.0012,-0.18623 -2.05e-4,-0.27935 6.13e-4,-0.10854 0.0017,-0.21709 0.0017,-0.32563 -9.5e-4,-0.11611 2.72e-4,-0.23221 -8.71e-4,-0.34833 -6.13e-4,-0.11111 6.88e-4,-0.22223 0.001,-0.33334 0.0014,-0.14021 9.51e-4,-0.28041 0.0012,-0.42062 7.76e-4,-0.14944 -2.04e-4,-0.29888 1.36e-4,-0.44832 -5.44e-4,-0.13177 0.0012,-0.26365 -0.0051,-0.39534 0,0 0.680714,-0.28391 0.680714,-0.28391 z"
       inkscape:connector-curvature="0" />
    <path
       style="fill:#770000;fill-opacity:0.09869139;stroke:#000002;stroke-width:0.01632288;stroke-linecap:round;stroke-linejoin:round;stroke-miterlimit:4;stroke-dasharray:0.01632288, 0.03264576;stroke-dashoffset:0;stroke-opacity:1;paint-order:markers stroke fill"
       id="path6307"
       d="m 3.8067953,287.57301 c -0.04101,0.1055 -0.08206,0.21136 -0.114113,0.31899 -0.02269,0.0766 -0.05571,0.15038 -0.09303,0.22286 -0.0333,0.0683 -0.03849,0.14206 -0.04268,0.2147 -0.0083,0.089 -0.03357,0.17579 -0.06826,0.2602 -0.03947,0.0831 -0.08688,0.1626 -0.114366,0.24912 -0.02604,0.0713 -0.05264,0.14131 -0.06549,0.21509 -0.01093,0.0803 -0.01099,0.16126 -0.01154,0.24196 -0.007,0.14241 0.06339,0.12138 0.22156,0.14643 0.210538,0.039 0.425102,0.0584 0.64025,0.0689 0.128432,0.006 0.257058,0.005 0.385608,0.005 0.0487,-0.003 0.100823,0.008 0.147294,-0.009 0.01173,-0.005 0.04251,-0.0237 0.03128,-0.0186 -0.617191,0.28289 -0.810789,0.41865 -0.601862,0.27441 0.0468,-0.0617 0.04253,-0.13877 0.04433,-0.209 7.29e-4,-0.0845 -5.3e-4,-0.169 -0.0011,-0.25349 7.45e-4,-0.0729 0.02606,-0.14177 0.05792,-0.20897 0.0235,-0.0637 0.05759,-0.12371 0.07614,-0.18863 0.02295,-0.0657 0.04162,-0.13314 0.06978,-0.19761 0.02453,-0.0635 0.05348,-0.12453 0.113877,-0.17053 0.765238,-0.46511 0.43563,-0.27561 0.78594,-0.32379 0.04853,-0.006 0.09663,-0.019 0.145332,-0.0261 0,0 -0.606838,0.37571 -0.606838,0.37571 v 0 c -0.357932,0.062 -0.546731,0.13573 0.388328,-0.25063 -0.078,0.0203 -0.115368,0.0673 -0.134741,0.13149 -0.0091,0.0197 -0.02218,0.0382 -0.02974,0.0583 -0.01614,0.043 -0.01829,0.0901 -0.04619,0.13035 -0.01284,0.0694 -0.04168,0.13185 -0.07042,0.19694 -0.02517,0.0637 -0.06414,0.12217 -0.07172,0.19047 5.04e-4,0.0848 0.0015,0.16959 0.0019,0.25439 -3.35e-4,0.0801 0.0011,0.16144 -0.02334,0.23958 -0.127495,0.27784 -0.560437,0.3792 -0.891256,0.37075 -0.12772,-6.9e-4 -0.255505,-0.003 -0.382833,-0.0117 -0.215622,-0.0158 -0.429966,-0.0406 -0.641745,-0.0779 -0.167803,-0.0306 -0.297033,-0.0516 -0.285812,-0.21333 8.8e-5,-0.0827 -3e-4,-0.16544 0.0068,-0.24795 0.0087,-0.0761 0.02398,-0.15131 0.06305,-0.22155 0.02196,-0.0906 0.06324,-0.17355 0.110316,-0.25708 0.04038,-0.0774 0.06209,-0.15848 0.07797,-0.24149 0.0024,-0.0779 0.0048,-0.15678 0.03032,-0.2324 0.0306,-0.0735 0.07661,-0.14166 0.101954,-0.21714 0.02965,-0.10884 0.07625,-0.21341 0.105967,-0.32221 0,0 0.691128,-0.26569 0.691128,-0.26569 z"
       inkscape:connector-curvature="0" />
    <path
       style="fill:#ff0000;fill-opacity:0.09869139;stroke:#000002;stroke-width:0.01632288;stroke-linecap:round;stroke-linejoin:round;stroke-miterlimit:4;stroke-dasharray:0.01632288, 0.03264576;stroke-dashoffset:0;stroke-opacity:1;paint-order:markers stroke fill"
       id="path6327"
       d="m 3.9677053,286.85301 c -0.0056,0.14092 -0.0048,0.28194 -0.0052,0.42291 -0.0049,0.15447 -0.05091,0.30589 -0.102947,0.45368 -0.03859,0.11465 -0.08488,0.22766 -0.119246,0.34323 -0.02634,0.088 -0.07043,0.17135 -0.100345,0.25848 -0.02391,0.0838 -0.04761,0.16763 -0.0715,0.25144 -0.03183,0.0691 -0.04547,0.14148 -0.06065,0.21382 -0.0143,0.0666 -0.04971,0.12744 -0.07582,0.19093 0,0 -0.689037,0.26819 -0.689037,0.26819 v 0 c 0.01873,-0.0661 0.05881,-0.12316 0.07724,-0.18903 0.02821,-0.0703 0.01992,-0.14867 0.0598,-0.21714 0.03658,-0.0795 0.04623,-0.16788 0.07424,-0.24969 0.02507,-0.0884 0.06569,-0.17234 0.102335,-0.25769 0.03191,-0.11852 0.08441,-0.23206 0.121952,-0.3494 0.05809,-0.14145 0.100397,-0.28881 0.11485,-0.43775 -3.88e-4,-0.13952 4.42e-4,-0.2791 -0.0052,-0.41856 0,0 0.679525,-0.28342 0.679525,-0.28342 z"
       inkscape:connector-curvature="0" />
    <path
       style="fill:#ff0000;fill-opacity:0.09869139;stroke:#000002;stroke-width:0.01632288;stroke-linecap:round;stroke-linejoin:round;stroke-miterlimit:4;stroke-dasharray:0.01632288, 0.03264576;stroke-dashoffset:0;stroke-opacity:1;paint-order:markers stroke fill"
       id="path6331"
       d="m 3.8569763,286.31321 c -0.06541,0.18137 -0.124161,0.36428 -0.180092,0.54777 -0.06952,0.19016 -0.1218,0.38471 -0.199744,0.57284 -0.04706,0.11359 -0.101559,0.22502 -0.152118,0.3376 -0.163334,0.34606 -0.309291,0.69769 -0.452678,1.0496 -0.06745,0.16599 -0.117258,0.33623 -0.137804,0.51039 -0.0012,0.0164 -0.0025,0.0327 -0.0036,0.0491 -5.99e-4,0.0151 -7.8e-4,0.0303 -0.0018,0.0455 -0.0033,0.05 -0.0143,0.0676 0.05026,0.0758 0.173547,0.0207 0.350159,0.0174 0.525156,0.0181 0.194566,-7.1e-4 0.389131,-0.002 0.583694,-0.003 0.13209,-7.8e-4 0.264182,-0.002 0.396277,-0.002 0.01795,-2e-5 0.03589,-6e-5 0.05384,-1.1e-4 0,0 -0.615129,0.36584 -0.615129,0.36584 v 0 c -0.01784,-3e-5 -0.03568,-5e-5 -0.05352,-5e-5 -0.130229,-2.8e-4 -0.260456,-7.5e-4 -0.390683,-7.9e-4 -0.19343,-1.7e-4 -0.386858,7.4e-4 -0.580287,3.3e-4 -0.183721,-3.3e-4 -0.37448,0.008 -0.552769,-0.0325 -0.05124,-0.0251 -0.09942,-0.0494 -0.104201,-0.10446 -0.0011,-0.0123 0.0078,-0.024 0.0094,-0.0362 0.0044,-0.0329 -0.0017,-0.0664 0.0055,-0.0992 0.02226,-0.18237 0.07972,-0.35943 0.153251,-0.53238 0.153197,-0.35091 0.301601,-0.70315 0.45825,-1.05301 0.132517,-0.29533 0.255727,-0.5925 0.342105,-0.89958 0.05523,-0.18003 0.105843,-0.36083 0.158117,-0.54144 0,0 0.688559,-0.26769 0.688559,-0.26769 z"
       inkscape:connector-curvature="0" />
    <path
       style="fill:#ff0000;fill-opacity:0.09869139;stroke:#000002;stroke-width:0.01632288;stroke-linecap:round;stroke-linejoin:round;stroke-miterlimit:4;stroke-dasharray:0.01632288, 0.03264576;stroke-dashoffset:0;stroke-opacity:1;paint-order:markers stroke fill"
       id="path6333"
       d="m 3.7749363,286.24641 c 0.249572,0.0488 0.507941,0.0556 0.763242,0.0643 0.303731,0.009 0.607704,0.008 0.911563,0.006 0.144946,-0.002 0.28989,-0.003 0.434844,-0.003 0.105811,-0.007 0.207791,0.0169 0.311731,0.0288 0.05017,0.006 0.100702,0.008 0.151195,0.01 0,0 -0.618642,0.3626 -0.618642,0.3626 v 0 c -0.05173,-0.003 -0.10348,-0.007 -0.154757,-0.0141 -0.101037,-0.0134 -0.201338,-0.0277 -0.304302,-0.0215 -0.141634,-2.9e-4 -0.283266,-7.9e-4 -0.424887,-0.002 -0.301133,-0.003 -0.602287,-0.006 -0.903318,-0.014 -0.267077,-0.009 -0.536964,-0.0158 -0.798513,-0.0651 0,0 0.631844,-0.3509 0.631844,-0.3509 z"
       inkscape:connector-curvature="0" />
    <path
       style="fill:#ff0000;fill-opacity:0.09869139;stroke:#000002;stroke-width:0.01632288;stroke-linecap:round;stroke-linejoin:round;stroke-miterlimit:4;stroke-dasharray:0.01632288, 0.03264576;stroke-dashoffset:0;stroke-opacity:1;paint-order:markers stroke fill"
       id="path6335"
       d="m 7.0048023,285.7524 c -0.0048,0.10717 -0.0032,0.21445 -0.0025,0.32167 4.98e-4,0.0768 7.91e-4,0.15348 9.51e-4,0.23023 0,0 -0.677571,0.2826 -0.677571,0.2826 v 0 c 1.9e-4,-0.077 4.83e-4,-0.15403 9.5e-4,-0.23105 5.93e-4,-0.1065 0.0022,-0.21308 -0.0025,-0.31954 0,0 0.680715,-0.28391 0.680715,-0.28391 z"
       inkscape:connector-curvature="0" />
    <path
       style="fill:#ff0000;fill-opacity:0.09869139;stroke:#000002;stroke-width:0.01632288;stroke-linecap:round;stroke-linejoin:round;stroke-miterlimit:4;stroke-dasharray:0.01632288, 0.03264576;stroke-dashoffset:0;stroke-opacity:1;paint-order:markers stroke fill"
       id="path6337"
       d="m 8.1370573,285.7524 c -0.0048,0.10717 -0.0032,0.21445 -0.0025,0.32167 6.13e-4,0.091 8.71e-4,0.18208 10e-4,0.27313 0.0022,0.0725 -0.0039,0.14533 0.0029,0.21773 -0.645597,0.28659 -0.649394,0.44989 -0.709285,0.14746 -0.01532,-0.0902 -0.01906,-0.18139 -0.02164,-0.27235 -0.0025,-0.0807 0.0044,-0.16116 -0.01354,-0.24081 -0.02134,-0.0755 -0.03008,-0.15246 -0.03528,-0.22961 -0.008,-0.0776 -0.0037,-0.15308 0.033,-0.22537 0.02101,-0.0393 0.05328,-0.0732 0.08887,-0.10423 0,0 0.710168,-0.23057 0.710168,-0.23057 v 0 c -0.0468,0.0177 -0.07204,0.0433 -0.104401,0.0753 -0.04519,0.0731 -0.06246,0.11344 -0.05099,0.19922 0.004,0.0743 0.0104,0.14868 0.03118,0.22131 0.02088,0.0833 0.01885,0.16643 0.01769,0.25127 0.0015,0.0881 0.0033,0.17639 0.01792,0.26378 0.06585,0.32037 0.184177,0.0619 -0.648953,0.43434 -0.0017,7.7e-4 0.0011,-0.003 0.0017,-0.005 0.0064,-0.0732 0.001,-0.14682 0.0029,-0.22018 1.36e-4,-0.0913 4.76e-4,-0.18267 0.001,-0.274 6.13e-4,-0.10651 0.0022,-0.2131 -0.0025,-0.31955 0,0 0.680715,-0.28391 0.680715,-0.28391 z"
       inkscape:connector-curvature="0" />
    <path
       style="fill:#ff0000;fill-opacity:0.09869139;stroke:#000002;stroke-width:0.01632288;stroke-linecap:round;stroke-linejoin:round;stroke-miterlimit:4;stroke-dasharray:0.01632288, 0.03264576;stroke-dashoffset:0;stroke-opacity:1;paint-order:markers stroke fill"
       id="path6339"
       d="m 8.4570893,286.39683 c 0.22665,0.006 0.453445,0.005 0.680165,0.005 0.22469,-7.8e-4 0.449382,-7.8e-4 0.67407,-0.002 0.145428,-2.8e-4 0.2908507,-7.9e-4 0.4362777,-0.002 0.106406,0.009 0.190915,-0.008 0.292361,-0.0249 0.105351,-0.0181 0.177699,0.0122 0.260691,0.06 0.07607,0.0687 0.116674,0.15218 0.142713,0.24099 0.02102,0.0863 0.02258,0.17457 0.02387,0.26224 4.09e-4,0.0932 -0.0011,0.18631 -0.0013,0.27948 6e-6,0.0895 1.37e-4,0.17907 2.73e-4,0.26861 5.45e-4,0.0886 -3.41e-4,0.17722 -7.35e-4,0.26583 -3.4e-4,0.10998 -0.0013,0.21996 -8.71e-4,0.32994 0.0012,0.10259 4.09e-4,0.20517 6.13e-4,0.30776 -0.001,0.10347 -5.4e-5,0.20694 4.08e-4,0.31041 -9.5e-4,0.0987 -2.72e-4,0.19749 1.37e-4,0.29623 3.4e-4,0.0867 4.08e-4,0.17336 4.76e-4,0.26005 -0.0045,0.0733 0.01953,0.14409 0.04671,0.21313 0.02327,0.0747 0.04632,0.14895 0.07207,0.22315 0.02144,0.0683 0.05292,0.1333 0.06936,0.20286 0.01569,0.0809 0.01675,0.16299 0.01796,0.24468 0.01396,0.0685 0.0241,0.13846 0.04459,0.20589 0.03014,0.0738 0.04315,0.1509 0.06283,0.22674 0.01992,0.0832 0.05804,0.16191 0.0783,0.2452 0.02151,0.0781 0.01699,0.14752 -0.02798,0.21825 -0.142977,0.0765 -0.604073,0.47284 -0.883527,0.28373 -0.06716,-0.0708 -0.0865,-0.16248 -0.170646,-0.22209 -0.07762,-0.0367 -0.169789,-0.0355 -0.256808,-0.0372 -0.1023737,-7.3e-4 -0.2047507,4.5e-4 -0.3071217,7.8e-4 -0.09096,0.003 -0.178429,0.0266 -0.269576,0.035 -0.04539,0.006 -0.09372,-0.002 -0.136255,0.0155 -0.01135,0.005 -0.04125,0.0245 -0.03011,0.0194 0.209466,-0.0961 0.416985,-0.19511 0.625476,-0.29266 0,0 -0.707516,0.23618 -0.707516,0.23618 v 0 c 0.49669,-0.24293 0.486964,-0.32342 0.8586407,-0.35214 0.09114,-0.0126 0.181092,-0.0331 0.274529,-0.0277 0.103282,-6.1e-4 0.206652,-0.002 0.309873,0.002 0.103157,0.006 0.206134,0.017 0.287694,0.0742 0.07323,0.063 0.10465,0.14205 0.164756,0.21212 0.03118,0.0112 0.05958,0.0176 0.09412,0.0135 0.05619,-0.006 0.06621,-0.0217 0.06419,-0.0208 -0.206674,0.10229 -0.413288,0.20466 -0.619932,0.30698 0.06773,-0.0464 0.07559,-0.10281 0.05816,-0.17191 -0.01743,-0.0833 -0.05508,-0.16148 -0.07538,-0.24416 -0.02065,-0.0745 -0.03639,-0.14986 -0.0641,-0.22288 -0.02502,-0.0718 -0.03151,-0.14766 -0.05186,-0.22057 -7.42e-4,-0.0783 -9.51e-4,-0.15699 -0.01328,-0.23481 -0.01392,-0.0683 -0.04532,-0.13112 -0.06615,-0.19778 -0.0243,-0.0736 -0.04935,-0.14648 -0.06967,-0.22093 -0.03042,-0.0746 -0.06088,-0.15116 -0.05719,-0.23092 5.4e-5,-0.0868 1.36e-4,-0.17363 4.76e-4,-0.26044 3.41e-4,-0.0988 0.0011,-0.19756 1.37e-4,-0.29633 4.76e-4,-0.1036 0.0014,-0.20719 4.08e-4,-0.31078 2.05e-4,-0.10277 -6.13e-4,-0.20553 6.13e-4,-0.30829 4.08e-4,-0.10974 -5.45e-4,-0.21948 -8.71e-4,-0.32921 -4.08e-4,-0.0884 -0.0013,-0.17683 -7.08e-4,-0.26525 1.36e-4,-0.0898 4.09e-4,-0.17953 9.5e-4,-0.26928 4.77e-4,-0.0928 1.37e-4,-0.18554 2.05e-4,-0.2783 -4.09e-4,-0.0837 -1.37e-4,-0.16779 -0.01619,-0.25064 -0.01847,-0.0736 -0.04665,-0.14605 -0.115938,-0.19887 -0.0707,-0.0367 -0.144907,-0.0376 -0.2254357,-0.0199 -0.0989,0.016 -0.198087,0.0153 -0.298685,0.0132 -0.143559,-5e-4 -0.287115,-0.002 -0.430676,-0.002 -0.222048,-0.002 -0.444101,-0.002 -0.666153,-0.002 -0.232176,3.9e-4 -0.464416,-1.6e-4 -0.696527,0.005 0,0 0.616996,-0.36694 0.616996,-0.36694 z"
       inkscape:connector-curvature="0" />
    <path
       style="fill:#ff0000;fill-opacity:0.09869139;stroke:#000002;stroke-width:0.01632288;stroke-linecap:round;stroke-linejoin:round;stroke-miterlimit:4;stroke-dasharray:0.01632288, 0.03264576;stroke-dashoffset:0;stroke-opacity:1;paint-order:markers stroke fill"
       id="path6341"
       d="m 9.0634483,288.40646 c -0.0067,0.1359 -0.0051,0.27195 -0.0052,0.40794 -1.36e-4,0.14242 -0.0048,0.28451 0.01382,0.42625 0.01939,0.12164 0.03009,0.24367 0.03517,0.3662 -0.0072,0.10814 0.02691,0.21075 0.062,0.3135 0.02961,0.0848 0.03938,0.17253 0.04477,0.26021 0.0012,0.0841 0.02511,0.16648 0.03814,0.24969 0.01217,0.0866 0.01475,0.17389 0.01496,0.26101 -0.0039,0.064 0.0096,0.12723 0.02117,0.19022 0,0 -0.671392,0.29035 -0.671392,0.29035 v 0 c -0.01184,-0.0656 -0.0289,-0.13125 -0.02617,-0.19779 -0.0018,-0.0849 -0.002,-0.16989 -0.01223,-0.25444 -0.0117,-0.085 -0.03715,-0.16856 -0.04098,-0.25391 -0.0036,-0.0835 -0.0097,-0.16724 -0.03572,-0.24842 -0.03489,-0.10776 -0.0737,-0.21471 -0.06659,-0.32789 -0.0045,-0.12114 -0.01385,-0.24217 -0.03179,-0.36251 -0.01847,-0.1441 -0.01786,-0.28808 -0.01549,-0.4329 -6.9e-5,-0.13454 0.0016,-0.26915 -0.0052,-0.40361 0,0 0.680716,-0.2839 0.680716,-0.2839 z"
       inkscape:connector-curvature="0" />
    <path
       style="fill:#ff0000;fill-opacity:0.09869139;stroke:#000002;stroke-width:0.01632288;stroke-linecap:round;stroke-linejoin:round;stroke-miterlimit:4;stroke-dasharray:0.01632288, 0.03264576;stroke-dashoffset:0;stroke-opacity:1;paint-order:markers stroke fill"
       id="path6347"
       d="m 5.7147603,288.28471 c -0.04433,0.11559 -0.07095,0.23376 -0.08698,0.35401 -0.01352,0.12454 -0.01649,0.24965 -0.01729,0.37462 2.25e-4,0.1238 7.5e-5,0.24761 0.0011,0.37141 9.5e-4,0.11959 -4.56e-4,0.23917 -1.64e-4,0.35876 -1.63e-4,0.1184 4.71e-4,0.23681 7.23e-4,0.35522 0.0013,0.10712 0.004,0.21394 -0.01173,0.32044 -0.02162,0.1287 -0.05588,0.25609 -0.09887,0.38111 -0.03644,0.10527 -0.0799,0.20902 -0.113814,0.31486 -0.02166,0.0767 -0.06887,0.14563 -0.09956,0.21972 0.0017,0.0155 -0.01454,0.0302 -0.01375,0.046 3.73e-4,0.007 0.01485,0.0187 0.0065,0.0216 -0.752611,0.26426 -0.820182,0.38532 -0.65764,0.16919 0.230553,-0.19235 0.529153,-0.36225 0.85751,-0.40574 0.108895,-0.01 0.219011,-0.0132 0.327559,-7.9e-4 0.14096,0.006 0.269649,0.0505 0.40307,0.0827 0.126476,0.0228 0.24562,0.0615 0.365622,0.0997 0.124409,0.0397 0.256738,0.0638 0.372892,0.11863 0.08722,0.0307 0.164415,0.0735 0.242711,0.11654 0.06643,0.0291 0.122796,0.0737 0.179213,0.11465 0.06537,0.031 0.127656,0.0668 0.194975,0.0955 0.06915,0.0373 0.127799,0.0841 0.207184,0.10609 0.106009,0.0118 0.209011,0.0347 0.315012,0.0471 0.08927,0.027 0.181125,0.0422 0.275571,0.0494 0.09112,-0.003 0.164719,0.0388 0.245736,0.0645 0.08071,0.0292 0.160293,0.0622 0.243873,0.0859 0.04203,-2.3e-4 0.02388,0.005 0.05536,-0.0136 -0.212923,0.0967 -0.426439,0.19259 -0.63877,0.2902 -0.0059,0.002 0.01468,-0.002 0.01919,-0.006 0.01164,-0.0106 0.0098,-0.0396 0.01036,-0.05 -0.0033,-0.0729 -0.03648,-0.1416 -0.05041,-0.21354 -0.01493,-0.0926 -0.01777,-0.18612 -0.01973,-0.27941 1.36e-4,-0.10615 7.7e-4,-0.2123 4.09e-4,-0.31846 -4.77e-4,-0.10064 2.04e-4,-0.20128 -6.8e-5,-0.30192 -4.09e-4,-0.0898 -6.13e-4,-0.17953 -7.56e-4,-0.2693 -6.8e-5,-0.0844 -6.8e-5,-0.16878 -6.8e-5,-0.25317 0.0013,-0.0853 -0.0036,-0.17075 0.0042,-0.25587 0.017,-0.0835 0.03229,-0.16693 0.04035,-0.25132 0.0032,-0.0858 0.02832,-0.16953 0.04251,-0.25434 0.0172,-0.073 0.04318,-0.14393 0.05567,-0.21782 0.01092,-0.0803 0.01132,-0.16131 0.01203,-0.24205 3.4e-4,-0.0842 1.8e-5,-0.16844 -1.37e-4,-0.25266 0.0011,-0.0727 0.02658,-0.14144 0.05846,-0.20849 0.03175,-0.0688 0.03747,-0.14245 0.04193,-0.21518 0.0026,-0.0553 0.0027,-0.11054 0.0029,-0.16582 0,0 0.677971,-0.28266 0.677971,-0.28266 v 0 c 1.8e-5,0.0559 1.36e-4,0.11185 -0.0013,0.16775 -0.0027,0.0775 -0.0055,0.156 -0.03006,0.23143 -0.02516,0.0637 -0.06415,0.122 -0.0721,0.19016 1.36e-4,0.0843 4.08e-4,0.16864 4.08e-4,0.25296 -2.04e-4,0.0826 -1.36e-4,0.1654 -0.0074,0.24787 -0.0086,0.0746 -0.02358,0.14826 -0.05631,0.21872 -0.01166,0.0843 -0.03711,0.16683 -0.04434,0.25121 -0.0062,0.0854 -0.01701,0.17039 -0.03869,0.25416 -0.01725,0.0821 -0.0041,0.16621 -0.0081,0.24921 -2e-6,0.0844 0,0.16883 -6.8e-5,0.25325 -1.37e-4,0.09 -3.41e-4,0.17997 -7.92e-4,0.26995 -4.09e-4,0.10077 2.72e-4,0.20153 -6.13e-4,0.30229 -6.81e-4,0.10564 -8.71e-4,0.21128 9.5e-4,0.31691 8.71e-4,0.0906 0.0018,0.18135 0.01518,0.27137 0.014,0.0746 0.04753,0.14511 0.05741,0.21995 0.0013,0.0131 0.01794,0.10228 0.0033,0.10982 -0.37099,0.19174 -0.467579,0.38159 -0.761766,0.30191 -0.08233,-0.0284 -0.163907,-0.0581 -0.245908,-0.087 -0.07497,-0.0276 -0.148242,-0.0509 -0.232318,-0.0511 -0.09395,-0.0113 -0.184041,-0.0331 -0.275827,-0.0523 -0.109906,-0.0161 -0.220643,-0.0329 -0.327871,-0.0579 -0.07598,-0.0306 -0.138492,-0.0763 -0.21099,-0.11176 -0.06988,-0.0328 -0.140415,-0.0659 -0.204765,-0.10553 -0.05716,-0.038 -0.108394,-0.0817 -0.174412,-0.10961 -0.0745,-0.0432 -0.153907,-0.0787 -0.235361,-0.11229 -0.116485,-0.0475 -0.24361,-0.0747 -0.364452,-0.11373 -0.119089,-0.037 -0.240715,-0.0677 -0.363429,-0.0956 -0.129126,-0.0336 -0.257439,-0.0679 -0.394339,-0.0718 -0.105741,-0.003 -0.213311,-0.002 -0.316406,0.0201 -0.02575,0.008 -0.09877,0.0381 -0.07521,0.0268 1.091427,-0.52579 0.745632,-0.37082 0.526523,-0.24554 -0.296893,0.21609 0.973888,-0.3811 -0.765045,0.30213 -0.0079,0.003 0.008,0.0159 0.01679,0.0167 0.01896,0.002 0.0043,-0.055 0.02177,-0.0433 0.02364,-0.0765 0.0664,-0.14513 0.102652,-0.21785 0.03061,-0.10874 0.08205,-0.21222 0.115689,-0.32028 0.05246,-0.11917 0.07946,-0.24527 0.101614,-0.37032 0.01977,-0.1042 0.0198,-0.20797 0.01759,-0.31337 2.59e-4,-0.1186 8.71e-4,-0.2372 6.99e-4,-0.35579 2.38e-4,-0.11944 -0.0012,-0.23888 -6.91e-4,-0.35831 5.85e-4,-0.12419 -4.16e-4,-0.24838 5.37e-4,-0.37257 8.71e-4,-0.12675 -0.0013,-0.25374 0.01406,-0.38005 0.01425,-0.11916 0.02994,-0.23985 0.07634,-0.35401 0,0 0.68625,-0.27463 0.68625,-0.27463 z"
       inkscape:connector-curvature="0" />
    <path
       style="fill:#ff0000;fill-opacity:0.09869139;stroke:#000002;stroke-width:0.01632288;stroke-linecap:round;stroke-linejoin:round;stroke-miterlimit:4;stroke-dasharray:0.01632288, 0.03264576;stroke-dashoffset:0;stroke-opacity:1;paint-order:markers stroke fill"
       id="path6349"
       d="m 8.3429223,288.3222 c -0.0058,0.12281 -0.0042,0.24581 -0.0038,0.36869 7.14e-4,0.10264 0.0016,0.20528 0.0021,0.30792 3.4e-4,0.0853 3.4e-4,0.17057 4.09e-4,0.25585 -7.7e-4,0.0943 -8.71e-4,0.18858 -6.13e-4,0.28288 2.72e-4,0.088 4.76e-4,0.17598 5.44e-4,0.26397 0.0042,0.0844 0.03434,0.16504 0.0608,0.246 0.01673,0.0791 0.05989,0.15107 0.09518,0.22517 0.03389,0.0793 0.06484,0.15858 0.08308,0.24136 0.0159,0.0847 0.01744,0.17051 0.01869,0.256 0.0027,0.0833 -0.0044,0.16689 0.004,0.24999 0.01079,0.0561 0.02197,0.11209 0.03084,0.16842 0,0 -0.673605,0.28941 -0.673605,0.28941 v 0 c -0.0079,-0.0565 -0.01793,-0.11276 -0.03098,-0.16865 -0.01524,-0.0847 -0.0051,-0.17052 -0.0078,-0.25594 -6.13e-4,-0.0825 -8.71e-4,-0.16527 -0.01327,-0.24727 -0.01494,-0.0794 -0.04415,-0.15453 -0.07655,-0.23017 -0.03494,-0.0765 -0.08205,-0.15 -0.09803,-0.23158 -0.0271,-0.0862 -0.06061,-0.17078 -0.07009,-0.26005 6.8e-5,-0.0881 2.72e-4,-0.17629 5.44e-4,-0.26442 2.73e-4,-0.0941 1.37e-4,-0.18825 -6.12e-4,-0.28237 1.8e-5,-0.0854 3.5e-5,-0.17077 4.08e-4,-0.25616 4.77e-4,-0.10322 0.0013,-0.20644 0.0021,-0.30965 4.08e-4,-0.12182 0.0021,-0.24375 -0.0038,-0.3655 0,0 0.680716,-0.2839 0.680716,-0.2839 z"
       inkscape:connector-curvature="0" />
    <path
       style="fill:#ff0000;fill-opacity:0.09869139;stroke:#000002;stroke-width:0.01632288;stroke-linecap:round;stroke-linejoin:round;stroke-miterlimit:4;stroke-dasharray:0.01632288, 0.03264576;stroke-dashoffset:0;stroke-opacity:1;paint-order:markers stroke fill"
       id="path6351"
       d="m 5.3578853,291.31328 c -0.0078,0.17835 -0.0084,0.35689 -0.0109,0.53533 -0.0055,0.34304 -0.0078,0.68612 -0.0078,1.02919 -3.67e-4,0.30413 0.0032,0.60826 0.0092,0.91236 0.003,0.13142 0.0061,0.26284 0.0076,0.39428 7.55e-4,0.0845 7.17e-4,0.16899 7.14e-4,0.25348 -1.8e-5,0.0835 -5.4e-5,0.16706 -7.5e-5,0.2506 -1.4e-5,0.0842 -1.5e-5,0.16841 -1.5e-5,0.25262 -10e-7,0.0843 -10e-7,0.16852 0,0.25279 0.0077,0.0739 -0.01782,0.15407 0.01515,0.22482 0.05086,0.0412 0.136989,0.0353 0.203849,0.0374 0.101736,0.002 0.203494,1.7e-4 0.305233,-4.5e-4 0.06849,-3.3e-4 0.03487,-0.003 0.100904,0.008 0,0 -0.622187,0.36013 -0.622187,0.36013 v 0 c -0.05932,-0.002 -0.02804,-0.002 -0.09387,-0.002 -0.103074,5.7e-4 -0.206307,0.002 -0.309252,-0.003 -0.0982,-0.008 -0.194778,-0.0218 -0.251262,-0.0957 -0.03943,-0.079 -0.02482,-0.16282 -0.02647,-0.24666 0,-0.0843 0,-0.16852 0,-0.25279 -2e-6,-0.0842 -2e-6,-0.1684 -1.6e-5,-0.25261 -1.6e-5,-0.0835 -5.4e-5,-0.16702 -7.5e-5,-0.25054 -3e-6,-0.0847 -3.6e-5,-0.16938 7.13e-4,-0.25407 0.0014,-0.13354 0.0045,-0.26706 0.0075,-0.40058 0.0059,-0.30664 0.0095,-0.61332 0.0092,-0.92 -1.09e-4,-0.3409 -0.0022,-0.68178 -0.0078,-1.02264 -0.0025,-0.17542 -0.0029,-0.35093 -0.0109,-0.52625 0,0 0.680714,-0.28391 0.680714,-0.28391 z"
       inkscape:connector-curvature="0" />
    <path
       style="fill:#ff0000;fill-opacity:0.09869139;stroke:#000002;stroke-width:0.01632288;stroke-linecap:round;stroke-linejoin:round;stroke-miterlimit:4;stroke-dasharray:0.01632288, 0.03264576;stroke-dashoffset:0;stroke-opacity:1;paint-order:markers stroke fill"
       id="path6353"
       d="m 7.2621323,293.1669 c -0.0061,0.13137 -0.0051,0.26293 -0.0046,0.39438 0.0017,0.12062 8.71e-4,0.24124 0.0012,0.36187 7.49e-4,0.1225 -2.04e-4,0.24501 -0.0012,0.36751 6.94e-4,0.12235 7.91e-4,0.24471 0.0016,0.36707 7.49e-4,0.0944 0.0012,0.1888 0.0014,0.28321 2.04e-4,0.0845 1.36e-4,0.16897 2.04e-4,0.25345 -3e-6,0.0841 -9e-6,0.16823 -1.2e-5,0.25234 0,0 -0.677916,0.28275 -0.677916,0.28275 v 0 c -3e-6,-0.0841 -9e-6,-0.16823 -1.2e-5,-0.25233 4e-6,-0.0845 0,-0.16907 1.78e-4,-0.2536 2.44e-4,-0.0948 7.13e-4,-0.18963 0.0014,-0.28444 7.59e-4,-0.12278 8.71e-4,-0.24557 0.0016,-0.36836 -9.5e-4,-0.12218 -0.0019,-0.24436 -0.0012,-0.36655 2.65e-4,-0.12095 -5.31e-4,-0.24189 0.0012,-0.36284 5.58e-4,-0.13017 0.0016,-0.26045 -0.0046,-0.39055 0,0 0.680716,-0.28391 0.680716,-0.28391 z"
       inkscape:connector-curvature="0" />
    <path
       style="fill:#ff0000;fill-opacity:0.09869139;stroke:#000002;stroke-width:0.01632288;stroke-linecap:round;stroke-linejoin:round;stroke-miterlimit:4;stroke-dasharray:0.01632288, 0.03264576;stroke-dashoffset:0;stroke-opacity:1;paint-order:markers stroke fill"
       id="path6355"
       d="m 9.0113873,292.28751 c -0.01135,0.21354 -0.01041,0.4274 -0.01105,0.6411 8.71e-4,0.28778 -0.0036,0.57552 -0.0032,0.8633 10e-4,0.27986 0.0023,0.55971 0.0029,0.83957 6.8e-5,0.22322 0.0027,0.44643 0.0042,0.66964 0.0027,0.15418 0.0017,0.30837 0.0032,0.46256 0.001,0.0898 0.002,0.17956 0.0026,0.26933 0,0 -0.676799,0.28228 -0.676799,0.28228 v 0 c 6.13e-4,-0.0905 0.0016,-0.18102 0.0026,-0.27153 0.0014,-0.15505 4.77e-4,-0.31011 0.0032,-0.46517 0.0014,-0.22438 0.0041,-0.44874 0.0042,-0.67312 6.8e-4,-0.28068 0.0019,-0.56136 0.0029,-0.84204 4.09e-4,-0.28688 -0.0041,-0.57373 -0.0032,-0.86062 -6.12e-4,-0.21063 4.76e-4,-0.42142 -0.01105,-0.63189 0,0 0.679525,-0.28341 0.679525,-0.28341 z"
       inkscape:connector-curvature="0" />
    <path
       style="fill:#ff0000;fill-opacity:0.09869139;stroke:#000002;stroke-width:0.01632288;stroke-linecap:round;stroke-linejoin:round;stroke-miterlimit:4;stroke-dasharray:0.01632288, 0.03264576;stroke-dashoffset:0;stroke-opacity:1;paint-order:markers stroke fill"
       id="path6357"
       d="m 8.3211023,296.41301 c -0.08613,-0.0635 -0.173534,-0.12545 -0.246029,-0.1999 -0.05031,-0.0618 -0.09418,-0.12799 -0.155104,-0.18332 -0.05638,-0.0422 -0.11279,-0.0644 -0.18769,-0.0748 -0.07795,-0.0251 -0.158135,-0.0397 -0.236514,-0.0634 -0.0654,-0.0414 -0.139579,-0.0566 -0.219876,-0.0648 -0.09591,-0.003 -0.188529,-0.006 -0.28211,-0.0233 -0.08917,-0.0171 -0.180779,-0.0207 -0.271938,-0.0233 -0.12913,-0.0161 -0.158111,-0.1047 -0.177147,-0.19704 -0.01346,-0.12573 -0.01289,-0.25207 -0.0131,-0.37817 -7.36e-4,-0.10682 5.85e-4,-0.21364 5.92e-4,-0.32046 -1.9e-4,-0.0922 -5.1e-4,-0.18443 -6.81e-4,-0.27664 -8.8e-5,-0.0565 -1.29e-4,-0.11309 -1.42e-4,-0.16964 0,0 0.677903,-0.28274 0.677903,-0.28274 v 0 c -1.7e-5,0.0566 -3.6e-5,0.11318 -1.36e-4,0.16977 -2.05e-4,0.0925 -5.45e-4,0.18507 -0.0013,0.2776 -6.13e-4,0.10711 -5.45e-4,0.21421 -0.0026,0.32131 -9.5e-4,0.12277 -0.0035,0.24595 0.01025,0.36834 0.01406,0.0801 0.01374,0.12017 0.124418,0.12379 0.09409,0.005 0.187806,0.0127 0.279709,0.0307 0.09282,0.0133 0.187593,0.008 0.280449,0.0217 0.08197,0.0142 0.155769,0.0397 0.228468,0.0736 0.07593,0.0222 0.155084,0.0361 0.231258,0.0579 0.08362,0.0207 0.153343,0.0557 0.214297,0.10746 0.05801,0.0582 0.104378,0.12294 0.153084,0.18643 0.0717,0.0723 0.158439,0.13286 0.245716,0.19218 0,0 -0.651794,0.32694 -0.651794,0.32694 z"
       inkscape:connector-curvature="0" />
    <path
       style="fill:#ff0000;fill-opacity:0.09869139;stroke:#000002;stroke-width:0.01632288;stroke-linecap:round;stroke-linejoin:round;stroke-miterlimit:4;stroke-dasharray:0.01632288, 0.03264576;stroke-dashoffset:0;stroke-opacity:1;paint-order:markers stroke fill"
       id="path6359"
       d="m 5.9408633,295.4125 c 0.187763,0.004 0.375636,0.003 0.563441,0.002 0.135136,-7.9e-4 0.270272,-0.002 0.405411,-0.002 0.06469,-0.007 0.139184,0.0137 0.200986,-0.009 0.01174,-0.004 0.04255,-0.0236 0.03133,-0.0184 -0.209543,0.096 -0.417662,0.19416 -0.626492,0.29124 0.06772,-0.0427 0.06431,-0.12066 0.06807,-0.18453 0.0034,-0.0943 0.0018,-0.18865 8.71e-4,-0.28297 4.08e-4,-0.0999 -5.59e-4,-0.19973 -0.0011,-0.29959 -4.22e-4,-0.0869 -5.11e-4,-0.17379 -5.65e-4,-0.26069 -3.6e-5,-0.0842 -1.9e-5,-0.16836 -1.9e-5,-0.25253 1e-6,-0.014 2e-6,-0.0281 3e-6,-0.0421 0,0 0.677919,-0.28274 0.677919,-0.28274 v 0 c 0,0.014 0,0.0281 1e-6,0.0421 1e-6,0.0842 6e-6,0.16838 -3.6e-5,0.25257 -6.8e-5,0.087 -2.04e-4,0.17403 -4.77e-4,0.26105 -3.4e-4,0.0998 -9.5e-4,0.19962 6.81e-4,0.29943 3.41e-4,0.0948 0.0017,0.1896 0.0021,0.2844 -0.0017,0.0779 -0.0012,0.1584 -0.03893,0.23132 -0.612364,0.29573 -0.490384,0.34268 -0.929115,0.33607 -0.133035,-3.4e-4 -0.266069,-7.9e-4 -0.399102,-0.002 -0.190284,-7.8e-4 -0.380629,-0.002 -0.570872,0.002 0,0 0.615916,-0.36629 0.615916,-0.36629 z"
       inkscape:connector-curvature="0" />
    <path
       style="fill:#ff0000;fill-opacity:0.09869139;stroke:#000002;stroke-width:0.01632288;stroke-linecap:round;stroke-linejoin:round;stroke-miterlimit:4;stroke-dasharray:0.01632288, 0.03264576;stroke-dashoffset:0;stroke-opacity:1;paint-order:markers stroke fill"
       id="path6361"
       d="m 6.9499473,295.57283 c -0.02126,0.10007 -0.05373,0.19831 -0.09127,0.29503 -0.03132,0.0727 -0.07389,0.14167 -0.115767,0.21059 -0.106306,0.25623 -0.462359,0.46615 -0.804232,0.44397 -0.148222,-0.023 -0.296638,-0.0439 -0.447113,-0.0566 -0.211705,-0.0349 -0.42712,-0.0454 -0.642384,-0.0525 -0.202455,-0.006 -0.405052,-0.006 -0.607596,-0.005 -0.139417,0.002 -0.278243,0.003 -0.417117,-0.007 -0.09426,-0.0146 -0.2358,-0.007 -0.321846,-0.0484 -0.03471,-0.0167 -0.03493,-0.0342 -0.04758,-0.0631 0.003,-0.0136 6.74e-4,-0.0286 0.009,-0.0406 0.0063,-0.009 0.02047,-0.0125 0.03154,-0.0177 0.309039,-0.14501 0.53775,-0.29565 0.85664,-0.36769 0.112754,-0.0249 0.230471,-0.0416 0.341656,-0.0714 0.08915,-0.0209 0.169816,-0.0594 0.251915,-0.0935 -0.207081,0.0973 -0.413601,0.19533 -0.621244,0.29178 -0.01006,0.005 0.01976,-0.01 0.02835,-0.0164 0.04438,-0.0327 0.06872,-0.0769 0.09242,-0.12054 0.03311,-0.0721 0.07095,-0.14315 0.09969,-0.21657 0.03354,-0.0757 0.05284,-0.15469 0.08261,-0.23125 0.0264,-0.092 0.07111,-0.17932 0.105357,-0.26934 0.03552,-0.0994 0.04281,-0.20307 0.04756,-0.30596 0.0029,-0.0886 0.0021,-0.17732 0.0017,-0.26598 0,0 0.6777,-0.28284 0.6777,-0.28284 v 0 c 2.11e-4,0.0896 7.26e-4,0.17921 -0.002,0.26879 -0.0044,0.10707 -0.01018,0.21515 -0.04003,0.31983 -0.02956,0.0911 -0.07692,0.17687 -0.102478,0.26881 -0.02596,0.0769 -0.05076,0.15403 -0.08234,0.22975 -0.02246,0.0783 -0.06738,0.14853 -0.09564,0.22533 -0.17706,0.32596 -0.122452,0.18486 -0.787007,0.49534 -0.08207,0.0351 -0.169613,0.0629 -0.259224,0.0821 -0.113748,0.0219 -0.226301,0.0473 -0.339094,0.0723 -0.05533,0.0161 -0.05718,0.0156 -0.110599,0.0351 -0.01671,0.006 -0.0654,0.0268 -0.04962,0.0192 0.204642,-0.0986 0.410936,-0.19482 0.616405,-0.29223 -0.01052,0.005 -0.01971,0.0136 -0.03156,0.0134 -0.01364,-2.2e-4 -0.02461,-0.01 -0.03692,-0.0145 -0.0057,-0.002 -0.01109,-0.006 -0.01706,-0.008 -0.0036,-0.002 0.0064,0.004 0.01013,0.006 0.01329,0.004 0.02688,0.008 0.04068,0.011 0.08515,0.0186 0.173037,0.0262 0.260894,0.0295 0.139508,0.003 0.27905,-2.2e-4 0.418619,0.002 0.200182,0.002 0.40038,0.006 0.600417,0.0119 0.218474,0.009 0.436622,0.02 0.652296,0.0517 0.147061,0.0146 0.295656,0.0449 0.443576,0.0385 0.248389,-0.10045 -6.83e-4,-5.1e-4 -0.586343,0.28549 -0.01004,0.005 0.02212,-0.007 0.03186,-0.0121 0.035,-0.019 0.04643,-0.0501 0.05463,-0.082 0.03319,-0.0716 0.08488,-0.13615 0.12251,-0.20634 0.03699,-0.0933 0.07732,-0.18752 0.09167,-0.28512 0,0 0.686251,-0.27463 0.686251,-0.27463 z"
       inkscape:connector-curvature="0" />
    <path
       style="fill:#000000;fill-opacity:0.09869139;stroke:#000002;stroke-width:0.01632288;stroke-linecap:round;stroke-linejoin:round;stroke-miterlimit:4;stroke-dasharray:0.01632288, 0.03264576;stroke-dashoffset:0;stroke-opacity:1;paint-order:markers stroke fill"
       id="path6363"
       d="m 7.1141033,295.55939 c 0.03787,0.10727 0.06367,0.21671 0.08046,0.32742 0.016,0.0885 0.007,0.17855 0.01959,0.2671 0.0147,0.0542 0.03686,0.11679 0.08688,0.15635 0.07013,0.021 0.14316,0.0413 0.21701,0.0537 0.101697,0.0385 0.204223,0.0703 0.314432,0.0879 0.09458,0.0134 0.184608,0.0387 0.280408,0.0485 0.08704,0.01 0.170004,0.0329 0.257931,0.0418 0.09658,0.008 0.193736,0.008 0.290674,0.008 0.102789,1.6e-4 0.205578,0 0.308366,-1.7e-4 0.101838,-0.003 0.200119,-0.002 0.299381,0.0164 0.08648,0.0348 0.178793,0.0518 0.273794,0.061 0.09534,0.0158 0.182326,-0.002 0.274678,-0.0171 0.2382797,-0.0329 0.7404417,-0.32726 -0.5454,0.26856 -0.05164,0.024 0.03028,-0.01 0.04209,-0.0251 -0.01009,-0.0424 -0.07004,-0.0682 -0.115522,-0.0842 -0.09095,-0.0381 -0.180067,-0.0803 -0.265486,-0.12666 -0.08911,-0.0407 -0.147355,-0.11782 -0.191298,-0.19141 -0.03855,-0.0874 -0.08141,-0.17307 -0.112079,-0.2626 -0.0275,-0.0866 -0.05812,-0.17125 -0.07437,-0.25996 -0.01411,-0.0887 -0.01603,-0.17818 -0.01731,-0.26747 7.15e-4,-0.0963 4.77e-4,-0.19262 4.09e-4,-0.28893 -5.5e-5,-0.0597 -3.7e-5,-0.03 -6.8e-5,-0.089 0,0 0.677475,-0.28248 0.677475,-0.28248 v 0 c -2.04e-4,0.0592 -6.8e-5,0.0295 -3.4e-4,0.0892 -4.77e-4,0.096 -0.0015,0.19204 9e-6,0.28807 4.77e-4,0.0869 9.5e-4,0.17397 0.01215,0.26047 0.01376,0.0867 0.04439,0.16882 0.06906,0.25355 0.02731,0.0867 0.07161,0.16727 0.108141,0.25133 0.03757,0.0659 0.08827,0.12752 0.168215,0.16258 0.08576,0.0436 0.172556,0.0858 0.264284,0.12051 0.06678,0.0327 0.134048,0.0729 0.15672,0.13691 0.0062,0.0207 0.023,0.0736 -0.0096,0.0896 -0.438785,0.21531 -0.464414,0.28908 -0.775208,0.3335 -0.09627,0.0145 -0.192192,0.0128 -0.288911,-6.4e-4 -0.0951,-0.0139 -0.185061,-0.0391 -0.276865,-0.0628 -0.09571,-0.0127 -0.192741,-0.006 -0.289343,-0.007 -0.102994,1.6e-4 -0.205991,4.4e-4 -0.308982,-3.4e-4 -0.09948,-0.002 -0.199355,-0.002 -0.297916,-0.0147 -0.08648,-0.0126 -0.170228,-0.0351 -0.257907,-0.0421 -0.09496,-0.0143 -0.18641,-0.0396 -0.281589,-0.0531 -0.108583,-0.0229 -0.210228,-0.0597 -0.316632,-0.0878 -0.08472,-0.0192 -0.176075,-0.0355 -0.243779,-0.0838 -0.05473,-0.0536 -0.08948,-0.12189 -0.107449,-0.18986 -0.01712,-0.0891 -0.004,-0.18026 -0.01725,-0.26996 -0.01283,-0.10641 -0.03242,-0.21292 -0.07761,-0.31379 0,0 0.668826,-0.30151 0.668826,-0.30151 z"
       inkscape:connector-curvature="0" />
    <path
       style="fill:#d90001;fill-opacity:0.51583713;stroke:#000200;stroke-width:0.01632288;stroke-linecap:round;stroke-linejoin:round;stroke-miterlimit:4;stroke-dasharray:0.01632289, 0.03264576;stroke-dashoffset:0;stroke-opacity:1;paint-order:markers stroke fill"
       id="path6369"
       d="m 7.5592753,282.1422 c -7.43e-4,-0.0643 0.01109,-0.13409 -0.0034,-0.19619 0.775947,-0.34421 0.683827,-0.41106 0.682845,-0.066 -0.01502,0.27951 -0.482546,0.50277 -0.804879,0.4249 -0.09031,-0.0369 -0.154364,-0.0983 -0.194969,-0.17268 -0.03392,-0.0726 -0.06818,-0.1451 -0.09964,-0.21845 -0.02408,-0.0597 -0.02368,-0.13167 -0.08074,-0.17828 -0.0063,-0.002 -0.01291,-0.006 -0.0189,-0.003 -0.01546,0.006 -0.03697,0.0432 -0.02231,0.0367 0.212813,-0.0947 0.417442,-0.20127 0.62891,-0.29795 0.0099,-0.005 -0.01626,0.0131 -0.02257,0.0207 -0.0072,0.009 -0.0117,0.0188 -0.01756,0.0282 -0.03459,0.0796 -0.08148,0.15465 -0.135025,0.22662 -0.193359,0.22627 -0.542259,0.31313 -0.826338,0.44731 -0.08342,0.0204 -0.161789,-0.007 -0.226924,-0.0493 -0.06858,-0.0381 -0.110604,-0.10021 -0.159018,-0.15424 -0.0224,-0.0212 -0.04527,-0.0419 -0.08141,-0.0442 -0.009,-5.6e-4 -0.01846,-0.002 -0.02696,7.9e-4 -0.0083,0.002 -0.0292,0.0162 -0.02147,0.0127 0.213517,-0.0956 0.425984,-0.1928 0.638975,-0.2892 -0.0741,0.0288 -0.09558,0.0841 -0.123333,0.14258 -0.02625,0.0686 -0.04304,0.13907 -0.0814,0.20429 -0.0019,0.005 3.6e-4,0.0136 -0.0057,0.0142 -0.0017,1.5e-4 -0.02224,-0.0339 -0.02119,-0.043 3.75e-4,-0.003 0.05404,-0.0101 0.07882,-0.0181 0.105709,-0.0483 0.22966,-0.0631 0.346924,-0.0841 0.18886,-0.0185 0.376235,-0.045 0.565261,-0.0627 0.135388,-0.008 0.266295,-0.0417 0.380577,0.0329 0.05769,0.05 0.1289,0.0634 0.209224,0.0702 0.122352,0.002 0.218765,0.003 0.327145,0.0543 0.06971,0.0498 0.121243,0.0983 0.218947,0.0932 0.231554,-0.11941 0.0015,-2.4e-4 -0.610751,0.27614 -0.01019,0.005 0.02052,-0.009 0.02946,-0.0154 0.03075,-0.021 0.051,-0.0522 0.07389,-0.0785 0.133052,-0.21406 0.550007,-0.61299 0.796646,-0.37147 0.04967,0.0738 0.05182,0.15997 0.05643,0.24222 -0.0051,0.0333 0.0077,0.15944 0.08103,0.11657 0.21483,-0.14147 0.292761,-0.13735 -0.569047,0.25707 -0.01225,0.006 0.0217,-0.0147 0.03148,-0.0229 0.0013,-7.9e-4 0.05513,-0.0533 0.05724,-0.0553 0.182083,-0.19719 0.413224,-0.23711 0.738132,-0.37977 0.01958,-0.009 0.06331,0.0291 0.06864,0.0351 0.01064,0.0121 0.01652,0.0265 0.02479,0.0396 0.03415,0.0928 0.03064,0.19158 0.03256,0.28763 0.02613,0.25658 -0.504468,0.68318 -0.739694,0.423 -0.0343,-0.0688 -0.03836,-0.14394 -0.06433,-0.21524 -0.03612,-0.0981 -0.05564,-0.19958 -0.09521,-0.29683 -0.04932,-0.0925 -0.06724,-0.14105 -0.189348,-0.17165 -0.01837,-0.002 -0.03653,-0.006 -0.05512,-0.007 -0.04976,-0.002 -0.07158,0.002 -0.115606,0.0219 -0.01815,0.008 -0.06902,0.0377 -0.05084,0.0295 0.585411,-0.26433 0.760336,-0.39675 0.5347,-0.23307 -0.06043,0.0215 -0.12626,0.17917 -0.170419,0.20069 -0.225301,0.10978 -0.456032,0.2119 -0.684049,0.31785 -0.07866,-0.0502 -0.109831,-0.12821 -0.152562,-0.19863 -0.01283,-0.0132 -0.02009,-0.0289 -0.04451,-0.0279 -0.03061,0.002 -0.06848,0.0204 -0.09287,0.0336 0.206149,-0.0953 0.412296,-0.19052 0.618445,-0.28577 -0.254869,0.12581 -0.26528,0.13125 -0.73429,0.34684 -0.06473,0.0298 -0.122307,0.014 -0.180151,-0.0153 -0.08523,-0.06 -0.150677,-0.13431 -0.242952,-0.18762 -0.09126,-0.0458 -0.183849,-0.0487 -0.282986,-0.0212 -0.08878,0.0267 -0.185153,0.0182 -0.277927,0.0159 0.04034,-0.0546 -0.15732,0.0531 -0.125803,0.0387 1.141105,-0.52218 0.733474,-0.37584 0.538863,-0.24357 -0.06675,0.0481 -0.125108,0.10168 -0.196862,0.145 -0.253533,0.17212 -0.501212,0.26253 -0.822693,0.40806 -0.03173,0.0143 -0.0624,0.011 -0.09638,0.011 -0.06981,-0.01 -0.109676,-0.0562 -0.163031,-0.0885 -0.10172,-0.0615 0.03026,0.0256 -0.07387,-0.0446 -0.01438,-0.007 -0.06205,-0.0444 -0.08189,-0.0184 -0.0053,0.007 -0.01506,0.0278 -0.0063,0.0239 0.692006,-0.3162 0.888025,-0.32211 0.632935,-0.3132 0.0198,0.0572 0.05209,0.1122 0.08795,0.16388 0.04943,0.0654 0.06662,0.13975 0.07717,0.21491 0.0046,0.0695 -0.0025,0.13878 0.069,0.18571 0.05877,0.0515 0.136494,0.0627 0.218103,0.0699 0.09708,0.005 0.194667,0.0169 0.283672,-0.0203 -0.206467,0.095 -0.41238,0.19076 -0.619401,0.28492 -0.01125,0.005 0.02243,-0.0106 0.03197,-0.0177 0.03851,-0.0286 0.04091,-0.0607 0.03973,-0.10035 -0.0094,-0.077 -0.01657,-0.15402 -0.02056,-0.2313 -0.0029,-0.0861 -0.0106,-0.172 0.01119,-0.2567 0.109465,-0.22358 0.486988,-0.46731 0.766284,-0.3653 0.02562,0.009 0.04846,0.0232 0.07302,0.0343 0.07043,0.0338 0.136121,0.0631 0.217247,0.0761 0.07686,0.0178 0.135409,-0.0271 0.207799,-0.0332 0.06946,0.0262 0.09663,0.0764 0.16987,0.10284 0.08057,0.0355 0.114668,0.10374 0.1523,0.16785 0.03335,0.0681 0.09948,0.0899 0.181797,0.10252 0.01816,0.002 0.07454,0.008 0.09236,0.007 0.0476,-0.002 0.08524,-0.0227 0.12727,-0.0386 -0.206261,0.0956 -0.412522,0.19113 -0.618784,0.28669 0.270989,-0.131 0.534978,-0.472 0.858626,-0.37967 0.08186,0.0337 0.161539,0.0255 0.248865,0.0189 0.122084,-0.0146 0.186679,-0.009 0.3001,0.0284 0.0439,0.0119 0.08587,0.0222 0.127501,0.0388 0,0 -0.63487,0.34605 -0.63487,0.34605 v 0 c -0.0413,-0.0126 -0.08324,-0.0235 -0.124523,-0.0362 -0.09264,-0.0248 -0.185449,-0.0144 -0.281203,-0.007 -0.08897,0.003 -0.171222,-0.009 -0.257701,-0.0239 -0.242851,0.0908 -0.005,0.002 0.604585,-0.28863 0.01116,-0.006 -0.02379,0.009 -0.03476,0.0141 -0.05103,0.0261 -0.01285,0.0123 -0.05993,0.0452 -0.01074,0.008 -0.02352,0.0128 -0.03529,0.0192 -0.326833,0.15259 -0.574381,0.39353 -0.940059,0.32375 -0.09699,-0.0263 -0.174894,-0.069 -0.218107,-0.14781 -0.03118,-0.0539 -0.0559,-0.10801 -0.126753,-0.1339 -0.03771,-0.0186 -0.03991,-0.0178 -0.07259,-0.0411 -0.01475,-0.0105 -0.0254,-0.0259 -0.04323,-0.0325 -0.0083,-0.003 -0.01868,0.0129 -0.02555,0.008 -0.07487,0.021 -0.147688,0.0287 -0.225468,0.008 -0.08153,-0.0203 -0.152146,-0.0553 -0.227648,-0.0866 -0.02034,-0.007 -0.03475,-0.0155 -0.05742,-0.0145 -0.0093,3.9e-4 -0.03536,0.009 -0.02735,0.005 1.35244,-0.66697 0.746872,-0.3958 0.572658,-0.26896 -0.04261,0.0745 -0.02264,0.15721 -0.02345,0.23735 0.0033,0.0764 0.0088,0.15287 0.02151,0.22872 0.0047,0.0353 0.01283,0.0735 0.0029,0.1088 -0.06613,0.23463 -0.775616,0.32282 -0.734813,0.39402 -0.100987,0.0139 -0.203943,0.008 -0.305103,-0.003 -0.09316,-0.0154 -0.177445,-0.0424 -0.243887,-0.10063 -0.07597,-0.0647 -0.09846,-0.13606 -0.09499,-0.22488 -0.0074,-0.0671 -0.01867,-0.13364 -0.06349,-0.19187 -0.03932,-0.0577 -0.07348,-0.118 -0.102716,-0.1795 -0.116556,-0.26412 0.543205,-0.50512 0.776903,-0.32023 0.05951,0.0377 0.122251,0.0977 0.202355,0.0908 0.234846,-0.0622 0.636522,-0.29314 -0.526814,0.26327 -0.01482,0.007 0.03046,-0.013 0.04476,-0.0208 0.03761,-0.0204 0.05064,-0.0329 0.08339,-0.0585 0.0725,-0.0421 0.142827,-0.0818 0.196617,-0.14095 0.02422,-0.016 0.04204,-0.0386 0.06873,-0.0517 0.256137,-0.12554 0.521044,-0.34929 0.842775,-0.34224 0.09054,4.5e-4 0.179229,-0.004 0.266241,-0.0266 0.116858,-0.0103 0.222665,0.008 0.319153,0.0656 0.08345,0.0546 0.148977,0.12511 0.237391,0.17394 0.03641,0.006 0.0606,7.9e-4 0.09464,-0.0121 0.0144,-0.006 0.05603,-0.0244 0.04233,-0.0179 -0.67537,0.32342 -0.803724,0.39159 -0.57014,0.26878 0.231545,-0.10773 0.460559,-0.21919 0.694636,-0.32319 0.03587,-0.0159 0.102256,-0.003 0.134033,0.0127 0.03411,0.017 0.04203,0.0316 0.06438,0.0573 0.01093,0.0181 0.06686,0.12992 0.0883,0.13317 0.0044,6.6e-4 0.0049,-0.006 0.0074,-0.009 -0.20922,0.1013 -0.418439,0.2026 -0.627658,0.3039 0.03559,-0.0195 0.03985,-0.0182 0.06634,-0.0519 0.03848,-0.049 0.06532,-0.10496 0.111753,-0.15018 0.226614,-0.21486 0.05273,-0.06 0.755071,-0.39241 0.08021,-0.038 0.178927,-0.0236 0.261589,-0.002 0.125188,0.0488 0.170858,0.11583 0.221948,0.21855 0.04021,0.0974 0.06152,0.19844 0.09752,0.29679 0.02559,0.0617 0.04136,0.12465 0.05417,0.18871 -0.09975,-0.20135 -0.0036,-0.0188 -0.653786,0.2951 -0.0069,0.003 0.01684,-0.002 0.02304,-0.006 0.03633,-0.0243 0.02659,-0.0712 0.03855,-0.10381 -6.87e-4,-0.0869 0.0016,-0.1754 -0.02184,-0.26063 -0.0099,-0.0191 -0.03329,0.0102 -0.02596,0.007 1.244827,-0.59273 0.736061,-0.39933 0.559168,-0.25832 -0.182998,0.2262 -0.506418,0.43038 -0.842347,0.43233 -0.09982,-0.0382 -0.140991,-0.10593 -0.134699,-0.19586 -0.0026,-0.0652 -9.5e-4,-0.13512 -0.0316,-0.19627 -0.01037,0.21016 -0.004,0.0199 0.642968,-0.29079 0.0079,-0.004 -0.01889,3.1e-4 -0.02729,0.003 -0.03563,0.013 -0.04949,0.0502 -0.06262,0.0765 -0.15942,0.22928 -0.452349,0.46951 -0.813793,0.43148 -0.09156,-0.0184 -0.158602,-0.0671 -0.231684,-0.11339 -0.100374,-0.0347 -0.207657,-0.0255 -0.31398,-0.0379 -0.08776,-0.0145 -0.163655,-0.0414 -0.229921,-0.0921 -0.10291,-0.042 -0.232064,-0.002 -0.340745,-0.002 -0.188224,0.0186 -0.376343,0.0411 -0.562575,0.0699 -0.120036,0.0249 -0.238061,0.0522 -0.353739,0.0879 -0.06243,0.005 -0.09877,0.0147 -0.138436,-0.0336 -0.01904,-0.0232 -0.01482,-0.0211 -0.0012,-0.0368 0.04372,-0.0922 -0.02368,0.0441 0.0339,-0.052 0.02825,-0.0471 0.03662,-0.0995 0.05263,-0.1497 0.02417,-0.0615 0.04099,-0.13348 0.09991,-0.17901 0.313189,-0.14342 0.603158,-0.47471 0.860482,-0.22621 0.04434,0.0486 0.08254,0.10364 0.14718,0.13558 0.06201,0.027 0.117487,0.0263 0.178303,-0.005 -1.453787,0.69459 -0.590457,0.33366 -0.468647,0.19147 0.06484,-0.0608 0.106417,-0.13617 0.142977,-0.21058 0.08187,-0.25984 0.184326,-0.16446 0.699334,-0.40802 0.03222,-0.0152 0.07869,0.0241 0.09869,0.037 0.05719,0.0586 0.07655,0.1275 0.094,0.19994 0.02929,0.0722 0.06309,0.14328 0.09695,0.21401 0.02798,0.0552 0.07737,0.10631 0.15276,0.11778 0.01207,-7.9e-4 0.02451,-4.9e-4 0.03619,-0.003 0.01103,-0.002 0.04078,-0.0169 0.031,-0.0121 -0.205894,0.10263 -0.412998,0.20364 -0.619496,0.30545 0.02531,-0.013 0.03549,-0.0139 0.04757,-0.0382 0.0052,-0.0106 0.0059,-0.0221 0.009,-0.0333 -0.001,-0.37001 -0.06776,-0.16973 0.682845,-0.5035 -0.01268,0.0648 -0.0041,0.13321 -0.0034,0.19906 0,0 -0.680715,0.28391 -0.680715,0.28391 z"
       inkscape:connector-curvature="0" />
  </g>
</svg>
