<?xml version="1.0" encoding="UTF-8" standalone="no"?>
<svg
   xmlns:dc="http://purl.org/dc/elements/1.1/"
   xmlns:cc="http://creativecommons.org/ns#"
   xmlns:rdf="http://www.w3.org/1999/02/22-rdf-syntax-ns#"
   xmlns:svg="http://www.w3.org/2000/svg"
   xmlns="http://www.w3.org/2000/svg"
   xmlns:sodipodi="http://sodipodi.sourceforge.net/DTD/sodipodi-0.dtd"
   xmlns:inkscape="http://www.inkscape.org/namespaces/inkscape"
   id="svg2"
   width="225.02"
   height="202.05"
   viewBox="0 0 225.02 202.05"
   version="1.1"
   sodipodi:docname="bloodsidewall.svg"
   inkscape:version="0.92.3 (2405546, 2018-03-11)">
  <metadata
     id="metadata3801">
    <rdf:RDF>
      <cc:Work
         rdf:about="">
        <dc:format>image/svg+xml</dc:format>
        <dc:type
           rdf:resource="http://purl.org/dc/dcmitype/StillImage" />
        <dc:title>seasidewall</dc:title>
      </cc:Work>
    </rdf:RDF>
  </metadata>
  <sodipodi:namedview
     pagecolor="#ffffff"
     bordercolor="#666666"
     borderopacity="1"
     objecttolerance="10"
     gridtolerance="10"
     guidetolerance="10"
     inkscape:pageopacity="0"
     inkscape:pageshadow="2"
     inkscape:window-width="1920"
     inkscape:window-height="1001"
     id="namedview3799"
     showgrid="false"
     inkscape:zoom="3.9990101"
     inkscape:cx="112.51"
     inkscape:cy="101.025"
     inkscape:window-x="-9"
     inkscape:window-y="-9"
     inkscape:window-maximized="1"
     inkscape:current-layer="svg2" />
  <defs
     id="defs3760">
    <style
       id="style3758">.cls-1{fill:#d7d7f4;}.cls-2{fill:#b3b3b3;}.cls-3{fill:#f2f2f2;}.cls-4{fill:aqua;}.cls-5{fill:#ffb380;}.cls-6{fill:#ff7f2a;}.cls-7{fill:#ead0ff;}.cls-8{fill:#00aad0;}.cls-9{fill:none;stroke:#00aad0;stroke-miterlimit:10;}</style>
  </defs>
  <title
     id="title3762">seasidewall</title>
  <g
     id="layer1">
    <path
       id="path3910"
       class="cls-1"
       d="M215.26.51l9.32,5.54-9.31,5.56h0L9.83,134.2h0L.52,128.64Z"
       transform="translate(0.19 -0.51)" />
    <path
       id="path3914"
       class="cls-2"
       d="M224.58,6.05v68L9.81,202.21v-68Z"
       transform="translate(0.19 -0.51)" />
    <path
       id="path3916"
       class="cls-3"
       d="M.5,128.65v68l9.31,5.56v-68Z"
       transform="translate(0.19 -0.51)" />
    <path
       id="path13"
       class="cls-4"
       d="M9.86,168.18V134.39l25.63-15.3C147.79,52.07,219.58,9.25,222.12,7.76l2.4-1.4V73.89L117.89,137.53l-107.33,64C10,201.91,9.86,196.79,9.86,168.18Z"
       transform="translate(0.19 -0.51)" />
    <path
       id="path15"
       class="cls-4"
       d="M4.93,131.15.75,128.6,107.46,64.93C166.15,29.91,214.52,1.16,215,1.05c.76-.21,9,4.33,9.05,5,0,.17-19.93,12.21-44.31,26.74S129.8,62.52,123,66.59L84.11,89.79l-41.92,25C12.9,132.32,10.46,133.74,9.78,133.72A26.72,26.72,0,0,1,4.93,131.15Z"
       transform="translate(0.19 -0.51)" />
    <path
       id="path17"
       class="cls-4"
       d="M4.94,199.49.26,196.63V162.37c0-28.46.12-34.15.67-33.59a40.34,40.34,0,0,0,4.78,2.94L9.82,134,10,168.21c.08,18.82,0,34.2-.11,34.18S7.51,201.06,4.94,199.49Z"
       transform="translate(0.19 -0.51)" />
    <path
       id="path14"
       class="cls-5"
       d="M10.42,200.11c-.17-.44-.31-15.38-.31-33.22V134.47L116.75,70.84c58.66-35,106.84-63.7,107.08-63.79s.43,14.81.42,33.33V73.89L117.76,137.4C59.19,172.33,11.15,200.91,11,200.91s-.41-.36-.58-.8Z"
       transform="translate(0.19 -0.51)" />
    <path
       id="path16"
       class="cls-5"
       d="M5.67,131.32c-2.27-1.31-4.08-2.54-4-2.74.12-.36,18.19-11.18,120.83-72.36,58-34.58,87.61-52.17,90.59-53.83l2.2-1.23,3.82,2c2.1,1.11,3.91,2.28,4,2.6.21.61-23.11,14.69-121.58,73.42-74.11,44.2-85.36,50.89-88.92,52.91l-2.8,1.59Z"
       transform="translate(0.19 -0.51)" />
    <path
       id="path18"
       class="cls-6"
       d="M4.94,199.28.52,196.64V163.55c0-18.2.18-33.35.38-33.65s1.75.21,4.52,1.76L9.57,134l0,34c0,18.68,0,34-.11,34s-2.11-1.19-4.54-2.64Z"
       transform="translate(0.19 -0.51)" />
    <path
       id="path20"
       class="cls-6"
       d="M10.39,175.56c-.19-13.69-.28-28.52-.19-32.93l.17-8,46.72-27.88c25.69-15.34,73.65-43.94,106.57-63.55L223.51,7.5l.37,20.82c.21,11.45.32,26.36.26,33.13L224,73.76,181.33,99.22c-44,26.23-145.13,86.5-160.36,95.53-4.72,2.8-8.95,5.23-9.41,5.4-.75.29-.85-1.86-1.17-24.59Z"
       transform="translate(0.19 -0.51)" />
    <path
       id="path22"
       class="cls-6"
       d="M10.94,193.21c-.5-11.53-.83-47.34-.5-53.16l.32-5.56,22.53-13.43,50.31-30,83.59-49.84L223,8l.33,4.43c.18,2.44.34,17.27.37,33l0,28.54-8.2,4.84c-4.51,2.67-49.79,29.63-100.62,59.91C10.51,200.82,12.06,199.9,11.58,199.9c-.19,0-.48-3-.64-6.69Z"
       transform="translate(0.19 -0.51)" />
    <path
       id="path26"
       class="cls-7"
       d="M8.35,132.63c-.56-.31-2.24-1.35-3.73-2.29L1.9,128.61l4.74-2.91c8.64-5.31,165.92-99.11,198.59-118.44l10-5.92,3.56,2c2,1.08,3.58,2.17,3.6,2.43s-2.22,1.9-5,3.65c-7.49,4.74-71.46,43.1-135.07,81-67.06,40-71.92,42.84-72.52,42.82A4.78,4.78,0,0,1,8.35,132.63Z"
       transform="translate(0.19 -0.51)" />
    <path
       id="path28"
       class="cls-7"
       d="M4.61,198.77.37,196.2l.37-32.87c.2-18.08.48-33,.62-33.12s1.9.62,3.92,1.69L9,133.84l.22,18c.12,9.9.09,25.09-.05,33.75l-.27,15.74Z"
       transform="translate(0.19 -0.51)" />
  </g>
  <path
     class="cls-8"
     d="M223.69,46.79l.13,27.1L205,85.09c-10.37,6.16-33.51,19.93-51.43,30.61-139.43,83.07-141.33,84.2-142,84.2-.2,0-.49-2.44-.66-5.43-.23-4.26-.45-14.6-.58-25.22a.42.42,0,0,0,.48-.24l.45-.83a.46.46,0,0,0,0-.52.57.57,0,0,0-.34-.47c2.66-10.91,18.29-8.7,25.75-14.07S43,137.66,38.6,130.75c5.7.37,9.75,5.29,14.68,7.7s10.4,1.77,15.19-.84a35,35,0,0,0,12.62-12.48c2.63-4.3,4.43-9.49,2.51-14.31,5.88,1.75,12.08,3.39,18.24,2.6,5.94-.75,10.43-4.09,14.31-8.46,3-3.42,7.38-8.74,5-13.64-1.26-2.62-4.31-4.44-7-3.65a18.69,18.69,0,0,1,15.73-7.9A16.77,16.77,0,0,1,139.73,83c2.8,2.1,5.1,4.6,8.71,5.23,6.78,1.2,13.49-3.32,18.21-7.7,4.16-3.85,8.59-10.37,4.37-15.85-3.86-5-10.71-2.26-14.55,1.81a26.62,26.62,0,0,1,11-13.29c6-3.45,14.06-3.68,19.81.47,2.37,1.7,4.24,3.6,7.26,4s6.16-.56,8.9-1.87c6.32-3,11.73-9.28,19.25-8.64a.48.48,0,0,0,.48.52.49.49,0,0,0,.44-.71.54.54,0,0,0,0-.22Z"
     transform="translate(0.19 -0.51)"
     id="path3778" />
  <path
     class="cls-7"
     d="M223.66,41.22l0,5.57h0a.55.55,0,0,0-.47-.56c-7.69-.95-13.2,5.09-19.49,8.36-3.92,2-8.6,3.3-12.61.77-3-1.88-5.18-4.15-8.69-5.11-13.44-3.68-24.48,7.34-28.08,19.3-.16.54.66.9.91.39,2.16-4.37,8.18-8.74,13.21-6.14,5.2,2.7,3.16,9.61.29,13.13-5.16,6.34-15.86,14-24.06,8.76-3.12-2-5.33-4.66-8.92-5.92a19.47,19.47,0,0,0-8.77-.83,19.15,19.15,0,0,0-14.61,9.75.51.51,0,0,0,.79.61c2-1.68,4.69-.63,6.24,1.15,2,2.35,1.5,5.54.2,8.12a31.37,31.37,0,0,1-9.36,10.55c-8.2,5.87-18.59,3.08-27.43.43a.5.5,0,0,0-.56.73c2.94,5.63-.18,12-3.57,16.64-3.51,4.85-8.35,9.43-14.14,11.31s-10.58-.15-15.28-3.45c-3.54-2.49-7.08-5.16-11.6-5.06a.5.5,0,0,0-.43.76c2.84,4.1,4.58,9.35,3.59,14.37-1.14,5.8-5.86,8.8-11.19,10.34-6.76,1.94-16.57,3-19.33,10.49-.13-12-.15-23.57,0-26.19l.36-5,17.76-10.6C151.48,50.45,223,8,223.2,8.26S223.58,23.26,223.66,41.22Z"
     transform="translate(0.19 -0.51)"
     id="path3780" />
  <path
     class="cls-8"
     d="M144.68,85.69c8.2,5.24,18.9-2.42,24.06-8.76,2.87-3.52,4.91-10.43-.29-13.13-5-2.6-11,1.77-13.21,6.14-.25.51-1.07.15-.91-.39,3.6-12,14.64-23,28.08-19.3,3.51,1,5.72,3.23,8.69,5.11,4,2.53,8.69,1.26,12.61-.77,6.29-3.27,11.8-9.31,19.49-8.36a.55.55,0,0,1,.47.56.54.54,0,0,1,0,.22.49.49,0,0,1-.44.71.48.48,0,0,1-.48-.52c-7.52-.64-12.93,5.6-19.25,8.64-2.74,1.31-5.83,2.3-8.9,1.87s-4.89-2.33-7.26-4c-5.75-4.15-13.78-3.92-19.81-.47a26.62,26.62,0,0,0-11,13.29c3.84-4.07,10.69-6.82,14.55-1.81,4.22,5.48-.21,12-4.37,15.85-4.72,4.38-11.43,8.9-18.21,7.7-3.61-.63-5.91-3.13-8.71-5.23a16.77,16.77,0,0,0-9.83-3.24,18.69,18.69,0,0,0-15.73,7.9c2.7-.79,5.75,1,7,3.65,2.35,4.9-2,10.22-5,13.64-3.88,4.37-8.37,7.71-14.31,8.46-6.16.79-12.36-.85-18.24-2.6,1.92,4.82.12,10-2.51,14.31a35,35,0,0,1-12.62,12.48c-4.79,2.61-10.2,3.27-15.19.84s-9-7.33-14.68-7.7c4.37,6.91,5.42,17.07-1.94,22.37s-23.09,3.16-25.75,14.07a.57.57,0,0,1,.34.47.46.46,0,0,1,0,.52l-.45.83a.42.42,0,0,1-.48.24c0-1.19,0-2.38,0-3.57,2.76-7.5,12.57-8.55,19.33-10.49,5.33-1.54,10-4.54,11.19-10.34,1-5-.75-10.27-3.59-14.37a.5.5,0,0,1,.43-.76c4.52-.1,8.06,2.57,11.6,5.06,4.7,3.3,9.52,5.33,15.28,3.45s10.63-6.46,14.14-11.31c3.39-4.67,6.51-11,3.57-16.64a.5.5,0,0,1,.56-.73c8.84,2.65,19.23,5.44,27.43-.43a31.37,31.37,0,0,0,9.36-10.55c1.3-2.58,1.84-5.77-.2-8.12-1.55-1.78-4.22-2.83-6.24-1.15a.51.51,0,0,1-.79-.61A19.15,19.15,0,0,1,127,78.94a19.47,19.47,0,0,1,8.77.83C139.35,81,141.56,83.7,144.68,85.69Z"
     transform="translate(0.19 -0.51)"
     id="path3782" />
  <path
     class="cls-8"
     d="M10.31,165.68c0,1.19,0,2.38,0,3.57a.56.56,0,0,1-.43-.61l-.05,0a.88.88,0,0,1-.22-.7.49.49,0,0,1,.21-.38.49.49,0,0,1,0-.24A12.3,12.3,0,0,1,10.31,165.68Z"
     transform="translate(0.19 -0.51)"
     id="path3784" />
  <polyline
     class="cls-9"
     points="10.04 167.67 10.05 168.08 11.19 200.4"
     id="polyline3786" />
  <line
     class="cls-9"
     x1="223.38"
     y1="46.72"
     x2="224.2"
     y2="73.25"
     id="line3788" />
  <line
     class="cls-9"
     x1="11.75"
     y1="199.64"
     x2="224.77"
     y2="73.54"
     id="line3790" />
  <path
     class="cls-8"
     d="M224,73.2a.76.76,0,0,0-.16,0,.48.48,0,0,0-.58.47V74a.5.5,0,0,0,1,.1A.5.5,0,0,0,224,73.2Z"
     transform="translate(0.19 -0.51)"
     id="path3792" />
  <path
     class="cls-8"
     d="M11.4,199.82a.46.46,0,0,0-.21,0,2.61,2.61,0,0,0,.25-1.05v-.29a2,2,0,0,0,0-.24,10.12,10.12,0,0,0-.28-2.05,2,2,0,0,0-.32-.7,1.64,1.64,0,0,0,.5-1.07.34.34,0,0,1,0-.1,1.82,1.82,0,0,0,.08-.55c0-.15,0-.31,0-.46a22.38,22.38,0,0,0-.2-4.17v-.06h0c0-.13,0-.26,0-.4a1.43,1.43,0,0,0-.16-.44c0-.09,0-.19,0-.28a1.38,1.38,0,0,0-.58-1.18c-.19-2.39-.32-4.78-.41-7.17,0,0,0-.06,0-.09,0-1.75-.07-3.5-.16-5.24,0-.38,0-.74,0-1.09a4.32,4.32,0,0,0-.06-1.13.48.48,0,0,0-.06-.22.63.63,0,0,0-.3-.32v0A.41.41,0,0,0,9.5,171l0,0c0-.17,0-.34,0-.51v-.05s0-.09,0-.13a.47.47,0,0,0,0-.54c0-.27,0-.54,0-.81a.43.43,0,0,0,0-.11.54.54,0,0,0-.47-.58A43.24,43.24,0,0,1,1,166.3c-.52-.17-.78.5-.47.83a.46.46,0,0,0,0,.29c0,.06,0,.12,0,.18a.33.33,0,0,0,0,.1l.05.46a.5.5,0,0,0-.15.45c0,.43.1.85.14,1.28a79.81,79.81,0,0,0,0,8.33c0,.65-.09,1.3-.11,1.95-.07,2.48-.08,5-.07,7.44,0,.18,0,.36-.07.54a.42.42,0,0,0,.07.27c0,.83,0,1.66,0,2.49,0,.24,0,.47,0,.71a.19.19,0,0,1,0,.07v.16a2.07,2.07,0,0,0-.05.5c-.08.84-.06,1.71-.1,2.54,0,.11,0,.21,0,.32h0c-.08,1-.18,1.49.93,1.85a.46.46,0,0,0,.23,0,15.36,15.36,0,0,0,3,1.85.47.47,0,0,0,.33.44,8.24,8.24,0,0,1,2.1,1.19l.11.09a.4.4,0,0,0,.42,0,2.55,2.55,0,0,0,.71.46.49.49,0,0,0,.19.22,3.6,3.6,0,0,0,1.49.74.87.87,0,0,0,.75-.45h0a2.42,2.42,0,0,0,1.09-.77.56.56,0,0,0,.09-.17A.5.5,0,0,0,11.4,199.82Z"
     transform="translate(0.19 -0.51)"
     id="path3794" />
  <line
     class="cls-9"
     x1="0.25"
     y1="196.23"
     x2="9.74"
     y2="201.61"
     id="line3796" />
  <path
     style="fill:#ff0000;stroke-width:0.2500619"
     d="m 4.8677807,199.29764 -4.49169356,-2.54976 0.0764441,-2.21179 c 0.0420443,-1.21648 0.12059927,-2.28322 0.1745667,-2.37055 0.0539674,-0.0873 0.10334363,-6.03597 0.10972493,-13.21923 l 0.0116024,-13.06047 0.55459643,0.13211 c 3.416298,0.81381 7.1924598,1.7497 7.7455825,1.91967 0.6609525,0.20311 0.7021947,0.16374 1.0002478,-0.95487 0.306283,-1.1495 0.312895,-1.12244 0.44812,1.83403 l 0.13725,3.00074 0.0503,-3.3594 c 0.06012,-4.01558 0.376028,-4.8861 2.55053,-7.02826 2.457101,-2.42056 5.436237,-3.69363 13.692322,-5.85113 6.334945,-1.65547 8.674714,-2.77671 11.099757,-5.31911 3.058007,-3.206 4.087019,-7.32098 3.069172,-12.27351 -0.469819,-2.286 -1.535898,-4.95173 -2.729526,-6.82519 -0.474395,-0.74459 -0.865416,-1.43819 -0.868935,-1.54134 -0.01078,-0.31576 2.289327,-0.20286 3.741809,0.18365 1.844786,0.49092 3.620126,1.45138 7.566827,4.09369 3.657731,2.44884 4.865962,3.11631 6.927452,3.82699 3.347524,1.15403 6.74671,1.05014 10.287701,-0.31442 5.729321,-2.20785 12.439661,-8.76017 15.724584,-15.35428 2.087717,-4.19086 2.536138,-7.66064 1.415165,-10.95024 -0.318228,-0.93387 -0.495017,-1.7496 -0.392864,-1.81273 0.102155,-0.0631 1.631366,0.28152 3.398251,0.76591 4.821525,1.32181 7.888312,1.87952 11.214495,2.03943 7.732848,0.37175 13.058658,-2.02219 18.727008,-8.41773 1.73169,-1.95386 3.86066,-5.277578 4.45427,-6.953962 0.71636,-2.023051 0.68112,-4.234411 -0.0914,-5.735577 -1.3008,-2.527703 -4.56411,-3.817893 -6.55091,-2.589986 -2.24155,1.385355 -0.81045,-1.387546 2.31536,-4.486251 3.58939,-3.558258 7.38737,-5.184868 12.65348,-5.419261 2.50466,-0.111482 3.36217,-0.04692 5.18701,0.390529 2.86925,0.687816 3.97335,1.277889 7.56614,4.043651 1.65041,1.270497 3.73218,2.660431 4.62615,3.088742 1.55816,0.746532 1.7547,0.778223 4.75117,0.766117 2.90919,-0.01175 3.27731,-0.06968 5.31266,-0.835932 4.97675,-1.873613 10.97012,-6.652584 13.65753,-10.890202 1.49183,-2.352365 2.23891,-5.579341 1.79109,-7.73649 -0.37287,-1.796078 -1.3574,-3.107387 -3.02617,-4.030565 -1.18945,-0.658019 -1.60183,-0.750186 -3.35655,-0.750186 -1.78252,0 -2.20485,0.09804 -3.87596,0.899808 -2.23699,1.073261 -4.128,2.715109 -5.44024,4.723448 -0.65855,1.007874 -1.06074,1.408381 -1.2789,1.273548 -0.3827,-0.236518 0.96854,-3.935327 2.38249,-6.521711 2.91464,-5.331444 7.57917,-9.91979 12.2268,-12.027128 2.82911,-1.282779 5.57463,-1.802272 8.73897,-1.653538 4.4131,0.20743 6.28652,0.934002 10.94155,4.243495 3.81707,2.713742 6.13488,3.337065 9.64289,2.593238 2.8136,-0.596584 5.2666,-1.78895 10.17317,-4.945021 5.23939,-3.370153 6.35232,-3.963812 8.8835,-4.738636 1.71773,-0.525817 5.46782,-0.83218 5.82767,-0.476091 0.0698,0.06906 0.25774,4.345115 0.41768,9.502352 0.15993,5.157236 0.3747,11.458559 0.47726,14.002938 0.10256,2.54438 0.17777,4.637093 0.16713,4.650471 -0.0106,0.01338 -16.05456,9.510969 -35.65316,21.105751 -19.5986,11.594789 -59.32093,35.115319 -88.27185,52.267859 -28.950907,17.15254 -60.740024,35.9766 -70.642475,41.83126 -9.902451,5.85465 -18.169324,10.79271 -18.37083,10.97347 -0.201506,0.18076 -0.820409,0.61502 -1.375341,0.96504 l -1.0089654,0.63638 z m 4.7875456,-29.40247 c -0.079826,-0.19948 -0.1390802,-0.14023 -0.1510791,0.15108 -0.010858,0.26361 0.048244,0.4113 0.1313375,0.32821 0.083093,-0.0831 0.091977,-0.29878 0.019742,-0.47929 z m 4.3302927,-8.08012 c 0.466562,-0.48137 0.79203,-0.87522 0.723263,-0.87522 -0.06877,0 -0.506763,0.39385 -0.973324,0.87522 -0.466562,0.48136 -0.79203,0.87521 -0.723263,0.87521 0.06877,0 0.506763,-0.39385 0.973324,-0.87521 z m 4.14612,-2.81394 c -0.114394,-0.11439 -1.645501,0.64471 -1.645501,0.81582 0,0.063 0.392435,-0.0726 0.872077,-0.3013 0.479642,-0.22873 0.827683,-0.46026 0.773424,-0.51452 z m 5.288507,-1.71323 c -0.08309,-0.0831 -0.298772,-0.092 -0.479285,-0.0197 -0.199483,0.0798 -0.140229,0.13908 0.151079,0.15108 0.263607,0.0109 0.411299,-0.0482 0.328206,-0.13134 z m 1.000248,-0.25006 c -0.08309,-0.0831 -0.298772,-0.092 -0.479286,-0.0197 -0.199482,0.0798 -0.140228,0.13908 0.151079,0.15108 0.263607,0.0109 0.4113,-0.0482 0.328207,-0.13134 z m 1.000248,-0.25006 c -0.0831,-0.0831 -0.298774,-0.092 -0.479286,-0.0197 -0.199482,0.0798 -0.14023,0.13908 0.15108,0.15108 0.263605,0.0109 0.411299,-0.0482 0.328206,-0.13134 z m 1.000247,-0.25006 c -0.0831,-0.0831 -0.298773,-0.092 -0.479286,-0.0197 -0.199482,0.0798 -0.140229,0.13908 0.15108,0.15107 0.263605,0.0109 0.4113,-0.0482 0.328206,-0.13133 z m 1.000248,-0.25006 c -0.0831,-0.0831 -0.298774,-0.092 -0.479286,-0.0197 -0.199482,0.0798 -0.14023,0.13907 0.15108,0.15107 0.263605,0.0109 0.411299,-0.0482 0.328206,-0.13133 z m 1.000248,-0.25007 c -0.0831,-0.0831 -0.298774,-0.092 -0.479287,-0.0197 -0.199481,0.0798 -0.140229,0.13908 0.15108,0.15108 0.263606,0.0108 0.4113,-0.0482 0.328207,-0.13134 z m 1.000247,-0.25006 c -0.0831,-0.0831 -0.298774,-0.092 -0.479286,-0.0197 -0.199482,0.0798 -0.14023,0.13908 0.15108,0.15108 0.263605,0.0109 0.411299,-0.0482 0.328206,-0.13134 z m 1.750433,-0.50012 c -0.0831,-0.0831 -0.298774,-0.092 -0.479286,-0.0197 -0.199482,0.0798 -0.14023,0.13908 0.15108,0.15108 0.263605,0.0108 0.411299,-0.0483 0.328206,-0.13134 z m 7.44455,-4.09997 c 0.67733,-0.68767 1.175246,-1.25031 1.106479,-1.25031 -0.06877,0 -0.679211,0.56264 -1.356541,1.25031 -0.67733,0.68767 -1.175246,1.25031 -1.106479,1.25031 0.06877,0 0.679211,-0.56264 1.356541,-1.25031 z m 2.125526,-2.75069 c 0.147212,-0.27506 0.211395,-0.50012 0.142628,-0.50012 -0.06877,0 -0.245478,0.22506 -0.39269,0.50012 -0.147211,0.27507 -0.211395,0.50013 -0.142628,0.50013 0.06877,0 0.245479,-0.22506 0.39269,-0.50013 z m 0.742526,-1.6254 c 0,-0.13753 -0.109079,-0.0813 -0.242402,0.12503 -0.133323,0.2063 -0.242403,0.48762 -0.242403,0.62516 0,0.13753 0.10908,0.0813 0.242403,-0.12503 0.133323,-0.2063 0.242402,-0.48762 0.242402,-0.62516 z m 0.428541,-1.67229 c -0.07982,-0.19948 -0.139079,-0.14023 -0.151077,0.15108 -0.01085,0.26361 0.04824,0.4113 0.131338,0.32821 0.08309,-0.0831 0.09197,-0.29877 0.01973,-0.47929 z m 0.252533,-1.63627 c -0.0634,-0.2433 -0.119445,-0.10478 -0.124541,0.30782 -0.0051,0.4126 0.04678,0.61167 0.115276,0.44237 0.0685,-0.1693 0.07267,-0.50689 0.0093,-0.75019 z m 0,-4.50111 c -0.0634,-0.24331 -0.119445,-0.10479 -0.124541,0.30782 -0.0051,0.4126 0.04678,0.61166 0.115276,0.44236 0.0685,-0.1693 0.07267,-0.50688 0.0093,-0.75018 z m 16.268279,0.26047 c -0.240685,-0.0629 -0.634533,-0.0629 -0.875217,0 -0.240685,0.0629 -0.04376,0.11436 0.437608,0.11436 0.481369,0 0.678293,-0.0515 0.437609,-0.11436 z m 4.130779,0.008 c -0.169299,-0.0685 -0.506883,-0.0727 -0.750185,-0.009 -0.243303,0.0634 -0.104784,0.11944 0.307818,0.12454 0.412602,0.005 0.611667,-0.0468 0.442367,-0.11528 z m -5.63636,-0.23711 c -0.0831,-0.0831 -0.298774,-0.092 -0.479286,-0.0197 -0.199482,0.0798 -0.140229,0.13908 0.15108,0.15108 0.263605,0.0109 0.411299,-0.0482 0.328206,-0.13134 z m 7.001733,0 c -0.08309,-0.0831 -0.298774,-0.092 -0.479286,-0.0197 -0.199482,0.0798 -0.14023,0.13908 0.15108,0.15108 0.263605,0.0109 0.411299,-0.0482 0.328206,-0.13134 z m -8.309349,-0.34905 c -0.687442,-0.2954 -1.08226,-0.2954 -0.625154,0 0.206301,0.13332 0.543884,0.23622 0.750185,0.22866 0.247326,-0.009 0.204736,-0.087 -0.125031,-0.22866 z M 53.120304,137.611 c -0.825204,-0.446 -2.906969,-1.77703 -4.626144,-2.9575 -3.263623,-2.24096 -5.263896,-3.47104 -5.644395,-3.47104 -0.123268,0 0.505523,0.42678 1.397311,0.9484 0.891788,0.52162 2.896924,1.83075 4.45586,2.90917 2.879075,1.99166 5.214538,3.3861 5.667678,3.38402 0.137534,-7.5e-4 -0.425105,-0.36635 -1.25031,-0.8127 z M 41.9081,137.3715 c -0.06937,-0.17192 -0.126129,-0.0313 -0.126129,0.31257 0,0.34384 0.05676,0.4845 0.126129,0.31258 0.06937,-0.17192 0.06937,-0.45324 0,-0.62515 z m 29.373589,-1.87547 c 0.311044,-0.39661 0.3022,-0.40546 -0.09441,-0.0944 -0.416541,0.32667 -0.549006,0.53202 -0.343195,0.53202 0.05192,0 0.248849,-0.19692 0.437608,-0.43761 z m 2.000495,-1.50037 c 0.311045,-0.39661 0.3022,-0.40546 -0.09441,-0.0944 -0.416541,0.32667 -0.549006,0.53202 -0.343195,0.53202 0.05192,0 0.248849,-0.19692 0.437608,-0.43761 z m -32.75948,-0.73143 c -0.294783,-0.50693 -0.365968,-0.34467 -0.124663,0.28416 0.08576,0.22348 0.208599,0.35365 0.272983,0.28926 0.06438,-0.0644 -0.0023,-0.32242 -0.14832,-0.57342 z m 35.484522,-1.76919 1.869205,-1.93798 -1.93798,1.86921 c -1.065888,1.02806 -1.937979,1.90015 -1.937979,1.93798 0,0.18287 0.270677,-0.0693 2.006754,-1.86921 z m -36.515294,-0.31258 c -0.147212,-0.27506 -0.323923,-0.50012 -0.39269,-0.50012 -0.06877,0 -0.0046,0.22506 0.142628,0.50012 0.147211,0.27507 0.323923,0.50013 0.39269,0.50013 0.06877,0 0.0046,-0.22506 -0.142628,-0.50013 z m 2.375588,-0.38412 c -0.412602,-0.18893 -0.975242,-0.33993 -1.25031,-0.33556 -0.275068,0.004 -0.05001,0.15628 0.500124,0.33759 1.310052,0.43176 1.695267,0.43072 0.750186,-0.002 z m -2.058252,-0.53009 c -0.1693,-0.0685 -0.506883,-0.0727 -0.750186,-0.009 -0.243303,0.0634 -0.104783,0.11944 0.307819,0.12454 0.412602,0.005 0.611666,-0.0468 0.442367,-0.11528 z m 38.724216,-1.52389 c 0.311044,-0.39661 0.302199,-0.40546 -0.09441,-0.0944 -0.41654,0.32667 -0.549006,0.53202 -0.343195,0.53202 0.05193,0 0.248849,-0.19692 0.437609,-0.43761 z m 6.149026,-14.75021 c -0.05748,-0.38011 -0.106041,-0.12847 -0.107919,0.5592 -0.0018,0.68767 0.04515,0.99867 0.104506,0.69111 0.05935,-0.30756 0.06089,-0.8702 0.0034,-1.25031 z m 15.64738,-1.00102 c -0.853873,-0.0487 -2.316736,-0.049 -3.250809,-7.5e-4 -0.934076,0.0482 -0.235456,0.0881 1.552487,0.0885 1.787942,5e-4 2.552182,-0.039 1.698322,-0.0877 z m -5.507008,-0.22921 c -0.169299,-0.0685 -0.506882,-0.0727 -0.750185,-0.009 -0.243303,0.0634 -0.104784,0.11945 0.307818,0.12455 0.412603,0.005 0.611667,-0.0468 0.442367,-0.11528 z m 8.247288,-0.001 c -0.17192,-0.0694 -0.45324,-0.0694 -0.62516,0 -0.17192,0.0694 -0.0313,0.12613 0.31258,0.12613 0.34383,0 0.48449,-0.0568 0.31258,-0.12613 z m -10.002479,-0.25006 c -0.171918,-0.0694 -0.453238,-0.0694 -0.625155,0 -0.171918,0.0694 -0.03126,0.12613 0.312577,0.12613 0.343835,0 0.484495,-0.0568 0.312578,-0.12613 z m 11.372609,0.0145 c -0.0831,-0.0831 -0.29878,-0.092 -0.47929,-0.0197 -0.19948,0.0798 -0.14023,0.13908 0.15108,0.15108 0.26361,0.0108 0.4113,-0.0483 0.32821,-0.13134 z m -12.622919,-0.26468 c -0.171917,-0.0694 -0.453237,-0.0694 -0.625155,0 -0.171917,0.0694 -0.03126,0.12613 0.312578,0.12613 0.343835,0 0.484495,-0.0568 0.312577,-0.12613 z m -1.562887,-0.33451 c -0.343835,-0.11012 -0.85021,-0.20021 -1.125278,-0.20021 -0.396016,0 -0.369987,0.0417 0.125031,0.20021 0.343835,0.11011 0.85021,0.20021 1.125278,0.20021 0.396016,0 0.369987,-0.0417 -0.125031,-0.20021 z m -2.125526,-0.50012 c -0.275068,-0.11821 -0.668915,-0.21491 -0.875216,-0.21491 -0.236429,0 -0.190207,0.0794 0.125031,0.21491 0.275068,0.1182 0.668915,0.21491 0.875216,0.21491 0.236429,0 0.190207,-0.0794 -0.125031,-0.21491 z m -1.443064,-0.40115 c -0.08309,-0.0831 -0.298774,-0.092 -0.479286,-0.0197 -0.199482,0.0798 -0.14023,0.13908 0.15108,0.15108 0.263605,0.0108 0.411299,-0.0482 0.328206,-0.13134 z m -1.307616,-0.34904 c -0.275068,-0.1182 -0.668916,-0.21491 -0.875217,-0.21491 -0.236428,0 -0.190207,0.0794 0.125031,0.21491 0.275068,0.1182 0.668916,0.21491 0.875217,0.21491 0.236428,0 0.190207,-0.0795 -0.125031,-0.21491 z m 26.913552,-2.18804 c 0.31104,-0.39661 0.3022,-0.40546 -0.0944,-0.0944 -0.41654,0.32667 -0.549,0.53202 -0.34319,0.53202 0.0519,0 0.24885,-0.19693 0.43761,-0.43761 z m 2.59375,-2.31307 c 0.81659,-0.82521 1.42845,-1.50037 1.35968,-1.50037 -0.0688,0 -0.79315,0.67516 -1.60974,1.50037 -0.8166,0.8252 -1.42845,1.50037 -1.35969,1.50037 0.0688,0 0.79316,-0.67517 1.60975,-1.50037 z m 2.50062,-2.75068 c 0.24893,-0.27507 0.39634,-0.50013 0.32757,-0.50013 -0.0688,0 -0.3287,0.22506 -0.57763,0.50013 -0.24894,0.27506 -0.39635,0.50012 -0.32758,0.50012 0.0688,0 0.3287,-0.22506 0.57764,-0.50012 z m 1.15718,-1.43786 c 0.31104,-0.39661 0.3022,-0.40546 -0.0944,-0.0944 -0.41654,0.32667 -0.549,0.53202 -0.34319,0.53202 0.0519,0 0.24885,-0.19693 0.43761,-0.43761 z m 3.38972,-6.861073 c -0.0798,-0.199482 -0.13908,-0.14023 -0.15108,0.15108 -0.0109,0.263605 0.0482,0.411299 0.13134,0.328206 0.0831,-0.0831 0.092,-0.298774 0.0197,-0.479286 z m 74.09756,-5.096979 c 0,-0.06877 -0.22505,-0.0046 -0.50012,0.142628 -0.27507,0.147211 -0.50013,0.323922 -0.50013,0.392689 0,0.06877 0.22506,0.0046 0.50013,-0.142627 0.27507,-0.147212 0.50012,-0.323923 0.50012,-0.39269 z m 1.25031,-0.750186 c 0,-0.06877 -0.22505,-0.0046 -0.50012,0.142628 -0.27507,0.147211 -0.50013,0.323923 -0.50013,0.39269 0,0.06877 0.22506,0.0046 0.50013,-0.142628 0.27507,-0.147211 0.50012,-0.323923 0.50012,-0.39269 z m -76.51894,0.314443 c 0,-0.04304 -0.36571,-0.408751 -0.8127,-0.812701 l -0.8127,-0.734454 0.73446,0.812701 c 0.68461,0.757552 0.89094,0.927642 0.89094,0.734454 z m -1.75043,-1.559381 c 0,-0.333325 -2.22466,-1.102575 -3.20305,-1.107561 -0.74979,-0.0038 -1.02325,-0.0933 -0.89909,-0.294191 0.11055,-0.178869 0.0686,-0.220819 -0.11027,-0.110272 -0.61192,0.378181 -0.24009,0.649301 0.89909,0.65559 0.65329,0.0036 1.63791,0.219554 2.18804,0.479883 1.20841,0.571829 1.12528,0.54401 1.12528,0.376551 z m 30.57483,-0.276831 c -0.1693,-0.0685 -0.50689,-0.07267 -0.75019,-0.0093 -0.2433,0.0634 -0.10478,0.119444 0.30782,0.124541 0.4126,0.0051 0.61166,-0.04678 0.44237,-0.115276 z m 3.50086,0 c -0.1693,-0.0685 -0.50688,-0.07267 -0.75018,-0.0093 -0.24331,0.0634 -0.10479,0.119444 0.30781,0.124541 0.41261,0.0051 0.61167,-0.04678 0.44237,-0.115276 z m -4.88617,-0.237116 c -0.0831,-0.08309 -0.29878,-0.09198 -0.47929,-0.01973 -0.19948,0.07982 -0.14023,0.13908 0.15108,0.151077 0.26361,0.01085 0.4113,-0.04824 0.32821,-0.131337 z m 6.25154,0 c -0.0831,-0.08309 -0.29877,-0.09198 -0.47928,-0.01973 -0.19948,0.07982 -0.14023,0.13908 0.15108,0.151077 0.2636,0.01085 0.4113,-0.04824 0.3282,-0.131337 z m -7.18407,-0.199549 c 0,-0.05531 -0.33758,-0.218252 -0.75018,-0.362088 -0.86838,-0.302717 -1.02492,-0.13178 -0.18755,0.204801 0.63337,0.254583 0.93773,0.305633 0.93773,0.157287 z m 54.26343,-0.542185 c 0,-0.06877 -0.22505,-0.0046 -0.50012,0.142628 -0.27507,0.147212 -0.50012,0.323923 -0.50012,0.39269 0,0.06877 0.22505,0.0046 0.50012,-0.142628 0.27507,-0.147211 0.50012,-0.323923 0.50012,-0.39269 z m -56.36255,-0.434717 c -0.26054,-0.163828 -1.66714,-1.222448 -3.12577,-2.352485 -2.41133,-1.868117 -5.14252,-3.580501 -5.6878,-3.5661 -0.11828,0.0031 0.4796,0.380119 1.32863,0.837765 0.84904,0.457646 2.53696,1.622539 3.75093,2.588651 2.07346,1.650108 3.79891,2.835069 4.0827,2.803811 0.0688,-0.0076 -0.0881,-0.147812 -0.34869,-0.311642 z m 57.61286,-0.315468 c 0,-0.06877 -0.22505,-0.0046 -0.50012,0.142628 -0.27507,0.147211 -0.50012,0.323922 -0.50012,0.392689 0,0.06877 0.22505,0.0046 0.50012,-0.142628 0.27507,-0.147211 0.50012,-0.323922 0.50012,-0.392689 z m 1.25031,-0.750186 c 0,-0.06877 -0.22505,-0.0046 -0.50012,0.142628 -0.27507,0.147211 -0.50013,0.323923 -0.50013,0.39269 0,0.06877 0.22506,0.0046 0.50013,-0.142628 0.27507,-0.147212 0.50012,-0.323923 0.50012,-0.39269 z m -87.39663,-0.607558 c 0.5372,-0.550136 0.92046,-1.000247 0.85169,-1.000247 -0.0688,0 -0.56456,0.450111 -1.10175,1.000247 -0.53719,0.550136 -0.92045,1.000248 -0.85168,1.000248 0.0688,0 0.56455,-0.450112 1.10174,-1.000248 z m 88.64694,-0.142628 c 0,-0.06877 -0.22505,-0.0046 -0.50012,0.142628 -0.27507,0.147212 -0.50013,0.323923 -0.50013,0.39269 0,0.06877 0.22506,0.0046 0.50013,-0.142628 0.27507,-0.147211 0.50012,-0.323923 0.50012,-0.39269 z m 3.06326,-1.727189 c 1.34096,-0.793434 2.4381,-1.491647 2.4381,-1.551584 0,-0.131831 0.17161,-0.225791 -2.81319,1.540291 -1.34096,0.793434 -2.43811,1.491646 -2.43811,1.551584 0,0.13183 -0.1716,0.225791 2.8132,-1.540291 z m -89.80283,0.1819 c 0.31104,-0.396614 0.3022,-0.405458 -0.0944,-0.09441 -0.41654,0.326674 -0.549,0.532022 -0.34319,0.532022 0.0519,0 0.24885,-0.196924 0.43761,-0.437608 z m 45.51126,-0.500124 c 0.31104,-0.396613 0.3022,-0.405458 -0.0944,-0.09441 -0.41654,0.326674 -0.549,0.532022 -0.34319,0.532022 0.0519,0 0.24885,-0.196924 0.43761,-0.437608 z m 1.21841,-0.937732 c 0.32302,-0.343835 0.53104,-0.625155 0.46227,-0.625155 -0.0688,0 -0.38931,0.28132 -0.71233,0.625155 -0.32302,0.343835 -0.53104,0.625154 -0.46227,0.625154 0.0688,0 0.38931,-0.281319 0.71233,-0.625154 z m 46.76157,-1.017845 c 0,-0.06877 -0.22505,-0.0046 -0.50012,0.142628 -0.27507,0.147212 -0.50013,0.323923 -0.50013,0.39269 0,0.06877 0.22506,0.0046 0.50013,-0.142628 0.27507,-0.147211 0.50012,-0.323923 0.50012,-0.39269 z M 135.76576,80.16984 c -0.2063,-0.133323 -0.54389,-0.236218 -0.75019,-0.228656 -0.24732,0.0091 -0.20473,0.08695 0.12503,0.228656 0.68745,0.295403 1.08226,0.295403 0.62516,0 z m 33.00817,-1.927529 c 0,-0.187767 -0.22452,0.01075 -1.26076,1.114828 l -1.11483,1.187794 1.18779,-1.114828 c 0.65329,-0.613154 1.1878,-1.147662 1.1878,-1.187794 z m 49.71711,-1.433995 c 2.76836,-1.642539 4.99489,-3.024926 4.94784,-3.071975 -0.0976,-0.09755 -10.64676,6.114303 -11.02915,6.494464 -0.38541,0.383145 0.63704,-0.192275 6.08131,-3.422489 z m -84.04332,2.960383 c -0.0831,-0.08309 -0.29877,-0.09198 -0.47928,-0.01973 -0.19948,0.07982 -0.14023,0.139079 0.15108,0.151077 0.2636,0.01085 0.4113,-0.04824 0.3282,-0.131337 z m -7.62167,-0.264593 c -0.17192,-0.06937 -0.45324,-0.06937 -0.62516,0 -0.17192,0.06937 -0.0313,0.126128 0.31258,0.126128 0.34383,0 0.48449,-0.05676 0.31258,-0.126128 z m 6.5016,0 c -0.17191,-0.06937 -0.45323,-0.06937 -0.62515,0 -0.17192,0.06937 -0.0313,0.126128 0.31258,0.126128 0.34383,0 0.48449,-0.05676 0.31257,-0.126128 z m -2.24301,-0.267179 c -0.58037,-0.05244 -1.59312,-0.05307 -2.25056,-0.0015 -0.65743,0.05168 -0.18258,0.09459 1.05522,0.09535 1.23781,7.5e-4 1.77571,-0.04152 1.19534,-0.09397 z m 38.72143,-2.255376 c 0.31105,-0.396613 0.3022,-0.405458 -0.0944,-0.09441 -0.24069,0.188759 -0.43761,0.385683 -0.43761,0.437608 0,0.205811 0.20535,0.07335 0.53202,-0.343195 z m 2.8896,-5.860825 c -0.0798,-0.199482 -0.13908,-0.14023 -0.15107,0.15108 -0.0109,0.263605 0.0482,0.411299 0.13133,0.328206 0.0831,-0.0831 0.092,-0.298774 0.0197,-0.479286 z m 0.26047,-2.761831 c -0.0557,-0.449449 -0.10233,-0.142013 -0.10374,0.683191 -10e-4,0.825205 0.0441,1.192935 0.10119,0.81718 0.0571,-0.375756 0.0582,-1.050923 0.003,-1.500371 z m -0.80208,-2.934405 c -2.32286,-4.491904 -7.52964,-5.267442 -12.61756,-1.879359 -1.76199,1.173324 -2.76554,1.982782 -2.76554,2.230668 0,0.08493 0.74262,-0.414776 1.65027,-1.110451 2.91817,-2.236656 5.38376,-3.146257 7.9664,-2.938947 2.48937,0.199822 4.49871,1.584171 5.57482,3.840809 0.22109,0.46362 0.44637,0.798553 0.50063,0.744294 0.0543,-0.05426 -0.0848,-0.453415 -0.30902,-0.887014 z m -9.25659,-8.760467 c 0.95536,-0.962738 1.68076,-1.750433 1.61199,-1.750433 -0.0688,0 -0.90669,0.787695 -1.86205,1.750433 -0.95536,0.962738 -1.68076,1.750433 -1.61199,1.750433 0.0688,0 0.90669,-0.787695 1.86205,-1.750433 z m 33.94934,0.574159 c -0.30756,-0.05936 -0.8702,-0.06089 -1.25031,-0.0034 -0.38011,0.05748 -0.12847,0.106041 0.5592,0.107919 0.68767,0.0019 0.99867,-0.04515 0.69111,-0.104506 z m -3.19173,-0.4222 c -1.41083,-0.443891 -1.94144,-0.748139 -4.62614,-2.652578 -1.30657,-0.926841 -2.65691,-1.814677 -3.00074,-1.972967 -0.52941,-0.243723 -0.55297,-0.239146 -0.15384,0.02988 0.25923,0.174725 1.51195,1.076298 2.78382,2.003493 2.41494,1.76049 4.64489,2.945504 5.49703,2.921164 0.27507,-0.0079 0.05,-0.155904 -0.50013,-0.328994 z m 5.30861,0.197086 c -0.0831,-0.08309 -0.29877,-0.09198 -0.47929,-0.01974 -0.19948,0.07983 -0.14023,0.139081 0.15108,0.15108 0.26361,0.01086 0.4113,-0.04824 0.32821,-0.131338 z M 165.55502,54.22592 c 0.31104,-0.396612 0.3022,-0.405457 -0.0944,-0.09441 -0.41654,0.326673 -0.54901,0.53202 -0.3432,0.53202 0.0519,0 0.24885,-0.196924 0.43761,-0.437608 z m 41.72844,-0.955329 c 0,-0.06877 -0.22506,-0.0046 -0.50013,0.142628 -0.27507,0.147212 -0.50012,0.323922 -0.50012,0.392689 0,0.06877 0.22505,0.0046 0.50012,-0.142627 0.27507,-0.147212 0.50013,-0.323923 0.50013,-0.39269 z m -38.7596,-1.000247 c 0,-0.06877 -0.22505,-0.0046 -0.50012,0.142627 -0.27507,0.147212 -0.50012,0.323922 -0.50012,0.392689 0,0.06877 0.22505,0.0046 0.50012,-0.142627 0.27507,-0.147212 0.50012,-0.323922 0.50012,-0.392689 z m 16.00397,-0.85762 c -0.20631,-0.133322 -0.48763,-0.242404 -0.62516,-0.242404 -0.13753,0 -0.0813,0.109082 0.12503,0.242404 0.2063,0.133322 0.48762,0.242403 0.62516,0.242403 0.13753,0 0.0813,-0.109081 -0.12503,-0.242403 z m -11.82064,-0.651203 c -0.0831,-0.08309 -0.29877,-0.09198 -0.47928,-0.01974 -0.19949,0.07983 -0.14023,0.13908 0.15108,0.151079 0.2636,0.01086 0.4113,-0.04824 0.3282,-0.131337 z m 9.69511,-0.09898 c -0.27507,-0.118201 -0.72518,-0.211603 -1.00025,-0.20756 -0.40205,0.0059 -0.37752,0.04661 0.12503,0.20756 0.85501,0.27382 1.51243,0.27382 0.87522,0 z m -8.69486,-0.151079 c -0.0831,-0.08309 -0.29877,-0.09198 -0.47929,-0.01974 -0.19948,0.07983 -0.14023,0.139081 0.15108,0.15108 0.26361,0.01086 0.4113,-0.04824 0.32821,-0.131338 z m 38.57725,-0.491672 c 0,-0.06877 -0.22505,-0.0046 -0.50012,0.142627 -0.27507,0.147212 -0.50012,0.323922 -0.50012,0.392689 0,0.06877 0.22505,0.0046 0.50012,-0.142627 0.27507,-0.147212 0.50012,-0.323922 0.50012,-0.392689 z m -36.94188,0.228664 c -0.1693,-0.0685 -0.50688,-0.07267 -0.75019,-0.0093 -0.2433,0.0634 -0.10478,0.119446 0.30782,0.124542 0.4126,0.0051 0.61167,-0.04678 0.44237,-0.115276 z m 5.2513,0 c -0.1693,-0.0685 -0.50688,-0.07267 -0.75019,-0.0093 -0.2433,0.0634 -0.10478,0.119446 0.30782,0.124542 0.4126,0.0051 0.61167,-0.04678 0.44237,-0.115276 z M 177.9637,49.99004 c -0.24068,-0.0629 -0.63453,-0.0629 -0.87522,0 -0.24068,0.0629 -0.0438,0.114359 0.43761,0.114359 0.48137,0 0.6783,-0.05146 0.43761,-0.114359 z m 37.96564,-2.01776 c -0.11313,-0.113125 -2.14427,0.897288 -2.14427,1.066688 0,0.06418 0.5039,-0.128118 1.11979,-0.427338 0.61588,-0.299221 1.0769,-0.586928 1.02448,-0.63935 z m 3.0393,-0.961688 c -0.0831,-0.08309 -0.29877,-0.09198 -0.47929,-0.01974 -0.19948,0.07983 -0.14022,0.13908 0.15108,0.151079 0.26361,0.01086 0.4113,-0.04824 0.32821,-0.131338 z m 1.38055,-0.264594 c -0.17192,-0.06937 -0.45324,-0.06937 -0.62515,0 -0.17192,0.06937 -0.0313,0.126128 0.31257,0.126128 0.34384,0 0.4845,-0.05676 0.31258,-0.126128 z"
     id="path3803"
     inkscape:connector-curvature="0" />
  <path
     style="fill:#28170b;stroke-width:0.2500619"
     d="m 10.588178,150.18717 c 0.05873,-8.04574 0.18414,-14.98998 0.278697,-15.43163 0.150539,-0.70314 0.534001,-1.01697 3.083189,-2.5233 1.601197,-0.94615 24.235294,-14.43769 50.297994,-29.98118 C 142.3168,55.691778 197.24114,23.05811 215.41047,12.436908 l 7.75192,-4.5315221 0.15918,1.2399439 c 0.0875,0.6819691 0.24267,9.1538042 0.34472,18.8263012 l 0.18555,17.586356 -2.24057,0.03133 c -3.83806,0.05366 -6.39,1.126059 -13.0775,5.495525 -4.28302,2.798425 -6.48712,3.903701 -9.13522,4.580969 -4.03365,1.031635 -5.77491,0.578625 -10.79427,-2.808243 -3.6309,-2.449994 -5.19226,-3.152415 -8.18589,-3.682651 -10.02889,-1.776335 -20.38281,5.371369 -25.14449,17.358206 -0.41442,1.043255 -0.7535,2.17522 -0.7535,2.515475 0,1.123928 0.81303,0.695037 1.9892,-1.049353 1.24166,-1.841503 2.85976,-3.235098 5.12458,-4.413559 1.34997,-0.702432 1.74283,-0.787538 3.63888,-0.788295 2.47601,-10e-4 3.59715,0.459051 5.05719,2.075138 1.81571,2.009782 1.83158,5.255443 0.0439,8.983986 -1.67342,3.490291 -7.33197,8.651443 -11.97782,10.924941 -3.16841,1.550496 -4.94318,1.959525 -8.01646,1.847535 -2.22367,-0.08103 -2.70175,-0.184221 -4.12602,-0.890583 -0.88601,-0.439414 -2.39862,-1.418461 -3.36136,-2.175661 -4.97395,-3.912046 -7.51675,-5.061313 -11.7767,-5.322705 -6.2162,-0.381427 -12.22276,1.99026 -16.11504,6.363015 -1.35252,1.519476 -2.49078,3.287011 -2.49078,3.867785 0,0.5579 0.91213,0.596477 1.61068,0.06812 0.68176,-0.515657 2.4849,-0.45662 3.61174,0.118252 3.9821,2.031511 4.02973,6.944391 0.11927,12.301396 -3.04158,4.1667 -6.4781,7.26312 -9.96783,8.98132 -3.1643,1.55798 -4.64167,1.85355 -9.252292,1.85105 -4.526541,-0.002 -6.377514,-0.29148 -12.206496,-1.90603 -4.3314,-1.19974 -4.533777,-1.15438 -3.682199,0.82517 1.97039,4.58029 0.01745,10.82145 -5.506215,17.59663 -3.083731,3.78243 -6.630981,6.66554 -10.277049,8.35293 -2.540766,1.17586 -4.284382,1.60286 -6.58751,1.61326 -3.521371,0.0159 -6.230649,-1.06125 -11.441821,-4.54901 -5.142648,-3.4419 -7.623195,-4.54196 -10.241768,-4.54196 -1.441426,0 -1.725247,0.40487 -1.001743,1.42898 0.270647,0.3831 0.89912,1.5077 1.396606,2.49912 2.804174,5.5883 2.727678,11.80047 -0.194188,15.76954 -2.34478,3.18516 -5.271563,4.70571 -12.874841,6.68885 -2.936892,0.76602 -6.309456,1.78376 -7.494589,2.26164 -3.612801,1.4568 -6.160911,3.46236 -7.433632,5.85083 l -0.60472,1.13486 z"
     id="path3805"
     inkscape:connector-curvature="0" />
  <path
     style="fill:#28170b;stroke-width:0.2500619"
     d=""
     id="path3807"
     inkscape:connector-curvature="0" />
  <path
     style="fill:#28170b;stroke-width:0.2500619"
     d="m 9.4845055,132.50867 c -0.206301,-0.0741 -1.9245985,-1.09048 -3.818439,-2.25869 l -3.4433463,-2.12402 1.1532562,-0.73137 C 7.8551728,124.55397 129.9851,51.660482 187.02844,17.781254 198.7876,10.797245 209.97803,4.1462028 211.89607,3.0011614 l 3.48733,-2.0818936 1.889,1.0313955 c 2.08264,1.1371278 5.26483,3.1298673 5.26483,3.2969281 0,0.315248 -4.13776,3.0719035 -10.00247,6.6638446 C 191.77325,24.627157 33.173366,119.39922 15.36096,129.73351 c -3.109138,1.80384 -5.273645,2.97187 -5.4288842,2.92958 -0.039863,-0.0109 -0.2412692,-0.0803 -0.4475703,-0.15442 z"
     id="path3809"
     inkscape:connector-curvature="0" />
  <path
     style="fill:#2b1100;stroke-width:0.2500619"
     d="m 6.6983423,167.18816 c -1.1885547,-0.25635 -2.9754964,-0.71348 -3.9709817,-1.01585 l -1.80997342,-0.54976 0.15601212,-8.40536 c 0.085807,-4.62295 0.228048,-12.60634 0.3160919,-17.74088 0.1269833,-7.40541 0.2285761,-9.3618 0.4913815,-9.46265 0.182216,-0.0699 1.8475793,0.63731 3.7008072,1.57164 l 3.3695056,1.69876 0.1325103,1.7624 c 0.072881,0.96932 0.1898773,8.71099 0.2599924,17.20372 0.09975,12.0822 0.060934,15.43727 -0.1784277,15.4227 -0.1682504,-0.0103 -1.2783636,-0.22837 -2.4669182,-0.48472 z"
     id="path3811"
     inkscape:connector-curvature="0" />
  <ellipse
     style="fill:#ffff00"
     id="path3837"
     cx="22.005445"
     cy="142.66031"
     rx="5.2512994"
     ry="4.8762069" />
  <ellipse
     style="fill:#ffff00"
     id="path3839"
     cx="23.755878"
     cy="153.66302"
     rx="4.0009904"
     ry="7.8769493" />
  <ellipse
     style="fill:#ffff00"
     id="path3841"
     cx="17.879425"
     cy="148.53676"
     rx="5.1262689"
     ry="1.7504332" />
  <ellipse
     style="fill:#ffff00"
     id="path3843"
     cx="30.757612"
     cy="146.6613"
     rx="6.2515473"
     ry="2.125526" />
  <ellipse
     style="fill:#ffff00"
     id="path3845"
     cx="23.380787"
     cy="163.6655"
     rx="1.3753403"
     ry="3.6258974" />
  <ellipse
     style="fill:#ffff00"
     id="path3849"
     cx="20.880167"
     cy="162.66525"
     rx="1.1252785"
     ry="2.8757117" />
  <ellipse
     style="fill:#ff0000"
     id="path3855"
     cx="22.380539"
     cy="143.41049"
     rx="2.125526"
     ry="1.6254022" />
  <ellipse
     style="fill:#28170b"
     id="path3859"
     cx="20.004951"
     cy="141.66006"
     rx="1.5003713"
     ry="1.3753403" />
  <ellipse
     style="fill:#28170b"
     id="path3861"
     cx="24.005941"
     cy="140.40974"
     rx="1.0002476"
     ry="1.3753403" />
</svg>
