<?xml version="1.0" encoding="UTF-8" standalone="no"?>
<!-- Generator: Adobe Illustrator 16.0.0, SVG Export Plug-In . SVG Version: 6.00 Build 0)  -->

<svg
   xmlns:dc="http://purl.org/dc/elements/1.1/"
   xmlns:cc="http://creativecommons.org/ns#"
   xmlns:rdf="http://www.w3.org/1999/02/22-rdf-syntax-ns#"
   xmlns:svg="http://www.w3.org/2000/svg"
   xmlns="http://www.w3.org/2000/svg"
   xmlns:sodipodi="http://sodipodi.sourceforge.net/DTD/sodipodi-0.dtd"
   xmlns:inkscape="http://www.inkscape.org/namespaces/inkscape"
   version="1.1"
   id="svg2"
   inkscape:version="0.92.2 5c3e80d, 2017-08-06"
   sodipodi:docname="blueWall.svg"
   x="0px"
   y="0px"
   width="430.543px"
   height="325.295px"
   viewBox="0 0 430.543 325.295"
   enable-background="new 0 0 430.543 325.295"
   xml:space="preserve"><metadata
     id="metadata11"><rdf:RDF><cc:Work
         rdf:about=""><dc:format>image/svg+xml</dc:format><dc:type
           rdf:resource="http://purl.org/dc/dcmitype/StillImage" /><dc:title></dc:title></cc:Work></rdf:RDF></metadata><defs
     id="defs3"><inkscape:perspective
       sodipodi:type="inkscape:persp3d"
       inkscape:vp_x="0 : 526.18109 : 1"
       inkscape:vp_y="0 : 1000 : 0"
       inkscape:vp_z="744.09448 : 526.18109 : 1"
       id="perspective2985"
       inkscape:persp3d-origin="372.04724 : 350.78739 : 1" /></defs><sodipodi:namedview
     units="mm"
     pagecolor="#ffffff"
     bordercolor="#666666"
     borderopacity="1.0"
     inkscape:zoom="1.979899"
     inkscape:cx="161.28249"
     inkscape:cy="150.5455"
     showgrid="false"
     showguides="true"
     fit-margin-top="0"
     fit-margin-left="0"
     id="base"
     inkscape:document-units="mm"
     inkscape:current-layer="layer1"
     inkscape:object-nodes="true"
     inkscape:window-width="1280"
     inkscape:window-height="712"
     inkscape:window-x="0"
     inkscape:window-y="1"
     inkscape:window-maximized="1"
     inkscape:guide-bbox="true"
     fit-margin-right="0"
     fit-margin-bottom="0"
     inkscape:pageopacity="0.0"
     inkscape:pageshadow="2" /><g
     id="layer1"
     transform="translate(-53.643411,-569.625)"
     inkscape:label="Layer 1"
     inkscape:groupmode="layer"><path
       id="path3910"
       inkscape:connector-curvature="0"
       sodipodi:nodetypes="cccccccc"
       fill="#D7D7F4"
       d="M268.908,570.139   l9.32,5.536l-9.313,5.563l-0.007-0.005L63.471,703.826H63.44l-9.281-5.563L268.908,570.139z" /><path
       id="path3914"
       inkscape:connector-curvature="0"
       sodipodi:nodetypes="ccccc"
       fill="#B3B3B3"
       d="M278.228,575.675v68   L63.455,771.831v-68L278.228,575.675z" /><path
       id="path3916"
       inkscape:connector-curvature="0"
       fill="#F2F2F2"
       d="M54.144,698.276v68l9.311,5.555v-68L54.144,698.276z" /><path
       style="fill:#00ffff;stroke-width:0.50507629"
       d="M 9.8606198,168.1805 V 134.38818 L 35.49324,119.09046 C 147.7883,52.072 219.57944,9.2467322 222.11892,7.7634279 l 2.39911,-1.4013138 V 40.127173 73.892232 L 117.8871,137.52861 C 59.24009,172.52863 10.942172,201.34676 10.558395,201.56891 9.9676738,201.91084 9.8606198,196.78833 9.8606198,168.1805 Z"
       id="path13"
       inkscape:connector-curvature="0"
       transform="translate(53.643411,569.625)" /><path
       style="fill:#00ffff;stroke-width:0.50507629"
       d="M 4.9254504,131.15326 0.74789524,128.60065 107.45593,64.929189 C 166.14535,29.909884 214.51813,1.1626367 214.951,1.0464153 c 0.76197,-0.2045852 9.0245,4.3328502 9.04954,4.9696355 0.007,0.1735603 -19.93178,12.2103392 -44.30802,26.7483982 -24.37625,14.538058 -49.88891,29.76033 -56.69482,33.827264 -6.8059,4.06694 -24.306791,14.508114 -38.890869,23.202608 C 69.522754,98.48882 50.658155,109.74571 42.185501,114.80963 12.89522,132.31579 10.459772,133.73725 9.7828199,133.7216 9.408922,133.71296 7.2231055,132.5572 4.9254504,131.15326 Z"
       id="path15"
       inkscape:connector-curvature="0"
       transform="translate(53.643411,569.625)" /><path
       style="fill:#00ffff;stroke-width:0.50507629"
       d="m 4.9361262,199.48549 -4.67195548,-2.85945 v -34.25835 c 0,-28.45413 0.11347089,-34.14489 0.66973992,-33.58862 0.36835696,0.36835 2.51840386,1.69147 4.77788186,2.94026 l 4.1081424,2.27053 0.1466115,34.21898 c 0.080637,18.82045 0.032969,34.20034 -0.1059266,34.17755 -0.1388959,-0.0228 -2.3549181,-1.3282 -4.9244936,-2.9009 z"
       id="path17"
       inkscape:connector-curvature="0"
       transform="translate(53.643411,569.625)" /></g></svg>