<?xml version="1.0" encoding="UTF-8" standalone="no"?>
<svg
   xmlns:dc="http://purl.org/dc/elements/1.1/"
   xmlns:cc="http://creativecommons.org/ns#"
   xmlns:rdf="http://www.w3.org/1999/02/22-rdf-syntax-ns#"
   xmlns:svg="http://www.w3.org/2000/svg"
   xmlns="http://www.w3.org/2000/svg"
   id="svg8"
   version="1.1"
   viewBox="0 0 210 297"
   height="1122.5197"
   width="793.70081">
  <defs
     id="defs2" />
  <metadata
     id="metadata5">
    <rdf:RDF>
      <cc:Work
         rdf:about="">
        <dc:format>image/svg+xml</dc:format>
        <dc:type
           rdf:resource="http://purl.org/dc/dcmitype/StillImage" />
        <dc:title></dc:title>
      </cc:Work>
    </rdf:RDF>
  </metadata>
  <g
     id="layer1">
    <path
       id="path3727"
       d="M 106.85642,165.39771 V 121.9091 l 28.65229,14.4962 v 43.48862 z"
       style="fill:#f4d7d7;stroke:#000000;stroke-width:0.26458332px;stroke-linecap:butt;stroke-linejoin:miter;stroke-opacity:1" />
    <path
       id="path3731"
       d="m 106.85642,121.9091 28.65229,14.4962 v 43.48862 l -28.65229,-14.49621 z"
       style="fill:#00ffff;stroke:#000000;stroke-width:0.26458332px;stroke-linecap:butt;stroke-linejoin:miter;stroke-opacity:1" />
    <path
       id="path3733"
       d="m 106.85642,136.4053 28.65229,14.49621 -28.65229,-14.49621 v 14.49621 l 14.32615,7.2481 14.32614,7.2481 v -14.4962 l -14.32614,-7.24811 v 14.49621 l -14.32615,-7.2481 z"
       style="fill:#f4d7d7;stroke:#000000;stroke-width:0.26458332px;stroke-linecap:butt;stroke-linejoin:miter;stroke-opacity:1" />
    <path
       id="path3735"
       d="m 121.18257,143.6534 -14.32615,-7.2481 v 0 14.49621 l 14.32615,7.2481 z"
       style="fill:#e3dbdb;stroke:#000000;stroke-width:0.26458332px;stroke-linecap:butt;stroke-linejoin:miter;stroke-opacity:1" />
    <path
       id="path3747"
       d="M 164.161,194.39012 V 121.9091 l 42.97842,21.7443 v 72.48103 z"
       style="fill:#ffe6d5;stroke:#000000;stroke-width:0.26458332px;stroke-linecap:butt;stroke-linejoin:miter;stroke-opacity:1" />
    <path
       id="path3757"
       d="m 106.85642,121.9091 28.65229,14.4962 v 43.48862 l -28.65229,-14.49621 z"
       style="fill:#ff6600;stroke:#000000;stroke-width:0.26458332px;stroke-linecap:butt;stroke-linejoin:miter;stroke-opacity:1" />
    <path
       id="path3759"
       d="m 106.85642,121.9091 14.32615,-7.24811 28.65227,14.49621 -14.32613,7.2481 z"
       style="fill:#784421;stroke:#000000;stroke-width:0.26458332px;stroke-linecap:butt;stroke-linejoin:miter;stroke-opacity:1" />
    <path
       id="path3761"
       d="m 135.50871,136.4053 v 43.48862 L 106.85642,165.39771 V 121.9091 Z"
       style="fill:#f4e3d7;stroke:#000000;stroke-width:0.26458332px;stroke-linecap:butt;stroke-linejoin:miter;stroke-opacity:1" />
    <path
       id="path3767"
       d="m 121.18257,129.1572 v 28.99241 l 14.32614,7.2481 V 136.4053 Z"
       style="fill:#917c6f;stroke:#000000;stroke-width:0.26458332px;stroke-linecap:butt;stroke-linejoin:miter;stroke-opacity:1" />
    <path
       id="path3771"
       d="m 121.18257,114.66099 -14.32615,7.24811 28.65229,14.4962 14.32613,-7.2481 z"
       style="fill:#ff6600;stroke:#000000;stroke-width:0.26458332px;stroke-linecap:butt;stroke-linejoin:miter;stroke-opacity:1" />
    <g
       style="stroke-width:0.84344685"
       transform="matrix(1.2154944,0,0,1.1564626,-47.724587,-17.940158)"
       id="g4703">
      <path
         style="fill:#ff6600;stroke:#000000;stroke-width:0.22316197px;stroke-linecap:butt;stroke-linejoin:miter;stroke-opacity:1"
         d="M 63.877994,143.6534 V 56.67617 L 207.13942,129.1572 v 86.97723 z"
         id="path3723" />
      <path
         style="fill:#501616;stroke:#000000;stroke-width:0.22316197px;stroke-linecap:butt;stroke-linejoin:miter;stroke-opacity:1"
         d="M 63.877994,56.67617 78.20413,49.428067 221.46556,121.9091 207.13942,129.1572 Z"
         id="path3737" />
      <path
         style="fill:#552200;stroke:#000000;stroke-width:0.22316197px;stroke-linecap:butt;stroke-linejoin:miter;stroke-opacity:1"
         d="m 221.46556,121.9091 v 86.97723 l -14.32614,7.2481 V 129.1572 l 14.32614,-7.2481 v 86.97723 l -14.32614,7.2481 V 129.1572 Z"
         id="path3739" />
      <path
         style="fill:#502d16;stroke:#000000;stroke-width:0.22316197px;stroke-linecap:butt;stroke-linejoin:miter;stroke-opacity:1"
         d="M 178.48713,187.14202 V 129.1572 L 164.161,121.9091 v 72.48102 z"
         id="path3751" />
      <path
         style="fill:#502d16;stroke:#000000;stroke-width:0.22316197px;stroke-linecap:butt;stroke-linejoin:miter;stroke-opacity:1"
         d="m 178.48713,187.14202 28.65229,14.49621 v 14.4962 L 164.161,194.39012 Z"
         id="path3753" />
      <path
         style="fill:#917c6f;stroke:#000000;stroke-width:0.22316197px;stroke-linecap:butt;stroke-linejoin:miter;stroke-opacity:1"
         d="m 178.48713,129.1572 28.65229,14.4962 v 57.98483 l -28.65229,-14.49621 z"
         id="path3755" />
      <path
         style="fill:#784421;stroke:#000000;stroke-width:0.22316197px;stroke-linecap:butt;stroke-linejoin:miter;stroke-opacity:1"
         d="m 121.18257,129.1572 v 28.99241 l -14.32615,7.2481 V 121.9091 Z"
         id="path3763" />
      <path
         style="fill:#502d16;stroke:#000000;stroke-width:0.22316197px;stroke-linecap:butt;stroke-linejoin:miter;stroke-opacity:1"
         d="m 121.18257,158.14961 14.32614,7.2481 v 14.49621 l -28.65229,-14.49621 z"
         id="path3765" />
      <path
         style="fill:#241f1c;stroke:#000000;stroke-width:0.22316197px;stroke-linecap:butt;stroke-linejoin:miter;stroke-opacity:1"
         d="m 106.85642,150.90151 28.65229,14.4962 v -14.4962 l -14.32614,-7.24811 -14.32615,7.24811 14.32615,7.2481 14.32614,-7.2481 -14.32614,-7.24811 z"
         id="path3769" />
      <path
         style="fill:#a05a2c;stroke:#000000;stroke-width:0.22316197px;stroke-linecap:butt;stroke-linejoin:miter;stroke-opacity:1"
         d="m 135.50871,136.4053 14.32613,-7.2481 -28.65227,-14.49621 -14.32615,7.24811 z"
         id="path4578" />
      <path
         style="fill:#784421;stroke:#000000;stroke-width:0.22316197px;stroke-linecap:butt;stroke-linejoin:miter;stroke-opacity:1"
         d="m 149.83484,129.1572 v 43.48862 l -14.32613,7.2481 V 136.4053 Z"
         id="path4580" />
      <path
         style="fill:#008080;stroke:#000000;stroke-width:0.22316197px;stroke-linecap:butt;stroke-linejoin:miter;stroke-opacity:1"
         d="m 149.83484,172.64582 14.32616,7.2481 v 14.4962 l -28.65229,-14.4962 z"
         id="path4598" />
      <path
         style="fill:#008080;stroke:#000000;stroke-width:0.22316197px;stroke-linecap:butt;stroke-linejoin:miter;stroke-opacity:1"
         d="m 63.877994,143.6534 v -14.4962 l 42.978426,21.74431 v 14.4962 z"
         id="path4600" />
    </g>
  </g>
</svg>
