<?xml version="1.0" encoding="UTF-8" standalone="no"?>
<!-- Generator: Adobe Illustrator 16.0.0, SVG Export Plug-In . SVG Version: 6.00 Build 0)  -->

<svg
   xmlns:dc="http://purl.org/dc/elements/1.1/"
   xmlns:cc="http://creativecommons.org/ns#"
   xmlns:rdf="http://www.w3.org/1999/02/22-rdf-syntax-ns#"
   xmlns:svg="http://www.w3.org/2000/svg"
   xmlns="http://www.w3.org/2000/svg"
   xmlns:sodipodi="http://sodipodi.sourceforge.net/DTD/sodipodi-0.dtd"
   xmlns:inkscape="http://www.inkscape.org/namespaces/inkscape"
   version="1.1"
   id="svg2"
   inkscape:version="0.92.2 (5c3e80d, 2017-08-06)"
   sodipodi:docname="graphicsTop.svg"
   x="0px"
   y="0px"
   width="430.543px"
   height="325.295px"
   viewBox="0 0 430.543 325.295"
   enable-background="new 0 0 430.543 325.295"
   xml:space="preserve"><metadata
     id="metadata902"><rdf:RDF><cc:Work
         rdf:about=""><dc:format>image/svg+xml</dc:format><dc:type
           rdf:resource="http://purl.org/dc/dcmitype/StillImage" /><dc:title></dc:title></cc:Work></rdf:RDF></metadata><path
     id="path6053"
     inkscape:connector-curvature="0"
     sodipodi:nodetypes="ccccccccc"
     fill="#F2F2F2"
     d="M215.271,11.589  l205.451,122.629v68l-93.813-55.969l0,0l-37.156-22.188v-0.031l-74.011-44.163L215.271,11.589z" /><defs
     id="defs896"><inkscape:perspective
       sodipodi:type="inkscape:persp3d"
       inkscape:vp_x="0 : 526.18109 : 1"
       inkscape:vp_y="0 : 1000 : 0"
       inkscape:vp_z="744.09448 : 526.18109 : 1"
       id="perspective2985"
       inkscape:persp3d-origin="372.04724 : 350.78739 : 1" /></defs><sodipodi:namedview
     units="mm"
     pagecolor="#ffffff"
     bordercolor="#666666"
     borderopacity="1.0"
     inkscape:zoom="1.4"
     inkscape:cx="355.65806"
     inkscape:cy="188.83923"
     showgrid="false"
     showguides="true"
     fit-margin-top="0"
     fit-margin-left="0"
     id="base"
     inkscape:document-units="mm"
     inkscape:current-layer="svg2"
     inkscape:object-nodes="true"
     inkscape:window-width="1366"
     inkscape:window-height="703"
     inkscape:window-x="0"
     inkscape:window-y="0"
     inkscape:window-maximized="1"
     inkscape:guide-bbox="true"
     fit-margin-right="0"
     fit-margin-bottom="0"
     inkscape:pageopacity="0.0"
     inkscape:pageshadow="2" /><path
     id="path3910"
     inkscape:connector-curvature="0"
     sodipodi:nodetypes="cccccc"
     fill="#D7D7F4"
     d="M224.757,6.177  l205.288,122.462l-9.313,5.563L215.265,11.608L224.757,6.177z" /><path
     id="path3918"
     inkscape:connector-curvature="0"
     fill="#B3B3B3"
     d="M430.043,128.651v68l-9.311,5.555v-68L430.043,128.651z" /><path
     style="opacity:0.98999999;fill:#a02c2c;fill-opacity:1;stroke:#000000;stroke-width:0.89999998;stroke-miterlimit:4;stroke-dasharray:none;stroke-opacity:0.61194033;paint-order:normal"
     id="path918"
     d="m 252.71894,66.482953 c 2.61068,0.104202 5.22241,-0.0019 7.82883,0.188482 3.5758,0.319917 6.91272,1.685912 10.27301,2.864364 4.17139,1.259029 8.2303,2.837783 12.12553,4.792264 3.23054,1.608735 6.25985,3.499839 8.74934,6.12361 1.96328,2.362406 2.82226,5.322995 3.78174,8.180152 0.96991,2.683947 1.65622,5.457653 2.40439,8.208561 0.45814,2.210537 1.02735,4.396464 1.406,6.622694 0.25016,1.53201 0.34974,3.08138 0.29271,4.63114 0,0 -9.34956,4.67959 -9.34956,4.67959 v 0 c 0.16431,-1.47721 0.008,-2.9585 -0.15787,-4.43186 -0.32346,-2.21198 -0.86599,-4.38357 -1.26422,-6.58211 -0.68986,-2.741619 -1.41943,-5.478604 -2.32716,-8.156832 -0.97716,-2.693087 -1.63291,-5.585144 -3.57829,-7.790923 -2.39832,-2.491489 -5.23231,-4.428795 -8.33771,-5.955683 -3.93141,-1.843593 -7.97213,-3.414717 -12.14321,-4.634041 -3.33272,-1.123618 -6.66422,-2.391302 -10.21592,-2.561454 -2.66997,-0.102394 -5.34443,-0.04917 -8.01505,0.0176 0,0 8.52744,-6.195555 8.52744,-6.195554 z"
     inkscape:connector-curvature="0" /><path
     style="opacity:0.98999999;fill:#ff00ff;fill-opacity:1;stroke:#000000;stroke-width:0.89999998;stroke-miterlimit:4;stroke-dasharray:none;stroke-opacity:0.61194033;paint-order:normal"
     id="path920"
     d="m 310.05115,103.50799 c -2.33082,-1.44631 -4.92421,-2.47183 -7.48496,-3.43869 -4.00851,-1.516275 -8.27942,-2.15359 -12.51229,-2.681268 -3.47446,-0.397612 -6.97126,-0.47223 -10.46438,-0.496935 -1.15956,-0.06785 -2.33298,0.09919 -3.38553,0.619769 -0.3855,0.190665 -1.47587,0.882794 -1.09742,0.678484 7.91708,-4.274177 9.6946,-6.30775 6.45754,-3.01609 -1.94636,2.417984 -3.92248,5.04759 -4.83608,8.06679 -0.17871,0.59056 -0.2547,1.20744 -0.38204,1.81116 -0.26621,5.62468 3.61956,8.573 7.83077,11.47732 6.4026,4.09233 13.46478,5.67297 20.85309,6.86342 6.29775,0.88148 12.65805,1.08339 19.00816,1.10626 2.24671,-0.005 4.49329,-0.0158 6.73979,-0.047 0,0 -8.31543,6.04728 -8.31543,6.04728 v 0 c -2.20451,-0.0111 -4.40978,3.7e-4 -6.6133,-0.0778 -6.22486,-0.25254 -12.44902,-0.69362 -18.6223,-1.55093 -7.68497,-1.2808 -14.60256,-2.84179 -21.29179,-7.07326 -0.912,-0.60849 -1.86483,-1.15982 -2.73599,-1.82546 -2.74398,-2.09664 -5.25565,-4.96477 -5.89089,-8.46961 -0.11896,-0.65635 -0.0595,-1.33275 -0.0893,-1.99913 0.0962,-0.66071 0.12531,-1.33472 0.28858,-1.98212 0.78359,-3.10697 2.80039,-5.82476 4.63188,-8.375569 3.43721,-4.313677 0.88198,-1.41666 11.02043,-7.419926 1.45282,-0.860253 3.15521,-0.970862 4.79628,-0.889554 3.44596,0.09847 6.89131,0.313888 10.31266,0.746882 4.31163,0.594938 8.65745,1.254228 12.74835,2.800179 2.69047,1.007854 5.40094,2.024794 7.90651,3.444888 0,0 -8.87238,5.6809 -8.87238,5.6809 z"
     inkscape:connector-curvature="0" /><path
     style="opacity:0.98999999;fill:#ffff00;fill-opacity:1;stroke:#000000;stroke-width:0.89999998;stroke-miterlimit:4;stroke-dasharray:none;stroke-opacity:0.61194033;paint-order:normal"
     id="path922"
     d="m 237.7535,34.258155 c 2.2491,2.171139 4.72542,4.082037 7.09356,6.117966 3.67208,3.114297 7.34481,6.220643 11.2505,9.041517 3.9246,2.525106 8.21501,4.409237 12.2933,6.668789 2.95785,1.652047 5.84191,3.378247 8.54286,5.423611 3.36644,2.760856 5.8086,6.434638 8.36241,9.915443 2.9403,4.054495 6.05885,7.964049 9.20641,11.85879 3.3387,4.025185 6.97464,7.785781 10.48765,11.657686 3.38753,3.93115 7.51325,7.038443 11.71932,10.022103 2.79814,1.76092 5.53192,3.63313 8.41257,5.25664 4.00303,2.02254 8.31143,3.33376 12.63277,4.4795 3.19786,0.91861 6.38911,1.85452 9.59188,2.75687 4.1307,1.14554 8.02248,2.99464 11.77668,5.03504 3.75533,2.06293 7.32457,4.44702 10.9258,6.7646 3.14455,2.06806 6.49705,3.78538 9.77009,5.63496 2.90844,1.75358 5.77399,3.61308 8.28903,5.90591 1.84216,1.83396 1.63119,4.13529 -0.6929,5.57366 -3.4176,2.11515 -6.9608,4.0203 -10.4412,6.03044 -3.95979,1.85874 -8.23877,2.81107 -12.53735,3.47842 -2.91856,0.42597 -4.9622,0.20957 -7.57484,-1.14005 -3.63372,-1.97881 -6.26662,-5.20923 -8.98128,-8.24297 -2.83678,-3.24501 -5.83016,-6.32072 -9.10113,-9.12643 -1.81822,-1.60266 -3.80571,-3.06246 -5.38582,-4.9166 -0.90564,-1.0627 -1.2921,-1.74276 -2.05277,-2.91448 -1.58622,-2.74995 -2.78901,-5.69764 -3.78329,-8.70621 -1.35347,-3.70112 -4.39742,-6.02524 -7.44882,-8.2951 -4.08942,-2.89587 -8.55294,-5.17856 -12.87541,-7.69139 -2.91092,-1.63045 -5.91339,-3.06535 -8.94881,-4.44443 -1.98714,-0.980232 -4.64922,-1.413338 -6.13262,-3.217953 -0.26557,-0.323084 -0.43936,-0.711767 -0.65904,-1.067651 -1.21065,-3.053423 -1.00527,-5.965222 0.0354,-9.011987 0.56137,-1.01999 1.16023,-2.343856 2.22082,-2.977722 6.56993,-3.926536 7.24252,-5.542105 12.55442,-6.03259 3.72306,-0.321277 7.42469,0.07634 11.07875,0.779402 1.9163,0.420137 3.66743,1.340772 5.37489,2.275536 0,0 -8.6627,5.65443 -8.6627,5.65443 v 0 c -1.6148,-0.881247 -3.26461,-1.719632 -5.08679,-2.082131 -3.6145,-0.675374 -7.28393,-0.999742 -10.94486,-0.456652 -4.10814,0.816605 -7.64774,3.606174 5.33722,-4.009229 0.31201,-0.18299 -0.62067,0.376124 -0.90121,0.604454 -0.88144,0.717386 -0.96943,0.976324 -1.64154,1.911586 -1.19361,2.812114 -1.525,5.196171 -0.383,8.116841 0.17232,0.270555 0.30794,0.56834 0.51695,0.811666 1.43352,1.668889 3.96726,2.044164 5.81064,3.045492 3.06514,1.35164 6.04862,2.844971 8.89365,4.622894 4.27855,2.621634 8.72666,4.965274 12.86906,7.809574 3.26014,2.36696 6.49312,4.80796 8.01644,8.68567 0.98102,2.92256 1.98854,5.85481 3.56197,8.52412 0.58826,0.87927 1.26495,1.94938 1.95738,2.75946 1.56203,1.82743 3.54933,3.2253 5.28943,4.86703 3.23829,2.88613 6.23455,5.981 9.02916,9.30383 2.70753,2.91169 5.38151,5.96787 9.03058,7.72402 2.32659,0.90211 4.68786,1.1468 7.16449,0.70317 4.24122,-0.64875 8.43564,-1.67877 12.25446,-3.70029 -2.31176,1.37837 -4.60622,2.78619 -6.9353,4.1351 -0.77368,0.44809 1.63097,-0.92078 2.07935,-1.6943 0.49896,-0.86076 -0.16735,-1.66676 -0.71321,-2.25075 -2.37458,-2.28864 -5.11936,-4.16229 -7.96686,-5.81351 -3.31837,-1.819 -6.69663,-3.54401 -9.83332,-5.67185 -3.55806,-2.29435 -6.99576,-4.78441 -10.73035,-6.79093 -3.78918,-1.96951 -7.72921,-3.67126 -11.8883,-4.69779 -3.17604,-0.88543 -6.31275,-1.89131 -9.46964,-2.84033 -4.35441,-1.2843 -8.70657,-2.67123 -12.80258,-4.64979 -2.93353,-1.5966 -5.75775,-3.38313 -8.41622,-5.4095 -4.132,-3.15709 -8.24625,-6.34359 -11.69037,-10.27615 -3.51552,-3.894581 -7.25993,-7.587502 -10.53767,-11.689121 -3.18072,-3.891003 -6.32786,-7.799716 -9.29034,-11.861062 -2.53934,-3.395709 -4.94904,-6.998357 -8.41016,-9.542593 -2.65069,-1.974827 -5.491,-3.674503 -8.29783,-5.415884 -4.10036,-2.289073 -8.4402,-4.161338 -12.34152,-6.787724 -3.87875,-2.89165 -7.56705,-6.025445 -11.32919,-9.065546 -2.46183,-1.990343 -4.97564,-3.915671 -7.47995,-5.851132 0,0 8.93831,-5.614393 8.93831,-5.614393 z"
     inkscape:connector-curvature="0" /><path
     style="opacity:0.98999999;fill:#916f6f;fill-opacity:1;stroke:#000000;stroke-width:0.89999998;stroke-miterlimit:4;stroke-dasharray:none;stroke-opacity:0.61194033;paint-order:normal"
     id="path924"
     d="m 394.57469,136.26453 c -4.31489,-0.65633 -8.6699,-1.08273 -13.01564,-1.49651 -2.96587,-0.25831 -5.9381,-0.43649 -8.91256,-0.55736 -1.16257,-0.0472 -3.0341,-0.13978 -4.22548,-0.0294 -0.60004,0.0556 -1.18827,0.20141 -1.7824,0.30211 -5.29398,2.67392 3.61943,-2.29752 5.56591,-3.17831 0.61509,-0.27833 -1.04734,0.8632 -1.48531,1.37699 -1.66282,1.95067 -2.29131,4.26302 -2.97172,6.66844 -0.80267,4.14429 -1.45964,8.81056 0.67875,12.70107 0.3534,0.64297 0.85555,1.19216 1.28332,1.78824 3.22387,3.46191 7.60016,4.88621 12.09824,5.81382 2.80425,0.43393 5.66945,0.68393 8.50056,0.40975 0.41324,-0.0454 0.82647,-0.0907 1.23971,-0.1361 0,0 -8.312,6.16505 -8.312,6.16505 v 0 c -0.42135,0.0371 -0.84269,0.0742 -1.26403,0.11136 -2.855,0.10051 -5.70643,-0.14759 -8.49622,-0.78283 -4.61062,-1.19669 -9.15542,-2.82763 -12.41798,-6.48364 -0.45862,-0.66716 -0.99691,-1.28605 -1.37587,-2.00147 -2.16638,-4.08985 -1.65293,-8.93949 -0.87477,-13.30446 0.55216,-2.48792 1.08675,-4.92342 2.56808,-7.06303 2.92168,-4.22 8.57884,-6.67671 13.42533,-8.17904 4.90568,-0.45891 9.81028,0.47101 14.7093,0.71016 4.53687,0.38227 9.08014,0.82527 13.63239,0.94044 0,0 -8.56761,6.22474 -8.56761,6.22474 z"
     inkscape:connector-curvature="0" /><path
     style="opacity:0.98999999;fill:#aad400;fill-opacity:1;stroke:#000000;stroke-width:0.89999998;stroke-miterlimit:4;stroke-dasharray:none;stroke-opacity:0.61194033;paint-order:normal"
     id="path926"
     d="m 226.82762,26.448676 c -0.20388,3.680691 -0.19435,7.369429 -0.17696,11.054482 -0.0132,3.694831 -0.0213,7.368143 0.39103,11.042112 0.44424,3.702108 1.88732,7.127239 4.1643,10.057477 2.19277,2.400534 5.02201,3.555343 8.14164,4.151659 2.02876,0.319146 4.08605,0.244763 6.13137,0.247002 2.35078,-0.02444 4.70172,-0.01317 7.05254,-0.02765 2.57914,0.07843 4.9013,1.045348 7.01193,2.465266 3.0248,2.115709 3.90257,4.197041 4.99493,7.599415 0.5038,2.616674 1.61536,5.745098 1.01072,8.433602 -0.11745,0.522268 -0.37333,1.003426 -0.56,1.505139 -0.29753,0.417683 -0.54527,0.875762 -0.89261,1.25305 -0.39824,0.432586 -0.82602,0.855283 -1.32888,1.160011 -6.69081,4.054556 -9.3433,6.252228 -15.8865,7.437926 -2.22564,0.349071 -4.55022,0.621542 -6.74979,-0.06673 -1.25079,-0.391388 -2.02555,-0.937677 -3.14646,-1.59838 -2.67959,-1.616096 -4.74499,-3.824255 -6.2283,-6.556803 -0.76465,-1.579261 -1.04726,-3.307834 -1.06761,-5.046348 0,0 9.33162,-4.715485 9.33162,-4.715485 v 0 c -0.13467,1.57862 0.12833,3.151874 0.73506,4.61989 1.28827,2.610473 3.26601,4.639164 5.77864,6.126481 0.50154,0.260872 0.98485,0.56029 1.50463,0.782615 2.5507,1.091013 5.30102,0.796352 7.95378,0.309814 1.51668,-0.34095 2.06663,-0.411988 3.52839,-0.950143 0.59336,-0.218447 2.27622,-1.083964 1.74825,-0.736052 -2.26839,1.494781 -4.66007,2.79349 -6.9901,4.190235 0.44964,-0.313232 0.92624,-0.590933 1.34891,-0.939696 0.36621,-0.302171 0.67246,-0.670424 1.00868,-1.005636 0.23349,-0.404894 0.54505,-0.773888 0.70048,-1.21468 0.85613,-2.427943 -0.30046,-5.66662 -0.75807,-8.065018 -1.03338,-3.170479 -1.82658,-5.055063 -4.74097,-6.922432 -2.05687,-1.227399 -4.24393,-2.036232 -6.67919,-1.978267 -2.36857,0.0032 -4.73671,0.04376 -7.10514,0.06649 -2.07669,0.01948 -4.17199,-0.0236 -6.20695,-0.482907 -3.23857,-0.850633 -6.12369,-2.291034 -8.39653,-4.827818 -0.38354,-0.496356 -0.80851,-0.9633 -1.15063,-1.489069 -1.75497,-2.697068 -2.73888,-5.923829 -3.24228,-9.067531 -0.0892,-0.681631 -0.42288,-3.125852 -0.46177,-3.83363 -0.13385,-2.435741 0.12469,-4.892887 0.0393,-7.330218 0.017,-3.624857 0.0313,-7.253909 -0.17697,-10.874148 0,0 9.36954,-4.77402 9.36954,-4.77402 z"
     inkscape:connector-curvature="0" /><path
     style="opacity:0.98999999;fill:#7fff2a;fill-opacity:1;stroke:#000000;stroke-width:0.89999998;stroke-miterlimit:4;stroke-dasharray:none;stroke-opacity:0.61194033;paint-order:normal"
     id="path928"
     d="m 340.00574,92.057325 c 3.0399,2.348897 6.25203,4.429233 9.64575,6.224806 3.33306,1.740999 6.50344,3.747949 9.49365,6.023469 2.50922,2.85838 5.63591,5.1906 7.93756,8.21324 0.52692,0.99335 1.33082,2.97831 -0.002,3.87046 -6.44261,4.31377 -7.65604,5.78137 -13.31913,6.5598 -4.04478,0.23928 -8.06411,-0.30916 -11.91211,-1.53895 -4.96246,-1.80648 -9.95587,-3.52192 -14.89004,-5.40536 -5.91703,-2.2763 -12.12159,-3.63304 -18.02926,-5.92363 -3.51024,-1.45423 -4.80478,-2.89139 -6.39606,-6.19827 -1.03425,-1.53124 -0.72269,-3.80934 -1.60575,-5.358057 -0.13607,-0.238643 -0.35685,-0.41775 -0.53528,-0.626626 -1.07643,-0.554741 -2.15267,-1.346203 -3.44511,-1.031004 -0.37352,0.0911 -1.35934,0.719252 -1.01895,0.540478 8.44469,-4.43527 9.0222,-6.975746 7.34204,-2.601078 -0.0123,0.798575 -0.13206,1.602737 -0.037,2.395725 0.75708,6.313122 5.66562,11.080362 9.93611,15.310612 3.77231,3.63004 8.06308,6.63817 12.0272,10.04623 3.22147,2.94601 6.5337,5.80672 10.07825,8.35851 1.99806,1.56545 4.138,2.94568 6.30365,4.26595 0,0 -8.5873,5.52659 -8.5873,5.52659 v 0 c -2.12967,-1.40111 -4.2597,-2.80921 -6.27137,-4.37789 -3.47386,-2.67839 -6.84271,-5.49181 -10.09952,-8.43064 -3.92611,-3.40163 -7.99779,-6.64747 -11.60705,-10.39868 -4.99782,-5.19075 -10.55999,-10.65306 -10.92166,-18.292835 0.088,-0.663995 -0.25572,-1.569611 0.26412,-1.991984 2.9881,-2.427813 6.4332,-4.24008 9.77,-6.16069 1.48954,-0.857356 4.02938,0.696143 5.20681,1.485964 0.24653,0.31229 0.54541,0.589597 0.73958,0.936871 0.89186,1.595066 0.47523,3.72487 1.45234,5.306945 1.36604,2.913749 2.71925,4.369719 5.74339,5.710729 5.77733,2.42183 11.86894,3.95757 17.76191,6.06759 5.03765,1.79243 10.14231,3.38084 15.197,5.12344 3.78879,1.0642 7.72636,1.65997 11.66038,1.13038 0.60125,-0.13553 1.21408,-0.22727 1.80375,-0.40658 0.49829,-0.15153 1.88629,-0.86677 1.44971,-0.58277 -2.48541,1.6168 -5.07775,3.06297 -7.61663,4.59445 0.29821,-0.19882 0.67353,-0.31438 0.89463,-0.59647 0.19371,-0.24713 0.29892,-0.58664 0.27828,-0.89996 -0.0277,-0.42016 -0.27741,-0.79514 -0.41611,-1.19271 -2.16629,-3.00758 -5.23223,-5.29906 -7.78245,-7.97468 -2.91208,-2.25278 -6.06098,-4.17946 -9.27055,-5.97848 -3.40606,-1.90407 -6.68585,-4.004073 -10.03855,-5.99456 0,0 8.81534,-5.730335 8.81534,-5.730335 z"
     inkscape:connector-curvature="0" /><path
     style="opacity:0.98999999;fill:#00aa00;fill-opacity:1;stroke:#000000;stroke-width:0.89999998;stroke-miterlimit:4;stroke-dasharray:none;stroke-opacity:0.61194033;paint-order:normal"
     id="path930"
     d="m 283.98153,55.643314 c -0.62504,4.853765 -1.38847,9.695485 -2.29241,14.505135 -0.43349,3.788121 -1.92784,7.440063 -2.37906,11.209981 0.0358,0.110846 -0.009,0.323082 0.1075,0.332539 0.11841,0.0096 0.098,-0.220624 0.17696,-0.309371 0.18569,-0.208656 0.38224,-0.412757 0.60982,-0.574708 1.16495,-0.82902 2.54489,-1.467957 3.81555,-2.109976 1.91598,-0.724557 3.60629,-1.928954 5.48754,-2.724759 1.1998,-0.507537 1.62058,-0.552074 2.89581,-0.859111 1.83065,-0.08539 5.72963,-1.568792 7.29819,-0.463913 0.24116,0.169866 0.36526,0.463285 0.54788,0.694928 0.0521,0.324404 0.16421,0.644742 0.15633,0.97321 -0.0441,1.840125 -1.84028,3.586842 -2.94258,4.890385 -1.64486,1.937733 -3.32256,3.843108 -4.80567,5.908856 -1.04562,1.474747 -1.99353,3.015539 -2.904,4.576219 0,0 -9.47014,4.215482 -9.47014,4.215482 v 0 c 0.91698,-1.598462 1.90574,-3.156797 2.94452,-4.679044 1.39197,-2.142013 3.02974,-4.052068 4.69086,-5.991155 1.23396,-1.373688 2.54746,-2.769227 3.26631,-4.495847 -0.78496,-1.082477 -5.69287,0.489561 -6.92134,0.627948 -2.89604,0.912444 -5.49774,2.440249 -8.23214,3.739582 -0.93941,0.505995 -1.85898,1.048861 -2.80594,1.540561 -1.35644,0.704307 -2.92429,1.413719 -3.25594,-0.700858 0.65046,-3.891902 2.30902,-7.567356 2.85857,-11.493198 0.88413,-4.624078 1.67109,-9.311114 1.76172,-14.027595 0,0 9.39166,-4.785291 9.39166,-4.785291 z"
     inkscape:connector-curvature="0" /><path
     style="opacity:0.98999999;fill:#5d6c53;fill-opacity:1;stroke:#000000;stroke-width:0.89999998;stroke-miterlimit:4;stroke-dasharray:none;stroke-opacity:0.61194033;paint-order:normal"
     id="path932"
     d="m 400.19006,151.22701 c -1.0133,-1.08751 -2.45417,-2.486 -4.07167,-2.31652 -0.49082,0.0514 -0.95974,0.23038 -1.43961,0.34558 -0.5781,0.25015 -1.17075,0.46907 -1.73431,0.75046 -0.63609,0.31761 -2.48139,1.38937 -1.85986,1.04415 2.14003,-1.18867 4.20676,-2.51869 6.41537,-3.57447 0.81691,-0.39051 -1.4959,1.02185 -2.21807,1.56804 -1.95579,1.47918 -2.33942,1.91311 -4.13789,3.57023 -2.01181,2.10121 -3.97849,4.3444 -5.15972,7.03698 -0.57117,1.30196 -0.64541,1.86035 -0.98696,3.24187 -0.54275,2.92886 -0.32748,6.08069 1.18262,8.71792 0.31349,0.54748 0.7263,1.03176 1.08944,1.54765 2.27858,2.91617 4.61187,4.24571 8.13005,5.14027 0.40629,0.071 0.80679,0.1954 1.21886,0.21297 2.32426,0.0991 15.30138,-6.50434 -6.21251,3.98191 -0.39258,0.19135 0.64271,-0.59608 0.91638,-0.93644 0.28497,-0.35441 0.50128,-0.75892 0.75192,-1.13838 1.54721,-2.69258 2.2736,-5.73994 3.23145,-8.66978 0.73279,-2.42724 1.40844,-4.93241 1.15372,-7.482 -0.56892,-2.15916 -2.76543,-2.55676 -4.69495,-2.89584 -1.26783,-0.0137 -2.71501,-0.48093 -3.96745,-0.0746 -0.2606,0.0845 -0.95463,0.53814 -0.71465,0.40595 2.78004,-1.53134 5.55661,-3.06898 8.33491,-4.60347 -1.95391,2.54462 -0.25615,4.34164 1.8459,5.90363 0.42012,0.23344 0.84023,0.46689 1.26035,0.70034 0,0 -8.62594,5.5924 -8.62594,5.5924 v 0 c -0.43868,-0.27115 -0.87736,-0.54231 -1.31604,-0.81346 -2.5423,-1.99667 -4.15772,-4.05748 -2.8309,-7.38833 7.8786,-4.79456 7.77111,-6.82969 14.55917,-5.65991 2.34879,0.58888 4.64391,1.44813 5.36319,4.00537 0.34688,2.71626 -0.32462,5.34406 -1.076,7.94892 -1.01909,2.9574 -1.71147,6.03633 -3.09931,8.85175 -0.12375,0.22931 -1.16122,2.23502 -1.42988,2.40995 -5.45991,3.55497 -7.82431,6.89309 -13.17343,5.46842 -3.58065,-1.16842 -6.06353,-2.7482 -8.35968,-5.81319 -0.39611,-0.56606 -0.84038,-1.1013 -1.18831,-1.69818 -1.63468,-2.80427 -2.00612,-6.11777 -1.53612,-9.28166 0.3618,-1.84303 0.81166,-3.61001 1.73665,-5.27125 1.16748,-2.09672 2.86616,-3.87358 4.4226,-5.67181 5.74842,-5.5296 9.13223,-7.119 16.97542,-11.64716 0.63908,-0.36896 1.30173,-0.70089 1.98364,-0.98293 0.63266,-0.26167 1.30019,-0.42944 1.95028,-0.64415 0.57641,-0.0447 1.15268,-0.17692 1.72922,-0.13401 1.83954,0.13691 3.38911,1.70655 4.68932,2.84817 0,0 -9.1072,5.40466 -9.1072,5.40466 z"
     inkscape:connector-curvature="0" /><path
     style="opacity:0.98999999;fill:#217844;fill-opacity:1;stroke:#000000;stroke-width:0.89999998;stroke-miterlimit:4;stroke-dasharray:none;stroke-opacity:0.61194033;paint-order:normal"
     id="path934"
     d="m 306.71754,81.264527 c -0.2656,-0.01192 -0.5321,-0.06066 -0.7968,-0.03576 -0.28189,0.02651 -2.37165,0.506661 -2.45347,0.524449 -1.87284,0.407139 -3.73362,0.788398 -5.62528,1.099804 -5.07169,0.995267 -10.15342,1.960731 -15.09621,3.492574 -3.40304,1.406241 -10.74902,4.766289 4.5863,-2.931937 0.34036,-0.170858 -0.56741,0.517473 -0.78537,0.82977 -0.59992,0.859584 -0.66797,1.484053 -0.94232,2.491793 -0.70652,4.051108 -0.65179,8.255667 1.85203,11.755292 0.89412,1.249714 2.05111,2.288638 3.07667,3.432958 1.58426,1.19172 3.088,2.49878 4.75278,3.57515 9.53673,6.16601 20.56286,9.68928 31.51254,12.35511 2.6214,0.63821 5.27438,1.139 7.91157,1.7085 8.99687,1.92654 18.25809,2.19836 27.2255,4.2529 2.99356,0.94912 6.05489,2.24285 8.05889,4.7804 0.36428,0.46126 0.6565,0.97511 0.98475,1.46266 1.80594,2.85709 2.53788,6.12048 2.50047,9.46442 -0.26452,2.20006 -1.47967,4.08966 -3.41556,5.22826 -9.76884,5.74558 -7.06592,4.62122 -12.76115,6.71634 -4.90915,1.59019 -10.05561,2.05376 -15.17484,2.37381 -3.35221,0.39361 -6.51863,-0.12984 -9.64906,-1.29622 0,0 8.49726,-5.72995 8.49726,-5.72995 v 0 c 2.99507,1.07116 6.04586,1.41796 9.22592,1.08324 5.07634,-0.31205 10.18019,-0.85289 14.98769,-2.62195 4.49042,-1.85034 3.5168,-1.58274 -4.60117,3.22942 -0.5018,0.29745 0.99585,-0.61171 1.45909,-0.96623 1.18131,-0.90406 1.93474,-1.9153 2.24332,-3.38418 0.24056,-3.14728 -0.44645,-6.2087 -2.12185,-8.91147 -0.69949,-0.97181 -1.05836,-1.58542 -1.94087,-2.38557 -1.83094,-1.66005 -4.1759,-2.61408 -6.48396,-3.38659 -8.53723,-2.22363 -17.36224,-3.01946 -25.92725,-5.13555 -13.70412,-3.34679 -27.78609,-6.84787 -40.07755,-14.03996 -1.79951,-1.05295 -3.44841,-2.34441 -5.17262,-3.51662 -1.16783,-1.15461 -2.46887,-2.18849 -3.50349,-3.46384 -2.94574,-3.631133 -3.15143,-7.713371 -2.71776,-12.110424 0.17571,-1.04215 0.24511,-1.894231 0.68567,-2.865309 2.2351,-4.926574 8.89928,-6.301265 13.694,-8.145258 4.99694,-1.365188 10.08695,-2.339905 15.15358,-3.405475 3.12265,-0.624926 6.21722,-1.582618 9.40617,-1.749291 0,0 -8.56762,6.224738 -8.56762,6.224738 z"
     inkscape:connector-curvature="0" /><path
     style="opacity:0.98999999;fill:#2affd5;fill-opacity:1;stroke:#000000;stroke-width:0.89999998;stroke-miterlimit:4;stroke-dasharray:none;stroke-opacity:0.61194033;paint-order:normal"
     id="path936"
     d="m 221.89403,19.046747 c 0.42512,2.685118 -0.0547,5.374181 -0.65103,7.993743 -0.82071,3.04864 -1.57208,6.111937 -2.3056,9.183115 -1.23747,4.40399 -1.73875,8.944251 -2.06943,13.490753 -0.21939,3.861586 -0.22854,7.730089 -0.1637,11.595958 -0.11454,2.354579 0.37717,3.942195 1.89521,5.715538 1.82671,1.360944 4.09624,2.047107 6.23483,2.778013 2.39483,0.893501 4.42692,1.416855 6.98091,1.34414 2.88505,-0.557022 5.77916,-0.971924 8.70312,-1.261101 3.67216,-0.332795 7.35783,-0.404788 11.04229,-0.447744 2.83818,0.127027 5.73553,-0.383889 8.51903,0.305222 0.26609,0.134158 0.57793,0.201841 0.79826,0.402476 1.08857,0.991257 1.68539,4.629232 2.03822,6.112391 0.59892,2.398913 0.88915,4.737584 0.0431,7.09474 -2.21782,4.056127 -5.66087,4.365939 -10.67302,7.223555 -0.9394,0.53559 -2.26653,0.69581 -3.3065,0.880126 -3.42232,0.311469 -6.87875,0.563194 -10.30251,0.204839 -2.20468,-0.259799 -4.45941,-0.628815 -6.27652,-2.009419 -0.91407,-0.694494 -1.72336,-1.680707 -2.48152,-2.526756 -1.96137,-2.584651 -3.32819,-5.420421 -4.09476,-8.55855 -0.51917,-3.732268 1.01972,-5.946658 3.70638,-8.321951 3.43969,-2.005761 6.82011,-4.116792 10.31906,-6.017283 0.59697,-0.324254 1.27919,-0.462837 1.93535,-0.638827 2.94971,-0.791149 6.03244,-0.964071 9.06397,-1.16407 2.44452,0.05188 4.96099,-0.454883 7.40008,-0.0952 1.12223,0.165492 1.67572,0.446617 2.71071,0.850969 2.71815,1.534521 4.41432,4.188242 5.73856,6.927747 1.44506,3.496619 1.75851,7.29118 2.05047,11.023244 0.3966,3.223658 0.0219,5.807202 -1.12957,8.819309 -0.45282,1.101489 -1.10815,2.082434 -1.97982,2.894969 -0.53092,0.494894 -1.15126,0.82989 -1.65046,1.356389 0.3572,1.61888 3.34454,2.286656 4.72256,2.628483 2.35258,0.507494 4.77328,0.23363 7.1233,0.681446 1.22182,0.26222 2.45122,0.483498 3.68283,0.693415 0,0 -8.50156,5.946074 -8.50156,5.946074 v 0 c -1.21353,-0.23471 -2.42418,-0.48627 -3.64534,-0.67926 -2.40577,-0.25354 -4.85545,-0.15857 -7.21795,-0.77387 -1.8689,-0.58234 -4.18292,-1.32272 -5.31626,-3.07222 -0.19736,-0.304664 -0.26638,-0.675377 -0.39956,-1.013065 0.0537,-0.290854 0.0175,-0.613921 0.16097,-0.872561 0.25851,-0.466074 0.99918,-0.689635 1.39258,-0.950257 0.97118,-0.643385 1.76055,-1.48567 2.28299,-2.52989 1.32718,-2.979186 1.6665,-5.166806 1.3951,-8.431898 -0.16185,-3.616102 -0.43751,-7.289949 -1.86071,-10.664552 -1.25798,-2.496358 -2.81698,-4.941665 -5.41569,-6.205624 -3.11915,-1.05071 -6.3999,-0.692112 -9.64206,-0.563088 -2.2804,0.16714 -4.55914,0.335484 -6.79627,0.843151 -3.64888,0.828032 -10.81201,4.921804 3.0416,-2.795778 -2.51807,1.836404 -4.43837,3.908101 -4.06615,7.229671 0.6057,2.996557 1.81703,5.733256 3.71357,8.156428 0.74834,0.789916 1.44601,1.617496 2.35514,2.236765 1.7534,1.194369 3.92774,1.409794 5.9693,1.677934 3.41646,0.211796 6.87958,0.03899 10.25292,-0.554772 0.95661,-0.258299 1.33285,-0.320846 2.22392,-0.704184 0.32992,-0.141934 1.27258,-0.664271 0.96629,-0.476696 -14.80462,9.06662 -9.17203,6.449441 -6.95945,3.680782 1.21762,-2.058075 0.92687,-4.283452 0.38963,-6.53548 -0.23148,-0.969616 -0.92423,-4.67176 -1.70145,-5.21121 -0.18608,-0.12915 -0.42174,-0.165393 -0.63261,-0.248089 -2.69261,-0.501646 -5.47359,-0.156942 -8.19516,-0.247528 -3.65212,0.04323 -7.30921,0.12515 -10.94516,0.497845 -3.01067,0.354623 -5.96299,1.04499 -8.9785,1.314879 -2.47096,-0.108889 -4.79972,-0.841604 -7.12209,-1.664211 -2.29207,-0.833633 -4.77568,-1.522411 -6.60878,-3.202929 -1.5304,-1.893292 -2.39083,-3.933391 -2.11393,-6.417656 0.0844,-3.92347 0.1318,-7.849438 0.35729,-11.768073 0.28894,-4.56017 0.78684,-9.108346 1.84973,-13.561461 0.68223,-3.075603 1.3284,-6.15218 2.26168,-9.16491 0.58403,-2.445257 1.17167,-4.987292 0.55067,-7.483545 0,0 9.33147,-4.950404 9.33147,-4.950404 z"
     inkscape:connector-curvature="0" /><path
     style="opacity:0.98999999;fill:#00ccff;fill-opacity:1;stroke:#000000;stroke-width:0.89999998;stroke-miterlimit:4;stroke-dasharray:none;stroke-opacity:0.61194033;paint-order:normal"
     id="path938"
     d="m 403.40768,126.63269 c 2.6879,1.00976 5.16878,2.38345 7.19448,4.4249 2.04493,2.16591 3.45289,4.80484 5.27093,7.14225 1.82724,2.01714 2.7463,4.06527 3.29487,6.70128 0.28198,2.93719 -0.83212,5.61297 -2.05804,8.20744 -1.29651,2.26037 -2.48532,4.59206 -3.87201,6.79983 -2.65194,3.66577 -7.48888,5.1611 -11.30809,7.15373 -0.24864,0.12973 -3.4066,0.70647 -3.935,0.84401 -4.71703,2.5598 4.2942,-2.53745 6.54299,-3.60803 0.40118,-0.19099 -0.63145,0.63031 -0.89361,0.98905 -0.78176,1.06975 -1.04942,2.13987 -1.2062,3.42088 0.0465,2.50095 1.80977,2.92507 3.86832,3.57804 2.12173,0.59789 4.32733,0.49891 6.45543,1.05027 1.69425,0.53849 3.0046,1.61209 3.71741,3.23413 0.51395,1.39532 0.28473,2.72988 -0.30912,4.04799 0,0 -9.65165,4.24654 -9.65165,4.24654 v 0 c 0.80708,-0.88684 1.10162,-1.98088 0.7611,-3.14415 -0.51567,-1.37112 -1.68155,-2.10901 -3.0774,-2.45818 -2.15665,-0.43514 -4.39884,-0.38884 -6.48725,-1.15915 -2.50965,-0.9264 -4.35615,-1.79823 -4.55246,-4.76984 0.39481,-7.01077 6.42729,-9.18243 13.02454,-11.69088 0.90222,-0.21517 1.81473,-0.39071 2.70718,-0.64337 0.39983,-0.11319 1.53182,-0.62099 1.18166,-0.39723 -2.58592,1.65241 -5.28327,3.12366 -7.91597,4.70048 -0.28806,0.17253 0.61759,-0.27985 0.88159,-0.48734 0.2652,-0.20844 0.45702,-0.49623 0.68553,-0.74435 1.50162,-2.13368 2.60171,-4.5018 4.00143,-6.70155 1.17569,-2.38924 2.42544,-4.86028 2.32531,-7.5923 -0.50503,-2.56379 -1.35126,-4.29581 -3.05113,-6.30193 -1.75227,-2.32936 -3.09824,-4.9573 -5.18631,-7.03091 -1.93365,-1.89901 -4.359,-3.2826 -7.05577,-3.74465 0,0 8.64724,-6.06696 8.64724,-6.06696 z"
     inkscape:connector-curvature="0" /></svg>