<?xml version="1.0" encoding="UTF-8" standalone="no"?>
<!-- Generator: Adobe Illustrator 16.0.0, SVG Export Plug-In . SVG Version: 6.00 Build 0)  -->

<svg
   xmlns:dc="http://purl.org/dc/elements/1.1/"
   xmlns:cc="http://creativecommons.org/ns#"
   xmlns:rdf="http://www.w3.org/1999/02/22-rdf-syntax-ns#"
   xmlns:svg="http://www.w3.org/2000/svg"
   xmlns="http://www.w3.org/2000/svg"
   xmlns:sodipodi="http://sodipodi.sourceforge.net/DTD/sodipodi-0.dtd"
   xmlns:inkscape="http://www.inkscape.org/namespaces/inkscape"
   version="1.1"
   id="svg2"
   inkscape:version="0.92.2 (5c3e80d, 2017-08-06)"
   sodipodi:docname="graphicsTops.svg"
   x="0px"
   y="0px"
   width="430.543px"
   height="325.295px"
   viewBox="0 0 430.543 325.295"
   enable-background="new 0 0 430.543 325.295"
   xml:space="preserve"><metadata
     id="metadata33620"><rdf:RDF><cc:Work
         rdf:about=""><dc:format>image/svg+xml</dc:format><dc:type
           rdf:resource="http://purl.org/dc/dcmitype/StillImage" /><dc:title></dc:title></cc:Work></rdf:RDF></metadata><defs
     id="defs33612"><inkscape:perspective
       sodipodi:type="inkscape:persp3d"
       inkscape:vp_x="0 : 526.18109 : 1"
       inkscape:vp_y="0 : 1000 : 0"
       inkscape:vp_z="744.09448 : 526.18109 : 1"
       id="perspective2985"
       inkscape:persp3d-origin="372.04724 : 350.78739 : 1" /></defs><sodipodi:namedview
     units="mm"
     pagecolor="#ffffff"
     bordercolor="#666666"
     borderopacity="1.0"
     inkscape:zoom="1.979899"
     inkscape:cx="79.207592"
     inkscape:cy="231.3577"
     showgrid="false"
     showguides="true"
     fit-margin-top="0"
     fit-margin-left="0"
     id="base"
     inkscape:document-units="mm"
     inkscape:current-layer="layer1"
     inkscape:object-nodes="true"
     inkscape:window-width="1358"
     inkscape:window-height="699"
     inkscape:window-x="0"
     inkscape:window-y="0"
     inkscape:window-maximized="0"
     inkscape:guide-bbox="true"
     fit-margin-right="0"
     fit-margin-bottom="0"
     inkscape:pageopacity="0.0"
     inkscape:pageshadow="2" /><g
     id="layer1"
     transform="translate(-53.643411,-569.625)"
     inkscape:label="Layer 1"
     inkscape:groupmode="layer"><path
       id="path3910"
       inkscape:connector-curvature="0"
       sodipodi:nodetypes="cccccccc"
       d="m 268.908,570.139 9.32,5.536 -9.313,5.563 -0.007,-0.005 L 63.471,703.826 H 63.44 l -9.281,-5.563 z"
       style="fill:#d7d7f4" /><path
       id="path3914"
       inkscape:connector-curvature="0"
       sodipodi:nodetypes="ccccc"
       d="m 278.228,575.675 v 68 L 63.455,771.831 v -68 z"
       style="fill:#e6e6e6" /><path
       id="path3916"
       inkscape:connector-curvature="0"
       d="m 54.144,698.276 v 68 l 9.311,5.555 v -68 z"
       style="fill:#f2f2f2" /><path
       style="opacity:0.98999999;fill:#ff0000;fill-opacity:1;stroke:#000000;stroke-width:0.89999998;stroke-miterlimit:4;stroke-dasharray:none;stroke-opacity:0.61194033;paint-order:normal"
       id="path34165"
       d="m 98.321532,728.87956 c 0.488477,-4.52741 2.104138,-8.78398 3.872978,-12.94251 1.74234,-3.48318 3.56828,-6.98746 5.99774,-10.05391 1.58209,-1.9969 2.26701,-2.55209 4.0986,-4.34544 4.99607,-4.19803 10.67764,-7.68672 16.77159,-10.0507 1.57735,-0.61189 4.49409,-1.55104 6.11908,-2.08664 3.7059,-1.25349 7.44755,-2.42185 11.31339,-3.05796 0.73175,0.0352 1.30605,-0.0206 1.98015,0.34052 1.71336,0.91771 2.5844,2.96178 3.39785,4.59571 1.27589,3.26692 2.09539,6.7844 2.20875,10.29717 -0.0757,0.90787 -0.0126,1.42888 -0.48865,2.2399 -0.19287,0.32855 -0.41868,0.6665 -0.74021,0.87087 -5.14449,3.27011 -5.66408,4.01706 -10.02926,4.86964 -2.88416,0.4477 -5.80817,0.71153 -8.71553,0.38845 -1.38196,-0.1755 -2.62018,-0.71861 -3.81442,-1.40119 0,0 6.13837,-3.99767 6.13837,-3.99767 v 0 c 1.11518,0.61086 2.26996,1.08405 3.55039,1.21908 2.84447,0.24721 5.70821,0.0139 8.51046,-0.52394 0.49891,-0.12883 1.00611,-0.22902 1.49673,-0.38649 0.4362,-0.14002 1.65864,-0.75996 1.27849,-0.5043 -1.65666,1.11414 -3.41906,2.06237 -5.12859,3.09356 0.28043,-0.20608 0.60634,-0.3615 0.84129,-0.61822 0.22632,-0.24728 0.40152,-0.54833 0.51504,-0.86373 0.12969,-0.36029 0.13523,-0.75382 0.20284,-1.13073 0.0898,-3.42799 -0.63648,-6.8879 -1.96954,-10.04226 -0.76743,-1.42013 -1.62511,-3.33001 -3.26457,-3.95896 -0.60033,-0.23031 -1.1449,-0.15129 -1.7661,-0.13427 -3.67622,0.56663 -7.24571,1.62643 -10.77446,2.78667 -1.89739,0.62584 -4.18312,1.3463 -6.03079,2.09481 -1.03596,0.41968 -2.26573,2.15064 -3.06219,1.36642 -0.76402,-0.75228 2.39455,-2.69585 2.74216,-1.68153 0.68242,1.99133 -5.82252,1.53468 -5.09844,3.72637 -1.80371,1.72347 -2.52151,2.30271 -4.09538,4.22115 -2.46682,3.00686 -4.3265,6.46515 -6.07451,9.91981 -1.69977,3.93471 -3.29289,8.04039 -3.37501,12.38325 0,0 -6.608248,3.36707 -6.608248,3.36707 z"
       inkscape:connector-curvature="0" /><path
       style="opacity:0.98999999;fill:#916f6f;fill-opacity:1;stroke:#000000;stroke-width:0.89999998;stroke-miterlimit:4;stroke-dasharray:none;stroke-opacity:0.61194033;paint-order:normal"
       id="path34167"
       d="m 227.59434,640.54179 c -5.58447,-0.26734 -11.17682,-0.3452 -16.76616,-0.4475 -9.78118,-0.0531 -19.5751,0.97129 -29.1709,2.85794 -5.91322,1.16262 -8.22273,1.88683 -13.9248,3.42616 -4.64134,1.41291 -9.24414,2.98459 -13.6282,5.07748 -0.92444,0.44131 -3.615,1.92716 -2.72909,1.41285 5.23336,-3.03818 4.34946,-2.49606 2.05451,-0.65215 -2.26282,2.1527 -4.16899,4.74506 -4.86174,7.84913 -0.11411,0.51132 -0.12896,1.03983 -0.19344,1.55974 0.0919,0.47384 0.0925,0.97498 0.27577,1.42151 1.11287,2.71159 5.85704,4.29283 8.36521,5.09615 2.47568,0.62351 4.98548,1.11885 7.553,1.01107 2.59808,-0.10906 5.12902,-0.74688 7.64471,-1.34349 2.93224,-0.89471 5.63132,-2.52444 8.67947,-3.0058 0,0 -5.81874,4.38023 -5.81874,4.38023 v 0 c -2.88052,0.5389 -5.46913,2.02878 -8.29805,2.76586 -2.55055,0.56129 -5.11859,1.15089 -7.74595,1.19469 -2.60968,0.0435 -5.17167,-0.51893 -7.68572,-1.14901 -2.90086,-0.96061 -7.64645,-2.4862 -8.96939,-5.58883 -0.21834,-0.51204 -0.23823,-1.08751 -0.35734,-1.63126 0.056,-0.56632 0.0538,-1.14143 0.16796,-1.69894 0.12069,-0.58957 0.33342,-1.15717 0.53293,-1.72493 0.89035,-2.53381 2.33994,-4.68014 4.27715,-6.54424 0.57087,-0.47918 1.08408,-1.03696 1.7126,-1.43754 2.58288,-1.64617 5.23643,-3.18057 7.90156,-4.68995 0.8341,-0.47239 1.71255,-0.86361 2.58917,-1.25142 4.19164,-1.85434 8.58328,-3.1946 12.98088,-4.45949 5.39265,-1.36491 8.13577,-2.13851 13.71083,-3.2026 9.80645,-1.87171 19.78724,-2.90685 29.76327,-3.17921 5.99999,-0.10454 12.00219,-0.18986 17.99802,-0.4475 0,0 -6.05752,4.40105 -6.05752,4.40105 z"
       inkscape:connector-curvature="0" /><path
       style="opacity:0.98999999;fill:#d45500;fill-opacity:1;stroke:#000000;stroke-width:0.89999998;stroke-miterlimit:4;stroke-dasharray:none;stroke-opacity:0.61194033;paint-order:normal"
       id="path34169"
       d="m 238.23745,621.96706 c 0.79312,-1.37273 1.65298,-2.73651 2.87585,-3.77366 0.3818,-0.32382 0.80593,-0.59415 1.2089,-0.89122 4.4205,-2.69942 8.91674,-5.52014 14.18808,-5.9732 0.51539,-0.0443 1.03443,-0.0175 1.55165,-0.0263 2.91058,0.40181 4.87759,1.83549 6.19426,4.47564 0.24276,0.48678 0.40991,1.00774 0.61486,1.51161 1.14265,3.60355 0.79591,6.33089 -1.33199,9.5339 -0.54245,0.81651 -1.20625,1.54555 -1.80938,2.31832 -2.41472,2.65451 -5.24808,4.87216 -8.36907,6.64012 -2.89835,1.64185 -5.79892,3.28696 -8.78506,4.76311 -1.756,0.86806 -4.45135,1.50272 -6.3363,2.01251 -3.52492,0.80867 -7.30789,1.53063 -10.87073,0.45219 -0.4217,-0.12765 -0.81395,-0.33763 -1.22092,-0.50644 -0.30586,-0.2245 -0.6479,-0.40664 -0.91759,-0.67351 -0.99254,-0.98214 -1.60955,-2.77324 -1.36705,-4.1564 0.0728,-0.41495 0.28153,-0.79414 0.42229,-1.1912 0.2815,-0.34458 0.51906,-0.73031 0.8445,-1.03373 0.34182,-0.31871 0.73134,-0.58939 1.13984,-0.81642 3.73491,-2.07571 6.71609,-4.40518 10.88316,-4.64933 0.56849,-0.0333 1.13834,0.037 1.70751,0.0555 0.53292,0.0769 1.07851,0.092 1.59876,0.23074 2.00121,0.53377 3.63676,2.10962 4.39952,4.01354 0.22407,0.55932 0.34131,1.15571 0.51197,1.73357 0.0967,0.64192 0.27931,1.27669 0.29027,1.92577 0.0707,4.18265 -2.50222,7.96171 -5.21372,10.90831 -0.92396,1.00408 -1.97973,1.87834 -2.96959,2.81751 -1.05179,0.79675 -2.07,1.63989 -3.15537,2.39026 -0.97932,0.67704 -1.99708,1.29934 -3.03223,1.8875 -4.11755,2.33951 -6.98363,4.26002 -11.07861,5.69077 -1.77793,0.6212 -2.63322,0.75501 -4.42242,1.14477 -3.14591,0.49464 -6.25431,-0.0788 -8.99398,-1.71724 -0.44922,-0.26867 -0.85778,-0.60011 -1.28667,-0.90017 -0.35315,-0.30025 -0.7063,-0.6005 -1.05945,-0.90075 0,0 6.09519,-3.79557 6.09519,-3.79557 v 0 c 0.3267,0.28843 0.6534,0.57685 0.9801,0.86527 0.39655,0.28005 0.77163,0.59331 1.18966,0.84016 2.63637,1.55679 5.63758,1.92269 8.62287,1.39139 1.79061,-0.39685 2.41439,-0.48115 4.204,-1.11915 0.82878,-0.29547 2.76518,-1.80756 2.44825,-0.98674 -0.39959,1.03491 -3.8811,1.93374 -2.77606,1.83574 0.89997,-0.0798 5.82922,-3.8196 6.35556,-4.20264 0.98628,-0.90403 2.04223,-1.73749 2.95882,-2.7121 2.52007,-2.67959 4.98629,-6.30301 4.92688,-10.15497 -0.009,-0.61163 -0.18854,-1.20878 -0.28281,-1.81318 -0.16817,-0.52584 -0.29068,-1.06855 -0.5045,-1.57754 -1.02275,-2.43464 -2.98981,-3.48574 -5.53926,-3.63275 -1.68403,0.0465 -1.60381,-0.0383 -3.24991,0.33596 -0.54085,0.12297 -2.03534,0.78937 -1.60483,0.43966 1.43118,-1.16253 3.14213,-1.93125 4.68465,-2.94138 0.3742,-0.24505 -0.80832,0.3912 -1.17705,0.6444 -0.33282,0.22855 -0.6105,0.52848 -0.91576,0.79271 -0.17618,0.30983 -0.42259,0.58919 -0.52854,0.9295 -0.34868,1.11996 0.21163,2.73662 1.03204,3.53457 0.22854,0.22228 0.51646,0.37391 0.77468,0.56087 0.36067,0.14862 0.7086,0.333 1.082,0.44585 3.36403,1.01671 6.94562,0.31259 10.27722,-0.42956 1.01542,-0.28556 2.04476,-0.52559 3.04626,-0.85667 1.06092,-0.35073 2.19671,-1.79349 3.13505,-1.1868 0.81636,0.52782 -3.31977,1.96132 -2.39351,1.66625 1.14908,-0.36605 2.09168,-1.20582 3.08678,-1.8871 2.69751,-1.84679 2.89299,-2.2288 5.16124,-4.45887 0.58581,-0.72522 1.22741,-1.4087 1.75742,-2.17564 2.05268,-2.97026 2.40953,-5.46051 1.3658,-8.85474 -0.18785,-0.47039 -0.33813,-0.9576 -0.56356,-1.41118 -1.20432,-2.42316 -3.10954,-3.65658 -5.78984,-3.83343 -2.15348,0.12194 -4.23133,0.52385 -6.26608,1.26285 -0.54047,0.19629 -2.06242,0.99277 -1.59416,0.65905 1.43755,-1.02454 3.01769,-1.83262 4.52653,-2.74893 -0.40086,0.25582 -0.82299,0.48102 -1.20259,0.76744 -1.17594,0.88728 -2.03648,2.12617 -2.7035,3.42093 0,0 -6.83033,3.09025 -6.83033,3.09025 z"
       inkscape:connector-curvature="0" /><path
       style="opacity:0.98999999;fill:#a05a2c;fill-opacity:1;stroke:#000000;stroke-width:0.89999998;stroke-miterlimit:4;stroke-dasharray:none;stroke-opacity:0.61194033;paint-order:normal"
       id="path34171"
       d="m 166.16064,689.50294 c -5.41994,-0.25993 -10.84883,-0.24241 -16.27359,-0.24182 -5.57851,-0.20504 -11.10363,0.47744 -16.5551,1.58902 -2.88902,0.53409 -13.97056,6.98552 -2.54652,0.47737 -1.6853,1.06732 -3.30055,2.30024 -4.39732,3.98687 -0.4364,1.00625 -1.01144,2.13577 -1.03677,3.26413 -0.0157,0.70102 0.22589,1.07601 0.49103,1.70919 2.51063,2.98911 6.57819,3.66501 10.21071,4.32378 6.6916,1.15895 13.43363,0.0938 20.13598,-0.28856 1.07463,0.10941 3.84805,-0.40797 4.73056,0.62596 1.13901,1.33444 -0.38817,3.03298 -1.09357,4.004 -0.66419,0.55834 -1.29149,1.16378 -1.99257,1.67503 -0.85273,0.62184 -1.73942,1.20107 -2.65976,1.7176 -6.34407,3.56054 -7.23883,4.50248 -12.80432,6.04026 -3.73348,1.03158 -5.04869,1.12201 -8.92959,1.73406 -7.86961,0.93583 -15.81143,1.46977 -23.73397,0.96466 -1.38726,-0.0884 -2.7678,-0.26179 -4.15171,-0.39269 -3.25298,-0.34036 -6.474885,-0.95131 -9.653175,-1.71662 -0.611828,-0.14733 -3.138385,-0.79229 -3.85117,-1.13956 -0.451602,-0.22002 -0.826616,-0.57107 -1.239924,-0.8566 -0.286424,-0.43154 -0.630591,-0.82988 -0.85927,-1.2946 -1.366919,-2.77784 -1.078904,-6.71579 -0.748631,-9.68012 1.112835,-4.99882 4.416006,-8.39337 8.572541,-11.18606 1.030036,-0.69206 2.133173,-1.26856 3.199759,-1.90284 2.99754,-1.56458 5.92569,-3.26998 8.99262,-4.69374 1.13469,-0.52676 2.37053,-0.80427 3.57544,-1.14072 3.16318,-0.88325 6.43215,-1.46795 9.71367,-1.64775 0.8264,-0.0453 1.65516,-0.0202 2.48273,-0.0302 1.8681,0.20801 3.84673,0.43849 5.34444,1.71125 1.39885,1.18873 2.09217,2.86496 2.77678,4.50442 1.21854,3.6906 1.0946,7.5458 -0.54648,11.10985 -0.48089,1.04438 -1.13354,2.00076 -1.70031,3.00114 -0.84442,1.01588 -1.62157,2.09165 -2.53325,3.04763 -6.09833,6.39467 -14.27456,10.37908 -21.88226,14.58458 -3.08477,1.49237 -6.27111,2.8307 -9.738122,2.828 0,0 5.908182,-4.30447 5.908182,-4.30447 v 0 c 3.18753,-0.0901 6.13548,-1.28813 8.986,-2.65326 -0.87831,0.57363 -3.64548,2.00239 -2.63492,1.72088 1.26157,-0.35143 2.30298,-1.25049 3.41712,-1.93878 4.6517,-2.8737 9.09581,-6.24962 12.45743,-10.60053 0.542,-0.94398 1.168,-1.84446 1.62602,-2.83192 1.56268,-3.36903 1.59975,-7.02431 0.47304,-10.50919 -0.63167,-1.53899 -1.24335,-3.01789 -2.58502,-4.09727 -1.4003,-1.12655 -3.20044,-1.36271 -4.92188,-1.53231 -4.17142,3.8e-4 -7.72338,0.42795 -11.76104,1.61008 -1.19322,0.34935 -2.35623,1.5879 -3.53458,1.19128 -0.85686,-0.28841 1.43067,-1.10577 2.14601,-1.65865 -1.05791,0.60411 -2.15158,1.14949 -3.17372,1.81233 -4.011839,2.60161 -7.250161,5.79025 -8.44285,10.52946 -0.0878,0.70946 -0.215124,1.41514 -0.263407,2.12838 -0.144376,2.13273 -0.0018,5.04816 0.970434,7.00723 0.190931,0.38471 0.483048,0.71028 0.724572,1.06542 0.355318,0.25004 0.68083,0.54899 1.065953,0.75011 0.791008,0.41308 2.822458,1.02916 3.565138,1.23917 3.03225,0.85743 6.12405,1.519 9.25599,1.88342 1.35894,0.13384 2.71462,0.30636 4.07682,0.40153 7.86502,0.54949 15.7618,0.0426 23.5648,-0.99847 3.77141,-0.66633 5.39429,-0.83257 9.0169,-1.92812 1.3309,-0.40249 2.56398,-1.64764 3.9312,-1.39469 0.95398,0.1765 -3.18037,1.14194 -2.37484,1.68264 0.34552,0.23193 3.99747,-2.73198 4.3835,-3.0342 0.81114,-0.93194 1.18434,-1.10198 1.48805,-2.21341 0.0494,-0.18083 0.12393,-0.41521 0.008,-0.56231 -0.65486,-0.82917 -3.34426,-0.4788 -4.12628,-0.60962 -6.71543,0.21812 -13.46078,1.14231 -20.15983,0.12386 -3.4949,-0.59195 -7.45547,-1.14738 -10.20179,-3.64711 -0.3161,-0.28773 -0.56198,-0.64422 -0.84297,-0.96632 -0.29033,-0.64086 -0.67712,-1.34123 -0.72722,-2.06657 -0.0617,-0.89395 0.61443,-2.61921 0.9182,-3.47775 0.12288,-0.26083 0.2163,-0.5377 0.36863,-0.78251 0.95326,-1.53191 2.63458,-2.54186 4.01887,-3.61771 4.76043,-2.74651 9.45142,-5.87399 14.83265,-7.27562 5.38072,-0.92589 10.81211,-1.42242 16.28043,-1.22859 5.64681,6.1e-4 11.29673,0.007 16.93926,-0.24182 0,0 -5.97148,4.33854 -5.97148,4.33854 z"
       inkscape:connector-curvature="0" /><path
       style="opacity:0.98999999;fill:#2b2200;fill-opacity:1;stroke:#000000;stroke-width:0.89999998;stroke-miterlimit:4;stroke-dasharray:none;stroke-opacity:0.61194033;paint-order:normal"
       id="path34173"
       d="m 183.71189,667.84746 c -2.30035,2.77729 -4.05289,5.87834 -5.4912,9.17152 -0.75117,1.74726 -1.49068,3.9062 0.29386,5.29333 0.26004,0.20213 0.56618,0.33665 0.84927,0.50498 1.40425,0.47325 3.03398,0.97052 4.53468,0.61213 0.35468,-0.0847 0.66858,-0.29133 1.00287,-0.437 -1.71525,0.92622 -3.4305,1.85243 -5.14576,2.77864 2.30471,-2.20727 3.73357,-5.162 4.94717,-8.07438 1.78821,-4.75437 2.37345,-4.52478 8.69838,-7.43621 0.33236,-0.15299 0.71622,0.15001 1.07433,0.22501 1.8913,0.6649 4.21878,1.06455 5.62819,2.63648 0.20799,0.23198 0.34062,0.5218 0.51093,0.78269 0.26405,1.09851 0.23698,0.54705 0.0883,1.65402 0,0 -6.64792,3.17513 -6.64792,3.17513 v 0 c 0.33177,-0.73086 0.26084,-0.35013 0.22044,-1.14074 -0.12049,-0.20582 -0.20706,-0.4357 -0.36147,-0.61745 -1.27838,-1.50473 -3.55875,-1.84299 -5.35884,-2.25914 -3.07514,0.20967 -1.70028,0.26585 4.62701,-3.38533 0.22146,-0.12779 -0.38119,0.34363 -0.544,0.54079 -0.68373,0.82795 -0.99684,1.85223 -1.41703,2.82186 -1.24323,2.97481 -2.76414,5.90545 -4.77782,8.43138 -6.05357,3.59179 -7.27857,6.03003 -13.18976,3.6171 -0.31595,-0.21848 -0.66056,-0.40046 -0.94786,-0.65546 -2.01963,-1.79254 -1.45564,-3.96626 -0.46826,-6.14397 1.40901,-3.13629 2.93829,-6.26971 5.04416,-9.00513 0,0 6.83033,-3.09025 6.83033,-3.09025 z"
       inkscape:connector-curvature="0" /><path
       style="opacity:0.98999999;fill:#ffcc00;fill-opacity:1;stroke:#000000;stroke-width:0.89999998;stroke-miterlimit:4;stroke-dasharray:none;stroke-opacity:0.61194033;paint-order:normal"
       id="path34175"
       d="m 154.91194,672.94769 c -2.29717,1.35601 -4.55321,2.78426 -6.89152,4.06802 -0.32517,0.17853 -0.71726,0.19078 -1.07071,0.30336 -1.20926,0.38519 -2.41421,0.78388 -3.61758,1.18706 -2.60118,0.8715 -2.76511,0.97435 -5.4095,2.00603 -2.5603,0.99328 -3.50526,1.30493 -5.97702,2.48035 -0.91021,0.43284 -3.47661,2.00895 -2.69269,1.37546 0.99839,-0.80682 2.16263,-1.40964 3.34712,-1.90432 0.79462,-0.33186 -1.45353,0.92437 -2.1644,1.41038 -0.61913,0.42328 -1.21631,0.8778 -1.82447,1.3167 -1.11789,0.91269 -4.07653,3.18592 -4.01763,4.88568 0.008,0.23414 0.16478,0.43864 0.24718,0.65797 0.29662,0.23325 0.55642,0.52309 0.88986,0.69976 1.16147,0.6154 2.87811,1.03095 4.11102,1.27358 3.10265,0.61059 6.23027,0.79027 9.38016,0.93064 2.68646,0.0796 5.3467,-0.35483 8.02252,-0.47295 1.16137,-0.0513 2.02222,-0.10328 3.10838,0.28625 0.30889,0.11077 0.57092,0.32372 0.85637,0.48558 0.16052,0.2102 0.37917,0.38674 0.48155,0.63061 0.47648,1.13501 -0.39646,2.28379 -1.3307,2.82881 -2.34829,1.36997 -4.74059,2.66306 -7.11089,3.99458 -1.15207,0.35813 -0.58693,0.17501 -1.69581,0.54814 0,0 5.78239,-4.49649 5.78239,-4.49649 v 0 c 1.08301,-0.3685 0.54007,-0.17017 1.62825,-0.59658 -1.805,1.06855 -3.6204,2.11974 -5.41502,3.20566 -0.45212,0.27358 0.95293,-0.49393 1.32743,-0.86677 0.4251,-0.4232 0.61025,-0.76325 0.19377,-1.25585 -0.21467,-0.12279 -0.41082,-0.28603 -0.64401,-0.36838 -1.53282,-0.54135 -3.34887,-0.26589 -4.91949,-0.19588 -3.6885,0.16443 -1.69493,0.11015 -5.67019,0.14513 -3.21113,-0.17752 -6.43647,-0.35885 -9.61042,-0.9172 -1.30056,-0.22878 -3.35464,-0.67691 -4.58062,-1.33569 -0.44723,-0.24031 -0.79006,-0.63786 -1.18509,-0.95679 -0.14471,-0.34237 -0.38133,-0.65919 -0.43413,-1.02713 -0.28557,-1.98995 2.86792,-4.50907 4.16753,-5.54317 6.45353,-4.68247 13.48025,-8.59419 20.97545,-11.33709 2.59388,-1.01671 5.20464,-1.95395 7.82304,-2.90296 0.55539,-0.20129 1.1104,-0.40432 1.65834,-0.62509 0.37803,-0.15231 1.46298,-0.71161 1.11855,-0.49374 -1.89748,1.20027 -3.85799,2.29788 -5.78698,3.44681 0,0 6.92996,-2.87048 6.92996,-2.87048 z"
       inkscape:connector-curvature="0" /><path
       style="opacity:0.98999999;fill:#6c6753;fill-opacity:1;stroke:#000000;stroke-width:0.89999998;stroke-miterlimit:4;stroke-dasharray:none;stroke-opacity:0.61194033;paint-order:normal"
       id="path34177"
       d="m 189.34665,650.59603 c -1.86515,1.04068 -3.67766,2.1819 -5.59545,3.12205 -0.41535,0.20361 0.72429,-0.57762 1.05816,-0.89777 0.43895,-0.42091 0.85445,-0.86645 1.25703,-1.32226 1.69138,-1.91505 3.21954,-3.96754 4.73657,-6.01991 2.4654,-3.18561 4.56533,-6.68295 7.40459,-9.56199 2.76119,-2.1675 1.43384,-1.18742 7.8087,-4.55767 0.45996,-0.24317 1.78285,-0.39286 2.27265,-0.15489 0.25722,0.12497 0.44239,0.36251 0.66359,0.54376 0.16589,0.34761 0.37924,0.67632 0.49767,1.04282 0.31555,0.97655 0.42467,2.36074 0.5098,3.34438 0.11143,1.28763 0.22017,2.93046 0.17217,4.21604 -0.0282,0.75543 -0.13082,1.50623 -0.19623,2.25935 -0.38284,2.59428 -1.15124,5.10701 -1.85965,7.62512 0,0 -6.42012,3.03614 -6.42012,3.03614 v 0 c 0.81162,-2.49036 1.65634,-4.98271 2.08375,-7.57547 0.0707,-0.72721 0.18477,-1.4515 0.21213,-2.18163 0.075,-2.00123 -0.12761,-5.21192 -0.83558,-7.11161 -0.0915,-0.24558 -0.25511,-0.45789 -0.38267,-0.68684 -0.66429,-0.33136 -1.01055,-0.2707 -1.73264,-0.0618 -0.24421,0.0706 -0.93407,0.38972 -0.71911,0.25401 1.51277,-0.95495 7.93662,-4.72688 4.61613,-2.73766 -3.14501,2.73555 -5.38456,6.31557 -7.87762,9.61733 -1.44113,2.01932 -2.90003,4.03965 -4.44988,5.97814 -0.36012,0.45042 -0.74951,0.87664 -1.12653,1.313 -0.28938,0.33492 -0.49862,0.76417 -0.87265,1.00083 -2.31006,1.46164 -4.75033,2.70654 -7.1255,4.0598 0,0 5.90069,-4.54324 5.90069,-4.54324 z"
       inkscape:connector-curvature="0" /><path
       style="opacity:0.98999999;fill:#aad400;fill-opacity:1;stroke:#000000;stroke-width:0.89999998;stroke-miterlimit:4;stroke-dasharray:none;stroke-opacity:0.61194033;paint-order:normal"
       id="path34179"
       d="m 236.68571,618.31844 c -1.67205,-0.25191 -2.76217,-1.73154 -2.93314,-3.37882 -0.0594,-0.57275 0.0369,-1.15106 0.0554,-1.72659 0.62874,-3.8248 3.14363,-6.82547 5.80118,-9.48542 2.71389,-2.50053 5.87417,-3.98965 9.20968,-5.77792 0.45243,-0.24256 1.87086,-0.44449 2.32401,-0.46407 0.48771,-0.0211 0.9758,0.0322 1.46371,0.0483 3.53912,0.43493 6.89163,1.68265 10.05773,3.27982 0.77736,0.48835 1.36551,0.74551 1.91374,1.50547 1.24447,1.72512 1.15243,4.12481 1.19617,6.12861 -0.27267,3.81161 -1.32161,7.62731 -3.0998,11.02308 -0.32748,0.62538 -0.72159,1.21354 -1.08238,1.8203 -1.87561,3.08443 -4.234,5.03308 -7.20162,6.97232 -0.41627,0.25057 -0.82573,0.51284 -1.24883,0.75172 -2.45848,1.38803 -4.90947,2.79029 -7.39532,4.1287 -0.78015,0.42004 -1.63513,0.68618 -2.42875,1.08015 -0.36572,0.18155 -1.43731,0.77486 -1.08457,0.56925 1.71325,-0.99867 3.44461,-1.96593 5.16692,-2.94889 -1.27649,0.95028 -2.93192,2.6083 -2.88052,4.34946 0.008,0.28605 0.12433,0.55868 0.18649,0.83801 0.15983,0.22256 0.28239,0.47733 0.47949,0.66767 1.265,1.22157 3.41072,1.32129 5.04553,1.48325 2.38892,0.0838 4.43792,-0.5448 6.54393,-1.60408 3.29035,-1.9473 -1.94463,1.16074 -4.2044,2.33251 -0.4002,0.20752 0.7323,-0.52598 1.09626,-0.79198 1.08596,-0.79367 2.11198,-1.612 3.11123,-2.51187 1.00853,-1.05986 0.54778,-0.52787 1.39289,-1.58671 0,0 6.68874,-2.87248 6.68874,-2.87248 v 0 c -0.86323,1.16014 -0.39193,0.58046 -1.42452,1.73037 -3.58386,3.43198 -7.93582,5.91626 -12.31724,8.20355 -2.1493,0.94619 -4.40039,1.50798 -6.76945,1.27765 -1.86394,-0.22149 -4.09354,-0.49349 -5.45191,-1.9611 -0.24605,-0.26584 -0.40348,-0.60169 -0.60522,-0.90253 -0.0918,-0.35157 -0.23614,-0.69347 -0.27534,-1.0547 -0.20949,-1.93009 1.31837,-3.77648 2.63995,-4.99889 2.40407,-1.38759 4.79655,-2.79548 7.21221,-4.16279 0.48903,-0.2768 1.77704,-0.84833 2.26804,-1.06806 0.40296,-0.18033 1.58157,-0.77627 1.21095,-0.53638 -1.37776,0.89178 -7.53672,4.44803 -3.58617,2.16207 3.03289,-1.83679 5.46919,-3.73505 7.46537,-6.73446 0.37571,-0.58606 0.78437,-1.15227 1.12713,-1.75819 1.84293,-3.25788 2.96154,-6.96487 3.18956,-10.69394 -0.0894,-1.78296 -0.0452,-4.00806 -1.15556,-5.5412 -0.47478,-0.65558 -1.02589,-0.93623 -1.68686,-1.38609 -3.05456,-1.6455 -6.38782,-2.7865 -9.87447,-2.98018 -1.27312,0.0708 -1.48374,0.002 -2.67186,0.3624 -0.34068,0.10344 -1.29338,0.58488 -0.99269,0.39423 10.04717,-6.37031 4.99609,-3.05534 2.99246,-1.47051 -2.22283,2.07846 -4.50785,4.42351 -5.5942,7.34184 -0.19684,0.52877 -0.27097,1.09543 -0.40645,1.64314 -0.0278,0.49214 -0.1336,0.98608 -0.0833,1.47643 0.15063,1.46914 1.20718,2.52339 2.67338,2.42648 0,0 -6.05753,4.40105 -6.05753,4.40105 z"
       inkscape:connector-curvature="0" /><path
       style="opacity:0.98999999;fill:#55d400;fill-opacity:1;stroke:#000000;stroke-width:0.89999998;stroke-miterlimit:4;stroke-dasharray:none;stroke-opacity:0.61194033;paint-order:normal"
       id="path34181"
       d="m 111.31854,705.84965 c -2.14547,-1.29282 -4.69003,-1.70247 -7.10286,-2.24664 -1.96307,-0.35623 -4.07141,-0.79145 -6.068181,-0.36236 -0.939336,0.20186 -1.310605,0.48125 -2.121899,0.9308 8.97971,-5.43193 5.59559,-3.61987 3.925996,-1.18493 -0.798604,1.16468 -1.392874,2.3553 -1.945047,3.65032 -0.688099,2.08135 -1.285328,4.32609 -0.952811,6.53753 0.06481,0.43102 0.197963,0.84896 0.296944,1.27344 0.887138,2.64127 2.062083,3.85635 4.193468,5.50969 1.59745,0.96333 3.07944,1.59217 4.23286,3.10792 0.98302,2.1869 0.97335,4.67207 1.07815,7.03044 -0.0223,2.24189 -0.69091,4.33801 -1.77968,6.27399 -0.43062,0.66232 -0.91309,1.29843 -1.60695,1.71013 -3.846253,2.28221 -5.31096,3.64065 -8.718552,4.56553 -1.795665,0.37959 -3.612048,0.45053 -5.417679,0.14127 -1.162554,-0.3355 -0.598958,-0.1376 -1.692271,-0.58945 0,0 6.085714,-4.08578 6.085714,-4.08578 v 0 c 1.018272,0.36868 0.49305,0.21206 1.577191,0.46474 1.75739,0.1955 3.534673,0.0668 5.242687,-0.4092 2.54715,-0.86509 5.78202,-3.0863 -3.902236,2.5911 -0.09631,0.0565 1.813939,-1.10215 1.744127,-1.42921 1.180812,-1.7948 1.963159,-3.75468 2.041669,-5.93047 -0.0566,-2.20251 -0.0226,-4.53553 -0.97042,-6.57069 -1.072892,-1.35937 -2.668351,-2.02557 -4.058104,-3.01068 -0.90818,-0.74596 -1.878713,-1.49109 -2.593115,-2.43774 -0.791395,-1.04867 -1.282037,-2.31947 -1.772011,-3.52217 -0.115002,-0.45751 -0.264362,-0.90773 -0.345005,-1.37253 -0.400508,-2.3084 0.124282,-4.64723 0.81415,-6.84386 0.6545,-1.70666 1.445906,-3.26986 2.48661,-4.77661 0.217838,-0.31539 0.355568,-0.7176 0.673048,-0.93238 2.273757,-1.53825 4.689878,-2.85478 7.034817,-4.28217 0.9404,-0.38105 1.18102,-0.5455 2.23575,-0.67479 2.03856,-0.2499 4.10567,0.21892 6.09152,0.60059 2.56315,0.58042 5.20935,0.99234 7.56616,2.21474 0,0 -6.27404,4.05943 -6.27404,4.05943 z"
       inkscape:connector-curvature="0" /><path
       style="opacity:0.98999999;fill:#00ff00;fill-opacity:1;stroke:#000000;stroke-width:0.89999998;stroke-miterlimit:4;stroke-dasharray:none;stroke-opacity:0.61194033;paint-order:normal"
       id="path34183"
       d="m 169.92504,661.54197 c -0.94229,-3.51173 -0.65054,-6.85347 -0.0239,-10.3824 0.37952,-1.61791 0.83041,-3.24388 1.86993,-4.57899 1.7614,-2.26227 8.51523,-5.22726 9.04093,-5.51538 0.68137,-0.16355 1.16395,-0.37061 1.87713,-0.18467 1.61619,0.42138 2.59995,2.00805 3.45431,3.29271 1.18872,2.08271 1.74556,4.36214 1.97538,6.72554 0.0695,0.91062 0.12155,1.82316 0.1411,2.73635 0.005,0.25358 -0.007,1.24959 0.0585,1.52434 0.0338,0.14109 0.14236,0.25284 0.21354,0.37926 1.74411,-2.16004 -0.37416,0.58728 -5.02833,2.40539 -0.5868,0.22923 0.94829,-0.83303 1.37612,-1.29545 1.50629,-1.62805 2.78993,-3.50743 4.1249,-5.2744 2.68067,-3.16798 5.04968,-4.38867 9.6354,-5.96419 0.99378,-0.34143 2.81341,3.4672 3.08902,4.00098 1.0853,2.17575 1.68931,4.56301 2.69711,6.76856 0.33194,0.72644 0.15568,0.68934 0.5804,0.63113 -9.992,4.9904 -7.13945,5.12835 -6.05548,2.56145 0.24646,-0.58364 0.4117,-1.19866 0.63965,-1.78978 0.40488,-1.0499 0.33398,-0.83445 0.90305,-1.88148 0.77037,-1.35592 1.83881,-2.50222 3.18665,-3.30122 6.73088,-3.99004 4.67425,-3.06557 7.99351,-4.49136 0.29892,-0.033 0.59635,-0.11293 0.89676,-0.099 1.96644,0.091 3.75028,2.17561 5.01757,3.46644 1.50928,1.77422 2.81692,3.70431 4.27513,5.51927 0,0 -6.28363,3.7444 -6.28363,3.7444 v 0 c -1.38082,-1.8293 -2.58556,-3.78872 -4.07886,-5.53172 -1.58586,-1.54386 -3.15358,-3.35186 -5.5445,-2.55675 -2.55067,1.25367 -1.72892,0.87422 4.46674,-2.68878 0.33037,-0.18999 -0.65088,0.39703 -0.96795,0.60847 -0.8271,0.55154 -1.08578,0.70625 -1.71361,1.478 -0.22903,0.28154 -0.41243,0.59732 -0.61865,0.89597 -0.66194,1.10749 -1.19308,2.24323 -1.50688,3.50234 -0.0625,0.25083 0.0691,0.61945 -0.14694,0.76147 -2.16961,1.42642 -4.53163,2.53611 -6.79744,3.80416 -0.50975,-0.73504 -0.65494,-1.6537 -0.92254,-2.49634 -0.58645,-1.84669 -1.25738,-3.66663 -2.08652,-5.41981 -0.47536,-0.81178 -1.1238,-2.13834 -1.91999,-2.77764 -0.25028,-0.20097 -1.13441,-0.14887 -0.89298,-0.36039 1.52224,-1.33369 3.38617,-2.21762 5.08714,-3.31427 0.42371,-0.27318 -0.8721,0.51604 -1.2552,0.84374 -0.47496,0.40629 -0.87007,0.89756 -1.3051,1.34634 -1.19732,1.55753 -1.53335,1.98315 -2.72002,3.57438 -0.19747,0.26479 -1.97754,2.77265 -2.42229,3.06716 -2.33142,1.54379 -4.73028,3.00688 -7.24844,4.22248 -0.28121,0.13576 -0.59297,-0.19603 -0.88946,-0.29404 -0.10185,-0.21852 -0.24535,-0.4221 -0.30555,-0.65554 -0.32983,-1.27894 0.15394,-2.97594 -0.1168,-4.2911 -0.19514,-2.24551 -0.58724,-4.46052 -1.74081,-6.43891 -1.36479,-1.97338 -2.31677,-3.18653 -4.83168,-2.25605 1.75379,-1.05132 3.52384,-2.07597 5.26137,-3.15395 0.33063,-0.20513 -0.71247,0.3208 -1.0381,0.53379 -0.3527,0.23069 -0.69039,0.49086 -0.98669,0.79056 -1.19186,1.20557 -1.73873,2.77368 -2.16732,4.37646 -0.65467,3.33984 -1.06804,6.48457 0.23469,9.74266 0,0 -6.48039,3.68984 -6.48039,3.68984 z"
       inkscape:connector-curvature="0" /><path
       style="opacity:0.98999999;fill:#6f916f;fill-opacity:1;stroke:#000000;stroke-width:0.89999998;stroke-miterlimit:4;stroke-dasharray:none;stroke-opacity:0.61194033;paint-order:normal"
       id="path34185"
       d="m 191.22885,674.3819 c -2.86988,-0.28724 -5.75466,-0.38357 -8.63153,-0.586 -3.47494,-0.21118 -6.90108,-0.86326 -10.36188,-1.22694 -1.38093,-0.0486 -2.7904,-0.35426 -4.17327,-0.15564 -2.24476,0.32241 -6.13797,3.13868 4.95965,-2.9617 -0.21203,0.21863 -0.46584,0.40337 -0.6361,0.6559 -0.87176,1.29302 -1.24933,3.34989 -0.94133,4.86483 0.0872,0.42901 0.29472,0.82449 0.44208,1.23674 1.26069,2.47401 3.18039,3.75721 5.7611,4.55487 1.16894,0.42572 2.46361,0.19619 3.64882,0.49983 0.61708,0.1581 0.75513,0.31256 1.25764,0.65499 0.11756,0.19939 0.29838,0.37316 0.35268,0.59817 0.24624,1.02041 -0.65705,1.81644 -1.44161,2.25393 -7.67042,4.27727 -4.94259,3.53068 -9.63396,4.47245 -3.53017,0.45684 -7.10945,0.96524 -10.68069,0.78591 -2.58141,-0.12964 -3.27254,-0.36286 -5.81712,-0.86465 -4.83515,-1.52753 -9.67691,-3.45289 -13.94715,-6.23737 -0.65627,-0.42792 -1.26288,-0.92755 -1.89431,-1.39132 -1.74907,-1.58344 -3.46433,-3.49028 -3.19415,-6.05032 0.16402,-1.55426 0.67356,-2.09486 1.44269,-3.40641 1.46254,-1.52283 1.56061,-1.82666 3.50449,-2.93887 2.72149,-1.55713 5.4478,-3.11549 8.26867,-4.4844 0.84401,-0.40959 1.78076,-0.59554 2.6884,-0.83284 2.24265,-0.58636 3.49827,-0.71554 5.78747,-1.06355 3.25645,-0.13505 7.94525,-0.84556 10.72214,1.3709 0.40219,0.32102 0.69523,0.75888 1.04284,1.13832 0.23912,0.48978 0.52596,0.95903 0.71737,1.46935 0.79802,2.12764 1.05059,4.6758 0.7837,6.92467 -0.0639,0.53811 -0.20236,1.06472 -0.30354,1.59707 -0.43761,1.97528 -1.54815,3.39667 -2.97499,4.75151 0,0 -6.66196,2.70891 -6.66196,2.70891 v 0 c 1.48562,-1.20424 2.71234,-2.45904 3.23579,-4.3688 0.12339,-0.50587 0.28555,-1.00384 0.37018,-1.51762 0.43695,-2.65279 -0.0235,-5.48868 -1.28233,-7.85129 -0.301,-0.32389 -0.55512,-0.69874 -0.90299,-0.97168 -2.5831,-2.02672 -7.10889,-1.37898 -10.1133,-1.22096 -2.32578,0.38695 -3.48148,0.50806 -5.75117,1.17032 -0.9064,0.26447 -3.15289,1.74118 -2.6771,0.92561 0.691,-1.18444 2.31456,-1.47207 3.44702,-2.24533 1.19202,-0.81394 -4.59646,2.77474 -3.45974,2.60402 -0.7534,1.08894 -1.32176,1.64287 -1.55554,2.97991 -0.40652,2.32487 1.17715,4.13253 2.70174,5.62549 0.58777,0.46242 1.14861,0.9613 1.76331,1.38727 3.09401,2.1441 7.09293,4.00897 10.65047,5.21116 1.01348,0.34249 2.05828,0.58415 3.08742,0.87622 0.97113,0.17029 1.9353,0.38668 2.9134,0.51087 4.54233,0.57672 9.15335,0.003 13.62576,-0.81686 4.01919,-1.1108 2.21547,-0.82204 -2.6639,2.37558 -0.29155,0.19107 0.64141,-0.27948 0.93729,-0.46376 0.20064,-0.12497 0.36283,-0.30309 0.54181,-0.45749 0.0964,-0.0832 0.25157,-0.13213 0.28436,-0.2552 0.0278,-0.10425 -0.0923,-0.19506 -0.1384,-0.29258 -1.42029,-0.81333 -3.18013,-0.47614 -4.68624,-1.09632 -2.675,-1.0173 -4.67419,-2.55538 -6.01996,-5.14476 -0.17696,-0.46883 -0.41432,-0.91911 -0.53087,-1.40648 -0.49734,-2.07974 0.12803,-4.33894 1.07365,-6.18596 2.34665,-1.30858 4.64842,-2.70112 7.03995,-3.92576 0.70802,-0.36256 4.00786,0.22112 4.87753,0.25904 3.39968,0.44962 6.77438,1.14537 10.20733,1.28912 2.9933,0.16623 5.99818,0.33115 8.9959,0.26685 0,0 -6.05752,4.40105 -6.05752,4.40105 z"
       inkscape:connector-curvature="0" /><path
       style="opacity:0.98999999;fill:#00ff66;fill-opacity:1;stroke:#000000;stroke-width:0.89999998;stroke-miterlimit:4;stroke-dasharray:none;stroke-opacity:0.61194033;paint-order:normal"
       id="path34187"
       d="m 241.63289,621.52578 c -3.30198,0.57674 -6.6285,1.02741 -9.95176,1.46818 -3.59276,0.35644 -7.13294,1.1005 -10.61976,2.01984 -4.34062,1.47431 -8.60597,3.15081 -12.78396,5.03535 -2.05314,1.16682 -9.19672,4.46688 1.02641,-0.78144 0.39353,-0.20202 -0.72766,0.50635 -1.06091,0.79726 -0.725,0.63291 -1.01621,1.07043 -1.60114,1.81276 -0.73518,1.14148 -1.95793,3.10405 -1.27402,4.51364 0.1662,0.34254 0.45844,0.60797 0.68766,0.91196 0.37519,0.27744 0.71976,0.60199 1.12558,0.83231 2.15388,1.22241 5.11947,1.76593 7.56333,1.6048 0.7712,-0.0509 1.53332,-0.19574 2.29998,-0.29361 2.24477,-0.66148 2.30716,-0.58697 4.41469,-1.57223 0.67283,-0.31454 2.61169,-1.41273 1.97956,-1.0228 -8.648,5.33451 -3.08558,1.69694 -1.33246,0.39662 4.42532,-3.3223 9.21671,-6.23459 14.27484,-8.48334 2.52995,-0.94158 5.17027,-1.584 7.84714,-1.92102 2.14054,-0.19512 4.29043,-0.24413 6.4385,-0.26934 2.1755,0.0783 2.91904,1.43568 3.55395,3.31293 0.68612,2.15015 0.2772,4.23218 -1.31982,5.87469 -0.4338,0.44616 -0.94469,0.81027 -1.41704,1.21541 -0.60724,0.37479 -1.19855,0.7767 -1.82171,1.12437 -2.68138,1.49602 -5.3368,3.04546 -8.08967,4.40545 -0.78068,0.38568 -1.64332,0.58005 -2.48125,0.81688 -2.77681,0.78484 -5.61337,1.14805 -8.46695,1.51104 -4.14694,0.34024 -8.32648,0.7782 -12.49339,0.6456 -3.01162,-0.29103 -3.42803,-1.96001 -3.99502,-4.61798 -0.33569,-2.62642 -0.74885,-5.37286 -0.27202,-8.01397 0.10739,-0.59482 0.30799,-1.16898 0.46199,-1.75347 0.31137,-0.60527 0.55273,-1.25203 0.93412,-1.81581 1.44563,-2.13692 3.69499,-3.84983 5.88445,-5.14573 7.64691,-4.52606 6.20703,-3.75911 11.53289,-6.23862 3.75287,-1.43953 7.92246,-3.14302 11.97306,-3.49385 0.53255,-0.0461 1.06881,-0.025 1.60321,-0.0375 2.74437,0.13733 5.36675,1.07751 7.67101,2.5467 1.69738,1.2241 2.45922,2.97113 2.84616,4.96105 0.0347,0.267 0.0694,0.534 0.1041,0.80099 0,0 -6.50707,3.40723 -6.50707,3.40723 v 0 c -0.0236,-0.25463 -0.0471,-0.50926 -0.0707,-0.76389 -0.29451,-1.81238 -0.89275,-3.39062 -2.45943,-4.48897 -2.20523,-1.39492 -4.70925,-2.19813 -7.32952,-2.25954 -4.52885,0.19815 -8.86039,1.68214 -13.00441,3.44756 -0.98615,0.4736 -2.65847,2.47284 -2.95846,1.4208 -0.30688,-1.07617 1.83941,-1.30177 2.86421,-1.75132 0.8662,-0.37998 -1.6212,0.97991 -2.3832,1.54031 -1.77061,1.30215 -3.37482,2.83521 -4.32435,4.84098 -0.16689,0.54543 -0.38445,1.07786 -0.50067,1.63629 -0.52971,2.54524 -0.0613,5.22921 0.24897,7.76521 0.57412,2.41108 0.85723,3.55635 3.527,3.80174 4.01523,0.19825 8.04612,-0.0677 12.04157,-0.4616 2.85643,-0.38536 5.67949,-0.79174 8.43862,-1.66429 0.84573,-0.26746 3.08526,-1.58402 2.49683,-0.92029 -0.98959,1.11624 -2.56232,1.53235 -3.79031,2.37929 -0.56036,0.38647 1.18885,-0.66337 1.78327,-0.99505 2.37837,-1.82973 3.76698,-3.0386 2.89262,-6.19753 -0.59812,-1.70573 -1.17051,-2.53777 -3.09381,-2.52763 -2.10458,0.002 -4.21553,0.024 -6.30636,0.2908 -2.60836,0.39679 -5.19816,0.99641 -7.63811,2.02035 -3.13387,1.44728 -1.49884,0.75153 3.28242,-2.1477 0.45101,-0.27348 -0.92326,0.51108 -1.37213,0.78806 -0.44851,0.27676 -2.28662,1.51689 -2.72285,1.82622 -0.44774,0.31748 -0.88391,0.65098 -1.32587,0.97647 -3.37377,2.62028 -6.73286,4.37699 -10.63204,6.54063 -1.12748,0.62563 -2.93355,1.39994 -4.15439,1.78332 -0.77228,0.24252 -1.5694,0.39738 -2.3541,0.59607 -0.7971,0.0825 -1.5905,0.21788 -2.39131,0.24748 -2.49338,0.0921 -5.80388,-0.58506 -7.98012,-1.85313 -0.46168,-0.26902 -0.85286,-0.64401 -1.27929,-0.96601 -0.29772,-0.3785 -0.66639,-0.71068 -0.89318,-1.1355 -0.89431,-1.67526 0.1596,-3.6878 1.02591,-5.11602 0.45529,-0.62114 1.03283,-1.45712 1.57914,-1.99806 3.22769,-3.19591 8.03103,-4.86447 12.08304,-6.95819 4.25131,-1.87669 8.58067,-3.59072 12.99248,-5.05364 3.48199,-0.90767 7.02675,-1.54118 10.60849,-1.90442 3.43959,-0.47711 6.90693,-0.91092 10.26757,-1.80635 0,0 -5.9022,4.51316 -5.9022,4.51316 z"
       inkscape:connector-curvature="0" /><path
       style="opacity:0.98999999;fill:#00ccff;fill-opacity:1;stroke:#000000;stroke-width:0.89999998;stroke-miterlimit:4;stroke-dasharray:none;stroke-opacity:0.61194033;paint-order:normal"
       id="path34189"
       d="m 215.90324,649.31508 c -4.61828,2.99864 -9.47229,5.7785 -14.58718,7.86442 -1.50759,0.61482 -6.18053,2.30898 -7.61422,2.83391 -1.37676,0.48536 -2.74994,0.98103 -4.13029,1.45608 -3.32961,1.14589 -4.38889,1.47193 -7.66627,2.50531 -0.66664,0.2102 -4.81598,1.49077 -5.68412,1.82126 -0.66767,0.25417 -1.30392,0.58424 -1.95587,0.87636 1.5455,-0.83214 3.007,-1.84394 4.63652,-2.49642 0.40081,-0.16049 -0.63219,0.6052 -0.84768,0.97933 -0.1873,0.32517 -0.3019,0.7009 -0.33537,1.07467 -0.11772,1.31436 0.84124,2.24404 1.62814,3.13251 1.71291,1.65549 3.90712,2.32219 6.20785,2.62244 1.67973,0.14769 3.35991,-0.16609 5.03603,-0.28598 1.31728,-0.0544 2.89536,-0.37314 4.0053,0.54809 0.21537,0.17876 0.3752,0.41544 0.5628,0.62315 0.66213,1.20473 1.47834,2.92487 0.54209,4.22663 -0.26459,0.36788 -0.65714,0.62416 -0.9857,0.93624 -2.50363,1.41493 -4.94715,2.94193 -7.51088,4.2448 -0.54598,0.27746 -1.18326,0.31656 -1.77505,0.47424 -2.61822,0.69763 -5.27195,1.2256 -7.92511,1.77385 -0.53376,0.10336 -1.06668,0.21113 -1.60127,0.31009 -1.19344,0.22092 -1.37229,0.18784 -2.48708,0.54367 -0.87632,0.27972 -1.72654,0.67086 -2.58649,0.99771 -2.42008,1.11924 -3.1166,1.46254 5.13677,-2.96229 0.17656,-0.0947 -0.32176,0.24501 -0.4481,0.40048 -0.48367,0.59516 -0.60356,1.34628 -0.75318,2.07074 -0.0959,1.33454 -0.53312,2.94313 0.23197,4.14789 0.79643,0.42718 1.74256,0.49888 2.62544,0.5839 0.63085,0.0607 1.26234,0.15044 1.89605,0.14137 1.64867,-0.0236 4.26196,-0.41507 5.82663,-0.61692 3.57649,-0.82071 7.1854,-1.70727 10.52854,-3.26504 1.08617,-0.50611 2.32635,-0.8552 3.15769,-1.71821 0.69471,-0.72118 -2.45719,2.23282 -2.72356,1.26754 -0.29065,-1.05325 1.65518,-1.42674 2.48277,-2.14012 3.89257,-3.97778 6.84846,-8.72692 10.51727,-12.89791 2.2866,-2.49602 4.98784,-4.57185 7.60874,-6.7017 2.29149,-1.98753 4.74139,-3.76367 7.24252,-5.47316 4.09422,-2.74586 8.4372,-5.12182 12.70441,-7.57798 0.99773,-0.61645 2.13848,-0.8806 3.222,-1.28272 0.30145,-0.11187 1.16373,-0.54394 0.88523,-0.38323 -6.15664,3.55285 -6.86546,4.4311 -4.55491,2.1155 1.70831,-2.26088 2.93668,-4.82457 4.37091,-7.25611 1.20897,-2.04965 1.28371,-2.10542 2.59632,-4.08268 3.1701,-4.32437 7.31076,-7.78186 11.25335,-11.36924 3.23499,-3.02015 6.67771,-5.79214 10.39384,-8.19341 -0.49595,1.1799 7.39956,-6.47921 10.03142,-3.92109 0.42903,0.41701 0.5619,0.93389 0.7661,1.46686 0.25834,0.88037 0.45602,2.76023 -0.51487,3.34831 -2.25303,1.36467 -4.5802,2.60301 -6.8703,3.90452 -0.22093,-0.0436 -0.4584,-0.0364 -0.66279,-0.13089 -1.58417,-0.73277 -1.72022,-3.53534 -1.89445,-4.98873 -0.23329,-4.22944 -0.41233,-8.45971 -0.54156,-12.69362 -0.15118,-3.15095 -0.062,-6.32458 -0.58102,-9.4443 -0.49409,-1.62273 -0.99478,-3.6201 -2.49417,-4.60666 -2.28784,1.67714 1.6822,-1.25745 5.72286,-2.95621 0.29176,-0.12266 -0.31691,0.54934 -0.44506,0.83874 -0.75137,1.6969 -1.23874,3.50766 -1.75604,5.28335 -1.55919,5.40668 -3.0529,10.82901 -4.7091,16.2068 -1.59565,6.09701 -4.51076,11.65897 -7.61857,17.09404 -2.33856,3.63936 -4.55315,7.5009 -7.71853,10.49955 -5.22808,3.98603 -9.12604,5.3656 -14.96494,6.6446 -4.82345,0.86198 -9.40102,2.62312 -13.80283,4.72975 -0.74849,0.39712 -2.97088,1.62919 -2.24546,1.19135 1.20615,-0.728 2.39712,-1.5006 3.68899,-2.06262 0.72434,-0.31513 -1.31494,0.87568 -1.97122,1.31531 -1.91016,1.27956 -3.79177,2.59786 -5.70536,3.87228 -0.60346,0.38739 -1.19182,0.79936 -1.81037,1.16216 -2.59166,1.52012 -5.19337,3.02379 -7.81841,4.48551 -2.38925,1.33042 -4.9999,2.3419 -7.48767,3.47244 -3.09992,1.33453 -6.25456,2.56034 -9.44513,3.6623 -4.39463,1.73059 -8.97985,2.9034 -13.38776,4.59392 -3.37037,1.27015 -6.68631,2.68538 -9.93894,4.23104 -1.55372,0.83814 -3.19756,1.49013 -4.76865,2.29249 -0.43097,0.2201 -1.69328,0.93767 -1.27481,0.69464 6.07554,-3.52837 6.5182,-3.84525 4.02545,-2.21965 -2.35767,1.76455 -4.59714,3.67398 -6.94529,5.45227 -3.92506,3.16811 -8.37852,5.50333 -12.73337,8.02087 -4.78747,2.74221 7.59595,-4.40408 2.76749,-1.59568 0,0 -6.71227,2.57874 -6.71227,2.57874 v 0 c 3.17327,-1.84196 6.34017,-3.69521 9.53244,-5.50412 -10.85002,6.30292 -1.61744,1.05633 0.55058,-0.87615 2.33495,-1.74268 4.56096,-3.60574 6.82142,-5.44213 4.45049,-3.1123 9.31776,-5.47348 14.21534,-7.762 3.2624,-1.51981 6.56239,-2.97207 9.95884,-4.16928 4.45376,-1.56928 9.01979,-2.81801 13.40055,-4.59632 3.16111,-1.17364 6.31465,-2.37928 9.41327,-3.7091 1.85996,-0.83813 3.72922,-1.66218 5.56389,-2.55497 0.62032,-0.30186 2.4236,-1.31181 1.84839,-0.93095 -1.30852,0.86641 -2.68283,1.63069 -4.05512,2.39208 -0.63344,0.35145 1.22459,-0.77422 1.83688,-1.16134 1.93885,-1.26186 3.83226,-2.58478 5.74848,-3.88071 0.66704,-0.45112 1.30603,-0.94562 1.99556,-1.36156 2.64861,-1.59772 5.32565,-3.14844 8.01479,-4.67696 0.73221,-0.41619 1.49789,-0.77052 2.24684,-1.15578 4.50322,-2.07985 9.17219,-3.78847 14.05504,-4.73929 1.70268,-0.41064 3.40866,-0.80741 5.05681,-1.41034 0.4805,-0.17578 1.84476,-0.8649 1.42314,-0.57505 -1.50968,1.03787 -7.43453,4.41379 -3.71779,2.28803 0.37728,-0.31268 0.77572,-0.60146 1.13183,-0.93804 0.95376,-0.90149 1.6181,-1.77636 2.42721,-2.8216 1.67879,-2.16874 3.31286,-4.38016 4.72055,-6.73755 1.61746,-2.77449 3.2511,-5.56195 4.57366,-8.49427 1.22986,-2.72678 2.14824,-5.58434 3.03974,-8.43425 1.66687,-5.3167 3.10692,-10.69702 4.51829,-16.08675 0.42863,-1.74805 0.92436,-3.45981 1.40578,-5.19154 0.0925,-0.33277 -0.0389,-0.80467 0.24034,-1.0079 6.18758,-4.50293 4.37671,-5.03554 7.34553,-3.87969 1.4434,1.34306 2.12436,3.28474 2.6051,5.15527 0.5534,3.19549 0.26212,6.44459 0.35762,9.67233 0.1092,4.1772 0.31726,8.35248 0.74201,12.51082 0.13621,0.9938 0.26529,3.12186 1.13234,3.83403 0.31614,0.25967 0.55867,0.11373 0.89652,0.0355 -1.93533,1.1545 -3.87415,2.30318 -5.806,3.4635 -0.16199,0.0973 0.3501,-0.15431 0.49611,-0.27424 0.70778,-0.58139 0.64166,-1.48602 0.43942,-2.28157 -0.11579,-0.32458 -0.20448,-0.75644 -0.50711,-0.9879 -1.59137,-1.21708 -8.88872,4.32014 2.73139,-2.69042 -0.92073,0.57131 -2.31713,1.42104 -3.18628,2.03343 -2.65302,1.86929 -5.09541,4.01755 -7.52809,6.15825 -3.90293,3.55228 -8.0008,6.96191 -11.22037,11.1769 -2.46005,3.61963 -4.51436,7.45843 -6.63161,11.28411 -0.25309,0.34504 -0.40313,0.79789 -0.75926,1.03511 -2.27187,1.51332 -4.67496,2.82107 -7.04999,4.16673 -0.27654,0.15668 -0.59445,0.2253 -0.89322,0.33376 -1.05495,0.38297 -2.11025,0.76376 -3.07978,1.34289 10.82023,-6.30523 1.97507,-1.18447 -0.42819,0.43453 -2.51266,1.72111 -5.05103,3.40757 -7.32817,5.44426 -2.65398,2.15321 -5.38646,4.24 -7.79951,6.66465 -1.45303,1.55451 -1.70384,1.76659 -3.08113,3.48654 -2.56844,3.20745 -4.85683,6.64951 -7.71954,9.61206 -0.8333,0.74334 -1.5762,1.60253 -2.49988,2.23002 -1.72986,1.17516 -8.32047,5.38667 -11.65633,6.86388 -3.4147,1.51213 -7.08162,2.37565 -10.70417,3.2082 -2.76663,0.39329 -5.47373,0.86446 -8.27565,0.65619 -0.75054,-0.0558 -1.79256,-0.16186 -2.50901,-0.50687 -0.25362,-0.12213 -0.45157,-0.33619 -0.67736,-0.50429 -0.11314,-0.19911 -0.25694,-0.38367 -0.33941,-0.59731 -0.49006,-1.26947 -0.0755,-2.73889 -0.071,-4.04391 0.64512,-4.74122 2.69256,-4.96209 8.43803,-7.25527 2.11009,-0.77701 4.25443,-1.30252 6.49423,-1.56746 2.64562,-0.51616 5.30926,-1.01906 7.88393,-1.83116 0.59868,-0.18884 2.27735,-1.00067 1.77834,-0.6198 -1.47005,1.122 -3.16076,1.92075 -4.74114,2.88113 0.49139,-0.31343 1.26574,-0.6608 1.52508,-1.27622 0.36134,-0.85745 -0.31069,-2.00962 -0.68189,-2.73265 -0.14596,-0.14081 -0.26881,-0.31041 -0.43788,-0.42243 -1.05594,-0.69958 -2.57401,-0.20815 -3.733,-0.23134 -1.69634,0.14912 -3.40995,0.42706 -5.10588,0.12338 -2.39829,-0.44531 -4.63609,-1.32447 -6.37521,-3.10841 -1.24102,-1.4086 -2.60389,-3.06098 -1.75295,-5.08092 1.18578,-2.81476 7.97128,-5.45165 8.26818,-5.62796 2.39353,-0.93325 4.83224,-1.60371 7.29205,-2.3447 3.08842,-0.93035 4.37426,-1.32728 7.50223,-2.40914 1.3876,-0.47992 2.76536,-0.98784 4.14805,-1.48176 2.18099,-0.82216 5.59637,-2.07874 7.77084,-3.01478 1.08981,-0.46913 2.16404,-0.97499 3.22696,-1.50224 0.9265,-0.45958 3.59716,-2.03471 2.73918,-1.45721 -1.37831,0.92774 -2.85999,1.6922 -4.30543,2.51145 -0.30024,0.17017 0.57906,-0.37568 0.86858,-0.56351 0,0 6.92577,-2.77937 6.92577,-2.77937 z"
       inkscape:connector-curvature="0" /><path
       style="opacity:0.98999999;fill:#c837ab;fill-opacity:1;stroke:#000000;stroke-width:0.89999998;stroke-miterlimit:4;stroke-dasharray:none;stroke-opacity:0.61194033;paint-order:normal"
       id="path34191"
       d="m 155.23654,682.54481 c -3.97509,0.3938 -7.97387,0.48018 -11.96484,0.58294 -5.12205,-0.0132 -9.40388,-1.82081 -12.77381,-5.72494 -0.55672,-0.64497 -1.01164,-1.37124 -1.51746,-2.05686 -1.57667,-2.60219 -2.80852,-5.26332 -0.93481,-8.12545 2.0135,-3.07567 7.97939,-5.44774 9.87556,-6.54913 6.5084,-2.19872 13.42614,-2.75964 20.25096,-2.98034 3.00719,0.28406 6.40306,0.41698 8.90695,2.36642 1.20055,0.93471 1.48191,1.61916 2.26675,2.86811 0.56999,1.51401 0.8982,2.11256 1.08003,3.77144 0.46459,4.23868 -1.15501,8.28699 -2.55209,12.19251 -1.7103,4.4192 -4.16646,8.49854 -7.6268,11.76922 -1.7771,1.67971 -2.9029,2.36295 -4.88574,3.75248 -4.2275,2.45489 -8.39801,5.2754 -13.15728,6.63373 -2.43053,0.69369 -4.91945,0.95789 -7.4225,1.218 -3.76744,0.30629 -7.54842,0.34295 -11.32584,0.37671 -0.31795,3.7e-4 -1.74995,-0.0286 -2.11944,0.0812 -0.26683,0.0793 -0.9657,0.55377 -0.71948,0.42391 1.89448,-0.99921 3.687,-2.21077 5.66501,-3.03235 0.31277,-0.12991 -0.37341,0.57079 -0.49741,0.88595 -0.16343,0.41536 -0.2392,0.86008 -0.3588,1.29012 -0.77906,3.92273 -0.17533,7.02355 1.31421,10.65942 1.03443,2.09897 2.28515,3.0604 4.53136,3.50833 0.26921,-0.0277 0.54941,-0.002 0.80763,-0.0831 0.30841,-0.0968 1.14642,-0.59757 0.86349,-0.44126 -1.68869,0.93296 -3.31652,1.99158 -5.08116,2.77141 -0.48102,0.21258 0.81399,-0.66961 1.17989,-1.04735 1.06904,-1.10361 1.32301,-1.60641 2.17061,-2.8739 0.26206,-0.4756 0.52413,-0.9512 0.78619,-1.42679 0,0 6.46853,-2.89884 6.46853,-2.89884 v 0 c -0.26861,0.49743 -0.53722,0.99486 -0.80582,1.49228 -3.13425,5.03963 -3.93037,4.87754 -10.44983,8.46722 -0.70049,0.3857 -1.25751,0.25547 -1.99071,0.21125 -2.35086,-0.71842 -3.67451,-1.94004 -4.668,-4.22968 -1.38777,-3.70682 -2.12213,-7.0012 -1.58805,-10.989 0.0225,-0.14036 0.28949,-2.24892 0.57085,-2.4609 2.37504,-1.78942 4.72734,-4.17515 7.67833,-4.54191 0.36856,-0.0458 1.74782,-10e-4 2.07006,0.006 3.66739,0.0821 7.34262,0.0872 10.99995,-0.23747 3.32545,-0.3788 6.5453,-0.89403 9.66373,-2.17355 0.81098,-0.33276 2.99024,-1.73805 2.38834,-1.10076 -0.85749,0.9079 -2.13042,1.30368 -3.19563,1.95551 1.93618,-1.30018 3.27158,-2.10344 5.02801,-3.66869 3.53519,-3.15042 6.07215,-7.15337 7.80021,-11.53916 1.81112,-5.05109 3.55852,-9.96745 1.26704,-15.16595 -0.72074,-1.16709 -0.92942,-1.73961 -2.05034,-2.59971 -2.36826,-1.81718 -5.57899,-1.99331 -8.41608,-2.24156 -6.80076,0.15602 -13.73472,0.69705 -20.10179,3.27184 1.12021,-0.69276 2.11111,-1.66178 3.36063,-2.07828 0.70435,-0.23478 -1.17971,0.92408 -1.64167,1.5053 -2.01579,2.53614 -0.93255,5.05393 0.48389,7.52432 1.19541,1.67197 1.63346,2.49517 3.23578,3.85627 3.02649,2.57089 6.73459,3.50697 10.64596,3.40152 4.15783,-0.14748 8.34042,-0.28079 12.44425,-1.01981 0,0 -5.95882,4.44359 -5.95882,4.44359 z"
       inkscape:connector-curvature="0" /><path
       style="opacity:0.98999999;fill:#ff0066;fill-opacity:1;stroke:#000000;stroke-width:0.89999998;stroke-miterlimit:4;stroke-dasharray:none;stroke-opacity:0.61194033;paint-order:normal"
       id="path34193"
       d="m 224.40414,633.4551 c -3.40819,-0.14613 -6.82209,-0.16709 -10.23202,-0.0831 -2.35234,0.23073 -4.77686,0.27489 -7.06784,0.9288 -0.7096,0.20254 -1.69385,0.64977 -2.37302,0.94129 -3.71062,2.13831 2.54298,-1.46892 3.78417,-2.13545 0.49842,-0.26765 -0.95853,0.60148 -1.42916,0.91541 -1.65896,1.10657 -3.16235,2.29423 -4.64402,3.62653 -1.9457,2.05823 -3.89938,4.44116 -4.4579,7.30851 -0.0837,0.42961 -0.0789,0.8718 -0.11836,1.30769 0.0681,0.40526 0.0684,0.82794 0.20418,1.21577 0.69896,1.99577 2.94987,3.21214 4.75173,3.97379 1.78141,0.48179 3.67046,0.92962 5.53354,0.89128 1.2106,-0.0249 1.63983,-0.21927 2.79918,-0.53546 1.43249,-0.55873 2.78292,-1.30668 4.13125,-2.04027 0.39545,-0.21515 1.56615,-0.88873 1.17567,-0.66469 -5.82876,3.34425 -6.78251,3.92537 -4.29479,2.43129 -0.64591,5.57893 5.0591,-4.95104 7.75644,-3.90191 1.08701,0.42279 1.2762,1.98332 1.41543,2.95122 -0.009,1.71162 -0.80124,2.86111 -2.30476,3.68353 -7.78196,4.25665 -5.16553,3.42305 -9.86723,4.62971 -4.79024,0.94478 -9.5992,1.78016 -14.4392,2.42656 -3.59086,0.47251 -7.20866,0.709 -10.82658,0.84124 -2.08112,0.0699 -4.16325,0.0546 -6.24501,0.0372 -1.48307,-0.0101 -3.02964,-0.0343 -4.45555,-0.50404 -0.84222,-0.27748 -1.09862,-0.5004 -1.84582,-0.96674 -1.00526,-0.80089 -0.55653,-0.37094 -1.3596,-1.27574 0,0 6.28404,-3.79146 6.28404,-3.79146 v 0 c 0.67018,0.78759 0.28274,0.41066 1.18509,1.1069 2.0153,1.10991 3.7896,1.22974 6.06707,1.16476 2.0604,-0.007 4.1209,0.003 6.1812,-0.0182 3.51523,-0.0685 7.02949,-0.24459 10.51807,-0.70605 4.85318,-0.66325 9.68783,-1.44938 14.46121,-2.56126 3.96386,-1.17857 1.77494,-0.72926 -2.32458,2.18185 -0.38198,0.27125 0.87903,-0.34541 1.26755,-0.60719 0.5318,-0.35832 0.86426,-0.87702 1.0592,-1.47073 0.0807,-0.24567 0.0959,-0.50817 0.14391,-0.76225 -0.0488,-0.57373 -0.0619,-1.42524 -0.5337,-1.8619 -0.2443,-0.22612 -0.60519,-0.0373 -0.84342,0.0233 1.83206,-1.07788 3.66411,-2.15577 5.49617,-3.23365 -4.38443,2.55891 -8.70152,5.43779 -13.48485,7.22211 -0.4863,0.0978 -0.96662,0.23246 -1.45889,0.29352 -2.41018,0.29894 -4.88551,-0.31306 -7.16973,-1.01212 -2.03349,-0.95702 -4.29887,-2.31607 -5.11732,-4.5657 -0.16109,-0.44281 -0.18212,-0.92464 -0.27319,-1.38695 0.0292,-0.48269 0.01,-0.97077 0.0875,-1.44807 0.48894,-3.00727 2.49451,-5.5294 4.45485,-7.73159 0.49543,-0.47935 0.9668,-0.98488 1.4863,-1.43804 3.42818,-2.99042 7.89929,-5.27588 11.71176,-7.4643 0.38944,-0.22354 0.80189,-0.40438 1.20283,-0.60657 0.97853,-0.37235 1.3781,-0.5638 2.40824,-0.79534 2.27912,-0.51228 4.6375,-0.53339 6.95549,-0.69933 3.55243,-0.10442 7.10766,-0.0512 10.65895,-0.20394 0,0 -6.01451,4.36979 -6.01451,4.36979 z"
       inkscape:connector-curvature="0" /><path
       style="opacity:0.98999999;fill:#c83771;fill-opacity:1;stroke:#000000;stroke-width:0.89999998;stroke-miterlimit:4;stroke-dasharray:none;stroke-opacity:0.61194033;paint-order:normal"
       id="path34195"
       d="m 242.63295,614.69966 c -0.7527,-1.27493 -1.87633,-2.62863 -2.35672,-4.02912 -0.10558,-0.3078 -0.14043,-0.63549 -0.21064,-0.95323 0.0448,-0.32855 0.0112,-0.67782 0.13444,-0.98564 0.54623,-1.36378 2.06213,-2.24166 3.26067,-2.91854 7.55099,-4.26441 5.00741,-3.20435 9.11423,-4.78953 1.617,-0.45661 3.29832,-1.04726 5.00083,-1.09074 0.85175,-0.0218 1.17833,0.10704 1.97847,0.29693 0.2567,0.16846 0.55294,0.28833 0.77012,0.50538 1.25993,1.25915 1.36991,3.77878 1.54714,5.44669 0.0182,0.71972 0.086,1.20316 -0.0976,1.90077 -0.0989,0.37579 -0.41679,1.09205 -0.78405,1.31406 -6.74423,4.07667 -4.36238,3.97108 -7.82485,3.91889 -2.58509,-0.35114 -2.4721,-2.315 -1.9599,-4.37298 0.18584,-0.3556 0.33449,-0.73327 0.55753,-1.06679 0.34407,-0.5145 1.28712,-1.57734 1.823,-1.91026 3.75711,-2.33408 6.15559,-3.94364 9.85601,-5.26133 1.28728,-0.28564 2.77431,-0.98499 4.10875,-0.49299 0.5903,0.21763 0.77075,0.50459 1.1788,0.93693 1.09219,1.57253 0.71743,3.23413 0.0963,4.90794 -1.24572,2.45636 -2.63361,4.8463 -4.07581,7.19313 -2.72622,4.29422 -7.23337,6.07436 -11.58337,8.59556 -3.19953,1.64977 -6.55391,2.97613 -9.85795,4.40041 -4.77996,2.77932 6.89461,-4.45842 3.80078,-2.09144 0,0 -6.83748,2.79981 -6.83748,2.79981 v 0 c 2.29259,-2.45546 5.61569,-3.62582 8.5963,-5.10086 3.32502,-1.40448 6.6906,-2.7469 9.85282,-4.4981 -9.31396,5.46481 -4.58426,2.90461 -2.73014,1.27778 0.82734,-0.72592 1.50706,-1.55663 2.12507,-2.46551 1.51122,-2.27427 2.90262,-4.6332 4.13908,-7.06807 0.56571,-1.34388 1.04274,-2.76597 0.16624,-4.08994 -0.12137,-0.11475 -0.22325,-0.25451 -0.36412,-0.34426 -1.24231,-0.79148 -3.04904,0.20293 -4.28161,0.47302 -2.32649,0.90363 -7.24166,3.46499 2.48155,-1.86545 0.37497,-0.20556 -0.69725,0.4981 -1.0163,0.7828 -0.30668,0.27366 -0.59272,0.57194 -0.85582,0.88773 -0.22932,0.27524 -0.41131,0.58669 -0.61697,0.88003 -0.50645,1.58783 -0.96913,3.14941 1.29727,3.11935 2.86765,-0.64229 0.96382,-0.29691 -4.89977,3.23067 -0.1959,0.11786 0.41418,-0.20622 0.58464,-0.35856 0.66456,-0.59389 0.70244,-1.45602 0.69096,-2.28227 -0.10026,-1.34439 -0.1531,-3.8556 -1.27721,-4.80665 -0.17582,-0.14875 -0.40941,-0.21103 -0.61412,-0.31654 -2.236,-0.38199 -4.45796,0.28844 -6.56565,1.00994 -3.218,1.32137 -1.40306,0.66288 3.08926,-2.15298 0.45991,-0.28828 -0.96157,0.50616 -1.42085,0.79542 -0.94928,0.59788 -1.81888,1.11849 -2.12386,2.22995 0.0257,0.26813 0.003,0.54544 0.0772,0.80439 0.35317,1.23323 1.61824,2.7717 2.43303,3.77563 0,0 -6.40571,3.82857 -6.40571,3.82857 z"
       inkscape:connector-curvature="0" /></g></svg>