<?xml version="1.0" encoding="UTF-8" standalone="no"?>
<!-- Generator: Adobe Illustrator 16.0.0, SVG Export Plug-In . SVG Version: 6.00 Build 0)  -->

<svg
   xmlns:dc="http://purl.org/dc/elements/1.1/"
   xmlns:cc="http://creativecommons.org/ns#"
   xmlns:rdf="http://www.w3.org/1999/02/22-rdf-syntax-ns#"
   xmlns:svg="http://www.w3.org/2000/svg"
   xmlns="http://www.w3.org/2000/svg"
   xmlns:sodipodi="http://sodipodi.sourceforge.net/DTD/sodipodi-0.dtd"
   xmlns:inkscape="http://www.inkscape.org/namespaces/inkscape"
   version="1.1"
   id="svg2"
   inkscape:version="0.92.2 5c3e80d, 2017-08-06"
   sodipodi:docname="humptywall.svg"
   x="0px"
   y="0px"
   width="430.543px"
   height="325.295px"
   viewBox="0 0 430.543 325.295"
   enable-background="new 0 0 430.543 325.295"
   xml:space="preserve"><metadata
     id="metadata11"><rdf:RDF><cc:Work
         rdf:about=""><dc:format>image/svg+xml</dc:format><dc:type
           rdf:resource="http://purl.org/dc/dcmitype/StillImage" /><dc:title></dc:title></cc:Work></rdf:RDF></metadata><defs
     id="defs3"><inkscape:perspective
       sodipodi:type="inkscape:persp3d"
       inkscape:vp_x="0 : 526.18109 : 1"
       inkscape:vp_y="0 : 1000 : 0"
       inkscape:vp_z="744.09448 : 526.18109 : 1"
       id="perspective2985"
       inkscape:persp3d-origin="372.04724 : 350.78739 : 1" /></defs><sodipodi:namedview
     units="mm"
     pagecolor="#ffffff"
     bordercolor="#666666"
     borderopacity="1.0"
     inkscape:zoom="2.8"
     inkscape:cx="152.44366"
     inkscape:cy="231.3577"
     showgrid="false"
     showguides="true"
     fit-margin-top="0"
     fit-margin-left="0"
     id="base"
     inkscape:document-units="mm"
     inkscape:current-layer="layer1"
     inkscape:object-nodes="true"
     inkscape:window-width="1440"
     inkscape:window-height="766"
     inkscape:window-x="0"
     inkscape:window-y="1"
     inkscape:window-maximized="1"
     inkscape:guide-bbox="true"
     fit-margin-right="0"
     fit-margin-bottom="0"
     inkscape:pageopacity="0.0"
     inkscape:pageshadow="2" /><g
     id="layer1"
     transform="translate(-53.643411,-569.625)"
     inkscape:label="Layer 1"
     inkscape:groupmode="layer"><path
       id="path3910"
       inkscape:connector-curvature="0"
       sodipodi:nodetypes="cccccccc"
       fill="#D7D7F4"
       d="M268.908,570.139   l9.32,5.536l-9.313,5.563l-0.007-0.005L63.471,703.826H63.44l-9.281-5.563L268.908,570.139z" /><path
       id="path3914"
       inkscape:connector-curvature="0"
       sodipodi:nodetypes="ccccc"
       fill="#B3B3B3"
       d="M278.228,575.675v68   L63.455,771.831v-68L278.228,575.675z" /><path
       id="path3916"
       inkscape:connector-curvature="0"
       fill="#F2F2F2"
       d="M54.144,698.276v68l9.311,5.555v-68L54.144,698.276z" /><path
       style="fill:#00ffff;stroke-width:0.50507629"
       d="M 9.8606198,168.1805 V 134.38818 L 35.49324,119.09046 C 147.7883,52.072 219.57944,9.2467322 222.11892,7.7634279 l 2.39911,-1.4013138 V 40.127173 73.892232 L 117.8871,137.52861 C 59.24009,172.52863 10.942172,201.34676 10.558395,201.56891 9.9676738,201.91084 9.8606198,196.78833 9.8606198,168.1805 Z"
       id="path13"
       inkscape:connector-curvature="0"
       transform="translate(53.643411,569.625)" /><path
       style="fill:#00ffff;stroke-width:0.50507629"
       d="M 4.9254504,131.15326 0.74789524,128.60065 107.45593,64.929189 C 166.14535,29.909884 214.51813,1.1626367 214.951,1.0464153 c 0.76197,-0.2045852 9.0245,4.3328502 9.04954,4.9696355 0.007,0.1735603 -19.93178,12.2103392 -44.30802,26.7483982 -24.37625,14.538058 -49.88891,29.76033 -56.69482,33.827264 -6.8059,4.06694 -24.306791,14.508114 -38.890869,23.202608 C 69.522754,98.48882 50.658155,109.74571 42.185501,114.80963 12.89522,132.31579 10.459772,133.73725 9.7828199,133.7216 9.408922,133.71296 7.2231055,132.5572 4.9254504,131.15326 Z"
       id="path15"
       inkscape:connector-curvature="0"
       transform="translate(53.643411,569.625)" /><path
       style="fill:#00ffff;stroke-width:0.50507629"
       d="m 4.9361262,199.48549 -4.67195548,-2.85945 v -34.25835 c 0,-28.45413 0.11347089,-34.14489 0.66973992,-33.58862 0.36835696,0.36835 2.51840386,1.69147 4.77788186,2.94026 l 4.1081424,2.27053 0.1466115,34.21898 c 0.080637,18.82045 0.032969,34.20034 -0.1059266,34.17755 -0.1388959,-0.0228 -2.3549181,-1.3282 -4.9244936,-2.9009 z"
       id="path17"
       inkscape:connector-curvature="0"
       transform="translate(53.643411,569.625)" /><path
       style="fill:#ffb380;stroke-width:0.50507629"
       d="m 10.419738,200.11354 c -0.168616,-0.43941 -0.306575,-15.38841 -0.306575,-33.22 V 134.47246 L 116.75453,70.844092 C 175.40728,35.848484 223.59156,7.1399535 223.8307,7.0473562 c 0.24042,-0.093092 0.42903,14.8097058 0.4219,33.3350338 l -0.0129,33.503393 -106.48107,63.513337 c -58.564585,34.93234 -106.605097,63.51334 -106.756691,63.51334 -0.151594,0 -0.413584,-0.35951 -0.582201,-0.79892 z"
       id="path14"
       inkscape:connector-curvature="0"
       transform="translate(53.643411,569.625)" /><path
       style="fill:#ffb380;stroke-width:0.50507629"
       d="M 5.6717366,131.31768 C 3.396014,130.00946 1.5892617,128.77549 1.6567317,128.57552 1.7754972,128.22351 19.846431,117.40231 122.49263,56.216725 180.5014,21.638725 210.09692,4.0527933 213.07841,2.389814 l 2.19745,-1.2256596 3.82224,2.0156277 c 2.10223,1.1085953 3.90909,2.2773491 4.01525,2.5972306 0.20398,0.614632 -23.113,14.6952553 -121.58138,73.4203993 C 27.415722,123.39929 16.173177,130.08896 12.612939,132.10709 l -2.8035246,1.58918 z"
       id="path16"
       inkscape:connector-curvature="0"
       transform="translate(53.643411,569.625)" /><path
       style="fill:#ff7f2a;stroke-width:0.50507629"
       d="m 4.9361309,199.27757 -4.41941734,-2.63529 0.007734,-33.09398 c 0.004253,-18.20169 0.17471699,-33.34553 0.3788072,-33.65299 0.24791234,-0.37347 1.74765024,0.21326 4.51858514,1.76777 l 4.1475116,2.32678 0.01937,33.96638 c 0.010652,18.68151 -0.037456,33.96418 -0.1069019,33.9615 -0.069448,-0.003 -2.1150069,-1.19076 -4.5456865,-2.64017 z"
       id="path18"
       inkscape:connector-curvature="0"
       transform="translate(53.643411,569.625)" /><path
       style="fill:#ff7f2a;stroke-width:0.50507629"
       d="m 10.389094,175.56323 c -0.192502,-13.69822 -0.276517,-28.51905 -0.186699,-32.93519 l 0.163306,-8.02934 46.719555,-27.88209 C 82.781011,91.381458 130.738,62.784413 163.65635,43.167628 l 59.85154,-35.6668877 0.37466,20.8181527 c 0.20607,11.449984 0.31972,26.358968 0.25254,33.131073 l -0.12213,12.312926 -42.67894,25.461592 C 137.37715,125.44846 36.196988,185.71854 20.972302,194.74729 c -4.722463,2.80058 -8.95685,5.23367 -9.40975,5.40688 -0.751475,0.28739 -0.854047,-1.86211 -1.173458,-24.59094 z"
       id="path20"
       inkscape:connector-curvature="0"
       transform="translate(53.643411,569.625)" /><path
       style="fill:#ff7f2a;stroke-width:0.50507629"
       d="M 10.937631,193.21005 C 10.439429,181.68007 10.10618,145.86536 10.442995,140.05077 l 0.321827,-5.55584 22.528871,-13.43337 C 45.684573,113.6732 68.323203,100.17213 83.60176,91.059179 98.880317,81.946234 136.49587,59.51955 167.19188,41.222102 l 55.81093,-33.268082 0.32532,4.429072 c 0.17893,2.43599 0.3446,17.270636 0.36814,32.965881 l 0.0428,28.53681 -8.19683,4.849171 c -4.50827,2.66704 -49.78987,29.622676 -100.62579,59.901416 -104.409193,62.18788 -102.854188,61.26594 -103.335588,61.26594 -0.194757,0 -0.484228,-3.01152 -0.643271,-6.69226 z"
       id="path22"
       inkscape:connector-curvature="0"
       transform="translate(53.643411,569.625)" /><path
       style="fill:#ff9955;stroke-width:0.50507629"
       d="M 10.934189,194.47274 C 10.405958,184.89757 9.9811036,144.6655 10.353601,139.49342 l 0.359995,-4.99849 17.75626,-10.60128 C 151.48402,50.448639 222.95382,8.0084624 223.20293,8.2573125 c 0.16773,0.16755 0.37525,15.0024995 0.46117,32.9665535 l 0.15622,32.661917 -18.84404,11.199924 C 194.61206,91.245663 171.4724,105.02022 153.55482,115.69584 14.122401,198.77219 12.217127,199.90231 11.590674,199.90231 c -0.196325,0 -0.491743,-2.4433 -0.656485,-5.42957 z"
       id="path24"
       inkscape:connector-curvature="0"
       transform="translate(53.643411,569.625)" /><path
       style="fill:#ff9955;stroke-width:0.50507629"
       d="M 8.3453957,132.63076 C 7.7898118,132.31684 6.1113368,131.28419 4.6154508,130.33597 L 1.8956584,128.61193 6.635756,125.69929 C 15.275109,120.3907 172.55615,26.591054 205.22716,7.2628735 l 10.00354,-5.9180977 3.55931,1.9568788 c 1.95763,1.0762833 3.57635,2.1699603 3.59715,2.4303933 0.0208,0.260433 -2.21865,1.9003348 -4.97656,3.6442263 C 209.91577,14.115425 145.95271,52.484297 82.339069,90.400266 15.27707,130.37158 10.424283,133.23679 9.8209528,133.21688 c -0.2559726,-0.008 -0.9199732,-0.2722 -1.4755571,-0.58612 z"
       id="path26"
       inkscape:connector-curvature="0"
       transform="translate(53.643411,569.625)" /><path
       style="fill:#ff9955;stroke-width:0.50507629"
       d="M 4.6101552,198.77483 0.36983845,196.20481 0.73972337,163.32957 C 0.94316011,145.24819 1.2206109,130.3425 1.3562807,130.20583 c 0.1356699,-0.13667 1.8997402,0.62519 3.9201565,1.69303 l 3.6734838,1.94151 0.2170808,18.00495 c 0.119394,9.90273 0.097018,25.09123 -0.049725,33.75224 l -0.266805,15.74729 z"
       id="path28"
       inkscape:connector-curvature="0"
       transform="translate(53.643411,569.625)" /><path
       style="fill:#008000;stroke-width:0.50507629"
       d="m 11.410758,199.74483 c 0.19088,-0.30885 0.08093,-0.72602 -0.244338,-0.92705 -0.439915,-0.27188 -0.618199,-8.5512 -0.696053,-32.32388 L 10.365706,134.53552 33.851752,120.5261 C 135.00889,60.185915 170.27686,39.187046 170.46215,39.187046 c 0.11805,0 1.22495,-0.681853 2.45977,-1.515229 1.23483,-0.833376 2.46151,-1.515229 2.72596,-1.515229 0.26445,0 1.00494,-0.454568 1.64553,-1.010152 0.6406,-0.555584 1.47087,-1.010153 1.84505,-1.010153 0.37418,0 0.68033,-0.211968 0.68033,-0.47104 0,-0.259072 0.50079,-0.629985 1.11287,-0.82425 0.61208,-0.194266 1.4238,-0.66415 1.80384,-1.044189 0.38004,-0.380038 1.01567,-0.690978 1.41252,-0.690978 0.39684,0 0.72154,-0.209659 0.72154,-0.465907 0,-0.256248 0.79549,-0.728444 1.76776,-1.049322 0.97228,-0.320879 1.76777,-0.768434 1.76777,-0.994568 0,-0.226134 0.56821,-0.553764 1.26269,-0.728068 0.69448,-0.174303 1.26269,-0.539869 1.26269,-0.812368 0,-0.2725 0.3247,-0.495454 0.72154,-0.495454 0.39685,0 1.03248,-0.31094 1.41252,-0.690979 0.38003,-0.380038 1.19176,-0.849923 1.80384,-1.044188 0.61208,-0.194266 1.11286,-0.565178 1.11286,-0.82425 0,-0.259072 0.3247,-0.47104 0.72154,-0.47104 0.39685,0 1.03248,-0.310941 1.41252,-0.690979 0.38004,-0.380039 1.19177,-0.849923 1.80384,-1.044189 0.61208,-0.194265 1.11287,-0.578591 1.11287,-0.854058 0,-0.275467 0.19286,-0.381652 0.42858,-0.235968 0.23572,0.145685 0.96906,-0.23865 1.62965,-0.854075 0.66058,-0.615426 1.25584,-1.005314 1.3228,-0.866418 0.067,0.138896 0.64051,-0.191636 1.27455,-0.734517 0.63404,-0.54288 1.26644,-0.938767 1.40533,-0.87975 0.1389,0.05902 0.59347,-0.184605 1.01015,-0.541384 0.41669,-0.35678 0.92071,-0.642745 1.12005,-0.635479 0.19934,0.0073 0.80516,-0.365865 1.34627,-0.82918 0.54112,-0.463315 1.1167,-0.70954 1.27907,-0.547166 0.16237,0.162374 0.29523,0.01665 0.29523,-0.323839 0,-0.340485 0.19286,-0.499868 0.42858,-0.354183 0.23572,0.145684 0.86963,-0.125008 1.40868,-0.601537 0.53905,-0.47653 1.31215,-0.93573 1.71799,-1.020445 0.40584,-0.08471 0.966,-0.425641 1.2448,-0.757614 0.27879,-0.331973 0.84701,-0.6729 1.26269,-0.757614 0.41568,-0.08471 1.04967,-0.539284 1.40887,-1.010153 0.3592,-0.4708694 0.75695,-0.7993051 0.88389,-0.7298571 0.59338,0.3246425 1.32179,0.045426 2.21707,-0.8498623 0.9648,-0.9647911 0.97544,-0.8577035 0.91644,9.2176414 -0.0328,5.606576 0.0748,20.478111 0.23912,33.047857 l 0.29883,22.854082 -1.34153,0.935254 c -0.73784,0.514385 -21.11526,12.711593 -45.28316,27.104901 -24.1679,14.39331 -55.07857,32.80327 -68.69037,40.91102 C 4.3586606,204.7248 10.599547,201.0574 11.410758,199.74483 Z"
       id="path104"
       inkscape:connector-curvature="0"
       transform="translate(53.643411,569.625)" /><path
       style="fill:#008000;stroke-width:0.50507629"
       d="m 5.9462882,131.08018 c -1.8750957,-1.12504 -3.4092649,-2.23445 -3.4092649,-2.46536 0,-0.41584 30.5854817,-18.78849 119.4505367,-71.753741 72.05002,-42.943172 92.81885,-55.218895 93.40246,-55.2069265 0.76185,0.015624 6.85518,3.6632273 6.85518,4.1036644 0,0.8441188 -13.24901,8.8996761 -92.93403,56.5050021 C 27.304681,123.20341 10.565502,133.13258 9.8416944,133.12847 c -0.2673777,-0.002 -2.0203106,-0.92325 -3.8954062,-2.04829 z"
       id="path106"
       inkscape:connector-curvature="0"
       transform="translate(53.643411,569.625)" /><path
       style="fill:#ffccaa;stroke-width:0.50507629"
       d="M 4.3047903,198.58268 0.76925641,196.39683 0.89907712,165.90045 C 0.97047849,149.12744 1.1576018,134.20839 1.3149067,132.74699 l 0.2860089,-2.65708 3.6247808,1.89947 3.6247803,1.89947 0.1442023,31.8198 c 0.1370479,30.24102 0.025754,35.13104 -0.7984341,35.08134 -0.1957565,-0.0118 -1.946911,-1.0051 -3.8914546,-2.20731 z"
       id="path108"
       inkscape:connector-curvature="0"
       transform="translate(53.643411,569.625)" /><path
       style="fill:#008000;stroke-width:0.50507629"
       d="M 4.1453344,198.3909 0.95542085,196.5183 1.1158013,163.85578 C 1.2040105,145.89139 1.4194375,131.05 1.594528,130.87491 c 0.1750904,-0.17509 1.8224857,0.42338 3.6608785,1.32993 l 3.3425321,1.64828 0.00409,13.14985 c 0.00222,7.23241 0.1469267,17.01368 0.32153,21.73614 0.4184658,11.31815 -0.2321295,31.57494 -1.0131698,31.54583 -0.3163162,-0.0118 -2.0105814,-0.86411 -3.7650338,-1.89404 z"
       id="path112"
       inkscape:connector-curvature="0"
       transform="translate(53.643411,569.625)" /><path
       style="fill:#008000;stroke-width:0.50507629"
       d="M 11.267926,198.41942 C 11.057129,197.65159 10.881537,182.95266 10.87772,165.75511 L 10.87082,134.48684 69.207129,99.697324 C 101.29206,80.563091 137.99848,58.705501 150.77691,51.124902 c 25.81606,-15.314969 24.6723,-14.634312 31.17222,-18.550698 2.5785,-1.553623 5.02912,-2.976653 5.44581,-3.162289 0.41669,-0.185635 1.43947,-0.787082 2.27284,-1.336547 0.83338,-0.549465 1.85616,-1.15539 2.27284,-1.346498 0.41669,-0.191109 1.66676,-0.9248 2.77792,-1.630424 1.11117,-0.705624 2.79353,-1.707147 3.73858,-2.225605 0.94505,-0.518457 2.64968,-1.544079 3.78808,-2.279159 2.69937,-1.743039 3.46308,-2.207272 5.18514,-3.151893 0.78669,-0.431525 3.81682,-2.20239 6.73364,-3.935256 5.32054,-3.160909 5.9035,-3.494099 7.89515,-4.5124924 l 1.07661,-0.5505093 0.3523,27.3673187 c 0.19376,15.052025 0.27749,29.753804 0.18607,32.670619 l -0.16622,5.303301 -7.82868,4.742348 C 196.65511,90.051277 15.752103,197.69479 13.131787,199.04981 c -1.447314,0.74843 -1.489208,0.73426 -1.863861,-0.63039 z"
       id="path114"
       inkscape:connector-curvature="0"
       transform="translate(53.643411,569.625)" /><ellipse
       style="fill:#ffccaa"
       id="path118"
       cx="167.79065"
       cy="657.02911"
       rx="6.060915"
       ry="8.0812206" /><ellipse
       style="fill:#ffccaa"
       id="path120"
       cx="171.07364"
       cy="677.98975"
       rx="12.879445"
       ry="15.404826" /><rect
       style="fill:#ffccaa"
       id="rect122"
       width="6.060915"
       height="16.162441"
       x="181.4277"
       y="653.99866" /><rect
       style="fill:#ffccaa"
       id="rect124"
       width="9.5964489"
       height="11.111678"
       x="149.10283"
       y="666.62555" /><ellipse
       style="fill:#d45500;stroke-width:1.70412648"
       id="path126"
       cx="171.3262"
       cy="677.98981"
       rx="12.626903"
       ry="5.808363" /><ellipse
       style="fill:#000000"
       id="path128"
       cx="165.70721"
       cy="656.1452"
       rx="1.1995561"
       ry="1.2626907" /><ellipse
       style="fill:#000000"
       id="path130"
       cx="170.06349"
       cy="656.58716"
       rx="1.1364216"
       ry="0.94701803" /><path
       style="fill:#ffffff"
       id="path132"
       d="m 193.80234,646.85095 c 0.41141,0.86233 0.95516,1.65336 1.46545,2.45897 0.7136,1.09287 1.47796,2.15143 2.20145,3.23788 0.71954,1.10156 1.4963,2.16278 2.19598,3.27736 0.71894,1.14791 1.39765,2.31962 2.14099,3.45255 0.53863,0.86337 1.09476,1.7169 1.67591,2.55238 0.25133,0.30798 0.43685,0.67074 0.71748,0.95469 0.0956,0.0924 0.15938,0.18951 0.18342,0.32201 0.001,0.0101 0.002,0.0202 0.004,0.0303 0,0 -1.69105,0.84441 -1.69105,0.84441 v 0 c 0.002,-0.004 0.005,-0.008 0.007,-0.0122 0.0274,-0.0954 -0.0586,-0.14331 -0.10866,-0.21432 -0.25342,-0.31714 -0.45141,-0.67053 -0.68547,-1.0015 -0.55896,-0.85102 -1.10157,-1.71314 -1.63396,-2.58095 -0.73125,-1.14116 -1.42625,-2.30404 -2.13959,-3.45611 -0.70149,-1.11133 -1.48073,-2.16955 -2.19793,-3.27069 -0.72707,-1.08572 -1.47833,-2.15479 -2.20972,-3.23734 -0.51832,-0.80641 -1.06375,-1.59614 -1.54228,-2.4273 0,0 1.61726,-0.93017 1.61726,-0.93017 z"
       inkscape:connector-curvature="0" /><path
       style="fill:#ffffff"
       id="path134"
       d="m 198.72013,657.17086 c 0.76972,-0.47235 1.50098,-1.00134 2.25132,-1.50308 0.67778,-0.48472 1.3565,-0.96378 2.06644,-1.40039 5.75249,-3.30527 -3.59796,2.05543 2.0748,-1.1951 0,0 -1.46681,1.17497 -1.46681,1.17497 v 0 c 5.08689,-2.94534 -3.64913,2.11942 1.11411,-0.64586 -0.28141,0.17093 -0.567,0.33514 -0.84298,0.5149 -0.50261,0.32738 -0.28928,0.19986 -0.81288,0.57449 -0.15501,0.1109 -0.31282,0.21784 -0.46923,0.32676 -0.73213,0.47979 -1.42577,1.0139 -2.17521,1.46619 0,0 -1.73956,0.68712 -1.73956,0.68712 z"
       inkscape:connector-curvature="0" /><path
       style="fill:#ffffff"
       id="path136"
       d="m 202.01381,646.0244 c 0.63275,0.63913 1.15622,1.37252 1.71026,2.07814 0.6333,0.85057 1.17531,1.76157 1.66072,2.7031 0.43964,0.92629 0.8567,1.86281 1.31559,2.77995 0.7226,1.46268 1.44945,2.92316 2.18063,4.38173 0.63694,1.25643 1.30399,2.49666 1.93012,3.75863 0.12308,0.28782 0.2911,0.55346 0.42972,0.83325 0.0669,0.13509 0.11538,0.23598 0.20601,0.35407 0.0646,0.0552 0.0912,0.12895 0.1143,0.20838 0,0 -1.6683,0.88795 -1.6683,0.88795 v 0 c 9e-5,-0.0624 -0.0224,-0.0933 -0.0633,-0.14465 -0.24456,-0.38882 -0.38251,-0.83846 -0.58663,-1.24931 -0.5949,-1.27762 -1.21974,-2.53923 -1.86094,-3.79441 -0.73338,-1.45589 -1.48354,-2.90314 -2.23186,-4.35127 -0.47313,-0.9093 -0.90454,-1.8377 -1.33245,-2.7688 -0.4861,-0.92796 -0.99655,-1.84286 -1.62238,-2.68583 -0.55929,-0.69875 -1.09767,-1.42353 -1.77651,-2.01351 0,0 1.59501,-0.97742 1.59501,-0.97742 z"
       inkscape:connector-curvature="0" /><path
       style="fill:#ffffff"
       id="path138"
       d="m 207.20851,644.44023 c 0.86633,1.06001 1.71249,2.13601 2.58292,3.19278 1.08905,1.38086 2.19399,2.74883 3.29508,4.11996 0.4842,0.60448 0.96071,1.21591 1.5247,1.74869 0.19893,0.21985 0.43115,0.20415 0.70669,0.2129 0.70418,0.006 1.40785,0.02 2.11152,0.0473 0.96515,0.0243 1.92457,0.13417 2.8846,0.2275 0.49118,0.0461 0.98366,0.0792 1.47692,0.0901 0.49103,-0.47685 0.009,9.1e-4 -1.49895,0.82848 -0.0219,0.012 0.0379,-0.0346 0.0484,-0.0573 0.0562,-0.1214 0.0229,-0.26641 0.004,-0.39013 -0.11279,-0.40556 -0.3344,-0.7694 -0.52915,-1.13958 -0.20388,-0.41093 -0.37047,-0.83764 -0.54488,-1.26181 -0.22658,-0.57808 -0.44699,-1.15796 -0.66526,-1.73924 -0.2738,-0.76327 -0.60212,-1.49946 -0.99569,-2.2078 -0.48768,-0.80237 -1.03477,-1.56432 -1.5147,-2.37196 -0.70039,-1.20199 -1.32577,-2.44637 -1.95571,-3.68633 -0.28937,-0.49997 -0.49902,-1.04417 -0.77967,-1.5479 -0.0559,-0.0995 -0.0973,-0.15017 -0.20699,-0.11476 -0.048,0.008 -0.0246,0.004 -0.0703,0.0115 0,0 1.52179,-1.11668 1.52179,-1.11668 v 0 c 0.0529,0.003 0.0252,4.7e-4 0.0829,0.008 0.14342,0.0458 0.23195,0.14994 0.29559,0.28473 0.25215,0.52195 0.43787,1.07761 0.71213,1.59037 0.59914,1.24884 1.20932,2.49779 1.92888,3.68223 0.50995,0.79261 1.0925,1.53617 1.56985,2.34994 0.39648,0.71635 0.71046,1.46771 1.00086,2.23281 0.23305,0.57241 0.45951,1.147 0.69525,1.71843 0.17403,0.4181 0.3253,0.84426 0.53093,1.24808 0.21056,0.38246 0.43249,0.7653 0.56683,1.18248 0.21488,0.92599 -0.23521,1.6394 -1.71663,1.58991 -0.47996,-0.037 -0.95971,-0.0772 -1.43821,-0.13023 -0.95423,-0.10613 -1.91014,-0.20947 -2.87132,-0.22069 -0.7169,-0.0162 -1.43366,-0.0232 -2.15068,-0.0221 -0.34171,-0.0187 -0.5534,-0.0571 -0.78342,-0.32704 -0.53557,-0.56304 -0.97884,-1.20414 -1.45564,-1.81583 -1.07271,-1.38944 -2.14544,-2.77917 -3.2613,-4.13451 -0.88814,-1.05296 -1.73688,-2.14339 -2.70132,-3.12904 0,0 1.60014,-0.9534 1.60014,-0.9534 z"
       inkscape:connector-curvature="0" /><path
       style="fill:#ffffff"
       id="path140"
       d="m 221.04486,639.20603 c 0.24971,0.91972 0.62604,1.80439 1.00887,2.676 0.47313,1.15903 0.93528,2.32251 1.42134,3.47621 0.44091,1.0065 0.90281,2.0049 1.4135,2.97809 0.17158,0.40327 0.44379,0.75289 0.61389,1.15634 0.0101,0.0225 0.0395,0.0903 0.0303,0.0675 -0.28239,-0.69792 -0.23509,0.004 -1.64325,0.88576 0,0 1.63621,-0.93813 1.63621,-0.93813 v 0 c -0.30018,0.20785 -1.39126,1.69948 -1.65947,0.89692 -0.14534,-0.40746 -0.39986,-0.76506 -0.55708,-1.16791 -0.48529,-0.99169 -0.93684,-1.99957 -1.38071,-3.01037 -0.4944,-1.14873 -0.95335,-2.31216 -1.43263,-3.46722 -0.39067,-0.88177 -0.76491,-1.7717 -1.09562,-2.67755 0,0 1.64468,-0.87561 1.64468,-0.87561 z"
       inkscape:connector-curvature="0" /><path
       style="fill:#ffffff"
       id="path142"
       d="m 221.21528,638.8745 c 0.75746,0.40983 1.53099,0.7857 2.30565,1.16178 0.66841,0.36966 1.38685,0.63846 2.06911,0.97864 0.19169,0.0905 0.40516,0.15097 0.58772,0.26126 0.14145,0.0855 0.0213,0.0357 0.12951,0.0759 0.0972,-0.014 0.16095,0.0646 0.22287,0.13035 0.01,-0.004 0.0199,-0.0169 0.029,-0.0118 0.0269,0.0151 0.0422,0.0453 0.066,0.0649 0.0444,0.0365 0.0555,0.0178 0.10568,0.0575 0.12203,0.0965 0.012,0.0555 0.12756,0.0872 0.0579,-8e-5 0.1802,0.0627 0.23593,0.031 0.0138,-0.008 0.0365,-0.0496 0.0225,-0.042 -0.53143,0.29086 -1.05442,0.59689 -1.58163,0.89534 0.0187,-0.0192 0.0448,-0.0333 0.0562,-0.0576 0.0962,-0.20538 0.08,-0.69218 0.0849,-0.91935 0.0165,-0.52983 -0.0327,-1.05854 -0.0586,-1.58737 -0.0301,-0.87302 -0.0387,-1.74681 -0.0442,-2.62031 -0.0109,-0.51203 -0.0124,-1.02437 -0.0273,-1.5363 -0.0245,-0.74024 -0.30255,-0.16585 1.69493,-0.90641 0.0426,-0.0158 0.0253,0.0873 0.0379,0.13104 0.075,0.26096 -0.007,-0.0231 0.0821,0.28435 0.14031,0.39004 0.21361,0.79842 0.31265,1.1998 0.30394,1.07241 0.88586,2.03354 1.46442,2.97573 0.87799,1.41451 1.80966,2.7948 2.70656,4.19751 0.55502,0.80117 1.06073,1.63325 1.58437,2.45428 0.29016,0.44414 0.57379,0.89258 0.86682,1.33483 0.0901,0.15612 0.16864,0.31576 0.2378,0.48197 0,0 -1.62659,0.90855 -1.62659,0.90855 v 0 c -0.0606,-0.15747 -0.13836,-0.30261 -0.2155,-0.45259 -0.28719,-0.44681 -0.55323,-0.90775 -0.8429,-1.35336 -0.50485,-0.83144 -0.99216,-1.67319 -1.52763,-2.48609 -0.87899,-1.41448 -1.77677,-2.81579 -2.69848,-4.20289 -0.60326,-0.94619 -1.2131,-1.90749 -1.57086,-2.97854 -0.10902,-0.39467 -0.18749,-0.79689 -0.32453,-1.18299 -0.008,-0.0226 -0.12968,-0.38934 -0.11962,-0.39635 1.95036,-1.35819 1.62749,-1.59284 1.6034,-0.85689 -0.0156,0.51984 -0.0165,1.04014 -0.0223,1.56015 0.005,0.86838 0.006,1.73716 0.0554,2.60446 0.0326,0.5298 0.10495,1.05791 0.0857,1.5893 -0.008,0.36843 -0.0166,0.73611 -0.0498,1.10313 -0.96131,0.55913 -1.22004,1.21981 -1.99242,0.85889 -0.1205,-0.0811 -0.24003,-0.16128 -0.3621,-0.2385 -0.0627,-0.0492 -0.12231,-0.0505 -0.19346,-0.0894 -0.2148,-0.14256 -0.45312,-0.2425 -0.68477,-0.35412 -0.67264,-0.34166 -1.36582,-0.64273 -2.03014,-1.00107 -0.78042,-0.37765 -1.5538,-0.77581 -2.35371,-1.10933 0,0 1.55173,-1.04447 1.55173,-1.04447 z"
       inkscape:connector-curvature="0" /><path
       style="fill:#ffffff"
       id="path144"
       d="m 232.41939,632.95713 c 0.53469,0.98471 1.15253,1.92288 1.7594,2.86425 0.71332,1.14227 1.5214,2.22521 2.21166,3.38135 0.0828,0.14292 0.16314,0.2873 0.24842,0.42874 0.27875,0.46232 0.17445,0.24522 0.41286,0.69043 0.13271,0.24783 0.24941,0.50391 0.37924,0.75326 0.088,0.13816 0.13073,0.29897 0.19997,0.44527 0.0353,0.0747 0.0907,0.1402 0.12782,0.21488 0.0528,0.10105 0.13088,0.1639 0.1798,0.26887 0.008,-0.0588 -0.003,-0.0389 0.0587,0.0334 0,0 -1.60524,0.9838 -1.60524,0.9838 v 0 c -0.0607,-0.0428 -0.0239,-0.0134 -0.10198,-0.0979 -0.0286,-0.099 -0.14438,-0.15388 -0.16817,-0.26135 -0.0363,-0.0832 -0.0927,-0.15527 -0.12933,-0.23769 -0.0622,-0.13999 -0.084,-0.30097 -0.16763,-0.43293 -0.12599,-0.25087 -0.23221,-0.50951 -0.35761,-0.76074 -0.22775,-0.45624 -0.11534,-0.21516 -0.39147,-0.69889 -0.0815,-0.14282 -0.1585,-0.28819 -0.23775,-0.43229 -0.66153,-1.16974 -1.46388,-2.25357 -2.18311,-3.38792 -0.6202,-0.95098 -1.23399,-1.90599 -1.87066,-2.84615 0,0 1.6351,-0.90843 1.6351,-0.90843 z"
       inkscape:connector-curvature="0" /><path
       style="fill:#ffffff"
       id="path146"
       d="m 233.69729,632.86661 c 0.52919,0.0125 1.05874,0.0105 1.58806,0.007 0.31869,-0.003 0.6374,-0.005 0.95608,-0.008 0.0274,-4.1e-4 0.055,-0.005 0.0822,-0.001 0.11493,0.0156 0.12967,0.0453 0.24894,0.0741 0.20119,0.0487 0.0906,-0.005 0.30612,0.0365 0.0652,0.0125 0.12793,0.0354 0.19189,0.0531 0.26823,0.12408 0.56387,0.16223 0.84288,0.2488 0.25307,0.0999 0.12941,0.0576 0.37011,0.12938 0.22917,0.102 0.46498,0.13564 0.60127,0.3611 0.0791,0.15952 0.0825,0.33746 0.0814,0.51173 0.0124,0.2388 -0.0178,0.46968 -0.063,0.70347 -0.13391,0.50988 -0.27758,1.01712 -0.45781,1.51301 -0.15317,0.4606 -0.29554,0.92605 -0.52934,1.35368 -0.0994,0.17052 -0.21164,0.34575 -0.36616,0.47206 -1.25314,0.90588 -1.10722,0.97868 -1.90876,0.95946 -0.18484,-0.0121 -0.14602,0.0457 -0.24471,-0.15928 0,0 1.66139,-0.89153 1.66139,-0.89153 v 0 c -0.10453,-0.11867 0.01,-0.042 0.10937,-0.0598 0.55498,-0.0251 2.38419,-1.7352 -1.36593,0.85004 0.0386,-0.0286 0.0886,-0.0403 0.12494,-0.0717 0.0245,-0.0212 0.0354,-0.0545 0.0567,-0.0789 0.0842,-0.096 0.19885,-0.12889 0.22552,-0.27301 0.30383,-0.37622 0.40874,-0.87806 0.56743,-1.32477 0.18734,-0.48053 0.31319,-0.97533 0.45468,-1.47007 0.007,-0.0583 0.0148,-0.1166 0.0222,-0.1749 0.0122,-0.04 0.0297,-0.0788 0.0365,-0.12011 0.0202,-0.12188 -0.0135,-0.25274 0.004,-0.37547 -4.3e-4,-0.14013 0.0135,-0.28585 -0.0337,-0.42024 -0.0989,-0.15833 -0.36599,-0.16733 -0.51448,-0.25836 -0.39666,-0.13657 -0.80185,-0.24251 -1.2026,-0.36635 -0.27058,-0.0494 -0.5431,-0.11093 -0.81791,-0.11862 -0.31129,-0.004 -0.62259,-0.005 -0.93389,-0.008 -0.53586,-0.004 -1.07194,-0.005 -1.60769,0.007 0,0 1.51448,-1.10033 1.51448,-1.10033 z"
       inkscape:connector-curvature="0" /><path
       style="fill:#ffffff"
       id="path148"
       d="m 246.71655,626.20274 c -0.10133,2.09058 0.73378,4.09687 1.35032,6.06113 0.83986,2.46526 1.75938,4.90019 2.76394,7.30277 0.81673,1.91999 1.81166,3.75428 2.73088,5.62487 0.54543,1.02071 1.10437,2.0335 1.74634,2.99709 0.19123,0.32515 0.0935,0.1833 0.28366,0.43207 0,0 -4.57868,2.6989 -4.57868,2.6989 v 0 c -0.19293,-0.29358 -0.0958,-0.1386 -0.28958,-0.46604 -0.58238,-1.01951 -1.13794,-2.05308 -1.66795,-3.10085 -0.92156,-1.88308 -1.89185,-3.74244 -2.70453,-5.67701 -0.99618,-2.42308 -1.90561,-4.87736 -2.76413,-7.35274 -0.64125,-1.99547 -1.50237,-4.00221 -1.58798,-6.1164 0,0 4.71771,-2.40379 4.71771,-2.40379 z"
       inkscape:connector-curvature="0" /><path
       style="fill:#ffffff"
       id="path150"
       d="m 239.30173,626.44134 c 2.38105,-0.45752 4.55672,-1.55603 6.73009,-2.58446 2.71776,-1.28038 5.36702,-2.70463 8.09137,-3.96998 0.97744,-0.56582 2.04904,-0.91936 3.07184,-1.37948 0.37208,-0.16739 0.72539,-0.37427 1.09586,-0.54516 0.19451,-0.11898 0.78171,-0.46965 0.58351,-0.35693 -1.24666,0.70896 -2.47239,1.45495 -3.72917,2.14583 -0.28442,0.15635 0.53884,-0.36196 0.80962,-0.5409 0.48218,-0.31864 1.28178,-0.84386 1.7752,-1.13203 1.78572,-1.0429 3.58165,-2.06822 5.37248,-3.10233 -7.6905,4.40915 -1.18396,0.67039 1.73755,-0.95875 0.78222,-0.43619 1.61451,-0.77544 2.42258,-1.15804 0.40484,-0.15149 0.2148,-0.0857 0.56885,-0.2011 0,0 -4.18781,3.26851 -4.18781,3.26851 v 0 c -0.31854,0.12564 -0.14671,0.0549 -0.51429,0.21518 -0.5263,0.23142 -1.04548,0.4729 -1.56023,0.72936 -0.25784,0.12847 -1.01724,0.53974 -0.77153,0.38937 1.44312,-0.88316 10.51307,-6.13179 -1.703,0.95767 1.14933,-0.66801 2.29269,-1.3464 3.44799,-2.00403 0.30982,-0.17636 -0.60829,0.37196 -0.91117,0.56 -0.28633,0.17778 -0.57749,0.34828 -0.85645,0.53743 -0.26542,0.17998 -0.50068,0.40411 -0.77559,0.56924 -3.73662,2.24447 -3.62266,2.17425 -5.81438,3.34875 -1.35042,0.64306 -2.7523,1.17061 -4.08335,1.85744 -2.68817,1.27072 -5.32988,2.63895 -8.01706,3.91229 -2.26118,1.0612 -4.53101,2.12688 -6.98746,2.65716 0,0 4.20455,-3.21504 4.20455,-3.21504 z"
       inkscape:connector-curvature="0" /><path
       style="fill:#ffffff"
       id="path152"
       d="m 258.57656,623.14963 c 0.25013,0.87447 0.76883,1.57659 1.4061,2.20789 0.28105,0.44055 0.73231,0.69603 1.09365,1.0593 0.13224,0.13296 0.23645,0.29295 0.37481,0.41953 0.2444,0.2236 0.52969,0.39855 0.78225,0.61288 0.58072,0.50344 1.16588,1.03266 1.83614,1.41612 0.44167,0.26777 0.7664,0.65164 1.16876,0.96415 0.17811,0.1847 0.0888,0.1111 0.25905,0.23118 0,0 -4.51516,2.82729 -4.51516,2.82729 v 0 c -0.176,-0.16167 -0.0946,-0.0839 -0.24514,-0.23214 -0.37605,-0.31071 -0.69972,-0.67393 -1.13017,-0.91916 -0.64993,-0.45008 -1.2433,-0.9795 -1.83842,-1.49819 -0.7987,-0.66569 -1.57888,-1.36038 -2.27699,-2.131 -0.65948,-0.67468 -1.22664,-1.42624 -1.52486,-2.333 0,0 4.60998,-2.62485 4.60998,-2.62485 z"
       inkscape:connector-curvature="0" /><path
       style="fill:#ffffff"
       id="path154"
       d="m 269.93084,618.70274 c -0.0497,1.61662 -0.0518,3.23445 -0.0455,4.85171 -0.003,1.89097 -0.004,3.78194 -0.005,5.67291 0.001,1.75408 0.01,3.50811 0.0134,5.26215 0.0532,0.93023 0.0143,1.85026 -0.15192,2.76597 -0.001,0.27623 -0.16443,0.50289 -0.19027,0.7698 -0.0131,0.14766 0.0683,0.31381 0.0429,0.45201 -0.006,0.0325 -0.0725,-0.004 -0.0975,0.0177 -0.12299,0.10608 0.0625,0.10834 -0.10704,0.0835 -0.21202,0.21927 -0.35302,0.86283 -0.42837,1.18436 -0.0536,0.55739 -0.33455,1.06033 -0.42273,1.60615 -0.0667,0.25321 0.0172,0.51265 -0.0878,0.7513 0,0 -4.83903,2.23452 -4.83903,2.23452 v 0 c 0.19753,-0.52821 -0.0772,0.0729 0.1377,-0.13305 0.0806,-0.0772 -0.0805,-0.42257 0.005,-0.51216 0.0948,-0.57303 0.29729,-1.06388 0.44464,-1.62522 0.0177,-0.13688 0.0615,-0.53212 0.1071,-0.66808 0.0837,-0.24966 0.25816,-0.41655 0.18426,-0.70477 0.0411,-0.45702 -0.0489,0.0348 0.0931,-0.13081 0.0334,-0.039 -0.008,-0.16012 0.0417,-0.14833 0.25055,0.0591 0.19914,0.34689 0.17481,0.0304 -0.0378,-0.33926 0.0186,-0.59253 0.17165,-0.88707 0.17335,-0.90237 0.35796,-1.79052 0.27834,-2.72041 0.003,-1.75859 0.0122,-3.51717 0.0134,-5.2758 -7.7e-4,-1.88923 -0.003,-3.77845 -0.005,-5.66768 0.006,-1.60181 0.005,-3.20422 -0.0455,-4.80536 0,0 4.71772,-2.4038 4.71772,-2.4038 z"
       inkscape:connector-curvature="0" /><path
       style="fill:#ffffff"
       id="path156"
       d="m 245.29145,624.01539 c -0.0259,1.07735 -0.0291,2.15538 -0.0197,3.23299 0.007,0.71288 -0.038,1.42866 0.15473,2.12185 0.0488,0.14302 0.10374,0.29964 0.16051,0.42995 0,0 -4.59647,2.70999 -4.59647,2.70999 v 0 c -0.12263,-0.19263 -0.17396,-0.38644 -0.23539,-0.60675 -0.18713,-0.75046 -0.21367,-1.49539 -0.16874,-2.26773 0.009,-1.07094 0.007,-2.1423 -0.0196,-3.21296 0,0 4.72466,-2.40734 4.72466,-2.40734 z"
       inkscape:connector-curvature="0" /></g></svg>