<?xml version="1.0" encoding="UTF-8" standalone="no"?>
<!-- Generator: Adobe Illustrator 16.0.0, SVG Export Plug-In . SVG Version: 6.00 Build 0)  -->

<svg
   xmlns:dc="http://purl.org/dc/elements/1.1/"
   xmlns:cc="http://creativecommons.org/ns#"
   xmlns:rdf="http://www.w3.org/1999/02/22-rdf-syntax-ns#"
   xmlns:svg="http://www.w3.org/2000/svg"
   xmlns="http://www.w3.org/2000/svg"
   xmlns:sodipodi="http://sodipodi.sourceforge.net/DTD/sodipodi-0.dtd"
   xmlns:inkscape="http://www.inkscape.org/namespaces/inkscape"
   version="1.1"
   id="svg2"
   inkscape:version="0.92.2 5c3e80d, 2017-08-06"
   sodipodi:docname="mountainsRight.svg"
   x="0px"
   y="0px"
   width="430.543px"
   height="325.295px"
   viewBox="0 0 430.543 325.295"
   enable-background="new 0 0 430.543 325.295"
   xml:space="preserve"><metadata
     id="metadata10"><rdf:RDF><cc:Work
         rdf:about=""><dc:format>image/svg+xml</dc:format><dc:type
           rdf:resource="http://purl.org/dc/dcmitype/StillImage" /><dc:title></dc:title></cc:Work></rdf:RDF></metadata><path
     id="path6053"
     inkscape:connector-curvature="0"
     sodipodi:nodetypes="ccccccccc"
     fill="#F2F2F2"
     d="M215.271,11.589  l205.451,122.629v68l-93.813-55.969l0,0l-37.156-22.188v-0.031l-74.011-44.163L215.271,11.589z" /><defs
     id="defs4"><inkscape:perspective
       sodipodi:type="inkscape:persp3d"
       inkscape:vp_x="0 : 526.18109 : 1"
       inkscape:vp_y="0 : 1000 : 0"
       inkscape:vp_z="744.09448 : 526.18109 : 1"
       id="perspective2985"
       inkscape:persp3d-origin="372.04724 : 350.78739 : 1" /></defs><sodipodi:namedview
     units="mm"
     pagecolor="#ffffff"
     bordercolor="#666666"
     borderopacity="1.0"
     inkscape:zoom="3.0433913"
     inkscape:cx="314.74321"
     inkscape:cy="226.94568"
     showgrid="false"
     showguides="true"
     fit-margin-top="0"
     fit-margin-left="0"
     id="base"
     inkscape:document-units="mm"
     inkscape:current-layer="svg2"
     inkscape:object-nodes="true"
     inkscape:window-width="1366"
     inkscape:window-height="672"
     inkscape:window-x="0"
     inkscape:window-y="1"
     inkscape:window-maximized="1"
     inkscape:guide-bbox="true"
     fit-margin-right="0"
     fit-margin-bottom="0"
     inkscape:pageopacity="0.0"
     inkscape:pageshadow="2"
     inkscape:snap-global="true"
     inkscape:measure-start="0,0"
     inkscape:measure-end="0,0" /><path
     id="path3910"
     inkscape:connector-curvature="0"
     sodipodi:nodetypes="cccccc"
     fill="#D7D7F4"
     d="M224.757,6.177  l205.288,122.462l-9.313,5.563L215.265,11.608L224.757,6.177z" /><path
     id="path3918"
     inkscape:connector-curvature="0"
     fill="#B3B3B3"
     d="M430.043,128.651v68l-9.311,5.555v-68L430.043,128.651z" /><path
     style="fill:#0051bf;stroke-width:1.42857146;fill-opacity:1"
     d="M 328.65806,147.62308 C 279.55092,118.1953 234.16649,91.080522 227.80377,87.368012 L 216.23519,80.617998 215.3632,46.382221 c -0.4796,-18.829675 -0.71864,-34.389126 -0.53121,-34.576556 0.18743,-0.18743 46.42734,27.107169 102.75536,60.654666 l 102.41458,60.995449 0.0424,33.92857 c 0.0233,18.66071 -0.4398,33.887 -1.02909,33.83618 -0.58928,-0.0508 -41.25,-24.16967 -90.35714,-53.59745 z"
     id="path12"
     inkscape:connector-curvature="0" /><path
     style="fill:#0051bf;stroke-width:1.42857146;fill-opacity:1"
     d="M 417.20262,131.37447 C 413.86492,128.99459 277.24514,47.623183 236.15806,23.543456 225.74735,17.442094 217.22949,11.950775 217.22949,11.340526 c 0,-0.61025 1.85971,-1.8798597 4.13268,-2.8213561 3.98285,-1.6497503 7.81393,0.4804077 105.67119,58.7552551 55.84617,33.256885 101.5579,60.932705 101.5816,61.501815 0.0237,0.5691 -1.73684,1.95519 -3.91234,3.08018 -3.53052,1.8257 -4.33623,1.77392 -7.5,-0.48195 z"
     id="path14"
     inkscape:connector-curvature="0" /><path
     style="fill:#0051bf;stroke-width:1.42857146;fill-opacity:1"
     d="m 421.5152,167.83935 v -33.34069 l 3.52117,-2.30715 c 1.93664,-1.26894 3.86521,-2.30716 4.28571,-2.30716 0.4205,0 0.76049,14.94643 0.75552,33.21429 l -0.009,33.21428 -4.27669,2.43356 -4.27668,2.43355 z"
     id="path16"
     inkscape:connector-curvature="0" /><path
     style="fill:#999999;stroke:#999999;stroke-width:1px;stroke-linecap:butt;stroke-linejoin:miter;stroke-opacity:1;fill-opacity:1"
     d="m 326.909,146.249 41.43009,-43.4032 9.85743,74.25926 z"
     id="path4825"
     inkscape:connector-curvature="0" /><path
     style="fill:#ffffff;stroke:#000000;stroke-width:1px;stroke-linecap:butt;stroke-linejoin:miter;stroke-opacity:1"
     d="m 354.5387,116.64619 c 0.98574,0 1.97148,0 2.95722,0 0.10953,0 0.25114,-0.0774 0.32858,0 0.0774,0.0774 -0.0774,0.25114 0,0.32858 0.1549,0.1549 0.50227,-0.15489 0.65717,0 0.0774,0.0774 -0.0774,0.25114 0,0.32858 0.15489,0.1549 0.50226,-0.15489 0.65716,0 0.0774,0.0774 -0.0774,0.25114 0,0.32858 0.0774,0.0774 0.23062,-0.049 0.32858,0 0.3943,0.19715 0.59144,0.7886 0.98574,0.98575 0.098,0.049 0.25114,-0.0774 0.32858,0 0.0774,0.0774 -0.0774,0.25113 0,0.32858 0.0774,0.0774 0.25114,-0.0774 0.32858,0 0.0774,0.0774 -0.0774,0.25113 0,0.32858 0.0774,0.0774 0.25114,-0.0774 0.32858,0 0.19637,0.19637 -0.35515,0.65716 0.32858,0.65716 0.10953,0 -0.10952,-0.32858 0,-0.32858 0.10953,0 -0.049,0.23062 0,0.32858 0.68374,1.36747 -0.0227,-0.35126 0.65717,0.32858 0.0774,0.0774 -0.0774,0.25113 0,0.32858 0.0774,0.0774 0.25113,-0.0775 0.32858,0 0.0774,0.0774 -0.0774,0.25114 0,0.32858 0.0774,0.0774 0.25113,-0.0774 0.32858,0 0.0774,0.0774 -0.0774,0.25114 0,0.32858 0.0774,0.0774 0.25113,-0.0774 0.32858,0 0.0774,0.0774 -0.0774,0.25114 0,0.32858 0.0774,0.0774 0.23062,-0.049 0.32858,0 0.13854,0.0693 0.19004,0.25931 0.32858,0.32858 0.098,0.049 0.25113,-0.0774 0.32858,0 0.0774,0.0774 -0.10953,0.32859 0,0.32859 0.1549,0 0.17369,-0.32859 0.32858,-0.32859 0.1549,0 0.19004,0.25931 0.32858,0.32859 0.0603,0.0301 0.98575,-0.0241 0.98575,0 0,0.10952 -0.32859,0.10952 -0.32859,0 0,-0.10953 0.21906,0 0.32859,0 0.32858,0 0.65716,0 0.98574,0 0.65716,0 1.31432,0 1.97148,0 0.10953,0 0.32858,-0.10953 0.32858,0 0,0.10952 -0.32858,-0.10953 -0.32858,0 0,0.68373 0.46079,0.13221 0.65716,0.32858 0.0774,0.0774 -0.0774,0.25113 0,0.32858 0.1549,0.15489 0.50227,-0.1549 0.65717,0 0.0774,0.0774 -0.0774,0.25113 0,0.32858 0.0774,0.0774 0.21905,0 0.32858,0 0.10952,0 0.25113,0.0774 0.32858,0 0.0774,-0.0774 0,-0.21906 0,-0.32858 0,-0.32858 0,-0.65716 0,-0.98575 0,-0.10952 0,0.43811 0,0.32859 0,-1.53968 0,0.0176 0,0.32858 l -2.62865,-19.71485 z"
     id="path6319"
     inkscape:connector-curvature="0" /><path
     style="fill:#999999;stroke:#999999;stroke-width:1px;stroke-linecap:butt;stroke-linejoin:miter;stroke-opacity:1;fill-opacity:1"
     d="m 378.19652,177.10506 28.58653,-36.80105 6.9002,58.48738 z"
     id="path6321"
     inkscape:connector-curvature="0" /><path
     style="fill:#ffffff;stroke:#000000;stroke-width:1px;stroke-linecap:butt;stroke-linejoin:miter;stroke-opacity:1"
     d="m 396.26846,154.43299 c 0.43811,0 1.31432,-0.43811 1.31432,0 0,0.4381 -1.62411,-0.30979 -1.31432,0 0.48982,0.48982 1.32832,0.39989 1.97149,0.65716 0.10169,0.0407 -0.32858,0.10952 -0.32858,0 0,-0.10953 0.21905,0 0.32858,0 0.10952,0 0.23061,-0.049 0.32858,0 0.13854,0.0693 0.32858,0.17368 0.32858,0.32858 0,0.10953 -0.43811,0 -0.32858,0 0.21905,0 0.4381,0 0.65716,0 0.10953,0 -0.25114,-0.0774 -0.32858,0 -0.0774,0.0774 -0.0774,0.25113 0,0.32858 0.15489,0.15489 0.65716,-0.21905 0.65716,0 0,0.0982 -1.08977,-0.2163 0,0.32858 0.098,0.049 0.32858,-0.10953 0.32858,0 0,0.15489 -0.32858,0.17369 -0.32858,0.32858 0,0.10953 0.23062,-0.049 0.32858,0 0.13854,0.0693 0.32858,0.17369 0.32858,0.32858 0,0.10953 -0.32858,0.10953 -0.32858,0 0,-0.10953 0.25113,-0.0774 0.32858,0 0.0774,0.0774 -0.0774,0.25114 0,0.32858 0.0774,0.0774 0.32858,-0.10952 0.32858,0 0,0.43811 -0.87621,-0.43811 0,0 0.13854,0.0693 0.32858,0.17369 0.32858,0.32858 0,0.1549 -0.21905,0.43811 -0.32858,0.32858 -0.27771,-0.2777 0.65716,-0.41931 0.65716,-0.32858 0,0.1549 -0.32858,0.17369 -0.32858,0.32858 0,0.0387 0.93742,-0.0483 0.98575,0 0.0774,0.0774 -0.0774,0.25114 0,0.32859 0.0774,0.0774 0.32858,-0.10953 0.32858,0 0,0.10952 -0.43811,0 -0.32858,0 0.21905,0 0.4381,0 0.65716,0 0.10952,0 -0.43811,0 -0.32858,0 2.11752,0 -0.58415,0 0.65716,0 0.10952,0 0.21905,0 0.32858,0 0.10953,0 0.32858,-0.10953 0.32858,0 0,0.10952 -0.43811,0 -0.32858,0 0.21905,0 0.50227,0.15489 0.65716,0 0.10953,-0.10953 -0.32858,-0.17369 -0.32858,-0.32859 0,-0.10952 0.21905,0 0.32858,0 0.10953,0 0.21905,0 0.32858,0 0.10953,0 0.21905,0 0.32858,0 0.10953,0 0.32858,-0.10952 0.32858,0 0,0.10953 -0.32858,0.10953 -0.32858,0 0,-0.10952 0.21906,0 0.32858,0 0.10953,0 0.21906,0 0.32858,0 1.09527,0 -0.76669,0 0.32858,0 0.10953,0 0.32858,-0.10952 0.32858,0 0,0.10953 -0.32858,0.10953 -0.32858,0 0,-0.10952 0.21906,0 0.32858,0 0.10953,0 0.21906,0 0.32859,0 0.10952,0 0.32858,-0.10952 0.32858,0 0,0.10953 -0.32858,0.10953 -0.32858,0 0,-0.24491 0.65716,0.0837 0.65716,0.32859 0,0.10952 -0.32858,0.10952 -0.32858,0 0,-0.10953 0.21905,0 0.32858,0 0.10952,0 0.25113,-0.0774 0.32858,0 0.0774,0.0774 -0.0774,0.25113 0,0.32858 0.15489,0.15489 0.50227,-0.1549 0.65716,0 0.0774,0.0774 -0.0774,0.25113 0,0.32858 0.15489,0.15489 0.46123,-0.098 0.65716,0 0.13854,0.0693 0.32858,0.17368 0.32858,0.32858 0,0.10952 -0.43811,0 -0.32858,0 0.62065,0 0.94924,0 0.32858,0 l -1.97148,-18.72911 z"
     id="path6325"
     inkscape:connector-curvature="0" /><path
     style="fill:#ffffff;stroke:#ffffff;stroke-width:1.00157478;stroke-linecap:butt;stroke-linejoin:miter;stroke-opacity:0.94117647;stroke-miterlimit:4;stroke-dasharray:none"
     d="m 242.49265,35.815308 c -0.26342,-1.384931 -1.14339,-0.07882 -1.64291,-0.32858 -0.13854,-0.06927 -0.17368,-0.328581 -0.32858,-0.328581 -0.10953,0 0.0774,0.251133 0,0.328581 -0.0774,0.07745 -0.25113,0.07745 -0.32858,0 -0.0774,-0.07745 0.0774,-0.251134 0,-0.328581 -0.16429,-0.164291 -0.82145,0.16429 -0.98574,0 -0.0774,-0.07745 -0.10953,-0.328581 0,-0.328581 0.10953,0 0.0774,0.251134 0,0.328581 -0.0774,0.07745 -0.25114,0.07745 -0.32858,0 -0.0774,-0.07745 0.0774,-0.251134 0,-0.328581 -0.0106,-0.01057 -0.90606,0 -0.98575,0 -0.93658,0 -1.7992,0 -2.62864,0 -0.10953,0 0.32858,-0.109527 0.32858,0 0,0.109527 -0.21905,0 -0.32858,0 -0.27535,0 -1.50325,-0.06983 -1.64291,0 -0.098,0.04898 0.098,0.279599 0,0.328581 -0.19592,0.09796 -0.4381,0 -0.65716,0 -0.10952,0 -0.25113,-0.07745 -0.32858,0 -0.0774,0.07745 0.0774,0.251133 0,0.328581 -0.0774,0.07745 -0.21905,0 -0.32858,0 -0.21905,0 -0.43811,0 -0.65716,0 -0.10953,0 0.40603,-0.07745 0.32858,0 -0.17318,0.173177 -0.48398,0.155403 -0.65716,0.32858 -0.0774,0.07745 0.43811,0 0.32858,0 -0.21905,0 -0.43811,0 -0.65716,0 -0.10953,0 0.25113,-0.07745 0.32858,0 0.0774,0.07745 0.098,0.279599 0,0.328581 -0.19593,0.09796 -0.43811,0 -0.65716,0 -0.10953,0 0.4381,0 0.32858,0 -0.21906,0 -0.5592,-0.195928 -0.65716,0 -0.10953,0.219054 0.1554,0.483985 0.32858,0.657162 0.14603,0.146036 -0.0365,-0.912725 -0.32858,-0.328581 -0.098,0.195928 0.15489,0.502267 0,0.657162 -0.10953,0.109527 -0.32858,-0.173687 -0.32858,-0.328581 0,-0.109527 0.25113,-0.07745 0.32858,0 0.0774,0.07745 0,0.219054 0,0.328581 0,0.109527 0.0774,0.251133 0,0.328581 -0.0774,0.07745 -0.25114,-0.07745 -0.32858,0 -0.0775,0.07745 0,0.219053 0,0.32858 0,0.07969 -0.0106,0.975176 0,0.985743 0.0774,0.07745 0.25113,-0.07745 0.32858,0 0.15489,0.154894 -0.21906,0.657161 0,0.657161 0.15489,0 0.19004,-0.397851 0.32858,-0.32858 1.1912,0.5956 0,0.956895 0,0.32858 0,-0.109526 0.21905,0 0.32858,0 0.10952,0 0.32858,-0.109526 0.32858,0 0,0.154895 -0.32858,0.173687 -0.32858,0.328581 0,0.219054 0.65716,-0.219054 0.65716,0 0,0.154895 -0.32858,0.173687 -0.32858,0.328581 0,0.109527 0.25113,-0.07745 0.32858,0 0.0774,0.07745 -0.0774,0.251134 0,0.328581 0.0774,0.07745 0.32858,-0.109527 0.32858,0 0,0.154894 -0.32858,0.173686 -0.32858,0.328581 0,0.109527 0.25113,-0.07745 0.32858,0 0.0774,0.07745 0,0.219054 0,0.328581 0,0.109526 0.0774,0.251133 0,0.32858 -0.0774,0.07745 -0.21905,0 -0.32858,0 -0.10953,0 -0.21905,0 -0.32858,0 -0.10953,0 -0.32858,0.109527 -0.32858,0 0,-0.109527 0.32858,-0.109527 0.32858,0 0,0.109527 -0.21906,0 -0.32858,0 -0.10953,0 -0.32858,0.109527 -0.32858,0 0,-0.109527 0.25113,-0.07745 0.32858,0 0.25187,0.251871 -0.2617,0.657162 -0.65716,0.657162 -0.1549,0 0.4381,-0.219054 0.32858,-0.328581 -0.1549,-0.154894 -0.43811,0 -0.65716,0 -0.10953,0 0.32858,-0.109527 0.32858,0 0,0.109527 -0.23062,-0.04898 -0.32858,0 -0.13855,0.06927 -0.32859,0.173687 -0.32859,0.328581 0,0.154895 0.17369,0.328581 0.32859,0.328581 0.10952,0 0.0774,-0.251134 0,-0.328581 -0.0483,-0.04832 -0.98575,0.03866 -0.98575,0 0,-0.219054 0.76669,0.109527 0.32858,0.328581 -0.19592,0.09796 -0.4381,0 -0.65716,0 -0.10952,0 0.43811,0 0.32858,0 -0.21905,0 -0.50226,-0.154895 -0.65716,0 -0.10953,0.109527 0.32858,0.173686 0.32858,0.328581 0,0.219054 -0.65716,-0.219054 -0.65716,0 0,1.495793 0.77058,-0.442 0,0.32858 -0.0774,0.07745 0.0774,0.251134 0,0.328581 -0.77058,0.770581 0,-1.167212 0,0.328581 0,0.109527 -0.25113,-0.07745 -0.32858,0 -0.0774,0.07745 0.0774,0.251134 0,0.328581 -0.0774,0.07745 -0.32858,0.109527 -0.32858,0 0,-0.109527 0.2796,-0.09796 0.32858,0 0.098,0.195928 0,0.438108 0,0.657162 0,0.109527 0.0774,-0.251134 0,-0.328581 -0.0774,-0.07745 -0.2796,-0.09796 -0.32858,0 -0.098,0.195928 0,0.438108 0,0.657161 0,0.109527 -0.10953,-0.32858 0,-0.32858 0.10953,0 0,0.219053 0,0.32858 0,0.109527 0.0774,0.251134 0,0.328581 -0.0774,0.07745 -0.32858,-0.109527 -0.32858,0 0,0.24491 0.1554,0.483985 0.32858,0.657162 0.0774,0.07745 -0.10953,-0.328581 0,-0.328581 0.0747,0 -0.0787,1.235654 0,1.314323 0.87621,0 -0.10953,-0.109527 0.32858,0.328581 0.0774,0.07745 0.32858,-0.109527 0.32858,0 0,0.109527 -0.25113,-0.07745 -0.32858,0 -0.0774,0.07745 -0.0774,0.251134 0,0.328581 0.15489,0.154894 0.65716,-0.219054 0.65716,0 0,0.154894 -0.32858,0.173686 -0.32858,0.328581 0,0.109527 0.25113,-0.07745 0.32858,0 0.0774,0.07745 -0.0775,0.251133 0,0.328581 0.0774,0.07745 0.32858,-0.109527 0.32858,0 0,0.109527 -0.32858,-0.109527 -0.32858,0 0,0.154894 0.19004,0.25931 0.32858,0.32858 0.098,0.04898 0.32858,-0.109526 0.32858,0 0,0.109527 -0.2796,-0.09796 -0.32858,0 -0.098,0.195928 -0.19593,0.559198 0,0.657162 0.21906,0.109527 0.41225,-0.328581 0.65716,-0.328581 0.1549,0 -0.32858,0.173687 -0.32858,0.328581 0,0.109527 0.23062,-0.04898 0.32858,0 0.13855,0.06927 0.32858,0.173686 0.32858,0.328581 0,0.109527 -0.32858,0.109527 -0.32858,0 0,-0.109527 0.21906,0 0.32858,0 0.10953,0 0.32859,-0.109527 0.32859,0 0,0.154894 -0.32859,0.173686 -0.32859,0.328581 0,0.219054 0.65717,-0.219054 0.65717,0 0,0.109527 -0.32858,0.109527 -0.32858,0 0,-0.109527 0.21905,0 0.32858,0 0.10952,0 0.32858,-0.109527 0.32858,0 0,0.109527 -0.32858,0.109527 -0.32858,0 0,-0.109527 0.21905,0 0.32858,0 0.10952,0 0.32858,-0.109527 0.32858,0 0,0.109527 -0.43811,0 -0.32858,0 0.21905,0 0.4381,0 0.65716,0 0.10953,0 -0.32858,0.109527 -0.32858,0 0,-0.109527 0.21905,0 0.32858,0 0.10953,0 0.32858,-0.109527 0.32858,0 0,0.109527 -0.32858,0.109527 -0.32858,0 0,-0.109527 0.21905,0 0.32858,0 0.10953,0 0.32858,-0.109527 0.32858,0 0,0.109527 -0.32858,0.109527 -0.32858,0 0,-0.109527 0.21905,0 0.32858,0 0.10953,0 0.32858,-0.109527 0.32858,0 0,0.109527 -0.32858,0.109527 -0.32858,0 0,-0.109527 0.21905,0 0.32858,0 0.10953,0 0.32858,-0.109527 0.32858,0 0,0.109527 -0.32858,0.109527 -0.32858,0 0,-0.109527 0.21905,0 0.32858,0 0.10953,0 0.32858,-0.109527 0.32858,0 0,0.109527 -0.32858,0.109527 -0.32858,0 0,-0.219054 0.65716,0.219054 0.65716,0 0,-0.154895 -0.32858,-0.173687 -0.32858,-0.328581 0,-0.109527 0.21906,0 0.32858,0 0.10953,0 0.32858,-0.109527 0.32858,0 0,0.109527 -0.4381,0 -0.32858,0 0.21906,0 0.43811,0 0.65717,0 0.10952,0 -0.32859,0.109527 -0.32859,0 0,-0.109527 0.21906,0 0.32859,0 0.10952,0 0.32858,-0.109527 0.32858,0 0,0.109527 -0.40603,-0.07745 -0.32858,0 0.17317,0.173177 0.48398,0.155403 0.65716,0.328581 0.0774,0.07745 -0.32858,0.109527 -0.32858,0 0,-0.109527 0.21905,0 0.32858,0 0.10952,0 0.32858,-0.109527 0.32858,0 0,0.109527 -0.32858,-0.109527 -0.32858,0 0,0.154894 0.19004,0.25931 0.32858,0.328581 0.098,0.04898 0.32858,-0.109527 0.32858,0 0,0.109527 -0.32858,0.109527 -0.32858,0 0,-0.109527 0.21905,0 0.32858,0 0.10953,0 0.32858,-0.109527 0.32858,0 0,0.109527 -0.32858,0.109527 -0.32858,0 0,-0.109527 0.21905,0 0.32858,0 0.10953,0 0.32858,-0.109527 0.32858,0 0,0.109527 -0.25113,-0.07745 -0.32858,0 -0.0775,0.07745 -0.098,0.279598 0,0.32858 0.19593,0.09796 0.43811,0 0.65716,0 0.10953,0 -0.32858,0.109527 -0.32858,0 0,-0.109527 0.21905,0 0.32858,0 0.10953,0 0.32858,-0.109527 0.32858,0 0,0.109527 -0.25113,-0.07745 -0.32858,0 -0.0774,0.07745 -0.10953,0.328581 0,0.328581 0.1549,0 0.19004,-0.25931 0.32858,-0.328581 0.098,-0.04898 0.32858,-0.109527 0.32858,0 0,0.109527 -0.32858,0.109527 -0.32858,0 0,-0.109527 0.21906,0 0.32858,0 0.10953,0 0.32858,-0.109527 0.32858,0 0,0.483476 -1.16721,0.328581 0.32858,0.328581 0.10953,0 -0.4381,0 -0.32858,0 0.21906,0 0.50227,-0.154894 0.65716,0 0.10953,0.109527 -0.4381,0.219054 -0.32858,0.328581 0.1549,0.154895 0.43811,0 0.65717,0 0.10952,0 -0.32859,0.109527 -0.32859,0 0,-0.109527 0.21906,0 0.32859,0 0.10952,0 0.32858,-0.109527 0.32858,0 0,0.154895 -0.32858,0.173686 -0.32858,0.328581 0,0.219054 0.65716,-0.219054 0.65716,0 0,0.109527 -0.25114,-0.07745 -0.32858,0 -0.0774,0.07745 -0.098,0.279599 0,0.328581 0.19592,0.09796 0.4381,0 0.65716,0 0.10953,0 -0.32858,0.109527 -0.32858,0 0,-0.109527 0.25113,-0.07745 0.32858,0 1.39013,1.390127 -0.12581,0.454392 0,0.32858 0.10953,-0.109526 0.19004,0.25931 0.32858,0.328581 0.098,0.04898 0.32858,-0.109527 0.32858,0 0,0.109527 -0.32858,0.109527 -0.32858,0 0,-0.109527 0.25113,-0.07745 0.32858,0 0.0774,0.07745 -0.0774,0.251134 0,0.328581 0.0774,0.07745 0.25113,-0.07745 0.32858,0 0.43811,0.438108 -0.54763,0.328581 0.32858,0.328581 0.10953,0 0.32858,-0.109527 0.32858,0 0,0.154894 -0.32858,0.173686 -0.32858,0.328581 0,0.109527 0.21906,0 0.32858,0 1.09527,0 -0.76669,0 0.32858,0 0.10953,0 0.32858,-0.109527 0.32858,0 0,0.109527 -0.4381,0 -0.32858,0 0.21906,0 0.43811,0 0.65716,0 0.43811,0 -1.20479,-0.109527 -0.32858,0.328581 0.19593,0.09796 0.43811,0 0.65717,0 0.10952,0 -0.43811,0 -0.32859,0 0.19582,0 2.21938,-0.04035 2.30007,0 0.098,0.04898 -0.0774,0.251133 0,0.32858 0.0774,0.07745 0.21905,0 0.32858,0 0.32858,0 0.65716,0 0.98574,0 0.10953,0 -0.32858,0.109527 -0.32858,0 0,-0.109527 0.21906,0 0.32858,0 0.10953,0 0.32858,-0.109527 0.32858,0 0,0.109527 -0.32858,0.109527 -0.32858,0 0,-0.109527 0.21906,0 0.32858,0 0.10953,0 0.32859,-0.109527 0.32859,0 0,0.109527 -0.32859,0.109527 -0.32859,0 0,-0.109527 0.21906,0 0.32859,0 0.10952,0 0.32858,-0.109527 0.32858,0 0,0.109527 -0.43811,0 -0.32858,0 0.21905,0 0.4381,0 0.65716,0 0.4381,0 -1.2048,0.109527 -0.32858,-0.32858 0.19592,-0.09796 0.4381,0 0.65716,0 0.10952,0 -0.25114,0.07745 -0.32858,0 -0.0774,-0.07745 -0.0774,-0.251134 0,-0.328581 0.0774,-0.07745 0.21905,0 0.32858,0 0.10952,0 0.32858,-0.109527 0.32858,0 0,0.109527 -0.32858,0.109527 -0.32858,0 0,-0.109527 0.25113,0.07745 0.32858,0 0.43811,-0.438108 -0.54764,-0.328581 0.32858,-0.328581 0.10953,0 0.32858,0.109527 0.32858,0 0,-0.154895 -0.32858,-0.173686 -0.32858,-0.328581 0,-0.109527 0.21905,0 0.32858,0 0.10953,0 0.32858,-0.109527 0.32858,0 0,0.109527 -0.32858,0.109527 -0.32858,0 0,-0.109527 0.21905,0 0.32858,0 0.10953,0 0.32858,-0.109527 0.32858,0 0,0.109527 -0.32858,0.109527 -0.32858,0 0,-0.109527 0.21906,0 0.32858,0 0.10953,0 0.32858,-0.109527 0.32858,0 0,0.109527 -0.4381,0 -0.32858,0 0.21906,0 0.43811,0 0.65716,0 0.10953,0 -0.4381,0 -0.32858,0 2.15403,0 -1.16828,0 0.98575,0 0.10952,0 -0.32859,0.109527 -0.32859,0 0,-0.109527 0.21906,0 0.32859,0 0.10952,0 0.32858,-0.109527 0.32858,0 0,0.109527 -0.32858,0.109527 -0.32858,0 0,-0.109527 0.21905,0 0.32858,0 0.10952,0 0.32858,-0.109527 0.32858,0 0,0.109527 -0.32858,0.109527 -0.32858,0 0,-0.109527 0.21905,0 0.32858,0 0.10952,0 0.32858,-0.109527 0.32858,0 0,0.109527 -0.43811,0 -0.32858,0 0.21905,0 0.50226,-0.154894 0.65716,0 0.10953,0.109527 -0.43811,0.219054 -0.32858,0.328581 0.15489,0.154894 0.43811,0 0.65716,0 0.10953,0 -0.43811,0 -0.32858,0 0.21905,0 0.43811,0 0.65716,0 0.10953,0 -0.25113,-0.07745 -0.32858,0 -0.0774,0.07745 -0.0774,0.251134 0,0.328581 0.15489,0.154894 0.65716,-0.219054 0.65716,0 0,0.109527 -0.32858,0.109527 -0.32858,0 0,-0.109527 0.21905,0 0.32858,0 0.10953,0 0.32857,-0.109527 0.32857,0 0,0.109527 -0.32857,0.109527 -0.32857,0 0,-0.109527 0.21906,0 0.32857,0 0.10953,0 0.32858,-0.109527 0.32858,0 0,0.109527 -0.32858,0.109527 -0.32858,0 0,-0.109527 0.21906,0 0.32858,0 0.10953,0 0.32858,-0.109527 0.32858,0 0,0.109527 -0.32858,0.109527 -0.32858,0 0,-0.109527 0.21906,0 0.32858,0 0.10953,0 0.32858,-0.109527 0.32858,0 0,0.109527 -0.4381,0 -0.32858,0 0.21906,0 0.43811,0 0.65717,0 0.10952,0 -0.43811,0 -0.32859,0 2.15403,0 -1.16827,0 0.98575,0 0.4381,0 -1.2048,0.109527 -0.32858,-0.328581 1.2413,-0.620653 0.6389,0.310326 0.32858,0 -0.48965,-0.48965 0.65716,-0.309253 0.65716,-0.328581 0,-0.154894 -0.32858,-0.173686 -0.32858,-0.328581 0,-0.219054 0.65716,0.219054 0.65716,0 -0.13265,-2.282399 -0.43811,-0.219054 -0.32858,-0.328581 0.17318,-0.173177 0.10953,-0.547634 0.32858,-0.657161 0.13854,-0.06927 0.43811,0.219054 0.32858,0.328581 -0.10953,0.109527 -0.43811,-0.219054 -0.32858,-0.328581 0.15489,-0.154895 0.5592,0.195928 0.65716,0 -0.13265,-2.282399 -0.43811,-0.219054 -0.32858,-0.328581 0.17318,-0.173177 0.10953,-0.547635 0.32858,-0.657162 0.13854,-0.06927 0.32858,0.173687 0.32858,0.328581 0,0.109527 -0.2796,0.09796 -0.32858,0 -0.098,-0.195928 0,-0.438108 0,-0.657161 0,-0.109527 -0.10953,0.32858 0,0.32858 0.25014,0 0.65716,-0.983388 0.65716,-0.985742 0,-0.154895 -0.17368,0.328581 -0.32858,0.328581 -0.10953,0 0,-0.219054 0,-0.328581 0,-0.219054 0,-0.438108 0,-0.657162 0,-0.109527 0,0.438108 0,0.328581 0,-0.219054 0,-0.438108 0,-0.657162 0,-0.109526 0,0.438108 0,0.328581 0,-2.15403 0,1.168288 0,-0.985742 0,-0.109527 0,0.438108 0,0.328581 0,-0.219054 0,-0.438108 0,-0.657162 0,-0.109527 0,0.438108 0,0.328581 0,-2.15403 0,1.168287 0,-0.985743 0,-0.109527 0,0.438108 0,0.328581 0,-0.219054 0,-0.438108 0,-0.657161 0,-0.109527 0.10953,0.32858 0,0.32858 -0.10953,0 0.0774,-0.251133 0,-0.32858 -0.15489,-0.154895 -0.65716,0.219053 -0.65716,0 0,-0.109527 0.25113,0.07745 0.32858,0 0.19637,-0.196371 -0.20026,-0.657162 -0.32858,-0.657162 -0.10953,0 0.0774,0.251133 0,0.328581 -0.0774,0.07745 -0.25113,0.07745 -0.32858,0 -0.1549,-0.154895 0.21905,-0.657162 0,-0.657162 -0.1549,0 -0.32858,0.173686 -0.32858,0.328581 0,0.109527 0.32858,-0.109527 0.32858,0 0,0.109527 -0.21905,0 -0.32858,0 -0.10953,0 -0.32858,0.109527 -0.32858,0 0,-0.24491 0.32858,-0.412252 0.32858,-0.657162 0,-0.154894 -0.19004,0.25931 -0.32858,0.328581 -0.58415,0.292072 -0.18255,-0.182545 -0.32858,-0.328581 -0.0774,-0.07745 -0.32858,0.109527 -0.32858,0 0,-0.154894 0.48347,-0.328581 0.32858,-0.328581 -2.62864,0 0.98574,0.985743 -0.32858,-0.32858 -0.17318,-0.173178 -0.48399,0.155403 -0.65717,0.32858 -0.0774,0.07745 0.32859,-0.109527 0.32859,0 0,0.109527 -0.25114,0.07745 -0.32859,0 -0.17317,-0.173177 -0.10952,-0.547634 -0.32858,-0.657161 -0.13854,-0.06927 -0.32858,0.173686 -0.32858,0.328581 0,0.109527 0.32858,0.109527 0.32858,0 0,-0.683738 -0.46079,-0.132211 -0.65716,-0.328581 -0.0774,-0.07745 0.10953,-0.328581 0,-0.328581 -0.15488,0 -0.32857,0.173686 -0.32857,0.328581 0,0.109527 0.4381,0 0.32857,0 -1.49578,0 -0.32857,0.154894 -0.32857,-0.328581 0,-0.109527 -0.23062,0.04898 -0.32858,0 -0.13854,-0.06927 -0.17369,-0.328581 -0.32858,-0.328581 -0.10953,0 0.0774,0.251134 0,0.328581 -0.0774,0.07745 -0.32858,0.109527 -0.32858,0 0,-0.109527 0.40603,0.07745 0.32858,0 -0.17318,-0.173177 -0.54764,-0.109527 -0.65716,-0.328581 -0.0693,-0.138542 0.21905,-0.438108 0.32858,-0.328581 0.10953,0.109527 -0.19004,0.25931 -0.32858,0.328581 -0.098,0.04898 -0.25114,0.07745 -0.32858,0 -0.19637,-0.19637 0.35515,-0.657162 -0.32858,-0.657162 -0.1549,0 -0.32858,0.173687 -0.32858,0.328581 0,0.109527 0.32858,0.109527 0.32858,0 0,-0.154894 -0.25931,-0.190039 -0.32858,-0.328581 -0.049,-0.09796 0.10952,-0.32858 0,-0.32858 -0.1549,0 -0.17369,0.32858 -0.32859,0.32858 -0.10952,0 0.0774,-0.251133 0,-0.32858 -0.0774,-0.07745 -0.32858,0.109527 -0.32858,0 0,-0.154895 0.32858,-0.173687 0.32858,-0.328581 0,-0.154895 -0.17368,-0.328581 -0.32858,-0.328581 -0.10952,0 0.0774,0.251134 0,0.328581 -0.0774,0.07745 -0.25113,0.07745 -0.32858,0 -0.0483,-0.04832 0.0387,-0.985743 0,-0.985743 -0.15489,0 -0.17368,0.328581 -0.32858,0.328581 -0.21905,0 0.098,-0.461234 0,-0.657161 -0.0693,-0.138542 -0.43811,-0.219054 -0.32858,-0.328581 0.10953,-0.109527 0.32858,0.483475 0.32858,0.328581 0,-0.24491 -0.1554,-0.483985 -0.32858,-0.657162 -0.0775,-0.07745 0.10953,0.328581 0,0.328581 -0.10953,0 0,-0.219054 0,-0.328581 0,-0.109527 -0.10953,-0.328581 0,-0.328581 0.10953,0 0,0.438108 0,0.328581 0,-0.219054 0,-0.438108 0,-0.657162 0,-0.109527 0.0774,0.251134 0,0.328581 -0.0775,0.07745 -0.32858,0.109527 -0.32858,0 0,-0.154894 0.25931,-0.190039 0.32858,-0.328581 0.049,-0.09796 0.10953,-0.328581 0,-0.328581 -0.15489,0 -0.17369,0.328581 -0.32858,0.328581 -0.10953,0 0,-0.219054 0,-0.328581 0,-0.109526 -0.10953,-0.32858 0,-0.32858 0.10953,0 0,0.438107 0,0.32858 0,-0.219053 0,-0.438107 0,-0.657161 0,-0.109527 0.10953,0.328581 0,0.328581 -0.10953,0 0.0774,-0.251134 0,-0.328581 -0.0774,-0.07745 -0.32858,0.109527 -0.32858,0 0,-0.154895 0.17369,-0.328581 0.32858,-0.328581 0.10953,0 0.0774,0.251134 0,0.328581 -0.0774,0.07745 -0.25113,0.07745 -0.32858,0 -0.15489,-0.154895 0.15489,-0.502267 0,-0.657162 -0.0774,-0.07745 -0.25113,0.07745 -0.32858,0 -0.0774,-0.07745 -0.10953,-0.328581 0,-0.328581 0.10953,0 0.10953,0.328581 0,0.328581 -0.1549,0 -0.25931,-0.190039 -0.32858,-0.328581 -0.049,-0.09796 0.10952,-0.32858 0,-0.32858 -0.1549,0 -0.17369,0.32858 -0.32858,0.32858 -0.21906,0 0.21905,-0.657161 0,-0.657161 -0.1549,0 -0.17369,0.328581 -0.32858,0.328581 -0.10953,0 0.049,-0.230617 0,-0.328581 -0.0693,-0.138542 -0.17369,-0.328581 -0.32858,-0.328581 -0.10953,0 0.10952,0.328581 0,0.328581 -0.10953,0 0.0774,-0.251134 0,-0.328581 -0.0774,-0.07745 -0.32859,0.109527 -0.32859,0 0,-0.154895 0.32859,-0.173686 0.32859,-0.328581 0,-0.154894 -0.17369,-0.328581 -0.32859,-0.328581 -0.15489,0 -0.17368,0.328581 -0.32858,0.328581 -0.10952,0 0.0774,-0.251134 0,-0.328581 -0.0774,-0.07745 -0.25113,0.07745 -0.32858,0 -0.0774,-0.07745 -0.10952,-0.328581 0,-0.328581 0.10953,0 0.0774,0.251134 0,0.328581 -0.0774,0.07745 -0.25113,0.07745 -0.32858,0 -0.0774,-0.07745 0.0774,-0.251133 0,-0.328581 -0.0774,-0.07745 -0.21905,0 -0.32858,0 -0.10953,0 -0.21905,0 -0.32858,0 -0.54763,0 -1.09527,0 -1.6429,0 z"
     id="path6329"
     inkscape:connector-curvature="0" /><path
     style="fill:#ffffff;stroke:#ffffff;stroke-width:1px;stroke-linecap:butt;stroke-linejoin:miter;stroke-opacity:0.94117647"
     d="m 278.96511,62.101774 c -0.43811,-0.328581 -0.79479,-0.812565 -1.31433,-0.985742 -0.23234,-0.07745 -0.41225,0.328581 -0.65716,0.328581 -0.784,0 0.23579,-0.985743 -0.98574,-0.985743 -0.10953,0 0.0774,0.251134 0,0.328581 -0.0774,0.07745 -0.21905,0 -0.32858,0 -0.10953,0 -0.32858,0.109527 -0.32858,0 0,-0.109527 0.21905,0 0.32858,0 -0.21905,0 -0.50227,0.154894 -0.65716,0 -0.10953,-0.109527 0.32858,-0.173686 0.32858,-0.328581 0,-0.219054 -0.50227,0.154895 -0.65716,0 -0.0774,-0.07745 0.10952,-0.328581 0,-0.328581 -0.34636,0 -0.63939,0.328581 -0.98575,0.328581 -0.15489,0 0.43811,-0.219054 0.32859,-0.328581 -0.32859,-0.109527 -0.65717,-0.219054 -0.98575,-0.328581 0,0.109527 0.10953,0.328581 0,0.328581 -0.15489,0 -0.19004,-0.25931 -0.32858,-0.328581 -0.098,-0.04898 -0.23061,0.04898 -0.32858,0 -0.13854,-0.06927 -0.17369,-0.32858 -0.32858,-0.32858 -0.15489,0 -0.17369,0.32858 -0.32858,0.32858 -0.10953,0 0.098,-0.279598 0,-0.32858 -0.29389,-0.146946 -0.65716,0 -0.98574,0 -1.24131,0 1.46036,0 -0.65716,0 -0.10953,0 0.4381,0 0.32858,0 -0.21906,0 -0.43811,0 -0.65717,0 -0.10952,0 0.32859,-0.109527 0.32859,0 0,0.109527 -0.21906,0 -0.32859,0 -0.10952,0 -0.32858,0.109527 -0.32858,0 0,-0.109527 0.32858,-0.109527 0.32858,0 0,0.109527 -0.21905,0 -0.32858,0 -0.10952,0 -0.32858,0.109527 -0.32858,0 0,-0.109527 0.43811,0 0.32858,0 -0.21905,0 -0.4381,0 -0.65716,0 -0.10952,0 0.32858,-0.109527 0.32858,0 0,0.109527 -0.21905,0 -0.32858,0 -0.10952,0 -0.32858,0.109527 -0.32858,0 0,-0.109527 0.43811,0 0.32858,0 -2.15403,0 1.16829,0 -0.98574,0 -0.10953,0 0.43811,0 0.32858,0 -1.2309,0 -1.31048,0 -1.97148,0 -0.10953,0 0.4381,0 0.32858,0 -0.21906,0 -0.43811,0 -0.65717,0 -0.10952,0 0.32859,-0.109527 0.32859,0 0,0.109527 -0.21906,0 -0.32859,0 -0.10952,0 -0.32858,0.109527 -0.32858,0 0,-0.109527 0.43811,0 0.32858,0 -0.21905,0 -0.50226,-0.154895 -0.65716,0 -0.10952,0.109527 0.32858,0.173686 0.32858,0.32858 0,0.219054 -0.65716,-0.219053 -0.65716,0 0.13266,2.282399 0.43811,0.219054 0.32858,0.328581 -0.17317,0.173178 -0.1554,0.483985 -0.32858,0.657162 -0.0774,0.07745 0.0774,-0.406028 0,-0.328581 -0.17317,0.173177 -0.32858,0.412252 -0.32858,0.657162 0,0.154894 0.21906,-0.438108 0.32858,-0.328581 0.1549,0.154894 0,0.438108 0,0.657162 0,0.109526 0.0774,-0.251134 0,-0.328581 -0.0774,-0.07745 -0.21905,0 -0.32858,0 -0.10953,0 -0.32858,-0.109527 -0.32858,0 0.13265,2.282399 0.43811,0.219054 0.32858,0.328581 -0.17318,0.173177 -0.10953,0.547634 -0.32858,0.657161 -0.13854,0.06927 -0.32858,-0.173686 -0.32858,-0.328581 0,-0.109527 0.25113,-0.07745 0.32858,0 0.0774,0.07745 0.0774,0.251134 0,0.328581 -0.0774,0.07745 -0.2796,-0.09796 -0.32858,0 -0.098,0.195928 0.15489,0.502267 0,0.657162 -0.10953,0.109527 -0.32858,-0.173687 -0.32858,-0.328581 0,-0.109527 0.2796,-0.09796 0.32858,0 0.098,0.195928 0.15489,0.502267 0,0.657162 -0.10953,0.109527 -0.21905,-0.438108 -0.32858,-0.328581 -0.1549,0.154894 0,0.438108 0,0.657161 0,0.109527 0,-0.438107 0,-0.32858 0,0.219053 0,0.438107 0,0.657161 0,0.109527 -0.10953,-0.328581 0,-0.328581 0.10953,0 0,0.219054 0,0.328581 0,0.219054 0,0.438108 0,0.657162 0,0.109527 0,-0.438108 0,-0.328581 0,2.15403 0,-1.168287 0,0.985743 0,0.109526 -0.10953,-0.328581 0,-0.328581 0.21905,0 -0.1549,0.502267 0,0.657161 0.0774,0.07745 0.25113,-0.07745 0.32858,0 0.0774,0.07745 -0.0774,0.251134 0,0.328581 0.19637,0.19637 0.65716,-0.355156 0.65716,0.328581 0,0.109527 -0.21905,0 -0.32858,0 0.21905,0 0.5592,-0.195928 0.65716,0 0.10953,0.219054 -0.1554,0.483984 -0.32858,0.657162 -0.0774,0.07745 -0.098,-0.377563 0,-0.328581 0.27709,0.138542 0.43811,0.438108 0.65716,0.657161 0.10953,0.109527 -0.4381,-0.438107 -0.32858,-0.32858 0.21906,0.219054 0.43811,0.438107 0.65716,0.657161 0.10953,0.109527 -0.48347,-0.328581 -0.32858,-0.328581 0.24491,0 0.54764,0.109527 0.65716,0.328581 0.35471,0.709401 -0.86649,0.268958 -0.32858,0 0.19593,-0.09796 0.43811,0 0.65717,0 0.10952,0 -0.32859,-0.109527 -0.32859,0 0,0.154895 0.19004,0.25931 0.32859,0.328581 0.098,0.04898 0.32858,-0.109527 0.32858,0 0,0.154895 -0.17369,0.328581 -0.32858,0.328581 -0.10953,0 -0.0774,-0.251134 0,-0.328581 0.0774,-0.07745 0.21905,0 0.32858,0 0.10952,0 0.21905,0 0.32858,0 0.10952,0 0.32858,-0.109527 0.32858,0 0,0.154895 -0.39785,0.190039 -0.32858,0.328581 0.10952,0.219054 0.41225,0.328581 0.65716,0.328581 0.15489,0 -0.43811,-0.438108 -0.32858,-0.328581 0.21905,0.219054 0.43811,0.438108 0.65716,0.657162 0.10953,0.109527 -0.17369,-0.328581 -0.32858,-0.328581 -0.10953,0 -0.0774,0.251133 0,0.328581 0.19637,0.19637 0.65716,-0.355157 0.65716,0.32858 0,0.109527 -0.2796,-0.09796 -0.32858,0 -0.098,0.195928 0,0.438108 0,0.657162 0,0.109527 -0.0774,-0.406028 0,-0.328581 0.17318,0.173178 0.1554,0.483985 0.32858,0.657162 0.0774,0.07745 -0.0774,-0.251134 0,-0.328581 0.0774,-0.07745 0.32858,-0.109527 0.32858,0 0,0.109527 -0.2796,-0.09796 -0.32858,0 -0.098,0.195928 0,0.438108 0,0.657162 0,0.109527 -0.10953,-0.328581 0,-0.328581 0.10953,0 0,0.219054 0,0.328581 0,0.109527 0.10953,0.328581 0,0.328581 -0.10953,0 -0.10953,-0.328581 0,-0.328581 0.10953,0 0,0.219054 0,0.328581 0,0.109526 0.10953,0.32858 0,0.32858 -0.10953,0 -0.0774,-0.251133 0,-0.32858 0.0774,-0.07745 0.25113,-0.07745 0.32858,0 0.17318,0.173177 0.32858,0.412251 0.32858,0.657161 0,0.154895 -0.17368,-0.328581 -0.32858,-0.328581 -0.10953,0 -0.0774,0.251134 0,0.328581 0.1549,0.154895 0.65716,-0.219054 0.65716,0 0,0.154895 -0.32858,0.173686 -0.32858,0.328581 0,0.109527 0.25114,-0.07745 0.32858,0 0.17318,0.173177 0.32858,0.412252 0.32858,0.657162 0,0.154894 -0.4381,-0.219054 -0.32858,-0.328581 0.1549,-0.154895 0.5592,-0.195928 0.65716,0 0.10953,0.219054 -0.50175,0.483984 -0.32858,0.657161 0.17318,0.173178 0.48399,-0.155403 0.65717,-0.32858 0.0774,-0.07745 -0.43811,0 -0.32859,0 0.21906,0 0.5592,-0.195928 0.65717,0 0.10952,0.219054 -0.32858,0.412252 -0.32858,0.657161 0,0.154895 0.17368,-0.328581 0.32858,-0.328581 0.10952,0 -0.098,0.279599 0,0.328581 0.19592,0.09796 0.4381,0 0.65716,0 0.10952,0 -0.43811,0 -0.32858,0 0.21905,0 0.4381,0 0.65716,0 0.10953,0 -0.32858,-0.109527 -0.32858,0 0,0.154895 0.19004,0.25931 0.32858,0.328581 0.098,0.04898 0.32858,-0.109527 0.32858,0 0,0.154895 -0.17369,0.328581 -0.32858,0.328581 -0.10953,0 -0.0774,-0.251134 0,-0.328581 0.0106,-0.01057 0.90605,0 0.98574,0 1.24131,0 -1.46036,0 0.65716,0 0.10953,0 -0.4381,0 -0.32858,0 0.21906,0 0.43811,0 0.65716,0 0.10953,0 -0.4381,0 -0.32858,0 0.21906,0 0.43811,0 0.65716,0 0.10953,0 -0.4381,0 -0.32858,0 2.15403,0 -1.16828,0 0.98575,0 0.10952,0 -0.32858,0.109527 -0.32858,0 0,-0.109527 0.21905,0 0.32858,0 0.10952,0 0.32858,-0.109527 0.32858,0 0,0.109527 -0.32858,0.109527 -0.32858,0 0,-0.109527 0.21905,0 0.32858,0 0.65716,0 1.31432,0 1.97148,0 0.43811,0 0.87622,0 1.31433,0 0.10952,0 -0.43811,0 -0.32859,0 0.21906,0 0.46124,-0.09796 0.65717,0 0.098,0.04898 0,0.219054 0,0.328581 0.21905,0.109527 0.41225,0.328581 0.65716,0.328581 0.15489,0 -0.43811,-0.219054 -0.32858,-0.328581 0.15489,-0.154895 0.4381,0 0.65716,0 0.10953,0 -0.2796,-0.09796 -0.32858,0 -0.098,0.195928 -0.1549,0.502267 0,0.657162 0.10952,0.109526 0.19004,-0.25931 0.32858,-0.328581 0.098,-0.04898 0.32858,-0.109527 0.32858,0 0,0.109527 -0.25113,-0.07745 -0.32858,0 -0.0774,0.07745 -0.098,0.279599 0,0.328581 0.19593,0.09796 0.43811,0 0.65716,0 0.43811,0 -1.2048,-0.109527 -0.32858,0.32858 0.19593,0.09796 0.43811,0 0.65716,0 0.43811,0 -1.2048,-0.109527 -0.32858,0.328581 0.19593,0.09796 0.43811,0 0.65716,0 0.21906,0 -1.86196,-0.109527 -0.32858,0.657162 0.21905,0.109527 0.48399,-0.155404 0.65716,-0.328581 0.073,-0.07302 -1.56988,0.03651 -0.32858,0.657161 0.21906,0.109527 0.48399,-0.155403 0.65716,-0.32858 0.073,-0.07302 -1.56988,0.03651 -0.32858,0.65716 0.21906,0.109527 0.41225,-0.32858 0.65716,-0.32858 0.10953,0 -0.049,0.230617 0,0.32858 0.0693,0.138542 0.18164,0.279599 0.32859,0.328581 1.49579,0.498598 0.32858,-0.507456 0.32858,0.328581 0,0.109527 0.27959,-0.09796 0.32858,0 0.098,0.195928 0,0.438108 0,0.657162 0,0.109527 -0.098,-0.279599 0,-0.328581 0.19592,-0.09796 0.4381,0 0.65716,0 0.10953,0 -0.40603,-0.07745 -0.32858,0 0.17317,0.173177 0.54763,0.109527 0.65716,0.328581 0.0693,0.138542 -0.17369,0.328581 -0.32858,0.328581 -0.10953,0 -0.098,-0.279599 0,-0.328581 0.19593,-0.09796 0.43811,0 0.65716,0 0.21905,0 -1.86196,-0.109527 -0.32858,0.657161 0.21905,0.109527 0.48398,-0.155403 0.65716,-0.32858 0.0774,-0.07745 -0.43811,0 -0.32858,0 0.21905,0 0.50227,-0.154895 0.65716,0 0.10953,0.109527 -0.25931,0.190039 -0.32858,0.32858 -0.049,0.09796 -0.10953,0.328581 0,0.328581 0.24491,0 0.48399,-0.155403 0.65716,-0.328581 0.0774,-0.07745 -0.43811,0 -0.32858,0 0.21906,0 0.43811,0 0.65716,0 0.10953,0 -0.4381,0 -0.32858,0 0.21906,0 0.46124,-0.09796 0.65716,0 0.098,0.04898 -0.098,0.279599 0,0.328581 0.19593,0.09796 0.43811,0 0.65717,0 0.21905,0 0.4381,0 0.65716,0 0.10952,0 -0.43811,0 -0.32858,0 1.0365,0 1.17791,0 2.30006,0 0.10953,0 -0.43811,0 -0.32858,0 0.21906,0 0.43811,0 0.65716,0 0.10953,0 -0.32858,0.109527 -0.32858,0 0,-0.109527 0.21906,0 0.32858,0 0.10953,0 0.32858,-0.109527 0.32858,0 0,0.109527 -0.25113,0.07745 -0.32858,0 -0.0774,-0.07745 0,-0.219054 0,-0.328581 0,-0.109527 -0.0774,-0.251133 0,-0.32858 0.1549,-0.154895 0.65716,0.219053 0.65716,0 0,-0.438108 -0.87621,-0.219054 0,-0.657162 0.58415,-0.292072 0.29208,0.292072 0,0 -0.0774,-0.07745 -0.098,-0.279599 0,-0.328581 0.19593,-0.09796 0.50227,0.154895 0.65717,0 1.08976,-1.089764 -1.38627,0 -0.32858,0 0.15489,0 0.25931,-0.190039 0.32858,-0.328581 0.049,-0.09796 -0.10953,-0.328581 0,-0.328581 0.40464,0 -1.00277,1.659927 0.65716,0 0.0774,-0.07745 -0.25114,0.07745 -0.32858,0 -0.0774,-0.07745 -0.098,-0.279598 0,-0.32858 0.19593,-0.09796 0.43811,0 0.65716,0 0.10953,0 -0.40603,0.07745 -0.32858,0 0.17318,-0.173177 0.48398,-0.155403 0.65716,-0.32858 0.0774,-0.07745 -0.43811,0 -0.32858,0 0.21905,0 0.50227,0.154894 0.65716,0 0.10953,-0.109527 -0.43811,-0.219054 -0.32858,-0.328581 0.15489,-0.154894 0.43811,0 0.65716,0 0.10953,0 -0.40603,0.07745 -0.32858,0 0.17318,-0.173177 0.48398,-0.155403 0.65716,-0.328581 0.0774,-0.07745 -0.43811,0 -0.32858,0 0.21906,0 0.43811,0 0.65716,0 0.10953,0 -0.40603,0.07745 -0.32858,0 0.17318,-0.173177 0.48399,-0.155403 0.65716,-0.328581 0.0774,-0.07745 -0.4381,0 -0.32858,0 0.21906,0 0.43811,0 0.65716,0 0.10953,0 -0.25113,0.07745 -0.32858,0 -0.0774,-0.07745 -0.0774,-0.251133 0,-0.32858 0.0774,-0.07745 0.25114,0.07745 0.32858,0 0.0774,-0.07745 -0.098,-0.279599 0,-0.328581 0.19593,-0.09796 0.43811,0 0.65717,0 0.10952,0 -0.25114,0.07745 -0.32858,0 -0.0774,-0.07745 -0.0774,-0.251134 0,-0.328581 0.15489,-0.154895 0.65716,0.219054 0.65716,0 0,-0.192169 -0.74686,-0.448024 -0.32858,-0.657162 0.19592,-0.09796 0.50226,0.154895 0.65716,0 0.10952,-0.109527 -0.25931,-0.190039 -0.32858,-0.328581 -0.049,-0.09796 0,-0.219053 0,-0.32858 0,-0.328581 0,-0.657162 0,-0.985743 0,-0.109527 0,0.438108 0,0.328581 0,-0.219054 0,-0.438108 0,-0.657162 0,-0.109527 0.10952,0.328581 0,0.328581 -0.1549,0 -0.19004,-0.25931 -0.32858,-0.328581 -0.098,-0.04898 -0.32858,0.109527 -0.32858,0 0,-0.109527 0.32858,0.109527 0.32858,0 0,-0.689241 -0.98575,0.03208 -0.98575,-0.657161 0,-0.109527 0.32858,-0.109527 0.32858,0 0,0.244909 -0.65716,-0.08367 -0.65716,-0.328581 0,-0.109527 0.43811,0 0.32858,0 -0.12831,0 -0.98574,0.154894 -0.98574,-0.328581 0,-0.154894 0.21906,-0.438108 0.32858,-0.328581 0.29418,0.294174 -0.98574,0.429434 -0.98574,0.328581 0,-0.109527 0.43811,0 0.32858,0 -1.86196,0 -0.10953,0.219054 -0.65716,-0.328581 -0.0791,-0.07907 -1.23526,0.07907 -1.31432,0 -0.0774,-0.07745 0.0774,-0.251133 0,-0.328581 -0.0774,-0.07745 -0.32859,0.109527 -0.32859,0 0,-0.109527 0.43811,0 0.32859,0 -0.21906,0 -0.43811,0 -0.65717,0 -0.10952,0 -0.25113,0.07745 -0.32858,0 -0.15489,-0.154894 0.21906,-0.657161 0,-0.657161 -0.15489,0 -0.32858,0.173686 -0.32858,0.328581 0,0.109527 0.32858,-0.109527 0.32858,0 0,0.109527 -0.21905,0 -0.32858,0 -0.10952,0 -0.2796,0.09796 -0.32858,0 -0.098,-0.195928 0,-0.438108 0,-0.657162 0,-0.438108 0.10953,1.204796 -0.32858,0.328581 -0.098,-0.195928 0,-0.438108 0,-0.657162 0,-0.109527 0.10953,0.328581 0,0.328581 -0.25162,0 -0.65481,-0.983388 -0.65716,-0.985743 -0.0774,-0.07745 -0.25113,0.07745 -0.32858,0 -0.1549,-0.154894 0.0693,-0.449348 0,-0.657161 -0.67916,-2.037489 -0.1937,-0.328581 -0.32858,-0.328581 -0.48348,0 -0.32858,-0.857424 -0.32858,-0.985742 0,-0.109527 0,0.438107 0,0.32858 0,-0.219054 0,-0.438107 0,-0.657161 0,-0.438108 0.10952,1.204796 -0.32858,0.328581 -0.098,-0.195928 0,-0.438108 0,-0.657162 0,-0.438108 0.10952,1.204796 -0.32859,0.328581 -0.098,-0.195928 0,-0.438108 0,-0.657162 0,-0.109527 0.0774,0.251134 0,0.328581 -0.0774,0.07745 -0.25113,0.07745 -0.32858,0 -0.15489,-0.154895 0.21906,-0.657162 0,-0.657162 -0.15489,0 -0.17368,0.328581 -0.32858,0.328581 -0.10952,0 0.098,-0.279599 0,-0.328581 -0.19592,-0.09796 -0.50226,0.154895 -0.65716,0 -0.10953,-0.109527 0.17369,-0.328581 0.32858,-0.328581 0.10953,0 0.0774,0.251134 0,0.328581 -0.0774,0.07745 -0.21905,0 -0.32858,0 -0.10953,0 -0.2796,0.09796 -0.32858,0 -0.098,-0.195927 0,-0.438108 0,-0.657161 0,-0.109527 0.0774,0.251133 0,0.32858 -0.0774,0.07745 -0.21905,0 -0.32858,0 -0.10953,0 -0.23062,0.04898 -0.32858,0 -0.13854,-0.06927 -0.25931,-0.190039 -0.32858,-0.32858 -0.049,-0.09796 0.10953,-0.328581 0,-0.328581 -0.24491,0 -0.48399,0.155403 -0.65716,0.328581 -0.0775,0.07745 0.4381,0 0.32858,0 -2.15403,0 1.16828,0 -0.98574,0 -0.10953,0 0.32858,-0.109527 0.32858,0 0,0.109527 -0.25114,0.07745 -0.32858,0 -0.40464,-0.40464 1.00276,-0.657162 -0.65717,-0.657162 -0.16429,0 0.43811,1.42385 -0.65716,0.328581 -0.10953,-0.109527 0.32858,-0.173687 0.32858,-0.328581 0,-0.219054 -0.65716,0.219054 -0.65716,0 0,-0.109527 0.21905,0 0.32858,0 -0.54763,-0.109527 -1.248,0.06632 -1.6429,-0.328581 -0.30979,-0.309789 0.88929,-0.106257 1.31432,0 0.10626,0.02656 0.10953,0.328581 0,0.328581 -0.45159,0 -0.87621,-0.219054 -1.31432,-0.328581 z"
     id="path6331"
     inkscape:connector-curvature="0" /></svg>