<?xml version="1.0" encoding="UTF-8" standalone="no"?>
<!-- Generator: Adobe Illustrator 16.0.0, SVG Export Plug-In . SVG Version: 6.00 Build 0)  -->

<svg
   xmlns:dc="http://purl.org/dc/elements/1.1/"
   xmlns:cc="http://creativecommons.org/ns#"
   xmlns:rdf="http://www.w3.org/1999/02/22-rdf-syntax-ns#"
   xmlns:svg="http://www.w3.org/2000/svg"
   xmlns="http://www.w3.org/2000/svg"
   xmlns:sodipodi="http://sodipodi.sourceforge.net/DTD/sodipodi-0.dtd"
   xmlns:inkscape="http://www.inkscape.org/namespaces/inkscape"
   version="1.1"
   id="svg2"
   inkscape:version="0.92.3 (2405546, 2018-03-11)"
   sodipodi:docname="nightright.svg"
   x="0px"
   y="0px"
   width="430.543px"
   height="325.295px"
   viewBox="0 0 430.543 325.295"
   enable-background="new 0 0 430.543 325.295"
   xml:space="preserve"><metadata
   id="metadata3731"><rdf:RDF><cc:Work
       rdf:about=""><dc:format>image/svg+xml</dc:format><dc:type
         rdf:resource="http://purl.org/dc/dcmitype/StillImage" /><dc:title></dc:title></cc:Work></rdf:RDF></metadata>
<path
   id="path6053"
   inkscape:connector-curvature="0"
   sodipodi:nodetypes="ccccccccc"
   fill="#F2F2F2"
   d="M215.271,11.589  l205.451,122.629v68l-93.813-55.969l0,0l-37.156-22.188v-0.031l-74.011-44.163L215.271,11.589z" />
<defs
   id="defs3725">
	
	
		<inkscape:perspective
   sodipodi:type="inkscape:persp3d"
   inkscape:vp_x="0 : 526.18109 : 1"
   inkscape:vp_y="0 : 1000 : 0"
   inkscape:vp_z="744.09448 : 526.18109 : 1"
   id="perspective2985"
   inkscape:persp3d-origin="372.04724 : 350.78739 : 1">
		</inkscape:perspective>
</defs>
<sodipodi:namedview
   units="mm"
   pagecolor="#ffffff"
   bordercolor="#666666"
   borderopacity="1.0"
   inkscape:zoom="2.8"
   inkscape:cx="370.30905"
   inkscape:cy="363.66196"
   showgrid="false"
   showguides="true"
   fit-margin-top="0"
   fit-margin-left="0"
   id="base"
   inkscape:document-units="mm"
   inkscape:current-layer="svg2"
   inkscape:object-nodes="true"
   inkscape:window-width="1366"
   inkscape:window-height="705"
   inkscape:window-x="-8"
   inkscape:window-y="-8"
   inkscape:window-maximized="1"
   inkscape:guide-bbox="true"
   fit-margin-right="0"
   fit-margin-bottom="0"
   inkscape:pageopacity="0.0"
   inkscape:pageshadow="2">
	</sodipodi:namedview>
<path
   id="path3910"
   inkscape:connector-curvature="0"
   sodipodi:nodetypes="cccccc"
   fill="#D7D7F4"
   d="M224.757,6.177  l205.288,122.462l-9.313,5.563L215.265,11.608L224.757,6.177z" />
<path
   id="path3918"
   inkscape:connector-curvature="0"
   fill="#B3B3B3"
   d="M430.043,128.651v68l-9.311,5.555v-68L430.043,128.651z" />
<path
   style="stroke-width:0.35714287"
   d="m 370.55905,172.38783 c -27.30357,-16.30093 -62.25893,-37.17943 -77.67857,-46.39668 -15.41964,-9.21725 -39.04464,-23.32607 -52.5,-31.352931 l -24.46428,-14.594303 -0.25148,-10.0087 c -0.13831,-5.504789 -0.29903,-20.921339 -0.35714,-34.259005 l -0.10567,-24.250301 7.67857,4.586425 c 24.79409,14.809553 47.8425,28.564516 118.75,70.86831 l 78.92857,47.089205 0.0911,33.99589 c 0.0501,18.69773 -0.0303,33.98784 -0.17857,33.978 -0.14832,-0.01 -22.60895,-13.35499 -49.91252,-29.65591 z"
   id="path3844"
   inkscape:connector-curvature="0" /><path
   style="stroke-width:0.35714287"
   d="M 363.69849,99.93683 C 293.94421,58.317813 288.61063,55.134656 239.11283,25.582385 l -23.58908,-14.083674 4.53467,-2.5756866 c 2.49406,-1.4166272 4.61719,-2.5756859 4.71805,-2.5756859 0.14375,0 204.87378,122.0323515 205.13426,122.2732915 0.0363,0.0336 -1.97787,1.27161 -4.47588,2.75121 l -4.54185,2.6902 z"
   id="path3846"
   inkscape:connector-curvature="0" /><path
   style="stroke-width:0.35714287"
   d="m 420.65191,168.16493 0.0928,-33.89675 2.94286,-1.70524 c 1.61857,-0.93788 3.61467,-2.15757 4.43578,-2.71042 0.8211,-0.55285 1.5845,-1.00518 1.69643,-1.00518 0.11193,0 0.20351,15.22867 0.20351,33.8415 v 33.8415 l -4.6111,2.76564 c -2.5361,1.5211 -4.66556,2.76565 -4.73214,2.76567 -0.0666,1e-5 -0.0793,-15.25351 -0.0282,-33.89672 z"
   id="path3848"
   inkscape:connector-curvature="0" /><path
   style="stroke-width:0.35714287"
   d=""
   id="path3850"
   inkscape:connector-curvature="0" /><path
   style="stroke-width:0.35714287"
   d="M 416.98762,199.79071 C 395.81322,187.22581 249.67265,100.04501 218.77334,81.545112 l -2.5,-1.496789 -0.22298,-3.904064 c -0.32919,-5.763779 -0.82188,-64.082635 -0.54139,-64.082635 0.13198,0 43.91152,26.056989 97.28788,57.904417 53.37635,31.847429 99.35523,59.280739 102.17529,60.962909 2.82005,1.68216 5.19186,3.22785 5.27068,3.43486 0.0788,0.20701 0.10186,15.44191 0.0512,33.85532 l -0.0921,33.47894 z"
   id="path3852"
   inkscape:connector-curvature="0" /><path
   style="stroke-width:0.35714287"
   d="M 407.16619,193.98943 C 396.08429,187.41166 240.28663,94.435794 222.34477,83.692959 l -6.07143,-3.635318 -0.22706,-3.730153 c -0.34042,-5.592283 -0.81899,-64.265864 -0.52418,-64.265864 0.14034,0 12.74178,7.45005 28.0032,16.555666 15.26142,9.105617 61.09625,36.44463 101.85518,60.753365 40.75893,24.308735 74.30886,44.387575 74.5554,44.619635 0.3547,0.33387 0.42925,7.44729 0.35715,34.07927 l -0.0911,33.65734 z"
   id="path3854"
   inkscape:connector-curvature="0" /><path
   style="stroke-width:0.35714287"
   d="M 415.55905,198.98807 C 403.39936,191.79119 335.59981,151.34171 238.77334,93.517027 l -22.5,-13.436982 -0.22023,-3.384211 c -0.34647,-5.324207 -0.81898,-64.63421 -0.51493,-64.63421 0.1499,0 2.38555,1.264656 4.96813,2.810346 2.58258,1.54569 22.29381,13.303046 43.80274,26.127458 31.93769,19.042424 145.88669,87.044562 153.69601,91.722242 1.14888,0.68816 2.15461,1.42385 2.23497,1.63486 0.0804,0.21102 0.10465,15.45772 0.054,33.88157 l -0.0921,33.49791 z"
   id="path3856"
   inkscape:connector-curvature="0" /><path
   sodipodi:type="star"
   style="fill:#ffffff"
   id="path3882"
   sodipodi:sides="5"
   sodipodi:cx="235"
   sodipodi:cy="45.65216"
   sodipodi:r1="4.1649655"
   sodipodi:r2="2.0824828"
   sodipodi:arg1="1.0303768"
   sodipodi:arg2="1.6586954"
   inkscape:flatsided="false"
   inkscape:rounded="0"
   inkscape:randomized="0"
   d="m 237.14285,49.223588 -2.32567,-1.496985 -2.55164,1.067167 0.70505,-2.674437 -1.80344,-2.09698 2.76142,-0.155908 1.43705,-2.363171 1.0016,2.578081 2.69159,0.636459 -2.14239,1.749249 z"
   inkscape:transform-center-x="-0.1129844"
   inkscape:transform-center-y="-0.28872883" /><path
   sodipodi:type="star"
   style="fill:#ffffff"
   id="path3884"
   sodipodi:sides="5"
   sodipodi:cx="246.42857"
   sodipodi:cy="53.509303"
   sodipodi:r1="4.3594841"
   sodipodi:r2="2.1797421"
   sodipodi:arg1="0.96007036"
   sodipodi:arg2="1.5883889"
   inkscape:flatsided="false"
   inkscape:rounded="0"
   inkscape:randomized="0"
   d="m 248.92857,57.080732 -2.53835,-1.392024 -2.58574,1.301868 0.5395,-2.844268 -2.03719,-2.056888 2.87178,-0.365831 1.32669,-2.573096 1.23535,2.618173 2.85713,0.466628 -2.10828,1.983951 z"
   inkscape:transform-center-x="-0.023698685"
   inkscape:transform-center-y="-0.39369048" /><path
   sodipodi:type="star"
   style="fill:#ffffff"
   id="path3886"
   sodipodi:sides="5"
   sodipodi:cx="232.5"
   sodipodi:cy="66.009299"
   sodipodi:r1="2.7893748"
   sodipodi:r2="1.3946874"
   sodipodi:arg1="0.69473828"
   sodipodi:arg2="1.3230568"
   inkscape:flatsided="false"
   inkscape:rounded="0"
   inkscape:randomized="0"
   d="m 234.64285,67.795014 -1.80086,-0.433607 -1.37813,1.237687 -0.14411,-1.846713 -1.60298,-0.928214 1.7118,-0.707724 0.38743,-1.811356 1.20206,1.409316 1.84243,-0.191265 -0.96888,1.578729 z"
   inkscape:transform-center-x="0.21136494"
   inkscape:transform-center-y="-0.057209359" /><path
   sodipodi:type="star"
   style="fill:#ffffff"
   id="path3888"
   sodipodi:sides="5"
   sodipodi:cx="262.49999"
   sodipodi:cy="71.723586"
   sodipodi:r1="5.8138641"
   sodipodi:r2="2.9069321"
   sodipodi:arg1="0.74194727"
   sodipodi:arg2="1.3702658"
   inkscape:flatsided="false"
   inkscape:rounded="0"
   inkscape:randomized="0"
   d="m 266.78571,75.652158 -3.70668,-1.079891 -2.99096,2.441272 -0.1184,-3.858971 -3.24604,-2.090182 3.63351,-1.305085 0.9848,-3.733074 2.36403,3.052384 3.85468,-0.216985 -2.17246,3.191562 z"
   inkscape:transform-center-x="0.35786001"
   inkscape:transform-center-y="-0.20370443" /><path
   sodipodi:type="star"
   style="fill:#ffffff"
   id="path3890"
   sodipodi:sides="5"
   sodipodi:cx="244.2857"
   sodipodi:cy="79.580733"
   sodipodi:r1="2.2868301"
   sodipodi:r2="1.143415"
   sodipodi:arg1="0.67474094"
   sodipodi:arg2="1.3030595"
   inkscape:flatsided="false"
   inkscape:rounded="0"
   inkscape:randomized="0"
   d="m 246.07142,81.009306 -1.48322,-0.325894 -1.10933,1.03709 -0.1484,-1.511337 -1.32913,-0.734553 1.39151,-0.608163 0.28788,-1.49107 1.00839,1.135471 1.50705,-0.186978 -0.76828,1.309923 z"
   inkscape:transform-center-x="0.18694909"
   inkscape:transform-center-y="-0.032793514" /><path
   sodipodi:type="star"
   style="fill:#ffffff"
   id="path3892"
   sodipodi:sides="5"
   sodipodi:cx="247.14285"
   sodipodi:cy="68.152159"
   sodipodi:r1="1.2876969"
   sodipodi:r2="0.64384841"
   sodipodi:arg1="0.98279372"
   sodipodi:arg2="1.6111123"
   inkscape:flatsided="false"
   inkscape:rounded="0"
   inkscape:randomized="0"
   d="m 247.85713,69.223589 -0.74023,-0.428103 -0.77231,0.36709 0.1784,-0.836297 -0.58778,-0.621076 0.8505,-0.08876 0.40904,-0.750936 0.34723,0.781443 0.84058,0.156971 -0.63589,0.571715 z"
   inkscape:transform-center-x="-0.016038177"
   inkscape:transform-center-y="-0.10761098" /><path
   sodipodi:type="star"
   style="fill:#ffffff"
   id="path3894"
   sodipodi:sides="5"
   sodipodi:cx="265.71429"
   sodipodi:cy="55.65216"
   sodipodi:r1="7.0890831"
   sodipodi:r2="3.5445415"
   sodipodi:arg1="0.7140907"
   sodipodi:arg2="1.3424092"
   inkscape:flatsided="false"
   inkscape:rounded="0"
   inkscape:randomized="0"
   d="m 271.07144,60.295017 -4.55464,-1.190358 -3.56268,3.077168 -0.27536,-4.699555 -4.02749,-2.437413 4.38445,-1.714128 1.07356,-4.583571 2.9851,3.640166 4.69098,-0.39539 -2.53955,3.963874 z"
   inkscape:transform-center-x="0.49597742"
   inkscape:transform-center-y="-0.18766625" /><path
   sodipodi:type="star"
   style="fill:#ffffff"
   id="path3896"
   sodipodi:sides="5"
   sodipodi:cx="282.85714"
   sodipodi:cy="66.723586"
   sodipodi:r1="5.9440416"
   sodipodi:r2="2.9720208"
   sodipodi:arg1="0.57133748"
   sodipodi:arg2="1.199656"
   inkscape:flatsided="false"
   inkscape:rounded="0"
   inkscape:randomized="0"
   d="m 287.85714,69.937873 -3.92211,-0.444617 -2.58977,2.978882 -0.78914,-3.867544 -3.63337,-1.542492 3.43439,-1.945658 0.34423,-3.932195 2.91171,2.665062 3.84611,-0.887738 -1.63485,3.592757 z"
   inkscape:transform-center-x="0.46719735"
   inkscape:transform-center-y="0.10460673" /><path
   sodipodi:type="star"
   style="fill:#ffffff"
   id="path3898"
   sodipodi:sides="5"
   sodipodi:cx="272.49999"
   sodipodi:cy="86.366446"
   sodipodi:r1="2.7199189"
   sodipodi:r2="1.3599595"
   sodipodi:arg1="1.1659045"
   sodipodi:arg2="1.7942231"
   inkscape:flatsided="false"
   inkscape:rounded="0"
   inkscape:randomized="0"
   d="m 273.57143,88.866447 -1.37276,-1.173843 -1.74522,0.465375 0.69218,-1.668308 -0.9819,-1.515996 1.80056,0.142772 1.13837,-1.402312 0.42062,1.756547 1.68545,0.649319 -1.5406,0.942833 z"
   inkscape:transform-center-x="-0.18623193"
   inkscape:transform-center-y="-0.076156199" /><path
   sodipodi:type="star"
   style="fill:#ffffff"
   id="path3903"
   sodipodi:sides="5"
   sodipodi:cx="253.92857"
   sodipodi:cy="87.795012"
   sodipodi:r1="7.0890831"
   sodipodi:r2="3.5445415"
   sodipodi:arg1="0.7140907"
   sodipodi:arg2="1.3424092"
   inkscape:flatsided="false"
   inkscape:rounded="0"
   inkscape:randomized="0"
   d="m 259.28571,92.437871 -4.55463,-1.190358 -3.56268,3.077168 -0.27537,-4.699556 -4.02748,-2.437412 4.38445,-1.714128 1.07355,-4.583571 2.9851,3.640166 4.69099,-0.39539 -2.53956,3.963874 z"
   inkscape:transform-center-x="0.49597742"
   inkscape:transform-center-y="-0.18766625" /><path
   sodipodi:type="star"
   style="fill:#ffffff"
   id="path3905"
   sodipodi:sides="5"
   sodipodi:cx="305.35714"
   sodipodi:cy="97.437872"
   sodipodi:r1="5.8138641"
   sodipodi:r2="2.9069321"
   sodipodi:arg1="2.3127436"
   sodipodi:arg2="2.9410621"
   inkscape:flatsided="false"
   inkscape:rounded="0"
   inkscape:randomized="0"
   d="m 301.42857,101.72359 1.07989,-3.706686 -2.44127,-2.990965 3.85897,-0.118391 2.09018,-3.246046 1.30509,3.633515 3.73307,0.984798 -3.05238,2.364026 0.21698,3.854689 -3.19156,-2.17247 z"
   inkscape:transform-center-x="-0.20370443"
   inkscape:transform-center-y="-0.35786001" /><path
   sodipodi:type="star"
   style="fill:#ffffff"
   id="path3907"
   sodipodi:sides="5"
   sodipodi:cx="291.7857"
   sodipodi:cy="78.509299"
   sodipodi:r1="3.3692788"
   sodipodi:r2="1.6846394"
   sodipodi:arg1="2.1293956"
   sodipodi:arg2="2.7577142"
   inkscape:flatsided="false"
   inkscape:rounded="0"
   inkscape:randomized="0"
   d="m 289.99999,81.366443 0.22369,-2.226213 -1.70709,-1.446339 2.18637,-0.475201 0.84803,-2.070483 1.12757,1.932522 2.23121,0.166711 -1.4895,1.669565 0.53092,2.173516 -2.04813,-0.900674 z"
   inkscape:transform-center-x="0.072530376"
   inkscape:transform-center-y="-0.25197539" /><path
   sodipodi:type="star"
   style="fill:#ffffff"
   id="path3909"
   sodipodi:sides="5"
   sodipodi:cx="289.64285"
   sodipodi:cy="92.437872"
   sodipodi:r1="7.8652552"
   sodipodi:r2="3.9326276"
   sodipodi:arg1="2.2597207"
   sodipodi:arg2="2.8880392"
   inkscape:flatsided="false"
   inkscape:rounded="0"
   inkscape:randomized="0"
   d="m 284.64285,98.509302 1.19311,-5.084947 -3.51247,-3.865589 5.20476,-0.436621 2.59099,-4.535086 2.02361,4.815101 5.11378,1.062751 -3.9541,3.412517 0.5695,5.191903 -4.46738,-2.70605 z"
   inkscape:transform-center-x="-0.14721223"
   inkscape:transform-center-y="-0.60967898" /><path
   sodipodi:type="star"
   style="fill:#ffffff"
   id="path3913"
   sodipodi:sides="5"
   sodipodi:cx="280.35714"
   sodipodi:cy="108.86644"
   sodipodi:r1="3.0304574"
   sodipodi:r2="1.5152287"
   sodipodi:arg1="2.3561945"
   sodipodi:arg2="2.984513"
   inkscape:flatsided="false"
   inkscape:rounded="0"
   inkscape:randomized="0"
   d="m 278.21428,111.00929 0.64629,-1.90582 -1.20359,-1.61283 2.01226,0.0257 1.16197,-1.64307 0.59736,1.92172 1.92172,0.59736 -1.64307,1.16197 0.0257,2.01226 -1.61283,-1.20359 z"
   inkscape:transform-center-x="-0.14649507"
   inkscape:transform-center-y="-0.14649507" /><path
   sodipodi:type="star"
   style="fill:#ffffff"
   id="path3915"
   sodipodi:sides="5"
   sodipodi:cx="266.7857"
   sodipodi:cy="96.366446"
   sodipodi:r1="6.1028594"
   sodipodi:r2="3.0514299"
   sodipodi:arg1="1.929567"
   sodipodi:arg2="2.5578855"
   inkscape:flatsided="false"
   inkscape:rounded="0"
   inkscape:randomized="0"
   d="m 264.64285,102.08073 -0.40333,-4.032575 -3.5506,-1.953874 3.71057,-1.629728 0.76105,-3.980599 2.69659,3.025351 4.02096,-0.506272 -2.04399,3.499498 1.72403,3.667709 -3.95984,-0.862546 z"
   inkscape:transform-center-x="0.50220361"
   inkscape:transform-center-y="-0.084104182" /><path
   sodipodi:type="star"
   style="fill:#ffffff"
   id="path3926"
   sodipodi:sides="5"
   sodipodi:cx="301.42855"
   sodipodi:cy="73.866446"
   sodipodi:r1="4.5736598"
   sodipodi:r2="2.2868301"
   sodipodi:arg1="0.89605538"
   sodipodi:arg2="1.5243739"
   inkscape:flatsided="false"
   inkscape:rounded="0"
   inkscape:randomized="0"
   d="m 304.2857,77.437876 -2.75102,-1.287062 -2.61985,1.53657 0.37396,-3.0141 -2.27094,-2.016796 2.98214,-0.575755 1.21632,-2.783018 1.46911,2.658264 3.02267,0.296796 -2.07418,2.218652 z"
   inkscape:transform-center-x="0.065587028"
   inkscape:transform-center-y="-0.37389819" /><path
   sodipodi:type="star"
   style="fill:#ffffff"
   id="path3928"
   sodipodi:sides="5"
   sodipodi:cx="317.85714"
   sodipodi:cy="86.009299"
   sodipodi:r1="6.2372316"
   sodipodi:r2="3.1186158"
   sodipodi:arg1="-2.7291822"
   sodipodi:arg2="-2.1008637"
   inkscape:flatsided="false"
   inkscape:rounded="0"
   inkscape:randomized="0"
   d="m 312.14286,83.5093 4.13754,-0.190657 2.18857,-3.516494 1.4599,3.876118 4.02069,0.994803 -3.23528,2.58623 0.29635,4.131316 -3.4594,-2.27774 -3.83754,1.55849 1.09724,-3.993951 z"
   inkscape:transform-center-x="-0.18906583"
   inkscape:transform-center-y="-0.41291789" /><path
   sodipodi:type="star"
   style="fill:#ffffff"
   id="path3930"
   sodipodi:sides="5"
   sodipodi:cx="306.07141"
   sodipodi:cy="111.0093"
   sodipodi:r1="2.5753936"
   sodipodi:r2="1.2876969"
   sodipodi:arg1="2.1587989"
   sodipodi:arg2="2.7871175"
   inkscape:flatsided="false"
   inkscape:rounded="0"
   inkscape:randomized="0"
   d="m 304.64284,113.15216 0.22093,-1.6959 -1.27179,-1.14343 1.68117,-0.31395 0.69446,-1.56288 0.81809,1.50187 1.70099,0.17751 -1.17556,1.24215 0.35681,1.6726 -1.54463,-0.73418 z"
   inkscape:transform-center-x="0.032076354"
   inkscape:transform-center-y="-0.21522196" /><path
   sodipodi:type="star"
   style="fill:#ffffff"
   id="path3935"
   sodipodi:sides="5"
   sodipodi:cx="296.42855"
   sodipodi:cy="114.58072"
   sodipodi:r1="3.8465461"
   sodipodi:r2="1.923273"
   sodipodi:arg1="1.9513027"
   sodipodi:arg2="2.5796212"
   inkscape:flatsided="false"
   inkscape:rounded="0"
   inkscape:randomized="0"
   d="m 294.99999,118.15215 -0.19892,-2.5466 -2.21059,-1.27985 2.36049,-0.97612 0.53409,-2.4979 1.65778,1.94332 2.54069,-0.26393 -1.33593,2.17716 1.03614,2.33477 -2.48343,-0.59776 z"
   inkscape:transform-center-x="0.29155583"
   inkscape:transform-center-y="-0.078805526" /><path
   sodipodi:type="star"
   style="fill:#ffffff"
   id="path3937"
   sodipodi:sides="5"
   sodipodi:cx="328.21429"
   sodipodi:cy="124.58072"
   sodipodi:r1="5.9440416"
   sodipodi:r2="2.9720208"
   sodipodi:arg1="-0.99945885"
   sodipodi:arg2="-0.37114032"
   inkscape:flatsided="false"
   inkscape:rounded="0"
   inkscape:randomized="0"
   d="m 331.42858,119.58072 -0.44462,3.92211 2.97889,2.58977 -3.86755,0.78915 -1.54249,3.63336 -1.94566,-3.43439 -3.93219,-0.34423 2.66506,-2.91171 -0.88774,-3.84611 3.59276,1.63485 z"
   inkscape:transform-center-x="-0.10460673"
   inkscape:transform-center-y="0.46719735" /><path
   sodipodi:type="star"
   style="fill:#ffffff"
   id="path3939"
   sodipodi:sides="5"
   sodipodi:cx="329.2857"
   sodipodi:cy="97.437872"
   sodipodi:r1="2.8793775"
   sodipodi:r2="1.4396889"
   sodipodi:arg1="1.6951513"
   sodipodi:arg2="2.3234699"
   inkscape:flatsided="false"
   inkscape:rounded="0"
   inkscape:randomized="0"
   d="m 328.92856,100.29502 -0.62702,-1.806369 -1.8435,-0.507534 1.5242,-1.154528 -0.087,-1.910115 1.56903,1.092828 1.78975,-0.672982 -0.55449,1.829933 1.19311,1.494189 -1.91172,0.03813 z"
   inkscape:transform-center-x="0.11036321"
   inkscape:transform-center-y="0.16787121" /><path
   sodipodi:type="star"
   style="fill:#ffffff"
   id="path3943"
   sodipodi:sides="5"
   sodipodi:cx="322.85714"
   sodipodi:cy="106.0093"
   sodipodi:r1="4.5456862"
   sodipodi:r2="2.2728431"
   sodipodi:arg1="2.3561945"
   sodipodi:arg2="2.984513"
   inkscape:flatsided="false"
   inkscape:rounded="0"
   inkscape:randomized="0"
   d="m 319.64286,109.22358 0.96942,-2.85873 -1.80538,-2.41925 3.01839,0.0386 1.74295,-2.4646 0.89604,2.88258 2.88258,0.89604 -2.4646,1.74295 0.0386,3.01838 -2.41925,-1.80537 z"
   inkscape:transform-center-x="-0.21974261"
   inkscape:transform-center-y="-0.21974261" /><path
   sodipodi:type="star"
   style="fill:#ffffff"
   id="path3945"
   sodipodi:sides="5"
   sodipodi:cx="312.14285"
   sodipodi:cy="121.72358"
   sodipodi:r1="5.3093103"
   sodipodi:r2="2.6546552"
   sodipodi:arg1="2.3086114"
   sodipodi:arg2="2.9369299"
   inkscape:flatsided="false"
   inkscape:rounded="0"
   inkscape:randomized="0"
   d="m 308.57142,125.65215 0.97218,-3.38905 -2.24068,-2.72216 3.5236,-0.12267 1.89652,-2.9722 1.20552,3.31322 3.41279,0.88524 -2.77854,2.17037 0.2127,3.51931 -2.92276,-1.97187 z"
   inkscape:transform-center-x="-0.17928859"
   inkscape:transform-center-y="-0.33344417" /><path
   sodipodi:type="star"
   style="fill:#ffffff"
   id="path3947"
   sodipodi:sides="5"
   sodipodi:cx="353.5714"
   sodipodi:cy="107.79502"
   sodipodi:r1="10.903098"
   sodipodi:r2="5.4515489"
   sodipodi:arg1="2.5899377"
   sodipodi:arg2="3.2182562"
   inkscape:flatsided="false"
   inkscape:rounded="0"
   inkscape:randomized="0"
   d="m 344.2857,113.5093 3.85017,-6.13181 -2.86851,-6.6479 7.02147,1.7669 5.43611,-4.782431 0.48933,7.223821 6.22821,3.69219 -6.71904,2.69766 -1.58686,7.06434 -4.64193,-5.55657 z"
   inkscape:transform-center-x="-0.79267961"
   inkscape:transform-center-y="0.25804515" /><path
   sodipodi:type="star"
   style="fill:#ffffff"
   id="path3949"
   sodipodi:sides="5"
   sodipodi:cx="344.2857"
   sodipodi:cy="129.93786"
   sodipodi:r1="3.7964806"
   sodipodi:r2="1.8982403"
   sodipodi:arg1="-0.85196633"
   sodipodi:arg2="-0.2236478"
   inkscape:flatsided="false"
   inkscape:rounded="0"
   inkscape:randomized="0"
   d="m 346.78571,127.08072 -0.64904,2.43614 1.63888,1.91574 -2.51746,0.13554 -1.31554,2.15067 -0.90684,-2.35237 -2.45193,-0.58656 1.957,-1.58938 -0.19984,-2.51318 2.11634,1.37008 z"
   inkscape:transform-center-x="0.10604105"
   inkscape:transform-center-y="0.26019663" /><path
   sodipodi:type="star"
   style="fill:#ffffff"
   id="path3951"
   sodipodi:sides="5"
   sodipodi:cx="336.7857"
   sodipodi:cy="112.79502"
   sodipodi:r1="2.5253813"
   sodipodi:r2="1.2626906"
   sodipodi:arg1="-1.4288993"
   sodipodi:arg2="-0.80058074"
   inkscape:flatsided="false"
   inkscape:rounded="0"
   inkscape:randomized="0"
   d="m 337.14285,110.29502 0.52205,1.59369 1.60881,0.47343 -1.35437,0.98898 0.0469,1.67636 -1.3591,-0.98246 -1.57982,0.56262 0.51439,-1.59618 -1.02327,-1.32865 1.67701,-0.004 z"
   inkscape:transform-center-x="-0.11036321"
   inkscape:transform-center-y="-0.1337671" /><path
   sodipodi:type="star"
   style="fill:#ffffff"
   id="path3953"
   sodipodi:sides="5"
   sodipodi:cx="361.0714"
   sodipodi:cy="127.79502"
   sodipodi:r1="5.3093103"
   sodipodi:r2="2.6546552"
   sodipodi:arg1="-0.34302394"
   sodipodi:arg2="0.28529459"
   inkscape:flatsided="false"
   inkscape:rounded="0"
   inkscape:randomized="0"
   d="m 366.07141,126.0093 -2.45265,2.53285 0.69605,3.45634 -3.16678,-1.54992 -3.07209,1.73005 0.49547,-3.49074 -2.5947,-2.38711 3.473,-0.60748 1.46847,-3.20537 1.65097,3.1153 z"
   inkscape:transform-center-x="0.047350746"
   inkscape:transform-center-y="-0.46174958" /><path
   sodipodi:type="star"
   style="fill:#ffffff"
   id="path3971"
   sodipodi:sides="5"
   sodipodi:cx="250.35714"
   sodipodi:cy="39.22359"
   sodipodi:r1="4.3153733"
   sodipodi:r2="2.1576867"
   sodipodi:arg1="1.1441688"
   sodipodi:arg2="1.7724874"
   inkscape:flatsided="false"
   inkscape:rounded="0"
   inkscape:randomized="0"
   d="m 252.14286,43.152162 -2.21796,-1.814622 -2.75223,0.798361 1.04042,-2.67015 -1.60978,-2.370824 2.86098,0.164378 1.75734,-2.263612 0.72775,2.771743 2.69587,0.971835 -2.41119,1.548652 z"
   inkscape:transform-center-x="-0.26713998"
   inkscape:transform-center-y="-0.14966307" /><path
   sodipodi:type="star"
   style="fill:#ffffff"
   id="path3977"
   sodipodi:sides="5"
   sodipodi:cx="221.7857"
   sodipodi:cy="52.080729"
   sodipodi:r1="5.5787495"
   sodipodi:r2="2.7893748"
   sodipodi:arg1="0.69473828"
   sodipodi:arg2="1.3230568"
   inkscape:flatsided="false"
   inkscape:rounded="0"
   inkscape:randomized="0"
   d="m 226.07142,55.652159 -3.60172,-0.867216 -2.75627,2.475376 -0.28822,-3.693426 -3.20595,-1.856429 3.42359,-1.415448 0.77487,-3.622712 2.40412,2.818632 3.68485,-0.38253 -1.93776,3.157458 z"
   inkscape:transform-center-x="0.42272988"
   inkscape:transform-center-y="-0.11441872" /><path
   sodipodi:type="star"
   style="fill:#ffffff"
   id="path3979"
   sodipodi:sides="5"
   sodipodi:cx="230.71427"
   sodipodi:cy="30.65216"
   sodipodi:r1="6.8232044"
   sodipodi:r2="3.4116022"
   sodipodi:arg1="2.3191744"
   sodipodi:arg2="2.9474929"
   inkscape:flatsided="false"
   inkscape:rounded="0"
   inkscape:randomized="0"
   d="m 226.07141,35.65216 1.29532,-4.341959 -2.84247,-3.528576 4.52972,-0.109817 2.47751,-3.793736 1.5042,4.274088 4.37365,1.183918 -3.60007,2.751349 0.22555,4.525437 -3.72917,-2.57366 z"
   inkscape:transform-center-x="-0.25253612"
   inkscape:transform-center-y="-0.4066917" /><path
   sodipodi:type="star"
   style="fill:#ffffff"
   id="path3981"
   sodipodi:sides="5"
   sodipodi:cx="222.85714"
   sodipodi:cy="75.295012"
   sodipodi:r1="4.0720548"
   sodipodi:r2="2.0360274"
   sodipodi:arg1="0.66104317"
   sodipodi:arg2="1.2893617"
   inkscape:flatsided="false"
   inkscape:rounded="0"
   inkscape:randomized="0"
   d="m 226.07143,77.795013 -2.64881,-0.544074 -1.94985,1.873584 -0.30108,-2.687297 -2.38442,-1.275445 2.46273,-1.116768 0.47619,-2.661852 1.82314,1.997098 2.67872,-0.36967 -1.33597,2.351041 z"
   inkscape:transform-center-x="0.34948234"
   inkscape:transform-center-y="-0.041171182" /><path
   sodipodi:type="star"
   style="fill:#ffffff"
   id="path3983"
   sodipodi:sides="5"
   sodipodi:cx="377.85714"
   sodipodi:cy="121.0093"
   sodipodi:r1="4.8576678"
   sodipodi:r2="2.4288339"
   sodipodi:arg1="0.62879629"
   sodipodi:arg2="1.2571148"
   inkscape:flatsided="false"
   inkscape:rounded="0"
   inkscape:randomized="0"
   d="m 381.78571,123.86644 -3.17912,-0.54683 -2.25276,2.30889 -0.46234,-3.19251 -2.89202,-1.42901 2.89338,-1.42625 0.4654,-3.19207 2.25054,2.31104 3.17965,-0.54379 -1.50247,2.85455 z"
   inkscape:transform-center-x="0.4631839"
   inkscape:transform-center-y="-0.00071715999" /><path
   sodipodi:type="star"
   style="fill:#ffffff"
   id="path3985"
   sodipodi:sides="5"
   sodipodi:cx="344.64285"
   sodipodi:cy="142.79501"
   sodipodi:r1="2.2587697"
   sodipodi:r2="1.1293849"
   sodipodi:arg1="1.2490458"
   sodipodi:arg2="1.8773643"
   inkscape:flatsided="false"
   inkscape:rounded="0"
   inkscape:randomized="0"
   d="m 345.35713,144.93787 -1.05512,-1.06613 -1.47642,0.26478 0.6879,-1.33293 -0.70805,-1.32234 1.48026,0.24233 1.03882,-1.08202 0.22695,1.4827 1.35008,0.65361 -1.34,0.67402 z"
   inkscape:transform-center-x="-0.21064778"
   inkscape:transform-center-y="-0.0052986554" /><path
   sodipodi:type="star"
   style="fill:#ffffff"
   id="path3987"
   sodipodi:sides="5"
   sodipodi:cx="332.49999"
   sodipodi:cy="139.58073"
   sodipodi:r1="3.7964806"
   sodipodi:r2="1.8982403"
   sodipodi:arg1="0.85196633"
   sodipodi:arg2="1.4802849"
   inkscape:flatsided="false"
   inkscape:rounded="0"
   inkscape:randomized="0"
   d="m 335,142.43787 -2.32842,-0.96667 -2.11634,1.37008 0.19984,-2.51318 -1.95701,-1.58938 2.45193,-0.58656 0.90684,-2.35237 1.31554,2.15067 2.51747,0.13554 -1.63889,1.91574 z"
   inkscape:transform-center-x="0.10604105"
   inkscape:transform-center-y="-0.26019663" /><path
   sodipodi:type="star"
   style="fill:#ffffff"
   id="path3991"
   sodipodi:sides="5"
   sodipodi:cx="321.42855"
   sodipodi:cy="136.72358"
   sodipodi:r1="4.3153733"
   sodipodi:r2="2.1576867"
   sodipodi:arg1="-2.7149652"
   sodipodi:arg2="-2.0866466"
   inkscape:flatsided="false"
   inkscape:rounded="0"
   inkscape:randomized="0"
   d="m 317.49999,134.93787 2.86424,-0.0912 1.54865,-2.41119 0.97183,2.69587 2.77175,0.72775 -2.26362,1.75734 0.16438,2.86098 -2.37082,-1.60978 -2.67015,1.04042 0.79836,-2.75223 z"
   inkscape:transform-center-x="-0.14966307"
   inkscape:transform-center-y="-0.26713998" /><path
   sodipodi:type="star"
   style="fill:#ffffff"
   id="path3993"
   sodipodi:sides="5"
   sodipodi:cx="377.14285"
   sodipodi:cy="136.36644"
   sodipodi:r1="6.8604902"
   sodipodi:r2="3.4302451"
   sodipodi:arg1="0.89605538"
   sodipodi:arg2="1.5243739"
   inkscape:flatsided="false"
   inkscape:rounded="0"
   inkscape:randomized="0"
   d="m 381.42856,141.72358 -4.12653,-1.93059 -3.92977,2.30485 0.56093,-4.52115 -3.40641,-3.02519 4.47321,-0.86363 1.82449,-4.17453 2.20366,3.98739 4.53401,0.4452 -3.11127,3.32798 z"
   inkscape:transform-center-x="0.098380542"
   inkscape:transform-center-y="-0.56084728" /><path
   sodipodi:type="star"
   style="fill:#ffffff"
   id="path3995"
   sodipodi:sides="5"
   sodipodi:cx="358.21429"
   sodipodi:cy="151.36644"
   sodipodi:r1="11.123151"
   sodipodi:r2="5.5615753"
   sodipodi:arg1="0.73997488"
   sodipodi:arg2="1.3682934"
   inkscape:flatsided="false"
   inkscape:rounded="0"
   inkscape:randomized="0"
   d="m 366.42858,158.86644 -7.09573,-2.05207 -5.71313,4.68194 -0.24106,-7.38256 -6.21825,-3.9867 6.94674,-2.51061 1.87004,-7.14587 4.53439,5.83093 7.37399,-0.42969 -4.14433,6.11432 z"
   inkscape:transform-center-x="0.69130418"
   inkscape:transform-center-y="-0.38299302" /><path
   sodipodi:type="star"
   style="fill:#ffffff"
   id="path3997"
   sodipodi:sides="5"
   sodipodi:cx="397.14284"
   sodipodi:cy="152.79501"
   sodipodi:r1="4.5456862"
   sodipodi:r2="2.2728431"
   sodipodi:arg1="0.78539816"
   sodipodi:arg2="1.4137167"
   inkscape:flatsided="false"
   inkscape:rounded="0"
   inkscape:randomized="0"
   d="m 400.35714,156.0093 -2.85874,-0.96943 -2.41925,1.80538 0.0386,-3.01839 -2.4646,-1.74295 2.88258,-0.89604 0.89604,-2.88258 1.74295,2.46461 3.01839,-0.0386 -1.80538,2.41924 z"
   inkscape:transform-center-x="0.21974261"
   inkscape:transform-center-y="-0.21974261" /><path
   sodipodi:type="star"
   style="fill:#ffffff"
   id="path4001"
   sodipodi:sides="5"
   sodipodi:cx="383.21429"
   sodipodi:cy="152.43786"
   sodipodi:r1="6.3185018"
   sodipodi:r2="3.1592509"
   sodipodi:arg1="2.3162158"
   sodipodi:arg2="2.9445343"
   inkscape:flatsided="false"
   inkscape:rounded="0"
   inkscape:randomized="0"
   d="m 378.92858,157.08072 1.18761,-4.02432 -2.64187,-3.25977 4.19434,-0.1141 2.28385,-3.51989 1.40464,3.9538 4.05336,1.08436 -3.32623,2.55768 0.22128,4.19006 -3.46037,-2.37306 z"
   inkscape:transform-center-x="-0.22812028"
   inkscape:transform-center-y="-0.38227586" /><path
   sodipodi:type="star"
   style="fill:#ffffff"
   id="path4003"
   sodipodi:sides="5"
   sodipodi:cx="397.14284"
   sodipodi:cy="131.72358"
   sodipodi:r1="6.8232044"
   sodipodi:r2="3.4116022"
   sodipodi:arg1="2.3191744"
   sodipodi:arg2="2.9474929"
   inkscape:flatsided="false"
   inkscape:rounded="0"
   inkscape:randomized="0"
   d="m 392.5,136.72359 1.29531,-4.34196 -2.84246,-3.52858 4.52972,-0.10982 2.47751,-3.79373 1.5042,4.27409 4.37365,1.18392 -3.60008,2.75134 0.22556,4.52544 -3.72917,-2.57366 z"
   inkscape:transform-center-x="-0.25253612"
   inkscape:transform-center-y="-0.4066917" /><path
   sodipodi:type="star"
   style="fill:#ffffff"
   id="path4005"
   sodipodi:sides="5"
   sodipodi:cx="407.49999"
   sodipodi:cy="140.29501"
   sodipodi:r1="3.5714285"
   sodipodi:r2="1.7857142"
   sodipodi:arg1="0.64350111"
   sodipodi:arg2="1.2718196"
   inkscape:flatsided="false"
   inkscape:rounded="0"
   inkscape:randomized="0"
   d="m 410.35713,142.43787 -2.33117,-0.43636 -1.68104,1.67299 -0.30537,-2.35192 -2.11057,-1.08179 2.14244,-1.01721 0.37663,-2.34156 1.62948,1.72325 2.34335,-0.36538 -1.13538,2.08223 z"
   inkscape:transform-center-x="0.3250665"
   inkscape:transform-center-y="-0.016755337" /><path
   sodipodi:type="star"
   style="fill:#ffffff"
   id="path4007"
   sodipodi:sides="5"
   sodipodi:cx="412.49999"
   sodipodi:cy="156.72358"
   sodipodi:r1="5.0759534"
   sodipodi:r2="2.5379767"
   sodipodi:arg1="2.2565258"
   sodipodi:arg2="2.8848444"
   inkscape:flatsided="false"
   inkscape:rounded="0"
   inkscape:randomized="0"
   d="m 409.28571,160.65216 0.7595,-3.28409 -2.27478,-2.48745 3.35805,-0.29251 1.66277,-2.93211 1.31588,3.1033 3.30243,0.67532 -2.54479,2.21045 0.37825,3.34948 -2.88866,-1.73717 z"
   inkscape:transform-center-x="-0.090002873"
   inkscape:transform-center-y="-0.39831404" /><path
   sodipodi:type="star"
   style="fill:#ffffff"
   id="path4009"
   sodipodi:sides="5"
   sodipodi:cx="373.21429"
   sodipodi:cy="162.79501"
   sodipodi:r1="4.0406102"
   sodipodi:r2="2.0203051"
   sodipodi:arg1="0.78539816"
   sodipodi:arg2="1.4137167"
   inkscape:flatsided="false"
   inkscape:rounded="0"
   inkscape:randomized="0"
   d="m 376.07144,165.65216 -2.5411,-0.86171 -2.15044,1.60477 0.0343,-2.68301 -2.19076,-1.54929 2.56229,-0.79648 0.79648,-2.56229 1.54929,2.19076 2.68301,-0.0343 -1.60477,2.15045 z"
   inkscape:transform-center-x="0.19532676"
   inkscape:transform-center-y="-0.19532676" /><path
   sodipodi:type="star"
   style="fill:#ffffff"
   id="path4011"
   sodipodi:sides="5"
   sodipodi:cx="385.71429"
   sodipodi:cy="170.65216"
   sodipodi:r1="5.7587556"
   sodipodi:r2="2.8793775"
   sodipodi:arg1="1.0516502"
   sodipodi:arg2="1.6799687"
   inkscape:flatsided="false"
   inkscape:rounded="0"
   inkscape:randomized="0"
   d="m 388.57144,175.65216 -3.17087,-2.13777 -3.55865,1.40016 1.05328,-3.67628 -2.43131,-2.95181 3.82183,-0.1343 2.05602,-3.22447 1.30874,3.59327 3.702,0.95898 -3.01298,2.35507 z"
   inkscape:transform-center-x="-0.19389244"
   inkscape:transform-center-y="-0.3622357" /><path
   sodipodi:type="star"
   style="fill:#ffffff"
   id="path4013"
   sodipodi:sides="5"
   sodipodi:cx="398.92855"
   sodipodi:cy="170.65216"
   sodipodi:r1="4.9615869"
   sodipodi:r2="2.4807934"
   sodipodi:arg1="1.0427219"
   sodipodi:arg2="1.6710404"
   inkscape:flatsided="false"
   inkscape:rounded="0"
   inkscape:randomized="0"
   d="m 401.42856,174.93787 -2.74827,-1.81737 -3.05515,1.23366 0.87917,-3.17536 -2.11737,-2.5244 3.29162,-0.1451 1.74654,-2.79382 1.15517,3.08568 3.19679,0.79771 -2.57769,2.05216 z"
   inkscape:transform-center-x="-0.15343842"
   inkscape:transform-center-y="-0.32548226" /><path
   sodipodi:type="star"
   style="fill:#ffffff"
   id="path4015"
   sodipodi:sides="5"
   sodipodi:cx="407.85714"
   sodipodi:cy="185.65216"
   sodipodi:r1="8.365857"
   sodipodi:r2="4.1829285"
   sodipodi:arg1="1.6534809"
   sodipodi:arg2="2.2817994"
   inkscape:flatsided="false"
   inkscape:rounded="0"
   inkscape:randomized="0"
   d="m 407.1662,193.98943 -2.03882,-5.16784 -5.41297,-1.2502 4.28487,-3.53597 -0.48369,-5.53438 4.68702,2.98248 5.11404,-2.17024 -1.38814,5.37926 3.64434,4.1931 -5.54494,0.34208 z"
   inkscape:transform-center-x="0.21351202"
   inkscape:transform-center-y="0.59307699" /><path
   sodipodi:type="star"
   style="fill:#ffffff"
   id="path4017"
   sodipodi:sides="5"
   sodipodi:cx="413.21429"
   sodipodi:cy="169.22358"
   sodipodi:r1="7.5125435"
   sodipodi:r2="3.7562718"
   sodipodi:arg1="-0.14138873"
   sodipodi:arg2="0.4869298"
   inkscape:flatsided="false"
   inkscape:rounded="0"
   inkscape:randomized="0"
   d="m 420.65187,168.16493 -4.11788,2.81627 -0.0145,4.9888 -3.95092,-3.04606 -4.74912,1.52781 1.67608,-4.69884 -2.9206,-4.04455 4.9868,0.14202 2.94408,-4.02749 1.40594,4.78661 z"
   inkscape:transform-center-x="-0.39909502"
   inkscape:transform-center-y="-0.32714195" /></svg>