<?xml version="1.0" encoding="UTF-8" standalone="no"?>
<!-- Generator: Adobe Illustrator 16.0.0, SVG Export Plug-In . SVG Version: 6.00 Build 0)  -->

<svg
   xmlns:dc="http://purl.org/dc/elements/1.1/"
   xmlns:cc="http://creativecommons.org/ns#"
   xmlns:rdf="http://www.w3.org/1999/02/22-rdf-syntax-ns#"
   xmlns:svg="http://www.w3.org/2000/svg"
   xmlns="http://www.w3.org/2000/svg"
   xmlns:sodipodi="http://sodipodi.sourceforge.net/DTD/sodipodi-0.dtd"
   xmlns:inkscape="http://www.inkscape.org/namespaces/inkscape"
   version="1.1"
   id="svg2"
   sodipodi:docname="outwall.svg"
   inkscape:version="0.91 r13725"
   x="0px"
   y="0px"
   width="430.543px"
   height="325.295px"
   viewBox="0 0 430.543 325.295"
   enable-background="new 0 0 430.543 325.295"
   xml:space="preserve"><metadata
     id="metadata11"><rdf:RDF><cc:Work
         rdf:about=""><dc:format>image/svg+xml</dc:format><dc:type
           rdf:resource="http://purl.org/dc/dcmitype/StillImage" /><dc:title></dc:title></cc:Work></rdf:RDF></metadata><defs
     id="defs3"><inkscape:perspective
       id="perspective2985"
       inkscape:vp_z="744.09448 : 526.18109 : 1"
       inkscape:vp_y="0 : 1000 : 0"
       inkscape:vp_x="0 : 526.18109 : 1"
       sodipodi:type="inkscape:persp3d"
       inkscape:persp3d-origin="372.04724 : 350.78739 : 1" /></defs><sodipodi:namedview
     units="mm"
     fit-margin-left="0"
     fit-margin-top="0"
     showguides="true"
     showgrid="false"
     inkscape:cy="211.96909"
     inkscape:cx="304.95531"
     inkscape:zoom="2.8"
     borderopacity="1.0"
     bordercolor="#666666"
     pagecolor="#ffffff"
     id="base"
     inkscape:pageshadow="2"
     inkscape:pageopacity="0.0"
     fit-margin-bottom="0"
     fit-margin-right="0"
     inkscape:guide-bbox="true"
     inkscape:window-maximized="1"
     inkscape:window-y="24"
     inkscape:window-x="69"
     inkscape:window-height="744"
     inkscape:window-width="1297"
     inkscape:object-nodes="true"
     inkscape:current-layer="svg2"
     inkscape:document-units="mm" /><path
     id="path3910"
     sodipodi:nodetypes="cccccc"
     inkscape:connector-curvature="0"
     fill="#D7D7F4"
     stroke="#000000"
     stroke-linecap="round"
     stroke-linejoin="round"
     d="  M224.757,6.177l205.288,122.462l-9.313,5.563L215.265,11.608L224.757,6.177z" /><path
     id="path3918"
     inkscape:connector-curvature="0"
     fill="#B3B3B3"
     stroke="#000000"
     stroke-linecap="round"
     stroke-linejoin="round"
     d="  M430.043,128.651v68l-9.311,5.555v-68L430.043,128.651z" /><path
     id="path6059"
     inkscape:connector-curvature="0"
     fill="#B3B3B3"
     stroke="#000000"
     d="M299.065,118.563l-9.312,5.556  l37.155,22.163l9.25-5.594L299.065,118.563z" /><path
     id="path6053"
     sodipodi:nodetypes="ccccccccc"
     inkscape:connector-curvature="0"
     fill="#F2F2F2"
     stroke="#000000"
     stroke-linecap="round"
     stroke-linejoin="round"
     d="  M215.271,11.589l205.451,122.629v68l-93.813-55.969l0,0l-37.156-22.188v-0.031l-74.011-44.163L215.271,11.589z" /><path
     style="fill:#aa4400;stroke:#552200;stroke-width:0.35714287"
     d="m 373.36256,173.16488 c -25.56708,-15.2525 -54.49565,-32.51675 -64.28571,-38.365 -9.79006,-5.84825 -34.59475,-20.65991 -55.12154,-32.9148 l -37.32143,-22.281629 -0.2182,-10.299478 c -0.12002,-5.664714 -0.24055,-20.642568 -0.26786,-33.284121 -0.0394,-18.259414 0.0421,-22.948455 0.39678,-22.808635 0.60084,0.23688 202.87324,120.963863 203.21614,121.290263 0.14835,0.1412 0.2287,15.13789 0.17857,33.32597 l -0.0911,33.06924 -46.48561,-27.73181 z"
     id="path3343"
     inkscape:connector-curvature="0" /><path
     style="fill:#552200;stroke:#552200;stroke-width:0.35714287"
     d="m 319.31245,72.937623 c -55.6875,-33.252421 -101.5331,-60.678139 -101.87912,-60.94604 -0.56718,-0.439128 -0.237,-0.712302 3.35309,-2.7742199 3.06279,-1.7590703 4.11508,-2.2047053 4.55769,-1.9301367 0.31652,0.1963455 46.05763,27.4814156 101.64691,60.6334896 55.58929,33.152074 101.19894,60.392774 101.35477,60.534904 0.2172,0.19809 -7.44796,5.13848 -7.72204,4.97706 -0.0337,-0.0199 -45.6238,-27.24263 -101.3113,-60.495057 z"
     id="path3345"
     inkscape:connector-curvature="0" /><path
     style="fill:#552200;stroke:#552200;stroke-width:0.35714287"
     d="m 421.45531,167.81954 0,-33.23139 3.125,-1.87409 c 1.71875,-1.03075 3.48661,-2.10467 3.92857,-2.38648 l 0.80357,-0.51238 0,33.23139 0,33.23138 -3.125,1.87409 c -1.71875,1.03075 -3.48661,2.10467 -3.92857,2.38648 l -0.80357,0.51238 0,-33.23138 z"
     id="path3347"
     inkscape:connector-curvature="0" /><path
     style="fill:#552200;stroke:#552200;stroke-width:0.35468683"
     d="M 279.38477 49.716797 L 251.33984 67.113281 L 223.29297 84.509766 L 224.14648 84.919922 C 224.61568 85.145392 226.44716 86.075368 228.2168 86.986328 L 231.43555 88.642578 L 259.48047 71.246094 L 287.52539 53.849609 L 286.67383 53.439453 C 286.20463 53.213983 284.37316 52.284007 282.60352 51.373047 L 279.38477 49.716797 z "
     id="path3505" /><path
     id="path3682"
     d="m 319.31245,72.937623 -28.04493,17.396484 -28.04687,17.396483 0.85351,0.41016 c 0.4692,0.22547 2.30068,1.15544 4.07032,2.0664 l 3.21875,1.65625 28.04492,-17.39648 28.04492,-17.396485 -0.85156,-0.410156 c -0.4692,-0.22547 -2.30067,-1.155446 -4.07031,-2.066406 l -3.21875,-1.65625 z"
     style="fill:#552200;stroke:#552200;stroke-width:0.35468683"
     inkscape:connector-curvature="0" /><path
     inkscape:connector-curvature="0"
     style="fill:#552200;stroke:#552200;stroke-width:0.35468683"
     d="m 357.52674,96.509051 -28.04493,17.396489 -28.04687,17.39648 0.85351,0.41016 c 0.4692,0.22547 2.30068,1.15544 4.07032,2.0664 l 3.21875,1.65625 28.04492,-17.39648 28.04492,-17.39649 -0.85156,-0.41015 c -0.4692,-0.22547 -2.30067,-1.155449 -4.07031,-2.066409 l -3.21875,-1.65625 z"
     id="path3684" /><path
     id="path3686"
     d="m 401.45531,123.29476 -28.04493,17.39649 -28.04687,17.39648 0.85351,0.41016 c 0.4692,0.22547 2.30068,1.15544 4.07032,2.0664 l 3.21875,1.65625 28.04492,-17.39648 28.04492,-17.39649 -0.85156,-0.41015 c -0.4692,-0.22547 -2.30067,-1.15545 -4.07031,-2.06641 l -3.21875,-1.65625 z"
     style="fill:#552200;stroke:#552200;stroke-width:0.35468683"
     inkscape:connector-curvature="0" /></svg>