<?xml version="1.0" encoding="UTF-8" standalone="no"?>
<!-- Generator: Adobe Illustrator 16.0.0, SVG Export Plug-In . SVG Version: 6.00 Build 0)  -->

<svg
   xmlns:dc="http://purl.org/dc/elements/1.1/"
   xmlns:cc="http://creativecommons.org/ns#"
   xmlns:rdf="http://www.w3.org/1999/02/22-rdf-syntax-ns#"
   xmlns:svg="http://www.w3.org/2000/svg"
   xmlns="http://www.w3.org/2000/svg"
   xmlns:sodipodi="http://sodipodi.sourceforge.net/DTD/sodipodi-0.dtd"
   xmlns:inkscape="http://www.inkscape.org/namespaces/inkscape"
   version="1.1"
   id="svg2"
   inkscape:version="0.92.3 (d244b95, 2018-08-02)"
   sodipodi:docname="Quirky.svg"
   x="0px"
   y="0px"
   width="430.543px"
   height="325.295px"
   viewBox="0 0 430.543 325.295"
   enable-background="new 0 0 430.543 325.295"
   xml:space="preserve"><metadata
     id="metadata11"><rdf:RDF><cc:Work
         rdf:about=""><dc:format>image/svg+xml</dc:format><dc:type
           rdf:resource="http://purl.org/dc/dcmitype/StillImage" /><dc:title></dc:title></cc:Work></rdf:RDF></metadata><defs
     id="defs3"><inkscape:perspective
       sodipodi:type="inkscape:persp3d"
       inkscape:vp_x="0 : 526.18109 : 1"
       inkscape:vp_y="0 : 1000 : 0"
       inkscape:vp_z="744.09448 : 526.18109 : 1"
       id="perspective2985"
       inkscape:persp3d-origin="372.04724 : 350.78739 : 1" /></defs><sodipodi:namedview
     units="mm"
     pagecolor="#ffffff"
     bordercolor="#666666"
     borderopacity="1.0"
     inkscape:zoom="1.979899"
     inkscape:cx="152.44366"
     inkscape:cy="190.9516"
     showgrid="false"
     showguides="true"
     fit-margin-top="0"
     fit-margin-left="0"
     id="base"
     inkscape:document-units="mm"
     inkscape:current-layer="layer1"
     inkscape:object-nodes="true"
     inkscape:window-width="1362"
     inkscape:window-height="729"
     inkscape:window-x="0"
     inkscape:window-y="18"
     inkscape:window-maximized="0"
     inkscape:guide-bbox="true"
     fit-margin-right="0"
     fit-margin-bottom="0"
     inkscape:pageopacity="0.0"
     inkscape:pageshadow="2" /><g
     id="layer1"
     transform="translate(-53.643411,-569.625)"
     inkscape:label="Layer 1"
     inkscape:groupmode="layer"><path
       id="path3910"
       inkscape:connector-curvature="0"
       sodipodi:nodetypes="cccccccc"
       fill="#D7D7F4"
       d="M268.908,570.139   l9.32,5.536l-9.313,5.563l-0.007-0.005L63.471,703.826H63.44l-9.281-5.563L268.908,570.139z" /><path
       id="path3914"
       inkscape:connector-curvature="0"
       sodipodi:nodetypes="ccccc"
       fill="#B3B3B3"
       d="M278.228,575.675v68   L63.455,771.831v-68L278.228,575.675z" /><path
       id="path3916"
       inkscape:connector-curvature="0"
       fill="#F2F2F2"
       d="M54.144,698.276v68l9.311,5.555v-68L54.144,698.276z" /><path
       style="fill:#00ffff;stroke-width:0.50507629"
       d="M 9.8606198,168.1805 V 134.38818 L 35.49324,119.09046 C 147.7883,52.072 219.57944,9.2467322 222.11892,7.7634279 l 2.39911,-1.4013138 V 40.127173 73.892232 L 117.8871,137.52861 C 59.24009,172.52863 10.942172,201.34676 10.558395,201.56891 9.9676738,201.91084 9.8606198,196.78833 9.8606198,168.1805 Z"
       id="path13"
       inkscape:connector-curvature="0"
       transform="translate(53.643411,569.625)" /><path
       style="fill:#00ffff;stroke-width:0.50507629"
       d="M 4.9254504,131.15326 0.74789524,128.60065 107.45593,64.929189 C 166.14535,29.909884 214.51813,1.1626367 214.951,1.0464153 c 0.76197,-0.2045852 9.0245,4.3328502 9.04954,4.9696355 0.007,0.1735603 -19.93178,12.2103392 -44.30802,26.7483982 -24.37625,14.538058 -49.88891,29.76033 -56.69482,33.827264 -6.8059,4.06694 -24.306791,14.508114 -38.890869,23.202608 C 69.522754,98.48882 50.658155,109.74571 42.185501,114.80963 12.89522,132.31579 10.459772,133.73725 9.7828199,133.7216 9.408922,133.71296 7.2231055,132.5572 4.9254504,131.15326 Z"
       id="path15"
       inkscape:connector-curvature="0"
       transform="translate(53.643411,569.625)" /><path
       style="fill:#00ffff;stroke-width:0.50507629"
       d="m 4.9361262,199.48549 -4.67195548,-2.85945 v -34.25835 c 0,-28.45413 0.11347089,-34.14489 0.66973992,-33.58862 0.36835696,0.36835 2.51840386,1.69147 4.77788186,2.94026 l 4.1081424,2.27053 0.1466115,34.21898 c 0.080637,18.82045 0.032969,34.20034 -0.1059266,34.17755 -0.1388959,-0.0228 -2.3549181,-1.3282 -4.9244936,-2.9009 z"
       id="path17"
       inkscape:connector-curvature="0"
       transform="translate(53.643411,569.625)" /><path
       style="fill:#ffb380;stroke-width:0.50507629"
       d="m 10.419738,200.11354 c -0.168616,-0.43941 -0.306575,-15.38841 -0.306575,-33.22 V 134.47246 L 116.75453,70.844092 C 175.40728,35.848484 223.59156,7.1399535 223.8307,7.0473562 c 0.24042,-0.093092 0.42903,14.8097058 0.4219,33.3350338 l -0.0129,33.503393 -106.48107,63.513337 c -58.564585,34.93234 -106.605097,63.51334 -106.756691,63.51334 -0.151594,0 -0.413584,-0.35951 -0.582201,-0.79892 z"
       id="path14"
       inkscape:connector-curvature="0"
       transform="translate(53.643411,569.625)" /><path
       style="fill:#ffb380;stroke-width:0.50507629"
       d="M 5.6717366,131.31768 C 3.396014,130.00946 1.5892617,128.77549 1.6567317,128.57552 1.7754972,128.22351 19.846431,117.40231 122.49263,56.216725 180.5014,21.638725 210.09692,4.0527933 213.07841,2.389814 l 2.19745,-1.2256596 3.82224,2.0156277 c 2.10223,1.1085953 3.90909,2.2773491 4.01525,2.5972306 0.20398,0.614632 -23.113,14.6952553 -121.58138,73.4203993 C 27.415722,123.39929 16.173177,130.08896 12.612939,132.10709 l -2.8035246,1.58918 z"
       id="path16"
       inkscape:connector-curvature="0"
       transform="translate(53.643411,569.625)" /><path
       style="fill:#ff7f2a;stroke-width:0.50507629"
       d="m 4.9361309,199.27757 -4.41941734,-2.63529 0.007734,-33.09398 c 0.004253,-18.20169 0.17471699,-33.34553 0.3788072,-33.65299 0.24791234,-0.37347 1.74765024,0.21326 4.51858514,1.76777 l 4.1475116,2.32678 0.01937,33.96638 c 0.010652,18.68151 -0.037456,33.96418 -0.1069019,33.9615 -0.069448,-0.003 -2.1150069,-1.19076 -4.5456865,-2.64017 z"
       id="path18"
       inkscape:connector-curvature="0"
       transform="translate(53.643411,569.625)" /><path
       style="fill:#ff7f2a;stroke-width:0.50507629"
       d="m 10.389094,175.56323 c -0.192502,-13.69822 -0.276517,-28.51905 -0.186699,-32.93519 l 0.163306,-8.02934 46.719555,-27.88209 C 82.781011,91.381458 130.738,62.784413 163.65635,43.167628 l 59.85154,-35.6668877 0.37466,20.8181527 c 0.20607,11.449984 0.31972,26.358968 0.25254,33.131073 l -0.12213,12.312926 -42.67894,25.461592 C 137.37715,125.44846 36.196988,185.71854 20.972302,194.74729 c -4.722463,2.80058 -8.95685,5.23367 -9.40975,5.40688 -0.751475,0.28739 -0.854047,-1.86211 -1.173458,-24.59094 z"
       id="path20"
       inkscape:connector-curvature="0"
       transform="translate(53.643411,569.625)" /><path
       style="fill:#ff7f2a;stroke-width:0.50507629"
       d="M 10.937631,193.21005 C 10.439429,181.68007 10.10618,145.86536 10.442995,140.05077 l 0.321827,-5.55584 22.528871,-13.43337 C 45.684573,113.6732 68.323203,100.17213 83.60176,91.059179 98.880317,81.946234 136.49587,59.51955 167.19188,41.222102 l 55.81093,-33.268082 0.32532,4.429072 c 0.17893,2.43599 0.3446,17.270636 0.36814,32.965881 l 0.0428,28.53681 -8.19683,4.849171 c -4.50827,2.66704 -49.78987,29.622676 -100.62579,59.901416 -104.409193,62.18788 -102.854188,61.26594 -103.335588,61.26594 -0.194757,0 -0.484228,-3.01152 -0.643271,-6.69226 z"
       id="path22"
       inkscape:connector-curvature="0"
       transform="translate(53.643411,569.625)" /><path
       style="fill:#0000ff;stroke-width:0.50507629"
       d="m 63.673418,763.29908 c -0.528231,-9.57517 -0.953085,-49.80724 -0.580588,-54.97932 l 0.359995,-4.99849 17.75626,-10.60128 C 204.22325,619.27498 275.69305,576.8348 275.94216,577.08365 c 0.16773,0.16755 0.37525,15.0025 0.46117,32.96656 l 0.15622,32.66191 -18.84404,11.19993 c -10.36422,6.15995 -33.50388,19.93451 -51.42146,30.61013 -139.43242,83.07635 -141.337694,84.20647 -141.964147,84.20647 -0.196325,0 -0.491743,-2.4433 -0.656485,-5.42957 z"
       id="path24"
       inkscape:connector-curvature="0" /><path
       style="fill:#000080;stroke-width:0.50507629"
       d="M 8.3453957,132.63076 C 7.7898118,132.31684 6.1113368,131.28419 4.6154508,130.33597 L 1.8956584,128.61193 6.635756,125.69929 C 15.275109,120.3907 172.55615,26.591054 205.22716,7.2628735 l 10.00354,-5.9180977 3.55931,1.9568788 c 1.95763,1.0762833 3.57635,2.1699603 3.59715,2.4303933 0.0208,0.260433 -2.21865,1.9003348 -4.97656,3.6442263 C 209.91577,14.115425 145.95271,52.484297 82.339069,90.400266 15.27707,130.37158 10.424283,133.23679 9.8209528,133.21688 c -0.2559726,-0.008 -0.9199732,-0.2722 -1.4755571,-0.58612 z"
       id="path26"
       inkscape:connector-curvature="0"
       transform="translate(53.643411,569.625)" /><path
       style="fill:#000080;stroke-width:0.50507629"
       d="M 4.6101552,198.77483 0.36983845,196.20481 0.73972337,163.32957 C 0.94316011,145.24819 1.2206109,130.3425 1.3562807,130.20583 c 0.1356699,-0.13667 1.8997402,0.62519 3.9201565,1.69303 l 3.6734838,1.94151 0.2170808,18.00495 c 0.119394,9.90273 0.097018,25.09123 -0.049725,33.75224 l -0.266805,15.74729 z"
       id="path28"
       inkscape:connector-curvature="0"
       transform="translate(53.643411,569.625)" /><path
       sodipodi:type="spiral"
       style="fill:#ffd5d5;fill-rule:evenodd;stroke:#000000"
       id="path24391"
       sodipodi:cx="90.513977"
       sodipodi:cy="715.11285"
       sodipodi:expansion="1"
       sodipodi:revolution="3"
       sodipodi:radius="28.325861"
       sodipodi:argument="-21.592592"
       sodipodi:t0="0"
       d="m 90.513977,715.11285 c -1.3089,-0.55116 0.0972,-2.03629 0.916078,-2.17547 2.219112,-0.37717 3.60812,2.0962 3.434879,4.00763 -0.309888,3.4191 -3.967383,5.29481 -7.09919,4.69428 -4.596053,-0.8813 -7.017121,-5.85876 -5.953681,-10.19075 1.417398,-5.77386 7.756619,-8.75375 13.282303,-7.21308 6.953514,1.93878 10.497614,9.65741 8.472484,16.37386 -2.4527,8.13452 -11.559811,12.24563 -19.465417,9.73188 -9.316484,-2.96236 -13.996246,-13.46321 -10.991285,-22.55697 3.469347,-10.4991 15.367286,-15.7486 25.648529,-12.25068 11.682203,3.97455 17.502173,17.27183 13.510083,28.74008 -4.47852,12.86565 -19.176715,19.25663 -31.831639,14.76949 -14.049363,-4.98158 -21.011747,-21.08187 -16.028887,-34.9232" /><path
       sodipodi:type="spiral"
       style="fill:#ffd5d5;fill-rule:evenodd;stroke:#000000"
       id="path24391-3"
       sodipodi:cx="149.43425"
       sodipodi:cy="681.95239"
       sodipodi:expansion="1"
       sodipodi:revolution="3"
       sodipodi:radius="28.325861"
       sodipodi:argument="-21.592592"
       sodipodi:t0="0"
       d="m 149.43425,681.95239 c -1.3089,-0.55117 0.0972,-2.0363 0.91608,-2.17548 2.21911,-0.37717 3.60812,2.09621 3.43488,4.00764 -0.30989,3.4191 -3.96739,5.29481 -7.09919,4.69428 -4.59606,-0.8813 -7.01712,-5.85876 -5.95368,-10.19075 1.41739,-5.77386 7.75661,-8.75375 13.2823,-7.21308 6.95351,1.93877 10.49761,9.65741 8.47248,16.37386 -2.4527,8.13452 -11.55981,12.24563 -19.46541,9.73188 -9.31649,-2.96236 -13.99625,-13.46321 -10.99129,-22.55697 3.46935,-10.4991 15.36729,-15.7486 25.64853,-12.25068 11.6822,3.97455 17.50217,17.27182 13.51009,28.74008 -4.47852,12.86565 -19.17672,19.25663 -31.83165,14.76949 -14.04936,-4.98158 -21.01174,-21.08187 -16.02888,-34.9232" /><path
       sodipodi:type="spiral"
       style="fill:#ffd5d5;fill-rule:evenodd;stroke:#000000"
       id="path24391-6"
       sodipodi:cx="201.96219"
       sodipodi:cy="653.66815"
       sodipodi:expansion="1"
       sodipodi:revolution="3"
       sodipodi:radius="28.325861"
       sodipodi:argument="-21.592592"
       sodipodi:t0="0"
       d="m 201.96219,653.66815 c -1.3089,-0.55117 0.0972,-2.0363 0.91608,-2.17548 2.21911,-0.37717 3.60812,2.09621 3.43488,4.00764 -0.30989,3.4191 -3.96739,5.29481 -7.09919,4.69428 -4.59606,-0.8813 -7.01713,-5.85876 -5.95369,-10.19075 1.4174,-5.77386 7.75662,-8.75375 13.28231,-7.21308 6.95351,1.93877 10.49761,9.65741 8.47248,16.37386 -2.4527,8.13452 -11.55981,12.24563 -19.46542,9.73188 -9.31648,-2.96236 -13.99624,-13.46321 -10.99128,-22.55697 3.46935,-10.49911 15.36729,-15.7486 25.64853,-12.25069 11.6822,3.97456 17.50217,17.27183 13.51008,28.74009 -4.47851,12.86565 -19.17671,19.25663 -31.83164,14.76949 -14.04936,-4.98158 -21.01174,-21.08187 -16.02888,-34.9232" /><path
       sodipodi:type="spiral"
       style="fill:#ffd5d5;fill-rule:evenodd;stroke:#000000"
       id="path24391-7"
       sodipodi:cx="252.46982"
       sodipodi:cy="623.36359"
       sodipodi:expansion="1"
       sodipodi:revolution="3"
       sodipodi:radius="28.325861"
       sodipodi:argument="-21.592592"
       sodipodi:t0="0.10934862"
       d="m 254.87463,621.41148 c 2.36059,1.10334 2.38115,4.30499 1.03497,6.1896 -2.21973,3.10758 -6.76549,2.99711 -9.50996,0.68996 -3.88362,-3.26478 -3.62945,-9.25019 -0.34496,-12.83032 4.28753,-4.67344 11.74458,-4.2695 16.15068,6e-5 5.47029,5.30076 4.91374,14.24389 -0.34506,19.47103 -6.3091,6.27113 -16.74611,5.56047 -22.79139,-0.69006 -7.07443,-7.31461 -6.20879,-19.25018 1.03507,-26.11176 8.31834,-7.87935 21.7555,-6.85819 29.43211,1.38008 8.68541,9.32088 7.50838,24.26171 -1.72508,32.75247 -10.32257,9.49228 -26.76858,8.15912 -36.07283,-2.07009 -6.79139,-7.46653 -8.77944,-18.36249 -5.3741,-27.8218" /></g></svg>