<?xml version="1.0" encoding="UTF-8" standalone="no"?>
<!-- Created with Inkscape (http://www.inkscape.org/) -->

<svg
   xmlns:dc="http://purl.org/dc/elements/1.1/"
   xmlns:cc="http://creativecommons.org/ns#"
   xmlns:rdf="http://www.w3.org/1999/02/22-rdf-syntax-ns#"
   xmlns:svg="http://www.w3.org/2000/svg"
   xmlns="http://www.w3.org/2000/svg"
   xmlns:sodipodi="http://sodipodi.sourceforge.net/DTD/sodipodi-0.dtd"
   xmlns:inkscape="http://www.inkscape.org/namespaces/inkscape"
   width="210mm"
   height="297mm"
   viewBox="0 0 210 297"
   version="1.1"
   id="svg8"
   inkscape:version="0.92.3 (2405546, 2018-03-11)"
   sodipodi:docname="RedStars.svg">
  <defs
     id="defs2">
    <inkscape:perspective
       sodipodi:type="inkscape:persp3d"
       inkscape:vp_x="0 : 148.5 : 1"
       inkscape:vp_y="0 : 1000 : 0"
       inkscape:vp_z="210 : 148.5 : 1"
       inkscape:persp3d-origin="105 : 99 : 1"
       id="perspective3793" />
  </defs>
  <sodipodi:namedview
     id="base"
     pagecolor="#ffffff"
     bordercolor="#666666"
     borderopacity="1.0"
     inkscape:pageopacity="0.0"
     inkscape:pageshadow="2"
     inkscape:zoom="0.35"
     inkscape:cx="-517.14286"
     inkscape:cy="560"
     inkscape:document-units="mm"
     inkscape:current-layer="layer1"
     showgrid="false"
     inkscape:snap-midpoints="true"
     inkscape:window-width="1366"
     inkscape:window-height="705"
     inkscape:window-x="-8"
     inkscape:window-y="-8"
     inkscape:window-maximized="1" />
  <metadata
     id="metadata5">
    <rdf:RDF>
      <cc:Work
         rdf:about="">
        <dc:format>image/svg+xml</dc:format>
        <dc:type
           rdf:resource="http://purl.org/dc/dcmitype/StillImage" />
        <dc:title />
      </cc:Work>
    </rdf:RDF>
  </metadata>
  <g
     inkscape:label="Layer 1"
     inkscape:groupmode="layer"
     id="layer1">
    <path
       id="path6053"
       inkscape:connector-curvature="0"
       sodipodi:nodetypes="ccccccccc"
       d="M 53.989284,21.711189 193.67606,126.9786 v 58.37266 l -63.78377,-48.045 v 0 l -25.26247,-19.04667 v -0.026 L 54.309519,80.322506 Z"
       style="fill:#f2f2f2;stroke-width:0.76396567" />
    <path
       id="path3910"
       inkscape:connector-curvature="0"
       sodipodi:nodetypes="cccccc"
       d="M 60.438846,17.06541 200.0148,122.18944 193.68284,126.96484 53.985206,21.727497 Z"
       style="fill:#d7d7f4;stroke-width:0.76396567" />
    <path
       id="path3918"
       inkscape:connector-curvature="0"
       d="m 200.01344,122.19975 v 58.37269 l -6.3306,4.76853 v -58.37268 z"
       style="fill:#b3b3b3;stroke-width:0.76396567" />
    <path
       style="fill:#ffeeaa;stroke-width:1.09137964"
       d="m 190.13594,182.33546 c 0,-0.60187 -0.40688,-0.77681 -0.90417,-0.38878 -0.4973,0.38806 -1.17601,0.15021 -1.50827,-0.52852 -0.33223,-0.67873 -8.99829,-7.52236 -19.25789,-15.20809 -10.2596,-7.68573 -20.18008,-15.14081 -22.04554,-16.56687 -1.86543,-1.42602 -4.55864,-3.1835 -5.98488,-3.90548 -1.42625,-0.72198 -2.84367,-2.13688 -3.14983,-3.14421 -0.30618,-1.00733 -0.99682,-1.48806 -1.53481,-1.06825 -0.538,0.41979 -0.97816,0.14632 -0.97816,-0.60782 0,-0.75407 -0.39975,-1.05915 -0.88833,-0.67789 -0.48858,0.38125 -1.03492,0.22808 -1.21411,-0.34008 -0.40986,-1.29995 -26.68718,-21.05573 -28.00637,-21.05573 -0.53485,0 -0.97246,-0.58442 -0.97246,-1.29868 0,-0.71429 -0.39974,-0.98679 -0.88835,-0.60554 -0.48858,0.38126 -1.03491,0.24398 -1.21411,-0.30529 -0.29174,-0.8943 -12.174706,-10.19608 -19.751575,-15.46119 -1.602622,-1.11365 -4.225118,-3.118153 -5.82774,-4.454451 -1.602622,-1.336298 -3.678757,-2.76348 -4.613623,-3.171524 -0.934866,-0.408043 -1.699759,-1.261937 -1.699759,-1.897554 0,-0.635618 -0.391282,-0.850347 -0.869514,-0.477171 -0.478236,0.373161 -1.130765,-0.181075 -1.450075,-1.231682 -0.31931,-1.050578 -1.020734,-1.566681 -1.558713,-1.146902 -0.53798,0.419794 -0.978149,0.146326 -0.978149,-0.6078 0,-0.754083 -0.437083,-1.030004 -0.97129,-0.613151 -0.534215,0.416837 -0.971289,0.299939 -0.971289,-0.259825 0,-0.55975 -1.927939,-2.347427 -4.284307,-3.972623 L 54.328311,80.385441 54.212979,60.679105 c -0.06345,-10.838489 -0.144699,-23.293317 -0.180599,-27.6774 -0.03591,-4.384083 -0.02286,-8.655762 0.02883,-9.49262 0.09109,-1.473104 8.179865,3.955227 11.992389,8.048032 0.934866,1.003592 1.699757,1.468665 1.699757,1.033496 0,-0.435171 0.76489,0.03565 1.699759,1.04629 0.934866,1.010629 1.918297,1.720266 2.185404,1.576973 0.267106,-0.143311 1.483251,0.817914 2.702549,2.136019 1.219285,1.318103 2.53052,2.382118 2.913857,2.364477 0.383337,-0.01751 1.352601,0.676677 2.153918,1.54293 0.801318,0.866257 1.686224,1.432533 1.966462,1.258392 0.280239,-0.17413 1.154387,0.41384 1.942576,1.306615 0.788189,0.892779 9.081967,7.350151 18.430629,14.349721 9.34869,6.999569 18.96444,14.240216 21.36838,16.09034 2.40394,1.85011 4.69862,3.256497 5.0993,3.125291 0.40063,-0.13125 0.72846,0.313286 0.72846,0.987761 0,0.674475 0.6556,1.226316 1.45692,1.226316 0.80132,0 1.45695,0.584418 1.45695,1.298697 0,0.714278 0.41103,0.977961 0.91338,0.585955 0.50235,-0.391992 1.8136,0.507264 2.91387,1.998342 1.10027,1.491079 2.0005,2.234889 2.0005,1.65291 0,-0.581994 1.09269,0.237905 2.42819,1.821997 1.33554,1.584091 2.42823,2.422526 2.42823,1.863175 0,-0.559335 0.7649,-0.179833 1.69976,0.843342 2.29949,2.516691 37.86677,29.177714 38.9247,29.177714 0.46198,0 1.62174,1.09068 2.57724,2.42373 0.95549,1.33303 2.11595,2.12822 2.57876,1.7671 0.46283,-0.36113 0.84147,-0.10938 0.84147,0.55944 0,0.66881 0.87416,1.56634 1.94258,1.99448 1.86925,0.74905 1.9426,1.85546 1.9426,29.30984 0,24.54372 -0.20352,28.53145 -1.45695,28.53145 -0.80132,0 -1.45693,-0.49244 -1.45693,-1.09431 z"
       id="path176"
       inkscape:connector-curvature="0" />
    <path
       style="fill:#ffeeaa;stroke-width:1.09137964"
       d="m 190.53972,124.20507 c -1.55524,-1.01872 -3.48427,-2.54724 -4.28679,-3.3967 -0.8025,-0.84948 -6.70404,-5.32394 -13.11458,-9.94329 -6.4105,-4.61933 -14.54367,-10.75211 -18.07371,-13.628422 -3.53002,-2.8763 -8.11936,-6.403012 -10.19855,-7.837126 -2.07915,-1.434115 -5.09155,-3.642561 -6.69418,-4.907632 -1.60262,-1.265086 -4.00656,-3.048832 -5.3421,-3.963902 C 131.49429,79.612927 118.81897,70.090966 104.6624,59.368081 90.505852,48.645187 73.755645,35.980755 67.43972,31.224898 61.1238,26.469039 55.891123,22.02604 55.811547,21.351566 c -0.07958,-0.674475 0.998091,-1.917841 2.394803,-2.76304 2.305109,-1.39489 3.130171,-1.083646 8.939576,3.372373 3.520049,2.7 6.694544,4.909092 7.054424,4.909092 0.359892,0 2.086951,1.379606 3.837921,3.065791 1.750958,1.686187 3.435744,3.065793 3.743967,3.065793 0.308236,0 2.632068,1.806135 5.164089,4.013634 2.532021,2.2075 5.716129,4.627467 7.075805,5.377708 1.359675,0.750239 9.801338,6.945822 18.759268,13.767956 8.95795,6.822144 16.54583,12.403882 16.862,12.403882 0.31615,0 2.00743,1.379604 3.7584,3.065799 1.75096,1.68618 3.43575,3.065784 3.74398,3.065784 0.30824,0 2.73684,1.931461 5.39693,4.292116 2.6601,2.360655 5.1869,4.292102 5.6151,4.292102 0.4282,0 8.78893,6.070274 18.57938,13.489484 9.79046,7.41921 18.03567,13.4895 18.3227,13.4895 0.28704,0 1.9545,1.37959 3.70545,3.06578 1.75095,1.68617 3.54052,3.08562 3.97683,3.10989 0.43632,0.026 2.05734,1.34916 3.60233,2.94419 l 2.80903,2.90009 -2.89306,1.88891 c -2.58642,1.68867 -3.19279,1.69255 -5.72075,0.0367 z"
       id="path178"
       inkscape:connector-curvature="0" />
    <path
       style="fill:#ffeeaa;stroke-width:1.09137964"
       d="m 194.02109,156.34742 c 0,-28.35065 0.0322,-28.8089 2.15871,-30.6894 1.18729,-1.04996 2.49852,-1.90903 2.91386,-1.90903 0.41536,0 0.75519,12.95414 0.75519,28.78697 v 28.78694 l -2.91389,1.90248 -2.91387,1.90246 z"
       id="path180"
       inkscape:connector-curvature="0" />
    <path
       sodipodi:type="star"
       style="fill:#ff0000;stroke-width:0.26458332"
       id="path3850"
       sodipodi:sides="5"
       sodipodi:cx="77.863091"
       sodipodi:cy="58.875"
       sodipodi:r1="6.9695368"
       sodipodi:r2="3.4847684"
       sodipodi:arg1="0.86217005"
       sodipodi:arg2="1.4904886"
       inkscape:flatsided="false"
       inkscape:rounded="0"
       inkscape:randomized="0"
       d="m 82.398805,64.166667 -4.256161,-1.81813 -3.910615,2.475399 0.413918,-4.609683 -3.56269,-2.954275 4.511976,-1.030811 1.708751,-4.301241 2.374637,3.972606 4.618757,0.295962 -3.044371,3.486017 z"
       inkscape:transform-center-x="0.17277433"
       inkscape:transform-center-y="-0.49907007" />
    <path
       sodipodi:type="star"
       style="fill:#ff0000;stroke-width:0.26458332"
       id="path3850-9"
       sodipodi:sides="5"
       sodipodi:cx="97.690628"
       sodipodi:cy="67.689545"
       sodipodi:r1="6.9695368"
       sodipodi:r2="3.4847684"
       sodipodi:arg1="0.86217005"
       sodipodi:arg2="1.4904886"
       inkscape:flatsided="false"
       inkscape:rounded="0"
       inkscape:randomized="0"
       d="m 102.22634,72.981211 -4.256159,-1.818129 -3.910614,2.475398 0.413918,-4.609682 -3.562691,-2.954276 4.511977,-1.030811 1.708751,-4.301241 2.374637,3.972607 4.618761,0.295962 -3.04438,3.486017 z"
       inkscape:transform-center-x="0.17277433"
       inkscape:transform-center-y="-0.49907007" />
    <path
       sodipodi:type="star"
       style="fill:#ff0000;stroke-width:0.26458332"
       id="path3850-4"
       sodipodi:sides="5"
       sodipodi:cx="72.744202"
       sodipodi:cy="80.540733"
       sodipodi:r1="6.9695368"
       sodipodi:r2="3.4847684"
       sodipodi:arg1="0.86217005"
       sodipodi:arg2="1.4904886"
       inkscape:flatsided="false"
       inkscape:rounded="0"
       inkscape:randomized="0"
       d="m 77.279916,85.8324 -4.256161,-1.818129 -3.910615,2.475398 0.413918,-4.609683 -3.56269,-2.954275 4.511976,-1.030811 1.708751,-4.301241 2.374637,3.972607 4.618757,0.295962 -3.04437,3.486017 z"
       inkscape:transform-center-x="0.17277433"
       inkscape:transform-center-y="-0.49907007" />
    <path
       sodipodi:type="star"
       style="fill:#ff0000;stroke-width:0.26458332"
       id="path3850-7"
       sodipodi:sides="5"
       sodipodi:cx="62.916821"
       sodipodi:cy="57.862164"
       sodipodi:r1="6.9695368"
       sodipodi:r2="3.4847684"
       sodipodi:arg1="0.86217005"
       sodipodi:arg2="1.4904886"
       inkscape:flatsided="false"
       inkscape:rounded="0"
       inkscape:randomized="0"
       d="m 67.452535,63.15383 -4.256161,-1.818129 -3.910615,2.475398 0.413918,-4.609683 -3.56269,-2.954275 4.511976,-1.030811 1.708751,-4.301241 2.374637,3.972607 4.618757,0.295962 -3.044371,3.486017 z"
       inkscape:transform-center-x="0.17277433"
       inkscape:transform-center-y="-0.49907007" />
    <path
       sodipodi:type="star"
       style="fill:#ff0000;stroke-width:0.26458332"
       id="path3850-91"
       sodipodi:sides="5"
       sodipodi:cx="113.56563"
       sodipodi:cy="90.368118"
       sodipodi:r1="6.9695368"
       sodipodi:r2="3.4847684"
       sodipodi:arg1="0.86217005"
       sodipodi:arg2="1.4904886"
       inkscape:flatsided="false"
       inkscape:rounded="0"
       inkscape:randomized="0"
       d="m 118.10134,95.659785 -4.25616,-1.818129 -3.91061,2.475398 0.41391,-4.609683 -3.56269,-2.954275 4.51198,-1.030811 1.70875,-4.301241 2.37464,3.972606 4.61876,0.295962 -3.04438,3.486018 z"
       inkscape:transform-center-x="0.17277433"
       inkscape:transform-center-y="-0.49907007" />
    <path
       sodipodi:type="star"
       style="fill:#ff0000;stroke-width:0.26458332"
       id="path3850-99"
       sodipodi:sides="5"
       sodipodi:cx="110.54182"
       sodipodi:cy="107.75502"
       sodipodi:r1="6.9695368"
       sodipodi:r2="3.4847684"
       sodipodi:arg1="0.86217005"
       sodipodi:arg2="1.4904886"
       inkscape:flatsided="false"
       inkscape:rounded="0"
       inkscape:randomized="0"
       d="m 115.07753,113.04669 -4.25616,-1.81813 -3.91061,2.4754 0.41391,-4.60969 -3.56269,-2.95427 4.51198,-1.03081 1.70875,-4.30124 2.37464,3.9726 4.61875,0.29596 -3.04437,3.48602 z"
       inkscape:transform-center-x="0.17277433"
       inkscape:transform-center-y="-0.49907007" />
    <path
       sodipodi:type="star"
       style="fill:#ff0000;stroke-width:0.26458332"
       id="path3850-10"
       sodipodi:sides="5"
       sodipodi:cx="129.44063"
       sodipodi:cy="121.36216"
       sodipodi:r1="6.9695368"
       sodipodi:r2="3.4847684"
       sodipodi:arg1="0.86217005"
       sodipodi:arg2="1.4904886"
       inkscape:flatsided="false"
       inkscape:rounded="0"
       inkscape:randomized="0"
       d="m 133.97634,126.65383 -4.25616,-1.81813 -3.91061,2.4754 0.41391,-4.60969 -3.56269,-2.95427 4.51198,-1.03081 1.70875,-4.30124 2.37464,3.9726 4.61876,0.29596 -3.04438,3.48602 z"
       inkscape:transform-center-x="0.17277433"
       inkscape:transform-center-y="-0.49907007" />
    <path
       sodipodi:type="star"
       style="fill:#ff0000;stroke-width:0.26458332"
       id="path3850-5"
       sodipodi:sides="5"
       sodipodi:cx="130.95255"
       sodipodi:cy="93.39193"
       sodipodi:r1="6.9695368"
       sodipodi:r2="3.4847684"
       sodipodi:arg1="0.86217005"
       sodipodi:arg2="1.4904886"
       inkscape:flatsided="false"
       inkscape:rounded="0"
       inkscape:randomized="0"
       d="m 135.48826,98.683596 -4.25616,-1.818129 -3.91062,2.475398 0.41392,-4.609683 -3.56269,-2.954275 4.51198,-1.030811 1.70875,-4.301241 2.37464,3.972607 4.61875,0.295962 -3.04437,3.486017 z"
       inkscape:transform-center-x="0.17277433"
       inkscape:transform-center-y="-0.49907007" />
    <path
       sodipodi:type="star"
       style="fill:#ff0000;stroke-width:0.26458332"
       id="path3850-88"
       sodipodi:sides="5"
       sodipodi:cx="146.07158"
       sodipodi:cy="101.7074"
       sodipodi:r1="6.9695368"
       sodipodi:r2="3.4847684"
       sodipodi:arg1="0.86217005"
       sodipodi:arg2="1.4904886"
       inkscape:flatsided="false"
       inkscape:rounded="0"
       inkscape:randomized="0"
       d="m 150.60729,106.99906 -4.25616,-1.81813 -3.91061,2.4754 0.41392,-4.60968 -3.56269,-2.95427 4.51197,-1.030816 1.70875,-4.301241 2.37464,3.972607 4.61876,0.295962 -3.04437,3.486018 z"
       inkscape:transform-center-x="0.17277433"
       inkscape:transform-center-y="-0.49907007" />
    <path
       sodipodi:type="star"
       style="fill:#ff0000;stroke-width:0.26458332"
       id="path3850-6"
       sodipodi:sides="5"
       sodipodi:cx="144.55968"
       sodipodi:cy="127.40978"
       sodipodi:r1="6.9695368"
       sodipodi:r2="3.4847684"
       sodipodi:arg1="0.86217005"
       sodipodi:arg2="1.4904886"
       inkscape:flatsided="false"
       inkscape:rounded="0"
       inkscape:randomized="0"
       d="m 149.09539,132.70145 -4.25616,-1.81813 -3.91061,2.4754 0.41391,-4.60968 -3.56269,-2.95428 4.51198,-1.03081 1.70875,-4.30124 2.37464,3.9726 4.61875,0.29597 -3.04437,3.48601 z"
       inkscape:transform-center-x="0.17277433"
       inkscape:transform-center-y="-0.49907007" />
    <path
       sodipodi:type="star"
       style="fill:#ff0000;stroke-width:0.26458332"
       id="path3850-54"
       sodipodi:sides="5"
       sodipodi:cx="149.09538"
       sodipodi:cy="112.29074"
       sodipodi:r1="6.9695368"
       sodipodi:r2="3.4847684"
       sodipodi:arg1="0.86217005"
       sodipodi:arg2="1.4904886"
       inkscape:flatsided="false"
       inkscape:rounded="0"
       inkscape:randomized="0"
       d="m 153.6311,117.58241 -4.25616,-1.81813 -3.91062,2.4754 0.41392,-4.60969 -3.56269,-2.95427 4.51198,-1.03081 1.70875,-4.30124 2.37463,3.9726 4.61876,0.29597 -3.04437,3.48601 z"
       inkscape:transform-center-x="0.17277433"
       inkscape:transform-center-y="-0.49907007" />
    <path
       sodipodi:type="star"
       style="fill:#ff0000;stroke-width:0.26458332"
       id="path3850-76"
       sodipodi:sides="5"
       sodipodi:cx="161.94658"
       sodipodi:cy="115.31455"
       sodipodi:r1="6.9695368"
       sodipodi:r2="3.4847684"
       sodipodi:arg1="0.86217005"
       sodipodi:arg2="1.4904886"
       inkscape:flatsided="false"
       inkscape:rounded="0"
       inkscape:randomized="0"
       d="m 166.48229,120.60622 -4.25616,-1.81813 -3.91061,2.4754 0.41392,-4.60968 -3.56269,-2.95428 4.51197,-1.03081 1.70875,-4.30124 2.37464,3.9726 4.61876,0.29597 -3.04437,3.48601 z"
       inkscape:transform-center-x="0.17277433"
       inkscape:transform-center-y="-0.49907007" />
    <path
       sodipodi:type="star"
       style="fill:#ff0000;stroke-width:0.26458332"
       id="path3850-78"
       sodipodi:sides="5"
       sodipodi:cx="175.55373"
       sodipodi:cy="123.63002"
       sodipodi:r1="6.9695368"
       sodipodi:r2="3.4847684"
       sodipodi:arg1="0.86217005"
       sodipodi:arg2="1.4904886"
       inkscape:flatsided="false"
       inkscape:rounded="0"
       inkscape:randomized="0"
       d="m 180.08944,128.92169 -4.25616,-1.81813 -3.91062,2.4754 0.41392,-4.60969 -3.56269,-2.95427 4.51198,-1.03081 1.70875,-4.30124 2.37464,3.9726 4.61875,0.29596 -3.04437,3.48602 z"
       inkscape:transform-center-x="0.17277433"
       inkscape:transform-center-y="-0.49907007" />
    <path
       sodipodi:type="star"
       style="fill:#ff0000;stroke-width:0.26458332"
       id="path3850-16"
       sodipodi:sides="5"
       sodipodi:cx="180.08945"
       sodipodi:cy="155.38002"
       sodipodi:r1="6.9695368"
       sodipodi:r2="3.4847684"
       sodipodi:arg1="0.86217005"
       sodipodi:arg2="1.4904886"
       inkscape:flatsided="false"
       inkscape:rounded="0"
       inkscape:randomized="0"
       d="m 184.62516,160.67169 -4.25616,-1.81813 -3.91061,2.4754 0.41391,-4.60969 -3.56269,-2.95427 4.51198,-1.03081 1.70875,-4.30124 2.37464,3.9726 4.61875,0.29596 -3.04437,3.48602 z"
       inkscape:transform-center-x="0.17277433"
       inkscape:transform-center-y="-0.49907007" />
    <path
       sodipodi:type="star"
       style="fill:#ff0000;stroke-width:0.26458332"
       id="path3850-41"
       sodipodi:sides="5"
       sodipodi:cx="163.4585"
       sodipodi:cy="141.77287"
       sodipodi:r1="6.9695368"
       sodipodi:r2="3.4847684"
       sodipodi:arg1="0.86217005"
       sodipodi:arg2="1.4904886"
       inkscape:flatsided="false"
       inkscape:rounded="0"
       inkscape:randomized="0"
       d="m 167.99421,147.06454 -4.25616,-1.81813 -3.91062,2.4754 0.41392,-4.60968 -3.56269,-2.95428 4.51198,-1.03081 1.70875,-4.30124 2.37464,3.97261 4.61875,0.29596 -3.04437,3.48601 z"
       inkscape:transform-center-x="0.17277433"
       inkscape:transform-center-y="-0.49907007" />
    <path
       sodipodi:type="star"
       style="fill:#ff0000;stroke-width:0.26458332"
       id="path3850-83"
       sodipodi:sides="5"
       sodipodi:cx="125.50595"
       sodipodi:cy="102.31533"
       sodipodi:r1="6.9695368"
       sodipodi:r2="3.4847684"
       sodipodi:arg1="0.86217005"
       sodipodi:arg2="1.4904886"
       inkscape:flatsided="false"
       inkscape:rounded="0"
       inkscape:randomized="0"
       d="m 130.04167,107.607 -4.25617,-1.81813 -3.91061,2.4754 0.41392,-4.60969 -3.56269,-2.95427 4.51197,-1.030813 1.70875,-4.301241 2.37464,3.972607 4.61876,0.295962 -3.04437,3.486015 z"
       inkscape:transform-center-x="0.17277433"
       inkscape:transform-center-y="-0.49907007" />
    <path
       sodipodi:type="star"
       style="fill:#ff0000;stroke-width:0.26458332"
       id="path3850-0"
       sodipodi:sides="5"
       sodipodi:cx="90.377991"
       sodipodi:cy="87.086769"
       sodipodi:r1="6.9695368"
       sodipodi:r2="3.4847684"
       sodipodi:arg1="0.86217005"
       sodipodi:arg2="1.4904886"
       inkscape:flatsided="false"
       inkscape:rounded="0"
       inkscape:randomized="0"
       d="m 94.913705,92.378436 -4.256161,-1.81813 -3.910615,2.475399 0.413918,-4.609683 -3.56269,-2.954275 4.511977,-1.030811 1.70875,-4.301241 2.374637,3.972606 4.618757,0.295962 -3.04437,3.486017 z"
       inkscape:transform-center-x="0.17277433"
       inkscape:transform-center-y="-0.49907007" />
    <path
       sodipodi:type="star"
       style="fill:#ff0000;stroke-width:0.26458332"
       id="path3850-96"
       sodipodi:sides="5"
       sodipodi:cx="83.327538"
       sodipodi:cy="76.00502"
       sodipodi:r1="6.9695368"
       sodipodi:r2="3.4847684"
       sodipodi:arg1="0.86217005"
       sodipodi:arg2="1.4904886"
       inkscape:flatsided="false"
       inkscape:rounded="0"
       inkscape:randomized="0"
       d="m 87.863252,81.296687 -4.256161,-1.81813 -3.910615,2.475399 0.413918,-4.609683 -3.56269,-2.954275 4.511976,-1.030811 1.708751,-4.301241 2.374637,3.972606 4.618757,0.295962 -3.044371,3.486017 z"
       inkscape:transform-center-x="0.17277433"
       inkscape:transform-center-y="-0.49907007" />
    <path
       sodipodi:type="star"
       style="fill:#ff0000;stroke-width:0.26458332"
       id="path59"
       sodipodi:sides="5"
       sodipodi:cx="87.863251"
       sodipodi:cy="81.296684"
       sodipodi:r1="11.301034"
       sodipodi:r2="2.9469768e-006"
       sodipodi:arg1="1.1201264"
       sodipodi:arg2="1.1353206"
       inkscape:flatsided="false"
       inkscape:rounded="0"
       inkscape:randomized="0"
       d="m 92.785627,91.469372 -4.922375,-10.172685 -8.153704,7.824989 8.153701,-7.82499 -9.96164,-5.336579 9.961639,5.336576 1.997073,-11.123176 -1.99707,11.123174 11.195899,-1.537921 -11.195896,1.537924 z"
       inkscape:transform-center-x="-0.61712739"
       inkscape:transform-center-y="-0.47524587" />
  </g>
</svg>
