<?xml version="1.0" encoding="UTF-8" standalone="no"?>
<!-- Generator: Adobe Illustrator 16.0.0, SVG Export Plug-In . SVG Version: 6.00 Build 0)  -->

<svg
   xmlns:dc="http://purl.org/dc/elements/1.1/"
   xmlns:cc="http://creativecommons.org/ns#"
   xmlns:rdf="http://www.w3.org/1999/02/22-rdf-syntax-ns#"
   xmlns:svg="http://www.w3.org/2000/svg"
   xmlns="http://www.w3.org/2000/svg"
   xmlns:sodipodi="http://sodipodi.sourceforge.net/DTD/sodipodi-0.dtd"
   xmlns:inkscape="http://www.inkscape.org/namespaces/inkscape"
   version="1.1"
   id="svg2"
   inkscape:version="0.92.2 5c3e80d, 2017-08-06"
   sodipodi:docname="redWall.svg"
   x="0px"
   y="0px"
   width="430.543px"
   height="325.295px"
   viewBox="0 0 430.543 325.295"
   enable-background="new 0 0 430.543 325.295"
   xml:space="preserve"><metadata
     id="metadata10"><rdf:RDF><cc:Work
         rdf:about=""><dc:format>image/svg+xml</dc:format><dc:type
           rdf:resource="http://purl.org/dc/dcmitype/StillImage" /></cc:Work></rdf:RDF></metadata><path
     id="path6053"
     inkscape:connector-curvature="0"
     sodipodi:nodetypes="ccccccccc"
     fill="#F2F2F2"
     d="M215.271,11.589  l205.451,122.629v68l-93.813-55.969l0,0l-37.156-22.188v-0.031l-74.011-44.163L215.271,11.589z" /><defs
     id="defs4"><inkscape:perspective
       sodipodi:type="inkscape:persp3d"
       inkscape:vp_x="0 : 526.18109 : 1"
       inkscape:vp_y="0 : 1000 : 0"
       inkscape:vp_z="744.09448 : 526.18109 : 1"
       id="perspective2985"
       inkscape:persp3d-origin="372.04724 : 350.78739 : 1" /></defs><sodipodi:namedview
     units="mm"
     pagecolor="#ffffff"
     bordercolor="#666666"
     borderopacity="1.0"
     inkscape:zoom="0.70000001"
     inkscape:cx="330.65806"
     inkscape:cy="74.553522"
     showgrid="false"
     showguides="true"
     fit-margin-top="0"
     fit-margin-left="0"
     id="base"
     inkscape:document-units="mm"
     inkscape:current-layer="svg2"
     inkscape:object-nodes="true"
     inkscape:window-width="1280"
     inkscape:window-height="710"
     inkscape:window-x="0"
     inkscape:window-y="1"
     inkscape:window-maximized="1"
     inkscape:guide-bbox="true"
     fit-margin-right="0"
     fit-margin-bottom="0"
     inkscape:pageopacity="0.0"
     inkscape:pageshadow="2" /><path
     id="path3910"
     inkscape:connector-curvature="0"
     sodipodi:nodetypes="cccccc"
     fill="#D7D7F4"
     d="M224.757,6.177  l205.288,122.462l-9.313,5.563L215.265,11.608L224.757,6.177z" /><path
     id="path3918"
     inkscape:connector-curvature="0"
     fill="#B3B3B3"
     d="M430.043,128.651v68l-9.311,5.555v-68L430.043,128.651z" /><path
     style="fill:#ff2a2a;stroke-width:1.42857146"
     d="M 318.08663,141.40739 215.94378,80.284637 215.56132,45.836464 215.17887,11.388291 239.84703,26.163783 c 13.5675,8.12652 59.84239,35.762737 102.8331,61.413815 l 78.16491,46.638322 0.40652,34.26392 c 0.22357,18.84515 0.0851,34.21585 -0.30779,34.15711 -0.39285,-0.0587 -46.67857,-27.61204 -102.85714,-61.22956 z"
     id="path12"
     inkscape:connector-curvature="0" /><path
     style="fill:#ff2a2a;stroke-width:1.42857146"
     d="M 320.17162,73.365947 C 264.4398,40.088699 218.6208,12.201146 218.35162,11.393607 c -0.26918,-0.807539 1.15376,-2.2169321 3.16208,-3.1319848 3.35862,-1.5302877 5.85979,-0.3446103 31.18364,14.7825278 15.14268,9.045443 61.1748,36.517246 102.2936,61.048448 41.11879,24.531202 74.54736,44.742982 74.2857,44.915052 -8.21042,5.39961 0.94485,10.06863 -109.10502,-55.641703 z"
     id="path14"
     inkscape:connector-curvature="0" /><path
     style="fill:#ff2a2a;stroke-width:1.42857146"
     d="m 430.13298,162.74149 c 0,-19.25 0.20221,-27.125 0.44937,-17.5 0.24715,9.625 0.24715,25.375 0,35 -0.24716,9.625 -0.44937,1.75 -0.44937,-17.5 z"
     id="path16"
     inkscape:connector-curvature="0" /><path
     style="fill:#ff2a2a;stroke-width:1.42857146"
     d="m 422.37234,182.24944 c 0,-9.6992 -0.41514,-24.41994 -0.92254,-32.71276 l -0.92255,-15.07785 4.49398,-2.32393 4.49397,-2.32392 v 33.09348 c 0,29.84226 -0.24561,33.27993 -2.5,34.99125 -1.375,1.04378 -2.98214,1.91822 -3.57143,1.94321 -0.58928,0.025 -1.07143,-7.89028 -1.07143,-17.58948 z"
     id="path18"
     inkscape:connector-curvature="0" /></svg>