<?xml version="1.0" encoding="utf-8"?>
<!-- Generator: Adobe Illustrator 16.0.0, SVG Export Plug-In . SVG Version: 6.00 Build 0)  -->
<!DOCTYPE svg PUBLIC "-//W3C//DTD SVG 1.1//EN" "http://www.w3.org/Graphics/SVG/1.1/DTD/svg11.dtd">
<svg version="1.1"
	 id="svg2" xmlns:dc="http://purl.org/dc/elements/1.1/" xmlns:cc="http://creativecommons.org/ns#" xmlns:rdf="http://www.w3.org/1999/02/22-rdf-syntax-ns#" xmlns:svg="http://www.w3.org/2000/svg" xmlns:sodipodi="http://sodipodi.sourceforge.net/DTD/sodipodi-0.dtd" xmlns:inkscape="http://www.inkscape.org/namespaces/inkscape" inkscape:version="0.48.5 r10040" sodipodi:docname="wall-right.svg"
	 xmlns="http://www.w3.org/2000/svg" xmlns:xlink="http://www.w3.org/1999/xlink" x="0px" y="0px" width="430.543px"
	 height="325.295px" viewBox="0 0 430.543 325.295" enable-background="new 0 0 430.543 325.295" xml:space="preserve">
<path id="path6053" inkscape:connector-curvature="0" sodipodi:nodetypes="ccccccccc" fill="#F2F2F2" d="M215.271,11.589
	l205.451,122.629v68l-93.813-55.969l0,0l-37.156-22.188v-0.031l-74.011-44.163L215.271,11.589z"/>
<defs>
	
	
		<inkscape:perspective  sodipodi:type="inkscape:persp3d" inkscape:vp_x="0 : 526.18109 : 1" inkscape:vp_y="0 : 1000 : 0" inkscape:vp_z="744.09448 : 526.18109 : 1" id="perspective2985" inkscape:persp3d-origin="372.04724 : 350.78739 : 1">
		</inkscape:perspective>
</defs>
<sodipodi:namedview  units="mm" pagecolor="#ffffff" bordercolor="#666666" borderopacity="1.0" inkscape:zoom="0.70000001" inkscape:cx="355.65806" inkscape:cy="74.553522" showgrid="false" showguides="true" fit-margin-top="0" fit-margin-left="0" id="base" inkscape:document-units="mm" inkscape:current-layer="layer1" inkscape:object-nodes="true" inkscape:window-width="1920" inkscape:window-height="1036" inkscape:window-x="4" inkscape:window-y="44" inkscape:window-maximized="0" inkscape:guide-bbox="true" fit-margin-right="0" fit-margin-bottom="0" inkscape:pageopacity="0.0" inkscape:pageshadow="2">
	</sodipodi:namedview>
<path id="path3910" inkscape:connector-curvature="0" sodipodi:nodetypes="cccccc" fill="#D7D7F4" d="M224.757,6.177
	l205.288,122.462l-9.313,5.563L264.994,41.28l-49.729-29.672L224.757,6.177z"/>
<path id="path3918" inkscape:connector-curvature="0" fill="#B3B3B3" d="M430.043,128.651v68l-9.311,5.555v-68L430.043,128.651z"/>
<polygon fill="#936551" points="286.322,60.357 295.438,65.896 295.438,119.607 286.322,114.357 "/>
<polyline fill="#14517D" points="294.705,64.607 322.322,82.228 322.322,125.732 294.79,109.274 "/>
<polygon fill="#A8745E" points="295.072,119.607 322.322,135.61 322.322,125.732 294.79,109.274 286.322,114.357 "/>
<circle fill="#FFFFFF" cx="318.936" cy="97.356" r="0.957"/>
<circle fill="#FFFFFF" cx="319.893" cy="86.242" r="0.846"/>
<circle fill="#FFFFFF" cx="302.059" cy="70.634" r="0.923"/>
<circle opacity="0.7" fill="#FFFFFF" enable-background="new    " cx="313.063" cy="81.228" r="1"/>
<circle fill="#FFFFFF" cx="301.643" cy="80.681" r="0.957"/>
<circle opacity="0.7" fill="#FFFFFF" enable-background="new    " cx="308.514" cy="105.838" r="0.957"/>
<circle fill="#FFFFFF" cx="317.98" cy="109.857" r="1.23"/>
<circle opacity="0.7" fill="#FFFFFF" enable-background="new    " cx="299.456" cy="85.396" r="0.999"/>
<circle fill="#FFFFFF" cx="304.109" cy="95.443" r="0.956"/>
<circle fill="#FFFFFF" cx="312.857" cy="90.939" r="0.957"/>
<circle fill="#FFFFFF" cx="299.457" cy="106.795" r="0.957"/>
<polygon fill="none" stroke="#BF8C72" stroke-width="2" stroke-miterlimit="10" points="286.322,60.357 322.322,82.228 
	322.322,135.61 286.322,114.357 "/>
<line fill="none" stroke="#BF8C72" stroke-width="2" stroke-miterlimit="10" x1="304.107" y1="71.14" x2="304.107" y2="124.721"/>
<line fill="none" stroke="#BF8C72" stroke-width="2" stroke-miterlimit="10" x1="286.688" y1="87.464" x2="321.956" y2="108.396"/>
<g>
	<g>
		<g>
			<path fill="#B72F1D" d="M296.977,109.42l-0.1-0.155l-0.938-1.479h1.563l-0.466-0.732l-0.082-0.13l-1.179-1.857h0.814
				l-0.211-0.332l-0.234-0.37l-1.022-1.612h0.808l-0.343-0.538l-0.108-0.173l-0.814-1.284l-0.777,1.311l-0.106,0.18l-0.302,0.505
				h0.713l-0.912,1.539l-0.229,0.386l-0.231,0.39h0.705l-1.145,1.926l-0.076,0.131l-0.396,0.663h1.427l-0.93,1.566l-0.102,0.17
				l-0.955,1.609h2.969v1.396h0.777v-1.396h2.969L296.977,109.42z M294.652,109.121L294.652,109.121L294.652,109.121
				L294.652,109.121L294.652,109.121L294.652,109.121z"/>
			<polygon fill="#9E251B" points="294.691,100.945 294.506,102.471 295.016,103.533 293.951,104.551 294.783,105.752 
				293.443,107.139 294.645,108.063 293.073,110.42 298.02,110.975 291.348,111.132 293.333,107.786 291.906,107.786 
				293.521,105.066 292.816,105.066 294.191,102.752 293.479,102.752 			"/>
			<g>
				<polygon fill="#E2C937" points="294.654,98.596 294.504,100.053 294.723,101.673 294.85,100.053 				"/>
				<polygon fill="#E2C937" points="296.252,100.112 294.761,99.965 293.102,100.178 294.761,100.304 				"/>
				<polygon fill="#E2C937" points="295.477,99.388 294.636,100.023 293.889,100.925 294.805,100.197 				"/>
				<polygon fill="#E2C937" points="295.475,100.927 294.818,100.109 293.891,99.386 294.643,100.276 				"/>
			</g>
		</g>
		<ellipse fill="#E2C937" cx="295.895" cy="106.6" rx="0.496" ry="0.533"/>
		<ellipse fill="#E2C937" cx="293.168" cy="109.86" rx="0.402" ry="0.433"/>
		<ellipse fill="#E2C937" cx="295.941" cy="109.58" rx="0.401" ry="0.433"/>
		<ellipse fill="#E2C937" cx="293.423" cy="106.791" rx="0.494" ry="0.533"/>
		<ellipse fill="#E2C937" cx="294.878" cy="104.172" rx="0.401" ry="0.434"/>
	</g>
	<g>
		<path fill="#4E373B" d="M296.344,114.489h-0.177l0.649-2.798h-4.002l0.6,2.798h-0.38c-0.134,0-0.241,0.113-0.241,0.253
			c0,0.139,0.107,0.252,0.241,0.252h3.31c0.133,0,0.241-0.113,0.241-0.252C296.585,114.603,296.477,114.489,296.344,114.489z"/>
	</g>
</g>
</svg>
