<?xml version="1.0" encoding="UTF-8" standalone="no"?>
<!-- Generator: Adobe Illustrator 16.0.0, SVG Export Plug-In . SVG Version: 6.00 Build 0)  -->

<svg
   xmlns:dc="http://purl.org/dc/elements/1.1/"
   xmlns:cc="http://creativecommons.org/ns#"
   xmlns:rdf="http://www.w3.org/1999/02/22-rdf-syntax-ns#"
   xmlns:svg="http://www.w3.org/2000/svg"
   xmlns="http://www.w3.org/2000/svg"
   xmlns:sodipodi="http://sodipodi.sourceforge.net/DTD/sodipodi-0.dtd"
   xmlns:inkscape="http://www.inkscape.org/namespaces/inkscape"
   version="1.1"
   id="svg2"
   inkscape:version="0.92.2 (5c3e80d, 2017-08-06)"
   sodipodi:docname="right.svg"
   x="0px"
   y="0px"
   width="430.543px"
   height="325.295px"
   viewBox="0 0 430.543 325.295"
   enable-background="new 0 0 430.543 325.295"
   xml:space="preserve"><metadata
     id="metadata174"><rdf:RDF><cc:Work
         rdf:about=""><dc:format>image/svg+xml</dc:format><dc:type
           rdf:resource="http://purl.org/dc/dcmitype/StillImage" /></cc:Work></rdf:RDF></metadata><path
     id="path6053"
     inkscape:connector-curvature="0"
     sodipodi:nodetypes="ccccccccc"
     fill="#F2F2F2"
     d="M215.271,11.589  l205.451,122.629v68l-93.813-55.969l0,0l-37.156-22.188v-0.031l-74.011-44.163L215.271,11.589z" /><defs
     id="defs168"><inkscape:perspective
       sodipodi:type="inkscape:persp3d"
       inkscape:vp_x="0 : 526.18109 : 1"
       inkscape:vp_y="0 : 1000 : 0"
       inkscape:vp_z="744.09448 : 526.18109 : 1"
       id="perspective2985"
       inkscape:persp3d-origin="372.04724 : 350.78739 : 1" /></defs><sodipodi:namedview
     units="mm"
     pagecolor="#ffffff"
     bordercolor="#666666"
     borderopacity="1.0"
     inkscape:zoom="0.70000001"
     inkscape:cx="77.800921"
     inkscape:cy="74.553522"
     showgrid="false"
     showguides="true"
     fit-margin-top="0"
     fit-margin-left="0"
     id="base"
     inkscape:document-units="mm"
     inkscape:current-layer="svg2"
     inkscape:object-nodes="true"
     inkscape:window-width="1366"
     inkscape:window-height="768"
     inkscape:window-x="4"
     inkscape:window-y="44"
     inkscape:window-maximized="0"
     inkscape:guide-bbox="true"
     fit-margin-right="0"
     fit-margin-bottom="0"
     inkscape:pageopacity="0.0"
     inkscape:pageshadow="2" /><path
     id="path3910"
     inkscape:connector-curvature="0"
     sodipodi:nodetypes="cccccc"
     fill="#D7D7F4"
     d="M224.757,6.177  l205.288,122.462l-9.313,5.563L215.265,11.608L224.757,6.177z" /><path
     id="path3918"
     inkscape:connector-curvature="0"
     fill="#B3B3B3"
     d="M430.043,128.651v68l-9.311,5.555v-68L430.043,128.651z" /><path
     style="fill:#ffeeaa;stroke-width:1.42857146"
     d="m 415.5152,198.70481 c 0,-0.70115 -0.59844,-0.90495 -1.32986,-0.4529 -0.73142,0.45205 -1.72967,0.175 -2.21834,-0.61567 -0.48866,-0.79068 -13.23467,-8.76303 -28.32445,-17.71636 -15.0898,-8.95333 -29.68084,-17.63797 -32.42453,-19.2992 -2.74369,-1.66124 -6.70485,-3.70857 -8.80257,-4.54963 -2.09772,-0.84106 -4.18246,-2.48931 -4.63276,-3.66278 -0.45031,-1.17347 -1.46613,-1.73347 -2.2574,-1.24444 -0.79126,0.48903 -1.43866,0.1704 -1.43866,-0.70805 0,-0.87846 -0.58795,-1.23382 -1.30656,-0.7897 -0.7186,0.44413 -1.52217,0.26585 -1.78571,-0.39617 -0.60282,-1.51433 -39.25146,-24.52842 -41.19171,-24.52842 -0.78667,0 -1.4303,-0.68079 -1.4303,-1.51288 0,-0.83208 -0.58795,-1.14951 -1.30656,-0.70538 -0.71861,0.44412 -1.52218,0.28402 -1.78571,-0.35579 -0.42912,-1.0418 -17.90656,-11.87771 -29.05059,-18.01119 -2.35714,-1.29734 -6.21429,-3.63244 -8.57143,-5.189131 -2.35714,-1.556688 -5.41071,-3.219258 -6.78571,-3.6946 -1.375,-0.475342 -2.5,-1.470077 -2.5,-2.210522 0,-0.740446 -0.5755,-0.99059 -1.27888,-0.555876 -0.70339,0.434716 -1.66313,-0.210947 -2.13277,-1.434807 -0.46964,-1.223859 -1.50129,-1.825085 -2.29255,-1.336056 -0.79126,0.489027 -1.43866,0.170406 -1.43866,-0.70805 0,-0.878456 -0.64286,-1.199884 -1.42857,-0.714286 -0.78572,0.485599 -1.42857,0.349397 -1.42857,-0.30267 0,-0.652065 -2.83561,-2.734591 -6.30135,-4.627832 L 215.76964,79.940161 215.6,56.983686 c -0.0933,-12.626063 -0.21283,-27.135049 -0.26561,-32.242191 -0.0528,-5.107143 -0.0337,-10.083344 0.0424,-11.058224 0.13398,-1.716063 12.03093,4.607559 17.63838,9.375381 1.375,1.169116 2.5,1.710893 2.5,1.20395 0,-0.506943 1.125,0.04154 2.5,1.218853 1.375,1.177311 2.82143,2.003988 3.21429,1.837061 0.39286,-0.166927 2.18156,0.952811 3.97489,2.488309 1.79333,1.535497 3.7219,2.774998 4.28571,2.754447 0.56381,-0.02056 1.9894,0.788281 3.16797,1.797405 1.17857,1.009125 2.48009,1.668796 2.89226,1.465937 0.41217,-0.202858 1.69788,0.482092 2.85714,1.522113 1.15926,1.040022 13.35774,8.5624 27.10774,16.716399 13.75,8.153998 27.89286,16.588839 31.42857,18.744091 3.53572,2.155253 6.91072,3.793587 7.5,3.640744 0.58929,-0.152843 1.07143,0.364961 1.07143,1.150676 0,0.785714 0.96429,1.428571 2.14286,1.428571 1.17857,0 2.14286,0.680797 2.14286,1.512882 0,0.832084 0.60453,1.139258 1.34341,0.682608 0.73887,-0.45665 2.66744,0.590914 4.28571,2.327922 1.61827,1.737005 2.94231,2.603487 2.94231,1.925512 0,-0.677972 1.60714,0.277155 3.57142,2.122505 1.96429,1.84535 3.57143,2.82206 3.57143,2.170465 0,-0.651593 1.125,-0.209498 2.5,0.982433 3.38206,2.931772 55.69435,33.989955 57.25036,33.989955 0.67947,0 2.38523,1.27056 3.79058,2.82346 1.40536,1.5529 3.11213,2.47924 3.79285,2.05855 0.6807,-0.4207 1.23764,-0.12743 1.23764,0.6517 0,0.77914 1.28571,1.82468 2.85714,2.32344 2.74929,0.87259 2.85715,2.16147 2.85715,34.14388 0,28.59167 -0.2995,33.23707 -2.14286,33.23707 -1.17857,0 -2.14286,-0.57365 -2.14286,-1.27478 z"
     id="path176"
     inkscape:connector-curvature="0" /><path
     style="fill:#ffeeaa;stroke-width:1.42857146"
     d="m 416.10909,130.98706 c -2.28743,-1.18673 -5.12466,-2.96734 -6.30499,-3.95692 -1.18033,-0.98957 -9.86033,-6.20202 -19.2889,-11.58322 -9.42857,-5.38119 -21.39081,-12.52545 -26.58277,-15.876139 -5.19194,-3.350686 -11.94195,-7.459049 -15,-9.129694 -3.05804,-1.670648 -7.48866,-4.243316 -9.8458,-5.717043 -2.35714,-1.473727 -5.89286,-3.551674 -7.85714,-4.617662 C 329.2652,79.040397 310.62235,67.94799 289.80092,55.456587 268.97949,42.965186 244.34332,28.212029 235.05387,22.671793 225.76443,17.131558 218.06822,11.955781 217.95118,11.170066 c -0.11704,-0.785714 1.46799,-2.2341481 3.52227,-3.2187421 3.39035,-1.6249506 4.60385,-1.2623707 13.14831,3.9285711 5.17728,3.145309 9.84632,5.718743 10.37564,5.718743 0.52932,0 3.06947,1.607142 5.64479,3.571428 2.57531,1.964286 5.05329,3.571429 5.50663,3.571429 0.45334,0 3.87124,2.104018 7.59532,4.675597 3.72409,2.571578 8.40727,5.390668 10.40708,6.264645 1.9998,0.873977 14.4158,8.091387 27.59111,16.038689 13.1753,7.947302 24.33556,14.449639 24.80057,14.449639 0.46501,0 2.95254,1.607143 5.52786,3.571429 2.57531,1.964286 5.05329,3.571429 5.50663,3.571429 0.45334,0 4.02536,2.25 7.93781,4.999999 3.91246,2.75 7.62885,5 8.25866,5 0.6298,0 12.92674,7.071429 27.32651,15.714286 14.39979,8.642852 26.52683,15.714282 26.949,15.714282 0.42216,0 2.87465,1.60715 5.44996,3.57143 2.57531,1.96429 5.20741,3.59455 5.84913,3.62281 0.64171,0.0282 3.02593,1.57166 5.29827,3.42978 l 4.13154,3.37841 -4.25513,2.20041 c -3.80408,1.96717 -4.69595,1.9717 -8.41405,0.0427 z"
     id="path178"
     inkscape:connector-curvature="0" /><path
     style="fill:#ffeeaa;stroke-width:1.42857146"
     d="m 421.22949,168.43061 c 0,-33.02651 0.0474,-33.56031 3.17501,-35.75097 1.74625,-1.22312 3.67482,-2.22386 4.28571,-2.22386 0.61089,0 1.11071,15.09063 1.11071,33.53474 v 33.53474 l -4.28572,2.21623 -4.28571,2.21623 z"
     id="path180"
     inkscape:connector-curvature="0" /></svg>