<?xml version="1.0" encoding="UTF-8" standalone="no"?>
<!-- Generator: Adobe Illustrator 16.0.0, SVG Export Plug-In . SVG Version: 6.00 Build 0)  -->

<svg
   xmlns:dc="http://purl.org/dc/elements/1.1/"
   xmlns:cc="http://creativecommons.org/ns#"
   xmlns:rdf="http://www.w3.org/1999/02/22-rdf-syntax-ns#"
   xmlns:svg="http://www.w3.org/2000/svg"
   xmlns="http://www.w3.org/2000/svg"
   xmlns:sodipodi="http://sodipodi.sourceforge.net/DTD/sodipodi-0.dtd"
   xmlns:inkscape="http://www.inkscape.org/namespaces/inkscape"
   version="1.1"
   id="svg2"
   inkscape:version="0.92.2 (5c3e80d, 2017-08-06)"
   sodipodi:docname="rightForbidden.svg"
   x="0px"
   y="0px"
   width="430.543px"
   height="325.295px"
   viewBox="0 0 430.543 325.295"
   enable-background="new 0 0 430.543 325.295"
   xml:space="preserve"><metadata
     id="metadata28"><rdf:RDF><cc:Work
         rdf:about=""><dc:format>image/svg+xml</dc:format><dc:type
           rdf:resource="http://purl.org/dc/dcmitype/StillImage" /><dc:title></dc:title></cc:Work></rdf:RDF></metadata><path
     id="path6053"
     inkscape:connector-curvature="0"
     sodipodi:nodetypes="ccccccccc"
     d="m 215.265,11.608 205.451,122.629 v 68 l -93.813,-55.969 v 0 L 289.747,124.08 v -0.031 L 215.736,79.886 Z"
     style="fill:#2d2d2d;fill-opacity:1" /><defs
     id="defs22"><inkscape:perspective
       sodipodi:type="inkscape:persp3d"
       inkscape:vp_x="0 : 526.18109 : 1"
       inkscape:vp_y="0 : 1000 : 0"
       inkscape:vp_z="744.09448 : 526.18109 : 1"
       id="perspective2985"
       inkscape:persp3d-origin="372.04724 : 350.78739 : 1" /></defs><sodipodi:namedview
     units="mm"
     pagecolor="#ffffff"
     bordercolor="#666666"
     borderopacity="1.0"
     inkscape:zoom="2.6591247"
     inkscape:cx="154.16117"
     inkscape:cy="192.73259"
     showgrid="false"
     showguides="true"
     fit-margin-top="0"
     fit-margin-left="0"
     id="base"
     inkscape:document-units="mm"
     inkscape:current-layer="svg2"
     inkscape:object-nodes="true"
     inkscape:window-width="1920"
     inkscape:window-height="1018"
     inkscape:window-x="-8"
     inkscape:window-y="-8"
     inkscape:window-maximized="1"
     inkscape:guide-bbox="true"
     fit-margin-right="0"
     fit-margin-bottom="0"
     inkscape:pageopacity="0.0"
     inkscape:pageshadow="2" /><path
     id="path3910"
     inkscape:connector-curvature="0"
     sodipodi:nodetypes="cccccc"
     fill="#D7D7F4"
     d="M224.757,6.177  l205.288,122.462l-9.313,5.563L215.265,11.608L224.757,6.177z"
     style="fill:#2c2c2c;fill-opacity:1" /><path
     id="path3918"
     inkscape:connector-curvature="0"
     fill="#B3B3B3"
     d="M430.043,128.651v68l-9.311,5.555v-68L430.043,128.651z"
     style="fill:#2c2c2c;fill-opacity:1" /><path
     style="fill:#000000;stroke-width:0.24016921"
     d="m 257.29735,98.30554 c -0.39452,-0.49616 -0.64445,-1.2157 -0.69774,-2.00873 -0.15037,-2.23748 -0.94797,-3.66108 -3.43066,-6.12318 -1.3881,-1.376584 -1.76159,-1.550275 -3.57897,-1.664395 -2.49527,-0.156672 -4.39203,-0.731473 -6.94825,-2.105596 -2.50436,-1.346249 -4.61706,-3.119848 -5.90164,-4.954388 -0.82,-1.171074 -1.58843,-1.614167 -3.49686,-2.01638 -3.19646,-0.67369 -5.14666,-0.571458 -6.56191,0.343975 -0.49861,0.322501 -1.2079,0.636277 -1.57619,0.697273 -0.92895,0.153893 -2.63605,-0.598243 -3.29834,-1.45316 -0.62573,-0.807707 -0.70551,-2.35192 -0.15435,-2.988058 0.46893,-0.541276 0.46179,-1.113309 -0.0331,-2.647169 -0.47563,-1.474273 0.0965,-2.746118 1.41124,-3.137223 0.92536,-0.275276 1.42529,-0.05598 4.49345,1.970985 0.92608,0.611823 1.9114,1.098414 2.6679,1.317524 1.72687,0.500149 5.07664,0.852171 6.06465,0.63732 0.72515,-0.157697 0.84718,-0.271577 0.85025,-0.793421 0.005,-0.808417 -0.63173,-1.645403 -4.45437,-5.857588 l -3.22306,-3.551517 -2.28288,-1.055847 c -2.69252,-1.245314 -3.32126,-1.872506 -3.33752,-3.329282 -0.0177,-1.590017 1.42875,-2.699113 3.16936,-2.430111 0.75045,0.115983 0.80035,0.07957 0.9136,-0.666645 0.25642,-1.689521 2.70706,-2.698273 4.37563,-1.801124 1.66859,0.897138 2.50122,2.853256 1.78318,4.189297 -0.78027,1.451805 -0.56816,2.083069 1.48802,4.428722 l 1.89972,2.16717 -0.0454,-1.161425 c -0.0374,-0.956323 0.13007,-1.4942 0.94818,-3.045839 1.05146,-1.994203 1.17724,-2.602842 0.94696,-4.58209 -0.25033,-2.151552 0.0651,-3.908099 1.10278,-6.141437 1.21314,-2.610972 2.33077,-3.909954 4.56595,-5.306902 3.49217,-2.182543 7.89986,-2.522147 13.38255,-1.03111 3.09974,0.84298 8.15792,3.62027 10.81651,5.939001 2.98578,2.604099 4.55141,4.689006 5.64364,7.515476 1.065,2.755995 1.23586,4.378358 0.72204,6.855915 -0.84714,4.084807 -3.32983,6.954544 -7.56619,8.745728 -0.80974,0.34237 -1.31569,0.702636 -1.3255,0.943823 -0.009,0.214557 -0.29996,1.032622 -0.64721,1.817943 -0.56807,1.284683 -0.76138,1.50567 -1.92811,2.204142 l -1.29674,0.776294 0.85155,0.296484 c 2.43813,0.848896 5.22599,0.592668 6.17253,-0.567316 0.83103,-1.01844 1.51979,-1.451068 2.51858,-1.581983 1.22464,-0.16049 1.99026,0.0805 2.82377,0.888956 1.09711,1.064145 1.30993,2.263715 0.62651,3.531318 -0.54272,1.006624 -0.54387,1.14925 -0.0197,2.454907 0.3693,0.919854 0.48133,1.648662 0.33302,2.166404 -0.31288,1.092169 -1.4536,1.776689 -2.72977,1.638077 -0.88565,-0.09619 -1.16097,-0.231818 -2.39676,-1.180697 -0.79835,-0.612982 -1.80818,-1.216124 -2.35838,-1.408576 -1.3778,-0.481942 -10.0183,-1.789635 -11.20753,-1.696194 -1.25126,0.09833 -1.81218,0.916933 -1.24346,1.814806 0.44567,0.703621 3.79673,4.299422 4.96057,5.322873 0.70205,0.61734 1.00355,0.74577 2.08978,0.89008 2.36402,0.31408 3.66258,1.54942 3.35836,3.19485 -0.1865,1.00866 -0.62957,1.46063 -1.85963,1.89697 -1.4721,0.52221 -1.94054,0.84488 -2.36235,1.62724 -0.53008,0.98317 -1.46925,1.46977 -2.59979,1.34698 -1.2175,-0.13223 -1.65479,-0.37333 -2.41795,-1.33312 z m 3.10057,0.006 c 0.74702,-0.3081 0.94866,-0.74725 0.89742,-1.95453 -0.0237,-0.55742 -0.0235,-1.04978 5e-4,-1.09413 0.0239,-0.0444 0.45746,0.074 0.96342,0.26296 1.7294,0.64593 2.95619,0.18735 3.05882,-1.1434 0.0692,-0.89725 -0.7601,-1.50555 -2.25708,-1.65561 -0.67718,-0.0679 -1.52327,-0.28086 -1.8802,-0.47329 -0.35691,-0.19243 -1.8143,-1.60304 -3.23863,-3.134658 -1.42432,-1.531632 -2.65922,-2.822627 -2.74421,-2.868885 -0.15222,-0.0828 -2.18443,1.415816 -2.35905,1.739683 -0.0494,0.09151 0.60243,0.91203 1.44838,1.823374 3.44779,3.714386 3.94954,4.589646 3.61971,6.314256 -0.27203,1.42237 1.20273,2.71553 2.49096,2.18423 z M 224.83656,79.31985 c 0.26684,-0.08234 0.85731,-0.4709 1.31216,-0.86356 1.02005,-0.880577 1.77756,-0.920184 5.84504,-0.30553 1.68269,0.254274 3.18555,0.440016 3.33967,0.412764 0.35186,-0.06218 0.66519,-2.408869 0.36407,-2.726606 -0.12237,-0.129112 -1.98843,-0.558731 -4.1468,-0.954709 -2.15837,-0.395968 -4.11123,-0.823225 -4.33968,-0.949444 -0.22845,-0.126229 -0.76937,-0.645203 -1.20205,-1.153295 -0.43267,-0.508091 -1.02652,-1.053113 -1.31965,-1.211166 -0.60404,-0.325668 -1.60141,-0.0076 -1.93889,0.618351 -0.31786,0.589587 0.26219,1.930494 1.11927,2.587336 0.78836,0.604181 0.76274,0.852862 -0.13708,1.330642 -0.79685,0.423109 -1.26305,1.325851 -1.03788,2.009739 0.23078,0.70084 1.4865,1.407624 2.14182,1.205508 z m 23.30038,7.948356 c 1.93226,0.25093 3.92025,-0.290623 5.06694,-1.380391 0.49687,-0.47219 1.65217,-1.989411 2.56733,-3.371604 0.91516,-1.382193 2.10302,-2.942168 2.63967,-3.466616 0.53667,-0.524459 0.95462,-1.008395 0.9288,-1.075417 -0.0258,-0.06702 -0.28609,-0.106209 -0.57837,-0.08708 -0.80376,0.05289 -2.53785,1.670509 -3.98213,3.715346 -1.48875,2.107773 -2.04006,2.431852 -3.86236,2.270446 -3.36668,-0.29822 -9.43316,-3.641812 -11.21001,-6.17851 -0.9215,-1.315577 -0.91298,-2.077494 0.0477,-4.265356 0.9666,-2.20141 1.45598,-4.939886 0.9737,-5.44876 -0.47252,-0.498585 -0.55934,-0.352068 -0.74536,1.257764 -0.12592,1.089695 -0.54778,2.339368 -1.50539,4.459424 -1.60655,3.556761 -1.77058,4.33564 -1.24813,5.926882 0.8044,2.450023 2.06105,3.614189 6.24368,5.784154 2.80057,1.452942 3.41341,1.697309 4.66395,1.859719 z m 5.86998,-5.814651 c 0.35255,-0.651706 1.24648,-1.812944 1.9866,-2.580499 1.37657,-1.427614 1.56355,-1.831338 0.753,-1.62591 -0.88879,0.225267 -1.77272,1.206762 -3.13021,3.475725 -1.25526,2.09809 -1.32385,2.276047 -0.81079,2.103797 0.36802,-0.123599 0.78054,-0.595023 1.2014,-1.373113 z m -12.66579,-7.837954 c 1.09425,-2.373224 1.32737,-3.560962 0.87713,-4.469034 -0.23768,-0.479393 -0.26621,-0.476317 -0.3906,0.04203 -0.74142,3.089455 -0.94995,3.79673 -1.32925,4.508471 -0.44964,0.843732 -0.6536,2.000649 -0.37882,2.148798 0.0852,0.04591 0.63481,-0.957716 1.22155,-2.230241 z m -3.24802,-2.007478 c 0.0261,-0.04856 0.17261,-0.579356 0.32543,-1.179635 0.37783,-1.484073 -0.0225,-2.282105 -2.54938,-5.081586 -4.11422,-4.558143 -4.21167,-4.761018 -3.19374,-6.64904 0.43013,-0.797794 0.47736,-1.153671 0.23616,-1.779767 -0.60495,-1.570305 -2.94032,-1.950857 -3.66973,-0.597977 -0.17473,0.324086 -0.23405,1.172064 -0.13182,1.884411 0.10219,0.71234 0.14326,1.374255 0.0916,1.470897 -0.0531,0.09847 -0.56721,-0.155722 -1.16964,-0.578395 -1.41467,-0.99257 -2.38992,-1.019053 -2.89693,-0.07866 -0.21465,0.398133 -0.24916,0.87925 -0.089,1.241157 0.26767,0.604897 0.57326,0.770323 3.88553,2.103332 0.98999,0.39841 1.43205,0.829942 4.82735,4.712368 3.5004,4.002615 4.21671,4.75167 4.33468,4.532867 z m 25.43632,11.554947 c 5.87276,0.911503 5.52172,0.788342 8.57293,3.007732 0.88564,0.644192 1.88988,0.609429 2.5582,-0.08855 0.33558,-0.350496 0.35847,-0.637119 0.10368,-1.298505 -0.33073,-0.858497 -0.5185,-0.977502 -2.25799,-1.431122 -0.79412,-0.207076 -0.56823,-0.530764 0.83321,-1.193969 0.62957,-0.297927 1.32473,-0.705939 1.54481,-0.906682 0.5862,-0.534727 0.33433,-1.581932 -0.54204,-2.253566 -1.58232,-1.212676 -2.34085,-1.028246 -3.69743,0.89898 -0.3819,0.542545 -0.94961,1.055385 -1.26158,1.139625 -0.31196,0.08426 -1.93243,-0.05411 -3.60103,-0.307442 -6.8052,-1.033214 -6.60208,-1.047234 -7.76054,0.535695 -0.54814,0.748991 -0.60371,0.934844 -0.29568,0.989119 0.20859,0.03673 2.82016,0.445683 5.80346,0.908722 z m -10.98742,-4.645577 c 0.75463,0.0097 1.07957,-0.158381 1.75201,-0.906635 1.41222,-1.571371 4.10702,-1.726456 5.9987,-0.345198 0.70536,0.515024 0.98853,0.588383 1.84023,0.476743 1.57312,-0.206217 2.22894,-0.965013 3.01723,-3.491001 0.83985,-2.691157 2.71116,-6.179917 4.34198,-8.094933 1.52316,-1.7886 1.85334,-1.996154 2.16614,-1.36168 0.28662,0.581377 0.11428,0.874774 -1.4933,2.5419 -1.31123,1.359811 -3.36801,4.705228 -3.01067,4.896941 0.30213,0.16209 2.3175,-0.909172 3.44845,-1.833015 1.39797,-1.141945 3.06282,-3.73163 3.56936,-5.552117 0.97457,-3.502617 -0.13209,-7.72949 -2.90678,-11.102394 -2.38968,-2.904874 -3.54837,-3.814363 -7.74048,-6.075739 -3.11738,-1.681619 -3.94922,-2.046545 -5.67245,-2.488497 -5.90997,-1.515717 -10.75759,-0.734501 -13.97344,2.251876 -1.4917,1.385262 -2.93747,4.214766 -3.23822,6.337503 -0.26082,1.840954 -0.22397,4.419425 0.0694,4.858429 0.34884,0.521911 3.12259,-6.261867 3.45584,-8.451949 0.04,-0.262795 0.184,-0.342858 0.40367,-0.224419 0.44512,0.239979 0.26831,2.257949 -0.3804,4.341808 -0.57658,1.852093 -2.16919,4.456156 -3.6597,5.983948 -0.53295,0.546269 -1.25043,1.506461 -1.59441,2.133759 -0.56574,1.031681 -0.58721,1.239222 -0.225,2.174404 0.3613,0.932829 0.56733,1.139929 2.10817,2.119208 0.93926,0.596929 1.93244,1.375407 2.2071,1.729936 0.6421,0.82885 0.83462,2.314879 0.4035,3.114503 -0.89363,1.657469 -0.21088,2.40663 4.53679,4.977973 3.21302,1.740191 3.76064,1.978157 4.57624,1.988676 z m -5.45069,-6.653134 c 0.1077,-0.199763 1.31971,-1.3204 2.69333,-2.490299 2.57975,-2.197133 3.04484,-2.364784 3.22944,-1.164114 0.0997,0.649121 -0.65697,5.913632 -0.92028,6.402012 -0.20883,0.387339 -1.43522,-0.297718 -1.68261,-0.939896 -0.15165,-0.393646 0.0514,-0.954233 0.94725,-2.615924 0.83747,-1.553318 1.08898,-2.218936 0.94716,-2.506623 -0.26794,-0.543481 -0.87055,0.177981 -2.1849,2.615795 l -1.04201,1.932683 -0.66636,-0.359274 c -0.3665,-0.197594 -0.85772,-0.393439 -1.0916,-0.435205 -0.29363,-0.05247 -0.36464,-0.188357 -0.22942,-0.439155 z m -3.1119,-6.5574 c -0.20976,-0.228699 -0.537,-0.91369 -0.72722,-1.522198 -0.89236,-2.854655 0.3572,-5.175783 2.70483,-5.024375 0.8207,0.05293 5.85963,2.197974 6.3397,2.698778 0.50244,0.52413 0.39043,1.666142 -0.28657,2.921828 -0.57161,1.060197 -0.38679,0.995327 -4.63168,1.625771 -1.98848,0.295326 -2.60231,0.168478 -3.39906,-0.699804 z m 13.44184,7.061746 c -0.92263,-1.51986 -2.18817,-4.641065 -2.12343,-5.237032 0.0686,-0.631251 1.24895,-2.337735 1.80289,-2.606396 0.5932,-0.287711 1.54364,0.136734 3.8707,1.728555 2.70473,1.850173 3.06389,2.235468 3.21496,3.44889 0.2087,1.676032 -1.15732,3.115266 -3.47787,3.664376 -1.71527,0.405884 -2.59744,0.137983 -3.28725,-0.998393 z"
     id="path858"
     inkscape:connector-curvature="0" /><path
     style="fill:#000000;stroke-width:0.24016921"
     d="m 397.04285,184.83806 c -0.37221,-0.5131 -0.59012,-1.24299 -0.60832,-2.03759 -0.0513,-2.24195 -0.7853,-3.69939 -3.15679,-6.26877 -1.32593,-1.43655 -1.69139,-1.62657 -3.50195,-1.82087 -2.48591,-0.26676 -4.35542,-0.92479 -6.84843,-2.41052 -2.44244,-1.45556 -4.47472,-3.32077 -5.677,-5.21028 -0.76746,-1.20615 -1.51557,-1.68275 -3.40437,-2.16889 -3.16357,-0.81425 -5.11639,-0.79827 -6.5707,0.0537 -0.51237,0.30016 -1.23483,0.58229 -1.60545,0.62695 -0.93484,0.11272 -2.60705,-0.71411 -3.23092,-1.59746 -0.58944,-0.83456 -0.60092,-2.38079 -0.0222,-2.99196 0.4924,-0.52002 0.51053,-1.09181 0.0839,-2.64604 -0.41003,-1.49385 0.21772,-2.73917 1.54846,-3.07182 0.93662,-0.23411 1.42637,0.007 4.40199,2.16758 0.89814,0.65214 1.861,1.18178 2.60709,1.4341 1.70308,0.57596 5.03403,1.07562 6.03057,0.90463 0.73141,-0.12552 0.85835,-0.23389 0.88447,-0.75508 0.0407,-0.80741 -0.55842,-1.67171 -4.19124,-6.04866 l -3.06301,-3.69043 -2.23401,-1.15568 c -2.63487,-1.36304 -3.23529,-2.01741 -3.18718,-3.47347 0.0526,-1.58925 1.5466,-2.63337 3.27363,-2.28772 0.7446,0.14902 0.79605,0.11487 0.94216,-0.62564 0.33081,-1.67655 2.82362,-2.57605 4.45093,-1.60606 1.62733,0.96998 2.37273,2.96097 1.59636,4.26398 -0.84364,1.41592 -0.65964,2.05594 1.29091,4.49014 l 1.80212,2.24899 0.006,-1.1623 c 0.005,-0.95704 0.19595,-1.487 1.08181,-3.00097 1.13853,-1.94581 1.29109,-2.5483 1.14847,-4.53579 -0.155,-2.16051 0.2377,-3.90141 1.37303,-6.08673 1.32729,-2.55482 2.50123,-3.80316 4.79594,-5.09999 3.58517,-2.02614 8.00355,-2.17068 13.41501,-0.43908 3.05948,0.9791 7.99003,3.97715 10.54358,6.41106 2.86782,2.73347 4.33981,4.88551 5.30611,7.75747 0.9422,2.80037 1.04122,4.42868 0.41845,6.88113 -1.02678,4.04339 -3.63382,6.80064 -7.94518,8.40292 -0.82408,0.30626 -1.34545,0.64383 -1.3659,0.88434 -0.0184,0.21395 -0.34529,1.01837 -0.7269,1.78758 -0.62426,1.25832 -0.82715,1.47056 -2.0236,2.1168 l -1.32977,0.71825 0.83762,0.33382 c 2.39825,0.95578 5.1947,0.82297 6.19157,-0.29404 0.87521,-0.98074 1.58241,-1.38251 2.58601,-1.46917 1.23054,-0.10628 1.98476,0.16835 2.78174,1.01284 1.04903,1.11158 1.20865,2.31937 0.46989,3.55554 -0.58667,0.98168 -0.59411,1.1241 -0.12814,2.45165 0.3283,0.93526 0.40803,1.66831 0.23699,2.179 -0.36083,1.07727 -1.53067,1.71074 -2.79947,1.51587 -0.88054,-0.13522 -1.1496,-0.28287 -2.34226,-1.28543 -0.77049,-0.64765 -1.75268,-1.29481 -2.29385,-1.51138 -1.35516,-0.54234 -9.92946,-2.23049 -11.12165,-2.18968 -1.25439,0.0424 -1.85092,0.83599 -1.32243,1.75811 0.41415,0.72262 3.60309,4.46295 4.72058,5.53682 0.67409,0.64776 0.96962,0.78938 2.04841,0.98153 2.34784,0.41822 3.59056,1.70972 3.21394,3.3401 -0.23088,0.99943 -0.69348,1.43139 -1.94162,1.81296 -1.49374,0.45667 -1.97597,0.75833 -2.43193,1.52129 -0.573,0.9588 -1.53275,1.40343 -2.65676,1.23081 -1.21047,-0.18588 -1.63668,-0.44608 -2.3567,-1.43864 z m 3.09727,0.14298 c 0.75991,-0.2748 0.98076,-0.70461 0.9829,-1.91298 9.9e-4,-0.55793 0.0229,-1.04979 0.0488,-1.09304 0.0259,-0.0433 0.45374,0.0941 0.95086,0.30527 1.69917,0.7217 2.94503,0.31776 3.10635,-1.00715 0.10877,-0.89332 -0.69285,-1.53766 -2.18174,-1.75371 -0.67351,-0.0977 -1.50937,-0.34788 -1.85745,-0.5559 -0.34806,-0.208 -1.74171,-1.68162 -3.09699,-3.27466 -1.35526,-1.59307 -2.53192,-2.93736 -2.61479,-2.98732 -0.14841,-0.0894 -2.24483,1.31793 -2.43359,1.63375 -0.0534,0.0892 0.56154,0.93776 1.36641,1.88559 3.28033,3.86307 3.74291,4.75964 3.33722,6.468 -0.33461,1.40896 1.08158,2.76601 2.39202,2.29214 z m -34.68759,-20.5442 c 0.27021,-0.0705 0.87727,-0.43257 1.34903,-0.80475 1.05795,-0.83465 1.81648,-0.84075 5.85283,-0.047 1.66981,0.32838 3.163,0.58032 3.31817,0.55991 0.35426,-0.0466 0.77096,-2.37713 0.48418,-2.70786 -0.11655,-0.1344 -1.96181,-0.64603 -4.10058,-1.13698 -2.13877,-0.49094 -4.07084,-1.00405 -4.2935,-1.14024 -0.22265,-0.13619 -0.74011,-0.67856 -1.14992,-1.20528 -0.4098,-0.52671 -0.97899,-1.09743 -1.26486,-1.26828 -0.58906,-0.35203 -1.59949,-0.0787 -1.96432,0.5321 -0.34359,0.57496 0.17666,1.94018 1.00388,2.63424 0.7609,0.63844 0.72432,0.88574 -0.19574,1.3233 -0.81476,0.38749 -1.32038,1.26876 -1.12565,1.96192 0.19959,0.71036 1.42287,1.47193 2.08647,1.29896 z m 22.92647,8.96998 c 1.91928,0.33604 3.92926,-0.11717 5.12297,-1.15519 0.51725,-0.44978 1.73845,-1.91448 2.71378,-3.25491 0.97533,-1.34041 2.23095,-2.84638 2.79025,-3.3466 0.55931,-0.50025 0.99824,-0.96525 0.9754,-1.03334 -0.0229,-0.0681 -0.28112,-0.11875 -0.57396,-0.11257 -0.8053,0.0176 -2.60917,1.55676 -4.14238,3.5358 -1.58041,2.03994 -2.14551,2.33935 -3.9589,2.09759 -3.35021,-0.44666 -9.26304,-4.055 -10.92609,-6.66772 -0.86248,-1.355 -0.8203,-2.1158 0.23609,-4.25908 1.06291,-2.15656 1.6728,-4.87074 1.21347,-5.40043 -0.45003,-0.51897 -0.54324,-0.37643 -0.8002,1.22361 -0.17393,1.08308 -0.6506,2.31288 -1.70093,4.38857 -1.76212,3.48231 -1.96039,4.25319 -1.50876,5.86596 0.69538,2.48315 1.89937,3.7017 5.98205,6.05434 2.73365,1.57524 3.33509,1.84644 4.57723,2.06395 z m 6.12113,-5.54965 c 0.381,-0.6355 1.32536,-1.75612 2.09867,-2.49021 1.43829,-1.36541 1.64293,-1.76049 0.82409,-1.59106 -0.89787,0.18578 -1.8243,1.12726 -3.28071,3.33403 -1.34672,2.04059 -1.42311,2.21534 -0.90294,2.06593 0.37312,-0.10727 0.80606,-0.55995 1.26089,-1.31869 z m -12.30714,-8.38987 c 1.19802,-2.32256 1.48339,-3.49884 1.07371,-4.42591 -0.21627,-0.48942 -0.24491,-0.48762 -0.39208,0.0247 -0.87718,3.05369 -1.11675,3.75105 -1.52713,4.44535 -0.48647,0.82303 -0.74135,1.96981 -0.47337,2.12996 0.0831,0.0496 0.6765,-0.92875 1.31888,-2.1741 z m -3.15616,-2.149 c 0.0283,-0.0474 0.19803,-0.57117 0.37723,-1.16411 0.44302,-1.46593 0.0783,-2.28087 -2.3224,-5.18925 -3.90883,-4.73546 -3.99722,-4.94244 -2.89688,-6.78365 0.46496,-0.77801 0.52787,-1.13145 0.31456,-1.76759 -0.53498,-1.5955 -2.85126,-2.07886 -3.63973,-0.75952 -0.18887,0.31605 -0.2856,1.16058 -0.21494,1.87675 0.0706,0.71616 0.0824,1.37924 0.0266,1.47351 -0.0574,0.096 -0.55978,-0.18063 -1.14294,-0.62951 -1.36945,-1.0541 -2.34257,-1.12364 -2.89063,-0.2066 -0.23203,0.38826 -0.28776,0.86738 -0.14375,1.23601 0.24068,0.61613 0.53867,0.7949 3.78882,2.27293 0.97142,0.44176 1.39399,0.89241 4.61445,4.92103 3.32015,4.15336 4.00267,4.93332 4.13019,4.71995 z m 24.90099,12.6674 c 5.82675,1.17007 5.4815,1.03153 8.43168,3.38354 0.85631,0.6827 1.86112,0.69232 2.55962,0.0246 0.35073,-0.33533 0.38626,-0.62067 0.16094,-1.29267 -0.29248,-0.87227 -0.47481,-0.99945 -2.19256,-1.52947 -0.78419,-0.24196 -0.54423,-0.55536 0.88514,-1.15599 0.64212,-0.26983 1.35462,-0.64673 1.58336,-0.83755 0.60925,-0.50831 0.40389,-1.56562 -0.44195,-2.27532 -1.5272,-1.28139 -2.29313,-1.13065 -3.73353,0.73476 -0.4055,0.52514 -0.99531,1.01241 -1.3107,1.08278 -0.31538,0.0705 -1.92816,-0.13942 -3.58394,-0.46624 -6.7529,-1.33284 -6.54936,-1.33788 -7.77663,0.19231 -0.58068,0.72405 -0.64441,0.90726 -0.33908,0.9751 0.20676,0.0459 2.79771,0.56983 5.75765,1.16422 z m -10.77145,-5.12644 c 0.75345,0.0434 1.08551,-0.1105 1.79035,-0.82836 1.48025,-1.50744 4.17928,-1.54332 6.00809,-0.0798 0.68192,0.5457 0.96157,0.63149 1.81737,0.55758 1.5807,-0.13655 2.2694,-0.8656 3.16851,-3.35429 0.95792,-2.65142 2.98154,-6.05411 4.69537,-7.89521 1.60069,-1.71956 1.93971,-1.91232 2.22418,-1.26466 0.26066,0.59348 0.0756,0.87898 -1.60414,2.47345 -1.37002,1.30056 -3.57259,4.55185 -3.22408,4.75916 0.29468,0.17527 2.35542,-0.80591 3.52608,-1.67888 1.44704,-1.07907 3.22468,-3.59267 3.81115,-5.38901 1.12836,-3.45613 0.20952,-7.72778 -2.41345,-11.21997 -2.25901,-3.00761 -3.3764,-3.9674 -7.4645,-6.41177 -3.04005,-1.81769 -3.85495,-2.21902 -5.55698,-2.73667 -5.83723,-1.77534 -10.71464,-1.20903 -14.05927,1.63235 -1.55144,1.31801 -3.12081,4.08087 -3.51504,6.18826 -0.3419,1.82764 -0.419,4.40522 -0.14531,4.85675 0.32544,0.53681 3.39619,-6.1178 3.82586,-8.29102 0.0516,-0.26078 0.19897,-0.3344 0.4132,-0.20637 0.43408,0.25941 0.16824,2.2676 -0.57185,4.32077 -0.65784,1.8248 -2.36394,4.35597 -3.92049,5.81642 -0.55657,0.52219 -1.31576,1.44975 -1.68712,2.06124 -0.61076,1.00568 -0.64139,1.21206 -0.32084,2.16234 0.31973,0.94787 0.51642,1.16388 2.01249,2.21027 0.91197,0.63784 1.86978,1.45944 2.12851,1.82576 0.60486,0.85639 0.73154,2.34949 0.26552,3.12928 -0.96598,1.61637 -0.317,2.39497 4.31243,5.17354 3.133,1.88044 3.66957,2.14237 4.48391,2.18892 z m -5.15145,-6.88745 c 0.11643,-0.19481 1.37675,-1.26081 2.80072,-2.36888 2.67429,-2.08101 3.14634,-2.22796 3.27772,-1.02031 0.0709,0.6529 -0.91759,5.87884 -1.20221,6.35511 -0.22575,0.37773 -1.42068,-0.36084 -1.63946,-1.01331 -0.1341,-0.39996 0.0935,-0.95104 1.06191,-2.57153 0.90526,-1.5148 1.18593,-2.16866 1.05697,-2.46233 -0.24368,-0.55478 -0.87757,0.13935 -2.29834,2.51671 l -1.12637,1.88477 -0.64984,-0.38837 c -0.35741,-0.21359 -0.8395,-0.43094 -1.07131,-0.483 -0.29101,-0.0654 -0.35595,-0.20428 -0.20979,-0.44886 z m -2.81915,-6.68848 c -0.19946,-0.23775 -0.49612,-0.93653 -0.65926,-1.55284 -0.76538,-2.89129 0.5855,-5.15494 2.92415,-4.89997 0.81756,0.0891 5.7568,2.45469 6.21428,2.97622 0.47879,0.54582 0.31643,1.68176 -0.41537,2.90632 -0.6179,1.0339 -0.43039,0.97726 -4.69899,1.41957 -1.99957,0.20718 -2.6072,0.0533 -3.36481,-0.8493 z m 13.11672,7.6487 c -0.85458,-1.55914 -1.98099,-4.73321 -1.88999,-5.32573 0.0964,-0.6276 1.35101,-2.28028 1.91628,-2.52421 0.60533,-0.26122 1.5361,0.20481 3.79055,1.89788 2.62036,1.96785 2.96215,2.36864 3.05946,3.58755 0.13445,1.68362 -1.29382,3.06109 -3.63636,3.50715 -1.73153,0.32972 -2.601,0.0231 -3.23994,-1.14264 z"
     id="path858-7"
     inkscape:connector-curvature="0" /></svg>