<svg id="svg2" xmlns="http://www.w3.org/2000/svg" width="225.02" height="202.05" viewBox="0 0 225.02 202.05"><defs><style>.cls-1{fill:#d7d7f4;}.cls-2{fill:#b3b3b3;}.cls-3{fill:#f2f2f2;}.cls-4{fill:aqua;}.cls-5{fill:#ffb380;}.cls-6{fill:#ff7f2a;}.cls-7{fill:#ead0ff;}.cls-8{fill:#00aad0;}.cls-9{fill:none;stroke:#00aad0;stroke-miterlimit:10;}</style></defs><title>seasidewall</title><g id="layer1"><path id="path3910" class="cls-1" d="M215.26.51l9.32,5.54-9.31,5.56h0L9.83,134.2h0L.52,128.64Z" transform="translate(0.19 -0.51)"/><path id="path3914" class="cls-2" d="M224.58,6.05v68L9.81,202.21v-68Z" transform="translate(0.19 -0.51)"/><path id="path3916" class="cls-3" d="M.5,128.65v68l9.31,5.56v-68Z" transform="translate(0.19 -0.51)"/><path id="path13" class="cls-4" d="M9.86,168.18V134.39l25.63-15.3C147.79,52.07,219.58,9.25,222.12,7.76l2.4-1.4V73.89L117.89,137.53l-107.33,64C10,201.91,9.86,196.79,9.86,168.18Z" transform="translate(0.19 -0.51)"/><path id="path15" class="cls-4" d="M4.93,131.15.75,128.6,107.46,64.93C166.15,29.91,214.52,1.16,215,1.05c.76-.21,9,4.33,9.05,5,0,.17-19.93,12.21-44.31,26.74S129.8,62.52,123,66.59L84.11,89.79l-41.92,25C12.9,132.32,10.46,133.74,9.78,133.72A26.72,26.72,0,0,1,4.93,131.15Z" transform="translate(0.19 -0.51)"/><path id="path17" class="cls-4" d="M4.94,199.49.26,196.63V162.37c0-28.46.12-34.15.67-33.59a40.34,40.34,0,0,0,4.78,2.94L9.82,134,10,168.21c.08,18.82,0,34.2-.11,34.18S7.51,201.06,4.94,199.49Z" transform="translate(0.19 -0.51)"/><path id="path14" class="cls-5" d="M10.42,200.11c-.17-.44-.31-15.38-.31-33.22V134.47L116.75,70.84c58.66-35,106.84-63.7,107.08-63.79s.43,14.81.42,33.33V73.89L117.76,137.4C59.19,172.33,11.15,200.91,11,200.91s-.41-.36-.58-.8Z" transform="translate(0.19 -0.51)"/><path id="path16" class="cls-5" d="M5.67,131.32c-2.27-1.31-4.08-2.54-4-2.74.12-.36,18.19-11.18,120.83-72.36,58-34.58,87.61-52.17,90.59-53.83l2.2-1.23,3.82,2c2.1,1.11,3.91,2.28,4,2.6.21.61-23.11,14.69-121.58,73.42-74.11,44.2-85.36,50.89-88.92,52.91l-2.8,1.59Z" transform="translate(0.19 -0.51)"/><path id="path18" class="cls-6" d="M4.94,199.28.52,196.64V163.55c0-18.2.18-33.35.38-33.65s1.75.21,4.52,1.76L9.57,134l0,34c0,18.68,0,34-.11,34s-2.11-1.19-4.54-2.64Z" transform="translate(0.19 -0.51)"/><path id="path20" class="cls-6" d="M10.39,175.56c-.19-13.69-.28-28.52-.19-32.93l.17-8,46.72-27.88c25.69-15.34,73.65-43.94,106.57-63.55L223.51,7.5l.37,20.82c.21,11.45.32,26.36.26,33.13L224,73.76,181.33,99.22c-44,26.23-145.13,86.5-160.36,95.53-4.72,2.8-8.95,5.23-9.41,5.4-.75.29-.85-1.86-1.17-24.59Z" transform="translate(0.19 -0.51)"/><path id="path22" class="cls-6" d="M10.94,193.21c-.5-11.53-.83-47.34-.5-53.16l.32-5.56,22.53-13.43,50.31-30,83.59-49.84L223,8l.33,4.43c.18,2.44.34,17.27.37,33l0,28.54-8.2,4.84c-4.51,2.67-49.79,29.63-100.62,59.91C10.51,200.82,12.06,199.9,11.58,199.9c-.19,0-.48-3-.64-6.69Z" transform="translate(0.19 -0.51)"/><path id="path26" class="cls-7" d="M8.35,132.63c-.56-.31-2.24-1.35-3.73-2.29L1.9,128.61l4.74-2.91c8.64-5.31,165.92-99.11,198.59-118.44l10-5.92,3.56,2c2,1.08,3.58,2.17,3.6,2.43s-2.22,1.9-5,3.65c-7.49,4.74-71.46,43.1-135.07,81-67.06,40-71.92,42.84-72.52,42.82A4.78,4.78,0,0,1,8.35,132.63Z" transform="translate(0.19 -0.51)"/><path id="path28" class="cls-7" d="M4.61,198.77.37,196.2l.37-32.87c.2-18.08.48-33,.62-33.12s1.9.62,3.92,1.69L9,133.84l.22,18c.12,9.9.09,25.09-.05,33.75l-.27,15.74Z" transform="translate(0.19 -0.51)"/></g><path class="cls-8" d="M223.69,46.79l.13,27.1L205,85.09c-10.37,6.16-33.51,19.93-51.43,30.61-139.43,83.07-141.33,84.2-142,84.2-.2,0-.49-2.44-.66-5.43-.23-4.26-.45-14.6-.58-25.22a.42.42,0,0,0,.48-.24l.45-.83a.46.46,0,0,0,0-.52.57.57,0,0,0-.34-.47c2.66-10.91,18.29-8.7,25.75-14.07S43,137.66,38.6,130.75c5.7.37,9.75,5.29,14.68,7.7s10.4,1.77,15.19-.84a35,35,0,0,0,12.62-12.48c2.63-4.3,4.43-9.49,2.51-14.31,5.88,1.75,12.08,3.39,18.24,2.6,5.94-.75,10.43-4.09,14.31-8.46,3-3.42,7.38-8.74,5-13.64-1.26-2.62-4.31-4.44-7-3.65a18.69,18.69,0,0,1,15.73-7.9A16.77,16.77,0,0,1,139.73,83c2.8,2.1,5.1,4.6,8.71,5.23,6.78,1.2,13.49-3.32,18.21-7.7,4.16-3.85,8.59-10.37,4.37-15.85-3.86-5-10.71-2.26-14.55,1.81a26.62,26.62,0,0,1,11-13.29c6-3.45,14.06-3.68,19.81.47,2.37,1.7,4.24,3.6,7.26,4s6.16-.56,8.9-1.87c6.32-3,11.73-9.28,19.25-8.64a.48.48,0,0,0,.48.52.49.49,0,0,0,.44-.71.54.54,0,0,0,0-.22Z" transform="translate(0.19 -0.51)"/><path class="cls-7" d="M223.66,41.22l0,5.57h0a.55.55,0,0,0-.47-.56c-7.69-.95-13.2,5.09-19.49,8.36-3.92,2-8.6,3.3-12.61.77-3-1.88-5.18-4.15-8.69-5.11-13.44-3.68-24.48,7.34-28.08,19.3-.16.54.66.9.91.39,2.16-4.37,8.18-8.74,13.21-6.14,5.2,2.7,3.16,9.61.29,13.13-5.16,6.34-15.86,14-24.06,8.76-3.12-2-5.33-4.66-8.92-5.92a19.47,19.47,0,0,0-8.77-.83,19.15,19.15,0,0,0-14.61,9.75.51.51,0,0,0,.79.61c2-1.68,4.69-.63,6.24,1.15,2,2.35,1.5,5.54.2,8.12a31.37,31.37,0,0,1-9.36,10.55c-8.2,5.87-18.59,3.08-27.43.43a.5.5,0,0,0-.56.73c2.94,5.63-.18,12-3.57,16.64-3.51,4.85-8.35,9.43-14.14,11.31s-10.58-.15-15.28-3.45c-3.54-2.49-7.08-5.16-11.6-5.06a.5.5,0,0,0-.43.76c2.84,4.1,4.58,9.35,3.59,14.37-1.14,5.8-5.86,8.8-11.19,10.34-6.76,1.94-16.57,3-19.33,10.49-.13-12-.15-23.57,0-26.19l.36-5,17.76-10.6C151.48,50.45,223,8,223.2,8.26S223.58,23.26,223.66,41.22Z" transform="translate(0.19 -0.51)"/><path class="cls-8" d="M144.68,85.69c8.2,5.24,18.9-2.42,24.06-8.76,2.87-3.52,4.91-10.43-.29-13.13-5-2.6-11,1.77-13.21,6.14-.25.51-1.07.15-.91-.39,3.6-12,14.64-23,28.08-19.3,3.51,1,5.72,3.23,8.69,5.11,4,2.53,8.69,1.26,12.61-.77,6.29-3.27,11.8-9.31,19.49-8.36a.55.55,0,0,1,.47.56.54.54,0,0,1,0,.22.49.49,0,0,1-.44.71.48.48,0,0,1-.48-.52c-7.52-.64-12.93,5.6-19.25,8.64-2.74,1.31-5.83,2.3-8.9,1.87s-4.89-2.33-7.26-4c-5.75-4.15-13.78-3.92-19.81-.47a26.62,26.62,0,0,0-11,13.29c3.84-4.07,10.69-6.82,14.55-1.81,4.22,5.48-.21,12-4.37,15.85-4.72,4.38-11.43,8.9-18.21,7.7-3.61-.63-5.91-3.13-8.71-5.23a16.77,16.77,0,0,0-9.83-3.24,18.69,18.69,0,0,0-15.73,7.9c2.7-.79,5.75,1,7,3.65,2.35,4.9-2,10.22-5,13.64-3.88,4.37-8.37,7.71-14.31,8.46-6.16.79-12.36-.85-18.24-2.6,1.92,4.82.12,10-2.51,14.31a35,35,0,0,1-12.62,12.48c-4.79,2.61-10.2,3.27-15.19.84s-9-7.33-14.68-7.7c4.37,6.91,5.42,17.07-1.94,22.37s-23.09,3.16-25.75,14.07a.57.57,0,0,1,.34.47.46.46,0,0,1,0,.52l-.45.83a.42.42,0,0,1-.48.24c0-1.19,0-2.38,0-3.57,2.76-7.5,12.57-8.55,19.33-10.49,5.33-1.54,10-4.54,11.19-10.34,1-5-.75-10.27-3.59-14.37a.5.5,0,0,1,.43-.76c4.52-.1,8.06,2.57,11.6,5.06,4.7,3.3,9.52,5.33,15.28,3.45s10.63-6.46,14.14-11.31c3.39-4.67,6.51-11,3.57-16.64a.5.5,0,0,1,.56-.73c8.84,2.65,19.23,5.44,27.43-.43a31.37,31.37,0,0,0,9.36-10.55c1.3-2.58,1.84-5.77-.2-8.12-1.55-1.78-4.22-2.83-6.24-1.15a.51.51,0,0,1-.79-.61A19.15,19.15,0,0,1,127,78.94a19.47,19.47,0,0,1,8.77.83C139.35,81,141.56,83.7,144.68,85.69Z" transform="translate(0.19 -0.51)"/><path class="cls-8" d="M10.31,165.68c0,1.19,0,2.38,0,3.57a.56.56,0,0,1-.43-.61l-.05,0a.88.88,0,0,1-.22-.7.49.49,0,0,1,.21-.38.49.49,0,0,1,0-.24A12.3,12.3,0,0,1,10.31,165.68Z" transform="translate(0.19 -0.51)"/><polyline class="cls-9" points="10.04 167.67 10.05 168.08 11.19 200.4"/><line class="cls-9" x1="223.38" y1="46.72" x2="224.2" y2="73.25"/><line class="cls-9" x1="11.75" y1="199.64" x2="224.77" y2="73.54"/><path class="cls-8" d="M224,73.2a.76.76,0,0,0-.16,0,.48.48,0,0,0-.58.47V74a.5.5,0,0,0,1,.1A.5.5,0,0,0,224,73.2Z" transform="translate(0.19 -0.51)"/><path class="cls-8" d="M11.4,199.82a.46.46,0,0,0-.21,0,2.61,2.61,0,0,0,.25-1.05v-.29a2,2,0,0,0,0-.24,10.12,10.12,0,0,0-.28-2.05,2,2,0,0,0-.32-.7,1.64,1.64,0,0,0,.5-1.07.34.34,0,0,1,0-.1,1.82,1.82,0,0,0,.08-.55c0-.15,0-.31,0-.46a22.38,22.38,0,0,0-.2-4.17v-.06h0c0-.13,0-.26,0-.4a1.43,1.43,0,0,0-.16-.44c0-.09,0-.19,0-.28a1.38,1.38,0,0,0-.58-1.18c-.19-2.39-.32-4.78-.41-7.17,0,0,0-.06,0-.09,0-1.75-.07-3.5-.16-5.24,0-.38,0-.74,0-1.09a4.32,4.32,0,0,0-.06-1.13.48.48,0,0,0-.06-.22.63.63,0,0,0-.3-.32v0A.41.41,0,0,0,9.5,171l0,0c0-.17,0-.34,0-.51v-.05s0-.09,0-.13a.47.47,0,0,0,0-.54c0-.27,0-.54,0-.81a.43.43,0,0,0,0-.11.54.54,0,0,0-.47-.58A43.24,43.24,0,0,1,1,166.3c-.52-.17-.78.5-.47.83a.46.46,0,0,0,0,.29c0,.06,0,.12,0,.18a.33.33,0,0,0,0,.1l.05.46a.5.5,0,0,0-.15.45c0,.43.1.85.14,1.28a79.81,79.81,0,0,0,0,8.33c0,.65-.09,1.3-.11,1.95-.07,2.48-.08,5-.07,7.44,0,.18,0,.36-.07.54a.42.42,0,0,0,.07.27c0,.83,0,1.66,0,2.49,0,.24,0,.47,0,.71a.19.19,0,0,1,0,.07v.16a2.07,2.07,0,0,0-.05.5c-.08.84-.06,1.71-.1,2.54,0,.11,0,.21,0,.32h0c-.08,1-.18,1.49.93,1.85a.46.46,0,0,0,.23,0,15.36,15.36,0,0,0,3,1.85.47.47,0,0,0,.33.44,8.24,8.24,0,0,1,2.1,1.19l.11.09a.4.4,0,0,0,.42,0,2.55,2.55,0,0,0,.71.46.49.49,0,0,0,.19.22,3.6,3.6,0,0,0,1.49.74.87.87,0,0,0,.75-.45h0a2.42,2.42,0,0,0,1.09-.77.56.56,0,0,0,.09-.17A.5.5,0,0,0,11.4,199.82Z" transform="translate(0.19 -0.51)"/><line class="cls-9" x1="0.25" y1="196.23" x2="9.74" y2="201.61"/></svg>