<?xml version="1.0" encoding="UTF-8" standalone="no"?>
<!-- Generator: Adobe Illustrator 16.0.0, SVG Export Plug-In . SVG Version: 6.00 Build 0)  -->

<svg
   xmlns:dc="http://purl.org/dc/elements/1.1/"
   xmlns:cc="http://creativecommons.org/ns#"
   xmlns:rdf="http://www.w3.org/1999/02/22-rdf-syntax-ns#"
   xmlns:svg="http://www.w3.org/2000/svg"
   xmlns="http://www.w3.org/2000/svg"
   xmlns:sodipodi="http://sodipodi.sourceforge.net/DTD/sodipodi-0.dtd"
   xmlns:inkscape="http://www.inkscape.org/namespaces/inkscape"
   version="1.1"
   id="svg2"
   inkscape:version="0.92.2 (5c3e80d, 2017-08-06)"
   sodipodi:docname="top.svg"
   x="0px"
   y="0px"
   width="430.543px"
   height="325.295px"
   viewBox="0 0 430.543 325.295"
   enable-background="new 0 0 430.543 325.295"
   xml:space="preserve"><metadata
     id="metadata202"><rdf:RDF><cc:Work
         rdf:about=""><dc:format>image/svg+xml</dc:format><dc:type
           rdf:resource="http://purl.org/dc/dcmitype/StillImage" /></cc:Work></rdf:RDF></metadata><defs
     id="defs194"><inkscape:perspective
       sodipodi:type="inkscape:persp3d"
       inkscape:vp_x="0 : 526.18109 : 1"
       inkscape:vp_y="0 : 1000 : 0"
       inkscape:vp_z="744.09448 : 526.18109 : 1"
       id="perspective2985"
       inkscape:persp3d-origin="372.04724 : 350.78739 : 1" /></defs><sodipodi:namedview
     units="mm"
     pagecolor="#ffffff"
     bordercolor="#666666"
     borderopacity="1.0"
     inkscape:zoom="1.979899"
     inkscape:cx="71.883986"
     inkscape:cy="211.15465"
     showgrid="false"
     showguides="true"
     fit-margin-top="0"
     fit-margin-left="0"
     id="base"
     inkscape:document-units="mm"
     inkscape:current-layer="layer1"
     inkscape:object-nodes="true"
     inkscape:window-width="1366"
     inkscape:window-height="768"
     inkscape:window-x="4"
     inkscape:window-y="44"
     inkscape:window-maximized="0"
     inkscape:guide-bbox="true"
     fit-margin-right="0"
     fit-margin-bottom="0"
     inkscape:pageopacity="0.0"
     inkscape:pageshadow="2" /><g
     id="layer1"
     transform="translate(-53.643411,-569.625)"
     inkscape:label="Layer 1"
     inkscape:groupmode="layer"><path
       id="path3910"
       inkscape:connector-curvature="0"
       sodipodi:nodetypes="cccccccc"
       fill="#D7D7F4"
       d="M268.908,570.139   l9.32,5.536l-9.313,5.563l-0.007-0.005L63.471,703.826H63.44l-9.281-5.563L268.908,570.139z" /><path
       id="path3914"
       inkscape:connector-curvature="0"
       sodipodi:nodetypes="ccccc"
       fill="#B3B3B3"
       d="M278.228,575.675v68   L63.455,771.831v-68L278.228,575.675z" /><path
       id="path3916"
       inkscape:connector-curvature="0"
       fill="#F2F2F2"
       d="M54.144,698.276v68l9.311,5.555v-68L54.144,698.276z" /><path
       style="fill:#ffeeaa;stroke-width:0.50507629"
       d="m 5.5013576,131.47699 c -4.92396045,-2.87917 -5.11232278,-3.10066 -3.3189707,-3.90268 0.8061871,-0.36053 1.870911,-0.99645 2.366053,-1.41313 0.4951418,-0.41669 1.0379417,-0.68139 1.2062215,-0.58821 0.1682798,0.0932 0.4450166,-0.025 0.6149708,-0.26246 0.1699536,-0.23752 2.2409239,-1.53644 4.6021558,-2.88647 2.361231,-1.35004 5.281621,-3.11454 6.489753,-3.9211 1.208133,-0.80657 2.458197,-1.51581 2.77792,-1.57608 0.319723,-0.0603 0.694956,-0.25382 0.833852,-0.43011 0.482675,-0.6126 10.49446,-6.49801 11.053888,-6.49801 0.309577,0 0.562866,-0.21197 0.562866,-0.47104 0,-0.25908 0.493917,-0.62781 1.097594,-0.81941 0.603677,-0.1916 1.547235,-0.76727 2.096796,-1.27926 0.549561,-0.51199 1.192065,-0.8117 1.427787,-0.66601 0.235723,0.14568 0.428586,0.0242 0.428586,-0.27001 0,-0.29419 0.219223,-0.53488 0.487162,-0.53488 0.543601,0 7.685058,-4.21848 9.547459,-5.63971 0.657683,-0.501885 1.396357,-0.788562 1.641498,-0.637059 0.245142,0.151508 0.445711,0.08199 0.445711,-0.154478 0,-0.236466 1.497062,-1.329482 3.326806,-2.428916 6.836491,-4.107846 8.06822,-4.825908 9.300101,-5.421676 0.69448,-0.335871 1.694859,-1.002187 2.223063,-1.480712 0.528209,-0.478519 1.153241,-0.750841 1.38896,-0.605157 0.235724,0.145684 0.428587,0.06628 0.428587,-0.176459 0,-0.242734 0.825689,-0.835083 1.834867,-1.316324 1.009177,-0.481242 4.014275,-2.244771 6.677997,-3.918953 2.663716,-1.674181 5.076829,-3.083985 5.362465,-3.132902 0.285641,-0.04889 0.632987,-0.232158 0.771883,-0.407213 0.465201,-0.586302 10.55372,-6.50025 11.088682,-6.50025 0.290439,0 0.528072,-0.211971 0.528072,-0.47104 0,-0.259073 0.478863,-0.623026 1.064145,-0.808788 0.585278,-0.185757 1.501784,-0.712466 2.03668,-1.170459 0.534896,-0.457988 1.135629,-0.83577 1.334967,-0.839518 0.456569,-0.0086 9.043585,-5.15953 10.649595,-6.388204 0.65768,-0.503157 1.39635,-0.790869 1.6415,-0.639366 0.24514,0.151508 0.44571,0.08377 0.44571,-0.150523 0,-0.23429 0.73867,-0.855751 1.64149,-1.381025 0.90283,-0.525269 2.55064,-1.522133 3.66181,-2.215249 1.11116,-0.693116 2.02586,-1.164666 2.03265,-1.047892 0.007,0.116773 0.66247,-0.299076 1.45708,-0.924108 0.79459,-0.625032 1.75499,-1.136422 2.13422,-1.136422 0.37923,0 0.6895,-0.21197 0.6895,-0.471039 0,-0.259074 0.47886,-0.623026 1.06415,-0.808788 0.58527,-0.185757 1.50178,-0.712466 2.03668,-1.170459 0.53489,-0.457988 1.13562,-0.820007 1.33496,-0.804481 0.19934,0.01551 0.58972,-0.163134 0.86751,-0.397025 0.95053,-0.800303 9.95827,-5.944657 10.40907,-5.944657 0.24754,0 0.45007,-0.265165 0.45007,-0.589255 0,-0.324091 0.13258,-0.456673 0.29463,-0.294628 0.16205,0.162045 0.73855,-0.149291 1.28111,-0.691858 0.54257,-0.542566 1.18607,-0.863137 1.43,-0.712377 0.24394,0.150759 0.51975,0.06999 0.61293,-0.179485 0.21737,-0.582014 10.22415,-6.623769 10.97075,-6.623769 0.30958,0 0.56287,-0.222955 0.56287,-0.495454 0,-0.272499 0.56821,-0.638065 1.26269,-0.812369 0.69448,-0.174303 1.26269,-0.481154 1.26269,-0.681889 0,-0.200736 0.62503,-0.677404 1.38896,-1.059263 2.60856,-1.303919 10.98393,-6.277847 11.65747,-6.923087 0.36964,-0.354104 0.86162,-0.526678 1.09329,-0.383498 0.23167,0.143181 0.49745,0.05621 0.59062,-0.193264 0.21737,-0.582014 10.22416,-6.62377 10.97076,-6.62377 0.30958,0 0.56287,-0.211968 0.56287,-0.47104 0,-0.259072 0.49392,-0.627804 1.09759,-0.819403 0.60368,-0.1916 1.54723,-0.767267 2.0968,-1.279261 0.54956,-0.511994 1.19206,-0.811702 1.42778,-0.666018 0.23573,0.145685 0.42859,0.02418 0.42859,-0.270003 0,-0.294187 0.21929,-0.534885 0.48732,-0.534885 0.26802,0 2.54885,-1.250064 5.06852,-2.777919 2.51966,-1.527856 4.8005,-2.77792 5.06852,-2.77792 0.26802,0 0.48732,-0.240698 0.48732,-0.534884 0,-0.294186 0.22728,-0.394415 0.50507,-0.22273 0.2778,0.171685 0.50508,0.09102 0.50508,-0.17926 0,-0.270278 1.50641,-1.3632926 3.34758,-2.4289206 1.84117,-1.0656281 4.39812,-2.5702115 5.68211,-3.3435183 1.28399,-0.7733067 2.90274,-1.6778178 3.59722,-2.0100246 0.69448,-0.3322067 1.37633,-0.7450763 1.51523,-0.917488 0.13889,-0.1724117 0.75472,-0.5778535 1.36849,-0.90098176 0.95949,-0.50513269 1.50491,-0.33869415 3.89008,1.18707876 1.52577,0.9760216 3.01232,1.7745847 3.30346,1.7745847 0.29113,0 0.52934,0.2007759 0.52934,0.4461686 0,0.2453927 0.51004,0.5795479 1.13343,0.7425673 0.99457,0.260085 1.04098,0.3817685 0.37881,0.9932073 C 222.53604,7.1025602 10.098513,133.74747 9.6082019,133.68968 9.3859022,133.66346 7.5378221,132.66776 5.5013576,131.47699 Z"
       id="path204"
       inkscape:connector-curvature="0"
       transform="translate(53.643411,569.625)" /><path
       style="fill:#ffeeaa;stroke-width:0.50507629"
       d="M 9.9616351,168.1565 V 134.39037 L 26.755421,124.37423 c 9.236582,-5.50888 21.22583,-12.67001 26.642773,-15.91363 5.416943,-3.24361 20.644993,-12.33639 33.84011,-20.206175 13.195116,-7.869781 30.241446,-18.05026 37.880716,-22.623286 7.63928,-4.573021 14.57145,-8.70309 15.40483,-9.177923 0.83338,-0.474833 6.62913,-3.921188 12.87945,-7.658567 11.59434,-6.932837 39.87299,-23.815011 59.85153,-35.730977 l 11.11168,-6.6274302 0.13082,33.4722322 c 0.0719,18.409727 0.0262,33.746069 -0.10166,34.080758 -0.12787,0.334689 -1.18351,1.130184 -2.34588,1.767767 -1.16237,0.637583 -2.48033,1.389273 -2.9288,1.670419 -0.44847,0.281145 -2.52003,1.510799 -4.60347,2.732558 -2.08344,1.22176 -4.32617,2.636448 -4.98386,3.143747 -0.65768,0.507298 -1.39635,0.798399 -1.64149,0.646896 -0.24514,-0.151508 -0.44571,-0.05008 -0.44571,0.225385 0,0.275464 -0.51139,0.660438 -1.13643,0.855494 -0.62503,0.19506 -1.25006,0.508364 -1.38896,0.696232 -0.24404,0.330093 -4.44607,2.910795 -8.08122,4.963132 -2.80187,1.581889 -11.5588,6.864734 -15.15228,9.141017 -1.80565,1.143781 -4.30578,2.579691 -5.55584,3.190901 -1.25007,0.61122 -2.38649,1.24901 -2.52538,1.41732 -0.30685,0.37181 -4.96246,3.22372 -8.08122,4.95035 -1.25007,0.69206 -3.40927,1.97998 -4.79823,2.86203 -5.23307,3.32324 -12.20968,7.3427 -12.74476,7.3427 -0.30557,0 -0.63134,0.1844 -0.72394,0.40976 -0.13991,0.34053 -9.30222,6.04743 -12.79526,7.96976 -0.55559,0.30575 -2.14658,1.25884 -3.53554,2.11795 -1.38896,0.85912 -4.00273,2.40752 -5.80838,3.44089 -1.80564,1.03336 -4.21817,2.51447 -5.36115,3.29135 -1.143,0.77688 -2.39306,1.47959 -2.77792,1.56158 -0.38487,0.082 -0.8134,0.28443 -0.9523,0.44986 -0.19713,0.2348 -15.22269,9.31515 -19.57078,11.82715 -5.227246,3.01991 -8.668184,5.11379 -9.65674,5.8763 -0.65768,0.5073 -1.396354,0.7984 -1.641497,0.6469 -0.245139,-0.15151 -0.44571,-0.0501 -0.44571,0.22538 0,0.27547 -0.51139,0.66044 -1.136422,0.8555 -0.625032,0.19506 -1.250063,0.50836 -1.388959,0.69623 -0.244043,0.33009 -4.446071,2.91079 -8.081221,4.96313 -2.80187,1.58189 -11.558801,6.86473 -15.152288,9.14102 -1.805647,1.14378 -4.305775,2.57968 -5.555839,3.1909 -1.250064,0.61122 -2.386485,1.24901 -2.525381,1.41732 -0.306848,0.37181 -4.962455,3.22372 -8.08122,4.95035 -1.250064,0.69206 -3.409265,1.97998 -4.798225,2.86203 -5.233072,3.32324 -12.209678,7.3427 -12.744765,7.3427 -0.305567,0 -0.631338,0.1844 -0.723936,0.40976 -0.225391,0.54857 -13.685732,8.68162 -14.368227,8.68162 -0.107143,0 -0.1948049,-15.19476 -0.1948049,-33.76612 z"
       id="path206"
       inkscape:connector-curvature="0"
       transform="translate(53.643411,569.625)" /><path
       style="fill:#ffeeaa;stroke-width:0.50507629"
       d="m 5.0371415,199.34503 -4.16687926,-2.54615 v -33.85162 -33.85161 l 2.39911226,1.39523 c 1.3195118,0.76738 3.2514285,1.92825 4.2931483,2.57971 l 1.894036,1.18448 v 33.83377 c 0,18.60858 -0.056821,33.8267 -0.126269,33.81805 -0.069448,-0.009 -2.0013648,-1.16148 -4.2931483,-2.56186 z"
       id="path208"
       inkscape:connector-curvature="0"
       transform="translate(53.643411,569.625)" /></g></svg>