<?xml version="1.0" encoding="UTF-8" standalone="no"?>
<!-- Generator: Adobe Illustrator 16.0.0, SVG Export Plug-In . SVG Version: 6.00 Build 0)  -->

<svg
   xmlns:dc="http://purl.org/dc/elements/1.1/"
   xmlns:cc="http://creativecommons.org/ns#"
   xmlns:rdf="http://www.w3.org/1999/02/22-rdf-syntax-ns#"
   xmlns:svg="http://www.w3.org/2000/svg"
   xmlns="http://www.w3.org/2000/svg"
   xmlns:sodipodi="http://sodipodi.sourceforge.net/DTD/sodipodi-0.dtd"
   xmlns:inkscape="http://www.inkscape.org/namespaces/inkscape"
   version="1.1"
   id="svg2"
   inkscape:version="0.92.2 (5c3e80d, 2017-08-06)"
   sodipodi:docname="topForbidden.svg"
   x="0px"
   y="0px"
   width="430.543px"
   height="325.295px"
   viewBox="0 0 430.543 325.295"
   enable-background="new 0 0 430.543 325.295"
   xml:space="preserve"><metadata
     id="metadata903"><rdf:RDF><cc:Work
         rdf:about=""><dc:format>image/svg+xml</dc:format><dc:type
           rdf:resource="http://purl.org/dc/dcmitype/StillImage" /><dc:title></dc:title></cc:Work></rdf:RDF></metadata><defs
     id="defs895"><inkscape:perspective
       sodipodi:type="inkscape:persp3d"
       inkscape:vp_x="0 : 526.18109 : 1"
       inkscape:vp_y="0 : 1000 : 0"
       inkscape:vp_z="744.09448 : 526.18109 : 1"
       id="perspective2985"
       inkscape:persp3d-origin="372.04724 : 350.78739 : 1" /></defs><sodipodi:namedview
     units="mm"
     pagecolor="#ffffff"
     bordercolor="#666666"
     borderopacity="1.0"
     inkscape:zoom="1.979899"
     inkscape:cx="88.046426"
     inkscape:cy="150.5455"
     showgrid="false"
     showguides="true"
     fit-margin-top="0"
     fit-margin-left="0"
     id="base"
     inkscape:document-units="mm"
     inkscape:current-layer="layer1"
     inkscape:object-nodes="true"
     inkscape:window-width="1920"
     inkscape:window-height="1018"
     inkscape:window-x="-8"
     inkscape:window-y="-8"
     inkscape:window-maximized="1"
     inkscape:guide-bbox="true"
     fit-margin-right="0"
     fit-margin-bottom="0"
     inkscape:pageopacity="0.0"
     inkscape:pageshadow="2" /><g
     id="layer1"
     transform="translate(-53.643411,-569.625)"
     inkscape:label="Layer 1"
     inkscape:groupmode="layer"><path
       id="path3910"
       inkscape:connector-curvature="0"
       sodipodi:nodetypes="cccccccc"
       fill="#D7D7F4"
       d="M268.908,570.139   l9.32,5.536l-9.313,5.563l-0.007-0.005L63.471,703.826H63.44l-9.281-5.563L268.908,570.139z"
       style="fill:#2d2d2d;fill-opacity:1" /><path
       id="path3914"
       inkscape:connector-curvature="0"
       sodipodi:nodetypes="ccccc"
       d="M278.228,575.675v68   L63.455,771.831v-68L278.228,575.675z"
       style="fill:#2d2d2d;fill-opacity:1"
       fill="#B3B3B3" /><path
       id="path3916"
       inkscape:connector-curvature="0"
       fill="#F2F2F2"
       d="M54.144,698.276v68l9.311,5.555v-68L54.144,698.276z"
       style="fill:#2d2d2d;fill-opacity:1" /><path
       style="fill:#000000;stroke-width:0.24016921"
       d="m 121.72028,733.40407 c -0.63015,0.0689 -1.37205,-0.10366 -2.07118,-0.48176 -1.97255,-1.06675 -3.60213,-1.15184 -7.0092,-0.36594 -1.90493,0.4394 -2.25112,0.66259 -3.31739,2.13872 -1.464,2.02673 -2.96224,3.32416 -5.4884,4.75281 -2.4749,1.39966 -5.10226,2.24004 -7.33924,2.34752 -1.42798,0.0686 -2.21276,0.48206 -3.57127,1.88146 -2.27541,2.34388 -3.22958,4.04777 -3.21057,5.73317 0.006,0.59378 -0.10641,1.36109 -0.25135,1.70512 -0.36554,0.86775 -1.91256,1.91016 -2.98899,2.0141 -1.017002,0.0982 -2.36556,-0.65834 -2.609459,-1.46391 -0.207555,-0.68543 -0.695146,-0.98463 -2.256461,-1.38456 -1.500638,-0.38442 -2.270994,-1.54696 -1.900205,-2.86758 0.260966,-0.92949 0.713181,-1.23529 4.064652,-2.74852 1.011596,-0.45674 1.948897,-1.03041 2.537863,-1.5533 1.34447,-1.19358 3.42965,-3.83874 3.77514,-4.78899 0.25358,-0.69743 0.22238,-0.8614 -0.21732,-1.14246 -0.68103,-0.43561 -1.72866,-0.34373 -7.330819,0.64156 l -4.723489,0.83075 -2.111126,1.36729 c -2.489938,1.61266 -3.355878,1.80972 -4.5966,1.04614 -1.354173,-0.83348 -1.520337,-2.6486 -0.364033,-3.97717 0.498529,-0.57278 0.49439,-0.6344 -0.07627,-1.12839 -1.292056,-1.1184 -0.837509,-3.72926 0.811594,-4.6617 1.64911,-0.93247 3.747763,-0.59285 4.494552,0.72733 0.811472,1.4346 1.458541,1.59207 4.539531,1.10473 l 2.84655,-0.45024 -1.006486,-0.58136 c -0.828756,-0.47866 -1.194287,-0.90731 -2.070015,-2.42718 -1.125502,-1.95336 -1.573124,-2.38452 -3.369926,-3.2459 -1.953218,-0.93637 -3.270463,-2.14044 -4.605565,-4.20976 -1.560838,-2.41923 -2.063071,-4.05759 -2.051804,-6.69337 0.01759,-4.11807 2.082351,-8.02701 6.268965,-11.86828 2.366973,-2.17172 7.414894,-4.96762 10.794551,-5.97879 3.79561,-1.13561 6.39431,-1.34719 9.36757,-0.76271 2.89912,0.56992 4.36238,1.29112 6.18356,3.04771 3.00261,2.89613 4.10487,6.52713 3.3592,11.06574 -0.14254,0.86752 -0.10782,1.48765 0.0909,1.62464 0.17666,0.12211 0.71326,0.8047 1.19214,1.51744 0.78337,1.16594 0.86712,1.44736 0.83527,2.80681 l -0.0354,1.51094 0.70514,-0.562 c 2.01893,-1.60902 3.28984,-4.10353 2.8139,-5.52303 -0.41789,-1.24627 -0.41625,-2.05963 0.006,-2.9742 0.51775,-1.12135 1.1301,-1.64027 2.2586,-1.91379 1.48541,-0.36004 2.61348,0.10007 3.32087,1.35447 0.56173,0.99614 0.68174,1.07321 2.06568,1.3266 0.97501,0.17852 1.65117,0.47267 2.00991,0.87437 0.75672,0.84741 0.72695,2.17741 -0.0713,3.18274 -0.55395,0.69769 -0.81555,0.85817 -2.27746,1.397 -0.94442,0.34809 -1.99338,0.88029 -2.44973,1.24292 -1.1428,0.90809 -6.85938,7.51785 -7.41494,8.57349 -0.58454,1.11069 -0.1915,2.02189 0.87132,2.02002 0.8329,-9.9e-4 5.66214,-0.91682 7.14873,-1.355 0.89672,-0.26433 1.16623,-0.45078 1.86789,-1.29244 1.52709,-1.83174 3.26478,-2.27078 4.49404,-1.13549 0.75353,0.69596 0.89935,1.31185 0.61202,2.58499 -0.34388,1.52365 -0.32095,2.09201 0.11564,2.86622 0.54865,0.97293 0.45903,2.02687 -0.24807,2.91749 -0.76151,0.95911 -1.19875,1.20029 -2.4177,1.33357 z m 1.65954,-2.61904 c 0.13805,-0.7962 -0.1258,-1.20105 -1.17413,-1.80193 -0.48408,-0.2774 -0.90039,-0.5403 -0.92508,-0.58426 -0.0247,-0.0439 0.30669,-0.3474 0.73648,-0.67448 1.4691,-1.11794 1.73589,-2.40017 0.66519,-3.19706 -0.7219,-0.53731 -1.67888,-0.16054 -2.60459,1.02543 -0.41878,0.53648 -1.05037,1.13842 -1.40356,1.33761 -0.3532,0.19917 -2.32387,0.67901 -4.37924,1.06634 -2.05538,0.3873 -3.80618,0.74281 -3.89064,0.79002 -0.15126,0.0845 0.0317,2.60293 0.2125,2.92343 0.0511,0.0906 1.0928,-0.0229 2.31494,-0.25201 4.98115,-0.9339 5.98913,-0.8912 7.27168,0.30801 1.05779,0.98904 2.93841,0.43184 3.17648,-0.94116 z m -35.03765,19.94135 c 0.0728,-0.26959 0.0592,-0.97634 -0.0302,-1.57054 -0.20046,-1.33257 0.17029,-1.99436 2.86055,-5.10638 1.11293,-1.28743 2.07196,-2.45933 2.13115,-2.60422 0.13516,-0.33078 -1.68231,-1.84796 -2.11171,-1.76284 -0.17451,0.0346 -1.53358,1.38353 -3.02018,2.99766 -1.4866,1.61411 -2.890005,3.03772 -3.118656,3.16357 -0.228667,0.1258 -0.956203,0.30641 -1.616798,0.40121 -0.660583,0.0948 -1.438414,0.30622 -1.728498,0.46979 -0.597748,0.33708 -0.861293,1.3501 -0.511644,1.96974 0.329025,0.58342 1.772589,0.80838 2.785448,0.43401 0.931648,-0.34435 1.1283,-0.18995 1.052222,0.82598 -0.06737,0.89969 0.447344,1.77567 1.145876,1.95018 0.71587,0.17879 1.98368,-0.50608 2.16242,-1.16814 z m 19.15541,-15.46463 c 1.24328,-1.50027 1.84608,-3.47057 1.5363,-5.02185 -0.13416,-0.6722 -0.8009,-2.45887 -1.48153,-3.97039 -0.68064,-1.51154 -1.36611,-3.34856 -1.5233,-4.08227 -0.15719,-0.73372 -0.34343,-1.34544 -0.4139,-1.35937 -0.0705,-0.014 -0.24248,0.18529 -0.38228,0.44268 -0.38415,0.70798 0.0586,3.03773 1.0173,5.35035 0.98821,2.3838 0.9681,3.023 -0.14077,4.47805 -2.0487,2.68819 -8.1136,6.03464 -11.20711,6.18379 -1.60434,0.0773 -2.24418,-0.33643 -3.58189,-2.31636 -1.34602,-1.99218 -3.40092,-3.86733 -4.08863,-3.73099 -0.67382,0.13357 -0.59623,0.2852 0.666,1.30152 0.8544,0.68797 1.68618,1.71159 2.9682,3.65274 2.1508,3.25662 2.722,3.81096 4.34655,4.21821 2.50129,0.62704 4.15642,0.18546 8.22351,-2.19403 2.72321,-1.59323 3.25689,-1.98114 4.06154,-2.9521 z m -1.78539,-8.06717 c -0.36305,-0.6459 -0.86813,-2.02158 -1.12235,-3.0571 -0.47284,-1.92598 -0.71451,-2.29956 -0.97329,-1.50443 -0.28374,0.87188 0.0747,2.14318 1.26924,4.50199 1.10461,2.18117 1.21851,2.33414 1.34662,1.80831 0.0919,-0.3772 -0.0867,-0.97764 -0.52022,-1.74877 z m -13.38735,6.52951 c -1.42322,-2.19182 -2.30333,-3.02275 -3.31158,-3.12652 -0.53227,-0.0548 -0.54488,-0.0291 -0.17291,0.35275 2.21723,2.2756 2.70413,2.82937 3.10367,3.52993 0.47366,0.8305 1.34326,1.62034 1.61518,1.467 0.0842,-0.0476 -0.47123,-1.04793 -1.23437,-2.22317 z m -3.43096,1.67575 c -0.0271,-0.048 -0.39788,-0.45513 -0.82401,-0.90468 -1.05351,-1.11146 -1.94206,-1.19872 -5.658019,-0.55547 -6.050347,1.04729 -6.273927,1.02145 -7.327519,-0.84691 -0.445197,-0.78949 -0.720968,-1.01933 -1.379192,-1.14942 -1.650862,-0.3263 -3.218878,1.44573 -2.463923,2.78452 0.180864,0.32072 0.866371,0.82336 1.523382,1.11702 0.656976,0.29369 1.238692,0.61214 1.292858,0.7074 0.055,0.0975 -0.434368,0.39662 -1.11329,0.68058 -1.594329,0.66679 -2.137132,1.47745 -1.612375,2.40804 0.22217,0.39397 0.610656,0.67989 1.002182,0.73755 0.654416,0.0964 0.957394,-0.0737 3.85221,-2.16376 0.865219,-0.62468 1.46606,-0.76828 6.561305,-1.56812 5.252981,-0.82459 6.268701,-1.03068 6.146601,-1.24721 z m 23.34537,-15.34655 c 3.90463,-4.4804 3.61315,-4.24924 7.11831,-5.64546 1.01738,-0.40527 1.52386,-1.27313 1.29013,-2.21084 -0.11735,-0.47084 -0.34754,-0.64314 -1.04287,-0.78056 -0.90253,-0.1784 -1.10338,-0.0831 -2.41522,1.14599 -0.59886,0.56111 -0.75209,0.19736 -0.56517,-1.34179 0.0839,-0.69141 0.10984,-1.49705 0.0575,-1.7903 -0.13948,-0.7811 -1.15949,-1.12688 -2.19515,-0.74408 -1.86993,0.69112 -2.11871,1.43105 -1.21267,3.60672 0.25507,0.61249 0.38586,1.36627 0.29068,1.67507 -0.0952,0.30882 -1.07692,1.60545 -2.18156,2.88146 -4.50512,5.20404 -4.40859,5.02478 -3.68801,6.84918 0.34095,0.86326 0.46848,1.00943 0.67874,0.77787 0.14235,-0.15683 1.88179,-2.14728 3.86531,-4.42327 z m -9.79187,6.81353 c 0.41113,-0.63289 0.44212,-0.99755 0.16811,-1.96553 -0.5754,-2.03285 0.73141,-4.39469 2.90899,-5.2575 0.81196,-0.32173 1.02511,-0.52207 1.38516,-1.30195 0.66502,-1.44048 0.37324,-2.40002 -1.34244,-4.41459 -1.82785,-2.14631 -3.77988,-5.59056 -4.52925,-7.99166 -0.69991,-2.24259 -0.69926,-2.63259 0.004,-2.55859 0.64462,0.0679 0.8008,0.37015 1.35293,2.61932 0.45036,1.83455 2.18218,5.35918 2.535,5.15925 0.2983,-0.16902 0.4677,-2.44512 0.28986,-3.89458 -0.22024,-1.79158 -1.52162,-4.58153 -2.79097,-5.98135 -2.44224,-2.69324 -6.60758,-4.01278 -10.94074,-3.46596 -3.7319,0.47098 -5.11937,0.96562 -9.268812,3.30434 -3.085653,1.73915 -3.838155,2.24795 -5.131462,3.46951 -4.435484,4.18945 -6.361505,8.70612 -5.551819,13.01941 0.375578,2.00077 1.997119,4.73334 3.631901,6.1204 1.417784,1.20292 3.618148,2.54766 4.145967,2.53379 0.627539,-0.0165 -3.62963,-5.98224 -5.304044,-7.43273 -0.200905,-0.17404 -0.19177,-0.33856 0.02559,-0.46114 0.440474,-0.2484 2.052798,0.97794 3.469032,2.63853 1.258708,1.47593 2.611223,4.21239 3.107988,6.2882 0.177647,0.74223 0.606819,1.86139 0.953798,2.48703 0.570645,1.02898 0.734716,1.15788 1.718908,1.35056 0.981709,0.19221 1.266806,0.12848 2.917213,-0.65213 1.00603,-0.47583 2.19439,-0.9004 2.64078,-0.94351 1.04363,-0.10072 2.40313,0.52937 2.84935,1.32066 0.92493,1.64022 1.92284,1.46254 6.6309,-1.18063 3.18622,-1.78879 3.67969,-2.12494 4.1238,-2.8091 z m -8.5353,1.05968 c -0.11144,-0.19769 -0.4125,-1.82069 -0.66895,-3.60668 -0.48161,-3.35418 -0.37521,-3.83698 0.73872,-3.35242 0.60218,0.26205 4.65079,3.71116 4.92332,4.19445 0.21616,0.38332 -1.01763,1.05497 -1.69275,0.92152 -0.41384,-0.0818 -0.77959,-0.55266 -1.70692,-2.197 -0.8668,-1.53713 -1.29553,-2.10502 -1.61452,-2.13859 -0.60261,-0.0634 -0.314,0.83122 1.0464,3.24365 l 1.07851,1.91255 -0.65942,0.37185 c -0.36269,0.20452 -0.79043,0.51546 -0.95056,0.69098 -0.20108,0.22032 -0.35388,0.20788 -0.49383,-0.0403 z m -7.20633,-0.86723 c -0.30535,0.0553 -1.059276,-0.0334 -1.675422,-0.19722 -2.890445,-0.76857 -4.186735,-3.06393 -2.805974,-4.9686 0.482671,-0.66587 4.985626,-3.78283 5.665346,-3.92161 0.71138,-0.14527 1.61744,0.55886 2.31818,1.80147 0.59162,1.04915 0.63538,0.85824 -1.09653,4.78467 -0.81129,1.83933 -1.24611,2.29077 -2.4056,2.50129 z m 13.14499,-7.60002 c -1.77772,-0.0307 -5.09272,-0.6259 -5.56221,-0.99866 -0.49726,-0.39485 -1.31066,-2.30371 -1.24228,-2.91555 0.0732,-0.65521 0.93933,-1.23254 3.52733,-2.35122 3.00801,-1.30021 3.52552,-1.39837 4.63236,-0.87865 1.52884,0.71784 2.01713,2.64111 1.24327,4.89668 -0.572,1.66725 -1.26931,2.27037 -2.59847,2.2474 z"
       id="path858"
       inkscape:connector-curvature="0" /><path
       style="fill:#000000;stroke-width:0.24016921"
       d="m 270.228,643.675 c -0.63015,0.0689 -1.37205,-0.10366 -2.07118,-0.48176 -1.97255,-1.06675 -3.60213,-1.15184 -7.0092,-0.36594 -1.90493,0.4394 -2.25112,0.66259 -3.31739,2.13872 -1.464,2.02673 -2.96224,3.32416 -5.4884,4.75281 -2.4749,1.39966 -5.10226,2.24004 -7.33924,2.34752 -1.42798,0.0686 -2.21276,0.48206 -3.57127,1.88146 -2.27541,2.34388 -3.22958,4.04777 -3.21057,5.73317 0.006,0.59378 -0.10641,1.36109 -0.25135,1.70512 -0.36554,0.86775 -1.91256,1.91016 -2.98899,2.0141 -1.017,0.0982 -2.36556,-0.65834 -2.60946,-1.46391 -0.20756,-0.68543 -0.69515,-0.98463 -2.25646,-1.38456 -1.50064,-0.38442 -2.271,-1.54696 -1.90021,-2.86758 0.26097,-0.92949 0.71318,-1.23529 4.06465,-2.74852 1.0116,-0.45674 1.9489,-1.03041 2.53787,-1.5533 1.34447,-1.19358 3.42965,-3.83874 3.77514,-4.78899 0.25358,-0.69743 0.22238,-0.8614 -0.21732,-1.14246 -0.68103,-0.43561 -1.72866,-0.34373 -7.33082,0.64156 l -4.72349,0.83075 -2.11113,1.36729 c -2.48993,1.61266 -3.35587,1.80972 -4.5966,1.04614 -1.35417,-0.83348 -1.52033,-2.6486 -0.36403,-3.97717 0.49853,-0.57278 0.49439,-0.6344 -0.0763,-1.12839 -1.29206,-1.1184 -0.83751,-3.72926 0.81159,-4.6617 1.64911,-0.93247 3.74777,-0.59285 4.49456,0.72733 0.81147,1.4346 1.45854,1.59207 4.53953,1.10473 l 2.84655,-0.45024 -1.00649,-0.58136 c -0.82875,-0.47866 -1.19429,-0.90731 -2.07001,-2.42718 -1.12551,-1.95336 -1.57313,-2.38452 -3.36993,-3.2459 -1.95322,-0.93637 -3.27046,-2.14044 -4.60556,-4.20976 -1.56084,-2.41923 -2.06308,-4.05759 -2.05181,-6.69337 0.0176,-4.11807 2.08235,-8.02701 6.26897,-11.86828 2.36697,-2.17172 7.41489,-4.96762 10.79455,-5.97879 3.79561,-1.13561 6.39431,-1.34719 9.36757,-0.76271 2.89912,0.56992 4.36238,1.29112 6.18356,3.04771 3.00261,2.89613 4.10487,6.52713 3.3592,11.06574 -0.14254,0.86752 -0.10782,1.48765 0.0909,1.62464 0.17666,0.12211 0.71326,0.8047 1.19214,1.51744 0.78337,1.16594 0.86712,1.44736 0.83527,2.80681 l -0.0354,1.51094 0.70514,-0.562 c 2.01893,-1.60902 3.28984,-4.10353 2.8139,-5.52303 -0.41789,-1.24627 -0.41625,-2.05963 0.006,-2.9742 0.51775,-1.12135 1.1301,-1.64027 2.2586,-1.91379 1.48541,-0.36004 2.61348,0.10007 3.32087,1.35447 0.56173,0.99614 0.68174,1.07321 2.06568,1.3266 0.97501,0.17852 1.65117,0.47267 2.00991,0.87437 0.75672,0.84741 0.72695,2.17741 -0.0713,3.18274 -0.55395,0.69769 -0.81555,0.85817 -2.27746,1.397 -0.94442,0.34809 -1.99338,0.88029 -2.44973,1.24292 -1.1428,0.90809 -6.85938,7.51785 -7.41494,8.57349 -0.58454,1.11069 -0.1915,2.02189 0.87132,2.02002 0.8329,-9.9e-4 5.66214,-0.91682 7.14873,-1.355 0.89672,-0.26433 1.16623,-0.45078 1.86789,-1.29244 1.52709,-1.83174 3.26478,-2.27078 4.49404,-1.13549 0.75353,0.69596 0.89935,1.31185 0.61202,2.58499 -0.34388,1.52365 -0.32095,2.09201 0.11564,2.86622 0.54865,0.97293 0.45903,2.02687 -0.24807,2.91749 -0.76151,0.95911 -1.19875,1.20029 -2.4177,1.33357 z m 1.65954,-2.61904 c 0.13805,-0.7962 -0.1258,-1.20105 -1.17413,-1.80193 -0.48408,-0.2774 -0.90039,-0.5403 -0.92508,-0.58426 -0.0247,-0.0439 0.30669,-0.3474 0.73648,-0.67448 1.4691,-1.11794 1.73589,-2.40017 0.66519,-3.19706 -0.7219,-0.53731 -1.67888,-0.16054 -2.60459,1.02543 -0.41878,0.53648 -1.05037,1.13842 -1.40356,1.33761 -0.3532,0.19917 -2.32387,0.67901 -4.37924,1.06634 -2.05538,0.3873 -3.80618,0.74281 -3.89064,0.79002 -0.15126,0.0845 0.0317,2.60293 0.2125,2.92343 0.0511,0.0906 1.0928,-0.0229 2.31494,-0.25201 4.98115,-0.9339 5.98913,-0.8912 7.27168,0.30801 1.05779,0.98904 2.93841,0.43184 3.17648,-0.94116 z m -35.03765,19.94135 c 0.0728,-0.26959 0.0592,-0.97634 -0.0302,-1.57054 -0.20046,-1.33257 0.17029,-1.99436 2.86055,-5.10638 1.11293,-1.28743 2.07196,-2.45933 2.13115,-2.60422 0.13516,-0.33078 -1.68231,-1.84796 -2.11171,-1.76284 -0.17451,0.0346 -1.53358,1.38353 -3.02018,2.99766 -1.4866,1.61411 -2.89001,3.03772 -3.11866,3.16357 -0.22867,0.1258 -0.9562,0.30641 -1.6168,0.40121 -0.66058,0.0948 -1.43841,0.30622 -1.72849,0.46979 -0.59775,0.33708 -0.8613,1.3501 -0.51165,1.96974 0.32903,0.58342 1.77259,0.80838 2.78545,0.43401 0.93165,-0.34435 1.1283,-0.18995 1.05222,0.82598 -0.0674,0.89969 0.44735,1.77567 1.14588,1.95018 0.71587,0.17879 1.98368,-0.50608 2.16242,-1.16814 z m 19.15541,-15.46463 c 1.24328,-1.50027 1.84608,-3.47057 1.5363,-5.02185 -0.13416,-0.6722 -0.8009,-2.45887 -1.48153,-3.97039 -0.68064,-1.51154 -1.36611,-3.34856 -1.5233,-4.08227 -0.15719,-0.73372 -0.34343,-1.34544 -0.4139,-1.35937 -0.0705,-0.014 -0.24248,0.18529 -0.38228,0.44268 -0.38415,0.70798 0.0586,3.03773 1.0173,5.35035 0.98821,2.3838 0.9681,3.023 -0.14077,4.47805 -2.0487,2.68819 -8.1136,6.03464 -11.20711,6.18379 -1.60434,0.0773 -2.24418,-0.33643 -3.58189,-2.31636 -1.34602,-1.99218 -3.40092,-3.86733 -4.08863,-3.73099 -0.67382,0.13357 -0.59623,0.2852 0.666,1.30152 0.8544,0.68797 1.68618,1.71159 2.9682,3.65274 2.1508,3.25662 2.722,3.81096 4.34655,4.21821 2.50129,0.62704 4.15642,0.18546 8.22351,-2.19403 2.72321,-1.59323 3.25689,-1.98114 4.06154,-2.9521 z m -1.78539,-8.06717 c -0.36305,-0.6459 -0.86813,-2.02158 -1.12235,-3.0571 -0.47284,-1.92598 -0.71451,-2.29956 -0.97329,-1.50443 -0.28374,0.87188 0.0747,2.14318 1.26924,4.50199 1.10461,2.18117 1.21851,2.33414 1.34662,1.80831 0.0919,-0.3772 -0.0867,-0.97764 -0.52022,-1.74877 z m -13.38735,6.52951 c -1.42322,-2.19182 -2.30333,-3.02275 -3.31158,-3.12652 -0.53227,-0.0548 -0.54488,-0.0291 -0.17291,0.35275 2.21723,2.2756 2.70413,2.82937 3.10367,3.52993 0.47366,0.8305 1.34326,1.62034 1.61518,1.467 0.0842,-0.0476 -0.47123,-1.04793 -1.23437,-2.22317 z m -3.43096,1.67575 c -0.0271,-0.048 -0.39788,-0.45513 -0.82401,-0.90468 -1.05351,-1.11146 -1.94206,-1.19872 -5.65802,-0.55547 -6.05035,1.04729 -6.27393,1.02145 -7.32752,-0.84691 -0.4452,-0.78949 -0.72097,-1.01933 -1.37919,-1.14942 -1.65086,-0.3263 -3.21888,1.44573 -2.46393,2.78452 0.18087,0.32072 0.86638,0.82336 1.52339,1.11702 0.65697,0.29369 1.23869,0.61214 1.29285,0.7074 0.055,0.0975 -0.43436,0.39662 -1.11329,0.68058 -1.59432,0.66679 -2.13713,1.47745 -1.61237,2.40804 0.22217,0.39397 0.61066,0.67989 1.00218,0.73755 0.65442,0.0964 0.9574,-0.0737 3.85221,-2.16376 0.86522,-0.62468 1.46606,-0.76828 6.56131,-1.56812 5.25298,-0.82459 6.2687,-1.03068 6.1466,-1.24721 z m 23.34537,-15.34655 c 3.90463,-4.4804 3.61315,-4.24924 7.11831,-5.64546 1.01738,-0.40527 1.52386,-1.27313 1.29013,-2.21084 -0.11735,-0.47084 -0.34754,-0.64314 -1.04287,-0.78056 -0.90253,-0.1784 -1.10338,-0.0831 -2.41522,1.14599 -0.59886,0.56111 -0.75209,0.19736 -0.56517,-1.34179 0.0839,-0.69141 0.10984,-1.49705 0.0575,-1.7903 -0.13948,-0.7811 -1.15949,-1.12688 -2.19515,-0.74408 -1.86993,0.69112 -2.11871,1.43105 -1.21267,3.60672 0.25507,0.61249 0.38586,1.36627 0.29068,1.67507 -0.0952,0.30882 -1.07692,1.60545 -2.18156,2.88146 -4.50512,5.20404 -4.40859,5.02478 -3.68801,6.84918 0.34095,0.86326 0.46848,1.00943 0.67874,0.77787 0.14235,-0.15683 1.88179,-2.14728 3.86531,-4.42327 z m -9.79187,6.81353 c 0.41113,-0.63289 0.44212,-0.99755 0.16811,-1.96553 -0.5754,-2.03285 0.73141,-4.39469 2.90899,-5.2575 0.81196,-0.32173 1.02511,-0.52207 1.38516,-1.30195 0.66502,-1.44048 0.37324,-2.40002 -1.34244,-4.41459 -1.82785,-2.14631 -3.77988,-5.59056 -4.52925,-7.99166 -0.69991,-2.24259 -0.69926,-2.63259 0.004,-2.55859 0.64462,0.0679 0.8008,0.37015 1.35293,2.61932 0.45036,1.83455 2.18218,5.35918 2.535,5.15925 0.2983,-0.16902 0.4677,-2.44512 0.28986,-3.89458 -0.22024,-1.79158 -1.52162,-4.58153 -2.79097,-5.98135 -2.44224,-2.69324 -6.60758,-4.01278 -10.94074,-3.46596 -3.7319,0.47098 -5.11937,0.96562 -9.26881,3.30434 -3.08566,1.73915 -3.83816,2.24795 -5.13147,3.46951 -4.43548,4.18945 -6.3615,8.70612 -5.55182,13.01941 0.37558,2.00077 1.99712,4.73334 3.63191,6.1204 1.41778,1.20292 3.61814,2.54766 4.14596,2.53379 0.62754,-0.0165 -3.62963,-5.98224 -5.30404,-7.43273 -0.20091,-0.17404 -0.19177,-0.33856 0.0256,-0.46114 0.44047,-0.2484 2.0528,0.97794 3.46903,2.63853 1.25871,1.47593 2.61122,4.21239 3.10799,6.2882 0.17765,0.74223 0.60682,1.86139 0.9538,2.48703 0.57064,1.02898 0.73471,1.15788 1.7189,1.35056 0.98171,0.19221 1.26681,0.12848 2.91722,-0.65213 1.00603,-0.47583 2.19439,-0.9004 2.64078,-0.94351 1.04363,-0.10072 2.40313,0.52937 2.84935,1.32066 0.92493,1.64022 1.92284,1.46254 6.6309,-1.18063 3.18622,-1.78879 3.67969,-2.12494 4.1238,-2.8091 z m -8.5353,1.05968 c -0.11144,-0.19769 -0.4125,-1.82069 -0.66895,-3.60668 -0.48161,-3.35418 -0.37521,-3.83698 0.73872,-3.35242 0.60218,0.26205 4.65079,3.71116 4.92332,4.19445 0.21616,0.38332 -1.01763,1.05497 -1.69275,0.92152 -0.41384,-0.0818 -0.77959,-0.55266 -1.70692,-2.197 -0.8668,-1.53713 -1.29553,-2.10502 -1.61452,-2.13859 -0.60261,-0.0634 -0.314,0.83122 1.0464,3.24365 l 1.07851,1.91255 -0.65942,0.37185 c -0.36269,0.20452 -0.79043,0.51546 -0.95056,0.69098 -0.20108,0.22032 -0.35388,0.20788 -0.49383,-0.0403 z m -7.20633,-0.86723 c -0.30535,0.0553 -1.05928,-0.0334 -1.67542,-0.19722 -2.89045,-0.76857 -4.18674,-3.06393 -2.80598,-4.9686 0.48267,-0.66587 4.98563,-3.78283 5.66535,-3.92161 0.71138,-0.14527 1.61744,0.55886 2.31818,1.80147 0.59162,1.04915 0.63538,0.85824 -1.09653,4.78467 -0.81129,1.83933 -1.24611,2.29077 -2.4056,2.50129 z m 13.14499,-7.60002 c -1.77772,-0.0307 -5.09272,-0.6259 -5.56221,-0.99866 -0.49726,-0.39485 -1.31066,-2.30371 -1.24228,-2.91555 0.0732,-0.65521 0.93933,-1.23254 3.52733,-2.35122 3.00801,-1.30021 3.52552,-1.39837 4.63236,-0.87865 1.52884,0.71784 2.01713,2.64111 1.24327,4.89668 -0.572,1.66725 -1.26931,2.27037 -2.59847,2.2474 z"
       id="path858-2"
       inkscape:connector-curvature="0" /></g></svg>