<?xml version="1.0" encoding="UTF-8" standalone="no"?>
<!-- Created with Inkscape (http://www.inkscape.org/) -->

<svg
   xmlns:dc="http://purl.org/dc/elements/1.1/"
   xmlns:cc="http://creativecommons.org/ns#"
   xmlns:rdf="http://www.w3.org/1999/02/22-rdf-syntax-ns#"
   xmlns:svg="http://www.w3.org/2000/svg"
   xmlns="http://www.w3.org/2000/svg"
   xmlns:sodipodi="http://sodipodi.sourceforge.net/DTD/sodipodi-0.dtd"
   xmlns:inkscape="http://www.inkscape.org/namespaces/inkscape"
   width="430.54434"
   height="325.29514"
   id="svg2"
   version="1.1"
   inkscape:version="0.92.2 (5c3e80d, 2017-08-06)"
   sodipodi:docname="treasureWall.svg">
  <defs
     id="defs4">
    <inkscape:perspective
       sodipodi:type="inkscape:persp3d"
       inkscape:vp_x="0 : 526.18109 : 1"
       inkscape:vp_y="0 : 1000 : 0"
       inkscape:vp_z="744.09448 : 526.18109 : 1"
       inkscape:persp3d-origin="372.04724 : 350.78739 : 1"
       id="perspective2985" />
  </defs>
  <sodipodi:namedview
     id="base"
     pagecolor="#ffffff"
     bordercolor="#666666"
     borderopacity="1.0"
     inkscape:pageopacity="0.0"
     inkscape:pageshadow="2"
     inkscape:zoom="1.979899"
     inkscape:cx="170.12132"
     inkscape:cy="150.5455"
     inkscape:document-units="mm"
     inkscape:current-layer="layer1"
     showgrid="false"
     inkscape:object-nodes="true"
     inkscape:window-width="1366"
     inkscape:window-height="768"
     inkscape:window-x="4"
     inkscape:window-y="44"
     inkscape:window-maximized="1"
     showguides="true"
     inkscape:guide-bbox="true"
     units="mm"
     fit-margin-top="0"
     fit-margin-left="0"
     fit-margin-right="0"
     fit-margin-bottom="0" />
  <metadata
     id="metadata7">
    <rdf:RDF>
      <cc:Work
         rdf:about="">
        <dc:format>image/svg+xml</dc:format>
        <dc:type
           rdf:resource="http://purl.org/dc/dcmitype/StillImage" />
        <dc:title />
      </cc:Work>
    </rdf:RDF>
  </metadata>
  <g
     inkscape:label="Layer 1"
     inkscape:groupmode="layer"
     id="layer1"
     transform="translate(-53.643411,-569.625)">
    <path
       inkscape:connector-curvature="0"
       id="path3910"
       d="m 268.90809,570.13899 9.31999,5.5358 -9.3125,5.5625 -0.007,-0.005 -205.437503,122.59375 h -0.0312 l -9.2813,-5.5625 z"
       style="fill:#d7d7f4;fill-opacity:1;stroke:#000000;stroke-width:1px;stroke-linecap:round;stroke-linejoin:round;stroke-opacity:1"
       sodipodi:nodetypes="cccccccc" />
    <path
       inkscape:connector-curvature="0"
       id="path3914"
       d="m 278.22808,575.67479 v 68 L 63.454937,771.83164 v -68 z"
       style="fill:#b3b3b3;fill-opacity:1;stroke:#000000;stroke-width:1px;stroke-linecap:round;stroke-linejoin:round;stroke-opacity:1"
       sodipodi:nodetypes="ccccc" />
    <path
       inkscape:connector-curvature="0"
       id="path3916"
       d="m 54.143677,698.27581 v 68 l 9.31126,5.55583 v -68 z"
       style="fill:#f2f2f2;fill-opacity:1;stroke:#000000;stroke-width:1px;stroke-linecap:round;stroke-linejoin:round;stroke-opacity:1" />
    <path
       style="fill:#ffff00"
       id="path503"
       d="m 182.67224,667.1769 c -0.51691,1.89987 -1.03036,3.78954 -1.73878,5.62944 -0.68156,1.59349 -1.52246,3.19531 -2.77287,4.41654 -2.87997,2.11566 -6.03641,3.76921 -9.51482,4.45772 -1.59116,0.28016 -3.21415,0.38333 -4.82616,0.28196 -1.70861,-0.26787 -2.70275,-1.14006 -3.55503,-2.59076 -0.69271,-1.45208 -0.71515,-3.10169 -0.66221,-4.6792 -0.0206,-1.7789 -0.12946,-3.5436 0.33057,-5.27636 0.10618,-0.21987 0.18682,-0.45402 0.31854,-0.65962 0.22432,-0.35013 0.80187,-1.00208 1.15869,-1.22038 3.40518,-2.08324 4.53238,-3.20669 7.60474,-3.85665 2.03235,-0.35816 4.11208,-0.25643 6.16896,-0.29797 0.95396,0.0723 1.94634,-0.15779 2.89329,0.0506 0.92099,0.20267 1.80321,0.69378 2.59897,1.17412 1.5833,1.04646 2.56358,2.34624 3.0438,4.17193 0.35549,1.70719 0.47386,3.46633 0.26864,5.19771 -0.25333,1.35946 -0.72764,2.74132 -1.99159,3.49171 -1.97566,1.17292 -3.99595,2.26899 -5.99392,3.40348 -3.161,1.13106 -6.59187,1.11001 -9.90782,1.31998 -1.91674,0.0944 -4.88161,0.33435 -6.67348,-0.56696 -0.26965,-0.13563 -0.48741,-0.35617 -0.73112,-0.53425 -1.29307,-1.26705 -1.53444,-3.15235 -1.32345,-4.87689 0.42903,-1.80577 1.59629,-3.07176 3.0552,-4.13117 3.30326,-2.24493 6.67147,-4.30479 10.60391,-4.99077 1.33739,-0.1084 2.81096,-0.47098 4.07575,0.17711 0.22819,0.11693 0.42342,0.28927 0.63512,0.4339 1.38823,1.34198 1.47927,3.24395 1.6505,5.05129 0.22892,1.5894 0.0649,3.08866 -0.79636,4.45305 -1.68096,2.01946 -4.37308,2.89296 -6.63493,4.08917 -0.62497,0.33052 -1.26923,0.0994 -1.82987,-0.18025 -1.23791,-1.22343 -1.27048,-2.98105 -1.39438,-4.60916 -0.0516,-1.93563 0.9567,-3.51333 2.07117,-5.00311 2.41038,-2.7438 5.84662,-4.63715 9.46501,-5.01854 1.03719,0.005 2.29604,-0.26581 3.26329,0.25775 0.48422,0.26209 0.63342,0.54975 0.9505,0.96886 0.8396,1.45639 0.46831,2.98836 -0.31811,4.36797 -1.94879,2.15528 -4.85746,3.30132 -7.3509,4.60086 -0.75943,0.39581 -2.13825,0.50564 -2.98791,0.67516 -2.19598,0.29761 -4.40078,0.48657 -6.61513,0.54993 -2.21889,-0.0275 -3.13344,-0.50135 -3.82195,-2.62037 -0.48122,-1.63368 -0.25763,-3.20537 0.33256,-4.76662 0.1833,-0.25693 0.3462,-0.52972 0.5499,-0.77081 0.23903,-0.2829 1.02335,-1.03521 1.35879,-1.23829 3.27995,-1.9857 4.53773,-3.19961 7.55771,-3.85365 1.49212,-0.2883 3.06956,-0.41537 4.41399,0.44337 0.29682,0.1896 0.54898,0.44138 0.82347,0.66207 0.26599,0.26888 0.56984,0.50497 0.79798,0.80664 1.35359,1.78983 2.31854,4.65141 2.95912,6.79545 0.55113,2.18123 0.87638,4.41154 0.49078,6.63999 -1.05994,3.61713 -4.8694,5.18423 -8.29381,6.34401 -1.5589,0.30392 -3.25783,0.86375 -4.86966,0.59646 -0.34299,-0.0569 -0.66651,-0.19818 -0.99976,-0.29727 -2.76666,-1.44921 -3.29155,-2.8712 -4.2663,-5.70714 -0.1052,-0.48304 -0.24606,-0.95966 -0.31558,-1.4491 -0.0847,-0.59665 -0.0981,-1.20128 -0.14622,-1.80199 -0.18106,-2.26106 -0.32334,-4.47757 -0.25911,-6.74649 0.20526,-2.96276 1.23824,-4.84413 3.2797,-6.91642 2.82114,-1.97626 5.78771,-4.25493 9.23361,-4.8648 1.24368,-0.22011 1.5563,-0.11174 2.80184,-0.006 3.1867,0.59136 5.45479,2.71755 7.46422,5.11279 1.41027,1.67374 2.32639,3.72537 2.45079,5.93438 0.0281,0.49937 -0.0257,1 -0.0385,1.5 -0.57196,3.91483 -1.76452,5.36699 -4.90729,7.61088 -5.5029,3.57954 -8.72203,4.84928 -14.87807,5.66708 -2.6833,0.28999 -5.43345,0.62249 -8.1115,0.0772 -0.44311,-0.0902 -0.87044,-0.24557 -1.30565,-0.36835 -2.66966,-1.11656 -3.21943,-2.69458 -3.68966,-5.365 -0.0888,-1.52543 -0.40926,-3.11916 -0.19208,-4.65025 0.15251,-1.07517 0.45162,-1.79272 0.80003,-2.81748 0.53091,-1.08516 0.81048,-1.78302 1.52125,-2.75613 2.14845,-2.94149 6.99301,-4.84221 9.79338,-6.32666 3.11222,-1.26872 6.42008,-1.82878 9.74641,-2.14572 0.48895,0.0118 0.99585,-0.0965 1.46685,0.0353 0.54407,0.15225 1.01449,0.50083 1.49734,0.79417 2.11112,1.28253 3.65412,3.03087 5.20669,4.91432 1.89134,2.61122 2.64274,5.42282 3.16144,8.53896 0.12635,1.49154 0.45363,3.18462 -0.12689,4.6345 -0.33976,0.84857 -0.82198,1.27565 -1.41234,1.93917 -4.54361,3.74887 -7.37791,4.56871 -12.54046,4.86089 -1.95929,-0.0406 -3.96198,0.36096 -5.89982,-0.0728 -1.1065,-0.24768 -1.57461,-0.52617 -2.59934,-0.99384 -0.39259,-0.23782 -0.84346,-0.39895 -1.17775,-0.71348 -2.16565,-2.03764 -2.93769,-6.34252 -3.46847,-9.13022 -0.22494,-1.87365 -0.6284,-3.76707 -0.5969,-5.66518 0.0258,-1.55436 0.413,-3.00356 0.87201,-4.47159 0.48456,-1.07437 0.4857,-1.26441 1.23221,-2.18195 0.4183,-0.51414 1.16377,-1.2351 1.74072,-1.58484 5.16146,-3.12883 4.07235,-2.58521 7.08546,-3.96858 3.11569,-1.2466 4.20605,-1.01047 6.89744,0.92469 2.55417,2.11739 4.40846,4.84337 6.06043,7.68329 0.21676,0.42985 0.47761,0.84019 0.65029,1.28957 0.61547,1.6017 1.11263,4.34763 1.17743,6.06953 0.0186,0.4954 -0.0416,0.99062 -0.0625,1.48594 -0.23372,2.87337 -1.83983,5.08444 -3.86777,6.99918 -2.66065,1.99763 -1.37545,1.09188 -6.90503,4.17063 -0.71065,0.39567 -1.7456,0.74652 -2.5306,0.92975 -0.82364,0.19225 -2.23991,0.36296 -3.06696,0.47486 -2.04874,0.0984 -4.26812,0.67524 -6.3241,0.40596 -0.31364,-0.0411 -0.61521,-0.14747 -0.92281,-0.22121 -2.14656,-1.20335 -2.28563,-3.64156 -2.47464,-5.84907 -0.35386,-3.53679 0.64926,-6.9432 2.26355,-10.0501 1.04518,-1.7508 2.5764,-3.01484 4.3396,-3.99661 6.08735,-3.3895 3.90418,-2.59272 7.32779,-3.70138 1.70838,-0.35094 4.36878,-1.14565 6.04726,-0.46056 0.43747,0.17856 0.8148,0.47868 1.2222,0.71802 2.7988,2.3475 4.32816,5.65876 5.52708,9.02591 0.59368,2.30441 1.31664,4.85144 0.93006,7.26196 -0.068,0.42392 -0.21596,0.83107 -0.32395,1.2466 -0.52589,1.44509 -1.62063,2.29761 -2.92891,3.02484 -4.75922,2.64549 -5.0042,3.13169 -9.02423,4.03869 -1.71362,0.16667 -3.49811,0.66104 -5.2346,0.439 -0.95908,-0.12263 -1.40366,-0.3981 -2.27035,-0.78602 -1.2823,-0.86213 -2.69565,-1.97043 -3.35003,-3.42973 -0.41152,-0.91772 -0.53352,-1.97987 -0.70704,-2.95258 -0.24449,-1.96615 -0.56651,-3.94598 -0.59981,-5.93231 -0.0156,-0.93139 0.068,-1.79374 0.13635,-2.71925 0.38567,-2.64691 1.76965,-4.87032 3.37557,-6.93991 0.25148,-0.27716 0.47484,-0.58271 0.75444,-0.83147 0.31277,-0.27827 0.65246,-0.52984 1.01362,-0.74156 4.17443,-2.44725 5.29478,-3.51041 9.24232,-4.09892 1.92209,-0.28763 3.84419,0.0533 5.494,1.1196 0.39701,0.2566 0.74761,0.57873 1.12141,0.86809 1.26265,1.03422 2.30636,2.29041 3.33286,3.54945 0.31644,0.38813 0.66417,0.75432 0.93753,1.1739 0.56928,0.87376 0.87904,1.77053 1.26564,2.72757 0.5134,1.45644 1.12294,3.16975 0.3614,4.66788 -0.46953,0.92367 -0.97754,1.20761 -1.75998,1.86876 -1.99311,1.1453 -3.9492,2.35762 -5.97935,3.43592 -1.80479,0.9586 -5.60502,1.19341 -7.66695,1.31714 -2.92566,0.12939 -5.85816,0.0156 -8.58926,-1.1526 -0.51568,-0.22058 -0.99606,-0.51593 -1.49409,-0.7739 -2.96706,-2.10656 -4.67312,-5.23945 -5.85803,-8.59577 -0.98178,-2.85415 -1.17971,-5.85315 -1.19738,-8.84586 0.0354,-0.39634 0.0233,-0.79981 0.10606,-1.18902 0.7951,-3.73855 5.22827,-5.17935 8.00764,-6.80257 1.52184,-0.49765 3.25938,-0.80629 4.82953,-0.30536 0.38664,0.12335 0.74333,0.32603 1.11499,0.48905 2.73877,2.15676 4.76198,4.92185 6.33416,8.00326 0.68579,1.91615 1.36895,3.90597 1.43063,5.96342 0.0335,1.11604 -0.0833,1.53591 -0.25564,2.60905 -0.91228,2.81075 -3.19702,4.76972 -5.48876,6.4867 -1.70441,0.78305 -6.45912,4.67776 -9.527,4.25245 -0.29254,-0.0405 -0.56256,-0.18004 -0.84383,-0.27007 -0.24909,-0.22183 -0.54674,-0.39896 -0.74727,-0.6655 -1.2337,-1.63988 -1.48275,-4.35422 -1.7992,-6.32202 -0.0611,-1.71585 -0.21626,-3.72659 0.71063,-5.2747 0.15556,-0.25982 0.36525,-0.48313 0.54788,-0.7247 2.98166,-2.95687 6.70875,-4.69711 10.79457,-4.53075 2.55536,0.78928 3.37877,2.74356 4.39892,4.9905 0.65468,1.85014 1.08133,3.50999 0.49372,5.42311 -1.25634,2.40583 -3.83133,2.81549 -6.381,4.31197 0,0 4.84003,-3.90553 4.84003,-3.90553 v 0 c -9.15851,5.43023 -5.41843,3.66995 -3.9868,2.13813 0.90703,-1.65399 0.6611,-3.42946 0.0246,-5.15442 -0.79326,-1.973 -1.79473,-3.97789 -4.06876,-4.41999 -1.11408,-0.002 -2.16563,0.0986 -3.23547,0.44527 -0.33808,0.10954 -1.286,0.59435 -0.98785,0.40097 7.81658,-5.0699 5.0286,-3.08039 3.5663,-2.01957 -0.37195,0.4059 -0.80498,0.82574 -1.06444,1.32199 -0.69401,1.32737 -0.7247,2.9318 -0.68489,4.38575 0.17852,1.82455 0.42123,4.4257 1.83198,5.77811 0.19304,0.18506 0.45308,0.28417 0.67963,0.42626 0.2369,0.045 0.4698,0.12424 0.7107,0.13488 2.26821,0.10016 7.40874,-3.27037 -0.5009,1.33951 2.34403,-1.56404 4.64354,-3.35215 5.64133,-6.09172 0.26904,-1.05051 0.42503,-1.41821 0.44903,-2.52918 0.0433,-2.00475 -0.50659,-4.00465 -1.1808,-5.86892 -1.41493,-3.06164 -3.3025,-5.90528 -6.40815,-7.46159 -0.37778,-0.11224 -0.74739,-0.25693 -1.13333,-0.33673 -1.58913,-0.32854 -3.26168,0.0503 -4.71302,0.70275 8.36602,-4.956 4.12153,-2.8168 2.79282,-1.27735 -0.76165,0.88245 -1.20435,1.89345 -1.37008,3.04678 -0.1239,2.95313 0.14615,5.92766 0.8883,8.79388 1.1143,3.24963 2.68031,6.34016 5.682,8.22778 1.13417,0.56189 1.73866,0.92477 2.96077,1.27841 2.27027,0.65695 4.65953,0.54337 6.98908,0.3904 2.12107,-0.17126 4.24879,-0.34127 6.27879,-1.03419 0.46831,-0.15985 1.77506,-0.85242 1.37359,-0.56312 -1.10659,0.7974 -2.34017,1.40184 -3.51025,2.10277 0.86122,-0.62994 1.84817,-1.30823 2.16215,-2.41127 0.33007,-1.15959 -0.0934,-2.42678 -0.35583,-3.54083 -0.16303,-0.4436 -0.29609,-0.8994 -0.4891,-1.3308 -1.04495,-2.3355 -2.85451,-4.33595 -4.90846,-5.81879 -2.22562,-1.34965 -3.94859,-1.93985 -6.57269,-1.49323 -0.86933,0.15424 -1.2634,0.1943 -2.11034,0.46589 -0.35632,0.11426 -1.35844,0.60878 -1.05019,0.39664 1.21818,-0.83836 2.53392,-1.52529 3.80013,-2.28917 0.3336,-0.20124 -0.69457,0.3623 -1.00225,0.60129 -0.30027,0.23324 -0.53878,0.53664 -0.80817,0.80497 -1.67851,1.97126 -3.17728,4.06478 -3.60412,6.68572 -0.38334,2.84441 -0.23502,5.75317 0.21263,8.58364 0.72463,2.74942 1.51882,4.30128 4.05298,5.76686 0.34259,0.13636 0.67285,0.30911 1.02778,0.40907 1.97192,0.55541 4.1125,0.0415 6.08367,-0.21183 0.45801,-0.10734 0.92134,-0.19411 1.37404,-0.32201 0.48319,-0.13652 1.80682,-0.80341 1.43095,-0.4705 -0.93881,0.8315 -2.14336,1.30522 -3.17633,2.01638 -0.50239,0.34587 1.35157,-0.53072 2.2474,-1.56316 0.25691,-0.29609 0.42268,-0.66033 0.63403,-0.9905 0.29391,-0.93485 0.50094,-1.41504 0.58335,-2.40597 0.1675,-2.01394 -0.31148,-4.03173 -0.70404,-5.98811 -1.00792,-3.40509 -2.49549,-6.4951 -5.55495,-8.51135 -0.40843,-0.17023 -0.79705,-0.39932 -1.22529,-0.5107 -1.73663,-0.45164 -4.09569,0.24413 -5.79742,0.61569 -2.64449,0.93026 -1.23246,0.53362 2.17231,-1.67577 0.40593,-0.26341 -0.85243,0.45951 -1.26358,0.71469 -0.86384,0.53614 -1.64765,1.08606 -2.34523,1.83555 -0.35604,0.38253 -0.64325,0.82376 -0.96488,1.23564 -1.90674,3.14398 -2.8455,5.9607 -2.29408,9.67865 0.33035,1.86026 0.66141,4.05457 2.49203,5.02913 2.1848,0.48494 4.46619,0.1362 6.67186,-0.0309 1.53514,-0.24634 3.0154,-0.5169 4.45809,-1.12358 0.40377,-0.16979 1.55249,-0.80775 1.18206,-0.57401 -0.84378,0.53242 -5.77198,3.44147 -2.61567,1.45503 2.17398,-1.85921 3.68212,-3.75264 4.15782,-6.65942 0.0403,-0.47212 0.12046,-0.94253 0.12085,-1.41637 0.002,-2.47644 -0.67638,-4.94943 -1.67487,-7.1923 -1.53365,-2.94116 -3.26271,-5.44424 -5.99893,-7.40733 -0.40757,-0.2362 -0.79543,-0.51028 -1.22272,-0.70859 -1.86327,-0.86473 -3.67195,-0.4883 -5.47003,0.33479 -1.94338,0.95748 -3.01932,1.52021 2.63891,-1.64743 0.33926,-0.18992 -0.66728,0.40285 -0.97392,0.64188 -0.99391,0.77477 -1.7735,1.74862 -2.3105,2.88733 -0.39662,1.00644 -0.71782,1.71374 -0.95871,2.78295 -0.54685,2.42726 -0.21864,4.91809 0.0685,7.35514 0.62687,3.49791 1.45822,7.31788 4.87247,9.11106 1.126,0.46634 1.33283,0.61811 2.53324,0.85284 1.88013,0.36765 3.82133,0.10408 5.71649,0.0656 1.46186,-0.12853 2.9181,-0.25642 4.33878,-0.65129 0.42412,-0.11789 1.60209,-0.68666 1.25216,-0.4196 -0.8279,0.63182 -5.71983,3.52706 -2.67174,1.61969 0.45339,-0.44161 1.17778,-1.07312 1.48228,-1.65489 0.72029,-1.37615 0.35958,-3.03631 0.34875,-4.50265 -0.24736,-3.00792 -0.90468,-5.95413 -2.6917,-8.45516 -1.73835,-2.17816 -3.7423,-4.63066 -6.66044,-5.17903 -0.44996,-0.0846 -0.91551,-0.0171 -1.37326,-0.0257 -3.26494,0.30417 -6.50048,0.85309 -9.52677,2.18116 0.99445,-0.6447 2.02353,-1.23888 2.98334,-1.93409 0.43934,-0.31823 -0.96489,0.50053 -1.41736,0.79981 -1.7153,1.13453 -2.99846,2.72449 -3.77828,4.62188 -0.14746,0.44124 -0.3273,0.87296 -0.44238,1.32373 -0.48129,1.88539 -0.2416,3.87508 -0.0678,5.78141 0.40692,2.27548 0.99341,3.91915 3.26025,4.89363 0.38799,0.12334 0.76762,0.27697 1.16397,0.37 2.54624,0.59763 5.19256,0.15045 7.76013,-0.008 1.84793,-0.25628 3.66321,-0.54431 5.44918,-1.10567 0.6011,-0.18893 1.19588,-0.40009 1.77961,-0.63732 0.56413,-0.22925 2.14231,-1.13358 1.66081,-0.76081 -0.95462,0.73906 -2.06608,1.24956 -3.09912,1.87434 2.87736,-1.92354 4.47492,-3.4931 4.96834,-7.0665 -0.0677,-2.57715 -0.6214,-5.01868 -2.169,-7.13957 -2.02661,-2.51831 -4.0111,-4.19221 -7.31591,-4.67129 -1.26463,-0.0438 -1.43647,-0.1331 -2.69135,0.16407 -0.44542,0.10547 -1.66673,0.70399 -1.30716,0.42073 1.12319,-0.88482 2.43996,-1.49183 3.64459,-2.2621 0.6283,-0.40175 -2.57708,1.48872 -1.91505,1.15677 -2.12377,1.85813 -3.33798,3.79967 -3.69726,6.65255 -0.37781,3.26528 -0.2107,6.57474 0.73005,9.74094 0.80039,2.28283 1.8171,4.19545 4.20618,5.07468 0.31558,0.0568 0.62712,0.14484 0.94675,0.17056 1.58803,0.12778 3.22388,-0.32775 4.72644,-0.7661 2.08183,-0.92065 2.94934,-1.34852 -3.38291,2.16509 -0.2008,0.11142 0.3421,-0.30666 0.50657,-0.46693 0.55056,-0.53648 0.97011,-1.12058 1.20646,-1.86402 0.72673,-2.14854 0.45908,-4.38034 0.0215,-6.57169 -0.64318,-2.67039 -1.55138,-5.38642 -3.82864,-7.11224 -0.26722,-0.17176 -0.51696,-0.37435 -0.80166,-0.51527 -1.33119,-0.65889 -2.81842,-0.4167 -4.20662,-0.12164 -2.10759,0.62848 -5.18994,2.52065 2.63492,-1.92857 0.25924,-0.1474 -0.50008,0.32644 -0.73458,0.51067 -0.23394,0.18379 -0.45404,0.38517 -0.66835,0.59152 -0.19417,0.18695 -0.37061,0.39148 -0.55592,0.58722 -0.65966,1.41464 -0.92714,2.82804 -0.49669,4.36474 0.60796,1.77512 1.34777,2.0836 3.21936,2.10549 2.19458,-0.0794 4.4033,-0.16457 6.55684,-0.63058 0.53216,-0.11379 1.47329,-0.3024 1.99843,-0.46418 0.31855,-0.0981 1.21599,-0.52965 0.93867,-0.34473 -1.33504,0.89023 -2.75366,1.64824 -4.13018,2.47287 -0.26346,0.15783 0.54169,-0.29308 0.79098,-0.47245 0.22761,-0.16377 0.42267,-0.36858 0.63401,-0.55287 0.8311,-1.12991 1.22208,-2.32211 0.50039,-3.62732 -0.92697,-1.21873 -2.28008,-0.9564 -3.6591,-0.8258 -0.67668,0.11892 -1.03277,0.15217 -1.6791,0.37856 -0.2502,0.0876 -0.95584,0.4538 -0.73089,0.31353 8.21532,-5.12274 4.65603,-3.00449 3.1268,-1.5613 -1.08333,1.39589 -2.17737,2.77388 -2.26775,4.62082 0.10083,1.32597 0.16619,2.98548 1.28515,3.88059 0.50385,0.10995 0.42386,0.14844 0.97928,0.004 0.18927,-0.0493 0.71919,-0.29909 0.55315,-0.19572 -8.5783,5.34047 -5.50544,3.43923 -3.82038,2.16463 1.10077,-1.31636 1.35834,-2.46681 1.23226,-4.18554 -0.13057,-1.59044 -0.29662,-3.3406 -1.56109,-4.46388 -1.42878,-0.78052 -2.78242,-0.5816 -4.34429,-0.32564 -0.8896,0.18104 -1.75916,0.37839 -2.60838,0.70928 -0.33012,0.12863 -1.2729,0.61547 -0.97426,0.42486 1.04965,-0.66997 6.03488,-3.58008 3.2269,-1.8822 -1.43612,0.91614 -2.67598,1.97069 -3.17335,3.67001 -0.39891,1.5312 -0.18591,3.13509 0.9627,4.30025 1.90726,1.32664 4.27353,1.3488 6.52169,1.25114 3.46859,-0.14718 7.03389,-0.35793 10.22581,-1.85661 -9.1301,5.4053 -3.63543,2.48074 -2.74244,1.40404 0.49916,-0.60184 0.68154,-1.3798 0.94995,-2.09334 0.23902,-1.64165 0.0774,-3.33402 -0.19921,-4.96437 -0.48006,-1.61422 -1.27618,-2.91871 -2.7648,-3.80447 -1.77515,-0.98546 -3.21279,-1.11404 -5.22195,-1.03273 -2.06188,-0.0162 -4.13726,0.0207 -6.16015,0.46649 -2.15761,0.63255 -5.2423,2.54942 2.61328,-1.94364 0.22991,-0.1315 -0.44871,0.28492 -0.64974,0.45736 -0.37312,0.32006 -0.62816,0.69457 -0.92265,1.08056 -0.63408,1.666 -0.61712,3.39784 -0.54788,5.16269 0.1199,1.45655 0.096,2.96072 0.68943,4.32633 0.7301,1.31843 1.6865,1.95498 3.20231,2.10551 1.55995,0.0931 3.13214,-0.0865 4.66556,-0.37177 0.81974,-0.20166 1.6068,-0.42929 2.39709,-0.72845 0.25021,-0.0947 0.97289,-0.43717 0.74676,-0.29419 -3.55654,2.24876 -6.36734,3.58435 -3.99264,2.43779 1.46467,-1.01973 2.37838,-2.68082 3.15312,-4.25174 0.66221,-1.70305 1.26737,-3.44075 1.33835,-5.28624 0,0 5.64036,-2.77381 5.64036,-2.77381 z"
       inkscape:connector-curvature="0" />
    <path
       style="fill:#ffff00"
       id="path505"
       d="m 117.6423,680.91175 c 2.42254,-0.12331 4.77121,-0.83266 7.1274,-1.3616 2.58846,-0.62968 5.23837,-0.80518 7.88682,-0.95529 2.39972,-0.0836 3.79237,0.50168 5.82266,1.66824 1.14075,0.62885 2.37353,1.245 3.72283,0.99366 0.30819,-0.0574 1.15963,-0.4621 0.89138,-0.29987 -1.31794,0.79707 -2.70392,1.4758 -4.05588,2.2137 1.96911,-1.51602 3.5885,-3.42202 5.2466,-5.25918 2.79522,-2.32416 6.00171,-4.58683 9.68295,-4.94047 0.52641,-0.20245 1.13925,0.13425 1.66509,-0.044 0.95452,-0.32351 1.79594,-0.94995 2.76771,-1.21726 0.14845,-0.0408 2.66992,0.4875 2.99909,0.53975 0,0 -8.44375,5.92319 -8.44375,5.92319 v 0 c -0.89919,-0.15863 -1.10751,-0.2065 -2.02543,-0.32223 -0.31016,-0.0391 -0.91214,0.21169 -0.93246,-0.10026 -0.0338,-0.5189 0.85245,-0.79447 0.84032,-1.31432 -10e-4,-0.0516 -1.65772,0.13012 -1.68706,0.13312 -0.63916,0.10977 -0.84889,0.12201 -1.46075,0.31831 -0.22803,0.0731 -0.87461,0.38129 -0.67239,0.25303 8.0957,-5.13502 4.3216,-2.59367 2.5677,-1.44109 -1.75799,1.77053 -3.36696,3.68515 -5.19577,5.38701 -0.64888,0.37433 -4.5545,3.4792 -6.96761,3.6232 -1.3735,0.082 -2.62771,-0.68262 -3.80066,-1.27122 -1.8391,-0.9267 -3.48798,-1.57148 -5.59608,-1.44984 -2.52432,0.057 -5.04439,0.29094 -7.51996,0.80419 -2.68699,0.58353 -5.3188,1.40839 -8.02791,1.87192 0,0 5.16516,-3.75271 5.16516,-3.75271 z"
       inkscape:connector-curvature="0" />
    <path
       style="fill:#ffff00"
       id="path507"
       d="m 184.16053,664.67111 c 0.26757,-1.91931 0.25835,-3.86504 0.26372,-5.79912 -0.0496,-2.21648 0.64297,-4.27213 1.5001,-6.28022 0.80392,-1.44288 2.05489,-2.58915 3.46984,-3.42749 5.34662,-3.16778 4.00616,-2.4877 6.96297,-3.91698 1.77686,-0.77002 3.7091,-0.97361 5.62054,-1.11013 1.33256,-0.0884 2.66794,-0.0333 4.00182,-0.0237 0.80272,-4.4e-4 1.55202,-0.1835 2.27971,-0.51638 0.26726,-0.12226 1.03602,-0.55514 0.78192,-0.40745 -5.03304,2.92543 -5.18036,3.05979 -2.97689,1.5917 2.14875,-1.50646 3.98848,-3.38509 5.8007,-5.26884 0.98448,-1.14404 0.51235,-0.57838 1.41874,-1.69502 0,0 5.30093,-2.25191 5.30093,-2.25191 v 0 c -1.00517,1.17488 -0.48714,0.57713 -1.55517,1.79233 -1.78737,1.90384 -3.64084,3.76567 -5.71832,5.3555 -2.97351,2.21321 -6.41707,4.75699 -10.25826,4.974 -1.30908,-0.01 -2.61844,-0.002 -3.92733,0.02 -1.80038,0.0873 -3.59117,0.32623 -5.23897,1.1097 -2.18744,1.085 -1.57588,0.80974 2.72267,-1.68115 0.36794,-0.21321 -0.74673,0.4108 -1.09428,0.65586 -0.49745,0.35076 -1.30756,1.08394 -1.70757,1.56419 -0.21043,0.25263 -0.37423,0.54072 -0.56134,0.81108 -0.9753,1.91898 -1.71164,3.90994 -1.70322,6.09684 0.005,1.84378 -0.0177,3.70377 0.26372,5.53037 0,0 -5.64603,2.8768 -5.64603,2.8768 z"
       inkscape:connector-curvature="0" />
    <path
       style="fill:#ffff00"
       id="path509"
       d="m 172.12925,681.28874 c -0.91909,1.43087 -2.09632,2.67231 -3.18372,3.97354 -0.81308,0.55751 -2.66646,1.7764 -3.44445,2.49394 -0.15415,0.14217 -1.15154,1.51673 -1.2762,1.68144 -0.58595,0.77418 -0.67614,0.8698 -1.2818,1.60815 -0.99512,1.04721 -1.67291,2.34016 -2.82824,3.22495 -4.64157,2.97615 -4.90641,3.47899 -8.96992,3.45824 -1.58268,0.0753 -3.14636,-0.13551 -4.71629,-0.29223 -0.96175,0.006 -1.98292,-0.31191 -2.94571,-0.18444 -0.56861,0.0753 -0.85888,0.30985 -1.34913,0.58994 7.36078,-4.42662 4.13514,-2.53615 2.51673,-0.29446 -0.81063,1.12282 -1.48802,2.332 -2.17464,3.53184 -0.72806,1.33593 -1.43043,2.6817 -2.56659,3.71367 0,0 -5.66864,2.2573 -5.66864,2.2573 v 0 c 1.41532,-0.90135 2.35204,-2.24412 3.14113,-3.71027 0.73547,-1.19758 1.43579,-2.41734 2.19926,-3.59753 0.0141,-0.0218 1.30812,-1.98327 1.43084,-2.06849 1.85903,-1.29109 3.85958,-2.36544 5.78937,-3.54816 0.2725,-0.10582 0.53486,-0.24281 0.81749,-0.31746 1.20868,-0.31926 2.48601,0.12906 3.70277,0.15674 1.56979,0.1995 3.13683,0.26748 4.71921,0.19158 0.68114,-0.0302 1.36087,-0.0483 2.0346,-0.1635 2.15074,-0.36781 5.06017,-2.66629 -3.71658,2.51375 1.44148,-0.74833 2.11544,-2.04962 3.22199,-3.18839 0.69619,-0.79581 1.32505,-1.6054 1.95693,-2.45168 0.21372,-0.28623 0.54034,-0.5086 0.65796,-0.84589 0.16912,-0.48498 -0.50429,-0.62835 -0.72428,-0.72418 0.92952,-1.1577 1.89793,-2.28971 2.72889,-3.5162 0,0 9.92902,-4.4922 9.92902,-4.4922 z"
       inkscape:connector-curvature="0" />
    <path
       style="fill:#ffff00"
       id="path511"
       d="m 190.04422,668.12485 c 0.45165,-0.0672 1.67625,-0.8662 2.10161,-0.50989 0.18953,0.15877 -0.33731,0.68721 -0.0949,0.73565 0.53476,0.10686 1.04648,-0.30847 1.57577,-0.43973 0.55944,-0.13873 1.12608,-0.2466 1.68912,-0.36991 3.27705,-0.82249 6.62621,-1.16396 9.98682,-1.3936 2.50897,-0.16275 5.02312,-0.2053 7.53656,-0.22439 1.08397,-0.13737 2.23017,-0.13223 3.21587,-0.67348 0.17892,-0.0982 0.67918,-0.4513 0.50015,-0.35326 -1.58467,0.86779 -3.14679,1.77614 -4.72019,2.66421 0.61139,-0.58214 0.33405,-0.27356 0.83606,-0.92208 0,0 5.61224,-2.44281 5.61224,-2.44281 v 0 c -0.47367,0.75544 -0.21329,0.39261 -0.78216,1.08776 -4.20536,2.55524 -5.17628,4.08869 -9.33274,4.03291 -2.40564,-0.0205 -4.81251,-0.0553 -7.21729,0.033 -3.30002,0.17199 -6.5887,0.55711 -9.79931,1.36675 -0.57545,0.14474 -2.78455,0.66764 -3.35052,0.93667 -1.06167,0.50467 -2.03379,1.18062 -3.07272,1.73058 -1.01598,0.5378 -2.10913,0.91709 -3.11123,1.48233 0,0 8.42682,-6.74067 8.42682,-6.74067 z"
       inkscape:connector-curvature="0" />
  </g>
</svg>
