<?xml version="1.0" encoding="UTF-8" standalone="no"?>
<!-- Generator: Adobe Illustrator 16.0.0, SVG Export Plug-In . SVG Version: 6.00 Build 0)  -->

<svg
   xmlns:dc="http://purl.org/dc/elements/1.1/"
   xmlns:cc="http://creativecommons.org/ns#"
   xmlns:rdf="http://www.w3.org/1999/02/22-rdf-syntax-ns#"
   xmlns:svg="http://www.w3.org/2000/svg"
   xmlns="http://www.w3.org/2000/svg"
   xmlns:xlink="http://www.w3.org/1999/xlink"
   xmlns:sodipodi="http://sodipodi.sourceforge.net/DTD/sodipodi-0.dtd"
   xmlns:inkscape="http://www.inkscape.org/namespaces/inkscape"
   version="1.1"
   id="svg2"
   sodipodi:docname="universeWall.svg"
   inkscape:version="0.92.2 5c3e80d, 2017-08-06"
   x="0px"
   y="0px"
   width="430.543px"
   height="325.295px"
   viewBox="0 0 430.543 325.295"
   enable-background="new 0 0 430.543 325.295"
   xml:space="preserve"><metadata
     id="metadata11"><rdf:RDF><cc:Work
         rdf:about=""><dc:format>image/svg+xml</dc:format><dc:type
           rdf:resource="http://purl.org/dc/dcmitype/StillImage" /><dc:title></dc:title></cc:Work></rdf:RDF></metadata><defs
     id="defs3"><linearGradient
       inkscape:collect="always"
       id="linearGradient1474"><stop
         style="stop-color:#00002c;stop-opacity:1;"
         offset="0"
         id="stop1470" /><stop
         style="stop-color:#00002c;stop-opacity:0;"
         offset="1"
         id="stop1472" /></linearGradient><linearGradient
       inkscape:collect="always"
       id="linearGradient1456"><stop
         style="stop-color:#000000;stop-opacity:1;"
         offset="0"
         id="stop1452" /><stop
         style="stop-color:#000000;stop-opacity:0;"
         offset="1"
         id="stop1454" /></linearGradient><linearGradient
       inkscape:collect="always"
       id="linearGradient1448"><stop
         style="stop-color:#000034;stop-opacity:1;"
         offset="0"
         id="stop1444" /><stop
         style="stop-color:#000034;stop-opacity:0;"
         offset="1"
         id="stop1446" /></linearGradient><inkscape:perspective
       id="perspective2985"
       inkscape:vp_z="744.09448 : 526.18109 : 1"
       inkscape:vp_y="0 : 1000 : 0"
       inkscape:vp_x="0 : 526.18109 : 1"
       sodipodi:type="inkscape:persp3d"
       inkscape:persp3d-origin="372.04724 : 350.78739 : 1" /><radialGradient
       inkscape:collect="always"
       xlink:href="#linearGradient1448"
       id="radialGradient1450"
       cx="424.64457"
       cy="165.08191"
       fx="424.64457"
       fy="165.08191"
       r="4.1062078"
       gradientTransform="matrix(1,0,0,8.7530407,0,-1279.8868)"
       gradientUnits="userSpaceOnUse" /><linearGradient
       inkscape:collect="always"
       xlink:href="#linearGradient1456"
       id="linearGradient1458"
       x1="214.76505"
       y1="70.1895"
       x2="430.54495"
       y2="70.1895"
       gradientUnits="userSpaceOnUse" /><linearGradient
       inkscape:collect="always"
       xlink:href="#linearGradient1474"
       id="linearGradient1476"
       x1="215.06231"
       y1="107.40366"
       x2="419.23492"
       y2="107.40366"
       gradientUnits="userSpaceOnUse" /></defs><sodipodi:namedview
     units="mm"
     fit-margin-left="0"
     fit-margin-top="0"
     showguides="true"
     showgrid="false"
     inkscape:cy="211.96909"
     inkscape:cx="276.38388"
     inkscape:zoom="2.8"
     borderopacity="1.0"
     bordercolor="#666666"
     pagecolor="#ffffff"
     id="base"
     inkscape:pageshadow="2"
     inkscape:pageopacity="0.0"
     fit-margin-bottom="0"
     fit-margin-right="0"
     inkscape:guide-bbox="true"
     inkscape:window-maximized="1"
     inkscape:window-y="0"
     inkscape:window-x="34"
     inkscape:window-height="856"
     inkscape:window-width="1406"
     inkscape:object-nodes="true"
     inkscape:current-layer="svg2"
     inkscape:document-units="mm" /><path
     id="path3910"
     sodipodi:nodetypes="cccccc"
     inkscape:connector-curvature="0"
     fill="#D7D7F4"
     stroke="#000000"
     stroke-linecap="round"
     stroke-linejoin="round"
     d="  M224.757,6.177l205.288,122.462l-9.313,5.563L215.265,11.608L224.757,6.177z"
     style="fill:url(#linearGradient1458);fill-opacity:1" /><path
     id="path3918"
     inkscape:connector-curvature="0"
     fill="#B3B3B3"
     stroke="#000000"
     stroke-linecap="round"
     stroke-linejoin="round"
     d="  M430.043,128.651v68l-9.311,5.555v-68L430.043,128.651z" /><path
     id="path6059"
     inkscape:connector-curvature="0"
     fill="#B3B3B3"
     stroke="#000000"
     d="M299.065,118.563l-9.312,5.556  l37.155,22.163l9.25-5.594L299.065,118.563z" /><path
     id="path6053"
     sodipodi:nodetypes="ccccccccc"
     inkscape:connector-curvature="0"
     d="m 215.265,11.608 205.451,122.629 v 68 l -93.813,-55.969 v 0 L 289.747,124.08 v -0.031 L 215.736,79.886 Z"
     style="fill:#f2f2f2;stroke:#000000;stroke-linecap:round;stroke-linejoin:round" /><path
     style="fill:url(#linearGradient1476);fill-opacity:1;stroke:#000000;stroke-width:0.35714287;stroke-opacity:1"
     d="m 372.46468,173.44743 c -25.56708,-15.2525 -54.49565,-32.51675 -64.28571,-38.365 -9.79006,-5.84825 -34.59475,-20.65991 -55.12154,-32.9148 L 215.736,79.886 215.5178,69.58652 c -0.12002,-5.664714 -0.24055,-20.642574 -0.26786,-33.284125 -0.0394,-18.259414 0.0421,-22.948455 0.39678,-22.808635 0.60084,0.23688 202.87324,120.96387 203.21614,121.29027 0.14835,0.1412 0.2287,15.13789 0.17857,33.32597 l -0.0911,33.06924 -46.48561,-27.73181 z"
     id="path3343"
     inkscape:connector-curvature="0" /><path
     style="fill:#000000;fill-opacity:1;stroke:#000000;stroke-width:0.35714287;stroke-opacity:1"
     d="m 320.38388,73.294767 c -55.6875,-33.252421 -101.5331,-60.678139 -101.87912,-60.94604 -0.56718,-0.439128 -0.237,-0.712302 3.35309,-2.7742202 3.06279,-1.759071 4.11508,-2.204706 4.55769,-1.930137 0.31652,0.196345 46.05763,27.4814162 101.64691,60.6334902 55.58929,33.15207 101.19894,60.39277 101.35477,60.5349 0.2172,0.19809 -7.44796,5.13848 -7.72204,4.97706 -0.0337,-0.0199 -45.6238,-27.24263 -101.3113,-60.495053 z"
     id="path3345"
     inkscape:connector-curvature="0" /><path
     style="fill:url(#radialGradient1450);fill-opacity:1;stroke:#000000;stroke-width:0.35527558;stroke-miterlimit:4;stroke-dasharray:none"
     d="M 420.716,167.46839 V 134.237 l 3.125,-1.87409 c 1.71875,-1.03075 3.48661,-2.10467 3.92857,-2.38648 l 0.80357,-0.51238 v 33.23139 33.23138 l -3.125,1.87409 c -1.71875,1.03075 -3.48661,2.10467 -3.92857,2.38648 l -0.80357,0.51238 z"
     id="path3347"
     inkscape:connector-curvature="0" /></svg>