<?xml version="1.0" encoding="UTF-8" standalone="no"?>
<!-- Generator: Adobe Illustrator 16.0.0, SVG Export Plug-In . SVG Version: 6.00 Build 0)  -->

<svg
   xmlns:dc="http://purl.org/dc/elements/1.1/"
   xmlns:cc="http://creativecommons.org/ns#"
   xmlns:rdf="http://www.w3.org/1999/02/22-rdf-syntax-ns#"
   xmlns:svg="http://www.w3.org/2000/svg"
   xmlns="http://www.w3.org/2000/svg"
   xmlns:sodipodi="http://sodipodi.sourceforge.net/DTD/sodipodi-0.dtd"
   xmlns:inkscape="http://www.inkscape.org/namespaces/inkscape"
   version="1.1"
   id="svg2"
   inkscape:version="0.92.3 (2405546, 2018-03-11)"
   sodipodi:docname="wallstary.svg"
   x="0px"
   y="0px"
   width="220.70563"
   height="201.79939"
   viewBox="0 0 214.86613 196.46012"
   enable-background="new 0 0 430.543 325.295"
   xml:space="preserve"><metadata
     id="metadata10"><rdf:RDF><cc:Work
         rdf:about=""><dc:format>image/svg+xml</dc:format><dc:type
           rdf:resource="http://purl.org/dc/dcmitype/StillImage" /><dc:title></dc:title></cc:Work></rdf:RDF></metadata><defs
     id="defs4"><inkscape:perspective
       sodipodi:type="inkscape:persp3d"
       inkscape:vp_x="0 : 526.5697 : 1"
       inkscape:vp_y="0 : 1000.7386 : 0"
       inkscape:vp_z="744.64401 : 526.5697 : 1"
       id="perspective2985"
       inkscape:persp3d-origin="372.322 : 351.04646 : 1" /></defs><sodipodi:namedview
     units="mm"
     pagecolor="#ffffff"
     bordercolor="#666666"
     borderopacity="1.0"
     inkscape:zoom="1.4"
     inkscape:cx="16.439546"
     inkscape:cy="42.949162"
     showgrid="false"
     showguides="true"
     fit-margin-top="0"
     fit-margin-left="0"
     id="base"
     inkscape:document-units="mm"
     inkscape:current-layer="g1009"
     inkscape:object-nodes="true"
     inkscape:window-width="1366"
     inkscape:window-height="705"
     inkscape:window-x="-8"
     inkscape:window-y="-8"
     inkscape:window-maximized="1"
     inkscape:guide-bbox="true"
     fit-margin-right="0"
     fit-margin-bottom="0"
     inkscape:pageopacity="0.0"
     inkscape:pageshadow="2"
     scale-x="3.57953" /><g
     id="g1009"
     transform="translate(-215.17887,-6.177)"><g
       id="g1062"><path
         style="fill:#f2f2f2"
         id="path6053"
         inkscape:connector-curvature="0"
         sodipodi:nodetypes="ccccccccc"
         d="m 215.271,11.589 205.451,122.629 v 68 l -93.813,-55.969 v 0 L 289.753,124.061 V 124.03 L 215.742,79.867 Z" /><path
         style="fill:#d7d7f4"
         id="path3910"
         inkscape:connector-curvature="0"
         sodipodi:nodetypes="cccccc"
         d="m 224.757,6.177 205.288,122.462 -9.313,5.563 L 215.265,11.608 Z" /><path
         style="fill:#b3b3b3"
         id="path3918"
         inkscape:connector-curvature="0"
         d="m 430.043,128.651 v 68 l -9.311,5.555 v -68 z" /><path
         style="fill:#3243cb;fill-opacity:1;stroke-width:1.42857146"
         d="M 318.08663,141.40739 215.94378,80.284637 215.56132,45.836464 215.17887,11.388291 239.84703,26.163783 c 13.5675,8.12652 59.84239,35.762737 102.8331,61.413815 l 78.16491,46.638322 0.40652,34.26392 c 0.22357,18.84515 0.0851,34.21585 -0.30779,34.15711 -0.39285,-0.0587 -46.67857,-27.61204 -102.85714,-61.22956 z"
         id="path12"
         inkscape:connector-curvature="0" /><path
         style="fill:#ff2a2a;stroke-width:1.42857146"
         d="M 320.17162,73.365947 C 264.4398,40.088699 218.6208,12.201146 218.35162,11.393607 c -0.26918,-0.807539 1.15376,-2.2169321 3.16208,-3.1319848 3.35862,-1.5302877 5.85979,-0.3446103 31.18364,14.7825278 15.14268,9.045443 61.1748,36.517246 102.2936,61.048448 41.11879,24.531202 74.54736,44.742982 74.2857,44.915052 -8.21042,5.39961 0.94485,10.06863 -109.10502,-55.641703 z"
         id="path14"
         inkscape:connector-curvature="0" /><path
         style="fill:#ff2a2a;stroke-width:1.42857146"
         d="m 422.37234,182.24944 c 0,-9.6992 -0.41514,-24.41994 -0.92254,-32.71276 l -0.92255,-15.07785 4.49398,-2.32393 4.49397,-2.32392 v 33.09348 c 0,29.84226 -0.24561,33.27993 -2.5,34.99125 -1.375,1.04378 -2.98214,1.91822 -3.57143,1.94321 -0.58928,0.025 -1.07143,-7.89028 -1.07143,-17.58948 z"
         id="path18"
         inkscape:connector-curvature="0" /><path
         sodipodi:type="star"
         style="opacity:0.77399998;fill:#fff9f9;fill-opacity:1;stroke:#060606;stroke-width:0;stroke-miterlimit:4;stroke-dasharray:none;stroke-opacity:1"
         id="use882"
         sodipodi:sides="5"
         sodipodi:cx="260.46729"
         sodipodi:cy="85.458572"
         sodipodi:r1="48.429413"
         sodipodi:r2="26.721956"
         sodipodi:arg1="0.92139558"
         sodipodi:arg2="-2.8956907"
         inkscape:flatsided="false"
         inkscape:rounded="0"
         inkscape:randomized="0"
         d="m 289.753,124.03 -55.20383,-45.076387 -1.71571,46.276557 25.81127,-66.431328 -44.5418,12.668501 71.15607,4.019569 -25.81264,-38.44699 18.1656,68.915558 28.58872,-36.43005 -59.92912,38.57259 z"
         inkscape:transform-center-x="0.13132571"
         inkscape:transform-center-y="-2.3301809"
         transform="matrix(0.41626591,0,0,0.53895336,252.03915,94.541661)" /><path
         sodipodi:type="star"
         style="opacity:0.77399998;fill:#fff9f9;fill-opacity:1;stroke:#060606;stroke-width:0;stroke-miterlimit:4;stroke-dasharray:none;stroke-opacity:1"
         id="use888"
         sodipodi:sides="5"
         sodipodi:cx="260.46729"
         sodipodi:cy="85.458572"
         sodipodi:r1="48.429413"
         sodipodi:r2="26.721956"
         sodipodi:arg1="0.92139558"
         sodipodi:arg2="-2.8956907"
         inkscape:flatsided="false"
         inkscape:rounded="0"
         inkscape:randomized="0"
         d="m 289.753,124.03 -55.20383,-45.076387 -1.71571,46.276557 25.81127,-66.431328 -44.5418,12.668501 71.15607,4.019569 -25.81264,-38.44699 18.1656,68.915558 28.58872,-36.43005 -59.92912,38.57259 z"
         inkscape:transform-center-x="0.077071479"
         inkscape:transform-center-y="-0.92314374"
         transform="matrix(0.24428796,0,0,0.21351692,245.73627,89.051181)" /><path
         sodipodi:type="star"
         style="opacity:0.77399998;fill:#fff9f9;fill-opacity:1;stroke:#060606;stroke-width:0;stroke-miterlimit:4;stroke-dasharray:none;stroke-opacity:1"
         id="use928"
         sodipodi:sides="5"
         sodipodi:cx="260.46729"
         sodipodi:cy="85.458572"
         sodipodi:r1="48.429413"
         sodipodi:r2="26.721956"
         sodipodi:arg1="0.92139558"
         sodipodi:arg2="-2.8956907"
         inkscape:flatsided="false"
         inkscape:rounded="0"
         inkscape:randomized="0"
         d="m 289.753,124.03 -55.20383,-45.076387 -1.71571,46.276557 25.81127,-66.431328 -44.5418,12.668501 71.15607,4.019569 -25.81264,-38.44699 18.1656,68.915558 28.58872,-36.43005 -59.92912,38.57259 z"
         inkscape:transform-center-x="0.15215534"
         inkscape:transform-center-y="-1.0385949"
         transform="matrix(0.48228616,0,0,0.24021925,117.39052,38.094297)" /><path
         sodipodi:type="star"
         style="opacity:0.77399998;fill:#ffffff;fill-opacity:1;stroke:#060606;stroke-width:0;stroke-miterlimit:4;stroke-dasharray:none;stroke-opacity:1"
         id="use930"
         sodipodi:sides="5"
         sodipodi:cx="260.46729"
         sodipodi:cy="85.458572"
         sodipodi:r1="48.429413"
         sodipodi:r2="26.721956"
         sodipodi:arg1="0.92139558"
         sodipodi:arg2="-2.8956907"
         inkscape:flatsided="false"
         inkscape:rounded="0"
         inkscape:randomized="0"
         d="m 289.753,124.03 -55.20383,-45.076387 -1.71571,46.276557 25.81127,-66.431328 -44.5418,12.668501 71.15607,4.019569 -25.81264,-38.44699 18.1656,68.915558 28.58872,-36.43005 -59.92912,38.57259 z"
         inkscape:transform-center-x="0.15579815"
         inkscape:transform-center-y="-1.8399303"
         transform="matrix(0.49382326,0,0,0.42556214,154.95227,51.528196)" /><path
         transform="matrix(0.48228616,0,0,0.24021925,222.46136,96.371042)"
         inkscape:transform-center-y="-1.0385949"
         inkscape:transform-center-x="0.15215534"
         d="m 289.753,124.03 -55.20383,-45.076387 -1.71571,46.276557 25.81127,-66.431328 -44.5418,12.668501 71.15607,4.019569 -25.81264,-38.44699 18.1656,68.915558 28.58872,-36.43005 -59.92912,38.57259 z"
         inkscape:randomized="0"
         inkscape:rounded="0"
         inkscape:flatsided="false"
         sodipodi:arg2="-2.8956907"
         sodipodi:arg1="0.92139558"
         sodipodi:r2="26.721956"
         sodipodi:r1="48.429413"
         sodipodi:cy="85.458572"
         sodipodi:cx="260.46729"
         sodipodi:sides="5"
         id="path1049"
         style="opacity:0.77399998;fill:#fff9f9;fill-opacity:1;stroke:#060606;stroke-width:0;stroke-miterlimit:4;stroke-dasharray:none;stroke-opacity:1"
         sodipodi:type="star" /></g></g></svg>