<?xml version="1.0" encoding="UTF-8" standalone="no"?>
<!-- Generator: Adobe Illustrator 16.0.0, SVG Export Plug-In . SVG Version: 6.00 Build 0)  -->

<svg
   xmlns:dc="http://purl.org/dc/elements/1.1/"
   xmlns:cc="http://creativecommons.org/ns#"
   xmlns:rdf="http://www.w3.org/1999/02/22-rdf-syntax-ns#"
   xmlns:svg="http://www.w3.org/2000/svg"
   xmlns="http://www.w3.org/2000/svg"
   xmlns:sodipodi="http://sodipodi.sourceforge.net/DTD/sodipodi-0.dtd"
   xmlns:inkscape="http://www.inkscape.org/namespaces/inkscape"
   version="1.1"
   id="svg2"
   inkscape:version="0.92.3 (2405546, 2018-03-11)"
   sodipodi:docname="wall.svg"
   x="0px"
   y="0px"
   width="242.71117"
   height="213.00075"
   viewBox="0 0 242.71117 213.00074"
   enable-background="new 0 0 430.543 325.295"
   xml:space="preserve"><metadata
     id="metadata10"><rdf:RDF><cc:Work
         rdf:about=""><dc:format>image/svg+xml</dc:format><dc:type
           rdf:resource="http://purl.org/dc/dcmitype/StillImage" /><dc:title></dc:title></cc:Work></rdf:RDF></metadata><defs
     id="defs4"><inkscape:perspective
       sodipodi:type="inkscape:persp3d"
       inkscape:vp_x="0 : 526.18109 : 1"
       inkscape:vp_y="0 : 1000 : 0"
       inkscape:vp_z="744.09449 : 526.18109 : 1"
       id="perspective2985"
       inkscape:persp3d-origin="372.04724 : 350.78739 : 1" /></defs><sodipodi:namedview
     units="mm"
     pagecolor="#ffffff"
     bordercolor="#666666"
     borderopacity="1.0"
     inkscape:zoom="1.4"
     inkscape:cx="41.198896"
     inkscape:cy="54.150523"
     showgrid="false"
     showguides="true"
     fit-margin-top="0"
     fit-margin-left="0"
     id="base"
     inkscape:document-units="mm"
     inkscape:current-layer="svg2"
     inkscape:object-nodes="true"
     inkscape:window-width="1366"
     inkscape:window-height="705"
     inkscape:window-x="-8"
     inkscape:window-y="-8"
     inkscape:window-maximized="1"
     inkscape:guide-bbox="true"
     fit-margin-right="0"
     fit-margin-bottom="0"
     inkscape:pageopacity="0.0"
     inkscape:pageshadow="2" /><g
     id="g1009"
     transform="translate(-191.07461,-6.177)"><path
       d="m 215.271,11.589 205.451,122.629 v 68 l -93.813,-55.969 v 0 L 289.753,124.061 V 124.03 L 215.742,79.867 Z"
       sodipodi:nodetypes="ccccccccc"
       inkscape:connector-curvature="0"
       id="path6053"
       style="fill:#f2f2f2" /><path
       d="m 224.757,6.177 205.288,122.462 -9.313,5.563 L 215.265,11.608 Z"
       sodipodi:nodetypes="cccccc"
       inkscape:connector-curvature="0"
       id="path3910"
       style="fill:#d7d7f4" /><path
       d="m 430.043,128.651 v 68 l -9.311,5.555 v -68 z"
       inkscape:connector-curvature="0"
       id="path3918"
       style="fill:#b3b3b3" /><path
       inkscape:connector-curvature="0"
       id="path12"
       d="M 318.08663,141.40739 215.94378,80.284637 215.56132,45.836464 215.17887,11.388291 239.84703,26.163783 c 13.5675,8.12652 59.84239,35.762737 102.8331,61.413815 l 78.16491,46.638322 0.40652,34.26392 c 0.22357,18.84515 0.0851,34.21585 -0.30779,34.15711 -0.39285,-0.0587 -46.67857,-27.61204 -102.85714,-61.22956 z"
       style="fill:#3243cb;fill-opacity:1;stroke-width:1.42857146" /><path
       inkscape:connector-curvature="0"
       id="path14"
       d="M 320.17162,73.365947 C 264.4398,40.088699 218.6208,12.201146 218.35162,11.393607 c -0.26918,-0.807539 1.15376,-2.2169321 3.16208,-3.1319848 3.35862,-1.5302877 5.85979,-0.3446103 31.18364,14.7825278 15.14268,9.045443 61.1748,36.517246 102.2936,61.048448 41.11879,24.531202 74.54736,44.742982 74.2857,44.915052 -8.21042,5.39961 0.94485,10.06863 -109.10502,-55.641703 z"
       style="fill:#ff2a2a;stroke-width:1.42857146" /><path
       inkscape:connector-curvature="0"
       id="path16"
       d="m 430.13298,162.74149 c 0,-19.25 0.20221,-27.125 0.44937,-17.5 0.24715,9.625 0.24715,25.375 0,35 -0.24716,9.625 -0.44937,1.75 -0.44937,-17.5 z"
       style="fill:#ff2a2a;stroke-width:1.42857146" /><path
       inkscape:connector-curvature="0"
       id="path18"
       d="m 422.37234,182.24944 c 0,-9.6992 -0.41514,-24.41994 -0.92254,-32.71276 l -0.92255,-15.07785 4.49398,-2.32393 4.49397,-2.32392 v 33.09348 c 0,29.84226 -0.24561,33.27993 -2.5,34.99125 -1.375,1.04378 -2.98214,1.91822 -3.57143,1.94321 -0.58928,0.025 -1.07143,-7.89028 -1.07143,-17.58948 z"
       style="fill:#ff2a2a;stroke-width:1.42857146" /><path
       transform="matrix(0.54035767,0,0,0.61994709,103.41077,14.791416)"
       inkscape:transform-center-y="-2.6803592"
       inkscape:transform-center-x="0.17047561"
       d="m 289.753,124.03 -55.20382,-45.076386 -1.71572,46.276556 25.81127,-66.431327 -44.5418,12.6685 71.15606,4.019569 -25.81263,-38.44699 18.1656,68.915558 28.58872,-36.43005 -59.92911,38.57259 z"
       inkscape:randomized="0"
       inkscape:rounded="0"
       inkscape:flatsided="false"
       sodipodi:arg2="-2.8956907"
       sodipodi:arg1="0.92139558"
       sodipodi:r2="26.721954"
       sodipodi:r1="48.429413"
       sodipodi:cy="85.458572"
       sodipodi:cx="260.46729"
       sodipodi:sides="5"
       id="path822"
       style="opacity:0.77399998;fill:#fff9f9;fill-opacity:1;stroke:#060606;stroke-width:0;stroke-miterlimit:4;stroke-dasharray:none;stroke-opacity:1"
       sodipodi:type="star" /><path
       sodipodi:type="star"
       style="opacity:0.77399998;fill:#fff9f9;fill-opacity:1;stroke:#060606;stroke-width:0;stroke-miterlimit:4;stroke-dasharray:none;stroke-opacity:1"
       id="path826"
       sodipodi:sides="5"
       sodipodi:cx="260.46729"
       sodipodi:cy="85.458572"
       sodipodi:r1="48.429413"
       sodipodi:r2="26.721956"
       sodipodi:arg1="0.92139558"
       sodipodi:arg2="-2.8956907"
       inkscape:flatsided="false"
       inkscape:rounded="0"
       inkscape:randomized="0"
       d="m 289.753,124.03 -55.20383,-45.076387 -1.71571,46.276557 25.81127,-66.431328 -44.5418,12.668501 71.15607,4.019569 -25.81264,-38.44699 18.1656,68.915558 28.58872,-36.43005 -59.92912,38.57259 z"
       inkscape:transform-center-x="0.17047561"
       inkscape:transform-center-y="-2.6803592"
       transform="matrix(0.54035767,0,0,0.61994709,163.93965,46.393922)" /><path
       transform="matrix(0.19910534,0,0,0.23117719,224.35779,66.205403)"
       inkscape:transform-center-y="-0.99950588"
       inkscape:transform-center-x="0.062819642"
       d="m 289.753,124.03 -55.20383,-45.076387 -1.71571,46.276557 25.81127,-66.431328 -44.5418,12.668501 71.15607,4.019569 -25.81264,-38.44699 18.1656,68.915558 28.58872,-36.43005 -59.92912,38.57259 z"
       inkscape:randomized="0"
       inkscape:rounded="0"
       inkscape:flatsided="false"
       sodipodi:arg2="-2.8956907"
       sodipodi:arg1="0.92139558"
       sodipodi:r2="26.721956"
       sodipodi:r1="48.429413"
       sodipodi:cy="85.458572"
       sodipodi:cx="260.46729"
       sodipodi:sides="5"
       id="path828"
       style="opacity:0.77399998;fill:#fff9f9;fill-opacity:1;stroke:#060606;stroke-width:0;stroke-miterlimit:4;stroke-dasharray:none;stroke-opacity:1"
       sodipodi:type="star" /><path
       sodipodi:type="star"
       style="opacity:0.77399998;fill:#fff9f9;fill-opacity:1;stroke:#060606;stroke-width:0;stroke-miterlimit:4;stroke-dasharray:none;stroke-opacity:1"
       id="path830"
       sodipodi:sides="5"
       sodipodi:cx="260.46729"
       sodipodi:cy="85.458572"
       sodipodi:r1="48.429413"
       sodipodi:r2="26.721956"
       sodipodi:arg1="0.92139558"
       sodipodi:arg2="-2.8956907"
       inkscape:flatsided="false"
       inkscape:rounded="0"
       inkscape:randomized="0"
       d="m 289.753,124.03 -55.20383,-45.076387 -1.71571,46.276557 25.81127,-66.431328 -44.5418,12.668501 71.15607,4.019569 -25.81264,-38.44699 18.1656,68.915558 28.58872,-36.43005 -59.92912,38.57259 z"
       inkscape:transform-center-x="0.062819642"
       inkscape:transform-center-y="-0.99950588"
       transform="matrix(0.19910534,0,0,0.23117719,225.25257,77.427458)" /><path
       transform="matrix(0.19910534,0,0,0.23117719,217.37111,44.300553)"
       inkscape:transform-center-y="-0.99950588"
       inkscape:transform-center-x="0.062819642"
       d="m 289.753,124.03 -55.20383,-45.076387 -1.71571,46.276557 25.81127,-66.431328 -44.5418,12.668501 71.15607,4.019569 -25.81264,-38.44699 18.1656,68.915558 28.58872,-36.43005 -59.92912,38.57259 z"
       inkscape:randomized="0"
       inkscape:rounded="0"
       inkscape:flatsided="false"
       sodipodi:arg2="-2.8956907"
       sodipodi:arg1="0.92139558"
       sodipodi:r2="26.721956"
       sodipodi:r1="48.429413"
       sodipodi:cy="85.458572"
       sodipodi:cx="260.46729"
       sodipodi:sides="5"
       id="path832"
       style="opacity:0.77399998;fill:#fff9f9;fill-opacity:1;stroke:#060606;stroke-width:0;stroke-miterlimit:4;stroke-dasharray:none;stroke-opacity:1"
       sodipodi:type="star" /><path
       sodipodi:type="star"
       style="opacity:0.77399998;fill:#fff9f9;fill-opacity:1;stroke:#060606;stroke-width:0;stroke-miterlimit:4;stroke-dasharray:none;stroke-opacity:1"
       id="path834"
       sodipodi:sides="5"
       sodipodi:cx="260.46729"
       sodipodi:cy="85.458572"
       sodipodi:r1="48.429413"
       sodipodi:r2="26.721956"
       sodipodi:arg1="0.92139558"
       sodipodi:arg2="-2.8956907"
       inkscape:flatsided="false"
       inkscape:rounded="0"
       inkscape:randomized="0"
       d="m 289.753,124.03 -55.20383,-45.076387 -1.71571,46.276557 25.81127,-66.431328 -44.5418,12.668501 71.15607,4.019569 -25.81264,-38.44699 18.1656,68.915558 28.58872,-36.43005 -59.92912,38.57259 z"
       inkscape:transform-center-x="0.062819642"
       inkscape:transform-center-y="-0.99950588"
       transform="matrix(0.19910534,0,0,0.23117719,230.04996,57.783607)" /><path
       transform="matrix(0.54035767,0,0,0.61994709,201.09565,68.612922)"
       inkscape:transform-center-y="-2.6803592"
       inkscape:transform-center-x="0.17047561"
       d="m 289.753,124.03 -55.20383,-45.076387 -1.71571,46.276557 25.81127,-66.431328 -44.5418,12.668501 71.15607,4.019569 -25.81264,-38.44699 18.1656,68.915558 28.58872,-36.43005 -59.92912,38.57259 z"
       inkscape:randomized="0"
       inkscape:rounded="0"
       inkscape:flatsided="false"
       sodipodi:arg2="-2.8956907"
       sodipodi:arg1="0.92139558"
       sodipodi:r2="26.721956"
       sodipodi:r1="48.429413"
       sodipodi:cy="85.458572"
       sodipodi:cx="260.46729"
       sodipodi:sides="5"
       id="path836"
       style="opacity:0.77399998;fill:#fff9f9;fill-opacity:1;stroke:#060606;stroke-width:0;stroke-miterlimit:4;stroke-dasharray:none;stroke-opacity:1"
       sodipodi:type="star" /><path
       transform="matrix(0.54035767,0,0,0.61994709,268.32788,141.54166)"
       inkscape:transform-center-y="-2.6803592"
       inkscape:transform-center-x="0.17047561"
       d="m 289.753,124.03 -55.20383,-45.076387 -1.71571,46.276557 25.81127,-66.431328 -44.5418,12.668501 71.15607,4.019569 -25.81264,-38.44699 18.1656,68.915558 28.58872,-36.43005 -59.92912,38.57259 z"
       inkscape:randomized="0"
       inkscape:rounded="0"
       inkscape:flatsided="false"
       sodipodi:arg2="-2.8956907"
       sodipodi:arg1="0.92139558"
       sodipodi:r2="26.721956"
       sodipodi:r1="48.429413"
       sodipodi:cy="85.458572"
       sodipodi:cx="260.46729"
       sodipodi:sides="5"
       id="use882"
       style="opacity:0.77399998;fill:#fff9f9;fill-opacity:1;stroke:#060606;stroke-width:0;stroke-miterlimit:4;stroke-dasharray:none;stroke-opacity:1"
       sodipodi:type="star" /><path
       transform="matrix(0.54035767,0,0,0.61994709,243.78975,87.510055)"
       inkscape:transform-center-y="-2.6803592"
       inkscape:transform-center-x="0.17047561"
       d="m 289.753,124.03 -55.20383,-45.076387 -1.71571,46.276557 25.81127,-66.431328 -44.5418,12.668501 71.15607,4.019569 -25.81264,-38.44699 18.1656,68.915558 28.58872,-36.43005 -59.92912,38.57259 z"
       inkscape:randomized="0"
       inkscape:rounded="0"
       inkscape:flatsided="false"
       sodipodi:arg2="-2.8956907"
       sodipodi:arg1="0.92139558"
       sodipodi:r2="26.721956"
       sodipodi:r1="48.429413"
       sodipodi:cy="85.458572"
       sodipodi:cx="260.46729"
       sodipodi:sides="5"
       id="use884"
       style="opacity:0.77399998;fill:#fff9f9;fill-opacity:1;stroke:#060606;stroke-width:0;stroke-miterlimit:4;stroke-dasharray:none;stroke-opacity:1"
       sodipodi:type="star" /><path
       transform="matrix(0.54035767,0,0,0.61994709,231.27691,92.982857)"
       inkscape:transform-center-y="-2.6803592"
       inkscape:transform-center-x="0.17047561"
       d="m 289.753,124.03 -55.20383,-45.076387 -1.71571,46.276557 25.81127,-66.431328 -44.5418,12.668501 71.15607,4.019569 -25.81264,-38.44699 18.1656,68.915558 28.58872,-36.43005 -59.92912,38.57259 z"
       inkscape:randomized="0"
       inkscape:rounded="0"
       inkscape:flatsided="false"
       sodipodi:arg2="-2.8956907"
       sodipodi:arg1="0.92139558"
       sodipodi:r2="26.721956"
       sodipodi:r1="48.429413"
       sodipodi:cy="85.458572"
       sodipodi:cx="260.46729"
       sodipodi:sides="5"
       id="use886"
       style="opacity:0.77399998;fill:#fff9f9;fill-opacity:1;stroke:#060606;stroke-width:0;stroke-miterlimit:4;stroke-dasharray:none;stroke-opacity:1"
       sodipodi:type="star" /><path
       transform="matrix(0.54035767,0,0,0.61994709,255.67065,121.17398)"
       inkscape:transform-center-y="-2.6803592"
       inkscape:transform-center-x="0.17047561"
       d="m 289.753,124.03 -55.20383,-45.076387 -1.71571,46.276557 25.81127,-66.431328 -44.5418,12.668501 71.15607,4.019569 -25.81264,-38.44699 18.1656,68.915558 28.58872,-36.43005 -59.92912,38.57259 z"
       inkscape:randomized="0"
       inkscape:rounded="0"
       inkscape:flatsided="false"
       sodipodi:arg2="-2.8956907"
       sodipodi:arg1="0.92139558"
       sodipodi:r2="26.721956"
       sodipodi:r1="48.429413"
       sodipodi:cy="85.458572"
       sodipodi:cx="260.46729"
       sodipodi:sides="5"
       id="use888"
       style="opacity:0.77399998;fill:#fff9f9;fill-opacity:1;stroke:#060606;stroke-width:0;stroke-miterlimit:4;stroke-dasharray:none;stroke-opacity:1"
       sodipodi:type="star" /><path
       transform="matrix(0.54035767,0,0,0.61994709,189.69621,57.530323)"
       inkscape:transform-center-y="-2.6803592"
       inkscape:transform-center-x="0.17047561"
       d="m 289.753,124.03 -55.20383,-45.076387 -1.71571,46.276557 25.81127,-66.431328 -44.5418,12.668501 71.15607,4.019569 -25.81264,-38.44699 18.1656,68.915558 28.58872,-36.43005 -59.92912,38.57259 z"
       inkscape:randomized="0"
       inkscape:rounded="0"
       inkscape:flatsided="false"
       sodipodi:arg2="-2.8956907"
       sodipodi:arg1="0.92139558"
       sodipodi:r2="26.721956"
       sodipodi:r1="48.429413"
       sodipodi:cy="85.458572"
       sodipodi:cx="260.46729"
       sodipodi:sides="5"
       id="use890"
       style="opacity:0.77399998;fill:#fff9f9;fill-opacity:1;stroke:#060606;stroke-width:0;stroke-miterlimit:4;stroke-dasharray:none;stroke-opacity:1"
       sodipodi:type="star" /><path
       transform="matrix(0.54035767,0,0,0.61994709,205.67061,89.241756)"
       inkscape:transform-center-y="-2.6803592"
       inkscape:transform-center-x="0.17047561"
       d="m 289.753,124.03 -55.20383,-45.076387 -1.71571,46.276557 25.81127,-66.431328 -44.5418,12.668501 71.15607,4.019569 -25.81264,-38.44699 18.1656,68.915558 28.58872,-36.43005 -59.92912,38.57259 z"
       inkscape:randomized="0"
       inkscape:rounded="0"
       inkscape:flatsided="false"
       sodipodi:arg2="-2.8956907"
       sodipodi:arg1="0.92139558"
       sodipodi:r2="26.721956"
       sodipodi:r1="48.429413"
       sodipodi:cy="85.458572"
       sodipodi:cx="260.46729"
       sodipodi:sides="5"
       id="use892"
       style="opacity:0.77399998;fill:#fff9f9;fill-opacity:1;stroke:#060606;stroke-width:0;stroke-miterlimit:4;stroke-dasharray:none;stroke-opacity:1"
       sodipodi:type="star" /><path
       transform="matrix(0.54035767,0,0,0.61994709,153.93394,73.01448)"
       inkscape:transform-center-y="-2.6803592"
       inkscape:transform-center-x="0.17047561"
       d="m 289.753,124.03 -55.20383,-45.076387 -1.71571,46.276557 25.81127,-66.431328 -44.5418,12.668501 71.15607,4.019569 -25.81264,-38.44699 18.1656,68.915558 28.58872,-36.43005 -59.92912,38.57259 z"
       inkscape:randomized="0"
       inkscape:rounded="0"
       inkscape:flatsided="false"
       sodipodi:arg2="-2.8956907"
       sodipodi:arg1="0.92139558"
       sodipodi:r2="26.721956"
       sodipodi:r1="48.429413"
       sodipodi:cy="85.458572"
       sodipodi:cx="260.46729"
       sodipodi:sides="5"
       id="use894"
       style="opacity:0.77399998;fill:#fff9f9;fill-opacity:1;stroke:#060606;stroke-width:0;stroke-miterlimit:4;stroke-dasharray:none;stroke-opacity:1"
       sodipodi:type="star" /><path
       transform="matrix(0.54035767,0,0,0.61994709,167.76119,27.039559)"
       inkscape:transform-center-y="-2.6803592"
       inkscape:transform-center-x="0.17047561"
       d="m 289.753,124.03 -55.20383,-45.076387 -1.71571,46.276557 25.81127,-66.431328 -44.5418,12.668501 71.15607,4.019569 -25.81264,-38.44699 18.1656,68.915558 28.58872,-36.43005 -59.92912,38.57259 z"
       inkscape:randomized="0"
       inkscape:rounded="0"
       inkscape:flatsided="false"
       sodipodi:arg2="-2.8956907"
       sodipodi:arg1="0.92139558"
       sodipodi:r2="26.721956"
       sodipodi:r1="48.429413"
       sodipodi:cy="85.458572"
       sodipodi:cx="260.46729"
       sodipodi:sides="5"
       id="use896"
       style="opacity:0.77399998;fill:#fff9f9;fill-opacity:1;stroke:#060606;stroke-width:0;stroke-miterlimit:4;stroke-dasharray:none;stroke-opacity:1"
       sodipodi:type="star" /><path
       transform="matrix(0.54035767,0,0,0.61994709,141.08654,20.467682)"
       inkscape:transform-center-y="-2.6803592"
       inkscape:transform-center-x="0.17047561"
       d="m 289.753,124.03 -55.20383,-45.076387 -1.71571,46.276557 25.81127,-66.431328 -44.5418,12.668501 71.15607,4.019569 -25.81264,-38.44699 18.1656,68.915558 28.58872,-36.43005 -59.92912,38.57259 z"
       inkscape:randomized="0"
       inkscape:rounded="0"
       inkscape:flatsided="false"
       sodipodi:arg2="-2.8956907"
       sodipodi:arg1="0.92139558"
       sodipodi:r2="26.721956"
       sodipodi:r1="48.429413"
       sodipodi:cy="85.458572"
       sodipodi:cx="260.46729"
       sodipodi:sides="5"
       id="use898"
       style="opacity:0.77399998;fill:#fff9f9;fill-opacity:1;stroke:#060606;stroke-width:0;stroke-miterlimit:4;stroke-dasharray:none;stroke-opacity:1"
       sodipodi:type="star" /><path
       transform="matrix(0.54035767,0,0,0.61994709,119.66753,25.492079)"
       inkscape:transform-center-y="-2.6803592"
       inkscape:transform-center-x="0.17047561"
       d="m 289.753,124.03 -55.20383,-45.076387 -1.71571,46.276557 25.81127,-66.431328 -44.5418,12.668501 71.15607,4.019569 -25.81264,-38.44699 18.1656,68.915558 28.58872,-36.43005 -59.92912,38.57259 z"
       inkscape:randomized="0"
       inkscape:rounded="0"
       inkscape:flatsided="false"
       sodipodi:arg2="-2.8956907"
       sodipodi:arg1="0.92139558"
       sodipodi:r2="26.721956"
       sodipodi:r1="48.429413"
       sodipodi:cy="85.458572"
       sodipodi:cx="260.46729"
       sodipodi:sides="5"
       id="use900"
       style="opacity:0.77399998;fill:#fff9f9;fill-opacity:1;stroke:#060606;stroke-width:0;stroke-miterlimit:4;stroke-dasharray:none;stroke-opacity:1"
       sodipodi:type="star" /><path
       transform="matrix(0.54035767,0,0,0.61994709,158.63949,43.315608)"
       inkscape:transform-center-y="-2.6803592"
       inkscape:transform-center-x="0.17047561"
       d="m 289.753,124.03 -55.20383,-45.076387 -1.71571,46.276557 25.81127,-66.431328 -44.5418,12.668501 71.15607,4.019569 -25.81264,-38.44699 18.1656,68.915558 28.58872,-36.43005 -59.92912,38.57259 z"
       inkscape:randomized="0"
       inkscape:rounded="0"
       inkscape:flatsided="false"
       sodipodi:arg2="-2.8956907"
       sodipodi:arg1="0.92139558"
       sodipodi:r2="26.721956"
       sodipodi:r1="48.429413"
       sodipodi:cy="85.458572"
       sodipodi:cx="260.46729"
       sodipodi:sides="5"
       id="use902"
       style="opacity:0.77399998;fill:#fff9f9;fill-opacity:1;stroke:#060606;stroke-width:0;stroke-miterlimit:4;stroke-dasharray:none;stroke-opacity:1"
       sodipodi:type="star" /><path
       transform="matrix(0.54035767,0,0,0.61994709,151.43571,70.546875)"
       inkscape:transform-center-y="-2.6803592"
       inkscape:transform-center-x="0.17047561"
       d="m 289.753,124.03 -55.20383,-45.076387 -1.71571,46.276557 25.81127,-66.431328 -44.5418,12.668501 71.15607,4.019569 -25.81264,-38.44699 18.1656,68.915558 28.58872,-36.43005 -59.92912,38.57259 z"
       inkscape:randomized="0"
       inkscape:rounded="0"
       inkscape:flatsided="false"
       sodipodi:arg2="-2.8956907"
       sodipodi:arg1="0.92139558"
       sodipodi:r2="26.721956"
       sodipodi:r1="48.429413"
       sodipodi:cy="85.458572"
       sodipodi:cx="260.46729"
       sodipodi:sides="5"
       id="use904"
       style="opacity:0.77399998;fill:#fff9f9;fill-opacity:1;stroke:#060606;stroke-width:0;stroke-miterlimit:4;stroke-dasharray:none;stroke-opacity:1"
       sodipodi:type="star" /><path
       transform="matrix(0.54035767,0,0,0.61994709,120.58227,75.201592)"
       inkscape:transform-center-y="-2.6803592"
       inkscape:transform-center-x="0.17047561"
       d="m 289.753,124.03 -55.20383,-45.076387 -1.71571,46.276557 25.81127,-66.431328 -44.5418,12.668501 71.15607,4.019569 -25.81264,-38.44699 18.1656,68.915558 28.58872,-36.43005 -59.92912,38.57259 z"
       inkscape:randomized="0"
       inkscape:rounded="0"
       inkscape:flatsided="false"
       sodipodi:arg2="-2.8956907"
       sodipodi:arg1="0.92139558"
       sodipodi:r2="26.721956"
       sodipodi:r1="48.429413"
       sodipodi:cy="85.458572"
       sodipodi:cx="260.46729"
       sodipodi:sides="5"
       id="use906"
       style="opacity:0.77399998;fill:#fff9f9;fill-opacity:1;stroke:#060606;stroke-width:0;stroke-miterlimit:4;stroke-dasharray:none;stroke-opacity:1"
       sodipodi:type="star" /><path
       transform="matrix(0.54035767,0,0,0.61994709,107.36254,29.756087)"
       inkscape:transform-center-y="-2.6803592"
       inkscape:transform-center-x="0.17047561"
       d="m 289.753,124.03 -55.20383,-45.076387 -1.71571,46.276557 25.81127,-66.431328 -44.5418,12.668501 71.15607,4.019569 -25.81264,-38.44699 18.1656,68.915558 28.58872,-36.43005 -59.92912,38.57259 z"
       inkscape:randomized="0"
       inkscape:rounded="0"
       inkscape:flatsided="false"
       sodipodi:arg2="-2.8956907"
       sodipodi:arg1="0.92139558"
       sodipodi:r2="26.721956"
       sodipodi:r1="48.429413"
       sodipodi:cy="85.458572"
       sodipodi:cx="260.46729"
       sodipodi:sides="5"
       id="use908"
       style="opacity:0.77399998;fill:#fff9f9;fill-opacity:1;stroke:#060606;stroke-width:0;stroke-miterlimit:4;stroke-dasharray:none;stroke-opacity:1"
       sodipodi:type="star" /><path
       transform="matrix(0.54035767,0,0,0.61994709,104.11102,-5.40073)"
       inkscape:transform-center-y="-2.6803592"
       inkscape:transform-center-x="0.17047561"
       d="m 289.753,124.03 -55.20383,-45.076387 -1.71571,46.276557 25.81127,-66.431328 -44.5418,12.668501 71.15607,4.019569 -25.81264,-38.44699 18.1656,68.915558 28.58872,-36.43005 -59.92912,38.57259 z"
       inkscape:randomized="0"
       inkscape:rounded="0"
       inkscape:flatsided="false"
       sodipodi:arg2="-2.8956907"
       sodipodi:arg1="0.92139558"
       sodipodi:r2="26.721956"
       sodipodi:r1="48.429413"
       sodipodi:cy="85.458572"
       sodipodi:cx="260.46729"
       sodipodi:sides="5"
       id="use928"
       style="opacity:0.77399998;fill:#fff9f9;fill-opacity:1;stroke:#060606;stroke-width:0;stroke-miterlimit:4;stroke-dasharray:none;stroke-opacity:1"
       sodipodi:type="star" /><path
       transform="matrix(0.54035767,0,0,0.61994709,75.38245,6.61694)"
       inkscape:transform-center-y="-2.6803592"
       inkscape:transform-center-x="0.17047561"
       d="m 289.753,124.03 -55.20383,-45.076387 -1.71571,46.276557 25.81127,-66.431328 -44.5418,12.668501 71.15607,4.019569 -25.81264,-38.44699 18.1656,68.915558 28.58872,-36.43005 -59.92912,38.57259 z"
       inkscape:randomized="0"
       inkscape:rounded="0"
       inkscape:flatsided="false"
       sodipodi:arg2="-2.8956907"
       sodipodi:arg1="0.92139558"
       sodipodi:r2="26.721956"
       sodipodi:r1="48.429413"
       sodipodi:cy="85.458572"
       sodipodi:cx="260.46729"
       sodipodi:sides="5"
       id="use930"
       style="opacity:0.77399998;fill:#fff9f9;fill-opacity:1;stroke:#060606;stroke-width:0;stroke-miterlimit:4;stroke-dasharray:none;stroke-opacity:1"
       sodipodi:type="star" /><path
       transform="matrix(0.54035767,0,0,0.61994709,191.96538,76.138291)"
       inkscape:transform-center-y="-2.6803592"
       inkscape:transform-center-x="0.17047561"
       d="m 289.753,124.03 -55.20383,-45.076387 -1.71571,46.276557 25.81127,-66.431328 -44.5418,12.668501 71.15607,4.019569 -25.81264,-38.44699 18.1656,68.915558 28.58872,-36.43005 -59.92912,38.57259 z"
       inkscape:randomized="0"
       inkscape:rounded="0"
       inkscape:flatsided="false"
       sodipodi:arg2="-2.8956907"
       sodipodi:arg1="0.92139558"
       sodipodi:r2="26.721956"
       sodipodi:r1="48.429413"
       sodipodi:cy="85.458572"
       sodipodi:cx="260.46729"
       sodipodi:sides="5"
       id="use932"
       style="opacity:0.77399998;fill:#fff9f9;fill-opacity:1;stroke:#060606;stroke-width:0;stroke-miterlimit:4;stroke-dasharray:none;stroke-opacity:1"
       sodipodi:type="star" /><path
       transform="matrix(0.54035767,0,0,0.61994709,209.87855,64.853955)"
       inkscape:transform-center-y="-2.6803592"
       inkscape:transform-center-x="0.17047561"
       d="m 289.753,124.03 -55.20383,-45.076387 -1.71571,46.276557 25.81127,-66.431328 -44.5418,12.668501 71.15607,4.019569 -25.81264,-38.44699 18.1656,68.915558 28.58872,-36.43005 -59.92912,38.57259 z"
       inkscape:randomized="0"
       inkscape:rounded="0"
       inkscape:flatsided="false"
       sodipodi:arg2="-2.8956907"
       sodipodi:arg1="0.92139558"
       sodipodi:r2="26.721956"
       sodipodi:r1="48.429413"
       sodipodi:cy="85.458572"
       sodipodi:cx="260.46729"
       sodipodi:sides="5"
       id="use934"
       style="opacity:0.77399998;fill:#fff9f9;fill-opacity:1;stroke:#060606;stroke-width:0;stroke-miterlimit:4;stroke-dasharray:none;stroke-opacity:1"
       sodipodi:type="star" /><path
       transform="matrix(0.54035767,0,0,0.61994709,265.49885,66.47321)"
       inkscape:transform-center-y="-2.6803592"
       inkscape:transform-center-x="0.17047561"
       d="m 289.753,124.03 -55.20383,-45.076387 -1.71571,46.276557 25.81127,-66.431328 -44.5418,12.668501 71.15607,4.019569 -25.81264,-38.44699 18.1656,68.915558 28.58872,-36.43005 -59.92912,38.57259 z"
       inkscape:randomized="0"
       inkscape:rounded="0"
       inkscape:flatsided="false"
       sodipodi:arg2="-2.8956907"
       sodipodi:arg1="0.92139558"
       sodipodi:r2="26.721956"
       sodipodi:r1="48.429413"
       sodipodi:cy="85.458572"
       sodipodi:cx="260.46729"
       sodipodi:sides="5"
       id="use936"
       style="opacity:0.77399998;fill:#fff9f9;fill-opacity:1;stroke:#060606;stroke-width:0;stroke-miterlimit:4;stroke-dasharray:none;stroke-opacity:1"
       sodipodi:type="star" /></g></svg>