<?xml version="1.0" encoding="UTF-8" standalone="no"?>
<!-- Generator: Adobe Illustrator 16.0.0, SVG Export Plug-In . SVG Version: 6.00 Build 0)  -->

<svg
   xmlns:dc="http://purl.org/dc/elements/1.1/"
   xmlns:cc="http://creativecommons.org/ns#"
   xmlns:rdf="http://www.w3.org/1999/02/22-rdf-syntax-ns#"
   xmlns:svg="http://www.w3.org/2000/svg"
   xmlns="http://www.w3.org/2000/svg"
   xmlns:sodipodi="http://sodipodi.sourceforge.net/DTD/sodipodi-0.dtd"
   xmlns:inkscape="http://www.inkscape.org/namespaces/inkscape"
   version="1.1"
   id="svg2"
   inkscape:version="0.92.2 5c3e80d, 2017-08-06"
   sodipodi:docname="yellowRight.svg"
   x="0px"
   y="0px"
   width="430.543px"
   height="325.295px"
   viewBox="0 0 430.543 325.295"
   enable-background="new 0 0 430.543 325.295"
   xml:space="preserve"><metadata
     id="metadata10"><rdf:RDF><cc:Work
         rdf:about=""><dc:format>image/svg+xml</dc:format><dc:type
           rdf:resource="http://purl.org/dc/dcmitype/StillImage" /></cc:Work></rdf:RDF></metadata><path
     id="path6053"
     inkscape:connector-curvature="0"
     sodipodi:nodetypes="ccccccccc"
     fill="#F2F2F2"
     d="M215.271,11.589  l205.451,122.629v68l-93.813-55.969l0,0l-37.156-22.188v-0.031l-74.011-44.163L215.271,11.589z" /><defs
     id="defs4"><inkscape:perspective
       sodipodi:type="inkscape:persp3d"
       inkscape:vp_x="0 : 526.18109 : 1"
       inkscape:vp_y="0 : 1000 : 0"
       inkscape:vp_z="744.09448 : 526.18109 : 1"
       id="perspective2985"
       inkscape:persp3d-origin="372.04724 : 350.78739 : 1" /></defs><sodipodi:namedview
     units="mm"
     pagecolor="#ffffff"
     bordercolor="#666666"
     borderopacity="1.0"
     inkscape:zoom="0.70000001"
     inkscape:cx="182.08663"
     inkscape:cy="74.553522"
     showgrid="false"
     showguides="true"
     fit-margin-top="0"
     fit-margin-left="0"
     id="base"
     inkscape:document-units="mm"
     inkscape:current-layer="svg2"
     inkscape:object-nodes="true"
     inkscape:window-width="1280"
     inkscape:window-height="710"
     inkscape:window-x="0"
     inkscape:window-y="1"
     inkscape:window-maximized="1"
     inkscape:guide-bbox="true"
     fit-margin-right="0"
     fit-margin-bottom="0"
     inkscape:pageopacity="0.0"
     inkscape:pageshadow="2" /><path
     id="path3910"
     inkscape:connector-curvature="0"
     sodipodi:nodetypes="cccccc"
     fill="#D7D7F4"
     d="M224.757,6.177  l205.288,122.462l-9.313,5.563L215.265,11.608L224.757,6.177z" /><path
     id="path3918"
     inkscape:connector-curvature="0"
     fill="#B3B3B3"
     d="M430.043,128.651v68l-9.311,5.555v-68L430.043,128.651z" /><path
     style="fill:#ffff00;stroke-width:1.42857146"
     d="M 328.65806,147.62308 C 279.55092,118.1953 234.16649,91.080522 227.80377,87.368012 L 216.23519,80.617998 215.3632,46.382221 c -0.4796,-18.829675 -0.71864,-34.389126 -0.53121,-34.576556 0.18743,-0.18743 46.42734,27.107169 102.75536,60.654666 l 102.41458,60.995449 0.0424,33.92857 c 0.0233,18.66071 -0.4398,33.887 -1.02909,33.83618 -0.58928,-0.0508 -41.25,-24.16967 -90.35714,-53.59745 z"
     id="path12"
     inkscape:connector-curvature="0" /><path
     style="fill:#ffff00;stroke-width:1.42857146"
     d="M 417.20262,131.37447 C 413.86492,128.99459 277.24514,47.623183 236.15806,23.543456 225.74735,17.442094 217.22949,11.950775 217.22949,11.340526 c 0,-0.61025 1.85971,-1.8798597 4.13268,-2.8213561 3.98285,-1.6497503 7.81393,0.4804077 105.67119,58.7552551 55.84617,33.256885 101.5579,60.932705 101.5816,61.501815 0.0237,0.5691 -1.73684,1.95519 -3.91234,3.08018 -3.53052,1.8257 -4.33623,1.77392 -7.5,-0.48195 z"
     id="path14"
     inkscape:connector-curvature="0" /><path
     style="fill:#ffff00;stroke-width:1.42857146"
     d="m 421.5152,167.83935 v -33.34069 l 3.52117,-2.30715 c 1.93664,-1.26894 3.86521,-2.30716 4.28571,-2.30716 0.4205,0 0.76049,14.94643 0.75552,33.21429 l -0.009,33.21428 -4.27669,2.43356 -4.27668,2.43355 z"
     id="path16"
     inkscape:connector-curvature="0" /></svg>