<?xml version="1.0" standalone="no"?>
<!DOCTYPE svg PUBLIC "-//W3C//DTD SVG 20010904//EN"
 "http://www.w3.org/TR/2001/REC-SVG-20010904/DTD/svg10.dtd">
<svg version="1.0" xmlns="http://www.w3.org/2000/svg"
 width="150.000000pt" height="150.000000pt" viewBox="0 0 150.000000 150.000000"
 preserveAspectRatio="xMidYMid meet">
<metadata>
Created by potrace 1.15, written by Peter Selinger 2001-2017
</metadata>
<g transform="translate(0.000000,150.000000) scale(0.100000,-0.100000)"
fill="#000000" stroke="none">
<path d="M425 1333 c-287 -144 -307 -156 -286 -168 20 -10 21 -13 6 -18 -9 -4
-25 -2 -35 3 -10 6 -21 10 -24 10 -3 0 -6 -185 -6 -410 l0 -410 335 -167 335
-168 335 168 335 167 0 410 0 410 -330 165 c-181 91 -336 165 -342 164 -7 0
-152 -70 -323 -156z m349 62 c34 -15 66 -23 80 -19 16 4 83 -25 237 -102 118
-58 216 -108 219 -111 2 -2 -2 -8 -10 -13 -9 -5 -27 -2 -51 10 -29 15 -40 17
-53 7 -15 -11 -13 -14 15 -31 l32 -19 -58 -29 c-38 -20 -67 -28 -84 -25 -14 3
-37 -1 -51 -8 -38 -22 -65 -18 -140 20 -68 34 -83 49 -57 58 6 2 -26 24 -73
48 -133 69 -156 78 -171 68 -12 -8 -12 -11 1 -19 13 -9 13 -11 0 -19 -8 -6
-12 -12 -10 -14 3 -2 92 -48 199 -102 171 -87 192 -100 176 -111 -13 -9 -23
-10 -36 -3 -13 6 -25 6 -38 -1 -15 -7 -31 -5 -66 10 -30 13 -52 17 -62 11 -10
-5 -33 -2 -63 9 -34 12 -52 14 -65 7 -10 -5 -48 -11 -84 -12 -64 -3 -71 -1
-228 73 l-163 77 263 132 c144 73 267 132 273 132 6 1 37 -10 68 -24z"/>
</g>
</svg>
