<svg version="1.0" xmlns="http://www.w3.org/2000/svg" width="200" height="200" viewBox="0 0 150 150"><path d="M42.5 16.7C13.8 31.1 11.8 32.3 13.9 33.5c2 1 2.1 1.3.6 1.8-.9.4-2.5.2-3.5-.3-1-.6-2.1-1-2.4-1-.3 0-.6 18.5-.6 41v41l33.5 16.7L75 149.5l33.5-16.8L142 116V34l-33-16.5C90.9 8.4 75.4 1 74.8 1.1c-.7 0-15.2 7-32.3 15.6zm34.9-6.2c3.4 1.5 6.6 2.3 8 1.9 1.6-.4 8.3 2.5 23.7 10.2 11.8 5.8 21.6 10.8 21.9 11.1.2.2-.2.8-1 1.3-.9.5-2.7.2-5.1-1-2.9-1.5-4-1.7-5.3-.7-1.5 1.1-1.3 1.4 1.5 3.1l3.2 1.9-5.8 2.9c-3.8 2-6.7 2.8-8.4 2.5-1.4-.3-3.7.1-5.1.8-3.8 2.2-6.5 1.8-14-2-6.8-3.4-8.3-4.9-5.7-5.8.6-.2-2.6-2.4-7.3-4.8-13.3-6.9-15.6-7.8-17.1-6.8-1.2.8-1.2 1.1.1 1.9 1.3.9 1.3 1.1 0 1.9-.8.6-1.2 1.2-1 1.4.3.2 9.2 4.8 19.9 10.2 17.1 8.7 19.2 10 17.6 11.1-1.3.9-2.3 1-3.6.3-1.3-.6-2.5-.6-3.8.1-1.5.7-3.1.5-6.6-1-3-1.3-5.2-1.7-6.2-1.1-1 .5-3.3.2-6.3-.9-3.4-1.2-5.2-1.4-6.5-.7-1 .5-4.8 1.1-8.4 1.2-6.4.3-7.1.1-22.8-7.3L17 34.5l26.3-13.2C57.7 14 70 8.1 70.6 8.1c.6-.1 3.7 1 6.8 2.4z"/></svg>