<?xml version="1.0" encoding="UTF-8" standalone="no"?>
<svg
   xmlns:dc="http://purl.org/dc/elements/1.1/"
   xmlns:cc="http://creativecommons.org/ns#"
   xmlns:rdf="http://www.w3.org/1999/02/22-rdf-syntax-ns#"
   xmlns:svg="http://www.w3.org/2000/svg"
   xmlns="http://www.w3.org/2000/svg"
   xmlns:sodipodi="http://sodipodi.sourceforge.net/DTD/sodipodi-0.dtd"
   xmlns:inkscape="http://www.inkscape.org/namespaces/inkscape"
   width="430.544"
   height="325.295"
   version="1.1"
   id="svg10"
   sodipodi:docname="spaceship.svg"
   inkscape:version="0.92.2 5c3e80d, 2017-08-06">
  <metadata
     id="metadata16">
    <rdf:RDF>
      <cc:Work
         rdf:about="">
        <dc:format>image/svg+xml</dc:format>
        <dc:type
           rdf:resource="http://purl.org/dc/dcmitype/StillImage" />
        <dc:title></dc:title>
      </cc:Work>
    </rdf:RDF>
  </metadata>
  <defs
     id="defs14" />
  <sodipodi:namedview
     pagecolor="#ffffff"
     bordercolor="#666666"
     borderopacity="1"
     objecttolerance="10"
     gridtolerance="10"
     guidetolerance="10"
     inkscape:pageopacity="0"
     inkscape:pageshadow="2"
     inkscape:window-width="1440"
     inkscape:window-height="766"
     id="namedview12"
     showgrid="false"
     inkscape:zoom="0.72549529"
     inkscape:cx="215.272"
     inkscape:cy="162.64751"
     inkscape:window-x="0"
     inkscape:window-y="1"
     inkscape:window-maximized="1"
     inkscape:current-layer="svg10" />
  <path
     d="M98.198 149.193c.172-.278.54-.505.818-.505.277 0 .364.227.193.505-.172.278-.54.505-.818.505-.277 0-.364-.227-.193-.505z"
     fill="#fc0"
     id="path2" />
  <path
     style="fill:#000000"
     id="path18"
     d="m 134.2331,196.46295 c 0.10673,-3.79947 0.0919,-7.60248 0.0384,-11.40286 -0.0418,-1.80172 -0.0463,-3.60518 -0.10137,-5.40657 0.54463,-0.50745 -0.3107,-2.39955 0.8993,-1.86082 0.35598,-1.41243 0.88662,-0.85878 1.30701,-1.16432 0.33818,-0.24578 0.42566,-0.72027 0.65997,-1.06649 1.30429,-0.48601 0.48607,-0.17254 1.18719,-1.28392 0.0869,-0.13775 0.31449,-0.1115 0.43672,-0.21914 0.18316,-0.16129 0.3063,-0.38003 0.45946,-0.57005 2.54033,-3.24355 4.5779,-6.82918 6.81702,-10.28016 2.01908,-2.85614 3.73414,-5.9334 5.96703,-8.6349 4.93411,-6.22718 5.14563,-3.74174 18.8698,-11.8283 0.41453,-0.24425 0.92941,-0.17887 1.36324,-0.0941 0.88873,0.1178 1.78767,0.10796 2.68189,0.15498 0.49005,-0.22427 1.6212,0.32261 2.04477,0.0108 0.13989,-0.10297 0.0981,-0.33327 0.14709,-0.49991 -5.71185,3.26609 -11.42369,6.53218 -17.13554,9.79827 0.22704,-0.4583 0.83075,-0.40308 1.14481,-0.72862 0.97484,-1.01048 1.68715,-2.59926 2.41347,-3.77859 2.72652,-4.33496 6.15281,-8.16782 9.45824,-12.0607 2.8437,-3.28879 5.97225,-6.29879 9.42527,-8.93669 10.31178,15.60032 12.96653,-11.0449 20.89061,-11.54475 0.42563,-0.0268 0.85209,0.0673 1.27833,0.0532 1.48009,0.15668 1.87852,0.18226 3.17305,-0.56048 0.35152,-0.0354 0.71329,-0.0147 1.05455,-0.10613 4.66063,-1.24848 -2.95734,0.37562 2.15015,-0.83444 1.65846,-0.39292 3.30154,-0.81244 4.97416,-1.17324 3.6917,-1.55089 7.73904,-1.61051 11.53983,-2.6621 2.72611,-0.6665 5.47019,-1.18118 8.27202,-1.32419 2.51046,-0.13839 5.02647,-0.0754 7.53937,-0.0675 3.24139,0.0196 6.48279,0.0227 9.72424,0.0197 2.26521,-0.008 4.53049,-0.0405 6.79562,-0.0289 2.27568,-0.006 4.55123,0.0108 6.82688,0.0216 3.18677,-0.078 6.27971,0.83354 9.16594,2.11526 2.79144,0.48382 5.46903,1.31871 8.16814,2.15289 0.43126,0.21797 0.84,0.48785 1.29378,0.65391 4.33546,1.58651 -2.19321,-1.25058 2.6035,0.70878 1.15386,0.47133 2.26875,0.96908 3.43607,1.42239 1.79563,0.57797 3.38371,1.55562 4.9988,2.52036 1.61529,0.50579 2.44832,2.04944 3.40989,3.30988 1.3892,1.62503 2.43486,3.47959 3.29921,5.46776 0.91059,2.2674 2.13319,4.38952 2.964,6.68714 1.13081,1.93613 2.05093,4.02352 3.30726,5.87985 0.87042,1.8474 1.89326,3.59893 2.77,5.44601 0.53619,1.56342 1.34961,2.84362 2.25935,4.18785 0.78703,1.07198 0.60507,2.51364 1.16352,3.64772 0.95209,1.09978 1.12491,2.58312 1.19128,3.97747 0.36332,1.236 0.86363,2.54085 1.54604,3.6591 0.57836,1.27455 1.05922,2.58298 1.63068,3.86594 0.41351,1.39334 1.09698,2.68387 1.83076,3.93862 1.05806,1.21232 1.55479,2.72309 1.79823,4.28518 0.0478,0.78709 0.74742,1.21871 1.1065,1.88618 0.43007,0.88738 0.36424,1.86964 0.40838,2.82391 -0.0392,0.79991 -0.0361,1.59989 -0.0605,2.40046 -0.0709,0.98236 0.53556,1.79134 0.84008,2.71526 0.28862,0.91997 0.46035,1.87214 0.51323,2.83378 -0.0926,0.73624 0.30003,0.89901 0.50557,1.8604 -0.0777,0.30064 0.22795,0.59455 0.16711,0.8903 -0.0182,0.0886 -0.33699,-0.0723 -0.36538,0.0171 -0.47244,1.4862 0.33662,0.0244 -0.23629,0.97594 -6.41601,4.624 4.21614,-1.63066 -19.06544,10.51214 -0.18805,0.0981 -0.43184,-0.11939 -0.63391,-0.0549 -0.35398,0.1129 -0.59002,0.46706 -0.93308,0.60975 -0.94275,0.85767 -2.69764,0.51168 -3.91794,0.56228 -2.05958,0.11122 -3.09404,0.16183 -4.99692,-0.62415 -0.90404,-0.33575 -1.9243,-0.38165 -2.69115,-1.01948 -1.18344,-0.98434 -0.18996,-0.53847 -1.22088,-0.91185 -0.85188,-0.48418 -1.97893,-0.23685 -2.94235,-0.22122 -1.04045,0.0316 -2.08114,0.0424 -3.12189,0.0538 -1.29705,0.15116 -2.17638,-0.0797 -3.27298,-0.76524 -0.94386,-0.95169 -2.42372,-0.71294 -3.68836,-0.69304 -1.10723,0.0357 -2.21488,0.0469 -3.32204,0.0854 -0.75827,0.57724 -2.37258,-1.985 -2.64968,-1.66753 -0.70168,0.29394 -1.57596,0.23259 -2.34144,0.26165 -1.20536,0.016 -2.41079,0.01 -3.61622,0.0172 -1.62723,0.003 -3.25439,-0.0119 -4.88159,-0.0213 -1.48269,-0.28425 -2.72154,0.39462 -4.0957,0.73733 -1.48935,0.37144 -3.11605,0.41206 -4.63994,0.52204 -1.89361,0.11529 -3.79373,0.1913 -5.69141,0.16747 -1.44545,-0.22164 -2.68414,0.70667 -4.03834,0.98977 -0.55757,0.11657 -1.13628,0.0823 -1.70442,0.1234 -3.14661,0.27853 -6.30882,0.25303 -9.46451,0.24139 -3.33383,-0.0156 -6.6671,-0.0541 -10.00091,-0.0699 -5.36039,-0.062 -10.72115,-0.0381 -16.08176,-0.0553 -4.83994,0.16435 -9.71349,-0.25013 -14.53318,0.26344 -4.33372,0.67797 -8.65032,1.12335 -13.03597,1.23985 -3.10472,0.0444 -6.20969,0.007 -9.31458,0.003 -1.24796,-0.0255 -2.49643,0.0187 -3.7442,-0.002 -0.80096,0.0136 -1.6022,0.0187 -2.40303,-10e-4 -1.42419,0.005 -2.84822,-0.0137 -4.27234,-0.0148 -1.53706,0.004 -3.07427,0.0189 -4.61124,-0.001 -2.0644,0.247 -3.93126,-0.38466 -5.91939,-0.80967 -1.93633,-0.47143 -3.93345,-0.5196 -5.91488,-0.5694 -2.099,-0.0486 -4.19844,-0.003 -6.29752,-0.011 -8.50803,0.0947 -5.51569,2.55722 15.34013,-12.05928 0,0 -16.63977,12.08241 -16.63977,12.08241 v 0 c 15.04766,-11.35488 9.6611,-12.26183 17.88379,-12.07449 2.10337,-0.0117 4.20651,0.0336 6.30893,0.0978 2.06683,0.0989 4.11872,0.3198 6.12616,0.84786 1.89939,0.39337 3.76327,0.55788 5.7076,0.43874 1.53798,-0.0193 3.07616,-0.005 4.61423,-0.001 1.43801,-0.001 2.87592,-0.0202 4.31399,-0.0157 0.80428,-0.0189 1.60904,-0.0176 2.41332,0.003 1.22856,-0.0108 2.45732,0.06 3.68588,0.0678 3.03457,0.0751 6.07049,0.11511 9.1055,0.0324 4.35383,-0.17709 8.63175,-0.86538 12.96357,-1.2894 4.8368,-0.20992 9.67884,-0.0404 14.51877,-0.0665 5.40619,-0.0163 10.81245,0.007 16.21854,-0.0389 3.3605,-0.002 6.72071,-0.0155 10.08117,0.009 3.08364,-0.004 6.1848,0.002 9.2384,-0.4861 2.00763,-0.52299 3.99696,-1.13811 6.09616,-0.96152 1.81594,-0.0199 3.63329,-0.0345 5.44161,-0.22877 2.98449,-0.35812 5.88291,-1.29798 8.91581,-1.15006 1.64601,-0.01 3.292,-0.0232 4.93798,-0.0317 1.2114,-0.004 2.42259,-0.028 3.63366,-0.0548 1.03924,0.008 2.08579,0.0411 2.98178,0.638 0.73573,0.71415 0.98218,0.96913 2.01173,0.75878 1.12376,4.4e-4 2.24891,-0.0347 3.37108,0.0406 1.50879,0.15865 2.88419,0.49348 4.16045,1.35897 0.86699,0.21721 1.84473,-0.12569 2.74742,-0.003 1.04854,-0.008 2.09829,-0.0365 3.14614,0.0165 1.27219,0.0822 2.46538,0.2638 3.50271,1.07405 1.12913,0.81847 2.32315,1.22634 3.67717,1.58003 1.46645,0.32735 3.03532,0.003 4.52516,-0.007 1.32497,-0.12637 2.44413,-0.49323 3.61059,-1.03141 1.27992,-0.38093 -0.0451,-0.0664 1.30242,-0.13898 7.94717,-0.42799 -23.1757,13.79992 -16.06734,9.26798 0.24753,-0.0229 0.49922,0.30585 0.7205,0.19255 0.51799,-0.26522 -0.7441,-1.06733 0.46454,-0.3985 0.12201,0.004 0.39837,0.24729 0.33795,0.1412 -0.33658,-0.59097 -0.89342,-1.0732 -0.72465,-1.81932 -0.008,-0.79534 -0.0314,-1.59461 -0.2414,-2.36744 -0.31157,-1.12576 -1.10936,-2.08241 -1.14763,-3.25842 -0.0142,-0.80816 0.0132,-1.61405 0.0158,-2.42189 0.0657,-0.64458 0.0506,-1.30167 0.0759,-1.94663 -0.52502,-0.76996 -1.40887,-1.53561 -1.41726,-2.54284 -0.0619,-1.35542 -0.40794,-2.52716 -1.35889,-3.54746 -0.76143,-1.31916 -1.55388,-2.67172 -1.96517,-4.13106 -0.51814,-1.20955 -1.06574,-2.36874 -1.44069,-3.62723 -0.90585,-1.42344 -1.46587,-3.04197 -2.09324,-4.59838 -0.0105,-1.20631 0.0696,-2.25992 -0.81219,-3.20652 -0.53049,-1.12248 -0.64068,-2.24477 -0.99717,-3.41512 -0.92793,-1.4383 -1.82265,-2.78263 -2.35638,-4.43692 -0.88601,-1.74334 -1.76358,-3.46329 -2.60032,-5.22441 -1.34565,-2.01158 -2.316,-4.26135 -3.56493,-6.34 -0.75333,-2.27795 -1.97944,-4.35413 -2.90758,-6.56221 -0.76086,-1.84994 -1.77338,-3.47972 -3.05381,-4.99576 -0.87106,-1.1062 -1.62886,-2.08154 -2.99115,-2.62718 -1.55323,-0.85127 -3.08289,-1.74453 -4.78273,-2.28272 -2.4009,-0.90207 -4.77044,-1.85945 -7.20626,-2.67106 -2.76509,-0.75708 -5.52317,-1.53497 -8.27206,-2.33188 -2.8209,-1.02513 -5.70531,-1.65768 -8.73122,-1.46053 -2.29565,0.0108 -4.59119,0.0282 -6.88686,0.0216 -2.23679,0.0109 -4.47372,-0.0217 -6.71055,-0.0351 -3.24628,-0.009 -6.49253,-0.0173 -9.73881,-0.006 -2.49325,0.01 -4.98987,0.0208 -7.4763,0.22778 -2.70856,0.30929 -5.37695,0.88694 -8.03059,1.50319 -3.87934,0.69208 -7.72549,1.45185 -11.48485,2.66738 -2.76014,0.76489 -5.52632,1.5106 -8.24238,2.4102 -1.15874,0.20035 -2.33177,-0.0383 -3.49261,0.19176 -5.98388,1.08641 -21.77209,16.84068 13.34925,-8.28615 -3.63565,2.4826 -6.93602,5.34818 -9.90393,8.61136 -3.25173,3.77721 -6.50957,7.5773 -9.34879,11.67879 -0.75109,1.20032 -1.6325,2.46577 -2.2065,3.768 -0.12864,0.29185 -0.10703,0.6454 -0.27521,0.91639 -0.13026,0.20988 -0.38659,0.30759 -0.57989,0.46139 -6.04917,3.51386 -12.09835,7.02773 -18.14753,10.5416 -0.90487,-0.24874 -1.82993,-0.16418 -2.76409,-0.21427 -0.8092,-0.0239 -1.64048,-0.0802 -2.42639,0.14644 -7.27113,5.68318 21.75675,-15.81791 15.09202,-8.44227 -0.55532,0.66329 -1.24651,1.20842 -1.77483,1.89342 -0.34243,0.44397 -0.53341,0.98979 -0.85961,1.44583 -0.36106,0.50476 -0.84415,0.91571 -1.1955,1.42727 -4.95542,7.21488 3.12718,-3.73104 -2.44977,3.7123 -1.67946,2.73915 -0.77644,1.40632 -2.71136,3.99693 -1.27841,2.05755 -2.14963,4.43205 -3.79371,6.25681 -0.13066,0.21428 -0.28188,0.41732 -0.39198,0.64285 -0.104,0.21302 -0.0437,0.54542 -0.24738,0.66673 -0.18286,0.10893 -0.43654,-0.25614 -0.62079,-0.14956 -0.34248,0.1981 0.22447,1.56501 -0.50983,1.59707 -1.7718,0.22662 -0.30592,1.55991 -2.24283,1.4425 0.0148,2.31858 -1.62703,-1.15541 -1.08441,1.50489 -0.11763,0.0244 -0.30093,-0.0352 -0.35289,0.0731 -0.39256,0.81841 0.2857,3.84624 -0.0782,4.73017 -0.0526,3.78732 -0.0698,7.57735 0.0384,11.36372 0,0 -18.23449,9.29094 -18.23449,9.29094 z"
     inkscape:connector-curvature="0" />
  <path
     style="fill:#000000"
     id="path20"
     d="m 133.45978,201.71637 c -5.15508,-0.0981 -10.31235,-0.0622 -15.46818,-0.0339 -2.58915,0.0341 -5.17862,0.0421 -7.76767,0.0836 -1.40874,0.0116 -2.81704,0.0114 -4.22547,-0.0204 -4.52692,-0.3369 -8.974089,0.41227 -13.445212,1.00228 -6.198096,0.82552 -12.436578,1.28652 -18.679787,1.58744 -2.571033,0.097 -5.14199,0.19359 -7.714875,0.20908 -0.761906,0.008 -1.523654,-0.005 -2.285565,7.5e-4 -0.767985,-0.009 0.02945,-0.11498 -0.452886,0.50506 -0.107694,0.13845 -0.625386,0.31724 -0.473509,0.2295 5.693486,-3.28914 11.375428,-6.59877 17.099505,-9.83438 0.156717,-0.0886 -0.223666,0.29464 -0.380193,0.38356 -6.05742,3.44122 -12.162529,6.79781 -18.243793,10.19671 -1.903733,0.95632 -4.054328,1.35913 -5.821793,2.5598 -13.312809,6.68035 21.223899,-12.6384 12.708491,-7.55938 -0.694253,0.10233 -1.180004,0.93214 -1.242674,1.61238 -0.05301,0.74521 -0.03373,1.49165 -0.0206,2.23794 0.0011,0.94346 0.0135,1.88674 0.02063,2.83049 -0.02909,0.90236 0.0267,1.8049 -0.0064,2.70691 0.03446,0.712 1.2e-4,1.42209 0.01859,2.13411 0.03497,0.56667 -0.139065,1.19062 0.112014,1.60289 0.601844,0.67677 0.794938,1.58692 1.05696,2.43384 0.104021,0.66052 0.647857,0.92939 1.080338,1.34973 0.696341,1.18968 0.594823,0.88947 1.608838,0.8103 0.855988,0.71517 1.689854,1.1554 2.801163,1.21192 1.473932,-0.0723 2.145629,0.24864 3.493842,0.71765 0.795243,0.0307 1.41343,0.67215 2.105778,0.9048 0.597299,0.20072 1.650956,-0.008 2.273569,-0.0201 1.621979,-0.0489 0.125279,-0.14288 2.012028,0.55768 0.631515,0.23449 1.351856,0.15932 1.980849,0.40049 1.570388,0.84073 0.793753,0.51421 2.311791,1.02157 0.353943,0.0827 0.726877,0.10687 1.061828,0.248 0.438865,0.18491 0.801825,0.52009 1.234315,0.71945 2.182661,1.00615 0.07408,-0.22871 2.315725,0.6392 4.823831,1.86768 -1.785884,-0.25078 2.612416,1.10194 0.428091,0.0921 0.872762,0.12673 1.284274,0.27643 0.49981,0.18182 0.935033,0.51246 1.428649,0.71048 3.436894,1.37876 -0.788566,-0.54766 2.646444,0.67081 5.91326,2.09755 -2.542694,-0.46567 2.79334,1.10093 3.01529,1.3073 6.22022,2.03989 9.31269,3.10348 3.25953,1.10389 6.22364,2.83537 9.51044,3.88639 1.99154,1.06754 4.0664,1.86505 6.08059,2.89948 1.21531,0.46898 2.5086,0.25125 3.65445,0.8198 1.37711,1.10655 3.24869,0.98073 4.93723,1.02042 2.22124,-0.11056 4.32301,0.64723 6.5143,0.96487 2.03088,0.31066 4.09824,0.13495 6.10764,0.61134 4.90344,1.16251 -1.16748,0.03 3.26136,0.80712 3.87867,0.43925 7.78883,0.40213 11.68597,0.44822 5.83549,0.0121 11.67099,0.0281 17.50653,0.0292 6.8419,0.01 13.6838,8e-4 20.52568,-0.0146 6.11,-0.0118 12.21998,-0.009 18.33,-0.0133 5.14328,-0.0237 10.28661,-0.0151 15.42992,-0.0388 4.32005,-0.004 8.63993,-0.0108 12.95999,-0.004 4.83636,-0.18997 9.62798,0.52239 14.43678,0.91386 5.01902,0.37131 10.05325,0.4252 15.08343,0.47148 4.25128,6e-4 8.50283,0.0149 12.75403,-0.0177 3.7039,-0.022 7.4079,0.003 11.11186,1.9e-4 3.79472,0.0765 7.53255,0.11989 11.27386,-0.53027 2.8616,-0.2955 5.60504,-1.09818 8.43425,-1.55737 3.45119,-0.43033 6.81321,-1.08493 10.15958,-2.04288 4.94698,-0.95341 9.78407,-2.41007 14.66335,-3.65775 0.94234,-0.2511 1.87458,-0.54373 2.82702,-0.75329 8.4363,-1.85623 -2.73049,0.87523 5.48051,-1.00247 2.29828,-0.52558 4.56484,-1.225 6.85618,-1.78615 2.10914,-0.72389 4.30641,-0.97 6.50367,-1.20429 0.39228,-0.38182 0.86708,-0.74052 1.3231,-1.02209 5.4452,-3.36216 -22.21513,12.71583 -16.60748,9.63224 6.16242,-3.38865 12.21544,-6.97257 18.32316,-10.45885 -5.68968,3.26089 -11.37773,6.52462 -17.06903,9.78267 -0.24883,0.14244 0.49252,-0.29375 0.74155,-0.43582 6.15502,-3.51154 12.31363,-7.01677 18.47054,-10.52499 0.33264,-0.18954 1.33005,-0.75908 0.99812,-0.56829 -5.45013,3.13258 -21.88265,12.38313 -16.35271,9.39369 6.37225,-3.44478 12.58691,-7.17342 18.88037,-10.76012 -0.92084,0.24287 4.28681,-2.03656 3.26472,-1.43071 -5.22615,3.09779 -21.02198,12.18542 -15.84756,9.00197 6.15856,-3.78893 12.55933,-7.1698 18.8015,-10.81933 5.30725,-3.10292 -10.66442,6.11963 -15.99663,9.17944 6.23137,-3.61374 12.46275,-7.22748 18.69413,-10.84122 2.36444,-0.86106 0.28238,-0.009 2.28757,-1.07588 0.32773,-0.17443 1.33343,-0.65082 1.01222,-0.46465 -5.61608,3.25514 -22.58579,12.80746 -16.90095,9.67393 6.98664,-3.85111 40.10603,-23.07227 1.22869,-0.56356 0.56404,-0.60147 1.10527,-0.98095 1.38311,-1.76635 0.17599,-1.5569 0.13349,-3.13625 0.11657,-4.70168 -0.0193,-1.66319 -0.003,-3.3265 -0.032,-4.98957 0.13626,-1.38105 -0.21792,-2.28887 -1.51573,-2.8431 -0.79278,-1.63312 -2.24195,-1.22191 -3.53147,-2.01068 -0.40413,-0.7352 -1.70751,-0.49397 -2.2075,-0.80713 -0.50506,-0.31633 -0.82728,-0.859 -1.26529,-1.2631 -1.26131,0.0973 -2.0275,-1.3085 -3.16779,-1.39375 -0.80288,-1.20624 -2.25828,-1.53032 -3.3809,-2.40445 -1.65629,-0.34687 -2.67374,-1.85845 -4.05863,-2.71702 -1.52512,-0.38233 -2.88001,-1.45799 -4.44373,-1.72847 -0.25396,-0.0443 -0.53539,-0.01 -0.76188,-0.13289 -0.34732,-0.18878 -0.589,-0.52838 -0.90109,-0.77101 -2.15621,-1.67632 0.91472,0.72806 -1.21348,-0.49732 -0.56457,-0.32507 -1.00879,-0.83231 -1.56763,-1.16713 -1.81251,-0.59696 -3.55762,-1.26417 -5.42698,-1.69014 -0.55462,-0.8842 -1.82716,-0.78708 -2.5639,-1.25133 -0.34295,-0.21611 -0.53657,-0.61704 -0.86471,-0.85503 -0.3963,-0.28743 -0.90232,-0.38201 -1.33936,-0.60263 -1.10459,-0.34859 -2.16194,-0.87093 -3.24611,-1.43126 -1.14596,-0.14078 -1.8382,-1.13794 -2.82277,-1.7003 -0.58254,-0.14142 -1.35551,0.0856 -2.02246,0.13338 -1.2891,0.0336 -2.58227,0.004 -3.87307,0.0304 -1.35821,-0.006 -2.71628,-2.8e-4 -4.07459,0.009 -1.50626,-0.019 -3.01313,-0.005 -4.51953,-0.0217 -1.4516,0.0139 -2.90315,-0.001 -4.35452,0.0247 -0.47198,-0.15409 -2.3742,0.22931 -2.67635,-4e-5 -0.33213,-0.25211 -0.52202,-0.65037 -0.78303,-0.97555 -0.90876,-0.11277 0.0279,0.10331 -1.08033,-0.99293 -0.13152,-0.1301 -0.34416,-0.13842 -0.50586,-0.22829 -0.83195,-0.46238 -0.97543,-0.66856 -1.468,-1.54988 -0.37209,-0.74048 -0.1925,-0.3014 -0.46526,-1.34498 0,0 18.13441,-9.67826 18.13441,-9.67826 v 0 c 0.0269,0.55117 -0.0323,0.29021 0.16886,0.78483 0.84692,0.76176 1.79427,1.51905 2.73789,2.19989 -0.0276,-0.10535 -0.16801,-0.24825 -0.0828,-0.31605 0.27314,-0.2173 2.22654,0.14391 2.6765,-2e-5 1.42858,0.0271 2.85741,0.0102 4.28625,0.025 1.52559,-0.0158 3.05162,-0.002 4.57709,-0.0214 1.35002,0.009 2.69995,0.0119 4.04977,-0.009 1.3042,0.009 2.60822,-0.0381 3.911,-0.0633 0.99142,0.0483 1.92914,0.20839 2.69779,0.89979 0.86133,0.65892 1.66306,1.10514 2.66797,1.45958 1.10787,0.4924 2.17281,1.01814 3.2665,1.52674 1.45318,0.83841 2.84798,1.81498 4.47098,2.30621 1.99085,0.57185 3.93616,1.34689 5.79947,2.24359 1.26438,0.88523 2.64109,1.69697 4.1309,2.10495 1.61886,0.68443 3.28908,1.33817 4.77745,2.26409 1.31161,1.0142 2.58266,2.01096 4.11045,2.68439 1.05878,0.63346 2.14329,1.22634 3.10412,2.00476 1.19294,0.69964 2.44596,1.25265 3.59356,2.01969 0.84492,0.77435 2.19128,0.80654 3.1109,1.53897 1.49851,0.34018 2.66719,1.13948 3.69298,2.26371 1.47423,1.18581 2.64102,2.61039 2.52651,4.61254 -0.0238,1.66553 -7.7e-4,3.33111 1.1e-4,4.99673 2.7e-4,1.62652 0.0218,3.25347 0.0614,4.87945 0.0334,1.10611 -0.0476,2.17633 -0.89572,2.96675 -5.99986,3.64696 -13.37987,5.65344 -17.99958,10.94087 -4.30234,4.9242 22.77507,-12.8554 16.99722,-9.79363 -6.20001,3.28548 -12.16971,6.98834 -18.26448,10.46517 -1.03126,0.5883 -2.15513,0.97522 -3.16866,1.5977 41.39417,-24.07336 -0.62769,0.34497 -2.69148,1.63564 -5.23737,3.27536 21.51047,-12.15075 16.04223,-9.27735 -7.59053,3.9886 -14.59477,8.82717 -22.31974,12.45798 5.36386,-3.11948 21.48645,-12.424 16.09159,-9.35843 -6.24541,3.54889 -12.41734,7.22567 -18.64337,10.80845 -0.34483,0.19843 -1.41096,0.73466 -1.06735,0.53413 5.55052,-3.23926 11.12307,-6.44064 16.69009,-9.65147 0.23787,-0.1372 -0.46828,0.28694 -0.70241,0.43042 -6.05136,3.47571 -12.10272,6.95142 -18.15409,10.42713 5.63216,-3.25088 22.64511,-12.79281 16.89648,-9.75263 -5.27347,2.78889 -12.97502,9.89778 -20.41507,11.04139 -2.0723,0.19921 -4.08227,0.81767 -6.10797,1.26445 -5.00427,1.23792 -10.05885,2.21405 -15.05221,3.4861 -4.9256,1.28649 -9.83126,2.65156 -14.79557,3.78402 -3.3911,0.85355 -6.84088,1.32745 -10.28109,1.94274 -2.81081,0.61098 -5.63138,1.13245 -8.48862,1.48439 -3.78326,0.43287 -7.58998,0.19494 -11.3909,0.25632 -3.70963,-6.4e-4 -7.41922,0.0271 -11.12882,0.0135 -4.22499,-0.0262 -8.45035,8.2e-4 -12.67509,-0.0691 -5.06176,-0.0644 -10.12661,-0.18313 -15.17441,-0.58816 -4.78517,-0.41683 -9.5634,-0.97266 -14.37758,-0.74668 -4.31621,0.007 -8.63224,3e-4 -12.94844,-0.004 -5.10761,-0.0239 -10.21523,-0.0151 -15.32281,-0.0391 -6.09794,-0.004 -12.19585,-0.002 -18.29378,-0.0126 -6.8364,-0.0135 -13.67283,-0.0195 -20.50922,0.005 -5.88616,0.0157 -11.77209,0.0659 -17.65832,0.0639 -4.0174,0.001 -8.06068,-0.0239 -12.03328,-0.69393 -3.09751,-0.73063 -6.2041,-0.98111 -9.36352,-1.31075 -2.1463,-0.37386 -4.26224,-0.83197 -6.45656,-0.75887 -1.85295,-0.17732 -3.58244,-0.56959 -5.25561,-1.41143 -1.35999,-0.0706 -2.6751,-0.52281 -3.87149,-1.16089 -1.84441,-1.07527 -3.90349,-1.69481 -5.7874,-2.70278 -3.16486,-1.24384 -6.180485,-2.86258 -9.438646,-3.86751 -3.142796,-0.96514 -6.288195,-1.90976 -9.36243,-3.08553 -2.702691,-1.00095 -5.450205,-1.86994 -8.183104,-2.78183 -2.408186,-0.95146 -4.845075,-1.8195 -7.274062,-2.71167 -1.906084,-0.76977 -3.919122,-1.43007 -5.99021,-1.42777 -1.657298,-0.17459 -3.126997,-0.79181 -4.697292,-1.31487 -1.110364,-0.31511 -2.29761,-0.16416 -3.414973,-0.54054 -0.9384,-0.32144 -1.812977,-1.00406 -2.77282,-1.09265 -0.981474,-0.33096 -1.651373,-0.97403 -2.25196,-1.80324 -0.762997,-0.63332 -1.307598,-1.46875 -1.704402,-2.37475 -0.152267,-0.71499 -0.234198,-1.36796 -0.736518,-1.92937 -0.538057,-0.8855 -0.787212,-1.54737 -0.672881,-2.57953 0.01823,-0.71843 -0.01528,-1.43488 0.01896,-2.15332 -0.03411,-0.89818 0.02415,-1.79704 -0.0078,-2.69558 0.0039,-0.93722 0.0115,-1.87398 -0.0083,-2.81087 -0.0065,-0.78975 -0.04064,-1.57745 -0.05235,-2.36662 0.03793,-1.19801 0.107847,-2.21635 0.482087,-3.38767 7.051299,-4.89634 14.652883,-8.97955 22.381689,-12.69479 2.047319,-0.80993 4.070994,-1.68546 6.153746,-2.39529 -5.58774,3.20013 -22.27694,12.92893 -16.707044,9.69784 6.049155,-3.50911 12.048962,-7.1027 18.089352,-10.62688 0.160393,-0.0936 0.324271,-0.21748 0.509832,-0.22454 0.339865,-0.0129 0.646176,0.30984 1.004408,0.17956 0.739736,0.0161 1.479573,0.0161 2.219317,0.0315 2.467913,0.0175 4.936771,2.1e-4 7.403063,-0.0977 6.1628,-0.26541 12.317338,-0.73332 18.424928,-1.6233 4.63753,-0.6496 9.25113,-1.22629 13.94617,-1.03105 1.42719,-0.0304 2.85422,-0.033 4.28168,-0.0204 2.51234,0.0421 5.02514,0.049 7.5376,0.0836 5.18692,0.0289 10.37517,0.0628 15.56139,-0.0339 0,0 -16.4836,11.97603 -16.4836,11.97603 z"
     inkscape:connector-curvature="0" />
  <path
     style="fill:#000000"
     id="path22"
     d="m 192.06691,128.13002 c -1.56552,0.56514 -3.16596,0.70764 -4.66236,1.47508 -0.45247,0.23205 -0.84479,0.57462 -1.30679,0.78705 -0.76103,0.34992 -1.59028,0.52834 -2.37317,0.82615 -0.29545,0.23226 -0.55223,0.52471 -0.88634,0.69677 -0.61839,0.31844 -1.3329,0.4086 -1.97054,0.68651 -0.29738,0.12961 -1.16489,0.56936 -0.88375,0.40752 5.56288,-3.2022 22.3686,-12.60149 16.73222,-9.5305 -6.21418,3.38581 -12.31061,6.98341 -18.46592,10.47511 -1.73339,0.0198 -3.17409,1.03751 -4.8209,1.38915 5.74042,-3.2387 22.69148,-13.39286 17.22128,-9.71611 -5.76942,3.87787 -12.03594,6.96117 -18.12152,10.3212 -0.14918,0.0824 -0.65721,0.0518 -0.51007,-0.0341 5.73819,-3.24083 11.47639,-6.48166 17.21458,-9.72249 -0.34949,0.40554 -0.15105,0.26323 -0.56795,0.4627 -0.50782,0.61544 -0.38262,1.51459 -0.36881,2.26471 0.0353,1.06429 0.0216,2.12964 0.053,3.19385 0.12381,0.95077 -0.10896,1.83541 -0.0707,2.68723 -9.82648,18.76309 -19.67536,13.82721 -19.46995,4.67986 0.30995,-2.40896 1.34244,-4.73624 2.94202,-6.56315 0.54805,-0.42765 0.83069,-1.09187 1.3214,-1.56749 0.51858,-0.50264 1.31875,-1.03641 1.94517,-1.40567 6.04546,-3.56364 12.10199,-7.10847 18.15298,-10.66271 1.25224,-0.15979 2.52665,-0.0273 3.78402,0.0432 0.98305,0.0429 1.96704,0.0548 2.95091,0.0579 0,0 -16.67345,12.08025 -16.67345,12.08025 v 0 c -0.97897,-0.0229 -1.95728,-0.0623 -2.93614,-0.0895 -1.11309,0.0134 -2.22291,0.0455 -3.1349,0.77959 5.62024,-3.32534 11.18954,-6.73829 16.8607,-9.97601 0.24695,-0.14099 -0.32457,0.47528 -0.54145,0.65919 -0.20331,0.17241 -0.48537,0.22982 -0.69742,0.39137 -0.2362,0.17994 -0.37632,0.47937 -0.63556,0.62414 -0.28293,0.158 -0.68071,0.058 -0.93822,0.25471 -0.27885,0.21304 -0.37405,0.59383 -0.56108,0.89075 -0.46656,0.48301 -1.0785,0.81828 -1.51281,1.33048 -0.91219,1.07576 -1.6292,2.7332 -1.96355,4.05702 -0.21902,0.86572 -0.16575,1.48464 -0.0448,2.36728 0.0272,0.19824 0.26943,0.49584 0.0944,0.59281 -17.56394,9.73166 -24.76693,7.42063 -17.91707,9.54431 0.82264,0.50368 0.0151,0.14794 0.34218,-0.25996 0.077,-0.0961 0.27522,0.1456 0.36435,0.0607 0.19686,-0.18758 -0.13444,-0.96671 0.005,-1.21836 0.0159,-1.05379 -0.0173,-2.10844 -0.0409,-3.16196 -0.0295,-1.03686 -0.11099,-2.07855 -0.0528,-3.11334 0.0476,-0.41145 -0.0292,-0.76022 0.37958,-1.0071 6.00916,-3.62905 12.07857,-7.15741 18.10898,-10.75105 0.10503,-0.0626 0.40182,-0.27779 0.29587,-0.21678 -37.25318,21.45245 -8.17116,4.79214 0.97656,-0.43472 1.52233,-0.61629 3.1327,-0.90976 4.63398,-1.56185 -5.56523,3.23021 -22.36264,12.73881 -16.69567,9.69063 7.46738,-4.01658 14.41582,-9.03616 22.22985,-12.33302 2.75301,-1.04668 5.44585,-2.22985 8.25691,-3.12909 0,0 -16.04157,12.67789 -16.04157,12.67789 z"
     inkscape:connector-curvature="0" />
  <path
     style="fill:#000000"
     id="path24"
     d="m 214.92507,145.72065 c 1.57552,1.35364 4.54577,4.19732 6.64084,4.55937 0.38636,0.0668 0.77623,-0.11127 1.16434,-0.1669 -0.64301,0.89362 3.19536,-1.30465 2.44195,-0.87936 -39.20602,22.13141 -3.5443,1.95944 1.90945,-1.39662 5.39264,-3.31847 -10.95459,6.35418 -16.46903,9.46606 -0.3079,0.17375 0.56042,-0.43115 0.84062,-0.64673 1.72433,-0.94441 3.04329,-2.42902 4.60298,-3.56534 1.27683,-1.00398 2.42671,-2.15795 3.56381,-3.31461 0.55856,-0.51098 1.17839,-0.91427 1.28774,-1.72792 0.11256,0.31898 0.45117,0.6383 0.33766,0.95694 -0.009,0.0246 -0.69901,-0.15659 -1.78747,-0.31489 -1.79236,-0.26067 -3.59197,-0.39045 -5.39773,-0.5129 -3.63071,-0.20542 -7.26815,-0.2209 -10.90351,-0.22444 -2.2276,-0.25702 -4.2236,0.55092 -6.34783,1.06261 45.11815,-25.55056 -1.88773,1.44594 -1.92706,1.46576 -5.85701,2.95185 11.35109,-6.57458 17.03403,-9.84905 0.26626,-0.15341 -0.50835,0.3472 -0.74361,0.54489 -0.70714,0.49488 -0.75865,1.1937 -0.7768,2.03762 -0.0503,1.38014 -0.11491,0.66384 0.65263,1.67688 1.30986,0.47652 2.48553,1.17308 3.83334,1.56793 1.5354,0.47033 3.14891,0.48796 4.73973,0.52061 1.57929,0.0159 3.15852,-0.007 4.73785,-0.004 1.49954,-0.0178 2.99916,-0.0162 4.49878,-0.0116 0.9828,-0.20735 1.73489,-1.0125 2.61282,-1.38529 1.01873,-0.15996 0.53448,-0.006 1.45361,-0.45933 -27.86995,16.72656 -20.2563,13.15413 -14.78275,7.69685 0.81141,-0.3534 1.51678,-1.03164 2.20243,-1.60764 0.14444,0.23804 0.61293,-1.16845 0.60035,-1.02053 -0.0113,0.13284 0.008,0.3166 -0.10613,0.38562 -0.18417,0.11144 -0.42818,0.0448 -0.64228,0.0672 -3.28061,-0.66173 -6.61034,-0.98176 -9.94703,-1.17238 -0.8571,0.27043 -3.65278,-0.54208 -4.38043,-0.10338 -0.22909,0.13813 -0.58755,0.84944 -0.35304,0.72072 5.73677,-3.14876 11.32219,-6.56574 16.98328,-9.84861 -1.30641,1.71232 -1.12202,4.19398 -1.15071,6.2547 0.002,1.6884 3.9e-4,3.37814 0.0681,5.06535 0.21395,0.49199 -0.31481,1.3345 -0.22623,-0.22356 0.0118,-0.20794 1.37595,-0.1661 1.46797,-0.16835 0.78125,-0.23416 1.86572,0.24376 2.6219,-0.0546 0.178,-0.0702 0.57684,-0.49499 0.40929,-0.40256 -5.71457,3.15237 -11.37894,6.39489 -17.06841,9.59233 1.32588,-0.56236 2.00421,-2.09443 2.81041,-3.2301 0.73882,-0.83424 1.16014,-1.76713 1.61779,-2.75247 0.16695,-0.66634 0.74943,-0.89443 0.92464,-1.49074 0.14659,0.28138 0.40226,0.5475 -0.0393,0.84728 -0.58878,0.39968 -1.37181,0.39767 -2.01922,0.69309 -0.36267,0.1655 -2.63832,1.38215 -2.86366,1.50186 -7.17371,4.40884 0.85572,-0.5481 14.17981,-8.08978 0.45643,-0.25835 -0.88082,0.57074 -1.30308,0.88182 -0.8906,0.65609 -1.63463,1.37976 -2.31483,2.24359 -0.74227,0.93082 -0.95833,1.96483 -0.99634,3.12319 -0.11329,0.59197 0.40487,0.36854 0.89096,0.73191 1.9061,1.42492 -0.4653,0.0824 1.18985,0.96434 0.76207,0.6253 1.78183,0.9943 2.76838,0.95054 0.0659,-9.5e-4 0.74022,-0.005 0.75797,-0.0321 0.10785,-0.16421 0.15598,-0.68381 -0.0162,-0.58915 -5.81494,3.19735 -11.41609,6.77051 -17.18629,10.04793 -0.34727,0.19724 0.53571,-0.60108 0.85987,-0.83436 0.76828,-1.03639 1.53657,-1.94106 2.2271,-3.00517 0.63638,-0.69736 1.0039,-1.52927 1.65952,-2.24177 0.1099,-0.009 0.2499,-0.10182 0.3297,-0.0258 1.71911,1.63807 -4.00591,0.55366 -4.31893,0.53279 -9.84543,-0.54269 -19.47773,7.5306 8.77897,-8.2886 -1.46935,0.62241 -1.89802,1.7188 -2.07727,3.19881 -0.20085,1.38263 0.18541,2.11344 1.62876,2.33814 1.52938,0.29383 3.10165,0.27424 4.65327,0.25299 0.35105,-0.14668 0.7923,0.14075 1.13576,-0.0186 0.16351,-0.0759 0.19372,-0.30576 0.31264,-0.44122 0.16933,-0.19287 0.77196,-0.66685 0.54882,-0.54003 -16.80756,9.55239 -21.21504,14.74486 -16.1398,8.97474 1.39542,-1.55748 2.77503,-3.13262 3.99496,-4.83185 5.23704,-5.36399 14.35213,-6.93336 20.43319,-9.55521 0.0769,1.30462 0.41938,2.86338 -0.29125,4.01203 0,0 -19.17542,7.45729 -19.17542,7.45729 v 0 c 0.19259,-0.006 0.3884,-0.0543 0.57777,-0.0187 0.22466,0.0423 0.42489,0.32644 0.63951,0.24771 0.21636,-0.0794 -0.0389,-1.86118 0.0502,-2.11412 6.19675,-3.08157 12.3935,-6.16314 18.59025,-9.24471 -0.53195,0.56122 -1.15125,1.05499 -1.90703,1.26443 -1.5863,1.38304 -2.48651,3.38341 -4.05008,4.82185 -5.38902,6.20183 -13.09384,12.59634 -21.3699,12.03136 -1.72867,-0.0964 -3.48343,-0.17667 -5.08341,-0.91665 -1.69715,-1.02714 -3.15263,-2.34803 -2.90225,-4.49942 0.007,-1.77517 0.0866,-3.66681 1.32307,-5.05809 12.9622,-7.30025 15.22615,-11.77696 26.88178,-10.90131 2.25776,0.20279 6.84996,0.2024 6.54765,3.59543 -0.86035,0.55113 -1.46347,0.94071 -1.86439,1.84929 -0.0293,0.032 -0.74097,0.80687 -0.74749,0.82048 -0.11873,0.24749 -0.0421,0.57447 -0.20041,0.79874 -0.19786,0.28032 -1.29146,0.73737 -1.28017,1.38747 -0.32308,0.67741 -0.15498,0.57259 -0.79751,0.96361 -21.60572,13.14812 -11.13255,12.41886 -19.41264,10.3556 -1.13678,-0.40841 -2.23107,-0.87215 -3.16274,-1.67094 -1.16754,-0.88409 -3.02479,-1.84505 -3.1497,-3.45018 -0.004,-1.4155 -0.0737,-2.89574 0.57941,-4.19319 0.82013,-1.53581 1.87503,-3.10851 3.41479,-4.03205 14.63049,-8.77522 12.91777,-7.8413 20.69751,-11.94072 2.42851,-1.06802 6.03584,-2.59569 7.54525,0.59474 -0.0713,0.8586 0.0197,1.51641 -0.64848,2.15932 -0.67506,0.95597 -0.92036,2.01064 -1.55684,2.9884 -0.95776,1.24819 -1.91845,2.4907 -2.52398,3.95953 -13.86669,7.84735 -12.55181,10.74202 -21.78626,10.31001 -1.33005,-0.11506 -3.04983,-0.56714 -2.89394,-2.27261 0.0272,-1.72335 -0.0112,-3.44674 0.0136,-5.17042 0.0439,-2.47588 0.0156,-4.97603 0.52585,-7.41195 17.60605,-10.87855 12.07315,-11.62532 23.18866,-10.73299 3.43255,0.28558 6.8462,0.73217 10.23708,1.34157 1.94893,0.83038 2.5193,2.02958 2.16598,4.00712 -0.49553,1.21127 -1.20899,1.4317 -1.87226,2.46094 -7.73309,2.21947 0.11326,29.27582 -20.55437,12.40959 -1.50912,0.50713 -2.85581,1.42497 -4.54658,1.20812 -1.49603,0.007 -2.99205,0.0146 -4.48809,0.008 -1.6013,0.012 -3.2036,0.0116 -4.80306,-0.0778 -1.73381,-0.13049 -3.45689,-0.36495 -5.07959,-1.02951 -1.55621,-0.65339 -3.19698,-1.23946 -4.42756,-2.43736 -0.95982,-0.85142 -1.58835,-1.6567 -1.42104,-2.97209 0.0206,-1.06581 -0.1206,-2.28493 0.1978,-3.27479 3.92322,-6.63769 8.84525,-3.73737 18.67369,-11.63342 5.08689,-4.08675 -11.31616,6.50061 -16.95508,9.78398 -0.23868,0.13897 0.50095,-0.23273 0.75143,-0.3491 6.14021,-3.49132 12.28042,-6.98265 18.42064,-10.47397 2.17145,-0.50231 4.29546,-0.82642 6.54076,-0.59836 3.64075,0.0444 7.28253,0.12722 10.91539,0.38587 1.66405,0.13473 6.6314,0.20429 7.91619,1.34846 0.39597,0.35264 0.63085,0.85242 0.94628,1.27863 -0.19361,0.97354 -0.0235,2.17311 -0.83044,2.90286 -1.16843,1.18242 -2.32877,2.37253 -3.51881,3.53342 -0.88771,0.80929 -0.39291,0.4762 -1.4868,0.99569 -0.27705,0.23873 -0.40437,0.61351 -0.65325,0.88148 -0.69614,0.74953 -1.65689,1.2047 -2.43413,1.85334 -6.38034,3.96421 -13.26338,7.14719 -19.35131,11.54728 -5.15883,3.72857 22.23177,-12.38481 16.51368,-9.58854 -6.42891,3.14387 -12.35751,7.2267 -18.65093,10.6337 -0.61091,0.33072 -2.33695,0.20465 -2.94284,0.19231 -3.36608,-0.97022 -6.00809,-3.2507 -8.60456,-5.53219 0,0 17.4475,-10.69184 17.4475,-10.69184 z"
     inkscape:connector-curvature="0" />
  <path
     style="fill:#000000"
     id="path26"
     d="m 274.25081,160.54781 c 2.97356,2.57645 4.47186,2.17164 7.91043,1.35075 10.84495,-6.11482 -23.90124,13.76656 -12.51186,6.79619 0.67272,-1.21032 1.70892,-2.16431 2.22077,-3.44355 0.21834,-1.45458 0.43329,-2.98244 -0.12716,-4.37187 -1.67397,-1.8395 -4.45397,-2.30782 -6.79575,-2.74501 -2.92838,-0.11891 -6.17291,-1.10022 -9.044,-0.23593 -6.98268,2.27703 -1.19865,0.45501 15.84102,-9.0242 0.2536,-0.14108 -0.52202,0.25872 -0.7597,0.42525 -0.75137,0.52645 -0.96618,1.13344 -1.2058,1.98238 -0.31241,2.16764 -0.27729,4.37417 -0.18834,6.55776 -0.30265,0.50082 0.42124,1.7798 0.0793,2.23484 -0.11462,0.15253 -0.0718,-0.38549 -0.0299,-0.57163 0.88732,-0.0581 1.84076,-0.0986 2.76458,-0.11495 0.0248,-0.0333 0.56987,-0.78272 0.63607,-0.81268 0.22892,-0.10359 0.96395,-0.22637 0.74725,-0.0992 -5.6597,3.32174 -11.42017,6.46873 -17.12538,9.7117 -0.39889,0.22674 0.75641,-0.52705 1.08416,-0.84815 1.04694,-0.70301 1.65756,-1.83098 2.51316,-2.72711 0.28927,-0.83509 0.79087,-1.42623 0.45783,-2.05695 -0.97752,-0.82069 -2.59915,-0.73275 -3.848,-0.79986 -0.52906,0.21793 -1.78366,-0.36021 -2.23241,10e-4 -0.20635,0.16619 -0.5222,0.86721 -0.28965,0.74022 16.24639,-8.8718 21.16945,-14.86266 16.39406,-9.19214 -0.90044,1.56427 -1.00249,3.33695 -1.07627,5.0978 0.0702,0.81307 0.28932,2.50809 1.36068,2.49185 7.77013,1.3411 -18.59912,16.92381 -16.94972,9.65961 0,0 18.48831,-9.108 18.48831,-9.108 v 0 c -0.53723,7.40244 -12.62138,14.98042 -18.76009,10.68886 -1.41735,-1.15787 -2.14445,-2.69192 -2.45242,-4.4907 0.0702,-1.9498 0.004,-4.04182 0.71933,-5.87116 2.35737,-8.36258 13.29424,-13.13216 21.5415,-11.90902 1.85859,0.29725 3.73395,0.76893 4.8828,2.39761 0.82373,1.30495 1.07627,2.29449 0.41048,3.73348 -0.22367,1.46061 -1.36207,2.40371 -2.13077,3.64883 -0.21121,0.15057 -0.45233,0.2662 -0.63362,0.4517 -0.15398,0.15755 -0.16414,0.44586 -0.35354,0.55837 -6.01586,3.57387 -12.1384,6.96507 -18.19872,10.46304 -0.55061,0.31781 -0.49469,0.4632 -1.11773,0.45988 -0.23766,-0.001 -0.47142,-0.0608 -0.70714,-0.0913 -1.12091,-0.0119 -2.27768,0.0125 -3.27566,-0.57833 -1.39366,-1.30078 -1.19993,-1.94271 -1.17009,-3.71771 0.0111,-2.30405 -0.0545,-4.61015 0.0608,-6.91292 0.0327,-0.41728 0.12925,-1.93056 0.24916,-2.35006 0.073,-0.2554 0.83206,-1.60497 1.00566,-1.70715 17.72786,-10.43444 11.66486,-9.47145 19.67665,-10.57929 3.13902,0.0287 6.27883,0.31682 9.36706,0.8846 2.96244,0.74659 6.13542,1.6134 7.92183,4.29571 0.84025,1.79181 0.94953,3.48177 0.71845,5.44019 -0.0291,0.73175 -0.0487,1.93388 -0.5061,2.57814 -0.35904,0.50571 -1.28711,0.82995 -1.3431,1.71466 -0.44726,1.17858 -0.88617,1.51946 -1.97797,2.1707 -2.73536,1.63159 -13.36175,9.82815 -20.62921,11.47745 -3.4823,0.46851 -6.05237,-0.45666 -8.84071,-2.62206 0,0 17.22952,-11.03188 17.22952,-11.03188 z"
     inkscape:connector-curvature="0" />
  <path
     style="fill:#000000"
     id="path28"
     d="m 137.62071,211.76773 c 2.38032,0.0286 4.76108,0.0168 7.14122,-0.0222 1.1083,-0.008 2.21745,-1.7e-4 3.32546,-0.0169 0.63539,-0.0112 1.26982,10e-4 1.9054,-0.0115 0.7409,0.0146 1.4826,0.0119 2.22384,0.006 0.62378,-0.003 1.24653,0.006 1.87047,-0.006 0.75088,0.004 1.50281,0.0182 2.2537,0.009 0.63516,-0.008 1.26932,0.003 1.90466,-0.009 0.74367,0.004 1.4884,0.0184 2.23208,0.009 0.68509,-0.002 1.37029,-0.009 2.05548,-4.3e-4 0.76174,-0.009 1.52254,0.01 2.28421,-0.002 0.71858,0.0149 1.43734,-0.0139 2.15587,0.008 0.69342,-0.0204 1.38589,0.001 2.07931,-0.01 1.57212,-0.13417 1.07221,0.069 2.26269,0.93221 0.65252,0.64866 1.07965,0.41927 1.89047,0.52408 0.77221,-0.0395 1.55787,-0.0462 2.33806,-0.062 0.80601,0.0112 1.61245,-0.0291 2.41833,-0.004 0.70687,-0.0232 1.41275,-2.2e-4 2.11963,-0.0118 0.77014,-0.006 1.54038,0.0166 2.31029,0.008 0.67912,-0.01 1.35726,0.002 2.03652,-0.0115 0.7491,0.0142 1.49896,0.0114 2.24838,0.006 0.66193,0.006 1.32416,-0.007 1.98607,0.002 0.0759,-0.003 0.28949,-0.0526 0.22765,-0.009 -16.86416,12.01648 -10.83551,12.06333 -20.68969,12.09025 -2.48311,-0.15508 -4.87271,0.0658 -7.31281,0.48387 -2.82189,0.47895 -5.67881,0.70859 -8.53585,0.83765 -2.12042,0.0887 -4.24418,0.0559 -6.36613,0.0655 -1.39308,0.0128 -2.78623,0.002 -4.17935,0.0142 -1.30943,0.10334 -1.57187,0.0289 -2.50192,-0.99365 -0.29813,-0.0662 -0.23917,-0.53396 -0.48254,-0.65137 -0.2716,-0.13104 0.25151,0.59971 -0.25296,0.17376 -0.16136,-0.13624 -0.60971,-0.76948 -0.76573,-0.98409 -3.22823,-7.91428 11.55821,-8.68569 18.09683,-11.99979 0.25565,-0.12958 2.38593,0.47857 3.01637,0.57281 2.47098,0.31966 4.96493,0.38665 7.45329,0.42603 2.14646,0.0271 4.29317,0.0271 6.43967,0.007 1.56961,0.002 3.13939,-0.009 4.70906,-0.0194 0.94432,0.003 1.88895,-0.0212 2.83322,-0.0118 0.35163,0.001 0.70324,-0.003 1.05483,-0.007 0,0 -16.68505,12.12235 -16.68505,12.12235 v 0 c -0.34483,-0.005 -0.68968,-0.009 -1.03455,-0.007 -0.9335,0.009 -1.86732,-0.0142 -2.80087,-0.01 -1.55725,-0.008 -3.11464,-0.0139 -4.67182,-0.009 -2.14305,-0.0197 -4.28672,-0.0172 -6.42894,-0.0877 -2.54075,-0.10586 -5.08496,-0.22014 -7.60319,-0.59822 -0.42716,-0.0563 -1.54269,-0.22217 -2.00885,-0.21595 -0.25147,0.003 -0.96339,0.22712 -0.74821,0.0969 15.71105,-9.50404 21.88687,-5.55577 16.08102,-10.80791 0.3282,0.36023 1.01532,0.5692 1.29633,1.11674 0.28876,-0.35458 1.0861,-0.19362 1.65447,-0.20464 1.37006,0.0171 2.74024,0.0149 4.11024,0.0297 2.09024,0.007 4.18109,-0.0163 6.26855,-0.13236 2.80574,-0.18362 5.59985,-0.47679 8.37236,-0.95582 2.51779,-0.32767 5.043,-0.32412 7.57913,-0.30107 10.18071,0.028 1.80401,0.0259 -12.79614,12.08174 -0.66415,0.01 -1.32861,-0.003 -1.99278,0.002 -0.7547,-0.006 -1.50977,-0.008 -2.26417,0.006 -0.66868,-0.0142 -1.33627,-0.001 -2.00481,-0.0116 -0.7767,-0.009 -1.55377,0.0136 -2.3307,0.008 -0.69592,-0.0116 -1.39086,0.0125 -2.0868,-0.008 -0.81316,0.0265 -1.62704,-0.002 -2.44031,0.0112 -0.86451,-0.0205 -1.74148,-0.005 -2.57775,-0.25991 -0.89774,-0.23898 -1.65757,-0.68117 -2.37553,-1.26939 -0.11235,-0.0816 -0.23161,-0.33514 -0.33706,-0.24479 -0.22889,0.19609 0.86082,0.49685 -1.21212,0.39206 -0.68424,-0.0116 -1.36756,0.0109 -2.05178,-0.01 -0.72573,0.0202 -1.4515,-0.006 -2.17727,0.008 -0.75957,-0.0123 -1.51832,0.007 -2.27795,-0.002 -0.68478,0.008 -1.36962,0.002 -2.05429,-4.3e-4 -0.75219,-0.01 -1.5054,0.006 -2.2576,0.009 -0.62675,-0.0131 -1.25236,-5.5e-4 -1.87895,-0.009 -0.75913,-0.01 -1.51929,0.005 -2.27844,0.009 -0.61867,-0.0124 -1.23617,-0.002 -1.8547,-0.006 -0.74712,-0.006 -1.49463,-0.008 -2.24145,0.006 -0.62501,-0.0133 -1.2489,3.1e-4 -1.87371,-0.0115 -1.09249,-0.0172 -2.18616,-0.008 -3.27893,-0.0169 -2.35972,-0.0405 -4.72011,-0.0499 -7.08003,-0.0222 0,0 16.55657,-12.02905 16.55657,-12.02905 z"
     inkscape:connector-curvature="0" />
  <path
     style="fill:#000000"
     id="path30"
     d="m 276.91259,214.26666 c 4.589,-0.49916 9.19619,-0.75715 13.80706,-0.93627 3.54942,-0.13672 7.21037,0.10781 10.41546,1.72152 2.16624,0.85526 4.53228,0.59707 6.74088,1.17156 0.39476,0.0915 0.80588,0.12941 1.18429,0.27434 0.36894,0.1413 0.66548,0.43847 1.03585,0.57596 1.00894,0.37457 2.37008,0.26177 3.42864,0.2743 1.03045,-0.005 2.05877,-0.0908 3.08909,-0.0927 8.47576,-0.65768 -10.42405,13.75509 -18.43226,11.76934 -4.07584,-0.67723 -8.19388,-0.99176 -12.29347,-1.51101 -5.06134,-0.56591 -10.06508,-1.17084 -15.03202,-2.30674 -2.85808,-0.45934 -5.4179,-1.97785 -8.24986,-2.50832 -0.69565,-0.5088 -1.88494,0.0457 -2.5903,-0.3064 -0.23443,-0.11702 -0.34239,-0.43887 -0.5927,-0.51632 -0.13608,-0.0421 -0.24446,0.14631 -0.3667,0.21947 -0.43211,0.0949 -0.65844,0.2542 -0.97553,-0.34959 -4.49673,-8.56253 11.90356,-12.21713 19.77997,-12.5034 3.76242,-0.005 7.51863,0.60028 11.27897,0.87753 3.17523,0.16196 6.29576,0.12333 9.40189,0.82441 1.98529,0.48073 4.00088,0.67725 6.03346,0.78792 1.50903,0.055 3.01857,0.019 4.52792,0.0202 1.21381,0.005 2.42754,-0.02 3.64131,-0.0203 0.89485,-0.0124 1.79126,0.016 2.68592,-0.009 -17.73261,12.98134 -11.78757,12.14721 -24.34602,12.00576 -4.9379,-0.4778 -9.87505,-0.92786 -14.83101,-1.1662 -2.40888,-0.10453 -4.81992,-0.15183 -7.23094,-0.14203 0,0 16.61746,-12.02808 16.61746,-12.02808 v 0 c 2.36061,0.0958 4.7209,0.19742 7.07856,0.35265 4.91463,0.33425 9.81474,0.86229 14.73493,1.09088 11.92503,-0.13036 10.92582,-2.01657 -8.70222,12.00573 -0.88563,-0.0268 -1.77331,0.006 -2.65916,-0.005 -1.20555,0.005 -2.41116,-0.0119 -3.61676,-0.004 -1.53626,0 -3.07345,-0.0545 -4.6056,-0.16765 -2.05647,-0.22263 -4.08529,-0.5829 -6.10554,-1.03073 -3.02455,-0.52506 -6.11227,-0.35766 -9.1598,-0.70213 -3.70138,-0.32334 -7.43479,-0.93427 -11.14881,-0.51345 -7.77789,1.31865 -8.90124,8.17298 15.01026,-9.41008 0.57584,-0.42344 -0.89662,-1.11898 -1.26432,-1.73192 -0.11188,-0.1865 0.97033,-0.46695 0.65034,-0.0526 1.08536,0.50054 2.40881,0.34013 3.62007,0.85642 2.68286,0.85203 5.2608,2.04791 8.04286,2.58008 4.89667,1.09228 9.87872,1.56538 14.8526,2.18461 4.18054,0.49443 8.38377,0.7304 12.5437,1.39157 0.66405,0.0209 2.51306,-0.39343 1.99305,0.0201 -8.91608,7.09049 -9.74368,12.33989 -16.92319,12.13169 -1.04587,0.0377 -2.09489,0.0278 -3.1368,-0.0801 -1.9976,-0.22265 -3.80082,-0.93793 -5.74918,-1.36706 -2.37809,-0.26511 -4.76045,-0.56759 -6.96309,-1.57774 -3.10846,-1.12876 -6.47154,-1.21286 -9.74776,-1.06245 -4.63107,0.19839 -9.26253,0.50199 -13.8516,1.18056 0,0 16.3801,-12.21491 16.3801,-12.21491 z"
     inkscape:connector-curvature="0" />
  <path
     style="fill:#000000"
     id="path32"
     d="m 237.61075,109.62572 c 0.0688,-2.87564 0.0399,-5.75336 -0.005,-8.62928 -0.0393,-1.124562 -0.0329,-2.249669 -0.0628,-3.374397 0.004,-0.711604 0.003,-1.422988 0.004,-2.13455 -0.0102,-0.656486 0.004,-1.312499 -0.008,-1.969065 -0.006,-0.790932 0.0279,-1.582313 0.0138,-2.372772 -0.0162,-0.67766 0.003,-1.353117 -0.0181,-2.031077 0.005,-0.752409 0.0278,-1.507114 0.0134,-2.259494 -0.013,-0.627629 0.006,-1.253015 -0.014,-1.881032 0.006,-0.749883 0.0284,-1.502109 0.0141,-2.251988 -0.013,-0.628252 0.006,-1.254262 -0.014,-1.882902 0.0375,-0.507476 0.0134,-1.016668 -0.005,-1.524435 0,0 18.39785,-9.374174 18.39785,-9.374174 v 0 c -0.0181,0.509595 -0.0432,1.020688 -0.005,1.529932 -0.0191,0.63343 -0.002,1.264185 -0.014,1.897219 -0.014,0.745095 0.008,1.492582 0.0141,2.237658 -0.0191,0.632801 -0.002,1.262926 -0.014,1.895329 -0.0141,0.747828 0.008,1.498023 0.0134,2.24586 -0.0211,0.684122 -0.002,1.365705 -0.0181,2.049523 -0.0138,0.78579 0.0192,1.572461 0.0138,2.358731 -0.0118,0.659289 0.002,1.318017 -0.008,1.977225 8.8e-4,0.710133 4.4e-4,1.420097 0.004,2.130273 -0.0297,1.146082 -0.0239,2.292525 -0.0628,3.438446 -0.0439,2.877503 -0.0741,5.756834 -0.005,8.63403 0,0 -18.23449,9.29094 -18.23449,9.29094 z"
     inkscape:connector-curvature="0" />
  <path
     style="fill:#000000"
     id="path34"
     d="m 258.60198,43.373203 c -0.0636,2.622524 -0.0297,5.24515 0.0203,7.867412 0.034,1.05086 0.002,2.103567 0.0529,3.153726 -0.005,0.85774 -0.0435,1.719512 -0.008,2.577129 -0.10657,0.227572 0.0909,0.510987 -6.4e-4,0.740082 -0.0471,0.117881 -0.10628,-0.362618 0.0194,-0.380316 1.60158,-0.225501 -1.08775,0.69214 0.64719,0.03535 1.42879,0.04751 2.85847,0.02075 4.28778,0.03027 0.90914,-0.110085 1.87101,0.130778 2.77573,-0.01322 5.84376,-0.930081 25.50732,-13.680353 -14.88352,8.785579 48.79888,-27.848446 2.94947,-1.662361 2.2131,-1.245011 -0.30777,0.174432 0.59688,-0.380007 0.89126,-0.576191 0.965,-0.643105 1.86847,-1.357799 2.81686,-2.02377 1.46404,-1.398078 3.16121,-2.497387 4.55409,-3.97544 1.25277,-1.194327 2.0977,-2.658748 3.09514,-4.028509 0.69181,-1.346187 1.46827,-2.942942 1.21128,-4.497461 -3.01845,-2.160959 -6.69316,-3.147824 -10.1939,-4.277319 -6.91377,-1.687945 -13.91356,-2.828309 -21.00799,-3.411062 -4.7707,0.142072 -11.43219,-1.323551 -15.976,0.132571 -6.58882,3.14254 -6.72797,3.242594 15.32715,-8.706935 0.32304,-0.175022 -0.57713,0.465642 -0.80162,0.75649 -0.76564,0.991993 -0.92869,2.257801 -1.13255,3.446361 -0.31002,2.169976 -0.19895,4.290226 0.36238,6.402618 1.01681,1.609642 1.83136,3.491288 3.14937,4.879238 1.51037,1.974507 2.32829,4.30843 3.28843,6.581792 1.4405,3.577553 2.83402,7.184944 4.06871,10.838838 0.17014,0.65705 1.99121,4.640708 2.5417,4.637081 0.34299,0.191538 0.51496,0.383652 0.87721,0.211707 -5.90048,3.111868 -11.7961,6.232982 -17.70145,9.335604 -0.21047,0.110579 0.4429,-0.196427 0.61623,-0.35917 0.28599,-0.268532 0.49366,-0.609826 0.7405,-0.914739 1.60819,-2.87311 3.32353,-5.68015 4.96068,-8.537518 1.36514,-2.07967 2.50599,-4.262239 3.94566,-6.288773 0.81797,-1.3391 1.7189,-2.571777 2.09737,-4.131564 0.22656,0.929093 0.23265,-4.506763 0.2719,-3.417009 -2.75194,0.195885 -5.65726,-0.05836 -8.45996,-0.06766 -4.61954,-0.304214 -7.12629,0.264543 -11.1441,2.485143 28.71102,-16.682014 15.89401,-11.832815 12.40894,-4.292353 -0.22344,1.133311 -1.3621,3.803043 -0.15082,4.702836 0.74058,1.517148 2.27331,1.994314 3.73441,2.618599 2.38819,0.496811 4.92217,0.58743 7.33364,0.241255 3.07548,-0.481768 0.10197,0.115289 3.21318,-0.935052 0.58431,-0.197263 1.2136,-0.248154 1.79032,-0.466606 1.66966,-0.632435 3.14068,-1.796587 4.73051,-2.603301 8.14569,-4.586339 -9.53085,5.546324 -14.36544,8.195808 -0.48739,0.267105 0.88147,-0.679115 1.2935,-1.052122 1.16279,-1.052682 2.05415,-2.291127 2.94244,-3.570936 1.42831,-2.120273 2.47531,-4.439889 3.46428,-6.784408 0.68573,-1.27806 1.3795,-3.574006 1.06582,-3.405455 -2.55567,-0.391621 -5.12944,-0.533533 -7.7129,-0.593929 -0.72718,-0.0077 -2.01358,-0.132706 -2.72829,0.255765 -0.35069,0.190609 -0.5046,0.635031 -0.83641,0.856872 -0.3486,0.233068 -1.52558,0.690331 -1.16291,0.47983 17.97975,-10.435674 21.42077,-13.106775 15.42224,-8.573704 -1.81259,1.263704 -3.22729,2.866341 -4.24611,4.814286 -0.58969,1.389468 -0.72948,2.905652 -0.72844,4.401147 0.002,0.127721 0.0827,0.485694 0.007,0.383165 -0.85925,-1.156231 2.77323,-0.754346 3.14191,-0.754731 3.06316,0.0065 6.12624,-0.0278 9.18932,-0.04639 0.39511,-0.181278 0.79022,-0.362557 1.18533,-0.543835 0.41498,-0.09653 0.85527,-0.117319 1.24495,-0.289592 0.39425,-0.174286 0.69049,-0.520379 1.06599,-0.732038 0.70767,-0.398889 2.92702,-1.403613 2.22376,-0.997004 -5.51109,3.186401 -11.06299,6.30168 -16.59449,9.45252 1.77749,-1.242426 3.21715,-2.745484 4.13212,-4.716196 0.74394,-1.938559 1.09891,-4.085678 0.77555,-6.142501 -0.56306,-1.640593 -2.22294,-2.22087 -3.79339,-1.698853 -6.50899,3.848115 1.40205,-0.837999 15.78787,-8.825967 0.3662,-0.203336 -0.72322,0.426333 -1.05763,0.678552 -1.24976,0.942594 -2.31578,2.152936 -3.39834,3.273181 -1.76405,2.124381 -3.28055,4.429824 -5.22569,6.397649 -1.0759,1.291817 -2.01239,3.260058 -2.51962,0.16632 6.56646,-2.313791 0.52992,-0.206409 -17.10332,9.252415 -0.25418,0.136346 0.52566,-0.247282 0.75624,-0.420578 0.81335,-0.611303 1.56624,-1.418874 2.33277,-2.093817 1.71859,-2.124922 2.69191,-4.712941 3.59482,-7.26218 0.2176,-1.420476 1.24938,-3.194064 0.78329,-4.674011 -0.10843,-0.344278 -1.38755,-1.682919 -1.43792,-1.738738 -3.17663,-2.541007 -6.77663,-3.78007 -10.73381,-4.417043 -3.0984,-0.39726 -6.22634,-0.358696 -9.34256,-0.312377 -6.99918,2.39881 -1.89191,0.709267 15.9747,-9.030163 0.26664,-0.145349 -0.53418,0.309094 -0.73793,0.534276 -0.85121,0.94074 -0.94722,2.373704 -1.13161,3.549425 -0.20084,2.848561 -0.54087,5.759804 0.0855,8.573591 0.48852,1.284034 0.98913,2.847932 2.17294,3.653861 1.24948,0.09603 2.5051,0.09519 3.7584,0.08666 2.38913,0.226279 3.55405,-0.131197 5.51083,-1.430673 -38.78017,19.084505 -17.58817,12.427715 -13.97292,7.269855 0.45607,0.151509 0.2666,-1.494154 0.51076,-1.227289 0.52996,0.579236 0.12976,0.52369 -0.14415,0.550848 -0.70535,0.254827 -2.10052,-0.472589 -2.69419,-0.0571 -0.21658,0.151579 -0.50918,0.869907 -0.27727,0.743021 5.7516,-3.14683 11.3332,-6.594865 16.9998,-9.892298 -1.15433,1.340026 -1.04268,3.249189 -1.09873,4.918531 -0.005,1.27216 0.005,2.544601 0.0531,3.815958 0.0247,0.561102 0.67404,0.820371 1.15878,0.888562 9.01929,-1.136305 -23.21897,13.132856 -15.68911,9.063209 1.19565,-1.331089 1.38889,-3.061777 1.62327,-4.757285 0.14674,-1.563156 0.14029,-3.132674 0.11779,-4.70052 0.4513,-0.154618 -0.71641,-1.445719 -0.79959,-1.279271 -0.11633,0.232805 -0.15769,0.896701 0.0736,0.777288 5.90574,-3.049741 11.5821,-6.524545 17.37315,-9.786817 -1.36637,1.695848 -1.06848,4.472541 -1.1315,6.559476 0.0526,2.133732 0.49092,4.400803 1.8216,6.128186 0.58671,0.467657 0.49419,1.499104 1.12021,1.92587 0.0679,0.04629 0.1634,0.01769 0.24509,0.02653 0.10524,0.08863 0.21049,0.177252 0.31573,0.265877 0.53681,-0.134993 1.095,-0.147246 1.64946,-0.183314 0.69484,-0.04932 1.39244,-0.01401 2.08741,-0.046 -45.11204,25.678404 -0.10965,-1.027316 1.34072,-1.45335 0.68864,-0.202286 0.49714,-0.07321 1.16462,0.462862 0.97756,1.21887 1.23588,2.578141 1.31066,4.087232 0.0194,1.4025 0.0292,2.806424 0.0127,4.209479 0.0142,1.139892 -0.007,2.279658 -0.004,3.41954 0.004,0.898964 -0.002,1.797614 0.0302,2.696217 0.41256,0.960104 0.36939,0.547974 1.12103,0.508073 -1.33029,-7.202041 0.14241,-0.385706 -17.29703,9.430979 -0.26295,0.148015 0.71278,-0.66143 0.71754,-1.609899 0.64338,-0.799905 0.94563,-1.755174 1.50836,-2.582222 0.56586,-1.145477 1.1137,-2.278507 1.67889,-3.430363 0.5583,-0.556661 0.35949,-1.413074 0.62231,-2.050764 0.0354,-0.08591 0.16874,-0.07788 0.25311,-0.116828 0.0351,-0.08602 0.0702,-0.172041 0.10534,-0.258062 -0.25294,-1.087481 0.45266,-1.312421 0.83117,-2.06146 0.40477,-0.969211 0.97926,0.974993 -0.21049,1.52547 -1.27082,0.64154 -2.69245,0.552534 -4.07604,0.694351 -1.01841,0.130031 -0.79969,0.123224 -1.7377,-0.755025 0,0 17.22478,-11.223319 17.22478,-11.223319 v 0 c 0.32038,-0.283293 0.58523,-0.2489 1.01585,-0.281717 1.34072,-0.148897 2.56452,-0.591798 3.83477,-1.017474 1.27495,-0.243329 2.97015,0.86098 2.62254,2.318894 -0.19334,0.809699 -0.0697,1.535862 -1.08316,1.5822 0.0104,0.133607 0.10382,1.277203 0.0836,1.321786 -0.054,0.118874 -0.30232,-0.06833 -0.3907,0.02777 -0.34727,0.377567 -0.0359,1.39146 -0.36352,1.798108 -0.58439,1.202302 -1.26627,2.242224 -1.65114,3.490487 -0.0791,0.192909 -0.15823,0.385818 -0.23734,0.578727 -0.1149,0.08837 -0.283,0.133942 -0.34468,0.265113 -0.0997,0.212141 -0.0129,0.48031 -0.10683,0.695109 -0.16337,0.373739 -0.71832,0.662147 -0.71438,1.160414 -0.69729,-0.163531 -0.191,0.616834 -0.41618,1.120788 -0.0773,0.173047 -0.22902,0.31305 -0.38895,0.414776 -17.83824,11.346576 -11.81889,14.795878 -18.41793,10.712431 -1.11577,-0.465559 -1.79365,-1.3191 -2.24444,-2.426678 -0.40129,-1.046759 -0.33286,-2.070187 -0.29829,-3.190884 0.006,-1.145428 -0.0118,-2.290863 0.0164,-3.436151 -0.001,-1.378125 0.0412,-2.755661 0.0158,-4.133657 -0.004,-0.229513 -0.24645,-2.658744 0.0332,-1.74035 0.0944,0.854252 -1.38798,1.267071 -0.77894,0.907685 37.91649,-22.374046 6.90123,-3.962437 -1.45451,0.479631 -0.70777,-0.01963 -1.41681,0.03875 -2.12436,-0.01722 -0.88848,-0.09336 -1.74032,-0.321887 -2.40896,-0.953366 -0.93274,-0.740814 -1.42358,-1.681936 -1.88669,-2.741219 -1.44816,-2.180146 -2.14884,-4.722699 -2.37753,-7.317601 0.0598,-2.567722 0.12184,-5.142677 0.44434,-7.693102 6.52216,-3.844767 17.18643,-17.218147 20.59457,-7.148746 -0.0131,1.633183 -0.0154,3.26748 -0.0902,4.899137 -0.09,1.941037 -0.31456,3.973284 -1.12389,5.755387 -2.51487,7.405659 -13.15605,13.741939 -20.34205,10.466217 -1.06377,-0.708952 -1.88056,-1.680533 -2.32335,-2.890738 0.0112,-1.3102 -0.0121,-2.620237 0.0131,-3.930363 0.0164,-2.013891 -0.0182,-4.082332 0.52518,-6.035411 6.20197,-3.85094 13.75307,-13.842445 22.00563,-10.277079 1.24556,0.941134 1.74912,2.06015 1.21367,3.557283 -3.08136,7.817769 -17.18807,9.465259 -20.77122,14.009445 -1.99114,0.785322 -4.05408,0.700094 -6.16762,0.639901 -1.61545,-0.07689 -3.28576,-0.181241 -4.5879,-1.255438 -1.31935,-1.337627 -2.06609,-3.088451 -2.74229,-4.8217 -0.68743,-3.037555 -0.48029,-6.132174 -0.32627,-9.225823 0.81228,-10.008103 6.15912,-15.936933 20.7155,-16.125507 3.16277,0.02952 6.34036,0.122272 9.45605,0.718583 4.22859,0.957212 8.21279,2.60114 11.52376,5.478394 2.77869,3.126727 2.69718,4.395032 1.67494,8.274353 -0.79197,2.719024 -1.8207,5.430196 -3.25152,7.875001 -0.74876,1.400874 -1.20193,1.310154 -2.17364,2.371473 -0.22091,0.241279 -0.25685,0.656962 -0.54121,0.81868 -18.09823,10.292429 -11.83799,12.148689 -19.09791,9.808588 -2.55757,-2.476224 -1.16376,-2.319845 0.73813,-3.719617 0.78164,-1.341556 1.56683,-1.576328 2.48645,-2.727442 0.34035,-0.426036 0.53905,-0.952036 0.87043,-1.385098 2.2533,-2.944804 -0.17197,0.954477 1.87349,-2.542078 6.39665,-6.866234 13.83048,-14.645407 24.01933,-15.056994 2.41584,0.458911 4.38533,1.64487 5.22356,4.088082 0.69618,2.384768 0.40697,4.849934 -0.17112,7.256858 -0.82533,2.309462 -1.79657,4.179586 -3.68836,5.778801 -4.13389,2.415849 -16.27869,11.83105 -24.65642,12.630831 -3.08789,0.01479 -6.1757,0.04467 -9.26361,0.05256 -1.64445,-0.04501 -4.87734,0.06822 -4.92181,-2.33085 0.0635,-1.700037 0.0177,-3.43611 0.46935,-5.088971 0.67526,-2.277121 1.99385,-4.3628 3.8752,-5.835143 6.55803,-5.341659 0.99829,-0.898558 19.5594,-11.741748 1.6447,-0.960819 3.41108,-0.927183 5.26617,-0.800345 2.95517,0.146516 6.1593,0.148466 8.7078,1.825991 1.72551,2.279774 0.78227,3.111965 0.0745,5.671733 -1.36324,2.217777 -1.89885,4.864692 -3.49081,6.983866 -5.09959,9.109435 -15.11661,12.808264 -24.41578,17.41845 -3.18777,1.723777 -6.57019,3.124054 -10.23405,3.353616 -2.69658,0.05684 -5.54673,0.09904 -8.05803,-1.015989 -1.66671,-0.831757 -3.29476,-1.681243 -4.2139,-3.394565 -1.48432,-2.064296 -1.31446,-4.165353 -0.78428,-6.579038 2.43972,-9.703235 14.47755,-12.992916 22.06598,-17.095689 3.78669,-1.530343 7.56938,-2.014268 11.65347,-1.708605 3.18369,0.05307 6.92387,-0.415689 9.66716,1.437103 0.22312,0.34313 0.51357,0.650907 0.66936,1.02939 0.37928,0.921433 -0.34108,2.960652 -0.13568,3.975408 -0.14943,1.002931 -0.21305,2.8119 -0.86651,3.636164 -0.1511,0.190602 -0.54064,0.06963 -0.67766,0.270594 -0.19114,0.280332 -0.12587,0.66681 -0.18881,1.000216 -0.56241,0.827864 -1.26458,1.50162 -1.8456,2.289945 -0.89994,1.221023 -1.08614,2.876939 -2.28405,3.911351 -0.84148,1.395862 -1.60695,2.828573 -2.42718,4.234489 -0.56909,0.975443 -1.35715,1.817166 -1.88219,2.817009 -0.25574,0.487009 -0.3795,1.032619 -0.56925,1.548928 -0.19044,0.368542 -0.38982,0.732598 -0.57132,1.105626 -0.13113,0.269512 -0.1056,0.673119 -0.36618,0.821216 -11.65188,6.622328 -13.43914,14.112862 -19.73538,8.954479 -1.43259,-1.550326 -2.25799,-3.823441 -2.93518,-5.779954 -1.13496,-3.625188 -2.58737,-7.168377 -4.08587,-10.654389 -0.82967,-2.080584 -1.6852,-4.153135 -3.01531,-5.964624 -1.43084,-1.729078 -2.46129,-3.793692 -3.62354,-5.71206 -0.58442,-2.365577 -1.03286,-4.671409 -0.65611,-7.119797 0.93249,-10.497263 8.5571,-14.231208 21.16654,-16.819173 5.32999,-0.426297 10.71348,0.331243 16.03931,0.530015 7.20113,0.742846 14.36583,1.907912 21.38243,3.693714 4.0779,1.334832 8.60096,2.350421 11.49922,5.750537 0.74249,2.007038 0.3018,4.000538 -0.49001,5.957443 -0.12085,0.308664 -0.2417,0.617329 -0.36255,0.925993 -0.17824,0.165 -0.41772,0.282152 -0.53473,0.495 -0.17323,0.315112 -0.14076,0.715095 -0.30606,1.034437 -0.39401,0.761188 -1.32385,1.208063 -1.70541,1.991889 -0.55039,0.687762 -1.15018,1.738653 -1.86904,2.253076 -0.28772,0.205898 -0.70756,0.188953 -0.97407,0.421661 -2.09248,1.827105 0.82418,0.395466 -1.69906,1.439011 -0.82238,1.145123 -2.33526,2.316209 -3.57816,3.041979 -0.71407,0.416964 -45.65856,26.461518 -2.15947,1.220838 -12.28087,6.928442 -13.6742,11.014374 -23.57458,10.704501 -1.53913,0.0021 -3.11087,0.03156 -4.6099,-0.363947 -1.11194,-0.574248 -2.25747,-1.340892 -2.11753,-2.751882 0.0342,-0.855092 -10e-4,-1.714072 -0.008,-2.569216 0.049,-1.068249 0.0201,-2.138767 0.0529,-3.207673 0.0493,-2.629167 0.0846,-5.25872 0.0203,-7.888127 0,0 18.23449,-9.290938 18.23449,-9.290938 z"
     inkscape:connector-curvature="0" />
</svg>
