<svg xmlns="http://www.w3.org/2000/svg" xmlns:xlink="http://www.w3.org/1999/xlink" viewBox="0 0 1107.75 1107.75">
  <defs>
    <style>
      .cls-1 {
        isolation: isolate;
      }

      .cls-2 {
        fill: #f7f489;
      }

      .cls-2, .cls-3 {
        stroke: #ffea19;
      }

      .cls-2, .cls-3, .cls-4, .cls-9 {
        stroke-miterlimit: 10;
      }

      .cls-3 {
        fill: #f7f4c2;
      }

      .cls-4 {
        fill: #f7dec2;
        stroke: #fcd786;
      }

      .cls-5, .cls-9 {
        fill: none;
      }

      .cls-6 {
        opacity: 0.15;
        fill: url(#radial-gradient);
      }

      .cls-6, .cls-7, .cls-8, .cls-9 {
        mix-blend-mode: screen;
      }

      .cls-7 {
        opacity: 0.5;
        fill: url(#radial-gradient-2);
      }

      .cls-8 {
        fill: url(#radial-gradient-3);
      }

      .cls-9 {
        stroke: #fff;
        stroke-width: 2px;
        opacity: 0.03;
      }
    </style>
    <radialGradient id="radial-gradient" cx="553.88" cy="553.88" r="244.5" gradientUnits="userSpaceOnUse">
      <stop offset="0" stop-color="#230000"/>
      <stop offset="0.73" stop-color="#93432a"/>
      <stop offset="1" stop-color="#230000"/>
    </radialGradient>
    <radialGradient id="radial-gradient-2" cx="553.88" cy="553.88" r="122.25" gradientUnits="userSpaceOnUse">
      <stop offset="0.15" stop-color="#fff"/>
      <stop offset="0.21" stop-color="#e2d1d2"/>
      <stop offset="0.29" stop-color="#bf9a9c"/>
      <stop offset="0.36" stop-color="#a67276"/>
      <stop offset="0.42" stop-color="#975a5e"/>
      <stop offset="0.45" stop-color="#915155"/>
      <stop offset="0.56" stop-color="#6c3638"/>
      <stop offset="0.68" stop-color="#44191a"/>
      <stop offset="0.79" stop-color="#2c0707"/>
      <stop offset="0.85" stop-color="#230000"/>
      <stop offset="0.86" stop-color="#270201"/>
      <stop offset="0.86" stop-color="#340805"/>
      <stop offset="0.87" stop-color="#48120b"/>
      <stop offset="0.88" stop-color="#652114"/>
      <stop offset="0.89" stop-color="#8b331f"/>
      <stop offset="0.9" stop-color="#b8492d"/>
      <stop offset="0.9" stop-color="#d65836"/>
      <stop offset="0.9" stop-color="#c95232"/>
      <stop offset="0.91" stop-color="#9d3c25"/>
      <stop offset="0.93" stop-color="#782a1a"/>
      <stop offset="0.94" stop-color="#591b10"/>
      <stop offset="0.95" stop-color="#410f09"/>
      <stop offset="0.97" stop-color="#300604"/>
      <stop offset="0.98" stop-color="#260201"/>
      <stop offset="1" stop-color="#230000"/>
    </radialGradient>
    <radialGradient id="radial-gradient-3" cx="553.88" cy="553.88" r="101.87" gradientUnits="userSpaceOnUse">
      <stop offset="0.15" stop-color="#fff"/>
      <stop offset="0.28" stop-color="#c2c2c2"/>
      <stop offset="0.43" stop-color="#888"/>
      <stop offset="0.56" stop-color="#575757"/>
      <stop offset="0.69" stop-color="#313131"/>
      <stop offset="0.81" stop-color="#161616"/>
      <stop offset="0.92" stop-color="#060606"/>
      <stop offset="1"/>
    </radialGradient>
  </defs>
  <title>vortex</title>
  <g class="cls-1">
    <g id="Layer_1" data-name="Layer 1">
      <polygon class="cls-2" points="746.88 728.88 493.76 803.29 302.76 621.29 364.88 364.88 617.99 290.47 808.99 472.47 746.88 728.88"/>
      <polygon class="cls-3" points="696.88 599.88 582.21 696.49 441.21 645.49 414.88 497.88 529.54 401.27 670.54 452.27 696.88 599.88"/>
      <polygon class="cls-4" points="611.88 601.88 537.98 623.87 481.98 570.87 499.88 495.88 573.78 473.88 629.78 526.88 611.88 601.88"/>
      <g>
        <line class="cls-5" x1="553.88" y1="553.88" x2="504.88" y2="665.88"/>
        <circle class="cls-5" cx="553.88" cy="553.88" r="101.87"/>
        <circle class="cls-5" cx="553.88" cy="553.88" r="122.25"/>
        <polyline class="cls-5" points="553.88 553.88 840.32 901.71 553.88 553.88 267.43 206.05 553.88 553.88 206.05 840.32 553.88 553.88 901.71 267.43 553.88 553.88 578.8 562.46 553.88 553.88 528.95 545.3 553.88 553.88 545.3 578.8 553.88 553.88 562.46 528.95 553.88 553.88 654.51 602.4 553.88 553.88 453.24 505.36 553.88 553.88 505.36 654.51 553.88 553.88 602.4 453.24 553.88 553.88 1060.94 583.98 553.88 553.88 46.81 523.77 553.88 553.88 523.77 1060.94 553.88 553.88 583.98 46.81 553.88 553.88 790.35 1043.83 553.88 553.88 317.4 63.92 553.88 553.88 63.92 790.35 553.88 553.88 1043.83 317.4 553.88 553.88 659.24 856.46 553.88 553.88 448.51 251.29 553.88 553.88 251.29 659.24 553.88 553.88 856.46 448.51 553.88 553.88 984.07 440.33 553.88 553.88 123.68 667.42 553.88 553.88 667.42 984.07 553.88 553.88 440.33 123.68 553.88 553.88 996.92 818.31 553.88 553.88 110.83 289.44 553.88 553.88 289.44 996.92 553.88 553.88 818.31 110.83 553.88 553.88 724.93 950.16 553.88 553.88 382.83 157.59 553.88 553.88 157.59 724.93 553.88 553.88 950.16 382.83 553.88 553.88 1107.7 526.53 553.88 553.88 0.05 581.22 553.88 553.88 581.22 1107.7 553.88 553.88 526.53 0.05 553.88 553.88 863.53 656.7 553.88 553.88 244.22 451.05 553.88 553.88 451.05 863.53 553.88 553.88 656.7 244.22 553.88 553.88 908.15 687.54 553.88 553.88 199.61 420.21 553.88 553.88 420.21 908.15 553.88 553.88 687.54 199.61 553.88 553.88 630.51 557.3 553.88 553.88 477.25 550.45 553.88 553.88 550.45 630.51 553.88 553.88 557.3 477.25 553.88 553.88 764.26 964.94 553.88 553.88 343.49 142.82 553.88 553.88 142.82 764.26 553.88 553.88 964.94 343.49 553.88 553.88 666.37 801.67 553.88 553.88 441.38 306.09 553.88 553.88 306.09 666.37 553.88 553.88 801.67 441.38"/>
        <circle class="cls-6" cx="553.88" cy="553.88" r="244.5"/>
        <circle class="cls-7" cx="553.88" cy="553.88" r="122.25"/>
        <circle class="cls-8" cx="553.88" cy="553.88" r="101.87"/>
        <polyline class="cls-9" points="553.88 553.88 840.32 901.71 553.88 553.88 267.43 206.05 553.88 553.88 206.05 840.32 553.88 553.88 901.71 267.43 553.88 553.88 578.8 562.46 553.88 553.88 528.95 545.3 553.88 553.88 545.3 578.8 553.88 553.88 562.46 528.95 553.88 553.88 654.51 602.4 553.88 553.88 453.24 505.36 553.88 553.88 505.36 654.51 553.88 553.88 602.4 453.24 553.88 553.88 1060.94 583.98 553.88 553.88 46.81 523.77 553.88 553.88 523.77 1060.94 553.88 553.88 583.98 46.81 553.88 553.88 790.35 1043.83 553.88 553.88 317.4 63.92 553.88 553.88 63.92 790.35 553.88 553.88 1043.83 317.4 553.88 553.88 659.24 856.46 553.88 553.88 448.51 251.29 553.88 553.88 251.29 659.24 553.88 553.88 856.46 448.51 553.88 553.88 984.07 440.33 553.88 553.88 123.68 667.42 553.88 553.88 667.42 984.07 553.88 553.88 440.33 123.68 553.88 553.88 996.92 818.31 553.88 553.88 110.83 289.44 553.88 553.88 289.44 996.92 553.88 553.88 818.31 110.83 553.88 553.88 724.93 950.16 553.88 553.88 382.83 157.59 553.88 553.88 157.59 724.93 553.88 553.88 950.16 382.83 553.88 553.88 1107.7 526.53 553.88 553.88 0.05 581.22 553.88 553.88 581.22 1107.7 553.88 553.88 526.53 0.05 553.88 553.88 863.53 656.7 553.88 553.88 244.22 451.05 553.88 553.88 451.05 863.53 553.88 553.88 656.7 244.22 553.88 553.88 908.15 687.54 553.88 553.88 199.61 420.21 553.88 553.88 420.21 908.15 553.88 553.88 687.54 199.61 553.88 553.88 630.51 557.3 553.88 553.88 477.25 550.45 553.88 553.88 550.45 630.51 553.88 553.88 557.3 477.25 553.88 553.88 764.26 964.94 553.88 553.88 343.49 142.82 553.88 553.88 142.82 764.26 553.88 553.88 964.94 343.49 553.88 553.88 666.37 801.67 553.88 553.88 441.38 306.09 553.88 553.88 306.09 666.37 553.88 553.88 801.67 441.38"/>
      </g>
    </g>
  </g>
</svg>
