<?xml version="1.0" encoding="UTF-8" standalone="no"?>
<!-- Created with Inkscape (http://www.inkscape.org/) -->

<svg
   xmlns:dc="http://purl.org/dc/elements/1.1/"
   xmlns:cc="http://creativecommons.org/ns#"
   xmlns:rdf="http://www.w3.org/1999/02/22-rdf-syntax-ns#"
   xmlns:svg="http://www.w3.org/2000/svg"
   xmlns="http://www.w3.org/2000/svg"
   xmlns:sodipodi="http://sodipodi.sourceforge.net/DTD/sodipodi-0.dtd"
   xmlns:inkscape="http://www.inkscape.org/namespaces/inkscape"
   width="430.54434"
   height="325.29514"
   id="svg2"
   version="1.1"
   inkscape:version="0.92.3 (2405546, 2018-03-11)"
   sodipodi:docname="staani.svg">
   <style>
    #star{
      animation:spin 2s infinite;
     
    }
     @keyframes spin { 
  
     0%{
     transform: rotate(0deg);
	}
     25%{
     transform: rotate(4deg);
    }
    50%{
     transform: rotate(0deg);
    }
    75%{
     transform: rotate(-4deg);
    }
    100%{
     transform: rotate(0deg);
    }
    }     
    </style>
  <defs
     id="defs4">
    <inkscape:perspective
       sodipodi:type="inkscape:persp3d"
       inkscape:vp_x="0 : 526.18109 : 1"
       inkscape:vp_y="0 : 1000 : 0"
       inkscape:vp_z="744.09448 : 526.18109 : 1"
       inkscape:persp3d-origin="372.04724 : 350.78739 : 1"
       id="perspective2985" />
  </defs>
  <sodipodi:namedview
     id="base"
     pagecolor="#ffffff"
     bordercolor="#666666"
     borderopacity="1.0"
     inkscape:pageopacity="0.0"
     inkscape:pageshadow="2"
     inkscape:zoom="0.9899495"
     inkscape:cx="137.04016"
     inkscape:cy="105.26584"
     inkscape:document-units="mm"
     inkscape:current-layer="g847"
     showgrid="false"
     inkscape:object-nodes="true"
     inkscape:window-width="1366"
     inkscape:window-height="745"
     inkscape:window-x="-8"
     inkscape:window-y="-8"
     inkscape:window-maximized="1"
     showguides="true"
     inkscape:guide-bbox="true"
     units="mm"
     fit-margin-top="0"
     fit-margin-left="0"
     fit-margin-right="0"
     fit-margin-bottom="0" />
  <metadata
     id="metadata7">
    <rdf:RDF>
      <cc:Work
         rdf:about="">
        <dc:format>image/svg+xml</dc:format>
        <dc:type
           rdf:resource="http://purl.org/dc/dcmitype/StillImage" />
        <dc:title></dc:title>
      </cc:Work>
    </rdf:RDF>
  </metadata>
  <g
     inkscape:label="Layer 1"
     inkscape:groupmode="layer"
     id="layer1"
     transform="translate(-53.643411,-569.625)">
    <g
       id="g847">
      <path
         style="fill:#ffcc00;stroke:#000000;stroke-width:0.99999994px;stroke-linecap:round;stroke-linejoin:round;stroke-opacity:1"
         d="M 474.37627,771.83168 268.91558,649.23729 63.454937,771.83164 268.91563,894.42603 z"
         id="path3908"
         inkscape:connector-curvature="0" />
      <path
         transform="translate(53.643411,569.625)"
         inkscape:connector-curvature="0"
         id="path275"
         d="m 98.198458,149.19278 c 0.171685,-0.2778 0.539439,-0.50508 0.817231,-0.50508 0.277792,0 0.364606,0.22728 0.192922,0.50508 -0.171685,0.27779 -0.539439,0.50507 -0.817231,0.50507 -0.277792,0 -0.364607,-0.22728 -0.192922,-0.50507 z"
         style="fill:#ffcc00;stroke-width:0.50507629" />
      <path
         transform="translate(53.643411,569.625)"
         inkscape:connector-curvature="0"
         id="path277"
         d=""
         style="fill:#ffcc00;stroke-width:0.50507629" />
      <path
         transform="translate(53.643411,569.625)"
         inkscape:connector-curvature="0"
         id="path279"
         d=""
         style="fill:#ffcc00;stroke-width:0.50507629" />
      <path
         transform="translate(53.643411,569.625)"
         inkscape:connector-curvature="0"
         id="path12"
         d="M 113.28203,263.16842 C 57.380283,229.78887 11.639313,202.36414 11.635434,202.22459 11.62395,201.81139 214.78691,80.750207 215.3979,80.806168 c 1.02753,0.09411 203.35915,121.055552 203.2132,121.488492 -0.13747,0.40774 -202.13952,121.12059 -203.18444,121.41942 -0.2778,0.0794 -46.24288,-27.16611 -102.14463,-60.54566 z"
         style="fill:#ff6600;stroke-width:0.50507629" />
      <path
         transform="translate(53.643411,569.625)"
         inkscape:connector-curvature="0"
         id="path166"
         d="M 213.50835,322.40309 C 209.12448,320.11561 101.1761,255.86257 39.826997,219.02448 24.800211,210.00139 12.505569,202.41445 12.505569,202.16459 c 0,-0.54969 152.027181,-91.45965 193.447211,-115.678509 l 9.51865,-5.565681 6.19564,3.642781 c 53.66409,31.552249 195.8385,116.992659 195.8385,117.690109 0,0.6108 -43.37347,26.78013 -132.85714,80.15918 -75.46565,45.01698 -68.74623,41.23973 -71.14008,39.99062 z"
         style="fill:#ffd5d5;stroke-width:0.71428573" />
      <path
         inkscape:connector-curvature="0"
         d="m 170.80047,745.14732 c -2.34001,-2.05968 -4.95167,-3.74044 -7.70078,-5.19235 -1.90048,-1.01059 -3.95251,-1.30286 -6.07429,-1.16439 -3.3829,0.9681 -9.22206,4.42165 5.26925,-3.40952 0.42297,-0.22857 -0.8056,0.52682 -1.18609,0.82072 -1.00566,0.77678 -1.15288,1.00339 -1.99874,1.90619 -1.70978,2.26401 -3.03622,4.8025 -4.21726,7.3748 -1.17238,2.45863 -1.8021,5.08244 -2.12246,7.77244 -0.20821,2.1433 -0.20918,4.29997 -0.19721,6.45122 -0.11994,1.84181 0.0942,3.50119 0.94618,5.14029 0.52958,1.10835 1.53079,1.87249 2.20697,2.86541 0.42527,0.7501 1.16653,1.25559 1.91039,1.6567 0.9757,0.68732 1.97591,1.33794 2.98265,1.98148 0.12012,0.0758 0.24024,0.15164 0.36036,0.22747 0,0 -8.93903,5.7194 -8.93903,5.7194 v 0 c -0.11164,-0.0798 -0.22328,-0.15958 -0.33491,-0.23937 -0.97016,-0.6743 -1.97163,-1.30235 -2.96893,-1.93515 -0.81116,-0.54059 -1.68384,-1.17726 -2.17389,-2.03501 -0.68365,-1.03073 -1.60395,-1.90599 -2.14696,-3.03423 -0.93712,-1.77298 -1.35194,-3.5734 -1.17862,-5.58987 0.011,-2.19751 0.0132,-4.39724 0.20296,-6.58863 0.31083,-2.78161 0.85146,-5.51829 2.0386,-8.07731 1.1247,-2.66519 2.52437,-5.2061 4.06447,-7.65399 0.89754,-1.08821 1.85418,-2.29759 3.08851,-3.03301 4.18004,-2.49047 7.97207,-5.82231 12.81856,-6.47184 2.2626,0.0326 4.39093,0.42785 6.33523,1.66038 2.73479,1.62708 5.38089,3.39102 7.96134,5.25368 0,0 -8.9463,5.59449 -8.9463,5.59449 z"
         id="path624"
         style="fill:#ffd5d5" />
      <path
         inkscape:connector-curvature="0"
         d="m 161.9231,739.54781 c -0.31796,3.21611 -1.39984,6.2853 -2.05488,9.44207 -0.50416,2.57746 -0.72103,5.19454 -0.83345,7.81425 -0.36305,3.10716 0.42426,5.39775 1.96212,8.05316 2.20462,3.17568 4.83854,6.03705 7.4226,8.90599 2.93253,3.2589 5.4991,6.8141 8.28846,10.19047 1.05385,1.34838 2.26793,2.52684 3.56941,3.6276 0,0 -8.80769,5.45583 -8.80769,5.45583 v 0 c -1.24569,-1.21097 -2.46401,-2.44975 -3.51774,-3.83697 -2.74722,-3.3891 -5.28442,-6.94907 -8.25991,-10.15042 -2.63745,-2.92054 -5.35459,-5.80423 -7.61552,-9.03245 -1.58889,-2.66036 -2.6807,-5.3465 -2.36138,-8.5071 0.0805,-2.70454 0.39142,-5.38966 0.92039,-8.04522 0.59754,-3.04902 1.61123,-6.02145 1.87107,-9.11925 0,0 9.41652,-4.79796 9.41652,-4.79796 z"
         id="path626"
         style="fill:#ffd5d5" />
      <path
         inkscape:connector-curvature="0"
         id="path638"
         d="M 211.66092,321.12759 C 169.35137,296.35717 23.110841,208.93878 14.969727,203.55125 l -2.093774,-1.3856 2.922917,-1.84798 C 27.396255,192.98535 162.65663,112.1531 201.19793,89.522286 l 14.28575,-8.388353 19.30183,11.427193 c 55.50278,32.859124 153.91923,92.024544 181.67963,109.221074 0.41438,0.25669 0.64166,0.57556 0.50508,0.70859 -1.44899,1.41137 -170.77516,102.93421 -191.44833,114.78663 -10.70011,6.13462 -10.19746,5.995 -13.86097,3.85017 z"
         style="fill:#f01728;stroke-width:0.50507629;fill-opacity:1"
         transform="translate(53.643411,569.625)" />
      <path
         d="M 386.86229,783.69276 A 122.93987,84.043114 0 0 1 244.85712,851.97367 122.93987,84.043114 0 0 1 144.56894,755.0929 122.93987,84.043114 0 0 1 286.00069,686.25805 122.93987,84.043114 0 0 1 387.09754,782.74524 L 265.77542,769.15607 Z"
         sodipodi:end="0.1624059"
         sodipodi:start="0.17384143"
         sodipodi:ry="84.043114"
         sodipodi:rx="122.93987"
         sodipodi:cy="769.15607"
         sodipodi:cx="265.77542"
         sodipodi:type="arc"
         id="path825"
         style="opacity:1;fill:#ffcc00;fill-opacity:1;stroke:#050000;stroke-width:0;stroke-linejoin:miter;stroke-miterlimit:4;stroke-dasharray:none;stroke-opacity:1" />
      <rect
         y="702.48376"
         x="189.1488"
         height="130.30968"
         width="162.63455"
         id="rect829"
         style="opacity:1;fill:#d40000;fill-opacity:1;stroke:#050000;stroke-width:0;stroke-linejoin:miter;stroke-miterlimit:4;stroke-dasharray:none;stroke-opacity:1" />
      <path
         inkscape:label="#path833"
         transform="matrix(0.57190893,0,0,0.52616182,123.82904,351.31449)"
         inkscape:transform-center-y="-3.1775799"
         inkscape:transform-center-x="-0.57133051"
         d="m 288.76405,826.35927 -40.56652,-32.22796 -45.4764,28.42758 18.11486,-48.54003 -41.08922,-34.46603 51.76212,2.22856 20.08187,-49.72875 13.87589,49.91736 53.50049,3.73196 -43.18634,28.62207 z"
         inkscape:randomized="0"
         inkscape:rounded="0"
         inkscape:flatsided="false"
         sodipodi:arg2="1.5763504"
         sodipodi:arg1="0.98661747"
         sodipodi:r2="28.886641"
         sodipodi:r1="73.26384"
         sodipodi:cy="765.24512"
         sodipodi:cx="248.35797"
         sodipodi:sides="5"
         id="star"
         style="opacity:1;fill:#ffffff;fill-opacity:1;stroke:#050000;stroke-width:0;stroke-linejoin:miter;stroke-miterlimit:4;stroke-dasharray:none;stroke-opacity:1"
         sodipodi:type="star" />
    </g>
  </g>
</svg>
