<?xml version="1.0" encoding="UTF-8" standalone="no"?>
<svg
   xmlns:dc="http://purl.org/dc/elements/1.1/"
   xmlns:cc="http://creativecommons.org/ns#"
   xmlns:rdf="http://www.w3.org/1999/02/22-rdf-syntax-ns#"
   xmlns:svg="http://www.w3.org/2000/svg"
   xmlns="http://www.w3.org/2000/svg"
   xmlns:xlink="http://www.w3.org/1999/xlink"
   xmlns:sodipodi="http://sodipodi.sourceforge.net/DTD/sodipodi-0.dtd"
   xmlns:inkscape="http://www.inkscape.org/namespaces/inkscape"
   style="shape-rendering:crispEdges"
   height="600"
   width="800"
   version="1.1"
   viewBox="0 0 800.00002 599.99295"
   id="svg3941"
   sodipodi:docname="Gears_8IWk3lq.svg"
   inkscape:version="0.92.2 (5c3e80d, 2017-08-06)">
  <sodipodi:namedview
     pagecolor="#ffffff"
     bordercolor="#666666"
     borderopacity="1"
     objecttolerance="10"
     gridtolerance="10"
     guidetolerance="10"
     inkscape:pageopacity="0"
     inkscape:pageshadow="2"
     inkscape:window-width="1366"
     inkscape:window-height="745"
     id="namedview3943"
     showgrid="false"
     inkscape:zoom="0.355"
     inkscape:cx="400"
     inkscape:cy="300"
     inkscape:window-x="-8"
     inkscape:window-y="-8"
     inkscape:window-maximized="1"
     inkscape:current-layer="svg3941" />
  <metadata
     id="metadata3823">
    <rdf:RDF>
      <cc:Work
         rdf:about="">
        <dc:format>image/svg+xml</dc:format>
        <dc:type
           rdf:resource="http://purl.org/dc/dcmitype/StillImage" />
        <dc:title />
      </cc:Work>
    </rdf:RDF>
  </metadata>
  <defs
     id="defs3858">
    <linearGradient
       id="igorka">
      <stop
         style="stop-color:#ff2a2a"
         offset="0"
         id="stop3825" />
      <stop
         style="stop-color:#800000"
         offset="1"
         id="stop3827" />
    </linearGradient>
    <radialGradient
       id="p"
       xlink:href="#igorka"
       gradientUnits="userSpaceOnUse"
       cy="305.77"
       cx="-2.5"
       gradientTransform="matrix(1.3128 0 0 1.3128 557.75 -220.84)"
       r="9.9912" />
    <filter
       id="k"
       style="color-interpolation-filters:sRGB"
       height="1.036"
       width="1.036"
       y="-.018008"
       x="-.017992">
      <feGaussianBlur
         stdDeviation="1.585701"
         id="feGaussianBlur3831" />
    </filter>
    <filter
       id="o"
       style="color-interpolation-filters:sRGB"
       height="1.048"
       width="1.048"
       y="-.024002"
       x="-.023998">
      <feGaussianBlur
         stdDeviation="2.4970798"
         id="feGaussianBlur3834" />
    </filter>
    <filter
       id="j"
       style="color-interpolation-filters:sRGB"
       height="1.048"
       width="1.048"
       y="-.024004"
       x="-.023996">
      <feGaussianBlur
         stdDeviation="1.3535515"
         id="feGaussianBlur3837" />
    </filter>
    <radialGradient
       id="i"
       gradientUnits="userSpaceOnUse"
       cy="-19.074"
       cx="509.17"
       gradientTransform="matrix(-1.0765,1.1971,-0.85547,-0.76933,1047.7042,-486.52703)"
       r="401.64">
      <stop
         style="stop-color:#fff"
         offset="0"
         id="stop3840" />
      <stop
         style="stop-color:#f2f2f2"
         offset=".50999"
         id="stop3842" />
      <stop
         style="stop-color:#b3b3b3"
         offset="1"
         id="stop3844" />
    </radialGradient>
    <filter
       id="n"
       style="color-interpolation-filters:sRGB"
       height="1.0774"
       width="1.0772"
       y="-.038711"
       x="-.038604">
      <feGaussianBlur
         stdDeviation="4.5847258"
         id="feGaussianBlur3847" />
    </filter>
    <filter
       id="m"
       style="color-interpolation-filters:sRGB"
       height="1.1291"
       width="1.1292"
       y="-.064570"
       x="-.064578">
      <feGaussianBlur
         stdDeviation="4.5847258"
         id="feGaussianBlur3850" />
    </filter>
    <filter
       id="l"
       style="color-interpolation-filters:sRGB"
       height="1.0895"
       width="1.0895"
       y="-.044739"
       x="-.044753">
      <feGaussianBlur
         stdDeviation="4.5847258"
         id="feGaussianBlur3853" />
    </filter>
    <radialGradient
       id="e"
       xlink:href="#igorka"
       gradientUnits="userSpaceOnUse"
       cy="305.77"
       cx="-2.5"
       gradientTransform="matrix(1.3128 0 0 1.3128 286.4 -137.13)"
       r="9.9912" />
    <radialGradient
       id="c"
       xlink:href="#igorka"
       gradientUnits="userSpaceOnUse"
       cy="305.77"
       cx="-2.5"
       gradientTransform="matrix(1.3128 0 0 1.3128 476.75 -47.484)"
       r="9.9912" />
  </defs>
  <path
     style="filter:url(#m);fill:#808080"
     d="m435.13 337.82c-3.4921 3.1298-1.2972 11.33-5.6274 12.224-3.4393-1.0238-4.1289-8.1371-7.8804-10.447-4.795-2.6782-10.181 2.2986-8.7681 8.0805 1.0175 3.3463-.15374 10.924-4.1084 5.9776-3.0459-2.8406-7.4231-9.58-11.617-5.8528-5.7299 1.4992-2.4124 8.4222-1.4826 12.576 3.1186 6.2278-4.3138 4.4651-6.9294 1.2771-4.4137-3.9789-10.745-2.1915-11.549 3.2285.46927 4.3941 5.2928 8.6575 5.4004 12.138-2.833 3.9872-9.0206-2.6247-13.524-1.0163-4.6122 1.101-6.1935 8.288-1.1374 11.112 1.9008 2.4923 8.7825 6.7783 2.9239 8.027-4.1061-.0111-11.834-1.5948-13.088 3.0125-3.5786 5.3587 2.8714 7.9711 6.6722 10.493 6.5334.82468 3.1553 7.276-2.1632 5.8283-5.8885 1.2788-9.5108 4.0654-7.7266 10.451 4.2854 1.7682 8.4463 4.0254 13.191 4.1582 2.3196 5.7761-7.3126 4.8245-9.3585 9.224-3.9066 2.7596-.0996 10.953 5.2716 9.1389 3.3311 1.6564 10.121-2.5989 9.5069 3.1097-3.2606 2.801-8.8423 7.0591-8.4004 11.152 1.3087 6.5012 6.7431 4.9312 11.705 3.9219 4.9595-4.4145 9.1704 1.6373 3.6152 5.0801-2.9572 4.9805-4.3428 9.6428 1.6016 12.836 4.1938-.96149 9.0265-3.0857 12.504-6.1544 5.7286 2.4444-1.765 8.5816-.0961 13.141-.80583 4.7146 7.6746 7.8183 10.19 2.7354 3.5262-1.1859 5.3177-8.9966 8.9218-4.525-.32825 4.2859-1.2575 11.242 1.9473 13.824 5.5237 3.676 8.2499-1.2808 11.047-5.502.39016-6.6242 7.6424-5.3284 6.1504 1.0352 1.4275 5.6145 3.7493 9.8879 10.209 7.9434 2.2871-3.6429 4.2019-8.5631 4.4902-13.191 5.7761-2.3196 4.8245 7.3126 9.224 9.3585 2.7596 3.9066 10.953.0996 9.1389-5.2716 1.6564-3.3311-2.5989-10.121 3.1097-9.5069 2.801 3.2606 7.0591 8.8423 11.152 8.4004 6.5012-1.3088 4.9312-6.7431 3.9219-11.705-4.4145-4.9595 1.6373-9.1704 5.0801-3.6152 4.9805 2.9572 9.6428 4.3428 12.836-1.6016-.9615-4.1938-3.0857-9.0265-6.1544-12.504 2.4444-5.7286 8.5816 1.765 13.141.0961 4.7146.80583 7.8183-7.6746 2.7354-10.19-1.1859-3.5262-8.9966-5.3177-4.525-8.9218 4.2859.32825 11.242 1.2575 13.824-1.9473 3.676-5.5237-1.2808-8.2499-5.502-11.047-6.6242-.39016-5.3284-7.6424 1.0352-6.1504 5.6145-1.4276 9.8879-3.7493 7.9434-10.209-3.6429-2.2872-8.5631-4.2019-13.191-4.4902-2.3196-5.7761 7.3126-4.8245 9.3585-9.224 3.9066-2.7596.0996-10.953-5.2716-9.1389-3.3311-1.6564-10.121 2.5989-9.5069-3.1097 3.2606-2.801 8.8423-7.0591 8.4004-11.152-1.3087-6.5012-6.7431-4.9312-11.705-3.9219-4.9595 4.4145-9.1704-1.6373-3.6152-5.0801 2.9572-4.9805 4.3428-9.6428-1.6016-12.836-4.1938.96149-9.0265 3.0857-12.504 6.1544-5.7286-2.4444 1.765-8.5816.0961-13.141.80583-4.7146-7.6746-7.8183-10.19-2.7354-3.5262 1.1859-5.3177 8.9966-8.9218 4.525.32825-4.2859 1.2575-11.242-1.9473-13.824-5.5237-3.676-8.2499 1.2808-11.047 5.502-.39016 6.6242-7.6424 5.3284-6.1504-1.0352-1.4275-5.6145-3.7493-9.8879-10.209-7.9434-.70742-.22964-.56392.81884-.8457 1.2285zm4.1152 23.75c8.6862.26487 18.561 1.6199 25.584 6.4141 2.1858 8.0323-5.8872 12.747-12.365 14.607-5.3846 2.6237-9.6042 7.8722-10.275 13.91-3.7479-.94209-9.4044 2.1748-10.475-3.291-1.0034-6.606 5.2356-11.727 4.7129-18.449.53718-4.4677-1.4215-9.4768-3.252-12.869 2.0977-.21633 3.9773-.31149 6.0703-.32227zm-18.332 3.4922c7.0776 4.404 4.3712 13.341.89844 19.125-2.1869 5.6806-1.7553 12.554 2.0137 17.477-3.378 2.2801-5.5304 8.4055-10.377 5.0059-5.0885-3.8882-4.7319-11.579-9.8555-15.668-2.8309-3.4227-7.8968-5.3602-11.467-6.3965 7.1902-9.2189 17.149-16.244 28.256-19.9l.53125.35742zm55.02 9.1035c9.2375 7.1914 16.275 17.162 19.936 28.283-3.8746 7.1093-12.995 5.5317-18.646 1.7598-5.8546-2.5352-13.142-2.2786-18.312 1.6856-2.2788-3.3792-8.4062-5.5318-5.0059-10.379 3.8882-5.0885 11.579-4.7319 15.668-9.8555 3.3711-2.9293 5.4117-7.7431 6.3613-11.494zm-87.496 21.275c8.1572-.13797 10.103 8.4692 12.967 14.246 2.5566 4.9338 8.306 7.8224 12.994 9.0098-.795 3.6709 2.098 9.1498-3.2539 10.162-6.606 1.0034-11.727-5.2356-18.449-4.7129-4.4677-.53718-9.4768 1.4215-12.869 3.252-1.092-10.595.70386-22.007 5.5977-31.547.98594-.24367 1.9953-.41283 3.0137-.41016zm81.156 18.139c6.2178 1.2609 11.723 5.8342 18.467 4.9277 3.726.10005 7.8437-1.8834 10.621-3.2656 1.1372 10.603-.79624 21.767-5.4453 31.504-7.6769 2.5888-13.315-4.7913-14.867-11.408-2.3287-6.0324-8.5893-10.167-14.26-11.395.79566-3.6707-2.0988-9.1508 3.2539-10.162.72719-.18414 1.4825-.24192 2.2305-.20117zm-7.2676 21.49c7.4266 1.1632 6.509 10.493 11.117 14.887 2.9786 4.2845 8.6175 6.9524 12.939 8.0781-7.1909 9.22-17.15 16.245-28.258 19.9-7.1093-3.8746-5.5317-12.995-1.7598-18.646 2.5354-5.8545 2.2776-13.141-1.6836-18.312 3.0103-1.4488 4.0135-6.3824 7.6445-5.9062zm-70.801.0508c7.1001.46435 12.994 6.645 20.502 4.7637 2.8359.0346 5.7635-2.4906 7.8633-2.7695 2.2203 3.1324 7.8474 5.082 4.8926 9.7031-3.4138 5.2608-10.93 4.7354-15.025 9.4062-3.844 2.9318-6.1407 8.2794-7.2188 12.225-9.22-7.1909-16.245-17.15-19.9-28.258 1.856-3.1155 5.2094-5.2086 8.8867-5.0703zm52.711 10.867c5.7649 3.9188.94833 10.679-.89453 15.377-2.4622 6.3001-1.1959 14.148 1.9902 19.383-10.603 1.1372-21.767-.79623-31.504-5.4453-2.5888-7.6769 4.7913-13.315 11.408-14.867 6.043-2.3028 10.151-8.5857 11.369-14.262 2.5383.40785 5.1909-.11295 7.6309-.18555z"
     id="path3862">
    <animateTransform
       values="360 439.27 421.32;0 439.27 421.32"
       repeatCount="indefinite"
       dur="12s"
       attributeName="transform"
       type="rotate" />
  </path>
  <path
     style="filter:url(#l);fill:#808080;shape-rendering:crispEdges"
     d="m540.87 133.88c-3.8138 3.1092-1.9714 12.608-7.998 11.426-1.4398-4.1374-2.7664-11.092-6.7012-12.484-6.8694-1.6962-7.7927 4.6099-8.7105 9.8534.0994 8.4031-5.734 2.6067-7.3544-1.8223-1.1318-6.0568-10.465-6.0387-11.314-.74726-2.0028 3.63 2.1902 14.027-4.0846 11.676-2.8663-3.0657-6.4604-10.235-10.879-8.2087-6.8971.78045-4.3391 7.9778-3.6713 12.782 1.8631 7.9955-5.5783 1.7826-8.6096-.71217-3.1277-5.261-12.31-.38408-9.8214 4.6874.0496 3.7471 6.4461 13.392-.90614 10.843-3.8347-1.8588-9.7391-7.4983-12.9-2.7351-5.642 3.2002.16404 9.3292 2.1807 13.391 2.8526 6.9569-6.2996 1.5841-9.865 1.2239-4.8781-3.3704-10.984 5.3987-6.1046 8.8208 2.2028 3.2418 9.8431 10.976 1.3404 9.429-4.4497-.48517-11.63-3.3246-12.509 2.985-3.1656 4.8014 4.7354 8.4777 7.8592 11.521 2.6907 6.0019-7.212 2.3184-10.651 4.053-5.5909-.51849-6.9591 9.7057-.92574 10.856 4.2161 1.8931 11.691 7.5701 2.6868 7.9165-4.7058 1.0729-11.468 1.4291-9.8215 7.9642.0619 4.8845 8.3375 5.7316 12.369 7.4239 1.5687 5.8132-7.582 4.0162-10.472 7.625-4.6093 2.6729-1.4079 11.351 4.6893 10.354 5.6949-.34572 11.812 4.2005 3.381 6.6739-4.4445 2.7481-9.0867 5.576-5.408 11.162 2.6405 3.2513 9.6765 1.9994 14.031 1.9766 3.0882 5.2062-6.3533 6.7946-7.957 11.455-1.7865 5.1798 4.0155 9.979 9.6004 7.3667 5.3171-2.9311 10.961 1.0136 4.4074 5.2232-4.0089 4.3942-6.0014 8.8536-.63505 13.105 4.3954.65994 10.2-3.5662 13.928-2.998 2.7204 3.8612-4.431 8.7822-4.5923 13.642 2.5255 5.863 7.8336 6.0683 12.809 2.3466 3.9642-5.2718 9.4955-1.0368 4.9766 3.9453-2.4545 5.6796-2.1592 10.296 4.2441 12.559 4.7196-1.1832 8.4342-8.691 12.646-7.2792 1.6301 3.4247-1.4028 9.635-.53695 14.242 5.1708 4.3439 9.3278 2.3833 12.99-2.6562 2.0427-6.5088 8.3882-3.6822 5.9141 2.3164-1.1058 6.0953 3.0225 11.598 8.863 9.3674 4.2886-2.4023 4.29-11.958 9.7761-10.193 1.1529 3.9192 1.0875 10.928 4.3787 13.477 6.221 2.5894 8.4931-2.044 10.357-7.1986.39355-7.9448 6.4472-4.6638 6.7502 1.2204.57626 6.112 7.5642 8.7028 11.179 4.5472 3.2195-3.7237-.24614-12.762 5.8945-12.641 2.1405 3.8224 4.6504 10.441 8.7676 11.131 7.0624.48038 6.8712-5.8904 6.865-11.215-1.5518-8.259 5.1937-3.5639 7.5606.51607 2.1681 5.7696 11.353 4.1254 11.272-1.2315 1.3435-3.9214-4.5895-13.432 1.9948-12.205 3.3552 2.522 8.1362 8.957 12.14 6.1972 6.6611-1.9655 2.8875-8.6128 1.3952-13.229-3.2236-7.5487 5.1864-2.7258 8.6043-.79465 3.9926 4.6395 12.188-1.7585 8.8592-6.3207-.69828-3.6807-8.6728-12.071-.99114-10.834 4.0993 1.1659 10.895 5.6903 13.179.45073 4.9947-4.1296-1.7844-9.1601-4.4742-12.809-4.0156-6.3554 5.9295-2.6508 9.5024-2.9152 5.3922 2.4741 9.883-7.2291 4.479-9.7487-2.7351-2.8059-11.596-9.1011-2.956-9.0514 4.4661-.29553 12.031 1.2533 11.801-5.1123 2.2819-5.2786-6.1349-7.5306-9.7421-9.9823-3.684-5.4444 6.6971-3.54 9.7848-5.8412 5.5936-.45886 5.1703-10.768-.97146-10.854-4.48-1.1298-12.829-5.4257-4.0214-7.3246 4.4482-1.8744 11.049-3.4018 8.2913-9.5514-.91557-4.7948-9.2066-4.2007-13.472-5.1623-2.5516-5.4523 6.768-5.277 8.9901-9.3297 4.0744-3.4345-.58228-11.424-6.4158-9.3802-5.5479 1.3312-12.362-2.0908-4.4881-5.9857 3.9007-3.4808 7.9792-7.0718 3.3821-11.933-3.1653-2.7388-9.8749-.28982-14.158.49024-3.944-4.5904 5.0802-7.7928 5.8496-12.66.85931-5.4164-5.6862-9.1332-10.733-5.5892-4.7284 3.8094-10.973.90829-5.2513-4.3796 3.1846-5.0238 4.3738-9.7572-1.648-13.014-4.4443.10756-9.4287 5.2828-13.199 5.3685-3.3414-3.3326 2.8401-9.417 2.155-14.231-3.501-5.333-8.7652-4.6132-13.019-.0879-2.9887 5.876-9.1733 2.6783-5.5879-3.0176 1.4343-6.0213.3394-10.519-6.3613-11.635-4.4378 1.9894-6.7949 10.027-11.189 9.3666-2.1961-3.0917-.29321-9.7314-1.9435-14.119-5.8464-3.3814-9.6009-.7259-12.334 4.8711-.87352 6.7638-7.624 5.0822-6.2266-1.252.0319-6.1973-4.9871-10.894-10.355-7.6886l-.15834.31161zm-33.383 32.498c-4.1365 4.5364-9.6844 12.129-5.25 18.113 1.9711 1.802 8.265 5.4303 5.3904.49786-3.6268-6.3858 4.968-11.55 9.7053-11.18-3.7501 3.7001-4.165 11.898 2.2576 13.013 1.4852.26643-.0829-5.6462 3.4221-3.564 2.3764 1.5774 7.7787.17903 6.7285 4.1387.62014 9.5206 6.9391 18.378 3.727 28.143-.41483 4.3021-5.4054 8.2704-2.3246 12.6-2.2701 4.6767-8.471 3.9014-11.898 7.6543-2.6677.24684-4.0633-.43828-5.0742-2.8555-3.6508-2.8805-9.0737-1.9704-12.488-5.6104-8.3553-4.855-10.235-15.482-17.869-21.046 1.9556-1.9442 1.649-6.2277 4.125-7.2754 2.9082 2.7787 4.1339.73977 4.1094-2.4805-.33274-4.3142-4.9888-6.8465-8.9492-6.8066 3.8782-4.501 12.859-7.0537 15.393.15196 1.7133 4.5135 3.4301-3.5118 2.6009-5.9918-2.8392-6.5689-11.584-6.8723-17.752-6.5352 7.6629-4.9533 15.981-8.7949 24.688-11.516l-.54102.54882zm76.775 9.8496c4.9967 3.3072 9.7811 6.8888 14.199 10.943-6.1244-1.4267-15.842-2.5727-18.826 4.502-.52077 2.6217-.40399 9.8854 2.344 4.8841 3.6295-6.5269 12.68-1.3658 14.511 2.8385-5.4665-1.1744-11.811 3.6779-9.5117 9.6309 1.9703-1.4837 5.1522-2.1577 4.8203 1.248-.18345 2.5862 3.0539 5.8248-.71289 6.7226-7.8681 5.4185-12.264 15.385-22.282 17.651-3.8652 1.885-9.8688-.45765-11.97 4.4706-5.1163.36933-7.3537-5.5485-12.248-6.6621-1.0641-2.0857-2.2515-3.6758-.35547-5.5898 1.2624-4.4319-2.8224-8.4458-1.4824-13.051-.5169-10.042 7.9427-17.501 8.9922-27.066 2.8508.76944 6.7016-1.6532 9.0098.11719-1.0991 3.903 1.3964 3.9954 4.1816 2.3808 3.6168-2.6673 2.8227-8.123.69531-11.494 5.838 1.0963 12.347 7.5897 7.5243 13.393-2.9764 3.7761 4.7255 1.1394 6.4386-.81265 4.2134-5.7036.15214-13.362-3.2012-18.498l7.873 4.3926zm-112.16 48.662c8.6186 5.1761 20.189 3.7933 27.225 11.94 3.1442 2.7169 5.3622 8.2476 10.467 7.2221 2.9081 4.3634-1.6362 9.4403.0508 14.4.44086 2.7547-1.9879 4.5214-4.5781 3.75-5.1173 1.197-7.9467 6.7339-13.127 8.1758-7.9273 4.0389-17.431 1.15-25.381 4.998-.7679-2.8508-4.6988-4.9233-4.3945-7.8359 3.8988-1.087 2.7505-3.2662-.10546-4.8223-4.1225-1.7079-8.3789 1.7138-10.223 5.2266-1.8101-5.5868-.21674-15.63 7.7356-14.155 5.6068.89278-2.376-4.258-2.3762-5.0848 2.3848-1.1081 8.2317-4.5664 2.6067-4.4046-7.833-.0713-7.1146-10.885-4.5735-14.933 1.3761 5.4347 8.6707 9.6572 12.908 4.2891-1.9764-.97277-4.6008-3.063-1.5723-4.7637 1.8282-.72589 3.6386-5.2082 5.3379-4.002zm-28.304 10.74c1.4702 4.994 4.629 10.626 9.0684 12.883-5.5319 1.6516-9.0146 6.943-11.49 11.838-.3751-8.5005.16934-17.067 2.2422-25.336l.17969.61523zm158.91-.0449c.76789 2.8508 4.6988 4.9233 4.3945 7.8359-3.8988 1.087-2.7505 3.2662.10547 4.8223 4.1224 1.7079 8.3789-1.7138 10.223-5.2266 1.8101 5.5868.21674 15.63-7.7356 14.155-5.6068-.89278 2.376 4.258 2.3762 5.0848-2.3848 1.1081-8.2317 4.5664-2.6067 4.4046 7.816.0506 7.1494 10.927 4.5735 14.933-1.3761-5.4347-8.6707-9.6572-12.908-4.2891 1.9764.97277 4.6008 3.063 1.5723 4.7637-2.4239 1.2153-3.8078 6.2407-6.5508 3.3164-8.4729-4.3352-19.297-3.5199-26.012-11.254-3.1442-2.7169-5.3622-8.2476-10.467-7.2221-2.9081-4.3634 1.6362-9.4403-.0508-14.4-.44086-2.7547 1.9879-4.5214 4.5781-3.75 5.1173-1.197 7.9467-6.7339 13.127-8.1758 7.9618-4.0528 17.388-1.1345 25.381-4.998zm25.48 24.01c-.38445 4.7509-1.0259 13.394-2.5391 15.67-1.4738-4.971-4.6293-10.573-9.0488-12.818 5.5319-1.6516 9.0146-6.943 11.49-11.838.0326 2.9954.0651 5.9909.0977 8.9863zm-115.59 12.24c5.1333-.37942 7.3745 5.5445 12.277 6.666 1.0641 2.0857 2.2515 3.6758.35547 5.5898-1.2624 4.4319 2.8224 8.4458 1.4824 13.051.51689 10.042-7.9427 17.501-8.9922 27.066-2.8508-.76944-6.7016 1.6532-9.0098-.11719 1.0991-3.903-1.3964-3.9954-4.1816-2.3808-3.6168 2.6673-2.8227 8.123-.69531 11.494-5.838-1.0963-12.347-7.5897-7.5243-13.393 2.9764-3.7761-4.7255-1.1394-6.4386.81265-4.2134 5.7036-.15215 13.362 3.2012 18.498-8.0072-4.1052-15.45-9.2408-22.072-15.336 6.1244 1.4267 15.842 2.5727 18.826-4.502.52076-2.6217.40398-9.8854-2.344-4.8841-3.6295 6.5269-12.68 1.3658-14.511-2.8385 5.4665 1.1744 11.811-3.6779 9.5117-9.6309-1.9703 1.4837-5.1522 2.1577-4.8203-1.248.18345-2.5862-3.0539-5.8248.71289-6.7226 7.8681-5.4185 12.264-15.385 22.282-17.651 4.0707-2.0824 9.6304.71502 11.94-4.4745zm38.031 3.3848c2.3229-.23232 3.6357.27598 4.3965 2.4922 3.1841 3.2706 8.6511 1.9093 11.92 5.3652 8.934 4.7079 10.855 15.802 18.703 21.598-1.9556 1.9442-1.649 6.2277-4.125 7.2754-2.9082-2.7787-4.1339-.73976-4.1094 2.4805.33274 4.3142 4.9888 6.8465 8.9492 6.8066-3.8782 4.501-12.859 7.0537-15.393-.15196-1.7133-4.5135-3.4301 3.5118-2.6009 5.9918 2.8392 6.5689 11.584 6.8723 17.752 6.5352-7.6629 4.9533-15.981 8.7949-24.688 11.516 4.3594-4.5922 10.283-12.333 5.8457-18.605-1.9494-1.8395-8.3283-5.5003-5.4451-.55451 3.6268 6.3858-4.968 11.55-9.7053 11.18 3.7501-3.7001 4.165-11.898-2.2576-13.013-1.4852-.26642.0829 5.6462-3.4221 3.564-2.3764-1.5774-7.7787-.17903-6.7285-4.1387-.62013-9.5206-6.9391-18.378-3.727-28.143.41484-4.3021 5.4054-8.2704 2.3246-12.6 2.2701-4.6767 8.471-3.9014 11.898-7.6543l.41211.0566z"
     id="path3864">
    <animateTransform
       values="0 534.76 255.5;360 534.76 255.5"
       repeatCount="indefinite"
       dur="18s"
       attributeName="transform"
       type="rotate" />
  </path>
  <path
     style="filter:url(#n);fill:#808080;shape-rendering:crispEdges"
     d="m249.31 173.97c-6.8739-1.8067-7.8857 4.3714-8.9246 9.6428-.18546 8.3988-5.7727 2.5084-7.2448-1.9945-.85908-6.1483-10.268-6.4211-11.315-1.1801-2.0251 3.4508 1.4317 14.024-4.5348 11.39-2.8251-3.1256-5.7977-10.612-10.366-8.856-7.0095.31043-4.8627 7.5874-4.6065 12.474 1.2398 8.1369-5.6681 1.3758-8.4412-1.3813-2.6287-5.5553-12.276-1.4531-10.237 3.8145-.22296 3.6176 4.9977 13.92-1.8999 10.609-3.6997-2.1524-8.8053-8.568-12.516-4.1585-6.078 2.5253-.9119 9.1974.48882 13.553 2.0072 7.2668-6.4246.78793-9.8372-.0918-4.3524-4.0349-11.687 3.8681-7.2977 7.9303 1.737 3.4238 8.0045 12.281-.046 9.4218-4.3543-1.0927-10.899-5.2082-12.82.90798-4.0458 4.2353 3.2642 9.0643 5.7067 12.72 1.6999 6.3215-7.5032 1.0238-11.105 2.0029-5.3751-1.5616-8.7113 8.2771-2.9638 10.537 3.7316 2.627 9.8695 9.701 1.0603 8.2062-4.8331.10218-11.489-1.0844-11.281 5.6778-1.1302 4.8365 6.9151 7.3046 10.364 10.017.3243 5.8836-8.2977 2.2192-11.861 4.9125-5.0821 1.5194-4.1 10.759 2.1114 11.221 5.5425 1.0795 10.313 6.9473 1.5949 7.2434-5.0777 1.4529-10.212 3.0167-8.1334 9.3932 1.6786 3.8402 8.8281 4.3596 12.98 5.6816 1.446 5.7432-7.9887 4.763-10.814 8.6308-3.1955 4.4487.94453 10.816 7.1033 9.8642 5.9521-1.1685 10.031 4.2085 2.5744 6.2822-5.2419 2.9211-8.349 6.5565-4.6002 12.267 3.9494 1.9593 10.805-.26601 14.152 1.5787 1.1645 4.4687-7.0328 6.8456-8.8318 11.24.43455 6.3599 5.3272 8.459 11.304 6.5316 5.5529-3.4452 9.1631 2.2542 3.2754 5.4238-4.4122 4.4239-5.6197 8.8433-.47266 13.26 4.7827.49867 10.998-5.095 14.407-2.1755.029 3.7989-4.8438 8.3841-5.8994 12.879 3.1491 5.9542 7.7013 5.8972 13.021 2.5352 4.4485-5.0429 9.119-.19056 4.5391 4.4199-3.5473 5.158-1.8648 11.832 4.3735 12.166 4.8023-.55863 8.8172-9.1506 13.083-5.2649-.7881 4.1667-3.5837 10.301-1.804 13.985 4.5347 4.9664 8.5496 1.9112 12.432-2.033 3.866-6.8845 7.8395-1.4761 5.5408 3.998-2.2858 5.7588 2.9213 11.169 8.0022 9.0801 4.389-1.9124 5.5685-11.318 10.85-8.5859.30899 4.37-.72569 11.398 2.6016 13.93 6.037 3.7584 8.8235-1.8541 11.369-6.5856 2.6522-7.9705 6.2495-.69031 6.3344 4.0415-.99089 6.1261 7.92 9.1664 10.465 4.4685 2.9524-2.701 2.7648-13.828 7.6911-9.5485 1.7784 3.8191 2.4132 11.85 7.2957 11.514 6.7883 1.7703 6.8798-5.8142 8.0765-10.558 1.2136-8.1433 5.8248.35257 7.6618 3.8073.87318 6.0835 11.304 5.0041 10.905-.63002 1.2782-3.3866-.66938-14.773 4.9389-9.5774 2.9021 3.1476 5.892 10.783 10.739 7.6649 6.5478-.62543 3.5794-8.5256 3.5262-13.099.22689-7.5334 6.3705 1.1478 9.3723 2.9911 2.9706 5.1392 12.305-.24911 9.3107-5.4249-.65007-3.7838-4.0292-14.097 2.8219-8.993 3.8402 2.3279 8.8788 8.1931 12.517 2.9108 5.1192-2.8526-.44706-9.6195-1.7022-13.833.23266-6.5476 7.4699 1.2298 11.2 1.3573 4.679 3.0771 10.764-5.3441 5.9388-9.1985-2.7893-3.6088-6.5725-12.178 1.4028-8.1504 4.651 1.3244 10.662 4.4235 12.456-2.1027 2.5024-4.2865-4.4507-9.0209-6.9493-12.626 1.4187-5.7189 8.5834.3236 12.781-1.1972 5.3021.0457 7.0912-9.0732 1.2914-11.346-4.9834-2.6618-7.8049-9.6773.61162-7.3919 5.2781.10942 10.646.12447 10.54-6.5784-.46965-4.165-7.1531-6.7668-10.73-9.2559.31352-5.9132 9.0389-2.1943 12.879-5.0606 4.3629-3.3149 2.2833-10.609-3.8813-11.516-6.0294-.64291-8.348-6.9809-.60895-6.7651 5.869-1.2412 9.9103-3.8076 8.0112-10.365-3.1973-3.0372-10.4-2.9295-13.056-5.6789.2016-4.6135 8.7366-4.4716 11.753-8.1364 1.4609-6.2048-2.5988-9.6522-8.8761-9.5753-6.3193 1.6597-8.097-4.8529-1.5352-6.1465 5.5183-2.9265 7.9839-6.7906 4.3652-12.529-4.4239-1.8892-12.011 1.6262-14.411-2.1696 1.0903-3.6392 7.1034-6.5843 9.4346-10.571-1.2575-6.6142-5.6211-7.9067-11.695-6.2578-5.7381 3.5037-8.768-2.5026-3.0371-5.5625 4.9083-3.8842 5.2682-10.756-.58967-12.917-4.7553-.88633-11.123 6.1481-14.054 1.177 1.9779-3.7469 6.461-8.7883 5.843-12.832-2.8706-6.0814-7.6034-4.3495-12.477-1.7231-5.7249 5.4373-7.9259-.89855-4.1148-5.4527 3.8869-4.831.4928-11.531-4.9731-11.034-4.7549.53848-8.6569 9.173-12.898 5.0039.99379-4.2669 4.054-10.679 1.6211-14.078-4.6594-5.3658-8.9791-.82508-12.805 2.9426-4.8827 6.8344-6.1807-1.182-4.8627-5.7296 2.7505-5.5623-4.8643-11.092-8.684-7.352-3.6179 1.7092-6.7162 12.396-10.163 6.8579-.57132-4.1742 1.1852-12.031-3.5775-13.155-5.9674-3.6986-8.2881 3.5293-10.831 7.7102-3.5606 7.422-5.4566-2.0573-6.1982-5.8958.95844-6.0684-9.3286-8.1194-10.605-2.6161-2.2188 2.8621-3.7172 14.316-7.5457 7.6944-1.3933-3.3674-2.611-9.9228-6.0036-10.631zm-12.682 28.619c-3.5712 16.639 6.3024 32.685 18.854 42.789 1.0892 2.0902-6.5715 3.205-2.0695 7.0866 4.7698 10.801 5.5246 22.647 4.8468 34.415-3.0656-1.2479-8.9023 3.3716-8.8223-1.7168-6.2896-23.831-15.822-46.609-22.668-70.254-2.7344 3.8297-6.8648 12.477-8.7441 13.359.508-9.3009 6.4392-16.981 11.387-24.434 2.2299-.29683 5.5068-1.4488 7.2168-1.2461zm24.195.84765c12.919.59804 25.75 3.23 37.934 7.6582-9.1161 6.5337-18.186 14.69-21.475 25.791-3.1797 1.0064-6.9595 3.9767-8.9883-.18555-7.9112-8.5131-16.694-20.836-12.611-32.859 1.6852-.36984 3.4218-.41198 5.1406-.4043zm-61.158 16.047c-.0207 10.902 1.9898 22.332 8.4648 31.355-1.228 3.0444-1.1827 7.9588-5.7578 6.9121-11.668.79407-27.054 1.0355-34.494-9.4766 7.853-12.284 19.785-21.196 31.793-29.252l-.006.46094zm133.04 9.1992c-15.3 7.6983-21.66 25.595-21.553 41.82-.89467 2.2284-6.8127-3.4558-6.7622 2.8668-5.3208 10.526-14.178 18.776-23.601 25.629-.82113-3.2836-8.2225-5.0819-4.166-8.248 14.576-19.762 26.66-41.25 41.75-60.648-5.7575.21149-13.747 1.344-18.139.99219 7.512-6.0496 17.656-6.2316 26.801-7.1035l5.6699 4.6914zm10.768 15.656c10.139 10.625 16.296 24.469 21.307 38.01-10.79-2.8931-22.804-4.7766-33.43-.27344-2.7119-1.8424-7.4236-2.889-5.4844-7.0586 1.5829-11.266 5.6311-26.415 17.607-30.678zm-62.572 6.9688c-4.0386 7.7812-8.205 16.827-12.363 23.746.86566-6.4861 1.4894-13.109.48633-19.617 3.8606-1.444 8.3033-3.1524 11.877-4.1289zm-59.322 5.7676c3.5918 8.1384 7.439 16.169 10.697 24.451-4.3749-4.8216-9.0095-9.6211-14.797-12.746 1.1601-3.862 2.6097-8.4864 4.0996-11.705zm-66.234 5.3008c11.109 12.837 29.74 14.376 45.349 10.903 3.8342-1.0836-2.4456 7.533 3.7001 5.7454 11.919 2.5129 22.112 10.029 30.703 18.195-2.5004 1.5081-2.6414 8.0333-6.3828 4.6289-22.755-9.4333-46.544-16.027-68.959-26.182 1.2971 4.6779 5.116 13.081 4.8711 15.482-6.8887-6.4277-9.0904-15.773-11.713-24.535.78796-1.1445 1.5494-3.9682 2.4316-4.2383zm157.16 25.426c3.345 2.0126 7.3443 4.271 9.9785 6.3828-8.6839 1.5645-17.938 4.0146-26.168 5.3535 5.5811-3.4599 11.117-7.1906 15.529-12.109l.66015.37305zm37.951 9.6699c9.1232 1.862 15.844 8.8775 22.184 15.178-.30417 2.5188 1.5987 9.1459-2.6172 6.3223-15.684-5.7662-32.398 2.1203-44.59 11.398-.47907-4.3475-2.6627-5.8384-6.7899-3.882-11.25 2.2088-22.799.59708-33.726-2.2371 1.1882-2.5436.75071-6.3225 1.709-8.3574 25.396-1.0632 50.497-5.6384 75.865-6.2656-4.0055-4.0486-8.0635-8.125-12.035-12.156zm-204.3 2.1562c8.4035 7.1633 18.296 14.018 29.705 14.508 1.6458 2.8663 5.4754 5.8406 1.8789 8.8106-6.346 9.8631-16.457 21.443-29.037 20.494-4.696-14.11-4.1534-29.686-2.8555-44.084l.3086.27149zm42.918 7.3398c8.5185 2.3296 17.825 4.0658 25.922 6.375-6.5396.72418-13.159 1.7135-19.262 4.2852-2.3177-3.3827-5.0456-7.4108-6.6602-10.66zm39.68 13.902c-.63086 3.1945 5.1904 7.9365.0898 8.9473-21.716 11.636-41.871 25.968-63.771 37.178 5.347 1.8949 10.726 3.7855 16.055 5.6777-9.0354 2.2405-17.992-1.0425-26.414-3.9531-.41953-2.4432-5.5753-7.5244-.45899-6.793 16.65-1.6156 28.269-16.01 35.24-29.664 2.1135 3.0699 4.4622 4.616 7.043 1.1328 9.2695-7.232 20.829-10.927 32.141-13.104l.0762.57813zm129.06 14.688c3.1444.41701 10.417.18531 9.0352 4.959-2.8076 13.514-8.8626 26.266-16.057 37.973-4.6077-10.068-11.317-19.783-21.158-25.311-.0626-3.1396-2.4488-7.569 1.916-8.5781 8.1256-4.6347 16.695-8.9323 26.264-9.043zm-63.635.97656c6.2439 2.1252 12.667 4.053 19.299 4.3457.57376 4.0072 1.4151 8.9541 1.332 12.402-6.6862-5.6903-14.406-11.263-20.631-16.748zm-17.895 1.4023c16.144 19.658 35.111 36.743 51.775 55.939.83583-4.7081.92607-14.147 2.2207-15.959 3.4982 8.7377 1.4333 18.227.10156 27.115-2.7021 2.8858-4.5511 3.6296-5.209-.48243-5.8717-15.211-21.976-22.889-36.777-26.361 2.4681-2.7253 3.5932-5.4179-.50976-7.0879-9.2208-7.444-14.791-18.015-18.988-28.828 2.6744-.93404 5.2855-3.2274 7.3867-4.3359zm-31.945 3.7598c2.1042 2.1965 8.89.68947 6.5312 5.0957-4.6148 24.184-5.8796 48.851-10.105 73.098 4.1692-2.2535 11.812-8.3441 13.822-8.2129-4.5807 8.2132-13.443 12.536-21.193 17.1-3.993-.30426-5.5522-1.3705-2.8223-4.4434 8.1307-14.177 3.9688-31.595-2.6719-45.305 4.7144.79145 5.9157-1.6351 5.375-5.9258.69456-11.271 5.05-21.963 10.457-31.746l.60742.33985zm-15.035 5.8223c-3.5668 5.506-6.9784 11.236-8.877 17.559-4.1265-.37696-8.9793-.71823-12.588-1.4902 7.211-5.1584 14.517-11.29 21.465-16.068zm36.016 11.807c1.7498 5.6454 3.8017 11.33 7.332 16.135-2.7068 2.9734-6.0423 6.5736-8.7461 8.7031.27626-8.8974.26246-17.732.88281-26.604l.28813.95759.24312.80803zm-59.328 19.002c3.1303.26242 6.9308-.18614 7 3.9297 3.4702 11.078 5.9845 26.202-3.0293 35.08-13.551-5.1839-25.046-14.937-35.266-24.924 11.002-2.02 22.635-5.5464 30.324-14.154l.97071.0684zm72.537 12.477c11.861 4.2552 26.288 11.469 28.514 25.246-12.436 7.4703-27.276 10.19-41.486 12.107-.82277-.88155 2.0988-4.1679 2.5742-6.0566 3.8-8.1895 6.7388-17.357 5.2266-26.469 1.6866-1.5025 3.286-4.0195 5.1719-4.8281z"
     id="path3866">
    <animateTransform
       values="0 257.25 315.77;360 257.25 315.77"
       repeatCount="indefinite"
       dur="21s"
       attributeName="transform"
       type="rotate" />
  </path>
  <g
     id="g3872">
    <path
       style="fill:#806600"
       d="m442.27 313.82-2.7188 6.498-.76563 4.6758.14063 1.752-7.0156.92382-.31639-1.7305-1.9512-4.3164-4.3086-5.5742-4.3984 1.1797-.94531 6.9805.47071 4.7129.58985 1.6582-6.5371 2.707-.75392-1.5879-3.002-3.666-5.6035-4.2695-3.9434 2.2774.89258 6.9883 1.6758 4.4316.99805 1.4473-5.6133 4.3086-1.1406-1.3398-3.8476-2.7637-6.5176-2.6738-3.2207 3.2207 2.6738 6.5176 2.7637 3.8476 1.3398 1.1406-4.3086 5.6133-1.4473-.99805-4.4316-1.6758-6.9883-.89258-2.2774 3.9434 4.2695 5.6035 3.666 3.002 1.5879.75391-2.707 6.5371-1.6582-.58985-4.7129-.4707-6.9805.94531-1.1797 4.3984 5.5742 4.3086 4.3164 1.9512 1.7305.31641-.92381 7.0156-1.752-.14063-4.6758.76563-6.498 2.7187v4.5547l6.498 2.7188 4.6758.76563 1.752-.14063.92381 7.0156-1.7305.3164-4.3164 1.9512-5.5742 4.3086 1.1797 4.3984 6.9805.94531 4.7129-.4707 1.6582-.58985 2.707 6.5371-1.5879.75391-3.666 3.002-4.2695 5.6035 2.2774 3.9434 6.9883-.89258 4.4316-1.6758 1.4473-.99805 4.3086 5.6133-1.3398 1.1406-2.7637 3.8476-2.6738 6.5176 3.2207 3.2207 6.5176-2.6738 3.8476-2.7637 1.1406-1.3398 5.6133 4.3086-.99805 1.4473-1.6758 4.4316-.89258 6.9883 3.9434 2.2774 5.6035-4.2695 3.002-3.666.75392-1.5879 6.5371 2.707-.58985 1.6582-.47071 4.7129.94531 6.9805 4.3984 1.1797 4.3086-5.5742 1.9512-4.3164.31639-1.7305 7.0156.92382-.14063 1.752.76563 4.6758 2.7188 6.498h4.5547l2.7188-6.498.76562-4.6758-.14062-1.752 7.0156-.92382.31641 1.7305 1.9512 4.3164 4.3086 5.5742 4.3984-1.1797.94532-6.9805-.47071-4.7129-.58984-1.6582 6.5371-2.707.75391 1.5879 3.002 3.666 5.6035 4.2695 3.9434-2.2774-.89258-6.9883-1.6758-4.4316-.99806-1.4473 5.6133-4.3086 1.1406 1.3398 3.8476 2.7637 6.5176 2.6738 3.2207-3.2207-2.6738-6.5176-2.7637-3.8476-1.3398-1.1406 4.3086-5.6133 1.4473.99805 4.4316 1.6758 6.9883.89258 2.2774-3.9434-4.2695-5.6035-3.666-3.002-1.5879-.75391 2.707-6.5371 1.6582.58985 4.7129.4707 6.9805-.94531 1.1797-4.3984-5.5742-4.3086-4.3164-1.9512-1.7305-.3164.92383-7.0156 1.752.14063 4.6758-.76563 6.498-2.7188v-4.5547l-6.498-2.7187-4.6758-.76563-1.752.14063-.92383-7.0156 1.7305-.31641 4.3164-1.9512 5.5742-4.3086-1.1797-4.3984-6.9805-.94531-4.7129.4707-1.6582.58985-2.707-6.5371 1.5879-.75391 3.666-3.002 4.2695-5.6035-2.2774-3.9434-6.9883.89258-4.4316 1.6758-1.4473.99805-4.3086-5.6133 1.3398-1.1406 2.7637-3.8476 2.6738-6.5176-3.2207-3.2207-6.5176 2.6738-3.8476 2.7637-1.1406 1.3398-5.6133-4.3086.99806-1.4473 1.6758-4.4316.89258-6.9883-3.9434-2.2774-5.6035 4.2695-3.002 3.666-.75391 1.5879-6.5371-2.707.58985-1.6582.47071-4.7129-.94532-6.9805-4.3984-1.1797-4.3086 5.5742-1.9512 4.3164-.3164 1.7305-7.0156-.92382.14062-1.752-.76562-4.6758-2.7188-6.498zm2.28 20.978c9.4023.0263 18.674 2.1994 27.109 6.3535 1.385 4.5498.73631 7.9177-.94923 10.676-1.831 2.9961-5.1446 5.3179-8.9863 6.5332-4.1723 1.3199-7.9098 3.921-10.207 7.6934-1.405 2.3072-2.1825 5.0637-2.1777 8.0098-1.5739-.33901-3.1791-.51184-4.7891-.51562-1.6975.009-3.3888.20642-5.043.58789-2.8724-1.4323-4.0815-3.3538-4.543-5.6856-.47923-2.4217.0847-5.3778 1.5137-7.9062 2.6598-4.7064 4.0048-10.275 2.8867-15.75-.66894-3.2755-2.2969-6.435-4.877-9.1504 3.3254-.55614 6.6909-.83899 10.062-.8457zm-18.609 2.9453c4.1033 2.3835 5.9185 5.2884 6.5644 8.4512.70259 3.4403-.13866 7.3984-2.1211 10.906-2.1572 3.8171-3.1553 8.3219-2.2871 12.709.53227 2.6896 1.8647 5.2965 3.9492 7.4394-2.784 1.8132-5.1421 4.2079-6.9121 7.0195-3.1192.99056-5.4455.54702-7.4375-.66601-2.0773-1.265-3.7816-3.5608-4.6602-6.3379-1.6305-5.1542-4.7887-9.9357-9.5566-12.85-2.384-1.4569-5.1623-2.3746-8.1973-2.6152-.56905-.0451-1.1501-.0581-1.7363-.0547 7.8086-11.4 19.215-19.851 32.395-24.002zm53.41 7.7988c11.401 7.8088 19.853 19.216 24.004 32.396-2.3835 4.1033-5.2884 5.9185-8.4512 6.5645-3.4403.70259-7.3984-.13866-10.906-2.1211-3.8171-2.1572-8.3219-3.1553-12.709-2.2871-2.6895.53226-5.2965 1.8662-7.4394 3.9512-1.8129-2.7847-4.2077-5.1435-7.0195-6.9141-.99057-3.1192-.54702-5.4455.66601-7.4375 1.265-2.0773 3.5608-3.7816 6.3379-4.6602 5.1542-1.6305 9.9357-4.7887 12.85-9.5566 1.7304-2.8315 2.69-6.2233 2.668-9.9356zm-85.193 23.133c2.1845.068 4.0334.71154 5.6719 1.7129 2.9961 1.831 5.3179 5.1466 6.5332 8.9883 1.3199 4.1723 3.921 7.9078 7.6934 10.205 2.3072 1.405 5.0637 2.1825 8.0098 2.1777-.33901 1.5739-.51185 3.1791-.51563 4.7891.009 1.6975.20643 3.3888.58789 5.043-1.4323 2.872-3.354 4.0816-5.6856 4.543-2.4217.47924-5.3778-.0847-7.9062-1.5137-4.7064-2.6598-10.275-4.0048-15.75-2.8867-3.2755.66893-6.435 2.2969-9.1504 4.8769-.55614-3.3254-.83898-6.6909-.84569-10.062.0263-9.4023 2.1994-18.674 6.3535-27.109 1.4607-.44464 2.8131-.70311 4.0469-.75781.32615-.0145.64497-.0156.95704-.006zm111.3 17.811c.55615 3.3254.839 6.6909.84571 10.062-.0263 9.4023-2.1994 18.674-6.3535 27.109-4.5498 1.385-7.9177.73633-10.676-.94921-2.9961-1.831-5.3179-5.1446-6.5332-8.9863-1.3199-4.1723-3.921-7.9098-7.6934-10.207-1.8862-1.1486-4.0704-1.8836-6.4141-2.1113-.52373-.0509-1.0575-.0673-1.5957-.0664.33901-1.5739.51184-3.1791.51562-4.7891-.009-1.6975-.20643-3.3888-.58789-5.043 1.4323-2.8724 3.3538-4.0815 5.6856-4.543 2.4217-.47925 5.3778.0847 7.9062 1.5137 4.7064 2.6598 10.275 4.0048 15.75 2.8867 3.2755-.66892 6.435-2.2969 9.1504-4.877zm-38.289 21.797c1.6181-.005 2.9933.45279 4.2383 1.2109 2.0773 1.265 3.7816 3.5628 4.6602 6.3399 1.6305 5.1542 4.7887 9.9338 9.5566 12.848 2.831 1.7301 6.2235 2.6916 9.9356 2.6699-7.8091 11.4-19.216 19.851-32.396 24.002-4.1033-2.3835-5.9185-5.2884-6.5645-8.4512-.7026-3.4403.13865-7.3984 2.1211-10.906 2.1572-3.8171 3.1553-8.3219 2.2871-12.709-.53226-2.6895-1.8648-5.2965-3.9492-7.4394 2.784-1.8132 5.1421-4.2079 6.9121-7.0195 1.1697-.37147 2.2283-.54176 3.1992-.54493zm-70.307.0664c2.729.0331 5.6132.87841 8.2441 2.3652 3.8171 2.1572 8.3219 3.1553 12.709 2.2871 2.6895-.53225 5.2965-1.8648 7.4394-3.9492 1.8132 2.784 4.2079 5.1421 7.0195 6.9121.99033 3.1189.54695 5.4456-.66601 7.4375-1.265 2.0773-3.5608 3.7816-6.3379 4.6602-5.1542 1.6305-9.9357 4.7887-12.85 9.5566-1.7301 2.831-2.6916 6.2235-2.6699 9.9355-11.4-7.8091-19.851-19.216-24.002-32.396 2.3835-4.1033 5.2884-5.9185 8.4512-6.5645.86007-.17565 1.7524-.25518 2.6621-.24415zm52.734 10.611c2.8724 1.4323 4.0815 3.3538 4.543 5.6856.47924 2.4217-.0847 5.3778-1.5137 7.9062-2.6598 4.7064-4.0048 10.275-2.8867 15.75.66893 3.2755 2.2969 6.435 4.877 9.1504-3.3254.55614-6.6909.83898-10.062.8457-9.4023-.0263-18.674-2.1994-27.109-6.3535-1.385-4.5498-.73632-7.9177.94921-10.676 1.831-2.9961 5.1446-5.3179 8.9863-6.5332 4.1723-1.3199 7.9098-3.921 10.207-7.6934 1.4053-2.3077 2.1828-5.0636 2.1777-8.0098 1.5739.33902 3.1791.51185 4.7891.51563 1.6975-.009 3.3888-.20642 5.043-.58789z"
       id="path3868" />
    <path
       style="filter:url(#j);fill:#fd5"
       d="m437.78 329.24c-32.234 2.7126-59.541 31.215-60.75 63.556-2.4187 32.582 22.109 64.327 54.308 70.032 32.854 7.3388 68.726-14.101 77.835-46.511 10.592-31.955-7.159-69.789-38.492-82.093-10.323-4.3906-21.742-6.0161-32.901-4.9848zm6.873 3.5605c9.9315.0883 19.787 2.5076 28.678 6.9199 3.6655 8.2976-1.8264 17.925-10.258 20.297-7.3296 1.6749-12.815 8.8325-11.77 16.395-5.2209-2.4944-11.813 2.006-15.846-2.7324-5.1182-5.2925-1.6876-12.972 1.1953-18.406 3.0699-7.6382-.21202-16.114-6.2969-21.162 4.7646-.46855 9.4947-1.3608 14.297-1.3106zm-17.672 3.2363c8.4906 4.0576 9.8019 15.48 4.7695 22.738-3.4939 6.0994-2.2743 14.342 3.3086 18.758-5.4989 2.172-7.2269 10.209-13.773 9.2617-6.9989-.30407-10.065-7.6151-11.986-13.248-3.4863-7.4318-11.912-10.912-19.758-9.8457 8.6522-13.129 21.436-23.651 36.629-28.158zm53.578 7.9141c11.883 8.1761 20.759 20.448 24.994 34.221-3.5785 8.333-14.363 10.883-21.846 6.3281-6.248-4.1878-15.377-3.5474-20.145 2.5625-2.1702-5.5002-10.209-7.2284-9.2617-13.775.30406-6.9989 7.6151-10.065 13.248-11.986 7.457-3.4929 10.827-11.917 9.8438-19.76zm-86.889 22.719c8.7519-.29418 13.828 8.134 16.037 15.469 2.6825 5.4337 8.8031 8.314 14.703 7.6543-2.4941 5.2226 2.0072 11.817-2.7363 15.85-5.2942 5.1132-12.969 1.6823-18.402-1.1992-7.6382-3.0699-16.114.21203-21.162 6.2969-2.6818-14.473-1.1462-29.793 5.6113-42.979 1.9315-.58246 3.9172-1.096 5.9492-1.0918zm113.77 19.586c2.2155 13.249-.0825 27.083-6.0625 39.076-8.2976 3.6655-17.925-1.8264-20.297-10.258-1.7227-7.2653-8.7816-12.857-16.395-11.775 2.4942-5.2191-2.0056-11.808 2.7324-15.84 5.2925-5.1182 12.972-1.6876 18.406 1.1953 7.6382 3.0699 16.114-.21203 21.162-6.2969zm-62.355-3.998c12.653-.5805 19.629 17.017 10.004 25.26-8.5428 9.0877-25.564 1.7252-24.787-10.724-.0984-7.8827 6.8999-14.767 14.784-14.535zm-18.215 25.621c2.5534 4.4966 9.2743 6.4608 7.873 12.518-.72325 7.1544-8.4768 9.5129-14.008 11.863-7.0255 3.6511-9.9046 11.794-9.0332 19.297-13.129-8.6527-23.653-21.437-28.158-36.631 3.6056-8.4467 14.534-10.846 22.023-6.2363 6.2218 4.1193 15.246 3.3835 19.967-2.6524zm40.301-1.5957c7.3305-.15117 10.702 7.4369 12.627 13.27 3.4961 7.447 11.919 10.828 19.76 9.8438-8.6527 13.129-21.437 23.653-36.631 28.158-8.333-3.5785-10.883-14.363-6.3281-21.846 4.1872-6.2483 3.5475-15.375-2.5606-20.145 5.4575-2.0632 6.9535-9.7917 13.133-9.2813zm-27.09 10.776c4.9233 1.4773 11.101-2.0725 14.318 3.252 4.3702 5.8232.14357 12.852-2.2461 18.443-2.6222 7.4494.81913 15.366 6.5859 20.232-14.471 2.6814-29.79 1.1466-42.975-5.6094-3.6655-8.2976 1.8264-17.925 10.258-20.297 7.3296-1.6749 12.815-8.8325 11.77-16.395z"
       id="path3870" />
    <animateTransform
       values="360 444.55 396.55;0 444.55 396.55"
       repeatCount="indefinite"
       dur="12s"
       attributeName="transform"
       type="rotate" />
  </g>
  <g
     id="g3878">
    <path
       style="fill:#806600;shape-rendering:crispEdges"
       d="m547.97 110.04-3.1422 6.2059-1.8412 6.3054-6.2916.0124-1.8642-6.2991-3.1669-6.1949-4.7725.42666-2.0185 6.6588-.71767 6.531-6.1928 1.1029-2.9313-5.8788-4.1943-5.5517-4.6253 1.2488-.83026 6.9075.4269 6.5564-5.909 2.1622-3.9056-5.2819-5.0951-4.7368-4.3377 2.034.37998 6.9444 1.5591 6.3828-5.4413 3.1569-4.7664-4.5244-5.8395-3.7812-3.9192 2.756 1.5824 6.7748 2.6433 6.0149-4.8124 4.0537-5.4783-3.6268-6.4075-2.7105-3.3818 3.3939 2.734 6.397 3.6488 5.4658-4.0355 4.8258-6.025-2.6209-6.7789-1.5544-2.7415 3.929 3.8023 5.8259 4.5415 4.7463-3.1348 5.4557-6.3885-1.5347-6.9481-.35544-2.0166 4.3458 4.7583 5.0765 5.2952 3.8875-2.1391 5.9153-6.5579-.40242-6.9049.85774-1.2313 4.6306 5.5668 4.1734 5.8908 2.9074-1.0812 6.198-6.5266.74309-6.6495 2.042-.40867 4.7755 6.2059 3.1422 6.3054 1.8412.0124 6.2916-6.2991 1.8642-6.1949 3.1669.42666 4.7725 6.6588 2.0185 6.531.71768 1.1029 6.1928-5.8788 2.9313-5.5517 4.1943 1.2488 4.6253 6.9075.83027 6.5564-.42691 2.1622 5.909-5.2819 3.9057-4.7368 5.0951 2.034 4.3377 6.9444-.37997 6.3828-1.5591 3.1569 5.4413-4.5244 4.7664-3.7812 5.8395 2.756 3.9192 6.7748-1.5824 6.0149-2.6432 4.0537 4.8124-3.6268 5.4783-2.7105 6.4074 3.3939 3.3818 6.397-2.734 5.4658-3.6488 4.8258 4.0355-2.6209 6.025-1.5544 6.7789 3.929 2.7415 5.8259-3.8023 4.7463-4.5415 5.4557 3.1348-1.5347 6.3885-.35544 6.9481 4.3458 2.0166 5.0765-4.7583 3.8875-5.2952 5.9153 2.1391-.40242 6.5579.85774 6.9049 4.6306 1.2313 4.1734-5.5668 2.9074-5.8908 6.198 1.0812.7431 6.5266 2.042 6.6495 4.7755.40867 3.1421-6.2059 1.8412-6.3054 6.2916-.0124 1.8642 6.2991 3.1669 6.1949 4.7725-.42666 2.0185-6.6588.71768-6.531 6.1928-1.1029 2.9313 5.8788 4.1943 5.5517 4.6253-1.2488.83027-6.9075-.42691-6.5564 5.909-2.1622 3.9057 5.2819 5.0951 4.7368 4.3377-2.034-.37997-6.9444-1.5591-6.3827 5.4413-3.1569 4.7664 4.5244 5.8395 3.7812 3.9192-2.756-1.5824-6.7748-2.6432-6.0148 4.8124-4.0537 5.4783 3.6268 6.4074 2.7105 3.3818-3.3939-2.734-6.397-3.6488-5.4658 4.0355-4.8258 6.025 2.6209 6.7789 1.5544 2.7415-3.929-3.8023-5.8259-4.5415-4.7463 3.1348-5.4557 6.3885 1.5347 6.9481.35544 2.0166-4.3458-4.7583-5.0766-5.2952-3.8875 2.1391-5.9153 6.5579.40242 6.9049-.85774 1.2313-4.6306-5.5668-4.1734-5.8908-2.9074 1.0812-6.198 6.5266-.7431 6.6495-2.042.40867-4.7755-6.2059-3.1421-6.3054-1.8412-.0124-6.2916 6.2991-1.8642 6.1949-3.1669-.42666-4.7725-6.6588-2.0185-6.531-.71768-1.1029-6.1928 5.8788-2.9313 5.5517-4.1943-1.2488-4.6253-6.9075-.83027-6.5564.42691-2.1622-5.909 5.2819-3.9057 4.7368-5.0951-2.034-4.3377-6.9444.37998-6.3827 1.5591-3.1569-5.4413 4.5244-4.7664 3.7812-5.8395-2.756-3.9192-6.7748 1.5824-6.0149 2.6433-4.0536-4.8124 3.6268-5.4783 2.7105-6.4075-3.3939-3.3818-6.397 2.734-5.4658 3.6488-4.8258-4.0355 2.6209-6.025 1.5544-6.7789-3.929-2.7415-5.8259 3.8023-4.7463 4.5415-5.4557-3.1348 1.5347-6.3885.35544-6.9481-4.3458-2.0166-5.0766 4.7583-3.8875 5.2952-5.9153-2.1391.40242-6.5579-.85774-6.9049-4.6306-1.2313-4.1734 5.5668-2.9074 5.8908-6.198-1.0812-.7431-6.5266-2.042-6.6495-4.7755-.40867zm-6.9422 25.162c-.35927.97745-.6025 2.109-.67946 3.4272-1.6401-1.5528-3.3871-2.5943-5.1858-3.2195a95.56 95.56 0 0 1 5.8652 -.20769zm14.431 1.3134a95.56 95.56 0 0 1 5.5875 1.1133c-1.8754.31153-3.7707 1.0393-5.6473 2.2885.28631-1.2264.2783-2.3644.0598-3.4018zm-32.957.29058c-10.904 5.4465-19.102 19.666-11.881 22.671-3.327-10.142 12.217-14.496 17.843-12.007-6.3116 1.9839-8.6149 10.535-4.5945 11.976.75692-7.604 10.673 1.4198 13.385-2.2439-1.8308 15.773 7.7427 17.321 2.9667 36.297-1.0402 4.1331-4.9273 5.4259-1.138 9.9313-1.5513 1.6753-2.631 3.2211-3.3287 4.6295a23.081 23.081 0 0 0 -10.65 5.1086c-1.558-.30885-3.4388-.43142-5.6987-.29557-.95186-5.8096-4.4649-3.7014-8.279-5.6033-17.511-8.7319-12.481-17.032-25.646-25.912 4.5465.32681 3.255-12.429 9.7205-8.3559 1.3319-4.058-5.8148-8.2181-11.432-4.7224 1.7766-5.8901 15.153-15.056 20.657-5.9106 2.4588-7.4776-13.839-10.395-25.042-5.4539a95.56 95.56 0 0 1 43.118 -20.11zm51.038 4.5342a95.56 95.56 0 0 1 38.58 26.801c-10.219-6.6094-26.497-6.4498-25.353 1.2745 6.978-8.0772 18.603 3.2281 19.353 9.3345-4.9416-4.3993-12.691-1.5139-12.068 2.7114 7.0635-2.9153 3.6236 9.4356 8.1594 9.886-14.482 6.5138-10.935 15.548-29.675 21.178-4.0818 1.2262-7.1855-1.4483-9.1106 4.1151-2.1454-.45413-3.969-.60221-5.5218-.52939a23.081 23.081 0 0 0 -9.587 -6.9031c-.49014-1.5302-1.3471-3.2637-2.6783-5.2161 4.4997-3.7961.88879-5.7306.56592-9.9803-1.4824-19.511 8.215-19.41 9.0908-35.265 2.05 4.0712 13.355-3.1366 12.809 4.4854 4.2069-.7374 3.3899-9.5551-2.4929-12.583 5.9672-1.4976 20.545 5.4343 15.543 14.864 7.5628-1.7199 2.0555-16.879-7.6131-24.173zm46.195 36.662a95.56 95.56 0 0 1 3.1948 5.3877c-1.0084.16316-2.0837.51771-3.2216 1.1102.52628-2.3571.4924-4.5237.0268-6.4979zm-149.37-12.506c-.72054 1.8018-1.0791 3.8433-.96659 6.1411-.92921-.89694-1.9529-1.4596-3.0106-1.7455a95.56 95.56 0 0 1 3.9772 -4.3956zm-13.099 17.717c.65564.77552 1.5089 1.5108 2.5991 2.1788-2.2263.74121-4.0331 1.8387-5.474 3.1953a95.56 95.56 0 0 1 2.8749 -5.374zm172.46 14.849a95.56 95.56 0 0 1 2.0479 5.9169c-1.2056-1.6748-2.8475-3.1436-5.0126-4.3044 1.2102-.32453 2.1904-.88797 2.9647-1.6125zm-154.64-1.9208c12.581 9.6884 18.792 2.2504 32.611 16.105 3.0097 3.0176 2.945 6.0513 8.7053 4.836.69104 2.0014 1.4734 3.5901 2.3046 4.8646a23.081 23.081 0 0 0 -1.662 6.8226 23.081 23.081 0 0 0 .45552 6.8176c-1.0306 1.1613-2.0657 2.6576-3.0745 4.5905-5.47-2.1763-5.9217.82429-9.4004 3.2866-15.972 11.305-20.829 2.9199-34.873 10.33 2.4354-3.8531-9.3724-9.866-2.5587-13.325-2.7996-3.2255-10.034 2.0372-9.5977 8.6389-4.3582-4.3424-5.6406-21.975 5.0334-22.006-5.1465-5.9362-15.833 6.4282-17.281 18.522a95.56 95.56 0 0 1 -.91833 -23.033 95.56 95.56 0 0 1 4.8169 -22.478c-.59553 12.149 7.8146 26.091 13.884 21.124-10.513-1.8444-6.2537-19.003-1.2211-22.542-1.5518 6.4316 4.6834 12.847 7.9903 10.144-6.1269-4.5667 6.5308-8.486 4.7856-12.697zm134.85 11.54c-2.4354 3.8531 9.3724 9.866 2.5587 13.325 2.7996 3.2255 10.034-2.0372 9.5977-8.6389 4.3582 4.3424 5.6406 21.975-5.0334 22.006 5.1465 5.9362 15.833-6.4282 17.281-18.522a95.56 95.56 0 0 1 .91833 23.033 95.56 95.56 0 0 1 -4.8169 22.478c.59553-12.149-7.8146-26.091-13.884-21.124 10.513 1.8444 6.2537 19.003 1.2211 22.542 1.5518-6.4316-4.6834-12.847-7.9904-10.144 6.1269 4.5667-6.5308 8.486-4.7856 12.697-12.581-9.6884-18.792-2.2504-32.611-16.105-3.0097-3.0176-2.945-6.0513-8.7053-4.836-.69103-2.0014-1.4734-3.5901-2.3046-4.8646a23.081 23.081 0 0 0 1.662 -6.8226 23.081 23.081 0 0 0 -.45551 -6.8176c1.0306-1.1613 2.0657-2.6576 3.0745-4.5905 5.47 2.1763 5.9217-.82429 9.4004-3.2866 15.972-11.305 20.829-2.9199 34.873-10.33zm-93.267 37.154c2.1454.45413 3.969.60221 5.5218.52939a23.081 23.081 0 0 0 9.5869 6.9031c.49014 1.5302 1.3471 3.2637 2.6783 5.2161-4.4997 3.7961-.88878 5.7306-.56591 9.9803 1.4824 19.511-8.215 19.41-9.0908 35.265-2.05-4.0712-13.355 3.1366-12.809-4.4854-4.2069.7374-3.3899 9.5551 2.4929 12.583-5.9672 1.4976-20.545-5.4343-15.543-14.864-7.5628 1.7199-2.0555 16.879 7.6131 24.173a95.56 95.56 0 0 1 -38.58 -26.801c10.219 6.6094 26.497 6.4498 25.353-1.2746-6.978 8.0772-18.603-3.2281-19.353-9.3345 4.9416 4.3993 12.691 1.5139 12.068-2.7114-7.0635 2.9153-3.6236-9.4356-8.1594-9.886 14.482-6.5138 10.935-15.548 29.676-21.178 4.0818-1.2262 7.1855 1.4483 9.1106-4.1151zm44.019 3.767c.95187 5.8096 4.4649 3.7014 8.279 5.6033 17.511 8.7319 12.481 17.032 25.646 25.912-4.5464-.32681-3.255 12.429-9.7205 8.3559-1.3318 4.058 5.8148 8.2181 11.432 4.7224-1.7766 5.8902-15.153 15.056-20.657 5.9106-2.4588 7.4776 13.839 10.395 25.042 5.4539a95.56 95.56 0 0 1 -43.118 20.11c10.904-5.4465 19.102-19.666 11.881-22.671 3.327 10.142-12.217 14.496-17.843 12.007 6.3116-1.9839 8.6149-10.535 4.5945-11.976-.75692 7.604-10.673-1.4198-13.385 2.2439 1.8308-15.773-7.7427-17.321-2.9667-36.297 1.0402-4.133 4.9273-5.4259 1.138-9.9313 1.5513-1.6753 2.631-3.2211 3.3287-4.6295a23.081 23.081 0 0 0 10.65 -5.1086c1.558.30884 3.4388.43141 5.6987.29556zm-112.37 8.8944c1.2056 1.6748 2.8475 3.1436 5.0126 4.3044-1.2102.32453-2.1904.88797-2.9647 1.6125a95.56 95.56 0 0 1 -2.0479 -5.9169zm177.38 15.392a95.56 95.56 0 0 1 -2.8749 5.374c-.65563-.77552-1.5089-1.5108-2.5991-2.1788 2.2263-.74121 4.0331-1.8386 5.474-3.1953zm-165.31 4.0875c-.52627 2.3571-.4924 4.5237-.0268 6.4979a95.56 95.56 0 0 1 -3.1948 -5.3877c1.0084-.16316 2.0837-.51771 3.2216-1.1102zm150.31 12.863c.92921.89694 1.9529 1.4596 3.0106 1.7455a95.56 95.56 0 0 1 -3.9772 4.3956c.72055-1.8018 1.0791-3.8433.96659-6.1411zm-85.998 31.72c-.28591 1.2247-.28519 2.3649-.0676 3.4012a95.56 95.56 0 0 1 -5.5798 -1.1126c1.8754-.31153 3.7707-1.0393 5.6473-2.2885zm15.05 1.288c1.6401 1.5528 3.3871 2.5943 5.1858 3.2195a95.56 95.56 0 0 1 -5.8612 .20608c.35836-.97648.59855-2.1094.6754-3.4256z"
       id="path3874" />
    <path
       style="filter:url(#k);fill:#fc0;shape-rendering:crispEdges"
       d="m1.707-105.72c-4.087-.0138-8.1785.25367-12.262.47266-41.519 3.8436-78.956 34.393-90.557 74.512-13.594 42.329 3.4575 92.074 40.232 117.08 35.904 26.246 88.509 25.606 123.79-1.459 35.16-25.208 51.231-73.295 38.531-114.63-11.482-41.012-49.903-72.44-92.383-75.57-2.4459-.28205-4.8974-.39211-7.3496-.40039zm4.1953 8.1231c.40521.0423.94196.17541 1.6426.41797 4.5199.12198 16.433 1.9231 6.002 4.5371-3.9177.09988-10.181 9.2461-8.0625 1.2969 1.1805-2.3844-2.4185-6.5481.41797-6.252zm-13.107.08203c1.9894-.05543 3.0998.57725 1.9746 2.7402-1.1234 2.551 1.4512 9.7276-2.666 5.2266-2.5391-3.1643-9.6396-3.2399-10.307-5.8477 1.9243-.02224 7.6824-2.0268 10.998-2.1191zm-15.758 3.1562c2.2542-.06328 3.0655.75682-.88281 3.4004l-.5625.54883c-4.3837 2.7359-7.9827 6.7096-10.359 11.291 5.7715-5.4367 14.735-6.7157 21.885-3.2676-3.6986.92324-10.006 4.6837-9.2676 8.1758 3.5408-2.3478 7.8327.89232 11.439.06641 4.3884-8.7977 3.8321-2.2347 3.6797 3.8223.48006 9.8706 8.2157 18.157 6.5879 28.391.40598 4.1764-1.8107 7.9011-2.6855 11.666 2.0072 2.2658 2.5964 3.868.13086 6.1836-1.9263 5.5862-9.3687 4.9675-12.641 9.9297-2.8009-.09001-9.9314-1.1317-6.6328 3.0527 4.0313 4.0548.13821 9.1543 1.459 14.195 2.2365 4.1189-1.5869 6.9547-2.7148 10.775 4.396.63362 8.6947-.56669 11.643 3.5293 3.709 2.1389 7.6939 2.8282 9.1797 7.2031 3.17 2.2713.45626 3.6471-.50977 6.1504 4.9999 9.9675 2.9264 21.979-2.1484 31.527-2.2855 5.5204-1.6254 11.589-1.6172 17.4-2.0824-2.0836-2.7663-7.6197-6.8867-5.4434-2.7009.66312-6.3049 1.5071-8.5898-.18555.48263 4.9234 5.6612 6.7503 9.5742 8.3379-7.1497 3.4338-16.108 2.179-21.879-3.2637 2.8707 6.5728 9.4253 10.006 13.916 15.189-17.832-2.0685-33.907-12.355-46.949-24.299-6.3585-6.1492.88275-4.0781 5.1465-1.9707 3.7656 1.4097 7.8229 2.083 11.842 1.875-7.591-2.2847-13.162-9.3632-13.918-17.242 2.8714 2.596 8.6015 6.3053 11.723 3.4473-4.1528-1.3132-3.4079-6.9212-5.6875-9.582-9.7628.73045-3.9143-2.1345 1.3672-5.0977 8.2395-5.4885 11.43-16.384 21.059-20.256 3.3762-2.5081 7.7365-2.4768 11.406-3.6914 2.9846-3.1271-1.1668-5.3855-4.0605-3.9648-6.7662 8.2394-17.251 12.628-27.65 13.033-5.8948.88422-10.75 4.5551-15.713 7.5547.77778-2.8551 4.9857-6.2875 1.1406-8.7285-1.9823-1.9488-4.3862-4.8199-4.1738-7.4512-3.9602 2.9024-2.9458 8.2088-2.2793 12.35-7.447-4.4117-10.115-14.501-8.1621-22.066-4.5752 5.8009-4.244 13.403-6.5488 20.033-7.0048-16.063-6.1096-34.678-2.3223-51.512 2.547-9.3402 3.9319-.30308 4.459 4.5215.61355 3.4779 2.774 8.5021 4.3906 10.27-1.9528-8.0303.94466-17.336 8.1836-21.828-1.2129 3.5591-.9422 11.118 2.3281 11.977-.18162-4.2099 4.6986-6.2476 5.7812-9.7754-5.2296-8.2469.04193-4.4672 5.166-1.1875 8.7125 4.6402 19.704 2.2836 27.701 8.9414 3.6867 1.5685 5.5496 6.0898 9.207 7.2383 3.6481.39813 4.7037-2.4815 2.0586-4.7969-11.119-.74152-20.277-8.7885-25.879-17.965-3.5703-4.7911-9.1127-7.346-14.111-10.311 2.6017-.87502 7.7858 1.6927 7.8945-2.7812.46172-2.7926 2.1177-6.4905 4.5215-7.3379-4.2613-2.6296-8.5275 1.2044-11.799 3.6113.76757-7.8773 6.3239-14.965 13.926-17.244-7.2282-.8453-13.551 3.2095-20.359 4.5664 9.694-13.308 25.086-21.753 40.426-27.105 1.818-.88902 5.5153-1.8371 7.7695-1.9004zm43.809.04687 5.5371.49023c16.86 5.2749 33.887 13.945 44.594 28.348-6.7541-1.2953-13.017-5.2784-20.17-4.4434 7.591 2.2847 13.162 9.3632 13.918 17.242-2.8714-2.596-8.6015-6.3053-11.723-3.4473 4.154 1.3111 3.4067 6.9262 5.6875 9.582 9.7628-.73045 3.9143 2.1345-1.3672 5.0977-8.2395 5.4885-11.43 16.384-21.059 20.256-3.3762 2.5081-7.7365 2.4768-11.406 3.6914-2.9846 3.1271 1.1668 5.3855 4.0605 3.9648 6.7662-8.2394 17.251-12.628 27.65-13.033 5.8948-.88422 10.75-4.5551 15.713-7.5547-.77778 2.8551-4.9857 6.2875-1.1406 8.7285 1.9823 1.9488 4.3862 4.8199 4.1738 7.4512 3.9602-2.9024 2.9458-8.2088 2.2793-12.35 7.447 4.4117 10.115 14.501 8.1621 22.066 4.5752-5.8009 4.244-13.403 6.5488-20.033 7.0048 16.063 6.1096 34.678 2.3223 51.512-2.547 9.3402-3.9319.30308-4.459-4.5215-.612-3.483-2.772-8.508-4.389-10.275 1.953 8.03-.944 17.336-8.183 21.828 1.2129-3.5591.9422-11.118-2.3281-11.977.18162 4.2099-4.6986 6.2476-5.7812 9.7754 5.2296 8.2469-.04193 4.4672-5.166 1.1875-8.7125-4.6402-19.704-2.2836-27.701-8.9414-3.6867-1.5685-5.5496-6.0898-9.207-7.2383-3.6481-.39813-4.7037 2.4815-2.0586 4.7969 11.119.74152 20.277 8.7885 25.879 17.965 3.5703 4.7911 9.1127 7.346 14.111 10.311-2.6019.87267-7.7826-1.6872-7.8945 2.7812-.46172 2.7926-2.1177 6.4905-4.5215 7.3379 4.2613 2.6296 8.5275-1.2044 11.799-3.6113-.76757 7.8773-6.3239 14.965-13.926 17.244 7.2282.8453 13.551-3.2095 20.359-4.5664-9.694 13.308-25.086 21.753-40.426 27.105-3.6359 1.778-14.783 3.7871-6.8867-1.5 4.4536-3.0474 8.4845-6.9505 10.924-11.842-5.7712 5.4384-14.736 6.718-21.887 3.2695 3.6986-.92324 10.006-4.6837 9.2676-8.1758-3.5408 2.3478-7.8327-.89232-11.439-.06641-4.3885 8.797-3.8322 2.234-3.6798-3.823-.48-9.87-8.2156-18.157-6.5878-28.39-.40602-4.177 1.8107-7.901 2.6855-11.666-2.0072-2.266-2.5964-3.868-.1309-6.184 1.9263-5.586 9.369-4.968 12.641-9.93 2.8009.09001 9.9314 1.1317 6.6328-3.0527-4.032-4.0543-.139-9.1538-1.46-14.195-2.2365-4.1189 1.5869-6.9547 2.7148-10.775-4.396-.63362-8.6947.56669-11.643-3.5293-3.709-2.1389-7.6939-2.8282-9.1797-7.2031-3.17-2.2713-.45626-3.6471.50977-6.1504-4.9999-9.9675-2.9264-21.979 2.1484-31.527 2.2855-5.5204 1.6254-11.589 1.6172-17.4 2.0824 2.0836 2.7663 7.6197 6.8867 5.4434 2.7009-.66312 6.3049-1.5071 8.5898.18555-.48263-4.9234-5.6612-6.7503-9.5742-8.3379 7.1497-3.4338 16.108-2.179 21.879 3.2637-2.8707-6.5728-9.4253-10.006-13.916-15.189zm52.096 30.678c.53839-.03143 1.6175.83652 3.5859 3.1367 1.8976 3.427 8.2558 8.1968 1.3359 8.5977-4.3109 3.2668-5.7324 2.9006-4.293-2.7461.14868-2.9518-2.0048-8.908-.62891-8.9883zm-145.7.62109c.55252 1.7645-1.8715 9.7036-.25 13.914-.9102-.06546-7.7218-4.7524-8.4102-4.8027 2.6043-2.7702 5.6586-9.1776 8.6602-9.1113zm159.96 19.584c.41969.0644.8012.71294 1.1934 2.416 2.3139 3.8097 6.1485 15.065-.76367 7.8789-2.5446-3.8631-13.648-5.1175-4.2461-7.2129 1.7881-.53438 2.8931-3.2237 3.8164-3.082zm-174 .34766c.50859-.04381 1.0568.34425 1.6465 1.3418 1.6898 2.203 9.0878 3.2714 3.2012 4.7676-3.6801.22948-10.259 10.129-9.5508 4.2617 1.0253-1.8871 2.4992-10.181 4.7031-10.371zm86.798 28.375c8.1219 0 14.706 6.5841 14.706 14.706s-6.5841 14.706-14.706 14.706-14.706-6.5841-14.706-14.706 6.5841-14.706 14.706-14.706zm91.146 45.413c.93594 1.8597-2.5211 15.581-5.9961 11.035-1.6898-2.203-9.0878-3.2714-3.2012-4.7676 3.5344-1.0398 7.1177-5.4774 9.1973-6.2676zm-182.43.0059c.62687-.10453 1.839.69428 3.6504 2.4238 2.5446 3.8631 13.648 5.1175 4.2461 7.2129-4.395 5.4021-5.3744.0197-7.4492-4.8164-1.093-3.059-1.2532-4.6859-.44726-4.8203zm164.62 18.096c.46799-.05769 1.4438.6225 3.3008 2.4629 4.8602 1.6014 6.2793 2.3814 1.7109 6.6719-4.1311 6.707-7.6889 6.686-4.8809-1.2988.79379-2.7237-1.3268-7.6885-.13086-7.8359zm-146.52.414c.49991.07192.52367 1.0438-.25195 3.8535-.87778 3.7071 3.6148 15.023-2.4473 8.0625-1.6962-3.126-9.2847-8.8115-2.2656-9.1191 1.9765-.53686 4.1317-2.9167 4.9648-2.7969zm67.754 38.561c.58878-.03478.65548 1.009-.13281 4.252 1.6345 6.0169-1.1226 5.857-6.9551 4.5898-8.9278-.35326-4.2407-3.4432 1.3379-4.8594 2.3375-.86956 4.7687-3.9245 5.75-3.9824zm11.4.27539c.36105-.02393.95899.39689 1.9297 1.4922l.79688.60352.066406.04883c2.0042 2.7201 13.3 3.7076 7.4941 5.6465-3.6915.1095-13.823 4.637-10.865-1.75.53823-1.8933-.50502-5.9692.57813-6.041z"
       transform="matrix(.99636 .085264 -.085264 .99636 540.05 230.73)"
       id="path3876" />
    <animateTransform
       values="0 540.04 230.74;360 540.04 230.74"
       repeatCount="indefinite"
       dur="18s"
       attributeName="transform"
       type="rotate" />
  </g>
  <g
     id="g3884">
    <path
       style="fill:#806600;shape-rendering:crispEdges"
       d="m254.75 151.17-4.8522.35658-2.0899 6.6076-.99797 6.5275-6.0348.8994-2.8566-5.9543-3.9234-5.714-4.7441 1.0755-1.0825 6.8457-.0138 6.6035-5.8333 1.7884-3.711-5.4617-4.7332-5.0651-4.5305 1.7693-.0495 6.9316.97078 6.531-5.5028 2.6386-4.4836-4.8478-5.4357-4.3027-4.2153 2.4241.98386 6.8611 1.9341 6.314-5.0491 3.4285-5.1567-4.1244-6.0134-3.4443-3.8101 3.0264 1.996 6.6364 2.8546 5.9563-4.482 4.1424-5.7128-3.311-6.4604-2.5096-3.315 3.5605 2.9615 6.265 3.709 5.4636-3.8132 4.7647-6.1422-2.4231-6.7629-1.5179-2.7474 4.0146 3.8628 5.755 4.4816 4.8498-3.0602 5.2778-6.4349-1.4783-6.9132-.49474-2.1191 4.379 4.6784 5.1158 5.1548 4.1264-2.2406 5.6777-6.5831-.50393-6.9111.54237-1.4419 4.6459 5.3887 4.3592 5.7109 3.3129-1.368 5.9468-6.5849.4824-6.7528 1.568-.73317 4.8073 5.9781 3.5087 6.1422 2.425-.46789 6.0851-6.4401 1.4592-6.4421 2.5549-.009 4.8633 6.4329 2.5779 6.4349 1.4822.44619 6.0867-6.1508 2.4031-5.9906 3.4874.71603 4.8099 6.7472 1.5921 6.5831.50588 1.3468 5.9516-5.7227 3.2925-5.4042 4.34 1.4253 4.651 6.9092.56701 6.5848-.48045 2.2203 5.6856-5.1694 4.108-4.6966 5.099 2.1035 4.3866 6.9149-.47009 6.4401-1.4553 3.0414 5.2886-4.4989 4.8338-3.8833 5.7411 2.7331 4.0244 6.7683-1.4938 6.1508-2.4012 3.7962 4.7783-3.7285 5.4504-2.9838 6.2545 3.3022 3.5723 6.4693-2.4865 5.7246-3.2906 4.4672 4.1584-2.8758 5.946-2.0196 6.6292 3.7993 3.04 6.0256-3.4228 5.1714-4.106 5.0368 3.4465-1.9566 6.3071-1.0083 6.8576 4.2066 2.4391 5.451-4.2832 4.5008-4.8318 5.4933 2.6582-.99407 6.5275.0247 6.9317 4.5242 1.7854 4.7512-5.0482 3.7304-5.4484 5.8269 1.8092-.01 6.6035 1.0581 6.8496 4.7402 1.0924 3.9438-5.7 2.8778-5.9441 6.0316.9209.9747 6.531 2.0663 6.615 4.8509.37387 3.0521-6.225 1.9585-6.3051 6.1016.0109 1.936 6.312 3.0299 6.2359 4.8522-.35658 2.0899-6.6076.99797-6.5275 6.0348-.8994 2.8566 5.9543 3.9234 5.714 4.7441-1.0755 1.0825-6.8457.0138-6.6035 5.8333-1.7884 3.711 5.4617 4.7332 5.0651 4.5305-1.7693.0495-6.9316-.97078-6.531 5.5028-2.6386 4.4836 4.8478 5.4357 4.3027 4.2153-2.4241-.98387-6.8611-1.934-6.314 5.0491-3.4285 5.1567 4.1244 6.0134 3.4443 3.8101-3.0264-1.996-6.6364-2.8546-5.9563 4.482-4.1424 5.7128 3.311 6.4604 2.5096 3.315-3.5605-2.9615-6.265-3.709-5.4637 3.8132-4.7647 6.1422 2.4231 6.7629 1.5179 2.7474-4.0146-3.8628-5.755-4.4816-4.8498 3.0602-5.2778 6.4349 1.4783 6.9132.49475 2.1191-4.379-4.6784-5.1158-5.1548-4.1264 2.2406-5.6777 6.5831.50393 6.9111-.54237 1.4419-4.6459-5.3887-4.3592-5.7109-3.3129 1.368-5.9468 6.5849-.4824 6.7528-1.568.73317-4.8073-5.9781-3.5087-6.1422-2.425.46789-6.0851 6.4401-1.4592 6.4421-2.5549.009-4.8633-6.4329-2.5779-6.4349-1.4822-.44619-6.0867 6.1508-2.4031 5.9906-3.4874-.71602-4.8099-6.7472-1.5921-6.5831-.50588-1.3468-5.9516 5.7227-3.2925 5.4042-4.34-1.4253-4.651-6.9092-.56701-6.5848.48045-2.2203-5.6856 5.1694-4.108 4.6966-5.099-2.1035-4.3866-6.9149.47009-6.4401 1.4553-3.0414-5.2886 4.4989-4.8338 3.8833-5.7411-2.7331-4.0244-6.7683 1.4938-6.1508 2.4012-3.7962-4.7783 3.7285-5.4504 2.9838-6.2545-3.3022-3.5723-6.4693 2.4865-5.7246 3.2906-4.4672-4.1584 2.8758-5.946 2.0196-6.6292-3.7993-3.04-6.0256 3.4228-5.1714 4.106-5.0368-3.4465 1.9566-6.3071 1.0083-6.8576-4.2066-2.4391-5.451 4.2832-4.5008 4.8318-5.4933-2.6582.99406-6.5275-.0247-6.9317-4.5242-1.7854-4.7512 5.0482-3.7304 5.4484-5.8269-1.8092.01-6.6035-1.0581-6.8496-4.7402-1.0924-3.9438 5.7-2.8778 5.9441-6.0316-.9209-.97469-6.531-2.0663-6.615-4.8509-.37387-3.0521 6.225-1.9585 6.3051-6.1016-.0109-1.936-6.312-3.0299-6.2359zm-10.14 23.794c-6.1904 23.254 10.306 38.263 20.472 46.634-1.5948 1.0052-3.4252 1.8963-5.5408 3.1444 6.0841 12.183 6.8536 26.101 5.8828 39.458a26.971 26.971 0 0 0 -2.8356 -.16131 26.971 26.971 0 0 0 -8.6237 1.4338c-6.0207-24.666-15.149-45.949-22.515-70.53l-9.3436 15.249c-3.4155-12.387 4.7494-23.068 11.403-32.945a117.5 117.5 0 0 1 11.102 -2.2829zm21.552 1.679c12.908.13829 36.227 5.677 41.835 9.4008-11.289 7.3647-21.321 17.076-23.719 27.481-1.9382.95205-6.9367 2.4997-8.6698 3.2228-12.721-12.036-21.155-26.737-16.373-39.25 1.5242-.63211 3.9486-.88676 6.9273-.85484zm-59.088 14.309c-.72533 13.459 1.9692 26.253 8.5359 34.673-.48255 2.1048-2.3751 6.9955-2.9102 8.7956-17.367 2.2503-34.667.84582-41.81-10.487 2.1797-8.5261 28.409-30.12 36.184-32.982zm125.9 6.1854a117.5 117.5 0 0 1 8.6708 7.1737c-21.912 9.9053-23.228 32.211-23.259 45.373-1.7884-.59624-3.6022-1.4743-5.908-2.3211-5.5809 12.438-15.916 21.912-26.899 29.667a26.971 26.971 0 0 0 -8.1255 -8.4715c15.454-20.179 26.475-40.448 41.988-60.949l-19.082 1.3351c7.4701-10.434 20.788-10.764 32.615-11.807zm15.872 20.065c7.7572 4.1557 23.075 34.994 23.915 43.236-12.857-4.0472-26.595-5.6844-36.157-.93165-1.966-.89317-6.249-3.8112-7.9077-4.6918 1.2298-17.469 7.4373-33.388 20.149-37.613zm-58.504 5.7062c-6.3891 11.91-12.171 25.262-19.996 37.074 1.6336-10.729 3.601-21.312 1.7147-30.61 6.0167-2.3801 12.312-4.4834 18.281-6.4635zm-63.665 3.8767c5.2355 12.461 11.982 25.421 16.22 38.941-7.2995-8.0308-13.892-16.683-22.49-20.692 1.6622-6.2533 4.0535-12.364 6.2708-18.249zm-66.678 6.9456c14.818 18.995 36.955 14.504 49.893 11.978-.23813 1.8701-.74643 3.883-1.0171 6.3244 13.432 2.4477 24.613 10.872 34.28 20.27a26.971 26.971 0 0 0 -5.5444 8.4608c-23.349-10.181-45.505-15.946-69.203-26.266l5.8738 17.104c-11.632-5.3504-14.889-18.526-18.214-29.976a117.5 117.5 0 0 1 3.932 -7.8953zm156.69 26.352c5.6575 3.1398 11.346 6.8236 16.495 10.434-13.371 1.9748-27.227 6.2648-41.32 7.7174 9.3268-5.5486 18.836-10.793 24.825-18.151zm33.785 10.125c12.867-.22512 21.186 8.5814 29.427 16.789a117.5 117.5 0 0 1 .14286 4.2229 117.5 117.5 0 0 1 -.36 6.9252c-21.535-10.624-39.462 3.0371-50.053 10.856-.58675-1.7916-1.0233-3.8378-1.8308-6.1576-13.178 3.5785-27.149 1.5814-40.17-2.0013a26.971 26.971 0 0 0 1.8846 -9.7838 26.971 26.971 0 0 0 -.0631 -1.8693c25.427-.82552 47.95-5.1498 73.728-6.1596l-12.706-12.822zm-200.52.58586c9.8403 9.211 21.507 16.754 32.183 16.552 1.3944 1.6488 3.9625 6.1576 5.0899 7.6595-8.5353 15.292-21.002 27.229-34.312 25.71-5.2874-7.0347-5.7701-42.127-2.9618-49.921zm40.042 8.0362c12.909 4.0041 27.235 6.0239 40.594 10.744-10.804 1.0219-21.705 1.6461-30.253 5.7625-3.7875-5.246-7.2612-11.024-10.342-16.507zm45.674 14.314a26.971 26.971 0 0 0 3.6046 11.442c-22.63 11.603-41.213 25.2-63.973 37.243l16.968 5.9932c-11.515 5.7306-22.762 1.5147-33.728-2.2828a117.5 117.5 0 0 1 -4.6676 -10.081c24.038.22206 34.24-19.914 40.408-31.551 1.3041 1.3614 2.5825 3.0191 4.3177 4.7577 10.312-8.9456 23.776-13.151 37.071-15.522zm54.916 13.282c10.208 3.6834 20.386 7.7393 29.873 7.6959 1.1655 6.3646 1.7207 12.989 2.1981 19.26-10.011-9.0806-22.001-16.989-32.071-26.956zm71.76 2.3428c4.2885-.0817 8.2964.83564 11.836 3.0699 1.7061 8.6333-12.782 39.855-18.619 45.734-5.0306-12.505-12.923-23.037-22.441-27.878-.45559-2.1108-.86523-7.3876-1.1476-9.2442 10.145-6.4842 20.936-11.502 30.37-11.682zm-80.719 1.2741c15.916 19.748 33.242 35.213 50.225 54.363l1.9772-17.883c8.3171 9.7807 5.5354 23.037 3.6879 34.821a117.5 117.5 0 0 1 -6.9567 5.2982c-5.446-23.411-27.455-28.761-40.22-31.98 1.0118-1.5907 2.3578-3.1434 3.6382-5.2396-11.129-7.9147-17.638-20.372-22.355-33.044a26.971 26.971 0 0 0 10.004 -6.3357zm-33.378 3.7999a26.971 26.971 0 0 0 10.804 3.8845c-5.2148 24.851-6.1929 47.948-10.322 73.292l15.172-9.6663c-2.3022 12.688-14.566 18.772-24.933 24.768a117.5 117.5 0 0 1 -8.4005 -2.1615c14.774-18.991 5.0828-39.554-.44723-51.507 1.873-.21417 3.9064-.22026 6.3543-.42422-.18136-13.628 5.1322-26.54 11.773-38.186zm-6.3505 1.6c-6.0762 8.9921-12.391 17.755-14.695 26.958-6.4551-.44425-13.249-1.2526-19.449-2.3062 11.232-7.5172 22.01-17.336 34.144-24.652zm27.248 6.8826c3.1276 10.392 5.3241 21.108 11.381 28.411-4.1774 4.9412-8.9905 9.3451-13.536 13.691.67266-13.499.15519-28.075 2.1551-42.102zm-59.757 29.114c2.1592-.029 7.2968.73278 9.1724.8269 6.2947 16.342 7.392 33.25-2.355 42.439-8.7861-.49904-35.592-21.448-39.885-28.534 13.35-1.8565 26.439-6.36 33.067-14.732zm73.545 12.166c16.655 5.4139 30.475 15.072 31.486 28.429-5.9149 6.5161-39.434 14.48-47.633 13.288 7.0553-11.485 12.006-24.625 9.707-35.053 1.3422-1.6915 5.1843-5.2675 6.4396-6.6643z"
       id="path3880" />
    <path
       style="filter:url(#o);fill:#fc0;shape-rendering:crispEdges"
       d="m-12.467-124.3c-44.595 4.2784-85.592 34.277-102.53 75.835-19.507 44.602-9.259 100.11 24.912 134.79 33.402 35.86 88.958 48.4 134.51 30.28 44.191-16.16 76.535-59.393 80.005-106.28 4.44-47.775-21.56-96.701-63.885-119.43-22-12.424-47.897-17.547-73.012-15.192zm-3.7305 8.7695c-4.6444 15.035 3.3685 30.664 14.848 40.236 2.0388 2.8321 10.439 5.8738 4.168 7.9746-2.741 1.0009-3.8605 2.4127-2.0137 5 4.5929 11.939 4.8878 25.013 3.9043 37.613-4.9813-.63078-10.063-.08965-14.746 1.75-5.5053-23.246-14.659-45.407-21.83-68.229-3.1504 5.1627-6.3018 10.325-9.4512 15.488-4.2041-10.187-1.4105-21.602 4.6478-30.387 3.2476-4.4943 5.2413-11.118 11.926-10.605 2.56.56723 12.174-5.1484 8.5476 1.1584zm19.633-.84571c14.406.82059 29.064 3.3662 42.299 9.2656 6.5967 1.9993-.95818 4.1469-3.2619 6.4213-8.3516 6.2291-16.821 13.981-19.166 24.573-3.6847 1.3304-8.1428 4.0784-11.555 3.4638-10.34-9.8847-21.235-23.756-17.933-38.993.45944-5.2556 5.5938-4.5009 9.6172-4.7305zm-57.082 16.504c-.54222 11.83 1.1622 24.622 8.7812 34.139-1.3611 3.6513-1.8717 8.9528-4.5509 11.18-14.098 1.6233-31.358 2.5883-42.012-8.5846-5.1222-4.1931.64657-9.7976 3.6367-13.473 10.019-10.308 20.837-20.794 34.285-26.404-.04687 1.0475-.09375 2.095-.14062 3.1426zm125.18 4.3281c1.9709 3.376 14.438 8.0763 8.4069 10.444-15.053 6.0273-22.033 22.72-22.055 38.043-.41031 3.8936 1.4791 10.817-4.2208 6.9895-4.1479-3.0252-4.5722 4.0393-7.1758 6.2871-6.3231 9.0977-14.966 16.275-23.977 22.582-2.6191-4.367-6.0953-8.2021-10.498-10.824 14.669-18.918 26.404-39.875 40.531-59.176-6.3483.45574-12.697.90928-19.045 1.3672 5.4383-9.9785 16.652-14.609 27.52-15.324 3.4186-.04368 7.4199-1.4269 10.514-.38867zm15.637 19.848c9.3294 7.1234 13.978 18.671 19.308 28.791 2.7003 6.0496 5.6357 12.23 6.0557 18.949-12.388-3.8275-26.179-7.4334-38.537-1.4668-3.3613-1.9861-8.2261-3.7746-9.9233-6.7744 1.066-14.843 5.5273-33.289 20.816-39.437.77072-.12005 1.6161-1.0769 2.2812-.0625zm-57.725 8.4766c-7.7736 14.337-13.789 29.836-24.137 42.615.50177-12.801 4.8607-25.74 1.8203-38.311 8.0869-3.2609 16.387-5.9442 24.646-8.7246l-2.3301 4.4199zm-63.59 2.2695c6.2158 15.015 14.525 29.53 17.891 45.629-9.7415-8.2236-16.284-20.386-28.332-25.506 2.1435-8.4537 5.4565-16.541 8.4824-24.701l1.959 4.5781zm-66.945 6.5977c9.471 13.205 27.519 15.549 42.334 12.245 3.9035-.43255 10.429-3.6983 7.7719 2.6847-2.1363 4.6517 4.7392 3.4468 7.4189 5.449 10.323 4.1914 19.024 11.453 26.907 19.17-4.6514 2.1685-4.9124 12.679-10.001 10.044-20.995-9.0476-43.092-15.2-64.186-23.991 1.9974 5.7825 3.9954 11.565 5.9922 17.348-11.063-3.4995-18.008-13.699-20.99-24.43-1.4072-4.9807-4.4703-10.203-.29267-14.732 1.9661-1.8692 2.1771-9.8242 5.0466-3.7879zm156.16 25.584c7.2148 3.9723 14.028 8.616 20.768 13.336-17.839 2.1422-35.042 8.7086-53.127 8.8086 10.24-7.7055 22.918-12.487 30.906-22.963l.87132.49071.5818.32765zm-166.34 11.279c8.8962 7.9918 19.283 16.169 31.812 15.967 2.1959 3.2324 5.7361 6.9727 6.0202 10.403-7.1075 12.542-18.005 26.497-33.659 27.142-6.4939.72147-6.5578-7.864-7.7161-12.464-1.5281-13.579-2.8556-27.789.60829-41.16.53379-3.7644 1.1169-1.0198 2.934.11218zm199.17-1.4727c13.03-.39094 24.005 9.3714 31.449 18.666-.4256 4.054 1.6603 14.132-2.1542 13.452-13.84-7.9838-31.02-3.155-43.07 6.105-3.265 1.232-8.579 9.284-9.146 2.493-.299-2.93-1.474-4.254-4.369-2.959-12.758 2.162-25.78-.156-38.088-3.617 2.717-4.4807 1.568-11.72 3.306-15.003 23.457-.6958 46.714-4.8167 70.198-6.1105-4.321-4.3455-8.642-8.6905-12.965-13.036 1.6107.0052 3.2214.01042 4.832.01563zm-87.8 5.56c13.12-.543 22.16 15.942 14.604 26.69-6.4083 11.353-24.97 10.418-30.263-1.4774-5.935-11.244 2.916-25.551 15.659-25.213zm-72.098 3.4375c15.524 4.8554 32.112 6.3665 46.92 13.412-12.534 2.6018-26.116 1.4286-37.785 7.5137-5.2124-7.0739-9.6115-14.693-13.908-22.344 1.5911.47266 3.1823.94531 4.7734 1.418zm47.111 15.885c-1.3189 4.7167 6.136 10.89 2.6126 13.451-20.644 10.595-39.627 24.062-59.952 35.217 5.7708 2.0268 11.541 4.0546 17.312 6.0801-10.016 6.4804-22.586 6.1267-33.4 2.0566-4.9774-.98742-8.8812-3.2297-9.9331-8.6023-3.2059-5.1693-4.5516-8.9402 2.7575-7.5725 16.743-.68855 28.202-15.29 34.748-29.067 1.4194-6.4119 4.4705-1.1303 6.988 1.5522 10.964-8.8699 24.919-12.854 38.588-15.207.0931.69727.1862 1.3945.2793 2.0918zm53.637 11.567c10.026 3.5096 20.14 7.8746 30.893 7.5352 1.6619 8.5912 2.242 17.334 2.9453 26.041-12.94-12.392-28.871-21.506-40.396-35.375l6.5586 1.7988zm71.902 2.0898c4.6591.31196 11.734.94788 13.137 5.832-.84369 13.739-7.6891 26.354-13.8 38.421-2.0464 3.7058-4.3958 7.2853-7.5179 10.185-4.637-11.996-11.673-24.214-23.614-30.137-.317-3.9-2.157-8.929-.677-12.099 9.779-6.118 20.631-12.073 32.472-12.202zm-79.984 2.158c14.533 18.018 31.676 33.755 47.268 50.879.657-6.045 1.316-12.091 1.972-18.136 8.191 7.528 10.439 19.162 8.709 29.775-1.018 5.414-.054 12.163-6.238 14.576-4.284 4.898-6.298 3.901-6.965-1.853-4.654-16.076-21.351-23.856-36.481-27.051-6.536.139-2.187-4.066-.097-7.088-11.138-8.585-17.553-21.66-22.274-34.58 4.851-1.657 9.256-4.423 12.733-8.201.45768.5599.91536 1.1198 1.373 1.6797zm-39.611 7.8555c-5.8507 8.8402-12.411 17.389-14.791 27.982-8.7978-.52923-17.54-1.7072-26.221-3.209 15.14-9.5541 28.021-22.875 44.373-30.693-1.1204 1.9733-2.2409 3.9466-3.3613 5.9199zm5.6641-4.4785c2.837 3.7981 12.352 1.5394 11.797 6.0117-4.7484 22.65-6.0657 45.933-9.498 68.84 5.1146-3.2709 10.228-6.543 15.344-9.8125-.5991 11.081-8.2798 20.11-17.611 25.36-4.9265 2.6081-9.6439 7.7493-15.459 4.3382-5.2091-.51965-7.7648-1.8691-3.384-5.794 9.9661-13.633 6.0709-31.406-.96094-45.398-3.6026-4.5079-.88655-5.6046 3.5918-5.377 2.9356-.12531 1.0751-5.0549 2.1387-7.3711 1.7018-11.346 6.6143-21.914 12.293-31.775l.87384.48622.87384.48622.000377.00021zm21.857 9.623c3.1544 10.031 4.959 20.916 12.113 29-5.538 6.722-12.08 12.508-18.322 18.552 1.2392-17.889-.4669-36.19 3.7424-53.816.82227 2.0879 1.6445 4.1758 2.4668 6.2637zm-61.613 27.79c3.6005.58475 8.7915-.35704 11.035 2.1055 5.1085 13.473 8.7301 31.043-1.3711 43.148-3.733 4.5277-9.8345-.6024-13.986-2.4205-11.283-7.1881-22.935-14.91-30.952-25.806-2.7187-3.5217 5.7236-1.8473 8.0413-3.277 9.699-2.1239 19.986-5.5971 26.283-13.754l.94922.0039zm74.189 12.139c13.643 4.5161 29.609 12.661 32.652 28.113 1.1627 5.7655-6.6982 7.2768-10.726 9.3916-12.785 4.3063-26.227 8.6874-39.864 8.0034-4.4407.0961 1.5569-4.7966 2.0122-7.2133 4.7869-9.0683 9.1522-19.777 6.7148-30.283 2.7897-2.5059 5.8107-7.9275 9.2109-8.0117z"
       transform="matrix(1 .0017829 -.0017829 1 262.54 291.01)"
       id="path3882" />
    <animateTransform
       values="0 262.54 291.01;360 262.54 291.01"
       repeatCount="indefinite"
       dur="21s"
       attributeName="transform"
       type="rotate" />
  </g>
  <g
     id="g3894">
    <circle
       style="fill:url(#p);shape-rendering:crispEdges"
       cx="557.75"
       transform="rotate(4.8912)"
       cy="183.85"
       r="13.116"
       id="circle3886" />
    <path
       style="opacity:0.387;fill:#ffd5d5;shape-rendering:crispEdges"
       d="m551.02 228.46c-.44764 5.2309-4.7277 2.713-10.636 2.2074-5.9086-.50563-11.208 1.1925-10.761-4.0385.44764-5.2309 5.6004-9.0615 11.509-8.5559 5.9086.50564 10.336 5.156 9.888 10.387z"
       id="path3888" />
    <path
       d="m548.96 225.73c-3.4799-2.6906-6.9812-4.4511-12.131-4.3372 4.117-2.6576 10.554-.16788 12.131 4.3372z"
       style="fill:#ffd5d5;shape-rendering:crispEdges"
       id="path3890" />
    <path
       style="fill:#fff6d5"
       d="m443.52 211.29a98.468 98.468 0 0 0 -2.5684 21.943 98.468 98.468 0 0 0 98.467 98.469 98.468 98.468 0 0 0 96.521 -79.016 98.468 98.468 0 0 1 -95.898 76.521 98.468 98.468 0 0 1 -98.467 -98.467 98.468 98.468 0 0 1 1.9453 -19.451zm96.522-1.2604a20.712 20.712 0 0 0 -20.713 20.711 20.712 20.712 0 0 0 .0566 1.502 20.712 20.712 0 0 1 20.656 -19.568 20.712 20.712 0 0 1 20.654 19.197 20.712 20.712 0 0 0 .0566 -1.1309 20.712 20.712 0 0 0 -20.711 -20.711zm.88136-83.729a103.56 103.56 0 0 0 -99.504 75.193 103.56 103.56 0 0 1 98.623 -72.109 103.56 103.56 0 0 1 103.56 103.56 103.56 103.56 0 0 1 -4.0547 28.371 103.56 103.56 0 0 0 4.9356 -31.457 103.56 103.56 0 0 0 -103.56 -103.56z"
       id="path3892" />
  </g>
  <g
     id="g3904">
    <circle
       style="fill:url(#e);shape-rendering:crispEdges"
       transform="rotate(4.8912)"
       cy="267.56"
       cx="286.4"
       r="13.116"
       id="circle3896" />
    <path
       d="m273.52 288.73c-.44764 5.2309-4.7277 2.713-10.636 2.2074-5.9086-.50563-11.208 1.1925-10.761-4.0385.44764-5.2309 5.6004-9.0615 11.509-8.5559 5.9086.50564 10.336 5.156 9.888 10.387z"
       style="opacity:0.387;fill:#ffd5d5;shape-rendering:crispEdges"
       id="path3898" />
    <path
       style="fill:#ffd5d5;shape-rendering:crispEdges"
       d="m271.46 285.99c-3.4799-2.6906-6.9812-4.4511-12.131-4.3372 4.117-2.6576 10.554-.16788 12.131 4.3372z"
       id="path3900" />
    <path
       style="fill:#fea"
       d="m262.54 267.95a23.059 23.059 0 0 0 -23.059 23.059 23.059 23.059 0 0 0 .0703 1.7227 23.059 23.059 0 0 1 22.988 -21.666 23.059 23.059 0 0 1 22.99 21.324 23.059 23.059 0 0 0 .0684 -1.3809 23.059 23.059 0 0 0 -23.059 -23.059zm0-101.88a124.93 124.93 0 0 0 -122.62 101.29 124.93 124.93 0 0 1 122.18 -99.08 124.93 124.93 0 0 1 124.93 124.93 124.93 124.93 0 0 1 -2.3125 23.639 124.93 124.93 0 0 0 2.752 -25.842 124.93 124.93 0 0 0 -124.93 -124.93z"
       transform="translate(0 -0.00354)"
       id="path3902" />
  </g>
  <g
     id="g3914">
    <circle
       style="fill:url(#c);shape-rendering:crispEdges"
       transform="rotate(4.8912)"
       cy="357.21"
       cx="476.75"
       r="13.116"
       id="circle3906" />
    <path
       d="m455.53 394.28c-.44764 5.2309-4.7277 2.713-10.636 2.2074-5.9086-.50563-11.208 1.1925-10.761-4.0385.44764-5.2309 5.6004-9.0615 11.509-8.5559 5.9086.50564 10.336 5.156 9.888 10.387z"
       style="opacity:0.387;fill:#ffd5d5;shape-rendering:crispEdges"
       id="path3908" />
    <path
       style="fill:#ffd5d5;shape-rendering:crispEdges"
       d="m453.47 391.54c-3.4799-2.6906-6.9812-4.4511-12.131-4.3372 4.117-2.6576 10.554-.16788 12.131 4.3372z"
       id="path3910" />
    <path
       style="fill:#fff"
       d="m444.82 377.01a19 19 0 0 0 -18.999 18.999 19 19 0 0 0 .0579 1.4194 19 19 0 0 1 18.941 -17.852 19 19 0 0 1 18.943 17.57 19 19 0 0 0 .0564 -1.1378 19 19 0 0 0 -18.999 -18.999z"
       id="path3912" />
  </g>
</svg>
