<?xml version="1.0" encoding="UTF-8" standalone="no"?>
<!-- Generator: Adobe Illustrator 16.0.0, SVG Export Plug-In . SVG Version: 6.00 Build 0)  -->

<svg
   xmlns:dc="http://purl.org/dc/elements/1.1/"
   xmlns:cc="http://creativecommons.org/ns#"
   xmlns:rdf="http://www.w3.org/1999/02/22-rdf-syntax-ns#"
   xmlns:svg="http://www.w3.org/2000/svg"
   xmlns="http://www.w3.org/2000/svg"
   xmlns:sodipodi="http://sodipodi.sourceforge.net/DTD/sodipodi-0.dtd"
   xmlns:inkscape="http://www.inkscape.org/namespaces/inkscape"
   version="1.1"
   id="svg2"
   inkscape:version="0.92.2 5c3e80d, 2017-08-06"
   sodipodi:docname="blueDoor.svg"
   x="0px"
   y="0px"
   width="430.543px"
   height="325.295px"
   viewBox="0 0 430.543 325.295"
   enable-background="new 0 0 430.543 325.295"
   xml:space="preserve"><metadata
     id="metadata19"><rdf:RDF><cc:Work
         rdf:about=""><dc:format>image/svg+xml</dc:format><dc:type
           rdf:resource="http://purl.org/dc/dcmitype/StillImage" /></cc:Work></rdf:RDF></metadata><defs
     id="defs3"><inkscape:perspective
       sodipodi:type="inkscape:persp3d"
       inkscape:vp_x="0 : 526.18109 : 1"
       inkscape:vp_y="0 : 1000 : 0"
       inkscape:vp_z="744.09448 : 526.18109 : 1"
       id="perspective2985"
       inkscape:persp3d-origin="372.04724 : 350.78739 : 1" /></defs><sodipodi:namedview
     units="mm"
     pagecolor="#ffffff"
     bordercolor="#666666"
     borderopacity="1.0"
     inkscape:zoom="1.979899"
     inkscape:cx="332.79438"
     inkscape:cy="233.90626"
     showgrid="false"
     showguides="true"
     fit-margin-top="0"
     fit-margin-left="0"
     id="base"
     inkscape:document-units="mm"
     inkscape:current-layer="layer1"
     inkscape:object-nodes="true"
     inkscape:window-width="1280"
     inkscape:window-height="712"
     inkscape:window-x="0"
     inkscape:window-y="1"
     inkscape:window-maximized="1"
     inkscape:guide-bbox="true"
     fit-margin-right="0"
     fit-margin-bottom="0"
     inkscape:pageopacity="0.0"
     inkscape:pageshadow="2" /><g
     id="layer1"
     transform="translate(-53.643411,-569.625)"
     inkscape:label="Layer 1"
     inkscape:groupmode="layer"><path
       id="path3910"
       inkscape:connector-curvature="0"
       sodipodi:nodetypes="cccccc"
       fill="#D7D7F4"
       d="M268.908,570.139   l214.781,128.125l-9.313,5.563L268.908,581.233l-9.281-5.563L268.908,570.139z" /><path
       id="path3918"
       inkscape:connector-curvature="0"
       fill="#B3B3B3"
       d="M483.687,698.276v68l-9.311,5.555v-68L483.687,698.276z" /><path
       id="path5998"
       inkscape:connector-curvature="0"
       fill="#B3B3B3"
       d="M483.622,764.597l-9.311,5.556l0.031-11.063l9.25-5.531   L483.622,764.597z" /><path
       id="path6000"
       inkscape:connector-curvature="0"
       fill="#B3B3B3"
       d="M483.654,753.534l-9.311,5.556l0.031-11.063l9.25-5.531   L483.654,753.534z" /><path
       id="path6002"
       inkscape:connector-curvature="0"
       fill="#B3B3B3"
       d="M483.624,742.496l-9.311,5.556l0.031-11.063l9.25-5.531   L483.624,742.496z" /><path
       id="path6004"
       inkscape:connector-curvature="0"
       fill="#B3B3B3"
       d="M483.595,731.458l-9.313,5.557l0.031-11.063l9.25-5.531   L483.595,731.458z" /><path
       id="path6006"
       inkscape:connector-curvature="0"
       fill="#B3B3B3"
       d="M483.626,720.396l-9.313,5.556l0.031-11.063l9.25-5.531   L483.626,720.396z" /><path
       id="path6008"
       inkscape:connector-curvature="0"
       fill="#B3B3B3"
       d="M483.658,709.333l-9.313,5.556l0.031-11.063l9.25-5.531   L483.658,709.333z" /><path
       id="path6042"
       inkscape:connector-curvature="0"
       sodipodi:nodetypes="ccccc"
       fill="#B3B3B3"
       d="M352.618,632.973l0.09,55.214   l-9.312,5.556l-0.031-55.25L352.618,632.973z" /><path
       id="path6059"
       inkscape:connector-curvature="0"
       fill="#B3B3B3"
       d="M352.708,688.188l-9.312,5.556l37.155,22.163l9.25-5.594   L352.708,688.188z" /><path
       id="path6053"
       inkscape:connector-curvature="0"
       sodipodi:nodetypes="ccccccccc"
       fill="#F2F2F2"
       d="M259.627,575.67   l214.738,128.173v68l-93.813-55.969l-0.031-55.194l-37.155-22.188l0.03,55.163l-83.769-49.986V575.67z" /><path
       style="fill:#00ffff;stroke-width:0.50507629"
       d="M 373.80657,174.38647 327.08701,146.4568 326.94745,118.746 326.80787,91.0352 313.05785,82.807396 c -7.56252,-4.525291 -15.68195,-9.451668 -18.04318,-10.947512 -2.36123,-1.495839 -4.60106,-2.736761 -4.9774,-2.757606 -0.5719,-0.03167 -0.62413,4.440222 -0.31809,27.236223 0.2798,20.841739 0.22545,27.274119 -0.23043,27.274119 -0.72753,0 -82.96338,-48.981772 -83.48604,-49.726416 -0.58919,-0.839437 -0.47275,-67.8434574 0.11854,-68.2088934 0.27779,-0.1716849 0.50507,-0.09877 0.50507,0.1620325 0,0.2608027 5.05708,3.4896353 11.23795,7.1751839 6.18087,3.685548 18.17012,10.840049 26.64277,15.898892 115.56758,69.002955 172.82135,103.154891 174.36784,104.010621 l 1.8843,1.04264 0.13601,34.21899 c 0.0748,18.82044 0.0224,34.19907 -0.11653,34.17472 -0.13889,-0.0243 -21.27634,-12.61261 -46.97209,-27.97392 z"
       id="path21"
       inkscape:connector-curvature="0"
       transform="translate(53.643411,569.625)" /><path
       style="fill:#00ffff;stroke-width:0.50507629"
       d="m 410.92967,127.98481 c -5.27804,-3.1581 -21.41523,-12.78682 -35.86041,-21.39718 C 267.72174,42.600907 211.33175,8.8851525 207.74675,6.5449735 c -1.13288,-0.7395119 -1.08315,-0.7938996 2.9346,-3.2090743 2.24785,-1.3512472 4.31059,-2.45681318 4.58385,-2.45681318 0.66677,0 214.10146,127.33543398 214.09357,127.72851398 -0.006,0.31959 -7.39673,4.75242 -8.31355,4.9866 -0.2855,0.0729 -4.8375,-2.4513 -10.11555,-5.60939 z"
       id="path23"
       inkscape:connector-curvature="0"
       transform="translate(53.643411,569.625)" /><path
       style="fill:#00ffff;stroke-width:0.50507629"
       d="m 308.61653,135.1594 c -9.84225,-5.87211 -18.06199,-10.92919 -18.26608,-11.23795 -0.44581,-0.67444 -0.5211,-54.351991 -0.0762,-54.351991 1.06971,0 8.35019,4.921923 8.56248,5.788608 0.13875,0.566457 0.18787,10.632757 0.10916,22.369555 -0.0787,11.736798 0.0457,21.339558 0.27654,21.339468 0.23081,-8e-5 6.53795,3.66831 14.01587,8.15199 l 13.59622,8.15214 v 5.23238 c 0,2.87781 -0.0727,5.23238 -0.16147,5.23238 -0.0888,0 -8.21422,-4.80446 -18.05648,-10.67658 z m -10.5714,-15.87547 c 0,-0.1389 -0.45457,-0.009 -1.01015,0.28808 -0.55559,0.29734 -1.01016,0.65426 -1.01016,0.79316 0,0.13889 0.45457,0.009 1.01016,-0.28808 0.55558,-0.29734 1.01015,-0.65426 1.01015,-0.79316 z"
       id="path25"
       inkscape:connector-curvature="0"
       transform="translate(53.643411,569.625)" /><path
       style="fill:#00ffff;stroke-width:0.50507629"
       d="m 421.0312,167.9773 v -33.82552 l 4.04061,-2.47721 c 2.22234,-1.36247 4.21107,-2.48371 4.41942,-2.49166 0.20834,-0.008 0.3788,15.17748 0.3788,33.74539 v 33.75983 l -2.39911,1.32945 c -1.31951,0.7312 -3.30825,1.882 -4.41942,2.55734 l -2.0203,1.22789 z"
       id="path27"
       inkscape:connector-curvature="0"
       transform="translate(53.643411,569.625)" /></g></svg>