<?xml version="1.0" encoding="UTF-8" standalone="no"?>
<!-- Generator: Adobe Illustrator 16.0.0, SVG Export Plug-In . SVG Version: 6.00 Build 0)  -->

<svg
   xmlns:dc="http://purl.org/dc/elements/1.1/"
   xmlns:cc="http://creativecommons.org/ns#"
   xmlns:rdf="http://www.w3.org/1999/02/22-rdf-syntax-ns#"
   xmlns:svg="http://www.w3.org/2000/svg"
   xmlns="http://www.w3.org/2000/svg"
   xmlns:sodipodi="http://sodipodi.sourceforge.net/DTD/sodipodi-0.dtd"
   xmlns:inkscape="http://www.inkscape.org/namespaces/inkscape"
   version="1.1"
   id="svg2"
   sodipodi:docname="dark.svg"
   inkscape:version="0.92.3 (2405546, 2018-03-11)"
   x="0px"
   y="0px"
   width="430.543px"
   height="325.295px"
   viewBox="0 0 430.543 325.295"
   enable-background="new 0 0 430.543 325.295"
   xml:space="preserve"><metadata
   id="metadata73"><rdf:RDF><cc:Work
       rdf:about=""><dc:format>image/svg+xml</dc:format><dc:type
         rdf:resource="http://purl.org/dc/dcmitype/StillImage" /></cc:Work></rdf:RDF></metadata>
<defs
   id="defs57">
	
	
		<inkscape:perspective
   id="perspective2985"
   inkscape:vp_z="744.09448 : 526.18109 : 1"
   inkscape:vp_y="0 : 1000 : 0"
   inkscape:vp_x="0 : 526.18109 : 1"
   sodipodi:type="inkscape:persp3d"
   inkscape:persp3d-origin="372.04724 : 350.78739 : 1">
		</inkscape:perspective>
</defs>
<sodipodi:namedview
   units="mm"
   fit-margin-left="0"
   fit-margin-top="0"
   showguides="true"
   showgrid="false"
   inkscape:cy="137.01366"
   inkscape:cx="76.808266"
   inkscape:zoom="1.979899"
   borderopacity="1.0"
   bordercolor="#666666"
   pagecolor="#ffffff"
   id="base"
   inkscape:pageshadow="2"
   inkscape:pageopacity="0.0"
   fit-margin-bottom="0"
   fit-margin-right="0"
   inkscape:guide-bbox="true"
   inkscape:window-maximized="1"
   inkscape:window-y="-8"
   inkscape:window-x="-8"
   inkscape:window-height="1017"
   inkscape:window-width="1920"
   inkscape:object-nodes="true"
   inkscape:current-layer="layer1"
   inkscape:document-units="mm">
	</sodipodi:namedview>
<g
   id="layer1"
   transform="translate(-53.643411,-569.625)"
   inkscape:label="Layer 1"
   inkscape:groupmode="layer">
	<path
   id="path3910"
   sodipodi:nodetypes="cccccc"
   inkscape:connector-curvature="0"
   fill="#D7D7F4"
   d="M268.925,570.139   L54.144,698.264l9.313,5.563l205.469-122.594l9.281-5.563L268.925,570.139z"
   style="fill:#41065f;fill-opacity:1" />
	<path
   id="path3918"
   inkscape:connector-curvature="0"
   fill="#F2F2F2"
   d="M54.145,698.276v68l9.312,5.555v-68L54.145,698.276z"
   style="fill:#41065f;fill-opacity:1" />
	<path
   id="path5998"
   inkscape:connector-curvature="0"
   fill="none"
   d="M54.21,764.597l9.312,5.556L63.49,759.09l-9.25-5.531   L54.21,764.597z" />
	<path
   id="path6000"
   inkscape:connector-curvature="0"
   fill="none"
   d="M54.179,753.534l9.312,5.556l-0.031-11.063l-9.25-5.531   L54.179,753.534z" />
	<path
   id="path6002"
   inkscape:connector-curvature="0"
   fill="none"
   d="M54.209,742.496l9.311,5.556l-0.031-11.063l-9.25-5.531   L54.209,742.496z" />
	<path
   id="path6004"
   inkscape:connector-curvature="0"
   fill="none"
   d="M54.239,731.458l9.311,5.557l-0.031-11.063l-9.25-5.531   L54.239,731.458z" />
	<path
   id="path6006"
   inkscape:connector-curvature="0"
   fill="none"
   d="M54.207,720.396l9.312,5.556l-0.031-11.063l-9.25-5.531   L54.207,720.396z" />
	<path
   id="path6008"
   inkscape:connector-curvature="0"
   fill="none"
   d="M54.176,709.333l9.312,5.556l-0.031-11.063l-9.25-5.531   L54.176,709.333z" />
	<path
   id="path6042"
   sodipodi:nodetypes="ccccc"
   inkscape:connector-curvature="0"
   fill="#F2F2F2"
   d="M185.214,632.973   l-0.089,55.214l9.312,5.556l0.031-55.25L185.214,632.973z"
   style="fill:#14001f;fill-opacity:1" />
	<path
   id="path6059"
   inkscape:connector-curvature="0"
   fill="#F2F2F2"
   d="M185.125,688.188l9.312,5.556l-37.155,22.163l-9.25-5.594   L185.125,688.188z"
   style="fill:#14001f;fill-opacity:1" />
	<path
   id="path6053"
   sodipodi:nodetypes="ccccccccc"
   inkscape:connector-curvature="0"
   fill="#B3B3B3"
   d="M278.206,575.67   L63.469,703.844v68l93.812-55.969l0.03-55.194l37.156-22.188l-0.03,55.163l83.769-49.986V575.67z"
   style="fill:#41065f;fill-opacity:1" />
</g>
</svg>