<?xml version="1.0" encoding="UTF-8" standalone="no"?>
<!-- Generator: Adobe Illustrator 16.0.0, SVG Export Plug-In . SVG Version: 6.00 Build 0)  -->

<svg
   xmlns:dc="http://purl.org/dc/elements/1.1/"
   xmlns:cc="http://creativecommons.org/ns#"
   xmlns:rdf="http://www.w3.org/1999/02/22-rdf-syntax-ns#"
   xmlns:svg="http://www.w3.org/2000/svg"
   xmlns="http://www.w3.org/2000/svg"
   xmlns:sodipodi="http://sodipodi.sourceforge.net/DTD/sodipodi-0.dtd"
   xmlns:inkscape="http://www.inkscape.org/namespaces/inkscape"
   version="1.1"
   id="svg2"
   sodipodi:docname="graphicsTop.svg"
   inkscape:version="0.92.2 (5c3e80d, 2017-08-06)"
   x="0px"
   y="0px"
   width="430.543px"
   height="325.295px"
   viewBox="0 0 430.543 325.295"
   enable-background="new 0 0 430.543 325.295"
   xml:space="preserve"><metadata
     id="metadata34445"><rdf:RDF><cc:Work
         rdf:about=""><dc:format>image/svg+xml</dc:format><dc:type
           rdf:resource="http://purl.org/dc/dcmitype/StillImage" /><dc:title></dc:title></cc:Work></rdf:RDF></metadata><defs
     id="defs34429"><inkscape:perspective
       id="perspective2985"
       inkscape:vp_z="744.09448 : 526.18109 : 1"
       inkscape:vp_y="0 : 1000 : 0"
       inkscape:vp_x="0 : 526.18109 : 1"
       sodipodi:type="inkscape:persp3d"
       inkscape:persp3d-origin="372.04724 : 350.78739 : 1" /></defs><sodipodi:namedview
     units="mm"
     fit-margin-left="0"
     fit-margin-top="0"
     showguides="true"
     showgrid="false"
     inkscape:cy="217.82587"
     inkscape:cx="67.969432"
     inkscape:zoom="1.979899"
     borderopacity="1.0"
     bordercolor="#666666"
     pagecolor="#ffffff"
     id="base"
     inkscape:pageshadow="2"
     inkscape:pageopacity="0.0"
     fit-margin-bottom="0"
     fit-margin-right="0"
     inkscape:guide-bbox="true"
     inkscape:window-maximized="0"
     inkscape:window-y="0"
     inkscape:window-x="0"
     inkscape:window-height="699"
     inkscape:window-width="1358"
     inkscape:object-nodes="true"
     inkscape:current-layer="layer1"
     inkscape:document-units="mm" /><g
     id="layer1"
     transform="translate(-53.643411,-569.625)"
     inkscape:label="Layer 1"
     inkscape:groupmode="layer"><path
       id="path3910"
       sodipodi:nodetypes="cccccc"
       inkscape:connector-curvature="0"
       d="m 268.925,570.139 -214.781,128.125 9.313,5.563 205.469,-122.594 9.281,-5.563 z"
       style="fill:#d7d7f4" /><path
       id="path3918"
       inkscape:connector-curvature="0"
       d="m 54.145,698.276 v 68 l 9.312,5.555 v -68 z"
       style="fill:#f2f2f2" /><path
       id="path5998"
       inkscape:connector-curvature="0"
       d="m 54.21,764.597 9.312,5.556 -0.032,-11.063 -9.25,-5.531 z"
       style="fill:none" /><path
       id="path6000"
       inkscape:connector-curvature="0"
       d="m 54.179,753.534 9.312,5.556 -0.031,-11.063 -9.25,-5.531 z"
       style="fill:none" /><path
       id="path6002"
       inkscape:connector-curvature="0"
       d="m 54.209,742.496 9.311,5.556 -0.031,-11.063 -9.25,-5.531 z"
       style="fill:none" /><path
       id="path6004"
       inkscape:connector-curvature="0"
       d="m 54.239,731.458 9.311,5.557 -0.031,-11.063 -9.25,-5.531 z"
       style="fill:none" /><path
       id="path6006"
       inkscape:connector-curvature="0"
       d="m 54.207,720.396 9.312,5.556 -0.031,-11.063 -9.25,-5.531 z"
       style="fill:none" /><path
       id="path6008"
       inkscape:connector-curvature="0"
       d="m 54.176,709.333 9.312,5.556 -0.031,-11.063 -9.25,-5.531 z"
       style="fill:none" /><path
       id="path6042"
       sodipodi:nodetypes="ccccc"
       inkscape:connector-curvature="0"
       d="m 185.214,632.973 -0.089,55.214 9.312,5.556 0.031,-55.25 z"
       style="fill:#f2f2f2" /><path
       id="path6059"
       inkscape:connector-curvature="0"
       d="m 185.125,688.188 9.312,5.556 -37.155,22.163 -9.25,-5.594 z"
       style="fill:#f2f2f2" /><path
       id="path6053"
       sodipodi:nodetypes="ccccccccc"
       inkscape:connector-curvature="0"
       d="M 278.206,575.67 63.469,703.844 v 68 l 93.812,-55.969 0.03,-55.194 37.156,-22.188 -0.03,55.163 83.769,-49.986 z"
       style="fill:#e6e6e6" /><path
       style="opacity:0.98999999;fill:#ff0000;fill-opacity:1;stroke:#000000;stroke-width:0.89999998;stroke-miterlimit:4;stroke-dasharray:none;stroke-opacity:0.61194033;paint-order:normal"
       id="path34990"
       d="m 81.567926,737.1802 c -0.172432,-1.12789 -0.435595,-2.28571 -0.230145,-3.43395 0.473123,-2.64422 2.158182,-4.73347 3.673896,-6.84962 4.818368,-5.79039 10.978168,-10.13974 17.469693,-13.86054 10.65161,-6.10529 8.67257,-5.00638 17.49162,-9.09336 4.95639,-2.11293 10.00676,-4.00975 15.1911,-5.48549 2.14003,-0.60917 4.24614,-1.09151 6.45235,-1.33116 0.19211,0.0425 0.46671,-0.036 0.57633,0.12737 0.50798,0.75711 0.0898,1.15982 -0.5085,1.50929 -5.27391,3.08038 -5.71151,3.67268 -9.97423,4.86427 -2.79304,0.99547 -5.68031,1.64513 -8.55075,2.3568 -1.03561,0.20986 -2.04692,0.49128 -3.06148,0.78185 0,0 5.85625,-4.49989 5.85625,-4.49989 v 0 c 0.98608,-0.26 1.98261,-0.46807 2.97933,-0.68306 2.83883,-0.62171 5.6535,-1.33408 8.39927,-2.29868 0.51975,-0.16882 1.04461,-0.32268 1.55926,-0.50646 0.42427,-0.15152 1.6327,-0.74615 1.25607,-0.49894 -1.72155,1.12997 -3.53931,2.10608 -5.30896,3.15913 0.21312,-0.0954 0.40612,-0.29684 0.63936,-0.28611 0.13914,0.006 1.03719,0.55741 0.31475,0.27485 -1.93235,0.0778 -3.76918,0.4211 -5.64991,0.90312 -4.96675,1.27295 -9.78049,3.06412 -14.49965,5.05562 -2.09194,0.97249 -4.17747,1.95889 -6.27583,2.91745 -0.56848,0.25969 -1.18071,0.42813 -1.72404,0.737 -6.17692,3.51148 -12.001767,7.66513 -16.524517,13.20769 -1.350397,1.90127 -2.95768,3.88534 -3.395147,6.26202 -0.194437,1.05634 0.09983,2.10415 0.382644,3.10656 0,0 -6.538764,3.56424 -6.538764,3.56424 z"
       inkscape:connector-curvature="0" /><path
       style="opacity:0.98999999;fill:#ff0000;fill-opacity:1;stroke:#000000;stroke-width:0.89999998;stroke-miterlimit:4;stroke-dasharray:none;stroke-opacity:0.61194033;paint-order:normal"
       id="path34992"
       d="m 234.618,643.99494 c -0.0763,-0.11872 -0.13691,-0.24902 -0.22874,-0.35615 -0.62267,-0.72643 -1.47907,-1.28943 -2.21563,-1.88261 -1.31495,-1.05898 -1.27369,-1.04931 -2.58965,-2.20736 -1.3315,-1.21004 -2.62208,-2.48933 -4.0932,-3.53556 -0.60792,-0.43234 -1.49597,-1.09324 -2.34185,-1.01198 -0.37249,0.0358 -0.68656,0.29793 -1.02983,0.44689 9.50911,-5.3619 5.05605,-3.29553 3.50551,-1.1402 -0.60359,0.83903 -0.91626,1.74041 -1.20333,2.71855 -0.49752,2.09315 0.0432,3.19963 1.63156,4.56239 2.20591,1.65976 4.87873,2.40185 7.47181,3.2142 2.8048,1.03988 3.29758,2.07045 3.90549,4.88112 0.067,1.0718 0.28584,2.27889 -0.19304,3.30371 -0.15686,0.3357 -0.33094,0.7051 -0.64074,0.90838 -6.30523,4.1373 -4.94217,3.56563 -9.04112,4.85599 -5.51699,1.31909 -11.15186,1.92849 -16.79057,2.42736 -3.04561,0.2346 -6.16891,0.36436 -9.16851,-0.33871 -0.50582,-0.11856 -1.01955,-0.23376 -1.49274,-0.44824 -0.41558,-0.18837 -0.76427,-0.49865 -1.1464,-0.74798 -1.38376,-1.57008 -2.01082,-3.51986 -1.16513,-5.55123 0.73504,-1.76557 1.53724,-2.39236 2.81058,-3.78969 2.04868,-1.62565 2.17543,-1.8568 4.5125,-3.16274 2.76906,-1.54733 5.53196,-3.11092 8.37034,-4.52708 1.96663,-0.98122 4.87978,-1.62314 7.05026,-2.08522 3.1093,-0.38213 4.42194,-0.6256 5.39536,2.61996 0.13748,1.28399 0.12022,0.64589 0.0568,1.91415 0,0 -6.54562,3.26395 -6.54562,3.26395 v 0 c 0.14332,-1.11359 0.12261,-0.55494 0.0622,-1.67595 -0.13053,-0.49001 -0.20683,-1.00007 -0.53548,-1.41355 -0.90981,-1.14464 -2.81033,-0.57474 -3.98449,-0.49422 -1.95564,0.4185 -2.26291,0.42843 -4.25846,1.11169 -0.84778,0.29027 -2.97317,1.72388 -2.51292,0.95502 0.65521,-1.09455 2.23027,-1.27065 3.19883,-2.10084 1.35473,-1.1612 -5.81565,3.65152 -4.46702,2.94937 -0.55055,0.55268 -1.15808,1.05394 -1.65166,1.65805 -1.76821,2.16414 -2.17118,4.27727 -0.27494,6.43365 0.32779,0.2076 0.62982,0.46296 0.98337,0.62279 3.01017,1.36078 7.01441,0.90726 10.19527,0.79058 5.69626,-0.44655 11.40097,-1.11084 16.89871,-2.73884 3.10238,-1.27098 3.73771,-1.63821 -3.20466,2.28685 -0.28337,0.16021 0.55613,-0.36327 0.75147,-0.62366 0.62928,-0.83882 0.43645,-2.02628 0.39437,-2.97979 -0.49031,-2.48793 -1.00042,-3.36973 -3.46563,-4.25907 -2.66162,-0.89818 -5.38876,-1.74767 -7.68556,-3.42442 -1.72709,-1.54039 -2.55141,-2.89831 -2.04869,-5.26339 1.46929,-5.65493 4.36639,-5.90381 10.02561,-9.10501 0.41918,-0.042 0.84022,-0.18365 1.25753,-0.12597 0.84368,0.11661 1.7429,0.84004 2.36545,1.32135 1.43207,1.10715 2.70288,2.39536 4.08143,3.56501 1.5996,1.31835 1.07064,0.92655 2.68566,2.09248 0.85359,0.61624 1.7956,1.18244 2.53382,1.94466 0.1284,0.13258 0.23101,0.28791 0.34651,0.43186 0,0 -6.51483,3.70945 -6.51483,3.70945 z"
       inkscape:connector-curvature="0" /><path
       style="opacity:0.98999999;fill:#c83737;fill-opacity:1;stroke:#000000;stroke-width:0.89999998;stroke-miterlimit:4;stroke-dasharray:none;stroke-opacity:0.61194033;paint-order:normal"
       id="path34994"
       d="m 182.33966,638.17147 c 2.07446,0.17444 4.1157,-0.29764 6.11175,-0.81318 2.41199,-0.50172 4.56204,-1.6981 6.81654,-2.62971 2.26724,-0.86657 4.46656,-1.8976 6.629,-2.99859 2.28696,-1.23079 4.61599,-2.37563 7.11603,-3.0977 2.32598,-0.67767 4.54662,-1.66215 6.72856,-2.7038 0.40777,-0.21256 0.8162,-0.42384 1.2233,-0.63767 1.50102,-0.78842 1.17517,-0.61102 2.6464,-1.44746 0.42019,-0.2389 1.67814,-0.96021 1.25879,-0.71982 -5.39115,3.09046 -6.60832,3.89986 -3.93945,2.18176 1.65964,-1.02748 3.02475,-2.4124 4.462,-3.71022 3.63646,-2.90944 7.61098,-4.94373 12.11023,-5.70918 2.68241,-0.31994 5.3125,-1.04709 7.91334,-1.76587 2.03145,-0.7273 3.94519,-1.74253 5.87146,-2.70604 1.67169,-0.82331 3.57436,-0.8528 5.39964,-0.92319 1.71838,-0.0753 4.22908,0.0883 5.72723,1.01948 0.30765,0.19121 0.54618,0.47595 0.81926,0.71393 1.41212,1.91564 1.57029,4.3211 1.69404,6.61859 0.0404,1.88926 0.18331,3.92426 -0.62677,5.69594 -0.15258,0.33371 -0.37207,0.63256 -0.5581,0.94885 -0.70313,0.87506 -1.58175,1.55522 -2.55816,2.09992 -4.25489,2.37362 -5.61928,3.78302 -9.37797,4.50198 -2.06914,0.32959 -4.16711,0.3248 -6.25595,0.34024 -1.19314,-0.054 -2.76929,0.30118 -3.72446,-0.64362 -0.16632,-0.16451 -0.27681,-0.37719 -0.41522,-0.56579 -0.0809,-0.21404 -0.16184,-0.42808 -0.24275,-0.64211 0,0 6.48869,-3.57802 6.48869,-3.57802 v 0 c 0.0405,0.14386 0.0809,0.28773 0.12139,0.4316 0.0927,0.11229 0.16412,0.2462 0.27803,0.33689 0.80968,0.64463 2.43969,0.25923 3.38509,0.37521 2.0528,-0.0119 4.12025,-0.0431 6.14066,-0.44707 3.13645,-0.80056 4.60769,-2.24966 -3.17369,2.49634 -0.30554,0.18636 0.63558,-0.33011 0.94316,-0.51309 0.9488,-0.56444 0.8886,-0.57304 1.732,-1.28469 0.20872,-0.26653 0.45213,-0.50922 0.62615,-0.7996 0.97425,-1.62572 0.81358,-3.62551 0.78071,-5.43213 -0.0978,-2.08793 -0.12939,-4.33316 -1.43645,-6.07354 -0.22851,-0.1785 -0.43288,-0.39319 -0.68552,-0.53549 -1.6531,-0.93111 -3.70667,-0.8352 -5.52525,-0.7681 -1.82098,0.13256 -3.65027,0.3025 -5.28197,1.2002 -1.90718,0.91411 -3.78769,1.91621 -5.83224,2.49738 -2.64365,0.68777 -5.29115,1.4055 -8.00312,1.7693 -1.07706,0.2323 -2.13275,0.48475 -3.1659,0.87599 -0.31899,0.12079 -1.23252,0.57774 -0.94289,0.39757 1.11358,-0.69274 7.86238,-4.59347 4.56664,-2.68744 -1.52968,1.26558 -2.8408,2.78516 -4.54411,3.84428 -4.2969,2.90494 -8.93155,5.31496 -13.52266,7.72211 -2.22264,1.03299 -4.48442,1.987 -6.84476,2.66383 -2.43845,0.79239 -4.71875,1.94795 -6.981,3.14586 -2.19756,1.08899 -4.42497,2.11473 -6.71166,3.00402 -2.24118,0.96982 -4.45296,2.01737 -6.86125,2.51984 -2.10514,0.49673 -4.23661,0.85058 -6.40764,0.81222 0,0 6.02885,-4.38021 6.02885,-4.38021 z"
       inkscape:connector-curvature="0" /><path
       style="opacity:0.98999999;fill:#6c5353;fill-opacity:1;stroke:#000000;stroke-width:0.89999998;stroke-miterlimit:4;stroke-dasharray:none;stroke-opacity:0.61194033;paint-order:normal"
       id="path34996"
       d="m 112.09388,697.87718 c -3.28487,1.48637 -6.56385,2.9662 -9.7998,4.5577 -5.14512,2.76591 1.68976,-1.08182 2.58127,-1.53845 0.41946,-0.21485 -0.78897,0.51905 -1.15239,0.81909 -0.99132,0.81844 -1.65045,1.77115 -2.28503,2.86857 -0.6276,1.44934 -1.12737,3.14482 -0.19395,4.59844 0.6471,1.00772 1.29207,1.27481 2.28237,1.93938 3.18872,1.50702 6.69763,2.26017 10.21879,2.09334 1.70364,-0.10239 3.3557,-0.65858 5.06627,-0.59477 1.88803,0.38662 2.0539,1.61827 1.77202,3.31279 -0.43636,1.19396 -1.25114,2.11423 -2.34755,2.7703 -5.55427,3.32355 -6.32491,4.08125 -11.11231,5.48695 -2.82848,0.7777 -5.64829,1.76811 -8.596372,1.9344 -1.494737,-0.10499 -3.14171,-0.3013 -4.27637,-1.40711 -0.299422,-0.29181 -0.519489,-0.65525 -0.779234,-0.98287 -1.361494,-2.74423 -1.799875,-6.21674 -1.709728,-9.25707 0.02222,-0.74946 0.117164,-1.49498 0.175747,-2.24247 0.533147,-3.52177 1.688838,-7.21698 4.375119,-9.72397 0.506008,-0.47224 1.09969,-0.84077 1.649535,-1.26115 2.712493,-1.57384 6.280903,-4.11039 9.652573,-5.27873 2.7703,-0.95997 5.6607,-1.23326 8.56854,-1.30487 3.37335,0.31634 6.80704,1.14099 9.58646,3.18326 0.46828,0.34409 0.87557,0.76427 1.31336,1.1464 2.09663,2.08505 3.30078,4.65556 3.7556,7.54607 0.13034,1.01968 -0.0767,1.98222 -0.3334,2.95793 0,0 -6.62359,3.11718 -6.62359,3.11718 v 0 c 0.34525,-0.87942 0.59773,-1.74139 0.5495,-2.70406 -0.28624,-2.75133 -1.37905,-5.20882 -3.36299,-7.17676 -0.40471,-0.35659 -0.77898,-0.75105 -1.21414,-1.06979 -2.67347,-1.95826 -6.032,-2.71388 -9.27766,-2.89792 -2.88328,0.12248 -5.71964,0.47791 -8.43272,1.5291 -0.63306,0.24527 -2.411444,1.23004 -1.85491,0.84121 1.31883,-0.92142 2.77211,-1.63361 4.15817,-2.45042 -0.56668,0.37699 -1.17454,0.69842 -1.70004,1.13096 -2.779823,2.28809 -4.048034,5.88903 -4.611957,9.32296 -0.06505,0.72408 -0.168801,1.44573 -0.195156,2.17226 -0.106844,2.94537 0.333347,6.07533 1.734614,8.68956 0.23608,0.25872 0.437809,0.55359 0.708239,0.77616 1.09253,0.89916 2.655,0.98424 3.99463,1.02512 2.83928,-0.27821 5.58556,-1.1061 8.31052,-1.91761 0.58313,-0.18784 1.17505,-0.35032 1.74939,-0.56352 0.58657,-0.21775 2.24177,-1.08819 1.73007,-0.72813 -1.45751,1.02556 -3.04627,1.85123 -4.59052,2.74085 -0.38854,0.22384 1.18004,-0.60732 1.92648,-1.46959 0.19408,-0.22419 0.31962,-0.49955 0.47943,-0.74933 0.35575,-1.23461 0.35113,-2.08778 -1.14063,-2.15339 -1.63884,0.0961 -3.25186,0.48487 -4.90067,0.4767 -3.5872,-0.0898 -7.12397,-0.96096 -10.362347,-2.51424 -1.181364,-0.7915 -1.818377,-1.03287 -2.603196,-2.22226 -1.056501,-1.60112 -0.755228,-3.47623 -0.116128,-5.15952 0.181627,-0.38383 0.326368,-0.7874 0.544881,-1.1515 0.697079,-1.16151 1.735222,-2.25851 2.89433,-2.95808 6.24017,-3.76617 5.39329,-3.29394 9.38377,-5.30446 3.41422,-1.66393 6.89493,-3.18559 10.26545,-4.93756 0,0 -5.85434,4.68292 -5.85434,4.68292 z"
       inkscape:connector-curvature="0" /><path
       style="opacity:0.98999999;fill:#c87137;fill-opacity:1;stroke:#000000;stroke-width:0.89999998;stroke-miterlimit:4;stroke-dasharray:none;stroke-opacity:0.61194033;paint-order:normal"
       id="path34998"
       d="m 252.89912,647.13318 c -2.00412,1.10396 -3.95243,2.31593 -6.01236,3.31188 -0.25498,0.12329 0.40015,-0.41177 0.53225,-0.6623 0.2055,-0.38975 0.34696,-0.81247 0.46865,-1.23594 0.55432,-1.92909 0.68544,-3.95248 0.86161,-5.93968 0.26339,-3.90951 0.22417,-7.82917 0.39296,-11.74274 0.14823,-2.73327 0.95186,-5.29357 2.438,-7.58111 0.66327,-0.82901 1.42004,-1.61591 2.34547,-2.15824 4.0492,-2.37291 5.6158,-3.74652 9.25234,-4.72347 3.27297,-0.78164 4.03358,1.79954 4.73774,4.41006 0.87355,3.65348 1.16941,7.41086 1.4364,11.14792 0.11329,1.46763 0.16436,2.93813 0.2038,4.40915 0,0 -6.51339,3.32437 -6.51339,3.32437 v 0 c 0.0191,-1.4915 0.0273,-2.98346 -0.004,-4.47488 -0.12448,-3.69925 -0.37406,-7.42282 -1.34529,-11.01122 -0.82599,-2.63505 -1.1878,-4.19421 -4.27747,-3.36334 -2.61346,0.82905 -5.94168,3.03271 3.26626,-2.3629 0.30923,-0.1812 -0.62213,0.35789 -0.91612,0.56288 -0.7135,0.49749 -0.90748,0.7403 -1.52391,1.34806 -1.64927,2.12717 -2.53706,4.61393 -2.78653,7.29686 -0.23761,3.93708 -0.25792,7.87947 -0.49644,11.81702 -0.1439,1.98851 -0.24366,3.99569 -0.57854,5.96449 -0.0755,0.44392 -0.16838,0.88562 -0.28648,1.32015 -0.0834,0.30682 -0.0538,0.72113 -0.31687,0.89968 -2.18167,1.48071 -4.56422,2.64133 -6.84633,3.962 0,0 5.96808,-4.5187 5.96808,-4.5187 z"
       inkscape:connector-curvature="0" /><path
       style="opacity:0.98999999;fill:#ffd42a;fill-opacity:1;stroke:#000000;stroke-width:0.89999998;stroke-miterlimit:4;stroke-dasharray:none;stroke-opacity:0.61194033;paint-order:normal"
       id="path35000"
       d="m 130.61969,675.89713 c -4.54363,0.98077 -9.04799,2.11553 -13.4903,3.4859 -1.74641,0.57283 -3.55275,1.11662 -5.24207,1.85409 -0.72959,0.31849 -2.81598,1.48221 -2.13598,1.06828 8.33684,-5.07485 3.87929,-2.24416 2.63172,-1.10351 -0.46725,0.42721 -0.86936,0.9206 -1.30404,1.3809 -2.27243,2.70753 -4.14983,5.78105 -5.10271,9.21129 -0.146,0.52556 -0.21823,1.06887 -0.32734,1.60331 0.0101,0.44752 -0.0744,0.90733 0.0303,1.34257 0.7117,2.96068 5.81325,3.38699 8.1367,3.74448 5.06594,0.60976 10.17621,0.33195 15.25666,0.10329 2.00732,-0.0842 4.51943,-0.47144 5.9959,1.27899 0.24467,0.29007 0.39594,0.6475 0.5939,0.97125 0.13377,0.40746 0.32624,0.80014 0.4013,1.22237 0.49215,2.76829 -1.02371,5.58321 -2.7331,7.63834 -0.75358,0.906 -1.62893,1.70337 -2.4434,2.55505 -5.48631,5.15116 -12.03051,9.3031 -19.07619,11.98396 -2.96576,1.12846 -4.37777,1.37385 -7.42059,2.11327 -4.01704,0.84996 -8.102115,1.36706 -12.206044,0.96612 -0.759133,-0.0742 -1.522168,-0.15247 -2.264881,-0.32614 -0.657561,-0.15376 -1.278748,-0.43465 -1.918122,-0.65197 -0.509972,-0.33038 -1.068094,-0.59625 -1.529915,-0.99115 -1.854781,-1.586 -2.652625,-4.26507 -2.580449,-6.63768 0.02014,-0.66212 0.17743,-1.3129 0.266146,-1.96936 0.522598,-1.59217 0.684174,-2.37641 1.562434,-3.84028 2.416209,-4.0273 6.982921,-5.98127 10.975505,-8.06042 0.793935,-0.41344 1.705175,-0.54539 2.557762,-0.81809 4.516244,-1.1208 9.167684,-1.41705 13.765554,-0.62615 0.70585,0.12141 1.39734,0.31514 2.09601,0.47271 1.45208,0.4444 3.00048,0.91208 4.05013,2.09353 1.00299,1.12893 1.24101,2.55342 1.52186,3.97457 0.34737,5.09487 -1.75808,8.02545 -4.93107,11.73111 -2.01005,2.06776 -4.31135,3.80203 -6.64249,5.48339 0,0 -6.56415,2.58775 -6.56415,2.58775 v 0 c 2.40897,-1.65809 4.79261,-3.35944 6.89365,-5.40796 3.03361,-3.37162 5.29894,-6.25733 4.94949,-11.02787 -0.72227,-3.51673 -1.53508,-4.32877 -5.00145,-5.47105 -0.66037,-0.15625 -1.31307,-0.34944 -1.9811,-0.46873 -4.51931,-0.80703 -9.105794,-0.42984 -13.505777,0.82777 -0.850148,0.32409 -3.178989,1.63007 -2.550443,0.97226 1.016678,-1.06402 2.425586,-1.71149 3.788133,-2.26757 0.696186,-0.28412 -1.215657,0.8961 -1.742428,1.43268 -1.054147,1.07377 -1.668859,2.16364 -2.272241,3.52177 -0.260508,0.58637 -0.448248,1.20243 -0.672373,1.80364 -0.108116,0.60801 -0.287307,1.2076 -0.32435,1.82404 -0.129204,2.15011 0.599161,4.61963 2.288354,6.04896 0.416749,0.35264 0.919829,0.58826 1.379744,0.88238 0.594456,0.19906 1.17374,0.45104 1.783368,0.59717 4.598883,1.10243 9.409203,0.23864 13.963883,-0.59381 3.05527,-0.75968 4.29199,-0.96348 7.26793,-2.13865 1.25396,-0.49518 2.39559,-1.27402 3.6856,-1.66581 0.6692,-0.20324 -2.32097,1.5487 -1.79232,1.0908 1.02622,-0.88885 2.19718,-1.59534 3.29577,-2.39301 0.93834,-0.84074 1.87668,-1.68147 2.81502,-2.5222 0.7564,-0.78997 1.56402,-1.5339 2.26921,-2.3699 1.52173,-1.80399 3.09069,-4.38124 2.64985,-6.86638 -0.0646,-0.36397 -0.24164,-0.69869 -0.36245,-1.04804 -0.1633,-0.25235 -0.288,-0.53437 -0.4899,-0.75705 -1.33771,-1.47543 -3.76464,-0.94875 -5.4916,-0.9998 -5.03961,0.0933 -10.09997,0.17391 -15.11974,-0.35452 -2.85721,-0.41245 -8.06557,-0.84942 -8.962332,-4.38541 -0.124592,-0.49128 -0.02132,-1.01344 -0.03199,-1.52015 0.11852,-0.57331 0.196067,-1.15664 0.35556,-1.71993 0.980862,-3.46412 2.778992,-6.63884 4.981822,-9.46168 0.42217,-0.49404 0.80569,-1.02393 1.26652,-1.48213 0.46759,-0.46493 0.95114,-0.92786 1.5097,-1.2783 5.03367,-3.15811 9.35646,-5.73545 14.99749,-7.22195 2.99126,-0.90043 5.99754,-1.72355 9.01638,-2.5267 1.3964,-0.3715 2.78295,-0.7827 4.19018,-1.11079 0.35614,-0.083 0.72091,-0.12327 1.08137,-0.1849 0,0 -6.05753,4.40105 -6.05753,4.40105 z"
       inkscape:connector-curvature="0" /><path
       style="opacity:0.98999999;fill:#88aa00;fill-opacity:1;stroke:#000000;stroke-width:0.89999998;stroke-miterlimit:4;stroke-dasharray:none;stroke-opacity:0.61194033;paint-order:normal"
       id="path35002"
       d="m 83.719858,703.68034 c -0.947753,2.87436 -1.553404,5.8405 -2.027677,8.82478 -0.11556,1.74559 -0.855418,4.76864 -0.07277,6.42371 0.08488,0.17948 0.257023,0.30269 0.385535,0.45403 0.138129,-0.0171 0.302825,0.0318 0.414386,-0.0514 0.176217,-0.13147 0.576734,-0.63528 0.378536,-0.54013 -1.895102,0.90984 -3.611953,2.17486 -5.538005,3.0172 -0.3791,0.1658 0.561506,-0.61058 0.803165,-0.94645 0.455884,-0.63361 1.297137,-2.15278 1.6601,-2.78852 0.86237,-1.48891 1.679261,-3.00578 2.588812,-4.46714 0.186308,-0.29933 1.009369,-1.6534 1.421835,-1.89668 2.286818,-1.34883 4.679017,-2.51043 7.018526,-3.76565 1.668704,1.17744 2.279529,3.04204 2.918088,4.89021 0.622883,1.8028 0.473986,1.37474 0.987229,3.19449 0.437366,1.27055 0.887438,3.78264 2.41852,4.29744 0.938361,0.31551 1.51675,-0.29263 2.275718,-0.72323 -1.466618,0.75549 -2.785967,1.92427 -4.399854,2.26648 -0.843296,0.17881 1.299541,-1.13456 1.913832,-1.73935 2.138933,-2.10584 3.905206,-4.53741 6.066126,-6.61833 2.40083,-1.30206 4.62951,-2.99014 7.20249,-3.90618 0.47989,-0.17085 0.88021,0.53542 1.2329,0.90298 0.75646,0.78835 1.53398,2.38602 2.01907,3.2944 1.76541,3.30592 0.27648,0.58888 2.07021,3.82677 1.01475,1.57414 2.46557,4.72302 4.48558,5.25743 0.29978,0.0793 0.61849,0.0458 0.92774,0.0687 1.2388,-0.20537 0.63097,-0.0332 1.82045,-0.52729 0,0 -5.75306,4.46137 -5.75306,4.46137 v 0 c -1.34478,0.3252 -0.66755,0.24618 -2.03083,0.24425 -0.3503,-0.0914 -0.71861,-0.13038 -1.0509,-0.27405 -2.19165,-0.94755 -3.24934,-3.90489 -4.419,-5.77057 -1.00761,-1.83657 -1.92943,-3.7949 -3.14537,-5.50728 -0.29228,-0.4116 -0.58671,-0.83733 -0.9779,-1.1564 -0.25274,-0.20615 -1.14991,-0.16472 -0.90272,-0.3775 1.51351,-1.30279 3.37511,-2.13552 5.06266,-3.20328 -0.46023,0.38315 -0.95374,0.72955 -1.3807,1.14947 -0.41587,0.40901 -2.85571,3.2566 -3.15573,3.59558 -3.82397,4.3205 -4.87827,5.10187 -11.169816,8.41979 -0.541052,0.16409 -1.058708,0.45966 -1.623154,0.49228 -2.429458,0.1404 -3.225552,-3.39352 -3.719404,-5.08344 -0.520951,-1.93712 -1.320626,-5.46333 -2.935069,-6.77033 -0.167965,-0.13598 -0.397399,-0.16995 -0.596099,-0.25492 14.567991,-9.04644 5.809331,-3.95031 4.728257,-2.76705 -1.44452,1.58105 -2.299358,3.7733 -3.441592,5.55915 -0.307551,0.57078 -1.709221,3.5041 -2.185416,3.84126 -2.237198,1.58401 -4.578176,3.02146 -6.94811,4.39898 -0.598678,0.34798 -0.925237,-0.0222 -1.382734,-0.29928 -0.152028,-0.241 -0.348628,-0.45909 -0.456086,-0.72299 -0.810986,-1.99169 -0.0051,-4.75346 0.157484,-6.79802 0.451763,-2.90256 1.030248,-5.78351 1.619106,-8.65908 0,0 6.735641,-3.26615 6.735641,-3.26615 z"
       inkscape:connector-curvature="0" /><path
       style="opacity:0.98999999;fill:#66ff00;fill-opacity:1;stroke:#000000;stroke-width:0.89999998;stroke-miterlimit:4;stroke-dasharray:none;stroke-opacity:0.61194033;paint-order:normal"
       id="path35004"
       d="m 222.20411,640.71292 c 1.09496,3.16555 2.81034,6.01524 4.74169,8.73105 1.06467,1.29595 2.21837,2.54787 3.60157,3.51359 0.32124,0.22428 0.63957,0.47228 1.00895,0.60289 0.29157,0.10309 1.18484,-0.0859 0.92428,0.0807 -1.68464,1.07717 -3.55747,1.8269 -5.3362,2.74036 0.41628,-0.48343 0.89068,-0.92236 1.24885,-1.45029 2.38491,-3.5152 3.39948,-8.07741 4.205,-12.18395 0.6271,-2.63835 0.41736,-5.37788 0.84369,-8.03251 0.32066,-0.9746 0.28846,-1.18006 0.96047,-1.99174 1.80048,-2.17468 9.23977,-5.73722 9.68696,-5.98659 1.80468,-0.48041 3.54592,-6.6e-4 4.89449,1.30961 0.35207,0.34207 0.63126,0.75191 0.9469,1.12787 1.95435,3.10999 2.4813,6.81722 2.55617,10.42471 -0.0763,2.68519 -0.63115,5.45939 -2.56403,7.45717 -0.31677,0.3274 -0.69197,0.59271 -1.03795,0.88906 -3.31616,2.25232 -1.56481,1.10181 -8.41781,4.99294 -1.24674,0.70789 -2.54549,1.21359 -3.96381,1.38149 -1.26864,-0.0664 -0.64337,0.0117 -1.87615,-0.23126 0,0 5.9826,-4.20736 5.9826,-4.20736 v 0 c 1.14035,0.12534 0.56339,0.11018 1.73102,0.0397 0.93779,-0.22479 1.78017,-0.52672 2.65045,-0.95072 0.35841,-0.17462 1.40279,-0.75749 1.06071,-0.55271 -9.93475,5.94733 -5.54779,3.24985 -3.83404,2.19063 0.36773,-0.25551 0.76343,-0.47486 1.10319,-0.76654 2.06575,-1.77343 2.78379,-4.41838 2.91051,-7.04333 -0.0313,-3.4369 -0.47295,-6.99658 -2.43289,-9.91476 -0.30335,-0.31918 -0.57367,-0.67339 -0.91006,-0.95755 -1.32047,-1.11544 -2.9413,-1.27936 -4.51067,-0.65472 1.79016,-1.05858 3.58587,-2.10783 5.37048,-3.17574 0.29347,-0.17561 -0.60537,0.31945 -0.89667,0.49863 -0.83715,0.51494 -1.92138,1.16818 -2.47692,2.00949 -0.18729,0.28363 -0.26922,0.62419 -0.40383,0.93628 -0.25026,1.14856 -0.24759,2.10589 -0.36843,3.26589 -0.1727,1.6578 -0.44718,3.30502 -0.79022,4.93561 -1.07448,4.83804 -2.29455,9.77306 -4.93631,14.0255 -2.45919,1.34367 -4.81247,2.90263 -7.37759,4.03103 -0.32815,0.14435 -0.70321,-0.17145 -1.0216,-0.33622 -1.8871,-0.97652 -3.13869,-2.96582 -4.51035,-4.48965 -1.9165,-2.70084 -3.64168,-5.51616 -5.20147,-8.43732 0,0 6.43902,-3.82123 6.43902,-3.82123 z"
       inkscape:connector-curvature="0" /><path
       style="opacity:0.98999999;fill:#3e4837;fill-opacity:1;stroke:#000000;stroke-width:0.89999998;stroke-miterlimit:4;stroke-dasharray:none;stroke-opacity:0.61194033;paint-order:normal"
       id="path35006"
       d="m 132.08168,681.44776 c -0.71452,1.5e-4 -1.45401,-0.14273 -2.14948,0.11189 -0.30688,0.11235 -1.14275,0.63458 -0.85407,0.48141 5.74058,-3.04577 6.54607,-4.5695 4.62605,-1.7884 -0.15804,0.49875 -0.39211,0.97953 -0.47413,1.49625 -0.56651,3.56877 1.62251,6.48018 3.77714,9.01834 3.00202,3.08698 5.93082,3.65076 10.07682,3.91984 0.85287,0.0391 2.36155,0.0363 3.21869,0.33292 1.20233,0.41607 2.25692,1.43079 2.52891,2.69466 0.0903,0.41947 0.0356,0.85741 0.0535,1.28611 -0.34754,1.23691 -0.40165,1.72447 -1.05152,2.85184 -0.50536,0.87668 -1.27445,1.86531 -2.145,2.41349 -6.26851,3.94725 -5.27696,3.43407 -9.31183,5.18004 -2.72482,1.08941 -5.62744,1.63229 -8.49691,2.19311 0,0 5.70682,-4.31451 5.70682,-4.31451 v 0 c 2.81083,-0.53317 5.64771,-1.06455 8.27776,-2.23671 1.165,-0.56029 8.17664,-3.99482 -2.76046,1.83028 -0.46866,0.24961 0.89377,-0.58422 1.2787,-0.94997 0.75075,-0.71334 1.20153,-1.51697 1.6134,-2.45104 0.1759,-0.39892 0.29615,-0.82013 0.44423,-1.2302 0.0154,-0.34796 0.0912,-0.6985 0.0462,-1.04388 -0.30696,-2.35538 -3.35841,-2.37741 -5.10831,-2.48133 -4.42734,-0.43639 -7.22074,-0.99034 -10.32648,-4.4183 -2.2403,-2.72826 -4.47418,-5.78859 -4.22765,-9.52995 0.0366,-0.55593 0.21783,-1.09278 0.32675,-1.63918 0.19924,-0.42596 0.2198,-0.99806 0.59774,-1.2779 2.21941,-1.6433 4.65312,-2.97808 7.0358,-4.37416 0.30396,-0.1781 0.65812,-0.25993 1.00221,-0.33551 0.7661,-0.16826 1.56367,-0.0707 2.33836,-0.12977 0,0 -6.04318,4.39063 -6.04318,4.39063 z"
       inkscape:connector-curvature="0" /><path
       style="opacity:0.98999999;fill:#00ff66;fill-opacity:1;stroke:#000000;stroke-width:0.89999998;stroke-miterlimit:4;stroke-dasharray:none;stroke-opacity:0.61194033;paint-order:normal"
       id="path35008"
       d="m 223.64194,628.90924 c 1.45242,-3.70637 3.50251,-7.17169 5.58499,-10.55521 1.75168,-2.68075 3.37184,-5.56665 5.71168,-7.8019 0.36503,-0.34871 0.77086,-0.65202 1.15629,-0.97803 2.99134,-2.04598 6.21919,-3.86074 9.42609,-5.48202 0.2995,-0.15141 0.67203,-0.172 1.00115,-0.10638 0.84768,0.16899 1.12847,0.79279 1.60302,1.40945 1.13642,2.32286 1.42351,4.92647 2.40297,7.31064 0.95125,1.5092 2.62457,1.65542 4.25179,1.7838 0.32059,-0.0138 0.64651,0.0184 0.96176,-0.0414 0.31492,-0.0598 0.60601,-0.20912 0.90902,-0.31368 -1.77107,0.96657 -3.48102,2.05471 -5.31321,2.89969 -0.43382,0.20007 0.75073,-0.59669 1.07675,-0.94589 0.85857,-0.91962 1.18846,-1.61346 1.82931,-2.69347 1.20457,-2.1222 1.78986,-4.49094 2.62899,-6.75827 0.25698,-0.51619 0.51937,-1.15119 1.05417,-1.45624 4.76362,-2.71718 4.70008,-3.6918 8.03759,-3.90604 0.56355,-0.007 0.81921,-0.0818 1.35062,0.25934 1.38231,0.8873 2.04816,2.79048 2.75577,4.18018 0.50673,1.1193 0.99866,2.24459 1.47392,3.37753 0,0 -6.33608,3.53565 -6.33608,3.53565 v 0 c -0.42297,-1.13284 -0.87046,-2.2551 -1.36841,-3.35764 -0.55605,-1.07956 -1.34716,-3.08151 -2.59044,-3.55045 -0.36752,-0.13862 -0.86153,-0.0522 -1.23342,-0.0182 -2.73403,0.46379 -4.35907,2.38154 4.82953,-3.19132 0.15347,-0.0931 -0.35112,0.0926 -0.50681,0.18186 -0.39637,0.22737 -0.53856,0.51578 -0.80136,0.87906 -1.07769,2.24977 -1.58423,4.7522 -2.82945,6.93752 -0.54839,1.02978 -0.96485,1.91821 -1.67647,2.84731 -2.33687,3.05103 -6.30156,5.52039 -10.19871,5.36845 -1.90729,-0.21525 -3.67755,-0.66406 -4.66466,-2.47848 -0.83941,-2.34655 -1.10934,-4.88067 -2.28571,-7.09916 -0.40319,-0.42673 -0.5446,-0.79343 -1.19085,-0.763 -0.2874,0.0135 -1.07407,0.38243 -0.83335,0.22484 9.72504,-6.36605 5.15379,-2.85968 2.85772,-1.68849 -0.40163,0.2997 -0.82534,0.57188 -1.2049,0.89909 -2.49229,2.14854 -4.21672,5.07101 -6.01956,7.77199 -2.01052,3.17974 -4.00287,6.51567 -5.12282,10.12389 0,0 -6.72692,3.19497 -6.72692,3.19497 z"
       inkscape:connector-curvature="0" /><path
       style="opacity:0.98999999;fill:#00ff66;fill-opacity:1;stroke:#000000;stroke-width:0.89999998;stroke-miterlimit:4;stroke-dasharray:none;stroke-opacity:0.61194033;paint-order:normal"
       id="path35010"
       d="m 264.46491,634.48088 c -2.99595,-0.19539 -6.00151,0.13161 -8.97463,0.47927 -1.56885,0.20691 -3.1665,0.35124 -4.65171,0.9408 -0.38351,0.15224 -1.47227,0.74473 -1.11315,0.54153 5.81014,-3.28755 6.50354,-4.09696 4.10706,-1.85317 -1.78887,2.14402 -3.07891,4.6183 -3.95151,7.25867 -0.45988,2.20478 0.57519,2.91331 2.40861,3.74032 0.83996,0.43206 2.52371,0.63667 2.72679,1.80287 0.16166,0.92831 -0.30251,1.27836 -0.78497,2.01406 -0.44072,0.3736 -0.85172,0.78541 -1.32217,1.1208 -0.5856,0.41749 -1.20863,0.78173 -1.83704,1.13147 -2.69413,1.49943 -5.38963,2.99836 -8.1283,4.4148 -2.09286,1.08242 -4.75404,1.9713 -6.98176,2.79873 -3.07069,0.99241 -6.19773,1.80522 -9.38186,2.33314 -2.09943,0.31303 -4.18612,0.68584 -6.29978,0.89117 -1.15762,-0.0198 -2.42529,0.35495 -3.57131,0.0533 -0.23117,-0.0609 -0.4425,-0.18098 -0.66375,-0.27147 -0.20086,-0.21132 -0.43438,-0.39582 -0.60259,-0.63396 -0.72162,-1.02157 -0.97825,-2.37672 -1.30222,-3.5554 -0.46997,-1.7098 -0.42051,-1.56818 -0.84128,-3.32198 -1.02239,-3.45362 -1.35345,-7.01715 -1.50031,-10.5976 -0.0677,-3.86148 -0.15043,-7.72247 -0.24745,-11.58339 -0.12416,-1.6543 0.0966,-3.33935 -0.24844,-4.97035 -0.15245,-0.34763 -0.21774,-0.6045 -0.51935,-0.86195 -0.72452,-0.6184 -1.95363,-1.05596 -2.83751,-1.37235 -0.64042,-0.17967 -1.37652,-0.46153 -2.04924,-0.2231 -0.13886,0.0492 -0.50089,0.31008 -0.37216,0.23842 6.09162,-3.39109 7.84417,-4.86054 5.57213,-3.01278 -1.08767,1.1851 -1.58757,2.70085 -1.91618,4.242 -0.38207,2.15319 -0.11798,4.34232 0.12697,6.49453 0.7581,3.72836 1.89772,7.36729 3.34434,10.88274 0.99532,2.11617 1.69803,4.35433 2.64926,6.48748 0.42894,0.93236 1.03115,1.74153 1.73007,2.48382 0,0 -6.28011,3.8094 -6.28011,3.8094 v 0 c -0.73095,-0.82318 -1.40533,-1.68014 -1.83224,-2.70778 -0.90244,-2.17544 -1.51604,-4.46024 -2.42388,-6.63531 -1.39032,-3.59064 -2.52316,-7.2742 -3.48069,-11.00356 -0.35732,-2.17528 -0.7505,-4.38965 -0.44676,-6.59588 0.27004,-1.62472 0.78265,-3.21813 1.70925,-4.59512 2.49378,-3.67296 6.08491,-5.31088 9.73342,-3.94392 1.48604,0.59214 3.21977,1.1803 3.79702,2.81772 0.39733,1.71175 0.13629,3.46924 0.13217,5.21096 -0.0938,3.8793 -0.15614,7.76247 0.0581,11.63941 0.22162,3.51788 0.55561,7.03189 1.51874,10.43849 0.37299,1.49463 1.21239,5.20227 2.19434,6.36782 0.12161,0.14436 0.29643,0.23377 0.44464,0.35065 1.31488,0.30209 2.67435,0.0763 4.00745,0.006 2.0672,-0.20608 4.11465,-0.55277 6.16823,-0.86183 3.06744,-0.57133 6.11805,-1.23642 9.07337,-2.25613 1.93074,-0.70922 2.50282,-0.8939 4.45825,-1.72504 0.824,-0.35023 3.09136,-1.72094 2.45396,-1.09216 -1.05058,1.03637 -2.52523,1.53075 -3.74322,2.36397 -0.97776,0.66889 3.63805,-2.08395 3.00332,-1.90023 0.0472,-0.0502 0.93702,-0.906 0.99985,-1.21122 0.12441,-0.6043 -2.00743,-1.23525 -2.38196,-1.44127 -2.16972,-1.12331 -3.20507,-2.0532 -2.89537,-4.671 0.92239,-2.71997 2.26265,-5.25268 3.92248,-7.59862 2.73147,-3.09595 0.9235,-1.26632 8.16062,-5.3732 0.59851,-0.33964 1.78443,-0.63218 2.43663,-0.75619 0.89314,-0.16981 2.41123,-0.32341 3.2822,-0.42244 3.13245,-0.33371 6.26964,-0.64187 9.4211,-0.70749 0,0 -6.05752,4.40105 -6.05752,4.40105 z"
       inkscape:connector-curvature="0" /><path
       style="opacity:0.98999999;fill:#6f917c;fill-opacity:1;stroke:#000000;stroke-width:0.89999998;stroke-miterlimit:4;stroke-dasharray:none;stroke-opacity:0.61194033;paint-order:normal"
       id="path35012"
       d="m 143.72219,668.67348 c -0.21968,-1.28988 -0.16466,-2.62288 -0.42131,-3.90332 -2.39163,-0.44944 -0.74937,-0.11802 6.19184,-3.03991 0.27362,-0.11518 -0.44392,0.39833 -0.62921,0.63028 -0.93439,1.16965 -1.62638,2.58348 -2.35149,3.88293 -1.57213,3.51378 -3.72627,6.66197 -6.08956,9.67783 -1.6693,1.93669 -3.09079,4.05321 -4.28251,6.31099 -0.63187,1.22913 -0.83582,2.5749 -0.91796,3.93612 -0.0898,2.02877 1.3481,3.43851 2.91012,4.49861 1.7023,1.00008 3.54558,1.71787 5.21545,2.77311 1.21721,0.877 1.84649,2.29512 1.64943,3.80087 -0.0493,0.37668 -0.18031,0.73809 -0.27046,1.10713 -1.01647,2.55394 -2.98672,4.38808 -5.35997,5.703 -2.63857,1.46191 -5.31101,2.86184 -7.96652,4.29276 -0.80977,0.23689 -1.60897,0.51346 -2.4293,0.71067 -3.33985,0.80288 -6.78848,1.2546 -10.17988,1.76597 -5.92416,0.89328 -2.09894,0.32884 -7.94122,1.17937 -3.71327,0.49176 -7.41919,1.2395 -11.184289,1.02438 -0.58381,-0.0334 -1.173538,-0.0602 -1.744193,-0.18791 -0.51031,-0.11418 -0.983768,-0.35498 -1.475652,-0.53247 -2.396154,-1.46425 -3.215396,-3.47382 -3.484269,-6.15555 -0.02068,-2.36251 0.59868,-4.63423 1.379632,-6.84115 0.648587,-1.48394 1.269685,-3.02891 2.278584,-4.31649 0.589723,-0.75262 0.86163,-0.92138 1.583874,-1.5357 3.240793,-2.12641 6.470873,-4.60022 10.331503,-5.32906 0.72074,-0.13607 1.54578,-0.21154 2.27502,-0.29066 1.24139,-0.0696 2.57799,-0.30457 3.79541,0.0969 0.74786,0.2466 1.04304,0.55595 1.65638,1.02594 1.20256,1.1473 2.07335,2.57658 2.80319,4.05598 0,0 -6.35979,3.61085 -6.35979,3.61085 v 0 c -0.65824,-1.38393 -1.42788,-2.73821 -2.60956,-3.74669 -0.23576,-0.15477 -0.45503,-0.33818 -0.70728,-0.4643 -1.34621,-0.67308 -2.96547,-0.31803 -4.39323,-0.24699 -1.11204,0.14629 -2.20477,0.30586 -3.26881,0.68016 -0.34816,0.12247 -1.33603,0.61817 -1.02408,0.42095 1.45758,-0.92149 7.74137,-4.51953 4.23767,-2.51053 -0.63558,0.46221 -1.12811,0.77283 -1.6666,1.35386 -1.09494,1.18143 -1.7248,2.69202 -2.37416,4.13918 -0.80006,2.11336 -1.435291,4.27355 -1.498959,6.55196 0.132818,2.28379 0.848649,4.32842 2.957659,5.49925 0.44618,0.14639 0.87955,0.33999 1.33854,0.43916 3.90619,0.844 8.39975,-0.26219 12.29326,-0.58854 4.25337,-0.60234 3.62384,-0.4913 7.94529,-1.1942 3.48169,-0.56631 7.02741,-1.11493 10.42819,-2.08022 0.84037,-0.23854 1.65347,-0.56437 2.4802,-0.84656 -1.34309,0.8496 -2.70947,1.66347 -4.02928,2.54881 -0.51295,0.34409 1.08787,-0.58803 1.60647,-0.92357 1.62258,-1.04981 2.93115,-2.42788 3.74585,-4.1912 0.57942,-1.75625 0.55729,-2.87002 -0.97714,-4.06325 -1.66728,-1.06694 -3.53718,-1.75063 -5.1962,-2.83524 -1.6593,-1.25878 -3.25208,-2.88087 -3.36885,-5.07851 0.0599,-1.46306 0.22324,-2.90978 0.84806,-4.25741 1.24085,-2.34614 2.72391,-4.55909 4.49027,-6.54548 2.3669,-2.96527 4.63947,-6.00845 6.09602,-9.54715 0.98936,-1.88994 6.48336,-13.51027 9.78845,-7.84614 0.19005,1.26615 0.1568,2.56412 0.4752,3.81217 0,0 -6.59983,3.56905 -6.59983,3.56905 z"
       inkscape:connector-curvature="0" /><path
       style="opacity:0.98999999;fill:#00ccff;fill-opacity:1;stroke:#000000;stroke-width:0.89999998;stroke-miterlimit:4;stroke-dasharray:none;stroke-opacity:0.61194033;paint-order:normal"
       id="path35014"
       d="m 204.90242,679.04068 c 1.78183,-3.34498 3.59145,-6.66597 5.62489,-9.86814 2.50389,-3.70733 5.04426,-7.37948 7.22493,-11.28918 2.39426,-4.58048 4.97928,-9.04767 7.60873,-13.49552 2.00725,-3.50052 4.44318,-6.7309 6.94482,-9.88846 2.02905,-2.53638 4.30201,-4.85319 6.731,-7.00382 2.92729,-2.63639 21.36878,-12.80539 7.45665,-4.87079 0.59869,-0.41058 0.61192,-0.38945 1.08229,-0.79915 0.0619,-0.0539 0.11394,-0.1187 0.17696,-0.17133 0.017,-0.0142 0.0819,-0.0208 0.0607,-0.0271 -0.14564,-0.0433 -0.3024,-0.0373 -0.44955,-0.0752 -1.93051,-0.46103 -3.79688,-1.11856 -5.73745,-1.54489 -3.39157,-0.61653 -6.84786,-0.71825 -10.28607,-0.77361 -1.36784,-0.006 -2.77385,-0.0915 -4.10274,0.3156 -0.35361,0.10833 -0.68152,0.28747 -1.02227,0.43121 1.73477,-0.97671 3.43352,-2.02035 5.2043,-2.93012 0.41498,-0.2132 -0.74941,0.5559 -1.12412,0.83385 -3.16181,2.78301 -5.71399,6.16239 -8.10785,9.60522 -1.75505,2.56939 -2.67673,5.46463 -3.07034,8.52002 -0.23273,1.53902 0.0327,2.99057 1.42446,3.83537 1.52271,0.70929 2.97032,0.27012 4.50607,-0.15572 0.57854,-0.14792 1.162,-0.27777 1.73562,-0.44374 0.68423,-0.19797 1.35758,-0.43176 2.03637,-0.64765 0.77223,-0.23752 1.53998,-0.49013 2.31669,-0.71256 2.62123,-0.75066 5.29424,-1.30477 7.94699,-1.92954 3.40006,-0.78116 1.75209,-0.40923 4.94336,-1.11812 0,0 -5.49163,4.16963 -5.49163,4.16963 v 0 c -3.09016,0.63558 -1.48661,0.29265 -4.80932,1.03501 -2.68005,0.64047 -5.36933,1.24361 -8.00926,2.03885 -1.51238,0.45559 -3.00044,0.98936 -4.51237,1.44644 -0.60981,0.18435 -1.22633,0.3457 -1.83949,0.51856 -1.71112,0.42901 -3.49971,0.81991 -5.06813,-0.23234 -1.43731,-1.16224 -1.98978,-2.7801 -1.65788,-4.611 0.44194,-3.19169 1.3502,-6.23625 3.1713,-8.94134 2.40535,-3.38979 4.85731,-6.78279 7.83455,-9.70113 2.66945,-2.38821 5.81548,-4.63463 9.36286,-5.34882 1.34137,-0.27005 2.71556,-0.14625 4.07015,-0.12386 3.48192,0.12141 6.98349,0.20619 10.41909,0.8407 2.03772,0.42364 4.04523,0.98631 6.06253,1.48959 1.70619,0.91436 0.96385,1.75198 -0.32253,2.59899 -2.38823,1.38984 -4.77165,2.788 -7.16471,4.16953 -1.6345,0.94361 3.25319,-1.91447 4.88902,-2.85576 0.43382,-0.24963 -0.85975,0.51296 -1.28269,0.78061 -0.27552,0.17436 -2.50817,1.64705 -2.77251,1.82612 -0.42176,0.28571 -0.83677,0.58123 -1.25516,0.87185 -2.47651,2.12417 -4.80636,4.40842 -6.88704,6.9272 -2.51208,3.18043 -5.06134,6.35278 -7.1082,9.86282 -2.69618,4.40469 -5.31988,8.84399 -7.6265,13.46893 -2.08874,3.9842 -4.64044,7.66794 -7.22298,11.34569 -1.3024,1.9935 -2.52777,4.00371 -3.58421,6.14147 -1.04805,2.1208 -0.43357,0.99785 -1.19607,2.79968 -0.0862,0.20377 -0.19528,0.39711 -0.29293,0.59567 0,0 -6.83032,3.09025 -6.83032,3.09025 z"
       inkscape:connector-curvature="0" /><path
       style="opacity:0.98999999;fill:#6f8a91;fill-opacity:1;stroke:#000000;stroke-width:0.89999998;stroke-miterlimit:4;stroke-dasharray:none;stroke-opacity:0.61194033;paint-order:normal"
       id="path35016"
       d="m 140.74004,688.5379 c 0.10817,-2.14959 0.17869,-4.30452 -0.10006,-6.44227 -0.21599,-0.56532 -0.33283,-1.06752 -0.77388,-1.51025 -0.90268,-0.90613 -2.46096,-0.98447 -3.6351,-1.13283 -4.15274,-0.44859 -7.33671,0.90355 -10.92745,2.80716 1.25817,-0.71555 2.46602,-1.52788 3.77449,-2.14666 0.77396,-0.36601 -1.44324,0.9214 -2.1632,1.38468 -0.73933,0.47575 -1.47954,0.95018 -2.21468,1.43237 -1.83598,1.20429 -3.62765,2.43087 -5.36018,3.7787 -0.91058,0.83048 -3.02387,2.70236 -2.1948,4.20536 0.10511,0.19055 0.28472,0.32921 0.42707,0.49381 1.75367,1.52046 4.26808,1.64769 6.47572,1.95389 2.12535,0.44396 5.0734,0.45171 6.77029,2.00285 0.37342,0.34134 0.63725,0.78596 0.95588,1.17895 0.24771,0.49007 0.54383,0.95854 0.74313,1.47023 1.27156,3.26474 1.30168,7.21016 1.37226,10.6637 -0.31753,4.40572 -1.48895,8.61616 -4.93727,11.64429 -0.79954,0.70211 -1.73559,1.23153 -2.60338,1.84729 -2.90517,1.55635 -5.72242,3.28933 -8.71551,4.66904 -1.11407,0.51355 -2.35104,0.70768 -3.54642,0.98327 -3.80916,0.87821 -7.77199,1.29091 -11.68164,1.10292 -1.2866,-0.0619 -2.562497,-0.26504 -3.843743,-0.39757 -3.784865,-0.75792 -8.02219,-0.96821 -11.370073,-3.13053 -1.276006,-0.82414 -1.679007,-1.4904 -2.609918,-2.62866 -1.172331,-1.9633 -2.39693,-4.95491 -2.15347,-7.3038 0.04798,-0.46293 0.224697,-0.90329 0.337046,-1.35494 0.278501,-0.44687 0.506764,-0.92929 0.835503,-1.34061 2.873081,-3.59482 10.504525,-7.50663 13.789836,-9.40747 1.386219,-0.71361 2.725389,-1.57733 4.228099,-2.04099 1.61016,-0.49681 3.31774,-0.58671 4.98356,-0.72733 1.9853,-0.0404 5.22823,-0.64905 6.86617,0.87394 0.30004,0.27898 0.48528,0.66024 0.72792,0.99036 0.94768,2.34822 1.32203,5.00735 0.97375,7.52897 -0.0722,0.52308 -0.21128,1.03473 -0.31693,1.5521 -0.54786,1.35578 -0.63611,1.84768 -1.57005,3.0226 -0.63995,0.80508 -1.90364,1.95746 -2.78401,2.48975 -7.07734,4.2791 -5.14396,3.45602 -9.42266,5.03388 -2.433128,0.79527 -4.897916,1.40707 -7.443436,1.67225 -1.81162,0.26507 -3.473239,-0.46882 -5.175757,-0.95661 -0.617659,-0.0537 -1.377245,-0.47832 -2.008952,-0.35596 -0.316841,0.0614 -1.16903,0.54514 -0.886715,0.38877 5.922956,-3.28079 6.258802,-3.76034 3.466944,-1.35785 -2.373547,2.4823 -4.888426,5.0542 -6.392042,8.19181 -0.212194,0.44279 -0.36115,0.9132 -0.541725,1.36979 -0.525287,1.95959 -0.463302,3.2758 0.766868,4.89117 0.742937,0.75698 1.904127,1.15255 2.517186,2.04895 0.135439,0.19804 0.210222,0.43134 0.315333,0.64701 0.466714,2.43667 -0.294356,4.95953 -1.070369,7.25833 -0.625972,1.62676 -1.200626,3.35434 -2.330239,4.71298 -0.493221,0.52305 -1.586247,0.80778 -1.720885,1.6129 0.620361,0.56847 1.617877,0.54363 2.40987,0.60226 0.87638,0.002 1.704194,-0.26144 2.476914,-0.66607 0.349515,-0.18302 1.358229,-0.80304 1.012346,-0.61324 -5.136428,2.81848 -6.663937,4.0331 -3.90144,1.97471 2.266202,-1.69348 4.134941,-3.78508 5.858932,-6.00836 1.392343,-1.86513 2.903123,-3.64631 4.205108,-5.57706 0.832831,-1.27403 1.433442,-2.66464 2.467658,-3.79252 2.489488,-2.02537 5.575031,-3.47845 8.311511,-4.93919 0.33781,-0.18032 1.32288,-0.27672 1.67694,-0.25707 0.31941,0.0177 0.63089,0.10642 0.94634,0.15962 2.04988,0.70261 3.74401,2.09515 5.74377,2.91114 0.54791,0.11184 1.16931,0.32552 1.73839,0.11201 0.32963,-0.12368 1.20004,-0.73297 0.88352,-0.57879 -1.69033,0.82339 -3.21608,2.03003 -5.01114,2.58942 -0.6357,0.1981 0.92074,-0.96227 1.36915,-1.45449 0.53345,-0.58555 1.05073,-1.18564 1.57609,-1.77846 2.40068,-2.87422 4.88232,-5.67125 7.68882,-8.15561 3.74063,-3.30789 8.18182,-5.63665 12.56976,-7.97374 1.97576,-1.06385 3.3881,-1.55987 5.63181,-1.35539 1.65131,0.11828 3.02951,1.22822 4.61524,1.54595 0.26631,0.0534 0.54213,0.034 0.8132,0.051 1.97818,-0.54531 8.46252,-3.70665 -4.21279,2.57494 -0.24675,0.12228 0.39412,-0.38676 0.56536,-0.60243 0.35195,-0.44329 0.65816,-1.02562 0.93595,-1.5127 0.65924,-1.39641 1.13543,-2.85241 1.92546,-4.18549 0.62884,-1.23673 1.87073,-1.88053 2.80689,-2.8221 0.0178,-0.0967 0.0829,-0.19638 0.0533,-0.29018 -0.17793,-0.5642 -1.68222,-1.50756 -2.03009,-1.76623 -2.29976,-1.7101 -1.05266,-0.74276 -3.6438,-2.86606 -4.72381,-3.88441 -9.40717,-7.80567 -14.33479,-11.4308 -1.19048,-0.76993 -2.29514,-1.89658 -3.68334,-2.34035 -1.35389,-0.43281 -2.93215,-0.25922 -4.31527,-0.19241 -4.02408,0.25993 -8.00881,0.99037 -11.91445,1.97724 -0.57302,0.17752 -1.1513,0.33891 -1.71908,0.53256 -0.91709,0.31279 -2.142,0.79694 -3.01104,1.23943 -0.47798,0.24337 -1.866288,1.05831 -1.397738,0.79724 4.987578,-2.77901 6.043658,-3.63243 3.121768,-1.51087 -2.40401,1.7109 -3.984977,4.17244 -5.772718,6.45004 -2.110297,2.35158 -4.84309,3.24826 -7.927601,4.70199 -0.47049,0.22175 -1.86275,-0.98303 -2.113077,-1.19422 -1.86883,-1.71212 -3.515066,-3.63766 -5.459177,-5.26863 -0.738789,-0.57223 -1.51626,-1.06341 -2.34232,-1.49486 0,0 6.138001,-3.9957 6.138001,-3.9957 v 0 c 0.825097,0.49664 1.614407,1.03315 2.336836,1.67542 1.862471,1.69206 3.536637,3.58272 5.484904,5.18016 0.516346,0.32087 0.767903,0.57755 1.361992,0.64129 0.163418,0.0175 0.62957,-0.13558 0.490766,-0.0476 -1.921248,1.21821 -3.931611,2.29018 -5.879894,3.46467 -0.185542,0.11185 0.409572,-0.15346 0.58887,-0.27507 0.22566,-0.15305 0.409229,-0.36044 0.613843,-0.54067 1.989387,-2.22437 3.500757,-4.87341 5.932119,-6.69252 3.633085,-2.82148 1.361734,-1.15427 8.955416,-5.54887 1.92732,-1.11537 4.05006,-1.81491 6.19256,-2.38392 3.95718,-0.90496 7.9772,-1.59438 12.02835,-1.88959 1.55,-0.0503 3.16371,-0.17054 4.64312,0.42747 1.35692,0.54849 2.3876,1.72789 3.52627,2.58777 4.66382,3.91598 9.20738,7.99242 14.19143,11.50661 2.8249,1.97527 1.43181,1.05058 3.93623,2.64221 1.16282,0.73899 2.5458,1.38378 2.73954,2.89134 -0.0758,0.19145 -0.0991,0.41331 -0.22747,0.57435 -0.14633,0.18364 -0.37606,0.28128 -0.56521,0.42042 -0.75251,0.55351 -1.54308,1.06611 -2.05725,1.87163 -0.88645,1.29105 -1.43097,2.71611 -2.00853,4.16412 -0.1796,0.35147 -1.08609,2.19735 -1.35656,2.37609 -2.94834,1.94833 -5.22468,4.30427 -8.58476,4.37732 -1.83296,-0.39531 -3.48637,-1.4138 -5.38627,-1.54268 -1.98014,6.5e-4 -3.58234,0.62451 -5.29912,1.59682 -2.35661,1.28868 -3.65662,2.01305 3.96344,-2.35517 0.38439,-0.22035 -0.76077,0.45511 -1.12924,0.70117 -0.65124,0.4349 -1.50924,1.09533 -2.12129,1.58123 -0.34616,0.27481 -0.68551,0.5581 -1.02826,0.83715 -2.94429,2.43522 -5.55597,5.21197 -7.98095,8.16287 -0.49103,0.58054 -0.98561,1.15812 -1.47311,1.74164 -0.40978,0.4905 -0.6997,1.10728 -1.21867,1.48033 -2.33014,1.67493 -4.79713,3.15451 -7.26544,4.61818 -1.00232,0.59436 -2.00468,0.33605 -3.01749,-0.007 -1.89293,-0.87607 -3.54517,-2.29377 -5.62915,-2.71084 -0.814919,-0.0138 -0.889582,-0.0782 -1.672328,0.15406 -0.255454,0.0758 -0.970819,0.43243 -0.743759,0.29298 10.126177,-6.21884 6.419867,-3.80495 4.229187,-2.42657 -0.2079,0.15483 -0.43948,0.28213 -0.62369,0.46449 -0.88211,0.87327 -1.13567,2.24529 -1.946408,3.17636 -1.301527,1.9828 -2.885722,3.7633 -4.29199,5.67128 -1.738433,2.25146 -3.539198,4.44154 -5.812736,6.18703 -3.231341,2.585 -1.135646,0.99094 -8.366961,5.21277 -1.199804,0.70048 -2.502061,1.12342 -3.900807,1.03849 -1.131857,-0.13787 -2.302726,-0.29608 -2.960361,-1.34242 -0.05928,-0.17664 -0.163283,-0.34418 -0.177835,-0.52993 -0.06407,-0.81795 0.982813,-1.5458 1.603617,-1.84041 1.498978,-0.91433 1.99986,-3 2.726023,-4.47901 0.78185,-2.09246 1.43195,-4.37413 1.11829,-6.62731 -0.589887,-1.16588 -1.858671,-1.67791 -2.729569,-2.60545 -1.30908,-1.82445 -1.526985,-3.46201 -0.903952,-5.646 0.194767,-0.49548 0.357366,-1.00483 0.584299,-1.48642 1.504056,-3.19186 4.014397,-5.80876 6.329031,-8.41586 3.187745,-3.11825 1.822928,-1.99168 8.774451,-5.73071 0.341966,-0.18393 0.759431,-0.18331 1.14729,-0.20167 0.6936,-0.0328 1.406096,0.32006 2.070399,0.45533 1.628734,0.51771 3.222815,1.07027 4.961418,0.7472 2.427411,-0.2789 4.798711,-0.86974 7.111551,-1.65744 2.56348,-1.06687 4.12556,-1.81384 -2.64215,1.89993 -0.53972,0.29617 1.03292,-0.67348 1.51497,-1.05642 1.02439,-0.81379 1.62743,-1.41671 2.29347,-2.53863 0.26626,-0.44849 0.44263,-0.94458 0.66395,-1.41687 0.12214,-0.48983 0.27982,-0.97214 0.36643,-1.46949 0.40612,-2.33202 0.0775,-4.8273 -0.84528,-6.99286 -0.19705,-0.2445 -0.34957,-0.53288 -0.59114,-0.7335 -1.4589,-1.21158 -4.70103,-0.69883 -6.41649,-0.6478 -1.376167,0.16001 -2.17533,0.20848 -3.511845,0.53205 -1.980515,0.47948 -3.754291,1.48686 -5.520596,2.4669 1.464578,-0.86068 2.901338,-1.77056 4.393734,-2.58205 0.579955,-0.31535 -1.10898,0.71683 -1.652502,1.0915 -1.967509,1.35628 -3.980802,2.78917 -5.391772,4.74725 -0.150529,0.38551 -0.375542,0.74973 -0.451587,1.15654 -0.38235,2.04543 0.812308,5.20766 1.832426,6.93903 0.823981,1.02904 1.232336,1.68921 2.347059,2.45555 3.148983,2.16485 7.192223,2.49347 10.822743,3.19371 1.26059,0.11833 2.51654,0.30746 3.78179,0.35501 3.89082,0.14621 7.85618,-0.30459 11.62278,-1.28181 1.20873,-0.3136 2.59785,-1.90413 3.57344,-1.12465 0.84306,0.67358 -1.76346,1.2442 -2.64519,1.8663 0.85798,-0.55818 1.78052,-1.02786 2.57393,-1.67453 3.37775,-2.75304 4.73865,-6.90471 5.02112,-11.10506 -0.0477,-3.32826 -0.10469,-7.15316 -1.4081,-10.27622 -0.1905,-0.45643 -0.46721,-0.87189 -0.70081,-1.30784 -0.29083,-0.32254 -0.53806,-0.69054 -0.8725,-0.96761 -1.61648,-1.33923 -4.56741,-1.3896 -6.54072,-1.79801 -2.42431,-0.33699 -5.09521,-0.50195 -6.94807,-2.28686 -0.19657,-0.24551 -0.43897,-0.4605 -0.58973,-0.73652 -1.05726,-1.93577 0.85218,-3.94988 2.14039,-5.13301 2.4649,-1.94641 5.10235,-3.61781 7.72818,-5.33712 0.709,-0.46423 1.39218,-0.96926 2.12041,-1.40271 2.64237,-1.57275 5.32549,-3.076 7.98823,-4.614 0.72693,-0.36459 1.43717,-0.76456 2.18079,-1.09377 2.91779,-1.29176 6.09662,-1.91677 9.27916,-1.57458 2.5954,0.38242 4.06516,0.72604 4.93215,3.42852 0.27762,2.14132 0.20069,4.28822 0.30839,6.4413 0,0 -6.62404,3.37512 -6.62404,3.37512 z"
       inkscape:connector-curvature="0" /><path
       style="opacity:0.98999999;fill:#0066ff;fill-opacity:1;stroke:#000000;stroke-width:0.89999998;stroke-miterlimit:4;stroke-dasharray:none;stroke-opacity:0.61194033;paint-order:normal"
       id="path35018"
       d="m 135.11214,711.75234 c -2.77339,-0.0959 -5.23825,-1.5652 -7.52655,-2.99116 -3.60703,-2.67487 -7.24585,-5.38703 -10.30606,-8.69203 -1.5715,-1.98305 -2.25959,-4.47888 -2.98047,-6.86617 -0.22603,-1.376 -0.92291,-3.02808 -0.6583,-4.44337 0.053,-0.28328 0.18029,-0.54745 0.27044,-0.82117 0.14289,-0.22816 0.25606,-0.47789 0.42866,-0.68448 0.18379,-0.21997 0.3846,-0.43786 0.63118,-0.58402 3.70604,-2.1968 5.85985,-4.53395 9.75359,-4.20307 2.38581,0.80424 3.58564,3.01695 4.48748,5.21323 0.86149,2.62144 1.54725,5.32328 1.73201,8.08259 -0.0446,1.21991 0.0385,0.63046 -0.23498,1.77028 0,0 -6.64109,3.12401 -6.64109,3.12401 v 0 c 0.41637,-0.96847 0.26541,-0.44745 0.42167,-1.57175 -0.0407,-2.69482 -0.60561,-5.37032 -1.5267,-7.90001 -0.83415,-1.92013 -1.93252,-4.02409 -4.18025,-4.43263 -0.76588,0.0159 -0.89561,-0.0282 -1.65207,0.18287 -0.27705,0.0773 -1.0536,0.4494 -0.81094,0.29495 1.79112,-1.14002 3.65309,-2.16478 5.47125,-3.26118 0.22682,-0.13677 -0.486,0.2216 -0.69675,0.38204 -0.19357,0.14736 -0.33436,0.35347 -0.50154,0.53021 -0.12226,0.20006 -0.28578,0.38016 -0.36679,0.60019 -0.38877,1.05602 0.27346,3.16796 0.43464,4.25313 0.6244,2.30596 1.34217,4.67495 2.69897,6.66095 2.84335,3.39787 6.34779,6.17786 10.05188,8.58775 2.3946,1.31823 4.92774,2.58546 7.7439,2.37821 0,0 -6.04318,4.39063 -6.04318,4.39063 z"
       inkscape:connector-curvature="0" /><path
       style="opacity:0.98999999;fill:#c837ab;fill-opacity:1;stroke:#000000;stroke-width:0.89999998;stroke-miterlimit:4;stroke-dasharray:none;stroke-opacity:0.61194033;paint-order:normal"
       id="path35020"
       d="m 115.24294,715.28698 c -3.41007,-2.59139 -7.33696,-4.43481 -11.18774,-6.27027 -4.01052,-1.75687 -8.090069,-3.39563 -12.290893,-4.64187 -1.812647,-0.49049 -3.676906,-0.84238 -5.557434,-0.69424 -0.282117,0.10321 -0.577472,0.17566 -0.846351,0.30963 -0.317944,0.1584 -1.218899,0.72893 -0.904873,0.56288 1.71018,-0.90425 3.316759,-2.01731 5.095223,-2.77854 0.487256,-0.20855 -0.808195,0.6919 -1.155515,1.09226 -1.039831,1.1986 -1.19603,1.74039 -1.909539,3.16396 -1.090083,2.86697 -1.787809,5.99909 -1.14412,9.06012 0.0865,0.41137 0.237556,0.80647 0.356334,1.2097 0.57994,1.57214 1.75379,2.39551 3.205467,3.05778 1.176493,0.5586 2.545032,0.90733 3.534758,1.80611 0.21647,0.19658 0.380901,0.44376 0.571352,0.66564 1.002116,1.62051 1.265896,3.47248 0.955037,5.32504 -0.307342,1.30199 -1.06301,2.28087 -2.241884,2.92916 -7.533261,4.1427 -4.748525,3.48119 -8.981094,4.24078 -3.311918,0.63159 -6.654639,1.2462 -10.029691,1.37862 -0.372539,-0.0774 -0.776041,-0.0647 -1.117618,-0.23233 -2.670873,-1.31095 -0.604823,-5.64945 0.102242,-7.4727 1.654417,-3.97297 3.732192,-7.74057 6.686996,-10.88777 3.604459,-2.89299 7.84143,-5.70886 12.613897,-5.60703 0.593127,0.0127 1.180828,0.11611 1.771242,0.17416 3.747703,0.42814 7.149613,2.03786 10.267214,4.08425 0,0 -6.025562,3.85073 -6.025562,3.85073 v 0 c -2.974349,-2.09405 -6.303161,-3.57042 -9.97567,-3.82273 -1.597043,-0.04 -3.08996,-0.0146 -4.645039,0.40569 -0.414404,0.11199 -1.571526,0.66199 -1.217837,0.41873 1.206701,-0.82996 7.582321,-4.63027 3.787472,-2.22704 -3.249602,3.0489 -5.301012,6.59214 -6.988939,10.69882 -0.661663,1.74269 -0.864842,2.01584 -1.183779,3.75737 -0.308408,1.68403 -0.05884,2.45441 1.728481,2.60735 3.333668,-0.14187 6.640377,-0.69366 9.89123,-1.43141 3.521383,-0.91083 1.652718,-0.58854 -3.457419,2.67913 -0.293592,0.18773 0.634876,-0.29225 0.930013,-0.47755 0.738612,-0.46374 1.223177,-1.05181 1.493332,-1.87993 0.450371,-1.70002 0.265688,-3.18588 -0.647221,-4.70968 -1.074454,-1.15062 -2.558812,-1.60457 -3.977233,-2.20735 -1.604433,-0.79903 -2.778734,-1.93824 -3.362083,-3.68467 -0.121544,-0.44433 -0.282396,-0.87974 -0.364632,-1.33299 -0.577451,-3.18269 0.111882,-6.44742 1.086783,-9.47026 0.586049,-1.3453 0.847439,-2.16124 1.717724,-3.34231 1.903347,-2.58303 6.352395,-4.44123 8.283737,-5.58552 0.326226,-0.19328 0.677287,-0.34805 1.037484,-0.46654 0.31594,-0.10393 0.652157,-0.13103 0.978235,-0.19654 1.901227,-0.003 3.74181,0.38371 5.533637,1.0226 4.087626,1.43874 8.074016,3.16417 12.030466,4.92644 3.98773,1.90228 7.99709,3.78623 11.8186,6.00947 0,0 -6.26479,3.98285 -6.26479,3.98285 z"
       inkscape:connector-curvature="0" /><path
       style="opacity:0.98999999;fill:#d40055;fill-opacity:1;stroke:#000000;stroke-width:0.89999998;stroke-miterlimit:4;stroke-dasharray:none;stroke-opacity:0.61194033;paint-order:normal"
       id="path35022"
       d="m 131.48334,696.77802 c -2.35938,-1.01892 -4.86922,-1.69797 -7.33764,-2.40782 -1.49539,-0.44255 -2.99712,-0.86779 -4.51778,-1.21587 -0.56871,-0.13017 -1.44657,-0.3442 -2.05877,-0.32305 -0.27725,0.01 -0.54623,0.0973 -0.81934,0.14601 -2.8567,1.80547 1.71344,-1.10284 4.91513,-2.64625 0.25193,-0.12145 -0.38216,0.41137 -0.53958,0.64254 -0.49635,0.72889 -0.57328,1.35809 -0.55164,2.21044 0.36337,1.16931 1.27937,1.87352 2.24194,2.54257 0,0 -6.16621,3.90965 -6.16621,3.90965 v 0 c -1.10043,-0.84587 -2.10032,-1.73221 -2.58873,-3.0797 -0.0703,-0.70901 -0.17152,-1.1148 0.008,-1.82632 0.87284,-3.45796 5.47372,-5.2018 8.56926,-6.10776 2.53464,7.1e-4 4.89261,1.17957 7.32483,1.76424 2.58916,0.73776 5.22733,1.35326 7.75016,2.2924 0,0 -6.22971,4.09892 -6.22971,4.09892 z"
       inkscape:connector-curvature="0" /></g></svg>