<?xml version="1.0" encoding="UTF-8" standalone="no"?>
<!-- Generator: Adobe Illustrator 16.0.0, SVG Export Plug-In . SVG Version: 6.00 Build 0)  -->

<svg
   xmlns:dc="http://purl.org/dc/elements/1.1/"
   xmlns:cc="http://creativecommons.org/ns#"
   xmlns:rdf="http://www.w3.org/1999/02/22-rdf-syntax-ns#"
   xmlns:svg="http://www.w3.org/2000/svg"
   xmlns="http://www.w3.org/2000/svg"
   xmlns:sodipodi="http://sodipodi.sourceforge.net/DTD/sodipodi-0.dtd"
   xmlns:inkscape="http://www.inkscape.org/namespaces/inkscape"
   version="1.1"
   id="svg2"
   inkscape:version="0.92.2 (5c3e80d, 2017-08-06)"
   sodipodi:docname="graphicsRight.svg"
   x="0px"
   y="0px"
   width="430.543px"
   height="325.295px"
   viewBox="0 0 430.543 325.295"
   enable-background="new 0 0 430.543 325.295"
   xml:space="preserve"><metadata
     id="metadata35132"><rdf:RDF><cc:Work
         rdf:about=""><dc:format>image/svg+xml</dc:format><dc:type
           rdf:resource="http://purl.org/dc/dcmitype/StillImage" /><dc:title></dc:title></cc:Work></rdf:RDF></metadata><defs
     id="defs35116"><inkscape:perspective
       sodipodi:type="inkscape:persp3d"
       inkscape:vp_x="0 : 526.18109 : 1"
       inkscape:vp_y="0 : 1000 : 0"
       inkscape:vp_z="744.09448 : 526.18109 : 1"
       id="perspective2985"
       inkscape:persp3d-origin="372.04724 : 350.78739 : 1" /></defs><sodipodi:namedview
     units="mm"
     pagecolor="#ffffff"
     bordercolor="#666666"
     borderopacity="1.0"
     inkscape:zoom="1.979899"
     inkscape:cx="250.71948"
     inkscape:cy="233.90626"
     showgrid="false"
     showguides="true"
     fit-margin-top="0"
     fit-margin-left="0"
     id="base"
     inkscape:document-units="mm"
     inkscape:current-layer="layer1"
     inkscape:object-nodes="true"
     inkscape:window-width="1358"
     inkscape:window-height="699"
     inkscape:window-x="0"
     inkscape:window-y="0"
     inkscape:window-maximized="0"
     inkscape:guide-bbox="true"
     fit-margin-right="0"
     fit-margin-bottom="0"
     inkscape:pageopacity="0.0"
     inkscape:pageshadow="2" /><g
     id="layer1"
     transform="translate(-53.643411,-569.625)"
     inkscape:label="Layer 1"
     inkscape:groupmode="layer"><path
       id="path3910"
       inkscape:connector-curvature="0"
       sodipodi:nodetypes="cccccc"
       d="m 268.908,570.139 214.781,128.125 -9.313,5.563 -205.468,-122.594 -9.281,-5.563 z"
       style="fill:#d7d7f4" /><path
       id="path3918"
       inkscape:connector-curvature="0"
       d="m 483.687,698.276 v 68 l -9.311,5.555 v -68 z"
       style="fill:#b3b3b3" /><path
       id="path5998"
       inkscape:connector-curvature="0"
       d="m 483.622,764.597 -9.311,5.556 0.031,-11.063 9.25,-5.531 z"
       style="fill:#b3b3b3" /><path
       id="path6000"
       inkscape:connector-curvature="0"
       d="m 483.654,753.534 -9.311,5.556 0.031,-11.063 9.25,-5.531 z"
       style="fill:#b3b3b3" /><path
       id="path6002"
       inkscape:connector-curvature="0"
       d="m 483.624,742.496 -9.311,5.556 0.031,-11.063 9.25,-5.531 z"
       style="fill:#b3b3b3" /><path
       id="path6004"
       inkscape:connector-curvature="0"
       d="m 483.595,731.458 -9.313,5.557 0.031,-11.063 9.25,-5.531 z"
       style="fill:#b3b3b3" /><path
       id="path6006"
       inkscape:connector-curvature="0"
       d="m 483.626,720.396 -9.313,5.556 0.031,-11.063 9.25,-5.531 z"
       style="fill:#b3b3b3" /><path
       id="path6008"
       inkscape:connector-curvature="0"
       d="m 483.658,709.333 -9.313,5.556 0.031,-11.063 9.25,-5.531 z"
       style="fill:#b3b3b3" /><path
       id="path6042"
       inkscape:connector-curvature="0"
       sodipodi:nodetypes="ccccc"
       d="m 352.618,632.973 0.09,55.214 -9.312,5.556 -0.031,-55.25 z"
       style="fill:#b3b3b3" /><path
       id="path6059"
       inkscape:connector-curvature="0"
       d="m 352.708,688.188 -9.312,5.556 37.155,22.163 9.25,-5.594 z"
       style="fill:#b3b3b3" /><path
       id="path6053"
       inkscape:connector-curvature="0"
       sodipodi:nodetypes="ccccccccc"
       d="m 259.627,575.67 214.738,128.173 v 68 l -93.813,-55.969 -0.031,-55.194 -37.155,-22.188 0.03,55.163 -83.769,-49.986 z"
       style="fill:#f2f2f2" /><path
       style="opacity:0.98999999;fill:#d40055;fill-opacity:1;stroke:#000000;stroke-width:0.89999998;stroke-miterlimit:4;stroke-dasharray:none;stroke-opacity:0.61194033;paint-order:normal"
       id="path35677"
       d="m 272.55403,644.77114 c 0.4569,-2.12515 0.8493,-4.24291 1.47774,-6.32827 0.66539,-2.28039 1.25106,-4.61649 2.30324,-6.76075 0.82842,-1.68825 1.28587,-2.19293 2.39538,-3.75976 2.05344,-2.83518 4.62275,-5.18839 7.65105,-6.95049 7.98315,-4.64521 5.66203,-3.57819 10.82016,-5.67589 3.77415,-1.43403 7.75524,-2.03407 11.76047,-2.31034 2.54731,0.082 4.27926,0.6868 5.61447,3.0138 0.30122,0.52497 0.5033,1.1009 0.75494,1.65135 1.50121,4.09591 1.77511,8.52355 1.90214,12.84898 -0.17166,2.43771 -0.7236,4.87061 -2.2458,6.83972 -0.74124,0.95886 -1.24096,1.30684 -2.14646,2.07907 -3.26896,2.29065 -6.70191,4.39442 -10.34228,6.04077 0,0 5.67469,-4.52073 5.67469,-4.52073 v 0 c 4.53776,-2.2655 -7.81234,4.79933 -3.13562,1.89008 0.39225,-0.24401 0.77864,-0.49733 1.16797,-0.74599 3.25996,-2.46191 4.32507,-4.27393 4.83694,-8.41455 -0.0286,-4.2288 -0.30134,-8.55045 -1.85557,-12.52845 -0.25525,-0.49332 -0.46821,-1.01093 -0.76574,-1.47996 -1.26545,-1.99488 -2.98609,-2.44788 -5.22663,-2.42683 -3.86291,0.23375 -7.69247,0.82704 -11.31393,2.25951 -0.8295,0.35492 -3.06287,1.76057 -2.4885,1.06476 0.82173,-0.99547 2.18793,-1.37052 3.2924,-2.03862 0.78165,-0.47281 -1.57418,0.93072 -2.32386,1.45275 -2.05961,1.43419 -3.81702,3.18632 -5.3029,5.20679 -0.9977,1.38308 -1.58358,2.0778 -2.35214,3.575 -1.07012,2.08463 -1.62948,4.37169 -2.20196,6.62702 -0.60551,2.0106 -1.09493,4.04118 -1.18349,6.14949 0,0 -6.76671,3.24154 -6.76671,3.24154 z"
       inkscape:connector-curvature="0" /><path
       style="opacity:0.98999999;fill:#ff0000;fill-opacity:1;stroke:#000000;stroke-width:0.89999998;stroke-miterlimit:4;stroke-dasharray:none;stroke-opacity:0.61194033;paint-order:normal"
       id="path35679"
       d="m 434.11729,719.32848 c -3.36262,-0.29406 -6.69439,-2.20993 -9.65667,-3.70885 -3.84663,-1.93866 -7.67412,-3.90913 -11.79408,-5.19995 -1.163,-0.23368 -2.37175,-0.69847 -3.58385,-0.58805 -0.34838,0.0317 -0.69643,0.11326 -1.02041,0.24521 -0.33085,0.13474 -1.23901,0.7111 -0.92223,0.54596 1.77485,-0.92522 3.53171,-1.88454 5.29757,-2.82681 -0.26496,0.3632 -0.57372,0.69818 -0.79488,1.08959 -1.49295,2.64219 -1.5474,5.99375 -1.75504,8.9331 -0.038,3.28758 -0.0552,6.89991 1.60388,9.86548 0.23716,0.42392 0.56461,0.79059 0.84691,1.18589 1.75722,1.89753 4.16642,2.19057 6.60871,2.34848 2.25324,0.0625 4.5075,0.003 6.7612,-3.1e-4 2.7281,-0.33418 5.45884,-0.64575 8.1957,-0.89895 1.79096,-0.18038 3.59056,-0.1879 5.3883,-0.1867 0.99518,0.0128 1.99043,0.006 2.98563,10e-4 0,0 -5.90521,4.2897 -5.90521,4.2897 v 0 c -0.99527,-0.007 -1.99067,-0.015 -2.98587,0.005 -1.76837,0.0237 -3.53736,0.065 -5.30172,0.19356 -2.74114,0.20955 -5.46329,0.57595 -8.19883,0.83512 -2.27051,0.0444 -4.54662,0.11779 -6.81419,-0.0426 -2.72676,-0.26341 -5.03139,-0.71773 -6.8816,-2.93597 -0.28806,-0.44576 -0.62213,-0.86494 -0.86417,-1.33726 -1.59543,-3.11334 -1.60623,-6.79578 -1.65744,-10.19962 0.15909,-3.53644 0.26846,-7.27102 2.07822,-10.41551 2.35649,-1.4746 4.67773,-3.00711 7.06949,-4.42381 0.32049,-0.18984 0.68546,-0.3041 1.04905,-0.38503 1.59209,-0.35435 3.19063,0.28089 4.69229,0.71132 4.01502,1.49253 7.76494,3.55997 11.61022,5.43152 3.11188,1.50389 6.43806,3.23853 9.9922,3.07718 0,0 -6.04318,4.39063 -6.04318,4.39063 z"
       inkscape:connector-curvature="0" /><path
       style="opacity:0.98999999;fill:#ff0000;fill-opacity:1;stroke:#000000;stroke-width:0.89999998;stroke-miterlimit:4;stroke-dasharray:none;stroke-opacity:0.61194033;paint-order:normal"
       id="path35681"
       d="m 399.35931,686.84364 c 3.01893,-0.99291 6.21885,-1.06327 9.36351,-1.22774 0.93994,-0.0281 1.87979,-0.0596 2.81984,-0.0843 2.34678,-0.0616 3.62542,-0.12357 5.97553,0.0134 2.79547,0.16295 5.54327,0.62299 8.29736,1.1 4.41864,0.88626 8.47315,2.64857 12.16868,5.20756 2.97474,2.26136 5.02597,5.33013 6.63961,8.64951 1.49956,3.19014 2.41375,6.6232 3.32693,10.01854 0.59888,2.25375 0.78039,4.58085 0.86851,6.90182 0.12255,2.13136 -0.13274,4.25211 -0.28352,6.37389 -0.1765,1.93422 -0.58635,3.85238 -0.41478,5.79785 0.29248,1.79723 1.79525,2.76417 3.2435,3.63494 1.74858,0.80673 3.50602,1.60762 5.36563,2.12208 0.77479,0.0716 1.78966,0.52922 2.5683,0.22456 0.18053,-0.0706 0.62906,-0.45004 0.4587,-0.35753 -1.98156,1.076 -3.9324,2.20763 -5.89861,3.31144 0.54215,-0.6681 0.29897,-0.29451 0.70828,-1.13432 0,0 6.68635,-3.0707 6.68635,-3.0707 v 0 c -0.35908,0.94553 -0.18092,0.47462 -0.53451,1.41272 -5.0614,3.05049 -5.59733,5.06618 -10.06365,3.75467 -1.85104,-0.63514 -3.6341,-1.46387 -5.39207,-2.31844 -1.6462,-1.00267 -3.2703,-2.16561 -3.63253,-4.19102 -0.21889,-2.00375 0.18056,-3.94975 0.41473,-5.93855 0.15761,-2.09695 0.39968,-4.19207 0.29985,-6.29793 -0.0521,-2.28976 -0.16844,-4.58457 -0.67981,-6.82631 -0.783,-3.38694 -1.65632,-6.7968 -3.15125,-9.94731 -1.56597,-3.21093 -3.58786,-6.15062 -6.46356,-8.33677 -3.5518,-2.47914 -7.52734,-4.275 -11.80046,-5.09141 -1.95476,-0.34035 -3.32106,-0.60834 -5.3005,-0.82979 -3.90208,-0.43656 -7.82106,-0.31719 -11.73066,-0.044 -3.26552,0.25882 -6.66492,0.42867 -9.68279,1.83131 0,0 5.82339,-4.65817 5.82339,-4.65817 z"
       inkscape:connector-curvature="0" /><path
       style="opacity:0.98999999;fill:#ff0000;fill-opacity:1;stroke:#000000;stroke-width:0.89999998;stroke-miterlimit:4;stroke-dasharray:none;stroke-opacity:0.61194033;paint-order:normal"
       id="path35683"
       d="m 319.1222,667.95458 c -4.09842,-0.003 -8.19494,0.0865 -12.29316,0.0274 -3.61872,-0.16326 -7.26116,0.0369 -10.87304,-0.26123 -0.42404,-0.14003 -0.86781,-0.23048 -1.27212,-0.42009 -4.3974,-2.06217 -7.62664,-7.54393 -10.19761,-11.41992 -2.65772,-4.53238 -5.29341,-9.13309 -7.21661,-14.03809 -0.91756,-2.3402 -1.12782,-3.28971 -1.79418,-5.64566 -0.79218,-3.71246 -1.41004,-7.56803 -1.13248,-11.38006 0.0534,-0.73406 0.1752,-1.46155 0.2628,-2.19232 0.80476,-3.65734 2.13007,-7.16323 2.97726,-10.8113 0.23515,-1.31458 0.69776,-3.00942 -0.14578,-4.2272 -0.1209,-0.17454 -0.29401,-0.30639 -0.44101,-0.45958 -1.40809,-1.19571 -3.13437,-1.79147 -4.90997,-2.1807 -0.62924,-0.0385 -2.3922,-0.82274 -2.91819,-0.64007 -0.15445,0.0536 -0.50159,0.41052 -0.35466,0.33882 1.99473,-0.97341 3.9449,-2.03558 5.91735,-3.05337 -0.0806,0.44129 -0.21982,0.87582 -0.24179,1.32387 -0.23884,4.87255 2.71218,10.23327 4.85131,14.40589 3.94866,7.12967 8.52022,13.93679 13.72711,20.21293 1.01516,1.22364 2.09213,2.39465 3.13819,3.59197 4.87451,5.37932 10.37111,10.15124 16.14567,14.53352 3.17973,2.4902 6.26202,5.09652 9.46983,7.55049 1.44383,1.26033 3.21535,2.10729 4.63759,3.39339 0.88894,0.80386 1.14915,1.25912 1.86836,2.22876 1.99629,2.9084 3.30941,6.22396 4.57465,9.49933 0.85829,2.13623 1.39685,3.84596 1.04525,6.1403 0,0 -6.57653,3.18118 -6.57653,3.18118 v 0 c 0.59845,-2.19035 0.12281,-3.78566 -0.62466,-5.89878 -1.19886,-3.23157 -2.56143,-6.44133 -4.55898,-9.27036 -0.7209,-0.91323 -0.94917,-1.2889 -1.8063,-2.0518 -1.42228,-1.26591 -3.14723,-2.15426 -4.55062,-3.44626 -3.15408,-2.48112 -6.11216,-5.18647 -9.24194,-7.69893 -5.61064,-4.55991 -10.79256,-9.64216 -15.67041,-14.97384 -1.03383,-1.21546 -2.09295,-2.40985 -3.10149,-3.64638 -5.18007,-6.3511 -9.80019,-13.14448 -13.97928,-20.18994 -2.747,-4.87112 -5.8191,-10.05594 -5.76835,-15.82975 7.26173,-5.06041 4.68894,-5.27365 10.02682,-3.85066 1.8854,0.50623 3.70603,1.2174 5.19767,2.5194 0.18045,0.21251 0.38893,0.40411 0.54135,0.63755 0.92803,1.42136 0.57051,3.2246 0.21927,4.76063 -0.97448,3.64716 -2.32506,7.17415 -3.22787,10.8389 -0.0932,0.70995 -0.21748,1.41649 -0.27955,2.12983 -0.32796,3.76955 0.23171,7.58868 0.87368,11.29168 0.59687,2.48399 0.69933,3.17909 1.57844,5.66199 1.74687,4.93375 4.22689,9.58228 6.95716,14.03306 2.69497,3.86401 5.96066,8.91499 10.66071,10.56242 0.39979,0.14013 0.82676,0.18526 1.24015,0.27789 3.46756,0.30007 6.95339,0.39182 10.43029,0.51492 4.25815,0.0157 8.58633,0.0585 12.79592,-0.62742 0,0 -5.96025,4.55756 -5.96025,4.55756 z"
       inkscape:connector-curvature="0" /><path
       style="opacity:0.98999999;fill:#d45500;fill-opacity:1;stroke:#000000;stroke-width:0.89999998;stroke-miterlimit:4;stroke-dasharray:none;stroke-opacity:0.61194033;paint-order:normal"
       id="path35685"
       d="m 316.08947,643.9343 c 2.78021,-1.70506 -2.13135,1.31928 -4.41349,2.44347 -0.48418,0.23851 0.87988,-0.62862 1.28461,-0.98569 1.43892,-1.26946 2.5138,-2.80967 3.60299,-4.37111 1.6789,-2.41791 2.67844,-5.18468 3.85432,-7.85678 1.58203,-2.5437 0.98568,-1.78556 7.22295,-3.68601 0.33318,-0.10151 0.30368,0.63029 0.40246,0.96429 0.46084,1.55805 0.50617,3.26035 0.62475,4.86491 0.22123,4.16896 0.44253,8.34168 0.0258,12.50225 -0.20439,2.27077 -0.75153,4.48156 -1.19726,6.71042 -0.38064,2.05465 -0.39553,4.15491 -0.45907,6.23709 -0.1143,2.16622 -0.21837,4.33283 -0.30541,6.50031 0,0 -6.37213,3.20742 -6.37213,3.20742 v 0 c 0.12524,-2.156 0.27602,-4.31172 0.31366,-6.47161 -0.031,-2.09114 -0.11998,-4.20062 0.2057,-6.27462 0.51006,-2.26263 1.20275,-4.48464 1.51243,-6.79072 0.56014,-4.11034 0.3793,-8.24934 0.0547,-12.37721 -0.1413,-1.24389 -0.20913,-2.16376 -0.47265,-3.36856 -0.0838,-0.38325 -0.18409,-0.76428 -0.31656,-1.13354 -0.0684,-0.19075 -0.44856,-0.42101 -0.2831,-0.53802 1.95842,-1.38494 4.1386,-2.42611 6.20262,-3.64811 0.17587,-0.10413 -0.35861,0.1962 -0.53791,0.2943 -1.39384,2.66681 -2.31994,5.57044 -4.05198,8.0635 -1.0521,1.56312 -2.07994,3.1882 -3.42857,4.52185 -2.61051,2.58152 -6.11155,4.06115 -9.30688,5.80606 0,0 5.83804,-4.61389 5.83804,-4.61389 z"
       inkscape:connector-curvature="0" /><path
       style="opacity:0.98999999;fill:#abc837;fill-opacity:1;stroke:#000000;stroke-width:0.89999998;stroke-miterlimit:4;stroke-dasharray:none;stroke-opacity:0.61194033;paint-order:normal"
       id="path35687"
       d="m 417.33996,716.46713 c -2.04276,0.19461 -4.11093,0.45636 -6.1679,0.36776 -1.80318,-0.0777 -2.58289,-0.2946 -4.36713,-0.63329 -3.42882,-0.87056 -6.87688,-2.19499 -9.731,-4.34275 -0.45813,-0.34476 -0.86362,-0.75441 -1.29543,-1.13161 -2.14443,-2.01701 -2.93107,-4.64253 -3.29509,-7.46818 0.0221,-0.45825 0.005,-0.92009 0.0662,-1.37477 0.71528,-5.30747 5.7152,-6.48369 10.0033,-8.9326 2.97204,-0.97418 6.03044,-1.07455 9.05218,-0.25533 0.6802,0.1844 1.33597,0.44935 2.00395,0.67403 4.10299,1.73095 6.6152,4.93825 8.83742,8.64448 1.61051,2.86274 1.71451,5.22848 1.0447,8.35675 -0.54554,2.03694 -1.888,3.73298 -2.32881,5.79511 0.0692,2.97683 1.51368,5.69033 3.04527,8.16567 1.76425,2.33128 4.1679,3.85578 6.86389,4.87989 2.9489,1.04011 6.04321,1.49012 9.142,1.78285 0.73118,0.0485 1.53814,0.16791 2.26838,-0.025 0.35634,-0.0941 1.33159,-0.62878 1.01259,-0.44415 -8.13534,4.70854 -5.61567,3.56918 -3.42887,1.15016 1.58341,-1.87709 2.69712,-4.09961 3.51656,-6.40204 0.34713,-1.21369 0.19531,-0.61109 0.45887,-1.80693 0,0 6.5746,-3.18014 6.5746,-3.18014 v 0 c -0.25449,1.26904 -0.10079,0.63054 -0.46578,1.91436 -0.81435,2.36901 -1.90705,4.678 -3.45049,6.66341 -2.56992,3.21955 -4.16189,3.55673 -8.91992,6.10794 -0.34808,0.18664 -0.75639,0.24153 -1.14788,0.29378 -0.69182,0.0923 -1.5909,-0.0462 -2.26927,-0.11789 -3.12549,-0.39672 -6.25775,-0.91866 -9.24563,-1.94559 -2.78672,-1.15914 -5.26357,-2.81266 -7.02426,-5.32002 -1.58,-2.62225 -3.13762,-5.4049 -3.48283,-8.49692 0.0303,-0.33561 0.0134,-0.67889 0.0909,-1.00684 0.07,-0.2963 0.22338,-0.56668 0.34677,-0.84503 0.60747,-1.37039 1.48104,-2.60932 1.9515,-4.0419 0.76282,-2.94648 0.78898,-5.17206 -0.64824,-7.95597 -2.00329,-3.56833 -4.54876,-6.76241 -8.50173,-8.24862 -0.65181,-0.19948 -1.29146,-0.44422 -1.95545,-0.59843 -3.00075,-0.69694 -6.06964,-0.43448 -8.91578,0.72673 9.67718,-5.87117 4.19019,-3.09724 2.90768,-1.13267 -0.70414,1.07861 -0.96297,2.36555 -1.02515,3.62811 0.30787,2.65832 0.94517,5.14554 2.93938,7.07634 0.39848,0.35923 0.77115,0.74934 1.19544,1.07768 2.75343,2.13075 6.11182,3.40341 9.47195,4.16934 0.74084,0.1166 1.47709,0.26754 2.22252,0.34979 2.85394,0.31491 5.75492,-0.0143 8.55086,-0.60467 0,0 -5.90031,4.48717 -5.90031,4.48717 z"
       inkscape:connector-curvature="0" /><path
       style="opacity:0.98999999;fill:#55d400;fill-opacity:1;stroke:#000000;stroke-width:0.89999998;stroke-miterlimit:4;stroke-dasharray:none;stroke-opacity:0.61194033;paint-order:normal"
       id="path35689"
       d="m 405.38118,708.72709 c -0.2685,-0.0702 -0.54425,-0.1169 -0.8055,-0.21052 -1.33689,-0.47907 -2.0007,-0.88242 -3.30797,-1.61911 -2.57499,-1.4511 -5.02022,-3.03658 -7.44434,-4.72487 -2.5331,-1.94009 -5.64709,-4.04707 -7.29109,-6.88265 -0.20176,-0.34799 -0.33477,-0.73154 -0.50215,-1.09731 -0.0429,-0.39321 -0.1431,-0.78436 -0.12863,-1.17964 0.10576,-2.88752 2.83172,-4.80463 4.92778,-6.30934 4.1034,-2.42223 8.12446,-5.13671 12.69761,-6.61187 2.50823,-0.80908 5.09364,-1.29345 7.68244,-1.74991 2.37901,-0.15824 4.84467,-0.10228 7.04658,0.95675 2.9273,1.4079 4.89881,3.91562 6.93265,6.33517 5.06938,6.9138 7.99482,14.99334 10.4194,23.13293 0.79439,3.28362 1.84008,7.16761 0.23125,10.4034 -0.1841,0.37028 -0.44564,0.69672 -0.66845,1.04508 -2.42522,2.68878 -5.64678,3.91981 -8.88664,5.76183 -0.34853,0.19816 -0.72826,0.3359 -1.08689,0.51516 -0.33133,0.16562 -1.30297,0.705 -0.98249,0.51924 1.80151,-1.04421 3.61747,-2.06329 5.4262,-3.09493 -0.27707,0.22246 -0.80813,0.52282 -0.84102,0.96921 -0.0921,1.24975 2.38402,2.18715 3.21299,2.55117 2.14602,0.79901 4.41145,1.08881 6.68382,1.19393 2.58571,0.0944 5.17367,0.0688 7.76042,0.0483 2.21674,0.0537 4.41697,-0.11877 6.62369,-0.29203 1.38014,0.0431 3.27987,-0.4793 4.62002,-0.17265 0.30119,0.0689 0.57805,0.21848 0.86707,0.32772 1.92558,0.91783 3.07508,2.74183 3.81891,4.66816 0.61192,2.23336 0.54947,4.57271 0.58477,6.86826 0.0116,1.52355 0.005,0.77947 0.0199,2.23226 0,0 -6.47205,3.29534 -6.47205,3.29534 v 0 c 0.0232,-1.46356 0.0155,-0.71571 0.0221,-2.24358 -0.008,-2.20731 0.004,-4.45331 -0.53918,-6.60696 -0.63487,-1.77474 -1.62726,-3.40273 -3.48417,-4.0844 -1.73399,-0.37999 -3.51809,-0.0464 -5.27415,0.0277 -2.19637,0.17635 -4.38967,0.28282 -6.59459,0.20361 -2.63036,0.002 -5.26178,0.0429 -7.89147,-0.0132 -2.29635,-0.17996 -4.55589,-0.64213 -6.70262,-1.49955 -1.32354,-0.61617 -4.72498,-2.15357 -3.78098,-4.2138 0.11673,-0.25475 0.37212,-0.41907 0.55819,-0.6286 2.34684,-1.35846 4.68493,-2.73214 7.04052,-4.07536 0.31384,-0.17896 0.64515,-0.3254 0.9665,-0.49048 2.1366,-1.09761 4.87958,-2.61775 -4.09053,2.47078 -0.32551,0.18466 0.63354,-0.40041 0.93104,-0.62745 0.30244,-0.23082 0.57716,-0.49587 0.86574,-0.7438 0.256,-0.30886 0.54773,-0.59131 0.76799,-0.92659 1.98102,-3.01556 1.19084,-6.99962 0.58022,-10.28059 -0.29797,-1.18218 -0.56008,-2.374 -0.89391,-3.54656 -1.9724,-6.92792 -4.90938,-13.64363 -9.40566,-19.31577 -1.72042,-1.88114 -2.63417,-3.10923 -4.70654,-4.55232 -2.74749,-1.91321 -5.89883,-2.36258 -9.16275,-1.98434 -2.55741,0.45325 -5.08103,0.94632 -7.54087,1.80815 -0.84591,0.29637 -1.6783,0.63338 -2.49529,1.00206 -0.77858,0.35135 -2.98726,1.64514 -2.28698,1.15602 1.23549,-0.86296 2.60119,-1.52261 3.90179,-2.28392 -1.96465,1.30931 -4.54733,2.9472 -4.95233,5.52295 -0.0503,0.31976 -0.004,0.64737 -0.006,0.97105 0.12837,0.33706 0.2224,0.68929 0.38509,1.01119 1.44326,2.85577 4.32263,4.96288 6.74097,6.91018 2.48898,1.73602 4.82006,3.21972 7.58107,4.50508 1.28295,0.59727 2.16113,0.991 3.5118,1.21725 0.2876,0.0482 0.58285,0.0208 0.87428,0.0311 0,0 -6.05753,4.40105 -6.05753,4.40105 z"
       inkscape:connector-curvature="0" /><path
       style="opacity:0.98999999;fill:#55d400;fill-opacity:1;stroke:#000000;stroke-width:0.89999998;stroke-miterlimit:4;stroke-dasharray:none;stroke-opacity:0.61194033;paint-order:normal"
       id="path35691"
       d="m 323.98522,674.64744 c -4.29788,-2.3879 -8.43061,-5.0602 -12.58321,-7.69095 -5.04614,-3.24841 -10.12817,-6.52458 -14.54381,-10.61331 -2.22693,-2.44878 -3.70151,-5.42243 -5.28491,-8.29544 -1.34297,-2.59458 -2.88429,-5.08045 -4.46793,-7.53329 -1.43409,-2.69129 -3.3144,-5.0453 -5.51062,-7.14494 -1.97691,-1.68443 -4.33755,-2.71937 -6.79081,-3.48685 -0.74784,-0.15232 -1.52893,-0.43106 -2.3041,-0.41705 -0.25403,0.005 -0.51418,0.0273 -0.75411,0.11089 -0.29785,0.10376 -0.55738,0.29539 -0.83607,0.44308 1.74325,-0.96759 3.4865,-1.93518 5.22975,-2.90277 -3.42755,2.74704 -4.36034,6.60786 -5.12141,10.73037 -0.39914,3.56925 0.18709,7.08809 2.11554,10.16347 1.34838,2.15031 2.09432,2.63552 3.94522,4.41002 4.80488,3.70608 10.65683,5.09631 16.55363,5.85522 2.29522,0.14125 4.73918,0.53063 7.00711,-0.092 0.36893,-0.10129 0.72246,-0.25203 1.08369,-0.37805 0.40319,-0.20499 0.81362,-0.39632 1.20956,-0.61497 0.41256,-0.22784 1.63203,-0.94253 1.21459,-0.72375 -1.64628,0.86279 -3.19339,1.92613 -4.90253,2.65653 -0.48629,0.20782 0.8041,-0.68884 1.17657,-1.06424 1.04166,-1.04987 1.17655,-1.35046 2.03352,-2.56482 1.89518,-3.14349 3.72518,-6.33639 5.47693,-9.56385 1.34196,-2.1928 2.43167,-4.50356 3.37061,-6.89144 0.62828,-1.58805 1.61922,-2.96933 2.75022,-4.23204 0,0 6.75489,-2.81849 6.75489,-2.81849 v 0 c -1.18437,1.17713 -2.24488,2.45564 -2.92406,4.00079 -0.95449,2.45288 -2.06034,4.82934 -3.49072,7.04914 -1.79867,3.21665 -3.64836,6.404 -5.44852,9.61893 -0.83682,1.31147 -0.91114,1.55059 -1.94713,2.69745 -2.91826,3.23061 -7.11152,5.02416 -10.99,6.87139 -0.39888,0.10887 -0.79108,0.24613 -1.19664,0.32662 -2.24416,0.44536 -4.59259,-0.052 -6.81877,-0.3068 -5.89879,-1.02732 -11.7452,-2.60848 -16.56869,-6.33693 -2.02292,-1.87791 -2.69369,-2.24767 -4.15628,-4.54876 -2.01609,-3.1719 -2.70587,-6.79515 -2.40486,-10.50577 0.62838,-4.06682 1.49002,-8.11733 4.54935,-11.10603 2.40813,-1.41011 4.7782,-2.88732 7.22438,-4.23033 1.30603,-0.71705 2.91504,-0.10686 4.21059,0.27149 2.46555,0.916 4.78642,2.13379 6.79777,3.85522 2.22233,2.13797 4.1704,4.54323 5.66564,7.25087 1.56443,2.48581 3.06676,5.01133 4.4521,7.60208 1.50056,2.83317 2.96866,5.72819 5.06866,8.17606 4.11708,4.25833 8.98485,7.65587 13.99564,10.78509 4.29697,2.62203 8.62402,5.29077 13.37411,7.02456 0,0 -6.21489,4.16363 -6.21489,4.16363 z"
       inkscape:connector-curvature="0" /><path
       style="opacity:0.98999999;fill:#00d4aa;fill-opacity:1;stroke:#000000;stroke-width:0.89999998;stroke-miterlimit:4;stroke-dasharray:none;stroke-opacity:0.61194033;paint-order:normal"
       id="path35693"
       d="m 314.36952,667.32679 c -0.1555,-0.18148 -0.29532,-0.37768 -0.46651,-0.54445 -0.6443,-0.62762 -1.36201,-1.17527 -2.03383,-1.77335 -1.95443,-1.73989 -3.8756,-3.5164 -5.79715,-5.29232 -5.19847,-4.9479 -10.1116,-10.19148 -14.86237,-15.56808 -2.23876,-2.83181 -4.70353,-5.62191 -6.12442,-8.98786 -0.19905,-0.47152 -0.34487,-0.96378 -0.5173,-1.44568 -0.68535,-2.38358 -0.95351,-4.8863 -0.70583,-7.35437 0.96118,-4.60128 4.10846,-4.6222 8.71887,-7.14179 3.05478,-0.4675 6.01354,0.2753 8.94935,1.0356 1.96348,0.67498 4.16965,1.06443 5.9418,2.2189 0.74004,0.48211 0.95174,0.83191 1.49035,1.48445 1.00934,1.36754 0.79897,3.11879 1.32831,4.6504 0.18239,0.20442 0.33171,0.44405 0.54716,0.61326 0.63191,0.49628 2.25959,1.29243 2.86036,1.54361 2.81303,1.17607 5.75259,1.80255 8.72089,2.43543 4.95671,0.67327 10.13668,1.75903 15.16205,1.19292 0.57457,-0.0647 1.13834,-0.20364 1.70751,-0.30545 1.77324,-0.77588 8.12562,-3.59459 -4.40965,2.52218 -0.17739,0.0866 0.26744,-0.29965 0.34546,-0.48096 0.0688,-0.16 0.0557,-0.34388 0.0835,-0.51582 0,0 6.59091,-3.32787 6.59091,-3.32787 v 0 c 0.0118,0.26571 0.0741,0.53399 0.0353,0.79713 -0.4752,3.22803 -5.29879,4.43363 -8.31744,5.24631 -5.55184,0.52872 -11.10698,-0.58038 -16.58188,-1.38234 -3.09441,-0.62418 -6.18046,-1.23164 -9.15306,-2.32469 -0.88383,-0.325 -2.47541,-0.99017 -3.28678,-1.62619 -0.28706,-0.22502 -0.48268,-0.54696 -0.72402,-0.82044 -0.10794,-0.26949 -0.2474,-0.5284 -0.32382,-0.80847 -0.33005,-1.20944 -0.0333,-2.58251 -0.85675,-3.6565 -0.17288,-0.21969 -0.32252,-0.45986 -0.51864,-0.65907 -1.60762,-1.63293 -4.32871,-2.10439 -6.40035,-2.82142 -2.95113,-0.68798 -6.0068,-1.3446 -9.001,-0.48693 1.88846,-1.12377 3.78917,-2.22721 5.66539,-3.3713 0.17358,-0.10585 -0.38422,0.14315 -0.55425,0.25461 -0.85204,0.55854 -1.20413,1.59554 -1.48257,2.5155 -0.4202,2.37313 -0.15017,4.79674 0.4171,7.128 0.42181,1.32031 0.46039,1.59856 1.08507,2.87914 1.32833,2.72308 3.19799,5.15955 5.01418,7.56497 4.54364,5.51998 9.43716,10.76692 14.81368,15.48857 2.93887,2.49149 5.94089,4.8999 9.0146,7.21824 0,0 -6.37423,3.90613 -6.37423,3.90613 z"
       inkscape:connector-curvature="0" /><path
       style="opacity:0.98999999;fill:#00ccff;fill-opacity:1;stroke:#000000;stroke-width:0.89999998;stroke-miterlimit:4;stroke-dasharray:none;stroke-opacity:0.61194033;paint-order:normal"
       id="path35695"
       d="m 420.24608,712.14597 c -4.11358,-0.88164 -8.30072,-1.27895 -12.36485,-2.41873 -1.09261,-0.30643 -2.16059,-0.69474 -3.24088,-1.04211 -4.09513,-1.42327 -8.20551,-3.2879 -10.71884,-6.99256 -0.32629,-0.48096 -0.57459,-1.01047 -0.86188,-1.5157 -0.83343,-1.85329 -1.66997,-4.00157 -0.64137,-5.95755 0.2005,-0.38125 0.49003,-0.70858 0.73504,-1.06287 1.06801,-0.98659 1.16676,-1.18935 2.46174,-1.92164 6.32596,-3.57727 6.67308,-4.38294 12.3628,-5.20665 5.04854,-0.6752 8.48484,1.32055 12.712,3.76123 3.97154,2.4921 7.82308,5.37777 10.29433,9.44883 0.40177,0.66185 0.71578,1.37314 1.07366,2.0597 0.86792,2.40399 1.94707,4.98153 1.74273,7.60443 -0.10856,1.39348 -0.45018,1.96718 -0.95996,3.24167 -1.1641,2.63237 -3.77983,3.90751 -5.65728,5.89948 -0.16691,0.28403 -0.39977,0.53849 -0.50071,0.85208 -0.27446,0.85272 0.002,1.37606 0.45804,2.12579 1.03018,1.69497 2.49822,2.69703 4.09907,3.79494 1.92067,1.05726 4.05026,2.27549 6.34557,1.95952 1.28287,-0.1766 1.85062,-0.635 2.9858,-1.25538 -1.41471,0.76093 -2.73388,1.73548 -4.24414,2.28279 -0.71567,0.25935 1.22012,-0.91172 1.80504,-1.39887 2.42274,-2.01778 4.48549,-4.38587 6.58765,-6.72249 2.49788,-2.81419 5.06671,-5.57633 7.39968,-8.53077 0.76566,-0.98693 1.25916,-2.12386 1.76229,-3.25446 0.0621,-0.13951 0.54986,-1.33748 0.78143,-1.48827 2.20076,-1.43313 4.51006,-2.69226 6.76509,-4.03839 0.23734,0.092 0.49902,0.13667 0.71202,0.27606 1.72208,1.12697 1.97686,4.24599 2.22766,6.04299 0.4422,3.48215 0.49693,6.99033 0.55229,10.49431 0.022,2.40132 0.06,4.80249 0.0969,7.20363 0.14573,1.98164 -0.21034,3.92119 -0.49868,5.87139 -0.0559,0.45654 -0.25586,1.99805 -0.27258,2.48505 -0.01,0.28065 -0.009,0.56574 0.0452,0.84124 0.015,0.0759 0.22457,0.13866 0.15509,0.17272 -2.02007,0.99032 -3.995,2.14037 -6.15521,2.76879 -0.48893,0.14224 0.59627,-0.82558 0.89441,-1.23838 1.97221,-3.16507 3.26832,-6.65175 4.35336,-10.19866 0.37118,-1.23005 0.74104,-2.46099 1.16768,-3.67328 0.0998,-0.28368 0.20393,-0.56593 0.31404,-0.84577 0.0522,-0.1327 0.044,-0.32995 0.17274,-0.39138 2.25868,-1.07814 4.59431,-1.98708 6.89146,-2.98062 0.0652,0.28845 0.1606,0.57171 0.1957,0.86535 0.10633,0.88961 0.0156,1.73068 -0.0495,2.62214 -0.11171,1.52853 -0.26143,3.05038 -0.43891,4.57246 -0.21028,2.56409 -1.00983,5.01944 -1.61168,7.50621 -0.48253,1.80342 -0.82795,3.6363 -1.1562,5.47256 -0.28114,1.87839 -0.87901,3.68294 -1.1817,5.55866 -0.24443,1.76085 -0.29605,3.54011 -0.31523,5.31532 0.002,1.78931 -0.0163,3.57865 -0.01,5.36797 -0.0302,1.53423 -0.0553,3.04727 0.69489,4.42345 0,0 -6.40946,3.66616 -6.40946,3.66616 v 0 c -0.76679,-1.50864 -0.89449,-3.09773 -0.78887,-4.77452 3.7e-4,-1.79004 -0.0337,-3.58024 -0.008,-5.37022 0.0237,-1.80863 0.0313,-3.62408 0.29208,-5.41826 0.0645,-0.44221 0.21513,-1.52878 0.30977,-1.96483 0.26148,-1.20488 0.75977,-2.36018 0.85658,-3.60048 0.3062,-1.86667 0.62524,-3.72805 1.19026,-5.53842 0.56996,-2.49839 1.49464,-4.92103 1.75383,-7.48562 0.29463,-2.43372 0.72656,-5.0068 0.25042,-7.43231 2.14296,-1.21344 4.29562,-2.4099 6.42886,-3.64033 0.13353,-0.077 -0.32831,0.0596 -0.42666,0.17833 -0.19896,0.24012 -0.29389,0.55103 -0.41558,0.83815 -0.5055,1.19259 -0.80925,2.45677 -1.23776,3.67621 -1.13685,3.56629 -2.5733,7.02374 -4.30229,10.34611 -1.60317,3.67804 -0.48293,1.88486 -7.75843,5.04956 -0.16328,0.071 -0.14048,-0.33259 -0.16046,-0.50953 -0.0362,-0.32029 -0.0248,-0.64517 -0.006,-0.96696 0.007,-0.1181 0.26911,-2.43982 0.27737,-2.51334 0.23294,-1.91048 0.53441,-3.80123 0.43324,-5.73278 0.0552,-2.43302 0.11636,-4.86645 0.11278,-7.30022 -0.007,-3.4765 -0.0495,-6.9652 -0.47307,-10.42005 -0.16532,-0.96644 -0.66881,-4.84062 -2.04551,-5.07586 -0.14425,-0.0247 -0.28327,0.0736 -0.42491,0.11044 1.92704,-1.1647 3.85409,-2.3294 5.78113,-3.4941 -0.17718,0.16169 -0.39127,0.29049 -0.53155,0.48506 -0.90535,1.25574 -1.15023,3.16136 -2.2487,4.33217 -2.33986,3.03901 -5.04682,5.78895 -7.58255,8.66346 -1.58428,1.74783 -3.11325,3.55163 -4.79915,5.20421 -3.34409,3.27799 -6.84849,5.54049 -11.20967,7.7019 -1.37303,0.6107 -1.79877,0.97184 -3.28341,1.02518 -2.35805,0.0847 -4.47803,-1.24213 -6.42797,-2.37329 -1.82251,-1.27102 -5.7304,-4.03209 -5.3011,-6.68191 0.059,-0.3643 0.30103,-0.67394 0.45154,-1.0109 0.23135,-0.30552 0.42719,-0.6415 0.69404,-0.91654 0.48586,-0.50079 1.46664,-1.10492 2.0037,-1.50764 1.253,-0.93954 2.39599,-1.97509 3.19067,-3.34735 0.47919,-1.03349 0.94491,-1.83535 1.10752,-2.9845 0.35581,-2.51448 -0.6776,-5.07349 -1.44695,-7.39993 -0.33024,-0.66886 -0.6169,-1.36106 -0.9907,-2.00658 -2.33788,-4.03724 -6.05552,-6.90252 -10.00176,-9.25637 -4.43143,-2.35367 -7.62731,-3.98628 -12.76811,-3.16318 -1.29235,0.22163 -1.87543,0.28142 -3.13705,0.65965 -0.51751,0.15515 -1.9634,0.85877 -1.52915,0.53733 1.44987,-1.07323 3.08942,-1.8635 4.61695,-2.82298 0.43918,-0.27586 -0.91964,0.48381 -1.35109,0.77162 -0.39247,0.26181 -0.74275,0.58192 -1.11413,0.87288 -0.56468,0.64718 -0.98061,0.988 -1.26603,1.81083 -0.51907,1.49641 0.20297,3.14396 0.68439,4.53133 0.24917,0.48616 0.45887,0.99467 0.74751,1.45848 2.27575,3.65685 6.22261,5.47444 10.13566,6.86811 1.0666,0.33466 2.11897,0.71864 3.19982,1.00397 4.24523,1.12068 8.63783,1.4499 12.99036,1.87306 0,0 -6.02815,4.28857 -6.02815,4.28857 z"
       inkscape:connector-curvature="0" /><path
       style="opacity:0.98999999;fill:#0066ff;fill-opacity:1;stroke:#000000;stroke-width:0.89999998;stroke-miterlimit:4;stroke-dasharray:none;stroke-opacity:0.61194033;paint-order:normal"
       id="path35699"
       d="m 309.73364,664.97203 c -3.28521,-2.01262 -6.54076,-4.05218 -9.63184,-6.35842 -3.27008,-2.60539 -6.31539,-5.56471 -8.63604,-9.06432 -1.20887,-1.82302 -1.90424,-3.29844 -2.90164,-5.2322 -1.53836,-3.05839 -2.77525,-6.26503 -4.53525,-9.21073 -0.94148,-1.57575 -1.14702,-1.75977 -2.2271,-3.15435 -1.12647,-1.14553 -2.30386,-2.36732 -3.80401,-3.02678 -0.58925,-0.25903 -0.9917,-0.31232 -1.61228,-0.44436 -1.72517,-0.23061 -3.47213,-0.18463 -5.20794,-0.15174 -0.29309,0.0529 -0.58959,0.0895 -0.87928,0.15864 -0.61665,0.1471 -1.18871,0.35235 -1.76319,0.61919 -0.27168,0.1262 -1.05572,0.56641 -0.7961,0.41697 6.14847,-3.53902 7.13113,-4.23665 4.69088,-2.57884 -1.61777,1.11101 -2.46361,2.76459 -3.27397,4.49065 -0.94422,2.50668 -1.57836,5.24555 -1.44973,7.94421 0.0297,0.62376 0.15156,1.23972 0.22734,1.85958 0.70892,3.10969 2.72289,5.50367 4.76834,7.83403 0.67316,0.67901 1.636,2.3329 2.86483,1.88131 0.19616,-0.0721 0.34699,-0.23301 0.52048,-0.34951 -1.91587,1.05971 -3.78502,2.2087 -5.74762,3.17914 -0.25979,0.12846 0.42205,-0.40106 0.59683,-0.63224 0.19167,-0.25353 0.35897,-0.52748 0.49655,-0.81399 0.64024,-1.33326 0.78728,-2.79927 0.98909,-4.24228 0.33727,-2.90537 0.25511,-5.84452 0.5833,-8.7505 0.20026,-1.77322 0.50177,-3.15251 0.83929,-4.90247 0.90901,-4.26923 1.66351,-8.5598 2.09524,-12.90367 0.19466,-2.22224 0.21266,-4.45349 0.24028,-6.68226 0.01,-1.74986 -0.0328,-3.49965 -0.0245,-5.24939 0.0541,-1.05223 -0.24924,-2.89321 0.89002,-3.54854 2.36183,-1.3586 4.79844,-2.58284 7.19766,-3.87426 0.35544,-0.0476 0.70788,-0.13171 1.06632,-0.14269 3.29561,-0.10097 6.82305,1.44246 9.79898,2.6607 3.42648,1.40282 6.85118,2.81101 10.26545,4.24246 1.60838,0.72248 2.49362,1.92767 2.94464,3.58424 0.13148,0.89041 0.0803,0.44589 0.15459,1.33345 0,0 -6.55859,3.40002 -6.55859,3.40002 v 0 c -0.046,-0.82061 -0.0105,-0.41483 -0.10545,-1.21743 -0.33312,-1.56018 -1.01378,-2.37796 -2.4719,-3.09076 -3.26473,-1.55558 -6.51964,-3.13915 -9.89067,-4.4563 -3.44409,-1.32094 -7.25318,-2.7751 -10.97562,-1.83796 1.81115,-1.10152 3.64608,-2.16489 5.43346,-3.30458 0.18727,-0.11941 -0.44097,0.10939 -0.6227,0.23707 -0.1528,0.10736 -0.26254,0.27413 -0.34404,0.44214 -0.33153,0.68347 -0.23353,1.51808 -0.2563,2.24487 0.0191,1.75617 -0.002,3.51285 0.002,5.26912 -0.003,2.29224 -0.13164,4.57925 -0.42056,6.85473 -0.52276,4.38838 -1.36735,8.72048 -2.25594,13.04779 -0.35734,1.80041 -0.63253,2.98644 -0.83723,4.81003 -0.32415,2.88779 -0.21955,5.80173 -0.41623,8.69691 -0.15308,1.80283 -0.21861,3.67756 -1.09566,5.30658 -0.14522,0.26971 -0.23226,0.60996 -0.48787,0.77876 -2.23305,1.47462 -4.60104,2.73395 -6.90155,4.10092 -0.24584,0.0328 -0.48974,0.10923 -0.73751,0.0983 -1.39631,-0.0618 -2.24721,-1.50935 -3.04467,-2.43862 -1.99052,-2.52908 -3.95765,-5.11035 -4.75839,-8.29884 -0.0932,-0.64871 -0.23119,-1.29254 -0.27952,-1.94613 -0.20169,-2.72804 0.32316,-5.52717 1.14724,-8.11336 0.72411,-1.80664 1.47083,-3.5793 3.04517,-4.81635 3.27979,-2.49967 7.21448,-5.17841 11.47009,-5.62006 1.77299,1.1e-4 3.56358,-0.0403 5.31015,0.31487 0.68521,0.2066 1.06574,0.28437 1.70759,0.63549 1.4864,0.81312 2.6271,2.15753 3.72993,3.40296 2.34522,3.31761 3.70903,6.39742 5.35609,10.08119 0.38181,0.85393 0.78925,1.69616 1.18388,2.54425 0.83074,1.64303 1.77883,3.62918 2.78758,5.17371 2.26902,3.47418 5.32916,6.34285 8.62716,8.82262 3.20908,2.21976 6.52547,4.29849 10.11277,5.86053 0,0 -6.19212,4.12653 -6.19212,4.12653 z"
       inkscape:connector-curvature="0" /><path
       style="opacity:0.98999999;fill:#ab37c8;fill-opacity:1;stroke:#000000;stroke-width:0.89999998;stroke-miterlimit:4;stroke-dasharray:none;stroke-opacity:0.61194033;paint-order:normal"
       id="path35701"
       d="m 425.62896,727.53415 c -2.51479,0.70452 -5.08138,1.20507 -7.66189,1.62643 -3.42431,0.41674 -6.87205,0.62994 -10.31082,0.91043 -1.13226,0.1434 -2.37569,0.0655 -3.45743,0.50868 -0.23836,0.0977 -0.88312,0.53036 -0.6577,0.4057 5.96008,-3.29604 6.98498,-5.23467 5.64541,-2.90068 0.0215,0.19694 -0.005,0.4054 0.0645,0.59081 0.3704,0.98431 1.77245,1.78064 2.57686,2.25221 1.26682,0.74264 2.60314,1.35979 3.90408,2.04089 4.6312,2.11379 9.37187,3.99672 14.19644,5.62293 3.19239,1.05998 6.46645,1.83534 9.68622,2.80889 2.07877,0.58803 3.95022,1.65587 5.74428,2.83236 1.85466,1.27386 3.32657,2.93305 4.79475,4.615 0,0 -6.10276,3.68465 -6.10276,3.68465 v 0 c -1.44475,-1.64282 -2.98072,-3.1693 -4.82842,-4.36486 -1.73706,-1.14417 -3.57491,-2.1021 -5.5726,-2.71145 -3.13152,-1.07474 -6.35776,-1.82955 -9.46177,-2.9831 -4.7936,-1.75067 -9.5082,-3.72121 -14.19856,-5.72789 -1.96678,-0.94913 -5.1789,-2.16604 -6.68278,-3.77427 -0.57572,-0.61567 -0.56776,-0.91135 -0.78657,-1.67344 0.0141,-0.26156 -0.17019,-0.63135 0.0422,-0.78468 5.19519,-3.75065 5.87406,-4.43547 10.82556,-4.67286 3.41276,-0.24001 6.83688,-0.4313 10.22389,-0.9266 2.70308,-0.47214 5.35463,-1.12141 7.98524,-1.89785 0,0 -5.96808,4.5187 -5.96808,4.5187 z"
       inkscape:connector-curvature="0" /></g></svg>