<?xml version="1.0" encoding="UTF-8" standalone="no"?>
<!-- Generator: Adobe Illustrator 16.0.0, SVG Export Plug-In . SVG Version: 6.00 Build 0)  -->

<svg
   xmlns:dc="http://purl.org/dc/elements/1.1/"
   xmlns:cc="http://creativecommons.org/ns#"
   xmlns:rdf="http://www.w3.org/1999/02/22-rdf-syntax-ns#"
   xmlns:svg="http://www.w3.org/2000/svg"
   xmlns="http://www.w3.org/2000/svg"
   xmlns:sodipodi="http://sodipodi.sourceforge.net/DTD/sodipodi-0.dtd"
   xmlns:inkscape="http://www.inkscape.org/namespaces/inkscape"
   version="1.1"
   id="svg2"
   sodipodi:docname="mountainsDoor.svg"
   inkscape:version="0.92.2 5c3e80d, 2017-08-06"
   x="0px"
   y="0px"
   width="430.543px"
   height="325.295px"
   viewBox="0 0 430.543 325.295"
   enable-background="new 0 0 430.543 325.295"
   xml:space="preserve"><metadata
     id="metadata19"><rdf:RDF><cc:Work
         rdf:about=""><dc:format>image/svg+xml</dc:format><dc:type
           rdf:resource="http://purl.org/dc/dcmitype/StillImage" /><dc:title></dc:title></cc:Work></rdf:RDF></metadata><defs
     id="defs3"><inkscape:perspective
       id="perspective2985"
       inkscape:vp_z="744.09448 : 526.18109 : 1"
       inkscape:vp_y="0 : 1000 : 0"
       inkscape:vp_x="0 : 526.18109 : 1"
       sodipodi:type="inkscape:persp3d"
       inkscape:persp3d-origin="372.04724 : 350.78739 : 1" /></defs><sodipodi:namedview
     units="mm"
     fit-margin-left="0"
     fit-margin-top="0"
     showguides="true"
     showgrid="false"
     inkscape:cy="278.43502"
     inkscape:cx="107.36538"
     inkscape:zoom="1.979899"
     borderopacity="1.0"
     bordercolor="#666666"
     pagecolor="#ffffff"
     id="base"
     inkscape:pageshadow="2"
     inkscape:pageopacity="0.0"
     fit-margin-bottom="0"
     fit-margin-right="0"
     inkscape:guide-bbox="true"
     inkscape:window-maximized="1"
     inkscape:window-y="1"
     inkscape:window-x="0"
     inkscape:window-height="672"
     inkscape:window-width="1366"
     inkscape:object-nodes="true"
     inkscape:current-layer="layer1"
     inkscape:document-units="mm" /><g
     id="layer1"
     transform="translate(-53.643411,-569.625)"
     inkscape:label="Layer 1"
     inkscape:groupmode="layer"><path
       id="path3910"
       sodipodi:nodetypes="cccccc"
       inkscape:connector-curvature="0"
       fill="#D7D7F4"
       d="M268.925,570.139   L54.144,698.264l9.313,5.563l205.469-122.594l9.281-5.563L268.925,570.139z" /><path
       id="path3918"
       inkscape:connector-curvature="0"
       fill="#F2F2F2"
       d="M54.145,698.276v68l9.312,5.555v-68L54.145,698.276z" /><path
       id="path5998"
       inkscape:connector-curvature="0"
       fill="none"
       d="M54.21,764.597l9.312,5.556L63.49,759.09l-9.25-5.531   L54.21,764.597z" /><path
       id="path6000"
       inkscape:connector-curvature="0"
       fill="none"
       d="M54.179,753.534l9.312,5.556l-0.031-11.063l-9.25-5.531   L54.179,753.534z" /><path
       id="path6002"
       inkscape:connector-curvature="0"
       fill="none"
       d="M54.209,742.496l9.311,5.556l-0.031-11.063l-9.25-5.531   L54.209,742.496z" /><path
       id="path6004"
       inkscape:connector-curvature="0"
       fill="none"
       d="M54.239,731.458l9.311,5.557l-0.031-11.063l-9.25-5.531   L54.239,731.458z" /><path
       id="path6006"
       inkscape:connector-curvature="0"
       fill="none"
       d="M54.207,720.396l9.312,5.556l-0.031-11.063l-9.25-5.531   L54.207,720.396z" /><path
       id="path6008"
       inkscape:connector-curvature="0"
       fill="none"
       d="M54.176,709.333l9.312,5.556l-0.031-11.063l-9.25-5.531   L54.176,709.333z" /><path
       id="path6042"
       sodipodi:nodetypes="ccccc"
       inkscape:connector-curvature="0"
       fill="#F2F2F2"
       d="M185.214,632.973   l-0.089,55.214l9.312,5.556l0.031-55.25L185.214,632.973z" /><path
       id="path6059"
       inkscape:connector-curvature="0"
       fill="#F2F2F2"
       d="M185.125,688.188l9.312,5.556l-37.155,22.163l-9.25-5.594   L185.125,688.188z" /><path
       id="path6053"
       sodipodi:nodetypes="ccccccccc"
       inkscape:connector-curvature="0"
       fill="#B3B3B3"
       d="M278.206,575.67   L63.469,703.844v68l93.812-55.969l0.03-55.194l37.156-22.188l-0.03,55.163l83.769-49.986V575.67z" /><path
       style="fill:#ffcc00;stroke-width:0.50507629"
       d="m 10.147254,167.90152 0.0091,-33.71384 64.2619,-38.337359 C 109.76226,74.76477 157.84914,46.070124 181.27795,32.08444 204.70677,18.098755 223.96911,6.6559224 224.08317,6.6559224 c 0.11405,0 0.201,15.1712286 0.19322,33.7138406 l -0.0141,33.713841 -41.65035,24.828504 -41.65036,24.828512 -0.13055,-27.488365 -0.13057,-27.488356 -18.43528,11.003778 -18.43528,11.003779 -0.25254,27.730964 -0.25254,27.73096 -46.407724,27.69099 c -25.524258,15.23004 -46.491237,27.69099 -46.593296,27.69099 -0.102059,0 -0.181486,-15.17123 -0.176506,-33.71384 z"
       id="path21"
       inkscape:connector-curvature="0"
       transform="translate(53.643411,569.625)" /><path
       style="fill:#ffcc00;stroke-width:0.50507629"
       d="M 4.987034,131.30294 C 2.6816977,129.88872 0.9770653,128.57166 1.1989618,128.37613 2.1544495,127.5342 214.79373,0.93320691 215.25353,0.93250339 c 0.78129,-0.001195 8.83498,4.74671971 8.83498,5.20850991 0,0.2237589 -0.356,0.5434439 -0.79111,0.710412 -0.43512,0.1669676 -7.19683,4.1357207 -15.02602,8.8194527 C 123.34077,66.479666 10.570928,133.61107 9.9556799,133.72736 9.5282606,133.80816 7.2923698,132.71717 4.987034,131.30294 Z"
       id="path23"
       inkscape:connector-curvature="0"
       transform="translate(53.643411,569.625)" /><path
       style="fill:#0051bf;stroke-width:0.50507629;fill-opacity:1"
       d="m 103.99008,140.4174 0.14281,-5.63958 13.51079,-8.05522 13.51079,-8.05522 0.001,-8.90737 c 5.6e-4,-4.89905 0.15048,-14.865139 0.33313,-22.146864 l 0.33212,-13.2395 4.33883,-2.511894 4.33882,-2.511894 0.25254,27.368149 0.25254,27.368143 -18.3764,10.98541 c -10.10702,6.04198 -18.46716,10.98541 -18.5781,10.98541 -0.11093,0 -0.13742,-2.5378 -0.0589,-5.63957 z"
       id="path25"
       inkscape:connector-curvature="0"
       transform="translate(53.643411,569.625)" /><path
       style="fill:#ffcc00;stroke-width:0.50507629"
       d="M 4.8854056,199.34267 0.59225728,196.74405 0.46245005,162.53498 0.33264283,128.32591 2.7352933,129.98006 c 1.3214577,0.90978 3.4254298,2.22868 4.6754936,2.93088 l 2.2728432,1.27674 -0.2525381,33.8768 -0.2525381,33.8768 z"
       id="path27"
       inkscape:connector-curvature="0"
       transform="translate(53.643411,569.625)" /><path
       style="fill:#0051bf;stroke-width:0.50507629;fill-opacity:1"
       d="m 10.405832,167.64898 0.0151,-33.4613 9.455085,-5.61421 C 25.076308,125.48566 68.196716,99.780259 115.69914,71.450369 220.88014,8.7216473 223.50434,7.1609987 223.80073,7.1609987 c 0.1305,0 0.23092,15.0575863 0.22317,33.4613033 l -0.0141,33.461302 -41.27589,24.567057 -41.27588,24.567059 -0.31224,-26.983789 c -0.17174,-14.84108 -0.42146,-27.092988 -0.55493,-27.226464 -0.23717,-0.237164 -35.51014,20.590525 -36.50848,21.557215 -0.31833,0.308248 -0.59844,10.679218 -0.75761,28.050398 l -0.25254,27.56132 -25.758888,15.36587 c -44.820781,26.73679 -66.446651,39.56802 -66.688323,39.56802 -0.128861,0 -0.2275,-15.05759 -0.219197,-33.46131 z"
       id="path24"
       inkscape:connector-curvature="0"
       transform="translate(53.643411,569.625)" /><path
       style="fill:#ffff00;stroke-width:0.50507629"
       d=""
       id="path26"
       inkscape:connector-curvature="0"
       transform="translate(53.643411,569.625)" /><path
       style="fill:#0051bf;stroke-width:0.50507629;fill-opacity:1"
       d="m 5.371687,131.26975 c -1.9342067,-1.18817 -3.4921672,-2.37732 -3.4621345,-2.64256 0.030033,-0.26524 1.4563845,-1.33953 3.1696709,-2.38732 C 13.780591,120.9184 168.49607,28.777673 201.54042,9.2375041 l 13.81741,-8.1706704 3.35518,1.8342878 c 5.73708,3.1364694 5.71647,3.0391907 1.20154,5.6715285 -2.149,1.2529285 -18.45346,10.96176 -36.23215,21.575181 -75.27705,44.938481 -134.032015,79.932599 -160.991853,95.885819 -6.87469,4.06803 -12.7925396,7.39642 -13.1507781,7.39642 -0.3582384,0 -2.2338755,-0.97214 -4.1680819,-2.16032 z"
       id="path28"
       inkscape:connector-curvature="0"
       transform="translate(53.643411,569.625)" /><path
       style="fill:#0051bf;stroke-width:0.50507629;fill-opacity:1"
       d="M 4.7560992,199.01444 0.59225697,196.49163 V 162.6582 c 0,-26.93559 0.12871647,-33.75486 0.63134533,-33.44801 0.3472399,0.21199 2.320884,1.46572 4.3858758,2.78608 l 3.7545304,2.40064 -0.1351382,33.48296 c -0.074326,18.41562 -0.1742408,33.5222 -0.2220336,33.57017 -0.047795,0.048 -1.9606248,-1.04805 -4.2507375,-2.4356 z"
       id="path30"
       inkscape:connector-curvature="0"
       transform="translate(53.643411,569.625)" /><path
       style="fill:#ffff00;stroke-width:0.50507629;fill-opacity:0"
       d="m 104.13289,140.2789 v -5.27301 l 13.63706,-8.12329 13.63706,-8.12329 10e-4,-11.22617 c 6.6e-4,-6.1744 0.14977,-16.144557 0.3313,-22.155908 l 0.33004,-10.929727 3.82385,-2.202256 c 2.10311,-1.21124 3.99959,-2.278016 4.21438,-2.370614 0.2148,-0.0926 0.43809,10.589766 0.49621,23.738585 0.0648,14.66096 0.21927,20.97688 0.39941,16.3308 l 0.29375,-7.57614 0.10566,10.40205 c 0.0951,9.35871 0.017,10.47871 -0.77822,11.16634 -0.9385,0.81153 -35.82117,21.61563 -36.24337,21.61563 -0.13661,0 -0.24839,-2.37285 -0.24839,-5.273 z"
       id="path32"
       inkscape:connector-curvature="0"
       transform="translate(53.643411,569.625)" /></g></svg>