<?xml version="1.0" encoding="UTF-8" standalone="no"?>
<!-- Generator: Adobe Illustrator 16.0.0, SVG Export Plug-In . SVG Version: 6.00 Build 0)  -->

<svg
   xmlns:dc="http://purl.org/dc/elements/1.1/"
   xmlns:cc="http://creativecommons.org/ns#"
   xmlns:rdf="http://www.w3.org/1999/02/22-rdf-syntax-ns#"
   xmlns:svg="http://www.w3.org/2000/svg"
   xmlns="http://www.w3.org/2000/svg"
   xmlns:sodipodi="http://sodipodi.sourceforge.net/DTD/sodipodi-0.dtd"
   xmlns:inkscape="http://www.inkscape.org/namespaces/inkscape"
   version="1.1"
   id="svg2"
   sodipodi:docname="nighttop.svg"
   inkscape:version="0.92.3 (2405546, 2018-03-11)"
   x="0px"
   y="0px"
   width="430.543px"
   height="325.295px"
   viewBox="0 0 430.543 325.295"
   enable-background="new 0 0 430.543 325.295"
   xml:space="preserve"><metadata
   id="metadata22199"><rdf:RDF><cc:Work
       rdf:about=""><dc:format>image/svg+xml</dc:format><dc:type
         rdf:resource="http://purl.org/dc/dcmitype/StillImage" /><dc:title></dc:title></cc:Work></rdf:RDF></metadata>
<defs
   id="defs22183">
	
	
		<inkscape:perspective
   id="perspective2985"
   inkscape:vp_z="744.09448 : 526.18109 : 1"
   inkscape:vp_y="0 : 1000 : 0"
   inkscape:vp_x="0 : 526.18109 : 1"
   sodipodi:type="inkscape:persp3d"
   inkscape:persp3d-origin="372.04724 : 350.78739 : 1">
		</inkscape:perspective>
</defs>
<sodipodi:namedview
   units="mm"
   fit-margin-left="0"
   fit-margin-top="0"
   showguides="true"
   showgrid="false"
   inkscape:cy="238.02892"
   inkscape:cx="158.88316"
   inkscape:zoom="1.979899"
   borderopacity="1.0"
   bordercolor="#666666"
   pagecolor="#ffffff"
   id="base"
   inkscape:pageshadow="2"
   inkscape:pageopacity="0.0"
   fit-margin-bottom="0"
   fit-margin-right="0"
   inkscape:guide-bbox="true"
   inkscape:window-maximized="1"
   inkscape:window-y="-8"
   inkscape:window-x="-8"
   inkscape:window-height="705"
   inkscape:window-width="1366"
   inkscape:object-nodes="true"
   inkscape:current-layer="layer1"
   inkscape:document-units="mm">
	</sodipodi:namedview>
<g
   id="layer1"
   transform="translate(-53.643411,-569.625)"
   inkscape:label="Layer 1"
   inkscape:groupmode="layer">
	<path
   id="path3910"
   sodipodi:nodetypes="cccccc"
   inkscape:connector-curvature="0"
   fill="#D7D7F4"
   d="M268.925,570.139   L54.144,698.264l9.313,5.563l205.469-122.594l9.281-5.563L268.925,570.139z" />
	<path
   id="path3918"
   inkscape:connector-curvature="0"
   fill="#F2F2F2"
   d="M54.145,698.276v68l9.312,5.555v-68L54.145,698.276z" />
	<path
   id="path5998"
   inkscape:connector-curvature="0"
   fill="none"
   d="M54.21,764.597l9.312,5.556L63.49,759.09l-9.25-5.531   L54.21,764.597z" />
	<path
   id="path6000"
   inkscape:connector-curvature="0"
   fill="none"
   d="M54.179,753.534l9.312,5.556l-0.031-11.063l-9.25-5.531   L54.179,753.534z" />
	<path
   id="path6002"
   inkscape:connector-curvature="0"
   fill="none"
   d="M54.209,742.496l9.311,5.556l-0.031-11.063l-9.25-5.531   L54.209,742.496z" />
	<path
   id="path6004"
   inkscape:connector-curvature="0"
   fill="none"
   d="M54.239,731.458l9.311,5.557l-0.031-11.063l-9.25-5.531   L54.239,731.458z" />
	<path
   id="path6006"
   inkscape:connector-curvature="0"
   fill="none"
   d="M54.207,720.396l9.312,5.556l-0.031-11.063l-9.25-5.531   L54.207,720.396z" />
	<path
   id="path6008"
   inkscape:connector-curvature="0"
   fill="none"
   d="M54.176,709.333l9.312,5.556l-0.031-11.063l-9.25-5.531   L54.176,709.333z" />
	<path
   id="path6042"
   sodipodi:nodetypes="ccccc"
   inkscape:connector-curvature="0"
   fill="#F2F2F2"
   d="M185.214,632.973   l-0.089,55.214l9.312,5.556l0.031-55.25L185.214,632.973z" />
	<path
   id="path6059"
   inkscape:connector-curvature="0"
   fill="#F2F2F2"
   d="M185.125,688.188l9.312,5.556l-37.155,22.163l-9.25-5.594   L185.125,688.188z" />
	<path
   id="path6053"
   sodipodi:nodetypes="ccccccccc"
   inkscape:connector-curvature="0"
   fill="#B3B3B3"
   d="M278.206,575.67   L63.469,703.844v68l93.812-55.969l0.03-55.194l37.156-22.188l-0.03,55.163l83.769-49.986V575.67z" />
<path
   style="fill:#000000;stroke-width:0.50507629"
   d="M 9.9866759,168.00292 V 134.49149 L 116.73271,70.775739 C 175.44304,35.732072 223.62731,7.0599834 223.80888,7.0599834 c 0.18158,0 0.32833,15.0575866 0.32612,33.4613026 l -0.004,33.461303 -22.59815,13.466147 c -12.42898,7.406382 -31.19169,18.593764 -41.69492,24.860844 l -19.09677,11.39471 0.36142,-27.512502 c 0.21499,-16.366229 0.17604,-27.509949 -0.0961,-27.506196 -0.25164,0.0035 -8.75341,4.953576 -18.89282,11.000243 l -18.43528,10.993939 -0.25254,27.749866 -0.25254,27.74986 -46.378275,27.66743 c -25.508027,15.21707 -46.475005,27.66742 -46.59326,27.66742 -0.118255,0 -0.2150091,-15.08015 -0.2150091,-33.51143 z"
   id="path22244"
   inkscape:connector-curvature="0"
   transform="translate(53.643411,569.625)" /><path
   style="fill:#000000;stroke-width:0.50507629"
   d="M 6.0410261,131.62529 C 4.0098147,130.4167 2.1237975,129.20373 1.8498768,128.92982 1.522544,128.60248 37.962709,106.59268 108.16535,64.715424 166.91277,29.671428 215.12877,0.9990682 215.31201,0.9990682 c 0.49925,0 8.32293,4.7469704 8.31553,5.0453973 -0.004,0.1418471 -5.40152,3.4796199 -11.99556,7.4172725 C 187.61333,27.804552 168.88751,38.972408 147.8725,51.487123 136.06634,58.517846 122.54292,66.591091 117.82046,69.42767 113.098,72.264249 97.415378,81.633318 82.970197,90.247828 68.525015,98.862338 46.18181,112.19338 33.318629,119.87235 20.455448,127.55133 9.8867274,133.83156 9.8325827,133.82843 9.778438,133.8254 8.0722373,132.83388 6.0410261,131.62529 Z"
   id="path22246"
   inkscape:connector-curvature="0"
   transform="translate(53.643411,569.625)" /><path
   style="fill:#000000;stroke-width:0.50507629"
   d="m 5.065491,199.11276 -4.16357065,-2.39664 -0.003309,-33.69799 c -0.003131,-31.88348 0.0442851,-33.68016 0.88057485,-33.36699 0.4861359,0.18205 2.4180526,1.30985 4.2931483,2.50622 l 3.4092648,2.17522 v 33.59088 c 0,18.47499 -0.056821,33.58978 -0.126269,33.58842 -0.069448,-0.002 -1.9998759,-1.08096 -4.2898393,-2.39912 z"
   id="path22248"
   inkscape:connector-curvature="0"
   transform="translate(53.643411,569.625)" /><path
   style="fill:#f2f2f2"
   id="path3916"
   inkscape:connector-curvature="0"
   d="m 53.585156,699.65656 v 68 l 9.311,5.555 v -68 z" /><path
   style="fill:#ffffff;stroke-width:0.50507629"
   d="m 62.931293,739.29011 c 0,-18.75096 0.06297,-26.42181 0.139935,-17.04633 0.07696,9.37548 0.07696,24.71717 0,34.09265 -0.07696,9.37548 -0.139935,1.70463 -0.139935,-17.04632 z"
   id="path4049"
   inkscape:connector-curvature="0" /><path
   sodipodi:type="star"
   style="fill:#ffffff"
   id="path4051"
   sodipodi:sides="5"
   sodipodi:cx="71.267319"
   sodipodi:cy="711.94781"
   sodipodi:r1="6.8697801"
   sodipodi:r2="3.43489"
   sodipodi:arg1="0.62879629"
   sodipodi:arg2="1.2571148"
   inkscape:flatsided="false"
   inkscape:rounded="0"
   inkscape:randomized="0"
   d="m 76.823158,715.98843 -4.495961,-0.77333 -3.185878,3.26525 -0.653849,-4.51489 -4.089931,-2.02093 4.09186,-2.01702 0.658163,-4.51426 3.182757,3.2683 4.496697,-0.76903 -2.124808,4.03694 z"
   inkscape:transform-center-x="0.65504062"
   inkscape:transform-center-y="-0.0010114283" /><path
   sodipodi:type="star"
   style="fill:#ffffff"
   id="path4059"
   sodipodi:sides="5"
   sodipodi:cx="73.287621"
   sodipodi:cy="732.65594"
   sodipodi:r1="10.412413"
   sodipodi:r2="5.2062068"
   sodipodi:arg1="0.68231655"
   sodipodi:arg2="1.3106351"
   inkscape:flatsided="false"
   inkscape:rounded="0"
   inkscape:randomized="0"
   d="m 81.36884,739.22194 -6.741994,-1.53498 -5.086619,4.68368 -0.623538,-6.88635 -6.026305,-3.39032 6.356627,-2.72102 1.362158,-6.77902 4.552149,5.20466 6.868165,-0.79934 -3.543244,5.93768 z"
   inkscape:transform-center-x="0.82768668"
   inkscape:transform-center-y="-0.17365712" /><path
   sodipodi:type="star"
   style="fill:#ffffff"
   id="path4061"
   sodipodi:sides="5"
   sodipodi:cx="93.490677"
   sodipodi:cy="722.04932"
   sodipodi:r1="3.8465464"
   sodipodi:r2="1.923273"
   sodipodi:arg1="0.40489179"
   sodipodi:arg2="1.0332103"
   inkscape:flatsided="false"
   inkscape:rounded="0"
   inkscape:randomized="0"
   d="m 97.026211,723.56455 -2.550695,0.13676 -1.333367,2.17873 -0.918276,-2.38359 -2.484132,-0.59484 1.983169,-1.60991 -0.201911,-2.54636 2.143942,1.38861 2.359344,-0.97889 -0.65814,2.46811 z"
   inkscape:transform-center-x="0.10770033"
   inkscape:transform-center-y="0.26337472" /><path
   sodipodi:type="star"
   style="fill:#ffffff"
   id="path4065"
   sodipodi:sides="5"
   sodipodi:cx="92.985596"
   sodipodi:cy="744.27271"
   sodipodi:r1="7.2843137"
   sodipodi:r2="3.6421568"
   sodipodi:arg1="-0.98279372"
   sodipodi:arg2="-0.35447519"
   inkscape:flatsided="false"
   inkscape:rounded="0"
   inkscape:randomized="0"
   d="m 97.026206,738.21179 -0.624891,4.79673 3.597171,3.23411 -4.755062,0.88796 -1.964234,4.42051 -2.313899,-4.24794 -4.811134,-0.50208 3.324994,-3.51334 -1.009211,-4.73081 4.368859,2.07658 z"
   inkscape:transform-center-x="-0.090726421"
   inkscape:transform-center-y="0.60874307" /><path
   sodipodi:type="star"
   style="fill:#ffffff"
   id="path4067"
   sodipodi:sides="5"
   sodipodi:cx="71.267319"
   sodipodi:cy="759.92999"
   sodipodi:r1="5.4398379"
   sodipodi:r2="2.719919"
   sodipodi:arg1="-1.1902899"
   sodipodi:arg2="-0.56197142"
   inkscape:flatsided="false"
   inkscape:rounded="0"
   inkscape:randomized="0"
   d="m 73.287624,754.87923 0.281307,3.60144 3.126257,1.80998 -3.338243,1.38044 -0.755324,3.53256 -2.344455,-2.74828 -3.593072,0.37327 1.88929,-3.07897 -1.465317,-3.30187 3.5121,0.84536 z"
   inkscape:transform-center-x="-0.41232257"
   inkscape:transform-center-y="0.11145159" /><path
   sodipodi:type="star"
   style="fill:#ffffff"
   id="path4069"
   sodipodi:sides="5"
   sodipodi:cx="98.036362"
   sodipodi:cy="697.30054"
   sodipodi:r1="6.8697801"
   sodipodi:r2="3.43489"
   sodipodi:arg1="0.62879629"
   sodipodi:arg2="1.2571148"
   inkscape:flatsided="false"
   inkscape:rounded="0"
   inkscape:randomized="0"
   d="m 103.5922,701.34115 -4.49596,-0.77333 -3.185878,3.26525 -0.653849,-4.51488 -4.089931,-2.02093 4.09186,-2.01703 0.658163,-4.51426 3.182757,3.2683 4.496698,-0.76903 -2.12481,4.03694 z"
   inkscape:transform-center-x="0.65504009"
   inkscape:transform-center-y="-0.0010117182" /><path
   sodipodi:type="star"
   style="fill:#ffffff"
   id="path4071"
   sodipodi:sides="5"
   sodipodi:cx="110.15818"
   sodipodi:cy="709.42242"
   sodipodi:r1="8.4061441"
   sodipodi:r2="4.2030721"
   sodipodi:arg1="0.57133748"
   sodipodi:arg2="1.199656"
   inkscape:flatsided="false"
   inkscape:rounded="0"
   inkscape:randomized="0"
   d="m 117.22925,713.96811 -5.54671,-0.62878 -3.66248,4.21277 -1.11602,-5.46953 -5.13836,-2.18141 4.85697,-2.75158 0.4868,-5.56096 4.11779,3.76896 5.43922,-1.25545 -2.31203,5.08093 z"
   inkscape:transform-center-x="0.66071572"
   inkscape:transform-center-y="0.147939" /><path
   sodipodi:type="star"
   style="fill:#ffffff"
   id="path4078"
   sodipodi:sides="5"
   sodipodi:cx="107.63281"
   sodipodi:cy="728.6153"
   sodipodi:r1="4.0720549"
   sodipodi:r2="2.0360274"
   sodipodi:arg1="0.51914611"
   sodipodi:arg2="1.1474646"
   inkscape:flatsided="false"
   inkscape:rounded="0"
   inkscape:randomized="0"
   d="m 111.16835,730.6356 -2.69914,-0.16401 -1.66528,2.13051 -0.6781,-2.61771 -2.54083,-0.92542 2.28005,-1.45383 0.095,-2.70244 2.08724,1.71919 2.59953,-0.74478 -0.99006,2.51635 z"
   inkscape:transform-center-x="0.25613825"
   inkscape:transform-center-y="0.13710578" /><path
   sodipodi:type="star"
   style="fill:#ffffff"
   id="path4080"
   sodipodi:sides="5"
   sodipodi:cx="121.69754"
   sodipodi:cy="724.88721"
   sodipodi:r1="5.1507874"
   sodipodi:r2="2.5753939"
   sodipodi:arg1="-2.9441971"
   sodipodi:arg2="-2.3158786"
   inkscape:flatsided="false"
   inkscape:rounded="0"
   inkscape:randomized="0"
   d="m 116.64678,723.87705 3.30456,-0.88284 1.14614,-3.22272 1.8608,2.87001 3.41917,0.0942 -2.15453,2.65661 0.96702,3.28092 -3.19237,-1.22814 -2.82151,1.93355 0.18153,-3.41564 z"
   inkscape:transform-center-x="0.1854269"
   inkscape:transform-center-y="-0.31215119" /><path
   sodipodi:type="star"
   style="fill:#ffffff"
   id="path80"
   sodipodi:sides="5"
   sodipodi:cx="124.22794"
   sodipodi:cy="682.94843"
   sodipodi:r1="6.0819235"
   sodipodi:r2="3.0409617"
   sodipodi:arg1="0.72664234"
   sodipodi:arg2="1.3549609"
   inkscape:flatsided="false"
   inkscape:rounded="0"
   inkscape:randomized="0"
   d="m 128.77363,686.98904 -3.89442,-1.07021 -3.08942,2.60142 -0.18562,-4.03453 -3.42878,-2.13433 3.77971,-1.42327 0.97032,-3.9205 2.5216,3.15489 4.02847,-0.28867 -2.22127,3.3731 z"
   inkscape:transform-center-x="0.40250147"
   inkscape:transform-center-y="-0.18449173" /><path
   sodipodi:type="star"
   style="fill:#ffffff"
   id="path84"
   sodipodi:sides="5"
   sodipodi:cx="130.36124"
   sodipodi:cy="702.83606"
   sodipodi:r1="9.489522"
   sodipodi:r2="4.744761"
   sodipodi:arg1="0.43984258"
   sodipodi:arg2="1.0681611"
   inkscape:flatsided="false"
   inkscape:rounded="0"
   inkscape:randomized="0"
   d="m 138.94753,706.87667 -6.30057,0.1173 -3.47526,5.25676 -2.05854,-5.95595 -6.07339,-1.68074 5.02832,-3.79829 -0.2783,-6.29551 5.16622,3.60848 5.90139,-2.2101 -1.83543,6.02845 z"
   inkscape:transform-center-x="0.36758564"
   inkscape:transform-center-y="0.54942745" /><path
   sodipodi:type="star"
   style="fill:#ffffff"
   id="path88"
   sodipodi:sides="5"
   sodipodi:cx="148.07953"
   sodipodi:cy="706.39197"
   sodipodi:r1="7.0348983"
   sodipodi:r2="3.5174491"
   sodipodi:arg1="1.9379702"
   sodipodi:arg2="2.5662887"
   inkscape:flatsided="false"
   inkscape:rounded="0"
   inkscape:randomized="0"
   d="m 145.55415,712.95796 -0.42586,-4.65218 -4.07378,-2.28659 4.2929,-1.84261 0.9158,-4.58099 3.07901,3.51338 4.63978,-0.54462 -2.38996,4.01401 1.95173,4.24439 -4.55608,-1.03259 z"
   inkscape:transform-center-x="0.56127073"
   inkscape:transform-center-y="-0.11519188" /><path
   sodipodi:type="star"
   style="fill:#ffffff"
   id="path90"
   sodipodi:sides="5"
   sodipodi:cx="139.95769"
   sodipodi:cy="720.02899"
   sodipodi:r1="3.6421568"
   sodipodi:r2="1.8210784"
   sodipodi:arg1="-2.5535901"
   sodipodi:arg2="-1.9252715"
   inkscape:flatsided="false"
   inkscape:rounded="0"
   inkscape:randomized="0"
   d="m 136.92723,718.00869 2.39836,0.31244 1.61706,-1.79858 0.44398,2.37753 2.21025,0.98211 -2.12396,1.15695 -0.25105,2.40557 -1.75666,-1.6625 -2.36541,0.50461 1.03829,-2.18443 z"
   inkscape:transform-center-x="-0.30437154"
   inkscape:transform-center-y="-0.045359867" /><path
   sodipodi:type="star"
   style="fill:#ffffff"
   id="path92"
   sodipodi:sides="5"
   sodipodi:cx="145.04906"
   sodipodi:cy="674.57208"
   sodipodi:r1="10.164464"
   sodipodi:r2="5.082232"
   sodipodi:arg1="2.0344439"
   sodipodi:arg2="2.6627625"
   inkscape:flatsided="false"
   inkscape:rounded="0"
   inkscape:randomized="0"
   d="m 140.50337,683.66346 0.035,-6.74978 -5.54045,-3.85541 6.43025,-2.05248 1.95462,-6.46067 3.93908,5.48128 6.74847,-0.13751 -3.99576,5.4401 2.21616,6.37569 -6.40859,-2.11912 z"
   inkscape:transform-center-x="0.51489376"
   inkscape:transform-center-y="-0.46779283" /><path
   sodipodi:type="star"
   style="fill:#ffffff"
   id="path109"
   sodipodi:sides="5"
   sodipodi:cx="208.64806"
   sodipodi:cy="646.28784"
   sodipodi:r1="9.2719679"
   sodipodi:r2="4.6359839"
   sodipodi:arg1="2.0831858"
   sodipodi:arg2="2.7115043"
   inkscape:flatsided="false"
   inkscape:rounded="0"
   inkscape:randomized="0"
   d="m 204.10237,654.36906 0.33191,-6.14824 -4.87662,-3.75895 5.94989,-1.58425 2.06802,-5.79951 3.34533,5.16912 6.15472,0.17465 -3.88237,4.77895 1.73581,5.90745 -5.74476,-2.21557 z"
   inkscape:transform-center-x="0.33141288"
   inkscape:transform-center-y="-0.56425437" /><path
   sodipodi:type="star"
   style="fill:#ffffff"
   id="path114"
   sodipodi:sides="5"
   sodipodi:cx="244.00339"
   sodipodi:cy="652.34882"
   sodipodi:r1="6.1652417"
   sodipodi:r2="3.0826209"
   sodipodi:arg1="2.1815223"
   sodipodi:arg2="2.8098408"
   inkscape:flatsided="false"
   inkscape:rounded="0"
   inkscape:randomized="0"
   d="m 240.46785,657.39958 0.621,-4.04675 -2.98156,-2.80574 4.04059,-0.65991 1.74705,-3.70265 1.87622,3.6389 4.06131,0.51737 -2.88102,2.90888 0.76297,4.0224 -3.65679,-1.84112 z"
   inkscape:transform-center-x="0.033511225"
   inkscape:transform-center-y="-0.55676082" /><path
   sodipodi:type="star"
   style="fill:#ffffff"
   id="path116"
   sodipodi:sides="5"
   sodipodi:cx="229.35617"
   sodipodi:cy="661.94519"
   sodipodi:r1="5.5787497"
   sodipodi:r2="2.7893748"
   sodipodi:arg1="3.0509328"
   sodipodi:arg2="3.6792513"
   inkscape:flatsided="false"
   inkscape:rounded="0"
   inkscape:randomized="0"
   d="m 223.80033,662.45027 3.16002,-1.93359 0.19862,-3.69933 2.81545,2.40784 3.57964,-0.95425 -1.41997,3.42171 2.01373,3.10957 -3.69305,-0.29311 -2.33509,2.87607 -0.86246,-3.60286 z"
   inkscape:transform-center-x="0.38209374"
   inkscape:transform-center-y="0.15607895" /><path
   sodipodi:type="star"
   style="fill:#ffffff"
   id="path118"
   sodipodi:sides="5"
   sodipodi:cx="213.19376"
   sodipodi:cy="663.46039"
   sodipodi:r1="2.5253813"
   sodipodi:r2="1.2626905"
   sodipodi:arg1="1.5707963"
   sodipodi:arg2="2.1991149"
   inkscape:flatsided="false"
   inkscape:rounded="0"
   inkscape:randomized="0"
   d="m 213.19376,665.98577 -0.74219,-1.50384 -1.65959,-0.24116 1.20089,-1.17057 -0.2835,-1.65289 1.48439,0.78039 1.48438,-0.78039 -0.28349,1.65289 1.20089,1.17057 -1.65959,0.24116 z"
   inkscape:transform-center-x="-3.1683588e-006"
   inkscape:transform-center-y="0.24115429" /><path
   sodipodi:type="star"
   style="fill:#ffffff"
   id="path120"
   sodipodi:sides="5"
   sodipodi:cx="234.20938"
   sodipodi:cy="631.68359"
   sodipodi:r1="10.227014"
   sodipodi:r2="5.1135073"
   sodipodi:arg1="-2.7886023"
   sodipodi:arg2="-2.1602837"
   inkscape:flatsided="false"
   inkscape:rounded="0"
   inkscape:randomized="0"
   d="m 224.61293,628.14806 6.75367,-0.71495 3.23981,-5.96882 2.76695,6.20219 6.67784,1.23677 -5.04359,4.54811 0.88733,6.73319 -5.88407,-3.3913 -6.12945,2.92457 1.40705,-6.64405 z"
   inkscape:transform-center-x="-0.12269159"
   inkscape:transform-center-y="-0.85917238" /><path
   sodipodi:type="star"
   style="fill:#ffffff"
   id="path126"
   sodipodi:sides="5"
   sodipodi:cx="214.20389"
   sodipodi:cy="619.5188"
   sodipodi:r1="3.6770108"
   sodipodi:r2="1.8385054"
   sodipodi:arg1="1.849096"
   sodipodi:arg2="2.4774145"
   inkscape:flatsided="false"
   inkscape:rounded="0"
   inkscape:randomized="0"
   d="m 213.19374,623.05433 -0.43753,-2.40225 -2.22697,-1.00145 2.14948,-1.15846 0.26426,-2.42743 1.76598,1.68629 2.39029,-0.49879 -1.05804,2.20064 1.21302,2.11917 -2.41989,-0.32622 z"
   inkscape:transform-center-x="0.31215112"
   inkscape:transform-center-y="0.040738022" /><path
   sodipodi:type="star"
   style="fill:#ffffff"
   id="path128"
   sodipodi:sides="5"
   sodipodi:cx="257.64049"
   sodipodi:cy="609.9223"
   sodipodi:r1="11.660591"
   sodipodi:r2="5.8302956"
   sodipodi:arg1="3.0548543"
   sodipodi:arg2="3.6831728"
   inkscape:flatsided="false"
   inkscape:rounded="0"
   inkscape:randomized="0"
   d="m 246.02375,610.93245 6.6208,-4.01561 0.44547,-7.73057 5.86501,5.05586 7.48987,-1.96522 -2.99602,7.14032 4.18353,6.516 -7.71666,-0.64291 -4.90431,5.99233 -1.77314,-7.53765 z"
   inkscape:transform-center-x="0.8124209"
   inkscape:transform-center-y="0.31215508" /><path
   sodipodi:type="star"
   style="fill:#ffffff"
   id="path132"
   sodipodi:sides="5"
   sodipodi:cx="235.4171"
   sodipodi:cy="-608.49634"
   sodipodi:r1="4.5175395"
   sodipodi:r2="2.2587698"
   sodipodi:arg1="2.0344439"
   sodipodi:arg2="2.6627625"
   inkscape:flatsided="false"
   inkscape:rounded="0"
   inkscape:randomized="0"
   d="m 233.39679,-604.45573 0.0156,-2.9999 -2.46242,-1.71351 2.85789,-0.91222 0.86872,-2.87141 1.7507,2.43613 2.99932,-0.0611 -1.77589,2.41782 0.98496,2.83363 -2.84827,-0.94182 z"
   inkscape:transform-center-x="0.22883891"
   inkscape:transform-center-y="0.20789312"
   transform="scale(1,-1)" /><path
   sodipodi:type="star"
   style="fill:#ffffff"
   id="path134"
   sodipodi:sides="5"
   sodipodi:cx="258.14197"
   sodipodi:cy="638.06"
   sodipodi:r1="7.905694"
   sodipodi:r2="3.952847"
   sodipodi:arg1="2.0344439"
   sodipodi:arg2="2.6627625"
   inkscape:flatsided="false"
   inkscape:rounded="0"
   inkscape:randomized="0"
   d="m 254.60643,645.13107 0.0273,-5.24983 -4.30924,-2.99865 5.00131,-1.59638 1.52026,-5.02496 3.06372,4.26321 5.24881,-0.10694 -3.10781,4.23118 1.72368,4.95887 -4.98446,-1.6482 z"
   inkscape:transform-center-x="0.4004703"
   inkscape:transform-center-y="-0.36383924" /><path
   style="fill:#000000;stroke-width:0.50507629"
   d="M 4.6833751,200.56602 0.64276491,198.18748 0.52214436,164.11677 c -0.0663413,-18.7389 0.0473009,-33.82447 0.25253814,-33.52351 0.20523728,0.30096 2.0430846,1.53324 4.084105,2.73841 2.0410208,1.20516 3.8045274,2.43626 3.918904,2.73579 0.1143765,0.29952 0.1490834,15.4694 0.077126,33.71085 l -0.1308319,33.16626 z"
   id="path22324"
   inkscape:connector-curvature="0"
   transform="translate(53.643411,569.625)" /><path
   sodipodi:type="star"
   style="fill:#ffffff"
   id="path22328"
   sodipodi:sides="5"
   sodipodi:cx="202.13583"
   sodipodi:cy="679.25245"
   sodipodi:r1="5"
   sodipodi:r2="2.5"
   sodipodi:arg1="-0.78539816"
   sodipodi:arg2="-0.15707963"
   inkscape:flatsided="false"
   inkscape:rounded="0"
   inkscape:randomized="0"
   d="m 205.67137,675.71691 -1.06632,3.14445 1.98582,2.66103 -3.32006,-0.0424 -1.91715,2.71092 -0.98559,-3.17067 -3.17068,-0.9856 2.71093,-1.91714 -0.0424,-3.32006 2.66104,1.98581 z"
   inkscape:transform-center-x="0.24170161"
   inkscape:transform-center-y="0.24170671" /><path
   sodipodi:type="star"
   style="fill:#ffffff"
   id="path22336"
   sodipodi:sides="5"
   sodipodi:cx="272.34142"
   sodipodi:cy="588.84379"
   sodipodi:r1="3.9447718"
   sodipodi:r2="1.9723859"
   sodipodi:arg1="0.87605805"
   sodipodi:arg2="1.5043766"
   inkscape:flatsided="false"
   inkscape:rounded="0"
   inkscape:randomized="0"
   d="m 274.86681,591.87427 -2.39447,-1.06242 -2.23266,1.3702 0.27049,-2.60558 -1.99307,-1.69997 2.56164,-0.54792 1.00087,-2.42084 1.3127,2.26695 2.61164,0.2038 -1.75035,1.94898 z"
   inkscape:transform-center-x="0.080901926"
   inkscape:transform-center-y="-0.29891479" /><path
   sodipodi:type="star"
   style="fill:#ffffff"
   id="path132-3"
   sodipodi:sides="5"
   sodipodi:cx="269.94"
   sodipodi:cy="627.2475"
   sodipodi:r1="4.5175395"
   sodipodi:r2="2.2587698"
   sodipodi:arg1="2.0344439"
   sodipodi:arg2="2.6627625"
   inkscape:flatsided="false"
   inkscape:rounded="0"
   inkscape:randomized="0"
   d="m 267.9197,631.28811 0.0156,-2.9999 -2.46242,-1.71352 2.85788,-0.91221 0.86872,-2.87141 1.75071,2.43612 2.99931,-0.0611 -1.77589,2.41782 0.98496,2.83364 -2.84826,-0.94183 z"
   inkscape:transform-center-x="0.22883891"
   inkscape:transform-center-y="-0.20790808" /><path
   sodipodi:type="star"
   style="fill:#ffffff"
   id="path132-8"
   sodipodi:sides="5"
   sodipodi:cx="148.97054"
   sodipodi:cy="692.33624"
   sodipodi:r1="4.5175395"
   sodipodi:r2="2.2587698"
   sodipodi:arg1="2.0344439"
   sodipodi:arg2="2.6627625"
   inkscape:flatsided="false"
   inkscape:rounded="0"
   inkscape:randomized="0"
   d="m 146.95023,696.37685 0.0156,-2.9999 -2.46242,-1.71351 2.85789,-0.91222 0.86872,-2.87141 1.7507,2.43613 2.99932,-0.0611 -1.7759,2.41782 0.98497,2.83363 -2.84827,-0.94182 z"
   inkscape:transform-center-x="0.22883891"
   inkscape:transform-center-y="-0.20790808" /><path
   sodipodi:type="star"
   style="fill:#ffffff"
   id="path132-9"
   sodipodi:sides="5"
   sodipodi:cx="188.22763"
   sodipodi:cy="636.57202"
   sodipodi:r1="4.5175395"
   sodipodi:r2="2.2587698"
   sodipodi:arg1="2.0344439"
   sodipodi:arg2="2.6627625"
   inkscape:flatsided="false"
   inkscape:rounded="0"
   inkscape:randomized="0"
   d="m 186.20733,640.61263 0.0156,-2.9999 -2.46242,-1.71352 2.85789,-0.91221 0.86872,-2.87141 1.7507,2.43613 2.99932,-0.0611 -1.77589,2.41783 0.98496,2.83363 -2.84826,-0.94182 z"
   inkscape:transform-center-x="0.22883891"
   inkscape:transform-center-y="-0.20790808" /><path
   style="fill:#4d4d4d;stroke-width:0.50507629"
   d="m 104.03946,140.28751 0.14394,-5.16337 13.65098,-8.12347 13.65098,-8.12347 4.43858,2.60513 4.43858,2.60513 -17.91784,10.68171 c -9.85481,5.87494 -18.05988,10.68171 -18.23349,10.68171 -0.17362,0 -0.25089,-2.32351 -0.17173,-5.16337 z"
   id="path22373"
   inkscape:connector-curvature="0"
   transform="translate(53.643411,569.625)" /><path
   style="fill:#1a1a1a;stroke-width:0.50507629"
   d="m 104.43594,140.20367 v -4.82452 l 11.99556,-7.13904 c 6.59756,-3.92647 12.68102,-7.55537 13.5188,-8.06422 l 1.52324,-0.92519 4.16122,2.42369 4.16123,2.42369 -16.03853,9.47817 c -8.82119,5.213 -16.7772,9.92227 -17.68002,10.46506 l -1.6415,0.98688 z"
   id="path22375"
   inkscape:connector-curvature="0"
   transform="translate(53.643411,569.625)" /><path
   style="fill:#1a1a1a;stroke-width:0.50507629"
   d="m 104.46339,140.0634 0.0275,-4.46151 11.92223,-7.07106 c 6.55722,-3.88909 12.6326,-7.48552 13.50085,-7.99208 l 1.57863,-0.921 3.64429,2.10109 c 2.00435,1.15559 3.63427,2.2519 3.62202,2.43623 -0.0182,0.27372 -32.5253,19.64067 -33.90787,20.20148 -0.22828,0.0926 -0.4027,-1.83932 -0.3876,-4.29315 z"
   id="path22377"
   inkscape:connector-curvature="0"
   transform="translate(53.643411,569.625)" /><path
   style="fill:#1a1a1a;stroke-width:0.50507629"
   d="m 138.37874,122.59365 c -0.28933,-0.34863 -1.90757,-1.42823 -3.59607,-2.39911 l -3.07001,-1.76524 0.12497,-21.933499 0.12496,-21.9335 4.41942,-2.677457 4.41942,-2.677457 v 19.353621 c 0,23.600442 -0.4085,34.666522 -1.27971,34.666522 -0.3393,0 -0.85364,-0.28525 -1.14298,-0.63388 z"
   id="path22379"
   inkscape:connector-curvature="0"
   transform="translate(53.643411,569.625)" /><path
   style="fill:#1a1a1a;stroke-width:0.50507629"
   d=""
   id="path22385"
   inkscape:connector-curvature="0"
   transform="translate(53.643411,569.625)" /><path
   style="fill:#1a1a1a;stroke-width:0.50507629"
   d="m 9.7073026,185.85698 c 0,-9.02824 0.068489,-12.72161 0.1521981,-8.20749 0.083709,4.51412 0.083709,11.90086 0,16.41498 -0.083709,4.51412 -0.1521981,0.82075 -0.1521981,-8.20749 z"
   id="path22387"
   inkscape:connector-curvature="0"
   transform="translate(53.643411,569.625)" /><path
   style="fill:#000000;stroke-width:0.50507629"
   d=""
   id="path22389"
   inkscape:connector-curvature="0"
   transform="translate(53.643411,569.625)" /><path
   style="fill:#000000;stroke-width:0.50507629"
   d=""
   id="path22391"
   inkscape:connector-curvature="0"
   transform="translate(53.643411,569.625)" /><path
   style="fill:#000000;stroke-width:0.50507629"
   d=""
   id="path22393"
   inkscape:connector-curvature="0"
   transform="translate(53.643411,569.625)" /><path
   style="fill:#000000;stroke-width:0.50507629"
   d=""
   id="path22395"
   inkscape:connector-curvature="0"
   transform="translate(53.643411,569.625)" /><path
   style="fill:#000000;stroke-width:0.50507629"
   d=""
   id="path22397"
   inkscape:connector-curvature="0"
   transform="translate(53.643411,569.625)" /><path
   style="fill:#000000;stroke-width:0.50507629"
   d=""
   id="path22399"
   inkscape:connector-curvature="0"
   transform="translate(53.643411,569.625)" /><path
   style="fill:#000000;stroke-width:0.50507629"
   d=""
   id="path22401"
   inkscape:connector-curvature="0"
   transform="translate(53.643411,569.625)" /></g>
</svg>