<?xml version="1.0" encoding="UTF-8" standalone="no"?>
<!-- Generator: Adobe Illustrator 16.0.0, SVG Export Plug-In . SVG Version: 6.00 Build 0)  -->

<svg
   xmlns:dc="http://purl.org/dc/elements/1.1/"
   xmlns:cc="http://creativecommons.org/ns#"
   xmlns:rdf="http://www.w3.org/1999/02/22-rdf-syntax-ns#"
   xmlns:svg="http://www.w3.org/2000/svg"
   xmlns="http://www.w3.org/2000/svg"
   xmlns:sodipodi="http://sodipodi.sourceforge.net/DTD/sodipodi-0.dtd"
   xmlns:inkscape="http://www.inkscape.org/namespaces/inkscape"
   version="1.1"
   id="svg2"
   inkscape:version="0.92.2 5c3e80d, 2017-08-06"
   sodipodi:docname="orangeDoor.svg"
   x="0px"
   y="0px"
   width="430.543px"
   height="325.295px"
   viewBox="0 0 430.543 325.295"
   enable-background="new 0 0 430.543 325.295"
   xml:space="preserve"><metadata
     id="metadata19"><rdf:RDF><cc:Work
         rdf:about=""><dc:format>image/svg+xml</dc:format><dc:type
           rdf:resource="http://purl.org/dc/dcmitype/StillImage" /><dc:title></dc:title></cc:Work></rdf:RDF></metadata><defs
     id="defs3"><inkscape:perspective
       sodipodi:type="inkscape:persp3d"
       inkscape:vp_x="0 : 526.18109 : 1"
       inkscape:vp_y="0 : 1000 : 0"
       inkscape:vp_z="744.09448 : 526.18109 : 1"
       id="perspective2985"
       inkscape:persp3d-origin="372.04724 : 350.78739 : 1" /></defs><sodipodi:namedview
     units="mm"
     pagecolor="#ffffff"
     bordercolor="#666666"
     borderopacity="1.0"
     inkscape:zoom="1.979899"
     inkscape:cx="323.95555"
     inkscape:cy="233.90626"
     showgrid="false"
     showguides="true"
     fit-margin-top="0"
     fit-margin-left="0"
     id="base"
     inkscape:document-units="mm"
     inkscape:current-layer="layer1"
     inkscape:object-nodes="true"
     inkscape:window-width="1280"
     inkscape:window-height="712"
     inkscape:window-x="0"
     inkscape:window-y="1"
     inkscape:window-maximized="1"
     inkscape:guide-bbox="true"
     fit-margin-right="0"
     fit-margin-bottom="0"
     inkscape:pageopacity="0.0"
     inkscape:pageshadow="2" /><g
     id="layer1"
     transform="translate(-53.643411,-569.625)"
     inkscape:label="Layer 1"
     inkscape:groupmode="layer"><path
       id="path3910"
       inkscape:connector-curvature="0"
       sodipodi:nodetypes="cccccc"
       fill="#D7D7F4"
       d="M268.908,570.139   l214.781,128.125l-9.313,5.563L268.908,581.233l-9.281-5.563L268.908,570.139z" /><path
       id="path3918"
       inkscape:connector-curvature="0"
       fill="#B3B3B3"
       d="M483.687,698.276v68l-9.311,5.555v-68L483.687,698.276z" /><path
       id="path5998"
       inkscape:connector-curvature="0"
       fill="#B3B3B3"
       d="M483.622,764.597l-9.311,5.556l0.031-11.063l9.25-5.531   L483.622,764.597z" /><path
       id="path6000"
       inkscape:connector-curvature="0"
       fill="#B3B3B3"
       d="M483.654,753.534l-9.311,5.556l0.031-11.063l9.25-5.531   L483.654,753.534z" /><path
       id="path6002"
       inkscape:connector-curvature="0"
       fill="#B3B3B3"
       d="M483.624,742.496l-9.311,5.556l0.031-11.063l9.25-5.531   L483.624,742.496z" /><path
       id="path6004"
       inkscape:connector-curvature="0"
       fill="#B3B3B3"
       d="M483.595,731.458l-9.313,5.557l0.031-11.063l9.25-5.531   L483.595,731.458z" /><path
       id="path6006"
       inkscape:connector-curvature="0"
       fill="#B3B3B3"
       d="M483.626,720.396l-9.313,5.556l0.031-11.063l9.25-5.531   L483.626,720.396z" /><path
       id="path6008"
       inkscape:connector-curvature="0"
       fill="#B3B3B3"
       d="M483.658,709.333l-9.313,5.556l0.031-11.063l9.25-5.531   L483.658,709.333z" /><path
       id="path6042"
       inkscape:connector-curvature="0"
       sodipodi:nodetypes="ccccc"
       fill="#B3B3B3"
       d="M352.618,632.973l0.09,55.214   l-9.312,5.556l-0.031-55.25L352.618,632.973z" /><path
       id="path6059"
       inkscape:connector-curvature="0"
       fill="#B3B3B3"
       d="M352.708,688.188l-9.312,5.556l37.155,22.163l9.25-5.594   L352.708,688.188z" /><path
       id="path6053"
       inkscape:connector-curvature="0"
       sodipodi:nodetypes="ccccccccc"
       fill="#F2F2F2"
       d="M259.627,575.67   l214.738,128.173v68l-93.813-55.969l-0.031-55.194l-37.155-22.188l0.03,55.163l-83.769-49.986V575.67z" /><path
       style="fill:#00ffff;stroke-width:0.50507629"
       d="M 373.80657,174.38647 327.08701,146.4568 326.94745,118.746 326.80787,91.0352 313.05785,82.807396 c -7.56252,-4.525291 -15.68195,-9.451668 -18.04318,-10.947512 -2.36123,-1.495839 -4.60106,-2.736761 -4.9774,-2.757606 -0.5719,-0.03167 -0.62413,4.440222 -0.31809,27.236223 0.2798,20.841739 0.22545,27.274119 -0.23043,27.274119 -0.72753,0 -82.96338,-48.981772 -83.48604,-49.726416 -0.58919,-0.839437 -0.47275,-67.8434574 0.11854,-68.2088934 0.27779,-0.1716849 0.50507,-0.09877 0.50507,0.1620325 0,0.2608027 5.05708,3.4896353 11.23795,7.1751839 6.18087,3.685548 18.17012,10.840049 26.64277,15.898892 115.56758,69.002955 172.82135,103.154891 174.36784,104.010621 l 1.8843,1.04264 0.13601,34.21899 c 0.0748,18.82044 0.0224,34.19907 -0.11653,34.17472 -0.13889,-0.0243 -21.27634,-12.61261 -46.97209,-27.97392 z"
       id="path21"
       inkscape:connector-curvature="0"
       transform="translate(53.643411,569.625)" /><path
       style="fill:#00ffff;stroke-width:0.50507629"
       d="m 410.92967,127.98481 c -5.27804,-3.1581 -21.41523,-12.78682 -35.86041,-21.39718 C 267.72174,42.600907 211.33175,8.8851525 207.74675,6.5449735 c -1.13288,-0.7395119 -1.08315,-0.7938996 2.9346,-3.2090743 2.24785,-1.3512472 4.31059,-2.45681318 4.58385,-2.45681318 0.66677,0 214.10146,127.33543398 214.09357,127.72851398 -0.006,0.31959 -7.39673,4.75242 -8.31355,4.9866 -0.2855,0.0729 -4.8375,-2.4513 -10.11555,-5.60939 z"
       id="path23"
       inkscape:connector-curvature="0"
       transform="translate(53.643411,569.625)" /><path
       style="fill:#00ffff;stroke-width:0.50507629"
       d="m 308.61653,135.1594 c -9.84225,-5.87211 -18.06199,-10.92919 -18.26608,-11.23795 -0.44581,-0.67444 -0.5211,-54.351991 -0.0762,-54.351991 1.06971,0 8.35019,4.921923 8.56248,5.788608 0.13875,0.566457 0.18787,10.632757 0.10916,22.369555 -0.0787,11.736798 0.0457,21.339558 0.27654,21.339468 0.23081,-8e-5 6.53795,3.66831 14.01587,8.15199 l 13.59622,8.15214 v 5.23238 c 0,2.87781 -0.0727,5.23238 -0.16147,5.23238 -0.0888,0 -8.21422,-4.80446 -18.05648,-10.67658 z m -10.5714,-15.87547 c 0,-0.1389 -0.45457,-0.009 -1.01015,0.28808 -0.55559,0.29734 -1.01016,0.65426 -1.01016,0.79316 0,0.13889 0.45457,0.009 1.01016,-0.28808 0.55558,-0.29734 1.01015,-0.65426 1.01015,-0.79316 z"
       id="path25"
       inkscape:connector-curvature="0"
       transform="translate(53.643411,569.625)" /><path
       style="fill:#00ffff;stroke-width:0.50507629"
       d="m 421.0312,167.9773 v -33.82552 l 4.04061,-2.47721 c 2.22234,-1.36247 4.21107,-2.48371 4.41942,-2.49166 0.20834,-0.008 0.3788,15.17748 0.3788,33.74539 v 33.75983 l -2.39911,1.32945 c -1.31951,0.7312 -3.30825,1.882 -4.41942,2.55734 l -2.0203,1.22789 z"
       id="path27"
       inkscape:connector-curvature="0"
       transform="translate(53.643411,569.625)" /><path
       style="fill:#ffffff;stroke-width:0.50507629"
       d="m 406.63653,193.71475 c -7.50038,-4.4663 -28.46736,-16.97819 -46.59329,-27.80421 L 327.08702,146.22688 V 118.55916 90.891435 l -8.46003,-5.019625 c -4.65301,-2.760792 -12.83543,-7.671881 -18.18314,-10.913526 -5.34771,-3.241645 -9.9218,-5.893902 -10.16466,-5.893902 -0.97148,0 -1.08433,4.304472 -0.75145,28.663079 0.19076,13.959049 0.1615,25.380079 -0.065,25.380079 -0.68548,0 -5.92627,-3.03674 -33.59145,-19.46436 -37.38265,-22.197878 -48.64624,-29.02806 -49.3712,-29.93844 -0.49004,-0.61537 -0.6301,-7.864921 -0.62579,-32.389819 0.003,-17.37835 0.14473,-32.4387543 0.31482,-33.4675648 l 0.30925,-1.8705646 2.84191,1.9223199 c 1.56306,1.057276 25.11578,15.2195825 52.33939,31.4717915 106.35917,63.495307 158.10495,94.341777 158.47128,94.467227 0.21032,0.072 0.32396,15.40085 0.25254,34.06406 l -0.12987,33.93311 z"
       id="path24"
       inkscape:connector-curvature="0"
       transform="translate(53.643411,569.625)" /><path
       style="fill:#ffffff;stroke-width:0.50507629"
       d="m 308.65173,134.93808 c -9.44492,-5.6774 -17.45669,-10.70528 -17.80393,-11.17307 -0.92112,-1.24091 -0.92112,-53.694586 0,-53.681519 0.34724,0.0049 2.22233,1.099504 4.16688,2.432397 l 3.53553,2.42344 0.13151,21.976908 0.13152,21.976904 13.88435,8.27646 13.88435,8.27646 v 4.94242 c 0,2.71833 -0.17046,4.92661 -0.37881,4.90728 -0.20834,-0.0194 -8.10647,-4.68029 -17.5514,-10.35768 z m -11.08194,-15.09747 c 0.53923,-0.40785 0.73975,-0.74878 0.44561,-0.75761 -0.29415,-0.009 -0.976,0.31763 -1.51523,0.72548 -0.53923,0.40786 -0.73975,0.74878 -0.44561,0.75762 0.29415,0.009 0.976,-0.31764 1.51523,-0.72549 z"
       id="path26"
       inkscape:connector-curvature="0"
       transform="translate(53.643411,569.625)" /><path
       style="fill:#ffffff;stroke-width:0.50507629"
       d="M 417.49567,131.58659 C 413.92416,129.52926 224.70283,16.625873 214.85019,10.673365 c -4.08843,-2.4700377 -7.44087,-4.6380387 -7.44988,-4.8177797 -0.009,-0.179741 1.72004,-1.3500938 3.84233,-2.6007844 l 3.85869,-2.27398303 4.3488,2.54702263 c 13.33518,7.8102115 72.20368,42.8082955 113.19273,67.2945455 70.45594,42.089324 95.96449,57.457924 95.96449,57.817454 0,0.53612 -6.78751,4.57268 -7.66445,4.55809 -0.36812,-0.006 -1.91937,-0.73123 -3.44723,-1.61134 z"
       id="path28"
       inkscape:connector-curvature="0"
       transform="translate(53.643411,569.625)" /><path
       style="fill:#ff7f2a;stroke-width:0.50507629"
       d="m 421.0312,167.89587 v -33.57264 l 3.88937,-2.29205 c 2.13915,-1.26063 4.07106,-2.17976 4.29315,-2.04251 0.22208,0.13726 0.40234,15.18009 0.40059,33.42851 l -0.003,33.17896 -1.38576,0.78124 c -0.76217,0.42969 -2.69265,1.52597 -4.28996,2.43618 l -2.90419,1.65494 z"
       id="path30"
       inkscape:connector-curvature="0"
       transform="translate(53.643411,569.625)" /><path
       style="fill:#ff9955;stroke-width:0.50507629"
       d="m 373.44053,173.72516 -46.32798,-27.63665 -0.0409,-27.77919 -0.0409,-27.779196 -18.0665,-10.732871 c -9.93659,-5.903079 -18.30693,-10.732871 -18.60078,-10.732871 -0.29384,0 -0.67131,0.51139 -0.83881,1.136422 -0.1675,0.625032 -0.30765,12.695415 -0.31145,26.82308 -0.006,23.990646 -0.0637,25.664846 -0.86758,25.356376 -1.76925,-0.67892 -65.41962,-38.426396 -75.77528,-44.938082 l -5.944,-3.737609 -0.38869,-9.264892 c -0.35253,-8.402965 -0.0161,-57.5103362 0.39691,-57.927168 0.0953,-0.096225 1.15526,0.4925606 2.3554,1.3084118 C 212.2861,10.061625 344.1778,88.928663 406.51028,125.93177 l 13.51079,8.02056 v 33.72102 c 0,18.54656 -0.0568,33.71369 -0.12627,33.70473 -0.0695,-0.009 -20.97386,-12.45277 -46.45425,-27.65292 z"
       id="path32"
       inkscape:connector-curvature="0"
       transform="translate(53.643411,569.625)" /><path
       style="fill:#ff9955;stroke-width:0.50507629"
       d="m 421.0317,167.68052 5e-4,-33.20876 3.95798,-2.1366 3.95799,-2.1366 0.33467,22.04372 c 0.18406,12.12404 0.33466,26.98678 0.33466,33.02831 v 10.9846 l -4.01708,2.31705 c -2.20939,1.27438 -4.14131,2.31705 -4.29314,2.31705 -0.15184,0 -0.27585,-14.94395 -0.27558,-33.20877 z"
       id="path34"
       inkscape:connector-curvature="0"
       transform="translate(53.643411,569.625)" /><path
       style="fill:#ff9955;stroke-width:0.50507629"
       d="M 388.68297,114.19683 C 329.10562,78.673342 229.77458,19.379741 218.87443,12.833144 212.83245,9.2043521 207.88902,6.0631126 207.88902,5.852612 c 0,-0.4001705 6.60097,-4.4684497 7.25026,-4.4684497 0.64361,0 89.15181,52.6284267 168.76882,100.3526977 43.356,25.98859 44.17845,26.49167 44.18792,27.0286 0.0111,0.62998 -6.07208,3.93853 -7.24149,3.93853 -0.62299,0 -15.10019,-8.32822 -32.17156,-18.50716 z"
       id="path36"
       inkscape:connector-curvature="0"
       transform="translate(53.643411,569.625)" /><path
       style="fill:#ff9955;stroke-width:0.50507629"
       d="m 316.47926,139.36413 c -5.13852,-3.02926 -12.9793,-7.78654 -17.42397,-10.57173 l -8.08123,-5.06398 -0.31718,-7.0027 c -0.72672,-16.04438 -0.30014,-46.146109 0.65394,-46.146109 0.23686,0 1.90107,0.965959 3.69825,2.146574 l 3.26758,2.146574 0.0702,15.404827 c 0.0386,8.472654 0.21379,18.457994 0.38931,22.189634 l 0.31915,6.78481 13.63705,8.12489 13.63706,8.12489 0.14619,2.76797 c 0.0804,1.52238 -0.0337,3.63065 -0.25369,4.68503 l -0.39989,1.91707 z m -18.68667,-19.53958 c 0.51138,-0.61617 0.48732,-0.75762 -0.12885,-0.75762 -0.41668,0 -1.04055,0.34093 -1.38637,0.75762 -0.51138,0.61617 -0.48732,0.75761 0.12885,0.75761 0.41668,0 1.04055,-0.34092 1.38637,-0.75761 z"
       id="path38"
       inkscape:connector-curvature="0"
       transform="translate(53.643411,569.625)" /><path
       style="fill:#ff9955;stroke-width:0.50507629"
       d=""
       id="path40"
       inkscape:connector-curvature="0"
       transform="translate(53.643411,569.625)" /><path
       style="fill:#ff9955;stroke-width:0.50507629"
       d=""
       id="path42"
       inkscape:connector-curvature="0"
       transform="translate(53.643411,569.625)" /><path
       style="fill:#ff9955;stroke-width:0.50507629"
       d=""
       id="path44"
       inkscape:connector-curvature="0"
       transform="translate(53.643411,569.625)" /><path
       style="fill:#ff9955;stroke-width:0.50507629"
       d=""
       id="path46"
       inkscape:connector-curvature="0"
       transform="translate(53.643411,569.625)" /><path
       style="fill:#ff9955;stroke-width:0.50507629"
       d=""
       id="path48"
       inkscape:connector-curvature="0"
       transform="translate(53.643411,569.625)" /><path
       style="fill:#ff9955;stroke-width:0.50507629"
       d=""
       id="path50"
       inkscape:connector-curvature="0"
       transform="translate(53.643411,569.625)" /><path
       style="fill:#ff9955;stroke-width:0.50507629"
       d=""
       id="path52"
       inkscape:connector-curvature="0"
       transform="translate(53.643411,569.625)" /><path
       style="fill:#ff9955;stroke-width:0.50507629"
       d="m 400.57562,189.65208 c -10.27831,-6.12211 -31.018,-18.49046 -46.08821,-27.48523 L 327.08702,145.81274 V 118.06605 90.319355 l -9.97526,-5.921983 c -19.88615,-11.805759 -26.15177,-15.349046 -26.89531,-15.20964 -0.65766,0.123304 -0.79326,3.586309 -1.0278,26.248879 -0.14861,14.358759 -0.4159,26.252539 -0.59398,26.430619 -0.43657,0.43656 -42.64429,-24.317435 -70.60413,-41.407923 l -10.85914,-6.637662 -0.39914,-3.515053 c -0.45569,-4.013119 -0.26766,-62.6166012 0.20242,-63.086079 0.16959,-0.1693754 3.59558,1.7134471 7.61331,4.18405 8.83805,5.434741 117.18302,70.229829 168.34996,100.680717 l 36.87056,21.94273 0.1242,28.00107 c 0.0683,15.40059 -0.0453,30.42051 -0.25254,33.3776 l -0.37673,5.37652 z"
       id="path54"
       inkscape:connector-curvature="0"
       transform="translate(53.643411,569.625)" /><path
       style="fill:#ff9955;stroke-width:0.50507629"
       d="m 382.64541,179.01873 c -20.13992,-12.0056 -40.82279,-24.33353 -45.96194,-27.39538 l -9.34391,-5.56702 -0.13053,-27.84435 -0.13052,-27.844354 -15.77938,-9.314971 C 291.64057,69.44771 290.36661,68.745972 289.86554,69.246472 c -0.22368,0.223436 -0.52417,12.077546 -0.66775,26.34246 -0.14357,14.264918 -0.41352,26.088698 -0.59989,26.275058 -0.59401,0.59401 -78.76482,-45.659476 -81.21396,-48.054103 -0.65804,-0.643396 -0.75761,-5.047783 -0.75761,-33.51056 0,-18.023393 0.12874,-32.8986037 0.28608,-33.0560234 0.15735,-0.1574197 9.58965,5.3061824 20.96067,12.1413384 27.18498,16.34098 85.7239,51.331284 135.07435,80.737618 21.80667,12.99389 43.51232,25.93816 48.23479,28.76506 l 8.58629,5.1398 0.13032,29.33071 c 0.0717,16.13189 -0.042,31.16638 -0.25254,33.40999 l -0.38285,4.07927 z"
       id="path56"
       inkscape:connector-curvature="0"
       transform="translate(53.643411,569.625)" /><path
       style="fill:#ff9955;stroke-width:0.50507629"
       d="M 408.85774,125.78375 C 398.21192,119.62336 219.15215,12.855569 211.55638,8.1390664 209.82324,7.0628929 208.40272,6.0283798 208.39966,5.840149 c -0.008,-0.49279 5.80122,-3.9509104 6.63706,-3.9509104 0.82272,0 1.5667,0.4288421 32.24825,18.5883484 47.83685,28.313226 172.85341,103.082313 178.41194,106.703453 1.03828,0.67639 1.89059,1.39069 1.89403,1.58732 0.007,0.41895 -3.70055,2.64223 -5.60122,3.35854 -1.17171,0.44159 -2.59659,-0.24667 -13.13198,-6.34315 z"
       id="path58"
       inkscape:connector-curvature="0"
       transform="translate(53.643411,569.625)" /><path
       style="fill:#ff9955;stroke-width:0.50507629"
       d="M 417.98067,131.06937 C 405.25672,123.87451 372.25358,104.26004 257.13395,35.47471 211.7113,8.3341421 208.39409,6.3187656 208.39409,5.8626752 c 0,-0.5232612 5.64545,-3.9734366 6.50166,-3.9734366 1.01038,0 3.96347,1.690876 32.89429,18.8345534 92.44125,54.778363 179.55462,107.151768 179.55462,107.949998 0,0.73167 -1.86828,1.97542 -4.8199,3.20868 -1.71646,0.71718 -1.894,0.68541 -4.54409,-0.8131 z"
       id="path60"
       inkscape:connector-curvature="0"
       transform="translate(53.643411,569.625)" /><path
       style="fill:#ff9955;stroke-width:0.50507629"
       d="M 411.38188,127.3197 C 400.98678,121.34903 392.91326,116.55039 306.12635,64.759122 205.18023,4.5181632 208.41182,6.4664134 208.40035,5.8425093 c -0.01,-0.5327494 5.67717,-3.9532707 6.57273,-3.9532707 1.05512,0 6.33707,3.0591379 47.71671,27.6359974 100.62816,59.766688 164.65487,98.328574 164.65487,99.168024 0,0.71685 -1.89296,1.96625 -4.8527,3.20291 l -1.81905,0.76005 z"
       id="path62"
       inkscape:connector-curvature="0"
       transform="translate(53.643411,569.625)" /><path
       style="fill:#ff9955;stroke-width:0.50507629"
       d=""
       id="path64"
       inkscape:connector-curvature="0"
       transform="translate(53.643411,569.625)" /><path
       style="fill:#ff9955;stroke-width:0.50507629"
       d=""
       id="path66"
       inkscape:connector-curvature="0"
       transform="translate(53.643411,569.625)" /><path
       style="fill:#ff9955;stroke-width:0.50507629"
       d=""
       id="path68"
       inkscape:connector-curvature="0"
       transform="translate(53.643411,569.625)" /></g></svg>