<?xml version="1.0" encoding="UTF-8" standalone="no"?>
<!-- Created with Inkscape (http://www.inkscape.org/) -->

<svg
   xmlns:dc="http://purl.org/dc/elements/1.1/"
   xmlns:cc="http://creativecommons.org/ns#"
   xmlns:rdf="http://www.w3.org/1999/02/22-rdf-syntax-ns#"
   xmlns:svg="http://www.w3.org/2000/svg"
   xmlns="http://www.w3.org/2000/svg"
   xmlns:sodipodi="http://sodipodi.sourceforge.net/DTD/sodipodi-0.dtd"
   xmlns:inkscape="http://www.inkscape.org/namespaces/inkscape"
   width="430.54434"
   height="325.29514"
   id="svg2"
   version="1.1"
   inkscape:version="0.91 r13725"
   sodipodi:docname="out.svg">
  <defs
     id="defs4">
    <inkscape:perspective
       sodipodi:type="inkscape:persp3d"
       inkscape:vp_x="0 : 526.18109 : 1"
       inkscape:vp_y="0 : 1000 : 0"
       inkscape:vp_z="744.09448 : 526.18109 : 1"
       inkscape:persp3d-origin="372.04724 : 350.78739 : 1"
       id="perspective2985" />
  </defs>
  <sodipodi:namedview
     id="base"
     pagecolor="#ffffff"
     bordercolor="#666666"
     borderopacity="1.0"
     inkscape:pageopacity="0.0"
     inkscape:pageshadow="2"
     inkscape:zoom="1.979899"
     inkscape:cx="158.88316"
     inkscape:cy="217.82587"
     inkscape:document-units="mm"
     inkscape:current-layer="layer1"
     showgrid="false"
     inkscape:object-nodes="true"
     inkscape:window-width="1297"
     inkscape:window-height="744"
     inkscape:window-x="69"
     inkscape:window-y="24"
     inkscape:window-maximized="1"
     showguides="true"
     inkscape:guide-bbox="true"
     units="mm"
     fit-margin-top="0"
     fit-margin-left="0"
     fit-margin-right="0"
     fit-margin-bottom="0" />
  <metadata
     id="metadata7">
    <rdf:RDF>
      <cc:Work
         rdf:about="">
        <dc:format>image/svg+xml</dc:format>
        <dc:type
           rdf:resource="http://purl.org/dc/dcmitype/StillImage" />
        <dc:title></dc:title>
      </cc:Work>
    </rdf:RDF>
  </metadata>
  <g
     inkscape:label="Layer 1"
     inkscape:groupmode="layer"
     id="layer1"
     transform="translate(-53.643411,-569.625)">
    <path
       inkscape:connector-curvature="0"
       id="path3910"
       d="m 268.92493,570.13899 -214.781253,128.125 9.3125,5.5625 205.468753,-122.59375 9.2813,-5.5625 z"
       style="fill:#d7d7f4;fill-opacity:1;stroke:#000000;stroke-width:1px;stroke-linecap:round;stroke-linejoin:round;stroke-opacity:1"
       sodipodi:nodetypes="cccccc" />
    <path
       inkscape:connector-curvature="0"
       id="path3918"
       d="m 54.145499,698.27585 0,68 9.311245,5.55583 0,-68 z"
       style="fill:#f2f2f2;stroke:#000000;stroke-width:1px;stroke-linecap:round;stroke-linejoin:round;stroke-opacity:1" />
    <path
       style="fill:none;stroke:#000000;stroke-width:1px;stroke-linecap:butt;stroke-linejoin:miter;stroke-opacity:1"
       d="m 54.209882,764.5965 9.311245,5.55583 -0.03124,-11.0625 -9.25,-5.53125 z"
       id="path5998"
       inkscape:connector-curvature="0" />
    <path
       inkscape:connector-curvature="0"
       id="path6000"
       d="m 54.178642,753.534 9.311245,5.55583 -0.03124,-11.0625 -9.25,-5.53125 z"
       style="fill:none;stroke:#000000;stroke-width:1px;stroke-linecap:butt;stroke-linejoin:miter;stroke-opacity:1" />
    <path
       style="fill:none;stroke:#000000;stroke-width:1px;stroke-linecap:butt;stroke-linejoin:miter;stroke-opacity:1"
       d="m 54.208647,742.49608 9.311245,5.55583 -0.03124,-11.0625 -9.25,-5.53125 z"
       id="path6002"
       inkscape:connector-curvature="0" />
    <path
       inkscape:connector-curvature="0"
       id="path6004"
       d="m 54.238652,731.45816 9.311245,5.55583 -0.03124,-11.0625 -9.25,-5.53125 z"
       style="fill:none;stroke:#000000;stroke-width:1px;stroke-linecap:butt;stroke-linejoin:miter;stroke-opacity:1" />
    <path
       style="fill:none;stroke:#000000;stroke-width:1px;stroke-linecap:butt;stroke-linejoin:miter;stroke-opacity:1"
       d="m 54.207412,720.39566 9.311245,5.55583 -0.03124,-11.0625 -9.25,-5.53125 z"
       id="path6006"
       inkscape:connector-curvature="0" />
    <path
       inkscape:connector-curvature="0"
       id="path6008"
       d="m 54.176172,709.33316 9.311245,5.55583 -0.03124,-11.0625 -9.25,-5.53125 z"
       style="fill:none;stroke:#000000;stroke-width:1px;stroke-linecap:butt;stroke-linejoin:miter;stroke-opacity:1" />
    <path
       sodipodi:nodetypes="ccccc"
       inkscape:connector-curvature="0"
       id="path6042"
       d="m 185.21405,632.97332 -0.089,55.21418 9.31125,5.55583 0.0312,-55.25 z"
       style="fill:#f2f2f2;stroke:#000000;stroke-width:1px;stroke-linecap:round;stroke-linejoin:round;stroke-opacity:1" />
    <path
       style="fill:#f2f2f2;fill-opacity:1;stroke:#000000;stroke-width:1px;stroke-linecap:butt;stroke-linejoin:miter;stroke-opacity:1"
       d="m 185.125,688.1875 9.31125,5.55583 -37.155,22.16292 -9.25,-5.59375 z"
       id="path6059"
       inkscape:connector-curvature="0" />
    <path
       sodipodi:nodetypes="ccccccccc"
       inkscape:connector-curvature="0"
       id="path6053"
       d="m 278.20623,575.67024 -214.737477,128.17351 0,68 93.812497,-55.96875 0.03,-55.19417 37.15625,-22.1875 -0.03,55.16292 83.76873,-49.98601 z"
       style="fill:#b3b3b3;stroke:#000000;stroke-width:1px;stroke-linecap:round;stroke-linejoin:round;stroke-opacity:1" />
    <path
       style="fill:#552200;stroke:#552200;stroke-width:0.50507629"
       d="M 5.8833126,130.94964 2.0324875,128.61474 60.431552,93.776963 C 92.551034,74.616188 140.30013,46.127159 166.54066,30.468013 192.78118,14.808866 214.52917,1.8899796 214.86952,1.7593765 c 0.6328,-0.2428312 7.76594,3.7411827 7.73986,4.3228841 -0.008,0.1766853 -19.72483,12.0698564 -43.81537,26.4292694 -24.09052,14.359413 -71.87057,42.853959 -106.177877,63.32121 -34.307305,20.46725 -62.490561,37.26688 -62.6294571,37.3325 -0.138896,0.0656 -1.9854094,-0.9314 -4.1033633,-2.2156 z"
       id="path3345"
       inkscape:connector-curvature="0"
       transform="translate(53.643411,569.625)" />
    <path
       style="fill:#552200;stroke:#552200;stroke-width:0.50507629"
       d="m 4.8096441,152.46038 -3.4092648,-2.10156 0,-4.42371 c 0,-2.43303 0.1307271,-4.4237 0.2905047,-4.4237 0.1597776,0 1.86441,0.93504 3.788072,2.07786 l 3.4975673,2.07787 0,4.48813 c 0,2.46847 -0.1704632,4.46979 -0.3788072,4.44739 -0.2083439,-0.0224 -1.9129763,-0.98643 -3.788072,-2.14228 z"
       id="path3347"
       inkscape:connector-curvature="0"
       transform="translate(53.643411,569.625)" />
    <path
       style="fill:#552200;stroke:#552200;stroke-width:0.50507629"
       d="m 4.8096441,141.4259 -3.4092648,-2.01733 0,-4.50442 c 0,-2.47743 0.1307271,-4.50442 0.2905047,-4.50442 0.1597776,0 1.86441,0.93504 3.788072,2.07787 l 3.4975673,2.07786 0,4.48813 c 0,2.46847 -0.1704632,4.46822 -0.3788072,4.44388 -0.2083439,-0.0243 -1.9129763,-0.95203 -3.788072,-2.06157 z"
       id="path3349"
       inkscape:connector-curvature="0"
       transform="translate(53.643411,569.625)" />
    <path
       style="fill:#552200;stroke:#552200;stroke-width:0.50507629"
       d="m 5.0698514,163.59933 -3.6541337,-2.13741 -0.00767,-4.66108 -0.00767,-4.66108 3.788072,2.2998 3.788072,2.29979 0,4.50786 c 0,2.47932 -0.056821,4.50374 -0.126269,4.4987 -0.069448,-0.005 -1.7706292,-0.971 -3.7804029,-2.14658 z"
       id="path3351"
       inkscape:connector-curvature="0"
       transform="translate(53.643411,569.625)" />
    <path
       style="fill:#552200;stroke:#552200;stroke-width:0.50507629"
       d="m 5.0698514,174.71101 -3.6541337,-2.13741 -0.00767,-4.71315 -0.00767,-4.71315 1.894036,1.14779 c 1.0417198,0.63128 2.7463522,1.67545 3.788072,2.32037 l 1.894036,1.17259 0,4.53935 c 0,2.49664 -0.056821,4.53522 -0.126269,4.53019 -0.069448,-0.005 -1.7706292,-0.971 -3.7804029,-2.14658 z"
       id="path3353"
       inkscape:connector-curvature="0"
       transform="translate(53.643411,569.625)" />
    <path
       style="fill:#552200;stroke:#552200;stroke-width:0.50507629"
       d="m 5.1884513,185.77921 -3.5355339,-2.17135 -0.1459283,-4.68659 -0.1459284,-4.68659 1.9136953,1.15993 c 1.0525325,0.63797 2.7660115,1.6876 3.8077313,2.33253 l 1.894036,1.17258 0,4.53935 c 0,2.49665 -0.056821,4.53309 -0.126269,4.52542 -0.069448,-0.008 -1.7172593,-0.99104 -3.661803,-2.18528 z"
       id="path3355"
       inkscape:connector-curvature="0"
       transform="translate(53.643411,569.625)" />
    <path
       style="fill:#552200;stroke:#552200;stroke-width:0.50507629"
       d=""
       id="path3357"
       inkscape:connector-curvature="0"
       transform="translate(53.643411,569.625)" />
    <path
       style="fill:#552200;stroke:#552200;stroke-width:0.50507629"
       d="M 5.1884513,196.89089 1.6529174,194.71954 1.5069068,190.02673 1.3608961,185.33392 3.77975,186.7518 c 1.3303696,0.77983 3.0424488,1.77259 3.80462,2.20613 1.3538625,0.77011 1.3858399,0.89582 1.3889598,5.46022 0.00176,2.56957 -0.053627,4.66568 -0.1230755,4.65802 -0.069448,-0.008 -1.7172593,-0.99104 -3.661803,-2.18528 z"
       id="path3359"
       inkscape:connector-curvature="0"
       transform="translate(53.643411,569.625)" />
    <path
       style="fill:#803300;stroke:#552200;stroke-width:0.50507629"
       d="m 10.491752,167.63234 0,-32.973 13.51079,-8.04987 C 31.433477,122.18203 79.312035,93.608576 130.39934,63.112894 181.48665,32.61721 223.36541,7.666197 223.46328,7.666197 c 0.0979,0 0.11946,14.902316 0.048,33.116259 l -0.12991,33.116261 -40.91118,24.408563 -40.91118,24.40856 -0.13063,-27.256437 c -0.10598,-22.112012 -0.25502,-27.225778 -0.78966,-27.093978 -0.36246,0.08935 -8.9973,5.132272 -19.18853,11.20648 l -18.52951,11.044018 0,27.607377 0,27.60738 -45.911518,27.38733 c -25.251335,15.06303 -46.04785,27.38732 -46.214479,27.38732 -0.166628,0 -0.302961,-14.83785 -0.302961,-32.97299 z"
       id="path3374"
       inkscape:connector-curvature="0"
       transform="translate(53.643411,569.625)" />
    <path
       style="fill:#aa4400;stroke:#552200;stroke-width:0.50507629"
       d="m 104.43594,140.05097 0,-4.49091 13.51079,-8.06983 13.51079,-8.06984 1.76777,1.04247 c 0.97227,0.57336 2.73612,1.63582 3.91966,2.36102 l 2.15189,1.31855 -17.08077,10.19972 c -9.39442,5.60984 -17.23813,10.19972 -17.43045,10.19972 -0.19232,0 -0.34968,-2.02091 -0.34968,-4.4909 z"
       id="path3376"
       inkscape:connector-curvature="0"
       transform="translate(53.643411,569.625)" />
    <path
       style="fill:#aa4400;stroke:#552200;stroke-width:0.50507629"
       d="m 136.12947,120.41657 -3.91434,-2.27613 0,-21.611725 0,-21.611721 3.84722,-2.335702 c 2.11597,-1.284637 3.93631,-2.246612 4.0452,-2.137724 0.10889,0.108889 0.13909,11.909489 0.0671,26.223557 l -0.13085,26.025575 -3.91435,-2.27613 z"
       id="path3378"
       inkscape:connector-curvature="0"
       transform="translate(53.643411,569.625)" />
    <path
       style="fill:#aa4400;stroke:#552200;stroke-width:0.50507629"
       d="m 10.996828,167.40401 0,-32.73178 10.985409,-6.54345 C 28.024212,124.52988 47.968411,112.63203 66.30268,101.68913 84.636948,90.746223 126.91183,65.532528 160.24687,45.6587 193.5819,25.784871 221.36741,9.1938577 221.99244,8.7897808 l 1.13642,-0.7346851 0,32.8541453 0,32.854146 -4.16688,2.492869 c -2.29178,1.37108 -17.23573,10.285333 -33.20876,19.80945 -15.97304,9.524114 -32.33751,19.283114 -36.36549,21.686654 l -7.32361,4.37007 -0.30693,-23.514276 c -0.41879,-32.083606 -0.35761,-30.332805 -1.06004,-30.332805 -0.33515,0 -2.66481,1.216588 -5.17703,2.703532 -2.51222,1.48694 -10.98846,6.512974 -18.83608,11.168964 l -14.26841,8.465432 0,27.605413 0,27.60541 -12.753173,7.61824 c -43.090835,25.74072 -75.403661,44.9477 -77.551641,46.09727 l -1.113988,0.59619 0,-32.73179 z"
       id="path3380"
       inkscape:connector-curvature="0"
       transform="translate(53.643411,569.625)" />
    <path
       style="fill:#d45500;stroke:#552200;stroke-width:0.50507629"
       d="m 104.94101,139.90958 0,-4.20961 12.9761,-7.78506 c 7.13686,-4.28179 13.23827,-7.78506 13.55869,-7.78506 0.32042,0 2.00162,0.86201 3.736,1.91559 2.55317,1.55097 3.02475,2.0316 2.47748,2.52501 -0.37176,0.33518 -7.15353,4.42921 -15.0706,9.09785 -7.91707,4.66864 -15.13334,8.92998 -16.03617,9.46965 l -1.6415,0.98123 0,-4.2096 z"
       id="path3382"
       inkscape:connector-curvature="0"
       transform="translate(53.643411,569.625)" />
    <path
       style="fill:#d45500;stroke:#552200;stroke-width:0.50507629"
       d="m 135.87694,119.91221 -3.15673,-1.85226 0,-21.565645 0,-21.565642 3.53553,-2.038386 3.53554,-2.038386 0,25.480771 c 0,14.014428 -0.17047,25.469758 -0.37881,25.456288 -0.20834,-0.0135 -1.79933,-0.858 -3.53553,-1.87674 z"
       id="path3384"
       inkscape:connector-curvature="0"
       transform="translate(53.643411,569.625)" />
  </g>
</svg>
