<?xml version="1.0" encoding="UTF-8" standalone="no"?>
<!-- Generator: Adobe Illustrator 16.0.0, SVG Export Plug-In . SVG Version: 6.00 Build 0)  -->

<svg
   xmlns:dc="http://purl.org/dc/elements/1.1/"
   xmlns:cc="http://creativecommons.org/ns#"
   xmlns:rdf="http://www.w3.org/1999/02/22-rdf-syntax-ns#"
   xmlns:svg="http://www.w3.org/2000/svg"
   xmlns="http://www.w3.org/2000/svg"
   xmlns:sodipodi="http://sodipodi.sourceforge.net/DTD/sodipodi-0.dtd"
   xmlns:inkscape="http://www.inkscape.org/namespaces/inkscape"
   version="1.1"
   id="svg2"
   sodipodi:docname="quirky.svg"
   inkscape:version="0.92.3 (d244b95, 2018-08-02)"
   x="0px"
   y="0px"
   width="430.543px"
   height="325.295px"
   viewBox="0 0 430.543 325.295"
   enable-background="new 0 0 430.543 325.295"
   xml:space="preserve"><metadata
     id="metadata19"><rdf:RDF><cc:Work
         rdf:about=""><dc:format>image/svg+xml</dc:format><dc:type
           rdf:resource="http://purl.org/dc/dcmitype/StillImage" /><dc:title></dc:title></cc:Work></rdf:RDF></metadata><defs
     id="defs3"><inkscape:perspective
       id="perspective2985"
       inkscape:vp_z="744.09448 : 526.18109 : 1"
       inkscape:vp_y="0 : 1000 : 0"
       inkscape:vp_x="0 : 526.18109 : 1"
       sodipodi:type="inkscape:persp3d"
       inkscape:persp3d-origin="372.04724 : 350.78739 : 1" /></defs><sodipodi:namedview
     units="mm"
     fit-margin-left="0"
     fit-margin-top="0"
     showguides="true"
     showgrid="false"
     inkscape:cy="205.07507"
     inkscape:cx="150.04433"
     inkscape:zoom="1.979899"
     borderopacity="1.0"
     bordercolor="#666666"
     pagecolor="#ffffff"
     id="base"
     inkscape:pageshadow="2"
     inkscape:pageopacity="0.0"
     fit-margin-bottom="0"
     fit-margin-right="0"
     inkscape:guide-bbox="true"
     inkscape:window-maximized="0"
     inkscape:window-y="18"
     inkscape:window-x="0"
     inkscape:window-height="729"
     inkscape:window-width="1362"
     inkscape:object-nodes="true"
     inkscape:current-layer="layer1"
     inkscape:document-units="mm" /><g
     id="layer1"
     transform="translate(-53.643411,-569.625)"
     inkscape:label="Layer 1"
     inkscape:groupmode="layer"><path
       style="fill:#d7d7f4"
       id="path3910"
       sodipodi:nodetypes="cccccc"
       inkscape:connector-curvature="0"
       d="m 318.70384,573.34918 -214.781,128.125 9.313,5.563 205.469,-122.594 9.281,-5.563 z" /><path
       style="fill:#f2f2f2"
       id="path3918"
       inkscape:connector-curvature="0"
       d="m 103.92384,701.48618 v 68 l 9.312,5.555 v -68 z" /><path
       style="fill:none"
       id="path5998"
       inkscape:connector-curvature="0"
       d="m 103.98884,767.80718 9.312,5.556 -0.032,-11.063 -9.25,-5.531 z" /><path
       style="fill:none"
       id="path6000"
       inkscape:connector-curvature="0"
       d="m 103.95784,756.74418 9.312,5.556 -0.031,-11.063 -9.25,-5.531 z" /><path
       style="fill:none"
       id="path6002"
       inkscape:connector-curvature="0"
       d="m 103.98784,745.70618 9.311,5.556 -0.031,-11.063 -9.25,-5.531 z" /><path
       style="fill:none"
       id="path6004"
       inkscape:connector-curvature="0"
       d="m 104.01784,734.66818 9.311,5.557 -0.031,-11.063 -9.25,-5.531 z" /><path
       style="fill:none"
       id="path6006"
       inkscape:connector-curvature="0"
       d="m 103.98584,723.60618 9.312,5.556 -0.031,-11.063 -9.25,-5.531 z" /><path
       style="fill:none"
       id="path6008"
       inkscape:connector-curvature="0"
       d="m 103.95484,712.54318 9.312,5.556 -0.031,-11.063 -9.25,-5.531 z" /><path
       style="fill:#f2f2f2"
       id="path6042"
       sodipodi:nodetypes="ccccc"
       inkscape:connector-curvature="0"
       d="m 234.99284,636.18318 -0.089,55.214 9.312,5.556 0.031,-55.25 z" /><path
       style="fill:#f2f2f2"
       id="path6059"
       inkscape:connector-curvature="0"
       d="m 234.90384,691.39818 9.312,5.556 -37.155,22.163 -9.25,-5.594 z" /><path
       style="fill:#b3b3b3"
       id="path6053"
       sodipodi:nodetypes="ccccccccc"
       inkscape:connector-curvature="0"
       d="m 327.98484,578.88018 -214.737,128.174 v 68 l 93.812,-55.969 0.03,-55.194 37.156,-22.188 -0.03,55.163 83.769,-49.986 z" /><path
       style="fill:#ff2a2a;stroke-width:0.50507629"
       d="M 113.66147,740.74202 V 707.00756 L 220.26798,643.3756 c 58.63359,-34.99757 106.81787,-63.70771 107.07617,-63.80031 0.28663,-0.10275 0.46055,12.98646 0.44628,33.58757 l -0.0234,33.75593 -41.14555,24.4962 c -22.63005,13.47291 -41.3705,24.57196 -41.64543,24.66456 -0.3257,0.1097 -0.49987,-9.36415 -0.49987,-27.18994 0,-15.04706 -0.18991,-27.28254 -0.42202,-27.18994 -0.23211,0.0926 -8.63546,5.05497 -18.67411,11.0275 l -18.2521,10.85914 -0.13998,27.71648 -0.13997,27.71647 -45.20433,26.98574 c -24.86238,14.84215 -45.82936,27.32003 -46.59328,27.72861 l -1.38896,0.74288 z"
       id="path21"
       inkscape:connector-curvature="0" /><path
       style="fill:#ff2a2a;stroke-width:0.50507629"
       d="m 207.10057,713.40332 v -5.48885 l 13.87507,-8.27448 13.87507,-8.27448 0.0272,-21.97082 0.0272,-21.97082 4.40677,-2.60167 4.40677,-2.60166 0.25254,27.3504 c 0.22091,23.92534 0.15766,27.41983 -0.50507,27.90479 -1.26734,0.92736 -35.79458,21.41643 -36.09,21.41643 -0.15152,0 -0.2755,-2.46998 -0.2755,-5.48884 z"
       id="path23"
       inkscape:connector-curvature="0" /><path
       style="fill:#ff2a2a;stroke-width:0.50507629"
       d="m 108.50817,704.11072 c -2.41763,-1.43384 -4.34954,-2.64723 -4.29315,-2.69642 0.0564,-0.0492 48.35552,-28.87098 107.33139,-64.0484 l 107.22885,-63.95895 4.56622,2.73743 4.56622,2.73744 -11.03236,6.55824 c -6.06779,3.60704 -54.29863,32.38195 -107.17964,63.94426 -52.88101,31.56231 -96.29232,57.37417 -96.46957,57.35969 -0.17725,-0.0145 -2.30034,-1.19946 -4.71796,-2.63329 z"
       id="path25"
       inkscape:connector-curvature="0" /><path
       style="fill:#ff2a2a;stroke-width:0.50507629"
       d="m 108.2319,772.14832 -4.67196,-2.80345 v -33.81265 c 0,-18.59696 0.13018,-33.81265 0.28929,-33.81265 0.15912,0 2.31289,1.19324 4.78618,2.65165 l 4.49688,2.65165 0.0121,33.96638 c 0.007,18.68151 -0.0448,33.96551 -0.11422,33.96445 -0.0695,-10e-4 -2.22865,-1.26348 -4.79823,-2.80538 z"
       id="path27"
       inkscape:connector-curvature="0" /><path
       style="fill:#000080;stroke-width:0.50507629"
       d="m 113.99226,740.38316 0.0277,-33.4613 31.91833,-18.99145 c 17.55509,-10.4453 46.00996,-27.40046 63.23306,-37.67814 65.45269,-39.05809 86.85318,-51.81842 102.08976,-60.87237 l 15.72172,-9.34225 0.31006,2.58041 c 0.17054,1.41923 0.3092,16.44476 0.30814,33.39007 l -0.002,30.80965 -14.00955,8.32937 c -55.83792,33.1984 -68.01271,40.33875 -68.3865,40.10774 -0.2331,-0.14407 -0.45353,-10.64679 -0.48984,-23.33938 -0.0363,-12.69258 -0.20677,-24.73591 -0.3788,-26.76294 l -0.31271,-3.68552 -18.56155,10.99013 -18.56155,10.99012 -0.0375,26.5355 c -0.0331,23.3919 -0.14272,28.65188 -0.60686,29.11602 -0.40279,0.40279 -91.74389,54.74564 -92.01811,54.74564 -0.14935,0 -0.25905,-15.05759 -0.24379,-33.4613 z"
       id="path694"
       inkscape:connector-curvature="0" /><path
       style="fill:#000080;stroke-width:0.50507629"
       d="m 109.18071,704.21414 c -2.18918,-1.28868 -3.95239,-2.53375 -3.91826,-2.76683 0.0341,-0.23308 9.1087,-5.82402 20.1657,-12.4243 122.55581,-73.15763 193.11637,-115.18875 193.37533,-115.18875 0.48635,0 8.30402,4.75389 8.29705,5.0454 -0.004,0.14184 -15.06098,9.23318 -33.4613,20.20298 -18.40033,10.96979 -59.08726,35.22799 -90.41541,53.90711 -31.32816,18.67911 -63.94346,38.08237 -72.47845,43.11834 -8.53499,5.03596 -15.98305,9.44718 -16.55125,9.8027 -0.91002,0.5694 -1.50729,0.36726 -5.01341,-1.69665 z"
       id="path696"
       inkscape:connector-curvature="0" /><path
       style="fill:#000080;stroke-width:0.50507629"
       d="m 108.02987,771.77195 -4.16688,-2.54615 v -33.55108 c 0,-18.4531 0.0944,-33.55109 0.20968,-33.55109 0.11533,0 2.10407,1.09169 4.41942,2.42597 l 4.20974,2.42596 0.12984,33.68699 c 0.0714,18.52785 -0.0422,33.67991 -0.25253,33.67126 -0.21032,-0.009 -2.25749,-1.16148 -4.54927,-2.56186 z"
       id="path698"
       inkscape:connector-curvature="0" /><path
       style="fill:#000080;stroke-width:0.50507629"
       d="m 207.41423,713.16308 0.0106,-5.23107 13.87371,-8.24197 13.87371,-8.24196 0.13155,-22.03994 0.13156,-22.03992 3.73733,-2.20313 c 2.88401,-1.7001 3.83364,-2.05124 4.15914,-1.53791 0.232,0.36587 0.4253,12.52045 0.42955,27.01018 l 0.008,26.34496 -3.15673,1.98469 c -4.63906,2.91667 -31.57625,18.80068 -32.45596,19.13826 -0.63756,0.24465 -0.75118,-0.51194 -0.7422,-4.94219 z"
       id="path700"
       inkscape:connector-curvature="0" /><path
       sodipodi:type="spiral"
       style="fill:#ff6600;fill-rule:evenodd;stroke:#000000"
       id="path706"
       sodipodi:cx="265.04666"
       sodipodi:cy="647.1073"
       sodipodi:expansion="1"
       sodipodi:revolution="3.0358601"
       sodipodi:radius="25.040783"
       sodipodi:argument="-16.661596"
       sodipodi:t0="0.020314001"
       d="m 264.61735,647.38015 c -1.34096,0.2669 -1.39179,-1.69215 -0.9496,-2.44251 1.12197,-1.90388 3.83348,-1.61396 5.28891,-0.31532 2.43631,2.17384 1.89911,6.02813 -0.31895,8.13533 -3.16091,3.00292 -8.24709,2.19668 -10.98174,-0.95323 -3.58449,-4.12879 -2.50021,-10.47571 1.58751,-13.82816 5.08872,-4.1734 12.70921,-2.80699 16.67457,2.22179 4.7664,6.04467 3.1157,14.94558 -2.85607,19.52098 -6.99833,5.36192 -17.18376,3.42565 -22.36739,-3.49035 -5.95907,-7.95056 -3.73643,-19.42315 4.12462,-25.2138 8.90186,-6.55733 21.66343,-4.0478 28.06022,4.7589 7.1564,9.85249 4.35959,23.90434 -5.39318,30.90663 -9.53625,6.84682 -22.94022,5.35898 -31.12741,-2.90559" /><path
       sodipodi:type="spiral"
       style="fill:#ff6600;fill-rule:evenodd;stroke:#000000"
       id="path706-3"
       sodipodi:cx="176.01732"
       sodipodi:cy="698.08325"
       sodipodi:expansion="1"
       sodipodi:revolution="3.0358601"
       sodipodi:radius="25.040783"
       sodipodi:argument="-16.661596"
       sodipodi:t0="0.020314001"
       d="m 175.58801,698.3561 c -1.34096,0.2669 -1.39179,-1.69215 -0.94961,-2.44251 1.12197,-1.90388 3.83349,-1.61396 5.28892,-0.31532 2.4363,2.17384 1.89911,6.02813 -0.31895,8.13533 -3.16091,3.00292 -8.24709,2.19668 -10.98174,-0.95323 -3.58449,-4.12879 -2.50022,-10.47571 1.58751,-13.82816 5.08872,-4.17339 12.70921,-2.80699 16.67456,2.22179 4.76641,6.04467 3.11571,14.94558 -2.85606,19.52098 -6.99833,5.36192 -17.18376,3.42565 -22.3674,-3.49034 -5.95906,-7.95057 -3.73642,-19.42316 4.12463,-25.21381 8.90185,-6.55733 21.66343,-4.04779 28.06021,4.7589 7.15641,9.85249 4.3596,23.90435 -5.39318,30.90663 -9.53624,6.84683 -22.94021,5.35899 -31.1274,-2.90559" /><path
       sodipodi:type="spiral"
       style="fill:#ff6600;fill-rule:evenodd;stroke:#000000"
       id="path706-6"
       sodipodi:cx="304.81174"
       sodipodi:cy="621.81671"
       sodipodi:expansion="1"
       sodipodi:revolution="3.0358601"
       sodipodi:radius="25.040783"
       sodipodi:argument="-16.661596"
       sodipodi:t0="0.020314001"
       d="m 304.38243,622.08956 c -1.34097,0.2669 -1.39179,-1.69215 -0.94961,-2.44251 1.12197,-1.90388 3.83348,-1.61396 5.28892,-0.31532 2.4363,2.17384 1.89911,6.02813 -0.31895,8.13533 -3.16091,3.00292 -8.24709,2.19668 -10.98175,-0.95323 -3.58448,-4.12879 -2.50021,-10.47571 1.58751,-13.82816 5.08873,-4.1734 12.70922,-2.80699 16.67457,2.22179 4.76641,6.04467 3.1157,14.94558 -2.85607,19.52098 -6.99832,5.36192 -17.18375,3.42565 -22.36739,-3.49034 -5.95906,-7.95057 -3.73643,-19.42316 4.12463,-25.21381 8.90185,-6.55733 21.66343,-4.04779 28.06021,4.7589 7.15641,9.85249 4.3596,23.90434 -5.39318,30.90663 -9.53624,6.84683 -22.94021,5.35899 -31.1274,-2.90559" /><path
       sodipodi:type="spiral"
       style="fill:#ff6600;fill-rule:evenodd;stroke:#000000"
       id="path706-3-7"
       sodipodi:cx="132.68013"
       sodipodi:cy="723.71558"
       sodipodi:expansion="1"
       sodipodi:revolution="3.0358601"
       sodipodi:radius="25.040783"
       sodipodi:argument="-16.661596"
       sodipodi:t0="0.020314001"
       d="m 132.25082,723.98842 c -1.34096,0.26691 -1.39179,-1.69215 -0.9496,-2.4425 1.12196,-1.90389 3.83348,-1.61397 5.28891,-0.31532 2.43631,2.17384 1.89911,6.02812 -0.31895,8.13532 -3.16091,3.00293 -8.24709,2.19668 -10.98174,-0.95323 -3.58449,-4.12878 -2.50022,-10.4757 1.58751,-13.82815 5.08872,-4.1734 12.70921,-2.80699 16.67456,2.22179 4.76641,6.04466 3.11571,14.94557 -2.85606,19.52098 -6.99833,5.36192 -17.18376,3.42564 -22.36739,-3.49035 -5.95907,-7.95056 -3.73643,-19.42316 4.12462,-25.2138 8.90185,-6.55733 21.66343,-4.0478 28.06022,4.7589 7.1564,9.85249 4.35959,23.90434 -5.39318,30.90663 -9.53625,6.84682 -22.94022,5.35898 -31.12741,-2.90559" /></g></svg>