<?xml version="1.0" encoding="UTF-8" standalone="no"?>
<!-- Generator: Adobe Illustrator 16.0.0, SVG Export Plug-In . SVG Version: 6.00 Build 0)  -->

<svg
   xmlns:dc="http://purl.org/dc/elements/1.1/"
   xmlns:cc="http://creativecommons.org/ns#"
   xmlns:rdf="http://www.w3.org/1999/02/22-rdf-syntax-ns#"
   xmlns:svg="http://www.w3.org/2000/svg"
   xmlns="http://www.w3.org/2000/svg"
   xmlns:sodipodi="http://sodipodi.sourceforge.net/DTD/sodipodi-0.dtd"
   xmlns:inkscape="http://www.inkscape.org/namespaces/inkscape"
   version="1.1"
   id="svg2"
   sodipodi:docname="redDoor.svg"
   inkscape:version="0.92.2 5c3e80d, 2017-08-06"
   x="0px"
   y="0px"
   width="430.543px"
   height="325.295px"
   viewBox="0 0 430.543 325.295"
   enable-background="new 0 0 430.543 325.295"
   xml:space="preserve"><metadata
     id="metadata19"><rdf:RDF><cc:Work
         rdf:about=""><dc:format>image/svg+xml</dc:format><dc:type
           rdf:resource="http://purl.org/dc/dcmitype/StillImage" /></cc:Work></rdf:RDF></metadata><defs
     id="defs3"><inkscape:perspective
       id="perspective2985"
       inkscape:vp_z="744.09448 : 526.18109 : 1"
       inkscape:vp_y="0 : 1000 : 0"
       inkscape:vp_x="0 : 526.18109 : 1"
       sodipodi:type="inkscape:persp3d"
       inkscape:persp3d-origin="372.04724 : 350.78739 : 1" /></defs><sodipodi:namedview
     units="mm"
     fit-margin-left="0"
     fit-margin-top="0"
     showguides="true"
     showgrid="false"
     inkscape:cy="278.43502"
     inkscape:cx="150.04433"
     inkscape:zoom="1.979899"
     borderopacity="1.0"
     bordercolor="#666666"
     pagecolor="#ffffff"
     id="base"
     inkscape:pageshadow="2"
     inkscape:pageopacity="0.0"
     fit-margin-bottom="0"
     fit-margin-right="0"
     inkscape:guide-bbox="true"
     inkscape:window-maximized="1"
     inkscape:window-y="1"
     inkscape:window-x="0"
     inkscape:window-height="710"
     inkscape:window-width="1280"
     inkscape:object-nodes="true"
     inkscape:current-layer="layer1"
     inkscape:document-units="mm" /><g
     id="layer1"
     transform="translate(-53.643411,-569.625)"
     inkscape:label="Layer 1"
     inkscape:groupmode="layer"><path
       id="path3910"
       sodipodi:nodetypes="cccccc"
       inkscape:connector-curvature="0"
       fill="#D7D7F4"
       d="M268.925,570.139   L54.144,698.264l9.313,5.563l205.469-122.594l9.281-5.563L268.925,570.139z" /><path
       id="path3918"
       inkscape:connector-curvature="0"
       fill="#F2F2F2"
       d="M54.145,698.276v68l9.312,5.555v-68L54.145,698.276z" /><path
       id="path5998"
       inkscape:connector-curvature="0"
       fill="none"
       d="M54.21,764.597l9.312,5.556L63.49,759.09l-9.25-5.531   L54.21,764.597z" /><path
       id="path6000"
       inkscape:connector-curvature="0"
       fill="none"
       d="M54.179,753.534l9.312,5.556l-0.031-11.063l-9.25-5.531   L54.179,753.534z" /><path
       id="path6002"
       inkscape:connector-curvature="0"
       fill="none"
       d="M54.209,742.496l9.311,5.556l-0.031-11.063l-9.25-5.531   L54.209,742.496z" /><path
       id="path6004"
       inkscape:connector-curvature="0"
       fill="none"
       d="M54.239,731.458l9.311,5.557l-0.031-11.063l-9.25-5.531   L54.239,731.458z" /><path
       id="path6006"
       inkscape:connector-curvature="0"
       fill="none"
       d="M54.207,720.396l9.312,5.556l-0.031-11.063l-9.25-5.531   L54.207,720.396z" /><path
       id="path6008"
       inkscape:connector-curvature="0"
       fill="none"
       d="M54.176,709.333l9.312,5.556l-0.031-11.063l-9.25-5.531   L54.176,709.333z" /><path
       id="path6042"
       sodipodi:nodetypes="ccccc"
       inkscape:connector-curvature="0"
       fill="#F2F2F2"
       d="M185.214,632.973   l-0.089,55.214l9.312,5.556l0.031-55.25L185.214,632.973z" /><path
       id="path6059"
       inkscape:connector-curvature="0"
       fill="#F2F2F2"
       d="M185.125,688.188l9.312,5.556l-37.155,22.163l-9.25-5.594   L185.125,688.188z" /><path
       id="path6053"
       sodipodi:nodetypes="ccccccccc"
       inkscape:connector-curvature="0"
       fill="#B3B3B3"
       d="M278.206,575.67   L63.469,703.844v68l93.812-55.969l0.03-55.194l37.156-22.188l-0.03,55.163l83.769-49.986V575.67z" /><path
       style="fill:#ff2a2a;stroke-width:0.50507629"
       d="M 10.239214,167.90683 V 134.17237 L 116.84573,70.540413 C 175.47932,35.54284 223.6636,6.8326991 223.9219,6.7401018 c 0.28663,-0.1027487 0.46055,12.9864582 0.44628,33.5875722 l -0.0234,33.75593 -41.14555,24.496199 c -22.63005,13.472907 -41.3705,24.571957 -41.64543,24.664557 -0.3257,0.1097 -0.49987,-9.36415 -0.49987,-27.189938 0,-15.047065 -0.18991,-27.282538 -0.42202,-27.189937 -0.23211,0.0926 -8.63546,5.05497 -18.67411,11.027496 l -18.2521,10.85914 -0.13998,27.716479 -0.13997,27.71647 -45.20433,26.98574 c -24.86238,14.84215 -45.829358,27.32003 -46.593286,27.72861 l -1.38896,0.74288 z"
       id="path21"
       inkscape:connector-curvature="0"
       transform="translate(53.643411,569.625)" /><path
       style="fill:#ff2a2a;stroke-width:0.50507629"
       d="m 103.67832,140.56813 v -5.48885 l 13.87507,-8.27448 13.87507,-8.27448 0.0272,-21.970822 0.0272,-21.970817 4.40677,-2.601665 4.40677,-2.601665 0.25254,27.350402 c 0.22091,23.925337 0.15766,27.419827 -0.50507,27.904787 -1.26734,0.92736 -35.79458,21.41643 -36.09,21.41643 -0.15152,0 -0.2755,-2.46998 -0.2755,-5.48884 z"
       id="path23"
       inkscape:connector-curvature="0"
       transform="translate(53.643411,569.625)" /><path
       style="fill:#ff2a2a;stroke-width:0.50507629"
       d="M 5.0859168,131.27553 C 2.6682915,129.84169 0.73637473,128.6283 0.79276867,128.57911 0.84916256,128.52991 49.148288,99.708134 108.12416,64.530713 l 107.22885,-63.95895371 4.56622,2.73743361 4.56622,2.7374338 -11.03236,6.5582453 C 207.3853,16.211907 159.15446,44.986823 106.27345,76.549129 53.392435,108.11144 9.9811312,133.9233 9.8038782,133.90882 9.6266247,133.89433 7.5035427,132.70936 5.0859168,131.27553 Z"
       id="path25"
       inkscape:connector-curvature="0"
       transform="translate(53.643411,569.625)" /><path
       style="fill:#ff2a2a;stroke-width:0.50507629"
       d="m 4.8096441,199.31313 -4.67195546,-2.80345 v -33.81265 c 0,-18.59696 0.1301821,-33.81265 0.28929349,-33.81265 0.1591114,0 2.31288897,1.19324 4.78617247,2.65165 l 4.4968789,2.65165 0.012051,33.96638 c 0.00663,18.68151 -0.04477,33.96551 -0.1142169,33.96445 -0.069448,-10e-4 -2.2286491,-1.26348 -4.7982246,-2.80538 z"
       id="path27"
       inkscape:connector-curvature="0"
       transform="translate(53.643411,569.625)" /></g></svg>