<?xml version="1.0" encoding="UTF-8" standalone="no"?>
<!-- Generator: Adobe Illustrator 16.0.0, SVG Export Plug-In . SVG Version: 6.00 Build 0)  -->

<svg
   xmlns:dc="http://purl.org/dc/elements/1.1/"
   xmlns:cc="http://creativecommons.org/ns#"
   xmlns:rdf="http://www.w3.org/1999/02/22-rdf-syntax-ns#"
   xmlns:svg="http://www.w3.org/2000/svg"
   xmlns="http://www.w3.org/2000/svg"
   xmlns:sodipodi="http://sodipodi.sourceforge.net/DTD/sodipodi-0.dtd"
   xmlns:inkscape="http://www.inkscape.org/namespaces/inkscape"
   version="1.1"
   id="svg2"
   inkscape:version="0.92.2 (5c3e80d, 2017-08-06)"
   sodipodi:docname="right.svg"
   x="0px"
   y="0px"
   width="430.543px"
   height="325.295px"
   viewBox="0 0 430.543 325.295"
   enable-background="new 0 0 430.543 325.295"
   xml:space="preserve"><metadata
     id="metadata46"><rdf:RDF><cc:Work
         rdf:about=""><dc:format>image/svg+xml</dc:format><dc:type
           rdf:resource="http://purl.org/dc/dcmitype/StillImage" /></cc:Work></rdf:RDF></metadata><defs
     id="defs30"><inkscape:perspective
       sodipodi:type="inkscape:persp3d"
       inkscape:vp_x="0 : 526.18109 : 1"
       inkscape:vp_y="0 : 1000 : 0"
       inkscape:vp_z="744.09448 : 526.18109 : 1"
       id="perspective2985"
       inkscape:persp3d-origin="372.04724 : 350.78739 : 1" /></defs><sodipodi:namedview
     units="mm"
     pagecolor="#ffffff"
     bordercolor="#666666"
     borderopacity="1.0"
     inkscape:zoom="1.979899"
     inkscape:cx="350.3091"
     inkscape:cy="187.50238"
     showgrid="false"
     showguides="true"
     fit-margin-top="0"
     fit-margin-left="0"
     id="base"
     inkscape:document-units="mm"
     inkscape:current-layer="layer1"
     inkscape:object-nodes="true"
     inkscape:window-width="1366"
     inkscape:window-height="745"
     inkscape:window-x="-8"
     inkscape:window-y="-8"
     inkscape:window-maximized="1"
     inkscape:guide-bbox="true"
     fit-margin-right="0"
     fit-margin-bottom="0"
     inkscape:pageopacity="0.0"
     inkscape:pageshadow="2" /><g
     id="layer1"
     transform="translate(-53.643411,-569.625)"
     inkscape:label="Layer 1"
     inkscape:groupmode="layer"><path
       id="path3910"
       inkscape:connector-curvature="0"
       sodipodi:nodetypes="cccccc"
       fill="#D7D7F4"
       d="M268.908,570.139   l214.781,128.125l-9.313,5.563L268.908,581.233l-9.281-5.563L268.908,570.139z" /><path
       id="path3918"
       inkscape:connector-curvature="0"
       fill="#B3B3B3"
       d="M483.687,698.276v68l-9.311,5.555v-68L483.687,698.276z" /><path
       id="path5998"
       inkscape:connector-curvature="0"
       fill="#B3B3B3"
       d="M483.622,764.597l-9.311,5.556l0.031-11.063l9.25-5.531   L483.622,764.597z" /><path
       id="path6000"
       inkscape:connector-curvature="0"
       fill="#B3B3B3"
       d="M483.654,753.534l-9.311,5.556l0.031-11.063l9.25-5.531   L483.654,753.534z" /><path
       id="path6002"
       inkscape:connector-curvature="0"
       fill="#B3B3B3"
       d="M483.624,742.496l-9.311,5.556l0.031-11.063l9.25-5.531   L483.624,742.496z" /><path
       id="path6004"
       inkscape:connector-curvature="0"
       fill="#B3B3B3"
       d="M483.595,731.458l-9.313,5.557l0.031-11.063l9.25-5.531   L483.595,731.458z" /><path
       id="path6006"
       inkscape:connector-curvature="0"
       fill="#B3B3B3"
       d="M483.626,720.396l-9.313,5.556l0.031-11.063l9.25-5.531   L483.626,720.396z" /><path
       id="path6008"
       inkscape:connector-curvature="0"
       fill="#B3B3B3"
       d="M483.658,709.333l-9.313,5.556l0.031-11.063l9.25-5.531   L483.658,709.333z" /><path
       id="path6042"
       inkscape:connector-curvature="0"
       sodipodi:nodetypes="ccccc"
       fill="#B3B3B3"
       d="M352.618,632.973l0.09,55.214   l-9.312,5.556l-0.031-55.25L352.618,632.973z" /><path
       id="path6059"
       inkscape:connector-curvature="0"
       fill="#B3B3B3"
       d="M352.708,688.188l-9.312,5.556l37.155,22.163l9.25-5.594   L352.708,688.188z" /><path
       id="path6053"
       inkscape:connector-curvature="0"
       sodipodi:nodetypes="ccccccccc"
       fill="#F2F2F2"
       d="M259.627,575.67   l214.738,128.173v68l-93.813-55.969l-0.031-55.194l-37.155-22.188l0.03,55.163l-83.769-49.986V575.67z" /><path
       style="fill:#fff6d5;stroke-width:0.50507629"
       d="m 419.61699,201.53326 c 0,-0.31058 -0.20347,-0.43894 -0.45216,-0.28524 -0.24868,0.15369 -0.58247,-0.0602 -0.74176,-0.47527 -0.15928,-0.41509 -0.51603,-0.75472 -0.79278,-0.75472 -0.27674,0 -2.55672,-1.24522 -5.06661,-2.76715 -2.5099,-1.52193 -4.56693,-2.60153 -4.57118,-2.39911 -0.004,0.20242 -0.17472,0.12588 -0.37881,-0.1701 -0.20409,-0.29598 -2.30299,-1.69333 -4.66422,-3.10523 -2.36123,-1.41189 -5.08864,-3.042 -6.06092,-3.62245 -0.97227,-0.58045 -2.23167,-1.26181 -2.79867,-1.51411 -0.567,-0.25231 -1.33143,-0.82085 -1.69873,-1.26342 -0.3673,-0.44256 -0.86935,-0.68012 -1.11567,-0.52788 -0.24631,0.15223 -0.44784,0.0227 -0.44784,-0.28791 0,-0.31058 -0.20347,-0.43894 -0.45216,-0.28525 -0.24868,0.1537 -0.588,-0.0746 -0.75404,-0.50728 -0.16604,-0.4327 -0.53078,-0.64526 -0.81054,-0.47237 -0.27975,0.1729 -0.50864,0.0603 -0.50864,-0.25033 0,-0.31058 -0.20788,-0.43622 -0.46194,-0.2792 -0.25406,0.15702 -0.53817,0.0934 -0.63135,-0.14129 -0.13964,-0.35182 -14.6761,-9.15623 -19.10976,-11.57437 -0.69448,-0.37878 -1.94455,-1.13316 -2.77792,-1.6764 -0.83338,-0.54325 -1.91298,-1.12522 -2.39912,-1.29328 -0.48613,-0.16806 -0.88388,-0.51975 -0.88388,-0.78154 0,-0.26179 -0.20347,-0.35023 -0.45215,-0.19653 -0.24868,0.15369 -0.58801,-0.0746 -0.75405,-0.50728 -0.16604,-0.4327 -0.53078,-0.64526 -0.81054,-0.47237 -0.27975,0.1729 -0.50864,0.0602 -0.50864,-0.25033 0,-0.31058 -0.20787,-0.43622 -0.46194,-0.2792 -0.25406,0.15702 -0.53817,0.0948 -0.63134,-0.13833 -0.0932,-0.23311 -4.60328,-3.04947 -10.02245,-6.25859 -5.41917,-3.20912 -10.64671,-6.31261 -11.61676,-6.89664 -0.97004,-0.58404 -2.22762,-1.26832 -2.79462,-1.52063 -0.567,-0.25231 -1.33143,-0.82084 -1.69872,-1.26341 -0.3673,-0.44257 -0.86936,-0.68012 -1.11567,-0.52789 -0.24632,0.15223 -0.44785,0.0227 -0.44785,-0.28791 0,-0.31058 -0.22728,-0.42422 -0.50507,-0.25253 -0.2778,0.17168 -0.50508,0.0658 -0.50508,-0.23523 0,-0.30107 -0.53077,-0.74919 -1.17949,-0.99583 l -1.1795,-0.44845 -0.33422,-27.65562 c -0.2973,-24.600094 -0.42556,-27.756533 -1.16086,-28.569024 -0.45464,-0.502379 -1.02353,-0.791717 -1.2642,-0.642977 -0.24066,0.148739 -0.43757,0.01632 -0.43757,-0.294258 0,-0.310581 -0.20347,-0.438941 -0.45215,-0.285247 -0.24868,0.153695 -0.58801,-0.07458 -0.75405,-0.507283 -0.16604,-0.432699 -0.53078,-0.64526 -0.81054,-0.472368 -0.27975,0.172898 -0.50864,0.06025 -0.50864,-0.250331 0,-0.310581 -0.20787,-0.436219 -0.46194,-0.279201 -0.25406,0.157023 -0.53817,0.100824 -0.63134,-0.12489 -0.27776,-0.672873 -10.41077,-6.611322 -10.73238,-6.28971 -0.1629,0.162892 -0.29617,0.05751 -0.29617,-0.234178 0,-0.291692 -0.39775,-0.667928 -0.88388,-0.836078 -0.48614,-0.16815 -2.8158,-1.547741 -5.17704,-3.065748 -6.97544,-4.48444 -12.40068,-7.802908 -13.35598,-8.169492 -0.84851,-0.325603 -0.88401,1.031098 -0.71328,27.258572 0.11907,18.291873 0.009,27.516143 -0.32541,27.348973 -0.27779,-0.13874 -0.90282,-0.39256 -1.38896,-0.56403 -0.48614,-0.17147 -0.88388,-0.52596 -0.88388,-0.78775 0,-0.26178 -0.20347,-0.35022 -0.45216,-0.19653 -0.24868,0.1537 -0.588,-0.0746 -0.75404,-0.50728 -0.16604,-0.4327 -0.53079,-0.64526 -0.81054,-0.47237 -0.27975,0.1729 -0.50864,0.0602 -0.50864,-0.25033 0,-0.31058 -0.21159,-0.43393 -0.47018,-0.27411 -0.2586,0.15983 -0.60543,0.0717 -0.77075,-0.19575 -0.43272,-0.70016 -10.37432,-6.64412 -10.38356,-6.20821 -0.004,0.20054 -0.17472,0.12245 -0.37881,-0.17352 -0.20409,-0.29598 -2.30299,-1.69333 -4.66422,-3.10523 -2.36123,-1.4119 -5.08864,-3.042 -6.06092,-3.62245 -0.97227,-0.58046 -2.23167,-1.26181 -2.79867,-1.51412 -0.567,-0.25231 -1.33143,-0.82084 -1.69873,-1.26341 -0.3673,-0.44257 -0.86935,-0.68012 -1.11567,-0.52788 -0.24631,0.15223 -0.44784,0.0227 -0.44784,-0.28791 0,-0.31058 -0.20347,-0.43894 -0.45215,-0.28525 -0.24869,0.15369 -0.58801,-0.0746 -0.75405,-0.50728 -0.16604,-0.4327 -0.53079,-0.64526 -0.81054,-0.47237 -0.27975,0.1729 -0.50864,0.0602 -0.50864,-0.25033 0,-0.31058 -0.20787,-0.43622 -0.46194,-0.2792 -0.25407,0.15702 -0.53817,0.0948 -0.63135,-0.13833 -0.0932,-0.23311 -4.60327,-3.049472 -10.02245,-6.25859 -5.41917,-3.209119 -10.64671,-6.312605 -11.61675,-6.89664 -0.97004,-0.58404 -2.22762,-1.268322 -2.79462,-1.520628 -0.567,-0.252311 -1.33143,-0.820845 -1.69873,-1.263413 -0.3673,-0.442568 -0.86935,-0.680121 -1.11566,-0.527886 -0.24632,0.15223 -0.44785,0.02267 -0.44785,-0.287908 0,-0.310582 -0.22728,-0.424224 -0.50508,-0.252538 -0.27779,0.171685 -0.50507,0.06432 -0.50507,-0.238583 0,-0.302905 -0.39775,-0.700253 -0.88389,-0.883 -0.48613,-0.182742 -2.85205,-1.522002 -5.2576,-2.976126 -2.40554,-1.454125 -4.50792,-2.509654 -4.67195,-2.345625 -0.16403,0.164033 -0.29824,0.03307 -0.29824,-0.291015 0,-0.324092 -0.20107,-0.589257 -0.44682,-0.589257 -0.24574,0 -1.60441,-0.738674 -3.01925,-1.641498 l -2.57244,-1.641498 -0.0112,-33.713841 c -0.006,-18.542613 0.11423,-33.713841 0.26754,-33.713841 0.3792,0 4.4535,2.1980309 4.7706,2.5736796 0.32311,0.3827623 3.00832,1.8456644 4.1683,2.2708854 0.48613,0.178207 0.88388,0.524789 0.88388,0.770182 0,0.245392 0.34093,0.446168 0.75761,0.446168 0.41669,0 0.75762,0.240698 0.75762,0.534885 0,0.294186 0.22728,0.394415 0.50507,0.22273 0.2778,-0.171685 0.50508,-0.05804 0.50508,0.252538 0,0.310581 0.20347,0.438942 0.45215,0.285247 0.24869,-0.153695 0.58801,0.07458 0.75405,0.507281 0.16604,0.432699 0.50041,0.664038 0.74304,0.514085 0.24262,-0.149952 0.84282,0.171209 1.33376,0.713692 0.49094,0.542483 1.08952,0.864635 1.33019,0.715896 0.24067,-0.14874 0.43757,-0.02974 0.43757,0.264448 0,0.294187 0.3247,0.534885 0.72154,0.534885 0.39685,0 1.02188,0.292728 1.38896,0.650508 0.36708,0.357779 1.46292,1.048478 2.43519,1.534886 0.97227,0.486409 4.49518,2.597282 7.82868,4.690831 3.33351,2.093549 6.74277,4.133652 7.57615,4.533563 1.44773,0.694722 2.86184,1.526563 4.01304,2.360654 2.00013,1.449173 4.32071,2.814048 4.32071,2.541273 0,-0.178947 0.52826,0.170908 1.1739,0.777455 0.64564,0.606548 1.32749,0.949213 1.51523,0.761478 0.18773,-0.187736 0.34133,-0.07617 0.34133,0.247918 0,0.324091 0.34093,0.589256 0.75762,0.589256 0.41668,0 0.75761,0.240698 0.75761,0.534884 0,0.294186 0.17548,0.426429 0.38997,0.293872 0.21448,-0.132558 1.71476,0.649524 3.33395,1.737958 1.61919,1.088435 3.03421,1.978972 3.1445,1.978972 0.11028,0 2.79949,1.59099 5.97602,3.535534 3.17653,1.944544 6.01806,3.535534 6.31452,3.535534 0.29646,0 0.53902,0.20505 0.53902,0.455667 0,0.250617 0.62503,0.712234 1.38896,1.025815 1.9079,0.783169 3.4667,1.720928 4.66847,2.808518 0.5575,0.504528 1.01363,0.728836 1.01363,0.498463 0,-0.230373 0.52825,0.07741 1.1739,0.683953 0.64564,0.606548 1.32749,0.949213 1.51523,0.761478 0.18773,-0.187736 0.34133,-0.07617 0.34133,0.247918 0,0.324091 0.34093,0.589256 0.75762,0.589256 0.41668,0 0.75761,0.227284 0.75761,0.505076 0,0.277792 0.17046,0.465412 0.37881,0.416934 0.66529,-0.154802 3.15672,1.241075 3.15672,1.768622 0,0.279504 0.1417,0.366488 0.31488,0.193308 0.17318,-0.173181 1.0255,0.21445 1.89403,0.861397 0.86854,0.646947 3.73837,2.415027 6.37739,3.929069 7.26537,4.168228 7.23657,4.150793 7.9715,4.826231 0.37782,0.34724 1.01164,0.631346 1.40849,0.631346 0.39684,0 0.72154,0.21197 0.72154,0.471039 0,0.259074 0.47886,0.623026 1.06414,0.808788 0.58528,0.185757 1.50178,0.712466 2.03668,1.170459 0.5349,0.457988 1.13563,0.840765 1.33497,0.850609 0.46205,0.02283 2.80688,1.296667 3.14035,1.706022 0.1389,0.170508 1.33214,0.854068 2.65165,1.519027 1.31951,0.664958 2.39911,1.413976 2.39911,1.664489 0,0.250512 0.21158,0.324718 0.47018,0.164897 0.2586,-0.159827 0.61358,-0.05855 0.78886,0.225047 0.38675,0.625779 13.76834,8.592216 14.43274,8.592216 0.25886,0 0.47066,0.205051 0.47066,0.455664 0,0.250619 0.62503,0.701905 1.38896,1.00286 1.42062,0.559659 3.20994,1.593914 3.66181,2.116577 0.13889,0.160655 1.04803,0.70039 2.0203,1.19941 4.03612,2.071545 4.54569,2.393097 4.54569,2.868434 0,0.273842 0.21899,0.362544 0.48665,0.197121 0.26766,-0.165422 0.91163,0.105268 1.43105,0.601541 0.51942,0.496268 1.26638,0.976999 1.65992,1.068302 0.39354,0.0913 1.39738,0.675439 2.23075,1.298097 2.36211,1.764852 12.70737,7.879819 13.33103,7.879819 0.30722,0 0.55857,0.21197 0.55857,0.47104 0,0.25907 0.50079,0.62998 1.11287,0.82424 0.61207,0.19427 1.4238,0.66416 1.80384,1.04419 0.38004,0.38004 1.01567,0.69098 1.41252,0.69098 0.39684,0 0.72153,0.17363 0.72153,0.38584 0,0.21221 1.13643,0.92538 2.52539,1.58481 1.38896,0.65944 2.52538,1.39495 2.52538,1.63447 0,0.23952 0.17046,0.38876 0.3788,0.33165 0.62099,-0.17024 3.66181,1.60447 3.66181,2.13712 0,0.27066 0.18361,0.43528 0.40803,0.36584 0.22441,-0.0694 3.00865,1.48576 6.18718,3.45602 3.17854,1.97026 6.79097,4.12946 8.02764,4.79823 1.23667,0.66876 2.53572,1.47597 2.88679,1.79379 0.35106,0.31782 1.61209,1.07778 2.80227,1.68878 2.85033,1.46326 3.90191,2.07207 5.70999,3.3058 0.82762,0.56472 2.35707,1.41336 3.39879,1.88587 1.04172,0.47251 1.89404,1.10348 1.89404,1.40216 0,0.29868 0.19286,0.42386 0.42858,0.27817 0.23572,-0.14568 0.91316,0.18657 1.50542,0.73834 0.59226,0.55178 1.13807,0.98381 1.21291,0.96009 0.0748,-0.0237 0.53383,0.10949 1.01997,0.29604 0.82959,0.31834 0.88388,2.41255 0.88388,34.09544 0,21.95936 -0.17651,33.86536 -0.50508,34.06842 -0.27779,0.17169 -0.50507,0.058 -0.50507,-0.25254 z"
       id="path48"
       inkscape:connector-curvature="0"
       transform="translate(53.643411,569.625)" /><path
       style="fill:#fff6d5;stroke-width:0.50507629"
       d="m 416.83907,131.6399 c -7.77213,-4.73706 -40.53414,-24.28263 -42.42641,-25.31127 -2.19377,-1.19254 -6.11511,-3.55742 -10.10153,-6.09203 -1.38896,-0.88312 -3.84679,-2.374322 -5.46186,-3.313779 -1.61506,-0.939462 -3.31969,-1.938609 -3.78807,-2.220326 -0.46837,-0.281721 -3.69264,-2.191829 -7.16504,-4.244686 -3.4724,-2.052857 -10.06365,-6.002357 -14.64722,-8.77667 -4.58356,-2.774308 -10.49296,-6.29722 -13.13198,-7.828687 -2.63902,-1.531472 -10.9349,-6.46787 -18.43528,-10.969777 -7.50039,-4.501901 -14.31892,-8.564346 -15.15229,-9.027652 -0.83338,-0.463302 -2.19708,-1.257064 -3.03046,-1.763913 -2.42047,-1.472106 -30.8735,-18.492318 -48.48732,-29.004454 -8.88934,-5.305264 -18.74939,-11.190987 -21.91122,-13.079384 -3.16182,-1.8883969 -5.94606,-3.433449 -6.18718,-3.433449 -0.91391,0 -0.38399,-0.8675392 0.95055,-1.5561502 0.76393,-0.3941811 1.77416,-1.0576195 2.24496,-1.4743074 0.47079,-0.4166879 1.86653,-1.2874362 3.10163,-1.9349962 l 2.24564,-1.17738174 5.88631,3.57649404 c 3.23748,1.9670716 6.00484,3.5764941 6.14971,3.5764941 0.14487,0 1.00836,0.5682108 1.91887,1.2626906 0.91051,0.6944799 1.79308,1.2626908 1.96128,1.2626908 0.1682,0 1.39671,0.738674 2.73002,1.641498 1.33331,0.902824 3.33345,2.106719 4.44474,2.675324 3.32019,1.69881 9.58422,5.484469 9.76503,5.90148 0.0926,0.213565 0.3727,0.3883 0.62245,0.3883 0.24975,0 1.93945,0.909137 3.75488,2.020305 1.81543,1.111167 3.42559,2.020305 3.57813,2.020305 0.15253,0 1.00085,0.51196 1.88514,1.13769 2.24152,1.586119 3.45244,2.323886 4.71546,2.872971 0.59805,0.259994 1.23273,0.707937 1.41042,0.995431 0.17768,0.287493 1.16571,0.91608 2.19563,1.39686 1.02992,0.48078 5.58537,3.100632 10.12323,5.821893 4.53785,2.721262 8.43067,4.947748 8.65072,4.947748 0.22004,0 0.71201,0.376134 1.09327,0.835853 0.38125,0.459718 1.37504,1.155199 2.20841,1.545513 2.08624,0.977095 3.52371,1.821229 4.54569,2.669397 1.03686,0.860517 2.58369,1.777377 4.26727,2.529361 0.68025,0.303837 5.05783,2.870545 9.72796,5.703796 11.25149,6.825995 12.08479,7.31802 13.3561,7.886134 0.59804,0.267257 1.24515,0.74124 1.43802,1.053302 0.19286,0.312061 0.83998,0.780105 1.43802,1.040103 0.59805,0.259993 1.42829,0.685293 1.84497,0.945114 0.41669,0.259821 2.80318,1.639417 5.3033,3.065763 2.50013,1.426345 6.78303,3.941716 9.51755,5.589719 2.73452,1.647998 5.17783,2.99636 5.42957,2.99636 0.25174,0 0.45771,0.200778 0.45771,0.446169 0,0.245391 0.39775,0.589949 0.88388,0.765686 1.12789,0.407728 2.80628,1.404071 3.91435,2.323679 0.91904,0.762741 2.53763,1.756392 3.78807,2.325492 0.96112,0.437432 8.18833,4.626868 13.13198,7.612287 2.08344,1.258166 4.81085,2.855096 6.06092,3.548732 1.25006,0.693631 2.63166,1.579475 3.07022,1.96854 0.43857,0.389065 0.98888,0.707389 1.22292,0.707389 0.23405,0 0.84275,0.37757 1.35267,0.839043 1.02212,0.925002 2.40613,1.760816 4.70825,2.843366 0.83337,0.39188 5.33674,3.01928 10.00747,5.83866 4.67073,2.81938 8.62675,5.12614 8.79116,5.12614 0.1644,0 1.04388,0.56821 1.95439,1.26269 0.91051,0.69448 1.78661,1.26269 1.94689,1.26269 0.16028,0 1.42318,0.7955 2.80644,1.76777 1.38326,0.97227 2.6746,1.76777 2.86963,1.76777 0.40505,0 5.22841,2.79205 12.4357,7.19853 l 4.95126,3.02717 -4.19364,2.52454 c -2.30652,1.3885 -4.42094,2.59752 -4.69873,2.68671 -0.2778,0.0892 -2.09607,-0.80754 -4.04061,-1.99273 z"
       id="path50"
       inkscape:connector-curvature="0"
       transform="translate(53.643411,569.625)" /><path
       style="fill:#fff6d5;stroke-width:0.50507629"
       d="m 421.13221,168.00053 v -33.96039 l 1.6415,-0.85588 c 1.72721,-0.90056 4.1585,-2.34156 6.12762,-3.63178 l 1.17449,-0.76956 0.006,33.87889 0.006,33.87889 -2.88185,1.91418 c -1.58502,1.05279 -3.59982,2.27235 -4.47734,2.71011 l -1.59548,0.79593 z"
       id="path52"
       inkscape:connector-curvature="0"
       transform="translate(53.643411,569.625)" /><path
       style="fill:#fff6d5;stroke-width:0.50507629"
       d="m 325.39501,145.53217 c -0.2639,-0.24348 -1.5026,-1.00489 -2.75267,-1.69201 -2.32099,-1.27578 -5.85315,-3.52794 -6.89098,-4.3938 -0.31764,-0.26501 -0.68,-0.37936 -0.80524,-0.25412 -0.12524,0.12524 -1.00178,-0.29702 -1.94785,-0.93835 -0.94608,-0.64134 -2.6861,-1.70846 -3.86672,-2.37139 -1.18061,-0.66292 -2.14657,-1.39075 -2.14657,-1.61739 0,-0.22663 -0.27279,-0.41207 -0.6062,-0.41207 -0.33341,0 -3.40753,-1.70463 -6.83138,-3.78807 -3.42385,-2.08344 -6.35477,-3.78807 -6.51317,-3.78807 -0.15839,0 -0.94811,-0.47005 -1.75492,-1.04454 l -1.46693,-1.04455 V 96.706421 69.225033 l 3.91435,2.337268 c 2.15288,1.285498 4.2299,2.627061 4.61558,2.981251 0.57621,0.529158 0.7085,4.523425 0.74194,22.401656 0.0382,20.402132 0.0967,21.775462 0.94025,22.043182 0.49476,0.15703 0.89956,0.49748 0.89956,0.75655 0,0.25907 0.28411,0.47261 0.63135,0.47453 0.34724,0.002 4.35367,2.27476 8.90317,5.05076 4.54951,2.77601 8.34846,5.04728 8.44212,5.04728 0.0937,0 1.88297,1.0398 3.97627,2.31067 l 3.80598,2.31067 v 5.51801 c 0,5.26493 -0.20535,6.07415 -1.28794,5.07531 z m -32.73805,-22.832 c 0.93561,-0.57824 1.70111,-1.15229 1.70111,-1.27566 0,-0.23144 -2.19732,0.88459 -3.53553,1.79572 -1.43157,0.97468 0.13404,0.53083 1.83442,-0.52006 z"
       id="path54"
       inkscape:connector-curvature="0"
       transform="translate(53.643411,569.625)" /><path
       style="fill:#fff6d5;stroke-width:0.50507629"
       d="m 420.66701,147.19547 c 0.0242,-0.58838 0.14392,-0.70806 0.30515,-0.30515 0.1459,0.36461 0.12796,0.80023 -0.0399,0.96807 -0.16783,0.16783 -0.28721,-0.13048 -0.26528,-0.66292 z"
       id="path56"
       inkscape:connector-curvature="0"
       transform="translate(53.643411,569.625)" /><path
       style="fill:#fff6d5;stroke-width:0.50507629"
       d="m 421.13221,168.00965 v -33.5236 l 4.29315,-2.53849 4.29315,-2.53849 v 33.50232 33.50232 l -1.38896,0.98595 c -1.66055,1.17875 -6.64085,4.1336 -6.96702,4.1336 -0.12668,0 -0.23032,-15.08562 -0.23032,-33.52361 z"
       id="path58"
       inkscape:connector-curvature="0"
       transform="translate(53.643411,569.625)" /></g></svg>