<?xml version="1.0" encoding="utf-8"?>
<!-- Generator: Adobe Illustrator 16.0.0, SVG Export Plug-In . SVG Version: 6.00 Build 0)  -->
<!DOCTYPE svg PUBLIC "-//W3C//DTD SVG 1.1//EN" "http://www.w3.org/Graphics/SVG/1.1/DTD/svg11.dtd">
<svg version="1.1"
	 id="svg2" xmlns:dc="http://purl.org/dc/elements/1.1/" xmlns:cc="http://creativecommons.org/ns#" xmlns:rdf="http://www.w3.org/1999/02/22-rdf-syntax-ns#" xmlns:svg="http://www.w3.org/2000/svg" xmlns:sodipodi="http://sodipodi.sourceforge.net/DTD/sodipodi-0.dtd" xmlns:inkscape="http://www.inkscape.org/namespaces/inkscape" inkscape:version="0.48.5 r10040" sodipodi:docname="right.svg"
	 xmlns="http://www.w3.org/2000/svg" xmlns:xlink="http://www.w3.org/1999/xlink" x="0px" y="0px" width="430.543px"
	 height="325.295px" viewBox="0 0 430.543 325.295" enable-background="new 0 0 430.543 325.295" xml:space="preserve">
<defs>
	
	
		<inkscape:perspective  sodipodi:type="inkscape:persp3d" inkscape:vp_x="0 : 526.18109 : 1" inkscape:vp_y="0 : 1000 : 0" inkscape:vp_z="744.09448 : 526.18109 : 1" id="perspective2985" inkscape:persp3d-origin="372.04724 : 350.78739 : 1">
		</inkscape:perspective>
</defs>
<sodipodi:namedview  units="mm" pagecolor="#ffffff" bordercolor="#666666" borderopacity="1.0" inkscape:zoom="1.979899" inkscape:cx="341.63321" inkscape:cy="233.90626" showgrid="false" showguides="true" fit-margin-top="0" fit-margin-left="0" id="base" inkscape:document-units="mm" inkscape:current-layer="layer1" inkscape:object-nodes="true" inkscape:window-width="1920" inkscape:window-height="1036" inkscape:window-x="4" inkscape:window-y="44" inkscape:window-maximized="0" inkscape:guide-bbox="true" fit-margin-right="0" fit-margin-bottom="0" inkscape:pageopacity="0.0" inkscape:pageshadow="2">
	</sodipodi:namedview>
<g id="layer1" transform="translate(-53.643411,-569.625)" inkscape:label="Layer 1" inkscape:groupmode="layer">
	<path id="path3910" inkscape:connector-curvature="0" sodipodi:nodetypes="cccccc" fill="#D7D7F4" d="M268.908,570.139
		l214.781,128.125l-9.313,5.563L268.908,581.233l-9.281-5.563L268.908,570.139z"/>
	<path id="path3918" inkscape:connector-curvature="0" fill="#B3B3B3" d="M483.687,698.276v68l-9.311,5.555v-68L483.687,698.276z"/>
	<path id="path5998" inkscape:connector-curvature="0" fill="#B3B3B3" d="M483.622,764.597l-9.311,5.556l0.031-11.063l9.25-5.531
		L483.622,764.597z"/>
	<path id="path6000" inkscape:connector-curvature="0" fill="#B3B3B3" d="M483.654,753.534l-9.311,5.556l0.031-11.063l9.25-5.531
		L483.654,753.534z"/>
	<path id="path6002" inkscape:connector-curvature="0" fill="#B3B3B3" d="M483.624,742.496l-9.311,5.556l0.031-11.063l9.25-5.531
		L483.624,742.496z"/>
	<path id="path6004" inkscape:connector-curvature="0" fill="#B3B3B3" d="M483.595,731.458l-9.313,5.557l0.031-11.063l9.25-5.531
		L483.595,731.458z"/>
	<path id="path6006" inkscape:connector-curvature="0" fill="#B3B3B3" d="M483.626,720.396l-9.313,5.556l0.031-11.063l9.25-5.531
		L483.626,720.396z"/>
	<path id="path6008" inkscape:connector-curvature="0" fill="#B3B3B3" d="M483.658,709.333l-9.313,5.556l0.031-11.063l9.25-5.531
		L483.658,709.333z"/>
	<path id="path6042" inkscape:connector-curvature="0" sodipodi:nodetypes="ccccc" fill="#B3B3B3" d="M352.618,632.973l0.09,55.214
		l-9.312,5.556l-0.031-55.25L352.618,632.973z"/>
	<path id="path6059" inkscape:connector-curvature="0" fill="#B3B3B3" d="M352.708,688.188l-9.312,5.556l37.155,22.163l9.25-5.594
		L352.708,688.188z"/>
	<path id="path6053" inkscape:connector-curvature="0" sodipodi:nodetypes="ccccccccc" fill="#F2F2F2" d="M259.627,575.67
		l214.738,128.173v68l-93.813-55.969l-0.031-55.194l-37.155-22.188l0.03,55.163l-83.769-49.986V575.67z"/>
</g>
</svg>
