<svg xmlns="http://www.w3.org/2000/svg" width="430.55" height="202.64" viewBox="0 0 430.55 202.64"><defs><style>.cls-1{fill:#d7d7f4;}.cls-2{fill:#b3b3b3;}.cls-3{fill:#f2f2f2;}.cls-4{fill:aqua;}.cls-5{fill:#fff;}.cls-6{fill:#ff7f2a;}.cls-7{fill:#ead0ff;}.cls-8{fill:#f95;}.cls-11,.cls-9{fill:#00aad0;}.cls-10{fill:none;}.cls-10,.cls-11{stroke:#00aad0;stroke-miterlimit:10;}.cls-12{fill:#ff7f17;}.cls-13{fill:#ffb317;}</style></defs><title>seasidedoor</title><g id="svg2"><g id="layer1"><path id="path3910" class="cls-1" d="M215.26.51,430.05,128.64l-9.32,5.56L215.26,11.61,206,6Z"/><path id="path3918" class="cls-2" d="M430,128.65v68l-9.31,5.56v-68Z"/><path id="path5998" class="cls-2" d="M430,195l-9.31,5.56,0-11.06,9.25-5.54Z"/><path id="path6000" class="cls-2" d="M430,183.91l-9.31,5.56,0-11.07,9.25-5.53Z"/><path id="path6002" class="cls-2" d="M430,172.87l-9.31,5.56,0-11.07,9.25-5.53Z"/><path id="path6004" class="cls-2" d="M430,161.83l-9.31,5.56,0-11.06,9.25-5.53Z"/><path id="path6006" class="cls-2" d="M430,150.77l-9.31,5.56,0-11.07,9.25-5.53Z"/><path id="path6008" class="cls-2" d="M430,139.71l-9.31,5.55,0-11.06,9.25-5.53Z"/><path id="path6042" class="cls-2" d="M299,63.35l.09,55.21-9.31,5.56,0-55.25Z"/><path id="path6059" class="cls-2" d="M299.06,118.56l-9.31,5.56,37.16,22.16,9.25-5.59Z"/><path id="path6053" class="cls-3" d="M206,6,420.72,134.22v68l-93.81-56,0-55.19L289.72,68.87l0,55.16L206,74Z"/><path id="path21" class="cls-4" d="M373.81,174.39l-46.72-27.93L327,118.75,326.81,91l-13.75-8.23c-7.56-4.53-15.68-9.45-18.05-11a29.49,29.49,0,0,0-5-2.76c-.57,0-.63,4.44-.32,27.24.28,20.84.22,27.27-.23,27.27-.73,0-83-49-83.49-49.72s-.47-67.85.12-68.21c.28-.17.51-.1.51.16s5.05,3.49,11.23,7.17l26.65,15.9c115.56,69,172.82,103.16,174.36,104l1.89,1.05.14,34.22c.07,18.82,0,34.19-.12,34.17s-21.28-12.61-47-28Z"/><path id="path23" class="cls-4" d="M410.93,128l-35.86-21.39c-107.35-64-163.74-97.7-167.32-100-1.14-.73-1.09-.79,2.93-3.2A29.82,29.82,0,0,1,215.27.88c.66,0,214.1,127.33,214.09,127.73s-7.4,4.75-8.31,5c-.29.08-4.84-2.45-10.12-5.61Z"/><path id="path25" class="cls-4" d="M308.62,135.16c-9.85-5.87-18.07-10.93-18.27-11.24-.45-.67-.52-54.35-.08-54.35,1.07,0,8.35,4.92,8.57,5.79.14.56.18,10.63.11,22.37s0,21.34.27,21.34,6.54,3.67,14,8.15l13.59,8.15v5.23a42.84,42.84,0,0,1-.16,5.24c-.09,0-8.21-4.81-18.05-10.68Zm-10.57-15.88c0-.13-.46,0-1,.29s-1,.66-1,.8.46,0,1-.29S298.05,119.42,298.05,119.28Z"/><path id="path27" class="cls-4" d="M421,168V134.15l4-2.48a39.52,39.52,0,0,1,4.42-2.49c.21,0,.38,15.18.38,33.75v33.76l-2.4,1.33c-1.32.73-3.31,1.88-4.42,2.55l-2,1.23Z"/><path id="path24" class="cls-5" d="M406.64,193.71c-7.5-4.46-28.47-17-46.6-27.8l-33-19.68V90.89l-8.46-5C314,83.11,305.79,78.2,300.44,75s-9.92-5.9-10.16-5.9c-1,0-1.09,4.31-.75,28.67.19,14,.16,25.38-.07,25.38-.68,0-5.92-3-33.59-19.47-37.38-22.19-48.64-29-49.37-29.94-.49-.61-.63-7.86-.63-32.39,0-17.37.15-32.43.32-33.46L206.5,6l2.84,1.92C210.9,9,234.46,23.12,261.68,39.37c106.36,63.5,158.1,94.34,158.47,94.47.21.07.32,15.4.25,34.06l-.13,33.94Z"/><path id="path26" class="cls-5" d="M308.65,134.94c-9.44-5.68-17.45-10.71-17.8-11.17-.92-1.25-.92-53.7,0-53.69A20.41,20.41,0,0,1,295,72.52l3.54,2.42.13,22,.13,22,13.89,8.28,13.88,8.28v4.94c0,2.72-.17,4.93-.38,4.91s-8.1-4.68-17.55-10.36Zm-11.08-15.1c.54-.41.74-.75.45-.76a3.4,3.4,0,0,0-1.52.73c-.54.41-.74.75-.45.76A3.4,3.4,0,0,0,297.57,119.84Z"/><path id="path28" class="cls-5" d="M417.5,131.59c-3.58-2.06-192.8-115-202.65-120.92a76.58,76.58,0,0,1-7.45-4.81,20.24,20.24,0,0,1,3.84-2.61L215.1,1l4.35,2.55c13.34,7.81,72.2,42.81,113.19,67.29,70.46,42.09,96,57.46,96,57.82,0,.54-6.79,4.57-7.67,4.56A14.83,14.83,0,0,1,417.5,131.59Z"/><path id="path30" class="cls-6" d="M421,167.9V134.32l3.89-2.29c2.14-1.26,4.07-2.18,4.29-2s.41,15.18.4,33.43V196.6l-1.38.78-4.29,2.43L421,201.47Z"/><path id="path34" class="cls-7" d="M421,167.68V134.47l4-2.13,4-2.14.33,22c.19,12.13.34,27,.34,33v11l-4,2.31a46.82,46.82,0,0,1-4.29,2.32c-.15,0-.28-14.94-.28-33.21Z"/><path id="path36" class="cls-8" d="M388.68,114.2C329.11,78.67,229.77,19.38,218.87,12.83c-6-3.63-11-6.77-11-7,0-.4,6.6-4.47,7.25-4.47S304.29,54,383.91,101.74c43.35,26,44.18,26.49,44.19,27s-6.08,3.93-7.25,3.93c-.62,0-15.1-8.32-32.17-18.5Z"/><path id="path52" class="cls-7" d="M316.48,139.36c-5.14-3-13-7.78-17.42-10.57L291,123.73l-.31-7c-.73-16-.3-46.15.65-46.15a22.88,22.88,0,0,1,3.7,2.15l3.27,2.14.07,15.41c0,8.47.21,18.46.39,22.19l.32,6.78,13.63,8.13,13.64,8.12.15,2.77a22.43,22.43,0,0,1-.26,4.68l-.4,1.92Zm-18.69-19.54c.51-.61.49-.75-.13-.75a2.15,2.15,0,0,0-1.38.75c-.51.62-.49.76.13.76A2.13,2.13,0,0,0,297.79,119.82ZM0,0,0,0,0,0,0,0,0,0,0,0,0,0"/><path class="cls-7" d="M420,134v33.72c0,18.54-.06,33.71-.13,33.71s-21-12.45-46.45-27.65l-46.33-27.64v-.26l0,0V128.76l0-10.45,0-27.78L309,79.8c-8-4.73-14.9-8.76-17.5-10.18a3.15,3.15,0,0,0-1.24-.43c-.23,0-.39.47-.51,1.88-.19,3.66-.38,12.46-.49,22.76,0,1,0,2.12,0,3.19,0,24-.06,25.67-.86,25.36-1.77-.68-65.42-38.43-75.78-44.94l-5.94-3.74-.39-9.26c-.35-8.4,0-57.51.39-57.93A8.21,8.21,0,0,1,209,7.82c3.3,2.24,135.19,81.11,197.52,118.11Z"/><path id="path58" class="cls-8" d="M408.86,125.78C398.21,119.62,219.15,12.86,211.56,8.14a14.51,14.51,0,0,1-3.16-2.3c0-.49,5.8-3.95,6.64-3.95s1.56.43,32.24,18.59c47.84,28.31,172.86,103.08,178.42,106.7a6,6,0,0,1,1.89,1.59c0,.42-3.7,2.64-5.6,3.36C420.82,132.57,419.39,131.88,408.86,125.78Z"/><path id="path60" class="cls-8" d="M418,131.07c-12.72-7.2-45.73-26.81-160.85-95.6C211.71,8.33,208.39,6.32,208.39,5.86s5.65-4,6.51-4,4,1.69,32.89,18.83c92.44,54.78,179.55,107.16,179.55,108s-1.86,2-4.82,3.21C420.81,132.6,420.63,132.57,418,131.07Z"/><path id="path62" class="cls-7" d="M411.38,127.32c-10.39-6-18.47-10.77-105.25-62.56C205.18,4.52,208.41,6.47,208.4,5.84s5.68-3.95,6.57-3.95c1.06,0,6.34,3.06,47.72,27.64,100.63,59.76,164.65,98.32,164.65,99.16s-1.89,2-4.85,3.21l-1.82.76Z"/><path id="path64" class="cls-8" d="M0,0"/><path id="path66" class="cls-8" d="M0,0"/><path id="path68" class="cls-8" d="M0,0"/></g><path class="cls-9" d="M403.84,189q.72.45,1.47.84A1.53,1.53,0,0,1,404.2,191a1.62,1.62,0,0,1-.58.34A1.39,1.39,0,0,1,403.84,189Z"/><path class="cls-9" d="M406.63,160.54a9.36,9.36,0,0,1-1.28,6.2c-.07.1-.12.22-.19.32a3,3,0,0,1-.17.62,9.42,9.42,0,0,1-1.27.75,9.81,9.81,0,0,1-4.24,2.56,10.82,10.82,0,0,0,.93-4.77c1-1,1.94-2,2.88-3.1s1.81-2,2.63-3C406.16,160.23,406.4,160.38,406.63,160.54Z"/><path class="cls-9" d="M417.14,172.42a1.32,1.32,0,0,1,.81-.94,10.78,10.78,0,0,1,.67,1.67,1.66,1.66,0,0,0-1,.31l-.29-.24A1.47,1.47,0,0,1,417.14,172.42Z"/><path class="cls-9" d="M387.49,158.57c.71.23,1.42.46,2.14.71a.67.67,0,0,1,0,.07c-.28.53-.53,1.08-.77,1.63a3.73,3.73,0,0,0-.72-1.07c-.38-.41-.77-.8-1.17-1.18a1.4,1.4,0,0,1,.09-.29A4,4,0,0,1,387.49,158.57Z"/><path class="cls-9" d="M394.5,157.85a9.54,9.54,0,0,0-1.29,2.67l-2.21-.78a19.32,19.32,0,0,1,.58-5.14,8.41,8.41,0,0,1,3.05,3A1.71,1.71,0,0,0,394.5,157.85Z"/><path class="cls-9" d="M382.92,180.18c-2.3-1.36-3.88-3.05-6.52-3.9a1.48,1.48,0,0,1-1-1.71,1,1,0,0,0,.39.05,1.33,1.33,0,0,1,.19.14,1.55,1.55,0,0,0,1.67.19,10,10,0,0,0,4.54,2.9A97.17,97.17,0,0,1,398,184.16a27.42,27.42,0,0,0,5.84,4.83,1.39,1.39,0,0,0-.22,2.34,1.56,1.56,0,0,1-1.16,0l-1.16-.49a1.24,1.24,0,0,1-.66-.58c-4.1-2.39-8.1-4.92-12.2-7.26C386.64,181.93,384.69,181.23,382.92,180.18Z"/><path class="cls-9" d="M390.53,157.18c0-.25-.12.29-.18.73-.24.41-.6,1.14-.72,1.37-.72-.25-1.43-.48-2.14-.71a4,4,0,0,0-.46-.13,8.41,8.41,0,0,1,.86-2c.11-.18.2-.37.31-.56h.39a11,11,0,0,1,1.61-1.71A18.62,18.62,0,0,1,390.53,157.18Z"/><path class="cls-9" d="M408.74,162.68a10,10,0,0,1-3.75,5,3,3,0,0,0,.17-.62c.07-.1.12-.22.19-.32a9.36,9.36,0,0,0,1.28-6.2A8.77,8.77,0,0,1,408.74,162.68Z"/><path class="cls-9" d="M417.14,172.42a1.47,1.47,0,0,0,.17.8l-.23-.18A1.45,1.45,0,0,1,417.14,172.42Z"/><path class="cls-9" d="M384.23,173.66l.41.32a27,27,0,0,1-4.31,0,10.56,10.56,0,0,1-4.34-8.18,8.65,8.65,0,0,1,.16-2,9.66,9.66,0,0,1,3.42-4.31,9,9,0,0,0-.27,2.23,9.18,9.18,0,0,0,.81,3.8l0,.25A12.2,12.2,0,0,0,384.23,173.66Z"/><path class="cls-9" d="M406.43,159.46c-.17.21-.33.42-.51.63a10.75,10.75,0,0,0-10.18.11,10.21,10.21,0,0,0-1.11-2.58,9,9,0,0,1,6.65-4.8l.48.23A9.63,9.63,0,0,1,406.43,159.46Z"/><path class="cls-9" d="M420.44,187.84a1.59,1.59,0,0,0-.18-.68c0-3.45-.29-7.19.29-10.55a1.74,1.74,0,0,1,.05-.22,10.16,10.16,0,0,1-.16,11.57Z"/><path class="cls-9" d="M406.43,159.46c.08.36.15.72.2,1.08-.23-.16-.47-.31-.71-.45C406.1,159.88,406.26,159.67,406.43,159.46Z"/><path class="cls-9" d="M376.38,162.93a10.14,10.14,0,0,1,3.81-5.17,9.12,9.12,0,0,0-.62,1.73,9.66,9.66,0,0,0-3.42,4.31A6.17,6.17,0,0,1,376.38,162.93Z"/><path class="cls-9" d="M387,158.44a1.4,1.4,0,0,0-.09.29l-.47-.44Z"/><path class="cls-9" d="M360.88,160.43a11.21,11.21,0,0,0,9.69.17l1.55.62c1.17.46,2.31.95,3.44,1.46l.82.25a6.17,6.17,0,0,0-.23.87,11.35,11.35,0,0,0-.65,6.93,108.61,108.61,0,0,0-9.44-5.56l-.23-.13a9.11,9.11,0,0,0-1.22-.67l-.55-.3c-2.21-1.22-4.41-2.49-6.62-3.73-.33-.64-.65-1.28-1-1.94Q358.68,159.39,360.88,160.43Z"/><path class="cls-9" d="M377.63,175a7.4,7.4,0,0,1-.7-.89,1.56,1.56,0,0,0,.27-.4c.45.09.91.15,1.37.2A1.64,1.64,0,0,1,377.63,175Z"/><path class="cls-9" d="M418.62,173.15a7.58,7.58,0,0,1,.21.82l-.25,0a1.44,1.44,0,0,1-.43-.06c-.18-.16-.36-.32-.55-.47A1.66,1.66,0,0,1,418.62,173.15Z"/><path class="cls-9" d="M418.65,174.36h-.13a1.36,1.36,0,0,1-1.22-.65l.2-.2h0a1.17,1.17,0,0,0,.64.41Z"/><path class="cls-9" d="M417.17,199.71a83.18,83.18,0,0,0-7.06-4.77,1.19,1.19,0,0,1-.83,0l-1.78-.65a1.64,1.64,0,0,1-1-1.41l-.18-.12c-.81-.43-1.62-.88-2.45-1.29a1.16,1.16,0,0,1-.22-.13,1.62,1.62,0,0,0,.58-.34,1.53,1.53,0,0,0,1.11-1.16c.66.36,1.34.68,2,1,3.24,1.38,6.73,1.69,9.63.22l.21,2.6a1.56,1.56,0,0,0,.1,1l.16.34a1.5,1.5,0,0,0,2.44.21c.08.8.13,1.58.15,2.38,0,.14,0,.29,0,.44a1.18,1.18,0,0,0-.72-.19,1.58,1.58,0,0,0-1.43,1,1.48,1.48,0,0,0-.08,1.25,1.1,1.1,0,0,1-.37-.28A1.08,1.08,0,0,1,417.17,199.71Z"/><path class="cls-9" d="M410.17,160.7a19.43,19.43,0,0,1-.66,3.33,8,8,0,0,0-.77-1.35,11.29,11.29,0,0,0,.6-3.13,39.67,39.67,0,0,0,0-4.08h0a8.83,8.83,0,0,1,.9,1,5,5,0,0,0,.06.54c0,.28,0,.55,0,.82s-.14.6-.23.9a3.52,3.52,0,0,0,0,1.93Z"/><path class="cls-9" d="M417.07,174.1q-.51-.91-1-1.86c.34.26.67.53,1,.8a1.48,1.48,0,0,0,.22.68A1.6,1.6,0,0,0,417.07,174.1Z"/><path class="cls-9" d="M406.8,188.81c5.8,1.32,12.57-3.54,12.07-9.82h0a13.86,13.86,0,0,0,.09-4.33l.51.46a5.93,5.93,0,0,1,.43.44c-.12,3.47-.24,6.95-.37,10.42,0,.18,0,.36,0,.55a1.43,1.43,0,0,0-2.06,1.32c0,.53,0,1,0,1.57a1.24,1.24,0,0,0-.52,1.19c0,.14,0,.29,0,.43-2.9,1.47-6.39,1.16-9.63-.22-.7-.3-1.38-.62-2-1a1.26,1.26,0,0,0,.05-.33A3.38,3.38,0,0,0,406.8,188.81Z"/><path class="cls-9" d="M375.5,170.73a11.35,11.35,0,0,1,.65-6.93,8.65,8.65,0,0,0-.16,2,10.56,10.56,0,0,0,4.34,8.18c-.59,0-1.18-.08-1.76-.16a1.2,1.2,0,0,0-.49-1.22C377.25,172,376.39,171.35,375.5,170.73Z"/><path class="cls-9" d="M420.1,192.5c0,.58.1,1.16.14,1.74a1.15,1.15,0,0,1-.22.8c0-2.27.15-4.54.22-6.79h0a2.75,2.75,0,0,0,.19-.28,31.76,31.76,0,0,1-.07,3.78A1.6,1.6,0,0,1,420.1,192.5Z"/><path class="cls-9" d="M375.56,162.68a14.45,14.45,0,0,1-2.42-2.79c-.16-.24-.31-.48-.45-.73a9.61,9.61,0,0,0,1.87-2.32,10,10,0,0,0,1.29-4.91,9.38,9.38,0,0,0,4.2,2,8.89,8.89,0,0,1,4.05-.65l-1,.29a6,6,0,0,1-.93.06,1.71,1.71,0,0,1,.23.13h0l-.48.12a.49.49,0,0,0,.11,1,.34.34,0,0,0,.14.21,9.19,9.19,0,0,0-1.95,2.7,10.14,10.14,0,0,0-3.81,5.17Z"/><path class="cls-9" d="M417.31,173.22l.29.24a.24.24,0,0,0-.09.06h0A1,1,0,0,1,417.31,173.22Z"/><path class="cls-9" d="M391,159.74a23.81,23.81,0,0,0,1.44,7.52,9.24,9.24,0,0,0-1.54,2.57,9.34,9.34,0,0,1-3.61-4.5,3.42,3.42,0,0,0,1.54-4.35c.24-.55.49-1.1.77-1.63a.67.67,0,0,0,0-.07Z"/><path class="cls-9" d="M408.27,185.79a3.17,3.17,0,0,0-1.7-2.75q-4.59-2.64-9.16-5.3l0-.09a10.78,10.78,0,0,0,8.31-5.32c.34-.8.68-1.59,1-2.39.1-.29.17-.52.23-.69,0,.06,1.09-1.69,1.31-2.1a15.42,15.42,0,0,0,1.28-3.12,10.5,10.5,0,0,1,.71,1.91,11.13,11.13,0,0,0,1.41,3.21c1.54,1,3,2,4.45,3.09q.48.94,1,1.86a1.55,1.55,0,0,0-.14.49,52.75,52.75,0,0,0-.38,6.38c0,.34-.05.67-.07,1a1.51,1.51,0,0,0-.74,1.19c0,.26,0,.51-.05.75a7.93,7.93,0,0,1-1.18.84s0,0,0,0a1.37,1.37,0,0,0-2.11.06c-.14-.15-.27-.31-.41-.47a1.51,1.51,0,0,0-2.52,1.41,1.1,1.1,0,0,0-1,.08Z"/><path class="cls-9" d="M405.92,160.09c-.82,1-1.73,2-2.63,3s-1.89,2.14-2.88,3.1a10.82,10.82,0,0,1-.93,4.77,10.39,10.39,0,0,1-5.37.14l-.19-.38-.17-.35a11.18,11.18,0,0,0,2-10.2A10.75,10.75,0,0,1,405.92,160.09Z"/><path class="cls-9" d="M418.9,174.33a1.55,1.55,0,0,1,.06.31l-.31-.28A1,1,0,0,0,418.9,174.33Z"/><path class="cls-9" d="M404.84,188.74a1.37,1.37,0,0,1,.08-.6,7.54,7.54,0,0,0,1.88.67,3.38,3.38,0,0,1-1.44.69,1.26,1.26,0,0,1-.05.33q-.75-.39-1.47-.84A1.49,1.49,0,0,1,404.84,188.74Z"/><path class="cls-9" d="M408.83,155.55a1.57,1.57,0,0,0,.52-.08,39.67,39.67,0,0,1,0,4.08,11.29,11.29,0,0,1-.6,3.13,8.77,8.77,0,0,0-2.11-2.14c-.05-.36-.12-.72-.2-1.08a15.27,15.27,0,0,0,1.78-2.88,1.28,1.28,0,0,0,.6-.92S408.82,155.59,408.83,155.55Z"/><path class="cls-9" d="M420.44,187.84V188a2.75,2.75,0,0,1-.19.28h0c0-.11,0-.21,0-.32,0-.26,0-.51,0-.77A1.59,1.59,0,0,1,420.44,187.84Z"/><path class="cls-9" d="M417.29,194.66a1.56,1.56,0,0,1-.1-1L417,191a8.56,8.56,0,0,0,2.24-1.62c-.14,1.23-.27,2.53-.29,3.78a1.59,1.59,0,0,1,.89,1.27c0,.25.05.5.07.75a1.5,1.5,0,0,1-2.44-.21Z"/><path class="cls-9" d="M409.51,164a19.43,19.43,0,0,0,.66-3.33,20.55,20.55,0,0,0,2.25,4.25c1.34,2.38,2.43,4.87,3.66,7.29-1.42-1.09-2.91-2.12-4.45-3.09a11.13,11.13,0,0,1-1.41-3.21A10.5,10.5,0,0,0,409.51,164Z"/><path class="cls-9" d="M403.84,189a27.42,27.42,0,0,1-5.84-4.83,97.17,97.17,0,0,0-15.83-6.31,10,10,0,0,1-4.54-2.9,1.64,1.64,0,0,0,.94-1.09c.58.08,1.17.13,1.76.16a9.79,9.79,0,0,0,5.66,1.82l2.34,0a9.51,9.51,0,0,0,2.15.42,7.62,7.62,0,0,0,.94,2.14,9.31,9.31,0,0,0,8.82,4.51q.43.76.87,1.5a9.1,9.1,0,0,0,3.81,3.68,1.37,1.37,0,0,0-.08.6A1.49,1.49,0,0,0,403.84,189Z"/><path class="cls-9" d="M410.17,160.69c.09-.75.15-1.51.19-2.29,0-.18,0-.36,0-.54s0-.2.05-.29c.05.36.11.73.18,1.09.92,4.93,3.59,8.55,6.91,12l.29.52a1.43,1.43,0,0,0-.67,1.22,1.45,1.45,0,0,0-.06.62c-.33-.27-.66-.54-1-.8-1.23-2.42-2.32-4.91-3.66-7.29a20.55,20.55,0,0,1-2.25-4.25Z"/><path class="cls-9" d="M376.86,172.09a11.36,11.36,0,0,0-1.28-1c0-.12-.06-.23-.08-.35.89.62,1.75,1.25,2.58,1.91a1.2,1.2,0,0,1,.49,1.22c-.46-.05-.92-.11-1.37-.2A1.32,1.32,0,0,0,376.86,172.09Z"/><path class="cls-9" d="M377.63,175a1.55,1.55,0,0,1-1.67-.19,1.33,1.33,0,0,0-.19-.14,1.61,1.61,0,0,0,1.16-.56A7.4,7.4,0,0,0,377.63,175Z"/><path class="cls-9" d="M419.22,189.41A8.56,8.56,0,0,1,417,191c0-.14,0-.29,0-.43a1.24,1.24,0,0,1,.52-1.19c0-.52,0-1,0-1.57a1.43,1.43,0,0,1,2.06-1.32C419.45,187.38,419.33,188.37,419.22,189.41Z"/><path class="cls-9" d="M408.27,185.94a1.77,1.77,0,0,0-.55,1.72c-.21-.14-.41-.3-.62-.43a1.49,1.49,0,0,0-2.18.91,9.1,9.1,0,0,1-3.81-3.68q-.44-.74-.87-1.5a11.12,11.12,0,0,0,1.49-.21,10.88,10.88,0,0,0,6.54,3Z"/><path class="cls-9" d="M376.62,173.56a5.35,5.35,0,0,1-.55-.11l-15.2-8.83a1.44,1.44,0,0,1,1.35-.87,6.92,6.92,0,0,1,2.39.62l1.22.67.23.13c1.18.75,2.28,1.66,3.41,2.42,1.91,1.28,4.2,2.18,6.11,3.49A9.46,9.46,0,0,0,376.62,173.56Z"/><path class="cls-9" d="M428.48,168.69c1.33-.47,2.23,1.14,1.7,2.21a7.8,7.8,0,0,1-.62,1,1.31,1.31,0,0,1,.24.77c.1,6.89.26,13.77.3,20.66,0,5.2-3.3,5.92-7.57,8.4a1.5,1.5,0,0,1-2.23-1.14,1.62,1.62,0,0,0,.53-1.28,1.6,1.6,0,0,0-.77-1.31c0-.14,0-.29,0-.44,0-.85,0-1.7,0-2.55a1.15,1.15,0,0,0,.22-.8c0-.58-.09-1.16-.14-1.74a1.6,1.6,0,0,0,.27-.76,31.76,31.76,0,0,0,.07-3.78,10.16,10.16,0,0,0,.16-11.57,6.78,6.78,0,0,1,.65-1.83,1.69,1.69,0,0,1,1.26-2.39l.52,0A15.13,15.13,0,0,1,428.48,168.69Z"/><path class="cls-9" d="M417.5,173.52l-.2.2a1.48,1.48,0,0,1-.22-.68l.23.18A1,1,0,0,0,417.5,173.52Z"/><path class="cls-9" d="M385.31,157.25c.39.34.78.68,1.16,1a8.46,8.46,0,0,0-6.9,1.2,9.12,9.12,0,0,1,.62-1.73,10.2,10.2,0,0,1,4-1.75A3.62,3.62,0,0,1,385.31,157.25Z"/><path class="cls-9" d="M419.47,175.11l-.51-.46h0a1.55,1.55,0,0,0-.06-.31,1.26,1.26,0,0,0,.81-.59,1.4,1.4,0,0,1,.22.85l0,1A5.93,5.93,0,0,0,419.47,175.11Z"/><path class="cls-9" d="M386.47,158.29c-.38-.36-.77-.7-1.16-1A3.62,3.62,0,0,0,384.2,156a8.29,8.29,0,0,1,1.79-.17c.72,0,1.46,0,2.21.07-.11.19-.2.38-.31.56a8.41,8.41,0,0,0-.86,2Z"/><path class="cls-9" d="M418.83,174a2.09,2.09,0,0,1,.07.36,1,1,0,0,1-.25,0l-.5-.43a1.44,1.44,0,0,0,.43.06Z"/><path class="cls-9" d="M392.44,167.26a23.81,23.81,0,0,1-1.44-7.52l2.21.78a9.66,9.66,0,0,0,0,5.51l.06.42A9.05,9.05,0,0,0,392.44,167.26Z"/><path class="cls-9" d="M390.35,157.91c.06-.44.17-1,.18-.73a18.62,18.62,0,0,0-.33-3l.19-.16a7.61,7.61,0,0,1,1.19.55,19.32,19.32,0,0,0-.58,5.14l-1.37-.46C389.75,159.05,390.11,158.32,390.35,157.91Z"/><path class="cls-9" d="M418.15,173.93a1.17,1.17,0,0,1-.64-.41.24.24,0,0,1,.09-.06C417.79,173.61,418,173.77,418.15,173.93Z"/><path class="cls-9" d="M375.44,174.36a1.46,1.46,0,0,1,.66-.89l0,0a5.35,5.35,0,0,0,.55.11,5.19,5.19,0,0,0,.31.5,1.61,1.61,0,0,1-1.16.56Z"/><path class="cls-9" d="M376.62,173.56a5.86,5.86,0,0,0,.58.1,1.56,1.56,0,0,1-.27.4A5.19,5.19,0,0,1,376.62,173.56Z"/><path class="cls-9" d="M395.74,160.2a11.18,11.18,0,0,1-2,10.2c-.49-1-.93-2.08-1.31-3.14a9.05,9.05,0,0,1,.83-.81l-.06-.42a9.66,9.66,0,0,1,0-5.51l1.26.46A10.29,10.29,0,0,1,395.74,160.2Z"/><path class="cls-9" d="M418.93,193.19c0-1.25.15-2.55.29-3.78a8.9,8.9,0,0,0,1-1.16c-.07,2.25-.21,4.52-.22,6.79a.7.7,0,0,1-.13.17c0-.25,0-.5-.07-.75A1.59,1.59,0,0,0,418.93,193.19Z"/><path class="cls-9" d="M376.62,173.56a9.46,9.46,0,0,1-1-2.48,11.36,11.36,0,0,1,1.28,1,1.32,1.32,0,0,1,.34,1.57A5.86,5.86,0,0,1,376.62,173.56Z"/><path class="cls-9" d="M381.17,165.63l-1,.14,0-.25a9.18,9.18,0,0,1-.81-3.8,9,9,0,0,1,.27-2.23,8.46,8.46,0,0,1,6.9-1.2l.47.44a10.46,10.46,0,0,0,.05,5.66,6.64,6.64,0,0,0-.36,1.25,4,4,0,0,1-1,.24A12.55,12.55,0,0,1,381.17,165.63Z"/><path class="cls-9" d="M419.5,186.52a1.36,1.36,0,0,1,.76.64c0,.26,0,.51,0,.77,0,.11,0,.21,0,.32a8.9,8.9,0,0,1-1,1.16C419.33,188.37,419.45,187.38,419.5,186.52Z"/><path class="cls-9" d="M407,169a2,2,0,0,0-.07.2A1.22,1.22,0,0,0,407,169Zm-3.32,1.74s0,0,.06-.09S403.71,170.66,403.7,170.7Zm1.29-3a10,10,0,0,0,3.75-5,8,8,0,0,1,.77,1.35,15.42,15.42,0,0,1-1.28,3.12c-.22.41-1.31,2.16-1.31,2.1-.06.17-.13.4-.23.69-.33.8-.67,1.59-1,2.39a10.78,10.78,0,0,1-8.31,5.32l-1-2a11.19,11.19,0,0,0,7.32-4.93C403.6,170.73,404.58,168.8,405,167.68Z"/><path class="cls-9" d="M417.51,174.87c-.15-.26-.3-.51-.44-.77a1.6,1.6,0,0,1,.23-.38,1.36,1.36,0,0,0,1.22.65h.13l.31.28h0a13.86,13.86,0,0,1-.09,4.33A9.54,9.54,0,0,0,417.51,174.87Z"/><path class="cls-9" d="M366.06,165.17a108.61,108.61,0,0,1,9.44,5.56c0,.12.05.23.08.35-1.91-1.31-4.2-2.21-6.11-3.49C368.34,166.83,367.24,165.92,366.06,165.17Z"/><path class="cls-9" d="M395.74,160.2a10.29,10.29,0,0,0-1.27.78l-1.26-.46a9.54,9.54,0,0,1,1.29-2.67,1.71,1.71,0,0,1,.13-.23A10.21,10.21,0,0,1,395.74,160.2Z"/><path class="cls-9" d="M419.53,186c.13-3.47.25-6.95.37-10.42a7.79,7.79,0,0,1,.7.84,1.74,1.74,0,0,0-.05.22c-.58,3.36-.26,7.1-.29,10.55a1.36,1.36,0,0,0-.76-.64C419.52,186.33,419.52,186.15,419.53,186Z"/><path class="cls-9" d="M409.81,148.84a7.83,7.83,0,0,1,.11,2,11.13,11.13,0,0,0,0,1.81,7.63,7.63,0,0,0-.56-1.06,19.06,19.06,0,0,0,0-2,1.19,1.19,0,0,0,.4-.71Z"/><path class="cls-9" d="M410,152.86c0,.43,0,.84.06,1.26-.06-.51-.12-1-.14-1.47A1.8,1.8,0,0,1,410,152.86Z"/><path class="cls-9" d="M391.8,145.21a8.58,8.58,0,0,1-.37.82,4.17,4.17,0,0,0-.36.47A11.6,11.6,0,0,1,391.8,145.21Z"/><path class="cls-9" d="M407,169.16a2,2,0,0,1,.07-.2A1.22,1.22,0,0,1,407,169.16Z"/><path class="cls-9" d="M390.58,147.67a19.21,19.21,0,0,1-1,1.73,15.41,15.41,0,0,1,.93-2c.09-.15.17-.3.27-.45a1.1,1.1,0,0,1,.09-.14,2.34,2.34,0,0,1,.2-.27v0C390.87,146.92,390.72,147.29,390.58,147.67Z"/><path class="cls-9" d="M390.18,172.88a9.9,9.9,0,0,0,.17,2.88,10.84,10.84,0,0,1-2.11-2.32l.91-.22A6.9,6.9,0,0,0,390.18,172.88Z"/><path class="cls-9" d="M392.09,147a28.36,28.36,0,0,1-2.15,3.66c0-.36.08-.71.14-1.06a15.67,15.67,0,0,0,2.93-5l.16-.11A18.09,18.09,0,0,1,392.09,147Z"/><path class="cls-9" d="M408.82,154.93a9.63,9.63,0,0,0-2.71-1.67,24.09,24.09,0,0,0-.39-5,9,9,0,0,1,1.19.72,1.41,1.41,0,0,0,1.14.93,8.85,8.85,0,0,1,.82.92c.1.52.17,1.06.24,1.63,0,.3.07.59.1.89A11.74,11.74,0,0,1,408.82,154.93Z"/><path class="cls-9" d="M408.38,145.46l-.05,0a.29.29,0,0,1,0-.09Z"/><path class="cls-9" d="M390.58,147.67c.14-.38.29-.75.46-1.1,0,.14-.07.29-.1.44S390.71,147.45,390.58,147.67Z"/><path class="cls-9" d="M408.87,150.83a8.85,8.85,0,0,0-.82-.92,1.62,1.62,0,0,0,.62,0C408.74,150.22,408.81,150.52,408.87,150.83Z"/><path class="cls-9" d="M397.42,140.07c4.17-1.14,10.13,1.2,11.46,5.65a1.41,1.41,0,0,0-.5-.26l-.07-.11q-.17-.57-.3-1.14a1.35,1.35,0,0,0-1.35-1.08l-.06-.35a1.12,1.12,0,0,1-.3.41h0a10.52,10.52,0,0,0-5.37-2.29.44.44,0,0,1,0-.15c0-.08,0-.15-.05-.23l-.18,0c0,.14.05.27.08.4a6.79,6.79,0,0,0-.78,0,9.46,9.46,0,0,0-6.05,2.09c-.05-.24-.1-.48-.13-.72,0-.07,0-.14,0-.22A9.1,9.1,0,0,1,397.42,140.07Z"/><path class="cls-9" d="M389.67,171.71c-1.07-.67-2.09-1.45-3.11-2.24a9,9,0,0,1-.17-1.7,9.15,9.15,0,0,1,.24-2.13,4.45,4.45,0,0,0,.66-.31,9.34,9.34,0,0,0,3.61,4.5,10.15,10.15,0,0,0-.58,2A3.51,3.51,0,0,0,389.67,171.71Z"/><path class="cls-9" d="M408,144.21q.14.57.3,1.14a9.8,9.8,0,0,0-1.58-1.76c0-.16-.05-.31-.07-.46A1.35,1.35,0,0,1,408,144.21Z"/><path class="cls-9" d="M397.41,177.74l-.13-.07.09,0Z"/><path class="cls-9" d="M390.13,149.31c0,.08,0,.16-.05.25-.26.3-.54.59-.83.88C389.51,150.1,389.81,149.69,390.13,149.31Z"/><path class="cls-9" d="M406.2,144.57a1.38,1.38,0,0,1-.16.79,6.94,6.94,0,0,0-.94-.85,1.54,1.54,0,0,1,1.17-1.32h0a1,1,0,0,1-.2.15C406.11,143.76,406.17,144.16,406.2,144.57Z"/><path class="cls-9" d="M409.6,147.41a1.17,1.17,0,0,1,.34.2,2.53,2.53,0,0,0,0,.28v0c0,.3-.08.61-.14.91a8.32,8.32,0,0,0-.72-2.16,4.86,4.86,0,0,0-.21-.95,1.54,1.54,0,0,1,.63,1.09C409.54,147,409.58,147.21,409.6,147.41Z"/><path class="cls-9" d="M388.83,161a3.42,3.42,0,0,1-1.54,4.35,7.89,7.89,0,0,1-.3-.94,9.06,9.06,0,0,1,1.53-2.67C388.62,161.47,388.73,161.23,388.83,161Z"/><path class="cls-9" d="M390.59,176l.55.4c-.22,0-.44,0-.66,0a2.37,2.37,0,0,1-.09-.36Z"/><path class="cls-9" d="M410.33,156.55l0,.49a5,5,0,0,1-.06-.54A.09.09,0,0,1,410.33,156.55Z"/><path class="cls-9" d="M393.71,142.05a.5.5,0,0,0,0,.16c-.06.35-.14.69-.22,1l-.12.1C393.52,142.9,393.63,142.48,393.71,142.05Z"/><path class="cls-9" d="M394.25,175.91l3,1.76-.89.1a8.17,8.17,0,0,1-5.25-1.42,9.15,9.15,0,0,0,2.88-.43Z"/><path class="cls-9" d="M393.74,142.21c0,.24.08.48.13.72a3.27,3.27,0,0,0-.35.3C393.6,142.9,393.68,142.56,393.74,142.21Z"/><path class="cls-9" d="M390.94,147c0-.15.06-.3.1-.44v0l0-.05a4.17,4.17,0,0,1,.36-.47c-.06.14-.13.28-.2.42Z"/><path class="cls-9" d="M387,164.39a7.89,7.89,0,0,0,.3.94,4.45,4.45,0,0,1-.66.31A6.64,6.64,0,0,1,387,164.39Z"/><path class="cls-9" d="M389.92,150.84a13.1,13.1,0,0,0,.24,3.13,7.64,7.64,0,0,0-1.62-.35c0-.42.11-.83.19-1.22a11.06,11.06,0,0,0,.91-1l0,0h0l.08-.09a.38.38,0,0,0,0-.43c.06-.07.11-.15.16-.22S389.93,150.77,389.92,150.84Z"/><path class="cls-9" d="M406.3,143.19s0,0,0,0h0Z"/><path class="cls-9" d="M390.16,154l.23.08-.19.16A2,2,0,0,1,390.16,154Z"/><path class="cls-9" d="M384.23,173.66a12.2,12.2,0,0,1-4.09-7.89l1-.14c.46.29.93.56,1.39.86,1.36.89,2.67,1.95,4,3a10.68,10.68,0,0,0,1.68,4,27.43,27.43,0,0,1-3.6.54Z"/><path class="cls-9" d="M389.64,151.39a11.06,11.06,0,0,1-.91,1,14.68,14.68,0,0,1,.44-1.88l.08-.08c.29-.29.57-.58.83-.88-.06.35-.11.7-.14,1.06-.05.07-.1.15-.16.22a.38.38,0,0,1,0,.43l-.08.09h0Z"/><path class="cls-9" d="M410.11,154.24c0,.24,0,.49.05.72a1.61,1.61,0,0,1-.76.5l0-.05c0-.69-.08-1.37-.14-2.06a13.15,13.15,0,0,0,.19-1.76,7.63,7.63,0,0,1,.56,1.06c0,.47.08,1,.14,1.47C410.1,154.16,410.11,154.2,410.11,154.24Z"/><path class="cls-9" d="M410.3,156.5c-.06-.51-.11-1-.14-1.54l0,0c.05.54.11,1.08.14,1.63A.09.09,0,0,0,410.3,156.5Z"/><path class="cls-9" d="M410,152.86a7.38,7.38,0,0,1,.41,1.41,1.3,1.3,0,0,1-.26.65c0-.23-.05-.46-.08-.68,0,0,0-.08,0-.12C410.08,153.7,410.06,153.29,410,152.86Z"/><path class="cls-9" d="M393,144.53a15.67,15.67,0,0,1-2.93,5c0-.09,0-.17.05-.25a8.09,8.09,0,0,1,.56-.6,10.55,10.55,0,0,1,.25-1.7l.29-.56c.07-.14.14-.28.2-.42A9,9,0,0,1,393,144.53Z"/><path class="cls-9" d="M405.1,144.51a8.22,8.22,0,0,0-3.06-1.62c-.15-.4-.28-.8-.4-1.2a1.2,1.2,0,0,1-.74-.79,10.52,10.52,0,0,1,5.37,2.29A1.54,1.54,0,0,0,405.1,144.51Z"/><path class="cls-9" d="M393.87,142.93c.06.31.13.61.21.92a7.72,7.72,0,0,0-.91.57c.13-.39.25-.79.35-1.19A3.27,3.27,0,0,1,393.87,142.93Z"/><path class="cls-9" d="M391.8,145.21a10.33,10.33,0,0,1,1.6-1.88q-.16.6-.39,1.2a9,9,0,0,0-1.58,1.5A8.58,8.58,0,0,0,391.8,145.21Z"/><path class="cls-9" d="M390.35,175.76a9.9,9.9,0,0,1-.17-2.88,7,7,0,0,0,1.27-.6,3.46,3.46,0,0,1,1.47,2c0,.09.05.18.07.27a3.38,3.38,0,0,1,.1.71l1.1.63-.17,0c-1.13.06-2.28.06-3.43,0Z"/><path class="cls-9" d="M409.09,146.67a8.15,8.15,0,0,0-.71-1.21,1.41,1.41,0,0,1,.5.26A4.86,4.86,0,0,1,409.09,146.67Z"/><path class="cls-9" d="M408.67,149.92A9.27,9.27,0,0,0,407,146.4l0,0a21.27,21.27,0,0,0-.21-2.78,9.8,9.8,0,0,1,1.58,1.76.29.29,0,0,0,0,.09l.05,0a8.15,8.15,0,0,1,.71,1.21.06.06,0,0,1,0,0c.14,1,.24,1.95.3,2.88A1.32,1.32,0,0,1,408.67,149.92Z"/><path class="cls-9" d="M401.64,141.69c.12.4.25.8.4,1.2l-.27-.07a6.83,6.83,0,0,0-1-.17,1.49,1.49,0,0,0,.07-1.06c-.05-.19-.1-.43-.15-.71l.2,0A1.2,1.2,0,0,0,401.64,141.69Z"/><path class="cls-9" d="M400.85,141.59a1.49,1.49,0,0,1-.07,1.06,10.84,10.84,0,0,0-6.7,1.2c-.08-.31-.15-.61-.21-.92a9.46,9.46,0,0,1,6.05-2.09,6.79,6.79,0,0,1,.78,0C400.75,141.16,400.8,141.4,400.85,141.59Z"/><path class="cls-9" d="M390.32,171.8c-.06.36-.11.72-.14,1.08a6.9,6.9,0,0,1-1,.34l-.91.22a10.68,10.68,0,0,1-1.68-4c1,.79,2,1.57,3.11,2.24A3.51,3.51,0,0,1,390.32,171.8Z"/><path class="cls-9" d="M410,147.92c0,1.65,0,3.3.09,4.94a1.8,1.8,0,0,0-.08-.21,11.13,11.13,0,0,1,0-1.81,7.83,7.83,0,0,0-.11-2h0C409.87,148.53,409.91,148.22,410,147.92Z"/><path class="cls-9" d="M390.35,175.76a1.29,1.29,0,0,0,0,.19c-.69,0-1.37,0-2.06-.06a11.6,11.6,0,0,1-3.69-1.91,27.43,27.43,0,0,0,3.6-.54A10.84,10.84,0,0,0,390.35,175.76Z"/><path class="cls-9" d="M410.43,157.57c0,.09,0,.19-.05.29,0-.27,0-.54,0-.82C410.38,157.22,410.4,157.39,410.43,157.57Z"/><path class="cls-9" d="M400.85,140.75a.44.44,0,0,0,0,.15l-.2,0c0-.13-.05-.26-.08-.4l.18,0C400.82,140.6,400.83,140.67,400.85,140.75Z"/><path class="cls-9" d="M400.24,183a9.31,9.31,0,0,1-8.82-4.51,7.62,7.62,0,0,1-.94-2.14c.22,0,.44,0,.66,0a8.17,8.17,0,0,0,5.25,1.42l.89-.1.13.07C398.33,179.51,399.27,181.26,400.24,183Z"/><path class="cls-9" d="M410.33,156.55c0-.55-.09-1.09-.14-1.63a1.3,1.3,0,0,0,.26-.65,8.59,8.59,0,0,1,.09,2.55A2.47,2.47,0,0,0,410.33,156.55Z"/><path class="cls-9" d="M406.73,143.59a21.27,21.27,0,0,1,.21,2.78,9.43,9.43,0,0,0-.9-1,1.38,1.38,0,0,0,.16-.79c0-.41-.09-.81-.12-1.22a1,1,0,0,0,.2-.15A5.46,5.46,0,0,1,406.73,143.59Z"/><path class="cls-9" d="M390.13,149.31a11,11,0,0,1,.45-1.64c.13-.22.25-.45.36-.66a10.55,10.55,0,0,0-.25,1.7A8.09,8.09,0,0,0,390.13,149.31Z"/><path class="cls-9" d="M409.8,148.88a1.19,1.19,0,0,1-.4.71c-.06-.93-.16-1.88-.3-2.88a.06.06,0,0,0,0,0,8.32,8.32,0,0,1,.72,2.16h0Z"/><path class="cls-9" d="M393.4,143.33l.12-.1c-.1.4-.22.8-.35,1.19l-.16.11Q393.24,143.93,393.4,143.33Z"/><path class="cls-9" d="M393,139.7a14.68,14.68,0,0,1-.62,3.87,1.84,1.84,0,0,0-.17.25A15.25,15.25,0,0,0,393,139.7Z"/><path class="cls-9" d="M386.63,165.64a9.15,9.15,0,0,0-.24,2.13,9,9,0,0,0,.17,1.7c-1.33-1-2.64-2.09-4-3-.46-.3-.93-.57-1.39-.86a12.55,12.55,0,0,0,4.47.25A4,4,0,0,0,386.63,165.64Z"/><path class="cls-9" d="M390.2,154.21a11,11,0,0,0-1.61,1.71h-.39c.06-.22.12-.45.17-.68,0-.55.1-1.09.17-1.61a7.64,7.64,0,0,1,1.62.35A2,2,0,0,0,390.2,154.21Z"/><path class="cls-9" d="M391,146.54s0,0,0,0l0,.05S391.05,146.55,391,146.54Z"/><path class="cls-9" d="M410.17,160.69a3.52,3.52,0,0,1,0-1.93c.09-.3.17-.6.23-.9,0,.18,0,.36,0,.54C410.32,159.18,410.26,159.94,410.17,160.69Z"/><path class="cls-9" d="M390.59,176c1.15,0,2.3,0,3.43,0a9.15,9.15,0,0,1-2.88.43Z"/><path class="cls-9" d="M410.19,154.92l0,0c0-.23,0-.48-.05-.72C410.14,154.46,410.16,154.69,410.19,154.92Z"/><path class="cls-9" d="M392.21,143.82a14.6,14.6,0,0,1-1.12,2.56A10,10,0,0,1,392.21,143.82Z"/><path class="cls-9" d="M402.36,143.76a8.29,8.29,0,0,0,2.93,2.19c.14.76.29,1.53.43,2.31-4.65-2.39-11.29-1.41-13.63,4.66a9.48,9.48,0,0,0-1.7,1.13l-.23-.08a13.1,13.1,0,0,1-.24-3.13c0-.07,0-.15,0-.22a28.36,28.36,0,0,0,2.15-3.66,18.09,18.09,0,0,0,1.08-2.54,7.72,7.72,0,0,1,.91-.57c.09.35.19.7.3,1.06.4,1.31,2.62,1.54,2.89,0,.13-.71.21-1.41.28-2.1a1.68,1.68,0,0,0,.67,0,1.57,1.57,0,0,0,2.56-.17,6.83,6.83,0,0,1,1,.17l.27.07C402.14,143.18,402.25,143.47,402.36,143.76Z"/><path class="cls-9" d="M391.09,146.38a14.6,14.6,0,0,0,1.12-2.56,1.84,1.84,0,0,1,.17-.25,12.82,12.82,0,0,1-.58,1.64,11.6,11.6,0,0,0-.73,1.29s0,0,0,0A1,1,0,0,0,391.09,146.38Z"/><path class="cls-9" d="M397.37,177.65l-.09,0-3-1.76.57,0a12.26,12.26,0,0,0,1.53-.21Z"/><path class="cls-9" d="M410.33,156.55a2.47,2.47,0,0,1,.21.27,5.23,5.23,0,0,1-.11.75c0-.18-.05-.35-.07-.53Z"/><path class="cls-9" d="M406.73,143.59a5.46,5.46,0,0,0-.45-.39s0,0,0,0a1.13,1.13,0,0,1,.36-.06C406.68,143.28,406.71,143.43,406.73,143.59Z"/><path class="cls-9" d="M386.94,158.73c.4.38.79.77,1.17,1.18a3.73,3.73,0,0,1,.72,1.07c-.1.25-.21.49-.31.74a9.06,9.06,0,0,0-1.53,2.67A10.46,10.46,0,0,1,386.94,158.73Z"/><path class="cls-9" d="M393.4,143.33a10.33,10.33,0,0,0-1.6,1.88,12.82,12.82,0,0,0,.58-1.64,7.64,7.64,0,0,1,1.33-1.52C393.63,142.48,393.52,142.9,393.4,143.33Z"/><path class="cls-9" d="M389.18,150.5a8.89,8.89,0,0,1,.37-1.1,19.21,19.21,0,0,0,1-1.73,11,11,0,0,0-.45,1.64c-.32.38-.62.79-.88,1.13Z"/><path class="cls-9" d="M390.35,175.76l.24.19h-.2A1.29,1.29,0,0,1,390.35,175.76Z"/><path class="cls-9" d="M418.21,171.4c-.08-.09-.18-.18-.26-.28a1.54,1.54,0,0,1,.63-.13,1.37,1.37,0,0,1,.95.34.46.46,0,0,1,0,.44,1.33,1.33,0,0,0-1-.4A1.55,1.55,0,0,0,418.21,171.4Z"/><path class="cls-9" d="M356.48,158.4q-10.28-4.68-20.87-8.61c-5.08-1.88-8.52-6.7-7-12.3,1.34-4.88,7.23-8.86,12.3-7,1.43.53,2.87,1.07,4.29,1.63q3.87,1.47,7.69,3.05a31.64,31.64,0,0,1-4.56,2.42c-.59.27-.08,1.13.5.86a27.3,27.3,0,0,0,5.06-2.86l.59.24a14.9,14.9,0,0,0-1.58,2.89c-1.54,3.75-1.19,7.63,0,11.32a12.21,12.21,0,0,1-1.92,2.47c-.46.45.25,1.15.71.7a13.27,13.27,0,0,0,1.63-1.95c.38,1,.82,2.06,1.29,3.06C355.25,155.69,355.85,157.06,356.48,158.4Z"/><path class="cls-9" d="M409.64,143c.18,1.53.26,3.07.3,4.61a1.17,1.17,0,0,0-.34-.2c0-.2-.06-.4-.09-.6a1.54,1.54,0,0,0-.63-1.09c-1.33-4.45-7.29-6.79-11.46-5.65a9.1,9.1,0,0,0-3.64,1.92,14.51,14.51,0,0,0,.22-2.18,17.15,17.15,0,0,0-.91-6.22.45.45,0,0,0-.15-.22c-1.26-3.31-3.66-6.07-7.26-6.27l0-.12c1.62-2.49,5.79-2.11,8.33-1.6a19.75,19.75,0,0,1,7.23,3.12c.25.17.5.35.73.54a20,20,0,0,1,1.85,1.72c.22.17.44.34.63.52a17,17,0,0,1,1.74,2.18,6.65,6.65,0,0,1,.41.85,23.3,23.3,0,0,1,1.73,3.23A21.93,21.93,0,0,1,409.64,143Z"/><path class="cls-9" d="M354.5,135.85l2,.84c-.48,4.34-1.27,9.53-3.6,13.37-1.17-3.69-1.52-7.57,0-11.32A14.9,14.9,0,0,1,354.5,135.85Z"/><path class="cls-9" d="M420.83,199.34a1.62,1.62,0,0,1-.53,1.28l0-.16c-.1-.81-.17-1.61-.21-2.43A1.6,1.6,0,0,1,420.83,199.34Z"/><path class="cls-9" d="M365.75,157.12a3.68,3.68,0,0,0,5,.22,8.34,8.34,0,0,0,.93-.11c.31.66.64,1.31,1,1.93a9,9,0,0,1-2.12,1.44c-2.05-.8-4.08-1.64-6.1-2.5a3.86,3.86,0,0,0,.75-1A2.37,2.37,0,0,0,365.75,157.12Z"/><path class="cls-9" d="M326.79,143.7c-.46-2.13.17-4.69.21-6.87s0-4.39-.07-6.59a3.39,3.39,0,0,1,.6-2.11,13.43,13.43,0,0,1-.76-2.37,3.39,3.39,0,0,1,.25-2.35.52.52,0,0,1-.06-.74c1.83-2.06,4.72-1.75,6.81-.23,3.08,2.23,5,5.65,8.2,7.81a17.51,17.51,0,0,0,3.32,1.72l-.07.17c-1.42-.56-2.86-1.1-4.29-1.63-5.07-1.88-11,2.1-12.3,7-1.54,5.6,1.9,10.42,7,12.3q10.61,3.94,20.87,8.61c.31.66.63,1.3,1,1.94-2.73-1.55-5.48-3.07-8.3-4.44a1.61,1.61,0,0,0-2.27,1.58L344,156a3.4,3.4,0,0,1-2.58-1.51,11.83,11.83,0,0,1-3.19-1.23,10.36,10.36,0,0,1-1.63-1,4.8,4.8,0,0,1-.8-.76,26.31,26.31,0,0,1-3.24-2,4.93,4.93,0,0,1-.93-.89c-.36-.2-.73-.4-1.08-.61a4.19,4.19,0,0,1-1.17-.07,3.53,3.53,0,0,1-2.51-3.9C326.86,143.91,326.82,143.81,326.79,143.7Z"/><path class="cls-9" d="M359.77,164l1.1.64a1.65,1.65,0,0,0-.14.48C360.39,164.74,360.07,164.36,359.77,164Z"/><path class="cls-9" d="M417.81,171.2a2.44,2.44,0,0,1,.14.28,1.32,1.32,0,0,0-.81.94A1.43,1.43,0,0,1,417.81,171.2Z"/><path class="cls-9" d="M357.09,127a11.3,11.3,0,0,0,.2-1.64,17,17,0,0,1-.27,4.27C357.06,128.76,357.08,127.88,357.09,127Z"/><path class="cls-9" d="M372.25,143.93a9.78,9.78,0,0,1,3.6,8,5.52,5.52,0,0,1-.65-.63c-1-1.09-3.4-6.26-3-7.25A.56.56,0,0,0,372.25,143.93Z"/><path class="cls-9" d="M352.53,118.06a2.31,2.31,0,0,1,2,.19,7,7,0,0,1,1.32,1.34,2.35,2.35,0,0,0,0,.59,4,4,0,0,0-3.1-2A.57.57,0,0,1,352.53,118.06Z"/><path class="cls-9" d="M420,200.88a1.52,1.52,0,0,1-2.06-.54.72.72,0,0,1-.09-.2,1.48,1.48,0,0,0,2.24-1.25c0-.29,0-.58,0-.86h0c0,.82.11,1.62.21,2.43l0,.16A2.91,2.91,0,0,1,420,200.88Z"/><path class="cls-9" d="M355.83,119.59a13.69,13.69,0,0,1,1.66,3,11.87,11.87,0,0,1,.73,4.49c0,.17,0,.33,0,.48a10,10,0,0,1-1.33,4.79c.07-.91.11-1.82.14-2.73,0,0,0,0,0,0a17,17,0,0,0,.27-4.27c0-.47,0-.93,0-1.38a7.34,7.34,0,0,0-.22-1.51c-.16-.21-.31-.43-.46-.66a6.76,6.76,0,0,0-.76-1.63A2.35,2.35,0,0,1,355.83,119.59Z"/><path class="cls-9" d="M412.51,161.86c1.39,3.75,4.16,6.58,6.93,9.35a.47.47,0,0,1,.09.12,1.37,1.37,0,0,0-.95-.34,1.54,1.54,0,0,0-.63.13c-.15-.14-.29-.29-.43-.44a23.19,23.19,0,0,0-1.95-2.81c-.95-1.21-1.87-2.53-2.9-3.74a9.42,9.42,0,0,0-.38-1.64c0-.09-.05-.16-.08-.24a.19.19,0,0,0,0-.08,7,7,0,0,0-.09-1.45C412.24,161.1,412.37,161.48,412.51,161.86Z"/><path class="cls-9" d="M356,130a9,9,0,0,0,1.06-2.95c0,.88,0,1.76-.07,2.63,0,0,0,0,0,0l-.09.34a9.09,9.09,0,0,1-4,5.21q-3.82-1.58-7.69-3.05l.07-.17C349.11,133.46,353.79,133.77,356,130Z"/><path class="cls-9" d="M408.21,156.58a1.62,1.62,0,0,1-2.29-1.72,14.25,14.25,0,0,0,.19-1.6,9.63,9.63,0,0,1,2.71,1.67,5.16,5.16,0,0,1-.16.52C408.52,155.84,408.37,156.22,408.21,156.58Z"/><path class="cls-9" d="M418.62,173.15a1.33,1.33,0,0,1,1,.43,1.24,1.24,0,0,1-.76.39A7.58,7.58,0,0,0,418.62,173.15Z"/><path class="cls-9" d="M412.18,162.17c-.1-.29-.16-.47-.18-.55a4.37,4.37,0,0,1,.22.55Z"/><path class="cls-9" d="M356.88,132.37a11.44,11.44,0,0,1-3,3.24l-1-.42a9.09,9.09,0,0,0,4-5.21l.09-.34C357,130.55,357,131.46,356.88,132.37Z"/><path class="cls-9" d="M409.35,155.41c-.17-.17-.35-.33-.53-.48a11.74,11.74,0,0,0,.39-1.58C409.27,154,409.32,154.72,409.35,155.41Z"/><path class="cls-9" d="M368.71,170.68a22.57,22.57,0,0,0,2.29,1.25,29.88,29.88,0,0,1-4.22-2.05,1.24,1.24,0,0,0,.6-.18C367.85,170.07,368.3,170.41,368.71,170.68Z"/><path class="cls-9" d="M353.54,160.8a3.64,3.64,0,0,1-.63-.3c-2-1-4-2-6-3a1.61,1.61,0,0,1,2.27-1.58c2.82,1.37,5.57,2.89,8.3,4.44a24.43,24.43,0,0,0,2.33,3.64l-2.59-1.5C356,161.93,354.75,161.37,353.54,160.8Z"/><path class="cls-9" d="M418.87,179a8.62,8.62,0,0,1-3.18,4.92c0-.24,0-.49.05-.75a1.51,1.51,0,0,1,.74-1.19c0-.33,0-.66.07-1a52.75,52.75,0,0,1,.38-6.38,1.55,1.55,0,0,1,.14-.49c.14.26.29.51.44.77a9.54,9.54,0,0,1,1.36,4.11Z"/><path class="cls-9" d="M362.22,163.75a1.44,1.44,0,0,0-1.35.87l-1.1-.64a24.43,24.43,0,0,1-2.33-3.64c2.21,1.24,4.41,2.51,6.62,3.73l.55.3A6.92,6.92,0,0,0,362.22,163.75Z"/><path class="cls-9" d="M352.55,117.15a4.07,4.07,0,0,1,2.94.7,3.27,3.27,0,0,1,1.27-2.39,4,4,0,0,1,2.09-1.53A9.67,9.67,0,0,0,352.55,117.15ZM382,152.69c2.7,0,5.25-1.59,7-3.49a14.33,14.33,0,0,0,1.72-2.24c-.1.15-.18.3-.27.45a15.41,15.41,0,0,0-.93,2,9.62,9.62,0,0,1-1.72,2,10.51,10.51,0,0,1-3.73,1.84,8.89,8.89,0,0,0-4.05.65,9.38,9.38,0,0,1-4.2-2,9.78,9.78,0,0,0-3.6-8c1.94-5-2.3-10.88-7-12.18a9.21,9.21,0,0,0-7.36.92v0c.1-1.57.32-3.32.35-5,0-.15,0-.31,0-.48.07-3.74-.87-9.57-5.45-10a.4.4,0,0,0-.43.24,2.76,2.76,0,0,0-.64,0c-.63.07-.64,1.07,0,1h.17a4.77,4.77,0,0,0-.55.4c-.41.35-1.11-.09-.79-.6,3.48-5.51,10.74-6.79,16.3-3.74,5.75,3.16,8.49,9.33,9,15.62a3.3,3.3,0,0,1,.08,1.36c0,.71,0,1.41,0,2.11-.09,2.28-.52,4.63-.74,7a14.88,14.88,0,0,1-.11,3.19,14,14,0,0,0,.2,2,5.17,5.17,0,0,1,.11.54,9.9,9.9,0,0,0,.44,1.5C376.85,150.34,379,152.64,382,152.69Z"/><path class="cls-9" d="M356.82,133.39c-.06.68-.12,1.37-.19,2.05,0,.41-.09.82-.13,1.25l-2-.84A11.58,11.58,0,0,1,356.82,133.39Z"/><path class="cls-9" d="M357.86,132.63v0a8,8,0,0,0-1,.72l.06-1a10,10,0,0,0,1.33-4.79C358.18,129.31,358,131.06,357.86,132.63Z"/><path class="cls-9" d="M394,139.81a14.51,14.51,0,0,1-.22,2.18s0,0-.07.06a14.72,14.72,0,0,0,.24-1.6C394,140.24,394,140,394,139.81Z"/><path class="cls-9" d="M352.91,160.5a3.64,3.64,0,0,0,.63.3c1.21.57,2.42,1.13,3.64,1.68l2.59,1.5c.3.38.62.76,1,1.12a1.2,1.2,0,0,0,.06.65c-4.49-2.22-8.64-5.06-13.16-7.26a1.23,1.23,0,0,1-.76-1C348.87,158.53,350.88,159.53,352.91,160.5Z"/><path class="cls-9" d="M385.49,152.93a10.24,10.24,0,0,1,2.22-.6l.06-.08c.42-.59.93-1.15,1.39-1.71v0a14.68,14.68,0,0,0-.44,1.88,9.28,9.28,0,0,1-1.38,1.14,8.38,8.38,0,0,0-.86,0l-.11.1a10.86,10.86,0,0,0-1.79-.35,3.76,3.76,0,0,1,.54-.25Z"/><path class="cls-9" d="M418.62,173.15a10.78,10.78,0,0,0-.67-1.67,1.12,1.12,0,0,1,.26-.08l.52.52a.49.49,0,0,0,.79-.15,1.5,1.5,0,0,1,.45,1.17h0a1.25,1.25,0,0,1-.37.64A1.33,1.33,0,0,0,418.62,173.15Z"/><path class="cls-9" d="M406.94,146.37c0,.69,0,1.4-.09,2.11a1,1,0,0,0,.06.5,9,9,0,0,0-1.19-.72c-.14-.78-.29-1.55-.43-2.31a1.2,1.2,0,0,0,.75-.59A9.43,9.43,0,0,1,406.94,146.37Z"/><path class="cls-9" d="M393,138.42q0,.39,0,.78a16.49,16.49,0,0,0-.68-4.64A14.59,14.59,0,0,1,393,138.42Z"/><path class="cls-9" d="M397.67,173.66a9.12,9.12,0,0,0,1.81-2.67,9.81,9.81,0,0,0,4.24-2.56,9.42,9.42,0,0,0,1.27-.75c-.41,1.12-1.39,3-1.32,3a11.19,11.19,0,0,1-7.32,4.93c-.11-.22-.22-.45-.34-.67A9.31,9.31,0,0,0,397.67,173.66Z"/><path class="cls-9" d="M351.7,117.39a2.76,2.76,0,0,1,.64,0,.55.55,0,0,0,.19.68,2.86,2.86,0,0,0-.66.32h-.17C351.06,118.46,351.07,117.46,351.7,117.39Z"/><path class="cls-9" d="M355.83,119.52v.07a7,7,0,0,0-1.32-1.34A4.18,4.18,0,0,1,355.83,119.52Z"/><path class="cls-9" d="M411.71,159.07a8,8,0,0,1,.42,1.65Q411.89,159.89,411.71,159.07Z"/><path class="cls-9" d="M356.82,133.39a11.58,11.58,0,0,0-2.32,2.46l-.59-.24a11.44,11.44,0,0,0,3-3.24Z"/><path class="cls-9" d="M354.51,118.25a3.88,3.88,0,0,0-2.17-.87.4.4,0,0,1,.43-.24c4.58.39,5.52,6.22,5.45,10a11.87,11.87,0,0,0-.73-4.49,13.69,13.69,0,0,0-1.66-3v-.07A4.18,4.18,0,0,0,354.51,118.25Z"/><path class="cls-9" d="M387.83,151.44a9.62,9.62,0,0,0,1.72-2,8.89,8.89,0,0,0-.37,1.1,12,12,0,0,1-3.69,2.43,2.75,2.75,0,0,0-.36.15l-.28.1-.42.13-.33,0A10.51,10.51,0,0,0,387.83,151.44Z"/><path class="cls-9" d="M384.85,153.18l.28-.1a3.76,3.76,0,0,0-.54.25l-.16,0Z"/><path class="cls-9" d="M375.2,151.3a5.52,5.52,0,0,0,.65.63,10,10,0,0,1-1.29,4.91,9.61,9.61,0,0,1-1.87,2.32c-.37-.62-.7-1.27-1-1.93a8.34,8.34,0,0,1-.93.11,3.68,3.68,0,0,1-5-.22,2.37,2.37,0,0,1-.53,0,3.86,3.86,0,0,1-.75,1c2,.86,4,1.7,6.1,2.5a11.21,11.21,0,0,1-9.69-.17q-2.19-1-4.4-2c-.63-1.34-1.23-2.71-1.87-4.06-.47-1-.91-2-1.29-3.06,2.7-3.89,3.69-9.25,4.19-14.16q6.78,2.88,13.46,6a7.49,7.49,0,0,1,1.28.77.56.56,0,0,1,0,.12C371.8,145,374.24,150.21,375.2,151.3Z"/><path class="cls-9" d="M355.09,120.48c-.66-.94-1.94-2.13-3.22-2.1a2.86,2.86,0,0,1,.66-.32.57.57,0,0,0,.24.08,4,4,0,0,1,3.1,2,2.9,2.9,0,0,0,.43,1.13l.33.5a13.85,13.85,0,0,1,.66,3.55,11.3,11.3,0,0,1-.2,1.64,9.67,9.67,0,0,0-1-4.91A15.73,15.73,0,0,0,355.09,120.48Z"/><path class="cls-9" d="M385.68,127.1c3.6.2,6,3,7.26,6.27a.56.56,0,0,0-.65,0c-.05-.14-.09-.29-.14-.43l-.75-1.14c-.41-.39-.82-.8-1.21-1.25l-.06-.06a1.72,1.72,0,0,1-.32-.57c-.37-.28-.73-.57-1.09-.88a1.31,1.31,0,0,1-.32-.47,6.14,6.14,0,0,1-1.74-.43A1.71,1.71,0,0,1,385.68,127.1Z"/><path class="cls-9" d="M409.4,149.59a19.06,19.06,0,0,1,0,2,5.74,5.74,0,0,0-.53-.76c-.06-.31-.13-.61-.2-.91A1.32,1.32,0,0,0,409.4,149.59Z"/><path class="cls-9" d="M410.3,156.5a8.83,8.83,0,0,0-.9-1,1.61,1.61,0,0,0,.76-.5C410.19,155.48,410.24,156,410.3,156.5Z"/><path class="cls-9" d="M388.73,152.4c-.08.39-.14.8-.19,1.22a7.67,7.67,0,0,0-1.19-.08A9.28,9.28,0,0,0,388.73,152.4Z"/><path class="cls-9" d="M417.52,170.68c-3.32-3.47-6-7.09-6.91-12-.07-.36-.13-.73-.18-1.09a5.23,5.23,0,0,0,.11-.75,9.45,9.45,0,0,1,1.17,2.25q.18.83.42,1.65a7,7,0,0,1,.09,1.45,4.37,4.37,0,0,0-.22-.55c0,.08.08.26.18.55h0a.19.19,0,0,1,0,.08c0,.08.05.15.08.24a9.42,9.42,0,0,1,.38,1.64c1,1.21,1.95,2.53,2.9,3.74A23.19,23.19,0,0,1,417.52,170.68Z"/><path class="cls-9" d="M393.46,138.77a18.85,18.85,0,0,0,.25,3.28,7.64,7.64,0,0,0-1.33,1.52,14.68,14.68,0,0,0,.62-3.87c0-.17,0-.33,0-.5s0-.52,0-.78a14.59,14.59,0,0,0-.68-3.86.19.19,0,0,1,0-.07c-.06-.21-.13-.42-.2-.63a.44.44,0,0,1,.17-.52l.9,2.79C393.26,137,393.34,137.9,393.46,138.77Z"/><path class="cls-9" d="M418.21,171.4a1.12,1.12,0,0,0-.26.08,2.44,2.44,0,0,0-.14-.28l.14-.08C418,171.22,418.13,171.31,418.21,171.4Z"/><path class="cls-9" d="M356.63,135.44c.07-.68.13-1.37.19-2.05a8,8,0,0,1,1-.72c-.1,1.4-.2,2.9-.35,4.45l-1-.43C356.54,136.26,356.59,135.85,356.63,135.44Z"/><path class="cls-9" d="M365.22,131.75c4.73,1.3,9,7.21,7,12.18a7.49,7.49,0,0,0-1.28-.77q-6.68-3.15-13.46-6c.15-1.55.25-3.05.35-4.45A9.21,9.21,0,0,1,365.22,131.75Z"/><path class="cls-9" d="M401.73,182.75a11.12,11.12,0,0,1-1.49.21c-1-1.7-1.91-3.45-2.83-5.22q4.57,2.65,9.16,5.3a3.17,3.17,0,0,1,1.7,2.75A10.88,10.88,0,0,1,401.73,182.75Z"/><path class="cls-9" d="M399.48,171a9.12,9.12,0,0,1-1.81,2.67A9.31,9.31,0,0,1,396,175c-.65-1.29-1.28-2.58-1.9-3.86A10.39,10.39,0,0,0,399.48,171Z"/><path class="cls-9" d="M362,166.37a98.28,98.28,0,0,1,11.09,6.3c-.71-.21-1.4-.45-2.09-.73h0a22.57,22.57,0,0,1-2.29-1.25c-.41-.27-.86-.61-1.33-1a1.24,1.24,0,0,1-.6.18A29.22,29.22,0,0,1,362,166.37Z"/><path class="cls-9" d="M392.94,133.37a16.47,16.47,0,0,1,1.06,6.44c0,.21,0,.43-.05.64a14.72,14.72,0,0,1-.24,1.6,18.85,18.85,0,0,1-.25-3.28c-.12-.87-.2-1.75-.27-2.64l-.9-2.79A.56.56,0,0,1,392.94,133.37Z"/><path class="cls-9" d="M409.4,151.59a13.15,13.15,0,0,1-.19,1.76c0-.3-.07-.59-.1-.89-.07-.57-.14-1.11-.24-1.63A5.74,5.74,0,0,1,409.4,151.59Z"/><path class="cls-9" d="M419.59,173.58a1.25,1.25,0,0,0,.37-.64,1.54,1.54,0,0,1-.25.8A.61.61,0,0,0,419.59,173.58Z"/><path class="cls-9" d="M419.71,173.74a1.26,1.26,0,0,1-.81.59,2.09,2.09,0,0,0-.07-.36,1.24,1.24,0,0,0,.76-.39A.61.61,0,0,1,419.71,173.74Z"/><path class="cls-9" d="M405.11,145a1.41,1.41,0,0,1,0-.5,6.94,6.94,0,0,1,.94.85,1.2,1.2,0,0,1-.75.59Z"/><path class="cls-9" d="M408.21,156.58a15.27,15.27,0,0,1-1.78,2.88,9.63,9.63,0,0,0-4.67-6.41l-.48-.23a11,11,0,0,1,1.44-.15,8.34,8.34,0,0,1,3.39.59,14.25,14.25,0,0,1-.19,1.6A1.62,1.62,0,0,0,408.21,156.58Z"/><path class="cls-9" d="M407.87,134.15c3.17,5.3,3,11.53,3.15,17.5a41.06,41.06,0,0,0,.69,7.42,9.45,9.45,0,0,0-1.17-2.25,8.59,8.59,0,0,0-.09-2.55.58.58,0,0,0,0-.19v-1.3a.28.28,0,0,0,0-.09v-3.95a1.3,1.3,0,0,0-.5-1.09,19.77,19.77,0,0,0-1.68-10.11,18.67,18.67,0,0,0-2.14-4.08,7.71,7.71,0,0,0-1.74-2.18,17.73,17.73,0,0,0-2.48-2.24c-4.24-3.57-9.71-5.38-15.28-3.82a1.38,1.38,0,0,0-1,1.76.44.44,0,0,0-.08.11h.11a1.71,1.71,0,0,0,1,1,6.14,6.14,0,0,0,1.74.43,1.31,1.31,0,0,0,.32.47c.36.31.72.6,1.09.88a1.72,1.72,0,0,0,.32.57,6.38,6.38,0,0,0-5.34-2.38.5.5,0,0,1-.49-.63c1.75-4.59,8.27-3.69,12-2.5A21.24,21.24,0,0,1,407.87,134.15Z"/><path class="cls-9" d="M408.27,185.94a4,4,0,0,1-1.47,2.87,7.54,7.54,0,0,1-1.88-.67,1.49,1.49,0,0,1,2.18-.91c.21.13.41.29.62.43A1.77,1.77,0,0,1,408.27,185.94Z"/><path class="cls-9" d="M353.91,135.61a27.3,27.3,0,0,1-5.06,2.86c-.58.27-1.09-.59-.5-.86a31.64,31.64,0,0,0,4.56-2.42Z"/><path class="cls-9" d="M408.05,149.91a1.41,1.41,0,0,1-1.14-.93A8.56,8.56,0,0,1,408.05,149.91Z"/><path class="cls-9" d="M352.9,150.06c2.33-3.84,3.12-9,3.6-13.37l1,.43c-.5,4.91-1.49,10.27-4.19,14.16C353.17,150.88,353,150.47,352.9,150.06Z"/><path class="cls-9" d="M418.73,171.92l-.52-.52a1.55,1.55,0,0,1,.31,0,1.33,1.33,0,0,1,1,.4A.49.49,0,0,1,418.73,171.92Z"/><path class="cls-9" d="M375.56,162.68c-1.13-.51-2.27-1-3.44-1.46l-1.55-.62a9,9,0,0,0,2.12-1.44c.14.25.29.49.45.73A14.45,14.45,0,0,0,375.56,162.68Z"/><path class="cls-9" d="M354.51,118.25a2.31,2.31,0,0,0-2-.19.55.55,0,0,1-.19-.68A3.88,3.88,0,0,1,354.51,118.25Z"/><path class="cls-9" d="M414.51,184.75a7.93,7.93,0,0,0,1.18-.84c0,.11,0,.21,0,.32a1.21,1.21,0,0,0-.52.46,1.89,1.89,0,0,0-.63.1A.08.08,0,0,1,414.51,184.75Z"/><path class="cls-9" d="M415.69,183.91a8.62,8.62,0,0,0,3.18-4.92c.5,6.28-6.27,11.14-12.07,9.82a4,4,0,0,0,1.47-2.87,1.07,1.07,0,0,1,.19-.13,15.43,15.43,0,0,0,3.78-.19,6.56,6.56,0,0,0,2.27-.87.08.08,0,0,0,0,0,1.89,1.89,0,0,1,.63-.1,1.21,1.21,0,0,1,.52-.46C415.68,184.12,415.69,184,415.69,183.91Z"/><path class="cls-9" d="M420.05,198c0,.28,0,.57,0,.86a1.29,1.29,0,1,1-2.16,0,1.58,1.58,0,0,1,1.43-1A1.18,1.18,0,0,1,420.05,198Z"/><path class="cls-9" d="M419.53,171.33a1.59,1.59,0,0,1,.44,1.61,1.5,1.5,0,0,0-.45-1.17A.46.46,0,0,0,419.53,171.33Z"/><path class="cls-9" d="M414.49,184.73s0,0,0,0a6.56,6.56,0,0,1-2.27.87,15.43,15.43,0,0,1-3.78.19,1.1,1.1,0,0,1,1-.08,1.51,1.51,0,0,1,2.52-1.41c.14.16.27.32.41.47A1.37,1.37,0,0,1,414.49,184.73Z"/><path class="cls-9" d="M410.48,148.74v3.95a.28.28,0,0,1,0,.09v1.3a.58.58,0,0,1,0,.19,7.38,7.38,0,0,0-.41-1.41c-.05-1.64-.05-3.29-.09-4.94v0a1,1,0,0,0,0-.24A1.3,1.3,0,0,1,410.48,148.74Z"/><path class="cls-9" d="M408.3,137.54A19.77,19.77,0,0,1,410,147.65s0,0,0,0c0-1.54-.12-3.08-.3-4.61A21.93,21.93,0,0,0,408.3,137.54Z"/><path class="cls-9" d="M409.94,147.61s0,0,0,0a1,1,0,0,1,0,.24A2.53,2.53,0,0,1,409.94,147.61Z"/><path class="cls-9" d="M409.4,155.46h0a.06.06,0,0,0,0-.06Z"/><path class="cls-9" d="M409.35,155.41a.06.06,0,0,1,0,.06,1.57,1.57,0,0,1-.52.08s0,.07,0,.11a1.28,1.28,0,0,1-.6.92c.16-.36.31-.74.45-1.13a5.16,5.16,0,0,0,.16-.52C409,155.08,409.18,155.24,409.35,155.41Z"/><path class="cls-9" d="M407,146.4a9.27,9.27,0,0,1,1.71,3.52,1.62,1.62,0,0,1-.62,0,8.56,8.56,0,0,0-1.14-.93,1,1,0,0,1-.06-.5c.07-.71.09-1.42.09-2.11Z"/><path class="cls-9" d="M408.46,185.81a1.07,1.07,0,0,0-.19.13v-.15Z"/><path class="cls-9" d="M406.6,142.78l.06.35a1.13,1.13,0,0,0-.36.06A1.12,1.12,0,0,0,406.6,142.78Z"/><path class="cls-9" d="M405.72,148.26a24.09,24.09,0,0,1,.39,5,8.34,8.34,0,0,0-3.39-.59,11,11,0,0,0-1.44.15,10.14,10.14,0,0,0-9.19.1C394.43,146.85,401.07,145.87,405.72,148.26Z"/><path class="cls-9" d="M405.11,145l.18.94a8.29,8.29,0,0,1-2.93-2.19c-.11-.29-.22-.58-.32-.87a8.22,8.22,0,0,1,3.06,1.62A1.41,1.41,0,0,0,405.11,145Z"/><path class="cls-9" d="M404.42,131.28a7.71,7.71,0,0,1,1.74,2.18A17,17,0,0,0,404.42,131.28Z"/><path class="cls-9" d="M403.7,170.7s0-.06.06-.09S403.71,170.68,403.7,170.7Z"/><path class="cls-9" d="M401.94,129c-.23-.19-.48-.37-.73-.54a19.75,19.75,0,0,0-7.23-3.12c-2.54-.51-6.71-.89-8.33,1.6a1.38,1.38,0,0,1,1-1.76C392.23,123.66,397.7,125.47,401.94,129Z"/><path class="cls-9" d="M394.08,143.85a10.84,10.84,0,0,1,6.7-1.2,1.57,1.57,0,0,1-2.56.17,1.68,1.68,0,0,1-.67,0c-.07.69-.15,1.39-.28,2.1-.27,1.54-2.49,1.31-2.89,0C394.27,144.55,394.17,144.2,394.08,143.85Z"/><path class="cls-9" d="M401.28,152.82a9,9,0,0,0-6.65,4.8,8.41,8.41,0,0,0-3.05-3c.07-.3.15-.59.24-.89s.17-.54.27-.79A10.14,10.14,0,0,1,401.28,152.82Z"/><path class="cls-9" d="M396,175c.12.22.23.45.34.67a12.26,12.26,0,0,1-1.53.21l-.57,0-.06,0A9.22,9.22,0,0,0,396,175Z"/><path class="cls-9" d="M394.11,171.13c.62,1.28,1.25,2.57,1.9,3.86a9.22,9.22,0,0,1-1.82.88l-1.1-.63a3.38,3.38,0,0,0-.1-.71c0-.09-.05-.18-.07-.27a3.46,3.46,0,0,0-1.47-2,8,8,0,0,0,1.82-1.37A8.67,8.67,0,0,0,394.11,171.13Z"/><path class="cls-9" d="M394.19,175.87l.06,0H394Z"/><path class="cls-9" d="M393.92,170.75l.19.38a8.67,8.67,0,0,1-.84-.22,5.79,5.79,0,0,0,.48-.51Z"/><path class="cls-9" d="M393.09,133.59a17.15,17.15,0,0,1,.91,6.22,16.47,16.47,0,0,0-1.06-6.44A.45.45,0,0,1,393.09,133.59Z"/><path class="cls-9" d="M393.71,142.05s0-.05.07-.06,0,.15,0,.22A.5.5,0,0,1,393.71,142.05Z"/><path class="cls-9" d="M393.75,170.4a5.79,5.79,0,0,1-.48.51,11.28,11.28,0,0,1-1.8-.76c-.2-.1-.39-.21-.57-.32a9.24,9.24,0,0,1,1.54-2.57C392.82,168.32,393.26,169.37,393.75,170.4Z"/><path class="cls-9" d="M392.12,133.86c.07.21.14.42.2.63a12.16,12.16,0,0,0-2.13-4c.39.45.8.86,1.21,1.25l.75,1.14c.05.14.09.29.14.43A.44.44,0,0,0,392.12,133.86Z"/><path class="cls-9" d="M392.09,152.92c-.1.25-.19.52-.27.79s-.17.59-.24.89a7.61,7.61,0,0,0-1.19-.55A9.48,9.48,0,0,1,392.09,152.92Z"/><path class="cls-9" d="M391.47,170.15a11.28,11.28,0,0,0,1.8.76,8,8,0,0,1-1.82,1.37,3.89,3.89,0,0,0-1.13-.48,10.15,10.15,0,0,1,.58-2C391.08,169.94,391.27,170.05,391.47,170.15Z"/><path class="cls-9" d="M391.09,146.38a1,1,0,0,1,0,.16s0,0,0,0a2.34,2.34,0,0,0-.2.27Z"/><path class="cls-9" d="M391.45,172.28a7,7,0,0,1-1.27.6c0-.36.08-.72.14-1.08A3.89,3.89,0,0,1,391.45,172.28Z"/><path class="cls-9" d="M390.39,176a2.37,2.37,0,0,0,.09.36,9.51,9.51,0,0,1-2.15-.42C389,175.91,389.7,175.94,390.39,176Z"/><path class="cls-9" d="M389.25,150.44l-.08.08s0,0,0,0Z"/><path class="cls-9" d="M389.18,150.5s0,0,0,0v0c-.46.56-1,1.12-1.39,1.71l-.06.08a10.24,10.24,0,0,0-2.22.6A12,12,0,0,0,389.18,150.5Z"/><path class="cls-9" d="M388.54,153.62c-.07.52-.13,1.06-.17,1.61-.05.23-.11.46-.17.68-.75,0-1.49-.06-2.21-.07a8.29,8.29,0,0,0-1.79.17,3.4,3.4,0,0,0-.45-.28,3.35,3.35,0,0,0-.22-.7,9.19,9.19,0,0,0,3.82-1.49A7.67,7.67,0,0,1,388.54,153.62Z"/><path class="cls-9" d="M388.33,175.89l-2.34,0a9.79,9.79,0,0,1-5.66-1.82,27,27,0,0,0,4.31,0A11.6,11.6,0,0,0,388.33,175.89Z"/><path class="cls-9" d="M386.49,153.58a8.38,8.38,0,0,1,.86,0,9.19,9.19,0,0,1-3.82,1.49h0a2.67,2.67,0,0,0-.49-.73,9.25,9.25,0,0,1,1.56-1,10.86,10.86,0,0,1,1.79.35Z"/><path class="cls-9" d="M385.49,152.93l-.36.15A2.75,2.75,0,0,1,385.49,152.93Z"/><path class="cls-9" d="M384.43,153.31l.16,0a9.25,9.25,0,0,0-1.56,1,2.48,2.48,0,0,0-.66-.53h0l.7-.19A6.25,6.25,0,0,0,384.43,153.31Z"/><path class="cls-9" d="M383.75,155.73a3.4,3.4,0,0,1,.45.28,10.2,10.2,0,0,0-4,1.75,9.19,9.19,0,0,1,1.95-2.7.39.39,0,0,0,.31.09,9.21,9.21,0,0,0,1.07-.12h0A3.35,3.35,0,0,1,383.75,155.73Z"/><path class="cls-9" d="M384.1,153.28l.33,0a6.25,6.25,0,0,1-1.36.26Z"/><path class="cls-9" d="M383,154.3a2.67,2.67,0,0,1,.49.73,9.21,9.21,0,0,1-1.07.12.39.39,0,0,1-.31-.09A9.16,9.16,0,0,1,383,154.3Z"/><path class="cls-9" d="M382.14,153.63a6,6,0,0,0,.93-.06l-.7.19A1.71,1.71,0,0,0,382.14,153.63Z"/><path class="cls-9" d="M382.37,153.77a2.48,2.48,0,0,1,.66.53,9.16,9.16,0,0,0-.89.76.34.34,0,0,1-.14-.21.49.49,0,0,1-.11-1Z"/><path class="cls-9" d="M376.07,173.45l0,0a1.46,1.46,0,0,0-.66.89c-.74-.58-1.52-1.14-2.33-1.69A25.28,25.28,0,0,0,376.07,173.45Z"/><path class="cls-9" d="M360.87,164.62l15.2,8.83a25.28,25.28,0,0,1-3-.78,98.28,98.28,0,0,0-11.09-6.3c-.33-.3-.66-.61-1-.93-.11-.11-.22-.22-.32-.34A1.65,1.65,0,0,1,360.87,164.62Z"/><path class="cls-9" d="M375.44,174.36l.33.26a1,1,0,0,1-.39-.05A.83.83,0,0,1,375.44,174.36Z"/><path class="cls-9" d="M375.44,174.36a.83.83,0,0,0-.06.21,1.38,1.38,0,0,1-.64-.36,15.88,15.88,0,0,0-3.72-2.27c.69.28,1.38.52,2.09.73C373.92,173.22,374.7,173.78,375.44,174.36Z"/><path class="cls-9" d="M366.78,169.88a1.35,1.35,0,0,1-.82-.25c-1.92-1.27-3.67-1.6-5-3.62a.91.91,0,0,1-.13-.26l.23.12,1,.5A29.22,29.22,0,0,0,366.78,169.88Z"/><path class="cls-9" d="M365.83,165l-1.22-.67A9.11,9.11,0,0,1,365.83,165Z"/><path class="cls-9" d="M361.05,165.44c.31.32.64.63,1,.93l-1-.5-.23-.12a1.2,1.2,0,0,1-.06-.65C360.83,165.22,360.94,165.33,361.05,165.44Z"/><path class="cls-9" d="M357.31,124c0,.45,0,.91,0,1.38a13.85,13.85,0,0,0-.66-3.55c.15.23.3.45.46.66A7.34,7.34,0,0,1,357.31,124Z"/><path class="cls-9" d="M358.85,113.93a4,4,0,0,0-2.09,1.53,3.27,3.27,0,0,0-1.27,2.39,4.07,4.07,0,0,0-2.94-.7A9.67,9.67,0,0,1,358.85,113.93Z"/><path class="cls-9" d="M356.63,121.81l-.33-.5a2.9,2.9,0,0,1-.43-1.13A6.76,6.76,0,0,1,356.63,121.81Z"/><path class="cls-9" d="M352.9,150.06c.13.41.27.82.42,1.22a13.27,13.27,0,0,1-1.63,1.95c-.46.45-1.17-.25-.71-.7A12.21,12.21,0,0,0,352.9,150.06Z"/><path class="cls-9" d="M289.29,94.31s0,0,0,0a.48.48,0,0,0-.12-.34c-5-5.77-2.48-13.92-4.82-20.65-1.31-3.78-4.68-7.13-8.69-7.09a3.55,3.55,0,0,0-2.08.31c-.57.24-.37,1.16.27,1a6.58,6.58,0,0,1,1.14-.23c3.88.16,2.21,12.09,1.66,14.09s-1.73,4.61-3.95,5.28c-2.55.77-4.61-1.43-5.6-3.52a14.08,14.08,0,0,1-.79-2.17,23.66,23.66,0,0,1-.33-2.6c-.09-1.44-.18-2.78-.39-4.09,0-1.92,0-3.84-.15-5.69a26.86,26.86,0,0,0-2.72-9.71,27.39,27.39,0,0,0-14.18-13.2,16.07,16.07,0,0,0-8.64-.85h-.33a.41.41,0,0,0-.36.16,6.66,6.66,0,0,0-5.35,6.68.51.51,0,0,0,.76.43,8.09,8.09,0,0,1,9.08,1.11,10.1,10.1,0,0,1,3.32,6.5c0,1,.06,2.12.07,3.24a14,14,0,0,1-.84,3.8c-1,2.53-3.15,3.44-5.73,3.25A16,16,0,0,1,232,66.22c-7.68-6-13.78-18.15-25.1-16.65v-.16a.5.5,0,0,0-1,0,189.58,189.58,0,0,0,.76,24.76c.06.63,1.06.64,1,0,0-.17,0-.34-.05-.51,1.22,3,5.33,4.23,7.9,5.67L236.8,91.25a2.33,2.33,0,0,0,1.77,2.53,42.28,42.28,0,0,1,16.09,9.07,2.42,2.42,0,0,0,2.8.39c5.37,3.87,11.16,7.18,16.77,10.66a2.38,2.38,0,0,0,1.65.33,60.48,60.48,0,0,1,6.33,4.93,2.43,2.43,0,0,0,1.86.6,2.52,2.52,0,0,0,3.78,1.19c0,.4-.06.79-.1,1.18-.07.64.93.63,1,0C289.71,113,289.22,103.52,289.29,94.31Z"/><line class="cls-10" x1="207.11" y1="74.21" x2="288.35" y2="122.38"/><line class="cls-10" x1="326.96" y1="122.67" x2="326.91" y2="146.28"/><line class="cls-11" x1="420.02" y1="172.07" x2="419.89" y2="201.38"/><line class="cls-11" x1="326.91" y1="146.28" x2="419.89" y2="201.38"/><line class="cls-10" x1="420.72" y1="172.87" x2="430.05" y2="168.04"/><line class="cls-10" x1="429.61" y1="196.6" x2="430.05" y2="168.04"/><line class="cls-10" x1="419.89" y1="201.38" x2="420.73" y2="202.21"/><line class="cls-10" x1="420.72" y1="172.87" x2="421.03" y2="201.8"/><line class="cls-11" x1="430.04" y1="196.65" x2="420.73" y2="202.21"/><path class="cls-12" d="M227.3,44.66l.06-.08a8.35,8.35,0,0,0,.55-.74l.11-.18a6.23,6.23,0,0,0,.41-.71c0-.06.07-.13.11-.2.12-.25.23-.5.34-.76l.06-.17c.12-.3.21-.59.3-.9a.64.64,0,0,0,0-.07,11.47,11.47,0,0,0,.16-5.34,8.79,8.79,0,0,0-9-7.74,10.15,10.15,0,0,0-2.19.23h0c-5.46.89-8.07,5.76-7.82,10.47v.15c0,.22,0,.44.07.66l0,.26c0,.19.07.38.1.57s0,.23.07.34.09.34.14.51.07.25.11.37.1.31.16.46.1.27.16.4.12.28.19.42.13.27.2.4.14.26.22.38l.25.41a3.53,3.53,0,0,0,.24.34q.13.2.3.39l.26.31c.11.13.23.25.35.37l.29.28.39.33.32.25.44.3.34.21.49.26.37.18.54.21.39.14c.19.06.4.11.61.16l.39.1.72.11.35,0c.37,0,.75.05,1.14.05a12.59,12.59,0,0,0,1.26-.07c.14,0,.26,0,.39-.06s.54-.08.79-.14l.43-.11c.22-.07.45-.13.67-.21l.4-.16c.21-.08.41-.18.61-.28l.36-.18.59-.38.28-.19a5.45,5.45,0,0,0,.7-.57l.09-.07A10.4,10.4,0,0,0,227.3,44.66Z"/></g><g id="Layer_5" data-name="Layer 5"><path class="cls-13" d="M220.2,28.46c-11.58,0-11.6,18,0,18S231.8,28.46,220.2,28.46Z"/></g></svg>