<svg id="svg2" xmlns="http://www.w3.org/2000/svg" width="226.17" height="203.17" viewBox="0 0 226.17 203.17"><defs><style>.cls-1{fill:#ead0ff;stroke:aqua;}.cls-1,.cls-3{stroke-miterlimit:10;}.cls-2{fill:#00aad0;}.cls-3{fill:none;stroke:#00aad0;}</style></defs><title>seasidewalltop</title><g id="layer1"><path id="path3910" class="cls-1" d="M215.28.51.5,128.64l9.31,5.56L215.28,11.61,224.56,6Z" transform="translate(0.63 0.07)"/><path id="path3918" class="cls-1" d="M.5,128.65v68l9.31,5.56v-68Z" transform="translate(0.63 0.07)"/><path id="path5998" class="cls-1" d="M.57,195l9.31,5.56,0-11.06L.6,183.93Z" transform="translate(0.63 0.07)"/><path id="path6000" class="cls-1" d="M.54,183.91l9.31,5.56,0-11.07L.57,172.87Z" transform="translate(0.63 0.07)"/><path id="path6002" class="cls-1" d="M.57,172.87l9.31,5.56,0-11.07L.6,161.83Z" transform="translate(0.63 0.07)"/><path id="path6004" class="cls-1" d="M.6,161.83l9.31,5.56,0-11.06L.63,150.8Z" transform="translate(0.63 0.07)"/><path id="path6006" class="cls-1" d="M.56,150.77l9.32,5.56,0-11.07L.59,139.73Z" transform="translate(0.63 0.07)"/><path id="path6008" class="cls-1" d="M.53,139.71l9.31,5.55,0-11.06L.56,128.67Z" transform="translate(0.63 0.07)"/><path id="path6042" class="cls-1" d="M131.57,63.35l-.09,55.21,9.31,5.56,0-55.25Z" transform="translate(0.63 0.07)"/><path id="path6059" class="cls-1" d="M131.48,118.56l9.31,5.56-37.15,22.16-9.25-5.59Z" transform="translate(0.63 0.07)"/><path id="path6053" class="cls-1" d="M224.56,6,9.83,134.22v68l93.81-56,0-55.19,37.15-22.19,0,55.16,83.77-50Z" transform="translate(0.63 0.07)"/><path id="path21" class="cls-1" d="M10.24,167.91V134.17L116.85,70.54c58.63-35,106.81-63.71,107.07-63.8s.46,13,.45,33.59l0,33.75L183.2,98.58c-22.63,13.47-41.37,24.57-41.65,24.66s-.5-9.36-.5-27.19c0-15-.19-27.28-.42-27.19S132,73.92,122,79.89L103.71,90.75l-.14,27.72-.14,27.71-45.21,27C33.36,188,12.39,200.49,11.63,200.9l-1.39.74Z" transform="translate(0.63 0.07)"/><path id="path23" class="cls-1" d="M103.68,140.57v-5.49l13.87-8.28,13.88-8.27,0-22,0-22,4.41-2.6,4.41-2.6.25,27.35c.22,23.92.16,27.42-.51,27.9-1.26.93-35.79,21.42-36.09,21.42a28.16,28.16,0,0,1-.27-5.49Z" transform="translate(0.63 0.07)"/><path id="path25" class="cls-1" d="M5.09,131.28c-2.42-1.44-4.35-2.65-4.3-2.7S49.15,99.71,108.12,64.53L215.35.57l4.57,2.74,4.57,2.74-11,6.55-107.18,64C53.39,108.11,10,133.92,9.8,133.91S7.5,132.71,5.09,131.28Z" transform="translate(0.63 0.07)"/><path id="path27" class="cls-1" d="M4.81,199.31l-4.67-2.8V162.7c0-18.6.13-33.82.29-33.82s2.31,1.2,4.78,2.66l4.5,2.65v34c0,18.69,0,34-.11,34s-2.23-1.26-4.8-2.81Z" transform="translate(0.63 0.07)"/></g><path class="cls-2" d="M224.78,57.4q-.15-8-.05-15.92a2.53,2.53,0,0,0-.57-1.55,1.55,1.55,0,0,0-1-2.67c-6.06-.21-10.63,4.62-16.92,4.26-5.63-.32-10.27-4.25-15.9-4.6-10.82-.69-17.87,8.87-23.21,16.86-.81,1.22.83,2.92,2.06,2,2-1.38,4-3,6.39-3.59,5-1.32,8.86,3.53,5,7.71a27.35,27.35,0,0,1-11.67,7c-8.44,2.5-16.11-3.74-24.28-1a1.51,1.51,0,0,0,0,2.89,8,8,0,0,1,5.61,10c-1.11,4.15-4.84,6.86-8.65,8.33a1.59,1.59,0,0,0-1,1.83,1.77,1.77,0,0,0,.05,1.87l.06.08a.77.77,0,0,1,0,.15,2.45,2.45,0,0,0,.12.31,43.79,43.79,0,0,0,0,7.51,1.64,1.64,0,0,0,.81,1.12,6.28,6.28,0,0,0,0,3.44,2.41,2.41,0,0,0-.48,2.68,1.25,1.25,0,0,0-.56,1.21,69.58,69.58,0,0,1,.21,7.5c-.06,2.15-.41,4.26.21,6.36a1.53,1.53,0,0,0,2.91,0,4.91,4.91,0,0,0,1.12-.61.91.91,0,0,0,1.07-.21c.31-.31.62-.61.94-.89a10,10,0,0,0,2.48-1.6.93.93,0,0,0,.81,0,58.28,58.28,0,0,0,5.6-3.7c2.12-1.54,4.6-2.39,6.82-3.79,4.42-2.79,9.1-5.13,13.72-7.57a.87.87,0,0,0,.45-1.06c1.76-.93,3.45-2,5.27-2.84a.83.83,0,0,0,.49-.59,3.46,3.46,0,0,0,.54-.19,1,1,0,0,0,.6-.58,18.65,18.65,0,0,1,2.94-.88,3.76,3.76,0,0,0,2.95-2.31,4.62,4.62,0,0,0,1.17-.43,110.17,110.17,0,0,0,13-8,6.41,6.41,0,0,0,.78-.69l.73-.31a2.64,2.64,0,0,0,1.16-.9,26.07,26.07,0,0,1,2.6-1,.47.47,0,0,0,.3-.67c1.24-.63,2.5-1.23,3.77-1.8a.46.46,0,0,0,.18-.65,27,27,0,0,0,3.25-1.57.42.42,0,0,0,.23-.46c1.57-.83,3.14-1.65,4.7-2.49,2.16-1.18,3.06-1.61,3.52-4.07C226,67.16,224.85,61.7,224.78,57.4Z" transform="translate(0.63 0.07)"/><path class="cls-2" d="M103.54,107.45c.2-.16.41-.32.6-.49,1.45-1.28-.67-3.4-2.12-2.12a14.46,14.46,0,0,1-13.5,3.39c-3.59-.93-6.73-2.86-10.47-3.26-6.49-.7-12.62,2.38-18.21,5.26a1.52,1.52,0,0,0,.76,2.8,9,9,0,0,1,9.29,7c1,4.66-1.83,9.48-5.53,12.1-6.66,4.7-17,3.88-23.69-.08a1.51,1.51,0,0,0-2.26,1.29c-.11,9.91-9.07,25.17-21,20.92a1.5,1.5,0,0,0-1.84,1.84c1.22,3.67-.66,7.57-4.89,8.07a1.48,1.48,0,0,0-1,.48l-.06-.06a17,17,0,0,0-8.43-4c-1.89-.31-2.7,2.58-.8,2.89l.17,0A2,2,0,0,0,0,165a176.42,176.42,0,0,0,.8,21.44c-.12,1.1-.23,2.17-.3,3.21-.15,2-1,5.08.44,6.81a7.65,7.65,0,0,0,3.7,2.07c0,.09.08.18.14.27a4.49,4.49,0,0,0,1.72,1.52c1,.53,1,.81.76-.21a2.05,2.05,0,0,0,2,1.46,1.86,1.86,0,0,0,1.12.06c3.38-.9,5.82-3,8.6-5a71,71,0,0,1,10.09-6A137.05,137.05,0,0,0,45,180.6a2,2,0,0,0,1.39-.17c8.7-4.41,17-9.89,25.48-14.76a1.78,1.78,0,0,0,.95-1.47l3.49-1.68a1.7,1.7,0,0,0,1-1.11c5-2.35,10.12-4.64,14.63-8a2.28,2.28,0,0,0,.81-1.08h.35A1.8,1.8,0,0,0,95,150.81a46,46,0,0,0,6.91-3.33c2.66-1.67,1.82-4.7,1.86-7.61l.21-16.85c.06-4.56,1.2-10.45,0-14.84A2.26,2.26,0,0,0,103.54,107.45Z" transform="translate(0.63 0.07)"/><line class="cls-3" x1="104.78" y1="107.03" x2="104.27" y2="146.35"/><line class="cls-3" x1="10.48" y1="167.43" x2="10.45" y2="202.27"/><line class="cls-3" x1="1.13" y1="196.72" x2="10.45" y2="202.27"/><line class="cls-3" x1="1.23" y1="161.9" x2="1.13" y2="196.72"/><line class="cls-3" x1="10.45" y1="202.27" x2="104.27" y2="146.35"/><line class="cls-3" x1="141.68" y1="90.26" x2="142.19" y2="123.31"/><line class="cls-3" x1="225.2" y1="38.41" x2="225.2" y2="74.11"/><line class="cls-3" x1="142.19" y1="123.31" x2="225.2" y2="74.11"/></svg>