<?xml version="1.0" encoding="UTF-8" standalone="no"?>
<!-- Generator: Adobe Illustrator 16.0.0, SVG Export Plug-In . SVG Version: 6.00 Build 0)  -->

<svg
   xmlns:dc="http://purl.org/dc/elements/1.1/"
   xmlns:cc="http://creativecommons.org/ns#"
   xmlns:rdf="http://www.w3.org/1999/02/22-rdf-syntax-ns#"
   xmlns:svg="http://www.w3.org/2000/svg"
   xmlns="http://www.w3.org/2000/svg"
   xmlns:sodipodi="http://sodipodi.sourceforge.net/DTD/sodipodi-0.dtd"
   xmlns:inkscape="http://www.inkscape.org/namespaces/inkscape"
   version="1.1"
   id="svg2"
   sodipodi:docname="top.svg"
   inkscape:version="0.92.2 (5c3e80d, 2017-08-06)"
   x="0px"
   y="0px"
   width="430.543px"
   height="325.295px"
   viewBox="0 0 430.543 325.295"
   enable-background="new 0 0 430.543 325.295"
   xml:space="preserve"><metadata
     id="metadata102"><rdf:RDF><cc:Work
         rdf:about=""><dc:format>image/svg+xml</dc:format><dc:type
           rdf:resource="http://purl.org/dc/dcmitype/StillImage" /></cc:Work></rdf:RDF></metadata><defs
     id="defs86"><inkscape:perspective
       id="perspective2985"
       inkscape:vp_z="744.09448 : 526.18109 : 1"
       inkscape:vp_y="0 : 1000 : 0"
       inkscape:vp_x="0 : 526.18109 : 1"
       sodipodi:type="inkscape:persp3d"
       inkscape:persp3d-origin="372.04724 : 350.78739 : 1" /></defs><sodipodi:namedview
     units="mm"
     fit-margin-left="0"
     fit-margin-top="0"
     showguides="true"
     showgrid="false"
     inkscape:cy="278.43502"
     inkscape:cx="60.645826"
     inkscape:zoom="1.979899"
     borderopacity="1.0"
     bordercolor="#666666"
     pagecolor="#ffffff"
     id="base"
     inkscape:pageshadow="2"
     inkscape:pageopacity="0.0"
     fit-margin-bottom="0"
     fit-margin-right="0"
     inkscape:guide-bbox="true"
     inkscape:window-maximized="1"
     inkscape:window-y="-8"
     inkscape:window-x="-8"
     inkscape:window-height="745"
     inkscape:window-width="1366"
     inkscape:object-nodes="true"
     inkscape:current-layer="layer1"
     inkscape:document-units="mm" /><g
     id="layer1"
     transform="translate(-53.643411,-569.625)"
     inkscape:label="Layer 1"
     inkscape:groupmode="layer"><path
       id="path3910"
       sodipodi:nodetypes="cccccc"
       inkscape:connector-curvature="0"
       fill="#D7D7F4"
       d="M268.925,570.139   L54.144,698.264l9.313,5.563l205.469-122.594l9.281-5.563L268.925,570.139z" /><path
       id="path3918"
       inkscape:connector-curvature="0"
       fill="#F2F2F2"
       d="M54.145,698.276v68l9.312,5.555v-68L54.145,698.276z" /><path
       id="path5998"
       inkscape:connector-curvature="0"
       fill="none"
       d="M54.21,764.597l9.312,5.556L63.49,759.09l-9.25-5.531   L54.21,764.597z" /><path
       id="path6000"
       inkscape:connector-curvature="0"
       fill="none"
       d="M54.179,753.534l9.312,5.556l-0.031-11.063l-9.25-5.531   L54.179,753.534z" /><path
       id="path6002"
       inkscape:connector-curvature="0"
       fill="none"
       d="M54.209,742.496l9.311,5.556l-0.031-11.063l-9.25-5.531   L54.209,742.496z" /><path
       id="path6004"
       inkscape:connector-curvature="0"
       fill="none"
       d="M54.239,731.458l9.311,5.557l-0.031-11.063l-9.25-5.531   L54.239,731.458z" /><path
       id="path6006"
       inkscape:connector-curvature="0"
       fill="none"
       d="M54.207,720.396l9.312,5.556l-0.031-11.063l-9.25-5.531   L54.207,720.396z" /><path
       id="path6008"
       inkscape:connector-curvature="0"
       fill="none"
       d="M54.176,709.333l9.312,5.556l-0.031-11.063l-9.25-5.531   L54.176,709.333z" /><path
       id="path6042"
       sodipodi:nodetypes="ccccc"
       inkscape:connector-curvature="0"
       fill="#F2F2F2"
       d="M185.214,632.973   l-0.089,55.214l9.312,5.556l0.031-55.25L185.214,632.973z" /><path
       id="path6059"
       inkscape:connector-curvature="0"
       fill="#F2F2F2"
       d="M185.125,688.188l9.312,5.556l-37.155,22.163l-9.25-5.594   L185.125,688.188z" /><path
       id="path6053"
       sodipodi:nodetypes="ccccccccc"
       inkscape:connector-curvature="0"
       fill="#B3B3B3"
       d="M278.206,575.67   L63.469,703.844v68l93.812-55.969l0.03-55.194l37.156-22.188l-0.03,55.163l83.769-49.986V575.67z" /><path
       style="fill:#ffe680;stroke-width:0.50507629"
       d="m 9.835153,168.24975 v -33.76968 l 12.2481,-7.31981 C 60.710188,104.07571 95.947576,83.051461 131.81107,61.691578 c 8.61155,-5.128938 19.5212,-11.646147 24.24366,-14.48269 4.72247,-2.836542 19.3823,-11.586896 32.57742,-19.445231 13.19512,-7.858335 26.60489,-15.861442 29.7995,-17.7846817 l 5.80838,-3.4967995 0.1367,33.7502072 0.1367,33.750206 -1.39939,1.133911 c -0.76967,0.623653 -1.7782,1.135043 -2.24119,1.136422 -0.46298,0.0015 -0.91755,0.194454 -1.01015,0.429047 -0.1288,0.32633 -12.56252,7.953714 -19.4866,11.953933 -5.22725,3.019917 -8.66818,5.113791 -9.65674,5.876305 -0.65768,0.507299 -1.39635,0.798399 -1.6415,0.646897 -0.24514,-0.151508 -0.44571,-0.05008 -0.44571,0.225385 0,0.275463 -0.51139,0.660438 -1.13642,0.855493 -0.62503,0.19506 -1.25006,0.508364 -1.38896,0.696232 -0.24404,0.330093 -4.44607,2.910795 -8.08122,4.963136 -2.80187,1.58189 -11.5588,6.86473 -15.15229,9.14101 -1.80565,1.14378 -4.30577,2.57969 -5.55584,3.19091 -1.25006,0.61122 -2.38648,1.24901 -2.52538,1.41731 -0.27415,0.3322 -4.73369,3.0884 -7.57614,4.6824 -0.97227,0.54524 -2.73373,1.55525 -3.91434,2.24448 l -2.14658,1.25313 V 96.253937 c 0,-15.166056 -0.13114,-27.574649 -0.29142,-27.574649 -0.62177,0 -9.8101,5.70318 -9.8101,6.089109 0,0.224845 -0.39979,0.535699 -0.88842,0.690783 -0.48862,0.155083 -2.11978,1.092924 -3.62479,2.084096 -1.50502,0.991166 -2.98033,1.845553 -3.27847,1.898637 -0.29814,0.05308 -0.65572,0.225638 -0.79462,0.383454 -0.26757,0.304015 -10.08486,6.217888 -13.21578,7.961108 -4.9647,2.764212 -5.3373,3.156439 -5.57871,5.872593 -0.1245,1.400783 -0.14289,7.092562 -0.0409,12.648402 0.10202,5.55584 0.0384,16.92823 -0.14143,25.27199 l -0.32692,15.17047 -1.83863,1.04532 c -3.585385,2.03841 -9.968256,5.85279 -13.455388,8.04089 -1.944544,1.22016 -4.558314,2.72241 -5.808377,3.33835 -1.250064,0.61593 -2.386486,1.25291 -2.525382,1.41551 -0.293596,0.3437 -7.045147,4.55886 -7.302069,4.55886 -0.09496,0 -1.616002,0.89705 -3.380092,1.99344 -1.764095,1.09639 -5.253,3.17297 -7.753128,4.61461 -2.500127,1.44165 -5.08379,3.04163 -5.741473,3.55552 -0.657683,0.51389 -1.396357,0.81038 -1.641498,0.65888 -0.245141,-0.15151 -0.445711,-0.0348 -0.445711,0.25941 0,0.29419 -0.324692,0.53489 -0.721537,0.53489 -0.396846,0 -1.021878,0.29417 -1.38896,0.65372 -0.646582,0.63331 -4.881832,3.26506 -8.496105,5.27941 -0.972271,0.54188 -5.010588,2.96018 -8.974036,5.37401 -3.963449,2.41383 -7.599998,4.53399 -8.08122,4.71147 -0.481223,0.17748 -0.988593,0.47308 -1.127489,0.65691 -0.300369,0.39752 -14.027405,8.57829 -14.394061,8.57829 -0.1392331,0 -0.253151,-15.19635 -0.253151,-33.76967 z"
       id="path104"
       inkscape:connector-curvature="0"
       transform="translate(53.643411,569.625)" /><path
       style="fill:#ffe680;stroke-width:0.50507629"
       d="M 10.103113,171.07595 C 9.9062072,154.34314 9.8221849,139.30438 9.9163968,137.65649 l 0.1712942,-2.99616 36.112953,-21.55021 C 66.062769,101.2575 114.1334,72.568315 153.02428,49.35637 L 223.73495,7.1528382 223.9913,40.315176 c 0.23655,30.599711 0.19032,33.252165 -0.59824,34.324795 -0.47003,0.639351 -1.03996,1.153458 -1.26651,1.142462 -0.98524,-0.04783 -2.5762,0.751079 -6.41577,3.221715 -3.47421,2.235533 -22.43403,13.59535 -28.08878,16.829445 -8.88949,5.084127 -27.27412,16.435487 -27.27412,16.840067 0,0.28157 -0.18365,0.39845 -0.40811,0.25973 -0.43373,-0.26806 -2.36325,0.78887 -12.10785,6.63233 -3.35855,2.01399 -6.23481,3.66181 -6.3917,3.66181 -0.15688,0 -0.28524,-12.27336 -0.28524,-27.274123 0,-19.664478 -0.15658,-27.274119 -0.5612,-27.274119 -0.85076,0 -8.92751,4.987012 -9.65811,5.963426 -0.3519,0.470306 -0.98075,0.930795 -1.39744,1.023309 -1.47862,0.328285 -25.27663,14.791083 -25.0204,15.20568 0.1433,0.231855 -0.0779,0.702425 -0.49151,1.04571 -0.64618,0.536275 -0.75206,3.91127 -0.75206,23.972147 0,12.8414 -0.14223,25.03056 -0.31606,27.08702 l -0.31607,3.73903 -6.843238,4.03959 c -29.44078,17.37901 -39.496722,23.49021 -39.496722,24.00297 0,0.27072 -0.170463,0.45551 -0.378807,0.41065 -0.81223,-0.17488 -3.476946,1.28805 -15.842636,8.69762 -14.060567,8.42514 -28.801452,17.21385 -29.301243,17.46978 -0.175099,0.0897 -0.479465,-13.52746 -0.676371,-30.26027 z"
       id="path106"
       inkscape:connector-curvature="0"
       transform="translate(53.643411,569.625)" /><path
       style="fill:#fff6d5;stroke-width:0.50507629"
       d="m 10.252173,188.29316 c -0.04843,-7.31242 -0.105253,-22.37884 -0.126269,-33.48091 l -0.03821,-20.1856 8.712566,-5.16782 c 4.791911,-2.8423 8.712565,-5.06841 8.712565,-4.9469 0,0.12152 0.397748,-0.11962 0.883884,-0.53587 0.486136,-0.41624 1.00286,-0.69812 1.148276,-0.6264 0.145415,0.0717 0.761222,-0.32417 1.368458,-0.87975 1.208732,-1.10591 30.059847,-18.27222 30.3169,-18.03844 0.08727,0.0794 0.473696,-0.17072 0.858731,-0.55576 0.804834,-0.80483 29.793232,-18.12245 30.418016,-18.171669 0.227209,-0.01788 0.679737,-0.299167 1.005607,-0.625037 0.771721,-0.771727 29.589133,-17.887095 30.108923,-17.882428 0.21827,0.002 0.71335,-0.31294 1.10018,-0.699773 0.86755,-0.867549 27.70401,-16.847079 27.7583,-16.528434 0.0215,0.126192 0.49367,-0.159774 1.04925,-0.635479 0.55559,-0.475706 1.18873,-0.854942 1.407,-0.842748 0.21827,0.01219 0.71187,-0.292856 1.09691,-0.677891 0.87327,-0.873273 29.67398,-18.037444 30.21782,-18.00872 0.21826,0.01153 0.71187,-0.294067 1.09691,-0.679102 0.91947,-0.919467 30.2184,-18.352058 30.29264,-18.023835 0.0314,0.138896 0.59759,-0.250992 1.25817,-0.866418 0.66059,-0.6154259 1.39393,-0.9997598 1.62965,-0.8540755 0.23572,0.1456842 0.42858,0.030019 0.42858,-0.2570335 0,-0.2870526 0.68077,-0.87395 1.51281,-1.3042164 l 1.51281,-0.7823025 -0.004,28.3505819 c -0.002,15.59282 0.14623,30.486939 0.32978,33.098037 0.37312,5.3082 0.0522,6.087614 -3.00917,7.307221 -0.88274,0.351675 -2.19885,1.047584 -2.92469,1.546458 -0.72583,0.498874 -1.46451,0.762241 -1.64149,0.585252 -0.17689,-0.176989 -0.32169,-0.06247 -0.32169,0.254488 0,0.59403 -2.98735,2.406193 -3.66181,2.2213 -0.20834,-0.05711 -0.3788,0.09754 -0.3788,0.343669 0,0.246134 -1.59099,1.392708 -3.53554,2.547938 -1.94454,1.155231 -3.53553,2.279677 -3.53553,2.498764 0,0.219087 -0.29487,0.398344 -0.65527,0.398344 -0.36039,0 -2.06503,0.826239 -3.78807,1.836083 -1.72304,1.00985 -3.1328,1.71335 -3.1328,1.563332 0,-0.150012 -0.31821,0.04546 -0.70712,0.434361 -1.02457,1.024567 -25.21905,15.298723 -25.67677,15.148673 -0.21184,-0.0694 -0.38516,0.0652 -0.38516,0.29927 0,0.23405 -0.85231,0.85908 -1.89403,1.38896 -1.04172,0.52988 -2.40543,1.48652 -3.03046,2.12586 -0.62503,0.63935 -1.13642,1.02425 -1.13642,0.85533 0,-0.35509 -2.9664,1.24158 -3.88104,2.08898 -0.3391,0.31417 -0.45691,0.74303 -0.26179,0.95303 0.19512,0.21 0.0138,0.26861 -0.40286,0.13024 -0.79563,-0.2642 -3.83317,1.0805 -6.18718,2.73901 -0.76393,0.53822 -1.38896,0.84947 -1.38896,0.69166 0,-0.15781 -0.46286,0.17592 -1.02858,0.74164 -0.56572,0.56572 -1.24757,0.89323 -1.51522,0.72781 -0.26766,-0.16542 -0.48666,-0.0907 -0.48666,0.16595 0,0.41328 -7.65415,5.14874 -8.32216,5.14874 -0.14527,0 -0.26414,-12.27336 -0.26414,-27.274123 0,-19.782418 -0.15527,-27.274119 -0.56527,-27.274119 -0.3109,0 -1.89459,0.807516 -3.51931,1.794481 -1.62472,0.986964 -3.0924,1.765534 -3.26152,1.730159 -0.16912,-0.03536 -1.05776,0.691277 -1.97476,1.614784 -0.91699,0.923507 -1.97917,1.752544 -2.36038,1.842301 -0.96317,0.226784 -24.60584,14.425266 -24.53863,14.736555 0.13359,0.618799 -0.76467,2.525381 -1.18981,2.525381 -0.28413,0 -0.49086,9.669661 -0.52099,24.369931 -0.0275,13.40346 -0.22275,25.61999 -0.43396,27.14785 -0.21121,1.52785 -0.41601,2.60968 -0.45513,2.40406 -0.0391,-0.20563 -0.53305,0.0217 -1.09764,0.50507 -0.56459,0.48342 -1.16421,0.80271 -1.332486,0.70953 -0.168276,-0.0932 -0.445013,0.048 -0.614971,0.31367 -0.377964,0.59087 -10.663069,6.72327 -10.663069,6.35775 0,-0.14339 -0.352523,0.0918 -0.783383,0.52267 -0.430861,0.43086 -2.305956,1.62394 -4.16688,2.65129 -1.860923,1.02735 -4.318669,2.49908 -5.461657,3.2705 -1.142993,0.77143 -2.392233,1.46968 -2.776096,1.55167 -0.383858,0.082 -0.926032,0.42069 -1.204829,0.75266 -0.278797,0.33198 -0.847008,0.6729 -1.262691,0.75761 -0.415683,0.0847 -0.983894,0.42565 -1.262691,0.75762 -0.278797,0.33197 -0.831719,0.6729 -1.228714,0.75761 -0.39699,0.0847 -1.143033,0.49496 -1.657872,0.91164 -0.514835,0.41669 -0.990849,0.64398 -1.057812,0.50508 -0.06696,-0.1389 -0.662226,0.25099 -1.322805,0.86642 -0.660584,0.61542 -1.393924,0.99976 -1.629643,0.85407 -0.235725,-0.14568 -0.428588,-0.06 -0.428588,0.19047 0,0.25044 -0.852316,0.88889 -1.894036,1.41877 -1.04172,0.52988 -2.007678,1.07919 -2.146574,1.22068 -0.138896,0.1415 -1.218497,0.8834 -2.399112,1.64867 -1.180616,0.76527 -2.146575,1.62887 -2.146575,1.91912 0,0.29024 -0.22209,0.39045 -0.493533,0.22269 -0.450717,-0.27855 -4.434852,1.65479 -5.946189,2.88546 -0.34724,0.28275 -0.634826,0.3158 -0.63908,0.0734 -0.0042,-0.24236 -0.174717,-0.18219 -0.378807,0.13371 -0.394061,0.60993 -14.513596,9.23944 -15.413702,9.42046 -0.291805,0.0587 -0.955534,0.51274 -1.474951,1.00901 -0.519418,0.49627 -1.16339,0.76696 -1.43105,0.60154 -0.26766,-0.16542 -0.486654,-0.0659 -0.486654,0.22114 0,0.28706 -0.738674,0.89792 -1.641497,1.35748 -0.902824,0.45956 -3.914341,2.24484 -6.692261,3.96729 -2.777919,1.72246 -6.357647,3.8691 -7.954951,4.77032 l -2.904189,1.63858 z"
       id="path108"
       inkscape:connector-curvature="0"
       transform="translate(53.643411,569.625)" /><path
       style="fill:#fff6d5;stroke-width:0.50507629"
       d="m 7.8148479,132.85614 c -0.6944798,-0.50702 -2.5701169,-1.7137 -4.1680818,-2.68151 l -2.90539126,-1.75965 4.79484476,-2.84626 c 2.6371648,-1.56545 5.0241914,-2.84627 5.3045034,-2.84627 0.280312,0 0.509659,-0.22296 0.509659,-0.49546 0,-0.27249 0.568211,-0.63806 1.26269,-0.81237 0.69448,-0.1743 1.262691,-0.48115 1.262691,-0.68188 0,-0.20074 0.625032,-0.67535 1.38896,-1.05468 2.231627,-1.10815 9.905685,-5.63993 10.732871,-6.33811 0.416688,-0.35171 1.098541,-0.71419 1.515228,-0.80552 0.416688,-0.0913 0.871257,-0.30927 1.010153,-0.48432 0.4652,-0.58631 10.553718,-6.50025 11.088683,-6.50025 0.290439,0 0.528071,-0.21197 0.528071,-0.47104 0,-0.25908 0.478865,-0.62303 1.064144,-0.80879 0.585279,-0.18576 1.501785,-0.71247 2.036679,-1.17046 0.534895,-0.45799 1.135631,-0.838 1.334969,-0.84447 0.512962,-0.0167 10.324193,-5.899592 11.136023,-6.677308 0.369635,-0.354099 0.861614,-0.526674 1.093283,-0.383495 0.231668,0.143179 0.497449,0.05621 0.590626,-0.193267 0.217369,-0.58201 10.224153,-6.623767 10.970756,-6.623767 0.309577,0 0.562867,-0.211971 0.562867,-0.471039 0,-0.259074 0.49392,-0.627805 1.097597,-0.819406 0.603672,-0.191601 1.54723,-0.767266 2.096794,-1.279262 0.549558,-0.511991 1.192066,-0.811698 1.427785,-0.666014 0.235724,0.145684 0.428587,0.02419 0.428587,-0.270004 0,-0.294186 0.219223,-0.534885 0.487161,-0.534885 0.543604,0 7.685059,-4.218473 9.547462,-5.639702 0.65768,-0.501889 1.396354,-0.788566 1.641498,-0.637063 0.245139,0.151508 0.44571,0.08377 0.44571,-0.150523 0,-0.23429 0.738674,-0.855751 1.641498,-1.381025 0.902823,-0.525269 2.436993,-1.450392 3.409264,-2.055827 0.972272,-0.605435 1.995052,-1.162009 2.272844,-1.236831 0.277791,-0.07482 1.047119,-0.562407 1.709612,-1.083525 0.662493,-0.521117 1.51481,-0.947487 1.894036,-0.947487 0.379226,0 0.6895,-0.211971 0.6895,-0.47104 0,-0.259073 0.478863,-0.623026 1.064145,-0.808788 0.585277,-0.185757 1.437591,-0.657504 1.894041,-1.048321 0.45643,-0.390818 1.05717,-0.752832 1.33496,-0.804481 0.27779,-0.05165 0.73236,-0.285272 1.01015,-0.519163 0.95053,-0.800303 9.95827,-5.944657 10.40908,-5.944657 0.24753,0 0.45006,-0.240699 0.45006,-0.534885 0,-0.294187 0.22729,-0.394414 0.50508,-0.222729 0.27779,0.171686 0.50508,0.09102 0.50508,-0.179262 0,-0.270276 1.50641,-1.363291 3.34758,-2.428916 1.84117,-1.065631 4.39812,-2.570212 5.6821,-3.343519 1.28399,-0.773308 2.90274,-1.682445 3.59722,-2.020306 0.69448,-0.33786 1.66781,-0.95522 2.16295,-1.371908 0.49514,-0.416688 1.06335,-0.744911 1.26269,-0.729385 0.19934,0.01553 0.58972,-0.163135 0.86751,-0.397025 0.95053,-0.800305 9.95827,-5.944658 10.40907,-5.944658 0.24754,0 0.45007,-0.265165 0.45007,-0.589255 0,-0.324091 0.13258,-0.456673 0.29463,-0.294628 0.16205,0.162045 0.73855,-0.149291 1.28111,-0.691858 0.54257,-0.542566 1.18607,-0.863137 1.43,-0.712377 0.24394,0.150759 0.51975,0.07938 0.61293,-0.158627 0.24371,-0.622525 6.53192,-4.561942 10.01839,-6.276284 0.69448,-0.341485 1.60362,-0.906847 2.02031,-1.256361 0.41668,-0.349513 0.95948,-0.614206 1.20622,-0.588206 0.24673,0.026 0.58766,-0.147066 0.75761,-0.384592 0.16996,-0.237524 2.24093,-1.536439 4.60216,-2.886477 2.36123,-1.350038 5.28162,-3.114533 6.48975,-3.921101 1.20814,-0.806567 2.4582,-1.515802 2.77792,-1.576078 0.31973,-0.06028 0.69496,-0.252818 0.83385,-0.427871 0.4652,-0.586303 10.55372,-6.500251 11.08868,-6.500251 0.29044,0 0.52808,-0.211968 0.52808,-0.47104 0,-0.259072 0.47886,-0.623026 1.06414,-0.808787 0.58528,-0.18576 1.50179,-0.712466 2.03668,-1.170457 0.5349,-0.457991 1.13563,-0.835775 1.33497,-0.839518 0.44716,-0.0084 9.16692,-5.2110884 10.21142,-6.0927035 0.41669,-0.3517058 1.09854,-0.714186 1.51523,-0.8055113 0.41669,-0.091325 0.87125,-0.310278 1.01015,-0.4865617 0.72091,-0.9149568 10.64217,-6.4980143 11.54717,-6.4980143 0.82645,0 9.34926,4.6013034 8.99467,4.8560482 C 222.83983,6.9229971 9.755408,133.82517 9.4808274,133.80606 9.2590186,133.79063 8.5093278,133.36317 7.8148479,132.85614 Z"
       id="path110"
       inkscape:connector-curvature="0"
       transform="translate(53.643411,569.625)" /><path
       style="fill:#fff6d5;stroke-width:0.50507629"
       d="m 103.78323,140.52639 0.004,-5.42957 2.14268,-1.21717 c 1.17848,-0.66943 3.05182,-1.79784 4.16299,-2.50757 1.11117,-0.70973 2.1971,-1.2395 2.41317,-1.17726 0.21607,0.0622 0.52399,-0.22859 0.68427,-0.64626 0.16027,-0.41766 0.49487,-0.63364 0.74356,-0.47995 0.24868,0.1537 0.45215,0.0253 0.45215,-0.28525 0,-0.31058 0.19691,-0.44299 0.43758,-0.29425 0.24066,0.14874 0.8441,-0.17877 1.34097,-0.72781 0.49686,-0.54903 1.10465,-0.99824 1.35064,-0.99824 0.24599,0 1.06308,-0.42553 1.81576,-0.94561 1.36617,-0.944 8.69446,-5.30051 10.957,-6.51371 l 1.19504,-0.64078 0.007,-12.74374 c 0.004,-7.009052 0.021,-16.876416 0.0378,-21.927473 l 0.0306,-9.183741 4.23703,-2.559282 c 2.33036,-1.407606 4.37952,-2.559283 4.55369,-2.559283 0.17418,0 0.3056,12.386995 0.29206,27.526656 -0.0203,22.706123 -0.14355,27.526653 -0.70378,27.526653 -0.37354,0 -0.96003,0.33843 -1.30331,0.75206 -0.34328,0.41362 -0.79531,0.64627 -1.0045,0.51698 -0.20919,-0.12928 -0.78202,0.20879 -1.27296,0.75127 -0.49094,0.54248 -1.09113,0.86364 -1.33376,0.71369 -0.24263,-0.14995 -0.56963,0.0622 -0.72666,0.4714 -0.15703,0.40923 -0.83728,0.88253 -1.51166,1.05179 -0.67438,0.16926 -1.22615,0.5307 -1.22615,0.8032 0,0.2725 -0.2841,0.4962 -0.63134,0.4971 -0.34724,0.001 -3.29763,1.5919 -6.55642,3.53554 -3.25879,1.94363 -6.15666,3.53388 -6.43972,3.53388 -0.28306,0 -0.51465,0.21197 -0.51465,0.47104 0,0.25907 -0.51139,0.63063 -1.13642,0.82569 -0.62504,0.19506 -1.25007,0.49448 -1.38896,0.66538 -0.50855,0.62573 -3.50817,2.58358 -3.95832,2.58358 -0.25502,0 -0.74455,0.33842 -1.08783,0.75205 -0.34328,0.41363 -0.79531,0.64628 -1.0045,0.51699 -0.20919,-0.12929 -0.78202,0.20878 -1.27296,0.75126 -0.49094,0.54248 -1.09113,0.86365 -1.33376,0.7137 -0.24263,-0.14996 -0.57749,0.0827 -0.74415,0.51698 -0.16665,0.4343 -0.61962,0.78963 -1.00658,0.78963 -0.558,0 -0.70278,-1.12348 -0.69969,-5.42957 z m 36.3616,-17.02856 c 0,-0.12912 -0.51139,-0.50726 -1.13642,-0.8403 -1.03047,-0.54908 -1.07179,-0.52719 -0.44323,0.23477 0.6454,0.78237 1.57965,1.1405 1.57965,0.60553 z m -2.77792,-1.78553 c -0.17168,-0.2778 -0.69649,-0.4891 -1.16623,-0.46958 -0.69624,0.0289 -0.6674,0.11572 0.15608,0.46958 1.35154,0.58077 1.36909,0.58077 1.01015,0 z m -2.52538,-1.51523 c -0.17169,-0.27779 -0.69649,-0.4891 -1.16623,-0.46958 -0.69625,0.0289 -0.6674,0.11572 0.15608,0.46958 1.35154,0.58077 1.36909,0.58077 1.01015,0 z"
       id="path112"
       inkscape:connector-curvature="0"
       transform="translate(53.643411,569.625)" /><path
       style="fill:#fff6d5;stroke-width:0.50507629"
       d="m 7.5430553,200.97812 c -0.182275,-0.29493 -0.8207207,-0.74895 -1.4187678,-1.00895 -1.5069635,-0.65513 -3.0369712,-1.6416 -3.4787372,-2.2429 -0.2040902,-0.27779 -0.3745534,-0.31837 -0.3788072,-0.0902 -0.00425,0.22819 -0.3502648,0.0724 -0.7689135,-0.34629 -0.66567846,-0.66568 -0.74488983,-5.00903 -0.63134535,-34.61815 l 0.12983405,-33.85696 4.1589334,2.63599 4.1589333,2.636 0.00794,33.71384 c 0.00684,29.02113 -0.093359,33.71384 -0.7198605,33.71384 -0.4002936,0 -0.8769402,-0.24131 -1.0592151,-0.53623 z"
       id="path114"
       inkscape:connector-curvature="0"
       transform="translate(53.643411,569.625)" /></g></svg>