<?xml version="1.0" standalone="no"?><!-- Generator: Gravit.io --><svg xmlns="http://www.w3.org/2000/svg" xmlns:xlink="http://www.w3.org/1999/xlink" style="isolation:isolate" viewBox="0 0 430.544 325.295" width="430.544" height="325.295"><defs><clipPath id="_clipPath_xf2WQWBfUCO2OZWrK2PGpMpCaaGob5V1"><rect width="430.544" height="325.295"/></clipPath></defs><g clip-path="url(#_clipPath_xf2WQWBfUCO2OZWrK2PGpMpCaaGob5V1)"><g id="top"><path d=" M 214.781 0 L 0 128.125 L 9.313 133.688 L 214.781 11.094 L 224.063 5.531 L 214.781 0 Z " fill="rgb(35,0,71)" vector-effect="non-scaling-stroke" stroke-width="1" stroke="rgb(53,46,152)" stroke-linejoin="round" stroke-linecap="round" stroke-miterlimit="4"/><path d=" M 0.002 128.137 L 0.002 196.137 L 9.313 201.693 L 9.313 133.693 L 0.002 128.137 Z " fill="rgb(45,26,73)" vector-effect="non-scaling-stroke" stroke-width="1" stroke="rgb(52,45,151)" stroke-opacity="0.9921568627450981" stroke-linejoin="round" stroke-linecap="round" stroke-miterlimit="4"/><path d=" M 131.07 62.834 L 130.981 118.049 L 140.293 123.604 L 140.324 68.354 L 131.07 62.834 Z " fill="rgb(45,26,73)" vector-effect="non-scaling-stroke" stroke-width="1" stroke="rgb(52,45,151)" stroke-opacity="0.9921568627450981" stroke-linejoin="round" stroke-linecap="round" stroke-miterlimit="4"/><path d=" M 130.981 118.049 L 140.293 123.604 L 103.138 145.767 L 93.888 140.174 L 130.981 118.049 Z " fill="rgb(45,26,73)" vector-effect="non-scaling-stroke" stroke-width="1" stroke="rgb(52,45,151)" stroke-opacity="0.9921568627450981" stroke-linejoin="round" stroke-linecap="round" stroke-miterlimit="4"/><linearGradient id="_lgradient_0" x1="48.74484207739987%" y1="31.602908954898435%" x2="64.46817707749595%" y2="60.288308323603786%"><stop offset="58.69565217391305%" stop-opacity="1" style="stop-color:rgb(56,0,98)"/><stop offset="100%" stop-opacity="1" style="stop-color:rgb(26,35,126)"/></linearGradient><path d=" M 224.063 5.531 L 9.325 133.705 L 9.325 201.705 L 103.138 145.736 L 103.168 90.542 L 140.324 68.354 L 140.294 123.517 L 224.063 73.531 L 224.063 5.531 Z " fill="url(#_lgradient_0)"/><radialGradient id="_rgradient_0" fx="51.99496305273127%" fy="63.64017595368499%" cx="50%" cy="50%" r="50%" gradientTransform="matrix(0.8709578684351933 -0.4789820765228264 0.06567950683934749 0.3901498720261906 0.031681312362729655 0.544416102248318)"><stop offset="0%" stop-opacity="1" style="stop-color:rgb(124,59,174)"/><stop offset="100%" stop-opacity="0" style="stop-color:rgb(0,0,0)"/></radialGradient><path d=" M 224.063 5.531 L 9.325 133.705 L 9.325 201.705 L 103.138 145.736 L 103.168 90.542 L 140.324 68.354 L 140.294 123.517 L 224.063 73.531 L 224.063 5.531 Z " fill="url(#_rgradient_0)"/><g style="isolation: isolate;"><path d=" M 224.063 5.531 L 9.325 133.705 L 9.325 201.705 L 103.138 145.736 L 103.168 90.542 L 140.324 68.354 L 140.294 123.517 L 224.063 73.531 L 224.063 5.531 Z " fill="none" vector-effect="non-scaling-stroke" stroke-width="1" stroke="rgb(52,45,151)" stroke-opacity="0.9921568627450981" stroke-linejoin="round" stroke-linecap="round" stroke-miterlimit="4"/></g></g></g></svg>