<?xml version="1.0" encoding="utf-8"?>
<!-- Generator: Adobe Illustrator 16.0.0, SVG Export Plug-In . SVG Version: 6.00 Build 0)  -->
<!DOCTYPE svg PUBLIC "-//W3C//DTD SVG 1.1//EN" "http://www.w3.org/Graphics/SVG/1.1/DTD/svg11.dtd">
<svg version="1.1"
	 id="svg2" xmlns:dc="http://purl.org/dc/elements/1.1/" xmlns:cc="http://creativecommons.org/ns#" xmlns:rdf="http://www.w3.org/1999/02/22-rdf-syntax-ns#" xmlns:svg="http://www.w3.org/2000/svg" xmlns:sodipodi="http://sodipodi.sourceforge.net/DTD/sodipodi-0.dtd" xmlns:inkscape="http://www.inkscape.org/namespaces/inkscape" inkscape:version="0.48.5 r10040" sodipodi:docname="top.svg"
	 xmlns="http://www.w3.org/2000/svg" xmlns:xlink="http://www.w3.org/1999/xlink" x="0px" y="0px" width="430.543px"
	 height="325.295px" viewBox="0 0 430.543 325.295" enable-background="new 0 0 430.543 325.295" xml:space="preserve">
<defs>
	
	
		<inkscape:perspective  sodipodi:type="inkscape:persp3d" inkscape:vp_x="0 : 526.18109 : 1" inkscape:vp_y="0 : 1000 : 0" inkscape:vp_z="744.09448 : 526.18109 : 1" id="perspective2985" inkscape:persp3d-origin="372.04724 : 350.78739 : 1">
		</inkscape:perspective>
</defs>
<sodipodi:namedview  units="mm" pagecolor="#ffffff" bordercolor="#666666" borderopacity="1.0" inkscape:zoom="1.979899" inkscape:cx="158.88316" inkscape:cy="278.43502" showgrid="false" showguides="true" fit-margin-top="0" fit-margin-left="0" id="base" inkscape:document-units="mm" inkscape:current-layer="layer1" inkscape:object-nodes="true" inkscape:window-width="1920" inkscape:window-height="1036" inkscape:window-x="4" inkscape:window-y="44" inkscape:window-maximized="0" inkscape:guide-bbox="true" fit-margin-right="0" fit-margin-bottom="0" inkscape:pageopacity="0.0" inkscape:pageshadow="2">
	</sodipodi:namedview>
<path id="path3910" inkscape:connector-curvature="0" sodipodi:nodetypes="cccccc" fill="#D7D7F4" d="M215.282,0.514L0.5,128.639
	l9.313,5.563L215.283,11.608l9.281-5.563L215.282,0.514z"/>
<path id="path3918" inkscape:connector-curvature="0" fill="#F2F2F2" d="M0.501,128.651v68l9.312,5.555v-68L0.501,128.651z"/>
<path id="path5998" inkscape:connector-curvature="0" fill="none" d="M0.566,194.972l9.312,5.557l-0.032-11.063l-9.25-5.53
	L0.566,194.972z"/>
<path id="path6000" inkscape:connector-curvature="0" fill="none" d="M0.536,183.909l9.312,5.556l-0.031-11.063l-9.25-5.53
	L0.536,183.909z"/>
<path id="path6002" inkscape:connector-curvature="0" fill="none" d="M0.565,172.871l9.311,5.556l-0.031-11.063l-9.25-5.531
	L0.565,172.871z"/>
<path id="path6004" inkscape:connector-curvature="0" fill="none" d="M0.596,161.833l9.311,5.557l-0.031-11.063l-9.25-5.531
	L0.596,161.833z"/>
<path id="path6006" inkscape:connector-curvature="0" fill="none" d="M0.563,150.771l9.312,5.556l-0.031-11.063l-9.25-5.531
	L0.563,150.771z"/>
<path id="path6008" inkscape:connector-curvature="0" fill="none" d="M0.533,139.708l9.312,5.556l-0.031-11.063l-9.25-5.531
	L0.533,139.708z"/>
<path id="path6042" inkscape:connector-curvature="0" sodipodi:nodetypes="ccccc" fill="#958179" d="M131.571,63.348l-0.089,55.214
	l9.312,5.556l0.031-55.25L131.571,63.348z"/>
<path id="path6059" inkscape:connector-curvature="0" fill="#958179" d="M131.481,118.563l9.312,5.556l-37.155,22.163l-9.25-5.594
	L131.481,118.563z"/>
<path id="path6053" inkscape:connector-curvature="0" sodipodi:nodetypes="ccccccccc" fill="#B39B91" d="M224.563,6.045
	L9.826,134.219v68l93.812-55.969l0.03-55.194l37.156-22.188l-0.03,55.163l83.769-49.986V6.045z"/>
</svg>
