<?xml version="1.0" encoding="UTF-8" standalone="no"?>
<!-- Generator: Adobe Illustrator 16.0.0, SVG Export Plug-In . SVG Version: 6.00 Build 0)  -->

<svg
   xmlns:dc="http://purl.org/dc/elements/1.1/"
   xmlns:cc="http://creativecommons.org/ns#"
   xmlns:rdf="http://www.w3.org/1999/02/22-rdf-syntax-ns#"
   xmlns:svg="http://www.w3.org/2000/svg"
   xmlns="http://www.w3.org/2000/svg"
   xmlns:xlink="http://www.w3.org/1999/xlink"
   xmlns:sodipodi="http://sodipodi.sourceforge.net/DTD/sodipodi-0.dtd"
   xmlns:inkscape="http://www.inkscape.org/namespaces/inkscape"
   version="1.1"
   id="svg2"
   sodipodi:docname="universeDoor.svg"
   inkscape:version="0.92.2 5c3e80d, 2017-08-06"
   x="0px"
   y="0px"
   width="430.543px"
   height="325.295px"
   viewBox="0 0 430.543 325.295"
   enable-background="new 0 0 430.543 325.295"
   xml:space="preserve"><metadata
     id="metadata19"><rdf:RDF><cc:Work
         rdf:about=""><dc:format>image/svg+xml</dc:format><dc:type
           rdf:resource="http://purl.org/dc/dcmitype/StillImage" /><dc:title></dc:title></cc:Work></rdf:RDF></metadata><defs
     id="defs3"><linearGradient
       inkscape:collect="always"
       id="linearGradient3411"><stop
         style="stop-color:#00002c;stop-opacity:1;"
         offset="0"
         id="stop3407" /><stop
         style="stop-color:#00002c;stop-opacity:0;"
         offset="1"
         id="stop3409" /></linearGradient><inkscape:perspective
       id="perspective2985"
       inkscape:vp_z="744.09448 : 526.18109 : 1"
       inkscape:vp_y="0 : 1000 : 0"
       inkscape:vp_x="0 : 526.18109 : 1"
       sodipodi:type="inkscape:persp3d"
       inkscape:persp3d-origin="372.04724 : 350.78739 : 1" /><linearGradient
       inkscape:collect="always"
       xlink:href="#linearGradient3411"
       id="linearGradient3413"
       x1="103.42578"
       y1="107.62745"
       x2="140.91604"
       y2="107.62745"
       gradientUnits="userSpaceOnUse"
       gradientTransform="translate(53.69654,569.65668)" /><linearGradient
       inkscape:collect="always"
       xlink:href="#linearGradient3411"
       id="linearGradient3415"
       x1="-0.1148495"
       y1="165.50143"
       x2="9.9751985"
       y2="165.50143"
       gradientUnits="userSpaceOnUse"
       gradientTransform="translate(53.746967,569.63832)" /><linearGradient
       inkscape:collect="always"
       xlink:href="#linearGradient3411"
       id="linearGradient3417"
       x1="0.53953673"
       y1="67.219017"
       x2="224.97813"
       y2="67.219017"
       gradientUnits="userSpaceOnUse"
       gradientTransform="translate(53.571993,569.56724)" /></defs><sodipodi:namedview
     units="mm"
     fit-margin-left="0"
     fit-margin-top="0"
     showguides="true"
     showgrid="false"
     inkscape:cy="197.62282"
     inkscape:cx="59.635678"
     inkscape:zoom="1.979899"
     borderopacity="1.0"
     bordercolor="#666666"
     pagecolor="#ffffff"
     id="base"
     inkscape:pageshadow="2"
     inkscape:pageopacity="0.0"
     fit-margin-bottom="0"
     fit-margin-right="0"
     inkscape:guide-bbox="true"
     inkscape:window-maximized="1"
     inkscape:window-y="0"
     inkscape:window-x="34"
     inkscape:window-height="856"
     inkscape:window-width="1406"
     inkscape:object-nodes="true"
     inkscape:current-layer="layer1"
     inkscape:document-units="mm" /><g
     id="layer1"
     transform="translate(-53.643411,-569.625)"
     inkscape:label="Layer 1"
     inkscape:groupmode="layer"><path
       id="path3910"
       sodipodi:nodetypes="cccccc"
       inkscape:connector-curvature="0"
       fill="#D7D7F4"
       d="M268.925,570.139   L54.144,698.264l9.313,5.563l205.469-122.594l9.281-5.563L268.925,570.139z"
       style="fill:#0065ff;fill-opacity:1" /><path
       id="path3918"
       inkscape:connector-curvature="0"
       fill="#F2F2F2"
       d="M54.145,698.276v68l9.312,5.555v-68L54.145,698.276z" /><path
       id="path5998"
       inkscape:connector-curvature="0"
       fill="none"
       d="M54.21,764.597l9.312,5.556L63.49,759.09l-9.25-5.531   L54.21,764.597z" /><path
       id="path6000"
       inkscape:connector-curvature="0"
       fill="none"
       d="M54.179,753.534l9.312,5.556l-0.031-11.063l-9.25-5.531   L54.179,753.534z" /><path
       id="path6002"
       inkscape:connector-curvature="0"
       fill="none"
       d="M54.209,742.496l9.311,5.556l-0.031-11.063l-9.25-5.531   L54.209,742.496z" /><path
       id="path6004"
       inkscape:connector-curvature="0"
       fill="none"
       d="M54.239,731.458l9.311,5.557l-0.031-11.063l-9.25-5.531   L54.239,731.458z" /><path
       id="path6006"
       inkscape:connector-curvature="0"
       fill="none"
       d="M54.207,720.396l9.312,5.556l-0.031-11.063l-9.25-5.531   L54.207,720.396z" /><path
       id="path6008"
       inkscape:connector-curvature="0"
       fill="none"
       d="M54.176,709.333l9.312,5.556l-0.031-11.063l-9.25-5.531   L54.176,709.333z" /><path
       id="path6042"
       sodipodi:nodetypes="ccccc"
       inkscape:connector-curvature="0"
       fill="#F2F2F2"
       d="M185.214,632.973   l-0.089,55.214l9.312,5.556l0.031-55.25L185.214,632.973z"
       style="fill:#1212f2;fill-opacity:1" /><path
       id="path6059"
       inkscape:connector-curvature="0"
       fill="#F2F2F2"
       d="M185.125,688.188l9.312,5.556l-37.155,22.163l-9.25-5.594   L185.125,688.188z"
       style="fill:#0910f2;fill-opacity:1" /><path
       id="path6053"
       sodipodi:nodetypes="ccccccccc"
       inkscape:connector-curvature="0"
       fill="#B3B3B3"
       d="M278.206,575.67   L63.469,703.844v68l93.812-55.969l0.03-55.194l37.156-22.188l-0.03,55.163l83.769-49.986V575.67z"
       style="fill:#174db3;fill-opacity:1" /><path
       style="fill:#000000;stroke:#000000;stroke-width:0.50507629"
       d="M 64.09446,737.59776 V 703.8633 l 106.60652,-63.63196 c 58.63359,-34.99757 106.81787,-63.70771 107.07617,-63.80031 0.28663,-0.10275 0.46055,12.98646 0.44628,33.58757 l -0.0234,33.75593 -41.14555,24.4962 c -22.63005,13.47291 -41.3705,24.57196 -41.64543,24.66456 -0.3257,0.1097 -0.49987,-9.36415 -0.49987,-27.18994 0,-15.04706 -0.18991,-27.28254 -0.42202,-27.18994 -0.23211,0.0926 -8.63546,5.05497 -18.67411,11.0275 l -18.2521,10.85914 -0.13998,27.71648 -0.13997,27.71647 -45.20433,26.98574 c -24.862384,14.84215 -45.829362,27.32003 -46.59329,27.72861 l -1.38896,0.74288 z"
       id="path21"
       inkscape:connector-curvature="0" /><path
       style="fill:url(#linearGradient3413);fill-opacity:1;stroke:#000000;stroke-width:0.50507629"
       d="m 157.37486,710.22481 v -5.48885 l 13.87507,-8.27448 13.87507,-8.27448 0.0272,-21.97082 0.0272,-21.97081 4.40677,-2.60167 4.40677,-2.60166 0.25254,27.3504 c 0.22091,23.92533 0.15766,27.41982 -0.50507,27.90478 -1.26734,0.92736 -35.79458,21.41643 -36.09,21.41643 -0.15152,0 -0.2755,-2.46998 -0.2755,-5.48884 z"
       id="path23"
       inkscape:connector-curvature="0" /><path
       style="fill:url(#linearGradient3417);fill-opacity:1;stroke:#000000;stroke-width:0.50507629"
       d="m 58.65791,700.84277 c -2.417626,-1.43384 -4.349542,-2.64723 -4.293148,-2.69642 0.05639,-0.0492 48.355518,-28.87097 107.331388,-64.04839 L 268.925,570.139 l 4.56622,2.73744 4.56622,2.73743 -11.03236,6.55825 c -6.06779,3.60703 -54.29863,32.38195 -107.17964,63.94425 -52.88102,31.56231 -96.292316,57.37417 -96.469569,57.35969 -0.177253,-0.0145 -2.300335,-1.19946 -4.717961,-2.63329 z"
       id="path25"
       inkscape:connector-curvature="0" /><path
       style="fill:url(#linearGradient3415);fill-opacity:1;stroke:#000000;stroke-width:0.50507629"
       d="M 58.556611,768.95145 53.884656,766.148 v -33.81265 c 0,-18.59696 0.130182,-33.81265 0.289293,-33.81265 0.159112,0 2.312889,1.19324 4.786173,2.65165 l 4.496878,2.65165 0.01205,33.96638 c 0.0066,18.68151 -0.04477,33.96551 -0.114216,33.96445 -0.06945,-0.001 -2.22865,-1.26348 -4.798225,-2.80538 z"
       id="path27"
       inkscape:connector-curvature="0" /></g></svg>