<?xml version="1.0" encoding="UTF-8" standalone="no"?>
<!-- Created with Inkscape (http://www.inkscape.org/) -->

<svg
   xmlns:dc="http://purl.org/dc/elements/1.1/"
   xmlns:cc="http://creativecommons.org/ns#"
   xmlns:rdf="http://www.w3.org/1999/02/22-rdf-syntax-ns#"
   xmlns:svg="http://www.w3.org/2000/svg"
   xmlns="http://www.w3.org/2000/svg"
   xmlns:sodipodi="http://sodipodi.sourceforge.net/DTD/sodipodi-0.dtd"
   xmlns:inkscape="http://www.inkscape.org/namespaces/inkscape"
   width="55px"
   height="60px"
   viewBox="0 0 55 60"
   version="1.1"
   id="SVGRoot"
   inkscape:version="0.92.2 5c3e80d, 2017-08-06"
   sodipodi:docname="AngryBot.svg"
   inkscape:export-filename="/Users/apple/Desktop/AngryBot.png"
   inkscape:export-xdpi="96"
   inkscape:export-ydpi="96">
  <sodipodi:namedview
     id="base"
     pagecolor="#ffffff"
     bordercolor="#666666"
     borderopacity="1.0"
     inkscape:pageopacity="1"
     inkscape:pageshadow="2"
     inkscape:zoom="4.4765748"
     inkscape:cx="44.557175"
     inkscape:cy="15.293119"
     inkscape:document-units="px"
     inkscape:current-layer="layer1"
     showgrid="false"
     inkscape:window-width="1233"
     inkscape:window-height="648"
     inkscape:window-x="25"
     inkscape:window-y="39"
     inkscape:window-maximized="0"
     inkscape:pagecheckerboard="true" />
  <defs
     id="defs4787" />
  <metadata
     id="metadata4790">
    <rdf:RDF>
      <cc:Work
         rdf:about="">
        <dc:format>image/svg+xml</dc:format>
        <dc:type
           rdf:resource="http://purl.org/dc/dcmitype/StillImage" />
        <dc:title></dc:title>
      </cc:Work>
    </rdf:RDF>
  </metadata>
  <g
     id="layer1"
     inkscape:groupmode="layer"
     inkscape:label="Layer 1">
    <path
       style="fill:#000000;stroke-width:0.26437011"
       d="m 0.018591,59.290446 c 0.01661,-0.634113 0.04275,-0.65335 0.245838,-0.180917 0.12943,0.301078 0.235715,-8.630477 0.24691,-20.748899 0.01081,-11.702643 0.09703,-22.794053 0.191603,-24.647577 l 0.171946,-3.370044 7.4291449,0.01339 c 5.5969971,0.01009 34.3255611,0.638568 34.7308211,0.759789 0.0364,0.01087 0.0661,10.764817 0.0661,23.89765 v 23.877875 l -9.32091,0.174582 c -5.126498,0.09602 -11.473564,0.174763 -14.104586,0.174986 -2.631023,2.24e-4 -5.724773,0.113402 -6.875,0.251508 -1.150228,0.138106 -4.5008791,0.308728 -7.4458911,0.379158 L 0,60 Z m 34.710303,-6.590609 c 0.27565,-1.739545 -0.27715,-13.318065 -0.84231,-17.642619 l -0.17264,-1.321036 -1.58654,-0.217927 c -0.87259,-0.11986 -5.394225,-0.138537 -10.048071,-0.0415 -4.653846,0.09703 -9.543079,0.155656 -10.864962,0.130274 l -2.4034241,-0.04615 -0.174701,4.821103 c -0.218643,6.033714 -0.219396,9.906344 -0.0024,12.203321 0.165908,1.755981 0.180732,1.784141 0.939206,1.784141 0.423851,0 0.7078021,0.10163 0.6310021,0.225846 -0.0768,0.124216 3.218161,0.368891 7.322135,0.543721 4.103974,0.174833 7.818742,0.351524 8.25504,0.392649 0.436298,0.04112 2.592666,0.0938 4.791925,0.117068 l 3.99866,0.0423 z m -9.608696,-0.254479 c -4.285213,-0.118705 -15.9149911,-0.83035 -16.0679221,-0.98322 -0.153112,-0.15305 0.4043,-13.686566 0.633397,-15.37836 l 0.147256,-1.087427 1.7602211,-0.169602 c 0.968122,-0.09328 6.043875,-0.241752 11.279452,-0.329936 7.821159,-0.131733 9.597762,-0.0961 9.959502,0.199757 0.47362,0.38736 0.81097,4.24037 1.18286,13.509875 l 0.17762,4.427313 -3.147968,-0.05574 c -1.731387,-0.03066 -4.397374,-0.09035 -5.924418,-0.132656 z M 19.89323,18.933318 c 0.07621,-1.89168 0.01664,-3.010363 -0.170496,-3.201939 -0.397938,-0.40737 -5.221743,-1.129712 -8.883203,-1.330218 -3.0185191,-0.165297 -3.0451821,-0.161605 -3.3568261,0.464707 -0.172777,0.347229 -0.391703,2.061152 -0.486503,3.808718 l -0.172363,3.177391 6.4761281,-0.0056 6.476127,-0.0056 z m 17.887344,2.631038 c 0.1147,-0.114659 -0.40664,-4.250105 -0.67324,-5.34029 -0.14423,-0.589807 -0.18539,-0.594713 -4.98957,-0.594713 h -4.844128 l -0.141443,1.387665 c -0.0778,0.763216 -0.189393,2.160793 -0.247994,3.105727 l -0.106552,1.718062 5.444937,-0.08172 c 2.99471,-0.04495 5.4958,-0.132575 5.55799,-0.194731 z m -8.218734,-5.60322 c 1.206726,-0.04909 3.110564,-0.04882 4.230764,6.08e-4 1.1202,0.04942 0.13288,0.08958 -2.194036,0.08925 -2.326927,-3.44e-4 -3.243452,-0.04077 -2.036728,-0.08986 z m 12.878064,43.353191 c 0.4363,-0.06186 1.20974,-0.490073 1.71875,-0.951587 l 0.92548,-0.839114 -0.91124,0.991189 c -0.70232,0.763932 -1.09639,0.98211 -1.71875,0.951587 l -0.80751,-0.0396 z m 1.45794,-19.120105 c 0.002,-9.80363 0.0754,-18.092402 0.16305,-18.419495 0.0877,-0.327092 0.27158,-0.594713 0.40863,-0.594713 0.13705,0 0.16743,0.132241 0.0675,0.293868 -0.0999,0.161628 -0.0396,0.381685 0.13419,0.489015 0.17373,0.107331 0.34609,0.400901 0.38301,0.652378 0.0369,0.251478 0.21766,0.550226 0.40164,0.663885 0.18398,0.113659 0.35409,0.312297 0.37803,0.441418 0.0239,0.129122 0.12921,0.206214 0.23394,0.171317 0.10473,-0.0349 0.30487,0.150309 0.44475,0.411567 0.38609,0.721133 2.88393,0.576797 3.73733,-0.215959 0.99228,-0.921776 1.54667,-2.287425 1.72438,-4.247719 0.15525,-1.712551 0.10459,-2.141385 -0.36068,-3.053023 -0.71461,-1.400189 -1.10263,-1.687117 -2.32998,-1.722926 -1.67214,-0.04879 -2.44615,0.289894 -2.57261,1.125685 -0.0304,0.200719 -0.1618,0.535728 -0.29207,0.744465 -0.32722,0.524301 -0.21526,3.510577 0.13984,3.729954 0.1591,0.09829 0.27485,0.258859 0.25724,0.356828 -0.0519,0.288524 0.70217,0.942021 0.88086,0.7634 0.09,-0.08999 0.16369,-0.02486 0.16369,0.144745 0,0.478488 0.893,0.363425 1.35371,-0.174423 0.80794,-0.943234 1.05438,-2.131953 0.61719,-2.977053 -0.21887,-0.423076 -0.5209,-0.769229 -0.67118,-0.769229 -0.15028,0 -0.19263,-0.130376 -0.0941,-0.289726 0.11118,-0.17982 -0.008,-0.2542 -0.31492,-0.196073 -0.53361,0.101149 -0.86142,1.678061 -0.43703,2.102281 0.12741,0.127356 0.22328,-0.03304 0.21758,-0.364007 -0.0153,-0.885704 0.44501,-0.951364 0.90516,-0.129127 0.36547,0.653073 0.36565,0.800672 0.002,1.453745 -0.62046,1.113631 -1.69049,1.121297 -2.36406,0.01694 -1.22665,-2.011056 -0.004,-5.237201 1.98508,-5.237201 0.57365,0 1.69057,1.028392 2.20592,2.031081 0.49086,0.955052 0.36433,3.672491 -0.22474,4.82671 -1.51513,2.96871 -4.30678,2.786853 -5.79479,-0.377491 -0.68466,-1.455961 -0.77067,-4.668677 -0.16386,-6.120394 0.21718,-0.519585 0.31709,-1.080742 0.22203,-1.247017 -0.0951,-0.166274 -0.0766,-0.215247 0.0411,-0.108829 0.11766,0.106417 0.68744,-0.234139 1.26619,-0.756794 0.98862,-0.892796 1.13871,-0.943115 2.48119,-0.83183 1.1747,0.09738 1.5905,0.275005 2.33721,0.998449 1.57603,1.526941 2.08885,2.944896 2.10312,5.815189 0.0107,2.14409 -0.0821,2.704131 -0.63508,3.8326 -0.35616,0.726872 -0.69882,1.427349 -0.76147,1.556615 -0.0627,0.129266 0.0389,0.140625 0.22568,0.02524 0.22432,-0.138586 0.27464,-0.104755 0.14824,0.09968 -0.10523,0.170208 -0.2862,0.250861 -0.40215,0.179231 -0.11595,-0.07163 -0.43495,0.121702 -0.70889,0.429627 -0.27395,0.307926 -1.09303,0.849337 -1.8202,1.203136 l -1.32211,0.643274 1.05769,-0.175755 c 0.58173,-0.09666 1.20643,-0.298615 1.38822,-0.448781 0.18179,-0.150167 0.33053,-0.178261 0.33053,-0.06243 0,0.349525 1.34624,-1.020802 1.73333,-1.76434 0.19853,-0.381348 0.28638,-0.767912 0.19523,-0.859031 -0.0911,-0.09112 -0.0199,-0.165669 0.15836,-0.165669 0.17826,0 0.25056,-0.118943 0.16068,-0.264318 -0.0899,-0.145374 -0.0629,-0.264317 0.0599,-0.264317 0.31602,0 0.38867,-0.681914 0.40126,-3.76652 0.0128,-3.132237 -0.18038,-4.19964 -0.99326,-5.488461 -0.58694,-0.930604 -1.45112,-1.80438 -1.45112,-1.467241 0,0.09873 -0.26446,-0.0056 -0.58768,-0.231953 -0.32323,-0.226305 -1.00742,-0.410302 -1.52044,-0.408881 -1.11092,0.0031 -3.81598,1.196757 -3.57935,1.579486 0.0912,0.147483 0.0428,0.268152 -0.10744,0.268152 -0.32127,0 -1.15467,1.513902 -0.98644,1.791903 0.0634,0.104761 -0.0507,0.343843 -0.25362,0.531293 -0.31386,0.289984 -0.36888,-0.09168 -0.36888,-2.558887 v -2.899705 l 2.13573,-1.504482 c 1.40912,-0.9926382 2.04668,-1.5934896 1.874,-1.7661006 -0.29516,-0.295042 -0.91825,-0.01913 -0.7116,0.315104 0.0735,0.1189164 -0.0733,0.1999044 -0.32621,0.1799744 -0.25295,-0.01993 -0.43676,0.09262 -0.40848,0.250107 0.0283,0.1574892 -0.0944,0.2863432 -0.27257,0.2863432 -0.55769,0 -1.76589,0.925276 -1.58669,1.215126 0.0939,0.151935 0.051,0.202206 -0.0955,0.111713 -0.14647,-0.09049 -0.49208,0.01889 -0.76802,0.243079 -0.27593,0.224186 -0.33457,0.320941 -0.13031,0.215012 0.24417,-0.126624 0.30676,-0.08807 0.18272,0.112557 -0.10377,0.167836 -0.56837,0.2933 -1.03245,0.278809 -0.80579,-0.02516 -0.81402,-0.03587 -0.18271,-0.23797 0.45083,-0.144321 -0.0537,-0.220449 -1.58654,-0.239375 C 33.704824,10.278058 3.483714,9.307613 2.704687,9.1387 1.954819,8.976109 2.131861,8.59118 3.8194809,6.7148924 c 1.45794,-1.620932 1.579466,-2.106155 0.213146,-0.85104 L 3.04104,6.7747334 3.9484469,5.7875034 c 0.499074,-0.542976 0.968462,-0.926199 1.043084,-0.851606 0.167123,0.167055 3.470182,-3.075062 3.470182,-3.406157 0,-0.131031 -0.208233,-0.07705 -0.46274,0.119968 -0.390757,0.302484 -0.385859,0.268033 0.03149,-0.221462 0.271823,-0.318818 0.569299,-0.565506 0.661057,-0.548196 0.09176,0.01731 0.391138,-0.06577 0.665288,-0.184628 0.481409,-0.20871 42.0977461,2.12361 43.0791661,2.414301 0.6653,0.197061 0.30848,0.57331 -2.39135,2.521571 -1.46712,1.0587 -2.1353,1.694188 -1.96274,1.866684 0.2951,0.294981 0.91812,0.01899 0.71151,-0.31519 -0.0735,-0.118916 0.0704,-0.199904 0.31984,-0.179974 0.24943,0.01993 0.45638,-0.10253 0.45989,-0.272134 0.004,-0.169603 0.1147,-0.407489 0.24709,-0.528634 0.13985,-0.127973 0.16101,-0.08183 0.0505,0.110132 -0.28352,0.492467 0.24917,0.399314 0.668,-0.116817 0.31284,-0.385521 0.30819,-0.416137 -0.0337,-0.22194 -0.23266,0.132141 -0.30693,0.127193 -0.17966,-0.01197 0.11934,-0.130484 0.41682,-0.238761 0.66106,-0.240615 0.24424,-0.0019 0.419,-0.138056 0.38834,-0.302671 -0.0307,-0.164616 0.14496,-0.283558 0.39026,-0.264318 0.2453,0.01924 0.44886,-0.103783 0.45237,-0.273387 0.004,-0.169603 0.1147,-0.407488 0.24709,-0.528634 0.14212,-0.130044 0.15412,-0.07089 0.0293,0.144423 -0.1446,0.249436 -0.0953,0.326006 0.15592,0.242291 0.20204,-0.06732 0.36734,-0.251251 0.36734,-0.40874 0,-0.157489 0.10832,-0.385463 0.24071,-0.506608 0.14212,-0.130044 0.15412,-0.07089 0.0293,0.144422 -0.1446,0.249436 -0.0953,0.326007 0.15593,0.242291 0.20203,-0.06732 0.36733,-0.251251 0.36733,-0.40874 0,-0.157489 0.10832,-0.385462 0.24071,-0.506608 0.13985,-0.127972 0.16101,-0.08183 0.0505,0.110133 -0.10461,0.181718 -0.0642,0.330396 0.0898,0.330396 0.19477,10e-7 0.28003,6.4697526 0.28003,21.2489476 v 21.248945 l -1.21308,1.348702 c -0.6672,0.741788 -1.23502,1.498045 -1.26181,1.680571 -0.0268,0.182527 -0.14648,0.349999 -0.26596,0.372162 -0.33833,0.06276 -1.75434,1.483004 -1.75434,1.759583 0,0.135975 0.20823,0.08759 0.46274,-0.107532 0.25451,-0.195122 0.17471,-0.03174 -0.17732,0.363068 -0.35204,0.394808 -0.70018,0.657741 -0.77366,0.584297 -0.1715,-0.171433 -1.36272,0.939891 -1.36272,1.271326 0,0.137834 0.17848,0.102537 0.39663,-0.07844 0.75091,-0.622951 0.39534,-0.09773 -0.4586,0.677421 -0.72168,0.655078 -0.77435,0.673123 -0.33725,0.11553 0.2849,-0.363436 0.0153,-0.190617 -0.59908,0.38404 -1.1524,1.077861 -1.57996,1.936641 -0.52213,1.048723 0.33032,-0.277266 0.25068,-0.120365 -0.17905,0.352753 -0.42569,0.468679 -0.83391,0.792245 -0.90714,0.71904 -0.0732,-0.07321 -0.46863,0.188173 -0.87865,0.580842 l -0.7455,0.713945 0.004,-17.824782 z m 4.94881,6.464866 c -0.0879,-0.08783 -0.31593,-0.09722 -0.50681,-0.02085 -0.21094,0.08438 -0.14828,0.147008 0.15976,0.15969 0.27874,0.01147 0.43492,-0.051 0.34705,-0.138825 z m 1.57731,-3.947453 0.7419,-0.671022 -0.92548,0.537875 c -0.50901,0.295831 -1.1908,0.538321 -1.51508,0.538863 -0.93605,0.0016 -2.70498,-0.806709 -3.00925,-1.37502 -0.15297,-0.285719 -0.34097,-0.456677 -0.41776,-0.379909 -0.26422,0.264106 0.98729,1.720708 1.57611,1.834407 1.7096,0.330118 2.8152,0.178992 3.54956,-0.485194 z m -2.29896,-2.204104 c 0,-0.127573 -0.17934,-0.380731 -0.39854,-0.562573 -0.21919,-0.181842 -0.56787,-0.880327 -0.77485,-1.552187 -0.20697,-0.671862 -0.3846,-1.000546 -0.39473,-0.730409 -0.0221,0.588984 1.08427,3.077123 1.36825,3.077123 0.10993,0 0.19987,-0.104379 0.19987,-0.231954 z m 2.29601,-2.19646 c -0.0844,-0.210854 -0.14706,-0.148224 -0.15975,0.159692 -0.0115,0.278633 0.051,0.434747 0.13888,0.346917 0.0879,-0.08783 0.0973,-0.315807 0.0209,-0.506609 z m -1.50679,-0.819894 c 0.002,-0.114761 -0.16195,-0.05529 -0.36483,0.132159 -0.20289,0.187451 -0.307,0.442723 -0.23137,0.567275 0.13716,0.225893 0.58852,-0.303611 0.5962,-0.699434 z m 2.47666,-2.441854 c -0.0853,-0.222101 -0.40875,-0.535599 -0.71887,-0.696666 -0.51867,-0.269387 -0.51249,-0.237037 0.0772,0.403818 0.73738,0.801357 0.85801,0.856412 0.64167,0.292848 z m 2.38536,-0.323054 c -0.28408,-0.879095 -1.01262,-2.180617 -1.22064,-2.180617 -0.11481,0 0.0927,0.594714 0.46122,1.321586 0.66619,1.314138 1.04491,1.742538 0.75942,0.859031 z m -2.34595,-8.524229 c 0.26323,-0.290749 0.53809,-0.528634 0.61081,-0.528634 0.0727,0 -0.0832,0.237885 -0.34639,0.528634 -0.26323,0.290749 -0.5381,0.528634 -0.61081,0.528634 -0.0727,0 0.0832,-0.237885 0.34639,-0.528634 z m -0.95921,-10.506608 c -0.32891,-0.419222 -0.31956,-0.428571 0.0998,-0.09979 0.44046,0.345296 0.58053,0.562349 0.3629,0.562349 -0.0549,0 -0.26314,-0.20815 -0.46274,-0.462555 z M 0.528852,9.46735 c 0,-0.04549 0.386719,-0.432052 0.859375,-0.85903 L 2.247602,7.8319954 1.470967,8.691027 C 0.747035,9.491764 0.528852,9.671552 0.528852,9.46735 Z m 53.677882,-6.4150836 -0.66106,-0.366663 0.72716,-0.0039 c 0.47182,-0.0025 0.72717,0.135327 0.72717,0.392579 0,0.218062 -0.0298,0.384814 -0.0661,0.37056 -0.0364,-0.01426 -0.36358,-0.190914 -0.72717,-0.392579 z"
       id="path47"
       inkscape:connector-curvature="0" />
  </g>
</svg>
