<?xml version="1.0" encoding="UTF-8" standalone="no"?>
<!-- Created with Inkscape (http://www.inkscape.org/) -->

<svg
   xmlns:dc="http://purl.org/dc/elements/1.1/"
   xmlns:cc="http://creativecommons.org/ns#"
   xmlns:rdf="http://www.w3.org/1999/02/22-rdf-syntax-ns#"
   xmlns:svg="http://www.w3.org/2000/svg"
   xmlns="http://www.w3.org/2000/svg"
   xmlns:sodipodi="http://sodipodi.sourceforge.net/DTD/sodipodi-0.dtd"
   xmlns:inkscape="http://www.inkscape.org/namespaces/inkscape"
   width="14.552083mm"
   height="15.874999mm"
   viewBox="0 0 14.552083 15.874999"
   version="1.1"
   id="svg8"
   inkscape:version="0.92.3 (2405546, 2018-03-11)"
   sodipodi:docname="blackman.svg">
  <defs
     id="defs2">
    <filter
       inkscape:collect="always"
       style="color-interpolation-filters:sRGB"
       id="filter20"
       x="-0.081299722"
       width="1.1625994"
       y="-0.22901627"
       height="1.4580326">
      <feGaussianBlur
         inkscape:collect="always"
         stdDeviation="1.3059979"
         id="feGaussianBlur22" />
    </filter>
    <filter
       inkscape:collect="always"
       style="color-interpolation-filters:sRGB"
       id="filter24"
       x="-0.116"
       width="1.232"
       y="-0.12428572"
       height="1.2485714">
      <feGaussianBlur
         inkscape:collect="always"
         stdDeviation="0.54806547"
         id="feGaussianBlur26" />
    </filter>
    <filter
       inkscape:collect="always"
       style="color-interpolation-filters:sRGB"
       id="filter28"
       x="-0.1125"
       width="1.225"
       y="-0.12857144"
       height="1.2571429">
      <feGaussianBlur
         inkscape:collect="always"
         stdDeviation="0.56696429"
         id="feGaussianBlur30" />
    </filter>
    <filter
       inkscape:collect="always"
       style="color-interpolation-filters:sRGB"
       id="filter32"
       x="-0.37200001"
       width="1.744"
       y="-0.071538463"
       height="1.1430769">
      <feGaussianBlur
         inkscape:collect="always"
         stdDeviation="0.58586311"
         id="feGaussianBlur34" />
    </filter>
  </defs>
  <sodipodi:namedview
     id="base"
     pagecolor="#ffffff"
     bordercolor="#666666"
     borderopacity="1.0"
     inkscape:pageopacity="0.0"
     inkscape:pageshadow="2"
     inkscape:zoom="7.9195959"
     inkscape:cx="28.739192"
     inkscape:cy="50.118187"
     inkscape:document-units="mm"
     inkscape:current-layer="layer1"
     showgrid="false"
     inkscape:window-width="1366"
     inkscape:window-height="705"
     inkscape:window-x="-8"
     inkscape:window-y="-8"
     inkscape:window-maximized="1"
     fit-margin-top="0"
     fit-margin-left="0"
     fit-margin-right="0"
     fit-margin-bottom="0" />
  <metadata
     id="metadata5">
    <rdf:RDF>
      <cc:Work
         rdf:about="">
        <dc:format>image/svg+xml</dc:format>
        <dc:type
           rdf:resource="http://purl.org/dc/dcmitype/StillImage" />
        <dc:title></dc:title>
      </cc:Work>
    </rdf:RDF>
  </metadata>
  <g
     inkscape:label="Layer 1"
     inkscape:groupmode="layer"
     id="layer1"
     transform="translate(-90.714288,-134.47024)">
    <g
       id="g59"
       transform="matrix(0.10694445,0,0,0.08898305,86.914577,128.02056)"
       style="opacity:1">
      <ellipse
         ry="44.601189"
         rx="42.333332"
         cy="117.08333"
         cx="107.34524"
         id="path16"
         style="fill:#2b0000;fill-rule:evenodd;stroke-width:0.26458332" />
      <rect
         ry="0"
         y="160.17261"
         x="96.761887"
         height="90.714287"
         width="14.363088"
         id="rect18"
         style="fill:#2b0000;fill-rule:evenodd;stroke-width:0.26458332" />
      <rect
         y="160.17261"
         x="111.12498"
         height="17.386917"
         width="60.476204"
         id="rect20"
         style="fill:#2b0000;fill-rule:evenodd;stroke-width:0.26458332" />
      <rect
         y="160.17261"
         x="35.529762"
         height="15.875011"
         width="61.232132"
         id="rect22"
         style="fill:#2b0000;fill-rule:evenodd;stroke-width:0.26458332" />
      <rect
         y="210.06548"
         x="108.1012"
         height="13.607142"
         width="46.113098"
         id="rect24"
         style="fill:#2b0000;fill-rule:evenodd;stroke-width:0.26458332" />
      <rect
         y="210.06548"
         x="55.940475"
         height="12.851197"
         width="52.160721"
         id="rect26"
         style="fill:#2b0000;fill-rule:evenodd;stroke-width:0.26458332" />
      <ellipse
         ry="5.2916665"
         rx="5.6696429"
         cy="104.23214"
         cx="93.360107"
         id="path30"
         style="fill:#f9f9f9;fill-rule:evenodd;stroke-width:0.26458332;filter:url(#filter24)" />
      <ellipse
         ry="5.2916665"
         rx="6.0476193"
         cy="105.74405"
         cx="121.70833"
         id="path32"
         style="fill:#f9f9f9;fill-rule:evenodd;stroke-width:0.26458332;filter:url(#filter28)" />
      <rect
         y="111.79166"
         x="105.07739"
         height="19.654762"
         width="3.779762"
         id="rect34"
         style="fill:#f9f9f9;fill-rule:evenodd;stroke-width:0.29581314;filter:url(#filter32)" />
      <path
         inkscape:connector-curvature="0"
         id="path36"
         d="m 84.666666,139.7619 c 0.06897,0.0345 3.262164,1.23266 3.77976,2.26786 0.521364,1.04273 -0.915498,0.67618 0.755955,1.51191 0.446026,0.22301 1.747887,-0.17333 2.267857,0 0.534538,0.17817 0.965274,0.61929 1.511903,0.75595 0.488921,0.12223 1.092579,-0.27955 1.511906,0 0.468821,0.31254 0.357529,1.11348 0.755952,1.5119 0.356359,0.35636 1.06114,-0.22538 1.511906,0 0.318735,0.15937 0.437213,0.59659 0.755951,0.75596 0.22538,0.11268 0.577774,-0.17819 0.755952,0 0.178181,0.17817 -0.178178,0.57777 0,0.75595 0.178181,0.17818 0.530572,-0.11269 0.755952,0 0.318738,0.15937 0.437216,0.59658 0.755954,0.75595 0.225376,0.11269 0.577766,-0.17818 0.755956,0 0.17818,0.17818 -0.17819,0.57777 0,0.75595 0.17818,0.17818 0.53057,-0.11269 0.75595,0 0.31874,0.15937 0.43721,0.59659 0.75595,0.75595 0.23006,0.11503 1.92741,0 2.26786,0 1.5119,0 3.02381,0 4.53571,0 0.25198,0 0.50397,0 0.75595,0 0.50397,0 1.51191,-0.50396 1.51191,0 0,0.50397 -2.01588,0 -1.51191,0 1.00794,0 2.01588,0 3.02381,0 0,-0.25198 -0.17818,-0.57777 0,-0.75595 0.35636,-0.35636 1.06115,0.22538 1.51191,0 0.31874,-0.15937 0.45944,-0.55828 0.75595,-0.75595 0.46882,-0.31255 1.19936,-0.28713 1.51191,-0.75595 0.27955,-0.41933 -0.50397,-1.51191 0,-1.51191 0.50396,0 -0.50397,1.51191 0,1.51191 0.56345,0 0.30518,-1.17383 0.75595,-1.51191 0.63747,-0.4781 1.60484,-0.31394 2.26785,-0.75595 0.20967,-0.13978 -0.17817,-0.57777 0,-0.75595 2.01588,0 -0.25198,0.25198 0.75596,-0.75595 0.17818,-0.17818 0.57777,0.17817 0.75595,0 0.39842,-0.39843 0.35753,-1.11349 0.75595,-1.51191 0.17818,-0.17818 0.75595,-0.25198 0.75595,0 0,0.25198 -0.75595,0.25198 -0.75595,0 0,-0.35636 0.59658,-0.43722 0.75595,-0.75595 0.11269,-0.22538 -0.17817,-0.57777 0,-0.75596 0.17818,-0.17817 0.53058,0.1127 0.75596,0 0.31873,-0.15936 0.50397,-0.50396 0.75595,-0.75595 0.25198,-0.25198 0.59658,-0.43721 0.75595,-0.75595 0.11269,-0.22538 -0.13977,-0.54629 0,-0.75595 3.82066,-5.73098 -0.31708,2.14606 2.26786,-3.02381"
         style="fill:none;stroke:#000000;stroke-width:0.26458332px;stroke-linecap:butt;stroke-linejoin:miter;stroke-opacity:1" />
      <path
         inkscape:connector-curvature="0"
         id="path40"
         d="m 84.666666,139.7619 c 27.970234,9.82738 27.970234,9.82738 27.970234,9.82738 L 127,135.22619 112.6369,149.58928"
         style="fill:none;stroke:#000000;stroke-width:0.26458332px;stroke-linecap:butt;stroke-linejoin:miter;stroke-opacity:1" />
      <path
         inkscape:connector-curvature="0"
         id="path44"
         d="m 84.666666,139.7619 c 1.259919,-1.25992 2.125405,-3.11802 3.77976,-3.77976 0.701887,-0.28075 -0.183343,1.53448 0,2.26786 0.524349,2.09739 0.689356,-0.0666 1.511906,0.75595 0.178181,0.17818 -0.112691,0.53057 0,0.75595 0.159369,0.31874 0.558279,0.45945 0.755952,0.75595 0.312549,0.46883 0.357531,1.11349 0.755954,1.51191 0.178178,0.17818 0.577771,-0.17818 0.755952,0 0.178178,0.17818 -0.112692,0.53057 0,0.75595 1.573045,3.1461 -0.05219,-0.80814 1.511903,0.75596 0.178181,0.17817 -0.178178,0.57777 0,0.75595 0.178181,0.17818 0.516901,-0.0797 0.755954,0 0.534538,0.17818 1.043083,0.4434 1.511903,0.75595 0.688155,0.45877 1.59783,1.93284 2.267858,2.26786 0.225383,0.11269 0.643263,-0.22539 0.755952,0 0,4.28373 -0.503968,0.25198 0.755954,1.5119 0.178178,0.17818 -0.178181,0.57777 0,0.75595 0.178178,0.17818 0.503966,0 0.755956,0 2.01587,0 4.03174,0 6.04761,0 2.01588,0 4.03175,0 6.04762,0 0.25199,0 0.50397,0 0.75596,0 0.25198,0 0.57777,0.17818 0.75595,0 0.39842,-0.39842 0.35753,-1.11348 0.75595,-1.5119 0.35636,-0.35636 1.06114,0.22538 1.51191,0 0.31873,-0.15937 0.41788,-0.64326 0.75595,-0.75595 0.54704,-0.18235 2.77462,0.24919 3.02381,0 0.39842,-0.39843 0.35753,-1.11349 0.75595,-1.51191 0.17818,-0.17818 0.50397,0 0.75595,0 0.25199,-0.50397 0.35753,-1.11348 0.75595,-1.5119 0.17818,-0.17818 0.75596,-0.25199 0.75596,0 0,0.25198 -0.93413,0.17818 -0.75596,0 0.64244,-0.64244 1.54103,-0.96678 2.26786,-1.51191 0.28509,-0.21381 0.50397,-0.50397 0.75595,-0.75595 0.25199,-0.25198 0.59659,-0.43722 0.75596,-0.75595 0.11269,-0.22538 -0.11269,-0.53057 0,-0.75596 0.15937,-0.31873 0.59658,-0.43721 0.75595,-0.75595 0.11269,-0.22538 -0.25199,-0.75595 0,-0.75595 0.25198,0 0,1.00794 0,0.75595 0,-0.52916 0,-3.47738 0,-4.53571"
         style="fill:none;stroke:#000000;stroke-width:0.26458332px;stroke-linecap:butt;stroke-linejoin:miter;stroke-opacity:1" />
      <path
         inkscape:connector-curvature="0"
         id="path48"
         d="m 84.666666,139.7619 c 1.511903,1.25992 3.023809,2.51984 4.535715,3.77977 0.251983,0 0.530569,-0.1127 0.755951,0 0.812626,0.40631 1.62542,0.86946 2.267858,1.5119 0.398422,0.39842 0.357529,1.11348 0.755951,1.51191 0.178181,0.17817 0.530572,-0.1127 0.755952,0 0.318738,0.15936 0.437216,0.59658 0.755954,0.75595 0.22538,0.11269 0.755952,-0.25199 0.755952,0 0,0.25198 -0.755952,-0.25199 -0.755952,0 0,0.35636 0.503968,0.50396 0.755952,0.75595 0.503968,0.50397 1.007935,1.00794 1.511906,1.5119 0.251984,0.25199 0.459441,0.55828 0.755951,0.75596 0.468821,0.31254 1.043083,0.4434 1.511904,0.75595 0.29651,0.19767 0.437216,0.59658 0.755954,0.75595 0.436606,0.2183 3.794046,-0.18542 4.535716,0 5.0919,1.27298 0.0117,0.0117 1.5119,1.51191 0.17818,0.17818 0.50397,0 0.75595,0 0.87504,0 3.10487,0.16872 3.77977,0 1.13147,-0.28287 2.96682,-1.86139 3.77976,-2.26786 1.3382,-0.6691 0.25831,1.12443 1.5119,-0.75595 0.31255,-0.46882 0.35753,-1.11349 0.75596,-1.51191 0.35635,-0.35636 1.15554,0.35636 1.5119,0 0.17818,-0.17818 -0.11269,-0.53057 0,-0.75595 0.15937,-0.31874 0.50397,-0.50397 0.75595,-0.75595 0.25199,-0.25199 0.43722,-0.59659 0.75595,-0.75595 0.22539,-0.1127 0.64327,0.22538 0.75596,0 0.22538,-0.45077 -0.35636,-1.15555 0,-1.51191 0.35636,-0.35636 1.5119,-0.50397 1.5119,0 0,0.50397 -1.5119,0.50397 -1.5119,0 0,-0.56345 1.04308,-0.44341 1.5119,-0.75595 0.29651,-0.19768 0.59658,-0.43722 0.75595,-0.75595 0.11269,-0.22539 -0.0797,-0.5169 0,-0.75596 0.17818,-0.53454 0.75596,-0.94845 0.75596,-1.5119 0,-0.25199 -0.50397,0 -0.75596,0 -0.25198,0 -0.50396,0 -0.75595,0 -1.00793,0 -2.01587,0 -3.02381,0 -2.77182,0 -5.54365,0 -8.31547,0 -4.72819,0 -11.075562,0 -13.607145,0 -1.511906,0 -3.023812,0 -4.535715,0 -0.503968,0 -1.007938,0 -1.511906,0 -0.251984,0 -0.51149,0.0611 -0.755952,0 -1.779698,-0.44493 -3.527779,-1.00794 -5.291666,-1.51191"
         style="fill:#ffffff;stroke:#000000;stroke-width:0.26458332px;stroke-linecap:butt;stroke-linejoin:miter;stroke-opacity:1;filter:url(#filter20)" />
      <path
         inkscape:connector-curvature="0"
         d="m 126.35084,134.68387 c 0.44241,0.44541 1.05074,0.64551 1.55336,0.99862 0.51596,0.28318 0.91256,0.72178 1.40402,1.03959 0,0 -3.31853,2.11902 -3.31853,2.11902 v 0 c -0.47131,-0.33885 -0.89684,-0.7378 -1.39655,-1.03772 -0.56158,-0.3485 -1.18079,-0.62041 -1.65696,-1.09308 0,0 3.41466,-2.02643 3.41466,-2.02643 z"
         id="path193"
         style="fill:#2b0000;fill-rule:evenodd;stroke-width:0.26458332" />
      <path
         inkscape:connector-curvature="0"
         d="m 128.71514,133.82607 c -0.0943,0.81765 0.0538,1.59901 0.267,2.38321 0.22832,0.74813 0.68363,1.35326 1.17735,1.94526 0.22845,0.29493 0.51609,0.5317 0.79596,0.77463 0,0 -3.33165,2.0692 -3.33165,2.0692 v 0 c -0.2886,-0.26122 -0.577,-0.5237 -0.81867,-0.83092 -0.52522,-0.63652 -1.01291,-1.28618 -1.25323,-2.08901 -0.23775,-0.8034 -0.38933,-1.61433 -0.36099,-2.45668 0,0 3.52423,-1.79569 3.52423,-1.79569 z"
         id="path195"
         style="fill:#2b0000;fill-rule:evenodd;stroke-width:0.26458332" />
      <path
         inkscape:connector-curvature="0"
         d="m 125.24747,134.56046 c -0.0694,0.68564 0.0461,1.3524 0.21538,2.01364 0.2983,0.82143 0.6891,1.61283 1.09988,2.38411 0.46655,0.71563 0.95427,1.41549 1.52609,2.05135 0.47507,0.49562 0.92613,1.02775 1.29253,1.60973 0,0 -3.40476,1.97972 -3.40476,1.97972 v 0 c -0.34598,-0.56968 -0.78994,-1.07779 -1.23787,-1.56901 -0.56634,-0.67569 -1.09771,-1.38155 -1.55936,-2.13356 -0.42509,-0.79609 -0.82927,-1.60893 -1.14704,-2.45411 -0.20756,-0.67817 -0.33631,-1.36653 -0.32275,-2.07922 0,0 3.5379,-1.80265 3.5379,-1.80265 z"
         id="path197"
         style="fill:#2b0000;fill-rule:evenodd;stroke-width:0.26458332" />
      <path
         inkscape:connector-curvature="0"
         d="m 124.73241,137.40633 c 0.70524,0.14166 1.42779,0.16918 2.14479,0.19648 0.74421,0.0222 1.48915,0.0322 2.2336,0.0169 0,0 -3.19075,2.31704 -3.19075,2.31704 v 0 c -0.74078,-0.0199 -1.48227,-0.0126 -2.22271,-0.0468 -0.74283,-0.0429 -1.48758,-0.0899 -2.22209,-0.21398 0,0 3.25716,-2.26961 3.25716,-2.26961 z"
         id="path199"
         style="fill:#2b0000;fill-rule:evenodd;stroke-width:0.26458332" />
      <path
         inkscape:connector-curvature="0"
         d="m 128.14582,140.52404 c -0.44255,0.62247 -1.00997,1.13235 -1.5147,1.69976 0,0 -3.60984,1.53463 -3.60984,1.53463 v 0 c 0.45873,-0.59078 1.06623,-1.03429 1.47805,-1.66298 0,0 3.64649,-1.57141 3.64649,-1.57141 z"
         id="path201"
         style="fill:#2b0000;fill-rule:evenodd;stroke-width:0.26458332" />
      <path
         inkscape:connector-curvature="0"
         d="m 90.465613,140.00661 c -0.606772,0.0922 -1.218301,0.14158 -1.830862,0.17268 -0.643366,0.0179 -1.286991,0.0218 -1.930566,0.0238 -0.605407,0.001 -1.210786,-0.003 -1.816198,-0.002 -0.617892,0.002 -1.235774,5.3e-4 -1.853652,-0.003 -0.651894,-0.001 -1.303782,0.002 -1.955671,0.004 -0.471283,0.0189 -0.946713,-0.0274 -1.416997,0.0148 3.705069,-2.57669 1.985116,-2.3623 3.570354,-2.33564 0.02627,5.3e-4 0.507918,0.006 0.520089,0.004 0.243572,-0.0352 0.476908,-0.12205 0.717118,-0.17558 1.027597,-0.18907 2.0672,-0.28127 3.110476,-0.30939 1.129803,-0.17828 2.257526,-0.3675 3.394409,-0.49567 1.641207,-0.18908 2.344647,-1.04643 -2.83622,2.22905 -0.04565,0.0289 -0.96293,-0.0175 -1.04484,-0.0184 -0.867436,0.002 -1.735026,-0.006 -2.602351,0.0102 -0.06776,0.005 -0.258723,0.0531 -0.203287,0.0138 1.135504,-0.80379 2.26804,-1.61787 3.466742,-2.32396 0.130337,-0.0768 0.302334,0.0111 0.453557,0.0147 0.200731,0.005 0.401505,0.008 0.602276,0.0102 0.506601,0.007 1.013238,0.01 1.519854,0.0153 1.441792,0.006 2.883453,-0.0153 4.325237,-0.014 0.09338,0.12023 1.2262,-0.0981 1.361246,-0.0266 0.09788,0.0518 0.327885,0.47007 0.148313,0.58534 -1.172856,0.75287 -2.436792,1.35339 -3.655185,2.03008 -0.953251,0.17133 -1.922391,0.18743 -2.887805,0.19826 -1.253009,0.0163 -2.506197,0.0224 -3.759314,0.0207 -0.95545,0.008 -1.911154,-0.004 -2.866488,0.0147 -0.05742,0.004 -0.219006,0.0466 -0.172265,0.0129 3.653595,-2.6293 2.328916,-2.32546 5.048412,-2.3081 1.062439,0.002 2.124892,0.002 3.187327,-0.003 0.37406,-0.008 0.748593,0.004 1.122412,-0.0155 0.03952,-0.002 0.15013,-0.0347 0.118171,-0.0114 -3.265495,2.38424 -1.965325,2.40071 -3.503268,2.33492 -1.3505,-0.18613 -2.614263,-0.69982 -3.905478,-1.11052 -1.327261,-0.41997 -2.610694,-0.96651 -3.90444,-1.47832 -0.194461,-0.16523 -0.67015,-0.0979 -0.830421,-0.32682 -0.972595,-1.38926 2.263947,-2.39359 3.727688,-2.35103 0.870138,0.007 1.74031,0.005 2.610434,0.0126 1.136132,0.01 2.27234,0.0126 3.408516,0.0148 1.076294,0.001 2.152587,-0.004 3.228848,-0.0119 0.132393,-0.001 0.264803,-5.3e-4 0.397174,-0.003 0.06156,-0.001 0.317696,-0.009 0.41555,-0.0186 0.0099,-0.001 0.03684,-0.0138 0.02875,-0.008 -3.334533,2.3824 -1.956564,2.40877 -3.469992,2.34308 -0.546851,0.15757 -1.124585,0.18455 -1.690158,0.21853 -0.872659,0.0252 -1.745752,0.0262 -2.6187,0.0334 0,0 3.161995,-2.29918 3.161995,-2.29918 v 0 c 0.87244,5.3e-4 1.746071,-5.3e-4 2.616574,-0.0657 0.583975,-0.0511 1.158732,-0.16248 1.74013,-0.21912 1.493988,-0.0578 0.250581,-0.0441 -2.979624,2.34311 -0.03375,0.0249 -0.08281,-0.015 -0.124714,-0.0171 -0.08226,-0.004 -0.16456,-0.008 -0.246904,-0.009 -0.129508,-0.003 -0.259059,-0.002 -0.388588,-0.003 -1.064932,-0.008 -2.129893,-0.0131 -3.194857,-0.0131 -1.144969,5.2e-4 -2.289921,0.001 -3.434879,0.003 -0.87747,0.002 -1.756579,-0.0199 -2.632662,0.0387 -1.570168,0.2667 0.293669,-0.0149 2.96586,-1.93269 0.07649,-0.0549 -0.136544,-0.13296 -0.184116,-0.21422 -0.0182,-0.0311 0.05941,0.0413 0.09191,0.0567 0.11666,0.0556 0.562464,0.23383 0.64149,0.2659 1.246949,0.54858 2.495177,1.10654 3.79866,1.50925 1.294857,0.41286 2.598909,0.90424 3.975949,0.91491 1.512652,-0.0579 0.381585,-0.0551 -2.924225,2.33492 -0.02363,0.0171 -0.05763,-0.01 -0.08673,-0.0114 -0.08373,-0.005 -0.167616,-0.008 -0.251489,-0.009 -0.130968,-0.003 -0.261977,-0.002 -0.392964,-0.003 -0.145135,-10e-4 -0.290269,-0.002 -0.435404,-0.003 -1.059193,-0.006 -2.118405,-0.005 -3.177606,-0.004 -2.565233,0.0161 -2.534597,0.50939 1.305153,-2.3074 0.03666,-0.0269 0.0905,0.009 0.135749,0.0134 0.939057,0.0211 1.878613,0.01 2.817813,0.0206 1.247619,-2.7e-4 2.495428,0.0102 3.742806,-0.0215 0.966052,-0.0395 1.957197,-0.0544 2.885871,-0.35136 -1.050395,0.61678 -2.147069,1.16079 -3.15119,1.85035 -0.456102,0.31322 0.632741,0.01 0.354624,0.28096 -0.05172,0.0505 -1.230881,-0.0922 -1.288116,-0.0265 -1.429067,10e-4 -2.858011,-0.0197 -4.287086,-0.0138 -0.520562,0.005 -1.041143,0.009 -1.561695,0.0149 -0.210024,0.002 -0.42005,0.005 -0.630044,0.01 -0.164704,0.003 -0.613564,0.12715 -0.494028,0.0138 0.905082,-0.85829 1.931998,-1.57949 2.931692,-2.32544 0.04508,-0.0336 0.112186,0.008 0.16828,0.0123 0.864825,0.0119 1.729745,-0.004 2.594621,-7.9e-4 0.218231,9e-5 0.573151,-0.002 0.796914,0.005 0.107921,0.003 0.404905,-0.0555 0.323527,0.0154 -2.70637,2.3596 -1.858107,2.25545 -3.532235,2.39197 -1.132554,0.12502 -2.253334,0.32836 -3.385214,0.45638 -1.04113,0.063 -2.084072,0.15223 -3.103128,0.38613 -0.451856,0.0951 -0.868119,0.12587 -1.326809,0.13324 -1.49488,0.024 -0.483243,0.20637 2.859117,-2.33564 0.454681,0.0543 0.919861,-0.013 1.376169,0.0148 0.648316,0.002 1.296633,0.005 1.944952,0.004 0.620567,-0.004 1.241137,-0.005 1.861711,-0.002 0.605923,0.001 1.211827,-5.3e-4 1.817746,-1.1e-4 0.638307,-7.9e-4 1.277229,-5.3e-4 1.914581,-0.0399 0.612923,-0.0415 1.226915,-0.0989 1.826662,-0.23777 0,0 -3.165046,2.3964 -3.165046,2.3964 z"
         id="path203"
         style="fill:#2b0000;fill-rule:evenodd;stroke-width:0.26458332" />
      <path
         inkscape:connector-curvature="0"
         d="m 84.915713,137.61174 c 0.908642,0.0293 1.818216,0.024 2.727235,0.0192 0.98947,0.025 1.973953,-0.0923 2.959134,-0.16865 1.16568,-0.10128 2.335279,-0.18849 3.497442,-0.32689 0.795481,-0.0935 0.417116,-0.0276 1.136724,-0.18786 0,0 -3.098683,2.34059 -3.098683,2.34059 v 0 c -0.719278,0.11036 -0.341278,0.0589 -1.134531,0.15055 -1.173242,0.12496 -2.349087,0.23449 -3.524938,0.32989 -0.994971,0.0748 -1.98883,0.1915 -2.988397,0.15334 -0.926663,-0.005 -1.853803,-0.009 -2.780125,0.0192 0,0 3.206139,-2.3294 3.206139,-2.3294 z"
         id="path205"
         style="fill:#2b0000;fill-rule:evenodd;stroke-width:0.26458332" />
      <path
         inkscape:connector-curvature="0"
         d="m 86.280926,136.27765 c 0.988647,0.0274 1.977797,0.0215 2.96672,0.0269 1.217617,8e-4 2.435232,2.7e-4 3.652848,2.7e-4 0.851241,-0.005 1.70249,-0.007 2.553729,-0.0116 0,0 -3.15685,2.29359 -3.15685,2.29359 v 0 c -0.840623,-0.005 -1.681258,-0.007 -2.521881,-0.0116 -1.217925,1e-5 -2.435847,-5.3e-4 -3.653769,2.6e-4 -1.013597,0.005 -2.027388,1e-5 -3.040729,0.0269 0,0 3.199932,-2.32489 3.199932,-2.32489 z"
         id="path207"
         style="fill:#2b0000;fill-rule:evenodd;stroke-width:0.26458332" />
      <path
         inkscape:connector-curvature="0"
         d="m 88.895887,134.93679 c 0.888807,0.0225 1.778111,0.0265 2.667188,0.0324 1.219896,0.003 2.439797,-0.001 3.659693,-0.003 0.748265,-0.006 1.49652,-0.01 2.244796,-0.013 0,0 -3.16807,2.30174 -3.16807,2.30174 v 0 c -0.736344,-0.003 -1.472663,-0.007 -2.208991,-0.013 -1.216895,-0.002 -2.433796,-0.007 -3.650694,-0.003 -0.918773,0.006 -1.83774,0.0103 -2.756268,0.0324 0,0 3.212346,-2.33391 3.212346,-2.33391 z"
         id="path209"
         style="fill:#2b0000;fill-rule:evenodd;stroke-width:0.26458332" />
    </g>
  </g>
</svg>
