<?xml version="1.0" standalone="no"?>
<!DOCTYPE svg PUBLIC "-//W3C//DTD SVG 20010904//EN"
 "http://www.w3.org/TR/2001/REC-SVG-20010904/DTD/svg10.dtd">
<svg version="1.0" xmlns="http://www.w3.org/2000/svg"
 width="55.000000pt" height="60.000000pt" viewBox="0 0 55.000000 60.000000"
 preserveAspectRatio="xMidYMid meet">

<g transform="translate(0.000000,60.000000) scale(0.100000,-0.100000)"
fill="#000000" stroke="none">
<path d="M338 518 c-8 -13 -20 -36 -29 -53 -22 -45 -49 -42 -87 10 -32 44 -59
57 -66 33 -2 -7 -14 -54 -25 -105 -28 -124 -27 -204 3 -269 28 -61 66 -82 152
-86 53 -2 65 2 117 35 l57 37 0 63 c0 54 -6 76 -40 145 -28 56 -40 93 -40 124
0 51 -9 88 -21 88 -5 0 -14 -10 -21 -22z m21 0 c8 -50 12 -118 7 -118 -4 0
-16 6 -29 13 -12 6 -23 13 -25 14 -2 0 3 14 12 31 8 16 12 33 8 37 -4 5 -1 4
7 0 11 -6 13 -4 8 7 -3 9 -3 19 0 22 9 8 9 8 12 -6z m-131 -73 c-2 -1 -18 -5
-35 -8 -30 -6 -33 -4 -33 17 0 14 3 32 7 42 5 15 10 13 35 -15 16 -18 28 -34
26 -36z m-11 -21 c-3 -3 -12 -4 -19 -1 -8 3 -5 6 6 6 11 1 17 -2 13 -5z m137
-38 c46 -35 86 -123 86 -188 0 -59 -2 -63 -47 -99 -38 -32 -110 -45 -158 -29
l-35 11 21 41 c11 22 18 43 15 46 -10 10 -55 -39 -49 -54 3 -8 0 -14 -5 -14
-19 0 -22 17 -6 31 16 13 44 62 44 77 0 10 -44 32 -65 32 -24 0 -17 -20 10
-30 30 -11 30 -11 7 -50 l-19 -30 -11 25 c-26 57 -8 218 27 239 20 13 96 25
125 20 16 -2 43 -15 60 -28z"/>
<path d="M268 403 c6 -2 18 -2 25 0 6 3 1 5 -13 5 -14 0 -19 -2 -12 -5z"/>
<path d="M202 278 c2 -25 8 -33 23 -33 16 0 20 7 20 30 0 24 -5 31 -23 33 -21
3 -23 0 -20 -30z"/>
<path d="M290 270 c0 -19 7 -33 21 -40 20 -11 20 -12 3 -31 -17 -19 -17 -20 0
-13 13 5 17 2 14 -10 -2 -11 10 -23 40 -36 33 -15 42 -16 42 -5 0 7 -8 16 -17
18 -14 4 -12 5 5 6 48 2 16 30 -36 32 -24 0 -25 1 -7 9 24 9 50 38 42 46 -3 3
-15 1 -26 -6 -18 -9 -21 -8 -21 9 0 35 -12 51 -36 51 -20 0 -24 -5 -24 -30z"/>
<path d="M260 148 c0 -13 -7 -34 -16 -47 -16 -22 -16 -23 4 -12 12 6 24 16 27
21 3 6 21 10 38 10 30 0 31 1 11 13 -12 6 -31 18 -43 25 -19 11 -21 11 -21
-10z"/>
</g>
</svg>
