<?xml version="1.0" encoding="UTF-8" standalone="no"?>
<!-- Created with Inkscape (http://www.inkscape.org/) -->

<svg
   xmlns:dc="http://purl.org/dc/elements/1.1/"
   xmlns:cc="http://creativecommons.org/ns#"
   xmlns:rdf="http://www.w3.org/1999/02/22-rdf-syntax-ns#"
   xmlns:svg="http://www.w3.org/2000/svg"
   xmlns="http://www.w3.org/2000/svg"
   xmlns:sodipodi="http://sodipodi.sourceforge.net/DTD/sodipodi-0.dtd"
   xmlns:inkscape="http://www.inkscape.org/namespaces/inkscape"
   width="55"
   height="60"
   viewBox="0 0 14.552084 15.875"
   version="1.1"
   id="svg25"
   inkscape:version="0.92.2 5c3e80d, 2017-08-06"
   sodipodi:docname="ddx.svg">
  <defs
     id="defs19" />
  <sodipodi:namedview
     id="base"
     pagecolor="#ffffff"
     bordercolor="#666666"
     borderopacity="1.0"
     inkscape:pageopacity="0.0"
     inkscape:pageshadow="2"
     inkscape:zoom="5.6568543"
     inkscape:cx="20.074049"
     inkscape:cy="39.641643"
     inkscape:document-units="px"
     inkscape:current-layer="layer1"
     showgrid="false"
     units="px"
     inkscape:window-width="1405"
     inkscape:window-height="856"
     inkscape:window-x="47"
     inkscape:window-y="0"
     inkscape:window-maximized="0" />
  <metadata
     id="metadata22">
    <rdf:RDF>
      <cc:Work
         rdf:about="">
        <dc:format>image/svg+xml</dc:format>
        <dc:type
           rdf:resource="http://purl.org/dc/dcmitype/StillImage" />
        <dc:title></dc:title>
      </cc:Work>
    </rdf:RDF>
  </metadata>
  <g
     inkscape:label="Layer 1"
     inkscape:groupmode="layer"
     id="layer1"
     transform="translate(0,-281.125)">
    <ellipse
       style="fill:#ffdd55;stroke:#000000;stroke-width:0.26458335;stroke-opacity:1"
       id="path910"
       cx="7.7875657"
       cy="287.43509"
       rx="2.4555387"
       ry="2.502311" />
    <path
       style="fill:#ffdd55;stroke:#000000;stroke-width:0.26458335px;stroke-linecap:butt;stroke-linejoin:miter;stroke-opacity:1"
       d="m 6.4545593,289.42291 c 0,0.46772 0,0.93544 0,1.40316 0,0.15591 0,0.31182 0,0.46773 0,0.0312 0,0.0624 0,0.0935 0,0.0156 0.015589,0.0468 0,0.0468 -0.015592,0 0,-0.0624 0,-0.0468 0,0.0312 0,0.0624 0,0.0935 0,0.0156 -0.00697,0.0328 0,0.0468 0.00986,0.0197 0.036912,0.027 0.046772,0.0468 0.013118,0.0262 -0.01293,0.16769 0,0.18709 0.024461,0.0367 0.073823,0.0541 0.093544,0.0935 0.00697,0.014 -0.035748,-0.011 -0.046772,0 -0.011025,0.011 0,0.0312 0,0.0468 0,0.0156 -0.013943,0.0398 0,0.0468 0.02789,0.0139 0.0796,-0.0279 0.093545,0 0.022048,0.0441 -0.081634,0.10545 -0.046772,0.14031 0.024651,0.0247 0.068893,0.0221 0.093544,0.0468 0.011025,0.011 -0.0398,-0.0139 -0.046772,0 -0.013943,0.0279 -0.022048,0.0715 0,0.0935 0.015589,0.0156 0.031181,-0.0624 0.046772,-0.0468 0.022048,0.022 -0.022048,0.0715 0,0.0935 0.015592,0.0156 0.046772,-0.0688 0.046772,-0.0468 0,0.0349 -0.062363,0.0624 -0.046772,0.0935 0.013943,0.0279 0.0796,-0.0279 0.093545,0 0.015589,0.0312 -0.022122,0.0689 -0.046772,0.0935 -0.011025,0.011 -0.011025,-0.0578 0,-0.0468 0.024651,0.0247 0.015592,0.078 0.046772,0.0935 0.019722,0.01 0.046772,-0.0688 0.046772,-0.0468 0,0.0349 -0.022122,0.0689 -0.046772,0.0935 -0.010393,0.0104 0.0052,-0.22346 0.093544,-0.0468 0.015592,0.0312 -0.022122,0.0689 -0.046772,0.0935 -0.011025,0.011 0,-0.0624 0,-0.0468 0,0.0312 0,0.0624 0,0.0936 0,0.0156 -0.011025,-0.0358 0,-0.0468 0.011025,-0.011 0.031182,0 0.046772,0 0.015592,0 0.046772,-0.0156 0.046772,0 0,0.0156 -0.0398,-0.0139 -0.046772,0 -0.013943,0.0279 -0.02789,0.0796 0,0.0935 0.031181,0.0156 0.068893,-0.0221 0.093545,-0.0468 0.011025,-0.011 -0.057797,-0.011 -0.046772,0 0.024651,0.0246 0.077954,0.0156 0.093544,0.0468 0.00986,0.0197 -0.068821,0.0468 -0.046772,0.0468 0.034862,0 0.062363,-0.0624 0.093544,-0.0468 0.02789,0.0139 -0.022048,0.0715 0,0.0935 0.015592,0.0156 0.027051,-0.0566 0.046772,-0.0468 0.031181,0.0156 0.015589,0.0779 0.046772,0.0935 0.036531,0.0183 0.03976,-0.10056 0.093545,-0.0468 0.024651,0.0246 0.015592,0.078 0.046772,0.0935 0.019722,0.01 0.024723,-0.0468 0.046772,-0.0468 0.022048,0 0.028427,0.0345 0.046772,0.0468 0.029007,0.0193 0.058682,0.0468 0.093544,0.0468 0.034862,0 0.058682,-0.0468 0.093544,-0.0468 0.015592,0 -0.00697,0.0328 0,0.0468 0.00986,0.0197 0.024723,0.0468 0.046772,0.0468 0.022048,0 0.027051,-0.0369 0.046772,-0.0468 0.013944,-0.007 0.031181,0 0.046772,0 0.015592,0 0.032827,-0.007 0.046772,0 0.025987,0.013 0.078463,0.0935 0.093545,0.0935 0.022048,0 0.025855,-0.0398 0.046772,-0.0468 0.029581,-0.01 0.062363,0 0.093545,0 0.015589,0 0.032827,-0.007 0.046772,0 0.019722,0.01 0.036911,0.0271 0.046772,0.0468 0.00697,0.0139 -0.015589,0.0468 0,0.0468 0.1247259,0 -0.054338,-0.1441 0.1403165,-0.0468 0.013943,0.007 -0.011025,0.0358 0,0.0468 0.011025,0.011 0.035748,-0.011 0.046772,0 0.011025,0.011 -0.015592,0.0468 0,0.0468 0.034862,0 0.068893,-0.0221 0.093544,-0.0468 0.011025,-0.011 -0.062363,0 -0.046772,0 0.3066174,0 -0.1663013,0 0.1403164,0 0.015589,0 -0.062363,0 -0.046772,0 0.077954,0 0.1559073,0 0.233861,0 0.015592,0 -0.062363,0 -0.046772,0 0.011115,0 0.1766057,0.005 0.1870887,0 0.025987,-0.013 0.078463,-0.0935 0.093544,-0.0935 0.022048,0 0.027051,0.0566 0.046772,0.0468 0.031181,-0.0156 0.015589,-0.078 0.046772,-0.0935 0.019722,-0.01 0.024723,0.0468 0.046772,0.0468 0.044097,0 0.049447,-0.0935 0.093544,-0.0935 0.022048,0 0.024723,0.0468 0.046772,0.0468 0.022048,0 0.031182,-0.0312 0.046772,-0.0468 0.015592,-0.0156 0.024723,-0.0468 0.046772,-0.0468 0.022048,0 0.025855,0.0537 0.046772,0.0468 0.041834,-0.014 0.05171,-0.0796 0.093545,-0.0935 0.020918,-0.007 0.024723,0.0468 0.046772,0.0468 0.015592,0 -0.00697,-0.0328 0,-0.0468 0.00986,-0.0197 0.028427,-0.0345 0.046772,-0.0468 0.029007,-0.0193 0.058682,-0.0468 0.093544,-0.0468 0.022048,0 0.031182,0.0624 0.046772,0.0468 0.022048,-0.022 -0.017296,-0.0676 0,-0.0935 0.019338,-0.029 0.058682,-0.0468 0.093545,-0.0468 0.015589,0 0,0.0624 0,0.0468 0,-0.0312 0,-0.0624 0,-0.0936 0,-0.0156 -0.015592,0.0468 0,0.0468 0.034862,0 0.077953,-0.0156 0.093544,-0.0468 0.00986,-0.0197 -0.024723,-0.0468 -0.046772,-0.0468 -0.015592,0 -0.011025,0.0578 0,0.0468 0.024651,-0.0246 0.022122,-0.0689 0.046772,-0.0935 0.011025,-0.011 0,0.0624 0,0.0468 0,-0.0312 0,-0.0624 0,-0.0935 0,-0.0156 -0.011025,-0.0357 0,-0.0468 0.024651,-0.0247 0.077954,-0.0156 0.093544,-0.0468 0.055905,-0.11181 -0.223161,0.0361 -0.046772,-0.14032 0.022048,-0.022 0.079599,0.0279 0.093544,0 0.015592,-0.0312 -0.038317,-0.0597 -0.046772,-0.0935 -0.00756,-0.0302 -0.013943,-0.0657 0,-0.0935 0.019722,-0.0394 0.073823,-0.0541 0.093544,-0.0935 0.007,-0.0139 -0.046772,0.0156 -0.046772,0 0,-0.0493 0.034815,-0.0925 0.046772,-0.14031 0.01223,-0.0489 -0.014999,-0.14209 0,-0.18709 0.01103,-0.0331 0.03575,-0.0605 0.04677,-0.0936 0.0101,-0.0303 0,-0.19557 0,-0.23386 0,-0.12472 0,-0.24945 0,-0.37418 0,-0.18082 0,-0.19215 0,-0.28063 0,-0.0156 0.01559,0.0468 0,0.0468 -0.01559,0 0,-0.0312 0,-0.0468 0,-0.0156 0,-0.0312 0,-0.0468 0,-0.0156 0,-0.0312 0,-0.0468 0,-0.0156 -0.01559,-0.0468 0,-0.0468 0.01559,0 0,0.0624 0,0.0468 0,-0.0312 0,-0.0624 0,-0.0936 0,-0.0156 0.01103,-0.0357 0,-0.0468 -0.01103,-0.011 -0.03575,0.011 -0.04677,0 -0.0058,-0.006 0,-0.15776 0,-0.18709 0,-0.0156 0.01559,-0.0468 0,-0.0468 -0.022048,0 -0.046772,0.0688 -0.046772,0.0468 0.018883,-0.32489 0.062363,-0.0312 0.046772,-0.0468 -0.024651,-0.0247 -0.022122,-0.0689 -0.046772,-0.0935 -0.011025,-0.011 0.015592,0.0468 0,0.0468 -0.082062,0 -0.030648,-0.10807 -0.046772,-0.14032 -0.00986,-0.0197 -0.036912,-0.027 -0.046772,-0.0468 -0.016124,-0.0323 0.035289,-0.14032 -0.046772,-0.14032 -0.015592,0 0.015592,0.0468 0,0.0468 -0.015592,0 0,-0.0312 0,-0.0468 0,-0.0156 -0.015592,-0.0468 0,-0.0468 0.015592,0 0.015592,0.0468 0,0.0468 -0.031181,0 0.022048,-0.0715 0,-0.0935 -0.011025,-0.011 -0.035748,0.011 -0.046772,0 -0.011255,-0.0113 0.011255,-0.17584 0,-0.18709 -0.011025,-0.011 -0.035748,0.011 -0.046772,0 -0.011025,-0.011 -0.015592,-0.0468 0,-0.0468 0.040868,0 -0.046772,0.15512 -0.046772,0 0,-0.0156 0.046772,0.0156 0.046772,0 0,-0.0221 -0.024723,-0.0468 -0.046772,-0.0468 -0.022048,0 -0.046772,0.0247 -0.046772,0.0468 0,0.0156 0.035748,0.011 0.046772,0 0.011025,-0.011 0.011025,-0.0358 0,-0.0468 -0.00151,-0.002 -0.128973,0 -0.1403165,0"
       id="path912"
       inkscape:connector-curvature="0" />
    <path
       style="fill:none;stroke:#000000;stroke-width:0.26458335px;stroke-linecap:butt;stroke-linejoin:miter;stroke-opacity:1"
       d="m 6.2206983,290.63899 c -0.1786724,0 -0.2567527,0.0189 -0.4209495,-0.0468 -0.020471,-0.008 -0.025855,-0.0398 -0.046772,-0.0468 -0.029581,-0.01 -0.062363,0 -0.093544,0 -0.046772,-0.0156 -0.094541,-0.0285 -0.1403165,-0.0468 -0.1290267,-0.0516 -0.2451508,-0.13548 -0.3741775,-0.18709 -0.045776,-0.0183 -0.096219,-0.0247 -0.1403165,-0.0468 -0.019722,-0.01 -0.025855,-0.0398 -0.046772,-0.0468 -0.029581,-0.01 -0.0676,0.0173 -0.093545,0 -0.029007,-0.0193 -0.015589,-0.078 -0.046772,-0.0935 -0.041834,-0.0209 -0.095945,0.0148 -0.1403168,0 -0.01479,-0.005 0.012973,-0.0381 0,-0.0468 -0.041022,-0.0274 -0.096219,-0.0247 -0.1403165,-0.0468 -0.039442,-0.0197 -0.05171,-0.0796 -0.093544,-0.0935 -0.029581,-0.01 -0.062363,0 -0.093544,0 -0.015592,0 0.057796,0.011 0.046772,0 -0.024651,-0.0247 -0.068893,-0.0221 -0.093544,-0.0468 -0.011025,-0.011 0.046772,0.0156 0.046772,0 0,-0.0578 -0.065592,-0.0468 -0.093545,-0.0468"
       id="path914"
       inkscape:connector-curvature="0" />
    <path
       style="fill:none;stroke:#000000;stroke-width:0.26458335px;stroke-linecap:butt;stroke-linejoin:miter;stroke-opacity:1"
       d="m 10.196333,290.49867 c 0.04677,-0.0624 0.105454,-0.11737 0.140316,-0.18709 0.01394,-0.0279 -0.0099,-0.064 0,-0.0935 0.007,-0.0209 0.03118,-0.0312 0.04677,-0.0468 0.06236,-0.0624 0.124726,-0.12472 0.187089,-0.18708 0.01559,-0.0156 0.03691,-0.0271 0.04677,-0.0468 0.01394,-0.0279 -0.02789,-0.0796 0,-0.0935 0.02789,-0.014 0.06236,0 0.09355,0 0.01559,0 -0.06236,0 -0.04677,0 0.03118,0 0.06236,0 0.09355,0 0.01559,0 -0.04677,0.0156 -0.04677,0 0,-0.0156 0.03118,0 0.04677,0 0.01559,0 0.04677,-0.0156 0.04677,0 0,0.0156 -0.04677,0.0156 -0.04677,0 0,-0.0156 0.03575,0.011 0.04677,0 0.02465,-0.0247 0.04677,-0.0587 0.04677,-0.0935 0,-0.022 -0.06882,0.0468 -0.04677,0.0468 0.03486,0 0.06889,-0.0221 0.09354,-0.0468 0.01103,-0.011 -0.05374,0.0139 -0.04677,0 0.01972,-0.0394 0.05685,-0.0691 0.09354,-0.0935 0.01297,-0.009 0.04677,-0.0156 0.04677,0 0,0.0156 -0.0578,0.011 -0.04677,0 0.02465,-0.0247 0.06454,-0.0274 0.09354,-0.0468 0.04036,-0.0269 0.103783,-0.10379 0.140316,-0.14032 0.01559,-0.0156 0.02705,-0.0369 0.04677,-0.0468 0.01394,-0.007 0.0398,0.0139 0.04677,0 0.01394,-0.0279 0,-0.0624 0,-0.0935 0,-0.0156 -0.01103,-0.0357 0,-0.0468 0.04819,-0.0482 0.140317,-0.0577 0.140317,-0.0468 0,0.0156 -0.0578,0.011 -0.04677,0 0.02465,-0.0247 0.06889,-0.0221 0.09354,-0.0468 0.01103,-0.011 -0.06236,0 -0.04677,0 0.03118,0 0.0715,0.022 0.09354,0 0.0578,-0.0578 -0.150557,-0.0468 0,-0.0468"
       id="path916"
       inkscape:connector-curvature="0" />
    <path
       style="fill:none;stroke:#000000;stroke-width:0.26458335px;stroke-linecap:butt;stroke-linejoin:miter;stroke-opacity:1"
       d="m 6.9690532,292.79051 c -0.1091351,0.078 -0.2243741,0.148 -0.3274052,0.23386 -0.011978,0.01 0.031181,0 0.046772,0 -0.046772,0.0156 -0.096219,0.0247 -0.1403165,0.0468 -0.071635,0.0358 -0.036576,0.0833 -0.093544,0.14031 -0.039749,0.0397 -0.1005679,0.0538 -0.1403165,0.0935 -0.011025,0.011 0.011025,0.0358 0,0.0468 -0.024651,0.0247 -0.064538,0.0274 -0.093545,0.0468 -0.022709,0.0151 -0.084521,0.0935 -0.093544,0.0935 -0.022048,0 -0.046772,-0.0688 -0.046772,-0.0468 0,0.0349 0.071424,0.0689 0.046772,0.0935 -0.024651,0.0247 -0.062363,-0.0624 -0.093544,-0.0468 -0.036531,0.0183 0.04788,0.14031 -0.046772,0.14031 -0.022048,0 -0.046772,-0.0688 -0.046772,-0.0468 0,0.0349 0.046772,0.0587 0.046772,0.0935 0,0.022 -0.024723,-0.0468 -0.046772,-0.0468 -0.015589,0 0.011025,0.0358 0,0.0468 -0.011025,0.011 -0.046772,-0.0156 -0.046772,0 0,0.022 0.062363,0.0312 0.046772,0.0468 -0.015589,0.0156 -0.024723,-0.0468 -0.046772,-0.0468 -0.015592,0 0.011025,0.0357 0,0.0468 -0.011025,0.011 -0.046772,-0.0156 -0.046772,0 0,0.022 0.062363,0.0312 0.046772,0.0468 -0.015592,0.0156 -0.024723,-0.0468 -0.046772,-0.0468 -0.015592,0 0.011025,0.0358 0,0.0468 -0.011025,0.011 -0.046772,-0.0156 -0.046772,0 0,0.0221 0.024723,0.0468 0.046772,0.0468 0.015592,0 0.015592,-0.0468 0,-0.0468 -0.022048,0 -0.036912,0.0271 -0.046772,0.0468 -0.00697,0.014 0.015592,0.0468 0,0.0468 -0.022048,0 -0.062363,-0.0312 -0.046772,-0.0468 0.015592,-0.0156 0.046772,0.0247 0.046772,0.0468 0,0.022 -0.024723,0.0468 -0.046772,0.0468 -0.015589,0 0.015592,-0.0468 0,-0.0468 -0.022048,0 -0.046772,0.0247 -0.046772,0.0468 0,0.022 0.062363,0.0312 0.046772,0.0468 -0.015589,0.0156 -0.031181,-0.0312 -0.046772,-0.0468"
       id="path918"
       inkscape:connector-curvature="0" />
    <path
       style="fill:none;stroke:#000000;stroke-width:0.26458335px;stroke-linecap:butt;stroke-linejoin:miter;stroke-opacity:1"
       d="m 9.7753831,292.93082 c 0.062363,0.0468 0.1272032,0.0904 0.1870888,0.14032 0.031181,0.0312 0.062363,0.0624 0.093544,0.0935 0.01559,-0.0156 0.02705,-0.0566 0.04677,-0.0468 0.01877,0.009 0.06796,0.1615 0.09354,0.18709 0.02465,0.0247 0.06889,0.0221 0.09354,0.0468 0.114591,0.22918 -0.0153,0.0391 0.09354,0.0935 0.07164,0.0358 0.03658,0.0833 0.09354,0.14031 0.02205,0.0221 0.0796,-0.0279 0.09354,0 0.0091,0.0183 -0.02851,0.14032 0.04677,0.14032 0.02205,0 0.02472,-0.0468 0.04677,-0.0468 0.01559,0 0,0.0312 0,0.0468 0,0.0156 0.01559,0.0468 0,0.0468 -0.01559,0 -0.01103,-0.0358 0,-0.0468 0.01103,-0.011 0.03575,-0.011 0.04677,0 0.02205,0.022 -0.03118,0.0935 0,0.0935 0.02205,0 0.02472,-0.0468 0.04677,-0.0468 0.03486,0 0.08163,0.0935 0.04677,0.0935 -0.03118,0 0.01559,-0.10914 0.04677,-0.0468 0.01394,0.0279 -0.02789,0.0796 0,0.0936 0.03118,0.0156 0.05868,-0.0468 0.09354,-0.0468 0.01559,0 -0.007,0.0328 0,0.0468 0.0099,0.0197 0.02472,0.0468 0.04677,0.0468 0.01559,0 -0.01103,-0.0578 0,-0.0468 0.02465,0.0246 0.02212,0.0689 0.04677,0.0935 0.01103,0.011 -0.01103,-0.0358 0,-0.0468 0.01103,-0.011 0.03575,-0.011 0.04677,0 0.02971,0.0297 -0.06771,0.16125 0.04677,0.0468"
       id="path920"
       inkscape:connector-curvature="0" />
    <path
       style="fill:none;stroke:#000000;stroke-width:0.26458335px;stroke-linecap:butt;stroke-linejoin:miter;stroke-opacity:1"
       d="m 5.6594329,290.54539 0.5612654,0.0936"
       id="path922"
       inkscape:connector-curvature="0" />
    <path
       style="fill:none;stroke:#000000;stroke-width:0.26458335px;stroke-linecap:butt;stroke-linejoin:miter;stroke-opacity:1"
       d="m 6.5481035,286.71012 c -0.013375,0.22049 0.1787393,-0.0551 0.233861,0 0.024651,0.0247 0.015589,0.078 0.046772,0.0935 0.019722,0.01 0.024723,-0.0468 0.046772,-0.0468 0.022048,0 0.027051,0.0369 0.046772,0.0468 0.013943,0.007 0.0338,-0.009 0.046772,0 0.036691,0.0245 0.05171,0.0796 0.093544,0.0935 0.020918,0.007 0.027051,-0.0566 0.046772,-0.0468 0.2638385,0.13192 -0.059626,0.1064 0,0.0468 0.1403165,-0.14031 0.077953,0.039 0.093544,0.0468 0.027889,0.0139 0.062363,0 0.093544,0 0.015592,0 -0.046772,-0.0156 -0.046772,0 0,0.0349 0.022122,0.0689 0.046772,0.0935 0.011025,0.011 -0.011025,-0.0358 0,-0.0468 0.011025,-0.011 0.031182,0 0.046772,0 0.015592,0 0.046772,-0.0156 0.046772,0 0,0.022 -0.046772,0.0247 -0.046772,0.0468 0,0.022 0.024723,0.0468 0.046772,0.0468 0.022048,0 0.046772,-0.0247 0.046772,-0.0468 0,-0.0156 -0.046772,0.0156 -0.046772,0 0,-0.0156 0.031181,0 0.046772,0 0.015592,0 0.046772,-0.0156 0.046772,0 0,0.0156 -0.046772,0.0156 -0.046772,0 0,-0.0156 0.031182,0 0.046772,0 0.015592,0 0.046772,-0.0156 0.046772,0 0,0.022 -0.062363,0.0312 -0.046772,0.0468 0.022048,0.0221 0.071496,-0.022 0.093544,0 0.015592,0.0156 -0.031182,0.0624 -0.046772,0.0468 -0.015592,-0.0156 0.024723,-0.0468 0.046772,-0.0468 0.034862,0 0.068893,0.0221 0.093544,0.0468 0.011025,0.011 -0.062363,0 -0.046772,0 0.3066177,0 -0.166301,0 0.1403165,0 0.015592,0 -0.046772,-0.0156 -0.046772,0 0,0.0183 0.08764,0.0527 0.046772,0.0935 -0.011025,0.011 -0.031182,0 -0.046772,0 -0.015592,0 -0.031181,0 -0.046772,0 -0.015592,0 -0.046772,0.0156 -0.046772,0 0,-0.0156 0.062363,0 0.046772,0 -0.110119,0 -0.072145,0 -0.233861,0 -0.051968,0 -0.09395,0 -0.1870884,0 -0.015592,0 0.046772,-0.0156 0.046772,0 0,0.0156 -0.035748,-0.011 -0.046772,0 -0.011025,0.011 0.011025,0.0358 0,0.0468 -0.022048,0.022 -0.093545,-0.0312 -0.093545,0 0,0.022 0.046772,0.0247 0.046772,0.0468 0,0.0156 -0.032827,-0.007 -0.046772,0 -0.019722,0.01 -0.046772,0.0247 -0.046772,0.0468 0,0.022 0.062363,0.0312 0.046772,0.0468 -0.015592,0.0156 -0.027051,-0.0369 -0.046772,-0.0468 -0.013944,-0.007 -0.035748,-0.011 -0.046772,0 -0.1978789,0.19788 0.01791,0.0647 0,0.0468 -0.022048,-0.0221 -0.062363,0 -0.093544,0 -0.015592,0 0.062363,0 0.046772,0 -0.031181,0 -0.0796,-0.0279 -0.093544,0 -0.015592,0.0312 0.071423,0.0689 0.046772,0.0935 -0.024651,0.0247 -0.068893,-0.0221 -0.093545,-0.0468 -0.011025,-0.011 0.057796,-0.011 0.046772,0 -0.024651,0.0247 -0.077954,0.0156 -0.093545,0.0468 -0.00986,0.0197 0.068821,0.0468 0.046772,0.0468 -0.034862,0 -0.058682,-0.0468 -0.093544,-0.0468 -0.022048,0 -0.046772,0.0247 -0.046772,0.0468 0,0.0156 0.046772,-0.0156 0.046772,0 0,0.022 -0.024723,0.0468 -0.046772,0.0468 -0.015592,0 0,-0.0312 0,-0.0468"
       id="path924"
       inkscape:connector-curvature="0" />
    <path
       style="fill:none;stroke:#000000;stroke-width:0.26458335px;stroke-linecap:butt;stroke-linejoin:miter;stroke-opacity:1"
       d="m 9.0738007,286.61658 c -0.046772,0.0624 -0.093545,0.12472 -0.1403165,0.18709 -0.015592,0 -0.046772,-0.0156 -0.046772,0 0,0.022 0.046772,0.0247 0.046772,0.0468 0,0.0312 -0.093545,-0.0312 -0.093545,0 0,0.0221 0.046772,0.0247 0.046772,0.0468 0,0.0312 -0.071496,-0.022 -0.093544,0 0,0.12473 0.015589,-0.0156 -0.046772,0.0468 -0.011025,0.011 0.011025,0.0358 0,0.0468 -0.022048,0.022 -0.071496,-0.0221 -0.093544,0 -0.011025,0.011 0.011025,0.0357 0,0.0468 -0.011025,0.011 -0.035748,-0.011 -0.046772,0 -0.011025,0.011 0.011025,0.0358 0,0.0468 -0.027952,0.028 -0.093545,-0.0505 -0.093545,0.0468 0,0.0156 0.031182,0 0.046772,0 0.015592,0 0.031181,0 0.046772,0 0.1091351,0 0.2182702,0 0.3274052,0 0.015589,0 0.035748,-0.011 0.046772,0 0.011025,0.011 -0.011025,0.0357 0,0.0468 0.011025,0.011 0.035748,-0.011 0.046772,0 0.024651,0.0247 0.022122,0.0689 0.046772,0.0935 0.011025,0.011 -0.015592,-0.0468 0,-0.0468 0.022048,0 0.027051,0.0369 0.046772,0.0468 0.013946,0.007 0.035748,-0.011 0.046772,0 0.011025,0.011 -0.011025,0.0358 0,0.0468 0.011025,0.011 0.035748,-0.011 0.046772,0 0.062363,0.0624 -0.077954,0.0468 0.046772,0.0468"
       id="path926"
       inkscape:connector-curvature="0" />
    <path
       style="fill:none;stroke:#000000;stroke-width:0.26458335px;stroke-linecap:butt;stroke-linejoin:miter;stroke-opacity:1"
       d="m 7.9044963,287.83266 0.1403168,0.0468"
       id="path928"
       inkscape:connector-curvature="0" />
    <path
       style="fill:none;stroke:#000000;stroke-width:0.26458335px;stroke-linecap:butt;stroke-linejoin:miter;stroke-opacity:1"
       d="m 7.1561417,288.48747 c 0.6163532,0 -0.1205683,0 0.233861,0 0.015592,0 0.046772,-0.0156 0.046772,0 0,0.022 -0.062363,0.0312 -0.046772,0.0468 0.022048,0.022 0.065655,-0.014 0.093544,0 0.013943,0.007 -0.011025,0.0358 0,0.0468 0.011025,0.011 0.032827,-0.007 0.046772,0 0.019719,0.01 0.027051,0.0369 0.046772,0.0468 0.00858,0.004 0.1403165,-0.003 0.1403165,0 0,0.0156 -0.046772,0.0156 -0.046772,0 0,-0.0156 0.031181,0 0.046772,0 0.015592,0 0.031181,0 0.046772,0 0.015592,0 0.046772,-0.0156 0.046772,0 0,0.0156 -0.046772,0.0156 -0.046772,0 0,-0.005 0.1334383,0.007 0.1403164,0 0.011025,-0.011 -0.011025,-0.0357 0,-0.0468 0.022048,-0.022 0.071496,0.0221 0.093545,0 0.011025,-0.011 -0.011025,-0.0358 0,-0.0468 0.011025,-0.011 0.0398,0.0139 0.046772,0 0.013943,-0.0279 -0.022048,-0.0715 0,-0.0935 0.1551236,-0.15512 0,0.19733 0,0.0468 0,-0.0156 0.0398,0.0139 0.046772,0 0.013943,-0.0279 0,-0.0624 0,-0.0935 0,-0.0156 0,0.0624 0,0.0468 0,-0.0312 -0.022048,-0.0715 0,-0.0935 0.015592,-0.0156 0.046772,0.0247 0.046772,0.0468 0,0.0156 -0.035748,-0.011 -0.046772,0 -0.011025,0.011 0,0.0312 0,0.0468 0,0.0156 0,0.0312 0,0.0468 0,0.0156 0.015592,0.0468 0,0.0468 -0.015589,0 -0.015589,-0.0468 0,-0.0468 0.031181,0 -0.022048,0.0715 0,0.0935 0.236284,0.23628 0.035946,0 0.093545,0 0.022048,0 0.027051,0.0369 0.046772,0.0468 0.013943,0.007 0.032827,-0.007 0.046772,0 0.019722,0.01 0.024723,0.0468 0.046772,0.0468 0.022048,0 0.024723,-0.0468 0.046772,-0.0468 0.022048,0 0.046772,0.0247 0.046772,0.0468 0,0.0156 -0.062363,0 -0.046772,0 0.1745271,0 0.313966,0 0.3741775,0 0.015589,0 0.031181,0 0.046772,0 0.015589,0 0.046772,0.0156 0.046772,0 0,-0.022 -0.062363,-0.0312 -0.046772,-0.0468 0.022048,-0.022 0.062363,0 0.093544,0 0.015592,0 -0.062363,0 -0.046772,0 0.031181,0 0.062363,0 0.093545,0 0.015589,0 -0.046772,0.0156 -0.046772,0 0,-0.0349 0.015592,-0.0779 0.046772,-0.0935 0.1551237,-0.0776 0,0.14248 0,0.0468 0,-0.0349 0.015589,-0.0779 0.046772,-0.0935 0.1551239,-0.0776 0,0.14248 0,0.0468 0,-0.0156 0.0398,0.0139 0.046772,0 0.013943,-0.0279 0,-0.0624 0,-0.0935 0,-0.0156 0.015592,0.0468 0,0.0468 -0.015592,0 0.011025,-0.0357 0,-0.0468 -0.011025,-0.011 -0.031181,0 -0.046772,0"
       id="path930"
       inkscape:connector-curvature="0" />
    <path
       style="fill:#ffd42a;stroke:#000000;stroke-width:0.26458335px;stroke-linecap:butt;stroke-linejoin:miter;stroke-opacity:1"
       d="m 6.2674705,285.4005 c -0.062363,-0.0624 -0.1165331,-0.13417 -0.1870887,-0.18709 -0.012472,-0.009 0.011025,0.0358 0,0.0468 -0.011025,0.011 -0.032827,0.007 -0.046772,0 -0.025987,-0.013 -0.078463,-0.0936 -0.093545,-0.0936 -0.015589,0 0.013944,0.0398 0,0.0468 -0.027889,0.0139 -0.062363,0 -0.093544,0 -0.015592,0 -0.035748,0.011 -0.046772,0 -0.011025,-0.011 0.013944,-0.0398 0,-0.0468 -0.027889,-0.0139 -0.062363,0 -0.093544,0 -0.015592,0 0.062363,0 0.046772,0 -0.1778273,0 -0.1585653,0 -0.327405,0 -0.015592,0 0.046772,-0.0156 0.046772,0 0,0.0349 -0.093544,0.0816 -0.093544,0.0468 0,-0.0156 0.046772,-0.0156 0.046772,0 0,0.0349 -0.015592,0.078 -0.046772,0.0935 -0.019722,0.01 -0.046772,-0.0688 -0.046772,-0.0468 0.018883,0.32489 0.062363,0.0312 0.046772,0.0468 -0.024651,0.0247 -0.035748,0.0605 -0.046772,0.0935 -0.00493,0.0148 0.015592,0.0468 0,0.0468 -0.015592,0 0.011025,-0.0578 0,-0.0468 -0.024651,0.0246 -0.046772,0.0587 -0.046772,0.0935 0,0.022 0.031181,-0.0624 0.046772,-0.0468 0.022048,0.022 0,0.0624 0,0.0935 0,0.0156 0,-0.0624 0,-0.0468 0,0.0312 0.022048,0.0715 0,0.0935 -0.015592,0.0156 -0.031181,-0.0624 -0.046772,-0.0468 -0.022048,0.022 0,0.0624 0,0.0935 0,0.0624 0,0.12473 0,0.18709 0,0.0156 0.011025,-0.0578 0,-0.0468 -0.024651,0.0247 -0.046772,0.0587 -0.046772,0.0935 0,0.022 0.031181,-0.0624 0.046772,-0.0468 0.022048,0.022 0,0.0624 0,0.0935 0,0.0156 0.015589,-0.0468 0,-0.0468 -0.068821,0 -0.046772,0.12206 -0.046772,0.14032 0,0.0156 -0.015592,-0.0468 0,-0.0468 0.015589,0 0,0.0312 0,0.0468 0,0.15591 0,-0.10913 0,0.0468 0,0.0156 -0.015592,0.0468 0,0.0468 0.022048,0 0.027051,-0.0369 0.046772,-0.0468 0.013943,-0.007 0.031181,0 0.046772,0 0.031181,0 0.062363,0 0.093544,0 0.015589,0 -0.062363,0 -0.046772,0 0.031181,0 0.062363,0 0.093544,0 0.015592,0 -0.062363,0 -0.046772,0 0.3066175,0 -0.1663012,0 0.1403165,0 0.015589,0 -0.062363,0 -0.046772,0 0.031181,0 0.062363,0 0.093544,0 0.015592,0 -0.046772,-0.0156 -0.046772,0 0,0.022 0.027051,0.0369 0.046772,0.0468 0.013943,0.007 0.046772,-0.0156 0.046772,0 0,0.022 -0.024723,0.0468 -0.046772,0.0468 -0.015589,0 0,-0.0312 0,-0.0468"
       id="path932"
       inkscape:connector-curvature="0" />
    <path
       style="fill:#ffcc00;stroke:#000000;stroke-width:0.26458335px;stroke-linecap:butt;stroke-linejoin:miter;stroke-opacity:1"
       d="m 9.2608894,285.30696 c 0.031182,-0.0624 0.062363,-0.12473 0.093544,-0.18709 0.015592,0 0.035748,0.011 0.046772,0 0.011025,-0.011 -0.00697,-0.0328 0,-0.0468 0.00621,-0.0124 0.127898,-0.13411 0.1403165,-0.14032 0.013944,-0.007 0.035748,0.011 0.046772,0 0.011025,-0.011 -0.011025,-0.0358 0,-0.0468 0.00151,-0.002 0.128973,0 0.1403167,0 0.015589,0 0.046772,-0.0156 0.046772,0 0,0.0156 -0.046772,0.0156 -0.046772,0 0,-0.0156 0.031182,0 0.046772,0 0.015592,0 0.031181,0 0.046772,0 0.015592,0 0.046772,-0.0156 0.046772,0 0,0.0156 -0.046772,0.0156 -0.046772,0 0,-0.0156 0.035748,-0.011 0.046772,0 0.011025,0.011 -0.011025,0.0358 0,0.0468 0.011025,0.011 0.035748,-0.011 0.046772,0 0.011025,0.011 0.015592,0.0468 0,0.0468 -0.015589,0 -0.015589,-0.0468 0,-0.0468 0.015592,0 0,0.0312 0,0.0468 0,0.0156 -0.011025,0.0358 0,0.0468 0.022048,0.022 0.071496,-0.022 0.093544,0 0.01103,0.011 -0.011025,0.0357 0,0.0468 0.01103,0.011 0.03575,-0.011 0.04677,0 0.01103,0.011 -0.01103,0.0358 0,0.0468 0.01103,0.011 0.04677,-0.0156 0.04677,0 0,0.0156 -0.04677,-0.0156 -0.04677,0 0,0.0441 0.09355,0.0495 0.09355,0.0935 0,0.0156 -0.04677,0.0156 -0.04677,0 0,-0.0156 0.03575,-0.011 0.04677,0 0.01103,0.011 0,0.0312 0,0.0468 0,0.0325 0.0085,0.21694 0,0.23386 -0.0099,0.0197 -0.03691,0.027 -0.04677,0.0468 -0.007,0.0139 0.01103,0.0358 0,0.0468 -0.01103,0.011 -0.03575,-0.011 -0.04677,0 -0.01103,0.011 0.01395,0.0398 0,0.0468 -0.02789,0.0139 -0.071496,-0.022 -0.093544,0 -0.015592,0.0156 0.046772,0.0247 0.046772,0.0468 0,0.0156 -0.035748,-0.011 -0.046772,0 -0.077954,0.0779 0.1714984,0.0468 -0.093544,0.0468 -0.062363,0 0.1714984,-0.0156 0.046772,0.0468 -0.1766948,0.0883 -0.090946,-0.0442 -0.046772,0 0.011025,0.011 0,0.0312 0,0.0468"
       id="path934"
       inkscape:connector-curvature="0" />
    <path
       style="fill:#e9ddaf;stroke:#000000;stroke-width:0.26458335px;stroke-linecap:butt;stroke-linejoin:miter;stroke-opacity:1"
       d="m 7.7641799,290.35835 c 0,0.21921 0,0.11957 0,0.32741 0,0.30853 0,0.40701 0,0.56126 0,0.0156 0,-0.0624 0,-0.0468 0,0.0312 0,0.0624 0,0.0935 0,0.0156 0,-0.0624 0,-0.0468 0,0.30662 0,-0.1663 0,0.14032 0,0.0156 -0.015589,-0.0468 0,-0.0468 0.015592,0 0,0.0312 0,0.0468 0,0.0156 0,0.0312 0,0.0468 0,0.0156 0.015592,0.0468 0,0.0468 -0.015589,0 -0.015589,-0.0468 0,-0.0468 0.015592,0 0,0.0312 0,0.0468 0,0.0156 0.015592,0.0468 0,0.0468 -0.015589,0 -0.013944,-0.0398 0,-0.0468 0.02789,-0.0139 0.062363,0 0.093545,0 0.015589,0 -0.062363,0 -0.046772,0 0.031181,0 0.062363,0 0.093544,0 0.015592,0 -0.035748,0.011 -0.046772,0 -0.011025,-0.011 -0.013946,-0.0398 0,-0.0468 0.027889,-0.0139 0.071496,0.0221 0.093544,0 0.015592,-0.0156 -0.024723,-0.0468 -0.046772,-0.0468 -0.015589,0 -0.013943,0.0398 0,0.0468 0.02789,0.014 0.062363,0 0.093545,0 0.015589,0 -0.035748,0.011 -0.046772,0 -0.011025,-0.011 -0.011025,-0.0357 0,-0.0468 0.022048,-0.022 0.093545,0.0312 0.093545,0 0,-0.022 -0.024723,-0.0468 -0.046772,-0.0468 -0.015592,0 -0.011025,0.0358 0,0.0468 0.011025,0.011 0.031181,0 0.046772,0 0.015592,0 0.046772,0.0156 0.046772,0 0,-0.022 -0.046772,-0.0247 -0.046772,-0.0468 0,-0.0221 0.024723,-0.0468 0.046772,-0.0468 0.022048,0 0.046772,0.0247 0.046772,0.0468 0,0.0156 -0.0398,0.0139 -0.046772,0 -0.013944,-0.0279 -0.022048,-0.0715 0,-0.0935 0.015592,-0.0156 0.027051,0.0369 0.046772,0.0468 0.013944,0.007 0.035748,0.011 0.046772,0 0.022048,-0.022 -0.031182,-0.0935 0,-0.0935 0.053408,0 0.055535,0.16956 0.1403165,0 0.00986,-0.0197 -0.068821,-0.0468 -0.046772,-0.0468 0.034862,0 0.068893,0.0221 0.093544,0.0468 0.011025,0.011 -0.062363,0 -0.046772,0 0.031181,0 0.062363,0 0.093544,0 0.012917,0 -0.1733894,0.011 0,-0.0468 0.029581,-0.01 0.071496,0.022 0.093544,0 0.015592,-0.0156 -0.068821,-0.0468 -0.046772,-0.0468 0.034862,0 0.068893,0.0221 0.093544,0.0468 0.00323,0.003 -0.1596901,0.006 0,-0.0468 0.029581,-0.01 0.071496,0.022 0.093545,0 0.015592,-0.0156 -0.068821,-0.0468 -0.046772,-0.0468 0.034862,0 0.068893,0.0221 0.093544,0.0468 0.011025,0.011 -0.057796,0.011 -0.046772,0 0.024651,-0.0247 0.068893,-0.0221 0.093544,-0.0468 0.011025,-0.011 -0.057796,0.011 -0.046772,0 0.024651,-0.0247 0.058682,-0.0468 0.093544,-0.0468 0.022048,0 -0.068821,0.0468 -0.046772,0.0468 0.034862,0 0.068893,-0.0221 0.093544,-0.0468 0.011025,-0.011 -0.057796,0.011 -0.046772,0 0.024651,-0.0247 0.058682,-0.0468 0.093544,-0.0468 0.022048,0 -0.024723,0.0468 -0.046772,0.0468 -0.015592,0 -0.011025,-0.0358 0,-0.0468 0.011025,-0.011 0.035748,0.011 0.046772,0 0.011025,-0.011 -0.015592,-0.0468 0,-0.0468 0.015592,0 0,0.0624 0,0.0468 0,-0.0312 0,-0.0624 0,-0.0935 0,-0.0156 0.015592,0.0468 0,0.0468 -0.015592,0 0,-0.0312 0,-0.0468 0,-0.0156 -0.015592,-0.0468 0,-0.0468 0.015592,0 0.015592,0.0468 0,0.0468 -0.015592,0 0.00697,-0.0328 0,-0.0468 -0.00986,-0.0197 -0.024723,-0.0468 -0.046772,-0.0468 -0.062363,0 0.077954,0.10914 -0.046772,0.0468 -0.019722,-0.01 -0.046772,-0.0247 -0.046772,-0.0468 0,-0.0156 0.062363,0 0.046772,0 -0.031182,0 -0.071496,0.0221 -0.093544,0 -0.015592,-0.0156 0.031181,-0.0624 0.046772,-0.0468 0.039531,0.0395 -0.093544,0.0597 -0.093544,0.0468 0,-0.0156 0.057796,0.011 0.046772,0 -0.024651,-0.0246 -0.068893,-0.0221 -0.093544,-0.0468 -0.011025,-0.011 0.046772,-0.0156 0.046772,0 0,0.0156 -0.031182,0 -0.046772,0 -0.015592,0 -0.046772,0.0156 -0.046772,0 0,-0.0156 0.046772,0.0156 0.046772,0 0,-0.022 -0.024723,-0.0468 -0.046772,-0.0468 -0.015592,0 0.011025,0.0358 0,0.0468 -0.011025,0.011 -0.046772,0.0156 -0.046772,0 0,-0.0156 0.046772,0.0156 0.046772,0 0,-0.0935 -0.1124487,-0.0189 -0.1403165,-0.0468 -0.011025,-0.011 0.015592,-0.0468 0,-0.0468 -0.022048,0 -0.046772,0.0247 -0.046772,0.0468 0,0.0156 0.046772,0.0156 0.046772,0 0,-0.0221 -0.031181,-0.0312 -0.046772,-0.0468 -0.015592,-0.0156 -0.024723,-0.0468 -0.046772,-0.0468 -0.015592,0 0.015589,0.0468 0,0.0468 -0.015592,0 0.011025,-0.0357 0,-0.0468 -0.011025,-0.011 -0.035748,0.011 -0.046772,0 -0.011025,-0.011 -0.015592,-0.0468 0,-0.0468 0.015592,0 0.015592,0.0468 0,0.0468 -0.022048,0 -0.046772,-0.0247 -0.046772,-0.0468 0,-0.0156 0.046772,0.0156 0.046772,0 0,-0.022 -0.024723,-0.0468 -0.046772,-0.0468 -0.015592,0 0.011025,0.0358 0,0.0468 -0.011025,0.011 -0.046772,0.0156 -0.046772,0 0,-0.022 0.056632,-0.027 0.046772,-0.0468 -0.015592,-0.0312 -0.058682,-0.0468 -0.093544,-0.0468 -0.022048,0 0.031181,0.0312 0.046772,0.0468 -0.031182,-0.0312 -0.05171,-0.0796 -0.093545,-0.0935 -0.020918,-0.007 -0.046772,0.0688 -0.046772,0.0468 0,-0.0349 0.046772,-0.0587 0.046772,-0.0936 0,-0.022 -0.024723,0.0468 -0.046772,0.0468 -0.022048,0 -0.046772,-0.0247 -0.046772,-0.0468 0,-0.0156 0.046772,0.0156 0.046772,0 0,-0.022 -0.024723,-0.0468 -0.046772,-0.0468 -0.022048,0 -0.024723,0.0468 -0.046772,0.0468 -0.015589,0 0,-0.0312 0,-0.0468 -0.062363,0.0156 -0.1247257,0.0312 -0.1870887,0.0468 z"
       id="path936"
       inkscape:connector-curvature="0" />
    <path
       style="fill:none;stroke:#000000;stroke-width:0.26458335px;stroke-linecap:butt;stroke-linejoin:miter;stroke-opacity:1"
       d="m 6.2206983,290.63899 c -0.015589,-0.0312 -0.077955,-0.078 -0.046772,-0.0935 0.031183,-0.0156 0.031181,0.0624 0.046772,0.0935 0.077954,-0.0312 0.1587664,-0.056 0.233861,-0.0935 0.013944,-0.007 -0.035748,-0.011 -0.046772,0 -0.011025,0.011 0,0.0312 0,0.0468 -0.062363,0.0156 -0.1247259,0.0312 -0.1870887,0.0468"
       id="path942"
       inkscape:connector-curvature="0" />
  </g>
</svg>
