<?xml version="1.0" encoding="UTF-8" standalone="no"?>
<!-- Created with Inkscape (http://www.inkscape.org/) -->

<svg
   xmlns:dc="http://purl.org/dc/elements/1.1/"
   xmlns:cc="http://creativecommons.org/ns#"
   xmlns:rdf="http://www.w3.org/1999/02/22-rdf-syntax-ns#"
   xmlns:svg="http://www.w3.org/2000/svg"
   xmlns="http://www.w3.org/2000/svg"
   xmlns:sodipodi="http://sodipodi.sourceforge.net/DTD/sodipodi-0.dtd"
   xmlns:inkscape="http://www.inkscape.org/namespaces/inkscape"
   width="55"
   height="60"
   viewBox="0 0 14.552083 15.875"
   version="1.1"
   id="svg8"
   inkscape:version="0.92.2 (5c3e80d, 2017-08-06)"
   sodipodi:docname="deathnote.svg">
  <defs
     id="defs2">
    <inkscape:perspective
       sodipodi:type="inkscape:persp3d"
       inkscape:vp_x="-151.2008 : 130.22719 : 1"
       inkscape:vp_y="0 : 811.41975 : 0"
       inkscape:vp_z="243.97053 : 180.79362 : 1"
       inkscape:persp3d-origin="338.28895 : 113.41407 : 1"
       id="perspective102" />
  </defs>
  <sodipodi:namedview
     id="base"
     pagecolor="#ffffff"
     bordercolor="#666666"
     borderopacity="1.0"
     inkscape:pageopacity="0.0"
     inkscape:pageshadow="2"
     inkscape:zoom="6.2330882"
     inkscape:cx="65.650992"
     inkscape:cy="24.218112"
     inkscape:document-units="mm"
     inkscape:current-layer="layer1"
     showgrid="false"
     inkscape:window-width="1366"
     inkscape:window-height="705"
     inkscape:window-x="-8"
     inkscape:window-y="-8"
     inkscape:window-maximized="1"
     units="px" />
  <metadata
     id="metadata5">
    <rdf:RDF>
      <cc:Work
         rdf:about="">
        <dc:format>image/svg+xml</dc:format>
        <dc:type
           rdf:resource="http://purl.org/dc/dcmitype/StillImage" />
        <dc:title></dc:title>
      </cc:Work>
    </rdf:RDF>
  </metadata>
  <g
     inkscape:label="Layer 1"
     inkscape:groupmode="layer"
     id="layer1"
     transform="translate(0,-281.12498)">
    <g
       sodipodi:type="inkscape:box3d"
       id="g104"
       style="fill:#ffffff"
       inkscape:perspectiveID="#perspective102"
       inkscape:corner0="1.5581421 : 0.3029003 : 0 : 1"
       inkscape:corner7="0.58830422 : -0.14986886 : 0.12420171 : 1">
      <path
         sodipodi:type="inkscape:box3dside"
         id="path106"
         style="fill:#353564;fill-rule:evenodd;stroke:none;stroke-width:0.92742103;stroke-linejoin:round"
         inkscape:box3dsidetype="6"
         d="m 40.145002,358.39292 v 143.61432 l 9.437821,-4.84685 V 360.19591 Z"
         points="40.145002,502.00724 49.582823,497.16039 49.582823,360.19591 40.145002,358.39292 " />
      <path
         sodipodi:type="inkscape:box3dside"
         id="path114"
         style="fill:#afafde;fill-rule:evenodd;stroke:none;stroke-width:0.92742103;stroke-linejoin:round"
         inkscape:box3dsidetype="13"
         d="m 40.145002,502.00724 116.838078,33.03989 6.30888,-9.98801 -113.709137,-27.89873 z"
         points="156.98308,535.04713 163.29196,525.05912 49.582823,497.16039 40.145002,502.00724 " />
      <path
         sodipodi:type="inkscape:box3dside"
         id="path116"
         style="fill:#e9e9ff;fill-rule:evenodd;stroke:none;stroke-width:0.92742103;stroke-linejoin:round"
         inkscape:box3dsidetype="11"
         d="M 49.582823,360.19591 163.29196,310.52798 V 525.05912 L 49.582823,497.16039 Z"
         points="163.29196,310.52798 163.29196,525.05912 49.582823,497.16039 49.582823,360.19591 " />
      <path
         sodipodi:type="inkscape:box3dside"
         id="path108"
         style="fill:#4d4d9f;fill-rule:evenodd;stroke:none;stroke-width:0.92742103;stroke-linejoin:round"
         inkscape:box3dsidetype="5"
         d="m 40.145002,358.39292 116.838078,-54.65276 6.30888,6.78782 -113.709137,49.66793 z"
         points="156.98308,303.74016 163.29196,310.52798 49.582823,360.19591 40.145002,358.39292 " />
      <path
         sodipodi:type="inkscape:box3dside"
         id="path112"
         style="fill:#d7d7ff;fill-rule:evenodd;stroke:none;stroke-width:0.92742103;stroke-linejoin:round"
         inkscape:box3dsidetype="14"
         d="m 156.98308,303.74016 v 231.30697 l 6.30888,-9.98801 V 310.52798 Z"
         points="156.98308,535.04713 163.29196,525.05912 163.29196,310.52798 156.98308,303.74016 " />
      <path
         sodipodi:type="inkscape:box3dside"
         id="path110"
         style="fill:#8686bf;fill-rule:evenodd;stroke:none;stroke-width:0.92742103;stroke-linejoin:round"
         inkscape:box3dsidetype="3"
         d="M 40.145002,358.39292 156.98308,303.74016 V 535.04713 L 40.145002,502.00724 Z"
         points="156.98308,303.74016 156.98308,535.04713 40.145002,502.00724 40.145002,358.39292 " />
    </g>
    <path
       style="fill:#000000;stroke-width:0.04776684"
       d="M 8.8033343,296.49762 C 7.4406637,296.07385 3.30748,294.80187 3.0648227,294.73161 l -0.194943,-0.0564 0.011685,-4.73128 0.011685,-4.73126 3.5215738,-1.79084 c 1.936866,-0.98497 3.5243423,-1.79083 3.5277256,-1.79083 0.00341,0 8.449e-4,3.41768 -0.00556,7.59484 -0.00931,6.01821 -0.023572,7.59385 -0.068725,7.59006 -0.031331,-0.003 -0.5105421,-0.14582 -1.0648987,-0.31824 z"
       id="path134"
       inkscape:connector-curvature="0" />
    <path
       style="fill:none;stroke:#000000;stroke-width:0.0167184px;stroke-linecap:butt;stroke-linejoin:miter;stroke-opacity:1"
       d="m 10.095059,281.80974 -0.02025,14.83012"
       id="path138"
       inkscape:connector-curvature="0" />
    <path
       style="fill:none;stroke:#000000;stroke-width:0.0167184px;stroke-linecap:butt;stroke-linejoin:miter;stroke-opacity:1"
       d="m 10.223015,281.94783 0.02863,14.39907"
       id="path142"
       inkscape:connector-curvature="0" />
    <path
       style="fill:#000000;stroke-width:0.0167184"
       id="path144"
       d="m 3.5421993,285.43905 c -0.011383,0.043 -0.025498,0.0848 -0.044137,0.12461 -0.017654,0.0366 -0.032812,0.0745 -0.051999,0.11026 -0.021199,0.0311 -0.038609,0.0645 -0.054836,0.0989 -0.010418,0.0226 -0.018153,0.0469 -0.030556,0.0683 -0.018345,0.0213 -0.034212,0.0442 -0.048246,0.069 -0.015456,0.0248 -0.024484,0.0516 -0.029053,0.0809 -0.0027,0.0345 -0.00709,0.0689 -0.010335,0.10339 -0.00309,0.0325 -0.00383,0.0653 -0.0042,0.0979 -3.21e-5,0.005 -4.81e-5,0.009 -7.88e-5,0.014 0,0 -0.1508952,0.0834 -0.1508952,0.0834 v 0 c 4.79e-5,-0.005 9.68e-5,-0.009 1.466e-4,-0.0141 5.138e-4,-0.0332 0.00121,-0.0666 0.00412,-0.0997 0.00326,-0.0346 0.00779,-0.0691 0.00944,-0.10383 0.00366,-0.0311 0.00959,-0.061 0.026458,-0.0873 0.012909,-0.0258 0.027431,-0.0507 0.046413,-0.0717 0.017336,-0.0163 0.022338,-0.0434 0.033035,-0.0648 0.016012,-0.0349 0.032128,-0.07 0.054743,-0.10057 0.020755,-0.0345 0.035688,-0.0726 0.052663,-0.10944 0.019789,-0.0375 0.035235,-0.0778 0.043881,-0.12009 0,0 0.1534335,-0.0792 0.1534335,-0.0792 z"
       inkscape:connector-curvature="0" />
    <path
       style="fill:#ffffff;stroke-width:0.0167184"
       id="path150"
       d="m 3.53408,285.28505 c 0.011551,0.0524 0.013415,0.10553 0.010709,0.15908 -0.00368,0.0663 -0.021615,0.13014 -0.033386,0.19498 -0.01495,0.0653 -0.029007,0.13065 -0.041071,0.19664 -0.0081,0.0757 -0.040289,0.14211 -0.077044,0.20559 -0.037569,0.0655 -0.083547,0.12465 -0.1263718,0.18607 -0.020695,0.033 -0.010776,0.0171 -0.029773,0.0477 0,0 -0.1530944,0.0724 -0.1530944,0.0724 v 0 c 0.020244,-0.0309 0.00991,-0.0146 0.030881,-0.0489 0.042135,-0.0621 0.090035,-0.11985 0.1278401,-0.18538 0.036712,-0.0609 0.070663,-0.1251 0.078303,-0.19881 0.012036,-0.066 0.02532,-0.13154 0.041127,-0.19659 0.011334,-0.0642 0.029139,-0.12736 0.034096,-0.1927 0.00302,-0.051 0.00245,-0.10229 -0.011357,-0.15173 0,0 0.1491422,-0.0884 0.1491422,-0.0884 z"
       inkscape:connector-curvature="0" />
    <path
       style="fill:#ffffff;stroke-width:0.0167184"
       id="path152"
       d="m 3.6045152,285.25463 c 0.031691,0.004 0.061393,0.015 0.088907,0.0324 0.037476,0.0234 0.054914,0.0486 0.074725,0.0896 0.017727,0.0436 0.026454,0.0901 0.032467,0.1371 0.00551,0.0438 0.00553,0.088 0.00598,0.13208 0.00245,0.0477 -0.00315,0.0946 -0.012716,0.14105 -0.011997,0.0472 -0.035945,0.088 -0.064117,0.12555 -0.035673,0.0494 -0.078602,0.0912 -0.121395,0.13291 -0.051046,0.0498 -0.1073491,0.0919 -0.1636434,0.13415 -0.047203,0.0327 -0.090174,0.0712 -0.1326746,0.11058 -0.015373,0.014 -0.031263,0.0272 -0.04748,0.04 0,0 -0.156177,0.0666 -0.156177,0.0666 v 0 c 0.016832,-0.0118 0.032649,-0.0247 0.048119,-0.0386 0.026489,-0.0227 0.050748,-0.0483 0.07793,-0.0702 0.00907,-0.007 0.018719,-0.0137 0.027998,-0.0206 0.00973,-0.007 0.019354,-0.0148 0.029032,-0.0222 0.097555,-0.0754 -0.037514,0.0282 0.059547,-0.0437 0.027892,-0.0206 0.053418,-0.044 0.079485,-0.0671 0.00793,-0.007 0.016117,-0.0138 0.024176,-0.0206 0.042072,-0.0414 0.086607,-0.0806 0.1207569,-0.13034 0.029401,-0.0338 0.053257,-0.0733 0.067263,-0.11749 0.011007,-0.0448 0.016946,-0.0904 0.014406,-0.13694 -1.151e-4,-0.0434 -6.571e-4,-0.087 -0.00474,-0.13023 -0.00515,-0.0449 -0.013689,-0.0895 -0.029756,-0.13142 -0.018299,-0.038 -0.035691,-0.0591 -0.070554,-0.0798 -0.027001,-0.015 -0.056069,-0.0237 -0.086414,-0.0263 0,0 0.1388681,-0.10644 0.1388681,-0.10644 z"
       inkscape:connector-curvature="0" />
    <path
       style="fill:#ffffff;stroke-width:0.0167184"
       id="path158"
       d="m 4.0278821,285.18272 c 0.035502,0.0162 0.054105,0.0551 0.065429,0.093 0.011869,0.0493 0.00909,0.0944 -0.00126,0.14334 -0.013409,0.0572 -0.030937,0.11288 -0.048062,0.16878 -0.018884,0.0631 -0.027321,0.12879 -0.039273,0.19355 -0.014908,0.0661 -0.021113,0.13356 -0.024673,0.20129 -0.00397,6.8e-4 0.00118,0.10066 0.00589,0.0576 0,0 -0.1358535,0.11192 -0.1358535,0.11192 v 0 c -0.00413,-0.003 -0.00896,-0.004 -0.012358,-0.008 -0.014705,-0.0158 -0.00491,-0.0616 -0.0061,-0.0807 0.00396,-0.0684 0.00882,-0.13701 0.023899,-0.20376 0.012681,-0.0651 0.020088,-0.13151 0.038279,-0.19532 0.016612,-0.0553 0.034006,-0.11032 0.047227,-0.16678 0.011309,-0.0474 0.016099,-0.0856 0.00495,-0.13416 -0.00968,-0.0338 -0.024975,-0.0671 -0.058866,-0.0771 0,0 0.1407717,-0.10382 0.1407714,-0.10382 z"
       inkscape:connector-curvature="0" />
    <path
       style="fill:#ffffff;stroke-width:0.0167184"
       id="path160"
       d="m 3.8673517,285.28364 c 0.048754,-0.0486 0.1023885,-0.0904 0.1550933,-0.13371 0.1071848,-0.0867 0.2240397,-0.15861 0.3415859,-0.22732 0.037339,-0.0217 0.074478,-0.0437 0.1113723,-0.0662 0.011897,-0.007 0.047383,-0.0295 0.035564,-0.022 -0.1276722,0.08 -0.1363686,0.086 -0.070678,0.0431 0.07574,-0.0506 0.1535712,-0.0974 0.2306535,-0.14546 0,0 -0.1289915,0.11315 -0.1289915,0.11315 v 0 c 0.2295955,-0.14522 0.1001584,-0.0643 0.051258,-0.0319 -0.1169778,0.0775 -0.2363753,0.1506 -0.3569462,0.22123 -0.013341,0.008 -0.2185548,0.13075 0.069597,-0.0452 0.011746,-0.007 -0.023026,0.0152 -0.034336,0.0231 -0.021599,0.0152 -0.043468,0.0299 -0.064696,0.0457 -0.010903,0.008 -0.021196,0.0171 -0.031795,0.0257 -0.051156,0.0421 -0.1046888,0.0813 -0.1502964,0.1307 0,0 -0.1573818,0.069 -0.1573818,0.069 z"
       inkscape:connector-curvature="0" />
    <path
       style="fill:#ffffff;stroke-width:0.0167184"
       id="path162"
       d="m 4.1192357,285.43882 c 0.033917,6.9e-4 0.067845,4.5e-4 0.1017666,4.5e-4 0.026342,-0.002 0.053773,0.004 0.079914,-0.002 0.016634,-0.004 0.032392,-0.0124 0.047651,-0.0197 0.050345,-0.0273 0.099107,-0.0579 0.1490342,-0.0863 0,0 -0.1286305,0.11228 -0.1286305,0.11228 v 0 c -0.050359,0.0286 -0.099162,0.0609 -0.1511883,0.0858 -0.00891,0.004 -0.0176,0.007 -0.026713,0.0105 -0.034551,0.0106 -0.070785,0.005 -0.1061145,0.006 -0.034398,1e-5 -0.068805,-6e-5 -0.103199,4.4e-4 0,0 0.1374805,-0.10858 0.1374805,-0.10858 z"
       inkscape:connector-curvature="0" />
    <path
       style="fill:#ffffff;stroke-width:0.0167184"
       id="path164"
       d="m 4.0046991,285.94931 c 0.03807,-6.9e-4 0.07563,0.002 0.1131602,0.009 0.054593,0.007 0.1076796,0.0225 0.162061,0.0315 0.067102,0.002 0.1322422,-0.0217 0.1946278,-0.0463 0.066314,-0.026 0.1298589,-0.059 0.19057,-0.0977 -0.2165365,0.1456 -0.090775,0.0534 -0.046231,0.0173 0,0 0.1524784,-0.066 0.1524784,-0.066 v 0 c -0.074602,0.0618 -0.1452377,0.11776 -0.2341649,0.16124 -0.061648,0.0378 -0.1260306,0.07 -0.1928925,0.0955 -0.064354,0.024 -0.1314471,0.0462 -0.2002403,0.0397 -0.05443,-0.01 -0.1080779,-0.0239 -0.1629625,-0.0306 -0.03785,-0.005 -0.075742,-0.007 -0.1138861,-0.006 0,0 0.1374804,-0.10858 0.1374804,-0.10858 z"
       inkscape:connector-curvature="0" />
    <path
       style="fill:#ffffff;stroke-width:0.0167184"
       id="path166"
       d="m 5.1447552,284.74289 c -0.020907,0.0454 -0.041545,0.0912 -0.0647,0.1354 -0.033334,0.056 -0.067241,0.11151 -0.1012791,0.16699 -0.040693,0.0709 -0.082451,0.14101 -0.1224176,0.21237 -0.042641,0.0709 -0.070675,0.14935 -0.096558,0.22873 -0.017777,0.0674 -0.039588,0.13303 -0.063317,0.19819 -0.013241,0.042 -0.029354,0.0863 -0.025115,0.13147 0,0 -0.1496677,0.0853 -0.1496677,0.0853 v 0 c -0.00579,-0.0484 0.00941,-0.0958 0.024204,-0.14094 0.047021,-0.13157 -0.026012,0.0715 0.023271,-0.0612 0.01658,-0.0446 0.027016,-0.0914 0.04109,-0.13701 0.00823,-0.0243 0.015336,-0.0493 0.023796,-0.0735 0.019293,-0.0554 0.045287,-0.10779 0.072577,-0.15895 0.039364,-0.0715 0.08105,-0.14137 0.1208977,-0.21249 0.033528,-0.055 0.066423,-0.11041 0.099932,-0.16543 0.024281,-0.0419 0.043104,-0.0874 0.063025,-0.13187 0,0 0.1542626,-0.077 0.1542626,-0.077 z"
       inkscape:connector-curvature="0" />
    <path
       style="fill:#ffffff;stroke-width:0.0167184"
       id="path168"
       d="m 5.3558811,284.57234 c 0.012214,0.0304 0.022278,0.0616 0.024581,0.0948 5.708e-4,0.0176 -0.00458,0.0297 -0.017162,0.0404 0,0 -0.1581747,0.0674 -0.1581747,0.0674 v 0 c 0.011232,-0.007 0.022635,-0.007 0.024678,-0.0235 7.91e-5,-0.031 -0.0084,-0.0601 -0.021664,-0.0876 0,0 0.1477424,-0.0914 0.1477424,-0.0914 z"
       inkscape:connector-curvature="0" />
    <path
       style="fill:#ffffff;stroke-width:0.0167184"
       id="path170"
       d="m 5.2655595,284.61813 c 0.025243,0.038 0.037826,0.0816 0.045432,0.1272 0.00832,0.0548 0.00564,0.10975 0.00234,0.16475 -0.00119,0.0428 -0.00562,0.085 -0.010718,0.12739 -0.00489,0.0458 -0.0061,0.0919 -0.00712,0.13798 -0.00115,0.0521 7.156e-4,0.10508 0.014845,0.15513 0.013912,0.0399 0.034531,0.0762 0.060773,0.1078 0.028103,0.0319 0.054947,0.0644 0.088811,0.0894 0.025206,0.0166 0.051463,0.0286 0.08063,0.0333 0,0 -0.1386472,0.10527 -0.1386472,0.10527 v 0 c -0.030285,-0.007 -0.057967,-0.0218 -0.083784,-0.0406 -0.033694,-0.0271 -0.061806,-0.0602 -0.090802,-0.093 -0.027341,-0.034 -0.048956,-0.0726 -0.064133,-0.11468 -0.014812,-0.0517 -0.016634,-0.10666 -0.016823,-0.16049 2.811e-4,-0.0465 0.00143,-0.093 0.0058,-0.13931 0.00402,-0.0424 0.010349,-0.0844 0.011942,-0.12713 0.00378,-0.0535 0.0069,-0.10717 -9.149e-4,-0.16054 -0.00655,-0.0417 -0.016578,-0.0833 -0.042518,-0.11612 0,0 0.144877,-0.0965 0.144877,-0.0965 z"
       inkscape:connector-curvature="0" />
    <path
       style="fill:#ffffff;stroke-width:0.0167184"
       id="path172"
       d="m 4.9095378,285.26453 c 0.045156,6.8e-4 0.09033,6.8e-4 0.1354954,9.1e-4 0.055337,0.003 0.1091837,-0.009 0.1616223,-0.0271 0.035629,-0.0108 0.069046,-0.0268 0.1023963,-0.044 0,0 -0.1308796,0.11298 -0.1308796,0.11298 v 0 c -0.03357,0.0162 -0.067792,0.03 -0.1030641,0.0413 -0.053713,0.0165 -0.1086897,0.0257 -0.1647209,0.023 -0.04611,9e-5 -0.092228,4e-5 -0.1383298,9.1e-4 0,0 0.1374804,-0.10857 0.1374804,-0.10857 z"
       inkscape:connector-curvature="0" />
    <path
       style="fill:#ffffff;stroke-width:0.0167184"
       id="path174"
       d="m 5.5293655,284.66043 c 0.058167,-0.0471 0.1085587,-0.10462 0.1600015,-0.15995 0.044129,-0.0426 0.085037,-0.0891 0.1302714,-0.13041 0.020679,-0.0188 0.042454,-0.036 0.064059,-0.0536 0.086006,-0.0615 0.1729902,-0.12446 0.2676423,-0.16898 0.020373,-0.01 0.042556,-0.017 0.0636,-0.0245 0.033744,-0.0137 0.070173,-0.0188 0.1042608,-0.0309 0.011463,-0.004 0.022095,-0.0106 0.033222,-0.0155 0,0 -0.1323696,0.11318 -0.1323696,0.11318 v 0 c -0.044026,0.0185 -0.091006,0.0266 -0.1355663,0.0437 -0.025175,0.01 -0.037723,0.0139 -0.061995,0.0262 -0.010489,0.006 -0.040802,0.0238 -0.030917,0.0172 0.2168322,-0.1437 0.091641,-0.0574 0.044648,-0.026 -0.012967,0.0103 -0.05309,0.042 -0.065217,0.0526 -0.046049,0.0403 -0.086042,0.088 -0.1310874,0.12952 -0.049995,0.0543 -0.099167,0.10999 -0.1529002,0.15999 0,0 -0.1576539,0.0677 -0.1576539,0.0677 z"
       inkscape:connector-curvature="0" />
    <path
       style="fill:#ffffff;stroke-width:0.0167184"
       id="path176"
       d="m 6.1180388,284.27092 c -0.028123,0.0729 -0.068986,0.13713 -0.1133216,0.19916 -0.03588,0.0534 -0.07711,0.10249 -0.1120234,0.1567 -0.019501,0.0303 -0.02687,0.0452 -0.044218,0.0769 -0.035218,0.0663 -0.050946,0.13942 -0.058428,0.21466 -0.0056,0.0606 0.015812,0.11454 0.045582,0.16407 0.025757,0.036 0.057474,0.0659 0.093625,0.0889 0.016891,0.008 0.033017,0.0177 0.050504,0.0244 0,0 -0.1407386,0.10262 -0.1407386,0.10262 v 0 c -0.017531,-0.008 -0.034371,-0.018 -0.051176,-0.0278 -0.03693,-0.0263 -0.069912,-0.0581 -0.096767,-0.0963 -0.030445,-0.0532 -0.053564,-0.1116 -0.049569,-0.17555 0.00729,-0.0777 0.022232,-0.15349 0.057486,-0.22256 0.017089,-0.0324 0.024496,-0.0479 0.043894,-0.0788 0.034333,-0.0547 0.076342,-0.10306 0.11156,-0.15708 0.043205,-0.0595 0.084759,-0.11992 0.1098798,-0.19144 0,0 0.153709,-0.0777 0.153709,-0.0777 z"
       inkscape:connector-curvature="0" />
    <path
       style="fill:#ffffff;stroke-width:0.0167184"
       id="path178"
       d="m 6.7853129,283.71854 c -0.00194,0.059 -5.995e-4,0.11804 -0.00472,0.17696 -0.014049,0.11437 -0.02304,0.22911 -0.028691,0.34431 -0.00152,0.11686 0.017891,0.23339 0.060728,0.34087 0.00668,0.0168 0.015062,0.0327 0.022592,0.049 0.032988,0.0653 0.078598,0.10378 0.1358403,0.14073 0.037172,0.0224 0.077212,0.0373 0.1168249,0.0533 0.00511,0.002 0.010233,0.004 0.015347,0.005 0,0 -0.1397233,0.10265 -0.1397233,0.10265 v 0 c -0.00508,-0.002 -0.010172,-0.004 -0.015262,-0.006 -0.040121,-0.0164 -0.080139,-0.0336 -0.1173476,-0.057 -0.058085,-0.0393 -0.1045541,-0.0847 -0.1363797,-0.15229 -0.00744,-0.0171 -0.01569,-0.0338 -0.022308,-0.0512 -0.041795,-0.11017 -0.061937,-0.22887 -0.062175,-0.34783 0.00382,-0.11426 0.010575,-0.2283 0.023088,-0.34188 0.00415,-0.0577 0.00234,-0.11547 7.676e-4,-0.17324 0,0 0.1514135,-0.0839 0.1514135,-0.0839 z"
       inkscape:connector-curvature="0" />
    <path
       style="fill:#ffffff;stroke-width:0.0167184"
       id="path180"
       d="m 6.6979931,284.38575 c 0.056739,-0.052 0.1077121,-0.11068 0.1609186,-0.16674 0.085162,-0.0888 0.1864495,-0.15652 0.2846953,-0.22653 0.1191375,-0.0838 0.2405189,-0.16337 0.3653201,-0.23689 0,0 -0.1270994,0.1113 -0.1270994,0.1113 v 0 c -0.012761,0.007 -0.050719,0.031 -0.038286,0.0228 0.03202,-0.0211 0.064123,-0.0422 0.097069,-0.0617 0.015778,-0.009 -0.030352,0.0208 -0.04551,0.0313 -0.074138,0.0511 -0.026399,0.0187 -0.103335,0.0703 -0.097012,0.0688 -0.1971523,0.13545 -0.2820438,0.22177 -0.051918,0.0548 -0.1018348,0.11166 -0.154785,0.16523 0,0 -0.156944,0.0691 -0.156944,0.0691 z"
       inkscape:connector-curvature="0" />
    <path
       style="fill:#ffffff;stroke-width:0.0167184"
       id="path182"
       d="m 7.4412298,283.32633 c 0.026956,0.0467 0.064004,0.0856 0.095612,0.12866 0.04779,0.0631 0.090762,0.13011 0.1385254,0.19313 0.052363,0.0677 0.095477,0.14197 0.1287882,0.22243 0.04358,0.11944 0.055498,0.24847 0.080577,0.37314 0.00695,0.0346 0.015047,0.0688 0.022575,0.10319 0.045235,0.19265 0.094793,0.38393 0.128806,0.57939 0.016141,0.0957 0.00724,0.19118 -0.021747,0.28286 -0.015505,0.0491 -0.028483,0.0749 -0.049015,0.1211 -0.038726,0.0821 -0.089819,0.15454 -0.1515214,0.21736 0,0 -0.1516254,0.0672 -0.1516254,0.0672 v 0 c 0.027898,-0.0261 0.040267,-0.0358 0.065143,-0.067 0.035523,-0.0445 0.064761,-0.095 0.092017,-0.14571 0.021196,-0.0453 0.034489,-0.0706 0.050787,-0.11879 0.03023,-0.0894 0.041116,-0.18254 0.027532,-0.277 -0.011973,-0.078 -0.01348,-0.0938 -0.029623,-0.17319 -0.027824,-0.13679 -0.064711,-0.2712 -0.095155,-0.4073 -0.025089,-0.10667 -0.023071,-0.0936 -0.043624,-0.19781 -0.017981,-0.0912 -0.032599,-0.18424 -0.067227,-0.27021 -0.033617,-0.0784 -0.076222,-0.1515 -0.1272419,-0.21806 -0.047876,-0.0631 -0.091621,-0.12967 -0.1399245,-0.19239 -0.032794,-0.0432 -0.070035,-0.0822 -0.1002258,-0.12766 0,0 0.1465692,-0.0934 0.1465692,-0.0934 z"
       inkscape:connector-curvature="0" />
    <path
       style="fill:#ffffff;stroke-width:0.0167184"
       id="path190"
       d="m 3.6572716,287.20872 c -0.00551,0.0495 -0.02008,0.0972 -0.032525,0.14503 -0.015387,0.058 -0.020128,0.11842 -0.026462,0.17819 -0.011003,0.0882 -0.021059,0.1768 -0.033747,0.26483 -0.027727,0.14825 -0.079145,0.28956 -0.1298813,0.42989 -0.059718,0.15175 -0.123258,0.3017 -0.1921828,0.44877 -0.037046,0.0796 -0.077455,0.15799 -0.1066975,0.2416 -0.016457,0.047 -0.018333,0.0593 -0.030053,0.10689 -0.019008,0.0891 -0.020748,0.18081 -0.025954,0.27169 5.509e-4,0.0352 -0.011868,0.084 0.011442,0.1137 0.014381,0.0109 0.025249,0.0129 0.042105,0.009 0,0 -0.1362529,0.10859 -0.1362529,0.10859 v 0 c -0.02011,-0.002 -0.036851,-0.007 -0.051398,-0.0235 -0.00295,-0.004 -0.00652,-0.008 -0.00885,-0.0133 -0.016343,-0.034 -0.00505,-0.0784 -0.00493,-0.11419 0.00752,-0.0923 0.00959,-0.18535 0.027599,-0.27624 0.01159,-0.0474 0.01429,-0.0629 0.030438,-0.10967 0.029245,-0.0847 0.070262,-0.16383 0.1084021,-0.24395 0.069762,-0.14675 0.1347625,-0.2961 0.1944661,-0.448 0.049442,-0.13845 0.099789,-0.27784 0.1264952,-0.42398 0.012541,-0.087 0.019269,-0.17488 0.030165,-0.2621 0.00633,-0.0604 0.010244,-0.12148 0.02469,-0.18042 0.011731,-0.0465 0.026944,-0.0931 0.03138,-0.14115 0,0 0.1517655,-0.0818 0.1517657,-0.0818 z"
       inkscape:connector-curvature="0" />
    <path
       style="fill:#ffffff;stroke-width:0.0167184"
       id="path192"
       d="m 3.5928019,287.44747 c 0.02256,0.0534 0.044172,0.10711 0.059718,0.16349 0.030847,0.0962 0.037878,0.19846 0.050037,0.29872 0.012397,0.11919 0.026554,0.23943 0.021932,0.35968 -8.846e-4,0.0233 -0.00354,0.0465 -0.00531,0.0698 -0.00944,0.0897 -0.03763,0.17495 -0.058816,0.26171 -0.015593,0.0639 -0.014797,0.0654 -0.026457,0.13072 -0.012818,0.0905 -0.00762,0.18222 0.019318,0.26929 0.013378,0.0432 0.026562,0.0688 0.044988,0.10901 0.039489,0.0747 0.093498,0.13826 0.1408242,0.20696 0.039677,0.0566 0.078384,0.1141 0.1230757,0.16621 0.021532,0.0209 0.047323,0.0491 0.078624,0.0503 0.00586,1.9e-4 0.011662,-9.2e-4 0.017493,-0.002 0.031968,-0.0107 0.061738,-0.0271 0.091628,-0.043 0,0 -0.1277329,0.11071 -0.1277329,0.11071 v 0 c -0.032114,0.0163 -0.064015,0.0352 -0.099787,0.0399 -0.00683,-4.4e-4 -0.013772,-3e-4 -0.020514,-0.002 -0.033309,-0.006 -0.058846,-0.0361 -0.081659,-0.0607 -0.043554,-0.0538 -0.08409,-0.11035 -0.1228389,-0.1683 -0.048007,-0.0694 -0.1014686,-0.1348 -0.1394749,-0.21173 -0.017451,-0.0398 -0.032139,-0.0704 -0.045091,-0.11267 -0.027358,-0.0893 -0.033921,-0.18325 -0.022392,-0.2764 0.010041,-0.0599 0.011177,-0.0732 0.025291,-0.13191 0.020765,-0.0863 0.050632,-0.17026 0.060894,-0.2592 0.00217,-0.023 0.00541,-0.0458 0.00655,-0.0688 0.0059,-0.1192 -0.009,-0.23864 -0.022487,-0.35657 -0.013424,-0.0987 -0.02173,-0.19934 -0.053025,-0.29381 -0.015552,-0.0542 -0.036052,-0.10654 -0.061363,-0.15638 0,0 0.1465691,-0.0934 0.1465691,-0.0934 z"
       inkscape:connector-curvature="0" />
    <path
       style="fill:#ffffff;stroke-width:0.0167184"
       id="path198"
       d="m 3.8598409,289.57634 c -0.017368,-0.0389 -0.02284,-0.0812 -0.026562,-0.12378 -0.011908,-0.097 0.01774,-0.18627 0.049079,-0.27537 0.075136,-0.17841 0.1528765,-0.35632 0.245422,-0.52503 0.025663,-0.0468 0.053338,-0.0922 0.080008,-0.13834 0.030201,-0.048 0.059302,-0.0969 0.090605,-0.14404 0.066061,-0.0995 0.1433928,-0.20303 0.2136357,-0.29886 0.1110089,-0.15145 0.2208418,-0.30356 0.3288751,-0.45753 0.1604597,-0.22976 0.3040979,-0.47235 0.448899,-0.71384 0.046134,-0.0794 0.094983,-0.15681 0.1450764,-0.23328 0,0 0.1478386,-0.0696 0.1478386,-0.0696 v 0 c -0.052222,0.0775 -0.103363,0.15573 -0.152072,0.23587 -0.1517316,0.24271 -0.3003785,0.4879 -0.4635359,0.72186 -0.1080931,0.154 -0.2180144,0.30614 -0.3288298,0.45782 -0.067062,0.0918 -0.1478755,0.20079 -0.210923,0.29638 -0.030781,0.0467 -0.059305,0.0951 -0.088958,0.14259 -0.025948,0.0455 -0.052928,0.0903 -0.077842,0.13643 -0.08938,0.16559 -0.1631013,0.34053 -0.2334035,0.5164 -0.029937,0.0873 -0.058129,0.17 -0.045777,0.26454 0.00366,0.04 0.00803,0.0805 0.026207,0.11634 0,0 -0.1477424,0.0914 -0.1477424,0.0914 z"
       inkscape:connector-curvature="0" />
    <path
       style="fill:#ffffff;stroke-width:0.0167184"
       id="path200"
       d="m 5.3029648,287.61939 c -0.047756,0.0358 -0.091486,0.0771 -0.1350261,0.11859 -0.010264,0.0101 -0.020767,0.0198 -0.030792,0.0302 -0.025494,0.0263 -0.043066,0.0478 -0.068386,0.0748 -0.050482,0.0539 -0.1031711,0.10554 -0.1553982,0.15749 -0.1294832,0.12182 -0.2506201,0.25304 -0.3586156,0.39749 -0.056716,0.0857 -0.1085957,0.1773 -0.1324552,0.28074 -0.00359,0.0155 -0.00559,0.0315 -0.00839,0.0472 -0.014323,0.0931 0.00781,0.16386 0.047797,0.24452 0.036368,0.064 0.081758,0.12204 0.1372735,0.16711 0.034392,0.0229 0.05517,0.0101 0.089585,-0.005 0.058875,-0.0259 0.029097,-0.0114 0.093559,-0.0471 0.020296,-0.0126 0.083001,-0.0296 0.060887,-0.0378 -0.023168,-0.008 -0.072074,0.0618 -0.065541,0.0362 0.00791,-0.031 0.047901,-0.0381 0.071154,-0.0581 0.071985,-0.062 0.1367583,-0.13078 0.2011478,-0.20174 0.1042242,-0.11633 0.1888035,-0.24994 0.2735329,-0.38293 0.042533,-0.0677 0.090467,-0.13178 0.1285103,-0.20282 0.013212,-0.0246 0.026188,-0.0542 0.03787,-0.0799 0.034205,-0.086 0.031674,-0.12232 -0.00852,-0.20362 -0.029105,-0.0525 -0.06843,-0.0962 -0.1075496,-0.1397 0,0 0.139147,-0.0925 0.139147,-0.0925 v 0 c 0.040286,0.0446 0.080532,0.0897 0.1111561,0.14306 0.043898,0.0856 0.050527,0.12679 0.015132,0.21923 -0.011411,0.025 -0.026216,0.0583 -0.038962,0.0822 -0.038413,0.0721 -0.087313,0.13677 -0.1310132,0.20499 -0.086352,0.13412 -0.1714736,0.26968 -0.2768156,0.38755 -0.064274,0.0714 -0.128728,0.14071 -0.200082,0.20384 -0.022766,0.0201 -0.044898,0.0414 -0.069509,0.0588 -0.066161,0.0467 -0.1346573,0.0895 -0.2024424,0.1334 -0.020751,0.0135 -0.042095,0.0258 -0.063143,0.0387 -0.036667,0.0197 -0.1122841,0.0664 -0.1559584,0.0606 -0.019955,-0.003 -0.02691,-0.01 -0.043558,-0.0206 -0.054405,-0.0497 -0.1001422,-0.10991 -0.1383084,-0.17492 -0.041817,-0.0834 -0.065642,-0.1593 -0.051929,-0.2559 0.0028,-0.0164 0.00475,-0.0331 0.0084,-0.0494 0.023873,-0.10643 0.0766,-0.20046 0.1341954,-0.28899 0.1091607,-0.14622 0.2291532,-0.27622 0.3593432,-0.40045 0.050214,-0.051 0.1012278,-0.10145 0.1500153,-0.15411 0.022635,-0.0244 0.043578,-0.0507 0.066292,-0.075 0.00975,-0.0105 0.020131,-0.0202 0.030197,-0.0303 0.025965,-0.0253 0.051758,-0.0512 0.078543,-0.0754 0.052816,-0.0479 -0.00613,0.007 0.038619,-0.0314 0.00418,-0.004 0.00789,-0.008 0.01184,-0.0118 0,0 0.1582002,-0.0673 0.1582002,-0.0673 z"
       inkscape:connector-curvature="0" />
    <path
       style="fill:#ffffff;stroke-width:0.0167184"
       id="path202"
       d="m 5.8450091,287.42302 c 0.034582,-0.0169 0.070635,-0.0296 0.1080238,-0.0364 0.035438,-0.009 0.071525,-0.0132 0.1072659,-0.0204 0.00626,-0.002 0.012685,-0.003 0.018795,-0.005 0.00629,-0.002 0.012304,-0.006 0.018256,-0.008 0.00597,-0.003 0.023246,-0.014 0.017492,-0.0104 -0.2295225,0.14334 -0.1439004,0.0914 -0.094365,0.0551 0.052156,-0.0403 0.1020651,-0.0839 0.1538516,-0.12469 0.1554707,-0.11532 0.3288733,-0.1917 0.50275,-0.26617 0.1377362,-0.0602 0.2737092,-0.12536 0.4086862,-0.19255 0.070558,-0.0395 0.1454141,-0.0639 0.2236075,-0.0762 0.047729,-0.008 0.094377,6.9e-4 0.1401483,0.0152 0.021955,0.0102 0.042076,0.0239 0.062125,0.0378 0,0 -0.141639,0.0992 -0.141639,0.0992 v 0 c -0.018952,-0.0128 -0.037869,-0.0257 -0.05904,-0.0338 -0.044077,-0.0133 -0.089125,-0.0182 -0.134623,-0.0101 -0.075718,0.0129 -0.1476841,0.0394 -0.216436,0.0764 -0.13381,0.065 -0.268213,0.12887 -0.4043819,0.18784 -0.093586,0.0408 -0.06968,0.0296 -0.1610144,0.0728 -0.023073,0.0109 -0.046174,0.0218 -0.069079,0.0331 -0.019278,0.01 -0.074055,0.0439 -0.057463,0.0295 0.02872,-0.0248 0.063,-0.0408 0.094401,-0.0614 0.011733,-0.007 -0.023602,0.0151 -0.035404,0.0228 -0.051484,0.0391 -0.1000734,0.0827 -0.1502108,0.12379 -0.079325,0.0561 -0.1567519,0.12456 -0.2508776,0.14492 -0.035726,0.006 -0.071727,0.0117 -0.1070753,0.0206 -0.036967,0.009 -0.072925,0.0222 -0.1065585,0.0414 0,0 0.132764,-0.11544 0.132764,-0.11544 z"
       inkscape:connector-curvature="0" />
    <path
       style="fill:#ffffff;stroke-width:0.0167184"
       id="path204"
       d="m 6.8274996,287.05832 c -0.030191,0.0217 -0.050201,0.0516 -0.067154,0.0856 -0.022308,0.0434 -0.038374,0.0898 -0.054278,0.13624 -0.031972,0.0856 -0.039104,0.17811 -0.04532,0.26925 -0.00562,0.10981 -0.00538,0.21985 -0.00489,0.32978 -3.71e-4,0.0765 0.00495,0.15323 -0.00408,0.22931 -0.010998,0.0652 -0.038119,0.12541 -0.064542,0.1846 -0.027329,0.0622 -0.062357,0.11978 -0.087786,0.18292 0,0 -0.1512112,0.0755 -0.1512112,0.0755 v 0 c 0.025175,-0.0646 0.059949,-0.1212 0.088113,-0.18417 0.026773,-0.0575 0.052382,-0.11686 0.066883,-0.17948 0.011068,-0.0755 0.00524,-0.15203 0.00727,-0.22822 7.676e-4,-0.11049 0.00145,-0.22099 0.00558,-0.33141 0.00466,-0.0915 0.010481,-0.18468 0.038937,-0.27175 0.016167,-0.0464 0.029527,-0.0939 0.051948,-0.13739 0.015761,-0.0351 0.032685,-0.0688 0.062675,-0.092 0,0 0.1578573,-0.0688 0.1578577,-0.0688 z"
       inkscape:connector-curvature="0" />
    <path
       style="fill:#ffffff;stroke-width:0.0167184"
       id="path206"
       d="m 8.0460214,286.36935 c 0.00361,0.0565 0.00604,0.11303 0.010495,0.16948 0.00489,0.0744 0.028123,0.14546 0.038732,0.21889 0.00277,0.0192 0.00426,0.0386 0.0064,0.0579 0.013016,0.11677 -0.010318,0.23171 -0.03318,0.34508 -0.00922,0.0457 -0.04002,0.19372 -0.049289,0.23835 -0.041361,0.18028 -0.072935,0.36277 -0.097139,0.54662 -0.00879,0.0778 -0.018672,0.15542 -0.023821,0.23363 -3.71e-4,0.007 -7.155e-4,0.0144 -0.00109,0.0216 0,0 -0.1500761,0.0818 -0.1500761,0.0818 v 0 c 5.423e-4,-0.007 0.00109,-0.0148 0.0016,-0.0222 0.00714,-0.0798 0.018407,-0.15891 0.029555,-0.23811 0.028554,-0.18572 0.064497,-0.36983 0.1061735,-0.5526 0.024473,-0.12034 0.024376,-0.11754 0.046782,-0.23677 0.020762,-0.11048 0.041796,-0.22246 0.027501,-0.33569 -0.00222,-0.0187 -0.0038,-0.0376 -0.00663,-0.0563 -0.011151,-0.0737 -0.035859,-0.14432 -0.042692,-0.21883 -0.00473,-0.0555 -0.00684,-0.11132 -0.013618,-0.16662 0,0 0.1502865,-0.0862 0.1502865,-0.0862 z"
       inkscape:connector-curvature="0" />
    <path
       style="fill:#ffffff;stroke-width:0.0167184"
       id="path210"
       d="m 8.0336139,286.38137 c 0.027353,-0.0594 0.068353,-0.10834 0.1095679,-0.15658 0.067837,-0.0775 0.1396562,-0.15047 0.2115998,-0.22333 0.068461,-0.0719 0.1334612,-0.14737 0.2029808,-0.21803 0.072672,-0.0699 0.1451167,-0.14016 0.2208538,-0.20608 0.034365,-0.0265 0.064549,-0.0591 0.099125,-0.0854 0.057087,-0.0433 0.1209645,-0.0749 0.1817805,-0.11171 0.049854,-0.0143 0.1022583,-0.0176 0.1533911,-0.0118 0.054694,0.01 0.1078762,0.0265 0.1623368,0.0374 0.027626,0.003 0.056185,0.0104 0.084117,0.006 0.00718,-6.8e-4 0.014082,-0.004 0.021123,-0.005 0,0 -0.1336888,0.10961 -0.1336888,0.10961 v 0 c -0.036587,0.005 -0.072752,0.002 -0.108852,-0.006 -0.053366,-0.0125 -0.1059042,-0.0295 -0.1602511,-0.0363 -0.050316,-0.003 -0.1020371,10e-5 -0.1495505,0.02 0.041475,-0.0266 0.0831,-0.053 0.1244362,-0.0799 0.00631,-0.004 -0.013062,0.007 -0.0193,0.0115 -0.025168,0.0169 -0.047193,0.0389 -0.070345,0.0587 -0.010929,0.009 -0.022084,0.0185 -0.03313,0.0276 -0.076459,0.065 -0.1487056,0.13556 -0.2217489,0.20498 -0.070186,0.07 -0.135079,0.14562 -0.2030921,0.21804 -0.071684,0.0725 -0.1437747,0.14465 -0.2113031,0.22185 -0.039574,0.0458 -0.079595,0.0918 -0.1051509,0.1488 0,0 -0.154897,0.0762 -0.154897,0.0762 z"
       inkscape:connector-curvature="0" />
    <path
       style="fill:#ffffff;stroke-width:0.0167184"
       id="path212"
       d="m 8.1408638,287.11525 c 0.074706,-0.009 0.2212664,-0.10868 -0.018826,0.0391 0.067618,-0.053 0.1315465,-0.11134 0.1975995,-0.1666 0.073139,-0.0608 0.1488188,-0.11718 0.2263668,-0.17101 0.093726,-0.0618 0.1835589,-0.1423 0.2929031,-0.16489 0.050062,-0.007 0.1005006,-0.006 0.1504463,6.8e-4 0.027438,0.004 0.054356,0.01 0.081331,0.016 0,0 -0.1370318,0.10359 -0.1370318,0.10359 v 0 c -0.026475,-0.006 -0.05299,-0.0123 -0.080004,-0.015 -0.049294,-0.006 -0.099283,-0.006 -0.1481091,0.005 -0.019248,0.005 -0.021974,0.005 -0.040539,0.0139 -0.00772,0.004 -0.029922,0.0158 -0.022865,0.0109 0.225955,-0.15421 0.1066797,-0.0669 0.056866,-0.0349 -0.036369,0.0246 -0.072931,0.0494 -0.1084886,0.0754 -0.04988,0.0364 -0.028694,0.0231 -0.078171,0.0626 -0.013992,0.0112 -0.028394,0.0217 -0.042594,0.0325 -0.064959,0.0542 -0.1282612,0.11048 -0.1918841,0.16642 -0.1087767,0.0679 -0.1612166,0.11508 -0.2717912,0.13765 0,0 0.1347914,-0.11142 0.1347914,-0.11142 z"
       inkscape:connector-curvature="0" />
    <path
       style="fill:#ffffff;stroke-width:0.0167184"
       id="path214"
       d="m 7.8069996,288.28484 c 0.083272,-0.0669 0.1710399,-0.11128 0.2688045,-0.13813 0.061351,-0.0179 0.1164697,-0.053 0.17172,-0.086 0.011194,-0.006 0.022458,-0.0112 0.033587,-0.0171 0.043006,-0.0226 0.085828,-0.0464 0.1277514,-0.0713 0.017056,-0.0101 0.067499,-0.0419 0.050654,-0.0314 -0.028147,0.0176 -0.056378,0.035 -0.084568,0.0525 0.097901,-0.0637 0.1919069,-0.13417 0.2812242,-0.21129 0.077804,-0.0646 0.1423977,-0.14381 0.2058521,-0.22414 0.060886,-0.0805 0.1207961,-0.16178 0.1859645,-0.2383 0.039661,-0.0442 0.074393,-0.0924 0.102231,-0.1461 0,0 0.1524478,-0.0741 0.1524478,-0.0741 v 0 c -0.00735,0.0144 -0.019186,0.0383 -0.027501,0.0515 -0.02265,0.0362 -0.050674,0.0679 -0.077235,0.10056 -0.066015,0.0755 -0.1258863,0.15667 -0.1862312,0.23756 -0.063787,0.081 -0.1273402,0.16221 -0.2055855,0.22757 -0.089348,0.0784 -0.1837749,0.14944 -0.2818896,0.21427 -0.1333532,0.0842 -0.265704,0.17041 -0.405197,0.24224 -0.056287,0.0332 -0.1128531,0.067 -0.1755005,0.0839 -0.023862,0.007 -0.04772,0.0152 -0.071016,0.0246 -0.00742,0.003 -0.028724,0.0141 -0.022024,0.01 0.052926,-0.0362 0.1775767,-0.11216 0.1147135,-0.0737 0,0 -0.1582001,0.0673 -0.1582001,0.0673 z"
       inkscape:connector-curvature="0" />
  </g>
</svg>
