<?xml version="1.0" encoding="UTF-8" standalone="no"?>
<!-- Created with Inkscape (http://www.inkscape.org/) -->

<svg
   xmlns:dc="http://purl.org/dc/elements/1.1/"
   xmlns:cc="http://creativecommons.org/ns#"
   xmlns:rdf="http://www.w3.org/1999/02/22-rdf-syntax-ns#"
   xmlns:svg="http://www.w3.org/2000/svg"
   xmlns="http://www.w3.org/2000/svg"
   xmlns:sodipodi="http://sodipodi.sourceforge.net/DTD/sodipodi-0.dtd"
   xmlns:inkscape="http://www.inkscape.org/namespaces/inkscape"
   width="55"
   height="60"
   viewBox="0 0 14.552083 15.875"
   version="1.1"
   id="svg8"
   inkscape:version="0.92.2 (5c3e80d, 2017-08-06)"
   sodipodi:docname="drawing.svg">
  <defs
     id="defs2" />
  <sodipodi:namedview
     id="base"
     pagecolor="#ffffff"
     bordercolor="#666666"
     borderopacity="1.0"
     inkscape:pageopacity="0.0"
     inkscape:pageshadow="2"
     inkscape:zoom="11.2"
     inkscape:cx="32.862032"
     inkscape:cy="35.278508"
     inkscape:document-units="mm"
     inkscape:current-layer="layer1"
     showgrid="false"
     units="px"
     inkscape:window-width="1366"
     inkscape:window-height="705"
     inkscape:window-x="-8"
     inkscape:window-y="-8"
     inkscape:window-maximized="1" />
  <metadata
     id="metadata5">
    <rdf:RDF>
      <cc:Work
         rdf:about="">
        <dc:format>image/svg+xml</dc:format>
        <dc:type
           rdf:resource="http://purl.org/dc/dcmitype/StillImage" />
        <dc:title></dc:title>
      </cc:Work>
    </rdf:RDF>
  </metadata>
  <g
     inkscape:label="Layer 1"
     inkscape:groupmode="layer"
     id="layer1"
     transform="translate(0,-281.12498)">
    <path
       style="fill:none;stroke:#000000;stroke-width:0.26458332px;stroke-linecap:butt;stroke-linejoin:miter;stroke-opacity:1"
       d="m -0.37797618,280.18004 -1.84263392,18.2846"
       id="path12"
       inkscape:connector-curvature="0" />
    <path
       style="fill:none;stroke:#000000;stroke-width:0.26458332px;stroke-linecap:butt;stroke-linejoin:miter;stroke-opacity:1"
       d="m 16.158482,298.98435 c -0.05107,0.20427 0.01769,0.18899 -0.09449,0.18899 -0.0315,0 -0.06632,0.0141 -0.09449,0 -0.01409,-0.007 0.007,-0.0332 0,-0.0472 -0.02539,-0.0508 -0.05434,-0.10159 -0.09449,-0.14175 -0.04015,-0.0401 -0.106269,-0.0502 -0.141741,-0.0945 -0.03111,-0.0389 -0.0315,-0.0945 -0.04725,-0.14174 -0.04725,-0.0472 -0.09449,-0.0945 -0.141741,-0.14174"
       id="path14"
       inkscape:connector-curvature="0" />
    <path
       style="fill:none;stroke:#000000;stroke-width:0.26458332px;stroke-linecap:butt;stroke-linejoin:miter;stroke-opacity:1"
       d="m -2.2206101,298.46464 c 0.031498,-0.0787 0.015748,-0.26774 0.094494,-0.23624 0.078746,0.0315 -0.062996,0.15749 -0.094494,0.23624"
       id="path16"
       inkscape:connector-curvature="0" />
    <path
       style="fill:none;stroke:#000000;stroke-width:0.26458332px;stroke-linecap:butt;stroke-linejoin:miter;stroke-opacity:1"
       d="M 15.54428,298.60641 -2.2206101,298.46464"
       id="path18"
       inkscape:connector-curvature="0" />
    <path
       style="fill:none;stroke:#000000;stroke-width:0.26458332px;stroke-linecap:butt;stroke-linejoin:miter;stroke-opacity:1"
       d="m -0.37797618,280.18004 c -0.047247,0.0157 -0.12599225,0.0945 -0.14174107,0.0472 -0.0157488,-0.0472 0.0962308,-0.027 0.14174107,-0.0472 0.096542,-0.0429 0.18730411,-0.098 0.28348213,-0.14174 0.07720907,-0.0351 0.16209696,-0.0533 0.23623512,-0.0945 0.17869231,-0.0993 0.14599404,-0.16259 0.33072917,-0.18898 0.0623629,-0.009 0.12599206,0 0.18898808,0 0.23623514,0 0.47247028,0 0.70870538,0 0.8346974,0 1.6693947,0 2.5040922,0 0.1732391,0 0.3464782,0 0.5197173,0 0.141741,0 0.2847255,0.0187 0.4252232,0 0.098732,-0.0132 0.1848776,-0.0804 0.283482,-0.0945 0.5569606,-0.0796 0.1904476,0.0812 0.6614584,-0.0472 0.081823,-0.0223 0.1557763,-0.0677 0.236235,-0.0945 0.061603,-0.0205 0.1293038,-0.0217 0.1889882,-0.0472 0.052193,-0.0224 0.087142,-0.0789 0.141741,-0.0945 0.060572,-0.0173 0.1266253,0.009 0.1889882,0 0.049302,-0.007 0.092905,-0.0375 0.141741,-0.0473 0.077216,-0.0154 0.1585616,0.0129 0.2362353,0 0.049125,-0.008 0.092905,-0.0375 0.141741,-0.0472 0.030886,-0.006 0.065249,0.0117 0.094494,0 0.052722,-0.0211 0.087142,-0.0789 0.141741,-0.0945 0.060572,-0.0173 0.1263046,0.006 0.1889881,0 0.131635,-0.0132 0.6715641,-0.12858 0.8031994,-0.14174 0.1410377,-0.0141 0.284453,0.0166 0.4252232,0 0.1289801,-0.0152 0.251559,-0.0648 0.3779761,-0.0945 0.1413391,-0.0333 0.2816309,-0.073 0.4252232,-0.0945 1.7662575,-0.26494 -0.5698794,0.16123 0.9449405,-0.14174 0.17266,-0.0345 0.351064,-0.0439 0.519718,-0.0945 0.148568,-0.0446 0.278073,-0.13994 0.425223,-0.18899 0.09088,-0.0303 0.1926,-0.017 0.283482,-0.0472 0.14715,-0.0491 0.278722,-0.13803 0.425223,-0.18899 0.216582,-0.0753 0.443917,-0.11647 0.661458,-0.18898 0.07549,-0.0252 0.735575,-0.32281 0.755953,-0.33073 0.139249,-0.0542 0.288341,-0.0819 0.425223,-0.14174 0.336231,-0.14711 0.26814,-0.16301 0.519717,-0.33073 0.07641,-0.0509 0.159827,-0.0908 0.236235,-0.14174 0.06552,-0.0437 0.124911,-0.096 0.188988,-0.14175 0.04621,-0.033 0.101589,-0.0543 0.141741,-0.0945 0.0249,-0.0249 0.02235,-0.0696 0.04725,-0.0945 0.04015,-0.0402 0.09631,-0.0604 0.141741,-0.0945 0.105834,-0.0794 -0.01701,-0.0227 0.141741,-0.14174 0.02817,-0.0211 0.063,-0.0315 0.09449,-0.0473 0.0315,-0.0157 0.06519,-0.0277 0.09449,-0.0472 0.01107,-0.007 0.05843,-0.0833 0.09449,-0.0473 0.01114,0.0111 0,0.0315 0,0.0473 0,0.0472 0,0.0945 0,0.14174 0,0.0158 0.005,0.0323 0,0.0473 -0.01114,0.0334 -0.04034,0.06 -0.04725,0.0945 -0.0093,0.0463 0.02113,0.0995 0,0.14174 -0.02988,0.0598 -0.107364,0.0845 -0.141741,0.14174 -0.01621,0.027 0,0.063 0,0.0945 -0.01575,0.0472 -0.01962,0.1003 -0.04725,0.14174 -0.03706,0.0556 -0.09897,0.0904 -0.141741,0.14174 -0.03635,0.0436 -0.05902,0.0974 -0.09449,0.14174 -0.288521,0.36065 0.194552,-0.35853 -0.236236,0.33073 -0.01403,0.0224 -0.131115,0.1831 -0.141741,0.23623 -0.0093,0.0463 0,0.0945 0,0.14174 0,0.11025 0,0.22049 0,0.33073 0,0.0498 -0.0092,0.30769 0,0.33073 0.01654,0.0414 0.07795,0.0531 0.09449,0.0945 0.01755,0.0439 -0.0078,0.0951 0,0.14174 0.02363,0.14178 0.111926,0.26238 0.188988,0.37797 0.0315,0.0472 0.063,0.0945 0.0945,0.14175 0.0315,0.0472 0.05434,0.10158 0.09449,0.14174 0.174314,0.17431 0.128678,0.004 0.283482,0.23623 0.05525,0.0829 0.03924,0.20061 0.09449,0.28348 0.03706,0.0556 0.102904,0.0874 0.141741,0.14174 0.11254,0.0797 0.07521,0.23094 0.141741,0.33073 0.103525,0.15529 0.152746,0.12729 0.283482,0.23624 0.339125,0.2826 -2.62e-4,-3.9e-4 0.188988,0.28348 0.03706,0.0556 0.104677,0.0861 0.141741,0.14174 0.02763,0.0414 0.02875,0.0955 0.04725,0.14174 0.01308,0.0327 0.04034,0.06 0.04725,0.0945 0.0092,0.0458 0,0.32191 0,0.37797 0,0.0952 0.01129,0.41041 0,0.47247 -0.01782,0.098 -0.07812,0.18524 -0.09449,0.28349 -0.01968,0.11811 0.01312,0.34122 0,0.47247 -0.0095,0.0953 -0.03667,0.18827 -0.04725,0.28348 -0.0052,0.047 0,0.0945 0,0.14174 0,0.11024 0,0.22049 0,0.33073 0,0.0473 0,0.0945 0,0.14174 0,0.0472 -0.01755,0.0979 0,0.14174 0.01655,0.0414 0.07795,0.0531 0.09449,0.0945 0.01487,0.0372 -0.0094,0.32185 0,0.37798 0.04096,0.24578 0.06668,0.0555 0.188988,0.33073 0.03261,0.0734 0.02919,0.15799 0.04725,0.23624 0.0292,0.12654 0.05127,0.25551 0.09449,0.37797 0.05162,0.14627 0.132769,0.28066 0.188988,0.42522 0.05415,0.13925 0.08186,0.28835 0.141742,0.42523 0.216841,0.49564 0.152641,0.15627 0.330729,0.61421 0.0722,0.18566 0.125992,0.37798 0.188988,0.56696 0.04725,0.14174 0.07856,0.28984 0.141741,0.42523 0.04803,0.10291 0.140962,0.18057 0.188988,0.28348 0.06318,0.13539 0.08759,0.28597 0.141741,0.42522 3.9e-5,1e-4 0.377625,0.84964 0.377976,0.85045 0.04808,0.10988 0.09963,0.21842 0.141741,0.33073 0.05246,0.13989 0.08186,0.28834 0.141741,0.42522 0.05089,0.11633 0.128791,0.21893 0.188988,0.33073 0.05009,0.093 0.08314,0.19558 0.141742,0.28348 0.03706,0.0556 0.09449,0.0945 0.141741,0.14174 0.145298,0.1453 0.325298,0.28928 0.425223,0.47247 0.05743,0.1053 0.08431,0.22544 0.141741,0.33073 0.03771,0.0691 0.09806,0.12347 0.141741,0.18899 0.05094,0.0764 0.0908,0.15983 0.141741,0.23624 0.04368,0.0655 0.09806,0.12346 0.141741,0.18898 0.05094,0.0764 0.08198,0.16652 0.141741,0.23624 0.03695,0.0431 0.101589,0.0543 0.141741,0.0945 0.04015,0.0402 0.063,0.0945 0.09449,0.14174 0.0315,0.0473 0.0691,0.091 0.09449,0.14174 0.02227,0.0445 0.02497,0.0972 0.04725,0.14175 0.01,0.0199 0.0315,0.0315 0.04725,0.0472 0.0315,0.0315 0.07158,0.0563 0.09449,0.0945 0.02562,0.0427 0.03906,0.0926 0.04725,0.14174 0.0078,0.0466 0,0.0945 0,0.14174 0,0.0945 0,0.18899 0,0.28348 0,0.0315 0,0.063 0,0.0945 0,0.0472 0.01494,0.0969 0,0.14174 -0.01796,0.0539 -0.0734,0.089 -0.09449,0.14174 -0.09003,0.22506 0.152303,-0.0631 -0.04725,0.23623 -0.03706,0.0556 -0.10165,0.0883 -0.141741,0.14174 -0.0094,0.0126 0.0038,0.032 0,0.0473 -0.01208,0.0483 -0.02497,0.0972 -0.04725,0.14174 -0.01,0.0199 -0.03729,0.0273 -0.04725,0.0472 -0.007,0.0141 0.01409,0.0402 0,0.0473 -0.02817,0.0141 -0.06632,-0.0141 -0.09449,0 -0.0097,0.005 0.0072,0.0659 0,0.0945 -0.01208,0.0483 -0.03517,0.0934 -0.04725,0.14174 -0.0038,0.0153 0.007,0.0332 0,0.0473 -0.01,0.0199 -0.03489,0.0287 -0.04725,0.0472 -0.03907,0.0586 -0.05542,0.13039 -0.09449,0.18899 -0.01235,0.0185 -0.0315,0.0315 -0.04725,0.0473 -0.04725,0.0473 -0.09449,0.0945 -0.141741,0.14174 -0.01575,0.0158 -0.04184,0.0256 -0.04725,0.0473 -0.01146,0.0458 0.01146,0.0959 0,0.14174 -0.0054,0.0216 -0.0315,0.0315 -0.04725,0.0472 -0.0315,0.0315 -0.05743,0.0698 -0.09449,0.0945 -0.0293,0.0195 -0.06959,0.0224 -0.09449,0.0473 -0.0498,0.0498 -0.03815,0.14673 -0.09449,0.18899 -0.03984,0.0299 -0.102852,0.0161 -0.141741,0.0472 -0.04434,0.0355 -0.05434,0.10159 -0.09449,0.14174 -0.135404,0.13541 -0.129774,0.0649 -0.283483,0.14174 -0.03984,0.0199 -0.05886,0.0678 -0.09449,0.0945 -0.04543,0.0341 -0.09095,0.0691 -0.141742,0.0945 -0.02817,0.0141 -0.06632,-0.0141 -0.09449,0 -0.01992,0.01 -0.02733,0.0373 -0.04725,0.0473 -0.01409,0.007 -0.03611,-0.0111 -0.04725,0 -0.01114,0.0111 0.01114,0.0361 0,0.0473 -0.01114,0.0111 -0.03197,-0.004 -0.04725,0 -0.04832,0.0121 -0.09449,0.0315 -0.141741,0.0472 -0.04725,0.0158 -0.09904,0.0216 -0.141741,0.0473 -0.0382,0.0229 -0.05313,0.0779 -0.09449,0.0945 -0.04387,0.0175 -0.09514,-0.008 -0.141741,0 -0.04913,0.008 -0.09291,0.0375 -0.141741,0.0472 -0.03089,0.006 -0.063,0 -0.09449,0 -0.04725,0 -0.09449,0 -0.141741,0 -0.0315,0 -0.06525,-0.0117 -0.09449,0 -0.05272,0.0211 -0.09095,0.0691 -0.141741,0.0945 -0.02817,0.0141 -0.06632,-0.0141 -0.09449,0 -0.01992,0.01 -0.02612,0.0402 -0.04725,0.0472 -0.02988,0.01 -0.06632,-0.0141 -0.09449,0 -0.01409,0.007 0.01114,0.0361 0,0.0472 -0.02227,0.0223 -0.06632,-0.0141 -0.09449,0 -0.01992,0.01 -0.02733,0.0373 -0.04725,0.0473 -0.04454,0.0223 -0.106525,0.012 -0.141741,0.0472 -0.119708,0.11971 -0.02591,0.10363 -0.04725,0.18899 -0.01208,0.0483 -0.02163,0.099 -0.04725,0.14174 -0.02292,0.0382 -0.07158,0.0563 -0.09449,0.0945 -0.144059,0.0334 -0.01821,0.13091 -0.04725,0.18899 -0.01,0.0199 -0.03729,0.0273 -0.04725,0.0472 -0.007,0.0141 0,0.0315 0,0.0472 -0.01575,0.0315 -0.02771,0.0652 -0.04725,0.0945 -0.01235,0.0185 -0.03729,0.0273 -0.04725,0.0473 -0.007,0.0141 0,0.0315 0,0.0472 0,0.0158 0,0.0315 0,0.0472 0,0.0787 0,0.15749 0,0.23624 0,0.0158 0.01114,0.0361 0,0.0473 -0.01114,0.0111 -0.03611,-0.0111 -0.04725,0 -0.01114,0.0111 0.01409,0.0402 0,0.0472 -0.02817,0.0141 -0.06461,-0.01 -0.09449,0 -0.02113,0.007 -0.02733,0.0373 -0.04725,0.0473 -0.01709,0.009 -0.203373,0 -0.236235,0 -0.01987,0 -0.269427,0.007 -0.283482,0 -0.03984,-0.0199 -0.05223,-0.0804 -0.09449,-0.0945 -0.02988,-0.01 -0.06829,0.0175 -0.09449,0 -0.172639,-0.1151 0.05066,-0.0692 -0.09449,-0.14174 -0.03263,-0.0163 -0.219651,0.0166 -0.236235,0 -0.01114,-0.0111 0.01409,-0.0402 0,-0.0473 -0.04226,-0.0211 -0.09948,0.0211 -0.141741,0 -0.01992,-0.01 -0.02733,-0.0373 -0.04725,-0.0473 -0.02817,-0.0141 -0.07222,0.0223 -0.09449,0 -0.01114,-0.0111 0.01114,-0.0361 0,-0.0472 -0.01114,-0.0111 -0.0315,0 -0.04725,0 -0.01575,0 -0.03611,-0.0111 -0.04725,0 -0.01114,0.0111 0,0.0315 0,0.0472 0,0.0945 0,0.18899 0,0.28348 0,0.0158 0,0.0315 0,0.0473 0,0.0158 -0.01196,0.0575 0,0.0473 0.118377,-0.10145 0.220493,-0.22047 0.330739,-0.3307"
       id="path20"
       inkscape:connector-curvature="0" />
    <path
       style="fill:none;stroke:#000000;stroke-width:0.26458332px;stroke-linecap:butt;stroke-linejoin:miter;stroke-opacity:1"
       d="m -0.37797618,280.18004 c 0.047247,0.22049 0.094494,0.44097 0.14174106,0.66146 -0.015749,0.0158 -0.0372865,0.0273 -0.047247,0.0472 -0.0251984,0.0504 0.0467722,0.0632 -0.047247,0.0945 -0.0298816,0.01 -0.0663214,-0.0141 -0.0944941,0 -0.0140864,0.007 0.007043,0.0332 0,0.0472 -0.00996,0.0199 -0.0348925,0.0287 -0.047247,0.0472 -0.0895061,-0.005 -0.031498,0.11025 -0.047247,0.14174 -0.0199211,0.0399 -0.074573,0.0547 -0.0944941,0.0945 -0.031498,0.063 0.047247,0.0473 -0.047247,0.0473"
       id="path22"
       inkscape:connector-curvature="0" />
    <path
       style="fill:none;stroke:#000000;stroke-width:0.26458332px;stroke-linecap:butt;stroke-linejoin:miter;stroke-opacity:1"
       d="m 0.56696427,280.32178 c -0.56803476,0.56804 -0.0893826,0.0396 -0.28348212,0.33073 -0.0123545,0.0185 -0.031498,0.0315 -0.047247,0.0473 -0.015749,0.0157 -0.031498,0.0315 -0.047247,0.0472 -0.015749,0.0157 -0.0372865,0.0273 -0.047247,0.0472 -0.007043,0.0141 0.007043,0.0332 0,0.0473 -0.0199211,0.0398 -0.06978497,0.0574 -0.09449405,0.0945 -0.01953424,0.0293 -0.03611079,0.0611 -0.04724702,0.0945 -0.00498027,0.0149 0.01408634,0.0402 0,0.0472 -0.02817268,0.0141 -0.06632137,-0.0141 -0.09449405,0 -0.01408633,0.007 0.0070432,0.0332 0,0.0473 -0.0099605,0.0199 -0.03149801,0.0315 -0.04724702,0.0473 -0.015749,0.0157 -0.0273259,0.0373 -0.047247,0.0472 -0.12599207,0 0.015749,-0.0157 -0.047247,0.0473 -0.0111362,0.0111 -0.0361108,-0.0111 -0.047247,0 -0.0111363,0.0111 0.0111363,0.0361 0,0.0472 -0.0111363,0.0111 -0.0402038,-0.0141 -0.047247,0 -0.0140864,0.0282 0.009961,0.0646 0,0.0945 -0.0180906,0.0543 -0.11279878,0.0656 -0.14174108,0.0945 -0.0111363,0.0111 0.007043,0.0332 0,0.0472 -0.009961,0.0199 -0.0372865,0.0273 -0.047247,0.0472 -0.007043,0.0141 0.0111363,0.0361 0,0.0473 -0.0111363,0.0111 -0.0361108,-0.0111 -0.047247,0 -0.0111363,0.0111 0.0111363,0.0361 0,0.0472 -0.0111363,0.0111 -0.0361108,-0.0111 -0.047247,0 -0.0111363,0.0111 0.0111363,0.0361 0,0.0473 -0.0111363,0.0111 -0.0402038,-0.0141 -0.047247,0 -0.0450725,0.0901 0.0541436,0.091 -0.047247,0.14174 -0.0140864,0.007 -0.0361108,-0.0111 -0.047247,0 -0.0111363,0.0111 0.0111363,0.0361 0,0.0473 -0.031498,0.0158 -0.062996,0.0315 -0.094494,0.0473 0,0.0157 0.0111363,0.0361 0,0.0472 -0.0111363,0.0111 -0.0361108,-0.0111 -0.0472471,0 -0.0111363,0.0111 -0.0140864,0.0402 0,0.0473 0.0281727,0.0141 0.0629961,0 0.0944941,0 0.0157491,0 0.0441587,0.0154 0.047247,0 0.0467397,-0.23372 0.062996,-0.47252 0.0944941,-0.70878"
       id="path24"
       inkscape:connector-curvature="0" />
    <path
       style="fill:none;stroke:#000000;stroke-width:0.26458332px;stroke-linecap:butt;stroke-linejoin:miter;stroke-opacity:1"
       d="m 14.174107,280.79425 c 0.118548,-0.0517 0.21226,-0.0472 0.330729,-0.0472 0.01575,0 0.03414,-0.009 0.04725,0 0.03706,0.0247 0.06978,0.0574 0.09449,0.0945 0.0087,0.0131 0,0.0315 0,0.0472 0,0.0315 0,0.063 0,0.0945 0,0.063 0,0.12599 0,0.18899 0,0.0945 0,0.18899 0,0.28348 0,0.0315 0,0.063 0,0.0945 0,0.0315 -0.01,0.0646 0,0.0945 0.007,0.0211 0.0402,0.0261 0.04725,0.0472 0,0.21509 -0.02227,0.003 0.04725,0.14175 0.007,0.0141 -0.0038,0.032 0,0.0472 0.01208,0.0483 0.03517,0.0934 0.04725,0.14174 0.0038,0.0153 -0.01114,0.0361 0,0.0473 0.01114,0.0111 0.03611,-0.0111 0.04725,0 0.01114,0.0111 -0.01114,0.0361 0,0.0472 0.0249,0.0249 0.06519,0.0277 0.09449,0.0472 0.01853,0.0124 0.02733,0.0373 0.04725,0.0473 0.01409,0.007 0.03611,-0.0111 0.04725,0 0.0249,0.0249 0.02771,0.0652 0.04725,0.0945 0.01235,0.0185 0.03729,0.0273 0.04725,0.0472 0.007,0.0141 -0.007,0.0332 0,0.0472 0.05223,0.10447 0.02932,0.0147 0.09449,0.0473 0.01992,0.01 0.0315,0.0315 0.04725,0.0472 0.04725,0 0.0959,-0.0115 0.141741,0 0.04322,0.0108 0.05128,0.0837 0.09449,0.0945 0.04584,0.0115 0.102429,-0.0262 0.141741,0 0,0.18899 -0.0315,0.0551 0.04725,0.0945 0.01992,0.01 0.02733,0.0373 0.04725,0.0473 0.01409,0.007 0.03611,-0.0111 0.04725,0 0.01114,0.0111 -0.01114,0.0361 0,0.0473 0.01114,0.0111 0.03611,-0.0111 0.04725,0 0.01114,0.0111 0.01575,0.0472 0,0.0472 -0.01575,0 0,-0.0315 0,-0.0472"
       id="path26"
       inkscape:connector-curvature="0" />
    <path
       style="fill:none;stroke:#000000;stroke-width:0.26458332px;stroke-linecap:butt;stroke-linejoin:miter;stroke-opacity:1"
       d="m -0.51971725,296.48026 c 0.062996,0.0158 0.12493678,0.0366 0.18898809,0.0473 0.0310694,0.005 0.0646124,-0.01 0.094494,0 0.0211295,0.007 0.0273259,0.0373 0.047247,0.0473 0.0140863,0.007 0.0331607,-0.007 0.047247,0 0.0199211,0.01 0.0273259,0.0373 0.04724702,0.0472 0.01408634,0.007 0.0361108,-0.0111 0.04724703,0 0.01113623,0.0111 -0.01113624,0.0361 0,0.0472 0.01113623,0.0111 0.03611079,-0.0111 0.04724702,0 0.01940771,0.0194 0.04625239,0.12968 0.09449405,0.14174 0.04583634,0.0115 0.09590472,-0.0115 0.14174107,0 0.13108719,0.0328 -0.004162,0.0431 0.047247,0.0945 0.0111363,0.0111 0.0331607,-0.007 0.047247,0 0.019921,0.01 0.0273259,0.0373 0.047247,0.0472 0.0140864,0.007 0.0323062,-0.005 0.047247,0 0.0334087,0.0111 0.0610854,0.0361 0.094494,0.0473 0.0149408,0.005 0.0361108,-0.0111 0.047247,0 0.0111363,0.0111 -0.0111363,0.0361 0,0.0473 0.0222724,0.0223 0.0722216,-0.0223 0.0944941,0 0.1843926,0.18439 -0.0109366,0.0254 0.047247,0.14174 0.009961,0.0199 0.031498,0.0315 0.047247,0.0472 0.0157491,0.0157 0.0287152,0.0349 0.047247,0.0472 0.0293014,0.0195 0.0695927,0.0224 0.0944941,0.0473 0.0111363,0.0111 -0.007043,0.0332 0,0.0472 0.019921,0.0398 0.069785,0.0574 0.094494,0.0945 0.015749,0.0315 0.031498,0.063 0.047247,0.0945 0,0.0158 -0.00704,0.0332 0,0.0473 0.098315,0.19663 -0.00326,-0.0505 0.094494,0.0473 0.011136,0.0111 -0.00704,0.0332 0,0.0472 0.00996,0.0199 0.037286,0.0273 0.047247,0.0472 0.00704,0.0141 -0.011136,0.0361 0,0.0473 0.024901,0.0249 0.069593,0.0224 0.094494,0.0473 0.1843926,0.18439 -0.010937,0.0254 0.047247,0.14174 0.019921,0.0398 0.074573,0.0547 0.094494,0.0945 0.00704,0.0141 -0.00382,0.032 0,0.0473 0.012079,0.0483 0.024975,0.0972 0.047247,0.14174 0.019921,0.0398 0.074573,0.0547 0.094494,0.0945 0.00704,0.0141 -0.014086,0.0402 0,0.0473 0.028173,0.0141 0.066321,-0.0141 0.094494,0 0.014086,0.007 -0.011136,0.0361 0,0.0472 0.011136,0.0111 0.036111,-0.0111 0.047247,0 0.011136,0.0111 -0.011136,0.0361 0,0.0472 0.011136,0.0111 0.036111,-0.0111 0.047247,0 0.011136,0.0111 -0.011136,0.0361 0,0.0472 0.011136,0.0111 0.040204,-0.0141 0.047247,0 0.014086,0.0282 -0.014086,0.0663 0,0.0945 0.014086,0.0282 0.066321,-0.0141 0.094494,0 0.019921,0.01 0.026118,0.0402 0.047247,0.0472 0.059763,0.0199 0.1272154,-0.0124 0.188988,0 0.2611365,0.0522 0.058907,0.0472 0.1889881,0.0472"
       id="path28"
       inkscape:connector-curvature="0" />
    <path
       style="fill:none;stroke:#000000;stroke-width:0.26458332px;stroke-linecap:butt;stroke-linejoin:miter;stroke-opacity:1"
       d="m 15.260789,296.38577 c -0.07875,-0.0472 -0.154099,-0.10067 -0.236236,-0.14174 -0.0039,-0.002 -0.135661,-0.002 -0.141741,0 -0.03341,0.0111 -0.0618,0.0342 -0.09449,0.0472 -0.04624,0.0185 -0.09342,0.0352 -0.141741,0.0473 -0.01528,0.004 -0.03316,-0.007 -0.04725,0 -0.116085,0.058 -0.19443,0.14718 -0.283482,0.23624 -0.01575,0.0157 -0.02872,0.0349 -0.04725,0.0472 -0.02481,0.0165 -0.126265,0.0481 -0.141741,0.0945 -0.06819,0.20456 0.09032,-0.0174 -0.04725,0.18899 -0.03634,0.0545 -0.105397,0.0872 -0.141741,0.14174 -0.01953,0.0293 -0.02235,0.0696 -0.04725,0.0945 -0.0249,0.0249 -0.06959,0.0223 -0.09449,0.0472 -0.04128,0.0413 -0.07604,0.19933 -0.09449,0.23623 -0.01,0.0199 -0.04185,0.0256 -0.04725,0.0472 -0.01146,0.0458 0.01755,0.0979 0,0.14174 -0.01654,0.0414 -0.06978,0.0574 -0.09449,0.0945 -0.0087,0.0131 0,0.0315 0,0.0472 0,0.0473 0.01146,0.0959 0,0.14174 -0.0054,0.0216 -0.03729,0.0273 -0.04725,0.0473 -0.0063,0.0126 0,0.26211 0,0.28348"
       id="path30"
       inkscape:connector-curvature="0" />
    <path
       style="fill:#000000;stroke-width:0.17857143"
       d="m 60.708192,66.184014 c -0.294643,-0.244231 -0.719099,-0.446947 -0.943236,-0.450479 -0.224136,-0.0035 -0.696004,-0.126957 -1.048593,-0.274279 -0.674409,-0.281785 -1.668943,-0.361601 -1.668804,-0.133928 4.5e-5,0.07366 -2.95308,0.111327 -6.5625,0.0837 C 5.0061308,65.060955 6.7095815,65.085599 6.3616008,64.770681 6.1800504,64.60638 5.9239004,64.145894 5.7923784,63.747378 5.6608565,63.348864 5.4273956,62.928149 5.2735766,62.81246 5.1197577,62.696769 4.7126558,62.180394 4.3689058,61.664958 4.0251558,61.149524 3.681649,60.727649 3.6055574,60.727458 3.5294657,60.72728 3.3899199,60.523828 3.2954552,60.275367 3.1865825,59.98901 2.8358291,59.700224 2.3374045,59.486574 1.9049413,59.301199 1.4973341,59.062521 1.4316107,58.956178 c -0.065723,-0.106343 -0.2726414,-0.19335 -0.45981799,-0.19335 -0.18717679,0 -0.42043482,-0.149693 -0.51835107,-0.332652 -0.21205625,-0.39623 -0.94292893,-0.716754 -1.78154464,-0.781293 -0.5284691,-0.04067 -0.6254436,0.01734 -0.7436039,0.444747 -0.120109,0.434464 -0.08066,0.503753 0.3398659,0.596953 0.97658835,0.216439 1.11685496,0.287966 1.39389871,0.710788 0.15600053,0.238087 0.39033785,0.432885 0.52074982,0.432885 0.70605571,0 2.30878467,1.328356 3.23183307,2.678572 0.2349978,0.34375 0.6637091,0.946428 0.9526918,1.339286 0.2889825,0.392857 0.5280925,0.814732 0.5313553,0.9375 0.00463,0.174366 -1.3399059,0.223214 -6.1438404,0.223214 h -6.1497727 l -0.109288,-0.758929 C -7.5714093,63.787271 -6.4183506,51.660162 -4.510405,32.767006 -1.7403605,5.3370402 -1.370445,1.9969956 -1.0638443,1.6472831 -0.8749389,1.4318152 -0.4328264,0.95582771 -0.08137194,0.58953325 0.27008253,0.22323807 0.78467235,-0.39788658 1.0621609,-0.79074372 1.3396497,-1.1836009 1.8094518,-1.7644246 2.1061657,-2.0814632 2.6326686,-2.644031 2.6377856,-2.6665821 2.318885,-3.0189632 2.1391666,-3.2175496 1.8933936,-3.3800294 1.7727227,-3.3800294 c -0.2457459,0 -1.36931749,1.1873894 -1.68926106,1.7852092 -0.26904126,0.5027086 -0.40126143,0.3502326 -0.64859554,-0.7479587 L -0.76727158,-3.2402932 0.05974556,-3.6000227 C 0.51460521,-3.7978739 1.0357306,-4.0904753 1.2178024,-4.250248 1.5097309,-4.506423 2.57515,-4.5544555 10.235659,-4.6568018 20.492908,-4.7938414 21.882795,-4.9180032 23.922477,-5.879478 c 0.196429,-0.092593 1.029343,-0.2562306 1.850922,-0.3636379 0.821578,-0.1074075 1.62515,-0.2621118 1.785714,-0.3437873 0.407182,-0.2071239 3.878441,-0.7300584 4.815755,-0.7254786 0.4256,0.00208 1.389886,-0.1526134 2.142857,-0.3437621 0.75297,-0.1911488 1.803561,-0.387052 2.334643,-0.4353405 1.696777,-0.154279 4.184882,-0.6558288 5.105824,-1.029227 0.491071,-0.1991064 1.294642,-0.4615497 1.785714,-0.5832075 0.491071,-0.1216577 1.137491,-0.3492121 1.436489,-0.5056771 0.298998,-0.156464 1.062391,-0.417876 1.696429,-0.580915 0.634037,-0.163038 2.076903,-0.685901 3.206368,-1.161915 1.129464,-0.476015 2.284635,-0.922844 2.567048,-0.992953 0.654377,-0.16245 4.14318,-2.513927 4.997814,-3.368561 0.636089,-0.636089 0.893943,-0.529391 0.375888,0.155541 -0.144199,0.190646 -0.262179,0.46362 -0.262179,0.606608 0,0.142988 -0.27547,0.596154 -0.612157,1.007035 -0.336686,0.410881 -0.898979,1.222729 -1.249541,1.804106 -0.59777,0.991353 -0.637407,1.151384 -0.637754,2.574906 -1.78e-4,1.1014667 0.101181,1.7872867 0.3698,2.5000003 0.494961,1.3132444 1.559332,2.9382702 2.155002,3.2901403 0.281673,0.1663881 0.532088,0.5093947 0.601021,0.8232502 0.06499,0.295912 0.303068,0.7577602 0.529054,1.0263293 0.225986,0.2685691 0.534536,0.7842466 0.685664,1.1459498 0.153097,0.3664116 0.55539,0.84021324 0.908438,1.06991485 0.348511,0.22675 0.726727,0.6351591 0.840482,0.90757571 0.113754,0.27241661 0.336912,0.56800764 0.495909,0.65687014 0.229884,0.1284804 0.301784,0.5341197 0.351109,1.9808554 0.03461,1.0151196 -0.0275,2.1455589 -0.1405,2.5574161 -0.224332,0.8176036 -0.339886,6.1945139 -0.148263,6.8988409 0.0668,0.245536 0.168391,0.745184 0.225756,1.110331 0.05736,0.365146 0.232566,0.792175 0.389343,0.94895 0.156776,0.156776 0.394982,0.8095 0.529346,1.450498 0.134364,0.640996 0.485079,1.714046 0.779366,2.384552 0.294288,0.670507 0.535068,1.319564 0.535068,1.442351 0,0.122786 0.354327,0.878574 0.787395,1.679524 0.433066,0.800951 1.035296,2.249353 1.338287,3.218671 0.302991,0.969316 0.740779,2.04933 0.972861,2.40003 0.232082,0.3507 0.482562,0.837475 0.556625,1.081722 0.07406,0.244248 0.688194,1.737978 1.364744,3.319405 0.676549,1.581425 1.230088,2.979523 1.230088,3.106886 0,0.586444 1.717927,3.368577 2.623568,4.248791 0.534923,0.519905 1.095064,1.24312 1.244759,1.607143 0.367809,0.894437 2.539184,4.15768 3.022137,4.541809 0.213341,0.169687 0.558709,0.671919 0.767486,1.116071 0.208777,0.444154 0.459539,0.807552 0.55725,0.807552 0.101739,0 0.176509,0.553237 0.174968,1.294643 -0.0027,1.285537 -0.281759,2.454091 -0.681618,2.85395 -0.114704,0.114703 -0.20855,0.302177 -0.20855,0.416611 0,0.114433 -0.167541,0.421055 -0.372313,0.68138 -0.204771,0.260325 -0.449409,0.752536 -0.543635,1.093802 -0.09423,0.341268 -0.489188,0.987748 -0.877688,1.436625 -0.3885,0.448876 -0.706364,0.917296 -0.706364,1.040932 0,0.123637 -0.180804,0.396052 -0.401786,0.605364 -0.678305,0.642491 -0.864653,0.826697 -1.351162,1.335622 -0.258191,0.270089 -0.565915,0.491071 -0.683831,0.491071 -0.117914,0 -0.453139,0.200893 -0.744941,0.446429 -0.291803,0.245535 -0.619182,0.446428 -0.72751,0.446428 -0.108327,0 -0.713765,0.244179 -1.345417,0.54262 -0.63165,0.298441 -1.57606,0.586034 -2.098691,0.639096 -0.522628,0.05306 -1.110948,0.162657 -1.307376,0.243543 -0.196429,0.08089 -0.821966,0.326071 -1.390083,0.544855 -1.033664,0.398068 -1.377775,0.743566 -1.377775,1.383327 0,0.187664 -0.160714,0.48665 -0.357142,0.664416 -0.196429,0.177766 -0.357143,0.476752 -0.357143,0.664416 0,0.187663 -0.09605,0.516727 -0.213434,0.731252 -0.117388,0.214525 -0.258013,0.711475 -0.3125,1.104332 -0.09757,0.703532 -0.111164,0.71502 -0.902638,0.762979 -0.638064,0.03866 -0.913909,-0.04277 -1.339285,-0.395364 z M 51.690334,64.23933 c 0,-0.771008 0.76454,-2.883468 1.205675,-3.331341 0.457484,-0.46447 1.20315,-1.458572 1.204345,-1.6056 0.0018,-0.225611 1.320754,-1.221908 1.860764,-1.4056 0.504075,-0.17147 0.685165,-0.158324 1.042281,0.07567 0.237714,0.155758 0.45453,0.256684 0.481812,0.224283 0.02728,-0.0324 0.151543,-0.25442 0.276136,-0.493375 0.200407,-0.384359 0.180321,-0.471881 -0.174166,-0.758929 -0.454498,-0.368029 -1.405316,-0.404641 -2.276698,-0.08766 -0.822359,0.299143 -2.3327,1.543189 -2.522415,2.077676 -0.08851,0.249359 -0.38525,0.693117 -0.659425,0.986125 -0.695019,0.742767 -1.44876,2.488477 -1.601185,3.70844 l -0.128275,1.026673 h 0.645576 c 0.557131,0 0.645575,-0.05704 0.645575,-0.416355 z M 60.226049,6.7628277 C 60.540413,6.4484634 60.489995,6.1556527 60.038549,5.673892 59.650172,5.2594349 58.806384,4.8044366 57.994111,4.5714634 57.778154,4.5095224 57.550202,4.297342 57.487552,4.0999509 57.424902,3.9025599 57.183459,3.6544027 56.951013,3.5484938 56.348076,3.2737777 55.976049,2.0298688 55.976049,0.28860753 c 0,-1.92648963 -0.21242,-2.24006553 -1.517445,-2.24006553 -1.086061,0 -1.253987,0.1365296 -0.960418,0.7808446 0.167343,0.36727754 0.295698,0.43237379 0.695061,0.35250147 l 0.489816,-0.0979632 0.07234,1.80101 c 0.04348,1.08261073 0.158901,1.88757503 0.28935,2.01802323 0.119357,0.1193571 0.217012,0.3558053 0.217012,0.525441 0,0.169634 0.270245,0.535259 0.600543,0.8125 0.330296,0.2772393 0.693271,0.6821465 0.806607,0.8997929 0.119813,0.2300804 0.492423,0.4728268 0.890182,0.5799339 0.376264,0.1013161 0.997666,0.4199715 1.380893,0.7081215 0.78462,0.5899589 0.979546,0.6405946 1.286061,0.3340803 z"
       id="path32"
       inkscape:connector-curvature="0"
       transform="matrix(0.26458333,0,0,0.26458333,0,281.12498)" />
    <path
       style="fill:#000000;stroke-width:0.17857143"
       d="m 59.998976,68.243089 c -0.05956,-0.187643 -0.306042,-0.470745 -0.547747,-0.629117 -0.241707,-0.158373 -0.439466,-0.406632 -0.439466,-0.551689 0,-0.378143 -0.424855,-0.325073 -0.810686,0.101263 -0.452578,0.500094 -1.049216,0.390089 -1.118419,-0.206209 l -0.0541,-0.466206 -13.785182,-0.114685 C 35.661524,66.313367 24.777388,66.210667 19.056406,66.148221 L 8.65462,66.034681 8.6489415,66.55054 c -0.00542,0.492191 -0.017709,0.499956 -0.2678572,0.169229 -0.1617905,-0.213905 -0.2621785,-0.256184 -0.2621785,-0.110416 0,0.316157 -1.4328015,0.132687 -1.6901633,-0.216425 C 6.2780279,66.188483 4.9166031,66.119924 -0.94599176,66.021544 -7.7687271,65.907051 -8.1538148,65.882964 -8.4869144,65.549865 -8.7288395,65.30794 -8.8103808,65.045056 -8.7492705,64.704047 c 0.048768,-0.272135 1.4119337,-13.713541 3.0292571,-29.869791 1.6173236,-16.15625 2.9861127,-29.7111194 3.0417536,-30.1219319 0.099959,-0.738025 0.094153,-0.7476089 -0.4868723,-0.8035714 -0.708694,-0.068261 -0.8677916,-0.5245553 -0.3403597,-0.9761553 0.2174657,-0.1862 0.408789,-0.6368143 0.4773145,-1.1241965 0.062902,-0.4473857 0.2102754,-0.97414462 0.3274957,-1.17057319 0.2987245,-0.50057857 0.6050386,-1.63004232 0.7210975,-2.65888211 0.079023,-0.7005234 0.036709,-0.9190375 -0.2140061,-1.1051575 -0.2769285,-0.20558 -0.2820112,-0.2602933 -0.044647,-0.4806165 0.1473214,-0.1367448 0.7901786,-0.4745264 1.42857141,-0.750626 0.63839286,-0.2760995 1.37401197,-0.6512717 1.63470893,-0.8337158 C 1.2704075,-5.50285 1.8043252,-5.5230436 9.664329,-5.5254853 c 7.037316,-0.00219 8.489645,-0.045904 9.148627,-0.2753874 0.430835,-0.1500337 1.15405,-0.25312 1.607143,-0.2290805 0.769025,0.040801 2.537203,-0.4140379 2.987193,-0.7684132 0.109503,-0.086237 0.672003,-0.1979838 1.25,-0.2483259 1.361546,-0.1185875 2.07151,-0.262288 2.332451,-0.4721007 0.115568,-0.092923 0.63442,-0.2075095 1.153004,-0.2546354 0.518584,-0.047126 1.267778,-0.1607469 1.664877,-0.2524912 0.397098,-0.091744 1.19075,-0.1687722 1.763673,-0.1711731 0.572921,-0.0024 1.68003,-0.1673518 2.460241,-0.3665573 0.780211,-0.1992055 2.240029,-0.4784805 3.244037,-0.6206109 2.687365,-0.3804309 3.89307,-0.6250007 4.593331,-0.9317281 0.34375,-0.150569 1.107143,-0.42121 1.696428,-0.601423 1.977983,-0.604901 5.167688,-1.724774 6.428572,-2.257007 0.6875,-0.290202 1.628968,-0.666502 2.092152,-0.836222 0.992809,-0.363786 3.978984,-2.349732 4.819771,-3.205373 0.323441,-0.329157 0.925459,-0.809291 1.337813,-1.066964 0.697978,-0.436154 0.770162,-0.448072 1.045603,-0.172631 0.234611,0.234611 0.271009,0.483256 0.175804,1.20095 -0.06604,0.497796 -0.235218,1.032326 -0.375961,1.187846 -0.140743,0.155519 -0.255896,0.409694 -0.255896,0.564832 0,0.155138 -0.348713,0.711311 -0.774916,1.235939 -1.562802,1.923705 -1.725084,2.297689 -1.725084,3.975497 0,0.8309764 0.08036,1.56053 0.178571,1.6212298 0.09821,0.0607 0.178571,0.3201759 0.178571,0.5766138 0,0.5699118 1.2155,2.5081198 1.664108,2.653547 0.350307,0.113561 1.012707,1.0795294 1.013796,1.478408 3.57e-4,0.1343557 0.241739,0.5188482 0.536382,0.8544279 0.294643,0.3355796 0.535714,0.76307 0.535714,0.9499785 0,0.1975684 0.332074,0.5783102 0.793234,0.9094907 0.811791,0.58298415 1.160541,1.09294308 0.824129,1.20508058 -0.297184,0.0990607 -0.22023,0.35334107 0.0986,0.32582679 0.158067,-0.0136429 0.459407,0.2018375 0.669642,0.47884286 0.318359,0.41946427 0.392516,0.80033397 0.443686,2.27872147 0.03379,0.9762928 -0.02282,2.0167767 -0.125802,2.3121875 -0.286776,0.8226518 -0.481501,6.3407701 -0.229255,6.4966681 0.112384,0.06946 0.204334,0.529068 0.204334,1.021359 0,0.5503 0.101336,0.996407 0.263078,1.158151 0.144695,0.144693 0.350579,0.601008 0.45752,1.014031 0.617988,2.386732 1.774463,5.46695 2.381409,6.342773 0.253264,0.365461 0.75845,1.587166 1.122632,2.714898 0.364184,1.127732 0.845789,2.331775 1.070236,2.67565 0.224446,0.343875 0.561586,1.06709 0.7492,1.607143 0.187612,0.540054 0.700459,1.788823 1.139659,2.775041 0.4392,0.98622 0.943973,2.231756 1.121718,2.767857 0.52868,1.594566 1.502589,3.227322 2.605187,4.36759 0.569818,0.589285 1.181425,1.392857 1.359129,1.785714 0.43401,0.959496 2.371514,3.854757 2.827484,4.225182 0.20081,0.163136 0.522239,0.6051 0.714285,0.982143 0.192049,0.377043 0.529981,0.91268 0.750963,1.190305 0.338598,0.42539 0.401377,0.720261 0.399187,1.875 -0.0024,1.291716 -0.327864,2.693463 -0.740789,3.191006 -0.0988,0.119048 -0.317359,0.481289 -0.485686,0.80498 -0.168325,0.323689 -0.3937,0.749241 -0.500832,0.94567 -0.107132,0.196428 -0.344319,0.662903 -0.527082,1.03661 -0.182764,0.373708 -0.513102,0.849768 -0.734084,1.057913 -0.220982,0.208146 -0.401712,0.505064 -0.401623,0.659818 1.59e-4,0.275693 -0.408329,0.743621 -1.908134,2.185798 -0.782714,0.752639 -1.290086,1.072334 -2.913457,1.835764 -0.540179,0.254032 -1.213713,0.583484 -1.496741,0.732113 -0.283029,0.148628 -1.006243,0.321478 -1.607143,0.38411 -0.6009,0.06263 -1.610271,0.325895 -2.24305,0.585029 -0.924471,0.378588 -1.176389,0.567936 -1.282254,0.963771 -0.07246,0.270942 -0.235266,0.617354 -0.361789,0.769806 -0.335436,0.404175 -0.702832,1.451232 -0.851755,2.427441 -0.07152,0.468852 -0.224786,0.947202 -0.340581,1.062996 -0.115796,0.115797 -0.741416,0.244343 -1.390267,0.285659 -0.64885,0.04132 -1.100708,0.125466 -1.004127,0.187002 0.105193,0.06702 0.115323,0.272986 0.02527,0.51367 -0.197364,0.527473 -1.155325,0.57155 -1.317489,0.06062 z m 2.837467,-1.552938 c 0.178097,-0.06834 0.282463,-0.32472 0.282463,-0.693873 0,-0.322016 0.120041,-0.81565 0.266757,-1.096966 0.146716,-0.281316 0.267252,-0.689461 0.267857,-0.906988 6.06e-4,-0.217527 0.161814,-0.481514 0.358243,-0.586639 0.227057,-0.121518 0.357143,-0.373896 0.357143,-0.692893 0,-0.620189 0.366784,-0.950518 1.517857,-1.366989 0.491071,-0.177675 0.973214,-0.378561 1.071429,-0.446413 0.09821,-0.06785 0.732601,-0.172612 1.40975,-0.2328 0.713423,-0.06341 1.357651,-0.223889 1.531919,-0.381598 0.165406,-0.149691 0.384857,-0.272164 0.487672,-0.272164 0.353759,0 2.120989,-0.855577 2.3586,-1.141881 0.130862,-0.15768 0.334932,-0.286691 0.453489,-0.286691 0.304359,0 2.597855,-2.24971 2.597855,-2.548259 0,-0.135646 0.208713,-0.441439 0.463807,-0.679542 0.507111,-0.473334 1.025793,-1.404711 1.210684,-2.173984 0.06492,-0.27009 0.195775,-0.491072 0.2908,-0.491072 0.09503,0 0.292772,-0.26116 0.439438,-0.580357 0.146664,-0.319196 0.338828,-0.700893 0.42703,-0.848214 0.590029,-0.985504 0.793782,-3.870302 0.302175,-4.2783 -0.142407,-0.118188 -0.431484,-0.571352 -0.642394,-1.007034 -0.210909,-0.435682 -0.526409,-0.868645 -0.701109,-0.962141 -0.391327,-0.209432 -2.532913,-3.399995 -2.938306,-4.377525 -0.162921,-0.392857 -0.763098,-1.196429 -1.333725,-1.785714 -1.051519,-1.085904 -2.107226,-2.805713 -2.521173,-4.107143 -0.124957,-0.392858 -0.728196,-1.879465 -1.340534,-3.303572 -0.612337,-1.424107 -1.171312,-2.790178 -1.242166,-3.035714 -0.07085,-0.245536 -0.314427,-0.727679 -0.541271,-1.071429 -0.226845,-0.34375 -0.738072,-1.608498 -1.136063,-2.81055 -0.397989,-1.202053 -0.888382,-2.408405 -1.089759,-2.680782 -0.558135,-0.754921 -2.316187,-5.392425 -2.322239,-6.125761 -0.0021,-0.251008 -0.204659,-0.728673 -0.450195,-1.061478 -0.328505,-0.445264 -0.446428,-0.828998 -0.446428,-1.452725 0,-0.466195 -0.0917,-0.904302 -0.203786,-0.973573 -0.249312,-0.154082 -0.05879,-5.5303468 0.230768,-6.5120593 0.102978,-0.3491339 0.159125,-1.4374 0.12477,-2.4183696 -0.07019,-2.0041893 -0.12375,-2.1144161 -1.892824,-3.89556432 -0.515625,-0.51914478 -0.9375,-1.10271358 -0.9375,-1.29681968 0,-0.194106 -0.196725,-0.537733 -0.437166,-0.7636157 -0.240441,-0.2258827 -0.486666,-0.6360689 -0.547166,-0.911525 -0.0605,-0.2754561 -0.379884,-0.70668 -0.709743,-0.9582753 -0.694664,-0.5298461 -1.826832,-2.3059417 -1.990012,-3.1218433 -0.06162,-0.3081126 -0.18202,-0.6034535 -0.267548,-0.6563132 -0.08553,-0.05286 -0.155508,-0.8298393 -0.155508,-1.7266206 0,-1.586459 0.01932,-1.662486 0.715002,-2.813882 0.393252,-0.650853 0.955752,-1.414021 1.25,-1.695929 0.29425,-0.281908 0.534998,-0.672003 0.534998,-0.866876 0,-0.194874 0.109743,-0.481179 0.243874,-0.636234 0.287223,-0.332029 0.538416,-1.264879 0.339885,-1.262225 -0.07553,10e-4 -0.539116,0.384644 -1.030187,0.852519 -1.328588,1.26583 -4.096663,3.060692 -5.431779,3.522047 -0.64645,0.223385 -1.737864,0.661679 -2.425364,0.973988 -0.6875,0.31231 -1.83882,0.729426 -2.558489,0.926924 -0.719668,0.197499 -1.724132,0.552613 -2.232143,0.789143 -0.508009,0.23653 -1.107659,0.4308392 -1.332554,0.4317987 -0.224894,9.642e-4 -0.733898,0.1675467 -1.131119,0.3701941 -0.733618,0.3742634 -3.539377,0.9814153 -5.331659,1.1537434 -0.542006,0.052114 -1.654756,0.253261 -2.472779,0.4469939 -0.818021,0.1937328 -1.822486,0.3509591 -2.232143,0.3493918 -0.862625,-0.0033 -4.046432,0.477213 -4.893675,0.7385739 -0.317578,0.097968 -1.241685,0.2839888 -2.053571,0.4133789 -0.811884,0.1293902 -2.030361,0.4460957 -2.707725,0.7037902 -0.812309,0.3090327 -1.602589,0.472808 -2.321429,0.4810863 -1.189444,0.013698 -2.288486,0.3087771 -1.236707,0.332041 1.085245,0.024004 3.291339,-0.367918 4.394247,-0.7806566 0.61036,-0.2284143 1.55171,-0.4731405 2.091889,-0.543836 0.540178,-0.070696 1.625,-0.2772286 2.410714,-0.4589622 0.785714,-0.1817336 2.3125,-0.4218048 3.392857,-0.5334916 1.080357,-0.111687 2.505152,-0.3148457 3.166211,-0.4514643 0.661059,-0.1366186 2.229661,-0.4059171 3.48578,-0.5984414 1.316399,-0.2017631 3.227866,-0.6577645 4.512361,-1.0764727 9.010123,-2.9370404 11.195573,-3.9024984 14.254741,-6.2972664 0.961747,-0.752871 1.114322,-0.823867 1.007548,-0.468828 -0.06921,0.230119 -0.687859,1.257407 -1.374782,2.282862 l -1.248953,1.864464 0.0716,1.974822 c 0.06731,1.8566743 0.110984,2.0517127 0.729972,3.2600339 0.362105,0.7068664 1.021108,1.6584377 1.46445,2.1146029 0.443342,0.4561652 0.806076,0.9103507 0.806076,1.0093012 0,0.3616323 1.33917,2.4005682 2.147374,3.26945557 1.54426,1.66021253 1.60238,1.77909823 1.604951,3.28301073 0.0012,0.7479161 -0.09515,2.8685571 -0.214278,4.7125357 -0.240734,3.726195 -0.08076,5.708488 0.559885,6.937588 0.193917,0.372037 0.476549,1.154851 0.628068,1.739587 0.354259,1.36713 1.397718,4.067411 2.147004,5.55605 0.322261,0.640246 0.826921,1.847121 1.12147,2.681943 0.294546,0.834821 0.825316,2.120536 1.179485,2.857143 0.634322,1.319268 2.616145,6.068094 3.222831,7.722521 0.337589,0.9206 1.616037,2.894988 2.824425,4.36194 0.41851,0.50806 1.202892,1.659753 1.743071,2.559317 0.540179,0.899565 1.383929,2.151606 1.875,2.782313 1.641716,2.108539 1.74158,2.329821 1.725709,3.823909 -0.01359,1.278812 -0.0639,1.435623 -1.114166,3.472843 -2.232464,4.330325 -3.99612,6.141003 -7.250991,7.444318 -0.719341,0.288037 -1.769741,0.603803 -2.334223,0.701703 -1.133333,0.196557 -3.172724,0.967648 -3.660258,1.383939 -0.171875,0.146759 -0.3125,0.385522 -0.3125,0.530581 0,0.14506 -0.15485,0.514303 -0.34411,0.820539 -0.363448,0.588082 -0.793218,1.775713 -0.993082,2.744291 -0.111343,0.539589 -0.170591,0.580357 -0.843418,0.580357 -0.398015,0 -0.97422,-0.151669 -1.280456,-0.337044 -1.034271,-0.626077 -2.591773,-0.96022 -3.883984,-0.833261 -1.445541,0.142023 -47.4191104,-0.23762 -49.1728068,-0.406061 l -1.25,-0.120062 -0.4831086,-0.937445 C 5.6736588,63.291931 4.8624968,62.126753 4.1367865,61.21824 3.0509134,59.858842 2.6306129,59.474853 1.7627522,59.049305 1.1827438,58.764901 0.53503467,58.376381 0.32339842,58.185926 -0.04895354,57.850839 -1.4847434,57.414096 -1.6548296,57.584181 c -0.046059,0.04606 0.2550334,0.174968 0.66909427,0.286463 0.41406107,0.111495 0.94814643,0.398027 1.18685661,0.636737 0.23871,0.238709 0.58708696,0.434018 0.77417089,0.434018 0.18708413,0 0.40441353,0.100447 0.48295463,0.223215 0.078541,0.122767 0.4523475,0.366451 0.8306811,0.541521 0.3783336,0.17507 0.7292236,0.476409 0.7797555,0.669643 0.050532,0.193234 0.1529879,0.351336 0.2276798,0.351336 0.1477117,0 1.904249,2.326751 2.2734615,3.011483 0.1252089,0.232209 0.2276525,0.531695 0.2276525,0.665525 0,0.133833 0.1943819,0.370693 0.4319598,0.526361 0.3824884,0.250616 2.4429652,0.301457 17.991071,0.44392 22.322959,0.204539 32.657416,0.227994 33.05605,0.07502 0.173162,-0.06645 0.65451,-0.02423 1.069666,0.09381 0.415153,0.118044 0.98258,0.258 1.26095,0.311014 0.278368,0.05301 0.711977,0.287164 0.963575,0.520337 0.456275,0.422863 1.578691,0.57919 2.265694,0.315561 z M 5.0857383,64.751669 c -0.2268884,-0.596761 -1.088245,-1.881698 -1.2613956,-1.881698 -0.076978,0 -0.206925,-0.194725 -0.2887703,-0.432724 C 3.2972829,61.744324 1.9608725,60.44576 1.0300256,60.002653 0.55837396,59.778135 -0.09147962,59.367147 -0.41409354,59.089347 -0.73670747,58.811547 -1.198761,58.584256 -1.4408793,58.584256 c -0.3598705,0 -0.441206,-0.08963 -0.4456451,-0.491071 -0.00476,-0.430382 -0.028675,-0.451111 -0.1935145,-0.167725 -0.280042,0.481436 -0.081489,0.778512 0.6066005,0.907598 0.3381077,0.06343 0.76639825,0.283289 0.951757,0.488577 0.18535857,0.205289 0.67486339,0.53227 1.08778839,0.726625 0.412925,0.194355 1.13940661,0.735927 1.61440341,1.203489 0.9025816,0.888457 2.6711034,3.337895 2.5194752,3.489523 -0.048222,0.04822 -2.7516182,0.141954 -6.0075483,0.208295 -5.625151,0.114614 -5.926091,0.104414 -6.044778,-0.204878 -0.168854,-0.440027 0.3127018,-5.711379 2.7079493,-29.642576 C -2.5063875,13.741067 -1.6377935,5.4356938 -1.3144502,3.2616866 -1.1041891,1.8479902 -1.3363203,2.2032081 1.8805474,-1.6274564 2.6399102,-2.53171 2.7303599,-2.8570175 2.3176532,-3.1995335 1.8731054,-3.5684753 1.2309913,-3.2512291 0.51077342,-2.3068169 -0.22357444,-1.3438766 -0.25618104,-1.353141 -0.52866908,-2.602153 -0.64751962,-3.1469312 -0.61778872,-3.1806984 0.47495039,-3.7420228 1.7978779,-4.4215919 1.687104,-4.41214 10.708191,-4.6151912 l 6.071429,-0.136659 -7.4416464,-0.028375 -7.4416448,-0.028375 -1.3976402,0.7441841 c -0.76870197,0.4093013 -1.41169572,0.751482 -1.42887482,0.7604015 -0.0171786,0.00892 0.0820121,0.4976975 0.22042482,1.086173 0.31762464,1.35041287 0.33416857,1.202653 -0.19908,1.77803787 -0.2509754,0.27080714 -0.420632,0.5280625 -0.3770148,0.57168035 0.1224084,0.12240715 0.86888337,-0.64926785 1.58345051,-1.63690532 C 0.65288967,-1.9961009 1.1397222,-2.5813669 1.379444,-2.8056207 1.7535866,-3.1556218 1.8457216,-3.1767014 2.0301379,-2.9544934 2.2051725,-2.7435896 2.0592065,-2.4530118 1.2422595,-1.386045 0.69076646,-0.66577229 -0.15241354,0.35864557 -0.6314739,0.89044021 -1.2133127,1.5363259 -1.5355969,2.0698991 -1.6022037,2.4975831 -2.0077128,5.1013616 -7.7728058,63.81608 -7.6834795,64.432471 l 0.1099827,0.758928 h 6.41321 6.4132101 z M 51.858313,63.734431 c 0.277545,-1.294141 0.750905,-2.289125 1.600212,-3.36358 0.402495,-0.509195 0.731809,-0.989164 0.731809,-1.066598 0,-0.225473 1.846967,-1.434282 2.19147,-1.434282 0.172357,0 0.477895,0.100446 0.678972,0.223214 0.311089,0.189936 0.403908,0.171536 0.622576,-0.123416 0.584286,-0.788116 0.08543,-1.335436 -1.2251,-1.34412 -1.537514,-0.0102 -2.860475,0.938416 -4.304587,3.086522 -1.02204,1.520275 -1.584109,2.857962 -1.758279,4.184585 l -0.09964,0.758929 h 0.682496 c 0.677222,0 0.684024,-0.0071 0.880071,-0.921254 z M 60.406022,6.4126117 C 60.469626,5.8628009 59.683359,5.1330616 58.525077,4.666892 57.779654,4.3668849 56.633567,3.2135866 56.356393,2.4845652 56.262726,2.2382009 56.129104,1.2799349 56.059458,0.35508664 55.902752,-1.7258366 55.742865,-1.951458 54.424911,-1.951458 c -0.665216,0 -0.989994,0.077978 -1.057503,0.2539034 -0.158502,0.4130516 0.261532,0.99609659 0.717601,0.99609659 0.486002,0 0.638642,0.50185893 0.644961,2.12053571 0.0074,1.894475 1.293264,3.7146607 3.252416,4.6038982 0.563307,0.2556786 1.118929,0.5790179 1.234715,0.7185322 0.115787,0.1395143 0.418292,0.2295089 0.672233,0.1999911 0.350118,-0.0407 0.475002,-0.1685304 0.516688,-0.5288875 z"
       id="path34"
       inkscape:connector-curvature="0"
       transform="matrix(0.26458333,0,0,0.26458333,0,281.12498)" />
    <path
       style="fill:#000000;stroke-width:0.17857143"
       d="m 60.083192,68.420256 c 0,-0.0902 -0.325191,-0.502459 -0.722647,-0.91613 l -0.722646,-0.75213 -0.422138,0.396578 c -0.539314,0.506659 -1.061918,0.418515 -1.132941,-0.191087 L 57.02888,66.494485 42.797109,66.378296 C 34.969634,66.314396 24.085427,66.210274 18.60998,66.146922 l -9.955357,-0.115185 -0.00568,0.517332 c -0.00542,0.493486 -0.017762,0.501353 -0.2678572,0.1707 -0.1441985,-0.190647 -0.2621785,-0.250914 -0.2621785,-0.133929 0,0.321302 -0.907585,0.255065 -1.6097874,-0.117485 C 5.9466518,66.16994 5.211925,66.126608 -1.1260471,66.018044 -7.590434,65.907315 -8.1644129,65.872367 -8.4656455,65.571133 -8.7823159,65.254464 -8.6966677,64.296687 -5.699438,34.637515 -3.9982903,17.803758 -2.6039532,4.0156866 -2.600911,3.9973563 c 0.00304,-0.01833 -0.2549717,-0.058509 -0.5733638,-0.089286 -0.6932413,-0.067011 -0.8462484,-0.5013375 -0.3442589,-0.9772161 0.1907278,-0.1808071 0.404741,-0.6795661 0.475585,-1.1083536 0.070844,-0.4287857 0.2914619,-1.1473214 0.4902625,-1.59674283 0.5257612,-1.18856983 0.7057664,-2.89095987 0.3488094,-3.29884607 -0.3653146,-0.4174363 -0.1485248,-0.6171461 1.39421111,-1.2843664 0.63839286,-0.2760995 1.37401197,-0.6512717 1.63470893,-0.8337158 0.44522106,-0.3115796 0.97638786,-0.3318337 8.75000006,-0.3336492 6.8141217,-0.00159 8.4308477,-0.048906 9.1525997,-0.2678572 0.482127,-0.1462584 1.291473,-0.2659243 1.798547,-0.2659243 0.872882,0 2.449509,-0.4052852 2.879644,-0.7402366 0.108706,-0.084649 0.590849,-0.1951753 1.071429,-0.2456141 1.568805,-0.1646516 2.298777,-0.3016446 2.50875,-0.4708153 0.113516,-0.091457 0.55548,-0.2054834 0.982143,-0.253392 0.426662,-0.047908 1.212384,-0.1648872 1.746046,-0.2599527 0.533663,-0.095066 1.363129,-0.1728464 1.843257,-0.1728464 0.480127,0 1.730995,-0.1940386 2.779704,-0.4311966 1.048709,-0.2371582 2.348707,-0.4840041 2.888886,-0.5485465 1.980141,-0.2365941 4.038025,-0.6673389 4.818784,-1.0086406 0.44051,-0.192565 1.083367,-0.421976 1.428571,-0.509802 0.929198,-0.236405 5.490266,-1.857661 6.520502,-2.317747 0.491071,-0.219305 1.2752,-0.514455 1.742509,-0.655889 0.923596,-0.279534 4.126336,-2.35613 5.133932,-3.328746 0.344543,-0.332582 0.958329,-0.814205 1.363968,-1.070273 0.623016,-0.393294 0.785977,-0.430153 1.049582,-0.237399 0.26163,0.191309 0.291887,0.389605 0.187245,1.227142 -0.06865,0.549429 -0.240268,1.094781 -0.381381,1.211895 -0.141114,0.117113 -0.256569,0.356442 -0.256569,0.531842 0,0.175399 -0.347881,0.748149 -0.77307,1.272777 -1.406388,1.735304 -1.72693,2.443242 -1.72693,3.814023 0,1.9532123 0.829798,4.0174768 1.989632,4.9495437 0.394616,0.317122 0.802298,0.8680438 0.972877,1.3146988 0.161491,0.422858 0.441894,0.9030194 0.623119,1.0670253 0.181223,0.1640059 0.415156,0.5577379 0.519848,0.8749599 0.115858,0.3510521 0.502847,0.8011842 0.988866,1.15021728 0.732899,0.52632822 1.052656,1.08697286 0.619943,1.08697286 -0.09821,0 -0.178571,0.0714286 -0.178571,0.15873036 0,0.0873018 0.129328,0.14756964 0.287395,0.13392857 0.158067,-0.0136429 0.459407,0.20180714 0.669642,0.478775 0.322416,0.42475183 0.391836,0.79701603 0.443497,2.37828393 0.03587,1.0980196 -0.01982,2.0730982 -0.134431,2.3535661 -0.223137,0.5460518 -0.313644,5.7315452 -0.12368,7.0860022 0.06887,0.491071 0.275673,1.174107 0.459552,1.517857 0.18388,0.34375 0.460741,1.170591 0.615245,1.837425 0.154505,0.666834 0.391408,1.430227 0.526451,1.696429 0.135043,0.266201 0.425595,1.006325 0.645668,1.644717 0.220075,0.638393 0.627859,1.522395 0.906186,1.964449 0.278327,0.442053 0.79978,1.687589 1.158786,2.767857 0.359003,1.080268 0.876237,2.365909 1.149407,2.85698 0.273169,0.491072 0.599287,1.213804 0.724705,1.60607 0.125418,0.392266 0.606916,1.563544 1.069995,2.602841 0.46308,1.039295 1.01336,2.372382 1.222848,2.962418 0.593793,1.672468 1.406259,3.036239 2.520696,4.231137 0.562997,0.603645 1.206015,1.459141 1.428929,1.901106 0.54752,1.085543 2.056791,3.331862 2.782361,4.141118 0.324957,0.362437 0.727273,0.924937 0.894037,1.25 0.166766,0.325064 0.452561,0.782666 0.635104,1.016892 0.609632,0.782247 0.338635,4.06249 -0.410161,4.964733 -0.09807,0.118164 -0.540609,0.922369 -0.983425,1.787123 -0.442816,0.864752 -0.999129,1.777566 -1.23625,2.028477 -0.23712,0.250908 -0.431129,0.581567 -0.431129,0.734798 0,0.362918 -2.406762,2.74106 -3.214285,3.176064 -0.743657,0.400598 -1.95907,1.000414 -2.946679,1.454209 -0.392994,0.180577 -1.236744,0.403811 -1.875,0.496075 -1.739725,0.251487 -3.392607,0.948732 -3.392607,1.431125 0,0.163384 -0.140121,0.495746 -0.311379,0.73858 -0.408589,0.579357 -0.938621,2.09122 -0.938621,2.67732 0,0.830564 -0.382257,1.123168 -1.580537,1.209843 -0.601049,0.04348 -1.063247,0.129743 -1.027106,0.191702 0.03614,0.06196 -0.0026,0.293459 -0.08614,0.514441 -0.111471,0.294944 -0.295836,0.401785 -0.69332,0.401785 -0.297807,0 -0.541467,-0.0738 -0.541467,-0.164 z m 2.821428,-1.836 c 0.117857,-0.117857 0.214286,-0.4301 0.214286,-0.693873 0,-0.263773 0.120041,-0.709755 0.266757,-0.991071 0.146716,-0.281316 0.267252,-0.689461 0.267857,-0.906988 6.06e-4,-0.217527 0.161814,-0.481514 0.358243,-0.586639 0.227057,-0.121518 0.357143,-0.373896 0.357143,-0.692893 0,-0.275964 0.140625,-0.62183 0.3125,-0.768589 0.545882,-0.466113 2.595945,-1.188375 3.685346,-1.298391 0.578281,-0.0584 1.261316,-0.218384 1.517857,-0.355525 0.256542,-0.13714 0.988761,-0.4986 1.627154,-0.803247 0.638393,-0.304646 1.361607,-0.669653 1.607143,-0.811126 0.616746,-0.355359 2.678571,-2.413704 2.678571,-2.67405 0,-0.116872 0.208713,-0.407306 0.463807,-0.645409 0.503949,-0.470381 1.143336,-1.600129 1.143336,-2.020186 0,-0.14422 0.132238,-0.394455 0.293863,-0.556079 0.357034,-0.357034 0.887237,-1.356146 1.231659,-2.320934 0.348498,-0.976201 0.345369,-3.189151 -0.0049,-3.479864 -0.145811,-0.121012 -0.444573,-0.579362 -0.663916,-1.018553 -0.219343,-0.439192 -0.532057,-0.869843 -0.69492,-0.957006 -0.350828,-0.187757 -2.438648,-3.305441 -2.984202,-4.456228 -0.209767,-0.442479 -0.841432,-1.24605 -1.4037,-1.785715 -1.050741,-1.008498 -1.003467,-0.841266 0.139213,0.492463 0.357832,0.417661 1.096534,1.502482 1.641555,2.410714 0.545023,0.908232 1.357298,2.133475 1.805056,2.722761 1.974932,2.599175 2.114442,2.889589 2.098473,4.368314 -0.01389,1.286775 -0.06291,1.439805 -1.114475,3.479529 -1.231566,2.388878 -1.813234,3.266614 -3.111543,4.695312 -1.530295,1.683982 -3.939184,2.949756 -6.722611,3.532454 -1.58215,0.331218 -3.51121,1.196984 -3.652755,1.639366 -0.05644,0.176407 -0.292959,0.722525 -0.525589,1.213596 -0.232631,0.491072 -0.560133,1.39509 -0.727781,2.008929 l -0.304818,1.116071 h -0.708575 c -0.389716,0 -0.95913,-0.15398 -1.265366,-0.34218 C 59.836161,65.550347 57.975879,65.14133 56.974943,65.273758 55.901972,65.415719 8.992179,65.02514 7.4944845,64.861776 6.4472759,64.747551 6.413754,64.726972 5.9766274,63.929999 5.3857591,62.852724 3.8225902,60.727496 3.0732849,59.982721 2.7441036,59.65553 2.0772947,59.195664 1.591487,58.960797 1.1056704,58.725931 0.54747717,58.392115 0.3510486,58.218985 0.15462003,58.045855 -0.32752283,57.816592 -0.72037997,57.709512 -1.803075,57.414403 -1.8952234,57.489146 -0.91882105,57.870469 c 0.48014322,0.187514 1.04782233,0.505186 1.26150929,0.705934 0.21368679,0.200748 0.48704268,0.364996 0.6074575,0.364996 0.12041466,0 0.43666416,0.149195 0.70277666,0.331545 0.2661123,0.182348 0.7048226,0.465452 0.9749119,0.629116 0.2700893,0.163664 0.4910714,0.416255 0.4910714,0.561312 0,0.145058 0.067165,0.263742 0.1492559,0.263742 0.2501643,0 2.2186243,2.726091 2.4499199,3.392857 0.1220932,0.351964 0.4162476,0.724576 0.6733412,0.852937 0.3542316,0.176861 4.5904473,0.267693 18.9045083,0.405348 10.146386,0.09758 21.702439,0.166509 25.680118,0.153186 5.495837,-0.01841 7.478655,0.03336 8.258928,0.215614 0.564732,0.131911 1.026786,0.299358 1.026786,0.372102 0,0.515463 2.204532,0.903423 2.642857,0.465098 z M 5.0460084,64.700328 C 4.8346077,64.201462 4.12344,63.152415 3.7057357,62.723287 3.5794079,62.593505 3.4760486,62.38959 3.4760486,62.270146 c 0,-0.34035 -1.6112775,-1.806668 -2.5,-2.275088 C 0.53408431,59.762112 -0.09147962,59.349385 -0.41409354,59.077889 -0.73670747,58.80639 -1.198761,58.584256 -1.4408793,58.584256 c -0.3598705,0 -0.441206,-0.08963 -0.4456451,-0.491071 -0.00476,-0.430382 -0.028675,-0.451111 -0.1935145,-0.167725 -0.280042,0.481436 -0.081489,0.778512 0.6066005,0.907598 0.3381077,0.06343 0.76639825,0.283289 0.951757,0.488577 0.18535857,0.205289 0.67486339,0.53227 1.08778839,0.726625 0.412925,0.194355 1.13940661,0.735927 1.61440341,1.203489 0.9025816,0.888457 2.6711034,3.337895 2.5194752,3.489523 -0.048222,0.04822 -2.7516182,0.141954 -6.0075483,0.208295 -5.6588439,0.115302 -5.9254696,0.106034 -6.0468103,-0.210175 -0.1605141,-0.418293 0.275893,-5.285853 2.2729257,-25.351564 2.340793,-23.519732 3.4887113,-34.5017056 3.8400018,-36.736761 0.078727,-0.5008929 0.56428124,-1.2225839 1.96460464,-2.9200375 1.02301766,-1.2400888 1.86003236,-2.3687516 1.86003236,-2.5081398 0,-0.1393882 -0.2114904,-0.3497945 -0.4699784,-0.4675695 -0.4440611,-0.2023277 -0.52183,-0.15843 -1.41023611,0.7960271 l -0.9402575,1.0101638 -0.19690678,-0.7819882 c -0.10829893,-0.4300934 -0.19690697,-0.8256047 -0.19690697,-0.8789139 0,-0.053309 0.50223214,-0.3532834 1.11607143,-0.6666092 C 1.7553113,-4.4144248 1.5219856,-4.3925444 9.5474772,-4.6158427 l 4.9107138,-0.1366337 -6.2766815,-0.028062 -6.276682,-0.028062 -1.41189908,0.7589286 -1.41189893,0.7589286 0.23622375,1.1574357 c 0.22307554,1.0930118 0.2153325,1.18743642 -0.13910964,1.69642857 -0.4569798,0.65623928 0.59997036,-0.44962679 1.7762925,-1.85850087 0.6944107,-0.8316916 0.8118911,-0.9066154 1.0493054,-0.6692011 0.2374142,0.2374141 0.1536437,0.4140577 -0.7482175,1.5777348 C 0.69696378,-0.66613251 -0.11793104,0.31997643 -0.55535337,0.804505 -0.99277587,1.2890336 -1.4285878,1.9720693 -1.5238246,2.3223621 -1.6190616,2.672655 -2.7821173,13.807472 -4.1083934,27.066399 -7.3933303,59.906274 -7.7828778,64.030697 -7.6584119,64.653026 l 0.1076748,0.538373 h 6.4024216 6.4024216 z M 51.858313,63.734431 c 0.277545,-1.294141 0.750905,-2.289125 1.600212,-3.36358 0.402495,-0.509195 0.731809,-0.998129 0.731809,-1.08652 0,-0.08839 0.439615,-0.4526 0.976922,-0.809351 0.957491,-0.63574 1.278302,-0.688095 2.099286,-0.342604 0.228934,0.09634 0.365251,0.0049 0.529291,-0.355155 0.197689,-0.433881 0.17725,-0.5203 -0.194202,-0.821084 -0.788205,-0.63825 -2.345434,-0.359195 -3.681247,0.65968 -1.371575,1.046152 -3.161291,4.169097 -3.446012,6.013082 l -0.158543,1.026786 h 0.672455 c 0.665133,0 0.674608,-0.01004 0.870029,-0.921254 z M 71.524272,36.374772 c -0.399738,-0.724144 -0.726795,-1.419089 -0.726795,-1.544323 0,-0.125234 -0.553539,-1.521591 -1.230087,-3.103016 -0.67655,-1.581427 -1.290684,-3.075157 -1.364745,-3.319405 -0.07406,-0.244247 -0.324543,-0.731022 -0.556625,-1.081722 -0.232082,-0.3507 -0.670616,-1.436576 -0.974519,-2.413057 -0.303904,-0.976482 -0.906133,-2.42643 -1.338288,-3.222105 -0.432155,-0.795677 -0.785736,-1.545602 -0.785736,-1.666498 0,-0.120897 -0.246444,-0.781315 -0.547655,-1.467595 -0.301209,-0.68628 -0.65532,-1.762364 -0.786909,-2.391296 -0.131589,-0.628934 -0.407466,-1.357363 -0.613059,-1.618733 -0.261589,-0.332557 -0.373805,-0.732855 -0.373805,-1.333451 0,-0.472031 -0.0917,-0.914913 -0.203786,-0.984184 -0.249312,-0.154082 -0.05879,-5.5303468 0.230768,-6.5120593 0.102978,-0.3491339 0.159125,-1.4374 0.12477,-2.4183696 -0.07004,-1.9998625 -0.104293,-2.0701982 -1.892824,-3.88692503 -0.515625,-0.52375377 -0.9375,-1.09446157 -0.9375,-1.26823967 0,-0.1737782 -0.241071,-0.5905255 -0.535714,-0.9261052 -0.294643,-0.3355796 -0.535714,-0.7625912 -0.535714,-0.9489144 0,-0.1863232 -0.25087,-0.5174048 -0.55749,-0.735737 -0.699533,-0.4981127 -1.89746,-2.3306252 -2.047957,-3.132835 -0.06248,-0.3330825 -0.184859,-0.649638 -0.271939,-0.7034566 -0.08708,-0.053819 -0.158329,-0.8317391 -0.158329,-1.7287122 0,-1.57783 0.02271,-1.66894 0.69842,-2.801961 0.38413,-0.644106 0.94663,-1.407118 1.25,-1.695582 0.30337,-0.288464 0.55158,-0.683923 0.55158,-0.878796 0,-0.194874 0.109743,-0.481179 0.243874,-0.636234 0.250796,-0.289921 0.548587,-1.264061 0.386419,-1.264061 -0.04994,0 -0.528028,0.395958 -1.062421,0.879907 -1.374084,1.244377 -4.074954,3.021028 -5.163493,3.396583 -0.50723,0.174998 -1.524914,0.578103 -2.261521,0.89579 -1.314015,0.566713 -4.399399,1.660275 -6.517858,2.3101451 -1.162501,0.3566154 -2.431592,0.8921904 -2.140784,0.9034425 0.324418,0.012554 6.937363,-2.2712846 9.299538,-3.2116766 2.726875,-1.08558 3.614798,-1.572247 5.686345,-3.116667 1.872319,-1.395888 1.880671,-1.210574 0.06823,1.513905 l -1.24733,1.875 0.06481,1.9642854 c 0.06185,1.8745504 0.09592,2.0229157 0.74571,3.2476834 0.374497,0.7058688 1.03109,1.6541266 1.459095,2.1072395 0.428005,0.4531128 0.832707,0.9956005 0.899336,1.2055282 0.171873,0.5415266 1.561851,2.67341142 1.9515,2.99312035 0.179548,0.14732143 0.634532,0.65676965 1.011073,1.13210715 0.658116,0.8307875 0.684725,0.9172089 0.687314,2.2321429 0.0014,0.752341 -0.09295,2.8734482 -0.209855,4.7135714 -0.232056,3.6527287 -0.06944,5.6733877 0.556394,6.9135247 0.175875,0.348509 0.45667,1.115797 0.62399,1.705082 0.453478,1.597111 1.485537,4.300936 2.145319,5.620386 0.320493,0.640931 0.845665,1.888543 1.167047,2.772472 0.321382,0.883928 0.805068,2.049107 1.074855,2.589285 0.456568,0.914154 2.590375,6.038329 3.271868,7.857143 0.312291,0.833461 1.292089,2.5 1.469811,2.5 0.05581,0 -0.225591,-0.592482 -0.625328,-1.316627 z M 60.410042,6.4713152 C 60.490159,5.9056509 60.006342,5.4106581 58.821534,4.8461206 57.785576,4.3525063 56.652351,3.2629956 56.351302,2.4711777 56.254834,2.2174491 56.121879,1.2993616 56.055843,0.43098307 55.895415,-1.6786609 55.711365,-1.951458 54.44847,-1.951458 c -0.685582,0 -1.013153,0.076935 -1.081062,0.2539034 -0.158799,0.4138203 0.261557,0.99609659 0.719096,0.99609659 0.500798,0 0.633632,0.37694286 0.637107,1.80790541 0.0052,2.1281464 1.14679,3.7784946 3.51257,5.0778268 1.555687,0.8544125 2.083627,0.9241232 2.173861,0.287041 z M 20.797477,-4.9780575 c 0.797829,-0.1419621 0.795277,-0.1431241 -0.357143,-0.1626007 -0.638393,-0.010789 -1.28125,0.05828 -1.428571,0.1534859 -0.333541,0.2155504 0.5988,0.2203093 1.785714,0.00911 z m 2.721634,-0.6130561 c 1.602939,-0.5260219 5.588382,-1.292576 8.439081,-1.6231601 1.178571,-0.1366741 2.518873,-0.3334131 2.978448,-0.4371975 0.459577,-0.1037845 1.63288,-0.30845 2.607344,-0.4548122 2.208808,-0.3317578 3.661727,-0.6393219 3.549636,-0.7514119 -0.0471,-0.047104 -0.760421,0.040799 -1.585152,0.1953392 -0.82473,0.1545406 -1.936825,0.3238825 -2.471321,0.3763156 -0.534497,0.052433 -1.641104,0.2536282 -2.459127,0.4471003 -0.818021,0.1934724 -1.806028,0.3517679 -2.19557,0.3517679 -0.900273,0 -4.076769,0.4867309 -5.245687,0.8037911 -0.491071,0.1331993 -1.294643,0.2919389 -1.785714,0.3527546 -0.759982,0.094118 -3.417816,0.8949018 -3.645834,1.0984595 -0.214554,0.1915393 0.669525,0.016591 1.813896,-0.3589465 z"
       id="path36"
       inkscape:connector-curvature="0"
       transform="matrix(0.26458333,0,0,0.26458333,0,281.12498)" />
    <path
       style="fill:#000000;stroke-width:0.26458332"
       id="path38"
       d="m 2.7051206,281.86957 c -0.1415002,0.11231 -0.2533439,0.25392 -0.3784163,0.38277 -0.1284655,0.12689 -0.2427614,0.26811 -0.3312879,0.42561 -0.077428,0.12138 -0.1347978,0.2521 -0.185726,0.38618 -0.047704,0.13254 -0.103616,0.26184 -0.1570681,0.39209 -0.070452,0.17859 -0.1254807,0.36167 -0.1638673,0.54967 -0.037164,0.21048 -0.043447,0.42444 -0.048422,0.63759 0.00158,0.18685 -0.00732,0.37459 0.00657,0.5611 0.020747,0.12831 0.065614,0.25017 0.1186203,0.36823 0.04343,0.10748 0.097501,0.20999 0.1429753,0.31657 0.057161,0.12009 0.1300211,0.2329 0.2022358,0.34461 0.054521,0.0776 0.026051,0.0414 0.084801,0.10918 0,0 -0.5960861,0.35812 -0.5960861,0.35812 v 0 c -0.060817,-0.0748 -0.031399,-0.0358 -0.087992,-0.11734 -0.074231,-0.11524 -0.1519376,-0.22966 -0.2116433,-0.35299 -0.044864,-0.1063 -0.09862,-0.20866 -0.13946106,-0.31671 -0.0569808,-0.12535 -0.10737612,-0.25292 -0.12948073,-0.38966 -0.015684,-0.1896 9.8425e-4,-0.38048 -0.002655,-0.57052 0.002217,-0.21645 0.007158,-0.4334 0.0422758,-0.64754 0.0332609,-0.19178 0.084104,-0.37871 0.15534959,-0.55998 0.04914,-0.13069 0.1034698,-0.25925 0.1526067,-0.38988 0.054144,-0.13457 0.09948,-0.27445 0.1839605,-0.39431 0.084007,-0.16589 0.1989913,-0.31248 0.3270267,-0.44692 0.1295267,-0.11984 0.2270816,-0.26971 0.3681239,-0.37764 0,0 0.6475603,-0.26823 0.6475602,-0.26823 z"
       inkscape:connector-curvature="0" />
    <path
       style="fill:#ffffff;stroke-width:0.26458332"
       id="path42"
       d="m 3.0681467,281.9983 c 0.045354,0.0781 0.089637,0.15627 0.1240951,0.23987 0.04601,0.11445 0.062665,0.23649 0.07245,0.35853 0.00728,0.12383 0.00714,0.24793 0.00688,0.37192 0.00159,0.12418 -0.022209,0.24682 -0.034122,0.37014 -0.00338,0.12831 -0.028652,0.25265 -0.058025,0.37696 -0.040765,0.14024 -0.050864,0.28594 -0.071938,0.42962 -0.017264,0.13797 -0.053476,0.27115 -0.110158,0.39791 -0.053149,0.10904 -0.1153263,0.21323 -0.1767419,0.31771 -0.00669,0.0124 -0.01338,0.0247 -0.020053,0.0371 -0.00464,0.009 -0.00936,0.0171 -0.01388,0.0258 -0.00238,0.005 -0.00214,0.0117 -0.00684,0.0139 -0.3347794,0.1536 -0.346328,0.24879 -0.3133062,0.10192 0,0 0.3177187,-0.1448 0.3177187,-0.1448 v 0 c -0.1022459,0.0948 0.00773,-0.005 -0.331772,0.17148 -0.0046,0.002 0.011462,0.002 0.015474,-10e-4 0.00971,-0.008 0.034828,-0.0588 0.037618,-0.064 0.062231,-0.10451 0.1271787,-0.20762 0.1818712,-0.31642 0.060215,-0.12244 0.09567,-0.25388 0.114092,-0.38906 0.023691,-0.14382 0.030743,-0.29071 0.070853,-0.43168 0.026617,-0.12324 0.057554,-0.24519 0.058594,-0.37239 0.011554,-0.12252 0.034644,-0.24424 0.035746,-0.36733 -1.379e-4,-0.12315 8.202e-4,-0.24641 -0.00593,-0.36943 -0.00875,-0.11856 -0.022606,-0.23759 -0.068416,-0.3485 -0.033435,-0.0816 -0.078079,-0.15699 -0.1265147,-0.23056 0,0 0.3023034,-0.17715 0.3023034,-0.17715 z"
       inkscape:connector-curvature="0" />
    <path
       style="fill:#ffffff;stroke-width:0.26458332"
       id="path44"
       d="m 2.9240183,282.29283 c 0.075029,-0.009 0.1505583,-0.0125 0.2260116,-0.0157 0.074984,10e-4 0.1509422,-0.01 0.2246926,0.006 0.089876,0.017 0.1658414,0.0682 0.2370058,0.1231 0.1147308,0.0827 0.2068571,0.19185 0.2976163,0.29919 0.1086636,0.10899 0.1844646,0.22379 0.2568242,0.35826 0.057427,0.13195 0.093565,0.27207 0.1314442,0.41061 0.030435,0.12184 0.055055,0.24551 0.070543,0.37018 0.012353,0.11702 0.017598,0.23453 0.00196,0.3513 -0.017727,0.0907 -0.04382,0.18086 -0.093244,0.25991 -0.031078,0.0497 -0.070234,0.0937 -0.1074906,0.13867 -0.1221116,0.13552 -0.2611663,0.25494 -0.4036209,0.36845 -0.1951616,0.13849 -0.3979568,0.28795 -0.6342207,0.34157 -0.091152,0.0207 -0.1812328,0.007 -0.271648,-0.008 -0.065612,-0.0102 -0.033178,-0.006 -0.097295,-0.0142 0,0 0.2819902,-0.1988 0.2819902,-0.1988 v 0 c 0.063996,0.01 0.031527,0.005 0.097405,0.015 0.088243,0.0135 0.176308,0.0197 0.2638488,-0.004 0.040653,-0.0115 0.049553,-0.0128 0.089717,-0.0295 0.018039,-0.007 0.069854,-0.0347 0.053354,-0.0242 -0.4581081,0.29021 -0.1926416,0.11279 -0.096495,0.0473 0.1442423,-0.11014 0.2815955,-0.23057 0.4067339,-0.36209 0.025104,-0.0295 0.085131,-0.0981 0.1076314,-0.13137 0.050515,-0.0747 0.077001,-0.16097 0.096318,-0.24803 0.018312,-0.11367 0.011319,-0.2283 0.00103,-0.34266 -0.014125,-0.12353 -0.036309,-0.24616 -0.065828,-0.36695 -0.037111,-0.13614 -0.071431,-0.27412 -0.1278887,-0.40377 -0.032366,-0.0604 -0.064711,-0.12242 -0.1042498,-0.17861 -0.043869,-0.0623 -0.097927,-0.11666 -0.1475343,-0.17423 -0.090136,-0.10516 -0.1821788,-0.21122 -0.2968866,-0.29053 -0.070034,-0.0499 -0.1444212,-0.0945 -0.2310069,-0.10696 -0.07324,-0.007 -0.147111,-0.002 -0.2205421,-1.4e-4 -0.075851,0.003 -0.1517989,0.008 -0.2267502,0.0206 0,0 0.2805741,-0.20999 0.2805741,-0.20999 z"
       inkscape:connector-curvature="0" />
    <path
       style="fill:#ffffff;stroke-width:0.26458332"
       id="path46"
       d="m 4.6243004,282.21847 c 0.015354,0.0985 0.058769,0.18875 0.091516,0.28217 0.056598,0.12499 0.09692,0.25542 0.1271883,0.389 0.044002,0.18287 0.058931,0.37118 0.046632,0.55892 -0.00418,0.0638 -0.012973,0.12717 -0.01946,0.19075 -0.039952,0.36002 -0.123525,0.71275 -0.19377,1.0675 -0.028017,0.13929 -0.058627,0.27835 -0.073362,0.41985 -0.034225,-0.12199 4.233e-4,-0.016 -0.3059573,0.13503 0,0 0.3208242,-0.14228 0.3208242,-0.14228 v 0 c -0.3259994,0.18222 -0.2666648,0.28876 -0.3290419,0.15987 0.012954,-0.0466 0.019018,-0.0945 0.028121,-0.14204 0.018516,-0.0967 0.042762,-0.19194 0.064637,-0.28786 0.07881,-0.35403 0.1690055,-0.70652 0.2043414,-1.06854 0.00512,-0.0619 0.012645,-0.12368 0.015356,-0.18575 0.00801,-0.18331 -0.013389,-0.36666 -0.058497,-0.54423 -0.028251,-0.13267 -0.069537,-0.26112 -0.1268889,-0.38426 -0.033791,-0.0933 -0.076714,-0.18345 -0.099249,-0.28045 0,0 0.3076101,-0.16768 0.3076102,-0.16768 z"
       inkscape:connector-curvature="0" />
    <path
       style="fill:#ffffff;stroke-width:0.26458332"
       id="path48"
       d="m 5.1597969,281.94697 c -0.039296,0.0102 -0.075654,0.0281 -0.1121552,0.0454 0,0 0.2699437,-0.21422 0.2699437,-0.21422 v 0 c 0.039201,-0.017 0.078466,-0.0336 0.1192885,-0.0464 0,0 -0.277077,0.21526 -0.277077,0.21526 z"
       inkscape:connector-curvature="0" />
    <path
       style="fill:#ffffff;stroke-width:0.26458332"
       id="path50"
       d="m 4.1532876,282.52405 c 0.1605116,-0.11363 0.3321518,-0.21009 0.5170736,-0.27558 0.1099158,-0.0468 0.3024899,-0.16594 -0.1793105,0.10865 -0.014134,0.008 0.028191,-0.0162 0.042108,-0.0247 0.012578,-0.008 0.091067,-0.0568 0.1013148,-0.0632 0.1042731,-0.0693 0.199912,-0.14988 0.3067646,-0.21527 0.2441455,-0.14139 0.2912382,-0.21333 0.5171159,-0.22744 0.064968,-0.003 0.1300311,-0.002 0.1950434,-0.002 0.05257,0.003 0.094258,0.0374 0.1414505,0.0567 0.015632,0.006 0.031785,0.0115 0.047678,0.0172 0.017288,0.007 0.034573,0.0143 0.05186,0.0214 0.016719,0.007 0.033439,0.013 0.050158,0.0195 0,0 -0.2855743,0.19156 -0.2855743,0.19156 v 0 c -0.016642,-0.007 -0.033285,-0.0133 -0.049927,-0.0199 -0.033919,-0.0132 -0.068303,-0.0252 -0.1019728,-0.0389 -0.044446,-0.0182 -0.08594,-0.0448 -0.1358741,-0.0428 -0.064015,-6e-4 -0.128129,-10e-4 -0.1920341,0.003 -0.036445,0.004 -0.072245,0.008 -0.1073457,0.0187 -0.1103942,0.0352 -0.2834716,0.1699 0.190952,-0.12153 -0.016354,0.01 -0.077686,0.045 -0.091883,0.0544 -0.075056,0.0499 -0.1421069,0.11128 -0.2172944,0.16109 -0.1808191,0.11175 -0.356621,0.23842 -0.5554977,0.31561 -0.032553,0.012 -0.051774,0.0186 -0.083424,0.0324 -0.013229,0.006 -0.051571,0.0258 -0.03925,0.0183 0.4652949,-0.28421 0.3005373,-0.18367 0.2041612,-0.11546 0,0 -0.3262923,0.12767 -0.3262923,0.12767 z"
       inkscape:connector-curvature="0" />
    <path
       style="fill:#ffffff;stroke-width:0.26458332"
       id="path52"
       d="m 4.9320169,283.33226 c 0.087641,-0.009 0.1756868,-0.0126 0.2637568,-0.0146 0.1114216,-0.01 0.2166786,0.0226 0.320947,0.0571 0.088835,0.041 0.1686575,0.097 0.2470914,0.15476 0.040864,0.0273 0.020534,0.0149 0.060812,0.0375 0,0 -0.2918121,0.18896 -0.2918121,0.18896 v 0 c -0.040764,-0.0256 -0.020256,-0.012 -0.061417,-0.0412 -0.075273,-0.0556 -0.1514682,-0.11139 -0.2388463,-0.14672 -0.1027202,-0.0316 -0.2055209,-0.0591 -0.3143287,-0.0475 -0.089164,0.003 -0.1785641,0.007 -0.2667772,0.0217 0,0 0.2805742,-0.21 0.2805741,-0.21 z"
       inkscape:connector-curvature="0" />
    <path
       style="fill:#ffffff;stroke-width:0.26458332"
       id="path54"
       d="m 4.8404459,284.99558 c 0.1041667,0.0138 0.2094376,0.0162 0.3143517,0.0189 0.1694561,-0.002 0.3228777,-0.0894 0.4732428,-0.15858 0.031233,-0.0153 0.062332,-0.0308 0.093698,-0.0458 0.065807,-0.0315 0.1019657,-0.0483 0.1686603,-0.0749 0.055411,-0.0221 0.1100709,-0.0408 0.1629563,-0.0685 0,0 -0.2710217,0.21598 -0.2710217,0.21598 v 0 c -0.1388724,0.0596 -0.2826962,0.1078 -0.4156824,0.1809 -0.1554678,0.0712 -0.313501,0.15659 -0.4892807,0.15137 -0.1079016,-0.003 -0.2158799,-0.007 -0.3233444,-0.0174 0,0 0.2864202,-0.20195 0.2864202,-0.20195 z"
       inkscape:connector-curvature="0" />
    <path
       style="fill:#ffffff;stroke-width:0.26458332"
       id="path56"
       d="m 6.792243,282.46389 c -0.051017,0.16406 -0.1207783,0.3216 -0.1770269,0.48395 -0.068408,0.1995 -0.092339,0.40839 -0.1052459,0.61763 -0.00717,0.13411 -0.020598,0.26841 -0.056379,0.39823 -0.010411,0.0378 -0.041361,0.13145 -0.054055,0.17042 -0.031554,0.0883 -0.046431,0.18126 -0.074049,0.27067 0,0 -0.3161266,0.14673 -0.3161266,0.14673 v 0 c 0.040285,-0.0871 0.050592,-0.18427 0.084515,-0.27389 0.029595,-0.0862 0.062933,-0.17253 0.082238,-0.26181 0.02127,-0.0984 0.02856,-0.19972 0.034053,-0.29992 0.01316,-0.21224 0.036399,-0.42461 0.1050158,-0.62721 0.051083,-0.15781 0.1144394,-0.31128 0.1633368,-0.46983 0,0 0.3137241,-0.15497 0.3137238,-0.15497 z"
       inkscape:connector-curvature="0" />
    <path
       style="fill:#ffffff;stroke-width:0.26458332"
       id="path58"
       d="m 6.8732624,282.18577 c 0.066639,0.0748 0.1196115,0.15871 0.1690529,0.24544 0.103169,0.19018 0.208875,0.37883 0.3152494,0.56722 0.1252308,0.20749 0.2256806,0.42691 0.3075496,0.65465 0.053608,0.14918 0.079901,0.30514 0.093148,0.46247 0.00572,0.11739 -0.030339,0.2083 -0.094027,0.30425 -0.025596,0.0405 -0.060271,0.0695 -0.098471,0.0971 0,0 -0.3225242,0.12505 -0.3225242,0.12505 v 0 c 0.041434,-0.022 0.078125,-0.0453 0.105637,-0.0848 0.012988,-0.0179 0.048246,-0.0652 0.058659,-0.0854 0.031218,-0.0605 0.04586,-0.13083 0.045836,-0.19829 -0.0076,-0.15598 -0.029634,-0.31085 -0.07898,-0.45966 -0.077942,-0.22725 -0.1796294,-0.44421 -0.3032599,-0.65042 -0.1056442,-0.18845 -0.2137804,-0.37561 -0.3245072,-0.56113 -0.050933,-0.0839 -0.1033296,-0.16669 -0.1734757,-0.23629 0,0 0.3001124,-0.18019 0.3001131,-0.18019 z"
       inkscape:connector-curvature="0" />
    <path
       style="fill:#ffffff;stroke-width:0.26458332"
       id="path60"
       d="m 6.4703361,283.61615 c 0.1031777,-0.0272 0.2063451,-0.0547 0.307912,-0.0874 0.189094,-0.0558 0.3625192,-0.15145 0.5342681,-0.24613 -0.3887091,0.23415 -0.078081,0.0355 -2.219e-4,-0.0185 0,0 0.311351,-0.12257 0.311351,-0.12257 v 0 c -0.1824273,0.12771 -0.3685174,0.24703 -0.5682289,0.34835 -0.1760956,0.0959 -0.3539964,0.19166 -0.5474817,0.24812 -0.105112,0.0321 -0.210608,0.0642 -0.3181032,0.0874 0,0 0.2805046,-0.20918 0.2805046,-0.20918 z"
       inkscape:connector-curvature="0" />
    <path
       style="fill:#ffffff;stroke-width:0.26458332"
       id="path62"
       d="m 8.0990463,282.21789 c 0.1196655,-0.0384 0.2315316,-0.0945 0.3451521,-0.14714 0.089546,-0.0456 0.1849038,-0.0755 0.2790259,-0.10922 0.073259,-0.0294 0.03673,-0.0158 0.1095409,-0.0411 0.09628,-0.0357 0.1985359,-0.0411 0.3000174,-0.0451 0.065599,-0.007 0.03307,-0.003 0.097588,-0.01 0,0 -0.2770981,0.20546 -0.2770981,0.20546 v 0 c -0.06455,0.006 -0.03193,0.003 -0.097864,0.008 -0.099812,0.006 -0.1992609,0.0163 -0.2933465,0.0526 -0.1290796,0.0465 -0.2596647,0.0892 -0.3830023,0.15017 -0.1168202,0.0553 -0.2338488,0.11106 -0.3578935,0.14865 0,0 0.2778803,-0.21248 0.2778803,-0.21248 z"
       inkscape:connector-curvature="0" />
    <path
       style="fill:#ffffff;stroke-width:0.26458332"
       id="path64"
       d="m 8.6825046,282.20136 c -0.049081,0.25913 -0.1490506,0.50564 -0.2372849,0.75324 -0.1130721,0.319 -0.2627789,0.62299 -0.4105878,0.92689 -0.1158568,0.25152 -0.2497593,0.49328 -0.3991221,0.72621 0,0 -0.3085711,0.13513 -0.3085711,0.13513 v 0 c 0.158197,-0.23161 0.3009839,-0.47257 0.4160192,-0.72899 0.1473954,-0.3034 0.2955565,-0.60744 0.4129375,-0.92401 0.055812,-0.15878 0.113878,-0.31637 0.1600997,-0.47829 0.019584,-0.0686 0.037907,-0.13367 0.048315,-0.20398 0.00251,-0.017 0.00246,-0.0344 0.00371,-0.0515 0,0 0.3144856,-0.15466 0.3144856,-0.15466 z"
       inkscape:connector-curvature="0" />
    <path
       style="fill:#ffffff;stroke-width:0.26458332"
       id="path66"
       d="m 9.2982009,282.3202 c -0.0071,0.1628 -0.00613,0.32584 -0.00683,0.48877 4.497e-4,0.1628 0.00172,0.3256 0.00307,0.4884 0.0103,0.11211 -0.022482,0.21856 -0.049777,0.32567 -0.015486,0.0695 -0.00846,0.0355 -0.021243,0.10185 0,0 -0.3100094,0.15048 -0.3100094,0.15048 v 0 c 0.013475,-0.0679 0.00621,-0.0332 0.021905,-0.10401 0.025082,-0.10528 0.061817,-0.20902 0.054834,-0.31895 0.00135,-0.16384 0.00262,-0.32768 0.00307,-0.49153 -6.879e-4,-0.1606 3.704e-4,-0.32133 -0.00683,-0.48181 0,0 0.3118038,-0.15887 0.3118038,-0.15887 z"
       inkscape:connector-curvature="0" />
    <path
       style="fill:#ffffff;stroke-width:0.26458332"
       id="path68"
       d="m 9.3007406,282.97439 c 0.1012278,-0.0651 0.1946024,-0.13969 0.2844946,-0.2195 0.1362813,-0.11748 0.2869589,-0.21616 0.4358768,-0.3165 0.08004,-0.0565 0.158444,-0.11523 0.236762,-0.17409 0,0 0.318431,-0.12639 0.318431,-0.12639 v 0 c -0.08068,0.0587 -0.160409,0.11873 -0.241084,0.17749 -0.148663,0.0991 -0.298635,0.19689 -0.4361958,0.31136 -0.085558,0.0788 -0.172547,0.15698 -0.2726986,0.21697 0,0 -0.325586,0.13066 -0.325586,0.13066 z"
       inkscape:connector-curvature="0" />
    <path
       style="fill:#ffffff;stroke-width:0.26458332"
       id="path70"
       d="m 10.503245,282.12826 c -0.0049,0.14306 -0.006,0.28623 -0.0074,0.42936 -0.0042,0.26388 -0.0035,0.5278 -0.0016,0.79169 8.2e-4,0.0926 0.0026,0.18515 0.0037,0.27773 0,0 -0.301815,0.15378 -0.301815,0.15378 v 0 c 0.0011,-0.0938 0.0029,-0.18764 0.0037,-0.28148 0.0019,-0.26336 0.0026,-0.52675 -0.0016,-0.79009 -0.0014,-0.14064 -0.0024,-0.28131 -0.0074,-0.42187 0,0 0.312295,-0.15912 0.312295,-0.15912 z"
       inkscape:connector-curvature="0" />
    <path
       style="fill:#ffffff;stroke-width:0.26458332"
       id="path72"
       d="m 10.455998,281.60854 c 0.0044,0.11002 0.0138,0.21952 0.01218,0.3297 -0.0065,0.16433 -0.02282,0.32805 -0.03119,0.49234 -0.0036,0.0918 -0.0022,0.0474 -0.0044,0.13313 0,0 -0.305439,0.15418 -0.305439,0.15418 v 0 c 0.0043,-0.0871 0.002,-0.0421 0.0069,-0.13505 0.01,-0.16342 0.02538,-0.32658 0.03058,-0.49022 2.42e-4,-0.10862 -0.0058,-0.21731 -0.02085,-0.32496 0,0 0.312294,-0.15912 0.312294,-0.15912 z"
       inkscape:connector-curvature="0" />
    <path
       style="fill:#ffffff;stroke-width:0.26458332"
       id="path74"
       d="m 9.7626452,281.61891 c -0.1178113,0.24319 -0.1951307,0.50413 -0.2644577,0.76451 -0.077866,0.35939 -0.1286978,0.72372 -0.204779,1.0835 -0.029128,0.14175 -0.06273,0.28256 -0.091149,0.42445 0,0 -0.3086254,0.14914 -0.3086254,0.14914 v 0 c 0.032881,-0.14467 0.071749,-0.2879 0.1064004,-0.43215 0.084866,-0.36044 0.1408255,-0.72626 0.2140971,-1.08909 0.063267,-0.2559 0.1351822,-0.51014 0.2301557,-0.75633 0,0 0.3183581,-0.14403 0.3183579,-0.14403 z"
       inkscape:connector-curvature="0" />
    <path
       style="fill:#ffffff;stroke-width:0.26458332"
       id="path90"
       d="m 2.5886326,287.35791 c -0.023251,0.19709 -0.088799,0.3861 -0.1404139,0.577 -0.082546,0.31004 -0.1464039,0.62482 -0.2328436,0.93385 -0.020416,0.073 -0.042908,0.14539 -0.064361,0.21808 -0.082983,0.2685 -0.1716431,0.53617 -0.2835206,0.79427 -0.054553,0.12585 -0.07875,0.16899 -0.139401,0.28788 -0.017098,0.0335 -0.034197,0.067 -0.051296,0.10044 0,0 -0.3027305,0.13594 -0.3027305,0.13594 v 0 c 0.019248,-0.0344 0.038497,-0.0687 0.057745,-0.10303 0.062295,-0.11559 0.091871,-0.16615 0.147588,-0.28852 0.1169017,-0.25675 0.2084287,-0.52482 0.2913226,-0.79413 0.021169,-0.0722 0.043508,-0.14406 0.063508,-0.2166 0.084448,-0.30628 0.1432879,-0.61896 0.219461,-0.92729 0.044766,-0.18555 0.1077354,-0.36861 0.1241204,-0.55952 0,0 0.3108218,-0.15837 0.3108216,-0.15837 z"
       inkscape:connector-curvature="0" />
    <path
       style="fill:#ffffff;stroke-width:0.26458332"
       id="path100"
       d="m 2.4083957,287.42411 c 0.1061437,0.012 0.1928645,0.0764 0.267721,0.14788 0.1092369,0.12338 0.2262926,0.23934 0.3399346,0.35857 0.1355328,0.13854 0.2384943,0.30319 0.337399,0.46868 0.085412,0.14853 0.1415418,0.31097 0.2133216,0.4659 0.04991,0.0969 0.095451,0.19788 0.172339,0.27657 0.052677,0.0438 0.1012741,0.0921 0.1530472,0.13683 0.053531,0.0313 0.070586,0.0635 0.08179,0.1233 0.00953,0.0734 -0.00153,0.14778 -0.00754,0.22116 -5.292e-4,0.0515 -0.019989,0.11265 0.011213,0.15813 0.02046,0.0152 0.050321,0.0309 0.076997,0.0229 0.00751,-0.002 0.027449,-0.0152 0.02059,-0.0114 -0.09308,0.0516 -0.1861695,0.10326 -0.2792544,0.1549 0.00856,-0.008 0.017126,-0.0157 0.025691,-0.0236 0,0 0.3200151,-0.13519 0.3200151,-0.13519 v 0 c -0.00703,0.0101 -0.014057,0.0202 -0.021087,0.0303 -0.1302438,0.0752 -0.3037697,0.27905 -0.4448744,0.13839 -0.00529,-0.009 -0.011917,-0.0164 -0.015875,-0.0257 -0.020421,-0.0477 -0.00544,-0.10392 -0.00474,-0.15348 0.0065,-0.0705 0.018497,-0.14195 0.011255,-0.21274 -0.00977,-0.0576 -0.023463,-0.0691 -0.070679,-0.10306 -0.050647,-0.0471 -0.1012706,-0.0942 -0.1522172,-0.14097 -0.075621,-0.0847 -0.1236223,-0.18766 -0.1727012,-0.28923 -0.069114,-0.15494 -0.1239856,-0.31665 -0.2073256,-0.46501 -0.097347,-0.16365 -0.2004838,-0.32509 -0.3347823,-0.46141 -0.1139348,-0.11855 -0.2312269,-0.23386 -0.3435728,-0.35395 -0.073195,-0.0657 -0.1571966,-0.12359 -0.2597845,-0.12207 0,0 0.2831117,-0.20569 0.2831117,-0.20569 z"
       inkscape:connector-curvature="0" />
    <path
       style="fill:#ffffff;stroke-width:0.26458332"
       id="path106"
       d="m 4.4630149,287.49677 c 0.063352,0.0715 0.091269,0.16319 0.1159714,0.25342 0.027214,0.1181 0.029787,0.23937 0.05006,0.35858 0.024093,0.10093 0.027136,0.20337 0.023527,0.30645 -0.00496,0.1044 -0.026707,0.20531 -0.066946,0.30157 -0.04027,0.078 -0.070462,0.15911 -0.0953,0.24308 -0.019915,0.072 -0.030836,0.14627 -0.043679,0.21984 -0.020151,0.10038 -0.084035,0.18735 -0.1420976,0.26957 -0.1006311,0.1251 -0.2127306,0.23995 -0.3123904,0.36594 -0.024559,0.0331 -0.050044,0.0652 -0.061768,0.10513 -0.00324,0.011 0.02105,-0.0377 0.010663,-0.0328 -0.091218,0.0431 -0.1764289,0.098 -0.2646434,0.14693 0,0 0.3213846,-0.12856 0.3213846,-0.12856 v 0 c -0.1103315,0.0663 -0.2170462,0.13897 -0.3309943,0.1988 -0.010258,0.005 -0.024252,-9e-4 -0.034014,-0.007 -0.038254,-0.0244 -0.00376,-0.0752 0.011356,-0.0988 0.010904,-0.017 0.023265,-0.0331 0.034897,-0.0496 0.09936,-0.1257 0.2094383,-0.24169 0.3123414,-0.36433 0.044497,-0.06 0.082436,-0.12211 0.118033,-0.18773 0.00571,-0.0105 0.012827,-0.0204 0.017161,-0.0316 0.00413,-0.0106 0.00534,-0.0222 0.008,-0.0333 0.011869,-0.0751 0.026397,-0.14981 0.041898,-0.22417 0.02752,-0.0855 0.051195,-0.16914 0.096055,-0.2481 0.017457,-0.0362 0.028787,-0.0561 0.040309,-0.0951 0.01864,-0.0631 0.023466,-0.1296 0.032307,-0.19444 0.00375,-0.10119 0.00373,-0.20148 -0.019172,-0.30093 -0.00406,-0.0249 -0.015883,-0.0956 -0.018465,-0.11969 -0.00845,-0.0787 -0.00905,-0.15863 -0.030189,-0.23562 -0.023233,-0.0843 -0.048322,-0.17182 -0.1131196,-0.23435 0,0 0.2988138,-0.18311 0.2988138,-0.18311 z"
       inkscape:connector-curvature="0" />
    <path
       style="fill:#ffffff;stroke-width:0.26458332"
       id="path108"
       d="m 5.8158342,287.30906 c -0.075842,0.062 -0.1292214,0.1486 -0.1754333,0.23386 -0.063885,0.11863 -0.1045945,0.24395 -0.1285197,0.37601 -0.025667,0.13964 -0.016682,0.27831 0.012885,0.41613 0.030024,0.15771 0.07946,0.31082 0.1406755,0.45899 0.048688,0.12246 0.114481,0.23645 0.1800212,0.35035 0.03609,0.0727 0.092348,0.12151 0.1614548,0.16115 0.075003,0.0611 0.1567982,0.11032 0.2448396,0.15008 0.1004956,0.0385 0.2083374,0.0443 0.3146724,0.0485 0.1155258,-0.008 0.2237322,-0.0491 0.3233637,-0.10623 -0.5217226,0.27935 -0.2315782,0.16528 -0.1665986,0.0673 0.017748,-0.0267 0.019661,-0.0415 0.029137,-0.0724 0.014706,-0.11173 0.032867,-0.22316 0.046461,-0.33513 0.016949,-0.14248 0.006,-0.2859 -0.011454,-0.4277 -0.014126,-0.12491 -0.048184,-0.24595 -0.08794,-0.36477 -0.029523,-0.0839 -0.055532,-0.16902 -0.094092,-0.24935 -0.026671,-0.0615 -0.057668,-0.10708 -0.1155438,-0.14097 -0.074242,-0.0336 -0.1591733,-0.0307 -0.2390606,-0.0335 -0.108331,-0.007 -0.2160876,0.005 -0.3237817,0.0147 -0.032061,0.004 -0.068899,0.004 -0.099171,-0.01 -0.022058,-0.0103 -0.042164,-0.0311 -0.061934,-0.0453 -0.053509,-0.0272 -0.1152221,-0.0266 -0.1738609,-0.0292 -0.071722,9.7e-4 -0.1395765,0.0213 -0.2069746,0.0434 -0.1162163,0.0338 -0.2887868,0.15077 0.227928,-0.13934 0.0047,-0.003 -0.00882,0.006 -0.013507,0.009 -0.00111,6.3e-4 -0.00416,-2.9e-4 -0.00372,9e-4 0.00114,0.003 0.00451,0.005 0.00677,0.007 0,0 -0.3013443,0.17933 -0.3013443,0.17933 v 0 c -0.010327,-0.0143 -0.04206,-0.053 -0.014433,-0.0701 0.1551607,-0.0958 0.2316149,-0.15979 0.3735036,-0.20024 0.069343,-0.0209 0.1404768,-0.0358 0.2133862,-0.0327 0.064923,0.004 0.1320231,0.007 0.1878319,0.0442 0.050835,0.0379 0.077816,0.0458 0.1436875,0.0369 0.1078754,-0.008 0.2158135,-0.0158 0.3240898,-0.01 0.085909,0.003 0.1770237,0.001 0.2537753,0.0454 0.05869,0.039 0.096335,0.0941 0.1231937,0.15912 0.039656,0.0819 0.066273,0.16816 0.094716,0.25441 0.037919,0.12176 0.073763,0.24498 0.087771,0.37217 0.018214,0.14376 0.030183,0.28943 0.016362,0.43416 -0.011187,0.11292 -0.032758,0.22431 -0.040706,0.33754 -0.014907,0.0737 -0.039278,0.13265 -0.1066932,0.17337 -0.1109776,0.067 -0.2237452,0.13105 -0.3356176,0.19658 -0.1047525,0.0522 -0.2162977,0.0918 -0.3348072,0.0916 -0.1095727,-0.006 -0.2203529,-0.0155 -0.3224109,-0.0594 -0.088109,-0.0426 -0.1711883,-0.0929 -0.2497479,-0.15139 -0.0712,-0.0458 -0.1313828,-0.0998 -0.1680932,-0.17794 -0.063317,-0.11669 -0.1273432,-0.23334 -0.1776098,-0.35644 -0.061277,-0.15014 -0.1109673,-0.30485 -0.1436772,-0.46385 -0.03323,-0.14099 -0.044645,-0.28365 -0.020098,-0.42743 0.022066,-0.13465 0.059028,-0.26335 0.1228209,-0.38473 0.042976,-0.0891 0.097905,-0.17098 0.1611889,-0.24704 0,0 0.3262923,-0.12766 0.3262923,-0.12766 z"
       inkscape:connector-curvature="0" />
    <path
       style="fill:#ffffff;stroke-width:0.26458332"
       id="path110"
       d="m 7.2220068,287.41443 c 0.073518,-0.0164 0.1470874,-0.0322 0.2214851,-0.0441 0.1127511,-0.012 0.2262986,-0.0134 0.3395768,-0.0146 0.1325795,0.001 0.2653149,-0.004 0.3977489,0.003 0.1312992,0.008 0.2569136,0.0427 0.3823356,0.0795 0.1258906,0.043 0.2509597,0.0869 0.3803761,0.11849 0.1125252,0.0251 0.2276266,0.031 0.3424521,0.0342 0.1138727,0.003 0.2278999,-0.002 0.3416564,0.004 0.049078,0.005 0.027041,-3.1e-4 0.066595,0.0121 0,0 -0.2881969,0.19769 -0.2881969,0.19769 v 0 c -0.033246,-0.008 -0.014031,-0.004 -0.057956,-0.009 -0.1134089,-0.006 -0.2270742,2.9e-4 -0.3405566,-0.004 -0.1161675,-0.004 -0.2321883,-0.0133 -0.3454662,-0.0411 -0.1290275,-0.0337 -0.253895,-0.0792 -0.3808362,-0.1196 -0.1238205,-0.0354 -0.2483443,-0.0675 -0.3778205,-0.0728 -0.1323155,-0.005 -0.2647889,-0.002 -0.3971595,-10e-4 -0.1132279,0.002 -0.2270405,0.003 -0.3391675,0.0209 -0.074819,0.0135 -0.1494774,0.0292 -0.2226587,0.0498 0,0 0.2775926,-0.21373 0.2775926,-0.21373 z"
       inkscape:connector-curvature="0" />
    <path
       style="fill:#ffffff;stroke-width:0.26458332"
       id="path112"
       d="m 8.4007528,287.53804 c 1.772e-4,0.11075 -0.00956,0.21986 -0.032725,0.32812 -0.025532,0.13529 -0.073185,0.26419 -0.1259327,0.39084 -0.065774,0.13329 -0.1495962,0.25648 -0.2161431,0.38926 -0.017769,0.0535 -0.073348,0.1393 -0.047517,0.19679 0,0 -0.3042417,0.17142 -0.3042417,0.17142 v 0 c -0.00469,-0.0106 -0.012009,-0.0204 -0.014081,-0.0318 -0.011216,-0.0618 0.03831,-0.14001 0.05584,-0.1958 0.063625,-0.13384 0.1475809,-0.25661 0.216921,-0.38756 0.05319,-0.12442 0.1020062,-0.25134 0.1272937,-0.38476 0.024577,-0.10429 0.036722,-0.2101 0.028292,-0.31739 0,0 0.3122943,-0.15912 0.3122938,-0.15912 z"
       inkscape:connector-curvature="0" />
    <path
       style="fill:#ffffff;stroke-width:0.26458332"
       id="path114"
       d="m 8.1897066,288.93286 c 0.00774,0.10022 0.033886,0.19967 0.071912,0.29258 0.020513,0.0648 0.07333,0.0968 0.1238676,0.13621 0.040942,0.0406 0.084915,0.0774 0.1319271,0.11073 0.00677,0.004 0.013533,0.007 0.020301,0.0111 0,0 -0.2934867,0.1899 -0.2934867,0.1899 v 0 c -0.00727,-0.005 -0.014541,-0.009 -0.02181,-0.0141 -0.04584,-0.0352 -0.090316,-0.0718 -0.1318493,-0.11204 -0.054776,-0.0436 -0.1100579,-0.0821 -0.1302252,-0.15366 -0.036825,-0.0959 -0.063365,-0.1968 -0.08041,-0.29798 0,0 0.3097736,-0.16272 0.3097736,-0.16272 z"
       inkscape:connector-curvature="0" />
    <path
       style="fill:#ffffff;stroke-width:0.26458332"
       id="path116"
       d="m 7.8870161,288.85152 c 0.056985,0.0297 0.1179017,0.0476 0.1718651,0.083 0.053732,0.0499 0.1230522,0.0707 0.1879208,0.10079 0.027173,0.0133 0.055896,0.0221 0.084907,0.0302 0,0 -0.2882556,0.19641 -0.2882556,0.19641 v 0 c -0.029346,-0.0101 -0.058413,-0.0208 -0.086319,-0.0345 -0.066522,-0.0296 -0.1337593,-0.0568 -0.1900552,-0.10461 -0.053975,-0.0308 -0.1132028,-0.0503 -0.1704089,-0.0744 0,0 0.2903461,-0.19699 0.2903461,-0.19699 z"
       inkscape:connector-curvature="0" />
    <path
       style="fill:#ffffff;stroke-width:0.26458332"
       id="path118"
       d="m 10.174082,287.39733 c 0.0073,0.14633 0.02246,0.29189 0.03853,0.43746 0.01949,0.19309 0.03462,0.38633 0.06241,0.57845 0.02793,0.15198 0.08129,0.2974 0.121282,0.44638 0.03422,0.10157 0.03235,0.21152 0.06224,0.31369 0.0017,0.003 0.0035,0.006 0.0052,0.009 0,0 -0.306574,0.17231 -0.306574,0.17231 v 0 c -0.0019,-0.005 -0.0038,-0.0105 -0.0057,-0.0158 -0.02153,-0.10526 -0.02312,-0.21406 -0.05311,-0.3179 -0.03947,-0.1506 -0.09523,-0.2967 -0.1231775,-0.45014 -0.024641,-0.19342 -0.036955,-0.38764 -0.05771,-0.58147 -0.018934,-0.14311 -0.037985,-0.2861 -0.053116,-0.42966 0,0 0.3097735,-0.16272 0.3097735,-0.16272 z"
       inkscape:connector-curvature="0" />
    <path
       style="fill:#ffffff;stroke-width:0.26458332"
       id="path120"
       d="m 9.7025094,287.55478 c 0.063423,-0.12496 0.1576562,-0.22877 0.2511345,-0.33162 0.089481,-0.10398 0.1748201,-0.2114 0.2863901,-0.29257 0.13465,-0.0864 0.08994,-0.0586 0.365138,-0.2112 0.01015,-0.006 0.05117,-0.0191 0.06325,-0.019 0.02404,1.8e-4 0.05041,0.0134 0.07179,0.0221 0.05241,0.0252 0.0253,0.0122 0.08132,0.0391 0,0 -0.287565,0.19052 -0.287565,0.19052 v 0 c -0.05639,-0.0249 -0.02924,-0.0136 -0.08132,-0.0343 -0.03497,-0.008 -0.0556,-0.008 -0.08937,0.005 -0.0098,0.004 -0.03784,0.0189 -0.02875,0.0135 0.07504,-0.0448 0.379973,-0.22192 0.22658,-0.13198 -0.118815,0.0744 -0.207992,0.18089 -0.296739,0.28803 -0.08994,0.0983 -0.186931,0.1966 -0.242265,0.31954 0,0 -0.3195966,0.14246 -0.3195966,0.14246 z"
       inkscape:connector-curvature="0" />
    <path
       style="fill:#ffffff;stroke-width:0.26458332"
       id="path122"
       d="m 10.129983,288.49804 c 0.05043,-0.0674 0.110651,-0.12601 0.17252,-0.1827 0.07446,-0.0675 0.147338,-0.13662 0.22073,-0.20523 0.138251,-0.12233 0.299884,-0.23736 0.482937,-0.27353 0.01156,-0.002 0.02311,-0.003 0.03466,-0.005 0,0 -0.277727,0.20912 -0.277727,0.20912 v 0 c -0.01101,0.002 -0.02202,0.005 -0.03303,0.007 -0.121984,0.0367 -0.252663,0.1333 0.202133,-0.13333 0.0099,-0.006 -0.01993,0.0113 -0.02953,0.0175 -0.02946,0.0191 -0.03234,0.0233 -0.06008,0.0471 -0.07248,0.0693 -0.14736,0.13612 -0.219704,0.20561 -0.06098,0.0547 -0.121943,0.1093 -0.172159,0.17446 0,0 -0.320747,0.1391 -0.320747,0.1391 z"
       inkscape:connector-curvature="0" />
    <path
       style="fill:#ffffff;stroke-width:0.26458332"
       id="path124"
       d="m 10.661659,288.96196 c -0.03511,0.0558 -0.08389,0.11016 -0.09281,0.17777 7.14e-4,9.2e-4 0.0013,0.003 0.0021,0.003 0.0035,-0.003 0.0044,-0.008 0.0078,-0.0111 0.007,-0.006 0.0152,-0.0112 0.02279,-0.0168 -0.08701,0.0486 -0.172431,0.1001 -0.261023,0.14572 -0.01755,0.009 0.03181,-0.0234 0.04726,-0.0357 0.01815,-0.0144 0.03568,-0.0295 0.05351,-0.0443 0.157315,-0.12416 0.3185,-0.24265 0.471396,-0.37237 0.132651,-0.11856 0.270185,-0.23146 0.403916,-0.3488 0.02027,-0.0237 0.107751,-0.092 0.0881,-0.12965 0,0 0.304512,-0.1734 0.304512,-0.1734 v 0 c 0.0044,0.009 0.01105,0.0171 0.01324,0.0268 0.01338,0.0595 -0.05798,0.1089 -0.08964,0.14778 -0.136328,0.11809 -0.276763,0.2314 -0.410884,0.35199 -0.150287,0.12928 -0.308339,0.24791 -0.464529,0.36981 -0.159825,0.1374 -0.151546,0.12708 -0.430353,0.27653 -0.03158,0.0169 -0.06054,-0.003 -0.07116,-0.0316 -8.2e-4,-0.0738 0.04945,-0.1339 0.08473,-0.19499 0,0 0.320999,-0.14045 0.320999,-0.14045 z"
       inkscape:connector-curvature="0" />
  </g>
</svg>
