<?xml version="1.0" standalone="no"?><!-- Generator: Gravit.io --><svg xmlns="http://www.w3.org/2000/svg" xmlns:xlink="http://www.w3.org/1999/xlink" style="isolation:isolate" viewBox="0 0 155.906 170.079" width="155.906" height="170.079"><defs><clipPath id="_clipPath_lNE5BVGFFbRVHLiuEtyIHxaBN6aUOBgI"><rect width="155.906" height="170.079"/></clipPath></defs><g clip-path="url(#_clipPath_lNE5BVGFFbRVHLiuEtyIHxaBN6aUOBgI)"><path d=" M 74.871 0 Q 26.018 0.438 26.898 60.885 Q 24.698 69.207 41.862 91.547 Q 44.943 110.82 62.547 117.828 Q 84.03 122.646 99.695 115.2 Q 115.361 107.753 112.28 95.927 Q 114.041 86.29 125.043 75.778 C 136.046 65.265 126.364 7.446 94.676 2.628 Q 87.634 0.438 74.871 0 Z " fill="rgb(255,255,255)"/><path d=" M 99.654 99.401 Q 90.706 119.736 76.201 101.661 Q 62.993 120.558 53.293 99.401" fill="none" vector-effect="non-scaling-stroke" stroke-width="1" stroke="rgb(0,0,0)" stroke-linejoin="miter" stroke-linecap="square" stroke-miterlimit="3"/><polygon points="80.496,106.48,72.451,106.48,76.6,101.991" fill="rgb(240,155,160)"/><path d=" M 76.242 83.094 Q 55.604 86.062 63.446 95.14 Q 68.812 100.726 76.242 101.25 L 76.242 83.094 Z  M 76.515 83.094 Q 98.144 86.062 89.925 95.14 Q 84.301 100.726 76.515 101.25 L 76.515 83.094 Z " fill-rule="evenodd" fill="rgb(2,2,3)" vector-effect="non-scaling-stroke" stroke-width="1" stroke="rgb(0,0,0)" stroke-linejoin="miter" stroke-linecap="square" stroke-miterlimit="3"/><ellipse vector-effect="non-scaling-stroke" cx="53.58081240096275" cy="54.345169482376214" rx="3.961593233072101" ry="7.30183937117301" fill="rgb(0,0,0)" stroke-width="1" stroke="rgb(0,0,0)" stroke-linejoin="miter" stroke-linecap="butt" stroke-miterlimit="3"/><ellipse vector-effect="non-scaling-stroke" cx="53.05682698532032" cy="49.79016052270894" rx="2.115609050081403" ry="2.105554436454561" fill="rgb(235,235,235)"/><ellipse vector-effect="non-scaling-stroke" cx="101.57268471017882" cy="54.345169482376214" rx="3.961593233072108" ry="7.30183937117301" fill="rgb(0,0,0)" stroke-width="1" stroke="rgb(0,0,0)" stroke-linejoin="miter" stroke-linecap="butt" stroke-miterlimit="3"/><ellipse vector-effect="non-scaling-stroke" cx="101.5726847101788" cy="49.79016052270894" rx="2.115609050081403" ry="2.105554436454561" fill="rgb(235,235,235)"/><path d=" M 46.703 7.008 Q 33.06 13.141 13.255 28.033 C -6.551 42.926 -2.149 56.067 13.255 72.712 Q 20.296 84.1 18.976 90.233 Q 28.218 86.29 27.778 81.034 C 27.338 75.778 20.737 62.199 27.778 45.116" fill="rgb(243,243,231)"/><path d=" M 105.534 7.008 Q 120.249 13.141 141.61 28.033 C 162.971 42.926 158.224 56.067 141.61 72.712 Q 134.015 84.1 135.439 90.233 Q 125.471 86.29 125.946 81.034 C 126.42 75.778 133.54 62.199 125.946 45.116" fill="rgb(243,243,231)"/><path d=" M 69.506 155.238 Q 68.164 161.562 70.017 166.545 C 71.869 171.528 73.786 171.209 75.255 167.567 Q 74.489 162.712 75.638 159.837" fill="rgb(243,243,231)"/><path d=" M 79.088 158.575 Q 80.685 164.92 79.855 167.176 C 79.024 169.431 83.879 172.181 84.774 167.176 C 85.668 162.17 86.371 155.473 85.349 153.076" fill="rgb(243,243,231)"/><path d=" M 66.788 118.721 Q 67.929 121.917 65.875 126.824 C 63.821 131.732 61.995 141.547 65.076 148.167 C 68.158 154.787 77.174 171.108 88.473 148.167 Q 92.354 138.123 88.473 126.824 Q 85.667 121.514 87.284 118.721" fill="rgb(243,243,231)"/><path d=" M 70.214 118.721 Q 70.969 121.548 69.61 125.89 C 68.25 130.231 67.041 138.914 69.081 144.77 C 71.121 150.627 77.089 165.065 84.569 144.77 Q 87.138 135.885 84.569 125.89 Q 82.711 121.192 83.782 118.721" fill="rgb(255,255,255)"/><path d="" fill-rule="evenodd" fill="rgb(0,0,0)" vector-effect="non-scaling-stroke" stroke-width="1" stroke="rgb(0,0,0)" stroke-linejoin="miter" stroke-linecap="square" stroke-miterlimit="3"/><path d=" M 65.739 129.124 Q 69.503 136.775 74.871 138.756 C 80.238 140.736 73.977 146.166 68.675 141.63 Q 63.373 137.095 64.401 133.773" fill="rgb(243,243,231)"/><path d=" M 88.983 128.215 Q 85.613 136.353 80.805 138.46 C 75.998 140.567 81.605 146.343 86.354 141.518 Q 91.103 136.693 90.182 133.159" fill="rgb(243,243,231)"/><path d=" M 72.457 106.456 Q 71.965 111.648 70.214 113.453 C 68.463 115.259 68.974 121.428 76.242 117.215 Q 81.404 113.152 80.501 106.456" fill="rgb(240,155,160)"/></g></svg>