<?xml version="1.0" encoding="UTF-8" standalone="no"?>
<!-- Generator: Gravit.io -->

<svg
   xmlns:dc="http://purl.org/dc/elements/1.1/"
   xmlns:cc="http://creativecommons.org/ns#"
   xmlns:rdf="http://www.w3.org/1999/02/22-rdf-syntax-ns#"
   xmlns:svg="http://www.w3.org/2000/svg"
   xmlns="http://www.w3.org/2000/svg"
   xmlns:sodipodi="http://sodipodi.sourceforge.net/DTD/sodipodi-0.dtd"
   xmlns:inkscape="http://www.inkscape.org/namespaces/inkscape"
   style="isolation:isolate"
   viewBox="0 0 54.999998 60.000002"
   width="55"
   height="60"
   version="1.1"
   id="svg45"
   sodipodi:docname="dog.svg"
   inkscape:version="0.92.3 (2405546, 2018-03-11)">
  <metadata
     id="metadata49">
    <rdf:RDF>
      <cc:Work
         rdf:about="">
        <dc:format>image/svg+xml</dc:format>
        <dc:type
           rdf:resource="http://purl.org/dc/dcmitype/StillImage" />
        <dc:title></dc:title>
      </cc:Work>
    </rdf:RDF>
  </metadata>
  <sodipodi:namedview
     pagecolor="#ffffff"
     bordercolor="#666666"
     borderopacity="1"
     objecttolerance="10"
     gridtolerance="10"
     guidetolerance="10"
     inkscape:pageopacity="0"
     inkscape:pageshadow="2"
     inkscape:window-width="1920"
     inkscape:window-height="1017"
     id="namedview47"
     showgrid="false"
     inkscape:zoom="2.775181"
     inkscape:cx="-87.638525"
     inkscape:cy="13.053696"
     inkscape:window-x="-8"
     inkscape:window-y="-8"
     inkscape:window-maximized="1"
     inkscape:current-layer="svg45" />
  <defs
     id="defs5">
    <clipPath
       id="_clipPath_lNE5BVGFFbRVHLiuEtyIHxaBN6aUOBgI">
      <rect
         width="155.90601"
         height="170.07899"
         id="rect2"
         x="0"
         y="0" />
    </clipPath>
  </defs>
  <g
     clip-path="url(#_clipPath_lNE5BVGFFbRVHLiuEtyIHxaBN6aUOBgI)"
     id="g43"
     transform="matrix(0.35246546,0,0,0.35246546,3.3389907e-5,0.05303316)">
    <path
       d="m 74.871,0 q -48.853,0.438 -47.973,60.885 -2.2,8.322 14.964,30.662 3.081,19.273 20.685,26.281 21.483,4.818 37.148,-2.628 15.666,-7.447 12.585,-19.273 1.761,-9.637 12.763,-20.149 C 136.046,65.265 126.364,7.446 94.676,2.628 Q 87.634,0.438 74.871,0 Z"
       id="path7"
       inkscape:connector-curvature="0"
       style="fill:#ffffff" />
    <path
       d="m 99.654,99.401 q -8.948,20.335 -23.453,2.26 -13.208,18.897 -22.908,-2.26"
       stroke-miterlimit="3"
       id="path9"
       inkscape:connector-curvature="0"
       style="vector-effect:non-scaling-stroke;fill:none;stroke:#000000;stroke-width:1;stroke-linecap:square;stroke-linejoin:miter;stroke-miterlimit:3" />
    <polygon
       points="80.496,106.48 72.451,106.48 76.6,101.991 "
       id="polygon11"
       style="fill:#f09ba0" />
    <path
       d="m 76.242,83.094 q -20.638,2.968 -12.796,12.046 5.366,5.586 12.796,6.11 z m 0.273,0 q 21.629,2.968 13.41,12.046 -5.624,5.586 -13.41,6.11 z"
       stroke-miterlimit="3"
       id="path13"
       inkscape:connector-curvature="0"
       style="vector-effect:non-scaling-stroke;fill:#020203;fill-rule:evenodd;stroke:#000000;stroke-width:1;stroke-linecap:square;stroke-linejoin:miter;stroke-miterlimit:3" />
    <ellipse
       cx="53.580811"
       cy="54.345169"
       rx="3.9615932"
       ry="7.3018394"
       stroke-miterlimit="3"
       id="ellipse15"
       style="vector-effect:non-scaling-stroke;fill:#000000;stroke:#000000;stroke-width:1;stroke-linecap:butt;stroke-linejoin:miter;stroke-miterlimit:3" />
    <ellipse
       cx="53.056828"
       cy="49.790161"
       rx="2.1156092"
       ry="2.1055543"
       id="ellipse17"
       style="vector-effect:non-scaling-stroke;fill:#ebebeb" />
    <ellipse
       cx="101.57269"
       cy="54.345169"
       rx="3.9615932"
       ry="7.3018394"
       stroke-miterlimit="3"
       id="ellipse19"
       style="vector-effect:non-scaling-stroke;fill:#000000;stroke:#000000;stroke-width:1;stroke-linecap:butt;stroke-linejoin:miter;stroke-miterlimit:3" />
    <ellipse
       cx="101.57269"
       cy="49.790161"
       rx="2.1156092"
       ry="2.1055543"
       id="ellipse21"
       style="vector-effect:non-scaling-stroke;fill:#ebebeb" />
    <path
       d="M 46.703,7.008 Q 33.06,13.141 13.255,28.033 c -19.806,14.893 -15.404,28.034 0,44.679 q 7.041,11.388 5.721,17.521 9.242,-3.943 8.802,-9.199 c -0.44,-5.256 -7.041,-18.835 0,-35.918"
       id="path23"
       inkscape:connector-curvature="0"
       style="fill:#f3f3e7" />
    <path
       d="m 105.534,7.008 q 14.715,6.133 36.076,21.025 c 21.361,14.893 16.614,28.034 0,44.679 q -7.595,11.388 -6.171,17.521 -9.968,-3.943 -9.493,-9.199 c 0.474,-5.256 7.594,-18.835 0,-35.918"
       id="path25"
       inkscape:connector-curvature="0"
       style="fill:#f3f3e7" />
    <path
       d="m 69.506,155.238 q -1.342,6.324 0.511,11.307 c 1.852,4.983 3.769,4.664 5.238,1.022 q -0.766,-4.855 0.383,-7.73"
       id="path27"
       inkscape:connector-curvature="0"
       style="fill:#f3f3e7" />
    <path
       d="m 79.088,158.575 q 1.597,6.345 0.767,8.601 c -0.831,2.255 4.024,5.005 4.919,0 0.894,-5.006 1.597,-11.703 0.575,-14.1"
       id="path29"
       inkscape:connector-curvature="0"
       style="fill:#f3f3e7" />
    <path
       d="m 66.788,118.721 q 1.141,3.196 -0.913,8.103 c -2.054,4.908 -3.88,14.723 -0.799,21.343 3.082,6.62 12.098,22.941 23.397,0 q 3.881,-10.044 0,-21.343 -2.806,-5.31 -1.189,-8.103"
       id="path31"
       inkscape:connector-curvature="0"
       style="fill:#f3f3e7" />
    <path
       d="m 70.214,118.721 q 0.755,2.827 -0.604,7.169 c -1.36,4.341 -2.569,13.024 -0.529,18.88 2.04,5.857 8.008,20.295 15.488,0 q 2.569,-8.885 0,-18.88 -1.858,-4.698 -0.787,-7.169"
       id="path33"
       inkscape:connector-curvature="0"
       style="fill:#ffffff" />
    <path
       d=""
       stroke-miterlimit="3"
       id="path35"
       inkscape:connector-curvature="0"
       style="vector-effect:non-scaling-stroke;fill:#000000;fill-rule:evenodd;stroke:#000000;stroke-width:1;stroke-linecap:square;stroke-linejoin:miter;stroke-miterlimit:3" />
    <path
       d="m 65.739,129.124 q 3.764,7.651 9.132,9.632 c 5.367,1.98 -0.894,7.41 -6.196,2.874 q -5.302,-4.535 -4.274,-7.857"
       id="path37"
       inkscape:connector-curvature="0"
       style="fill:#f3f3e7" />
    <path
       d="m 88.983,128.215 q -3.37,8.138 -8.178,10.245 c -4.807,2.107 0.8,7.883 5.549,3.058 q 4.749,-4.825 3.828,-8.359"
       id="path39"
       inkscape:connector-curvature="0"
       style="fill:#f3f3e7" />
    <path
       d="m 72.457,106.456 q -0.492,5.192 -2.243,6.997 c -1.751,1.806 -1.24,7.975 6.028,3.762 q 5.162,-4.063 4.259,-10.759"
       id="path41"
       inkscape:connector-curvature="0"
       style="fill:#f09ba0" />
  </g>
</svg>
