<?xml version="1.0" encoding="UTF-8" standalone="no"?>
<!-- Created with Inkscape (http://www.inkscape.org/) -->

<svg
   xmlns:dc="http://purl.org/dc/elements/1.1/"
   xmlns:cc="http://creativecommons.org/ns#"
   xmlns:rdf="http://www.w3.org/1999/02/22-rdf-syntax-ns#"
   xmlns:svg="http://www.w3.org/2000/svg"
   xmlns="http://www.w3.org/2000/svg"
   xmlns:sodipodi="http://sodipodi.sourceforge.net/DTD/sodipodi-0.dtd"
   xmlns:inkscape="http://www.inkscape.org/namespaces/inkscape"
   width="54"
   height="60"
   viewBox="0 0 14.2875 15.875001"
   version="1.1"
   id="svg8"
   inkscape:version="0.92.3 (2405546, 2018-03-11)"
   sodipodi:docname="Dumpy.svg">
  <defs
     id="defs2" />
  <sodipodi:namedview
     id="base"
     pagecolor="#ffffff"
     bordercolor="#666666"
     borderopacity="1.0"
     inkscape:pageopacity="0.0"
     inkscape:pageshadow="2"
     inkscape:zoom="0.35"
     inkscape:cx="241.90814"
     inkscape:cy="879.58483"
     inkscape:document-units="mm"
     inkscape:current-layer="layer1"
     showgrid="false"
     fit-margin-top="0"
     fit-margin-left="0"
     fit-margin-right="0"
     fit-margin-bottom="0"
     units="px"
     inkscape:window-width="1920"
     inkscape:window-height="986"
     inkscape:window-x="-11"
     inkscape:window-y="-11"
     inkscape:window-maximized="1" />
  <metadata
     id="metadata5">
    <rdf:RDF>
      <cc:Work
         rdf:about="">
        <dc:format>image/svg+xml</dc:format>
        <dc:type
           rdf:resource="http://purl.org/dc/dcmitype/StillImage" />
        <dc:title></dc:title>
      </cc:Work>
    </rdf:RDF>
  </metadata>
  <g
     inkscape:label="Layer 1"
     inkscape:groupmode="layer"
     id="layer1"
     transform="translate(-41.828473,-217.91512)">
    <path
       id="path12"
       d="m 46.243559,226.03209 c -0.43939,-0.0429 -0.840437,-0.16049 -1.223995,-0.29103 -0.363109,-0.12825 -0.70308,-0.27619 -1.036311,-0.43032 -0.222183,-0.0902 -0.460293,-0.16251 -0.687895,-0.24765 -0.219064,-0.077 -0.437203,-0.14582 -0.629689,-0.24706 -0.179909,-0.10245 -0.254914,-0.235 -0.294083,-0.37782 -0.01359,-0.14076 -0.09604,-0.27371 -0.150317,-0.40982 -0.04959,-0.13263 -0.09748,-0.26583 -0.152834,-0.39766 -0.05217,-0.12568 -0.105632,-0.25103 -0.158428,-0.37663 -0.05122,-0.12545 -0.0651,-0.25443 -0.07335,-0.383 -0.0057,-0.12536 -0.0047,-0.25077 -0.0044,-0.37615 6.78e-4,-0.12748 1.09e-4,-0.25496 0.0016,-0.38243 7.96e-4,-0.14088 1.52e-4,-0.28175 -1.75e-4,-0.42263 -0.01938,-0.13381 0.01405,-0.24892 0.12171,-0.366 0.08648,-0.10062 0.217301,-0.17492 0.357986,-0.24701 0.134347,-0.065 0.27511,-0.12055 0.404981,-0.18906 0.162038,-0.0795 0.33555,-0.15019 0.499332,-0.22824 0.470034,-0.23689 1.0557,-0.38269 1.583241,-0.5603 0.09104,-0.0306 0.186883,-0.0457 0.276385,-0.0786 0.507058,-0.15068 0.249079,-0.0753 -1.168654,0.40567 -0.02595,0.009 0.04968,-0.0198 0.0735,-0.0306 0.07681,-0.0347 0.151768,-0.0716 0.226314,-0.10808 0.123047,-0.0753 0.274192,-0.13011 0.407679,-0.19791 0.563813,-0.23583 1.175119,-0.43469 1.800912,-0.60188 0.186042,-0.0323 0.366525,-0.0709 0.558076,-0.0912 0.19997,-0.0457 0.410874,-0.0643 0.622779,-0.0752 0.209729,-0.008 0.420053,-0.008 0.630134,-0.008 0.208257,2e-4 0.416512,5.2e-4 0.624769,6.8e-4 0.208103,1.6e-4 0.416205,1.6e-4 0.624308,1.7e-4 0.276263,7e-4 0.552526,10e-4 0.82879,10e-4 0.35159,0.007 0.700498,4.7e-4 1.045707,-0.0417 0.313419,-0.0458 0.634936,-0.0647 0.956071,-0.0773 0.124744,-0.0103 0.253298,0.001 0.377994,-0.007 0.09107,-0.006 0.185045,-0.0258 0.275111,-0.0367 0.207564,-0.0503 0.424987,-0.0842 0.644133,-0.11073 0.291038,-0.0525 0.592009,-0.0768 0.893836,-0.0926 0.267956,-0.0111 0.536805,-0.01 0.805247,-0.0101 0.269215,6.6e-4 0.538435,5e-4 0.807654,4.1e-4 0.226715,-3.3e-4 0.453429,7e-5 0.680143,2.5e-4 0.268853,-0.005 0.524448,0.0598 0.766298,0.12383 0.313777,0.0817 0.596313,0.19971 0.847268,0.33816 0.225422,0.13767 0.459637,0.27173 0.642562,0.4312 0.145728,0.10159 0.226995,0.21851 0.268849,0.34855 0.02989,0.12508 0.02803,0.25186 0.02668,0.37791 -0.0022,0.16557 -0.0041,0.33113 -0.0041,0.49671 4.68e-4,0.14364 0.0011,0.28728 0.0014,0.43092 0.02312,0.10724 0.09948,0.20972 0.160634,0.31145 0.08932,0.12846 0.117869,0.26525 0.136742,0.40269 0.01527,0.13635 0.01584,0.27307 0.01635,0.40966 -1.17e-4,0.13845 -0.0018,0.27689 -0.0019,0.41534 -0.0089,0.11748 0.044,0.23166 0.0718,0.34709 0.0259,0.1207 0.02953,0.24253 0.03236,0.36406 -8.19e-4,0.12656 0.0085,0.25332 -0.0074,0.3796 -0.05905,0.14323 -0.243149,0.25437 -0.42199,0.34996 -0.19389,0.0891 -0.404426,0.16273 -0.60038,0.25025 -0.519529,0.27072 -1.188725,0.41062 -1.771969,0.62399 -0.203822,0.0522 -0.412963,0.0933 -0.616136,0.14716 -0.586035,0.13266 -1.74506,0.56272 0.630246,-0.25385 -0.688537,0.31537 -1.1445,0.52348 -1.896286,0.55528 -0.249944,0.006 -0.500121,0.005 -0.750203,0.005 -0.216389,-3.9e-4 -0.43278,-7e-4 -0.649171,-8.5e-4 -0.210666,-0.0127 -0.410538,0.0133 -0.616221,0.0343 -0.208436,0.02 -0.41962,0.0243 -0.630265,0.0271 -0.208594,0.002 -0.417218,0.001 -0.625826,0.001 -0.208126,-1.5e-4 -0.416251,-2.3e-4 -0.624374,-3.1e-4 -0.100302,7.1e-4 -0.197301,-0.007 -0.294158,0.0128 -0.01994,0.004 -0.07546,0.0223 -0.05716,0.016 1.300027,-0.44266 1.76783,-0.34276 1.268922,-0.44422 -0.05627,-0.0641 0.209818,0.13177 0.222123,0.13963 0.144992,0.0954 0.202913,0.21481 0.237311,0.33908 0.02645,0.12529 0.02531,0.25187 0.02563,0.37793 -3.6e-5,0.13474 -0.0026,0.26947 -0.003,0.40421 -1.17e-4,0.13555 1.17e-4,0.2711 4.68e-4,0.40665 0.01606,0.11046 -0.03582,0.23002 0.02989,0.33591 0.102673,0.061 0.277616,0.0518 0.412544,0.0546 0.205791,0.002 0.411618,4e-5 0.617413,-8.5e-4 0.209006,-8.8e-4 0.418018,-0.001 0.627029,-0.001 0.241598,0.008 0.467357,-0.0474 0.697107,-0.0829 0.214358,-0.0311 0.434881,-0.0377 0.654391,-0.0415 0.218857,-0.0173 0.398513,0.0271 0.584792,0.0903 0.216621,0.0802 0.392671,0.18828 0.541997,0.31078 0.132616,0.11833 0.175963,0.25511 0.198261,0.39424 0.01317,0.15862 0.0097,0.31759 0.0078,0.47635 -0.003,0.15528 -0.08582,0.30309 -0.141946,0.45312 -0.0463,0.12746 -0.05823,0.25777 -0.06486,0.38775 -0.0026,0.14522 -0.05446,0.28768 -0.07802,0.43199 -0.02374,0.18214 -0.02809,0.36491 -0.03029,0.54752 -7.02e-4,0.15089 8.19e-4,0.30179 0.0016,0.45268 7.02e-4,0.12645 8.19e-4,0.2529 8.19e-4,0.37935 7.3e-5,0.12461 3.8e-5,0.24923 3.3e-5,0.37385 -7e-6,0.12488 -9e-6,0.24976 -1.1e-5,0.37465 -3e-6,0.12493 -3e-6,0.24985 -3e-6,0.37478 -0.0016,0.12203 0.01101,0.24402 -0.02196,0.36484 -0.02618,0.10233 -0.149173,0.16349 -0.265213,0.23123 -0.541945,0.24227 -1.148861,0.51338 -1.837556,0.57317 -0.200762,0.0419 -0.411022,0.0586 -0.621828,0.0686 -0.210634,0.0229 -0.411156,0.0656 -0.618388,0.0962 -0.208556,0.0276 -0.422445,0.0321 -0.635123,0.0351 -0.208686,0.002 -0.417403,10e-4 -0.626102,7.1e-4 -0.208104,-3.2e-4 -0.416211,-4e-4 -0.624317,-4.8e-4 -0.208112,-4e-5 -0.416228,-4e-5 -0.624342,-4e-5 -0.208123,0 -0.416247,0 -0.624373,0 -0.208123,1e-5 -0.416248,1e-5 -0.624372,1e-5 -0.208126,0 -0.41625,0 -0.624374,0 -0.208124,0 -0.416249,0 -0.624374,0 -0.201369,-0.0138 -0.364406,-0.0707 -0.511377,-0.15145 -0.122775,-0.0823 -0.290944,-0.11036 -0.447842,-0.15808 -0.159631,-0.048 -0.336785,-0.0563 -0.511923,-0.0625 -0.213368,0.005 -0.418993,-0.0292 -0.628733,-0.047 -0.211,-0.0156 -0.42388,-0.017 -0.636167,-0.0185 -0.230275,-9.7e-4 -0.460558,-3.9e-4 -0.690835,-8e-5 -0.250566,0.0101 -0.370993,-0.006 -0.530821,-0.12362 -0.158871,-0.0897 -0.278587,-0.19241 -0.367156,-0.31154 -0.102017,-0.16304 -0.226658,-0.32016 -0.360609,-0.47442 -0.10606,-0.12366 -0.194859,-0.24956 -0.24544,-0.38545 -0.03902,-0.12502 -0.0416,-0.25256 -0.04391,-0.37932 5.96e-4,-0.16077 0.0031,-0.32153 0.0036,-0.48229 0.0027,-0.15904 -0.02423,-0.31819 0.06142,-0.47095 0.07332,-0.0946 0.182794,-0.17912 0.290278,-0.26086 0.08655,-0.0811 0.225695,-0.13028 0.344019,-0.1921 0.128138,-0.0903 0.125292,-0.21443 0.135018,-0.32675 0.01096,-0.19887 0.0068,-0.39788 0.0041,-0.59681 -0.0078,-0.13834 0.0078,-0.27736 -0.01214,-0.41533 -0.03861,-0.10102 -0.152117,-0.17961 -0.219076,-0.27371 -0.0342,-0.0985 -0.121451,-0.17575 -0.215116,-0.25597 -0.03191,-0.033 -0.119296,-0.14786 -0.03126,-0.17951 1.324188,-0.47601 0.867822,-0.45276 1.478328,-0.47413 0.231259,-0.004 0.462625,-0.004 0.693955,-0.003 0.243156,8.4e-4 0.486317,0.001 0.729476,0.001 0.212623,4e-5 0.425245,10e-6 0.637867,0 0.207862,-1e-5 0.415723,-2e-5 0.623584,-2e-5 0.208038,0 0.416076,0 0.624113,0 0.07152,0 0.123285,0.005 0.190104,-0.0128 0.02376,-0.006 0.08628,-0.0347 0.06361,-0.0271 -2.900664,0.97542 -1.427318,0.61439 -1.185192,0.37234 0.0709,-0.10727 0.04475,-0.21766 0.01488,-0.32786 -0.03784,-0.12627 -0.05293,-0.25421 -0.06171,-0.38221 -0.0079,-0.10931 0.01319,-0.22083 -0.05331,-0.32483 -0.08531,-0.0905 -0.106266,-0.1931 -0.149107,-0.29176 -0.05989,-0.12285 -0.08604,-0.24971 -0.102417,-0.3769 -0.01324,-0.12726 -0.01342,-0.25484 -0.01389,-0.3823 -0.01724,-0.0926 0.05634,-0.21954 -0.06438,-0.29301 -0.137355,-0.0463 -0.24387,1.6e-4 -0.364313,0.0383 -0.178995,0.0293 -0.344818,0.0782 -0.516673,0.1193 -0.163394,0.0679 -0.353706,0.10498 -0.528327,0.16073 -0.194871,0.0579 -0.409202,0.0742 -0.623112,0.0837 -0.174863,0.006 -0.350062,0.005 -0.525122,0.005 0,0 1.251069,-0.54602 1.251069,-0.54602 v 0 c 0.172099,-8.2e-4 0.344598,-0.001 0.515874,-0.0128 0.206513,-0.0171 0.405889,-0.0482 0.589421,-0.10975 0.180158,-0.0498 0.356338,-0.10415 0.534789,-0.1558 0.170883,-0.0441 0.347261,-0.0788 0.518603,-0.122 0.173319,-0.036 0.341965,-0.0161 0.47782,0.0603 0.132856,0.10597 0.120161,0.22247 0.112453,0.35027 -3.2e-5,0.1256 -7.25e-4,0.25127 0.0088,0.37678 0.01215,0.12109 0.03107,0.24253 0.09019,0.35918 0.04695,0.0945 0.05518,0.19567 0.141451,0.2827 0.07903,0.11376 0.07886,0.23247 0.07582,0.35426 0.0062,0.12433 0.01667,0.24883 0.05235,0.37159 0.0352,0.12395 0.07361,0.24565 0.02451,0.37091 -0.160671,0.41162 -1.055512,0.61188 -1.725627,0.60532 -0.208041,0 -0.416082,0 -0.624122,0 -0.207855,1e-5 -0.415711,2e-5 -0.623567,0 -0.212388,-5e-5 -0.424776,-8e-5 -0.637163,-5.5e-4 -0.242605,-5.5e-4 -0.485206,-0.002 -0.727812,-0.002 -0.227196,4.7e-4 -0.457229,-0.004 -0.681738,0.0198 -0.540798,0.11378 0.06619,-0.011 1.20315,-0.43042 0.03688,-0.0136 -0.114415,-0.0132 -0.103892,0.0177 0.004,0.0118 0.01657,0.0219 0.02486,0.0328 0.101184,0.0849 0.197432,0.16906 0.232567,0.2738 0.06864,0.10263 0.196639,0.18677 0.236795,0.29714 0.03403,0.14089 0.0087,0.28411 0.0158,0.42613 -7.02e-4,0.19995 -9.48e-4,0.3999 -0.0018,0.59985 -0.003,0.12779 0.0025,0.25954 -0.08376,0.37925 -0.08536,0.0849 -0.227762,0.12412 -0.348584,0.18791 -0.09446,0.0831 -0.200261,0.16201 -0.307195,0.23968 -0.0099,0.0126 -0.07004,0.0877 -0.07563,0.10028 -0.04918,0.11017 -5.73e-4,0.22911 -0.01778,0.341 -4.92e-4,0.15998 -2.58e-4,0.31995 9.36e-4,0.47992 8.42e-4,0.12118 2.57e-4,0.24299 0.02976,0.36317 0.04075,0.12928 0.124213,0.24722 0.222029,0.36466 0.131737,0.15683 0.258528,0.31531 0.366436,0.47871 0.08077,0.11181 0.203365,0.20157 0.348546,0.28628 0.121626,0.0785 0.287241,0.0581 0.454184,0.0581 0.230377,-1e-5 0.460767,-8e-5 0.691125,0.002 0.217427,0.003 0.435342,0.007 0.650383,0.028 0.207029,0.0205 0.412701,0.0413 0.62337,0.0417 0.189195,0.0127 0.374566,0.035 0.544214,0.0896 0.172804,0.0458 0.334149,0.0984 0.470612,0.17872 0.132819,0.0631 0.27482,0.1003 0.447818,0.0976 0.208124,0 0.41625,0 0.624373,0 0.208125,0 0.416248,0 0.624374,0 0.208124,0 0.416247,0 0.624372,0 0.208126,-1e-5 0.416251,-1e-5 0.624374,-1e-5 0.208135,1e-5 0.41627,1e-5 0.624405,8e-5 0.20814,8e-5 0.416282,3.2e-4 0.624423,5.5e-4 0.207545,1.6e-4 0.415174,8.3e-4 0.622622,-0.004 0.206862,-0.006 0.414116,-0.0167 0.61402,-0.0515 0.20813,-0.0357 0.417598,-0.0702 0.633377,-0.0847 0.208148,-0.0158 0.41043,-0.0453 0.613767,-0.0758 0.09367,-0.0143 0.18159,-0.0301 0.268218,-0.0564 0.0268,-0.008 0.104659,-0.0354 0.07866,-0.0264 -1.264245,0.43956 -1.699422,0.54204 -1.182175,0.41751 0.115137,-0.046 0.230599,-0.10612 0.310562,-0.17272 0.04525,-0.11555 0.0422,-0.23053 0.0373,-0.34915 0,-0.12493 0,-0.24986 0,-0.37479 0,-0.12488 1e-6,-0.24976 -2e-6,-0.37464 -6e-6,-0.12461 -1.4e-5,-0.24922 -3.5e-5,-0.37382 -1.9e-5,-0.12652 -7.3e-5,-0.25304 7.3e-5,-0.37956 2.34e-4,-0.15163 8.19e-4,-0.30327 0.0027,-0.4549 0.0024,-0.18463 0.0041,-0.36939 0.02501,-0.55369 0.01617,-0.14304 0.05827,-0.28347 0.07642,-0.42558 0.0046,-0.13506 0.01264,-0.27058 0.05424,-0.40372 0.04935,-0.14632 0.132283,-0.28782 0.158456,-0.43673 2.34e-4,-0.15597 0.0044,-0.31204 -0.0062,-0.46793 -0.01346,-0.12268 -0.03819,-0.24499 -0.154758,-0.35 -0.137468,-0.11114 -0.301583,-0.20811 -0.506991,-0.27372 -0.176322,-0.0491 -0.343018,-0.066 -0.538357,-0.0508 -0.213538,0.007 -0.426668,0.0209 -0.63289,0.0569 -0.23662,0.0389 -0.474597,0.0731 -0.722444,0.0644 -0.208819,2.3e-4 -0.41764,6.3e-4 -0.626454,0.002 -0.20833,8.5e-4 -0.416983,0.003 -0.625048,-0.004 -0.198522,-0.012 -0.393083,-0.0326 -0.507684,-0.14194 -0.08137,-0.11776 -0.05094,-0.24292 -0.05427,-0.36805 2.34e-4,-0.13578 7.02e-4,-0.27155 0.0012,-0.40733 4.68e-4,-0.13447 -5.85e-4,-0.26895 0.0011,-0.40342 4.68e-4,-0.12188 0.0028,-0.24408 -0.01563,-0.36559 -0.02308,-0.10715 -0.06206,-0.2096 -0.19225,-0.28971 -0.110575,-0.0709 -0.227974,-0.14358 -0.308537,-0.22696 -0.05638,-0.43804 1.140397,-0.53425 1.743432,-0.52614 0.208128,7e-5 0.416256,2.3e-4 0.624382,3.1e-4 0.207634,0 0.415327,2.4e-4 0.622882,-0.004 0.206946,-0.005 0.413758,-0.0142 0.617681,-0.0371 0.209783,-0.0209 0.419064,-0.027 0.631785,-0.0218 0.215933,3.2e-4 0.431866,9.3e-4 0.647799,0.001 0.247081,1.6e-4 0.494914,10e-4 0.741062,-0.0132 0.105294,-0.009 0.206451,-0.0174 0.304671,-0.0435 0.02625,-0.007 0.10088,-0.0328 0.07611,-0.0242 -1.342939,0.47182 -1.643817,0.58996 -1.166085,0.4041 0.673642,-0.23634 1.296946,-0.49296 2.020254,-0.65831 0.205281,-0.0503 0.418346,-0.0914 0.611659,-0.1576 1.017627,-0.30925 -1.696295,0.61433 -0.867551,0.30828 0.179324,-0.10285 0.39645,-0.17265 0.602058,-0.25417 0.185116,-0.0769 0.330619,-0.17643 0.467934,-0.28278 0.03512,-0.12137 0.0093,-0.24585 0.01627,-0.3686 -0.0018,-0.11794 -0.0035,-0.23614 -0.02457,-0.35353 -0.02549,-0.11993 -0.08366,-0.23787 -0.07847,-0.35929 5.85e-4,-0.13826 -2.34e-4,-0.27652 5.85e-4,-0.41478 4.68e-4,-0.13471 0.0016,-0.2695 -0.0095,-0.40408 -0.01411,-0.12903 -0.03482,-0.25814 -0.118602,-0.37883 -0.07085,-0.11117 -0.146527,-0.22472 -0.185505,-0.34097 4.68e-4,-0.14409 0.0012,-0.28818 0.0024,-0.43228 0.0011,-0.16524 8.19e-4,-0.33048 9.36e-4,-0.49572 -7.02e-4,-0.12101 0.0036,-0.24243 -0.01678,-0.36299 -0.0295,-0.11917 -0.101131,-0.22199 -0.231831,-0.31536 -0.174067,-0.15391 -0.401406,-0.28236 -0.619437,-0.41358 -0.245867,-0.1284 -0.516372,-0.23974 -0.821547,-0.31132 -0.236458,-0.0558 -0.476615,-0.10382 -0.734632,-0.0925 -0.226833,1.6e-4 -0.453665,4.9e-4 -0.680498,-2.6e-4 -0.268462,-6e-4 -0.536926,-0.002 -0.805389,-8.9e-4 -0.265605,7.9e-4 -0.53172,0.002 -0.796317,0.0172 -0.298617,0.0199 -0.592554,0.0538 -0.882436,0.10166 -0.219407,0.0329 -0.432402,0.0786 -0.651692,0.11111 -0.217959,0.0254 -0.437549,0.0254 -0.658795,0.0324 -0.317439,0.0155 -0.631916,0.0426 -0.943454,0.0828 -0.353,0.0299 -0.706962,0.0343 -1.063174,0.0299 -0.27829,3.3e-4 -0.556578,6.5e-4 -0.834867,10e-4 -0.208143,-2e-5 -0.416287,-7e-5 -0.624431,-2.8e-4 -0.20809,-2.1e-4 -0.416181,-6.6e-4 -0.624271,-2.7e-4 -0.206921,9e-4 -0.414389,0.002 -0.620214,0.016 -0.208803,0.0174 -0.410547,0.0499 -0.613731,0.0829 -0.183079,0.0282 -0.365415,0.0626 -0.538633,0.10805 -0.189076,0.0543 0.03429,-0.009 -0.163461,0.0429 -0.02841,0.007 -0.110828,0.0331 -0.08412,0.0237 2.208844,-0.77747 1.572757,-0.52067 1.099229,-0.38789 -0.143176,0.0592 -0.270447,0.13183 -0.416381,0.18934 -0.06934,0.0457 -0.143289,0.0747 -0.221258,0.11386 -0.460772,0.23112 -1.012121,0.38964 -1.548367,0.55372 -0.08385,0.0217 -0.101602,0.0259 -0.185619,0.0491 -0.03155,0.009 -0.12421,0.0372 -0.09432,0.0265 2.178727,-0.77285 1.506938,-0.54129 1.060711,-0.36661 -0.155368,0.086 -0.338256,0.14762 -0.490484,0.23543 -0.0828,0.0274 -0.11927,0.057 -0.186103,0.0952 -0.07345,0.0419 -0.06611,0.0254 -0.15296,0.0545 -0.02582,0.009 -0.04918,0.0197 -0.07377,0.0295 -0.129826,0.0739 -0.282335,0.12632 -0.379325,0.21986 -0.118721,0.12278 -0.185294,0.17012 -0.157152,0.32319 -3.27e-4,0.14095 -10e-4,0.28191 -3.97e-4,0.42286 0.0013,0.12736 2.57e-4,0.25472 -3.1e-5,0.38208 -4.21e-4,0.12444 -0.0015,0.24889 0.0019,0.37333 0.0053,0.12257 0.01336,0.24579 0.05792,0.36594 0.05017,0.1255 0.108347,0.24954 0.156782,0.37528 0.06091,0.13183 0.101699,0.26764 0.153603,0.40078 0.05163,0.13898 0.144205,0.27314 0.158673,0.41592 0.02508,0.12256 0.07595,0.23541 0.236075,0.32072 0.190778,0.0948 0.41175,0.1556 0.619065,0.23558 0.228223,0.0882 0.476209,0.15635 0.690628,0.25719 0.324636,0.15301 0.655083,0.30075 1.017116,0.42122 0.37426,0.12417 0.767224,0.23304 1.199174,0.25531 0,0 -1.258089,0.53724 -1.258089,0.53724 z"
       inkscape:connector-curvature="0"
       style="stroke-width:0.02821797" />
    <path
       id="path14"
       d="m 46.710776,225.73858 c 1.016576,-0.28402 2.034589,-0.62473 2.985952,-1.16182 0.527396,-0.2291 0.913376,-0.74046 1.389856,-1.08036 0,0 -3.768359,-3.04201 -3.768359,-3.04201 v 0 c -0.43894,0.35992 -0.836582,0.80266 -1.338571,1.02805 -0.933678,0.48671 -1.917074,0.85344 -2.92199,1.01356 0,0 3.653112,3.24258 3.653112,3.24258 z"
       inkscape:connector-curvature="0"
       style="stroke-width:0.11804745" />
    <path
       id="path18"
       d="m 52.67522,222.21922 c 0.936549,-0.0848 1.751148,0.13049 2.627136,0.50773 0.562435,0.17216 1.009383,0.63316 1.483449,1.0226 0.206232,0.1454 0.428052,0.24313 0.641965,0.36946 0,0 -3.247417,2.6838 -3.247417,2.6838 v 0 c -0.230196,-0.12865 -0.463912,-0.25154 -0.674823,-0.42673 -0.45319,-0.36282 -0.870623,-0.78625 -1.411138,-0.93544 -0.838885,-0.34132 -1.684794,-0.4491 -2.5676,-0.36807 0,0 3.148428,-2.85335 3.148428,-2.85335 z"
       inkscape:connector-curvature="0"
       style="stroke-width:0.1024137" />
  </g>
</svg>
