<?xml version="1.0" standalone="no"?>
<!DOCTYPE svg PUBLIC "-//W3C//DTD SVG 20010904//EN"
 "http://www.w3.org/TR/2001/REC-SVG-20010904/DTD/svg10.dtd">
<svg version="1.0" xmlns="http://www.w3.org/2000/svg"
 width="55.000000pt" height="60.000000pt" viewBox="0 0 55.000000 60.000000"
 preserveAspectRatio="xMidYMid meet">
<metadata>
Created by potrace 1.15, written by Peter Selinger 2001-2017
</metadata>
<g transform="translate(0.000000,60.000000) scale(0.100000,-0.100000)"
fill="#000000" stroke="none">
<path d="M297 480 c-15 -12 -40 -20 -62 -20 -29 0 -45 -8 -71 -34 -30 -30 -34
-40 -34 -85 0 -28 -3 -51 -6 -51 -29 0 -82 69 -69 90 3 6 -3 10 -14 10 -25 0
-27 -25 -7 -74 22 -53 62 -78 117 -74 26 2 45 0 42 -4 -2 -5 3 -8 11 -8 21 0
31 -63 16 -100 -7 -17 -11 -33 -8 -35 2 -2 25 -7 51 -10 45 -6 47 -5 47 20 0
21 5 25 29 25 24 0 28 -3 24 -23 -4 -21 -1 -23 46 -24 l51 -1 0 67 c0 36 1 82
2 101 1 19 0 44 -2 54 -4 14 4 26 25 40 17 12 31 30 33 41 3 15 -6 11 -35 -19
l-38 -39 -6 45 c-16 107 -80 156 -142 108z m84 -26 c48 -51 25 -184 -31 -184
-57 0 -93 129 -50 183 27 34 50 34 81 1z"/>
</g>
</svg>
