<svg xmlns="http://www.w3.org/2000/svg" width="55" height="60" viewBox="0 0 25 54.7"><defs><style>.cls-1{fill:#fc0;}.cls-2{fill:#ffe245;}.cls-3{fill:#ffb300;}.cls-4{fill:#ffeab9;}.cls-5{fill:#d01d00;}</style></defs><title>fireman</title><g id="Layer_7" data-name="Layer 7"><path class="cls-1" d="M33.35,12.66a5.44,5.44,0,0,1,1.41-5.4L33.92,7a9.41,9.41,0,0,0,2.39,3.73c.68.71,1.44,1.35,2.07,2.1a3.66,3.66,0,0,1,.81,2.92c0,1.86.67,3.68.67,5.53,0,1.27-1,3.12-2.44,2.35-.64-.34-1-1.31-1.31-1.9C34.57,19,33.16,18.34,30,18a13.23,13.23,0,0,0-10.33,3.18c-.49.41.22,1.12.71.7a11.79,11.79,0,0,1,7.83-3c2.6,0,5.18.14,6.61,2.51,1,1.6,1.73,4.09,4.05,3.22,3.1-1.15,1.77-4.77,1.48-7.23-.23-1.92.37-3.17-.82-4.76-1.54-2.05-3.8-3.34-4.61-5.9a.51.51,0,0,0-.84-.22,6.4,6.4,0,0,0-1.66,6.37c.13.63,1.1.37,1-.26Z" transform="translate(-16.88 -1.07)"/><path class="cls-1" d="M19.08,19.06a4.5,4.5,0,0,1-.26,2.88l1,.26a7.6,7.6,0,0,0,.34-2.69.5.5,0,0,0-1,0l0,2.09h1c-.06-2.44-1.54-4.82-.91-7.25l-.74.29c1.17.91,1.55,2.06,3.16,1.81a2.55,2.55,0,0,0,1.65-.92,15.08,15.08,0,0,0,1.65-3.22c.14-.3.43-.38.55-.7a6.36,6.36,0,0,1,.16-2.17,6,6,0,0,1,.88-2L25.64,7A19.08,19.08,0,0,0,23,16.08c0,.65.94.63,1,0a9.41,9.41,0,0,1,1.56-4.4l-.91-.12A15.94,15.94,0,0,1,25,13.25c.12.64,1,.36,1-.27a10.34,10.34,0,0,1,1.59-7.4l-.86-.5c-2.23,4.24-2.49,9.71,2.6,11.71,2,.79,6.49,1.47,4.89-2.07-.26-.59-1.13-.08-.86.5,1.11,2.48-3.75.69-4.64.21-3.72-2-2.77-6.72-1.13-9.85a.5.5,0,0,0-.86-.5A11.43,11.43,0,0,0,25,13.25L26,13a16.53,16.53,0,0,0-.39-1.69.5.5,0,0,0-.91-.12A10.55,10.55,0,0,0,23,16.08h1a17.91,17.91,0,0,1,2.52-8.63.5.5,0,0,0-.87-.5c-1,1.72-1.09,3.64-1.95,5.36a19.25,19.25,0,0,1-.88,2c-1.53,2.27-2.66.36-3.84-.55a.51.51,0,0,0-.74.3c-.67,2.62.82,4.91.88,7.52a.5.5,0,0,0,1,0l0-2.09h-1a4.94,4.94,0,0,1-.31,2.43c-.18.62.76.87,1,.26a6.56,6.56,0,0,0,.26-3.4c-.1-.64-1.07-.37-1,.26Z" transform="translate(-16.88 -1.07)"/><path class="cls-1" d="M23.09,13.09a2.49,2.49,0,0,1-2,1.61c-.63.07-.64,1.07,0,1a3.55,3.55,0,0,0,3-2.35c.21-.6-.75-.87-1-.26Z" transform="translate(-16.88 -1.07)"/><path class="cls-1" d="M32.38,10.37c.82,2,2.61,2.68,3.68,4.42,1.29,2.08.69,6.1.08,8.32H40c-.81-2.36-1.5-4.74-2.08-7.16S33.45,14.51,34.05,17a74.23,74.23,0,0,0,2.09,7.16,2,2,0,0,0,3.85,0,20.69,20.69,0,0,0,.48-8.89,7,7,0,0,0-1.27-3.11c-.76-1-2.51-1.74-3-2.86C35.27,7,31.4,8,32.38,10.37Z" transform="translate(-16.88 -1.07)"/><path class="cls-1" d="M33.23,13.38a21.17,21.17,0,0,0,1,2.53,2,2,0,0,0,2.74.72,2.07,2.07,0,0,0,.72-2.74c-.08-.17-.16-.33-.23-.5l0-.12c-.12-.32-.23-.63-.33-1a2,2,0,0,0-3.86,1.07Z" transform="translate(-16.88 -1.07)"/><path class="cls-1" d="M34.13,17c-.35.45-.31.59.1.41-.34-.16-.69-.3-1-.45a11.61,11.61,0,0,0-2.38-.63,13.25,13.25,0,0,0-4.74.12c-2.53.46-1.46,4.32,1.07,3.85s4,.41,6.24,1c1.93.56,3.46-.59,4.2-2.32,1-2.34-2.44-4.38-3.45-2Z" transform="translate(-16.88 -1.07)"/><path class="cls-1" d="M28.38,15.8c-2.59-.71-5.5.95-7.74,2.1l2.73.72c-.21-.36-.43-.71-.65-1.07s-.21-.7-.29-.34c.57-2.51-3.28-3.58-3.86-1.06-.4,1.76.47,3,1.35,4.49a2.05,2.05,0,0,0,2.74.72,27.06,27.06,0,0,1,2.5-1.16c.63-.24,1.48-.73,2.16-.54,2.48.69,3.54-3.17,1.06-3.86Z" transform="translate(-16.88 -1.07)"/><path class="cls-1" d="M22.42,18.19A4.48,4.48,0,0,0,24,18.11a3.49,3.49,0,0,0,.89-.37,5.47,5.47,0,0,0,.54-.41c.27-.24-.16,0,0,0,1.46-.62,2.2-2.84.84-4a2,2,0,0,0-2.83,0,2,2,0,0,0,0,2.82l-.19-.25-.27-1c-.06-.47,1.14-1.5.36-1l-.54.41q-.26.22,0,0c.26-.08.28-.09.07,0,.29,0,.32,0,.09,0l-.62,0a2,2,0,0,0-2,2,2.07,2.07,0,0,0,2,2Z" transform="translate(-16.88 -1.07)"/><path class="cls-2" d="M21.2,14c-1,.31-1.48-.49-1.46-1.37,0-.63,0-1.24-.65-1.48a.5.5,0,0,0-.63.48,5.15,5.15,0,0,1-.28,2.3l1,.13a2.84,2.84,0,0,1,.36-1.69,1.28,1.28,0,0,0,.24-1.19c-.17-.63-1.06-.35-1,.27a8.36,8.36,0,0,0,.88,2.65c.3.57,1.16.07.86-.5a7.71,7.71,0,0,1-.78-2.42l-1,.27c0,.17-.45,1-.5,1.22a5.91,5.91,0,0,0-.14,1.39.51.51,0,0,0,1,.13,5.71,5.71,0,0,0,.31-2.56l-.64.48a4.35,4.35,0,0,0,0,1.36,2,2,0,0,0,.53,1,2.12,2.12,0,0,0,2.13.51c.61-.2.35-1.16-.27-1Z" transform="translate(-16.88 -1.07)"/><path class="cls-2" d="M24.12,11.16c.65-1.72.7-3.82,1.62-5.4a6.18,6.18,0,0,1,2-2c.48-.33.65-.36.81-.91a.51.51,0,0,0-.84-.49C26,3.79,25.15,6.84,24.43,8.83c-.21.61.75.87,1,.27.65-1.82,1.45-4.71,3-6l-.83-.49C27.45,3,26.3,3.55,26,3.86a6.24,6.24,0,0,0-1.32,1.82c-.77,1.61-.87,3.53-1.51,5.21-.23.61.74.87,1,.27Z" transform="translate(-16.88 -1.07)"/><path class="cls-2" d="M32.81,9.41A5.29,5.29,0,0,1,32,7.23c.1-.53.82-.65,1.19-1a2.4,2.4,0,0,0,.86-2,.5.5,0,0,0-1,0c-.09,1.2-.26,2.72.8,3.55a.5.5,0,0,0,.78-.6,12.46,12.46,0,0,1-.77-2A.5.5,0,0,0,33,5.12a7.6,7.6,0,0,0-.6,1.08l.93.26,0-.81c0-.66-.93-.62-1,0l-.11,1h1V6.39a.5.5,0,0,0-1,0l-.18,3.05,1-.13a3.33,3.33,0,0,1-.15-1.77L32,7.79a4.14,4.14,0,0,1,.31,1l1-.27A7.2,7.2,0,0,0,32.53,7L32,7.74l.09.1A.5.5,0,0,0,33,7.59L32.92,7c0-.38,0-.25-.06.38l.44-.75L33,6.58a.52.52,0,0,0-.62.35,2.35,2.35,0,0,0,0,.59l.93-.25a2.61,2.61,0,0,1,.16-2.44c.25-.59-.72-.85-1-.26a3.38,3.38,0,0,0-.06,3.21.5.5,0,0,0,.93-.26V7.2l-.62.35a1.38,1.38,0,0,0,.57.11.51.51,0,0,0,.43-.76c-.23-.46-.73-1-1.32-.86s-.48,1-.43,1.55l.93-.25a.87.87,0,0,0-.68-.57.51.51,0,0,0-.57.74,5.5,5.5,0,0,1,.61,1.24.5.5,0,0,0,1-.27,8,8,0,0,0-.42-1.19c-.22-.51-.89-.18-.93.25a3.93,3.93,0,0,0,.18,2,.5.5,0,0,0,1-.14l.18-3h-1v.26a.5.5,0,0,0,1,0l.11-1h-1l0,.81c0,.47.73.71.93.25a8.74,8.74,0,0,1,.6-1.08l-.92-.12a14.1,14.1,0,0,0,.88,2.26l.79-.61c-.82-.64-.58-1.93-.51-2.84h-1c0,1-.59,1.18-1.33,1.58a1.26,1.26,0,0,0-.76.83,3.81,3.81,0,0,0,.38,1.78,4,4,0,0,0,.73,1.6c.42.49,1.12-.22.7-.7Z" transform="translate(-16.88 -1.07)"/><path class="cls-1" d="M22.15,39.81c-.16.58-.35,1.14-.56,1.71s.74.86,1,.26.39-1.13.55-1.71a.5.5,0,0,0-1-.26Z" transform="translate(-16.88 -1.07)"/><path class="cls-1" d="M26.72,20.59a1.44,1.44,0,0,1,1-.55c.63-.08.64-1.08,0-1a2.58,2.58,0,0,0-1.85,1c-.39.51.48,1,.86.51Z" transform="translate(-16.88 -1.07)"/><path class="cls-1" d="M26.59,15.91a4.71,4.71,0,0,0,.68.73c.49.42,1.2-.29.71-.7a3.31,3.31,0,0,1-.52-.54c-.38-.51-1.25,0-.87.51Z" transform="translate(-16.88 -1.07)"/><path class="cls-3" d="M26.86,20.91l.58-.75c.39-.5-.31-1.21-.71-.7l-.58.74c-.39.51.32,1.22.71.71Z" transform="translate(-16.88 -1.07)"/></g><g id="Layer_6" data-name="Layer 6"><path class="cls-1" d="M24,41.12a34.9,34.9,0,0,0,6.52-.72L28,38.47c0,1.15-.06,2.29-.12,3.44,0,.57-.06,1.14-.1,1.72,0,.38-.05.76-.08,1.14,1.33-.77,1.62-1.11.87-1-1-.25-2.19.15-3.18,0-.31-.07-.35,0-.13.14a2,2,0,0,1,0-.42c0-.35-.08-.29-.35.18.74.29.68,0-.18-.94l.58-1.41-.16.21A2,2,0,0,0,26,44.84l.16,0a2,2,0,0,0,1.95-.51l.11-.12c1.79-1.86-1-4.69-2.83-2.83l-.11.12L27.24,41,27.08,41,28,44.32c2.16-2.79-1.14-5.12-3.92-4.62-3,.54-3.57,4.39-2,6.61.92,1.3,2.4,1.42,3.88,1.44,1.3,0,3,.26,4.19-.3,1.44-.66,1.55-2.15,1.65-3.54.13-1.81.2-3.62.24-5.44a2,2,0,0,0-2.53-1.93,28.68,28.68,0,0,1-5.46.58c-2.58,0-2.58,4,0,4Z" transform="translate(-16.88 -1.07)"/><path class="cls-2" d="M30,37.8q-.11,3.31-.28,6.63c-.07,1.28-.05,1.29-1.38,1.31-1,0-2.06,0-3.09-.11-1.29-.1-1.28,1.9,0,2,1.47.1,5.41.88,6.25-.83.48-1,.24-2.68.29-3.76.09-1.75.16-3.49.21-5.24,0-1.29-2-1.29-2,0Z" transform="translate(-16.88 -1.07)"/><path class="cls-2" d="M29.61,37.93l-.63,1a.51.51,0,0,0,.49.84c.51-.1,0-.31-.2-.1a.51.51,0,0,0,.22.84l-.3,0a.5.5,0,0,0,.12.91l-.12.08a.48.48,0,0,0-.13.48,3.62,3.62,0,0,1,.19.4c-.06-.54-.06.05-.06.07a1.91,1.91,0,0,1,0,.48c0,.11.35-.21-.07.18a.48.48,0,0,0-.08.6c.27.48.05.16.09.48s-.36.48,0,.39a.5.5,0,0,0-.3.73l-.16-.11c-.64,0-.65,1,0,1,.84,0,1.54-.55,1-1.39l-.3.73c.45-.11.53-.48.68-.82.3-.73.24-.76-.19-1.51l-.07.6.25-.2a.47.47,0,0,0,.24-.43s0-.6-.16-.48a.48.48,0,0,0,.13-.48c0-.11-.27-.76-.31-.14,0-.17.28-.36.31-.57.08-.57-.28-.88-.76-1.05l.12.91c.68-.41,1.24-1.6.06-1.8l.22.83c1-1,.62-1.83-.78-1.58l.49.84a4.08,4.08,0,0,0,.88-1.41c.24-.6-.73-.86-1-.27Z" transform="translate(-16.88 -1.07)"/><path class="cls-2" d="M24.21,45.71a1.24,1.24,0,0,1-.93.27c-.64-.06-.64.94,0,1a2.12,2.12,0,0,0,1.44-.41c.51-.37,0-1.24-.51-.86Z" transform="translate(-16.88 -1.07)"/><path class="cls-3" d="M17.75,25.35v1.21c0,.55.89.71,1,.13l.13-.82h-1A5,5,0,0,1,18,27.76l.75-.43-.1-1.06-.84-.22.33,1.32c.16.63,1.09.35,1-.27a6.57,6.57,0,0,1,.18-3.38l-1-.13L18,25.15h1c-1.18-2.82,3.1-3.31,4.71-3.85,2.22-.74,5.13-2.3,7.48-1.72,3.65.89,4.64,5.71,7.6,7.67a.49.49,0,0,0,.68-.18,18.88,18.88,0,0,0,1.84-11.61c-.09-.57-1-.4-1,.14l-.24,6.71c0,.64,1,.64,1,0l.24-6.71-1,.13a17.76,17.76,0,0,1-1.74,10.84l.68-.18c-2.95-2-4-7.06-7.81-7.9-1.61-.35-3.25.25-4.76.75a65.55,65.55,0,0,1-7.82,2.45.48.48,0,0,0-.35.34c-.41,1.25-1,2.13-.51,3.39a.5.5,0,0,0,1,0,8.87,8.87,0,0,0,.37-1.83c.07-.57-.83-.65-1-.13a7.85,7.85,0,0,0-.18,3.91l1-.27-.33-1.31a.51.51,0,0,0-.84-.22,1.49,1.49,0,0,0,.31,2.62.51.51,0,0,0,.75-.43,8.2,8.2,0,0,0-.17-2.16.51.51,0,0,0-1,0l-.13.83,1,.13V25.35a.5.5,0,0,0-1,0Z" transform="translate(-16.88 -1.07)"/></g><g id="Layer_3" data-name="Layer 3"><path class="cls-3" d="M21.08,28.46a6.64,6.64,0,0,1,0,.77l.27-2a6.27,6.27,0,0,1-.17.75,7.71,7.71,0,0,0,0,4,5.63,5.63,0,0,0,1.35,2.55,5.65,5.65,0,0,0,2.1,1.93,7.51,7.51,0,0,0,3.79,1h.4a5.61,5.61,0,0,0,2.89-.65,5.63,5.63,0,0,0,2.42-1.55,5.6,5.6,0,0,0,1.55-2.41A5.65,5.65,0,0,0,36.27,30a7.58,7.58,0,0,0-2.19-5.31,8,8,0,0,0-5.31-2.19h-.4L35.6,32a12.78,12.78,0,0,0,.29-1.75,14.79,14.79,0,0,0,.19-1.76,7.67,7.67,0,0,0-2.19-5.3,5.63,5.63,0,0,0-2.42-1.55A5.61,5.61,0,0,0,28.58,21a7.6,7.6,0,0,0-5.3,2.2,7.92,7.92,0,0,0-2.2,5.3Z" transform="translate(-16.88 -1.07)"/><path class="cls-3" d="M28.51,35.7c9.65,0,9.67-15,0-15s-9.67,15,0,15Z" transform="translate(-16.88 -1.07)"/><path class="cls-3" d="M31,23l-.4-.26a5.51,5.51,0,0,0-2.79-.89,5.64,5.64,0,0,0-3,.13,5.71,5.71,0,0,0-2.55,1.34,5.69,5.69,0,0,0-1.93,2.11,7.54,7.54,0,0,0-.75,5.78,8.09,8.09,0,0,0,3.44,4.48l.4.26a5.61,5.61,0,0,0,2.79.89,5.74,5.74,0,0,0,3-.13A5.63,5.63,0,0,0,31.8,35.4a5.65,5.65,0,0,0,1.93-2.1,7.59,7.59,0,0,0,.76-5.78A8.15,8.15,0,0,0,31,23Z" transform="translate(-16.88 -1.07)"/><path class="cls-3" d="M19,29.66v.13a7.74,7.74,0,0,0,2.2,5.3,5.6,5.6,0,0,0,2.41,1.55,5.66,5.66,0,0,0,2.89.65,7.64,7.64,0,0,0,5.31-2.2A7.82,7.82,0,0,0,34,29.79v-.13a7.73,7.73,0,0,0-2.19-5.31,5.63,5.63,0,0,0-2.42-1.55,5.61,5.61,0,0,0-2.89-.64,7.54,7.54,0,0,0-5.3,2.19A7.79,7.79,0,0,0,19,29.66Z" transform="translate(-16.88 -1.07)"/><path class="cls-3" d="M26.39,37.75c9.65,0,9.67-15,0-15s-9.67,15,0,15Z" transform="translate(-16.88 -1.07)"/><path class="cls-3" d="M26.26,38.28c9.65,0,9.67-15,0-15s-9.67,15,0,15Z" transform="translate(-16.88 -1.07)"/><path class="cls-1" d="M24.23,32.08c-2-2.43.45-5.28,2.6-6.44,1.72-.92,2.7-.52,3.58,1.11.66,1.24,1.4,2.82.95,4.27-.55,1.75-2.72,2.16-4.32,2.2-.37,0-1.45.12-1.74-.13-.45-.38-.07-.88.11-1.37.53-1.43,1.15-3.12,2.6-3.81a9,9,0,0,0,2.52-1.26L28,26l1.42,5.21,1-1.84c-1.34.2-2.61,1.78-3.88,1.67l1.06.44-.29-.31.44,1.06a2,2,0,0,1,.95-1.4L26.42,29a7.34,7.34,0,0,1-1.69,2.38l2.56,1.06a2.92,2.92,0,0,1,.91-2.1l-2.51-.66.2,1.19c.3,1.81,2.77,1.12,2.95-.4l.24-2.11c.2-1.7-2.54-2-2.94-.4l-.05.21,2.5,1.46.15-.4-2-.54v-.41l2.74.36-.22-.72c-.56-1.84-3.45-1.05-2.89.8l.22.72a1.52,1.52,0,0,0,2.74.36,2.37,2.37,0,0,0,0-2.63,1.51,1.51,0,0,0-2.05-.54,3.57,3.57,0,0,0-1.53,2.2c-.31,1.34,1.5,2.7,2.51,1.46A3.46,3.46,0,0,0,29,28.77l-3-.4-.24,2.11,2.94-.4-.19-1.19a1.51,1.51,0,0,0-2.51-.66,6.12,6.12,0,0,0-1.79,4.22,1.52,1.52,0,0,0,2.56,1.06,9.27,9.27,0,0,0,2.16-3,1.51,1.51,0,0,0-2.36-1.82c-1.3,1.09-3,3.68-.95,5s3.75-1.18,5.58-1.46a1.52,1.52,0,0,0,1-1.85l-1.42-5.21a1.51,1.51,0,0,0-2.5-.66c-1,.88-2.46.77-3.49,1.83a10.65,10.65,0,0,0-1.9,3.3c-.8,1.87-1.9,4.27.16,5.73s5.23,1,7.33.22a5.67,5.67,0,0,0,3.95-5.16,11.36,11.36,0,0,0-2.8-7.34c-1.54-1.78-3.85-1.27-5.74-.36-4.36,2.1-7.25,7.21-3.81,11.45,1.21,1.5,3.32-.63,2.12-2.12Z" transform="translate(-16.88 -1.07)"/><path class="cls-2" d="M27.8,27.05c1.42-.36,2.56,1.56,1.91,2.79a2.43,2.43,0,0,1-3.11.63,1.66,1.66,0,0,1,.29-2.87c.76-.39,1.11.12,1.27.88.12.58-.09.79-.64,1l-1.16.15-.18-.15L26,28.36l.23-.28,1.45-.38-.12,0,.9.69c-.23-.32,0-.59-.25-.12l-.9.69.25-.05-1.46-.38.14.17c1.22,1.5,3.33-.63,2.12-2.12l-.14-.17A1.51,1.51,0,0,0,26.79,26c-2,.38-1.83,3.75-.17,4.5,2.23,1,3.17-2.52,1.22-3.51-2.21-1.13-3.85,1.58-2.95,3.46,1.09,2.25,3.49,2.39,5.3.88s1.1-4.38-.26-5.9c-1.5-1.69-4.23-1-5.65.41a4.62,4.62,0,0,0-.58,5.91,5,5,0,0,0,5.67,1.77A4.58,4.58,0,0,0,32.73,28,4.67,4.67,0,0,0,27,24.16c-1.87.47-1.07,3.37.8,2.89Z" transform="translate(-16.88 -1.07)"/><path class="cls-4" d="M21,28A1.82,1.82,0,0,0,20,30.09a1.38,1.38,0,0,0,2.16.24,1.29,1.29,0,0,0,.11-2c-.82-.6-1.7,0-2.23.68-.42.49.29,1.2.7.71.18-.21.4-.53.68-.6s.31.23.13.42-.67.37-.63,0a1.09,1.09,0,0,1,.51-.67c.58-.28.07-1.14-.51-.87Z" transform="translate(-16.88 -1.07)"/><path class="cls-4" d="M21.78,29.94l.06-.06c.46-.46-.25-1.17-.7-.71l-.07.07c-.46.45.25,1.16.71.7Z" transform="translate(-16.88 -1.07)"/><path class="cls-4" d="M29.33,28.67a1.2,1.2,0,0,0-.24,2,1.45,1.45,0,0,0,2.22-.12,1.39,1.39,0,0,0-.88-1.91,1.06,1.06,0,0,0-1.17.26.87.87,0,0,0-.06,1.07.5.5,0,0,0,.93-.25c0,.09-.07.11-.14.06-.23-.13-.25.06-.06.56l.18-.69a.27.27,0,0,1-.34,0c-.62-.2-.88.76-.27,1a1.31,1.31,0,0,0,1.11-.12.51.51,0,0,0,.18-.69c-.34-.52-1.25-.91-1.55-.1s.7,1.24,1.28.81a1,1,0,0,0-.05-1.61.91.91,0,0,0-1.34.79l.94-.25c-.1.1-.06.15.1.14a.68.68,0,0,1,.24.2c.11.21,0,.31-.19.31s-.8-.37-.38-.55c.58-.26.07-1.12-.51-.86Z" transform="translate(-16.88 -1.07)"/><path class="cls-5" d="M35.76,28.11A6.41,6.41,0,0,1,36,32.3c-.18.53.67.9.92.39,1.18-2.46,2.71-5,3.45-7.59a36.64,36.64,0,0,0,.84-9.29.5.5,0,0,0-1,0c0,2.92,0,6.21-.8,9A50.67,50.67,0,0,1,36,32.18l.92.39a7.32,7.32,0,0,0-.23-4.73.5.5,0,0,0-1,.27Z" transform="translate(-16.88 -1.07)"/><path class="cls-5" d="M36.42,28.35a2.42,2.42,0,0,0,2.72-.76.5.5,0,0,0-.61-.78,3.12,3.12,0,0,0-1,.92,6,6,0,0,1-1.1,1l.6.79a3.92,3.92,0,0,1,.37-.34l-.39.05.11,0-.3-.23c.07.17.2.17.38,0l.3.23,0-.09c-.29-.45-1.14-.16-.92.39a1.36,1.36,0,0,1,.12.48l.85-.35A2.85,2.85,0,0,1,37,28.8c-.21-.61-1.17-.35-1,.26a4.36,4.36,0,0,0,.79,1.39.51.51,0,0,0,.86-.36,2.18,2.18,0,0,0-.15-.75l-.92.39A.74.74,0,0,0,38,29.21a1,1,0,0,0-.61-.89c-.43-.12-.71.26-1,.53s.14,1.12.6.79A6.32,6.32,0,0,0,38,28.71c.32-.35.56-.81,1-1l-.61-.79a1.47,1.47,0,0,1-1.75.51c-.6-.22-.86.74-.26,1Z" transform="translate(-16.88 -1.07)"/><path class="cls-5" d="M37,27.53c-.87-3.73-4-8.24-8.37-7.88-2.11.17-4.44,1.55-6.27,2.54a9.52,9.52,0,0,0-4.53,5.17l.91.12a5.41,5.41,0,0,1,.51-4.2L18.33,23c.06.69.28,1.7-.37,2.24l.85.36v-.41a.5.5,0,0,0-1,0v.41a.51.51,0,0,0,.85.35c1.11-.92.8-1.56.67-2.95,0-.46-.68-.73-.93-.25a6.49,6.49,0,0,0-.61,5,.5.5,0,0,0,.91.12,8.89,8.89,0,0,1,3.49-4.45,24.84,24.84,0,0,1,4.93-2.37c4.59-1.5,8,2.71,8.92,6.75.15.63,1.11.36,1-.27Z" transform="translate(-16.88 -1.07)"/><path class="cls-5" d="M18.15,22.17l-.08.73c-.06.64.94.64,1,0l.08-.73c.07-.64-.94-.63-1,0Z" transform="translate(-16.88 -1.07)"/><path class="cls-5" d="M18.42,22.17l-.09,1.33c0,.64,1,.64,1,0l.09-1.33c0-.64-1-.64-1,0Z" transform="translate(-16.88 -1.07)"/><path class="cls-5" d="M19.13,25.44c1.92-2.78,7.35-4.75,10.67-5,3.72-.23,6.18,5,7.57,7.89l.79-.6c-.92-.89-.95-2.12-1.64-3.11a10.77,10.77,0,0,0-2.71-2.27C32,21.11,29.51,19,27.08,19.49,24.47,20,22,22.63,20,23.37c3.18-1.19,9.63-4.88,12.9-2.19l.61-.78c-1.91-1.21-3.94-1.19-6.13-1l.13,1c3-.49,5.58-.4,7.49,2.33,1.13,1.62,2.06,3.41,3.07,5.11a.5.5,0,0,0,.93-.25l.11-.94c.08-.64-.92-.63-1,0l-.11.94.93-.26c-1.35-2.28-2.58-5.33-4.73-7s-4.58-1.29-7-.9c-.55.09-.42,1,.14,1,2-.15,3.88-.21,5.62.89.47.3,1-.42.61-.78-2.59-2.13-6.24-.87-9.12,0-1.34.4-6.35,1.69-5.92,3.62a.52.52,0,0,0,.49.37c4,.32,6.15-5.43,10.43-3.58A20.91,20.91,0,0,1,35,24.53c1.18,1.13,1.26,2.83,2.43,3.95a.5.5,0,0,0,.78-.6c-1.46-3-4.1-8.62-8.12-8.46a21.67,21.67,0,0,0-6.92,2,10.49,10.49,0,0,0-4.92,3.49c-.37.53.5,1,.86.51Z" transform="translate(-16.88 -1.07)"/><path class="cls-3" d="M29.93,21.16a2.56,2.56,0,0,0,1.27.92c.47.18,1.11.28,1.42.71s1.24,0,.86-.51a2.61,2.61,0,0,0-1.28-.91c-.47-.18-1.1-.28-1.41-.72s-1.23,0-.86.51Z" transform="translate(-16.88 -1.07)"/><path class="cls-3" d="M33.08,23.33a.5.5,0,0,0,0-1,.5.5,0,0,0,0,1Z" transform="translate(-16.88 -1.07)"/><path class="cls-3" d="M33.28,23.6a.5.5,0,0,0,0-1,.5.5,0,0,0,0,1Z" transform="translate(-16.88 -1.07)"/><path class="cls-3" d="M19.45,23.15l.39-.54-.61-.78-.73.72a.5.5,0,0,0,.61.78,25.47,25.47,0,0,1,10.21-3.68c4.71-.36,7,4.74,9.36,8,.37.52,1.23,0,.86-.51-2-2.76-4.66-8.28-8.58-8.76-1.75-.22-4,.74-5.63,1.21a27.28,27.28,0,0,0-6.72,2.85l.6.78.73-.72c.39-.38-.15-1.14-.61-.78a1.6,1.6,0,0,0-.75.89c-.26.59.61,1.1.87.51Z" transform="translate(-16.88 -1.07)"/><path class="cls-3" d="M39.38,26.58a27.23,27.23,0,0,0,1.19-12.82c-.08-.63-1-.36-1,.27a26.31,26.31,0,0,1-1.19,12.29c-.21.61.76.87,1,.26Z" transform="translate(-16.88 -1.07)"/><path class="cls-3" d="M40.28,17.67A20.26,20.26,0,0,1,39,26.31c-.9,2.6-2.82,5-4.05,7.5-.29.57.57,1.08.86.5,1.28-2.58,3.21-5,4.16-7.73a20.74,20.74,0,0,0,1.28-8.91c-.06-.63-1.06-.64-1,0Z" transform="translate(-16.88 -1.07)"/><path class="cls-3" d="M35.91,32.82c1.49-1.22,2.54-4,3.12-5.94.19-.63-.73-.84-1-.26a23,23,0,0,1-1.65,3.24l.93.25a5.28,5.28,0,0,1,.37-2.72l-1-.27a7.62,7.62,0,0,1-.67,1.65l.92.12.31-2h-.86L37,28.3l.87-.5a5.35,5.35,0,0,1-.82-2.2l-.84.49L37,27.36l.91-.39A4.46,4.46,0,0,1,37,25.21L36,25.6a8.67,8.67,0,0,1,1,1.73c.24.56,1,.13.92-.38A9.85,9.85,0,0,0,37.41,25l-.73.57.86,1.16.79-.6a20.4,20.4,0,0,1-2.73-2.92l-.79.61,2.53,2.92.71-.71a14.16,14.16,0,0,1-3.45-3.86.5.5,0,0,0-.86.51q1.08,2.14,2.27,4.23a.5.5,0,0,0,.87-.5,15,15,0,0,1-1.19-2.69l-.83.48A5.2,5.2,0,0,1,36.3,26l.86-.5c-.77-1.18-1.5-2.38-2.18-3.62-.31-.56-1.16-.06-.86.51a4.86,4.86,0,0,0,1.2,1.51l.49-.83A5.78,5.78,0,0,1,33,20.68l-.43.75.81.46.57-.73a5,5,0,0,1-2.59-1.59l-.49.83a6.41,6.41,0,0,1,2.08.93l.39-.91a11.43,11.43,0,0,1-3-1.31l-.39.92,1.26.62.48-.84a14.72,14.72,0,0,0-3.74-.57v1l1.25-.14-.25-.93a33,33,0,0,1-3.14,1.3l.49.84.36-.44a.5.5,0,0,0-.71-.71,7,7,0,0,1-2.45,1.51l.56.74.47-.73-.78-.6c-1.69,2.51-4.15,3.94-6,6.23l.85.35a10.56,10.56,0,0,1,0-1.59.5.5,0,0,0-1,0l0,.68h1a5.09,5.09,0,0,1,.19-2.29h-1l0,.88,1,.13,0-1.25h-1l.14,1.5c0,.64,1,.65,1,0l.41-2.1-.91-.12.1,1.07c0,.66.93.63,1,0L20.08,23l-.93-.25-.63,1.77.93.25.21-1-.91-.38a5.45,5.45,0,0,1-.84,1.71l.91.39.59-1.36-.94-.25-.09,1.43a.5.5,0,0,0,1,.26c.8-2,1.65-1.68.08-.32l.86.35c.15-1.24,1.11-1.81,2.08-2.32l-.5-.86-.4.28.69.69,1.41-1.28-.49-.83c-.48.5-1.69,1.26-1.68,1.66s2.45-.85,2.13-.74a.5.5,0,0,0-.26-1L18.92,22l.38.92a39.46,39.46,0,0,1,6.26-2l-.49-.84a3.86,3.86,0,0,1-1.6,1.08L24,22a5.31,5.31,0,0,1,1.75-.7.5.5,0,0,0-.27-1,9.52,9.52,0,0,0-2,.8c-.57.31-.07,1.13.51.87a6.42,6.42,0,0,0,1.8-1.24.51.51,0,0,0-.49-.84,42.14,42.14,0,0,0-6.49,2.14c-.56.24-.13,1,.38.92l4.34-.77-.26-1c-1.1.37-3.43.94-3.43,2.39a.52.52,0,0,0,.37.48c1.24.45,2.84-1.35,3.58-2.12a.51.51,0,0,0-.49-.84,2.85,2.85,0,0,0-2,1.73c-.18.41.23,1,.69.69l.39-.29a.5.5,0,0,0-.5-.86,4.07,4.07,0,0,0-2.58,3.18c-.06.47.56.6.85.35.87-.75,1.83-1.9,1.6-3.14a.53.53,0,0,0-.49-.37c-1.43.06-2.4,1.7-2.86,2.87l1,.26a2.88,2.88,0,0,0,.13-1.69c0-.45-.68-.73-.93-.25a10.14,10.14,0,0,0-.68,1.59c-.2.55.62.84.91.39a8.22,8.22,0,0,0,.94-2c.18-.53-.67-.9-.91-.38a2.24,2.24,0,0,0-.35,1.53.5.5,0,0,0,.93.25,3.79,3.79,0,0,0,.77-2.27.5.5,0,0,0-.93-.25,4.91,4.91,0,0,0-.63,2h1a4,4,0,0,0-.13-1.33.51.51,0,0,0-.92-.12,5.22,5.22,0,0,0-.55,2.6h1A17.69,17.69,0,0,0,18.81,24c-.06-.49-.86-.45-1,0a2.63,2.63,0,0,0-.08,1.52c.06.5.89.74,1,.13a2.93,2.93,0,0,0,0-1.41.5.5,0,0,0-1,0,7.87,7.87,0,0,0-.23,2.56.5.5,0,0,0,1,0l0-.68h-1a10.56,10.56,0,0,0,0,1.59c0,.39.56.73.85.36,1.88-2.35,4.42-3.88,6.14-6.44.32-.47-.4-1-.79-.6a2.31,2.31,0,0,0-.62.92c-.15.34.12.93.57.74a10.5,10.5,0,0,0,2.89-1.77l-.71-.71-.36.44c-.28.35,0,1,.49.84A34.24,34.24,0,0,0,29.42,20c.43-.21.24-1-.25-.93l-1.25.14a.5.5,0,0,0,0,1,13.65,13.65,0,0,1,3.48.54.5.5,0,0,0,.48-.84,3.15,3.15,0,0,0-1.69-.88.51.51,0,0,0-.39.92,12.4,12.4,0,0,0,3.26,1.4.5.5,0,0,0,.39-.91,10.21,10.21,0,0,0-2.32-1c-.51-.16-.79.48-.49.84a5.34,5.34,0,0,0,3,1.84.51.51,0,0,0,.57-.73,1.65,1.65,0,0,0-1.68-1,.51.51,0,0,0-.43.76A7,7,0,0,0,35.54,24c.47.19.86-.52.49-.83A3,3,0,0,1,35,21.88l-.86.51c.68,1.23,1.4,2.43,2.18,3.61.35.53,1.19.06.86-.5a8,8,0,0,0-1.6-2c-.34-.32-1,0-.83.48A16.26,16.26,0,0,0,36,26.93l.87-.5q-1.2-2.09-2.28-4.24l-.86.51a14.86,14.86,0,0,0,3.6,4.06.5.5,0,0,0,.71-.71l-2.53-2.92c-.37-.42-1.13.15-.79.6a21.91,21.91,0,0,0,2.89,3.12.5.5,0,0,0,.79-.6,3.54,3.54,0,0,0-1.23-1.53c-.34-.26-.88.18-.73.57A10.69,10.69,0,0,1,37,27.21l.92-.38a8.58,8.58,0,0,0-1-1.74c-.31-.42-1.11-.19-.91.39a7,7,0,0,0,1,2c.3.42,1.12.19.91-.39a5.48,5.48,0,0,0-1-1.71c-.34-.42-.93.05-.83.49A8.39,8.39,0,0,0,37,28.3c.32.58,1.11.07.87-.5l-.59-1.38c-.15-.36-.69-.28-.86,0A3.15,3.15,0,0,0,36,29.15a.51.51,0,0,0,.92.12,12.75,12.75,0,0,0,.76-1.88c.2-.63-.73-.85-1-.27a5.59,5.59,0,0,0-.41,3,.5.5,0,0,0,.93.26A24.74,24.74,0,0,0,39,26.88l-1-.26c-.59,2-2.76,4.42-2.53,6.58a.53.53,0,0,0,.36.49l.13.05a.52.52,0,0,0,.49-.13l.09-.08c.5-.41-.21-1.11-.7-.71Z" transform="translate(-16.88 -1.07)"/><path class="cls-3" d="M17.66,25.53a1.5,1.5,0,0,0,.61,1.83c.53.36,1-.51.5-.87a.53.53,0,0,1-.15-.7c.25-.59-.72-.85-1-.26Z" transform="translate(-16.88 -1.07)"/><path class="cls-3" d="M19,26l-.39-.8c-.29-.57-1.15-.07-.86.51l.39.79c.29.58,1.15.07.86-.5Z" transform="translate(-16.88 -1.07)"/><path class="cls-3" d="M18.93,26.48l.07-.11c.42-.48-.28-1.19-.71-.71a1.47,1.47,0,0,0-.33.55c-.21.61.76.87,1,.27Z" transform="translate(-16.88 -1.07)"/><path class="cls-3" d="M26.67,20.89l.91-.55c.55-.33.05-1.2-.5-.86l-.92.55a.5.5,0,0,0,.51.86Z" transform="translate(-16.88 -1.07)"/><path class="cls-3" d="M33.19,21.77l.1.14c.35.54,1.22,0,.86-.5l-.09-.15c-.36-.53-1.22,0-.87.51Z" transform="translate(-16.88 -1.07)"/></g><g id="Layer_2" data-name="Layer 2"><path class="cls-3" d="M29.44,20.87c4.83.92,6.54,6,6.15,10.42-.43,4.89-6.37,6.56-10.58,6-5.33-.73-7.34-6-5-10.62,2.06-4.08,6.39-5,10.51-5.7.63-.11.36-1.07-.27-1-5.57,1-11.06,2.91-12.1,9.19a7.65,7.65,0,0,0,7.18,9.15C29.7,38.74,35.81,37,36.52,32S35.2,21,29.71,19.9c-.63-.12-.9.85-.27,1Z" transform="translate(-16.88 -1.07)"/><path class="cls-3" d="M36.53,33.89a21.42,21.42,0,0,0,5.34-14.4,13.43,13.43,0,0,0-1.88-7c-1.26-2-6.93-6.85-4.74-9.36.43-.49-.28-1.2-.7-.71C31.43,6,38,10.81,39.52,13.62c3.34,6.2.59,14.59-3.7,19.56-.42.49.28,1.2.71.71Z" transform="translate(-16.88 -1.07)"/><path class="cls-3" d="M34,2.38C32.18,4,30.33,6,30.58,8.62c.14,1.45,3.83,6.69,2.24,7.49-.57.29-.06,1.15.51.86,1.41-.71,1.08-2.32.56-3.55s-1.22-2-1.74-3.11c-1.43-3,.42-5.32,2.52-7.22.48-.43-.23-1.14-.71-.71Z" transform="translate(-16.88 -1.07)"/><path class="cls-3" d="M32.27,16.18a5.61,5.61,0,0,1-5.74-6.09c.08-2.82,1.64-5.3,3.06-7.64.34-.55-.53-1.05-.86-.5-1.9,3.12-4,6.79-2.93,10.58a6.51,6.51,0,0,0,6.47,4.65.5.5,0,0,0,0-1Z" transform="translate(-16.88 -1.07)"/><path class="cls-3" d="M28.92,1.09a8.54,8.54,0,0,0-5.11,4.06c-1.44,2.65-.5,5.77-1.82,8.43-.28.57.58,1.08.87.5.85-1.71.81-3.38,1-5.24a7.47,7.47,0,0,1,5.35-6.78c.61-.19.35-1.16-.26-1Z" transform="translate(-16.88 -1.07)"/><path class="cls-3" d="M22,13.44a1.7,1.7,0,0,1-1.65-1.75,4.58,4.58,0,0,1,.82-2.32.5.5,0,0,0-.87-.5,4.6,4.6,0,0,0-.78,3.77A2.62,2.62,0,0,0,22,14.44a.5.5,0,0,0,0-1Z" transform="translate(-16.88 -1.07)"/><path class="cls-3" d="M20,8.25c-1.89,2-3.63,5.91-2.49,8.62.68,1.63,1.3,2.83.73,4.73-.29.94-.81,1.79-1.1,2.72a4.55,4.55,0,0,0,.34,3.91.5.5,0,0,0,.87-.5c-1.78-3,1.9-5.74,1.21-8.86-.41-1.9-1.64-2.38-1.3-4.77A10.19,10.19,0,0,1,20.73,9c.44-.47-.27-1.18-.71-.71Z" transform="translate(-16.88 -1.07)"/><path class="cls-3" d="M17.47,28.4A9.9,9.9,0,0,0,18,30.25c.24.59,1.2.33,1-.27a10,10,0,0,1-.56-1.84c-.13-.63-1.09-.37-1,.26Z" transform="translate(-16.88 -1.07)"/><path class="cls-3" d="M21.91,37.53A39.64,39.64,0,0,0,21,46c0,.64,1,.64,1,0a37.92,37.92,0,0,1,.9-8.16.5.5,0,0,0-1-.26Z" transform="translate(-16.88 -1.07)"/><path class="cls-3" d="M21.38,46.36c2.66,2,6.38,1.83,9.53,1.58.63,0,.64-1,0-1-3,.24-6.5.43-9-1.44-.52-.38-1,.49-.51.86Z" transform="translate(-16.88 -1.07)"/><path class="cls-3" d="M31.19,37.14c0,1.83.07,3.68,0,5.51-.06,1.52-.67,3-.48,4.54.08.63,1.08.64,1,0-.18-1.46.45-3,.48-4.54,0-1.84,0-3.68,0-5.51a.5.5,0,0,0-1,0Z" transform="translate(-16.88 -1.07)"/><path class="cls-3" d="M23,47.73c-.24,2.52-.37,5-.38,7.55a.5.5,0,0,0,1,0c0-2.52.14-5,.38-7.55.06-.64-.94-.63-1,0Z" transform="translate(-16.88 -1.07)"/><path class="cls-3" d="M28.66,48.53l.08,6.16a.5.5,0,0,0,1,0l-.08-6.16a.5.5,0,0,0-1,0Z" transform="translate(-16.88 -1.07)"/><path class="cls-3" d="M29.73,48.15v-.08c.05-.64-.95-.64-1,0a1.06,1.06,0,0,0,.13.58c.28.58,1.14.07.86-.5Z" transform="translate(-16.88 -1.07)"/><path class="cls-3" d="M31.4,39q1.1,4.44,2.4,8.8a.5.5,0,0,0,1-.26q-1.32-4.38-2.4-8.8a.5.5,0,0,0-1,.26Z" transform="translate(-16.88 -1.07)"/><path class="cls-3" d="M21.38,39.53a32.42,32.42,0,0,1-1.23,3.14,7.07,7.07,0,0,1-1.47,2.59c-.49.41.22,1.12.71.7A7.66,7.66,0,0,0,21,43.17c.49-1.1.93-2.23,1.32-3.37.21-.61-.76-.87-1-.27Z" transform="translate(-16.88 -1.07)"/><path class="cls-1" d="M34.19,17.73a1.11,1.11,0,0,0,.45-.19c.53-.35,0-1.22-.51-.86a.29.29,0,0,1-.21.09c-.63.14-.36,1.1.27,1Z" transform="translate(-16.88 -1.07)"/><path class="cls-1" d="M33.63,12.31a.5.5,0,0,0,0-1,.5.5,0,0,0,0,1Z" transform="translate(-16.88 -1.07)"/><path class="cls-1" d="M34.84,12.58A10.41,10.41,0,0,1,35.42,14a4.2,4.2,0,0,1,.69,1.56c.07.63,1.07.64,1,0a4.64,4.64,0,0,0-.72-1.89,11.66,11.66,0,0,0-.85-1.78c-.4-.5-1.1.21-.7.7Z" transform="translate(-16.88 -1.07)"/><path class="cls-1" d="M34.94,12.8a12.77,12.77,0,0,0,1.39,4.52c.26.58,1.12.07.86-.51a11.49,11.49,0,0,1-1.25-4c0-.64-1-.65-1,0Z" transform="translate(-16.88 -1.07)"/></g></svg>
