<svg width="55" height="60" xmlns="http://www.w3.org/2000/svg">
 <metadata id="metadata8">image/svg+xml</metadata>
 <defs>
  <clipPath clipPathUnits="userSpaceOnUse" id="clipPath16">
   <path d="m-1.926166,34.040382l36,0l0,-36l-36,0l0,36z" id="path18"/>
  </clipPath>
 </defs>
 <g>
  <title>background</title>
  <rect fill="none" id="canvas_background" height="62" width="57" y="-1" x="-1"/>
 </g>
 <g>
  <title>Layer 1</title>
  <metadata transform="matrix(0.009567188202276589,0,0,0.009567188202276589,0,0) " id="svg_6">image/svg+xml</metadata>
  <metadata transform="matrix(1.9351706229760026,0,0,1.9351706229760026,0,0) " id="svg_40">image/svg+xml</metadata>
  <defs>
   <clipPath clipPathUnits="userSpaceOnUse" id="svg_30">
    <path d="m4.53148,30.274318l36,0l0,-36l-36,0l0,36z" id="svg_39"/>
   </clipPath>
  </defs>
  <g stroke="null" id="svg_42">
   <g stroke="null" id="svg_27" transform="matrix(1.5048654673928175,0,0,-1.5048654673928175,-6.566595866642962,48.63094045566342) ">
    <g stroke="null" id="svg_28">
     <g stroke="null" id="svg_29" clip-path="url(#svg_30)">
      <g stroke="null" id="svg_37">
       <path fill="#ffcc4d" fill-rule="nonzero" d="m40.53148,12.274318c0,-9.941 -8.059,-18 -18,-18c-9.94,0 -18,8.059 -18,18c0,9.94 8.06,18 18,18c9.941,0 18,-8.06 18,-18" id="svg_38"/>
      </g>
      <g stroke="null" id="svg_35">
       <path fill="#664500" fill-rule="nonzero" d="m29.53148,4.274318l-14,0c-0.552,0 -1,0.447 -1,1c0,0.553 0.448,1 1,1l14,0c0.553,0 1,-0.447 1,-1c0,-0.553 -0.447,-1 -1,-1" id="svg_36"/>
      </g>
      <g stroke="null" id="svg_33">
       <path fill="#664500" fill-rule="nonzero" d="m19.53148,12.274318l-7,0c-0.552,0 -1,0.448 -1,1c0,0.552 0.448,1 1,1l7,0c0.552,0 1,-0.448 1,-1c0,-0.552 -0.448,-1 -1,-1" id="svg_34"/>
      </g>
      <g stroke="null" id="svg_31">
       <path fill="#664500" fill-rule="nonzero" d="m32.53148,12.274318l-7,0c-0.553,0 -1,0.448 -1,1c0,0.552 0.447,1 1,1l7,0c0.553,0 1,-0.448 1,-1c0,-0.552 -0.447,-1 -1,-1" id="svg_32"/>
      </g>
     </g>
    </g>
   </g>
  </g>
  <g stroke="null" id="svg_9">
   <g stroke="null" transform="matrix(0.10425587030774133,0,0,0.10618821692606278,-233.10132552263516,-287.7697889931429) " id="svg_8">
    <title stroke="null" transform="translate(0,-6.017436504364014) translate(-9.193450927734375,4.547473508864641e-13) translate(-6.469599723815918,21.06102752685547) translate(-6.469599723815918,15.043591499328613) translate(-25.878398895263672,4.547473508864641e-13) translate(-11.003993034362793,27.087778091430664) translate(-318.8252868652344,-216.92613220214844) translate(2566.907470703125,0) translate(0,2968.66162109375) ">Layer 1</title>
    <path stroke="#000000" id="svg_5" fill="#000000" stroke-width="5" d="m2634.791202,2894.95617c-37.81128,0.25393 -74.24823,12.12366 -111.36209,16.8703c-15.48966,1.98114 -31.45441,2.46652 -46.97009,0.62463c-20.62983,-2.44936 -40.60305,-8.95534 -61.21923,-11.87185c-18.42425,-2.60477 -37.07873,-5.32628 -55.61867,-5.43451c-32.4001,-0.19286 -63.73541,9.99466 -95.49709,15.49558c0,9.33036 -1.88802,21.30724 2.86091,27.86567c4.89864,6.7642 13.16167,12.95088 15.30482,22.11726c5.08231,21.7401 12.29871,43.05054 21.52559,63.48024c4.4836,9.92822 12.9462,16.8499 22.39646,21.61795c22.75706,11.48186 49.69157,13.17049 74.6564,9.55963c35.55245,-5.14198 54.84081,-31.9319 69.55592,-62.54268c5.5076,-12.44293 6.1222,-26.80388 13.37601,-38.17642c4.30783,-6.75348 14.31256,-3.91083 21.4621,-3.93552c7.15063,-0.02462 13.21155,11.91904 15.42953,19.86936c7.85367,28.13458 20.94727,57.98463 46.97123,72.72589c38.86129,22.01437 100.08505,17.89674 125.29931,-21.80548c9.86759,-15.53842 12.5925,-34.3909 17.54324,-51.98227c3.01398,-10.7104 5.7071,-23.47908 16.42505,-29.36679c4.32489,-2.37654 1.28937,-11.85796 1.92774,-17.36959c0.69629,-6.0045 2.03772,-11.31686 -6.47028,-12.49547c-14.83874,-2.05828 -29.23294,-8.31569 -44.4198,-10.43397c-14.392,-2.00793 -28.49255,-4.90944 -43.17706,-4.81197l0,0.00001zm-249.97388,9.99681c10.73386,-0.06752 21.42127,0.7211 31.8535,2.9369c62.15813,13.2037 63.41454,38.92322 37.82601,92.09699c-20.85091,43.32698 -64.04386,54.18307 -107.56676,43.79734c-20.06396,-4.78627 -33.78239,-18.85141 -40.25265,-38.11213c-6.82973,-20.32898 -11.99482,-41.92655 -10.82573,-63.2938c1.5671,-28.61033 33.79031,-32.63158 56.86374,-35.23844c10.5876,-1.19576 21.36911,-2.11829 32.10189,-2.18686zm226.95484,0c10.73388,0.06857 21.51541,0.9911 32.10302,2.18686c23.07224,2.60686 55.29776,6.62811 56.86261,35.23845c1.16907,21.36724 -3.99606,42.96481 -10.82571,63.29379c-6.47034,19.26073 -20.18872,33.32586 -40.25156,38.11213c-43.52175,10.38573 -86.71585,-0.47036 -107.5679,-43.79734c-25.5885,-53.17377 -24.33096,-78.89329 37.82715,-92.09699c10.43228,-2.2158 21.11966,-3.00442 31.85239,-2.9369z"/>
   </g>
  </g>
  <path opacity="0" d="m15.838605,26.805094c0,0 -0.31949,0 -0.31949,0.31949c0,0 -1.052048,0.093576 -1.277962,0.31949c-0.451828,0.451828 -0.516717,0.663301 -0.638981,0.958471c-0.172907,0.417435 -0.31949,0.31949 -0.31949,0.31949c-0.31949,0.638981 -0.093576,0.732557 -0.31949,0.958471c-0.451828,0.451828 -0.153303,-0.422899 0.31949,-0.958471c0.762356,-0.863585 2.068467,-1.645168 2.236433,-1.916943c0.751166,-1.215414 1.22165,-0.794334 1.916942,-0.958471c0.621887,-0.146809 -0.016396,-0.101032 -0.31949,0c-1.515475,0.505159 -1.453411,1.263638 -2.555923,1.597452c-0.305781,0.092583 -0.31949,0.638981 -1.277962,0.638981c-0.31949,0 -0.31949,0 -0.31949,0c1.277962,-0.958471 2.104095,-1.465115 2.555923,-1.916943c0.225914,-0.225914 0,-0.638981 0,-0.638981c-1.277962,0.638981 -1.99866,0.83094 -2.555923,1.277962c-1.027543,0.824266 -1.277962,0.31949 -1.277962,0.31949c1.277962,-0.958471 2.555923,-1.597452 3.833885,-2.236433c1.277961,-0.638981 1.597451,-0.31949 1.597451,-0.638981c0,-0.31949 -0.999565,-0.071537 -1.597451,0.31949c-2.088327,1.365799 -2.555923,1.597452 -3.194904,2.236433c-0.31949,0.31949 -0.638981,0.31949 -0.31949,0.31949c0.958471,0 2.016226,-0.490395 2.555923,-0.958471c0.763248,-0.661963 0.958471,-0.31949 0.958471,-0.31949c-0.958471,0 -1.215869,0.462753 -2.555923,0.958471c-1.235469,0.457029 -1.277962,0.638981 -1.277962,0.638981c0,0 1.341223,-0.202229 3.194903,-1.277962c1.992647,-1.156378 2.587198,-1.973036 3.194904,-1.597452c0.271774,0.167967 -0.442526,0.438345 -1.277962,1.597452c-1.056752,1.466166 -2.210109,2.360037 -2.555923,3.194904c-0.122264,0.29517 0,0.638981 0,0.31949c0,-0.31949 -0.072286,-0.905825 1.597452,-1.597452c0.88551,-0.366791 0.95847,-0.638981 0.95847,0c0,0.31949 0.451828,1.465115 0,1.916943c-0.451828,0.451828 -0.95847,0.638981 -1.277961,0.638981c0,0 0,-0.638981 0.31949,-1.277962c0.319489,-0.638981 0.95847,-0.638981 0.95847,-0.958471c0,0 0.474844,0.26318 0.638981,0.958471c0.146809,0.621887 0.073404,1.605999 0,1.916943c-0.164137,0.695292 -0.638981,0.638981 -0.638981,0.958471c0,0 0,-0.31949 0,-0.958471c0,0 0.31949,-1.277962 1.277962,-2.555923c0,0 0,-0.31949 0,0l0,0l0,0.638981" id="svg_43" stroke-width="1.5" stroke="#000" fill="none"/>
  <ellipse transform="rotate(4 39.640640258788906,27.284328460693292) " stroke="#000" ry="5.271592" rx="9.105478" id="svg_48" cy="27.284329" cx="39.640642" stroke-width="1.5" fill="#000000"/>
  <ellipse transform="rotate(-77.47118377685547 18.394527435302734,28.722036361694336) " ry="1.277962" id="svg_49" cy="28.722036" cx="18.394528" stroke-width="1.5" stroke="#000" fill="#000000"/>
  <ellipse transform="rotate(4 15.03987884521462,27.284328460693374) " stroke="#000" ry="5.271592" rx="9.105478" id="svg_50" cy="27.284329" cx="15.039878" stroke-width="1.5" fill="#000000"/>
  <path d="m23.503334,24.879246c0,0 0.083263,0 0.249792,-0.166529c0,0 -0.117754,-0.215302 0,-0.333055c0.058876,-0.058876 0.083263,-0.083263 0.083263,-0.166527c0,0 0.083263,-0.166529 0.083263,-0.166529c0.166529,-0.083263 0.166529,-0.166527 0.166529,-0.166527c-0.166529,0 -0.345732,0.063728 -0.499584,0c-0.217579,-0.090124 -0.333055,-0.166529 -0.416319,-0.166529c-0.083263,0 -0.083263,0 -0.083263,0c-0.166529,0 -0.132038,0.048775 -0.249792,0.166529c-0.058876,0.058876 -0.083263,0 -0.083263,0c0,0 -0.166529,0 -0.333055,0c0,0 -0.582848,-0.249792 -0.666111,-0.333055c0,0 0,0 0,-0.166529c0,0 0,-0.083263 0,-0.166527c0,0 0,-0.166529 0,-0.166529c0,-0.083263 0,-0.166527 0,-0.166527c0.083263,0 0.166527,0 0.333055,0c0,0 0,-0.166529 0,-0.166529c0.083263,0 0.166527,0 0.333055,0.166529c0,0 0.001076,-0.013338 0.083263,0c0.259905,0.042177 0.333055,0.24979 0.333055,0.166527c0,-0.083263 -0.083263,0 -0.083263,0c-0.166529,0 -0.367367,0.002619 -0.666111,-0.166527c-0.204939,-0.116034 -0.333055,-0.166529 -0.333055,-0.166529c-0.166529,0 -0.249792,0 -0.333055,0c0,0 0,0 -0.166529,0c-0.083263,0 -0.166527,-0.083263 -0.166527,-0.083263c-0.333055,-0.083263 -0.333055,-0.083263 -0.333055,-0.083263c-0.166529,0 -0.249792,0 -0.333055,0c0,0 0,-0.166529 0,-0.166529c0,-0.083263 0,-0.166527 0,-0.166527c0,-0.166529 0,-0.166529 0,-0.249792c0,-0.083263 0,-0.083263 0,-0.083263c-0.166529,0 -0.249792,-0.166529 -0.333055,-0.166529c0,0 0,0 -0.166529,0c-0.083263,0 -0.166527,0 -0.166527,0c0,0 -0.166529,0 -0.249792,0c-0.083263,0 -0.083263,0 -0.083263,0c-0.166529,0 -0.249792,0 -0.333055,0c0,0 -0.166529,0 -0.249792,0c-0.083263,0 -0.083263,0 -0.083263,0c-0.166529,0 -0.249792,0 -0.333055,0c0,0 0,0 -0.166529,0c-0.083263,0 -0.166527,0 -0.166527,0c0,0 -0.168678,0.026674 -0.333055,0c-0.259905,-0.042177 -0.333055,-0.166527 -0.499584,-0.166527c-0.083263,0 -0.166527,0 -0.166527,-0.166529c0,0 0,0 -0.166529,0c-0.083263,0 -0.166527,0 -0.166527,0c0,0 -0.166529,0 -0.166529,0c-0.083263,0 -0.166527,0 -0.166527,0c0,-0.083263 0,-0.083263 -0.166529,-0.083263c-0.083263,0 -0.166527,0 -0.166527,0c0,-0.083263 -0.166528,-0.083263 -0.249792,-0.083263c-0.083263,0 -0.262227,0.043776 -0.333055,0c-0.158378,-0.097883 -0.083263,-0.166529 -0.083263,-0.166529c-0.166528,0 -0.249792,0 -0.333055,0c0,0 -0.024871,-0.087549 -0.166528,0c-0.158379,0.097883 -0.166528,0.166529 -0.166528,0.166529c0,0 -0.107652,0.024387 -0.166528,0.083263c-0.058877,0.058876 -0.151853,0.040487 -0.333055,0.083263c-0.162073,0.03826 -0.37878,0.079531 -0.666111,0.166529c-0.159382,0.048258 -0.491905,0.041317 -0.832639,0.083263c-0.16528,0.020348 -0.333055,0 -0.582848,0c-0.083263,0 -0.083263,0 -0.083263,0c-0.166528,0.083263 -0.249792,0.083263 -0.333055,0.249792c0,0 0,0 -0.166528,0c-0.083264,0 -0.166528,0.083263 -0.166528,0.083263c0,0 -0.166528,0 -0.249792,0c-0.083263,0 -0.083263,0 -0.083263,0.083263c0,0 -0.166528,0 -0.249792,0c-0.083263,0 -0.083263,0 -0.083263,0c-0.166528,0 -0.249792,0 -0.333055,0c0,0 -0.024871,-0.087549 -0.166528,0c-0.158379,0.097883 -0.166528,0.166529 -0.166528,0.166529c0,0 -0.151853,0.123751 -0.333055,0.166527c-0.162073,0.03826 -0.250867,0.153191 -0.333055,0.166529c-0.259904,0.042177 -0.357926,0.078978 -0.499583,0.166527c-0.158378,0.097883 -0.166528,0.166529 -0.166528,0.249792c0,0 -0.190915,0.024387 -0.249792,0.083263c-0.117754,0.117754 -0.083263,0.166529 -0.083263,0.166529c0,0 0.014675,0.040487 -0.166528,0.083263c-0.081036,0.019131 -0.166528,0 -0.166528,0.083263c0,0 -0.166528,0 -0.249792,0c0,0 0,-0.083263 0,-0.166527c0,0 -0.083264,0 -0.083264,0c0,0 -0.166528,0 -0.166528,0c-0.083264,0 -0.107652,0.107651 -0.166528,0.166527c-0.17663,0.17663 -0.38183,0.284281 -0.499583,0.166529c-0.117754,-0.117754 0.048775,-0.048777 0.166528,-0.166529c0.058876,-0.058876 0,-0.083263 0,-0.166527c0,0 0,-0.166529 0.083264,-0.166529c0.083264,0 0.083264,-0.083263 0.249792,-0.166527c0,0 0.085491,-0.147398 0.166528,-0.166529c0.181203,-0.042776 0.166528,-0.166527 0.166528,-0.166527c0.083264,0 0.333055,-0.166529 0.333055,-0.166529c0,-0.083263 0.012436,-0.122751 0.083264,-0.166527c0.158378,-0.097883 0.249791,-0.166529 0.249791,-0.166529c0,-0.083263 0.083263,-0.166527 0.166528,-0.166527c0,0 0.166528,0 0.499583,-0.166529c0,0 0.166528,-0.083263 0.333055,-0.083263c0,0 0.058876,0.024387 0,0.083263c-0.117753,0.117752 -0.350679,-0.023802 -0.582847,0.166529c-0.091063,0.074654 -0.453626,0.035204 -0.666111,0.166527c-0.158379,0.097883 -0.217928,0.172867 -0.249792,0.249792c-0.045062,0.108789 -0.083264,0.083263 -0.083264,0.249792c0,0 0.024388,0.024387 0.083264,0.083263c0.117753,0.117752 0.508492,0.006742 0.832639,0.083263c0.362407,0.085552 0.666111,0.166529 0.666111,0.166529c0,0.083263 0.083263,0.083263 0.166528,0.083263l0.166528,0l0,0" id="svg_51" fill-opacity="null" stroke-opacity="null" stroke-width="1.5" stroke="#000" fill="none"/>
  <path d="m21.421738,31.873409c0,0 0.014675,0.123753 -0.166529,0.166527c-0.081036,0.019131 -0.166527,0 -0.166527,0c0,0 0,0.166531 0,0.166531c0,0 -0.107653,0.107651 -0.166529,0.166527c-0.058876,0.058876 -0.107651,0.107651 -0.166527,0.166527c-0.058876,0.058876 0,0.166527 0,0.166527c0,0.166531 0,0.166531 0,0.166531c0,0.083263 -0.190916,0.024387 -0.249792,0.083263c-0.058876,0.058876 -0.083263,0.083263 -0.083263,0.083263c0,0 -0.048775,-0.117752 -0.166529,0c-0.117752,0.117752 -0.083263,0.166527 -0.083263,0.166527c-0.083263,0 -0.083263,0 -0.083263,0c-0.166529,0 -0.141003,0.121464 -0.249792,0.166527c-0.076925,0.031864 -0.083263,0 -0.083263,0c-0.166529,0 -0.166529,0.166531 -0.249792,0.166531c0,0 -0.083263,0 -0.083263,0.083263c0,0.083263 0,0.083263 0,0.24979c0,0 0.014675,0.123753 -0.166529,0.166527c-0.081036,0.019131 -0.083263,0 -0.166527,0c0,0 -0.166529,0 -0.249792,0c-0.083263,0 -0.083263,0 -0.083263,0c-0.166529,0 -0.048777,-0.048775 -0.166529,-0.166527c-0.058876,-0.058876 -0.166527,-0.166527 -0.166527,-0.166527c0,-0.083263 0,-0.166527 0,-0.166527c0,-0.166531 0.083263,-0.166531 0.083263,-0.166531c0,-0.083263 0.083263,-0.166527 0.249792,-0.166527c0,0 0,-0.166527 0,-0.166527c0,0.166527 0,0.24979 0,0.499584c0,0.083263 -0.190916,0.107651 -0.249792,0.166527c-0.117752,0.117752 -0.03949,0.178963 -0.083263,0.24979c-0.097883,0.158379 -0.22044,0.164242 -0.582848,0.249794c-0.081036,0.019131 -0.073151,0.124352 -0.333055,0.166527c-0.082188,0.013336 -0.083263,0 -0.249792,0c-0.083263,0 -0.166527,0 -0.166527,0c0,0.166527 0,0.166527 0,0.166527c-0.166529,0.083263 -0.166529,0.166527 -0.166529,0.166527c0,0.166531 -0.083263,0.166531 -0.166527,0.166531c0,0 0,0 -0.166529,0c-0.083263,0 -0.166527,-0.166531 -0.166527,-0.166531c0,-0.083263 0,-0.333054 0,-0.49958c0,0 0,-0.166531 0,-0.166531c0,-0.083263 0,-0.166527 0,-0.166527c0,0 0.006338,-0.134663 0.083263,-0.166527c0.108789,-0.045063 0.249792,-0.166527 0.249792,-0.166527c0,0 0.083263,0 0.166527,0c0.166529,0 0.048775,-0.048775 0.166529,-0.166531c0.058876,-0.058876 0.166527,0 0.166527,0.166531c0,0 0,0.333054 -0.083263,0.416317c-0.083263,0.083263 -0.083263,0.249794 -0.083263,0.249794c-0.166529,0.083263 -0.178965,0.122753 -0.249792,0.166527c-0.158377,0.097881 -0.134375,0.274521 -0.333055,0.499584c-0.123215,0.139576 -0.249792,0.333054 -0.333055,0.333054c-0.083263,0 -0.083263,0 -0.083263,0c-0.166528,0 -0.249792,0 -0.249792,0c-0.083263,-0.166527 -0.09594,-0.102798 -0.249791,-0.166527c-0.108789,-0.045063 -0.166528,-0.166527 -0.333055,-0.166527c-0.083264,0 -0.166528,0 -0.166528,0c0,-0.166531 0,-0.166531 -0.166528,-0.166531c-0.083264,0 -0.083264,0 -0.083264,-0.083263c0,-0.083263 0,-0.083263 0,-0.24979c0,0 0.083264,-0.083263 0.249792,-0.166527c0,0 -0.117755,-0.048775 0,-0.166531c0.058876,-0.058876 0.166528,0 0.333055,-0.083263c0,0 0,0 0.083263,0c0.083264,0 0.249792,0 0.249792,0.083263c0,0 0,0.166531 0,0.166531c-0.166528,0.083263 -0.241993,0.091873 -0.333055,0.166527c-0.232167,0.190331 -0.333055,0.166527 -0.333055,0.166527c-0.166528,0.083263 -0.249792,0.166527 -0.333055,0.166527c0,0 0.014675,0.20702 -0.166528,0.249794c-0.162073,0.038261 -0.166528,0.083263 -0.166528,0.083263c-0.249792,0 -0.333055,0.166527 -0.333055,0.166527c0,0 -0.166528,0 -0.249792,0c-0.083263,0 -0.083263,0 -0.083263,0c0,0 -0.166528,0 -0.249792,-0.166527c0,0 -0.083263,0 -0.083263,-0.083263c0,-0.083263 -0.091413,-0.151909 -0.249792,-0.249794c-0.070828,-0.043774 -0.083263,-0.083263 -0.083263,-0.166527c0,0 0,-0.166527 0,-0.166527c0,-0.083263 0,-0.166527 0,-0.166527c0,-0.166531 0,-0.166531 0,-0.249794c0,-0.083263 0.006338,-0.217926 0.083263,-0.24979c0.108789,-0.045063 0.249792,-0.166527 0.249792,-0.166527c0,0 0.083263,0 0.166528,0c0.166528,0 0.166528,0 0.166528,0c0.083263,0.083263 0.166528,0.083263 0.166528,0.166527c0,0 0,0.166527 0,0.166527c0,0.166527 0,0.166527 0,0.333057c0,0 0.025525,0.121464 -0.083264,0.166527c-0.076925,0.031864 -0.083263,0 -0.083263,0.166527c0,0 -0.190915,-0.058876 -0.249792,0c-0.058876,0.058876 -0.180813,-0.068977 -0.416319,0.166527c-0.117755,0.117756 -0.235173,0.091415 -0.333055,0.249794c-0.043775,0.070827 -0.166528,0.083263 -0.249792,0.083263c-0.083263,0 -0.262227,-0.043774 -0.333055,0c-0.158377,0.097881 -0.083263,0.166527 -0.083263,0.166527c0,0 -0.166528,0 -0.249792,0c-0.083263,0 -0.416319,-0.166527 -0.582847,-0.166527c-0.083264,0 -0.166528,-0.083263 -0.166528,-0.166527c0,-0.166531 0,-0.166531 0,-0.166531c0,-0.083263 0,-0.166527 0,-0.166527c0,-0.166527 0.058876,-0.190914 0,-0.24979c-0.117753,-0.117752 -0.166528,-0.083263 -0.166528,-0.083263c0,-0.166531 0,-0.166531 0,-0.249794c0,-0.083263 0,-0.083263 0,-0.24979c0,0 0.048775,0.034489 0.166528,-0.083263c0.058876,-0.058876 -0.075115,-0.151909 0.083263,-0.249794c0.070828,-0.043774 0.249792,0 0.249792,0c0,0 0.083263,-0.083263 0.166528,-0.083263c0.166528,0 0.166528,0 0.166528,0c0.083263,0 0.166528,0 0.333055,0c0,0 -0.025525,0.0382 0.083263,0.083263c0.230778,0.095592 0.25613,0.21793 0.333055,0.249794c0.108789,0.045063 0.083264,0.083263 0.083264,0.24979c0,0 -0.083264,0.083263 -0.166528,0.166527c0,0 -0.073162,-0.010098 -0.249792,0.166531c-0.058876,0.058876 -0.083263,0.166527 -0.083263,0.166527c0,0 -0.091415,0.068645 -0.249792,0.166527c-0.070828,0.043774 -0.083263,0 -0.083263,0c-0.166528,0 -0.174679,-0.068645 -0.333055,-0.166527c-0.212486,-0.131325 -0.333055,-0.166527 -0.666111,-0.166527c0,0 0,-0.166531 -0.166528,-0.166531c0,0 -0.166528,-0.083263 -0.166528,-0.166527c0,0 0,0 -0.166528,0c-0.083264,0 -0.083264,-0.166527 -0.166528,-0.166527c0,0 0.000002,-0.083263 -0.249791,-0.333057c-0.083264,-0.083263 -0.083264,-0.166527 -0.083264,-0.166527c0,-0.166527 -0.166528,-0.166527 -0.166528,-0.24979c0,-0.083263 -0.083264,-0.083263 -0.083264,-0.083263c0,-0.166531 -0.083263,-0.166531 -0.083263,-0.166531c0,-0.083263 0,-0.166527 0,-0.166527c0,-0.166527 0,-0.166527 0,-0.24979c0,-0.083263 -0.117755,-0.132038 0,-0.249794c0.058876,-0.058876 0.085491,-0.064131 0.166528,-0.083261c0.181204,-0.042776 0.166528,-0.083265 0.166528,-0.083265c0.083264,0 0.166528,0.083265 0.333055,0.166527c0,0 0,0.166531 0,0.166531c0,0.083263 0,0.166527 0,0.166527c0,0.166527 -0.031863,0.172863 0,0.24979c0.045062,0.108788 0.083263,0.083263 0.083263,0.249794c0,0 0,0.083263 0,0.166527c0,0 -0.024387,0.107651 -0.083263,0.166527c-0.058876,0.058876 0,0.166527 0,0.166527c-0.166528,0 -0.287993,0.141006 -0.333055,0.249794c-0.031864,0.076923 0.051051,0.159668 -0.166528,0.24979c-0.076926,0.031864 -0.166528,0 -0.166528,0c0,-0.166527 -0.134664,-0.172867 -0.166528,-0.24979c-0.045062,-0.108788 -0.107652,-0.024387 -0.166528,-0.083263c-0.117755,-0.117756 0,-0.166531 0,-0.249794c0,-0.083263 0,-0.083263 0,-0.24979c0,0 -0.147398,-0.085491 -0.166528,-0.166527c-0.042776,-0.181206 -0.166528,-0.166531 -0.166528,-0.249794c0,-0.083263 0,-0.083263 0,-0.083263c0,-0.166527 0,-0.166527 0,-0.166527c0,-0.166527 -0.048773,-0.215302 -0.166528,-0.333057c-0.058877,-0.058876 -0.024387,-0.107649 -0.083264,-0.166527c-0.058876,-0.058876 -0.083263,-0.166527 -0.083263,-0.166527c0,-0.083263 0,-0.166527 0,-0.166527c0,-0.166529 -0.166528,-0.166529 -0.166528,-0.166529c-0.083263,0 -0.166528,-0.083263 -0.166528,-0.166529c0,0 -0.166528,-0.166527 -0.166528,0c0,0.083265 0,0.166529 0,0.333057c0,0 -0.083264,0 -0.083264,-0.166529c0,0 0,-0.083263 0,-0.166529l-0.083264,0" id="svg_52" fill-opacity="null" stroke-opacity="null" stroke-width="1.5" stroke="#000" fill="none"/>
  <path d="m14.427572,33.039104c0,0 0.051399,-0.00634 0.083263,-0.083263c0.045062,-0.108788 0.132037,-0.132038 0.249792,-0.249794c0.235506,-0.235504 0.333055,-0.166527 0.416319,-0.166527c0.083264,0 0.249792,0 0.249792,0c0,0 -0.35068,0.142723 -0.582848,0.333057c-0.091063,0.074654 -0.333055,0.166527 -0.416319,0.166527c0,0 0,0 0,0c0,-0.083263 0.333055,-0.333057 0.666111,-0.416321c0.333055,-0.083263 0.499583,-0.083263 0.666111,-0.083263c0,0 0.007145,-0.048256 0.166528,0c0.28733,0.086998 0.409459,0.115475 0.499583,0.333057c0.031864,0.076927 0,0.166527 0,0.333054c0,0.166527 0,0.333057 0.083263,0.333057c0.083263,0 0.249792,0 0.582848,-0.166531c0.333055,-0.166527 0.802654,-0.475372 1.415485,-0.749374c0.240372,-0.107471 0.249792,-0.24979 0.333055,-0.24979c0.083263,0 0.249792,-0.166527 0.249792,-0.166527c0,0 0.058876,-0.225407 0,-0.166531c-0.117754,0.117756 0.039289,0.259647 0,0.333057c-0.141659,0.26469 -0.260668,0.343773 -0.333055,0.582848c-0.086998,0.287331 -0.204731,0.224266 -0.249792,0.333054c-0.031864,0.076927 -0.083263,0.083263 -0.083263,0.083263c0,0.166531 0.058876,0.190918 0,0.249794c-0.17663,0.176628 -0.274179,0.024387 -0.333055,0.083263c-0.117752,0.117752 0,0.166527 0,0.166527c-0.166529,0.083263 -0.333055,0.166527 -0.333055,0.166527c0,0.166531 0,0.166531 0,0.249794c0,0.083263 0,0.083263 0,0.083263c0,0 0.083263,0.166527 0.083263,0.166527c0,0 -0.083263,-0.166527 -0.083263,-0.166527c0,0 -0.334927,0.030521 -0.582848,0c-0.340733,-0.041946 -0.753119,-0.105484 -1.248958,-0.166527c-0.681468,-0.083893 -1.501019,-0.111591 -2.164861,-0.166531c-0.504748,-0.041775 -0.523972,-0.107651 -0.582848,-0.166527c-0.058876,-0.058876 -0.083263,-0.166527 -0.083263,-0.166527c0,-0.333057 -0.242931,-0.448532 -0.333055,-0.666111c-0.063727,-0.153851 -0.174677,-0.235172 -0.333055,-0.333057c-0.212485,-0.131325 -0.23753,-0.097675 -0.333055,-0.166527c-0.30208,-0.217728 -0.491492,-0.185196 -0.666111,-0.24979c-0.321981,-0.119106 -0.333055,-0.249794 -0.499583,-0.249794c0,0 -0.083264,-0.083261 -0.166528,-0.166527c0,0 0,0 0,0c0,0 -0.166528,0 -0.166528,0.083265l0,0.083261" id="svg_53" fill-opacity="null" stroke-opacity="null" stroke-width="1.5" stroke="#000" fill="none"/>
  <path d="m18.174446,34.038269c0,0 0.083263,0.166531 0.083263,0.166531c0,0.083263 0,0.166527 0,0.166527c0.166529,0.166527 0.166529,0.166527 0.166529,0.24979c0,0.083263 -0.048775,0.132038 -0.166529,0.249794c-0.058876,0.058876 -0.166527,0 -0.166527,0c0,0 -0.048775,-0.034489 -0.166529,0.083263c-0.058876,0.058876 -0.083263,0.083263 -0.083263,0.083263l-0.083263,0l0,0" id="svg_54" fill-opacity="null" stroke-opacity="null" stroke-width="1.5" stroke="#000" fill="none"/>
  <path d="m31.080347,23.713551c0,0 0.058876,-0.058876 0,0c-0.117754,0.117754 0,0.166529 0,0.166529c0,0.083263 -0.134665,0.089602 -0.166529,0.166527c-0.090124,0.217579 -0.166527,0.166529 -0.166527,0.166529c-0.166529,0.083263 -0.249792,0.166527 -0.333055,0.166527c0,0 0.058876,-0.024387 0,-0.083263c-0.117754,-0.117754 -0.224266,-0.038202 -0.333055,-0.083263c-0.153852,-0.063728 -0.666111,0 -0.999166,0c-0.333055,0 -0.38183,0.117754 -0.499584,0c-0.117754,-0.117754 0.166529,-0.166529 0.166529,-0.166529c0.333055,-0.083263 0.499582,-0.166527 0.749374,-0.166527c0.249792,0 0.582848,0 0.582848,0c0,0.083263 0.024387,0.107651 0.083263,0.166527c0.058876,0.058876 0.083263,0 0.083263,0.166529c0,0 0.166529,0 0.166529,0c0.416319,-0.166529 0.666111,-0.166529 0.832638,-0.249792c0.166529,-0.083263 0.50066,-0.236454 0.582848,-0.249792c0.259905,-0.042177 0.561758,-0.197447 0.915903,-0.416319c0.158375,-0.097881 0.333054,-0.249792 0.333054,-0.249792c0,-0.083263 0,-0.166527 0,-0.166527c0,-0.166529 0,-0.166529 -0.166527,-0.166529c-0.166527,0 -0.51226,-0.063728 -0.666111,0c-0.217579,0.090124 -0.339394,0.134665 -0.416319,0.166529c-0.108789,0.045061 -0.083263,0.083263 -0.333055,0.083263c-0.083263,0 0.09594,0.063728 0.249792,0c0.108789,-0.045061 0.333055,-0.083263 0.333055,-0.083263c0,0 0.083263,-0.166529 0.166527,-0.166529c0.166527,0 0.166527,0 0.166527,0c0.166531,0 0.333057,0 0.333057,0c0.083263,0 0.166527,-0.083263 0.333054,-0.083263c0,0 0.045723,-0.162794 0.333057,-0.249792c0.318764,-0.096514 0.484909,-0.123751 0.666111,-0.166527c0.162071,-0.03826 0.333054,0 0.333054,-0.166529c0,0 0.083263,-0.083263 0.333057,-0.166527c0,0 0,0 0.083263,-0.166529c0,0 0.151909,0.075113 0.24979,-0.083263c0.043774,-0.070827 0.083263,-0.083263 0.333057,-0.249792c0,0 0,0 0,0c0.083263,0 0.166527,0 0.333054,0c0,0 0,0 0.083263,0c0.083267,0 0.249794,0 0.333057,0c0.24979,0 0.24979,0 0.333054,0c0.083267,0 0.249794,0 0.249794,0c0,0 0.083263,0 0.166527,0c0.166527,0 0.166527,0 0.166527,0c0.083263,0 0.166531,0 0.333057,0c0,0 0.166527,0 0.333054,0c0,0 0,0 0.083263,0c0.083267,0 0.249794,0 0.249794,0c0,0 0.083263,-0.083263 0.166527,-0.083263c0.166527,0 0.166527,-0.083263 0.333057,-0.083263c0.166527,0 0.166527,0 0.166527,0c0.083263,-0.166529 0.170982,-0.128269 0.333054,-0.166529c0.181206,-0.042776 0.333057,-0.166527 0.416321,-0.166527c0.083263,0 0.24979,0 0.24979,0c0,0 0.107651,0.024385 0.166531,0.083263c0.058876,0.058876 0.166527,0.083263 0.166527,0.083263c0,0 0.107651,-0.058876 0.166527,0c0.117752,0.117754 0.166527,0.166529 0.166527,0.166529c0.083263,0 0.333057,0 0.333057,0c0.083263,0 0.166527,0 0.333054,0c0,0 0,0 0.083263,0c0.083267,0 0.249794,0 0.249794,0c0,0 0.083263,-0.166529 0.166527,-0.166529c0,0 0.166527,0 0.166527,0c0,0 0.083263,0 0.166531,0c0.166527,0 0.166527,0 0.166527,0c0.083263,0 0.166527,0 0.333054,0c0,0 0,0 0.083263,0c0.083267,0 0.249794,0 0.249794,0c0,0 0,0 0.083263,0c0.083263,0 0.083263,0.166529 0.24979,0.166529c0,0 -0.014675,0.123751 0.166531,0.166527c0.162071,0.03826 0.166527,0.166529 0.166527,0.166529c0,0 -0.058876,0.024387 0,0.083263c0.058876,0.058876 0.083263,0.083263 0.166527,0.083263c0.166527,0 0.166527,0 0.166527,0.166529c0,0 0.083263,0 0.166531,0c0.166527,0 0.107651,0.107651 0.166527,0.166527c0.058876,0.058876 0.215302,0.048777 0.333054,0.166529c0.058876,0.058876 0,0.083263 0.083263,0.083263c0.083267,0 0.249794,0 0.249794,0c0,0 0.083263,0 0.333054,0c0,0 0,-0.083263 0.083263,-0.083263c0.083267,0 0.249794,0 0.249794,0c0,0 0.083263,0 0.166527,0c0.166527,0 0.107651,0.107651 0.166527,0.166527c0.058876,0.058876 0.048779,0.048775 0.166531,0.166529c0.117752,0.117752 0.166527,0 0.166527,0.083263c0,0.083263 0.083263,0.083263 0.166527,0.083263c0,0 0.166527,0 0.166527,0.166529c0,0 0.057739,0.121466 0.166531,0.166527c0.153851,0.063725 0.166527,0 0.166527,0c0,0 0.024387,0.107653 0.083263,0.166529c0.058876,0.058876 0.24979,0.083263 0.24979,0.166527c0,0 -0.117752,0.048775 0,0.166529c0.058876,0.058876 0.166527,0 0.166527,0.083263c0,0.083263 0.166531,0.083263 0.166531,0.083263c0,0 0,0.166529 0,0.166529c0.083263,0.083263 0.166527,0.083263 0.166527,0.166527c0,0 0.166527,0.166529 0.166527,0.166529c0,0.083263 0,0.083263 0,0.166527c0,0 0.333057,0 0.333057,0.166529l0.166527,0l-0.083263,0l-0.083263,0" id="svg_55" fill-opacity="null" stroke-opacity="null" stroke-width="1.5" stroke="#000" fill="none"/>
  <path d="m47.233536,22.381329c0,-0.083263 -0.083263,-0.083263 -0.333054,-0.083263c-0.166527,0 -0.440708,0.024387 -0.499584,0.083263c-0.117752,0.117754 -0.012676,0.102802 -0.166527,0.166529c-0.108788,0.045061 -0.166527,0.166527 -0.166527,0.166527c-0.166527,0 -0.333057,0.166529 -0.333057,0.333055c0,0.166529 -0.076405,0.282005 -0.166527,0.499584c-0.063728,0.153851 0,0.166527 0,0.333055c0,0 0,0.083263 0,0.166527l0,0l0,0.166529" id="svg_56" fill-opacity="null" stroke-opacity="null" stroke-width="1.5" stroke="#000" fill="none"/>
  <path d="m47.067009,21.96501c0,0 0.024387,-0.024387 0.083263,-0.083263c0.058876,-0.058876 0.249794,0 0.249794,-0.166529c0,0 0.107651,-0.058876 0.166527,0c0.117752,0.117754 0.038261,0.170984 0,0.333055c-0.042774,0.181204 -0.064041,0.368326 -0.166527,0.499584c-0.211277,0.270597 -0.215305,0.215302 -0.333057,0.333055c-0.117752,0.117752 -0.24979,0 -0.333054,0.083263c0,0 0,0 0,-0.083263l0,0l0,0l0,-0.166529" id="svg_57" fill-opacity="null" stroke-opacity="null" stroke-width="1.5" stroke="#000" fill="none"/>
  <path d="m46.067844,31.373827c0,0 0.083263,0 0.083263,0.166529c0,0 0,0.083263 0,0.166527c0,0.166527 0,0.166527 0,0.249792c0,0.083261 -0.0382,0.224268 -0.083263,0.333055c-0.095589,0.230778 0,0.333054 0,0.416317c0,0 0,0.166531 0,0.166531c0,0.083263 0,0.166527 0,0.166527c0,0.166527 -0.107651,0.190914 -0.166527,0.24979c-0.05888,0.05888 -0.166531,0 -0.166531,-0.083263c0,0 0,-0.166527 0,-0.166527c0,-0.166527 0,-0.166527 0,-0.499584c0,-0.166527 0,-0.166527 0,-0.24979c0,-0.083263 0,-0.083263 0,-0.083263c-0.166527,0 -0.242931,-0.051052 -0.333054,0.166527c-0.063728,0.153851 -0.101307,0.382294 -0.333057,0.832638c-0.215527,0.418808 -0.49958,0.499584 -0.582848,0.666111c0,0 -0.083263,0 -0.083263,0.083263c0,0.083263 0,0.083263 0,0.249794c0,0 0,0 0,0c0,-0.166531 0,-0.166531 0,-0.249794c0,-0.083263 0,-0.24979 0,-0.333054c0,-0.083263 0,-0.249794 0,-0.249794c0,-0.083263 0,-0.166527 0,-0.166527c0,0 0,0 0,0c0,0.083263 -0.079529,0.462044 -0.166527,0.749374c-0.072388,0.239075 -0.024387,0.274181 -0.083263,0.333057c-0.058876,0.058876 -0.083263,0.083263 -0.083263,0.083263c0,0 -0.166527,0.166527 -0.249794,0.166527c-0.083263,0 -0.083263,0 -0.083263,-0.24979c0,-0.083263 0,-0.249794 0,-0.333057c0,-0.083263 0,-0.24979 0,-0.333054c0,-0.249794 0.071003,-0.264206 0.166531,-0.333057c0.151039,-0.10886 0.166527,-0.083263 0.166527,-0.083263c0.083263,-0.166527 0.057739,-0.204727 0.166527,-0.24979c0.153851,-0.063728 0.166527,0 0.166527,0.083263c0,0 0,0.166527 0,0.24979c0,0.083263 -0.166527,0.249794 -0.24979,0.416321c-0.083263,0.166527 -0.24979,0.333054 -0.333057,0.499584c-0.083263,0.166527 0.034489,0.215302 -0.083263,0.333054c-0.117752,0.117752 -0.274178,0.024387 -0.333054,0.083263c-0.058876,0.058876 0.051052,0.159668 -0.166527,0.249794c-0.076927,0.031864 -0.166531,0 -0.166531,0c0,-0.166531 0,-0.249794 0,-0.499584c0,-0.166527 0.065769,-0.422852 0.166531,-0.666111c0.142502,-0.344025 0.166527,-0.499584 0.166527,-0.666111c0,0 0.024387,-0.142139 0.083263,-0.083263c0.058876,0.058876 0,0.24979 0,0.24979c0,0.166527 0.020348,0.500832 0,0.666111c-0.041946,0.340736 -0.098751,0.307461 -0.24979,0.416321c-0.095528,0.068851 -0.083267,0.083263 -0.166531,0.24979c0,0 0.014675,0.123753 -0.166527,0.166527c-0.081036,0.019131 -0.107651,-0.058876 -0.166527,0c-0.117756,0.117756 -0.048775,0.048779 -0.166527,0.166531c-0.058876,0.058876 -0.166531,0.166527 -0.166531,0.166527c0,0 0,0.166527 -0.166527,0.166527c-0.083263,0 -0.166527,0 -0.166527,-0.166527c0,-0.083263 0,-0.166527 0,-0.499584c0,-0.166527 0,-0.333054 0,-0.499584c0,-0.083263 -0.039951,-0.193478 0.083263,-0.333054c0.198681,-0.22506 0.24979,-0.166527 0.24979,-0.333057c0,0 0.083263,-0.083263 0.333057,-0.166527c0,0 0,0 0,0c0,0.166527 0,0.333057 0,0.499584c0,0.333054 -0.028824,0.47506 -0.166527,0.666111c-0.108864,0.151039 -0.166531,0.333054 -0.166531,0.333054c0,0.166531 -0.180939,0.237534 -0.24979,0.333057c-0.108864,0.151039 -0.083263,0.24979 -0.083263,0.24979c-0.166527,0 -0.166527,0.083263 -0.249794,0.083263c-0.083263,0 -0.083263,0 -0.083263,0c-0.166527,0 -0.274178,0.058876 -0.333054,0c-0.058876,-0.058876 0.014675,-0.123753 -0.166527,-0.166527c-0.081039,-0.019131 -0.083267,-0.166527 -0.083267,-0.166527c-0.083263,-0.083263 -0.083263,-0.166527 -0.083263,-0.333057c0,-0.333054 -0.038261,-0.504036 0,-0.666111c0.042774,-0.181202 0.083263,-0.166527 0.166531,-0.333054c0,0 0.166527,-0.083263 0.166527,-0.083263c0,0 0,0.083263 0,0.083263c0,0.24979 -0.153191,0.50066 -0.166527,0.582848c-0.042179,0.259903 -0.166531,0.333054 -0.166531,0.416317c0,0 0,0.166531 -0.166527,0.166531c0,0 -0.024387,0.024387 -0.083263,0.083263c-0.058876,0.058876 -0.083263,0.083263 -0.083263,0.083263c0,0 -0.166527,0.166527 -0.333057,0.166527c0,0 -0.274178,0.107651 -0.333054,0.166527c-0.117752,0.117752 -0.249794,0 -0.249794,-0.083263c0,-0.083263 0,-0.083263 0,-0.24979c0,0 0,-0.083263 0,-0.166527c0,-0.249794 0.164242,-0.470234 0.249794,-0.832642c0.019131,-0.081036 -0.005993,-0.467194 0.166527,-0.666111c0.121986,-0.140652 0.166527,-0.166527 0.166527,-0.166527c0,0 0.083263,0 0.083263,0c0,0.083263 -0.041317,0.325378 -0.083263,0.666111c-0.020348,0.165279 -0.160538,0.467197 -0.333054,0.666111c-0.121986,0.140652 -0.274181,0.107651 -0.333057,0.166527c-0.117756,0.117756 0,0.166531 0,0.166531c0,0.083263 -0.166527,0.166527 -0.24979,0.166527c-0.083263,0 -0.083263,0 -0.083263,0c-0.333057,0.166527 -0.333057,0.166527 -0.333057,0.166527c-0.166527,0 -0.24979,0 -0.333054,0c0,0 0,-0.166527 0,-0.166527c0,-0.166527 0,-0.166527 0,-0.416321c0,-0.24979 0,-0.416317 0,-0.666111c0,-0.24979 0.109074,-0.277889 0.333054,-0.416317c0.200336,-0.123814 0.391563,-0.378132 0.666111,-0.499584c0.313961,-0.138885 0.333057,-0.083263 0.333057,0.166527c0,0.083263 0.117752,0.381832 0,0.499584c-0.117752,0.117752 -0.249794,0.166527 -0.249794,0.166527c-0.083263,0 -0.205044,-0.104069 -0.416317,0.166527c-0.102486,0.13126 -0.249794,0.333057 -0.333057,0.499584c0,0 -0.190914,0.024387 -0.24979,0.083263c-0.058876,0.058876 -0.083263,0.083263 -0.083263,0.083263c0,0.166531 -0.383934,0.160542 -0.582848,0.333057c-0.140652,0.121986 -0.24979,0.166527 -0.333057,0.166527c-0.083263,0 -0.083263,0 -0.083263,0c0,0 -0.166527,-0.166527 -0.166527,-0.333054c0,0 0.068645,-0.091419 0.166527,-0.249794c0.043774,-0.070827 -0.075111,-0.318436 0.083263,-0.416317c0.070831,-0.043777 0.164242,-0.13718 0.249794,-0.499584c0.038261,-0.162071 0.107651,-0.274181 0.166527,-0.333057c0.058876,-0.058876 0.166527,-0.166527 0.166527,-0.166527c0,0 0.083263,0 0.083263,0c-0.083263,0.333057 -0.133759,0.461174 -0.24979,0.666111c-0.169147,0.298748 -0.070938,0.435333 -0.166527,0.666111c-0.180248,0.435162 -0.607235,0.440708 -0.666111,0.499584c-0.117752,0.117752 -0.178963,0.210304 -0.249794,0.166527c-0.158375,-0.097881 -0.083263,-0.166527 -0.083263,-0.166527c0,-0.083263 -0.166527,-0.166527 -0.166527,-0.166527c-0.083263,0 -0.107651,-0.107655 -0.166527,-0.166531c-0.117752,-0.117752 -0.207615,-0.406204 -0.249794,-0.666111c-0.013336,-0.082188 0,-0.166527 0,-0.333054c0,-0.083263 0.118141,-0.271156 0.249794,-0.666111c0.052662,-0.157982 0,-0.333057 0.083263,-0.499584c0,0 0.132038,-0.048775 0.24979,-0.166527c0.058876,-0.058876 0,-0.166527 0.083263,-0.166527c0.083267,0 0.15979,0.008911 0.083267,0.333054c-0.042778,0.181202 -0.166531,0.333057 -0.166531,0.499584c0,0.166527 -0.166527,0.333054 -0.24979,0.499584c-0.083263,0.166527 -0.132038,0.215302 -0.24979,0.333054c-0.058876,0.058876 -0.083267,0.083263 -0.166531,0.083263c0,0 0.014675,0.040489 -0.166527,0.083263c-0.081036,0.019131 -0.185543,0.070938 -0.416321,0.166531c-0.108788,0.045063 -0.083263,0.083263 -0.083263,0.166527c0,0 0,-0.083263 0,-0.166527c0,0 0,-0.166531 0,-0.166531c0,-0.166527 0,-0.333054 0.083263,-0.49958c0.083267,-0.166531 0.249794,-0.333057 0.249794,-0.666111c0,-0.166531 0.197868,-0.256481 0.333054,-0.582848c0.031864,-0.076927 -0.117756,-0.132038 0,-0.249794c0.117756,-0.117754 0.416321,-0.166527 0.333057,-0.166527c-0.083263,0 0,0.166527 0,0.499584c0,0.166527 -0.248703,0.312828 -0.333057,0.832638c-0.026676,0.164375 -0.24979,0.333057 -0.333054,0.416321c0,0 0,0.083263 0,0.083263c-0.166527,0.166527 -0.287994,0.141003 -0.333057,0.24979c-0.031864,0.076927 0,0.083263 0,0.083263c0,0.166531 -0.172863,0.134666 -0.24979,0.166531c-0.108788,0.045063 -0.083263,0.166527 -0.083263,0.166527c0,0 -0.166527,0 -0.166527,0.166527c0,0 -0.107655,0.024387 -0.166531,0.083263c-0.058876,0.058876 -0.031433,0.014107 -0.166527,-0.083263c-0.2136,-0.153954 -0.083263,-0.333054 -0.166527,-0.499584c0,0 0,-0.083263 0,-0.166527c0,0 0,-0.166527 0,-0.166527c0,-0.166527 0,-0.166527 0,-0.333057c0,0 0.057663,-0.182014 0.166527,-0.333054c0.137703,-0.191051 0.128265,-0.337513 0.166527,-0.499584c0.042774,-0.181202 0.235176,-0.091415 0.333057,-0.24979c0.043774,-0.070827 -0.097942,-0.29257 0.083263,-0.249794c0.162075,0.038261 0.030521,0.251667 0,0.499584c-0.041946,0.340736 0.034489,0.548359 -0.083263,0.666111c-0.117752,0.117752 -0.249794,0 -0.333057,0.166527c0,0 0.117756,0.048775 0,0.166531c-0.117752,0.117752 -0.24979,0.083263 -0.333054,0.083263c0,0 0,0 -0.166527,0c-0.083267,0 -0.166531,0 -0.166531,0c0,0 -0.166527,0 -0.24979,0c-0.083263,0 -0.083263,0 -0.083263,0c-0.166527,-0.083263 -0.249794,-0.083263 -0.249794,-0.249794c0,0 0,-0.083263 0,-0.166527c0,-0.166527 0,-0.24979 0,-0.333054c0,0 0.083267,-0.166531 0.083267,-0.166531c0.166527,-0.166527 0.166527,-0.166527 0.166527,-0.333054c0,0 0.083263,-0.083263 0.166527,-0.166527c0.166527,-0.166531 0.166527,-0.166531 0.166527,-0.166531c0,-0.083261 0.024387,-0.142138 0.083263,-0.083261c0.058876,0.058874 0,0.083261 0,0.249792c0,0 0,0.083263 0,0.166527c0,0 -0.024387,0.107651 -0.083263,0.166527c-0.058876,0.058876 -0.024872,0.078979 -0.166527,0.166527c-0.158379,0.097885 -0.166527,0.166531 -0.166527,0.166531c0,0 -0.166527,0 -0.249794,0c-0.083263,0 -0.083263,0 -0.083263,0c-0.166527,0 -0.24979,0 -0.333054,-0.166531c0,0 0,-0.083263 0,-0.166527c0,0 0,-0.166527 0,-0.166527c0,-0.083263 0,-0.166527 0,-0.166527c0,-0.166531 0,-0.166531 0,-0.166531c0,-0.083261 0,-0.166527 0,-0.333054c0,0 0.031864,-0.089602 0,-0.166527c-0.090122,-0.217579 -0.048775,-0.215303 -0.166527,-0.333057c-0.05888,-0.058878 -0.121468,-0.141001 -0.166531,-0.24979c-0.031864,-0.076927 0,0 0,0.083263c0,0.333055 -0.081734,0.558868 -0.166527,0.999165c-0.03149,0.163525 -0.083263,0.333057 -0.083263,0.333057c0,0.166527 0.058876,0.190914 0,0.24979c-0.058876,0.058876 -0.083263,0 -0.083263,0c0,-0.083263 0.117752,-0.132038 0,-0.24979c-0.117752,-0.117752 -0.166527,-0.166527 -0.166527,-0.333057c0,-0.083261 0.079529,-0.128988 0.166527,-0.416317c0.024128,-0.079691 0,-0.249792 0,-0.249792c0,-0.166529 -0.117752,-0.215303 0,-0.333055c0.058876,-0.058876 0.083263,-0.083263 0.166527,-0.166529l0,0l0,-0.166527l0.166527,0" id="svg_58" fill-opacity="null" stroke-opacity="null" stroke-width="1.5" stroke="#000" fill="none"/>
  <path d="m43.902985,33.705215c0.166527,0.166527 0.166527,0.166527 0.24979,0.166527c0.083263,0 0.24979,0 0.24979,0c0,0 0.083263,0 0.166531,0l0.166527,0l0,0l0,0" id="svg_59" fill-opacity="null" stroke-opacity="null" stroke-width="1.5" stroke="#000" fill="none"/>
  <path d="m45.068676,33.205631c0,0 0,0 0,0c0,0.083263 0,0.166527 0,0.166527c0,0.166531 0,0.166531 0,0.166531c0,0.083263 -0.048775,0.048775 -0.166527,0.166527c-0.117752,0.117752 0,0.166527 0,0.24979c0,0.083263 0,0.083263 0,0.249794c0,0 0,0.083263 0,0.166527c0,0 0,0.166527 0,0.166527l-0.083263,0" id="svg_60" fill-opacity="null" stroke-opacity="null" stroke-width="1.5" stroke="#000" fill="none"/>
  <path d="m46.733955,31.040771c0,0 0,0.166527 0,0.166527c0,0 0,0.083265 0,0.166529c0,0 0,0.166529 0,0.166529c0.083263,0.083263 0.083263,0.166527 0.083263,0.166527l0,0.166527" id="svg_61" fill-opacity="null" stroke-opacity="null" stroke-width="1.5" stroke="#000" fill="none"/>
  <path d="m20.922153,25.711884c0,0 -0.063728,0.012676 0,0.166529c0.090124,0.217579 0.166529,0.333055 0.166529,0.666111c0,0.166527 0,0.333055 0,0.499582c0,0.166529 -0.015488,0.140928 -0.166529,0.249792c-0.095526,0.068851 -0.070934,0.35207 -0.166527,0.582848c-0.090124,0.217579 -0.174679,0.401701 -0.333055,0.499582c-0.212486,0.131323 -0.333055,0.166529 -0.499584,0.249792c-0.166527,0.083263 -0.499582,0.249792 -0.749374,0.249792l-0.083263,0.166527l0,0l-0.166529,0.166529" id="svg_62" fill-opacity="null" stroke-opacity="null" stroke-width="1.5" stroke="#000" fill="none"/>
 </g>
</svg>