<?xml version="1.0" standalone="no"?>
<!DOCTYPE svg PUBLIC "-//W3C//DTD SVG 20010904//EN"
 "http://www.w3.org/TR/2001/REC-SVG-20010904/DTD/svg10.dtd">
<svg version="1.0" xmlns="http://www.w3.org/2000/svg"
 width="55.000000pt" height="60.000000pt" viewBox="0 0 55.000000 60.000000"
 preserveAspectRatio="xMidYMid meet">
<metadata>
Created by potrace 1.15, written by Peter Selinger 2001-2017
</metadata>
<g transform="translate(0.000000,60.000000) scale(0.100000,-0.100000)"
fill="#000000" stroke="none">
<path d="M217 552 c-10 -10 -17 -26 -17 -34 0 -18 -27 -32 -35 -18 -17 27 -95
-12 -120 -60 -15 -29 -16 -41 -15 -147 0 -29 -4 -53 -8 -53 -5 0 -6 -15 -3
-33 4 -31 5 -31 12 -7 6 23 7 22 8 -8 1 -36 20 -35 22 1 1 20 2 20 6 2 9 -35
20 -37 16 -3 -2 26 -1 29 6 13 l8 -20 5 20 c5 19 6 18 7 -2 2 -35 21 -38 21
-3 0 17 -6 33 -14 36 -10 4 -11 15 -3 52 8 40 12 64 16 105 1 4 6 7 12 7 6 0
9 -7 6 -15 -4 -8 -2 -17 2 -20 17 -10 20 -71 7 -143 -7 -40 -9 -75 -4 -78 4
-3 7 -24 6 -47 -2 -30 -9 -45 -23 -52 -11 -6 -21 -18 -23 -28 -3 -14 5 -17 53
-17 54 0 55 1 44 21 -14 27 5 135 28 162 20 21 86 23 103 3 14 -18 19 -143 6
-168 -7 -16 -2 -18 48 -18 61 0 74 16 36 43 -18 12 -19 21 -13 128 4 63 6 138
5 167 -2 55 13 71 24 25 3 -16 9 -39 14 -54 5 -17 3 -31 -6 -44 -8 -10 -14
-30 -13 -44 0 -24 1 -24 9 -6 8 19 9 18 11 -5 1 -21 3 -19 9 10 6 29 8 31 10
10 l2 -25 8 25 8 25 2 -25 c1 -14 2 -28 1 -32 0 -5 3 -8 9 -8 5 0 11 15 11 33
2 30 2 30 6 4 2 -15 9 -25 14 -22 13 8 11 69 -2 82 -6 6 -11 32 -11 57 0 97
-36 156 -95 156 -28 0 -33 4 -33 23 0 38 -19 47 -95 47 -57 0 -75 -4 -88 -18z"/>
</g>
</svg>
