<?xml version="1.0" encoding="utf-8"?>
<!-- Generator: Adobe Illustrator 21.0.0, SVG Export Plug-In . SVG Version: 6.00 Build 0)  -->
<svg version="1.2" baseProfile="tiny" id="Layer_1" xmlns="http://www.w3.org/2000/svg" xmlns:xlink="http://www.w3.org/1999/xlink"
	 x="0px" y="0px" viewBox="0 0 55 60" xml:space="preserve">
<g>
	<path d="M27.5,60c-2,0-3.9,0-5.9,0c-0.8,0-1.4-0.3-1.9-0.8c-2.8-3.2-5.6-6.5-8.4-9.7c-0.3-0.4-0.5-0.9-0.6-1.5
		c-0.2-1.4-0.3-2.7-0.5-4.1c-0.1-0.4-0.3-0.9-0.6-1.2c-1-1-2.1-1.9-3-2.9c-0.4-0.4-0.7-1-0.8-1.6c-0.5-4.5-0.8-9-1.2-13.4
		c-0.1-0.8,0.2-1.5,0.9-2c0.8-0.6,1-1.3,1-2.3c0.1-3.9,1-7.6,3-11c2.7-4.6,6.7-7.4,11.9-8.7c4.7-1.2,9.4-1.1,14,0.5
		c6.8,2.4,10.8,7.2,12.4,14.2c0.4,1.8,0.5,3.7,0.7,5.6c0.1,0.6,0.1,1,0.6,1.4c1.1,0.8,1.4,1.8,1.2,3.2c-0.4,4-0.8,8-1.1,12.1
		c-0.1,1.1-0.5,1.9-1.3,2.6c-0.9,0.8-1.8,1.6-2.7,2.5c-0.3,0.3-0.5,0.7-0.5,1.1c-0.2,1.4-0.3,2.8-0.5,4.2c-0.1,0.5-0.3,1-0.6,1.4
		c-2.8,3.3-5.7,6.5-8.5,9.8c-0.5,0.6-1.1,0.8-1.8,0.8C31.4,60,29.5,60,27.5,60C27.5,60,27.5,60,27.5,60z M27.5,58.8
		c1.8,0,3.6,0,5.5,0c0.7,0,1.2-0.2,1.7-0.8c2.7-3.1,5.3-6.1,8-9.2c0.2-0.3,0.4-0.7,0.5-1.1c0.2-1.5,0.3-3,0.5-4.4
		c0.1-0.4,0.3-0.9,0.6-1.2c1-1,2.1-1.9,3.1-3c0.3-0.4,0.6-0.9,0.7-1.4c0.4-3.9,0.7-7.8,1.1-11.7c0.1-1.3,0-2.3-1.1-3.1
		c-0.5-0.4-0.6-0.9-0.7-1.5c-0.1-1.6-0.2-3.3-0.5-4.9c-1.4-7-5.3-11.9-12.2-14.2C31,1.1,27.2,0.9,23.5,1.6
		C17.1,2.7,12.3,5.9,9.6,11.9c-1.3,2.9-1.8,6-1.9,9.2c0,1-0.3,1.7-1,2.2c-0.8,0.6-0.9,1.3-0.8,2.3c0.4,4.1,0.7,8.2,1.1,12.2
		c0,0.4,0.3,0.9,0.6,1.3c1,1.1,2.2,2,3.2,3.1c0.3,0.3,0.5,0.7,0.5,1.1c0.2,1.4,0.3,2.9,0.5,4.4c0.1,0.4,0.2,0.9,0.5,1.2
		c2.7,3.1,5.4,6.3,8.2,9.4c0.3,0.3,0.9,0.6,1.3,0.6C23.7,58.8,25.6,58.8,27.5,58.8z"/>
	<path fill="#AF2032" d="M27.5,58.8c-1.9,0-3.7,0-5.6,0c-0.5,0-1-0.3-1.3-0.6c-2.8-3.1-5.5-6.2-8.2-9.4c-0.3-0.3-0.4-0.8-0.5-1.2
		c-0.2-1.5-0.3-2.9-0.5-4.4c-0.1-0.4-0.3-0.8-0.5-1.1c-1.1-1.1-2.2-2-3.2-3.1c-0.3-0.3-0.5-0.8-0.6-1.3c-0.4-4.1-0.7-8.2-1.1-12.2
		c-0.1-0.9,0-1.7,0.8-2.3c0.8-0.5,1-1.3,1-2.2c0.1-3.2,0.6-6.3,1.9-9.2c2.7-6,7.5-9.2,13.9-10.3c3.8-0.7,7.5-0.5,11.2,0.8
		c6.9,2.3,10.8,7.2,12.2,14.2c0.3,1.6,0.4,3.3,0.5,4.9c0,0.6,0.1,1.2,0.7,1.5c1.1,0.8,1.3,1.8,1.1,3.1c-0.4,3.9-0.7,7.8-1.1,11.7
		c0,0.5-0.3,1-0.7,1.4c-1,1-2.1,2-3.1,3c-0.3,0.3-0.5,0.8-0.6,1.2c-0.2,1.5-0.3,3-0.5,4.4c-0.1,0.4-0.2,0.8-0.5,1.1
		c-2.7,3.1-5.3,6.1-8,9.2c-0.5,0.5-1,0.8-1.7,0.8C31.1,58.8,29.3,58.8,27.5,58.8z M27.4,57.2C27.4,57.2,27.4,57.2,27.4,57.2
		c1.7,0,3.4,0,5,0c0.4,0,0.9-0.2,1.2-0.5c2.5-2.8,5-5.7,7.4-8.5c0.2-0.3,0.4-0.7,0.4-1c0.2-1.5,0.3-2.9,0.5-4.4
		c0.1-0.5,0.4-1.1,0.7-1.5c1-1,2.1-2,3.1-3c0.3-0.3,0.5-0.7,0.5-1.1c0.4-3.6,0.6-7.3,1-10.9c0.1-1.1-0.1-1.8-1-2.4
		c-0.7-0.5-0.8-1.1-0.8-1.9c-0.1-1.6-0.1-3.3-0.4-4.9c-1.1-6.2-4.5-10.7-10.5-12.9C30.2,2.5,25.6,2.4,21,3.8
		c-5,1.6-8.5,4.9-10.4,9.8c-0.9,2.5-1.4,5-1.3,7.7c0,1.3-0.3,2.3-1.3,3.1c-0.3,0.2-0.5,0.8-0.4,1.2c0.3,3.9,0.6,7.7,1,11.6
		c0,0.4,0.3,0.9,0.6,1.2c1,1,2.2,2,3.2,3c0.3,0.3,0.5,0.8,0.6,1.3c0.2,1.5,0.3,3,0.5,4.5c0,0.3,0.2,0.7,0.4,0.9
		c2.5,2.9,4.9,5.7,7.4,8.5c0.3,0.3,0.8,0.5,1.2,0.6C24.2,57.2,25.8,57.2,27.4,57.2z"/>
	<path d="M27.4,57.2c-1.6,0-3.3,0-4.9,0c-0.4,0-1-0.2-1.2-0.6c-2.5-2.8-5-5.7-7.4-8.5c-0.2-0.2-0.4-0.6-0.4-0.9
		c-0.2-1.5-0.3-3-0.5-4.5c-0.1-0.4-0.3-0.9-0.6-1.3c-1-1-2.2-2-3.2-3c-0.3-0.3-0.5-0.8-0.6-1.2c-0.4-3.9-0.7-7.7-1-11.6
		c0-0.4,0.2-0.9,0.4-1.2c1-0.8,1.4-1.8,1.3-3.1c0-2.6,0.4-5.2,1.3-7.7C12.5,8.7,16,5.4,21,3.8c4.6-1.4,9.2-1.4,13.7,0.2
		c6,2.2,9.4,6.7,10.5,12.9c0.3,1.6,0.4,3.3,0.4,4.9c0,0.8,0.1,1.4,0.8,1.9c0.8,0.6,1.1,1.4,1,2.4c-0.4,3.6-0.7,7.3-1,10.9
		c0,0.4-0.3,0.8-0.5,1.1c-1,1-2.1,1.9-3.1,3c-0.4,0.4-0.6,0.9-0.7,1.5c-0.2,1.4-0.3,2.9-0.5,4.4c0,0.3-0.2,0.7-0.4,1
		c-2.5,2.9-4.9,5.7-7.4,8.5c-0.3,0.3-0.8,0.5-1.2,0.5C30.8,57.2,29.1,57.2,27.4,57.2C27.4,57.2,27.4,57.2,27.4,57.2z M20.2,9.3
		c-3,1.1-5.3,2.8-7.1,5.3c-0.1,0.2-0.1,0.5,0,0.8c0.4,1.3,1,2.7,1.3,4c0.7,3,0.7,6.1,0.4,9.2c0,0.5,0,0.8,0.5,1.1
		c8.1,4,16.2,4,24.3,0c0.4-0.2,0.6-0.5,0.5-0.9c-0.1-1.4-0.2-2.8-0.1-4.2c0.1-3.2,0.5-6.3,1.8-9.2c0.1-0.3,0-0.7-0.2-1
		c-1.4-1.9-3.2-3.3-5.3-4.4c-0.5-0.3-1-0.5-1.6-0.7c-0.1,0.4-0.2,0.6-0.3,0.9c-1.1,3.2-2.1,6.4-3.2,9.7c-0.1,0.4-0.2,0.8-0.9,0.8
		c-2,0-3.9,0-5.9,0c-0.5,0-0.7-0.2-0.8-0.6c-0.3-1-0.7-2.1-1-3.1C21.9,14.5,21.1,11.9,20.2,9.3z M42.6,18.2c-0.1,0-0.2,0-0.3,0
		c-0.1,0.4-0.2,0.7-0.3,1.1c-0.7,3-0.8,6-0.6,9.1c0.1,1.9-0.1,3.7-0.5,5.5c-0.1,0.6-0.4,0.9-1,1c-1.9,0.3-3.7,0.5-5.6,0.8
		c-1.4,0.2-2.5-0.1-3.1-1.5c-0.2-0.4-0.6-0.4-1-0.4c-1.5,0.1-3,0.3-4.5,0.1c-1.2-0.1-2,0-2.6,1.1c-0.1,0.3-0.5,0.6-0.8,0.7
		c-2.5,0.1-5,0-7.5-0.8c-0.3-0.1-0.6-0.3-0.6-0.5c-0.3-1.5-0.6-2.9-0.7-4.4c-0.1-2.6,0-5.3-0.1-7.9c-0.1-1.3-0.4-2.6-0.7-3.9
		c-0.1,0-0.3,0-0.4,0c0,1.6,0,3.2,0,4.8c0.1,2.5-0.2,4.9-1.3,7.1c-0.3,0.6-0.5,1.2-0.6,1.8c-0.1,0.3,0,0.8,0.2,1
		c3,3,6.1,5.9,9.2,8.8c0.7,0.6,1.2,1.2,1.5,2.1c0.3,1,0.7,1.9,1.1,2.8c0.1,0.4,0.4,0.6,0.8,0.6c2.8,0,5.7,0,8.5,0
		c0.3,0,0.7-0.3,0.8-0.6c0.5-1.1,0.9-2.3,1.4-3.5c0.1-0.3,0.4-0.7,0.6-0.9c3-2.9,6.1-5.8,9.2-8.6c0.8-0.8,1.1-1.5,0.6-2.6
		c-1.4-2.9-1.9-5.9-1.7-9.1C42.7,20.7,42.6,19.5,42.6,18.2z M22.6,48.4c0.2,1.5,0.4,2.9,0.6,4.2c0,0.2,0.4,0.5,0.6,0.5
		c2.4,0,4.9,0,7.3,0c0.2,0,0.5-0.2,0.5-0.3c0.3-1.5,0.5-2.9,0.7-4.4C29.1,48.4,25.9,48.4,22.6,48.4z M14.9,39.1
		c2,3.6,3.8,7.3,5.1,11.2c0.1,0.2,0.5,0.4,0.8,0.4c0.2,0,0.5-0.4,0.5-0.6c0.1-0.4,0.2-0.8,0.2-1.2c0.1-2.2-1.1-3.9-1.9-5.8
		c0-0.1-0.2-0.1-0.2-0.2C17.8,41.6,16.4,40.3,14.9,39.1z M40.2,39c-0.9,0.8-1.7,1.6-2.6,2.2c-1.8,1.2-2.8,2.9-3.5,4.9
		c-0.5,1.3-0.7,2.6-0.4,3.9c0.1,0.4,0.1,0.8,0.6,0.8c0.5,0,0.7-0.3,0.8-0.7c0.8-2,1.5-4,2.4-6C38.4,42.4,39.3,40.8,40.2,39z
		 M14.9,32c0.3,0.7-0.2,1.7,0.9,1.8c1.9,0.3,3.9,0.5,5.8,0.7c0.3,0,0.6-0.3,1-0.5C19.9,33.3,17.5,32.6,14.9,32z M40,32
		c-2.4,0.6-4.9,1.3-7.4,1.9c0,0.1-0.1,0.1-0.1,0.2c0.4,0.1,0.7,0.4,1.1,0.4c1.6-0.1,3.3-0.3,4.9-0.5C40,33.7,40.1,33.5,40,32z"/>
	<path fill="#F2CB7D" d="M20.2,9.3c0.9,2.6,1.7,5.1,2.5,7.7c0.3,1,0.7,2.1,1,3.1c0.1,0.4,0.4,0.6,0.8,0.6c2,0,3.9,0,5.9,0
		c0.7,0,0.7-0.4,0.9-0.8c1.1-3.2,2.1-6.4,3.2-9.7c0.1-0.3,0.2-0.5,0.3-0.9c0.6,0.2,1.1,0.4,1.6,0.7c2.1,1.1,4,2.5,5.3,4.4
		c0.2,0.2,0.3,0.7,0.2,1c-1.3,2.9-1.8,6-1.8,9.2c0,1.4,0.1,2.8,0.1,4.2c0,0.5-0.1,0.7-0.5,0.9c-8.1,4-16.2,4-24.3,0
		c-0.5-0.3-0.6-0.6-0.5-1.1c0.3-3.1,0.2-6.2-0.4-9.2c-0.3-1.4-0.9-2.7-1.3-4c-0.1-0.2-0.1-0.6,0-0.8C14.9,12.1,17.3,10.4,20.2,9.3z"
		/>
	<path fill="#F2CB7D" d="M42.6,18.2c0,1.2,0.1,2.5,0,3.7c-0.2,3.2,0.3,6.2,1.7,9.1c0.5,1.1,0.3,1.8-0.6,2.6
		c-3.1,2.9-6.1,5.7-9.2,8.6c-0.3,0.3-0.5,0.6-0.6,0.9c-0.5,1.2-0.9,2.3-1.4,3.5c-0.1,0.3-0.5,0.6-0.8,0.6c-2.8,0-5.7,0-8.5,0
		c-0.5,0-0.7-0.2-0.8-0.6c-0.3-0.9-0.8-1.9-1.1-2.8c-0.3-0.9-0.8-1.5-1.5-2.1c-3.1-2.9-6.2-5.9-9.2-8.8c-0.2-0.2-0.3-0.7-0.2-1
		c0.1-0.6,0.4-1.3,0.6-1.8c1.1-2.3,1.4-4.6,1.3-7.1c-0.1-1.6,0-3.2,0-4.8c0.1,0,0.3,0,0.4,0c0.2,1.3,0.6,2.6,0.7,3.9
		c0.1,2.6,0,5.3,0.1,7.9c0.1,1.5,0.4,2.9,0.7,4.4c0,0.2,0.4,0.4,0.6,0.5c2.4,0.8,4.9,0.9,7.5,0.8c0.3,0,0.7-0.4,0.8-0.7
		c0.6-1.1,1.4-1.3,2.6-1.1c1.5,0.2,3,0,4.5-0.1c0.5,0,0.8,0,1,0.4c0.6,1.4,1.7,1.7,3.1,1.5c1.9-0.3,3.7-0.5,5.6-0.8
		c0.6-0.1,0.8-0.4,1-1c0.4-1.8,0.6-3.6,0.5-5.5c-0.2-3-0.1-6.1,0.6-9.1c0.1-0.4,0.2-0.7,0.3-1.1C42.4,18.2,42.5,18.2,42.6,18.2z"/>
	<path fill="#F2CB7D" d="M22.6,48.4c3.2,0,6.4,0,9.7,0c-0.2,1.5-0.4,3-0.7,4.4c0,0.1-0.4,0.3-0.5,0.3c-2.4,0-4.9,0-7.3,0
		c-0.2,0-0.5-0.3-0.6-0.5C23,51.3,22.9,49.9,22.6,48.4z"/>
	<path fill="#F2CB7D" d="M14.9,39.1c1.5,1.3,3,2.5,4.4,3.8c0.1,0.1,0.2,0.1,0.2,0.2c0.8,1.9,2,3.7,1.9,5.8c0,0.4-0.1,0.8-0.2,1.2
		c-0.1,0.2-0.4,0.6-0.5,0.6c-0.3,0-0.7-0.2-0.8-0.4C18.7,46.4,16.9,42.7,14.9,39.1z"/>
	<path fill="#F2CB7D" d="M40.2,39c-0.9,1.8-1.9,3.4-2.6,5.1c-0.9,2-1.6,4-2.4,6c-0.2,0.4-0.3,0.7-0.8,0.7c-0.6,0-0.5-0.4-0.6-0.8
		c-0.3-1.4,0-2.6,0.4-3.9c0.7-2,1.8-3.7,3.5-4.9C38.5,40.6,39.3,39.8,40.2,39z"/>
	<path fill="#FFFFFF" d="M14.9,32c2.6,0.7,5,1.3,7.7,2c-0.4,0.2-0.8,0.5-1,0.5c-1.9-0.2-3.9-0.4-5.8-0.7
		C14.7,33.6,15.2,32.6,14.9,32z"/>
	<path fill="#FFFFFF" d="M40,32c0,1.5,0,1.7-1.5,2c-1.6,0.3-3.3,0.4-4.9,0.5c-0.3,0-0.7-0.2-1.1-0.4c0-0.1,0.1-0.1,0.1-0.2
		C35.1,33.3,37.6,32.6,40,32z"/>
</g>
</svg>
