<?xml version="1.0" encoding="UTF-8" standalone="no"?>
<!-- Created with Inkscape (http://www.inkscape.org/) -->

<svg
   xmlns:dc="http://purl.org/dc/elements/1.1/"
   xmlns:cc="http://creativecommons.org/ns#"
   xmlns:rdf="http://www.w3.org/1999/02/22-rdf-syntax-ns#"
   xmlns:svg="http://www.w3.org/2000/svg"
   xmlns="http://www.w3.org/2000/svg"
   xmlns:sodipodi="http://sodipodi.sourceforge.net/DTD/sodipodi-0.dtd"
   xmlns:inkscape="http://www.inkscape.org/namespaces/inkscape"
   width="55mm"
   height="60mm"
   viewBox="0 0 210 297"
   version="1.1"
   id="svg8"
   inkscape:version="0.92.3 (2405546, 2018-03-11)"
   sodipodi:docname="larva.svg">
  <defs
     id="defs2" />
  <sodipodi:namedview
     id="base"
     pagecolor="#ffffff"
     bordercolor="#666666"
     borderopacity="1.0"
     inkscape:pageopacity="0.0"
     inkscape:pageshadow="2"
     inkscape:zoom="0.35"
     inkscape:cx="310.28801"
     inkscape:cy="560"
     inkscape:document-units="mm"
     inkscape:current-layer="layer1"
     showgrid="false"
     inkscape:window-width="1366"
     inkscape:window-height="706"
     inkscape:window-x="-8"
     inkscape:window-y="-8"
     inkscape:window-maximized="1" />
  <metadata
     id="metadata5">
    <rdf:RDF>
      <cc:Work
         rdf:about="">
        <dc:format>image/svg+xml</dc:format>
        <dc:type
           rdf:resource="http://purl.org/dc/dcmitype/StillImage" />
        <dc:title></dc:title>
      </cc:Work>
    </rdf:RDF>
  </metadata>
  <g
     inkscape:label="Layer 1"
     inkscape:groupmode="layer"
     id="layer1">
    <ellipse
       id="path3715"
       cx="120.5744"
       cy="58.119045"
       rx="32.127975"
       ry="29.482143"
       style="stroke-width:0.26458332" />
    <path
       style="stroke-width:2.85714293;fill:#f9f9f9"
       d="m 423.42857,325.49102 c -34.2588,-9.32637 -63.04512,-32.48717 -76.96767,-61.9264 -20.13688,-42.57941 -11.19948,-86.25464 24.57389,-120.08761 58.12524,-54.972435 154.90654,-40.25415 192.61468,29.29242 9.2797,17.11491 9.7791,19.49506 9.7791,46.6074 0,25.70593 -0.8069,30.14745 -8.04553,44.28571 -9.5074,18.56955 -27.15551,37.61623 -44.19962,47.70234 -27.99324,16.56542 -67.71145,22.30493 -97.75485,14.12614 z"
       id="path3717"
       inkscape:connector-curvature="0"
       transform="scale(0.26458333)" />
    <path
       style="fill:#ffff00;stroke-width:2.85714293"
       d="m 415.46903,321.27321 c -21.08597,-7.50225 -44.53798,-24.40907 -56.54194,-40.76174 -40.19725,-54.75962 -20.67015,-124.19526 43.90174,-156.10841 21.17708,-10.46628 22.54198,-10.74052 53.45688,-10.74052 30.92493,0 32.27393,0.27133 53.49565,10.75967 24.80519,12.2594 44.70671,31.97569 55.47087,54.95462 5.4694,11.67586 6.69705,19.03058 6.71986,40.25794 0.0249,23.2575 -0.88147,27.79205 -8.67232,43.38292 -11.30372,22.62075 -36.15576,45.81979 -58.70446,54.79984 -23.61581,9.40502 -67.61059,11.11082 -89.12628,3.45568 z"
       id="path3719"
       inkscape:connector-curvature="0"
       transform="scale(0.26458333)" />
    <ellipse
       style="fill:#ffff00;stroke-width:0.26458332"
       id="path3727"
       cx="114.52679"
       cy="111.03571"
       rx="23.056549"
       ry="23.434523" />
    <circle
       style="fill:#ffff00;stroke-width:0.26458332"
       id="path3729"
       cx="102.05357"
       cy="150.34523"
       r="19.654762" />
    <ellipse
       style="fill:#ffff00;stroke-width:0.26458332"
       id="path3731"
       cx="86.934517"
       cy="181.33929"
       rx="17.386906"
       ry="16.630953" />
    <ellipse
       style="fill:#ffff00;stroke-width:0.26458332"
       id="path3735"
       cx="72.193451"
       cy="207.79761"
       rx="16.252975"
       ry="16.630953" />
    <ellipse
       style="fill:#ffff00;stroke-width:0.26458332"
       id="path3747"
       cx="53.672619"
       cy="231.61012"
       rx="15.875"
       ry="13.985119" />
    <path
       sodipodi:type="star"
       style="fill:#ffff00;stroke-width:0.26458332"
       id="path3761"
       sodipodi:sides="5"
       sodipodi:cx="102.80953"
       sodipodi:cy="45.267857"
       sodipodi:r1="9.6217031"
       sodipodi:r2="4.8108516"
       sodipodi:arg1="0.78539816"
       sodipodi:arg2="1.4137167"
       inkscape:flatsided="false"
       inkscape:rounded="0"
       inkscape:randomized="0"
       d="m 109.6131,52.071428 -6.05098,-2.051949 -5.12075,3.821378 0.08166,-6.38892 -5.216744,-3.689246 6.101458,-1.89662 1.896624,-6.101458 3.68924,5.216743 6.38892,-0.08166 -3.82138,5.120745 z"
       inkscape:transform-center-x="0.46512315"
       inkscape:transform-center-y="-0.46512243" />
    <ellipse
       style="fill:#000000;stroke-width:0.26458332"
       id="path3767"
       cx="107.56116"
       cy="46.020439"
       rx="4.5357141"
       ry="4.9136906" />
    <ellipse
       style="fill:#000000;stroke-width:0.26458332"
       id="path3767-0"
       cx="132.29167"
       cy="45.267857"
       rx="4.5357141"
       ry="4.9136906" />
    <path
       style="fill:#000000;stroke-width:0.26458332"
       id="path3983"
       d="m 106.56417,66.191635 c 1.14936,0.820599 0.54785,0.409932 1.80791,1.227026 0,0 -1.87005,1.200891 -1.87005,1.200891 v 0 c -1.26952,-0.820986 -0.66156,-0.41351 -1.82635,-1.21874 0,0 1.88849,-1.209177 1.88849,-1.209177 z"
       inkscape:connector-curvature="0" />
    <path
       style="fill:#000000;stroke-width:0.26458332"
       id="path3985"
       d="m 110.34394,69.215444 c 1.96319,1.372282 3.84144,2.842776 5.92364,4.033525 1.66807,0.936741 3.50253,1.345877 5.38505,1.536385 1.8993,0.252526 3.72263,-0.118901 5.5441,-0.60787 1.63359,-0.466143 3.32993,-0.836808 4.81812,-1.677469 -0.4206,0.221269 -0.79957,0.553324 -1.2618,0.663806 -0.10946,0.02617 0.52994,-0.228137 1.24989,-1.186104 0.54476,-0.724855 0.83774,-1.525447 1.11761,-2.37518 0.33497,-1.092348 0.70954,-2.169009 1.0919,-3.245488 0,0 2.02484,-0.94624 2.02484,-0.94624 v 0 c -0.38088,1.075727 -0.76582,2.146676 -1.0959,3.239482 -0.88458,2.862344 -2.12724,3.821493 -4.86989,5.25362 -1.51717,0.787206 -3.2076,1.170082 -4.84518,1.631656 -1.8375,0.485804 -3.68929,0.796052 -5.59648,0.544578 -1.90101,-0.215537 -3.74771,-0.662072 -5.42625,-1.620125 -2.08299,-1.202296 -3.95302,-2.697613 -5.94814,-4.035399 0,0 1.88849,-1.209177 1.88849,-1.209177 z"
       inkscape:connector-curvature="0" />
  </g>
</svg>
