<?xml version="1.0" encoding="UTF-8"?>
<svg xmlns="http://www.w3.org/2000/svg" xmlns:xlink="http://www.w3.org/1999/xlink" width="55pt" height="60pt" viewBox="0 0 55 60" version="1.1">
<g id="surface1">
<path style="fill-rule:nonzero;fill:rgb(94.117647%,90.196078%,54.901961%);fill-opacity:1;stroke-width:1;stroke-linecap:butt;stroke-linejoin:miter;stroke:rgb(0%,0%,0%);stroke-opacity:1;stroke-miterlimit:4;" d="M 384.21946 157.5 C 384.21946 184.6875 362.158381 206.71875 335.011364 206.71875 C 307.798295 206.71875 285.803267 184.6875 285.803267 157.5 C 285.803267 130.3125 307.798295 108.28125 335.011364 108.28125 C 362.158381 108.28125 384.21946 130.3125 384.21946 157.5 Z M 384.21946 157.5 " transform="matrix(0.0591398,0,0,0.125,0,0)"/>
<path style="fill-rule:nonzero;fill:rgb(94.117647%,90.196078%,54.901961%);fill-opacity:1;stroke-width:1;stroke-linecap:butt;stroke-linejoin:miter;stroke:rgb(0%,0%,0%);stroke-opacity:1;stroke-miterlimit:4;" d="M 367.90483 146.5625 C 367.90483 153.96875 361.894176 160 354.430398 160 C 347.03267 160 341.022017 153.96875 341.022017 146.5625 C 341.022017 139.125 347.03267 133.09375 354.430398 133.09375 C 361.894176 133.09375 367.90483 139.125 367.90483 146.5625 Z M 367.90483 146.5625 " transform="matrix(0.0591398,0,0,0.125,0,0)"/>
<path style="fill-rule:nonzero;fill:rgb(94.117647%,90.196078%,54.901961%);fill-opacity:1;stroke-width:1;stroke-linecap:butt;stroke-linejoin:miter;stroke:rgb(0%,0%,0%);stroke-opacity:1;stroke-miterlimit:4;" d="M 322.59375 148.0625 C 322.59375 156.40625 315.790483 163.15625 307.46804 163.15625 C 299.079545 163.15625 292.34233 156.40625 292.34233 148.0625 C 292.34233 139.6875 299.079545 132.9375 307.46804 132.9375 C 315.790483 132.9375 322.59375 139.6875 322.59375 148.0625 Z M 322.59375 148.0625 " transform="matrix(0.0591398,0,0,0.125,0,0)"/>
<path style="fill-rule:nonzero;fill:rgb(94.117647%,90.196078%,54.901961%);fill-opacity:1;stroke-width:1;stroke-linecap:butt;stroke-linejoin:miter;stroke:rgb(0%,0%,0%);stroke-opacity:1;stroke-miterlimit:4;" d="M -0.0153434 -3.456889 L -4.007768 3.469037 L 4.016222 3.469037 Z M -0.0153434 -3.456889 " transform="matrix(0.0997984,0,0,0.210938,19.7945,20.612)"/>
<path style="fill-rule:nonzero;fill:rgb(94.117647%,90.196078%,54.901961%);fill-opacity:1;stroke-width:1;stroke-linecap:butt;stroke-linejoin:miter;stroke:rgb(0%,0%,0%);stroke-opacity:1;stroke-miterlimit:4;" d="M 359.318182 241.0625 C 359.318182 260.59375 343.465909 276.4375 323.980824 276.4375 C 304.429687 276.4375 288.577415 260.59375 288.577415 241.0625 C 288.577415 221.5 304.429687 205.65625 323.980824 205.65625 C 343.465909 205.65625 359.318182 221.5 359.318182 241.0625 Z M 359.318182 241.0625 " transform="matrix(0.0591398,0,0,0.125,0,0)"/>
<path style="fill-rule:nonzero;fill:rgb(94.117647%,90.196078%,54.901961%);fill-opacity:1;stroke-width:1;stroke-linecap:butt;stroke-linejoin:miter;stroke:rgb(0%,0%,0%);stroke-opacity:1;stroke-miterlimit:4;" d="M 347.230824 294.34375 C 347.230824 313.21875 331.90696 328.53125 313.082386 328.53125 C 294.191761 328.53125 278.867898 313.21875 278.867898 294.34375 C 278.867898 275.46875 294.191761 260.1875 313.082386 260.1875 C 331.90696 260.1875 347.230824 275.46875 347.230824 294.34375 Z M 347.230824 294.34375 " transform="matrix(0.0591398,0,0,0.125,0,0)"/>
<path style="fill-rule:nonzero;fill:rgb(94.117647%,90.196078%,54.901961%);fill-opacity:1;stroke-width:1;stroke-linecap:butt;stroke-linejoin:miter;stroke:rgb(0%,0%,0%);stroke-opacity:1;stroke-miterlimit:4;" d="M 315.129972 332.34375 C 315.129972 345.65625 304.363636 356.4375 291.087358 356.4375 C 277.745028 356.4375 266.978693 345.65625 266.978693 332.34375 C 266.978693 319.0625 277.745028 308.28125 291.087358 308.28125 C 304.363636 308.28125 315.129972 319.0625 315.129972 332.34375 Z M 315.129972 332.34375 " transform="matrix(0.0591398,0,0,0.125,0,0)"/>
<path style="fill-rule:nonzero;fill:rgb(94.117647%,90.196078%,54.901961%);fill-opacity:1;stroke-width:1;stroke-linecap:butt;stroke-linejoin:miter;stroke:rgb(0%,0%,0%);stroke-opacity:1;stroke-miterlimit:4;" d="M 292.408381 356.34375 C 292.408381 369.25 281.972301 379.6875 269.026278 379.6875 C 256.146307 379.6875 245.710227 369.25 245.710227 356.34375 C 245.710227 343.46875 256.146307 333.03125 269.026278 333.03125 C 281.972301 333.03125 292.408381 343.46875 292.408381 356.34375 Z M 292.408381 356.34375 " transform="matrix(0.0591398,0,0,0.125,0,0)"/>
<path style="fill-rule:nonzero;fill:rgb(94.117647%,90.196078%,54.901961%);fill-opacity:1;stroke-width:1;stroke-linecap:butt;stroke-linejoin:miter;stroke:rgb(0%,0%,0%);stroke-opacity:1;stroke-miterlimit:4;" d="M 247.62571 378.34375 C 247.62571 395.25 233.953125 408.9375 217.044034 408.9375 C 200.134943 408.9375 186.462358 395.25 186.462358 378.34375 C 186.462358 361.46875 200.134943 347.75 217.044034 347.75 C 233.953125 347.75 247.62571 361.46875 247.62571 378.34375 Z M 247.62571 378.34375 " transform="matrix(0.0591398,0,0,0.125,0,0)"/>
<path style="fill-rule:nonzero;fill:rgb(94.117647%,90.196078%,54.901961%);fill-opacity:1;stroke-width:1;stroke-linecap:butt;stroke-linejoin:miter;stroke:rgb(0%,0%,0%);stroke-opacity:1;stroke-miterlimit:4;" d="M 185.207386 386.34375 C 185.207386 405.21875 169.949574 420.53125 151.058949 420.53125 C 132.168324 420.53125 116.910511 405.21875 116.910511 386.34375 C 116.910511 367.46875 132.168324 352.1875 151.058949 352.1875 C 169.949574 352.1875 185.207386 367.46875 185.207386 386.34375 Z M 185.207386 386.34375 " transform="matrix(0.0591398,0,0,0.125,0,0)"/>
</g>
</svg>
