<?xml version="1.0" standalone="no"?>
<!DOCTYPE svg PUBLIC "-//W3C//DTD SVG 20010904//EN"
 "http://www.w3.org/TR/2001/REC-SVG-20010904/DTD/svg10.dtd">
<svg version="1.0" xmlns="http://www.w3.org/2000/svg"
 width="55.000000pt" height="60.000000pt" viewBox="0 0 55.000000 60.000000"
 preserveAspectRatio="xMidYMid meet">
<metadata>
Created by potrace 1.15, written by Peter Selinger 2001-2017
</metadata>
<g transform="translate(0.000000,60.000000) scale(0.100000,-0.100000)"
fill="#000000" stroke="none">
<path d="M65 568 c-7 -18 -18 -73 -24 -123 -12 -101 -12 -90 -5 -167 5 -54 7
-58 28 -52 19 4 26 -1 40 -31 10 -20 16 -38 14 -40 -1 -2 -30 -24 -62 -49 -33
-25 -58 -46 -55 -46 2 0 30 -4 61 -9 34 -6 70 -6 88 -1 19 5 41 5 56 0 14 -6
33 -6 46 -1 23 9 23 9 -5 20 -16 6 -33 11 -40 11 -6 0 2 14 18 30 16 17 37 30
46 30 10 0 21 10 24 21 5 14 10 18 14 10 5 -7 12 -3 21 14 20 37 1 74 -34 68
-19 -4 -26 -1 -26 9 0 30 -40 68 -71 68 -27 0 -30 3 -24 23 15 48 17 47 121
-92 2 -2 31 17 66 43 54 41 63 44 69 29 3 -10 4 -24 2 -31 -9 -22 17 -12 27
11 9 22 9 22 10 -3 1 -23 2 -23 14 -8 7 10 16 15 19 11 4 -3 7 3 7 14 0 11
-11 30 -25 43 -17 16 -21 26 -14 31 8 4 8 8 0 13 -5 4 -19 -2 -29 -12 -30 -30
-67 -18 -86 28 -8 21 -29 48 -46 60 -18 13 -30 30 -30 45 0 13 -10 29 -25 39
-14 9 -25 12 -25 6 0 -14 -43 -13 -58 2 -9 9 -12 9 -12 0 0 -17 -25 -15 -40 3
-20 24 -40 18 -55 -17z"/>
</g>
</svg>
