<?xml version="1.0" encoding="UTF-8" standalone="no"?>
<!-- Created with Inkscape (http://www.inkscape.org/) -->

<svg
   xmlns:dc="http://purl.org/dc/elements/1.1/"
   xmlns:cc="http://creativecommons.org/ns#"
   xmlns:rdf="http://www.w3.org/1999/02/22-rdf-syntax-ns#"
   xmlns:svg="http://www.w3.org/2000/svg"
   xmlns="http://www.w3.org/2000/svg"
   xmlns:sodipodi="http://sodipodi.sourceforge.net/DTD/sodipodi-0.dtd"
   xmlns:inkscape="http://www.inkscape.org/namespaces/inkscape"
   width="55"
   height="60"
   viewBox="0 0 14.552083 15.875001"
   version="1.1"
   id="svg8"
   inkscape:version="0.92.2 (5c3e80d, 2017-08-06)"
   sodipodi:docname="ninja.svg"
   inkscape:export-filename="C:\Users\Kuba\Desktop\ninja.png"
   inkscape:export-xdpi="2.994895"
   inkscape:export-ydpi="2.994895">
  <defs
     id="defs2" />
  <sodipodi:namedview
     id="base"
     pagecolor="#ffffff"
     bordercolor="#666666"
     borderopacity="1.0"
     inkscape:pageopacity="0.0"
     inkscape:pageshadow="2"
     inkscape:zoom="5.6568544"
     inkscape:cx="-12.617305"
     inkscape:cy="27.385186"
     inkscape:document-units="mm"
     inkscape:current-layer="layer1"
     showgrid="false"
     showborder="true"
     inkscape:window-width="1366"
     inkscape:window-height="705"
     inkscape:window-x="-8"
     inkscape:window-y="-8"
     inkscape:window-maximized="1"
     inkscape:snap-others="true"
     inkscape:object-nodes="true"
     inkscape:snap-nodes="false"
     showguides="true"
     inkscape:guide-bbox="true"
     units="px" />
  <metadata
     id="metadata5">
    <rdf:RDF>
      <cc:Work
         rdf:about="">
        <dc:format>image/svg+xml</dc:format>
        <dc:type
           rdf:resource="http://purl.org/dc/dcmitype/StillImage" />
        <dc:title></dc:title>
      </cc:Work>
    </rdf:RDF>
  </metadata>
  <g
     inkscape:label="Layer 1"
     inkscape:groupmode="layer"
     id="layer1"
     transform="translate(0,-281.12497)">
    <circle
       r="0"
       style="opacity:1;fill:#ffe7d9;fill-opacity:1;stroke:none;stroke-width:0.7663793;stroke-linecap:round;stroke-linejoin:round;stroke-miterlimit:4;stroke-dasharray:none;stroke-opacity:1"
       id="ellipse4648"
       cx="-214.35684"
       cy="319.16998" />
    <g
       id="g865"
       transform="matrix(0.02762838,0,0,0.030999,6.5517989,279.55589)">
      <path
         inkscape:connector-curvature="0"
         id="path4414"
         d="M 124.2036,158.66061 A 97.139877,107.34524 0 0 1 27.063717,266.00584 97.139877,107.34524 0 0 1 -70.076153,158.66061 97.139877,107.34524 0 0 1 27.063717,51.315372 97.139877,107.34524 0 0 1 124.2036,158.66061 Z"
         style="opacity:1;fill:#ff2a2a;fill-opacity:1;stroke:none;stroke-width:1.32291663;stroke-linecap:round;stroke-linejoin:round;stroke-miterlimit:4;stroke-dasharray:none;stroke-opacity:1" />
      <path
         inkscape:connector-curvature="0"
         transform="scale(0.26458333)"
         id="ellipse834"
         d="M 102.28711,193.94727 A 367.14284,405.71429 0 0 0 -214.48633,395.37695 H 418.97461 A 367.14284,405.71429 0 0 0 102.28711,193.94727 Z M -251.4043,492.51953 A 367.14284,405.71429 0 0 0 -264.85547,599.66211 367.14284,405.71429 0 0 0 102.28711,1005.377 367.14284,405.71429 0 0 0 469.43164,599.66211 367.14284,405.71429 0 0 0 456.33203,492.51953 Z"
         style="opacity:1;fill:#ffdbaf;fill-opacity:1;stroke:none;stroke-width:5;stroke-linecap:round;stroke-linejoin:round;stroke-miterlimit:4;stroke-dasharray:none;stroke-opacity:1" />
      <path
         inkscape:connector-curvature="0"
         id="path815"
         transform="scale(0.26458333)"
         d="M 102.28906,193.94922 A 367.14283,405.71429 0 0 0 -213.98438,395.37695 H 418.92383 A 367.14283,405.71429 0 0 0 102.28906,193.94922 Z m -367.07812,404.28516 a 367.14283,405.71429 0 0 0 -0.0664,1.42773 367.14283,405.71429 0 0 0 367.14258,405.71489 367.14283,405.71429 0 0 0 367.14258,-405.71489 367.14283,405.71429 0 0 0 -0.0449,-1.42773 z"
         style="opacity:1;fill:#000000;fill-opacity:1;stroke:none;stroke-width:5;stroke-linecap:round;stroke-linejoin:round;stroke-miterlimit:4;stroke-dasharray:none;stroke-opacity:1" />
      <g
         transform="matrix(1.0882353,0,0,1.0882353,1.2673318,-12.732143)"
         id="g4392">
        <rect
           style="opacity:1;fill:#ffffff;fill-opacity:1;stroke:none;stroke-width:1.32291663;stroke-linecap:round;stroke-linejoin:round;stroke-miterlimit:4;stroke-dasharray:none;stroke-opacity:1"
           id="rect861"
           width="25.702381"
           height="25.702381"
           x="-27.214285"
           y="131.44643"
           ry="9.0714312" />
        <circle
           style="opacity:1;fill:#000000;fill-opacity:1;stroke:none;stroke-width:1.32291663;stroke-linecap:round;stroke-linejoin:round;stroke-miterlimit:4;stroke-dasharray:none;stroke-opacity:1"
           id="path867"
           cx="-14.363094"
           cy="144.29762"
           r="4.8191962" />
        <circle
           r="1.6787792"
           cy="141.82062"
           cx="-12.770941"
           id="circle875"
           style="opacity:1;fill:#ffffff;fill-opacity:1;stroke:none;stroke-width:0.46084139;stroke-linecap:round;stroke-linejoin:round;stroke-miterlimit:4;stroke-dasharray:none;stroke-opacity:1" />
      </g>
      <g
         transform="matrix(0.85441919,0,0,0.85441919,9.9708961,21.006964)"
         id="g4397">
        <rect
           ry="9.0714312"
           y="131.44643"
           x="55.639267"
           height="25.702381"
           width="25.702381"
           id="rect865"
           style="opacity:1;fill:#ffffff;fill-opacity:1;stroke:none;stroke-width:1.32291663;stroke-linecap:round;stroke-linejoin:round;stroke-miterlimit:4;stroke-dasharray:none;stroke-opacity:1" />
        <circle
           r="4.8191962"
           cy="144.29762"
           cx="68.490456"
           id="circle869"
           style="opacity:1;fill:#000000;fill-opacity:1;stroke:none;stroke-width:1.32291663;stroke-linecap:round;stroke-linejoin:round;stroke-miterlimit:4;stroke-dasharray:none;stroke-opacity:1" />
        <circle
           style="opacity:1;fill:#ffffff;fill-opacity:1;stroke:none;stroke-width:0.46084139;stroke-linecap:round;stroke-linejoin:round;stroke-miterlimit:4;stroke-dasharray:none;stroke-opacity:1"
           id="circle877"
           cx="70.082611"
           cy="141.82062"
           r="1.6787792" />
      </g>
      <path
         inkscape:connector-curvature="0"
         id="path4387"
         d="m 81.743516,141.37251 -28.846068,-13.76876 36.998309,9.02086 z"
         style="fill:#a02c2c;fill-opacity:1;stroke:none;stroke-width:0.32127973px;stroke-linecap:butt;stroke-linejoin:miter;stroke-opacity:1" />
      <path
         inkscape:connector-curvature="0"
         id="path4385"
         d="M -38.870626,144.00804 -13.320719,130.26757 6.4020156,141.97241 -13.320719,118.56269 Z"
         style="fill:#782121;fill-opacity:1;stroke:none;stroke-width:0.47281289px;stroke-linecap:butt;stroke-linejoin:miter;stroke-opacity:1" />
      <rect
         ry="10.573527"
         y="533.15991"
         x="-47.686867"
         height="27.021238"
         width="46.397987"
         id="rect4442"
         style="opacity:1;fill:#ffdbac;fill-opacity:1;stroke:none;stroke-width:0.95698869;stroke-linecap:round;stroke-linejoin:round;stroke-miterlimit:4;stroke-dasharray:none;stroke-opacity:1" />
      <path
         inkscape:connector-curvature="0"
         id="rect4433"
         d="m -24.48787,439.87498 c -17.88266,0 -32.27917,14.97224 -32.27917,33.57004 v 59.85992 c 0,0.61079 0.0164,1.21748 0.047,1.82004 H 7.74427 c 0.0307,-0.60256 0.047,-1.20925 0.047,-1.82004 v -59.85992 c 0,-18.5978 -14.39651,-33.57004 -32.27917,-33.57004 z"
         style="opacity:1;fill:#1a1a1a;fill-opacity:1;stroke:none;stroke-width:0.99151468;stroke-linecap:round;stroke-linejoin:round;stroke-miterlimit:4;stroke-dasharray:none;stroke-opacity:1" />
      <rect
         y="534.76984"
         x="-58.702137"
         height="8.1186361"
         width="68.428505"
         id="rect4440"
         style="opacity:1;fill:#999999;fill-opacity:1;stroke:none;stroke-width:1.44975638;stroke-linecap:round;stroke-linejoin:round;stroke-miterlimit:4;stroke-dasharray:none;stroke-opacity:1" />
      <path
         sodipodi:nodetypes="cssscccc"
         style="opacity:1;fill:#161616;fill-opacity:1;stroke:none;stroke-width:0.83969003;stroke-linecap:round;stroke-linejoin:round;stroke-miterlimit:4;stroke-dasharray:none;stroke-opacity:1"
         d="m -68.464095,298.57267 c 11.880099,0 21.444229,12.62946 21.444229,28.31716 0,15.68771 -9.56895,28.69807 -21.444229,28.31715 l -156.942365,-5.03415 c -0.15928,-0.005 1.91771,1.25496 1.75924,1.25021 l -7.82526,-41.51552 c -4.31312,-18.88286 -5.27226,-47.83286 -5.11293,-47.83286 z"
         id="path4596"
         inkscape:connector-curvature="0" />
      <g
         transform="matrix(1,0,0,1.1522843,2.8761654e-6,-44.900729)"
         id="g4425">
        <rect
           style="opacity:1;fill:#000000;fill-opacity:1;stroke:none;stroke-width:1.35088837;stroke-linecap:round;stroke-linejoin:round;stroke-miterlimit:4;stroke-dasharray:none;stroke-opacity:1"
           id="rect4419"
           width="258.23331"
           height="171.45"
           x="-102.05319"
           y="283.24164"
           ry="76.199997" />
        <rect
           style="opacity:1;fill:#000000;fill-opacity:1;stroke:none;stroke-width:1.49154747;stroke-linecap:round;stroke-linejoin:round;stroke-miterlimit:4;stroke-dasharray:none;stroke-opacity:1"
           id="rect4421"
           width="79.375"
           height="79.375"
           x="-12.624039"
           y="246.20001" />
      </g>
      <g
         id="g4672">
        <circle
           style="opacity:1;fill:#161616;fill-opacity:1;stroke:none;stroke-width:0.67702204;stroke-linecap:round;stroke-linejoin:round;stroke-miterlimit:4;stroke-dasharray:none;stroke-opacity:1"
           id="path4587"
           cx="78.614815"
           cy="419.76663"
           r="30.691668" />
        <rect
           ry="10.573527"
           y="492.27921"
           x="55.415833"
           height="27.021238"
           width="46.397987"
           id="rect4464"
           style="opacity:1;fill:#ffdbac;fill-opacity:1;stroke:none;stroke-width:0.95698869;stroke-linecap:round;stroke-linejoin:round;stroke-miterlimit:4;stroke-dasharray:none;stroke-opacity:1" />
        <path
           inkscape:connector-curvature="0"
           id="path4466"
           d="m 78.61483,398.9943 c -17.88266,0 -32.27917,14.97224 -32.27917,33.57004 v 59.85992 c 0,0.61079 0.0164,1.21748 0.047,1.82004 h 64.46431 c 0.0307,-0.60256 0.047,-1.20925 0.047,-1.82004 v -59.85992 c 0,-18.5978 -14.39651,-33.57004 -32.27917,-33.57004 z"
           style="opacity:1;fill:#1a1a1a;fill-opacity:1;stroke:none;stroke-width:0.99151468;stroke-linecap:round;stroke-linejoin:round;stroke-miterlimit:4;stroke-dasharray:none;stroke-opacity:1" />
        <rect
           y="493.88913"
           x="44.400562"
           height="8.1186361"
           width="68.428505"
           id="rect4468"
           style="opacity:1;fill:#999999;fill-opacity:1;stroke:none;stroke-width:1.44975638;stroke-linecap:round;stroke-linejoin:round;stroke-miterlimit:4;stroke-dasharray:none;stroke-opacity:1" />
      </g>
      <path
         inkscape:connector-curvature="0"
         id="path4666"
         d="m 121.96843,354.70047 c -11.88009,0 -21.44423,-12.62946 -21.44423,-28.31716 0,-15.68771 9.56895,-28.69807 21.44423,-28.31715 l 156.94236,5.03415 c 0.15928,0.005 -1.91771,-1.25496 -1.75924,-1.25021 l 7.82526,41.51552 c 4.31312,18.88286 5.27226,47.83286 5.11293,47.83286 z"
         style="opacity:1;fill:#161616;fill-opacity:1;stroke:none;stroke-width:0.83969003;stroke-linecap:round;stroke-linejoin:round;stroke-miterlimit:4;stroke-dasharray:none;stroke-opacity:1"
         sodipodi:nodetypes="cssscccc" />
    </g>
  </g>
</svg>
