<?xml version="1.0" encoding="UTF-8" standalone="no"?>
<!-- Generator: Adobe Illustrator 21.0.0, SVG Export Plug-In . SVG Version: 6.00 Build 0)  -->

<svg
   xmlns:dc="http://purl.org/dc/elements/1.1/"
   xmlns:cc="http://creativecommons.org/ns#"
   xmlns:rdf="http://www.w3.org/1999/02/22-rdf-syntax-ns#"
   xmlns:svg="http://www.w3.org/2000/svg"
   xmlns="http://www.w3.org/2000/svg"
   xmlns:sodipodi="http://sodipodi.sourceforge.net/DTD/sodipodi-0.dtd"
   xmlns:inkscape="http://www.inkscape.org/namespaces/inkscape"
   version="1.2"
   id="Layer_1"
   x="0px"
   y="0px"
   viewBox="0 0 55 60"
   xml:space="preserve"
   sodipodi:docname="pacman.svg"
   inkscape:version="0.92.2 5c3e80d, 2017-08-06"><metadata
     id="metadata29"><rdf:RDF><cc:Work
         rdf:about=""><dc:format>image/svg+xml</dc:format><dc:type
           rdf:resource="http://purl.org/dc/dcmitype/StillImage" /><dc:title></dc:title></cc:Work></rdf:RDF></metadata><defs
     id="defs27" /><sodipodi:namedview
     pagecolor="#ffffff"
     bordercolor="#666666"
     borderopacity="1"
     objecttolerance="10"
     gridtolerance="10"
     guidetolerance="10"
     inkscape:pageopacity="0"
     inkscape:pageshadow="2"
     inkscape:window-width="971"
     inkscape:window-height="715"
     id="namedview25"
     showgrid="false"
     inkscape:zoom="3.9333333"
     inkscape:cx="27.5"
     inkscape:cy="30"
     inkscape:window-x="440"
     inkscape:window-y="35"
     inkscape:window-maximized="0"
     inkscape:current-layer="Layer_1" /><path
     id="path3724"
     style="stroke-width:1.13567066"
     d="M 21.971431,0.66502682 A 30,27.5 78.430657 0 0 1.0467703,35.570736 30,27.5 78.430657 0 0 34.004657,59.445988 30,27.5 78.430657 0 0 54.44697,39.324102 c -0.138076,-0.05433 -0.27736,-0.104992 -0.416691,-0.155927 -1.159474,-0.423866 -1.804773,-0.586047 -2.896406,-1.147507 -0.386459,-0.198768 -0.743169,-0.449958 -1.11503,-0.674854 -1.280929,-0.830392 -0.535711,-0.374136 -1.837492,-1.107102 -0.332067,-0.186971 -0.701269,-0.320698 -0.994635,-0.563933 -0.135091,-0.112007 -0.251515,-0.244398 -0.371324,-0.372552 -0.351786,0.07936 -0.731107,-0.06709 -1.111127,-0.743436 -0.0077,-0.0138 -0.0129,-0.0346 -0.02018,-0.04969 -0.249423,0.0231 -0.4275,0.01186 -0.558965,-0.02313 -0.211176,0.523505 -0.457154,-0.01559 -0.629951,-0.642576 -0.160277,-0.02245 -0.313316,-0.0701 -0.451917,-0.152704 -0.136868,-0.03116 -0.2521,-0.0817 -0.309884,-0.169816 -0.02855,-0.04353 -0.04629,-0.09307 -0.07035,-0.139109 -0.05333,-0.0187 -0.08756,-0.0446 -0.137044,-0.06565 -0.05698,0.0321 -0.119939,0.05689 -0.174636,0.09157 -0.0758,-0.09145 -0.12613,-0.168267 -0.191522,-0.253857 -0.02522,-0.01465 -0.0531,-0.02897 -0.06837,-0.04183 -0.06753,-0.05684 -0.135392,-0.115877 -0.201512,-0.176054 -0.09878,-0.05725 -0.18203,-0.129847 -0.234567,-0.201185 -0.101807,-0.02173 -0.193885,-0.05752 -0.232775,-0.143736 -0.01401,-0.03105 -0.03694,-0.09743 -0.05347,-0.134589 -0.612207,-0.121333 -1.261641,-0.344158 -1.025115,-0.527789 -0.0045,-0.0024 -0.0089,-0.0048 -0.01345,-0.0072 -0.246557,-0.04768 -0.517352,-0.108865 -0.676993,-0.288047 -0.03513,-0.03944 -0.101496,-0.101641 -0.152365,-0.15023 -0.08653,-0.0037 -0.185778,-0.002 -0.249801,-0.01266 -0.154616,-0.02579 -0.280086,-0.11496 -0.398219,-0.221511 -0.219792,0.0024 -0.440084,-0.0099 -0.655948,-0.03917 -0.144085,-0.01951 -0.276706,-0.102346 -0.428986,-0.07964 -0.433227,-0.111622 -0.515922,-0.08788 -0.236466,-0.113077 l -0.25878,-0.134425 c -0.0815,-1.69e-4 -0.146171,0.0042 -0.22214,0.0056 -0.244456,0.127957 -0.418312,0.125239 -0.586671,-0.05135 -0.406153,-0.06247 -1.010586,-0.16271 -1.028372,-0.232065 -0.03527,-0.137408 -0.0495,-0.249296 -0.07482,-0.375435 -0.469451,-0.307866 -0.995965,-0.644247 -0.635481,-0.679323 0.07636,-0.0075 0.152623,0.01 0.229975,0.03267 -0.0401,-0.08974 -0.04511,-0.181973 0.0076,-0.274676 0.01481,-0.02605 0.02455,-0.03647 0.03917,-0.06184 -0.108101,-0.187253 -0.221031,-0.371697 -0.309775,-0.568565 -9.19e-4,-0.0021 -0.01176,-0.04198 -0.01401,-0.04897 -0.01967,0.01362 -0.03981,0.02662 -0.05958,0.0401 0.03109,-0.02961 0.02862,-0.02633 0.05683,-0.05351 -0.03737,-0.120846 -0.190509,-0.684647 -0.163149,-0.758073 0.138596,-0.372217 0.606743,-1.107303 0.670652,-1.281635 -0.06007,0.04639 -0.117012,0.08185 -0.179805,0.134493 0.178556,-0.205984 0.206565,-0.2075 0.179805,-0.134493 0.15211,-0.117463 0.299815,-0.212648 0.446843,-0.290837 0.08007,-0.322436 0.318405,-0.586242 0.638554,-0.75672 -0.01824,-0.04374 0.126744,-0.08323 0.314711,-0.118249 0.05504,-0.01729 0.104774,-0.04464 0.161768,-0.05704 0.124448,-0.02711 0.253879,-0.02857 0.382522,-0.03047 0.04187,-0.01521 0.08934,-0.02482 0.133889,-0.03741 0.0026,-0.01717 0.005,-0.03331 0.01086,-0.05406 l -0.002,4.01e-4 c 0.03125,-0.110637 0.05998,-0.208776 0.08897,-0.315264 -0.06954,-0.09674 -0.108284,-0.146815 -0.185389,-0.253118 -0.08565,-0.118096 0.153465,-0.248474 0.233128,-0.370693 0.08906,-0.136642 0.18056,-0.271188 0.271652,-0.406489 0.06728,-0.194657 0.126579,-0.38754 0.218741,-0.587047 0.161476,-0.349556 0.388006,-0.667474 0.536226,-1.022856 0.08015,-0.192188 0.05022,-0.420869 0.142806,-0.607386 0.03689,-0.07432 0.864088,-1.332171 1.053689,-1.621213 0.573847,-0.546063 0.798692,-1.197627 1.138321,-1.879768 0.225686,-0.453286 0.480816,-0.892672 0.707128,-1.346918 0.278937,-0.253725 0.319493,-0.281994 0.483005,-0.425832 0.124196,-0.408004 0.286524,-0.616755 0.485871,-0.72347 0.03009,-0.03092 0.05134,-0.05895 0.08309,-0.09078 0.04433,-0.205126 0.114557,-0.363686 0.294192,-0.335345 0.134745,0.02126 0.261048,0.06537 0.383199,0.118923 0.192689,-0.290169 0.384714,-0.580117 0.5683,-0.875911 -0.297641,-0.629769 -0.0022,-1.2898 0.717195,-1.49252 0.04385,-0.145045 0.09186,-0.28619 0.161275,-0.419779 0.275214,-0.529655 0.632558,-0.972575 0.992096,-1.435158 0.0189,-0.03641 0.03154,-0.07515 0.05313,-0.110561 0.105253,-0.162465 0.178348,-0.354116 0.285334,-0.514954 0.02504,-0.180289 0.07425,-0.332717 0.224086,-0.336943 0.05839,-0.0016 0.0998,0.0096 0.155561,0.01002 0.03444,-0.02378 0.07079,-0.04437 0.105798,-0.06751 0.05269,-0.07209 0.124268,-0.1344453 0.210585,-0.1886447 A 30,27.5 78.430657 0 0 21.971431,0.66502682 Z M 47.467851,10.12069 c -0.01658,0.0227 -0.02731,0.04819 -0.04104,0.0722 0.105042,0.0025 0.203156,0.0094 0.298859,0.01857 0.02273,-0.01891 0.02083,-0.01486 0.04466,-0.03506 0.0595,-0.01065 0.07609,-0.0088 0.118685,-0.01429 A 30,27.5 78.430657 0 0 47.716934,9.9740463 c -0.08199,0.050633 -0.168325,0.093294 -0.249079,0.1466837 z M 35.675714,28.615316 c 6.82e-4,0.0022 0.0021,0.01152 0.0027,0.01339 0.03885,-0.02694 0.07864,-0.05248 0.117232,-0.07982 -0.0063,-0.01335 -0.01121,-0.02086 -0.01665,-0.03248 -0.04264,0.04156 -0.05165,0.04914 -0.103356,0.09891 z m 0.103356,-0.09891 c 0.105348,-0.102674 0.198766,-0.189278 0.257459,-0.242101 -0.04766,-0.137527 -0.09599,-0.274429 -0.158887,-0.406072 -0.06676,-0.139726 -0.139187,0.0095 -0.186283,0.141803 0.0024,-0.01605 -0.02232,0.203226 0.0073,0.337429 1.15e-4,5.19e-4 0.0526,0.109325 0.08044,0.168942 z m 0.257459,-0.242101 c 0.0102,0.02936 0.02405,0.05723 0.03372,0.0868 0.03905,-0.02772 0.07984,-0.05289 0.119146,-0.08022 -0.01673,-0.03437 -0.0335,-0.06871 -0.04911,-0.103583 -0.01743,0.01327 -0.08016,0.07577 -0.103749,0.097 z m 0.03372,0.0868 c -0.09046,0.06418 -0.184059,0.123666 -0.274558,0.187785 0.05697,0.12027 0.12944,0.240984 0.237909,0.431761 -0.01087,-0.03264 -0.02492,-0.07587 -0.03572,-0.106324 l 0.145905,-0.261131 c -0.02399,-0.08428 -0.04641,-0.169048 -0.07353,-0.252092 z m 0.07353,0.252092 c 0.02709,0.09542 0.05566,0.190247 0.08058,0.286537 -0.04281,0.06858 -0.079,0.119869 -0.123608,0.194762 0.04679,0.07764 0.08242,0.155778 0.13202,0.226165 -0.01046,-0.175709 -0.009,-0.282796 -0.0061,-0.419406 l -4.01e-4,-0.002 c 0.0021,-0.09442 0.0037,-0.165404 0.0085,-0.240974 -1.08e-4,-0.03294 -6.87e-4,-0.08024 0.0033,-0.11033 0.0022,-0.02958 0.0021,-0.08063 0.0041,-0.106505 z m -0.04302,0.481298 c -0.02362,-0.03919 -0.04477,-0.07444 -0.06717,-0.113843 0.01464,0.04407 0.03234,0.09668 0.04738,0.14381 0.007,-0.01181 0.01284,-0.01831 0.01978,-0.02997 z m -0.14526,0.488272 c 0.05617,0.125704 0.189566,0.240858 0.345921,0.345854 -0.01072,-0.06782 -0.02538,-0.138457 -0.03349,-0.202476 -0.103489,-0.0665 -0.208939,-0.112985 -0.312447,-0.143376 z m 0.345921,0.345854 c 0.01481,0.09377 0.03926,0.19977 0.05954,0.300812 0.165931,0.108817 0.3562,0.227323 0.45416,0.30974 0.02063,0.01735 0.05763,0.0092 0.0808,-0.0046 0.03896,-0.02317 0.07598,-0.04951 0.11458,-0.0733 -5.04e-4,-0.0048 0.004,-0.02538 0.0037,-0.03067 -0.264645,0.06743 -0.454814,-0.139874 -0.605651,-0.436226 -0.03652,-0.02163 -0.07269,-0.04263 -0.107171,-0.06578 z m 0.107171,0.06578 c 0.121568,0.07201 0.236731,0.131589 0.356289,0.182247 -0.04517,-0.03681 -0.09109,-0.07328 -0.134572,-0.112004 -0.03411,2.46e-4 -0.06368,-0.0048 -0.07446,-0.0326 -0.0047,-0.01217 -0.007,-0.02529 -0.01165,-0.03749 -0.0041,-0.0039 -0.0083,-0.0076 -0.01234,-0.01143 -0.03147,-0.03044 -0.05148,-0.06921 -0.07212,-0.10884 -0.05561,-0.04274 -0.109546,-0.0903 -0.165669,-0.127569 0.03505,0.08914 0.07431,0.168721 0.114502,0.247692 z m 0.356289,0.182247 c 0.08525,0.06947 0.167604,0.142925 0.256052,0.208749 -1.76e-4,-0.01383 0.0066,-0.0549 0.0073,-0.07128 -0.02392,-0.01681 -0.04911,-0.03842 -0.07342,-0.05674 -0.0014,-5.18e-4 -0.0028,-6.55e-4 -0.0042,-0.0012 -0.05433,-0.01927 -0.122902,-0.05297 -0.185754,-0.0796 z m 0.256052,0.208749 c 7.9e-5,0.0089 -0.0072,0.03742 -0.0067,0.04523 0.01421,-0.0036 0.02933,-0.01376 0.04395,-0.019 -0.01224,-0.0091 -0.02506,-0.01717 -0.03727,-0.02626 z m 5.348234,2.071032 c 0.0656,0.013 0.120828,0.0202 0.183615,0.0302 -0.01497,-0.02725 -0.02172,-0.0548 -0.03485,-0.08258 -0.04534,-0.02381 -0.08786,-0.05329 -0.134783,-0.07408 0.0022,0.01906 -0.02328,0.01754 -0.06279,0.0049 0.01649,0.03766 0.03386,0.08797 0.04882,0.121586 z m 0.790695,0.697389 c 0.03439,0.01998 0.05369,0.01972 0.07515,0.01651 -0.06041,-0.03999 -0.114374,-0.07948 -0.154535,-0.121873 0.0254,0.03452 0.05226,0.06986 0.07938,0.10536 z m 0.07515,0.01651 c 0.08053,0.0533 0.18431,0.100373 0.291008,0.145771 0.02714,-0.01525 0.05501,-0.02995 0.08253,-0.0448 -0.0032,-0.0074 -0.0072,-0.01436 -0.01048,-0.02178 -0.01314,-0.01982 -0.02944,-0.03679 -0.04163,-0.05727 -0.112866,-0.07994 -0.20435,-0.172332 -0.275111,-0.27263 -0.0041,0.08154 -0.01179,0.165396 -0.01344,0.245974 -2.83e-4,0.01407 -0.02183,0.003 -0.03293,0.0047 z m 0.321473,0.02191 c 0.0073,0.0051 0.01371,0.01053 0.02114,0.01561 -0.04072,-0.09889 -0.07785,-0.199449 -0.111686,-0.302097 -0.01383,-0.0057 -0.02753,-0.01139 -0.04145,-0.01743 0.03389,0.106649 0.07529,0.208679 0.131994,0.303922 z m -0.09055,-0.28649 c 0.05887,0.02457 0.119178,0.05349 0.176533,0.07351 -0.0011,-0.0051 -0.0021,-0.0102 -0.0031,-0.0153 -0.0042,-0.002 -0.140179,-0.061 -0.181926,-0.08038 0.0025,0.0074 0.0061,0.01463 0.0085,0.02218 z m 0.142619,0.365543 c 0.01678,0.03762 0.0355,0.07408 0.05451,0.110453 0.01176,0.0041 0.02567,0.0042 0.03758,0.0083 -0.03247,-0.03825 -0.06011,-0.07982 -0.08865,-0.121407 -0.0013,6.85e-4 -0.0021,0.002 -0.0034,0.0027 z m 0.886655,0.572083 c 0.06304,0.0088 0.127696,0.0085 0.192699,0.0064 -0.0045,-0.01905 -0.01168,-0.03064 -0.01636,-0.05047 -0.06405,-0.03126 -0.07485,-0.04258 -0.132479,-0.07256 -0.02518,8.67e-4 -0.04756,-0.0053 -0.0728,-0.005 0.0109,0.0428 0.01708,0.07878 0.02889,0.121678 z m 0.04391,-0.116645 c 0.01891,-6.05e-4 0.02683,-3.88e-4 0.04557,-0.0014 -0.02972,-0.0085 -0.06216,-0.01953 -0.09359,-0.02868 0.0223,0.01199 0.02407,0.01758 0.04802,0.03004 z m -0.04802,-0.03004 c -0.01686,-0.0091 -0.02074,-0.01371 -0.03649,-0.02244 0.0012,0.0047 0.0016,0.0088 0.0027,0.01339 0.01133,0.0034 0.02253,0.0058 0.03375,0.009 z m -0.03649,-0.02244 c -0.01199,-0.04858 -0.02371,-0.09139 -0.03438,-0.138498 -0.02046,-0.0041 -0.04044,-0.01078 -0.06097,-0.01543 -0.06438,-0.0052 -0.121783,-0.0073 -0.187005,-0.01754 0.01927,0.03039 0.160865,0.104214 0.282313,0.171474 z m -0.282313,-0.171474 c -0.0021,-0.0034 -0.03147,-0.01664 -0.03188,-0.01939 -6.93e-4,-0.0046 -5.36e-4,-0.0111 -0.0012,-0.0157 -0.07666,-0.02447 -0.144,-0.0557 -0.217196,-0.08712 0.01429,0.02744 0.03193,0.0522 0.05129,0.07522 0.06734,0.01561 0.130832,0.03625 0.199013,0.04698 z m -0.250297,-0.122207 c -0.03262,-0.06281 -0.06608,-0.124657 -0.09318,-0.19225 -0.03481,0.0158 -0.06795,0.0248 -0.09416,0.01723 -0.02666,0.01373 -0.05267,0.02813 -0.0791,0.04211 0.08258,0.05058 0.173275,0.09288 0.266433,0.132858 z m -0.09319,-0.192257 c 0.01452,-0.0065 0.03278,-0.02602 0.04849,-0.03584 -0.01182,-0.0064 -0.0103,-0.0049 -0.02227,-0.0114 -0.0128,0.0064 -0.02505,0.01329 -0.03784,0.01971 0.0039,0.0091 0.0079,0.01824 0.01166,0.02752 z m 0.04849,-0.03584 c 0.138934,0.07476 0.1365,0.0804 0.254998,0.145169 -8.94e-4,-0.01085 -0.0021,-0.02228 -0.0028,-0.03331 -0.07297,-0.04563 -0.141332,-0.09471 -0.2159,-0.139216 -0.01242,0.009 -0.02442,0.01996 -0.03627,0.02736 z m 0.252166,0.111857 c 0.09136,0.05714 0.177367,0.117769 0.262048,0.17961 0.0033,0.0019 0.0056,0.0023 0.0088,0.0042 -0.0213,-0.0999 -0.0538,-0.205316 -0.06914,-0.288878 -0.07146,-0.02203 -0.09273,-0.02575 -0.143824,-0.04034 -0.02168,-0.0037 -0.04182,-0.0069 -0.06402,-0.01082 7.25e-4,0.0547 0.0026,0.104623 0.0061,0.156254 z m -0.0061,-0.156254 c -4.7e-5,-0.0028 4.47e-4,-0.0053 3.95e-4,-0.008 -0.03722,-0.01009 -0.09956,-0.02853 -0.124643,-0.03429 -0.0044,0.0034 -0.0086,0.0064 -0.01375,0.01078 0.04618,0.01033 0.09367,0.02365 0.138038,0.03155 z m 0.5482,0.691209 c 0.04231,0.02065 0.07702,0.03261 0.120515,0.05308 0.0055,-7e-4 0.0106,0.0015 0.01609,6.86e-4 0.126488,-0.01814 0.01532,-0.05568 -0.15101,-0.104653 0.0049,0.02055 0.0097,0.0311 0.0144,0.05088 z m 0.120515,0.05308 c -0.03554,0.0045 -0.06906,-0.0037 -0.104199,-0.0026 0.0047,0.01969 0.01021,0.03394 0.01479,0.0528 0.002,-0.03089 0.03684,-0.04533 0.165429,-0.0099 0.03665,0.01008 0.06992,0.02827 0.1059,0.04013 -0.06469,-0.02882 -0.116236,-0.04946 -0.181927,-0.08038 z m 0.333052,0.633577 c 0.0148,-0.03669 0.02998,-0.08653 0.0442,-0.134647 -0.08098,-0.04816 -0.177765,-0.102166 -0.118041,-0.09944 l 0.002,-4.01e-4 c -0.163315,-0.119401 -0.263377,-0.201409 -0.336129,-0.298018 0.06815,0.265555 0.154521,0.46502 0.408054,0.532498 z m -0.07193,-0.234479 c 0.119607,0.08744 0.120059,0.09035 0.118003,0.08948 0.008,-0.0278 0.01633,-0.04503 0.02417,-0.07672 -0.04096,-0.0026 -0.110159,-0.0113 -0.142168,-0.01277 z m 0.142168,0.01277 c 0.103551,0.0065 0.227519,0.02012 0.35944,0.03208 -0.117215,-0.09057 -0.192538,-0.15009 -0.274493,-0.220923 -0.35161,-0.02243 -0.564955,-0.0841 -0.04452,0.06494 -0.01206,0.06203 -0.02773,0.07256 -0.04042,0.123905 z m 0.35944,0.03208 c 0.02379,0.01838 0.0418,0.03171 0.06611,0.05026 -0.0048,-0.01588 -0.01068,-0.02823 -0.01518,-0.04474 -0.01882,-0.0018 -0.03223,-0.0038 -0.05097,-0.0055 z m 0.05097,0.0055 c 0.05383,0.0051 0.09325,0.0063 0.145995,0.01198 -0.05319,-0.03373 -0.107252,-0.06474 -0.161315,-0.09656 0.006,0.02721 0.0085,0.05878 0.01528,0.0846 z m -0.01528,-0.0846 c -0.0068,-0.03091 -0.01393,-0.06326 -0.01959,-0.09568 -0.0254,-0.01698 -0.05473,-0.0272 -0.08063,-0.0433 -0.0019,3.8e-5 -0.0038,0.0011 -0.0058,0.0012 0.09507,0.07582 0.06571,0.08828 -0.06684,0.04359 0.05796,0.0306 0.116024,0.06079 0.172796,0.09421 z m -0.100182,-0.13894 c 0.01041,-1.93e-4 0.0209,-0.0021 0.0314,-0.0024 -0.01662,-0.0031 -0.03333,-0.0058 -0.04983,-0.0097 0.0019,0.0014 8.04e-4,0.0021 0.0027,0.0034 0.0051,0.0031 0.01064,0.0056 0.01574,0.0087 z m -0.01845,-0.01218 c -0.07248,-0.05393 -0.425171,-0.245055 -0.635604,-0.368291 -0.0064,7.8e-4 -0.0092,4.53e-4 -0.01571,0.0012 0.09361,0.09025 0.196126,0.163648 0.301718,0.227311 -0.02246,-0.03375 -0.01132,-0.04534 0.0739,-0.0091 0.09578,0.04068 0.183531,0.09595 0.271872,0.149688 0.0012,2.81e-4 0.0026,-0.0011 0.0038,-7.82e-4 z m -0.6513,-0.367069 c -0.0078,-0.0075 -0.01504,-0.01562 -0.02271,-0.02326 -0.04819,-0.02807 -0.117516,-0.06606 -0.17358,-0.09804 -0.0057,-6.61e-4 -0.01026,5.8e-5 -0.01609,-6.87e-4 0.01264,0.04727 0.0302,0.09722 0.04086,0.141159 0.08197,-0.0059 0.100128,-0.0107 0.171517,-0.01916 z M 44.624282,33.57772 c 0.03229,0.0037 0.0581,-0.0027 0.08963,-4.04e-4 -0.01737,-0.01964 -0.03525,-0.03877 -0.05198,-0.05914 -0.01805,0.0013 -0.03751,-0.0013 -0.05593,-5.14e-4 -0.0037,0.0015 -0.0087,0.0071 -0.01221,0.0085 0.0036,0.01306 0.0066,0.02698 0.01019,0.03979 0.0067,0.0038 0.01373,0.008 0.02036,0.01179 z m 0.03765,-0.05954 c 0.118781,-0.0087 0.2201,-0.03914 0.315667,-0.07462 -0.03489,-0.03203 -0.07379,-0.05908 -0.108432,-0.09144 -0.0013,-5.41e-4 -0.0029,-6.34e-4 -0.0042,-0.0012 -0.03943,0.02313 -0.04469,0.02864 -0.09397,0.05712 -0.04481,0.03435 -0.08785,0.06553 -0.127932,0.08599 0.0064,0.008 0.01239,0.01614 0.01888,0.02404 z m 0.109053,-0.110047 c 0.02466,-0.01891 0.04486,-0.04714 0.06788,-0.06772 -0.11713,-0.04738 -0.235038,-0.09443 -0.354542,-0.134757 0.022,0.05389 0.04596,0.108568 0.06239,0.158679 0.02894,0.04221 0.05749,0.08342 0.08904,0.12332 0.06785,-0.03972 0.08276,-0.04921 0.135238,-0.07952 z m -15.2459,-23.258681 c 0.139293,-0.01063 0.370378,0.0045 0.601498,0.02639 0.364204,-0.100137 0.552586,-0.100025 0.73506,0.08477 0.05649,-0.0132 0.09408,-0.02743 0.153806,-0.03751 0.494877,-0.08281 0.818114,0.186697 1.056303,0.56327 0.428311,0.06052 0.74123,0.388992 0.759292,0.953022 0.112659,0.134127 0.196616,0.235294 0.349282,0.410955 0.146634,0.168723 0.102785,0.669434 0.118489,0.958604 0.0027,0.02877 0.01897,0.06575 0.01106,0.08346 -0.0039,0.0088 -0.006,0.01123 -0.0099,0.01997 1.19e-4,8.93e-4 6.57e-4,0.0029 7.83e-4,0.0038 6.91e-4,0.07209 0.02033,0.284636 0.0021,0.214878 -0.01419,-0.05435 -0.01382,-0.110883 -0.02605,-0.16612 -0.656653,1.4815 -0.568336,1.463506 -1.683724,1.806011 -0.300103,0.0079 -0.6179,0.122205 -0.90117,0.02898 -0.317092,0.06052 -0.648339,0.04402 -0.970927,0.01933 -1.079429,0.338902 -1.768368,-0.613491 -2.071605,-1.46189 -0.08598,-0.240539 -0.112733,-0.497733 -0.168861,-0.746934 -0.182298,-1.168283 -0.386443,-1.541287 1.049812,-2.477681 2.686236,0.09725 0.507989,0.04611 0.508597,-0.01839 0.0014,-0.154174 0.288371,-0.112336 0.432077,-0.168202 -0.116813,-0.05803 -0.07224,-0.08713 0.05396,-0.09677 z m 0.329073,0.769958 c -0.124163,0.01325 -0.190522,0.04737 -0.23478,0.08993 0.174672,-0.03025 0.363428,-0.06981 0.496018,-0.08958 -0.09442,-0.0027 -0.193909,-0.0075 -0.261238,-3.55e-4 z m 19.594064,1.240064 c -0.05933,0.07456 -0.121429,0.147463 -0.177485,0.223734 0.0046,0.0111 0.0073,0.01825 0.01205,0.02943 0.0026,-0.0017 0.0066,-0.0021 0.0092,-0.0039 0.05809,-0.07343 0.126474,-0.136046 0.189448,-0.204253 a 30,27.5 78.430657 0 0 -0.03315,-0.04505 z m -0.167983,0.03643 c -0.01782,0.0235 -0.03546,0.04629 -0.0537,0.06881 0.01018,0.02529 0.01575,0.04452 0.02637,0.07036 0.01307,-0.04511 0.01974,-0.09236 0.02733,-0.139168 z m -0.01232,0.241756 c -0.01199,0.0049 -0.0254,0.0069 -0.03748,0.01166 -0.03247,0.04605 -0.05655,0.09594 -0.0863,0.143266 0.04162,-0.05158 0.08264,-0.102771 0.123788,-0.154927 z m -0.06579,0.01949 c -0.0517,0.01916 -0.106187,0.03326 -0.159507,0.04861 -0.03357,0.06703 -0.07245,0.131254 -0.10482,0.198891 0.01855,0.0098 0.03978,0.01847 0.0675,0.01808 0.03392,-0.01429 0.06582,-0.03991 0.09427,-0.07512 0.0074,-0.009 0.01514,-0.01753 0.02248,-0.02653 0.03569,-0.05191 0.05594,-0.108515 0.08008,-0.163922 z m 0.454587,-0.01929 c -0.0048,0.007 -0.0063,0.01541 -0.0114,0.02227 -0.01503,0.02055 -0.04254,0.04921 -0.06096,0.07229 -0.03803,0.111133 -0.07545,0.222856 -0.113016,0.334142 -0.01333,0.02288 -0.02816,0.0443 -0.04222,0.06646 0.02308,-0.01708 0.04446,-0.03218 0.07749,-0.05972 0.157821,0.01384 0.321784,0.0024 0.4819,0.007 a 30,27.5 78.430657 0 0 -0.331804,-0.442445 z m -5.838971,2.826009 c 0.0384,-0.06327 -0.149173,0.08726 -0.151706,0.164629 0.0514,-0.05575 0.123471,-0.118123 0.151706,-0.164629 z m 7.073702,-0.582844 c -0.06426,0.02622 -0.134538,0.06206 -0.193817,0.08553 0.0028,0.02714 0.0075,0.0415 0.01028,0.06966 0.02845,-0.01225 0.05819,-0.02181 0.0868,-0.03372 0.01326,-0.01322 0.02842,-0.02366 0.04235,-0.03658 0.02076,-0.02667 0.03762,-0.05555 0.05439,-0.0849 z m -1.085204,2.528786 c -0.0017,0.0027 -0.0048,0.0046 -0.0065,0.0073 0.0048,0.0161 0.0123,0.03018 0.01743,0.04627 0.0052,-0.0038 0.01017,-0.0074 0.01566,-0.01117 -0.0011,-0.01413 -0.0015,-0.02719 -0.0024,-0.04137 -0.0082,-7.67e-4 -0.01588,-3.22e-4 -0.02415,-0.0011 z m -11.273455,7.082567 c -0.04029,0.0446 -0.08185,0.08555 -0.15062,0.150452 -7.6e-5,0.09941 -8.23e-4,0.263041 -0.0035,0.401444 0.03587,-0.131922 0.07453,-0.265638 0.110833,-0.393504 0.009,-0.0341 0.0175,-0.06541 0.02751,-0.09933 0.0055,-0.01902 0.01021,-0.04009 0.01582,-0.05906 z m -0.154106,0.649573 c -0.0016,0.106218 0.0078,0.205046 0.0148,0.305983 0.0053,-0.0011 0.01,-0.0021 0.01531,-0.0031 -0.0097,-0.08233 -0.02052,-0.163483 -0.01044,-0.274978 -0.0074,-0.01029 -0.01215,-0.01747 -0.01966,-0.02787 z m 13.501275,-2.082065 c -0.145559,0.05559 -0.290711,0.113367 -0.440905,0.164028 0.04522,0.08794 0.09365,0.175 0.130293,0.266392 0.0013,2.69e-4 0.0029,8.3e-4 0.0042,0.0012 0.06882,-0.108108 0.14615,-0.210425 0.225352,-0.311286 0.02381,-0.03031 0.05878,-0.0543 0.08927,-0.08008 -0.0025,-0.01078 -0.0056,-0.02752 -0.0082,-0.04019 z m -3.970963,1.871525 c -0.04757,0.04954 -0.099,0.09586 -0.140662,0.150408 -0.05679,0.07435 0.03446,-0.0059 0.142364,-0.112875 -3.3e-5,-0.01263 -0.0019,-0.02482 -0.0017,-0.03754 z m 1.372452,1.016896 c -0.0074,0.01296 -0.01067,0.03374 -0.01508,0.05293 0.03098,0.0055 0.06161,0.01122 0.09581,0.01029 -7.44e-4,-0.0019 -0.0023,-0.0034 -0.0031,-0.0054 -0.02606,-0.01903 -0.05201,-0.03826 -0.07763,-0.05788 z m -13.052149,3.81828 c 0.01181,0.03375 0.01951,0.06389 0.03185,0.09715 -0.0036,-0.03101 -0.0027,-0.05648 -0.0058,-0.08654 -0.0082,-0.0032 -0.01805,-0.0077 -0.0261,-0.01061 z m 2.954777,0.926227 c -0.0014,-0.0013 0.0022,0.0062 0.0012,0.0058 0.03661,0.04363 0.06681,0.08033 0.107831,0.127448 0.0086,0.0057 0.01685,0.0115 0.02535,0.01674 -0.05452,-0.05987 -0.05847,-0.0723 -0.13436,-0.149927 z m 0.341299,0.0019 c -0.0026,0.101389 0.0016,0.201037 0.0247,0.295981 0.103331,0.06947 0.206959,0.127458 0.313711,0.169034 -0.002,-0.01756 -0.01608,-0.04864 -1.92e-4,-0.03983 0.04802,0.02657 0.0741,0.04609 0.1183,0.07148 0.0047,8.81e-4 0.0094,6.24e-4 0.01418,0.0011 -0.149057,-0.177345 -0.301499,-0.349897 -0.470716,-0.49774 z m 0.456538,0.496655 c -0.03953,-0.0077 -0.07928,-0.01652 -0.118122,-0.03164 0.0029,0.02559 0.0063,0.03422 0.0302,0.06958 0.01663,0.0017 0.02292,0.0024 0.03871,0.004 0.03322,5.47e-4 0.06627,0.0019 0.09998,0.0015 -0.0077,-0.0093 -0.01575,-0.01785 -0.02349,-0.02709 -0.0088,-0.0052 -0.0171,-0.0105 -0.02727,-0.01634 z m -0.04922,0.04197 c -0.01196,-2.05e-4 -0.02415,-1.6e-4 -0.03601,-5.9e-4 0.01839,0.02617 0.03486,0.05957 0.05468,0.06257 -0.136325,0.01474 -0.217551,0.0044 -0.278382,-0.06462 -0.0032,-5.74e-4 -0.0072,-0.0013 -0.01038,-0.0019 0.03406,0.0435 0.08234,0.08177 0.13192,0.118529 0.08135,-0.0095 0.162764,-0.02104 0.244228,-0.03404 -1.73e-4,-0.0078 0.0088,-0.01309 0.03979,-0.01019 -0.0392,-0.0018 -0.07855,-0.0022 -0.117247,-0.0079 0.03901,-0.0045 0.07218,-0.005 0.120245,-0.0067 -0.01259,-0.01514 -0.02627,-0.02875 -0.03889,-0.04387 -0.03404,-0.0039 -0.0651,-0.0065 -0.109983,-0.01137 z m 0.106081,0.07996 c 3.3e-5,0.0018 0.01477,0.0084 0.01613,0.01065 0.0202,0.0012 0.03643,0.0031 0.05671,0.0043 -0.0057,-0.0067 -0.0106,-0.01387 -0.01618,-0.02061 -0.0023,-2.61e-4 -0.0042,-0.0024 -0.0066,-0.0026 -0.01678,0.0027 -0.03335,0.0056 -0.05015,0.0082 z m 0.243692,-0.659937 c 0.0073,0.03564 0.0202,0.07424 0.05112,0.123108 0.0027,-0.02588 0.008,-0.05368 0.01151,-0.08011 z m 0.05112,0.123108 c -0.005,0.04871 0.0026,0.0836 5.87e-4,0.129467 0.02598,-0.0069 0.05696,-0.01615 0.08301,-0.02302 -0.02432,-0.03317 -0.06441,-0.07621 -0.0836,-0.10649 z m -0.709666,0.448309 c 0.03376,0.04168 0.08481,0.09748 0.108615,0.131276 0.0077,-6.49e-4 0.01559,-0.0021 0.02337,-0.0027 -0.04209,-0.04349 -0.08663,-0.08167 -0.127748,-0.127358 -0.0015,-2.93e-4 -0.0027,-8.71e-4 -0.0042,-0.0012 z m 0.357601,0.217866 c 0.03946,0.01571 0.0686,0.03579 0.115513,0.04812 0.05098,0.01341 0.106062,0.01022 0.160909,0.0069 -0.01874,-0.02215 -0.03681,-0.04453 -0.05546,-0.0664 -0.07317,0.01181 -0.147213,0.0069 -0.220964,0.01135 z m 4.453257,1.945232 c 0.0081,0.01149 0.01605,0.02301 0.02315,0.03513 0.0019,-0.0085 0.0042,-0.01693 0.0068,-0.02531 -0.0058,-0.0019 -0.01144,-0.0046 -0.01728,-0.0065 -0.0079,-0.0026 -0.005,-9.18e-4 -0.01267,-0.0034 z m 1.381413,1.304136 c 0.01797,0.0133 0.03352,0.02247 0.05111,0.03539 -0.0041,-0.01406 -0.0109,-0.02633 -0.0144,-0.04091 -0.0119,0.0015 -0.02511,0.0042 -0.03676,0.0055 z m 0.120198,-0.01664 c -0.0058,0.02964 -0.01737,0.06146 -0.02142,0.09011 0.100441,0.07325 0.226426,0.170661 0.293628,0.217005 0.02622,0.01808 0.08359,0.02299 0.134558,0.02429 -0.0861,-0.07561 -0.164197,-0.158419 -0.235576,-0.254806 -0.04143,-0.02839 -0.08322,-0.05595 -0.12487,-0.08409 -0.01628,0.0024 -0.03048,0.0053 -0.04632,0.0074 z m 0.171185,0.0766 c 0.02167,0.01485 0.04331,0.02968 0.06494,0.04452 -0.02786,-0.02397 -0.05633,-0.04655 -0.08421,-0.07048 0.0063,0.0088 0.01282,0.01726 0.01927,0.02596 z m 0.235575,0.254807 c 0.02031,0.01783 0.0403,0.03589 0.06076,0.05335 -0.01563,-0.01813 -0.0313,-0.03608 -0.04698,-0.05418 -0.0053,-1.33e-4 -0.0079,10e-4 -0.01379,7.82e-4 z m -0.442439,-0.174581 c -7.26e-4,0.0084 -0.0058,0.01893 -0.0064,0.02723 0.006,0.0025 0.01166,0.0059 0.01766,0.0083 -0.0053,-0.01063 -0.0064,-0.02458 -0.01126,-0.03557 z"
     inkscape:connector-curvature="0" /></svg>