<?xml version="1.0" encoding="UTF-8"?>
<svg xmlns="http://www.w3.org/2000/svg" xmlns:xlink="http://www.w3.org/1999/xlink" width="55pt" height="60pt" viewBox="0 0 55 60" version="1.1">
<defs>
<linearGradient id="linear0" gradientUnits="userSpaceOnUse" x1="193.5238" y1="135.98215" x2="110.36905" y2="205.52975" gradientTransform="matrix(0.261938,0,0,0.204217,-6.583115,-8.370657)">
<stop offset="0" style="stop-color:rgb(0%,0%,100%);stop-opacity:1;"/>
<stop offset="1" style="stop-color:rgb(0%,0%,100%);stop-opacity:0;"/>
</linearGradient>
<linearGradient id="linear1" gradientUnits="userSpaceOnUse" x1="158.75" y1="182.09525" x2="97.51786" y2="281.88095" gradientTransform="matrix(0.261938,0,0,0.20209,0,0)">
<stop offset="0" style="stop-color:rgb(14.117647%,12.156863%,10.980392%);stop-opacity:1;"/>
<stop offset="1" style="stop-color:rgb(14.117647%,12.156863%,10.980392%);stop-opacity:0;"/>
</linearGradient>
<linearGradient id="linear2" gradientUnits="userSpaceOnUse" x1="21.166666" y1="241.05952" x2="134.55952" y2="215.35715" gradientTransform="matrix(0.261938,0,0,0.20209,0,0)">
<stop offset="0" style="stop-color:rgb(89.019608%,85.882353%,85.882353%);stop-opacity:1;"/>
<stop offset="1" style="stop-color:rgb(89.019608%,85.882353%,85.882353%);stop-opacity:0;"/>
</linearGradient>
<linearGradient id="linear3" gradientUnits="userSpaceOnUse" x1="68.791664" y1="247.10715" x2="153.45833" y2="212.33333" gradientTransform="matrix(0.261938,0,0,0.20209,0,0)">
<stop offset="0" style="stop-color:rgb(100%,100%,100%);stop-opacity:1;"/>
<stop offset="1" style="stop-color:rgb(78.431373%,71.764706%,71.764706%);stop-opacity:1;"/>
</linearGradient>
</defs>
<g id="surface1">
<path style=" stroke:none;fill-rule:nonzero;fill:url(#linear0);" d="M 29.652344 13.070312 L 31.039062 13.070312 L 31.039062 41.941406 L 29.652344 41.941406 Z M 29.652344 13.070312 "/>
<path style=" stroke:none;fill-rule:nonzero;fill:url(#linear1);" d="M 28.710938 33.695312 L 31.433594 33.695312 L 31.433594 41.382812 L 28.710938 41.382812 Z M 28.710938 33.695312 "/>
<path style=" stroke:none;fill-rule:nonzero;fill:rgb(0%,0%,100%);fill-opacity:1;" d="M 25.148438 26.105469 C 25.148438 23.238281 22 20.910156 18.117188 20.910156 C 14.234375 20.910156 11.089844 23.238281 11.089844 26.105469 C 11.089844 28.972656 14.234375 31.300781 18.117188 31.300781 C 22 31.300781 25.148438 28.972656 25.148438 26.105469 Z M 25.148438 26.105469 "/>
<path style=" stroke:none;fill-rule:nonzero;fill:rgb(0%,0%,100%);fill-opacity:1;" d="M 28.515625 38.480469 C 28.515625 34.09375 23.859375 30.535156 18.117188 30.535156 C 12.375 30.535156 7.722656 34.09375 7.722656 38.480469 C 7.722656 42.867188 12.375 46.425781 18.117188 46.425781 C 23.859375 46.425781 28.515625 42.867188 28.515625 38.480469 Z M 28.515625 38.480469 "/>
<path style=" stroke:none;fill-rule:nonzero;fill:rgb(14.117647%,12.156863%,10.980392%);fill-opacity:1;" d="M 18.019531 39.550781 C 18.019531 39.042969 17.664062 38.632812 17.226562 38.632812 C 16.789062 38.632812 16.433594 39.042969 16.433594 39.550781 C 16.433594 40.054688 16.789062 40.464844 17.226562 40.464844 C 17.664062 40.464844 18.019531 40.054688 18.019531 39.550781 Z M 18.019531 39.550781 "/>
<path style=" stroke:none;fill-rule:nonzero;fill:url(#linear2);" d="M 18.019531 47.113281 C 18.019531 46.058594 16.246094 45.203125 14.058594 45.203125 C 11.871094 45.203125 10.097656 46.058594 10.097656 47.113281 C 10.097656 48.167969 11.871094 49.019531 14.058594 49.019531 C 16.246094 49.019531 18.019531 48.167969 18.019531 47.113281 Z M 18.019531 47.113281 "/>
<path style=" stroke:none;fill-rule:nonzero;fill:url(#linear3);" d="M 27.128906 47.339844 C 27.128906 46.242188 25.308594 45.355469 23.070312 45.355469 C 20.828125 45.355469 19.007812 46.242188 19.007812 47.339844 C 19.007812 48.4375 20.828125 49.328125 23.070312 49.328125 C 25.308594 49.328125 27.128906 48.4375 27.128906 47.339844 Z M 27.128906 47.339844 "/>
<path style=" stroke:none;fill-rule:nonzero;fill:rgb(100%,100%,100%);fill-opacity:1;" d="M 24.355469 26.027344 C 24.355469 23.539062 21.5625 21.523438 18.117188 21.523438 C 14.671875 21.523438 11.878906 23.539062 11.878906 26.027344 C 11.878906 28.519531 14.671875 30.535156 18.117188 30.535156 C 21.5625 30.535156 24.355469 28.519531 24.355469 26.027344 Z M 24.355469 26.027344 "/>
<path style=" stroke:none;fill-rule:nonzero;fill:rgb(100%,100%,100%);fill-opacity:1;" d="M 23.5625 41.304688 C 23.5625 40.082031 21.167969 39.089844 18.21875 39.089844 C 15.265625 39.089844 12.871094 40.082031 12.871094 41.304688 C 12.871094 42.53125 15.265625 43.519531 18.21875 43.519531 C 21.167969 43.519531 23.5625 42.53125 23.5625 41.304688 Z M 23.5625 41.304688 "/>
<path style="fill:none;stroke-width:0.264583;stroke-linecap:butt;stroke-linejoin:miter;stroke:rgb(0%,0%,0%);stroke-opacity:1;stroke-miterlimit:4;" d="M 90.715042 200.232036 C 88.701803 200.232036 86.688564 200.232036 84.660413 200.232036 C 83.914769 200.232036 83.139299 200.425329 82.393655 200.232036 C 82.050659 200.154719 81.976095 199.59417 81.648011 199.478194 C 81.170799 199.32356 80.633936 199.478194 80.126898 199.478194 C 78.367178 199.478194 76.607458 199.478194 74.832826 199.478194 C 74.59422 199.478194 74.340701 199.478194 74.087182 199.478194 C 73.833663 199.478194 73.50558 199.652158 73.326625 199.478194 C 73.14767 199.304231 73.50558 198.898316 73.326625 198.724352 C 73.14767 198.550389 72.819587 198.724352 72.566068 198.724352 C 72.312549 198.724352 72.073943 198.724352 71.820424 198.724352 C 70.299311 198.724352 68.79311 198.724352 67.286909 198.724352 C 67.03339 198.724352 66.779871 198.724352 66.526352 198.724352 C 66.272833 198.724352 65.989489 198.840328 65.765795 198.724352 C 65.452625 198.569718 65.333322 198.125145 65.005239 197.97051 C 64.542939 197.738559 62.470049 198.202462 61.992837 197.97051 C 61.664754 197.815876 61.545451 197.371303 61.23228 197.216668 C 60.81472 197.004046 58.413746 197.429291 58.204966 197.216668 C 58.026011 197.042705 58.38392 196.63679 58.204966 196.462826 C 58.17514 196.424168 55.460996 196.462826 55.177652 196.462826 C 54.178489 196.462826 53.164413 196.462826 52.16525 196.462826 C 51.911731 196.462826 51.658212 196.462826 51.404693 196.462826 C 51.151174 196.462826 50.644136 196.714107 50.644136 196.462826 C 50.644136 196.211546 51.404693 196.211546 51.404693 196.462826 C 51.404693 196.810753 50.808178 196.888071 50.644136 197.216668 C 50.539746 197.44862 50.823091 197.796547 50.644136 197.97051 C 50.495008 198.125145 48.675636 197.815876 48.377379 197.97051 C 48.064208 198.125145 47.944905 198.569718 47.631735 198.724352 C 47.318564 198.878987 45.514106 198.569718 45.350064 198.724352 C 45.320239 198.763011 45.350064 201.469111 45.350064 201.75905 C 45.350064 202.01033 45.603583 202.512892 45.350064 202.512892 C 45.111458 202.512892 45.350064 202.01033 45.350064 201.75905 " transform="matrix(0.261938,0,0,0.20209,0,0)"/>
<path style=" stroke:none;fill-rule:nonzero;fill:rgb(100%,100%,100%);fill-opacity:1;" d="M 15.78125 43.195312 C 13.980469 42.734375 13.195312 42.242188 12.988281 41.441406 C 12.878906 41.019531 12.960938 40.878906 13.664062 40.335938 C 14.410156 39.761719 14.527344 39.722656 15.226562 39.820312 C 15.640625 39.878906 16.078125 39.984375 16.195312 40.058594 C 16.316406 40.128906 16.449219 40.164062 16.492188 40.132812 C 16.539062 40.101562 17.730469 40.171875 19.148438 40.289062 C 20.5625 40.40625 22.027344 40.496094 22.398438 40.492188 C 23.171875 40.484375 23.398438 40.679688 23.402344 41.355469 C 23.40625 41.941406 22.664062 42.558594 21.425781 42.992188 C 20.308594 43.386719 17 43.503906 15.78125 43.195312 Z M 15.78125 43.195312 "/>
<path style=" stroke:none;fill-rule:nonzero;fill:rgb(0%,0%,100%);fill-opacity:1;" d="M 19.046875 40.101562 C 17.578125 39.988281 16.109375 39.835938 15.78125 39.757812 L 15.1875 39.617188 L 15.78125 39.421875 C 16.109375 39.316406 17.175781 39.222656 18.15625 39.21875 C 20.058594 39.203125 21.492188 39.480469 22.414062 40.039062 L 22.910156 40.335938 L 22.316406 40.320312 C 21.988281 40.3125 20.519531 40.214844 19.046875 40.101562 Z M 19.046875 40.101562 "/>
<path style=" stroke:none;fill-rule:nonzero;fill:rgb(0%,0%,100%);fill-opacity:1;" d="M 13.753906 39.625 C 13.949219 39.589844 14.214844 39.589844 14.351562 39.632812 C 14.484375 39.675781 14.328125 39.707031 14 39.703125 C 13.671875 39.699219 13.5625 39.664062 13.753906 39.625 Z M 13.753906 39.625 "/>
<path style=" stroke:none;fill-rule:nonzero;fill:rgb(0%,0%,100%);fill-opacity:1;" d="M 18.078125 39.949219 C 16.835938 39.832031 15.773438 39.703125 15.71875 39.660156 C 15.492188 39.484375 15.925781 39.394531 17.398438 39.320312 C 19.214844 39.226562 21.03125 39.453125 21.898438 39.882812 L 22.515625 40.1875 L 21.425781 40.171875 C 20.824219 40.164062 19.320312 40.0625 18.078125 39.949219 Z M 18.078125 39.949219 "/>
<path style="fill:none;stroke-width:0.264583;stroke-linecap:butt;stroke-linejoin:miter;stroke:rgb(0%,0%,0%);stroke-opacity:1;stroke-miterlimit:4;" d="M 55.177652 129.931436 C 28.722205 126.916068 26.455447 124.635213 26.455447 124.635213 Z M 55.177652 129.931436 " transform="matrix(0.261938,0,0,0.20209,0,0)"/>
<path style="fill:none;stroke-width:0.264583;stroke-linecap:butt;stroke-linejoin:miter;stroke:rgb(0%,0%,0%);stroke-opacity:1;stroke-miterlimit:4;" d="M 55.177652 129.931436 C 52.910894 131.18784 50.748527 132.637536 48.377379 133.719976 C 47.91508 133.913269 47.378216 133.719976 46.871178 133.719976 C 45.603583 133.719976 44.350902 133.719976 43.083307 133.719976 C 42.591182 133.719976 42.084144 133.719976 41.577106 133.719976 C 41.323587 133.719976 41.055155 133.642659 40.816549 133.719976 C 38.221708 134.589793 40.264773 134.473818 38.549792 134.473818 C 38.191883 134.473818 34.806659 134.435159 34.776833 134.473818 C 34.597879 134.647781 35.000527 135.111684 34.776833 135.22766 C 34.493489 135.362965 31.138091 135.073025 30.988962 135.22766 C 30.810008 135.401623 31.167917 135.807538 30.988962 135.981502 C 30.810008 136.155465 30.496837 135.981502 30.243318 135.981502 C 29.989799 135.981502 29.73628 135.981502 29.482761 135.981502 C 29.229242 135.981502 28.945898 135.865526 28.722205 135.981502 C 28.409034 136.136136 28.036212 137.083271 27.976561 136.735344 C 27.171265 132.753512 26.962485 128.675033 26.455447 124.635213 " transform="matrix(0.261938,0,0,0.20209,0,0)"/>
<path style="fill:none;stroke-width:0.264583;stroke-linecap:butt;stroke-linejoin:miter;stroke:rgb(0%,0%,0%);stroke-opacity:1;stroke-miterlimit:4;" d="M 55.177652 129.931436 C 53.164413 133.468695 51.330129 137.1026 49.137936 140.523883 C 49.00372 140.736505 48.630898 140.523883 48.377379 140.523883 C 47.631735 140.523883 46.871178 140.523883 46.110621 140.523883 C 45.857102 140.523883 45.603583 140.523883 45.350064 140.523883 C 45.111458 140.523883 44.783375 140.33059 44.60442 140.523883 C 44.425466 140.697847 44.828114 141.161749 44.60442 141.277725 C 44.08247 141.529006 40.801636 141.026444 40.070905 141.277725 C 39.534042 141.451689 39.086655 141.857604 38.549792 142.031567 C 38.132231 142.166872 36.775159 142.031567 36.283034 142.031567 C 35.030352 142.031567 33.762758 142.031567 32.510076 142.031567 " transform="matrix(0.261938,0,0,0.20209,0,0)"/>
<path style="fill:none;stroke-width:0.264583;stroke-linecap:butt;stroke-linejoin:miter;stroke:rgb(0%,0%,0%);stroke-opacity:1;stroke-miterlimit:4;" d="M 79.381254 126.916068 C 81.140973 126.916068 82.900693 126.916068 84.660413 126.916068 C 85.167451 126.916068 85.674489 126.916068 86.181527 126.916068 C 86.435045 126.916068 86.688564 126.838751 86.92717 126.916068 C 87.464034 127.090032 87.91142 127.495947 88.448284 127.66991 C 88.865845 127.805215 90.222917 127.66991 90.715042 127.66991 C 92.474761 127.66991 94.249394 127.66991 96.009114 127.66991 C 96.367023 127.66991 99.752246 127.708569 99.782072 127.66991 C 99.961027 127.495947 99.603117 127.090032 99.782072 126.916068 C 99.961027 126.742105 100.28911 126.916068 100.542629 126.916068 C 100.796148 126.916068 101.049667 126.916068 101.303186 126.916068 C 101.48214 126.916068 103.540117 126.935398 103.569943 126.916068 C 103.748898 126.742105 103.390989 126.33619 103.569943 126.162226 C 103.748898 125.968933 104.136633 126.33619 104.315587 126.162226 C 104.494542 125.968933 104.136633 125.582348 104.315587 125.408384 C 104.673496 125.041128 105.478792 125.756311 105.836701 125.408384 C 106.015655 125.215091 105.583182 124.635213 105.836701 124.635213 C 106.09022 124.635213 105.836701 125.137774 105.836701 125.408384 " transform="matrix(0.261938,0,0,0.20209,0,0)"/>
<path style="fill:none;stroke-width:0.264583;stroke-linecap:butt;stroke-linejoin:miter;stroke:rgb(0%,0%,0%);stroke-opacity:1;stroke-miterlimit:4;" d="M 105.836701 125.408384 C 104.062068 128.423752 102.481303 131.555096 100.542629 134.473818 C 100.408413 134.68644 100.035591 134.473818 99.782072 134.473818 C 99.528553 134.473818 99.275034 134.473818 99.036428 134.473818 C 98.782909 134.473818 98.52939 134.473818 98.275871 134.473818 C 98.022352 134.473818 97.739008 134.589793 97.515314 134.473818 C 97.202144 134.319183 97.082841 133.87461 96.754758 133.719976 C 96.531064 133.604 96.232807 133.835951 96.009114 133.719976 C 95.68103 133.546012 95.561727 133.120768 95.248557 132.966134 C 94.950299 132.811499 93.130928 133.120768 92.981799 132.966134 C 92.802845 132.772841 93.160754 132.386255 92.981799 132.192962 C 92.773019 131.99967 90.372045 132.405584 89.954485 132.192962 C 86.494697 130.472656 93.160754 132.52156 87.687727 130.685278 C 86.867519 130.414668 84.511284 131.071864 83.914769 130.685278 C 82.244527 129.641497 80.887455 128.172472 79.381254 126.916068 C 79.903205 131.207169 84.869193 130.472656 86.92717 132.966134 C 87.657902 133.816622 87.747379 135.111684 88.448284 135.981502 C 88.79128 136.426075 89.507098 136.406746 89.954485 136.735344 C 90.819432 137.37321 91.341383 138.416991 92.221242 138.99687 C 93.160754 139.634736 94.309045 139.886017 95.248557 140.523883 C 96.381936 141.277725 96.009114 142.031567 97.515314 142.785409 C 97.962701 143.017361 98.603955 142.514799 99.036428 142.785409 C 99.498727 143.094678 99.394337 143.906508 99.782072 144.293093 C 99.961027 144.467057 100.304023 144.215776 100.542629 144.293093 C 101.049667 144.544374 101.556705 144.795655 102.04883 145.046935 C 102.04883 145.298216 101.869875 145.626814 102.04883 145.800777 C 102.227784 145.99407 102.555867 145.800777 102.809386 145.800777 C 103.062905 145.800777 103.316424 145.800777 103.569943 145.800777 " transform="matrix(0.261938,0,0,0.20209,0,0)"/>
<path style=" stroke:none;fill-rule:nonzero;fill:rgb(0%,0%,100%);fill-opacity:1;" d="M 17.425781 25.113281 C 17.425781 24.480469 16.761719 23.96875 15.941406 23.96875 C 15.121094 23.96875 14.453125 24.480469 14.453125 25.113281 C 14.453125 25.746094 15.121094 26.257812 15.941406 26.257812 C 16.761719 26.257812 17.425781 25.746094 17.425781 25.113281 Z M 17.425781 25.113281 "/>
<path style=" stroke:none;fill-rule:nonzero;fill:rgb(0%,0%,100%);fill-opacity:1;" d="M 21.582031 25.113281 C 21.582031 24.480469 20.917969 23.96875 20.097656 23.96875 C 19.277344 23.96875 18.613281 24.480469 18.613281 25.113281 C 18.613281 25.746094 19.277344 26.257812 20.097656 26.257812 C 20.917969 26.257812 21.582031 25.746094 21.582031 25.113281 Z M 21.582031 25.113281 "/>
<path style=" stroke:none;fill-rule:nonzero;fill:rgb(0%,0%,100%);fill-opacity:1;" d="M 13.265625 36.492188 L 13.753906 36.492188 L 13.753906 39.625 L 13.265625 39.625 Z M 13.265625 36.492188 "/>
<path style=" stroke:none;fill-rule:nonzero;fill:rgb(0%,0%,100%);fill-opacity:1;" d="M 13.265625 36.492188 L 23.761719 36.492188 L 23.761719 40.464844 L 13.265625 40.464844 Z M 13.265625 36.492188 "/>
</g>
</svg>
