<?xml version="1.0" encoding="utf-8"?>
<!-- Generator: Adobe Illustrator 14.0.0, SVG Export Plug-In . SVG Version: 6.00 Build 43363)  -->
<!DOCTYPE svg PUBLIC "-//W3C//DTD SVG 1.1//EN" "http://www.w3.org/Graphics/SVG/1.1/DTD/svg11.dtd">
<svg version="1.1" xmlns="http://www.w3.org/2000/svg" xmlns:xlink="http://www.w3.org/1999/xlink" x="0px" y="0px" width="200px"
	 height="200px" viewBox="0 0 200 200" enable-background="new 0 0 200 200" xml:space="preserve">
<g id="Layer_2">
	<g>
		<g>
			<path fill="#FFFFFF" d="M-52.649,54.855c10.978,0,11.074-17.004,0.122-17.004C-63.505,37.851-63.602,54.855-52.649,54.855
				L-52.649,54.855z"/>
		</g>
	</g>
	<g>
		<g>
			<path fill="#FFFFFF" d="M-7.714,33.563c15.409-0.052,30.827-1.245,46.201,0.297c5.859,0.588-3.026-0.574,2.761,0.417
				c1.802,0.309,3.583,0.726,5.362,1.146c3.717,0.878,7.402,1.945,11.083,2.962c1.87,0.517,3.73,1.07,5.588,1.627
				c5.958,1.786-3.027-1.556,1.5,0.468c4.023,1.799,8.068,3.701,12.33,4.866c7.935,2.169,16.266,0.5,23.86-2.093
				c7.01-2.393,14.172-4.275,21.438-5.736c1.766-0.355,3.546-0.625,5.326-0.89c-3.375,0.503,2.596-0.13,2.624-0.133
				c3.703-0.284,7.42-0.338,11.133-0.309c3.764,0.03,7.521,0.313,11.264,0.689c6.05,0.607-3.079-0.583,2.77,0.404
				c2.455,0.414,4.901,0.85,7.367,1.199c8.088,1.144,15.716,0.411,23.805,0.675c3.7,0.121,6.489,0.364,10.362-0.451
				c7.479-1.573,12.284-8.164,14.881-14.786c6.021-15.353-7.773-28.34-18.953-36.149c-11.574-8.085-25.366-13.038-39.566-12.85
				c-16.866,0.223-31.907,8.233-46.498,15.797c-9.43,4.889-18.849,9.783-28.617,13.971c2.841-1.218-3.458,1.281-4.038,1.496
				c-2.766,1.026-5.532,1.893-8.412,2.532c-6.244,1.385-11.636,2.658-17.6,5.193c8.588,3.522,17.177,7.044,25.765,10.566
				c-1.488-7.284-3.531-12.501-8.168-18.402C61.872,1.003,55.118-1.82,49.312-4.037c-8.996-3.436-19.585-3.758-29.131-3.625
				C6.051-7.463-7.884-4.522-21.152,0.216c-7.63,2.725-15.086,6.01-22.427,9.431c-3.208,1.495-6.404,3.03-9.577,4.596
				c-1.641,0.81-3.255,1.675-4.887,2.502c-5.045,2.557,2.872-0.774-2.309,0.94c6.562,8.551,13.123,17.103,19.685,25.654
				c1.467-2.688-2.449,2.523-2.945,2.831c-2.834,1.055-3.325,1.301-1.471,0.737c1.864-0.362,1.394-0.319-1.409,0.126
				c2.625-0.237,5.311,0.067,7.916,0.386c-5.086-0.623-1.649-0.206-0.544-0.028c1.773,0.285,3.55,0.55,5.323,0.836
				c4.308,0.695,8.585,1.573,12.848,2.502c16.855,3.676,33.146,10.445,50.166,13.147c9.303,1.478,18.689,2.111,28.102,1.658
				c9.434-0.454,18.762-2.604,27.992-4.455c1.791-0.359,3.587-0.684,5.386-1c2.152-0.312,2.396-0.374,0.73-0.186
				c1.194-0.143,2.391-0.258,3.59-0.345c1.792-0.151,3.588-0.16,5.385-0.16c1.199,0.019,2.396,0.08,3.59,0.185
				c-1.287-0.234-1.205-0.217,0.247,0.052c1.233,0.231,2.446,0.559,3.657,0.887c0.914,0.248,6.126,2.465,2.129,0.627
				c1.215,0.559,2.344,1.27,3.466,1.991c-1.805-1.436-2.006-1.519-0.602-0.248c-1.406-2.021-1.597-2.225-0.57-0.61
				c0.885-7.057,1.769-14.114,2.653-21.171c3.256-2.625-1.879,0.862-2.635,1.266c-0.92,0.469-1.853,0.912-2.799,1.327
				c1.929-0.797,1.923-0.814-0.02-0.053c-4.462,1.704-9.03,3.179-13.556,4.704c-10.472,3.53-21.049,6.74-31.659,9.826
				c-20.837,6.063-41.82,11.671-62.741,17.438c-10.429,2.875-20.903,5.582-31.469,7.91c-4.928,1.086-9.885,2.036-14.857,2.897
				c-2.467,0.428-4.943,0.796-7.421,1.155c1.566-0.181,1.266-0.143-0.903,0.115c-1.846,0.223-3.698,0.399-5.549,0.574
				c-10.631,1.006-21.306,1.205-31.975,0.84c-5.628-0.192-11.246-0.624-16.85-1.171c-2.455-0.24-4.904-0.539-7.352-0.846
				c4.127,0.518-2.988-0.606-4.035-0.849c1.414,10.659,2.827,21.318,4.241,31.978c4.087-2.537,8.341-4.686,12.749-6.608
				c-1.806,0.758-1.723,0.742,0.247-0.046c1.549-0.605,3.119-1.158,4.687-1.713c2.631-0.932,5.294-1.769,7.96-2.595
				c10.593-3.283,21.354-6.078,32.018-9.123c24.497-6.994,49.548-11.954,74.774-15.433c2.183-0.288,2.526-0.336,1.031-0.147
				c1.897-0.244,3.797-0.469,5.697-0.695c3.168-0.376,6.341-0.715,9.516-1.044c6.411-0.665,12.835-1.22,19.257-1.762
				c13.027-1.102,26.088-1.786,39.153-2.243c13.019-0.455,26.046-0.593,39.072-0.593c6.372,0,12.745,0,19.117,0
				c2.385,0,4.711-0.174,7.084-0.387c0.939-0.083,1.881-0.128,2.823-0.136c0.451,0.016,0.902,0.032,1.353,0.048
				c-2.604,0.103-4.907-0.82-6.913-2.767c-1.531-2.638-3.063-5.275-4.594-7.913c0.127,0.374,0.254,0.748,0.382,1.121
				c7.175-7.137,14.35-14.274,21.524-21.411c-24.521-4.146-49.181-8.303-74.077-9.154c-24.67-0.844-49.368,1.695-73.686,5.685
				C0.946,45.171-22.184,51.21-45.234,57.562c-11.195,3.085-22.376,6.219-33.593,9.227c-5.614,1.505-11.24,2.961-16.877,4.376
				c-2.89,0.725-5.767,1.467-8.636,2.271c-1.114,0.312-2.236,0.589-3.367,0.833c3.246-0.75-1.433-0.084-2.108-0.126
				c2.912,10.867,5.824,21.733,8.735,32.6c4.933-3.005,9.987-5.768,15.15-8.354c2.612-1.309,5.265-2.537,7.922-3.749
				c1.07-0.484,2.143-0.961,3.219-1.431c0.132-0.058,5.474-2.313,2.174-0.948c10.879-4.502,22.005-8.393,33.13-12.234
				c24.087-8.318,48.104-16.726,72.599-23.789c24.689-7.12,49.719-12.901,74.85-18.22c6.068-1.284,12.157-2.458,18.271-3.506
				c3.056-0.524,6.122-0.978,9.191-1.407c-1.591,0.202-1.305,0.172,0.858-0.088c1.832-0.214,3.668-0.384,5.504-0.552
				c5.947-0.544,11.941-0.779,17.911-0.627c2.014,0.17,2.048,0.157,0.104-0.039c1.538,0.273,3.023,0.773,4.499,1.27
				c-3.41-1.148,1.017,0.729,1.496,1.011c4.126,2.425-2.128-2.102,1.362,1.188c2.593-9.782,5.187-19.564,7.78-29.346
				c-6.319,1.443-12.678,2.644-19.075,3.685c-3.196,0.52-6.402,0.976-9.609,1.423c-4.066,0.567-2.834,0.39-6.909,0.894
				c-6.424,0.794-12.854,1.542-19.277,2.35c-8.095,1.019-12.328,1.575-21.154,2.848c-1.208,0.174-2.417,0.344-3.627,0.511
				c3.327-0.463-2.649,0.301-2.642,0.3c-3.042,0.337-6.094,0.532-9.151,0.655c-3.04,0.122-6.078,0.005-9.11-0.21
				c-2.126-0.239-2.411-0.251-0.854-0.036c-1.755-0.253-3.509-0.52-5.262-0.787c-11.924-1.819-23.787-4.087-35.419-7.3
				C30.786,9.682,28.754,9,26.745,8.259c2.328,1.022,2.686,1.106,1.076,0.254c4.11,2.329,6.34,7.882,5.296,12.461
				c-0.445,1.742-1.305,3.246-2.578,4.513c2.237-2.688-3.515,2.263-0.392,0.26c0.634-0.38,1.284-0.729,1.951-1.046
				c-4.478,2.268-1.195,0.505,0,0.095c3.465-1.189,7.099-1.895,10.692-2.568c2.004-0.375,4.01-0.747,6.021-1.087
				c2.156-0.314,2.439-0.365,0.851-0.151c1.847-0.224,3.702-0.368,5.556-0.514c6.201-0.488,12.437-0.472,18.649-0.297
				c2.868,0.081,5.746,0.144,8.604,0.397c-2-0.283-2.013-0.242-0.038,0.123c1.399,0.288,2.77,0.691,4.12,1.152
				c4.233,1.444,8.871,1.825,13.26,2.561c2.267,0.38,4.5,0.875,6.713,1.496c1.85,0.642,1.661,0.516-0.564-0.378
				c1.088,0.479,2.047,1.157,2.994,1.861c4.457-10.679,8.914-21.358,13.371-32.037c-0.589-0.098-1.177-0.196-1.765-0.294
				c2.606,9.73,5.214,19.461,7.821,29.191c-3.451,2.346-4.399,3.114-2.843,2.307c-5.568,2.782-3.621,1.486-1.982,0.931
				c1.67-0.565,3.372-1.041,5.067-1.521c2.418-0.686,4.85-1.331,7.287-1.94c-4.463-10.667-8.927-21.333-13.391-32
				c4.355-1.589,5.652-2.154,3.89-1.696c3.02,11.269,6.039,22.539,9.059,33.808c11.848-3.287,23.788-6.156,35.936-8.094
				c1.271-0.197,2.545-0.383,3.819-0.557c-1.467,0.198-1.105,0.166,1.086-0.096c3.192-0.355,6.396-0.577,9.603-0.758
				c5.213-0.294,10.452-0.275,15.669-0.121c2.003,0.059,4.002,0.181,6.001,0.315c1.019,0.073,2.036,0.158,3.053,0.253
				c0.445,0.04,5.528,0.646,1.653,0.109c5.091,0.705,10.104,1.868,14.996,3.436c0.951,0.316,1.895,0.654,2.83,1.014
				c-1.831-0.795-1.848-0.785-0.051,0.028c0.876,0.42,1.739,0.865,2.589,1.336c0.567,0.304,4.339,2.971,1.269,0.5
				c0.805,0.695,1.568,1.433,2.29,2.214c3.475,3.552-1.471-2.479,1.155,1.67c0.533,0.891,1.006,1.813,1.419,2.766
				c2.079,4.406-1.064,1.419-1.037-5.58c0.783-2.875,1.565-5.749,2.349-8.624c2.348-2.74,2.768-3.342,1.261-1.806
				c1.897-1.283,2.085-1.416,0.563-0.397c-0.714,0.442-1.449,0.848-2.204,1.217c-3.958,2.058,3.7-1.317-0.712,0.218
				c-4.066,1.416-8.332,2.281-12.536,3.171c-10.772,2.279-21.553,4.237-32.411,6.077c-12.767,2.163-21.368,3.906-32.877,4.388
				c-12.19,0.51-24.396-0.077-36.585,0.56c4.105,9.938,8.211,19.876,12.316,29.814c-4.57,3.709,1.484,0.466-3.693,2.361
				c1.497-0.548,3.084-0.869,4.64-1.202c2.847-0.609,5.752-0.963,8.634-1.362c7.416-1.027,14.706-2.947,22.056-4.371
				c1.932-0.375,3.869-0.719,5.807-1.062c1.292-0.224,2.585-0.439,3.88-0.646c-1.491,0.171-1.168,0.149,0.971-0.066
				c4.365-0.405,8.751-0.532,13.133-0.525c1.899,0.003,3.797,0.091,5.693,0.181c0.479,0.022,7.258,0.748,3.563,0.234
				c2.204,0.307,4.384,0.745,6.556,1.224c0.688,0.151,6.93,2.182,3.451,0.725c8.089,3.388,19.611,3.054,23.905-6.405
				c8.002-17.629-3.13-38.067-15.783-50.728c-8.61-8.616-22.382-10.693-33.885-7.944c-12.826,3.065-16.801,15.932-20.821,26.773
				c-7.917,21.342-13.292,43.813-14.061,66.629c-0.39,11.565,0.857,23.413,3.633,34.64c1.21,4.895,2.745,9.706,4.033,14.58
				c0.574,2.173,1.045,4.368,1.475,6.573c0.333,2.095,0.376,2.228,0.128,0.397c0.201,1.728,0.238,3.467,0.27,5.204
				c9.938-4.105,19.876-8.211,29.813-12.316c1.443,1.934,1.624,2.063,0.542,0.39c-2.349-3.883,1.166,3.592-0.486-0.845
				c-1.022-2.745-1.687-5.629-2.34-8.479c-1.278-5.576-2.473-11.197-3.464-16.83c-0.318-2.143-0.368-2.354-0.149-0.635
				c-0.213-1.742-0.304-3.493-0.385-5.244c-0.079-1.717,0.006-3.443,0.049-5.16c0.127-5.062-0.756,2.881,0.374-1.869
				c0.381-1.599,0.977-3.149,1.543-4.688c-1.065,2.893,1.201-2.55,1.167-2.476c1.532-3.309,3.203-6.552,4.896-9.781
				c13.345-25.465,28.795-49.542,39.297-76.439c-11.255-3.081-22.509-6.161-33.764-9.241c-0.804,3.269,2.173-4.405,0.104-0.159
				c-0.759,1.558-1.606,3.073-2.448,4.586c-0.81,1.455-1.655,2.889-2.509,4.319c-1.173,1.963-4.218,5.264,0.769-0.517
				c9.782,2.594,19.564,5.187,29.347,7.781c-0.002-0.013-0.004-0.025-0.007-0.037c-2.716-15.445-25.009-16.723-32.059-4.221
				c-15.215,26.98-30.223,54.093-42.016,82.78c-6.04,14.693-10.297,29.675-11.741,45.54c-0.765,8.39,0.314,16.715,1.724,24.979
				c1.529,8.971,2.8,14.026,2.92,21.796c0.147,9.531,7.688,17.565,17.378,17.63c9.482,0.063,17.635-7.844,17.63-17.378
				c-0.007-14.451-0.14-28.902,0.105-43.353c0.12-7.1,0.21-14.225,1.028-21.283c0.789-6.798,1.988-13.503,2.102-20.364
				c0.131-7.942-2.477-15.595-6.283-22.456c-4.354-7.845-10.782-16.74-20.744-16.329c-10.671,0.441-18.51,8.297-26.222,14.74
				c-19.845,16.578-34.832,37.724-43.886,61.902c-8.672,23.158-15.375,50.678-8.155,75.074c2.069,6.991,8.967,13.597,16.778,12.975
				c14.462-1.151,19.921-12.889,22.79-25.396c2.829-12.339,4.211-25.066,5.628-37.628c1.155-10.244,2.076-20.513,2.997-30.78
				c0.131-1.454,0.264-2.909,0.402-4.362c0.05-0.518,0.103-1.034,0.157-1.551c0.021-0.201,0.044-0.401,0.067-0.602
				c0.628-5.479-0.567,3.223,0.317-2.078c0.78-4.666,2.043-9.226,3.671-13.663c-1.271,3.465,1.157-2.304,1.486-2.94
				c1.23-2.378,2.709-4.617,4.235-6.812c-10.687-1.407-21.373-2.814-32.059-4.221c0.396,1.002,0.73,2.025,1.005,3.068
				c1.405,4.771-0.009-3.283,0.354,1.691c0.119,1.625,0.017,3.263-0.075,4.886c-0.293,5.233,0.671-3.122-0.317,2.094
				c-1.245,6.572-3.674,12.913-6.041,19.146c-2.176,5.73-4.22,11.509-6.36,17.254c-1.223,3.282-2.489,6.548-3.777,9.806
				c-0.649,1.64-1.318,3.271-1.988,4.902c1.2-2.921-1.056,2.408-1.04,2.37c-2.563,5.891-5.369,11.672-8.391,17.341
				c-1.612,3.025-3.347,5.982-5.135,8.906c-0.511,0.836-1.023,1.635-1.588,2.429c3.409-4.786,1.569-2.065,0.695-1.018
				c-2.572,3.087-5.484,5.894-8.58,8.448c3.985-3.287-1.498,0.712-2.845,1.377c4.968-2.453-1.211-0.507,4.608-1.168
				c-2.23,0.253,4.099,1.021,4.834,1.431c2.918,5.094,5.836,10.188,8.754,15.281c-0.025,0.837-2.13,5.445-0.341,2.162
				c0.934-1.712,2.159-3.288,3.285-4.875c2.499-3.522,4.802-7.188,6.944-10.938c4.379-7.662,7.61-15.933,11.681-23.761
				c4.296-8.26,9.178-16.207,14.318-23.965c5.324-8.037,7.353-11.876,13.169-17.617c7.792-7.69,6.295-22.255-3.692-27.465
				c-4.254-2.22-8.536-3.534-13.15-4.649c-1.077-0.262-2.14-0.578-3.186-0.946c1.555,0.542,1.41,0.353-0.435-0.568
				c-1.964-1.155-4.003-2.159-6.072-3.109c-10.573-4.853-21.582-6.87-33.019-3.893c-8.839,2.301-17.714,7.232-25.904,11.267
				c-8.363,4.12-16.458,8.771-24.356,13.718c-15.704,9.834-30.501,21.257-44.388,33.507c-6.685,5.897-13.013,12.163-19.274,18.504
				c-3.544,3.59-7.068,7.199-10.604,10.796c-1.774,1.805-3.556,3.604-5.34,5.398c-0.809,0.85-1.653,1.662-2.532,2.438
				c-1.479,1.458-1.36,1.342,0.355-0.346c7.102,9.135,14.203,18.271,21.304,27.405c10.866-13.045,23.93-23.956,36.948-34.765
				c6.788-5.637,13.5-11.362,20.292-16.993c7.067-5.86,13.797-11.21,19.406-15.486c14.148-10.784,28.826-20.827,44.029-30.065
				c8.146-4.95,16.308-9.874,24.517-14.721c3.832-2.263,7.681-4.497,11.54-6.713c2.186-1.255,4.381-2.494,6.577-3.729
				c1.055-0.579,2.101-1.175,3.138-1.786c1.906-1.058,1.924-1.048,0.053,0.03c-4.464-10.667-8.927-21.333-13.391-32
				c-11.958,7.722-24.85,13.762-37.444,20.343c-13.444,7.026-26.182,15.343-38.679,23.92C18.1,104.934,5.677,114.381-6.498,124.122
				c-11.835,9.47-22.645,20.098-34.416,29.627c9.199,7.02,18.398,14.04,27.598,21.06c2.154-3.545-2.583,2.764,0.534-0.657
				c1.29-1.416,2.727-2.709,4.116-4.026c3.232-3.065,6.23-6.39,9.307-9.61c7.085-7.42,14.158-14.853,21.293-22.226
				c6.006-6.208,11.93-12.562,18.448-18.238c6.552-5.706,13.359-11.539,17.479-19.359c8.322-15.796-8.402-31.968-24.017-23.846
				C15.56,86.356,0.209,100.66-14.736,114.632c-7.129,6.664-6.224,18.04,0.133,24.752c4.872,5.145,11.16,8.246,17.343,11.462
				c6.207,3.228,11.994,6.581,18.586,9.085c16.606,6.306,30.563-2.638,41.466-14.463c9.663-10.48,19.423-20.842,28.916-31.483
				c4.737-5.31,9.638-10.475,14.366-15.79c1.826-2.054,3.499-4.247,5.288-6.333c0.923-1.076,1.91-2.084,2.918-3.08
				c0.331-0.298,0.662-0.597,0.993-0.896c-1.054,1.158-2.36,1.87-3.92,2.135c-6.562-8.551-13.123-17.103-19.685-25.654
				c-1.141,1.608-1.105,1.584,0.106-0.073c-0.914,1.146-1.924,2.214-2.926,3.282c-2.046,2.181-4.305,4.16-6.57,6.107
				c-4.644,3.991-9.585,7.628-14.324,11.503c-11.175,9.136-19.664,20.218-23.982,34.116c-4.002,12.883-3.619,26.956-4.322,40.292
				c-0.162,3.069-0.358,6.135-0.634,9.195c-0.053,0.591-0.754,5.471-0.121,1.35c-0.22,1.435-0.531,2.852-0.847,4.268
				c-0.316,1.419-0.745,2.808-1.176,4.194c-0.172,0.554-2.082,4.892-0.478,1.384c-1.338,2.926-3.128,5.616-5.019,8.206
				c10.104,5.833,20.207,11.667,30.311,17.5c9.49-16.534,19.383-29.14,30.077-42.719c6.345-8.056,12.673-16.129,18.763-24.381
				c5.553-7.525,11.088-14.714,13.181-24.088c2.432-10.889-5.034-22.14-16.756-22.125c-7.3,0.009-13.66,2.811-20.246,5.562
				c-1.122,0.468-5.08,2.122,0.407-0.161c-1.881,0.783-3.707,1.471-5.619,2.301c-3.87,1.681-7.681,3.468-11.448,5.366
				c-13.69,6.898-26.204,15.746-38.386,24.991c-12.911,9.799-24.31,20.191-33.962,33.269c-4.659,6.312-6.505,14.638-8.182,22.157
				c-0.704,3.157-1.536,6.25-2.641,9.291c0.962-2.646-0.247,0.089-0.46,0.49c-2.219,4.174,0.466-1.005,2.207-1.771
				c2.996-0.803,5.992-1.605,8.987-2.408c0.887,0.119,1.774,0.239,2.662,0.358c2.563,1.479,5.126,2.96,7.689,4.439
				c1.495,3.567,2.989,7.135,4.484,10.702c-0.563,3.267-0.651,3.979-0.266,2.136c0.212-0.966,0.56-1.907,0.884-2.839
				c1.255-3.618-1.644,3.663-0.093,0.134c0.408-0.928,0.851-1.841,1.292-2.753c0.579-1.197,1.191-2.381,1.84-3.541
				c0.816-1.459,1.778-2.834,2.728-4.206c-1.748,2.523,2.159-2.483,2.587-2.965c4.519-5.078,9.699-9.561,14.761-14.08
				c1.24-1.107,2.467-2.217,3.75-3.274c4.014-3.309-2.754,1.826,1.44-0.973c3.818-2.548-3.224,0.655,1.147-0.562
				c-2.13,0.247-2.108,0.382,0.069,0.402c-1.337,0.087-2.568-0.236-3.692-0.967c3.587,1.639-2.395-2.463,0.364,0.348
				c-2.869-2.923-0.652-0.604-0.02,0.648c-2.472-4.896-0.181,2.613-0.802-2.833c0.105,0.919-0.292,5.064,0.347,0.602
				c-0.184,1.288-0.61,2.531-1.022,3.758c1.344-3.999-0.122-0.188-0.614,0.657c-0.393,0.676-3.153,4.083-0.545,0.905
				c-1.203,1.465-2.578,2.781-3.958,4.076c-0.496,0.465-4.234,3.361-0.86,0.831c-1.132,0.849-2.326,1.61-3.518,2.371
				c-1.158,0.739-2.368,1.393-3.576,2.045c-0.835,0.45-4.99,2.276-0.368,0.361c-1.133,0.47-2.281,0.784-3.469,1.077
				c4.803-1.188-1.651-0.586,3.007,0.179c1.824,0.299,7.044,6.893,5.256,3.786c1.138,3.049,1.436,3.713,0.895,1.994
				c0.295,3.381,0.402,4.171,0.319,2.369c-0.108-3.038-0.98,4.468-0.111,1.534c-1.354,4.568-1.248,2.797-0.326,1.281
				c1.697-2.79-2.834,3.363-0.556,0.834c0.63-0.699,1.336-1.328,2.034-1.958c2.699-2.437-3.453,2.516-0.423,0.301
				c0.853-0.623,1.744-1.192,2.631-1.765c2.146-1.382,4.405-2.59,6.673-3.757c1.928-0.992,3.901-1.897,5.88-2.783
				c1.092-0.489,4.661-1.986-0.566,0.195c0.879-0.367,1.764-0.72,2.648-1.074c3.968-1.587,7.989-3.033,11.945-4.649
				c14.564-5.949,28.383-13.378,42.605-20.062c1.598-0.75,3.208-1.472,4.819-2.19c5.288-2.361-3.19,1.239,2.188-0.94
				c3.282-1.331,6.632-2.47,9.976-3.636c8.018-2.794,15.926-5.852,23.68-9.317c10.458-4.675,19.513-11.452,28.518-18.438
				c10.598-8.222,20.803-16.893,31.1-25.481c8.42-7.023,15.575-15.464,20.509-25.302c3.969-7.913,4.467-15.952,0.266-23.915
				c-4.48-8.494-15.755-12.306-24.664-10.584c-6.103,1.179-10.212,5.639-14.18,9.98c-4.068,4.45-8.021,8.98-11.819,13.664
				c-8.23,10.148-15.833,20.814-22.658,31.954c-6.354,10.37-10.545,22.089-15.109,33.305c-0.799,1.928-0.917,2.226-0.353,0.896
				c-0.558,1.333-1.125,2.662-1.694,3.99c-0.897,2.097-1.886,4.147-2.93,6.175c-1.087,2.113-2.357,4.115-3.721,6.059
				c1.293-1.696,1.309-1.81,0.048-0.341c-0.73,0.805-4.062,3.015-0.536,0.63c7.985,2.078,15.972,4.156,23.957,6.234
				c-0.885-1.741-0.733-1.36,0.455,1.144c-1.268-3.787,0.13,4.07-0.112-0.021c-0.024-0.826-0.009-1.651,0.049-2.476
				c0.192-4.287-0.748,3.703,0.153-0.626c0.462-2.219,1.197-4.378,1.953-6.51c1.547-4.367-1.495,3.252,0.357-0.968
				c0.541-1.232,1.134-2.441,1.724-3.65c4.72-9.678,10.613-18.754,16.245-27.909c2.535-4.121,5.2-8.249,7.521-12.492
				c4.9-8.96,2.783-18.243-3.653-25.637c-9.266-10.645-25.188-5.357-35.289,0.511c-7.3,4.24-15.018,9.578-20.659,15.789
				c-10.83,11.923-8.675,26.152-1.775,39.342c4.355,8.325,9.59,16.01,13.753,24.481c1.298,2.64,2.529,5.31,3.727,7.997
				c2.343,5.261-1.215-3.179,0.869,2.174c0.636,1.633,1.198,3.291,1.757,4.951c0.928,2.756,1.654,5.571,2.308,8.402
				c0.393,1.699,0.666,3.421,0.936,5.142c-0.56-3.567,0.015,2.115,0.024,2.327c5.877-5.793,11.753-11.585,17.63-17.378
				c-12.149-0.709-24.203-2.649-36.394-2.612c-6.973,0.021-14.121,0.836-20.891,2.481c-2.829,0.687-5.622,1.532-8.437,2.275
				c-1.704,0.449-3.423,0.808-5.152,1.144c3.467-0.673-1.603-0.051-2.067-0.053c4.105,9.938,8.211,19.876,12.316,29.813
				c0.933-1.105,4.346-3.554,0.282-0.683c1.281-0.905,2.709-1.601,4.115-2.283c-4.646,2.258,0.554-0.149,1.64-0.519
				c1.679-0.57,3.392-1.038,5.102-1.503c7.379-2.005,15.021-3.487,22.551-4.787c10.588-1.828,21.297-2.775,31.824-4.978
				c10.171-2.127,19.826-5.922,30.104-7.713c5.885-1.025,10.879-6.743,12.353-12.282c4.453-16.743-6.008-31.667-13.257-45.835
				c-0.467-1.08-0.937-2.16-1.409-3.237c0.679,1.699,0.637,1.575-0.127-0.372c-0.322-0.832-1.664-7.068-1.24-3.09
				c0.069-2-0.03-2.102-0.299-0.304c0.242-1.146,0.588-2.259,1.038-3.339c-0.941,2.604,1.74-3.055,2.068-3.633
				c1.15-2.025,2.478-3.949,3.804-5.86c0.677-0.956,1.366-1.902,2.07-2.838c-0.928,1.236-0.756,1.035,0.516-0.605
				c1.371-1.737,2.771-3.453,4.164-5.172c0.586-0.723,4.778-5.113,1.416-2.593c-8.788-5.074-17.577-10.148-26.365-15.222
				c0.251,2.071,0.244,4.049,0.097,6.129c-0.228,2.029-0.234,2.131-0.021,0.306c-0.24,1.554-0.504,3.103-0.737,4.658
				c-0.678,4.876-0.831,5.992-0.462,3.349c-0.188,1.25-0.382,2.5-0.584,3.748c-0.495,3.116-1.046,6.224-1.593,9.331
				c-2.088,11.864-3.933,23.716-5.306,35.688c-1.3,11.337-1.498,22.095-0.01,33.427c0.752,5.733,2.75,11.353,5.642,16.345
				c1.042,1.8,2.326,3.478,3.513,5.182c0.589,0.845,1.151,1.708,1.688,2.587c2.474,3.923-0.685-3.263,0.434,0.966
				c7.175-7.137,14.35-14.274,21.524-21.411c-19.604-6.415-39.854-6.262-60.033-3.257c-9.456,1.407-14.631,13.013-12.374,21.433
				c2.681,10.008,12,13.778,21.433,12.374c12.134-1.807,28.26-1.195,41.732,3.214c12.842,4.202,24.783-9.08,21.524-21.411
				c-1.312-4.964-3.729-9.337-6.634-13.507c-1.188-1.704-2.335-3.408-3.377-5.206c0.759,2.174,0.797,2.206,0.114,0.097
				c-0.489-1.574-0.798-3.201-1.112-4.816c-0.336-2.085-0.354-2.195-0.058-0.331c-0.101-1.128-0.174-2.259-0.222-3.39
				c-0.152-2.855-0.063-5.723,0.05-8.578c0.2-5.042,0.785-10.069,1.359-15.079c0.275-2.407,0.539-4.814,0.844-7.219
				c-0.189,1.38-0.131,1.011,0.178-1.108c0.191-1.244,0.389-2.486,0.593-3.728c0.904-5.596,1.941-11.171,2.914-16.756
				c0.434-2.488,0.842-4.98,1.238-7.476c0.195-1.25,0.382-2.501,0.562-3.753c0.207-1.498,0.415-2.996,0.622-4.495
				c-0.291,2.023-0.276,2.006,0.044-0.052c0.902-5.582,2.111-11.338,1.426-17.007c-0.777-6.425-2.827-11.859-8.754-15.281
				c-4.94-2.853-12.772-3.568-17.611,0.06c-8.796,6.593-15.523,16.358-21.753,25.34c-7.74,11.16-11.712,23.188-9.263,36.711
				c1.574,8.69,6.588,17.073,10.829,24.745c0.86,1.557,1.688,3.13,2.501,4.712c0.411,0.813,0.812,1.631,1.2,2.455
				c2.007,4.179-1.335-3.611,0.293,0.633c0.606,1.58,1.05,3.207,1.436,4.852c0.354,1.965,0.303,1.556-0.152-1.229
				c0.265,3.723,1.031-3.802,0.124-0.391c4.117-4.094,8.235-8.188,12.353-12.282c-10.274,1.79-19.963,5.433-30.104,7.713
				c-11.096,2.494-22.502,3.367-33.698,5.3c-15.713,2.713-36.794,5.79-47.641,18.64c-4.071,4.822-6.156,10.513-4.461,16.839
				c2.01,7.503,8.995,12.943,16.778,12.975c6.778,0.027,13.446-1.431,19.95-3.211c2.735-0.748,5.462-1.495,8.234-2.096
				c2.192-0.351,2.52-0.401,0.98-0.152c1.843-0.2,3.697-0.272,5.548-0.349c12.771-0.527,25.509,1.83,38.229,2.572
				c9.145,0.533,18.068-8.201,17.63-17.378c-0.754-15.789-5.646-29.924-12.16-44.187c-4.502-9.854-10.04-18.755-15.395-28.109
				c-0.658-1.149-3.317-7.57-1.438-2.569c-0.405-1.077-0.66-2.191-0.896-3.313c0.129,0.853,0.259,1.705,0.388,2.559
				c0.077-1.871-0.003-1.342-0.239,1.586c-0.203,0.827-3.443,5.195-1.085,2.599c0.934-1.027,2.023-1.919,3.079-2.814
				c-3.226,2.737,0.162-0.072,0.78-0.518c0.944-0.683,1.898-1.354,2.844-2.037c2.451-1.772,5.01-3.386,7.652-4.861
				c0.906-0.506,1.841-0.956,2.778-1.4c-4.737,2.245-1.937,0.819-0.624,0.426c0.294-0.07,0.589-0.141,0.884-0.211
				c-2.003,0.557-3.995,0.519-5.976-0.113c-1.957-1.173-3.914-2.346-5.87-3.518c-2.942-6.461-4.025-8.126-3.248-4.996
				c0.007-3.05,0.015-6.1,0.021-9.15c1.015-4.447,1.182-2.497,0.012-0.563c-0.811,1.339-1.685,2.602-2.465,3.963
				c-2.5,4.364-5.191,8.62-7.843,12.893c-3.898,6.284-7.67,12.643-11.108,19.191c-8.223,15.657-14.385,33.861-5.634,50.644
				c4.205,8.065,16.338,11.39,23.957,6.234c13.147-8.896,18.713-22.584,24.543-36.688c5.119-12.388,10.569-24.562,19.238-37.46
				c7.56-11.248,15.361-21.452,26.102-32.019c-11.53,11.345-25.623-1.365-20.565-13.336c-0.491,1.162-1.193,2.254-1.833,3.336
				c-0.687,1.161-1.379,2.318-2.065,3.479c-2.64,4.466,2.015-2.131-1.319,1.884c-4.828,5.813-11.038,10.433-16.778,15.285
				c-5.813,4.914-11.658,9.785-17.607,14.533c-3.649,2.913-11.312,8.766-17.227,12.422c-2.937,1.816-6.03,3.371-9.139,4.864
				c-1.56,0.749-3.15,1.433-4.737,2.119c3.377-1.46-1.892,0.696-2.097,0.776c-7.081,2.733-14.332,4.98-21.369,7.833
				C84.501,134.383,70.698,141.807,56.5,148.5c-1.603,0.756-3.219,1.482-4.836,2.208c-0.111,0.05-5.483,2.305-2.218,0.971
				c-1.884,0.77-3.793,1.478-5.697,2.198c-4.842,1.831-9.63,3.799-14.384,5.85c-9.011,3.889-18.022,8.853-24.917,15.956
				c-9.464,9.751-12.3,24.571-4.341,36.188c20.565,30.018,67.037-4.5,72.435-30.387c3.701-17.748-5.321-35.09-22.632-40.977
				c-18.026-6.13-32.892,8.395-44.937,19.413c-9.074,8.301-17.193,17.723-22.319,28.976c-2.687,5.899-4.792,11.312-5.222,17.817
				c-0.853,12.911,12.614,22.365,24.577,19.159c15.799-4.233,19.375-23.47,22.697-36.95c0.38-1.542,0.863-3.049,1.366-4.554
				c-1.116,3.337,0.787-1.337,1.015-1.741c2.541-4.494-1.89,2.104,1.299-1.899c1.045-1.313,2.163-2.569,3.276-3.825
				c4.848-5.467,10.377-10.314,16.03-14.925c0.165-0.134,4.524-3.527,1.688-1.349c1.314-1.009,2.645-1.996,3.975-2.984
				c2.718-2.02,5.464-4.002,8.206-5.989c6.35-4.604,13.006-8.771,19.836-12.619c3.146-1.772,6.363-3.414,9.602-5.008
				c1.621-0.798,3.264-1.549,4.907-2.301c5.329-2.437-2.816,1.088,0.265-0.141c2.052-0.819,4.081-1.696,6.115-2.557
				c3.729-1.576-3.964,1.593,0.172-0.039c1.203-0.475,2.426-0.887,3.655-1.286c0.761-0.238,1.531-0.443,2.311-0.616
				c-2.905,0.233-3.48,0.332-1.725,0.297c-5.585-7.375-11.171-14.75-16.756-22.125c-0.122,0.544-1.666,5.093-0.163,1.62
				c-0.821,1.896-1.96,3.657-3.074,5.39c-2.245,3.49-4.928,6.701-7.389,10.037c0.029-0.039-3.459,4.593-1.55,2.088
				c-1.431,1.876-2.879,3.738-4.329,5.601c-2.9,3.727-5.831,7.429-8.751,11.14c-11.89,15.107-23.723,30.349-33.312,47.055
				c-4.747,8.27-1.868,19.129,6.405,23.905c8.918,5.149,18.285,1.29,23.905-6.405c8.257-11.306,11.239-24.441,12.474-38.143
				c0.559-6.196,0.748-12.433,0.986-18.648c0.12-3.139,0.297-6.272,0.545-9.403c0.125-1.576,0.309-3.146,0.498-4.716
				c-0.457,3.798,0.332-1.294,0.414-1.707c0.304-1.528,0.717-3.03,1.136-4.529c0.119-0.426,1.871-5.186,0.384-1.665
				c0.6-1.42,1.354-2.766,2.11-4.104c0.247-0.437,3.194-4.521,0.819-1.453c3.676-4.748,8.348-8.702,12.974-12.484
				c10.297-8.418,20.241-15.926,27.955-26.97c8.267-11.834-5.699-31.422-19.685-25.654c-6.802,2.806-11.983,6.559-16.76,12.126
				c-3.632,4.234-7.283,8.385-11.047,12.508c-9.438,10.336-18.569,20.945-28.184,31.12c-3.813,4.035-7.587,8.12-11.443,12.112
				c-0.703,0.718-1.421,1.419-2.156,2.104c-3.501,3.339,2.848-1.8-0.943,0.841c-1.238,0.862-4.619,1.684-0.348,0.366
				c1.015-0.313,5.591,0.401,2.072-0.342c-0.987-0.244-1.96-0.538-2.917-0.883c3.481,1.15-1.12-0.551-1.582-0.779
				c-2.574-1.27-5.042-2.76-7.529-4.189c-2.138-1.229-4.383-2.279-6.572-3.415c-1.375-0.713-2.7-1.5-4.017-2.314
				c3.032,1.876-0.214-0.295-0.852-0.969c0.044,8.251,0.089,16.501,0.133,24.752c6.745-6.305,13.507-12.585,20.609-18.488
				c0.901-0.743,1.809-1.479,2.723-2.207c-1.286,0.983-1.095,0.842,0.572-0.425c1.853-1.403,3.757-2.734,5.672-4.05
				c3.791-2.604,7.764-4.923,11.842-7.044c-8.006-7.949-16.011-15.897-24.017-23.846c-0.385,0.73-2.691,4.125-0.156,0.838
				c-1.194,1.548-2.602,2.936-3.983,4.313c-2.845,2.836-5.97,5.396-8.998,8.033c-7.106,6.188-13.498,13.287-20.038,20.061
				c-6.682,6.92-13.307,13.896-19.951,20.854c-6.123,6.412-13.414,12.389-18.051,20.02c-4.068,6.694-2.657,15.759,2.846,21.192
				c7.336,7.244,17.337,5.869,24.752-0.133c11.294-9.142,21.689-19.32,32.985-28.474c6.188-5.014,8.598-6.851,15.293-11.839
				c5.892-4.39,11.888-8.637,17.945-12.795c11.999-8.235,24.29-16.081,37.164-22.88c12.571-6.639,25.479-12.617,37.444-20.344
				c6.582-4.25,10.123-11.858,8.042-19.625c-2.503-9.342-12.176-14.673-21.433-12.375c-9.393,2.333-18.386,9.036-26.673,13.877
				c-8.244,4.816-16.419,9.748-24.583,14.697c-16.311,9.886-32.055,20.508-47.26,32.027c-15.129,11.461-29.58,23.696-44.171,35.818
				c-13.906,11.554-28.022,23.052-39.638,36.998c-5.081,6.1-6.883,13.956-2.653,21.171c5.062,8.634,15.433,10.495,23.957,6.234
				c7.7-3.849,14.028-12.394,19.979-18.461c5.967-6.084,11.924-12.179,18.129-18.021c13.313-12.538,23.129-20.211,37.756-29.984
				c13.55-9.055,27.856-16.585,42.672-23.322c0.351-0.159,5.331-2.266,1.719-0.816c0.722-0.29,7.017-1.854,3.306-1.395
				c0.32-0.039,5.358,0.369,2.299-0.144c2.247,0.377,4.416,1.153,6.542,1.944c-3.115-1.159,1.888,1.129,2.02,1.199
				c2.915,1.55,5.511,2.963,8.622,4.225c2.08,0.845,4.164,1.438,6.344,1.966c1.046,0.238,2.087,0.499,3.122,0.782
				c1.941,0.618,1.999,0.628,0.175,0.028c-1.23-9.155-2.462-18.31-3.692-27.465c-6.976,6.885-12.346,15.249-17.709,23.399
				c-5.76,8.755-11.219,17.641-16.058,26.942c-4.317,8.302-7.757,16.985-12.533,25.053c-5.451,9.206-12.542,16.596-12.879,27.966
				c-0.181,6.129,3.42,12.31,8.754,15.281c14.632,8.152,29.475-0.932,40.093-11.184c9.904-9.563,16.217-22.22,21.951-34.549
				c6.964-14.974,12.334-30.528,18.219-45.93c6.085-15.924,11.764-33.828,5.685-50.67c-5.34-14.796-23.059-17.166-32.059-4.221
				c-14.713,21.163-14.637,47.091-17.142,71.714c-0.569,5.598-1.195,11.19-1.891,16.774c-0.173,1.394-0.356,2.787-0.542,4.18
				c-0.417,3.133,0.608-4.214-0.094,0.61c-0.375,2.577-0.79,5.149-1.233,7.716c-0.736,4.256-1.592,8.503-2.786,12.655
				c-0.229,0.796-0.49,1.582-0.762,2.363c-1.182,3.4,1.763-3.907,0.737-1.737c-0.234,0.495-0.517,0.962-0.82,1.417
				c3.037-4.544,7.112-6.892,13.342-7.388c5.593,4.325,11.186,8.649,16.777,12.975c-0.414-1.4-0.778-2.798-1.103-4.222
				c-0.148-0.653-0.785-5.495-0.308-1.261c-0.35-3.096-0.355-6.225-0.291-9.334c0.067-3.231,0.404-6.455,0.797-9.66
				c-0.445,3.63,0.355-1.726,0.405-2c0.289-1.623,0.637-3.235,0.982-4.847c1.346-6.262,3.17-12.419,5.176-18.497
				c0.918-2.779,1.92-5.53,2.945-8.271c0.149-0.396,1.996-4.804,0.671-1.746c0.871-2.011,1.847-3.974,2.835-5.929
				c2.937-5.805,6.493-11.28,10.337-16.521c-2.13,2.903,1.1-1.318,1.277-1.537c1.021-1.255,2.086-2.473,3.15-3.691
				c2.486-2.844,5.133-5.543,7.831-8.185c3.42-3.351,7.092-6.404,10.691-9.553c0.605-0.529,1.222-1.043,1.839-1.558
				c2.777-2.319-3.428,2.564-0.338,0.237c0.842-0.635,1.719-1.219,2.602-1.794c0.531-0.337,1.075-0.65,1.634-0.938
				c-1.979,1.125-4.112,1.669-6.398,1.634c-4.99-2.881-9.979-5.762-14.97-8.643c2.132,2.932,4.217,5.86,5.978,9.033
				c2.345,4.225-0.975-3.37,0.47,1.313c0.414,2,0.482,2.04,0.205,0.116c0.068,1.186,0.077,2.372,0.027,3.559
				c-0.145,8.729-2.328,17.302-2.701,26.021c-0.814,19.034-0.513,38.101-0.504,57.146c11.669,0.084,23.339,0.168,35.008,0.252
				c-0.24-15.559-5.156-29.996-4.856-43.099c0.269-11.687,4.915-25.66,10.021-38.523c1.685-4.243,4.386-10.16,7.271-16.214
				c3.254-6.83,6.683-13.576,10.18-20.285c6.981-13.396,14.382-26.57,21.801-39.726c-10.687-1.407-21.373-2.814-32.059-4.221
				c0.002,0.012,0.004,0.025,0.006,0.037c2.247,12.773,21.054,17.392,29.347,7.78c5.38-6.235,11.004-15.643,12.962-23.608
				c2.277-9.265-2.893-18.929-12.261-21.502c-9.928-2.728-18.041,3.395-21.503,12.261c0.114-0.294-2.208,5.426-1.108,2.833
				c-0.728,1.717-1.5,3.414-2.271,5.112c-1.536,3.38-3.186,6.708-4.857,10.022c-3.366,6.677-6.986,13.225-10.592,19.773
				c-7.365,13.375-15.354,26.417-21.911,40.221c-3.885,8.178-6.476,15.67-7.652,24.626c-1.021,7.776,0.527,16.146,1.868,23.765
				c2.483,14.121,5.323,28.503,14.626,39.828c9.829,11.967,30.068,1.883,29.813-12.316c-0.161-8.977-1.979-17.738-4.401-26.345
				c-1.063-3.78-2.167-7.545-3.109-11.358c-0.544-2.199-0.956-4.424-1.325-6.658c-0.319-2.15-0.352-2.4-0.098-0.751
				c-0.126-1.202-0.233-2.406-0.322-3.612c-0.687-8.437-0.288-16.938,0.632-25.338c0.557-5.077,3.026-16.454,5.131-24.136
				c2.249-8.211,5.038-16.27,8.041-24.232c0.218-0.577,2.455-6.165,0.58-1.691c0.282-0.667,0.598-1.318,0.945-1.953
				c-1.01,1.59-2.342,2.842-3.995,3.754c-3.049,1.073-3.605,1.352-1.669,0.837c-2.675,0.293-2.878,0.408-0.609,0.345
				c0.989,0.015,1.977,0.068,2.962,0.161c-2.145-0.316-2.271-0.247-0.377,0.206c-0.62-0.176-4.649-3.184-2.783-1.448
				c0.946,0.88,1.783,1.881,2.616,2.866c-3.276-3.875-0.647-0.809-0.017,0.077c0.963,1.352,1.836,2.765,2.696,4.183
				c0.656,1.083,1.248,2.202,1.838,3.321c0.379,0.738,0.74,1.484,1.085,2.239c-0.993-2.481-1.146-2.821-0.463-1.02
				c0.502,1.35,0.841,2.745,1.119,4.154c-0.307-3.066-0.438-3.693-0.391-1.881c0.023-2.012,0.56-3.877,1.607-5.596
				c7.969-2.135,15.937-4.271,23.905-6.405c-20.907-8.756-43.758-8.167-65.744-4.281c-9.059,1.602-17.979,3.989-27.091,5.251
				c-9.088,1.259-16.961,3.321-24.239,9.229c-11.771,9.554-2.032,30.563,12.316,29.814c13.468-0.703,26.96-0.04,40.429-0.74
				c14.783-0.769,29.351-3.989,43.933-6.331c11.802-1.896,23.646-4.102,35.226-7.097c5.768-1.492,11.738-3.63,16.713-6.945
				c7.308-4.869,15.059-13.988,11.515-23.522c-4.799-12.91-13.293-23.167-25.929-29.011c-12.163-5.624-25.105-7.891-38.395-8.92
				c-27.482-2.13-55.057,3.196-81.424,10.511c-9.191,2.55-14.86,12.157-12.374,21.433c2.499,9.327,12.181,14.694,21.433,12.375
				c1.688-0.423,3.065-0.788,4.774-1.92c6.545-4.333,10.142-11.793,8.043-19.625c-2.501-9.332-12.181-14.688-21.434-12.375
				c-7.54,1.886-17.898,3.508-23.355,9.412c-8.129,8.794-5.836,26.917,7.821,29.191c0.589,0.098,1.177,0.196,1.765,0.294
				c7.872,1.311,15.545-0.802,19.776-8.132c5.18-8.971,1.242-18.22-6.405-23.905c-9.352-6.953-21.262-5.789-31.777-9.374
				c-7.094-2.419-15.015-2.379-22.423-2.588c-7.46-0.21-14.922,0.073-22.342,0.863c-12.25,1.303-24.278,3.399-35.538,8.528
				C-1.006,1.515-7.833,23.312,5.894,35.508c9.989,8.874,26.217,10.947,38.859,13.375c15.122,2.906,30.389,5.583,45.813,4.237
				c8.233-0.718,16.412-2.076,24.593-3.219c-4.277,0.598,4.369-0.578,5.468-0.725c-3.009,0.402,3.296-0.41,3.042-0.378
				c3.854-0.478,7.712-0.934,11.568-1.399c16.342-1.97,32.699-4.004,48.763-7.671c12.847-2.934,17.24-20.43,7.78-29.346
				c-21.887-20.631-55.286-13.337-81.939-8.364C83.484,6.936,57.251,13.201,31.417,20.35c-25.92,7.173-51.246,16-76.665,24.734
				c-25.172,8.649-50.722,17.56-73.556,31.467c-15.26,9.294-8.329,31.552,8.735,32.6c11.363,0.697,23.782-4.215,34.685-7.067
				c11.234-2.939,22.418-6.066,33.608-9.167c23.06-6.389,46.133-12.556,69.696-16.829c5.688-1.032,11.4-1.922,17.124-2.729
				c2.187-0.293,2.542-0.344,1.066-0.152c1.272-0.158,2.545-0.31,3.819-0.455c3.183-0.371,6.372-0.678,9.563-0.967
				c11.512-1.043,23.077-1.432,34.634-1.261c24.563,0.365,45.135,3.976,68.958,8.005c6.34,1.072,12.331,0.221,17.063-4.572
				c4.113-4.166,6.41-11.109,4.461-16.839c-3.473-10.211-10.877-14.89-21.161-16.226c-5.298-0.688-11,0.31-16.352,0.31
				c-14.205,0-28.409-0.031-42.612,0.266c-27.893,0.584-55.782,2.454-83.479,5.833c-28.13,3.433-55.977,8.52-83.326,15.989
				c-23.486,6.414-49.115,11.758-70.012,24.731c-12.367,7.677-11.028,28.441,4.241,31.978c21.604,5.004,45.341,5.248,67.345,3.438
				c23.636-1.944,46.697-7.301,69.524-13.516c22.178-6.039,44.385-12.066,66.456-18.487c11.233-3.268,22.399-6.759,33.473-10.531
				c11.238-3.828,21.818-7.66,31.148-15.182c5.937-4.787,6.39-15.062,2.653-21.171c-10.685-17.472-33.746-21.859-52.627-19.433
				c-5.797,0.745-11.497,1.715-17.222,2.881c-2.392,0.488-4.783,0.973-7.18,1.433c-0.617,0.119-7.266,1.14-4.32,0.784
				c-4.859,0.587-9.79,0.501-14.673,0.371c-2.407-0.064-4.807-0.245-7.205-0.451c-2.095-0.255-2.37-0.262-0.824-0.022
				c-1.178-0.175-2.352-0.374-3.522-0.595c-9.673-1.73-19.072-5.333-28.524-7.982c-9.602-2.691-19.304-5.003-29.122-6.759
				c-16.567-2.963-38.452-6.925-48.267,11.061c-6.921,12.683,4.605,30.646,19.685,25.654c6.676-2.21,12.686-5.653,19.038-8.573
				c2.689-1.236,5.331-2.583,8.014-3.833c1.079-0.5,2.161-0.992,3.247-1.477c0.094-0.042,5.482-2.352,2.235-1.007
				c5.504-2.28,11.136-4.224,16.859-5.873c2.86-0.824,5.763-1.482,8.675-2.088c1.169-0.233,2.341-0.446,3.518-0.639
				c5.708-0.987-3.322,0.267,2.463-0.301c4.054-0.397,8.157-0.418,12.228-0.348c1.896,0.033,3.789,0.144,5.68,0.282
				c0.789,0.063,1.576,0.138,2.362,0.224c4.155,0.425-3.87-0.651,0.249,0.07c1.938,0.339,3.836,0.846,5.714,1.425
				c1.775,0.641,1.455,0.469-0.963-0.515c1,0.425,1.938,0.968,2.87,1.52c1.538,1.04,1.181,0.756-1.07-0.852
				c1.145,0.965,2.494,3.5-0.198-0.513c1.938,2.89-1.076-4.208-0.154,0.172c0.303,1.441,0.446,2.917,0.741,4.362
				c0.899,4.401,4.351,8.431,8.154,10.626c5.932,3.425,11.653,2.474,17.611-0.06c-3.473,1.477,1.794-0.176,2.132-0.256
				c1.684-0.396,3.404-0.67,5.104-0.986c3.487-0.649,6.778-1.673,10.113-2.867c8.18-2.93,16.165-6.496,23.99-10.264
				c6.373-3.07,12.629-6.382,18.908-9.638c3.188-1.652,6.386-3.285,9.598-4.89c1.655-0.828,3.327-1.606,5.016-2.364
				c-2.693,1.208,3.366-1.084,3.977-1.277c1.61-0.508,3.257-0.881,4.903-1.249c5.181-1.155-3.379,0.15,1.832-0.3
				c1.614-0.139,3.236-0.103,4.854-0.063c5.116,0.125-3.109-0.756,2.004,0.167c6.157,1.112,8.59,2.573,14.388,6.197
				c1.103,0.689,6.851,4.963,2.911,1.859c0.937,0.738,1.814,1.543,2.686,2.355c0.845,0.787,3.205,3.835,0.166-0.214
				c1.025,1.366,1.552,4.028-0.066-0.832c-2.261-6.791,4.782-14.772,12.02-14.938c-3.52,0.081-7.024-0.473-10.595-0.294
				c-14.313,0.716-29.327-3.537-45.616-2.964c-15.689,0.553-30.542,4.377-45.375,9.158c-1.502,0.484-3.03,0.836-4.573,1.16
				c4.307-0.904-2.658-0.908,2-0.014c-1.394-0.268-2.75-0.844-4.068-1.348c3.617,1.382-0.843-0.441-1.32-0.655
				C72.895,5.97,64.381,3.877,55.851,1.658C40.063-2.451,23.416-2.151,7.249-1.718C2.345-1.586-2.557-1.462-7.462-1.445
				c-9.533,0.032-17.566,7.773-17.63,17.378C-25.155,25.394-17.249,33.595-7.714,33.563L-7.714,33.563z"/>
		</g>
	</g>
</g>
<g id="Layer_1">
	<g>
		<g>
			<path fill="#FFFFFF" d="M102.48,45.171c-20.589,0.017-44.06,0.293-61.269,13.203c-8.661,6.497-12.451,18.306-16.923,27.743
				c-2.569,5.42-5.91,10.53-8.014,16.153c-1.716,4.587,0.143,9.157,2.577,13.053c2.699,4.32,6.502,7.859,9.388,12.054
				c3.5,5.086,6.916,10.192,11.101,14.753c8.739,9.522,21.682,11.147,33.161,15.7c13.987,5.548,27.908,11.265,41.623,17.459
				c11.184,5.05,21.611,13.604,33.883,15.745c0.521,0.091,1.381-0.069,1.551-0.67c2.024-7.167,0.197-15.306-0.589-22.55
				c-0.996-9.189-2.162-18.36-3.104-27.557c-1.972-19.27-2.927-38.625-3.329-57.986c-0.22-10.524,3.698-26.6-10.674-28.496
				c-14.139-1.865-28.573,3.421-42.241,6.159c-1.198,0.24-0.884,1.308,0.287,1.073c13.461-2.696,28.382-8.449,42.283-5.836
				c8.173,1.536,8.59,8.902,8.627,15.83c0.041,7.721-0.161,15.404,0.074,23.132c0.493,16.232,1.589,32.455,3.242,48.61
				c0.807,7.883,1.794,15.746,2.684,23.62c0.869,7.685,2.939,16.641,0.8,24.215c0.517-0.224,1.034-0.446,1.551-0.67
				c-11.106-1.938-20.063-9.464-30.113-14.05c-11.991-5.471-24.119-10.604-36.339-15.541c-5.003-2.021-9.987-4.147-15.094-5.897
				c-6.19-2.12-12.544-3.553-18.391-6.591c-9.955-5.173-14.969-16.12-21.642-24.521c-3.15-3.966-6.639-7.565-8.837-12.193
				c-3.068-6.457,0.866-12.357,3.854-17.974c5.228-9.823,8.958-20.512,15.391-29.657c6.792-9.657,21.061-13.294,32.003-15.175
				c10.463-1.798,21.166-1.942,31.753-1.951C102.536,46.358,103.788,45.17,102.48,45.171L102.48,45.171z"/>
		</g>
	</g>
	<g>
		<g>
			<path fill="#FFFFFF" d="M92.034,52.44c-9.508,3.458-18.636,7.742-27.267,13.028c-8.542,5.232-15.559,12.69-24.421,17.375
				c-1.15,0.608,0.577,0.874,1.192,0.549c8.348-4.413,15.066-11.277,22.938-16.435c8.792-5.761,18.457-10.165,28.314-13.75
				C94.063,52.744,92.895,52.127,92.034,52.44L92.034,52.44z"/>
		</g>
	</g>
	<g>
		<g>
			<path fill="#FFFFFF" d="M39.303,59.772c-8.579,8.146-12.208,26.587,0.213,33.028c3.017,1.564,13.744-2.954,9.321-5.247
				c-8.792-4.559-6.541-20.53-0.375-26.383C53.205,56.666,41.741,57.457,39.303,59.772L39.303,59.772z"/>
		</g>
	</g>
	<g>
		<g>
			<path fill="#FFFFFF" d="M118.392,23.227C78.609,37.093,43.633,59.547,11.159,86.085C6.027,90.279,8.693,96.46,14.35,97.993
				c7.333,1.987,14.862-0.891,20.491-5.49c13.652-11.156,28.042-21.455,43.068-30.677c13.771-8.452,30.887-16.841,44.995-21.758
				c4.702-1.639,14.047-5.532,12.233-12.303C133.452,21.48,123.089,21.589,118.392,23.227L118.392,23.227z"/>
		</g>
	</g>
	<g>
		<g>
			<path d="M90.381,15.038c-19.74-0.44-40.91,11.187-50.321,28.469c-3.063,5.624-5.694,11.349-9.256,16.694
				c-3.342,5.016-7.609,10.888-7.875,17.156c-0.443,10.458,7.48,17.954,15.618,23.168c8.367,5.361,17.902,8.742,25.899,14.702
				c9.172,6.836,16.845,15.367,29.051,15.264c5.554-0.047,11.102-1.419,16.496-2.6c5.624-1.23,11.75-1.556,17.206-3.368
				c2.868-0.953,4.603-3.308,5.846-5.923c3.261-6.859,4.595-15.147,6.688-22.434c2.938-10.225,7.574-19.904,6.449-30.706
				c-1.112-10.671-1.264-20.312-7.346-29.568c-4.621-7.033-12.275-12.583-19.822-16.11c-9.128-4.266-17.441-5.072-27.375-5.041
				c-0.576,0.002-2.103,0.876-0.812,0.872c7.835-0.025,14.81,0.277,22.213,3.058c7.06,2.651,13.433,6.902,18.974,11.974
				c11.149,10.206,11.547,24.885,12.548,38.892c0.561,7.851-3.479,15.881-5.678,23.287c-2.341,7.878-4.482,15.813-6.844,23.685
				c-0.853,2.844-2.228,5.642-4.885,7.181c-2.77,1.604-7.545,1.47-10.685,2.069c-7.385,1.411-14.616,3.494-22.164,3.86
				c-13.598,0.66-22.802-12.326-33.528-18.69c-8.751-5.192-18.34-8.846-26.308-15.312c-3.912-3.174-6.937-7.192-8.682-11.921
				c-2.604-7.06,0.684-13.86,4.331-19.829c3.314-5.424,6.737-10.563,9.594-16.267c3.328-6.643,6.873-12.778,12.597-17.635
				c9.729-8.256,23.968-14.348,36.835-14.061C89.605,15.914,91.372,15.06,90.381,15.038L90.381,15.038z"/>
		</g>
	</g>
	<g>
		<g>
			<path d="M58.796,56.17c-0.13,6.65-3.058,20.115,6.563,21.691c6.844,1.122,8.786-6.481,9.197-11.516
				c0.496-6.072,2.203-15.849-1.701-21.142c-1.502-2.037-5.005-2.38-7.059-1.041c-1.076,0.702-2.85,1.808-3.177,3.184
				c-0.859,3.613-2.436,6.052-4.642,8.968c-0.55,0.728,1.408,0.607,1.809,0.077c1.728-2.284,3.282-3.304,4.16-6.021
				c0.08-0.563,0.16-1.125,0.24-1.688c3.626-4.021,6.137-4.584,7.532-1.692c0.393,0.72,0.567,1.576,0.762,2.363
				c1.208,4.866,0.634,10.294,0.292,15.241c-0.328,4.728-1.866,17.063-9.637,10.564c-4.966-4.152-2.511-13.648-2.402-19.21
				C60.75,55.097,58.81,55.487,58.796,56.17L58.796,56.17z"/>
		</g>
	</g>
	<g>
		<g>
			<path d="M111.151,44.553c-1.271,9.478-4.646,18.679-4.651,28.336c-0.003,4.112,3.494,7.666,7.211,4.538
				c5.609-4.722,7.978-13.522,8.414-20.472c0.193-3.075,1.036-8.471-0.773-11.26c-1.15-1.772-5.225-1.206-6.843-1.208
				c-0.406,0-2.202,0.791-1.252,0.792c2.229,0.003,5.695-0.598,6.675,1.955c0.936,2.437,0.344,6.026,0.315,8.541
				c-0.075,6.667-1.938,12.564-5.304,18.229c-1.835,3.089-4.995,5.049-6.287,0.483c-0.827-2.923,0.004-6.663,0.438-9.566
				c1.049-7.021,3.046-13.858,3.988-20.885C113.115,43.795,111.23,43.962,111.151,44.553L111.151,44.553z"/>
		</g>
	</g>
	<g>
		<g>
			<path d="M73.836,122.599c0.367,0,2.187-0.727,1.27-0.727C74.738,121.872,72.918,122.599,73.836,122.599L73.836,122.599z"/>
		</g>
	</g>
	<g>
		<g>
			<path d="M83.672,127.564c-0.492-1.882-6.65-19.295,1.111-15.053c5.218,2.852,8.093,12.647,9.898,17.924
				c0.156,0.455,1.816-0.032,1.92-0.425c0.874-3.306,0.506-20.354,5.381-19.534c5.313,0.894,5.897,12.434,6.522,16.43
				c0.07,0.451,1.877-0.032,1.932-0.518c0.303-2.686-1.122-19.749,4.027-17.486c4.838,2.125,6.799,11.859,7.276,16.533
				c0.644-0.173,1.288-0.345,1.932-0.518c-0.623-5.098-4.882-13.733-0.936-18.152c2.85-3.19,7.275,11.206,7.239,13.081
				c-0.007,0.331,1.921,0.061,1.932-0.518c0.081-4.203-2.945-15.192-8.892-13.6c-7.512,2.013-1.855,14.962-1.275,19.706
				c0.049,0.403,1.985,0.011,1.932-0.518c-0.473-4.619-3.397-18.765-10.462-17.116c-7.095,1.655-4.129,13.985-4.705,19.104
				c0.644-0.173,1.288-0.345,1.932-0.518c-0.689-4.41-1.616-18.27-8.896-16.764c-7.676,1.588-5.319,14.938-6.847,20.718
				c0.64-0.142,1.28-0.283,1.92-0.425c-2.075-6.066-6.07-20.199-14.612-18.58c-7.22,1.368-1.296,12.785-0.26,16.744
				C81.859,128.537,83.792,128.025,83.672,127.564L83.672,127.564z"/>
		</g>
	</g>
	<g>
		<g>
			<path d="M97.916,81.766c-2.112,5.016-10.153,11.33-7.959,17.342c1.279,3.505,7.335,2.168,9.848,1.48
				c2.75-0.753,10.174-2.179,11.023-5.639c0.548-2.23-1.242-4.181-2.689-5.667c-2.759-2.832-6.319-4.728-7.997-8.481
				c-0.305-0.683-2.2-0.083-1.932,0.518c1.687,3.776,5.207,5.984,8.135,8.725c1.923,1.799,4.035,4.581,1.166,6.591
				c-1.883,1.319-4.419,1.814-6.574,2.512c-4.316,1.398-10.61,2.163-9.03-4.381c1.173-4.861,5.996-8.616,7.941-13.235
				C100.112,80.902,98.185,81.126,97.916,81.766L97.916,81.766z"/>
		</g>
	</g>
	<g>
		<g>
			<path d="M58.295,55.821c-3.568-0.752-6.735-2.792-9.822-4.646c-0.551-0.331-2.333,0.466-1.534,0.945
				c3.204,1.924,6.474,3.984,10.178,4.766C57.743,57.017,59.399,56.054,58.295,55.821L58.295,55.821z"/>
		</g>
	</g>
	<g>
		<g>
			<path d="M60.54,53.85c-3.012-1.494-6.224-2.871-8.11-5.804c-0.318-0.494-2.198,0.114-1.801,0.731
				c1.932,3.004,5.278,4.432,8.361,5.961C59.51,54.996,61.294,54.224,60.54,53.85L60.54,53.85z"/>
		</g>
	</g>
	<g>
		<g>
			<path d="M61.706,51.458c-2.847-1.153-6.677-2.996-5.973-6.688c0.15-0.787-1.804-0.471-1.937,0.225
				c-0.77,4.038,3.219,6.15,6.381,7.431C60.789,52.673,62.543,51.796,61.706,51.458L61.706,51.458z"/>
		</g>
	</g>
	<g>
		<g>
			<path d="M122.167,50.726c3.523-1.244,5.395-5.249,6.2-8.65c0.116-0.491-1.789-0.192-1.91,0.32
				c-0.634,2.676-2.136,6.817-4.978,7.82C120.184,50.673,121.405,50.995,122.167,50.726L122.167,50.726z"/>
		</g>
	</g>
	<g>
		<g>
			<path d="M120.733,52.308c3.589,0.544,11.978-1.162,11.174-6.213c-0.059-0.371-2.006,0.049-1.932,0.518
				c0.61,3.84-4.675,5.415-7.65,4.963C121.878,51.507,120.23,52.231,120.733,52.308L120.733,52.308z"/>
		</g>
	</g>
	<g>
		<g>
			<path d="M121.335,54.124c5.373,2.231,12.149,2.133,15.271-3.506c0.219-0.395-1.622-0.238-1.918,0.295
				c-2.547,4.6-7.554,4.136-11.789,2.376C122.411,53.086,120.643,53.835,121.335,54.124L121.335,54.124z"/>
		</g>
	</g>
	<g>
		<g>
			<path d="M53.505,109.847c1.072,4.73,4.357,8.222,7.37,11.865c4.115,4.975,7.056,10.978,10.35,16.503
				c7.365,12.354,11.585,25.502,14.339,39.573c0.144,0.735,2.082,0.251,1.932-0.518c-2.391-12.218-5.668-24.614-11.88-35.507
				c-3.375-5.92-6.898-11.811-10.545-17.567c-3.191-5.039-8.261-8.813-9.633-14.867C55.269,108.59,53.333,109.089,53.505,109.847
				L53.505,109.847z"/>
		</g>
	</g>
	<g>
		<g>
			<path d="M77.79,147.271c-8.886-14.915-26.512-24.307-43.294-16.951c-1.171,0.514,0.646,0.513,1.126,0.303
				c15.692-6.879,32.254,3.77,40.236,17.166C76.159,148.294,77.97,147.572,77.79,147.271L77.79,147.271z"/>
		</g>
	</g>
	<g>
		<g>
			<path d="M82.002,153.542c5.535-3.807,9.92-8.752,14.374-13.723c2.646-2.953,5.387-5.79,8.426-8.342
				c4.498-3.776,8.939-4.637,14.577-4.613c0.677,0.003,2.074-1.019,0.771-1.023c-8.072-0.035-13.069,1.906-19.15,7.344
				c-7.186,6.424-12.498,14.574-20.531,20.098C79.592,153.886,81.543,153.857,82.002,153.542L82.002,153.542z"/>
		</g>
	</g>
	<g>
		<g>
			<path d="M34.948,130.896c-4.355-2.426-9.083-2.184-13.92-2.132c-0.689,0.008-2.072,1.059-0.762,1.059c1.961,0,3.921,0,5.882,0
				c0.688,0,2.078-1.028,0.762-1.059c-4.858-0.109-8.857,1.315-12.16,4.932c-0.321,0.352,0.271,0.539,0.516,0.539
				c0.932,0,1.863,0,2.794,0c2.738,0,1.355-0.206,1.193-0.118c-2.797,1.52-5.49,3.188-8.394,4.507
				c-0.542,0.246-0.889,0.931-0.005,0.905c2.766-0.082,11.496-2.106,10.887,2.539c-0.105,0.802,1.719,0.264,1.929-0.254
				c0.649-1.924,1.898-3.361,3.748-4.312c-0.498,0.035-0.995,0.069-1.493,0.104c0.271,0.648,0.543,1.297,0.815,1.945
				c0.148,0.562,1.271,0.166,1.56,0.009c3.812-2.072,4.679-6.089,5.37-10.101c0.124-0.72-1.819-0.38-1.929,0.254
				c-0.598,3.474-1.192,7.442-4.63,9.312c0.52,0.003,1.04,0.006,1.56,0.009c-0.395-1.49-0.176-1.037-0.95-2.172
				c-0.269-0.394-1.202-0.07-1.493,0.104c-2.127,1.277-3.547,2.779-4.488,5.101c0.643-0.085,1.286-0.169,1.929-0.254
				c0.397-3.028-2.167-3.566-4.665-3.748c-1.84-0.134-3.748,0.125-5.578,0.291c-1.22,0.11-0.011,0.184,1.362-0.525
				c2.31-1.192,4.482-2.604,6.822-3.75c0.538-0.263,0.894-0.905,0.005-0.905c-1.406,0-2.813,0-4.219,0
				c0.62-0.616,1.241-1.233,1.861-1.851c2.171-1.219,4.468-1.72,6.89-1.503c0.254-0.353,0.508-0.706,0.762-1.059
				c-1.961,0-3.921,0-5.882,0c-0.254,0.353-0.508,0.706-0.762,1.059c4.562-0.05,9.005-0.316,13.139,1.985
				C33.935,132.104,35.722,131.327,34.948,130.896L34.948,130.896z"/>
		</g>
	</g>
	<g>
		<g>
			<path d="M86.334,175.988c-10.905,0.37-21.674,2.094-32.5,3.325c-5.13,0.584-10.308,0.486-15.441,1.086
				c-4.248,0.496-8.771,2.774-13.061,1.808c-0.134,0.409-0.269,0.819-0.403,1.229c3.17-0.623,6.537-0.941,9.538,0.517
				c6.758,3.284-0.504,10.585-4.866,11.494c0.36,0.232,0.721,0.465,1.081,0.698c2.313-5.358,7.82-6.646,13.149-6.485
				c2.666,0.081,11.754,5.78,5.476,7.846c0.376,0.118,0.753,0.235,1.13,0.354c-1.253-5.006,5.766-5.651,9.224-5.863
				c2.314-0.142,4.148,0.51,6.158,1.656c0.818,0.497,1.58,1.07,2.287,1.719c2.738,2.415-1.838,0.311-0.904,3.311
				c-2.516-8.075,13.224-8.181,17.806-7.551c0.23-0.439,0.461-0.879,0.691-1.318c-0.49,0-0.98,0-1.471,0
				c-0.377,0-1.817,0.422-1.233,1.071c0.782,0.872,1.713,1.521,2.668,2.196c0.997,0.704,1.933,1.437,2.754,2.342
				c-1.046-1.154-2.006,5.196-3.354,0.379c-2.066-7.378,7.935-9.234,13.047-10.007c6.184-0.935,13.996-1.62,18.402,3.647
				c3.521,4.211-4.345,3.426-6.051,2.536c-3.068-1.6-1.604-5.001,0.011-6.881c2.284-2.659,6.865-3.628,10.045-4.601
				c4.079-1.248,7.542-2.441,11.885-2.232c2.866,0.138-0.311,2.11-1.522,2.032c-1.018-0.065-2.018-0.336-3.002-0.583
				c-3.571-0.896-7.003-2.402-10.398-3.8c-9.76-4.018-20.347-1.543-30.556-1.395c-1.066,0.016-1.515,1.338-0.197,1.318
				c8.687-0.126,17.733-2.133,26.304,0.033c3.452,0.872,6.771,2.736,10.122,3.944c3.186,1.149,13.028,4.412,12.285-2.249
				c-0.03-0.271-0.408-0.374-0.62-0.4c-7.333-0.936-14.446,1.615-21.165,4.365c-3.347,1.37-10.359,7.06-5.542,10.846
				c2.5,1.964,8.824,3.668,10.777-0.047c2.852-5.422-7.864-8.176-11.104-8.376c-7.788-0.481-26.611,0.735-24.652,12.365
				c0.6,3.561,3.567,5.063,6.381,2.787c4.488-3.632-2.743-6.82-4.742-9.046c-0.411,0.357-0.822,0.714-1.233,1.071
				c0.49,0,0.98,0,1.471,0c0.82,0,2.055-1.131,0.691-1.318c-6.423-0.883-23.377-0.073-20.135,10.33
				c0.108,0.349,0.551,0.437,0.867,0.4c2.245-0.254,5.787-0.832,4.988-3.878c-0.75-2.856-5.508-5.306-8.134-5.813
				c-4.654-0.897-16.554,0.438-14.78,7.524c0.11,0.441,0.792,0.465,1.13,0.354c6.977-2.296,2.528-7.849-2.518-9.711
				c-6.484-2.393-15.462,0.45-18.269,6.954c-0.302,0.7,0.622,0.794,1.081,0.698c5.351-1.115,10.615-5.408,8.341-11.329
				c-1.894-4.932-9.779-3.896-13.669-3.131c-0.522,0.103-1.298,1.026-0.403,1.229c2.749,0.619,5.341,0.117,8.058-0.489
				c5.381-1.201,10.606-1.695,16.115-1.935c12.644-0.551,25.091-3.278,37.767-3.709C87.199,177.271,87.655,175.943,86.334,175.988
				L86.334,175.988z"/>
		</g>
	</g>
	<g>
		<g>
			<path fill="#843694" d="M61.225,41.089c1.937,0,1.954-3.001,0.021-3.001C59.309,38.088,59.292,41.089,61.225,41.089
				L61.225,41.089z"/>
		</g>
	</g>
	<g>
		<g>
			<path fill="#843694" d="M66.225,39.324c1.937,0,1.954-3.001,0.021-3.001C64.309,36.323,64.292,39.324,66.225,39.324
				L66.225,39.324z"/>
		</g>
	</g>
	<g>
		<g>
			<path fill="#843694" d="M72.107,40.5c1.937,0,1.954-3.001,0.021-3.001C70.191,37.5,70.174,40.5,72.107,40.5L72.107,40.5z"/>
		</g>
	</g>
	<g>
		<g>
			<path fill="#843694" d="M77.401,44.912c1.937,0,1.954-3.001,0.021-3.001C75.485,41.911,75.468,44.912,77.401,44.912
				L77.401,44.912z"/>
		</g>
	</g>
	<g>
		<g>
			<path fill="#843694" d="M80.636,49.912c1.937,0,1.954-3.001,0.021-3.001C78.721,46.911,78.704,49.912,80.636,49.912
				L80.636,49.912z"/>
		</g>
	</g>
	<g>
		<g>
			<path fill="#843694" d="M106.519,50.5c1.938,0,1.954-3.001,0.021-3.001C104.603,47.5,104.586,50.5,106.519,50.5L106.519,50.5z"/>
		</g>
	</g>
	<g>
		<g>
			<path fill="#843694" d="M108.577,45.794c1.938,0,1.954-3.001,0.021-3.001C106.661,42.793,106.645,45.794,108.577,45.794
				L108.577,45.794z"/>
		</g>
	</g>
	<g>
		<g>
			<path fill="#843694" d="M113.283,41.971c1.938,0,1.954-3.001,0.021-3.001C111.367,38.97,111.351,41.971,113.283,41.971
				L113.283,41.971z"/>
		</g>
	</g>
	<g>
		<g>
			<path fill="#843694" d="M117.989,41.971c1.938,0,1.954-3.001,0.021-3.001C116.073,38.97,116.057,41.971,117.989,41.971
				L117.989,41.971z"/>
		</g>
	</g>
	<g>
		<g>
			<path fill="#843694" d="M122.989,41.971c1.938,0,1.954-3.001,0.021-3.001C121.073,38.97,121.057,41.971,122.989,41.971
				L122.989,41.971z"/>
		</g>
	</g>
	<g>
		<g>
			<path fill="#843694" d="M94.46,81.971c1.937,0,1.954-3.001,0.021-3.001C92.544,78.97,92.527,81.971,94.46,81.971L94.46,81.971z"
				/>
		</g>
	</g>
	<g>
		<g>
			<path fill="#843694" d="M90.342,86.383c1.937,0,1.954-3.001,0.021-3.001C88.427,83.382,88.41,86.383,90.342,86.383L90.342,86.383
				z"/>
		</g>
	</g>
	<g>
		<g>
			<path fill="#843694" d="M87.401,90.794c1.937,0,1.954-3.001,0.021-3.001C85.485,87.793,85.468,90.794,87.401,90.794
				L87.401,90.794z"/>
		</g>
	</g>
	<g>
		<g>
			<path fill="#843694" d="M85.048,95.5c1.937,0,1.954-3.001,0.021-3.001C83.132,92.5,83.115,95.5,85.048,95.5L85.048,95.5z"/>
		</g>
	</g>
	<g>
		<g>
			<path fill="#843694" d="M85.636,100.207c1.937,0,1.954-3.001,0.021-3.001C83.721,97.206,83.704,100.207,85.636,100.207
				L85.636,100.207z"/>
		</g>
	</g>
	<g>
		<g>
			<path fill="#843694" d="M42.695,184.912c1.937,0,1.954-3,0.021-3C40.78,181.912,40.763,184.912,42.695,184.912L42.695,184.912z"
				/>
		</g>
	</g>
	<g>
		<g>
			<path fill="#843694" d="M49.46,187.265c1.937,0,1.954-3,0.021-3C47.544,184.265,47.527,187.265,49.46,187.265L49.46,187.265z"/>
		</g>
	</g>
	<g>
		<g>
			<path fill="#843694" d="M60.048,184.912c1.937,0,1.954-3,0.021-3C58.132,181.912,58.115,184.912,60.048,184.912L60.048,184.912z"
				/>
		</g>
	</g>
	<g>
		<g>
			<path fill="#843694" d="M62.695,187.853c1.937,0,1.954-3,0.021-3C60.78,184.853,60.763,187.853,62.695,187.853L62.695,187.853z"
				/>
		</g>
	</g>
	<g>
		<g>
			<path fill="#843694" d="M75.048,185.794c1.937,0,1.954-3,0.021-3C73.132,182.794,73.115,185.794,75.048,185.794L75.048,185.794z"
				/>
		</g>
	</g>
	<g>
		<g>
			<path fill="#843694" d="M82.695,187.853c1.937,0,1.954-3,0.021-3C80.78,184.853,80.763,187.853,82.695,187.853L82.695,187.853z"
				/>
		</g>
	</g>
	<g>
		<g>
			<path fill="#843694" d="M83.872,180.794c1.937,0,1.954-3,0.021-3C81.956,177.794,81.939,180.794,83.872,180.794L83.872,180.794z"
				/>
		</g>
	</g>
	<g>
		<g>
			<path fill="#843694" d="M91.813,182.853c1.937,0,1.954-3,0.021-3C89.897,179.853,89.88,182.853,91.813,182.853L91.813,182.853z"
				/>
		</g>
	</g>
	<g>
		<g>
			<path fill="#843694" d="M101.519,181.383c1.938,0,1.954-3,0.021-3C99.603,178.383,99.586,181.383,101.519,181.383
				L101.519,181.383z"/>
		</g>
	</g>
	<g>
		<g>
			<path fill="#843694" d="M105.931,177.853c1.938,0,1.954-3,0.021-3C104.015,174.853,103.998,177.853,105.931,177.853
				L105.931,177.853z"/>
		</g>
	</g>
	<g>
		<g>
			<path fill="#843694" d="M113.577,180.206c1.938,0,1.954-3,0.021-3C111.661,177.206,111.645,180.206,113.577,180.206
				L113.577,180.206z"/>
		</g>
	</g>
	<g>
		<g>
			<path fill="#843694" d="M53.283,190.206c1.937,0,1.954-3,0.021-3C51.368,187.206,51.351,190.206,53.283,190.206L53.283,190.206z"
				/>
		</g>
	</g>
	<g>
		<g>
			<path fill="#843694" d="M69.46,181.677c1.937,0,1.954-3,0.021-3C67.544,178.677,67.527,181.677,69.46,181.677L69.46,181.677z"/>
		</g>
	</g>
	<g>
		<g>
			<path fill="#843694" d="M69.754,189.912c1.937,0,1.954-3,0.021-3C67.838,186.912,67.821,189.912,69.754,189.912L69.754,189.912z"
				/>
		</g>
	</g>
	<g>
		<g>
			<path fill="#843694" d="M77.695,180.206c1.937,0,1.954-3,0.021-3C75.78,177.206,75.763,180.206,77.695,180.206L77.695,180.206z"
				/>
		</g>
	</g>
	<g>
		<g>
			<path fill="#843694" d="M95.342,179.029c1.937,0,1.954-3,0.021-3C93.427,176.029,93.41,179.029,95.342,179.029L95.342,179.029z"
				/>
		</g>
	</g>
	<g>
		<g>
			<path fill="#843694" d="M51.225,183.147c1.937,0,1.954-3,0.021-3C49.309,180.147,49.292,183.147,51.225,183.147L51.225,183.147z"
				/>
		</g>
	</g>
	<g>
		<g>
			<path fill="#843694" d="M107.989,184.617c1.938,0,1.954-3,0.021-3C106.073,181.617,106.057,184.617,107.989,184.617
				L107.989,184.617z"/>
		</g>
	</g>
	<g>
		<g>
			<path fill="#F6DA07" d="M79.881,115.735c0.106,5.961,3.004,13.376,9.636,14.466c2.621,0.431,6.15-1.769,4.92-4.894
				c-1.806-4.587-4.566-8.373-7.742-12.109c-1.411-1.661-4.227-1.419-5.658,0.03c-1.628,1.649-1.381,3.996,0.031,5.657
				c2.183,2.57,4.393,5.322,5.641,8.492c1.64-1.631,3.28-3.263,4.92-4.894c-2.842-0.468-3.699-3.997-3.747-6.69
				C87.791,110.634,79.789,110.58,79.881,115.735L79.881,115.735z"/>
		</g>
	</g>
	<g>
		<g>
			<path fill="#603913" d="M43.156,104.55c-8.175,5.204-16.855,9.412-26.634,10.294c-1.763,0.159-3.537,0.282-5.251-0.188
				c0.856,0.234,0.175,2.24,0.625,0.61c0.388-1.404,3.299-0.608,4.063-0.373c-0.444-3.35-0.889-6.7-1.333-10.05
				c-2.297,1.547-5.032,1.078-7.561,0.337c-3.55-1.039-3.931-2.131-1.828-4.07c1.143-1.055,2.674-1.817,4.009-2.588
				c2.984-1.724,0.825-7.662-2.514-7.674c-2.102-0.008-5.492-2.033-6.635-3.751c-1.107,2.699-2.214,5.398-3.321,8.098
				c1.785-0.432,3.601,1.157,4.944,2.098c0.93-3.421,1.86-6.843,2.79-10.265c-1.308-0.114-2.473-1.104-3.4-1.932
				c-0.486-0.428-0.864-0.936-1.132-1.522c0.241,0.627-1.21,0.605-1.429,0.27c1.595-2.762,3.189-5.524,4.784-8.287
				c-5.081-0.029-4.649-6.966-4.593-10.831c0.04-2.71,1.661,0.501-2.809,1.017c0.315-0.036,1.129,0.913,1.327,1.188
				c0.358,0.528,0.683,1.077,0.972,1.646c0.664,2.233,2.462,1.256,5.395-2.93c-0.723-0.561-0.931-2.022-1.153-2.829
				c-0.181-0.656-0.499-3.299-0.395-3.311c-4.487,0.489,6.042-2.099,2.704-3.944c-0.829-0.458-1.306-1.199-1.744-1.995
				c-0.846-1.537-1.407-3.57-1.596-5.3c-0.348-3.182-0.553,1.043-1.783-0.067c0.755,0.682,1.02,2.173,1.074,3.113
				c1.847-1.821,3.694-3.641,5.541-5.462c3.091,0.022,2.132,2.647,1.821,0.192c-0.179-1.415-0.093-2.863,0.201-4.252
				c0.697-3.293,0.076,2.461-2.524-1.126c0.712,0.982,0.804,2.413,0.844,3.589c3.416-0.915,6.831-1.83,10.246-2.746
				c-2.979-3.829-3.747-9.968-1.746-14.465c1.059-2.38-0.546,0.363-1.382-0.92c0.125,0.191,0.399,2.705,0.368,2.124
				c0.167,3.153,7.521,2.259,7.967-0.765c0.188-1.277,0.532-2.538,0.823-3.794c0.478-2.059,0.833-4.325,2.249-5.987
				c1.546-1.814,9.953,3.318,8.179-1.748c-0.298-0.852-0.374-1.768-0.449-2.658c-0.151-1.778-0.125-3.573-0.02-5.352
				c0.079-1.33,0.068-0.508-0.103-0.099c0.219-0.523,0.578-1.004,1.036-1.344c2.8-2.074,6.483-2.364,9.834-2.073
				c2.775,0.241,3.902,1.296,1.996,3.269c-1.991,2.06-0.729-0.561-0.646,1.406c-0.025-0.595,0.578-1.529,0.925-1.969
				c1.107-1.4,2.894-2.117,4.631-2.293c1.425-0.145,3.01-0.052,4.316,0.58c0.966,0.467,0.764,0.858,0.368-0.111
				c0.118,0.288-0.729,1.458-0.826,1.585c2.593-0.014,5.187-0.028,7.779-0.042c-0.626-0.396-1.167-0.884-1.622-1.463
				c0.561,0.823,0.072,0.784,0.892-0.132c1.327-1.485,3.365-2.616,5.189-3.359c0.896-0.365,4.826-1.803,5.522-0.746
				c0.299,0.453,0.312,1.269,0.354,1.814c0.261,3.283,6.186-0.634,5.75,2.148c0.487-3.115,6.584-5.313,10.189-5.638
				c4.993-0.45,11.087,1.529,13.935,5.837c1.106-2.699,2.214-5.398,3.32-8.098c-0.392,0.098-0.783,0.196-1.176,0.294
				c2.243,2.255,4.486,4.51,6.729,6.765c0.789-4.267,2.44-8.466,5.375-11.72c2.896-3.213,8.519-1.317,11.804,0.276
				c7.645,3.708,11.271,10.658,8.119,17.94c-0.257,0.565-0.546,1.114-0.866,1.646c-0.978,1.73,3.388-2.181,3.768,1.767
				c-0.102-1.057,0.129-2.072,0.361-3.091c0.16-0.701,1.112-1.936,0.115-1.279c2.796-1.841,8.054-1.249,11.186-1.065
				c8.273,0.483,9.313,10.375,7.321,16.776c-0.144,0.462-0.349,0.896-0.618,1.302c1.011-1.867,4.503,3.822,4.992,1.39
				c0.187-0.929,0.623-1.643,1.092-2.448c0.75-1.288,0.638,0.083-0.576-0.246c3.396,0.921,6.772,5.174,9.047,7.682
				c3.702,4.079,8.105,10.038,8.624,15.725c0.398,4.367-4.688,8.253-8.346,9.551c1.397,1.257,1.719,1.152,0.962-0.315
				c-0.2-0.664-0.245-1.994,0.413-2.453c0.912-0.636,2.355,0.427,3.067,0.865c2.816,1.732,4.644,5.514,5.628,8.52
				c0.859,2.624,1.407,5.946-1.191,7.623c-3.098,2-5.096-0.971-4.395-3.738c-2.686,1.104-5.37,2.208-8.056,3.311
				c9.376,4.063-4.535,14.2-8.969,16.779c-0.811,0.472-1.443,0.653-2.338,0.88c0.462-0.118,0.851,0.738,0.193-0.294
				c-0.748-1.175,0.166-0.487-0.679-0.143c3.236-1.318,3.01,1.94,2.57,3.795c-1.2,5.065,1.967,7.928,6.157,10.018
				c4.702,2.344,7.927,4.338,10.459,9.21c0.766,1.474,0.282,2.695-0.279,3.258c0.808-0.81,0.654-0.416,1.075-0.336
				c-1.126-0.215-3.037-1.946-4.646-3.794c-1.74-1.997-3.064-4.42-4.247-6.775c-0.873-1.74-1.856-5.184-1.896-6
				c-0.072-1.47,0.31-0.388-0.574,0.554c-0.498,0.53-1.137,0.888-1.872,0.922c1.284-0.06-0.838-0.252,0.685,0.163
				c4.418,1.205,7.8,5.625,9.847,9.437c1.689,3.148-0.345,10.745-4.877,8.154c-3.807-2.176-7.816-7.299-8.917-11.539
				c0.369,1.42-2.284,1.911-1.688,2.002c0.939,0.144,1.678,0.545,2.498,0.995c1.421,0.778,3.486,2.506,3.188,4.353
				c-0.658,4.055-6.956,5.834-9.98,3.494c-0.537-0.446-1.032-0.937-1.485-1.468c-1.877-2.497,1.038,0.859-2.204,0.197
				c1.563,0.319,3.237,2.172,4.145,3.372c1.127,1.489,1.298,0.817,0.652,2.267c-0.757,1.699-2.052,2.993-3.39,4.242
				c-1.149,1.073-5.329,4.188-6.944,2.633c-2.35-2.26-0.553-6.443,1.204-8.269c1.939-2.016,5.241-3.017,7.98-2.56
				c1.882,0.313,7.118,3.679,5.879,5.023c-2.025,2.197-6.084,0.188-7.376-1.658c-0.731-1.047-1.387-2.322-1.492-3.616
				c-1.132,0.135-2.264,0.271-3.396,0.406c-0.387-0.254-0.253,0.018,0.399,0.815c0.938,1.62,0.014,2.83-1.59,3.405
				c-6.626,2.379-3.833,13.023,2.848,10.625c4.81-1.727,9.058-5.007,9.911-10.371c0.788-4.949-1.291-10.547-5.394-13.513
				c-3.944-2.853-9.178-1.572-11.789,2.427c-3.508,5.372-1.652,11.577,1.785,16.495c5.489,7.854,16.774,8.753,23.913,2.723
				c8.534-7.209-0.275-19.294-7.96-22.452c-8.33-3.423-18.427-0.197-23.645,7.024c-5.082,7.034-4.263,19.262,4.078,23.595
				c8.196,4.259,18.355-2.513,23.016-9.085c6.053-8.535,1.89-16.76-5.91-22.296c-10.082-7.157-20.05,4.249-14.21,14.139
				c5.862,9.929,18.639,9.554,26.773,3.106c9.408-7.456,4.56-20.161-4.472-25.11c-9.57-5.245-19.11,1.757-15.187,12.371
				c2.843,7.689,12.946,20,22.371,17.538c12.464-3.256,15.759-15.71,10.124-26.208c-3.75-6.987-12.63-14.978-21.207-13.651
				c-6.496,1.004-7.289,8.158-6.188,13.339c1.982,9.338,12.141,26.561,23.884,23.061c10.119-3.015,8.815-15.473,4.004-22.374
				c-2.653-3.806-6.098-6.826-10.28-8.804c-1.049-0.496-2.099-0.982-3.137-1.5c-2.753-1.373-0.506,4.925,0.202,1.937
				c0.642-2.706,0.844-4.929,0.173-7.661c-2.036-8.3-12.819-11.905-19.652-7.105c-7.642,5.367-4.643,18.893,4.786,20.238
				c8.564,1.222,17.539-6.828,22.631-12.986c6.758-8.175,6.62-20.323-4.06-24.951c-3.148-1.364-7.108-0.427-8.056,3.311
				c-2.536,10.001,5.2,20.396,16.141,17.814c10.339-2.439,13.261-12.325,10.682-21.642c-2.358-8.524-9.148-16.859-18.372-17.661
				c-11.782-1.025-16.579,15.861-8.276,22.842c8.892,7.478,21.662-5.367,24.596-13.247c4.102-11.018-6.647-24.46-13.872-31.59
				c-3.396-3.351-7.427-6.662-12.106-7.93c-5.081-1.377-9.11,2.465-11.457,6.496c-2.222,3.814-2.84,8.446-0.827,12.429
				c2.27,4.492,9.28,4.661,12.446,1.154c10.563-11.699,4.005-34.779-12.097-36.764c-6.517-0.804-18.018-1.189-22.076,5.258
				c-3.959,6.291-4.783,17.237,3.7,19.938c7.831,2.494,11.988-7.888,13.408-13.545c2.057-8.197-2.011-16.099-7.887-21.684
				c-6.393-6.077-16.862-9.931-25.544-7.172c-8.145,2.588-12.906,12.844-14.34,20.598c-0.75,4.054,2.444,7.838,6.729,6.765
				c0.392-0.098,0.783-0.196,1.176-0.294c3.338-0.836,5.288-5.122,3.32-8.098c-7.918-11.979-23.149-13.48-35.293-7.735
				c-4.943,2.338-9.08,6.703-9.253,12.429c-0.185,6.124,5.565,10.621,11.412,7.836c5.383-2.565,5.459-9.696,3.807-14.604
				c-2.38-7.069-9.473-8.204-15.957-7.218C55.808-7.912,42.815,5.484,54.425,14.675c2.113,1.672,5.808,2.52,7.779-0.042
				c6.054-7.868,4.658-17.155-5.543-20.197C47.377-8.332,37.892-3.208,34.541,5.569c-1.86,4.872,0.443,9.531,4.321,12.414
				c4.911,3.649,11.86,0.262,15.467-3.471c7.067-7.314,2.339-17.043-5.951-20.182c-7.312-2.769-16.761-0.407-22.52,4.542
				C20.588,3.4,20.796,13.377,22.9,19.388c1.489,4.253,5.417,6.17,9.559,4.143c5.613-2.748,4.218-10.149,0.991-13.919
				c-3.547-4.144-9.83-3.847-14.077-1.32c-4.588,2.729-6.153,8.446-7.272,13.273c-1.232,5.311-1.829,17.534,7.511,15.101
				c7.529-1.961,6.513-13.516,2.178-18.095C15.781,12.224,7.18,16.5,4.611,23.823c-2.553,7.275-2.103,17.002,2.762,23.256
				c3.03,3.895,10.449,3.294,10.246-2.746c-0.15-4.466-1.393-10.104-5.549-12.596C7.3,28.878,1.858,30.569-0.91,35.208
				c-3.975,6.662-2.992,21.574,7.105,21.646c2.849,0.02,5.714-2.469,5.541-5.462c-0.258-4.46-1.761-8.685-5.14-11.736
				c-3.404-3.073-9.889-3.801-13.221-0.115c-5.277,5.837-2.832,16.712,2.004,22.237c2.498,2.853,5.665,4.668,9.447,5.036
				c5.011,0.487,7.569-4.882,6.937-9.056C9.918,45.564-4.449,46.566-8.482,56.666c-2.362,5.915,2.224,20.303,10.266,19.307
				c10.196-1.263,8.574-12.694,2.143-17.941c-3.59-2.929-7.697-4.083-11.991-2.207c-3.848,1.682-4.279,7.292-4.185,10.805
				c0.271,10.059,4.002,19.865,15.503,19.931c4.042,0.023,7.105-4.718,4.784-8.287c-4.405-6.771-16.377-6.977-18.616,2.058
				c-2.282,9.209,6.408,16.947,15.008,17.699c5.995,0.524,6.867-7.411,2.79-10.265C3.193,84.947-1.183,83.387-6.07,84.57
				c-3.343,0.809-5.287,5.144-3.321,8.098c4.592,6.899,14.685,11.531,22.503,7.62c3.167-1.583,5.404-6.522,3.199-9.697
				c-2.435-3.506-6.162-4.014-10.041-2.698c-8.354,2.834-17.073,11.355-11.994,20.442c4.622,8.268,18.213,11.189,25.921,5.998
				c3.947-2.658,3.379-8.6-1.333-10.05c-5.389-1.659-11.357-0.645-15.151,3.766c-3.384,3.934-4.105,10.117-0.363,14.107
				c4.978,5.31,13.214,3.9,19.614,2.867c9.24-1.492,17.956-6.014,25.764-10.984C54.688,110.243,49.157,100.729,43.156,104.55
				L43.156,104.55z"/>
		</g>
	</g>
	<g>
		<g>
			<path fill="#603913" d="M165.665,82.247c2.888,0.967,5.765,2.425,8.133,4.35c0.469,0.417,0.926,0.847,1.369,1.291
				c1.945,2.502-1.689-2.067,2.442,0.077c-1.056-0.548-1.239-2.651-1.411-3.629c-0.29-1.644-0.292-3.609-0.057-5.26
				c0.33-2.312-0.062-2.259,1.332-0.154c1.301,1.967,1.029,4.498,0.968,6.791c-0.033,1.239-1.812,11.752-3.272,11.008
				c-1.418-0.722-2.06-6.153-2.324-7.569c-0.282-1.504-0.341-3.037-0.362-4.563c-0.029-2.21,0.655-1.35-0.659-1.273
				c1.144-0.066,2.019,2.305,1.313,2.562c-2.617,0.953-6.032-0.349-8.479-1.236c-2.968-1.075-5.571-3.206-4.807-6.536
				c0.499-2.172,1.803-4.165,2.913-6.061c0.466-0.709,1.001-1.361,1.604-1.956c-1.288,0.024-2.576,0.049-3.863,0.073
				c0.564,0.655,1.063,1.359,1.494,2.11c1.439,2.201,2.415,4.63,3.25,7.114c0.188,0.58,0.354,1.167,0.498,1.76
				c0.99,3.771-3.24-5.79,5.162-2.217c-0.559-0.238-0.773-2.323-0.873-2.76c-1.988-8.694,2.506-16.802,5.963-24.418
				c-3.358-0.442-6.717-0.884-10.075-1.327c1.311,10.076-1.907,19.965,4.973,28.664c2.431,3.072,6.745,1.332,8.632-1.161
				c5.336-7.044,5.294-20.461,2.902-28.585c-1.83-6.219-10.22-4.646-10.813,1.384c-0.371,3.768,0.204,7.419,0.798,11.136
				c0.557,3.486,1.44,7.132-1.872,9.224c-2.235,1.412-5.627,3.82-8.33,3.961c2.349-0.123,1.564,2.164,1.32-1.091
				c-0.177-2.351-0.235-4.685-0.506-7.033c-0.492-4.274-1.303-8.507-1.958-12.757c-0.407-2.638-0.547-5.284-0.577-7.949
				c-0.002-0.988,0.056-1.973,0.172-2.954c0.612-1.768-0.515-1.292-3.38,1.428c3.674,0.52,2.973,13.253,2.863,15.741
				c3.604-0.461,7.209-0.923,10.813-1.384c-1.814-7.517-1.018-15.304-0.694-22.949c-3.415,0.915-6.83,1.83-10.245,2.746
				c1.521,2.531,3.268,4.853,5.287,7.008c3.488,3.721,9.003,0.591,9.37-3.871c0.389-4.721-1.449-9.918-3.135-14.242
				c-1.745-4.476-4.45-10.629-9.738-11.692c-3.896-0.784-8.051,2.497-6.765,6.729c1.981,6.522,5.572,12.258,8.841,18.185
				c3.249,5.89,6.106,12.695,7.924,19.168c1.469,5.232,9.178,5.367,10.618,0.029c2.962-10.974,2.959-26.803-9.025-32.392
				c-6.383-2.977-11.937,6.524-5.5,9.526c7.114,3.318,5.595,13.732,3.914,19.961c3.539,0.009,7.079,0.019,10.618,0.029
				c-1.804-6.426-4.705-12.773-7.487-18.833c-2.892-6.295-7.246-11.836-9.277-18.521c-2.255,2.243-4.51,4.486-6.765,6.729
				c-0.855-0.172,0.358,0.76,0.768,1.448c0.862,1.45,1.474,3.019,2.047,4.598c1.024,2.823,2.212,6.146,1.961,9.198
				c3.123-1.291,6.246-2.581,9.37-3.871c-1.39-1.481-2.492-3.019-3.537-4.757c-2.862-4.761-10.017-2.65-10.245,2.746
				c-0.368,8.683-0.989,17.339,1.071,25.875c1.498,6.207,10.546,4.685,10.813-1.384c0.397-8.995-0.415-24.939-12.014-26.58
				c-16.04-2.269-7.758,27.301-6.895,34.795c0.598,5.19-0.285,11.228,4.029,15.104c4.463,4.01,10.493,1.686,15.104-0.672
				c4.659-2.384,10.054-5.121,11.671-10.543c2.175-7.287-1.149-14.465-0.426-21.809c-3.604,0.461-7.209,0.923-10.813,1.384
				c1.665,5.656,1.912,15.333-1.803,20.238c2.877-0.387,5.754-0.774,8.632-1.161c-2.132-2.695-1.688-7.504-1.681-10.688
				c0.008-4.383,0.162-8.641-0.405-13c-0.609-4.686-8.194-5.47-10.075-1.327c-4.87,10.728-8.811,19.808-7.247,31.718
				c0.561,4.268,2.592,8.086,6.183,10.487c3.793,2.536,10.009,0.939,11.126-3.774c1.75-7.384-3.656-16.967-8.293-22.34
				c-8.767-10.159-18.532,8.413-19.462,15.419c-1.405,10.598,8.626,16.992,17.749,18.838c8.707,1.761,20.374-2.896,17.578-13.872
				c-2.475-9.717-16.229-15.049-21.457-4.417c-3.324,6.758-0.474,18.503,3.473,24.435c3.377,5.077,9.558,5.999,14.772,3.219
				c4.86-2.591,6.951-8.941,7.867-13.966c0.875-4.795,1.238-10.268-0.155-15.007c-1.882-6.404-10.211-14.277-17.19-9.446
				c-6.284,4.35-6.955,11.469-5.985,18.595c0.853,6.267,5.015,12.748,11.982,12.771c8.144,0.027,10.39-9.781,7.767-15.735
				c-2.608-5.922-10.892-9.623-16.61-11.537C161.821,69.376,158.973,80.007,165.665,82.247L165.665,82.247z"/>
		</g>
	</g>
	<g>
		<g>
			<path fill="#603913" d="M78.233,9.561c7.603,0.019,15.203,0.215,22.805,0.058c7.59-0.157,15.096-1.484,22.699-1.166
				c1.69,0.071,3.293,0.464,4.93,0.858c1.967,0.473,1.251,0.563,0.663,0.04c-1.19-1.059,0.27,0.761,0.44,1.106
				c0.513,1.038,0.979,2.099,1.485,3.141c2.876,5.927,8.353,10.134,13.412,14.092c8.393,6.565,20.007-4.213,11.959-12.087
				c-1.251-1.223-2.673-2.388-3.647-3.849c-1.711,4.172-3.421,8.343-5.132,12.515c0.47-0.103,0.94-0.205,1.41-0.308
				c-1.481-0.003-2.963-0.007-4.444-0.01c0.862-0.066,1.586,0.247,2.172,0.94c4.37,2.983,11.397,0.019,12.45-5.117
				c0.43-2.098,0.788-4.163,0.596-6.301c-0.415-4.61-3.477-8.53-8.44-8.563c-4.29-0.028-8.979,3.821-8.563,8.441
				c0.179,0.653,0.182,1.298,0.008,1.935c4.15-1.706,8.3-3.412,12.45-5.117c-3.752-2.561-7.611-3.286-12.038-2.32
				c-5.212,1.138-8.125,8.028-5.132,12.515c1.833,2.749,4.003,5.029,6.353,7.328c3.986-4.029,7.973-8.058,11.959-12.087
				c-4.852-3.795-9.117-7.15-11.756-12.818c-2.687-5.77-7.024-8.747-13.156-10.22c-8.88-2.134-17.811-0.707-26.763-0.096
				c-8.831,0.603-17.754,0.11-26.597,0.088C67.376-7.471,67.282,9.533,78.233,9.561L78.233,9.561z"/>
		</g>
	</g>
	<g>
		<g>
			<path fill="#603913" d="M70.708-2.443C57.613-2.005,45.745,1.116,33.204,4.519c-6.023,1.635-10.396,4.127-14,9.247
				c-3.123,4.436-4.774,10.197-6.513,15.281C8.185,42.219,6.472,56.633,4.473,70.375c-1.06,7.29-0.297,14.574-0.542,21.901
				c-0.1,3.01-0.511,6-0.609,9.016c-0.074,2.25-0.028,4.443-1.212,6.399c-5.688,9.393,9.046,17.874,14.723,8.5
				c2.731-4.512,3.283-9.606,3.493-14.777c0.246-6.044,0.741-11.979,0.575-18.043C20.717,76.66,21.718,70.59,22.789,64
				c1.081-6.649,1.912-13.324,3.293-19.922c1.117-5.337,2.913-10.492,4.8-15.597c0.671-1.814,1.5-3.532,2.434-5.225
				c0.768-1.394,0.586-1.151,2.867-1.898c11.231-3.677,22.561-6.399,34.402-6.796C81.531,14.194,81.663-2.81,70.708-2.443
				L70.708-2.443z"/>
		</g>
	</g>
	<g>
		<g>
			<path fill="#603913" d="M34.068,99.917c-7.146-1.785-12.794-7.868-19.706-10.588C9.187,87.293,3.61,92.41,3.616,97.468
				c0.007,5.907-0.385,14.306,4.288,18.752c4.703,4.474,14.363,8.382,20.283,3.935c12.205-9.168-1.735-24.083-7-32.907
				c-3.486-5.842,2.015-14.5,4.221-19.868c3.355-8.163,4.699-17.067,8.576-25.017c1.875-3.844,4.566-7.161,7.104-10.571
				c2.586-3.476,4.202-7.259,5.824-11.247c2.484-6.11,5.094-11.835,11.275-14.802c9.875-4.74,1.219-19.381-8.608-14.664
				C38.356-3.534,34.421,7.344,29.704,17.956c-2.56,5.76-7.45,10.341-10.442,15.908c-3.284,6.108-5.096,12.98-7.011,19.601
				C8.583,66.147,0.072,78.02,4.672,91.67c1.4,4.157,4.074,7.539,6.52,11.108c1.286,1.877,2.5,3.797,3.621,5.776
				c-0.114-0.201,1.338,2.881,0.831,1.571c1.063,2.742-0.38,0.649,0.878-1.553c1.019-1.027,2.038-2.055,3.057-3.082
				c1.271-0.955,3.705-0.106,1.207-0.82c-2.515-0.718-0.162-0.649,0.288,0.916c-0.72-2.504-0.45-5.418-0.453-7.997
				c-3.582,2.713-7.164,5.426-10.746,8.139c7.088,2.789,12.034,8.671,19.706,10.588C40.224,118.976,44.704,102.574,34.068,99.917
				L34.068,99.917z"/>
		</g>
	</g>
	<g>
		<g>
			<path fill="#603913" d="M93.233,10.149c15.422-0.139,31.616-4.819,46.734-0.163c7.562,2.329,13.177,9.508,17.751,15.569
				c6.044,8.009,11.388,16.48,17.832,24.194c2.971,3.556,9.003,2.994,12.023-0.064c3.48-3.525,2.905-8.467-0.064-12.022
				c-12.47-14.926-21.317-35.552-40.494-43.124c-17.273-6.819-35.818-1.555-53.66-1.394C82.384-6.756,82.277,10.248,93.233,10.149
				L93.233,10.149z"/>
		</g>
	</g>
	<g>
		<g>
			<path fill="#603913" d="M105.168,9.258c23.335,4.802,48.521,18.179,62.265,38.164c6.166,8.967,20.893,0.448,14.664-8.608
				c-16.235-23.609-44.615-40.228-72.44-45.955C98.951-9.344,94.428,7.048,105.168,9.258L105.168,9.258z"/>
		</g>
	</g>
	<g>
		<g>
			<path fill="#603913" d="M107.521,15.141c8.31,3.205,16.248,6.961,23.631,11.977c6.692,4.546,14.716,8.583,19.517,15.304
				c6.311,8.835,21.049,0.331,14.664-8.608c-6.119-8.567-14.343-13.722-22.938-19.497C132.738,7.83,122.869,2.93,112.009-1.258
				c-4.332-1.671-9.31,1.827-10.444,5.956C100.244,9.505,103.207,13.478,107.521,15.141L107.521,15.141z"/>
		</g>
	</g>
	<g>
		<g>
			<path fill="#603913" d="M23.008,66.191c8.434-18.824,18.317-37.177,29.459-54.539C61.819-2.92,74.483-18.393,91.965-23.083
				c10.588-2.841,6.188-19.262-4.4-16.421C67.643-34.159,52.625-18.447,41.226-2.074C28.3,16.492,17.522,37.076,8.286,57.691
				c-1.893,4.224-1.206,9.119,3.111,11.611C15.1,71.441,21.111,70.425,23.008,66.191L23.008,66.191z"/>
		</g>
	</g>
	<g>
		<g>
			<path fill="#603913" d="M31.494,58.597c4.58-11.998,7.925-24.426,12.691-36.357c4.504-11.274,13.246-19.437,20-29.284
				c6.21-9.055-8.559-17.487-14.723-8.5c-3.249,4.737-7.11,9.004-10.622,13.543C34.446,3.68,31.188,9.535,28.443,16.164
				c-5.135,12.403-8.565,25.412-13.349,37.945c-1.656,4.337,1.815,9.307,5.956,10.444C25.846,65.871,29.845,62.917,31.494,58.597
				L31.494,58.597z"/>
		</g>
	</g>
	<g>
		<g>
			<path fill="#603913" d="M23.303,60.309C33.885,44.816,44.348,29.24,55.372,14.056c9.513-13.102,19.953-30.284,35.71-36.552
				c4.304-1.712,7.315-5.541,6.01-10.411c-1.093-4.08-6.095-7.727-10.411-6.01C68.049-31.505,56.729-16.03,45.091-0.474
				C32.356,16.549,20.568,34.259,8.58,51.809C2.387,60.875,17.154,69.31,23.303,60.309L23.303,60.309z"/>
		</g>
	</g>
	<g>
		<g>
			<path fill="#603913" d="M30.22,54.685C46.725,34.008,63.816,13.67,77.42-9.103c5.63-9.425-9.101-17.912-14.723-8.5
				C49.825,3.945,33.75,23.163,18.133,42.727c-2.884,3.613-3.497,8.506,0.064,12.022C21.23,57.745,27.323,58.314,30.22,54.685
				L30.22,54.685z"/>
		</g>
	</g>
	<g>
		<g>
			<path fill="#603913" d="M4.792,63.645c0.156,7.312,0.039,14.504,1.238,21.749c1.26,7.61,5.627,14.287,10.409,20.161
				c5.517,6.78,24.5,21.491,28.585,5.396c2.7-10.637-13.703-15.113-16.399-4.488c-0.046,0.182-0.092,0.363-0.138,0.545
				c0.719-1.245,1.438-2.49,2.156-3.735c-0.098,0.109-0.195,0.218-0.292,0.326c1.281-0.743,2.563-1.487,3.844-2.231
				c4.246,0.971,5.356,0.965,3.331-0.02c-0.573-0.344-1.131-0.708-1.676-1.095c-0.813-0.554-1.375-1.037-2.234-1.723
				c-2.97-2.371-5.053-4.903-7.202-8.019c-5.507-7.986-4.419-17.495-4.616-26.743C21.563,52.807,4.559,52.688,4.792,63.645
				L4.792,63.645z"/>
		</g>
	</g>
	<g>
		<g>
			<path fill="#603913" d="M131.691,28.126c-0.797-0.652-0.829-0.676-0.098-0.071c0.523,0.435,1.003,0.922,1.484,1.402
				c0.973,0.97,1.864,2.025,2.776,3.051c2.234,2.513,4.732,4.723,7.602,6.5c3.938,2.44,9.35,0.806,11.611-3.111
				c2.369-4.104,0.824-9.173-3.111-11.611c-0.428-0.252-0.844-0.522-1.247-0.811c1.547,1.056-0.263-0.32-0.48-0.52
				c-1.026-0.946-1.949-2.009-2.876-3.051c-2.197-2.47-4.438-4.592-7.161-6.5c-3.799-2.66-9.447-0.637-11.611,3.111
				C126.113,20.787,127.899,25.471,131.691,28.126L131.691,28.126z"/>
		</g>
	</g>
	<g>
		<g>
			<path fill="#603913" d="M137.433,34.775c1.573,2.314,3.345,3.992,5.76,5.434c1.494,0.892,3.145,1.502,4.675,2.329
				c4.073,2.2,9.246,0.984,11.611-3.111c2.267-3.926,0.965-9.409-3.111-11.611c-1.157-0.625-2.36-1.153-3.542-1.728
				c-0.635-0.309-1.245-0.656-1.839-1.039c1.167,0.936,1.425,1.128,0.773,0.578c-0.575-0.494-1.1-1.573,0.337,0.541
				c-2.602-3.828-7.438-5.489-11.636-3.028C136.665,25.363,134.826,30.941,137.433,34.775L137.433,34.775z"/>
		</g>
	</g>
	<g>
		<g>
			<path fill="#603913" d="M149.115,47.502c10.979,0,11.075-17.004,0.123-17.004C138.26,30.498,138.163,47.502,149.115,47.502
				L149.115,47.502z"/>
		</g>
	</g>
	<g>
		<g>
			<path fill="#603913" d="M148.526,44.267c10.979,0,11.075-17.004,0.123-17.004C137.671,27.263,137.574,44.267,148.526,44.267
				L148.526,44.267z"/>
		</g>
	</g>
	<g>
		<g>
			<path fill="#603913" d="M150.586,52.208c10.979,0,11.075-17.004,0.123-17.004C139.73,35.204,139.634,52.208,150.586,52.208
				L150.586,52.208z"/>
		</g>
	</g>
	<g>
		<g>
			<path fill="#603913" d="M152.056,59.561c10.979,0,11.075-17.004,0.123-17.004C141.2,42.557,141.104,59.561,152.056,59.561
				L152.056,59.561z"/>
		</g>
	</g>
	<g>
		<g>
			<path fill="#603913" d="M152.645,65.443c10.979,0,11.075-17.004,0.123-17.004C141.789,48.439,141.692,65.443,152.645,65.443
				L152.645,65.443z"/>
		</g>
	</g>
	<g>
		<g>
			<path fill="#603913" d="M155.291,71.914c10.979,0,11.075-17.004,0.123-17.004C144.436,54.91,144.339,71.914,155.291,71.914
				L155.291,71.914z"/>
		</g>
	</g>
	<g>
		<g>
			<path fill="#603913" d="M112.009,1.094c-13.312-4.709-29.271-4-42.803-0.478c-6.89,1.793-12.751,6.176-18.964,9.43
				c-6.577,3.444-12.104,7.356-16.368,13.528c-3.768,5.455,1.332,12.608,7.3,12.752c4.655,0.112,6.176-2.239,9.659-4.405
				c9.282-5.773,0.726-20.47-8.608-14.664c-1.341,0.834-3.535,2.946-4.228,3.261c1.455-0.39,2.91-0.78,4.365-1.169
				c-0.355-0.009-0.711-0.017-1.066-0.026c2.434,4.25,4.867,8.501,7.3,12.752c2.723-3.943,7.543-5.944,11.649-8.095
				c5.007-2.622,9.409-5.914,14.955-7.357c10.234-2.664,22.343-2.658,32.32,0.872C117.886,21.161,122.271,4.725,112.009,1.094
				L112.009,1.094z"/>
		</g>
	</g>
	<g>
		<g>
			<path fill="#603913" d="M22.439,38.645c0.159,3.163-0.861,4.627-2.879,6.979c-3.448,4.018-6.31,8.073-7.048,13.432
				c-0.251,1.825,0.016,3.791-0.363,5.575c-0.267,1.257-2.029,2.967-2.687,4.105c-2.164,3.739-2.863,8.336-2.612,12.588
				c0.911,15.455,13.817,34.067,30.501,34.414c0.041-5.668,0.082-11.336,0.122-17.004c-1.126,0.029-2.25,0.088-3.375,0.135
				c-2.976,0.124,0.625,0.14,0.94,0.827c-1.935-4.215-7.946-5.191-11.636-3.028c-4.292,2.516-4.959,7.429-3.028,11.636
				c3.214,7.003,10.203,7.611,16.977,7.434c10.955-0.287,11.091-16.776,0.122-17.004c-1.284-0.027-2.654-0.418-4.38-1.781
				c-2.298-1.814-4.102-4.046-5.664-6.496c-2.275-3.567-4.897-9.543-3.245-13.221c1.515-3.371,3.855-5.718,4.663-9.521
				c0.749-3.527-0.296-6.348,2.055-9.251c4.938-6.097,8.958-11.404,8.542-19.696C38.896,27.847,21.89,27.698,22.439,38.645
				L22.439,38.645z"/>
		</g>
	</g>
	<g>
		<g>
			<path fill="#603913" d="M33.821,49.561c10.978,0,11.074-17.004,0.122-17.004C22.966,32.557,22.869,49.561,33.821,49.561
				L33.821,49.561z"/>
		</g>
	</g>
	<g>
		<g>
			<path fill="#603913" d="M27.351,62.502c10.978,0,11.074-17.004,0.122-17.004C16.495,45.498,16.398,62.502,27.351,62.502
				L27.351,62.502z"/>
		</g>
	</g>
	<g>
		<g>
			<path fill="#603913" d="M148.623,59.109c-1.402,6.585-4.106,11.625-2.362,18.562c5.474-1.467,10.946-2.934,16.42-4.4
				c-0.87-3.255-2.133-7.15-0.849-9.138c-5.188-2.165-10.374-4.33-15.562-6.494c-1.065,5.916-0.992,11.238-0.223,17.173
				c0.453,3.498,2.566,9.32,0.32,11.445c4.849,2.013,9.697,4.027,14.546,6.04c-0.639-5.953,3.227-10.853,4.992-16.346
				c1.806-5.621-4.396-12.943-10.4-10.455c-5.997,2.485-9.082,6.551-10.887,12.728c-1.354,4.635-1.244,9.605-3.055,14.121
				c5.567,0.769,11.135,1.537,16.702,2.305c-0.021-4.858,1.809-9.535,2.059-14.412c0.457-8.932-11.508-11.118-15.863-4.311
				c-3.187,4.98-4.507,10.038-5.033,15.871c-0.201,2.233-0.053,4.467-1.084,6.484c-1.114,2.181-2.691,4.138-3.975,6.221
				c-4.533,7.36-4.286,20.39-0.683,28.232c4.915,10.697,18.623,7.378,24.669-0.201c6.103-7.65,9.007-18.754,8.439-28.472
				c-0.357-6.116-7.023-11.127-12.806-7.394c-5.364,3.463-7.926,8.624-11.319,13.792c-0.953,1.451-3.453,1.818-4.929,2.423
				c-3.717,1.521-6.688,3.789-9.568,6.563c-6.104,5.874-3.359,15.481,4.641,17.755c5.643,1.603,12.514-0.35,17.137-3.81
				c3.707-2.773,5.57-7.3,3.028-11.636c-2.146-3.66-7.921-5.81-11.636-3.028c-0.864,0.646-1.733,1.145-2.695,1.636
				c-2.645,1.35-1.434-0.968,0.602,1.34c0.841,2.034,1.682,4.069,2.523,6.104c-0.023-0.242-0.046-0.483-0.068-0.726
				c-0.381,1.396-0.761,2.793-1.141,4.188c0.353-0.786,2.71-2.445,4.423-3.059c3.363-1.204,5.979-2.623,8.779-4.821
				c3.887-3.052,4.831-9.475,8.831-12.058c-4.269-2.464-8.537-4.929-12.806-7.394c0.307,5.245-0.69,10.771-3.042,15.484
				c-0.523,1.051-1.088,1.924-1.865,2.772c-0.803,0.876-0.989,0.618-0.072,0.522c1.667,0.186,2.953,0.885,3.856,2.099
				c0.377,0.926,0.406,0.873,0.089-0.158c-0.2-0.773-0.195-1.459-0.272-3.218c-0.101-2.298-0.674-4.941-0.085-7.145
				c0.695-2.604,3.313-5.193,4.667-7.515c4.139-7.092,1.723-15.488,6.117-22.355c-5.288-1.437-10.575-2.874-15.863-4.311
				c-0.249,4.867-2.079,9.46-2.059,14.412c0.042,10.256,13.273,10.858,16.702,2.305c1.219-3.041,1.592-6.321,2.114-9.535
				c0.251-1.543,0.563-3.068,0.939-4.585c0.491-1.985,1.473-1.868-1.112-0.796c-3.467-3.485-6.934-6.97-10.4-10.455
				c-2.284,7.107-6.439,12.852-5.596,20.712c0.778,7.254,8.714,11.558,14.546,6.04c10.922-10.335,1.964-23.592,4.215-36.088
				c1.697-9.428-10.15-14.874-15.562-6.494c-4.356,6.747-2.795,14.764-0.849,22.039c2.835,10.598,19.09,6.223,16.42-4.4
				c-0.729-2.9,1.726-6.776,2.343-9.673C167.302,52.899,150.908,48.384,148.623,59.109L148.623,59.109z"/>
		</g>
	</g>
</g>
</svg>
