<?xml version="1.0" encoding="utf-8"?>
<!-- Generator: Adobe Illustrator 14.0.0, SVG Export Plug-In . SVG Version: 6.00 Build 43363)  -->
<!DOCTYPE svg PUBLIC "-//W3C//DTD SVG 1.1//EN" "http://www.w3.org/Graphics/SVG/1.1/DTD/svg11.dtd">
<svg version="1.1" id="Layer_1" xmlns="http://www.w3.org/2000/svg" xmlns:xlink="http://www.w3.org/1999/xlink" x="0px" y="0px"
	 width="200px" height="200px" viewBox="0 0 200 200" enable-background="new 0 0 200 200" xml:space="preserve">
<g>
	<g>
		<path fill="#FFFFFF" d="M102.48,45.171c-20.589,0.017-44.06,0.293-61.269,13.203c-8.661,6.497-12.451,18.306-16.923,27.743
			c-2.569,5.42-5.91,10.53-8.014,16.153c-1.716,4.587,0.143,9.157,2.577,13.053c2.699,4.32,6.502,7.859,9.388,12.054
			c3.5,5.086,6.916,10.192,11.101,14.753c8.739,9.522,21.682,11.147,33.161,15.7c13.987,5.548,27.908,11.265,41.623,17.459
			c11.184,5.05,21.611,13.604,33.883,15.745c0.521,0.091,1.381-0.069,1.551-0.67c2.024-7.167,0.197-15.306-0.589-22.55
			c-0.996-9.189-2.162-18.36-3.104-27.557c-1.972-19.27-2.927-38.625-3.329-57.986c-0.22-10.524,3.698-26.6-10.674-28.496
			c-14.139-1.865-28.573,3.421-42.241,6.159c-1.198,0.24-0.884,1.308,0.287,1.073c13.461-2.696,28.382-8.449,42.283-5.836
			c8.173,1.536,8.59,8.902,8.627,15.83c0.041,7.721-0.161,15.404,0.074,23.132c0.493,16.232,1.589,32.455,3.242,48.61
			c0.807,7.883,1.794,15.746,2.684,23.62c0.869,7.685,2.939,16.641,0.8,24.215c0.517-0.224,1.034-0.446,1.551-0.67
			c-11.106-1.938-20.063-9.464-30.113-14.05c-11.991-5.471-24.119-10.604-36.339-15.541c-5.003-2.021-9.987-4.147-15.094-5.897
			c-6.19-2.12-12.544-3.553-18.391-6.591c-9.955-5.173-14.969-16.12-21.642-24.521c-3.15-3.966-6.639-7.565-8.837-12.193
			c-3.068-6.457,0.866-12.357,3.854-17.974c5.228-9.823,8.958-20.512,15.391-29.657c6.792-9.657,21.061-13.294,32.003-15.175
			c10.463-1.798,21.166-1.942,31.753-1.951C102.536,46.358,103.788,45.17,102.48,45.171L102.48,45.171z"/>
	</g>
</g>
<g>
	<g>
		<path fill="#FFFFFF" d="M92.034,52.44c-9.508,3.458-18.636,7.742-27.267,13.028c-8.542,5.232-15.559,12.69-24.421,17.375
			c-1.15,0.608,0.577,0.874,1.192,0.549c8.348-4.413,15.066-11.277,22.938-16.435c8.792-5.761,18.457-10.165,28.314-13.75
			C94.063,52.744,92.895,52.127,92.034,52.44L92.034,52.44z"/>
	</g>
</g>
<g>
	<g>
		<path fill="#FFFFFF" d="M39.303,59.772c-8.579,8.146-12.208,26.587,0.213,33.028c3.017,1.564,13.744-2.954,9.321-5.247
			c-8.792-4.559-6.541-20.53-0.375-26.383C53.205,56.666,41.741,57.457,39.303,59.772L39.303,59.772z"/>
	</g>
</g>
<g>
	<g>
		<path fill="#FFFFFF" d="M118.392,23.227C78.609,37.093,43.633,59.547,11.159,86.085C6.027,90.279,8.693,96.46,14.35,97.993
			c7.333,1.987,14.862-0.891,20.491-5.49c13.652-11.156,28.042-21.455,43.068-30.677c13.771-8.452,30.887-16.841,44.995-21.758
			c4.702-1.639,14.047-5.532,12.233-12.303C133.452,21.48,123.089,21.589,118.392,23.227L118.392,23.227z"/>
	</g>
</g>
<g>
	<g>
		<path d="M90.381,15.038c-19.74-0.44-40.91,11.187-50.321,28.469c-3.063,5.624-5.694,11.349-9.256,16.694
			c-3.342,5.016-7.609,10.888-7.875,17.156c-0.443,10.458,7.48,17.954,15.618,23.168c8.367,5.361,17.902,8.742,25.899,14.702
			c9.172,6.836,16.845,15.367,29.051,15.264c5.554-0.047,11.102-1.419,16.496-2.6c5.624-1.23,11.75-1.556,17.206-3.368
			c2.868-0.953,4.603-3.308,5.846-5.923c3.261-6.859,4.595-15.147,6.688-22.434c2.938-10.225,7.574-19.904,6.449-30.706
			c-1.112-10.671-1.264-20.312-7.346-29.568c-4.621-7.033-12.275-12.583-19.822-16.11c-9.128-4.266-17.441-5.072-27.375-5.041
			c-0.576,0.002-2.103,0.876-0.812,0.872c7.835-0.025,14.81,0.277,22.213,3.058c7.06,2.651,13.433,6.902,18.974,11.974
			c11.149,10.206,11.547,24.885,12.548,38.892c0.561,7.851-3.479,15.881-5.678,23.287c-2.341,7.878-4.482,15.813-6.844,23.685
			c-0.853,2.844-2.228,5.642-4.885,7.181c-2.77,1.604-7.545,1.47-10.685,2.069c-7.385,1.411-14.616,3.494-22.164,3.86
			c-13.598,0.66-22.802-12.326-33.528-18.69c-8.751-5.192-18.34-8.846-26.308-15.312c-3.912-3.174-6.937-7.192-8.682-11.921
			c-2.604-7.06,0.684-13.86,4.331-19.829c3.314-5.424,6.737-10.563,9.594-16.267c3.328-6.643,6.873-12.778,12.597-17.635
			c9.729-8.256,23.968-14.348,36.835-14.061C89.605,15.914,91.372,15.06,90.381,15.038L90.381,15.038z"/>
	</g>
</g>
<g>
	<g>
		<path d="M58.796,56.17c-0.13,6.65-3.058,20.115,6.563,21.691c6.844,1.122,8.786-6.481,9.197-11.516
			c0.496-6.072,2.203-15.849-1.701-21.142c-1.502-2.037-5.005-2.38-7.059-1.041c-1.076,0.702-2.85,1.808-3.177,3.184
			c-0.859,3.613-2.436,6.052-4.642,8.968c-0.55,0.728,1.408,0.607,1.809,0.077c1.728-2.284,3.282-3.304,4.16-6.021
			c0.08-0.563,0.16-1.125,0.24-1.688c3.626-4.021,6.137-4.584,7.532-1.692c0.393,0.72,0.567,1.576,0.762,2.363
			c1.208,4.866,0.634,10.294,0.292,15.241c-0.328,4.728-1.866,17.063-9.637,10.564c-4.966-4.152-2.511-13.648-2.402-19.21
			C60.75,55.097,58.81,55.487,58.796,56.17L58.796,56.17z"/>
	</g>
</g>
<g>
	<g>
		<path d="M111.151,44.553c-1.271,9.478-4.646,18.679-4.651,28.336c-0.003,4.112,3.494,7.666,7.211,4.538
			c5.609-4.722,7.978-13.522,8.414-20.472c0.193-3.075,1.036-8.471-0.773-11.26c-1.15-1.772-5.225-1.206-6.843-1.208
			c-0.406,0-2.202,0.791-1.252,0.792c2.229,0.003,5.695-0.598,6.675,1.955c0.936,2.437,0.344,6.026,0.315,8.541
			c-0.075,6.667-1.938,12.564-5.304,18.229c-1.835,3.089-4.995,5.049-6.287,0.483c-0.827-2.923,0.004-6.663,0.438-9.566
			c1.049-7.021,3.046-13.858,3.988-20.885C113.115,43.795,111.23,43.962,111.151,44.553L111.151,44.553z"/>
	</g>
</g>
<g>
	<g>
		<path d="M73.836,122.599c0.367,0,2.187-0.727,1.27-0.727C74.738,121.872,72.918,122.599,73.836,122.599L73.836,122.599z"/>
	</g>
</g>
<g>
	<g>
		<path d="M83.672,127.564c-0.492-1.882-6.65-19.295,1.111-15.053c5.218,2.852,8.093,12.647,9.898,17.924
			c0.156,0.455,1.816-0.032,1.92-0.425c0.874-3.306,0.506-20.354,5.381-19.534c5.313,0.894,5.897,12.434,6.522,16.43
			c0.07,0.451,1.877-0.032,1.932-0.518c0.303-2.686-1.122-19.749,4.027-17.486c4.838,2.125,6.799,11.859,7.276,16.533
			c0.644-0.173,1.288-0.345,1.932-0.518c-0.623-5.098-4.882-13.733-0.936-18.152c2.85-3.19,7.275,11.206,7.239,13.081
			c-0.007,0.331,1.921,0.061,1.932-0.518c0.081-4.203-2.945-15.192-8.892-13.6c-7.512,2.013-1.855,14.962-1.275,19.706
			c0.049,0.403,1.985,0.011,1.932-0.518c-0.473-4.619-3.397-18.765-10.462-17.116c-7.095,1.655-4.129,13.985-4.705,19.104
			c0.644-0.173,1.288-0.345,1.932-0.518c-0.689-4.41-1.616-18.27-8.896-16.764c-7.676,1.588-5.319,14.938-6.847,20.718
			c0.64-0.142,1.28-0.283,1.92-0.425c-2.075-6.066-6.07-20.199-14.612-18.58c-7.22,1.368-1.296,12.785-0.26,16.744
			C81.859,128.537,83.792,128.025,83.672,127.564L83.672,127.564z"/>
	</g>
</g>
<g>
	<g>
		<path d="M97.916,81.766c-2.112,5.016-10.153,11.33-7.959,17.342c1.279,3.505,7.335,2.168,9.848,1.48
			c2.75-0.753,10.174-2.179,11.023-5.639c0.548-2.23-1.242-4.181-2.689-5.667c-2.759-2.832-6.319-4.728-7.997-8.481
			c-0.305-0.683-2.2-0.083-1.932,0.518c1.687,3.776,5.207,5.984,8.135,8.725c1.923,1.799,4.035,4.581,1.166,6.591
			c-1.883,1.319-4.419,1.814-6.574,2.512c-4.316,1.398-10.61,2.163-9.03-4.381c1.173-4.861,5.996-8.616,7.941-13.235
			C100.112,80.902,98.185,81.126,97.916,81.766L97.916,81.766z"/>
	</g>
</g>
<g>
	<g>
		<path d="M58.295,55.821c-3.568-0.752-6.735-2.792-9.822-4.646c-0.551-0.331-2.333,0.466-1.534,0.945
			c3.204,1.924,6.474,3.984,10.178,4.766C57.743,57.017,59.399,56.054,58.295,55.821L58.295,55.821z"/>
	</g>
</g>
<g>
	<g>
		<path d="M60.54,53.85c-3.012-1.494-6.224-2.871-8.11-5.804c-0.318-0.494-2.198,0.114-1.801,0.731
			c1.932,3.004,5.278,4.432,8.361,5.961C59.51,54.996,61.294,54.224,60.54,53.85L60.54,53.85z"/>
	</g>
</g>
<g>
	<g>
		<path d="M61.706,51.458c-2.847-1.153-6.677-2.996-5.973-6.688c0.15-0.787-1.804-0.471-1.937,0.225
			c-0.77,4.038,3.219,6.15,6.381,7.431C60.789,52.673,62.543,51.796,61.706,51.458L61.706,51.458z"/>
	</g>
</g>
<g>
	<g>
		<path d="M122.167,50.726c3.523-1.244,5.395-5.249,6.2-8.65c0.116-0.491-1.789-0.192-1.91,0.32
			c-0.634,2.676-2.136,6.817-4.978,7.82C120.184,50.673,121.405,50.995,122.167,50.726L122.167,50.726z"/>
	</g>
</g>
<g>
	<g>
		<path d="M120.733,52.308c3.589,0.544,11.978-1.162,11.174-6.213c-0.059-0.371-2.006,0.049-1.932,0.518
			c0.61,3.84-4.675,5.415-7.65,4.963C121.878,51.507,120.23,52.231,120.733,52.308L120.733,52.308z"/>
	</g>
</g>
<g>
	<g>
		<path d="M121.335,54.124c5.373,2.231,12.149,2.133,15.271-3.506c0.219-0.395-1.622-0.238-1.918,0.295
			c-2.547,4.6-7.554,4.136-11.789,2.376C122.411,53.086,120.643,53.835,121.335,54.124L121.335,54.124z"/>
	</g>
</g>
<g>
	<g>
		<path d="M53.505,109.847c1.072,4.73,4.357,8.222,7.37,11.865c4.115,4.975,7.056,10.978,10.35,16.503
			c7.365,12.354,11.585,25.502,14.339,39.573c0.144,0.735,2.082,0.251,1.932-0.518c-2.391-12.218-5.668-24.614-11.88-35.507
			c-3.375-5.92-6.898-11.811-10.545-17.567c-3.191-5.039-8.261-8.813-9.633-14.867C55.269,108.59,53.333,109.089,53.505,109.847
			L53.505,109.847z"/>
	</g>
</g>
<g>
	<g>
		<path d="M77.79,147.271c-8.886-14.915-26.512-24.307-43.294-16.951c-1.171,0.514,0.646,0.513,1.126,0.303
			c15.692-6.879,32.254,3.77,40.236,17.166C76.159,148.294,77.97,147.572,77.79,147.271L77.79,147.271z"/>
	</g>
</g>
<g>
	<g>
		<path d="M82.002,153.542c5.535-3.807,9.92-8.752,14.374-13.723c2.646-2.953,5.387-5.79,8.426-8.342
			c4.498-3.776,8.939-4.637,14.577-4.613c0.677,0.003,2.074-1.019,0.771-1.023c-8.072-0.035-13.069,1.906-19.15,7.344
			c-7.186,6.424-12.498,14.574-20.531,20.098C79.592,153.886,81.543,153.857,82.002,153.542L82.002,153.542z"/>
	</g>
</g>
<g>
	<g>
		<path d="M34.948,130.896c-4.355-2.426-9.083-2.184-13.92-2.132c-0.689,0.008-2.072,1.059-0.762,1.059c1.961,0,3.921,0,5.882,0
			c0.688,0,2.078-1.028,0.762-1.059c-4.858-0.109-8.857,1.315-12.16,4.932c-0.321,0.352,0.271,0.539,0.516,0.539
			c0.932,0,1.863,0,2.794,0c2.738,0,1.355-0.206,1.193-0.118c-2.797,1.52-5.49,3.188-8.394,4.507
			c-0.542,0.246-0.889,0.931-0.005,0.905c2.766-0.082,11.496-2.106,10.887,2.539c-0.105,0.802,1.719,0.264,1.929-0.254
			c0.649-1.924,1.898-3.361,3.748-4.312c-0.498,0.035-0.995,0.069-1.493,0.104c0.271,0.648,0.543,1.297,0.815,1.945
			c0.148,0.562,1.271,0.166,1.56,0.009c3.812-2.072,4.679-6.089,5.37-10.101c0.124-0.72-1.819-0.38-1.929,0.254
			c-0.598,3.474-1.192,7.442-4.63,9.312c0.52,0.003,1.04,0.006,1.56,0.009c-0.395-1.49-0.176-1.037-0.95-2.172
			c-0.269-0.394-1.202-0.07-1.493,0.104c-2.127,1.277-3.547,2.779-4.488,5.101c0.643-0.085,1.286-0.169,1.929-0.254
			c0.397-3.028-2.167-3.566-4.665-3.748c-1.84-0.134-3.748,0.125-5.578,0.291c-1.22,0.11-0.011,0.184,1.362-0.525
			c2.31-1.192,4.482-2.604,6.822-3.75c0.538-0.263,0.894-0.905,0.005-0.905c-1.406,0-2.813,0-4.219,0
			c0.62-0.616,1.241-1.233,1.861-1.851c2.171-1.219,4.468-1.72,6.89-1.503c0.254-0.353,0.508-0.706,0.762-1.059
			c-1.961,0-3.921,0-5.882,0c-0.254,0.353-0.508,0.706-0.762,1.059c4.562-0.05,9.005-0.316,13.139,1.985
			C33.935,132.104,35.722,131.327,34.948,130.896L34.948,130.896z"/>
	</g>
</g>
<g>
	<g>
		<path d="M86.334,175.988c-10.905,0.37-21.674,2.094-32.5,3.325c-5.13,0.584-10.308,0.486-15.441,1.086
			c-4.248,0.496-8.771,2.774-13.061,1.808c-0.134,0.409-0.269,0.819-0.403,1.229c3.17-0.623,6.537-0.941,9.538,0.517
			c6.758,3.284-0.504,10.585-4.866,11.494c0.36,0.232,0.721,0.465,1.081,0.698c2.313-5.358,7.82-6.646,13.149-6.485
			c2.666,0.081,11.754,5.78,5.476,7.846c0.376,0.118,0.753,0.235,1.13,0.354c-1.253-5.006,5.766-5.651,9.224-5.863
			c2.314-0.142,4.148,0.51,6.158,1.656c0.818,0.497,1.58,1.07,2.287,1.719c2.738,2.415-1.838,0.311-0.904,3.311
			c-2.516-8.075,13.224-8.181,17.806-7.551c0.23-0.439,0.461-0.879,0.691-1.318c-0.49,0-0.98,0-1.471,0
			c-0.377,0-1.817,0.422-1.233,1.071c0.782,0.872,1.713,1.521,2.668,2.196c0.997,0.704,1.933,1.437,2.754,2.342
			c-1.046-1.154-2.006,5.196-3.354,0.379c-2.066-7.378,7.935-9.234,13.047-10.007c6.184-0.935,13.996-1.62,18.402,3.647
			c3.521,4.211-4.345,3.426-6.051,2.536c-3.068-1.6-1.604-5.001,0.011-6.881c2.284-2.659,6.865-3.628,10.045-4.601
			c4.079-1.248,7.542-2.441,11.885-2.232c2.866,0.138-0.311,2.11-1.522,2.032c-1.018-0.065-2.018-0.336-3.002-0.583
			c-3.571-0.896-7.003-2.402-10.398-3.8c-9.76-4.018-20.347-1.543-30.556-1.395c-1.066,0.016-1.515,1.338-0.197,1.318
			c8.687-0.126,17.733-2.133,26.304,0.033c3.452,0.872,6.771,2.736,10.122,3.944c3.186,1.149,13.028,4.412,12.285-2.249
			c-0.03-0.271-0.408-0.374-0.62-0.4c-7.333-0.936-14.446,1.615-21.165,4.365c-3.347,1.37-10.359,7.06-5.542,10.846
			c2.5,1.964,8.824,3.668,10.777-0.047c2.852-5.422-7.864-8.176-11.104-8.376c-7.788-0.481-26.611,0.735-24.652,12.365
			c0.6,3.561,3.567,5.063,6.381,2.787c4.488-3.632-2.743-6.82-4.742-9.046c-0.411,0.357-0.822,0.714-1.233,1.071
			c0.49,0,0.98,0,1.471,0c0.82,0,2.055-1.131,0.691-1.318c-6.423-0.883-23.377-0.073-20.135,10.33
			c0.108,0.349,0.551,0.437,0.867,0.4c2.245-0.254,5.787-0.832,4.988-3.878c-0.75-2.856-5.508-5.306-8.134-5.813
			c-4.654-0.897-16.554,0.438-14.78,7.524c0.11,0.441,0.792,0.465,1.13,0.354c6.977-2.296,2.528-7.849-2.518-9.711
			c-6.484-2.393-15.462,0.45-18.269,6.954c-0.302,0.7,0.622,0.794,1.081,0.698c5.351-1.115,10.615-5.408,8.341-11.329
			c-1.894-4.932-9.779-3.896-13.669-3.131c-0.522,0.103-1.298,1.026-0.403,1.229c2.749,0.619,5.341,0.117,8.058-0.489
			c5.381-1.201,10.606-1.695,16.115-1.935c12.644-0.551,25.091-3.278,37.767-3.709C87.199,177.271,87.655,175.943,86.334,175.988
			L86.334,175.988z"/>
	</g>
</g>
<g>
	<g>
		<path fill="#843694" d="M61.225,41.089c1.937,0,1.954-3.001,0.021-3.001C59.309,38.088,59.292,41.089,61.225,41.089L61.225,41.089
			z"/>
	</g>
</g>
<g>
	<g>
		<path fill="#843694" d="M66.225,39.324c1.937,0,1.954-3.001,0.021-3.001C64.309,36.323,64.292,39.324,66.225,39.324L66.225,39.324
			z"/>
	</g>
</g>
<g>
	<g>
		<path fill="#843694" d="M72.107,40.5c1.937,0,1.954-3.001,0.021-3.001C70.191,37.5,70.174,40.5,72.107,40.5L72.107,40.5z"/>
	</g>
</g>
<g>
	<g>
		<path fill="#843694" d="M77.401,44.912c1.937,0,1.954-3.001,0.021-3.001C75.485,41.911,75.468,44.912,77.401,44.912L77.401,44.912
			z"/>
	</g>
</g>
<g>
	<g>
		<path fill="#843694" d="M80.636,49.912c1.937,0,1.954-3.001,0.021-3.001C78.721,46.911,78.704,49.912,80.636,49.912L80.636,49.912
			z"/>
	</g>
</g>
<g>
	<g>
		<path fill="#843694" d="M106.519,50.5c1.938,0,1.954-3.001,0.021-3.001C104.603,47.5,104.586,50.5,106.519,50.5L106.519,50.5z"/>
	</g>
</g>
<g>
	<g>
		<path fill="#843694" d="M108.577,45.794c1.938,0,1.954-3.001,0.021-3.001C106.661,42.793,106.645,45.794,108.577,45.794
			L108.577,45.794z"/>
	</g>
</g>
<g>
	<g>
		<path fill="#843694" d="M113.283,41.971c1.938,0,1.954-3.001,0.021-3.001C111.367,38.97,111.351,41.971,113.283,41.971
			L113.283,41.971z"/>
	</g>
</g>
<g>
	<g>
		<path fill="#843694" d="M117.989,41.971c1.938,0,1.954-3.001,0.021-3.001C116.073,38.97,116.057,41.971,117.989,41.971
			L117.989,41.971z"/>
	</g>
</g>
<g>
	<g>
		<path fill="#843694" d="M122.989,41.971c1.938,0,1.954-3.001,0.021-3.001C121.073,38.97,121.057,41.971,122.989,41.971
			L122.989,41.971z"/>
	</g>
</g>
<g>
	<g>
		<path fill="#843694" d="M94.46,81.971c1.937,0,1.954-3.001,0.021-3.001C92.544,78.97,92.527,81.971,94.46,81.971L94.46,81.971z"/>
	</g>
</g>
<g>
	<g>
		<path fill="#843694" d="M90.342,86.383c1.937,0,1.954-3.001,0.021-3.001C88.427,83.382,88.41,86.383,90.342,86.383L90.342,86.383z
			"/>
	</g>
</g>
<g>
	<g>
		<path fill="#843694" d="M87.401,90.794c1.937,0,1.954-3.001,0.021-3.001C85.485,87.793,85.468,90.794,87.401,90.794L87.401,90.794
			z"/>
	</g>
</g>
<g>
	<g>
		<path fill="#843694" d="M85.048,95.5c1.937,0,1.954-3.001,0.021-3.001C83.132,92.5,83.115,95.5,85.048,95.5L85.048,95.5z"/>
	</g>
</g>
<g>
	<g>
		<path fill="#843694" d="M85.636,100.207c1.937,0,1.954-3.001,0.021-3.001C83.721,97.206,83.704,100.207,85.636,100.207
			L85.636,100.207z"/>
	</g>
</g>
<g>
	<g>
		<path fill="#843694" d="M42.695,184.912c1.937,0,1.954-3,0.021-3C40.78,181.912,40.763,184.912,42.695,184.912L42.695,184.912z"/>
	</g>
</g>
<g>
	<g>
		<path fill="#843694" d="M49.46,187.265c1.937,0,1.954-3,0.021-3C47.544,184.265,47.527,187.265,49.46,187.265L49.46,187.265z"/>
	</g>
</g>
<g>
	<g>
		<path fill="#843694" d="M60.048,184.912c1.937,0,1.954-3,0.021-3C58.132,181.912,58.115,184.912,60.048,184.912L60.048,184.912z"
			/>
	</g>
</g>
<g>
	<g>
		<path fill="#843694" d="M62.695,187.853c1.937,0,1.954-3,0.021-3C60.78,184.853,60.763,187.853,62.695,187.853L62.695,187.853z"/>
	</g>
</g>
<g>
	<g>
		<path fill="#843694" d="M75.048,185.794c1.937,0,1.954-3,0.021-3C73.132,182.794,73.115,185.794,75.048,185.794L75.048,185.794z"
			/>
	</g>
</g>
<g>
	<g>
		<path fill="#843694" d="M82.695,187.853c1.937,0,1.954-3,0.021-3C80.78,184.853,80.763,187.853,82.695,187.853L82.695,187.853z"/>
	</g>
</g>
<g>
	<g>
		<path fill="#843694" d="M83.872,180.794c1.937,0,1.954-3,0.021-3C81.956,177.794,81.939,180.794,83.872,180.794L83.872,180.794z"
			/>
	</g>
</g>
<g>
	<g>
		<path fill="#843694" d="M91.813,182.853c1.937,0,1.954-3,0.021-3C89.897,179.853,89.88,182.853,91.813,182.853L91.813,182.853z"/>
	</g>
</g>
<g>
	<g>
		<path fill="#843694" d="M101.519,181.383c1.938,0,1.954-3,0.021-3C99.603,178.383,99.586,181.383,101.519,181.383L101.519,181.383
			z"/>
	</g>
</g>
<g>
	<g>
		<path fill="#843694" d="M105.931,177.853c1.938,0,1.954-3,0.021-3C104.015,174.853,103.998,177.853,105.931,177.853
			L105.931,177.853z"/>
	</g>
</g>
<g>
	<g>
		<path fill="#843694" d="M113.577,180.206c1.938,0,1.954-3,0.021-3C111.661,177.206,111.645,180.206,113.577,180.206
			L113.577,180.206z"/>
	</g>
</g>
<g>
	<g>
		<path fill="#843694" d="M53.283,190.206c1.937,0,1.954-3,0.021-3C51.368,187.206,51.351,190.206,53.283,190.206L53.283,190.206z"
			/>
	</g>
</g>
<g>
	<g>
		<path fill="#843694" d="M69.46,181.677c1.937,0,1.954-3,0.021-3C67.544,178.677,67.527,181.677,69.46,181.677L69.46,181.677z"/>
	</g>
</g>
<g>
	<g>
		<path fill="#843694" d="M69.754,189.912c1.937,0,1.954-3,0.021-3C67.838,186.912,67.821,189.912,69.754,189.912L69.754,189.912z"
			/>
	</g>
</g>
<g>
	<g>
		<path fill="#843694" d="M77.695,180.206c1.937,0,1.954-3,0.021-3C75.78,177.206,75.763,180.206,77.695,180.206L77.695,180.206z"/>
	</g>
</g>
<g>
	<g>
		<path fill="#843694" d="M95.342,179.029c1.937,0,1.954-3,0.021-3C93.427,176.029,93.41,179.029,95.342,179.029L95.342,179.029z"/>
	</g>
</g>
<g>
	<g>
		<path fill="#843694" d="M51.225,183.147c1.937,0,1.954-3,0.021-3C49.309,180.147,49.292,183.147,51.225,183.147L51.225,183.147z"
			/>
	</g>
</g>
<g>
	<g>
		<path fill="#843694" d="M107.989,184.617c1.938,0,1.954-3,0.021-3C106.073,181.617,106.057,184.617,107.989,184.617
			L107.989,184.617z"/>
	</g>
</g>
<g>
	<g>
		<path fill="#F6DA07" d="M79.881,115.735c0.106,5.961,3.004,13.376,9.636,14.466c2.621,0.431,6.15-1.769,4.92-4.894
			c-1.806-4.587-4.566-8.373-7.742-12.109c-1.411-1.661-4.227-1.419-5.658,0.03c-1.628,1.649-1.381,3.996,0.031,5.657
			c2.183,2.57,4.393,5.322,5.641,8.492c1.64-1.631,3.28-3.263,4.92-4.894c-2.842-0.468-3.699-3.997-3.747-6.69
			C87.791,110.634,79.789,110.58,79.881,115.735L79.881,115.735z"/>
	</g>
</g>
<g>
	<g>
		<path fill="#603913" d="M43.156,104.55c-8.175,5.204-16.855,9.412-26.634,10.294c-1.763,0.159-3.537,0.282-5.251-0.188
			c0.856,0.234,0.175,2.24,0.625,0.61c0.388-1.404,3.299-0.608,4.063-0.373c-0.444-3.35-0.889-6.7-1.333-10.05
			c-2.297,1.547-5.032,1.078-7.561,0.337c-3.55-1.039-3.931-2.131-1.828-4.07c1.143-1.055,2.674-1.817,4.009-2.588
			c2.984-1.724,0.825-7.662-2.514-7.674c-2.102-0.008-5.492-2.033-6.635-3.751c-1.107,2.699-2.214,5.398-3.321,8.098
			c1.785-0.432,3.601,1.157,4.944,2.098c0.93-3.421,1.86-6.843,2.79-10.265c-1.308-0.114-2.473-1.104-3.4-1.932
			c-0.486-0.428-0.864-0.936-1.132-1.522c0.241,0.627-1.21,0.605-1.429,0.27c1.595-2.762,3.189-5.524,4.784-8.287
			c-5.081-0.029-4.649-6.966-4.593-10.831c0.04-2.71,1.661,0.501-2.809,1.017c0.315-0.036,1.129,0.913,1.327,1.188
			c0.358,0.528,0.683,1.077,0.972,1.646c0.664,2.233,2.462,1.256,5.395-2.93c-0.723-0.561-0.931-2.022-1.153-2.829
			c-0.181-0.656-0.499-3.299-0.395-3.311c-4.487,0.489,6.042-2.099,2.704-3.944c-0.829-0.458-1.306-1.199-1.744-1.995
			c-0.846-1.537-1.407-3.57-1.596-5.3c-0.348-3.182-0.553,1.043-1.783-0.067c0.755,0.682,1.02,2.173,1.074,3.113
			c1.847-1.821,3.694-3.641,5.541-5.462c3.091,0.022,2.132,2.647,1.821,0.192c-0.179-1.415-0.093-2.863,0.201-4.252
			c0.697-3.293,0.076,2.461-2.524-1.126c0.712,0.982,0.804,2.413,0.844,3.589c3.416-0.915,6.831-1.83,10.246-2.746
			c-2.979-3.829-3.747-9.968-1.746-14.465c1.059-2.38-0.546,0.363-1.382-0.92c0.125,0.191,0.399,2.705,0.368,2.124
			c0.167,3.153,7.521,2.259,7.967-0.765c0.188-1.277,0.532-2.538,0.823-3.794c0.478-2.059,0.833-4.325,2.249-5.987
			c1.546-1.814,9.953,3.318,8.179-1.748c-0.298-0.852-0.374-1.768-0.449-2.658c-0.151-1.778-0.125-3.573-0.02-5.352
			c0.079-1.33,0.068-0.508-0.103-0.099c0.219-0.523,0.578-1.004,1.036-1.344c2.8-2.074,6.483-2.364,9.834-2.073
			c2.775,0.241,3.902,1.296,1.996,3.269c-1.991,2.06-0.729-0.561-0.646,1.406c-0.025-0.595,0.578-1.529,0.925-1.969
			c1.107-1.4,2.894-2.117,4.631-2.293c1.425-0.145,3.01-0.052,4.316,0.58c0.966,0.467,0.764,0.858,0.368-0.111
			c0.118,0.288-0.729,1.458-0.826,1.585c2.593-0.014,5.187-0.028,7.779-0.042c-0.626-0.396-1.167-0.884-1.622-1.463
			c0.561,0.823,0.072,0.784,0.892-0.132c1.327-1.485,3.365-2.616,5.189-3.359c0.896-0.365,4.826-1.803,5.522-0.746
			c0.299,0.453,0.312,1.269,0.354,1.814c0.261,3.283,6.186-0.634,5.75,2.148c0.487-3.115,6.584-5.313,10.189-5.638
			c4.993-0.45,11.087,1.529,13.935,5.837c1.106-2.699,2.214-5.398,3.32-8.098c-0.392,0.098-0.783,0.196-1.176,0.294
			c2.243,2.255,4.486,4.51,6.729,6.765c0.789-4.267,2.44-8.466,5.375-11.72c2.896-3.213,8.519-1.317,11.804,0.276
			c7.645,3.708,11.271,10.658,8.119,17.94c-0.257,0.565-0.546,1.114-0.866,1.646c-0.978,1.73,3.388-2.181,3.768,1.767
			c-0.102-1.057,0.129-2.072,0.361-3.091c0.16-0.701,1.112-1.936,0.115-1.279c2.796-1.841,8.054-1.249,11.186-1.065
			c8.273,0.483,9.313,10.375,7.321,16.776c-0.144,0.462-0.349,0.896-0.618,1.302c1.011-1.867,4.503,3.822,4.992,1.39
			c0.187-0.929,0.623-1.643,1.092-2.448c0.75-1.288,0.638,0.083-0.576-0.246c3.396,0.921,6.772,5.174,9.047,7.682
			c3.702,4.079,8.105,10.038,8.624,15.725c0.398,4.367-4.688,8.253-8.346,9.551c1.397,1.257,1.719,1.152,0.962-0.315
			c-0.2-0.664-0.245-1.994,0.413-2.453c0.912-0.636,2.355,0.427,3.067,0.865c2.816,1.732,4.644,5.514,5.628,8.52
			c0.859,2.624,1.407,5.946-1.191,7.623c-3.098,2-5.096-0.971-4.395-3.738c-2.686,1.104-5.37,2.208-8.056,3.311
			c9.376,4.063-4.535,14.2-8.969,16.779c-0.811,0.472-1.443,0.653-2.338,0.88c0.462-0.118,0.851,0.738,0.193-0.294
			c-0.748-1.175,0.166-0.487-0.679-0.143c3.236-1.318,3.01,1.94,2.57,3.795c-1.2,5.065,1.967,7.928,6.157,10.018
			c4.702,2.344,7.927,4.338,10.459,9.21c0.766,1.474,0.282,2.695-0.279,3.258c0.808-0.81,0.654-0.416,1.075-0.336
			c-1.126-0.215-3.037-1.946-4.646-3.794c-1.74-1.997-3.064-4.42-4.247-6.775c-0.873-1.74-1.856-5.184-1.896-6
			c-0.072-1.47,0.31-0.388-0.574,0.554c-0.498,0.53-1.137,0.888-1.872,0.922c1.284-0.06-0.838-0.252,0.685,0.163
			c4.418,1.205,7.8,5.625,9.847,9.437c1.689,3.148-0.345,10.745-4.877,8.154c-3.807-2.176-7.816-7.299-8.917-11.539
			c0.369,1.42-2.284,1.911-1.688,2.002c0.939,0.144,1.678,0.545,2.498,0.995c1.421,0.778,3.486,2.506,3.188,4.353
			c-0.658,4.055-6.956,5.834-9.98,3.494c-0.537-0.446-1.032-0.937-1.485-1.468c-1.877-2.497,1.038,0.859-2.204,0.197
			c1.563,0.319,3.237,2.172,4.145,3.372c1.127,1.489,1.298,0.817,0.652,2.267c-0.757,1.699-2.052,2.993-3.39,4.242
			c-1.149,1.073-5.329,4.188-6.944,2.633c-2.35-2.26-0.553-6.443,1.204-8.269c1.939-2.016,5.241-3.017,7.98-2.56
			c1.882,0.313,7.118,3.679,5.879,5.023c-2.025,2.197-6.084,0.188-7.376-1.658c-0.731-1.047-1.387-2.322-1.492-3.616
			c-1.132,0.135-2.264,0.271-3.396,0.406c-0.387-0.254-0.253,0.018,0.399,0.815c0.938,1.62,0.014,2.83-1.59,3.405
			c-6.626,2.379-3.833,13.023,2.848,10.625c4.81-1.727,9.058-5.007,9.911-10.371c0.788-4.949-1.291-10.547-5.394-13.513
			c-3.944-2.853-9.178-1.572-11.789,2.427c-3.508,5.372-1.652,11.577,1.785,16.495c5.489,7.854,16.774,8.753,23.913,2.723
			c8.534-7.209-0.275-19.294-7.96-22.452c-8.33-3.423-18.427-0.197-23.645,7.024c-5.082,7.034-4.263,19.262,4.078,23.595
			c8.196,4.259,18.355-2.513,23.016-9.085c6.053-8.535,1.89-16.76-5.91-22.296c-10.082-7.157-20.05,4.249-14.21,14.139
			c5.862,9.929,18.639,9.554,26.773,3.106c9.408-7.456,4.56-20.161-4.472-25.11c-9.57-5.245-19.11,1.757-15.187,12.371
			c2.843,7.689,12.946,20,22.371,17.538c12.464-3.256,15.759-15.71,10.124-26.208c-3.75-6.987-12.63-14.978-21.207-13.651
			c-6.496,1.004-7.289,8.158-6.188,13.339c1.982,9.338,12.141,26.561,23.884,23.061c10.119-3.015,8.815-15.473,4.004-22.374
			c-2.653-3.806-6.098-6.826-10.28-8.804c-1.049-0.496-2.099-0.982-3.137-1.5c-2.753-1.373-0.506,4.925,0.202,1.937
			c0.642-2.706,0.844-4.929,0.173-7.661c-2.036-8.3-12.819-11.905-19.652-7.105c-7.642,5.367-4.643,18.893,4.786,20.238
			c8.564,1.222,17.539-6.828,22.631-12.986c6.758-8.175,6.62-20.323-4.06-24.951c-3.148-1.364-7.108-0.427-8.056,3.311
			c-2.536,10.001,5.2,20.396,16.141,17.814c10.339-2.439,13.261-12.325,10.682-21.642c-2.358-8.524-9.148-16.859-18.372-17.661
			c-11.782-1.025-16.579,15.861-8.276,22.842c8.892,7.478,21.662-5.367,24.596-13.247c4.102-11.018-6.647-24.46-13.872-31.59
			c-3.396-3.351-7.427-6.662-12.106-7.93c-5.081-1.377-9.11,2.465-11.457,6.496c-2.222,3.814-2.84,8.446-0.827,12.429
			c2.27,4.492,9.28,4.661,12.446,1.154c10.563-11.699,4.005-34.779-12.097-36.764c-6.517-0.804-18.018-1.189-22.076,5.258
			c-3.959,6.291-4.783,17.237,3.7,19.938c7.831,2.494,11.988-7.888,13.408-13.545c2.057-8.197-2.011-16.099-7.887-21.684
			c-6.393-6.077-16.862-9.931-25.544-7.172c-8.145,2.588-12.906,12.844-14.34,20.598c-0.75,4.054,2.444,7.838,6.729,6.765
			c0.392-0.098,0.783-0.196,1.176-0.294c3.338-0.836,5.288-5.122,3.32-8.098c-7.918-11.979-23.149-13.48-35.293-7.735
			c-4.943,2.338-9.08,6.703-9.253,12.429c-0.185,6.124,5.565,10.621,11.412,7.836c5.383-2.565,5.459-9.696,3.807-14.604
			c-2.38-7.069-9.473-8.204-15.957-7.218C55.808-7.912,42.815,5.484,54.425,14.675c2.113,1.672,5.808,2.52,7.779-0.042
			c6.054-7.868,4.658-17.155-5.543-20.197C47.377-8.332,37.892-3.208,34.541,5.569c-1.86,4.872,0.443,9.531,4.321,12.414
			c4.911,3.649,11.86,0.262,15.467-3.471c7.067-7.314,2.339-17.043-5.951-20.182c-7.312-2.769-16.761-0.407-22.52,4.542
			C20.588,3.4,20.796,13.377,22.9,19.388c1.489,4.253,5.417,6.17,9.559,4.143c5.613-2.748,4.218-10.149,0.991-13.919
			c-3.547-4.144-9.83-3.847-14.077-1.32c-4.588,2.729-6.153,8.446-7.272,13.273c-1.232,5.311-1.829,17.534,7.511,15.101
			c7.529-1.961,6.513-13.516,2.178-18.095C15.781,12.224,7.18,16.5,4.611,23.823c-2.553,7.275-2.103,17.002,2.762,23.256
			c3.03,3.895,10.449,3.294,10.246-2.746c-0.15-4.466-1.393-10.104-5.549-12.596C7.3,28.878,1.858,30.569-0.91,35.208
			c-3.975,6.662-2.992,21.574,7.105,21.646c2.849,0.02,5.714-2.469,5.541-5.462c-0.258-4.46-1.761-8.685-5.14-11.736
			c-3.404-3.073-9.889-3.801-13.221-0.115c-5.277,5.837-2.832,16.712,2.004,22.237c2.498,2.853,5.665,4.668,9.447,5.036
			c5.011,0.487,7.569-4.882,6.937-9.056C9.918,45.564-4.449,46.566-8.482,56.666c-2.362,5.915,2.224,20.303,10.266,19.307
			c10.196-1.263,8.574-12.694,2.143-17.941c-3.59-2.929-7.697-4.083-11.991-2.207c-3.848,1.682-4.279,7.292-4.185,10.805
			c0.271,10.059,4.002,19.865,15.503,19.931c4.042,0.023,7.105-4.718,4.784-8.287c-4.405-6.771-16.377-6.977-18.616,2.058
			c-2.282,9.209,6.408,16.947,15.008,17.699c5.995,0.524,6.867-7.411,2.79-10.265C3.193,84.947-1.183,83.387-6.07,84.57
			c-3.343,0.809-5.287,5.144-3.321,8.098c4.592,6.899,14.685,11.531,22.503,7.62c3.167-1.583,5.404-6.522,3.199-9.697
			c-2.435-3.506-6.162-4.014-10.041-2.698c-8.354,2.834-17.073,11.355-11.994,20.442c4.622,8.268,18.213,11.189,25.921,5.998
			c3.947-2.658,3.379-8.6-1.333-10.05c-5.389-1.659-11.357-0.645-15.151,3.766c-3.384,3.934-4.105,10.117-0.363,14.107
			c4.978,5.31,13.214,3.9,19.614,2.867c9.24-1.492,17.956-6.014,25.764-10.984C54.688,110.243,49.157,100.729,43.156,104.55
			L43.156,104.55z"/>
	</g>
</g>
<g>
	<g>
		<path fill="#603913" d="M165.665,82.247c2.888,0.967,5.765,2.425,8.133,4.35c0.469,0.417,0.926,0.847,1.369,1.291
			c1.945,2.502-1.689-2.067,2.442,0.077c-1.056-0.548-1.239-2.651-1.411-3.629c-0.29-1.644-0.292-3.609-0.057-5.26
			c0.33-2.312-0.062-2.259,1.332-0.154c1.301,1.967,1.029,4.498,0.968,6.791c-0.033,1.239-1.812,11.752-3.272,11.008
			c-1.418-0.722-2.06-6.153-2.324-7.569c-0.282-1.504-0.341-3.037-0.362-4.563c-0.029-2.21,0.655-1.35-0.659-1.273
			c1.144-0.066,2.019,2.305,1.313,2.562c-2.617,0.953-6.032-0.349-8.479-1.236c-2.968-1.075-5.571-3.206-4.807-6.536
			c0.499-2.172,1.803-4.165,2.913-6.061c0.466-0.709,1.001-1.361,1.604-1.956c-1.288,0.024-2.576,0.049-3.863,0.073
			c0.564,0.655,1.063,1.359,1.494,2.11c1.439,2.201,2.415,4.63,3.25,7.114c0.188,0.58,0.354,1.167,0.498,1.76
			c0.99,3.771-3.24-5.79,5.162-2.217c-0.559-0.238-0.773-2.323-0.873-2.76c-1.988-8.694,2.506-16.802,5.963-24.418
			c-3.358-0.442-6.717-0.884-10.075-1.327c1.311,10.076-1.907,19.965,4.973,28.664c2.431,3.072,6.745,1.332,8.632-1.161
			c5.336-7.044,5.294-20.461,2.902-28.585c-1.83-6.219-10.22-4.646-10.813,1.384c-0.371,3.768,0.204,7.419,0.798,11.136
			c0.557,3.486,1.44,7.132-1.872,9.224c-2.235,1.412-5.627,3.82-8.33,3.961c2.349-0.123,1.564,2.164,1.32-1.091
			c-0.177-2.351-0.235-4.685-0.506-7.033c-0.492-4.274-1.303-8.507-1.958-12.757c-0.407-2.638-0.547-5.284-0.577-7.949
			c-0.002-0.988,0.056-1.973,0.172-2.954c0.612-1.768-0.515-1.292-3.38,1.428c3.674,0.52,2.973,13.253,2.863,15.741
			c3.604-0.461,7.209-0.923,10.813-1.384c-1.814-7.517-1.018-15.304-0.694-22.949c-3.415,0.915-6.83,1.83-10.245,2.746
			c1.521,2.531,3.268,4.853,5.287,7.008c3.488,3.721,9.003,0.591,9.37-3.871c0.389-4.721-1.449-9.918-3.135-14.242
			c-1.745-4.476-4.45-10.629-9.738-11.692c-3.896-0.784-8.051,2.497-6.765,6.729c1.981,6.522,5.572,12.258,8.841,18.185
			c3.249,5.89,6.106,12.695,7.924,19.168c1.469,5.232,9.178,5.367,10.618,0.029c2.962-10.974,2.959-26.803-9.025-32.392
			c-6.383-2.977-11.937,6.524-5.5,9.526c7.114,3.318,5.595,13.732,3.914,19.961c3.539,0.009,7.079,0.019,10.618,0.029
			c-1.804-6.426-4.705-12.773-7.487-18.833c-2.892-6.295-7.246-11.836-9.277-18.521c-2.255,2.243-4.51,4.486-6.765,6.729
			c-0.855-0.172,0.358,0.76,0.768,1.448c0.862,1.45,1.474,3.019,2.047,4.598c1.024,2.823,2.212,6.146,1.961,9.198
			c3.123-1.291,6.246-2.581,9.37-3.871c-1.39-1.481-2.492-3.019-3.537-4.757c-2.862-4.761-10.017-2.65-10.245,2.746
			c-0.368,8.683-0.989,17.339,1.071,25.875c1.498,6.207,10.546,4.685,10.813-1.384c0.397-8.995-0.415-24.939-12.014-26.58
			c-16.04-2.269-7.758,27.301-6.895,34.795c0.598,5.19-0.285,11.228,4.029,15.104c4.463,4.01,10.493,1.686,15.104-0.672
			c4.659-2.384,10.054-5.121,11.671-10.543c2.175-7.287-1.149-14.465-0.426-21.809c-3.604,0.461-7.209,0.923-10.813,1.384
			c1.665,5.656,1.912,15.333-1.803,20.238c2.877-0.387,5.754-0.774,8.632-1.161c-2.132-2.695-1.688-7.504-1.681-10.688
			c0.008-4.383,0.162-8.641-0.405-13c-0.609-4.686-8.194-5.47-10.075-1.327c-4.87,10.728-8.811,19.808-7.247,31.718
			c0.561,4.268,2.592,8.086,6.183,10.487c3.793,2.536,10.009,0.939,11.126-3.774c1.75-7.384-3.656-16.967-8.293-22.34
			c-8.767-10.159-18.532,8.413-19.462,15.419c-1.405,10.598,8.626,16.992,17.749,18.838c8.707,1.761,20.374-2.896,17.578-13.872
			c-2.475-9.717-16.229-15.049-21.457-4.417c-3.324,6.758-0.474,18.503,3.473,24.435c3.377,5.077,9.558,5.999,14.772,3.219
			c4.86-2.591,6.951-8.941,7.867-13.966c0.875-4.795,1.238-10.268-0.155-15.007c-1.882-6.404-10.211-14.277-17.19-9.446
			c-6.284,4.35-6.955,11.469-5.985,18.595c0.853,6.267,5.015,12.748,11.982,12.771c8.144,0.027,10.39-9.781,7.767-15.735
			c-2.608-5.922-10.892-9.623-16.61-11.537C161.821,69.376,158.973,80.007,165.665,82.247L165.665,82.247z"/>
	</g>
</g>
<g>
	<g>
		<path fill="#603913" d="M78.233,9.561c7.603,0.019,15.203,0.215,22.805,0.058c7.59-0.157,15.096-1.484,22.699-1.166
			c1.69,0.071,3.293,0.464,4.93,0.858c1.967,0.473,1.251,0.563,0.663,0.04c-1.19-1.059,0.27,0.761,0.44,1.106
			c0.513,1.038,0.979,2.099,1.485,3.141c2.876,5.927,8.353,10.134,13.412,14.092c8.393,6.565,20.007-4.213,11.959-12.087
			c-1.251-1.223-2.673-2.388-3.647-3.849c-1.711,4.172-3.421,8.343-5.132,12.515c0.47-0.103,0.94-0.205,1.41-0.308
			c-1.481-0.003-2.963-0.007-4.444-0.01c0.862-0.066,1.586,0.247,2.172,0.94c4.37,2.983,11.397,0.019,12.45-5.117
			c0.43-2.098,0.788-4.163,0.596-6.301c-0.415-4.61-3.477-8.53-8.44-8.563c-4.29-0.028-8.979,3.821-8.563,8.441
			c0.179,0.653,0.182,1.298,0.008,1.935c4.15-1.706,8.3-3.412,12.45-5.117c-3.752-2.561-7.611-3.286-12.038-2.32
			c-5.212,1.138-8.125,8.028-5.132,12.515c1.833,2.749,4.003,5.029,6.353,7.328c3.986-4.029,7.973-8.058,11.959-12.087
			c-4.852-3.795-9.117-7.15-11.756-12.818c-2.687-5.77-7.024-8.747-13.156-10.22c-8.88-2.134-17.811-0.707-26.763-0.096
			c-8.831,0.603-17.754,0.11-26.597,0.088C67.376-7.471,67.282,9.533,78.233,9.561L78.233,9.561z"/>
	</g>
</g>
<g>
	<g>
		<path fill="#603913" d="M70.708-2.443C57.613-2.005,45.745,1.116,33.204,4.519c-6.023,1.635-10.396,4.127-14,9.247
			c-3.123,4.436-4.774,10.197-6.513,15.281C8.185,42.219,6.472,56.633,4.473,70.375c-1.06,7.29-0.297,14.574-0.542,21.901
			c-0.1,3.01-0.511,6-0.609,9.016c-0.074,2.25-0.028,4.443-1.212,6.399c-5.688,9.393,9.046,17.874,14.723,8.5
			c2.731-4.512,3.283-9.606,3.493-14.777c0.246-6.044,0.741-11.979,0.575-18.043C20.717,76.66,21.718,70.59,22.789,64
			c1.081-6.649,1.912-13.324,3.293-19.922c1.117-5.337,2.913-10.492,4.8-15.597c0.671-1.814,1.5-3.532,2.434-5.225
			c0.768-1.394,0.586-1.151,2.867-1.898c11.231-3.677,22.561-6.399,34.402-6.796C81.531,14.194,81.663-2.81,70.708-2.443
			L70.708-2.443z"/>
	</g>
</g>
<g>
	<g>
		<path fill="#603913" d="M34.068,99.917c-7.146-1.785-12.794-7.868-19.706-10.588C9.187,87.293,3.61,92.41,3.616,97.468
			c0.007,5.907-0.385,14.306,4.288,18.752c4.703,4.474,14.363,8.382,20.283,3.935c12.205-9.168-1.735-24.083-7-32.907
			c-3.486-5.842,2.015-14.5,4.221-19.868c3.355-8.163,4.699-17.067,8.576-25.017c1.875-3.844,4.566-7.161,7.104-10.571
			c2.586-3.476,4.202-7.259,5.824-11.247c2.484-6.11,5.094-11.835,11.275-14.802c9.875-4.74,1.219-19.381-8.608-14.664
			C38.356-3.534,34.421,7.344,29.704,17.956c-2.56,5.76-7.45,10.341-10.442,15.908c-3.284,6.108-5.096,12.98-7.011,19.601
			C8.583,66.147,0.072,78.02,4.672,91.67c1.4,4.157,4.074,7.539,6.52,11.108c1.286,1.877,2.5,3.797,3.621,5.776
			c-0.114-0.201,1.338,2.881,0.831,1.571c1.063,2.742-0.38,0.649,0.878-1.553c1.019-1.027,2.038-2.055,3.057-3.082
			c1.271-0.955,3.705-0.106,1.207-0.82c-2.515-0.718-0.162-0.649,0.288,0.916c-0.72-2.504-0.45-5.418-0.453-7.997
			c-3.582,2.713-7.164,5.426-10.746,8.139c7.088,2.789,12.034,8.671,19.706,10.588C40.224,118.976,44.704,102.574,34.068,99.917
			L34.068,99.917z"/>
	</g>
</g>
<g>
	<g>
		<path fill="#603913" d="M93.233,10.149c15.422-0.139,31.616-4.819,46.734-0.163c7.562,2.329,13.177,9.508,17.751,15.569
			c6.044,8.009,11.388,16.48,17.832,24.194c2.971,3.556,9.003,2.994,12.023-0.064c3.48-3.525,2.905-8.467-0.064-12.022
			c-12.47-14.926-21.317-35.552-40.494-43.124c-17.273-6.819-35.818-1.555-53.66-1.394C82.384-6.756,82.277,10.248,93.233,10.149
			L93.233,10.149z"/>
	</g>
</g>
<g>
	<g>
		<path fill="#603913" d="M105.168,9.258c23.335,4.802,48.521,18.179,62.265,38.164c6.166,8.967,20.893,0.448,14.664-8.608
			c-16.235-23.609-44.615-40.228-72.44-45.955C98.951-9.344,94.428,7.048,105.168,9.258L105.168,9.258z"/>
	</g>
</g>
<g>
	<g>
		<path fill="#603913" d="M107.521,15.141c8.31,3.205,16.248,6.961,23.631,11.977c6.692,4.546,14.716,8.583,19.517,15.304
			c6.311,8.835,21.049,0.331,14.664-8.608c-6.119-8.567-14.343-13.722-22.938-19.497C132.738,7.83,122.869,2.93,112.009-1.258
			c-4.332-1.671-9.31,1.827-10.444,5.956C100.244,9.505,103.207,13.478,107.521,15.141L107.521,15.141z"/>
	</g>
</g>
<g>
	<g>
		<path fill="#603913" d="M23.008,66.191c8.434-18.824,18.317-37.177,29.459-54.539C61.819-2.92,74.483-18.393,91.965-23.083
			c10.588-2.841,6.188-19.262-4.4-16.421C67.643-34.159,52.625-18.447,41.226-2.074C28.3,16.492,17.522,37.076,8.286,57.691
			c-1.893,4.224-1.206,9.119,3.111,11.611C15.1,71.441,21.111,70.425,23.008,66.191L23.008,66.191z"/>
	</g>
</g>
<g>
	<g>
		<path fill="#603913" d="M31.494,58.597c4.58-11.998,7.925-24.426,12.691-36.357c4.504-11.274,13.246-19.437,20-29.284
			c6.21-9.055-8.559-17.487-14.723-8.5c-3.249,4.737-7.11,9.004-10.622,13.543C34.446,3.68,31.188,9.535,28.443,16.164
			c-5.135,12.403-8.565,25.412-13.349,37.945c-1.656,4.337,1.815,9.307,5.956,10.444C25.846,65.871,29.845,62.917,31.494,58.597
			L31.494,58.597z"/>
	</g>
</g>
<g>
	<g>
		<path fill="#603913" d="M23.303,60.309C33.885,44.816,44.348,29.24,55.372,14.056c9.513-13.102,19.953-30.284,35.71-36.552
			c4.304-1.712,7.315-5.541,6.01-10.411c-1.093-4.08-6.095-7.727-10.411-6.01C68.049-31.505,56.729-16.03,45.091-0.474
			C32.356,16.549,20.568,34.259,8.58,51.809C2.387,60.875,17.154,69.31,23.303,60.309L23.303,60.309z"/>
	</g>
</g>
<g>
	<g>
		<path fill="#603913" d="M30.22,54.685C46.725,34.008,63.816,13.67,77.42-9.103c5.63-9.425-9.101-17.912-14.723-8.5
			C49.825,3.945,33.75,23.163,18.133,42.727c-2.884,3.613-3.497,8.506,0.064,12.022C21.23,57.745,27.323,58.314,30.22,54.685
			L30.22,54.685z"/>
	</g>
</g>
<g>
	<g>
		<path fill="#603913" d="M4.792,63.645c0.156,7.312,0.039,14.504,1.238,21.749c1.26,7.61,5.627,14.287,10.409,20.161
			c5.517,6.78,24.5,21.491,28.585,5.396c2.7-10.637-13.703-15.113-16.399-4.488c-0.046,0.182-0.092,0.363-0.138,0.545
			c0.719-1.245,1.438-2.49,2.156-3.735c-0.098,0.109-0.195,0.218-0.292,0.326c1.281-0.743,2.563-1.487,3.844-2.231
			c4.246,0.971,5.356,0.965,3.331-0.02c-0.573-0.344-1.131-0.708-1.676-1.095c-0.813-0.554-1.375-1.037-2.234-1.723
			c-2.97-2.371-5.053-4.903-7.202-8.019c-5.507-7.986-4.419-17.495-4.616-26.743C21.563,52.807,4.559,52.688,4.792,63.645
			L4.792,63.645z"/>
	</g>
</g>
<g>
	<g>
		<path fill="#603913" d="M131.691,28.126c-0.797-0.652-0.829-0.676-0.098-0.071c0.523,0.435,1.003,0.922,1.484,1.402
			c0.973,0.97,1.864,2.025,2.776,3.051c2.234,2.513,4.732,4.723,7.602,6.5c3.938,2.44,9.35,0.806,11.611-3.111
			c2.369-4.104,0.824-9.173-3.111-11.611c-0.428-0.252-0.844-0.522-1.247-0.811c1.547,1.056-0.263-0.32-0.48-0.52
			c-1.026-0.946-1.949-2.009-2.876-3.051c-2.197-2.47-4.438-4.592-7.161-6.5c-3.799-2.66-9.447-0.637-11.611,3.111
			C126.113,20.787,127.899,25.471,131.691,28.126L131.691,28.126z"/>
	</g>
</g>
<g>
	<g>
		<path fill="#603913" d="M137.433,34.775c1.573,2.314,3.345,3.992,5.76,5.434c1.494,0.892,3.145,1.502,4.675,2.329
			c4.073,2.2,9.246,0.984,11.611-3.111c2.267-3.926,0.965-9.409-3.111-11.611c-1.157-0.625-2.36-1.153-3.542-1.728
			c-0.635-0.309-1.245-0.656-1.839-1.039c1.167,0.936,1.425,1.128,0.773,0.578c-0.575-0.494-1.1-1.573,0.337,0.541
			c-2.602-3.828-7.438-5.489-11.636-3.028C136.665,25.363,134.826,30.941,137.433,34.775L137.433,34.775z"/>
	</g>
</g>
<g>
	<g>
		<path fill="#603913" d="M149.115,47.502c10.979,0,11.075-17.004,0.123-17.004C138.26,30.498,138.163,47.502,149.115,47.502
			L149.115,47.502z"/>
	</g>
</g>
<g>
	<g>
		<path fill="#603913" d="M148.526,44.267c10.979,0,11.075-17.004,0.123-17.004C137.671,27.263,137.574,44.267,148.526,44.267
			L148.526,44.267z"/>
	</g>
</g>
<g>
	<g>
		<path fill="#603913" d="M150.586,52.208c10.979,0,11.075-17.004,0.123-17.004C139.73,35.204,139.634,52.208,150.586,52.208
			L150.586,52.208z"/>
	</g>
</g>
<g>
	<g>
		<path fill="#603913" d="M152.056,59.561c10.979,0,11.075-17.004,0.123-17.004C141.2,42.557,141.104,59.561,152.056,59.561
			L152.056,59.561z"/>
	</g>
</g>
<g>
	<g>
		<path fill="#603913" d="M152.645,65.443c10.979,0,11.075-17.004,0.123-17.004C141.789,48.439,141.692,65.443,152.645,65.443
			L152.645,65.443z"/>
	</g>
</g>
<g>
	<g>
		<path fill="#603913" d="M155.291,71.914c10.979,0,11.075-17.004,0.123-17.004C144.436,54.91,144.339,71.914,155.291,71.914
			L155.291,71.914z"/>
	</g>
</g>
<g>
	<g>
		<path fill="#603913" d="M112.009,1.094c-13.312-4.709-29.271-4-42.803-0.478c-6.89,1.793-12.751,6.176-18.964,9.43
			c-6.577,3.444-12.104,7.356-16.368,13.528c-3.768,5.455,1.332,12.608,7.3,12.752c4.655,0.112,6.176-2.239,9.659-4.405
			c9.282-5.773,0.726-20.47-8.608-14.664c-1.341,0.834-3.535,2.946-4.228,3.261c1.455-0.39,2.91-0.78,4.365-1.169
			c-0.355-0.009-0.711-0.017-1.066-0.026c2.434,4.25,4.867,8.501,7.3,12.752c2.723-3.943,7.543-5.944,11.649-8.095
			c5.007-2.622,9.409-5.914,14.955-7.357c10.234-2.664,22.343-2.658,32.32,0.872C117.886,21.161,122.271,4.725,112.009,1.094
			L112.009,1.094z"/>
	</g>
</g>
<g>
	<g>
		<path fill="#603913" d="M22.439,38.645c0.159,3.163-0.861,4.627-2.879,6.979c-3.448,4.018-6.31,8.073-7.048,13.432
			c-0.251,1.825,0.016,3.791-0.363,5.575c-0.267,1.257-2.029,2.967-2.687,4.105c-2.164,3.739-2.863,8.336-2.612,12.588
			c0.911,15.455,13.817,34.067,30.501,34.414c0.041-5.668,0.082-11.336,0.122-17.004c-1.126,0.029-2.25,0.088-3.375,0.135
			c-2.976,0.124,0.625,0.14,0.94,0.827c-1.935-4.215-7.946-5.191-11.636-3.028c-4.292,2.516-4.959,7.429-3.028,11.636
			c3.214,7.003,10.203,7.611,16.977,7.434c10.955-0.287,11.091-16.776,0.122-17.004c-1.284-0.027-2.654-0.418-4.38-1.781
			c-2.298-1.814-4.102-4.046-5.664-6.496c-2.275-3.567-4.897-9.543-3.245-13.221c1.515-3.371,3.855-5.718,4.663-9.521
			c0.749-3.527-0.296-6.348,2.055-9.251c4.938-6.097,8.958-11.404,8.542-19.696C38.896,27.847,21.89,27.698,22.439,38.645
			L22.439,38.645z"/>
	</g>
</g>
<g>
	<g>
		<path fill="#603913" d="M33.821,49.561c10.978,0,11.074-17.004,0.122-17.004C22.966,32.557,22.869,49.561,33.821,49.561
			L33.821,49.561z"/>
	</g>
</g>
<g>
	<g>
		<path fill="#603913" d="M27.351,62.502c10.978,0,11.074-17.004,0.122-17.004C16.495,45.498,16.398,62.502,27.351,62.502
			L27.351,62.502z"/>
	</g>
</g>
<g>
	<g>
		<path fill="#603913" d="M148.623,59.109c-1.402,6.585-4.106,11.625-2.362,18.562c5.474-1.467,10.946-2.934,16.42-4.4
			c-0.87-3.255-2.133-7.15-0.849-9.138c-5.188-2.165-10.374-4.33-15.562-6.494c-1.065,5.916-0.992,11.238-0.223,17.173
			c0.453,3.498,2.566,9.32,0.32,11.445c4.849,2.013,9.697,4.027,14.546,6.04c-0.639-5.953,3.227-10.853,4.992-16.346
			c1.806-5.621-4.396-12.943-10.4-10.455c-5.997,2.485-9.082,6.551-10.887,12.728c-1.354,4.635-1.244,9.605-3.055,14.121
			c5.567,0.769,11.135,1.537,16.702,2.305c-0.021-4.858,1.809-9.535,2.059-14.412c0.457-8.932-11.508-11.118-15.863-4.311
			c-3.187,4.98-4.507,10.038-5.033,15.871c-0.201,2.233-0.053,4.467-1.084,6.484c-1.114,2.181-2.691,4.138-3.975,6.221
			c-4.533,7.36-4.286,20.39-0.683,28.232c4.915,10.697,18.623,7.378,24.669-0.201c6.103-7.65,9.007-18.754,8.439-28.472
			c-0.357-6.116-7.023-11.127-12.806-7.394c-5.364,3.463-7.926,8.624-11.319,13.792c-0.953,1.451-3.453,1.818-4.929,2.423
			c-3.717,1.521-6.688,3.789-9.568,6.563c-6.104,5.874-3.359,15.481,4.641,17.755c5.643,1.603,12.514-0.35,17.137-3.81
			c3.707-2.773,5.57-7.3,3.028-11.636c-2.146-3.66-7.921-5.81-11.636-3.028c-0.864,0.646-1.733,1.145-2.695,1.636
			c-2.645,1.35-1.434-0.968,0.602,1.34c0.841,2.034,1.682,4.069,2.523,6.104c-0.023-0.242-0.046-0.483-0.068-0.726
			c-0.381,1.396-0.761,2.793-1.141,4.188c0.353-0.786,2.71-2.445,4.423-3.059c3.363-1.204,5.979-2.623,8.779-4.821
			c3.887-3.052,4.831-9.475,8.831-12.058c-4.269-2.464-8.537-4.929-12.806-7.394c0.307,5.245-0.69,10.771-3.042,15.484
			c-0.523,1.051-1.088,1.924-1.865,2.772c-0.803,0.876-0.989,0.618-0.072,0.522c1.667,0.186,2.953,0.885,3.856,2.099
			c0.377,0.926,0.406,0.873,0.089-0.158c-0.2-0.773-0.195-1.459-0.272-3.218c-0.101-2.298-0.674-4.941-0.085-7.145
			c0.695-2.604,3.313-5.193,4.667-7.515c4.139-7.092,1.723-15.488,6.117-22.355c-5.288-1.437-10.575-2.874-15.863-4.311
			c-0.249,4.867-2.079,9.46-2.059,14.412c0.042,10.256,13.273,10.858,16.702,2.305c1.219-3.041,1.592-6.321,2.114-9.535
			c0.251-1.543,0.563-3.068,0.939-4.585c0.491-1.985,1.473-1.868-1.112-0.796c-3.467-3.485-6.934-6.97-10.4-10.455
			c-2.284,7.107-6.439,12.852-5.596,20.712c0.778,7.254,8.714,11.558,14.546,6.04c10.922-10.335,1.964-23.592,4.215-36.088
			c1.697-9.428-10.15-14.874-15.562-6.494c-4.356,6.747-2.795,14.764-0.849,22.039c2.835,10.598,19.09,6.223,16.42-4.4
			c-0.729-2.9,1.726-6.776,2.343-9.673C167.302,52.899,150.908,48.384,148.623,59.109L148.623,59.109z"/>
	</g>
</g>
</svg>
