<?xml version="1.0" encoding="UTF-8"?>
<!-- Generator: NONE. Self-made with HTML editor, optimised, revised with some attributes -->
<svg version="1.2" xmlns="http://www.w3.org/2000/svg" xmlns:xlink="http://www.w3.org/1999/xlink" viewBox="0 0 55 60" xml:space="preserve"><g>
<path d="m5 4q22-7 44 0 5 1 5 18-1 24-10 26l6 11h-46l5-11q-8-2-9-26 0-17 5-18" fill="#505050"/>
<path d="m18 1.1q15.5-2.05 31 2.9 5 1 5 18-1 24-10 26l6 11h-19l-1-11q-17-16-12-46.9" fill="#777"/>
<path d="m9 6q18-2 36 0 2.4 0.6 3 3 2 14 0 28-0.6 2.4-3 3-18 2-36 0-2.4-0.6-3-3-2-14 0-28 0.6-2.4 3-3" fill="#ccf"/>
<path d="m43.5 5.85q5 3.45 5.2 24.15 0.8-10-0.7-21-0.6-2.4-3-3" fill="#E1E1FF"/>
<circle cx="16" cy="32" r="2" fill="#3f48CC"/>
<circle cx="33" cy="18" r="5" fill="#3f48CC"/>
</g>
</svg>
