<?xml version="1.0" encoding="UTF-8" standalone="no"?>
<!-- Created with Inkscape (http://www.inkscape.org/) -->

<svg
   xmlns:dc="http://purl.org/dc/elements/1.1/"
   xmlns:cc="http://creativecommons.org/ns#"
   xmlns:rdf="http://www.w3.org/1999/02/22-rdf-syntax-ns#"
   xmlns:svg="http://www.w3.org/2000/svg"
   xmlns="http://www.w3.org/2000/svg"
   xmlns:sodipodi="http://sodipodi.sourceforge.net/DTD/sodipodi-0.dtd"
   xmlns:inkscape="http://www.inkscape.org/namespaces/inkscape"
   width="55"
   height="60"
   viewBox="0 0 14.552083 15.875"
   version="1.1"
   id="svg8"
   inkscape:version="0.92.3 (2405546, 2018-03-11)"
   sodipodi:docname="Thanos.svg">
  <defs
     id="defs2" />
  <sodipodi:namedview
     id="base"
     pagecolor="#ffffff"
     bordercolor="#666666"
     borderopacity="1.0"
     inkscape:pageopacity="0.0"
     inkscape:pageshadow="2"
     inkscape:zoom="15.839192"
     inkscape:cx="42.411136"
     inkscape:cy="23.647689"
     inkscape:document-units="mm"
     inkscape:current-layer="layer1"
     showgrid="false"
     units="px"
     inkscape:window-width="3840"
     inkscape:window-height="2066"
     inkscape:window-x="2293"
     inkscape:window-y="-11"
     inkscape:window-maximized="1" />
  <metadata
     id="metadata5">
    <rdf:RDF>
      <cc:Work
         rdf:about="">
        <dc:format>image/svg+xml</dc:format>
        <dc:type
           rdf:resource="http://purl.org/dc/dcmitype/StillImage" />
        <dc:title></dc:title>
      </cc:Work>
    </rdf:RDF>
  </metadata>
  <g
     inkscape:label="Layer 1"
     inkscape:groupmode="layer"
     id="layer1"
     transform="translate(0,-281.12498)">
    <path
       style="fill:#d45500;stroke:#000000;stroke-width:0.26458332px;stroke-linecap:butt;stroke-linejoin:miter;stroke-opacity:1"
       d="m 3.6415472,286.96067 c 0,0.0835 0,0.16704 0,0.25056 0,0.006 0,0.0111 0,0.0167 0,0.0111 0.011136,0.0334 0,0.0334 -0.011136,0 0.011136,-0.0334 0,-0.0334 -0.012451,0 -0.012766,0.0216 -0.016703,0.0334 -0.00578,0.0173 0.00626,0.0877 0,0.10022 -0.00249,0.005 -0.012766,-0.004 -0.016703,0 -0.00394,0.004 0,0.0111 0,0.0167 0,0.005 0.00359,0.0799 0,0.0835 -0.00787,0.008 -0.023447,-0.005 -0.033409,0 -0.00498,0.002 0,0.0111 0,0.0167 0,0.0111 0,0.0223 0,0.0334 0,0.0668 0.00557,-0.0278 -0.016703,0.0167 -0.00498,0.01 0,0.0223 0,0.0334 0,0.006 0,0.0111 0,0.0167 0,0.0111 0.00787,0.0255 0,0.0334 -0.00787,0.008 -0.027231,-0.009 -0.033409,0 -0.00927,0.0139 0,0.0334 0,0.0501 0,0.006 0.00394,0.0128 0,0.0167 -0.027841,0.0278 -0.016703,-0.0612 -0.016703,0.0334 0,0.006 0,0.0111 0,0.0167 0,0.0111 0.00787,0.0255 0,0.0334 -0.00787,0.008 -0.023447,-0.005 -0.033409,0 -0.00498,0.002 0.00177,0.0114 0,0.0167 -0.00394,0.0118 -0.012766,0.0216 -0.016703,0.0334 -0.00402,0.0121 0.00461,0.0599 0,0.0668 -0.00874,0.0131 -0.024672,0.0203 -0.033409,0.0334 -0.00309,0.005 0,0.0111 0,0.0167 0,0.0111 0.00498,0.0235 0,0.0334 -0.00249,0.005 -0.012766,-0.004 -0.016703,0 -0.00394,0.004 0,0.0111 0,0.0167 0,0.0111 0,0.0223 0,0.0334 0,0.006 0,0.0111 0,0.0167 0,0.0111 0.00787,0.0255 0,0.0334 -0.00787,0.008 -0.023447,-0.005 -0.033409,0 -0.00498,0.002 0.00394,0.0128 0,0.0167 -0.00394,0.004 -0.014213,-0.005 -0.016703,0 -0.0013,0.003 0,0.0788 0,0.0835 0,0.006 0.00498,0.0142 0,0.0167 -0.00996,0.005 -0.025535,-0.008 -0.033409,0 -0.00415,0.004 0.00386,0.0758 0,0.0835 -0.00249,0.005 -0.012766,-0.004 -0.016703,0 -0.00394,0.004 0,0.0111 0,0.0167 0,0.0111 0,0.0223 0,0.0334 0,0.006 0,0.0111 0,0.0167 0,0.0111 0.00787,0.0255 0,0.0334 -0.00787,0.008 -0.023447,-0.005 -0.033409,0 -0.00498,0.002 9.26e-4,0.0112 0,0.0167 -0.00467,0.028 -0.00674,0.0569 -0.016703,0.0835 -0.00705,0.0188 -0.024432,0.0322 -0.033409,0.0501 -0.00668,0.0134 0.00668,0.0367 0,0.0501 -0.00249,0.005 -0.012766,-0.004 -0.016703,0 -0.00394,0.004 0,0.0111 0,0.0167 0,0.0111 0,0.0223 0,0.0334 0,0.006 0.00498,0.0142 0,0.0167 -0.00996,0.005 -0.025535,-0.008 -0.033409,0 -0.00787,0.008 0,0.0223 0,0.0334 0,0.0167 0.00747,0.0352 0,0.0501 -0.00249,0.005 -0.012766,-0.004 -0.016703,0 -0.00426,0.004 0.00426,0.0459 0,0.0501 -0.00787,0.008 -0.023447,-0.005 -0.033409,0 -0.00498,0.002 0,0.0111 0,0.0167 0,0.005 0.0013,0.0809 0,0.0835 -0.00249,0.005 -0.012766,-0.004 -0.016703,0 -0.00394,0.004 0,0.0111 0,0.0167 0,0.0118 0.00328,0.0953 0,0.10023 -0.00874,0.0131 -0.024672,0.0203 -0.033409,0.0334 -0.00465,0.007 0.00458,0.0865 0,0.10023 -0.00249,0.007 -0.014213,0.009 -0.016703,0.0167 -0.00354,0.0106 0.00479,0.0763 0,0.0835 -0.00691,0.0104 -0.026502,0.006 -0.033409,0.0167 -0.00618,0.009 0,0.0223 0,0.0334 0,0.0143 0.00326,0.0905 0,0.10023 -0.00249,0.007 -0.014213,0.009 -0.016703,0.0167 -0.00528,0.0159 0,0.0334 0,0.0501 0,0.0334 0,0.0668 0,0.10023 0,0.0111 0.00787,0.0255 0,0.0334 -0.00787,0.008 -0.023447,-0.005 -0.033409,0 -0.00498,0.002 0,0.0111 0,0.0167 0,0.0278 0,0.0557 0,0.0835 0,0.0167 0.00747,0.0352 0,0.0501 -0.00249,0.005 -0.012766,-0.004 -0.016703,0 -0.00394,0.004 0,0.0111 0,0.0167 0,0.0111 0,0.0223 0,0.0334 0,0.0501 0,0.10023 0,0.15034 0,0.0111 0.00193,0.11404 0,0.11693 -0.00874,0.0131 -0.024672,0.0203 -0.033409,0.0334 -0.00265,0.004 0,0.0892 0,0.10023 0,0.0835 0,0.16704 0,0.25056 0,0.0334 0,0.0668 0,0.10023 0,0.006 0.00394,0.0128 0,0.0167 -0.00394,0.004 -0.014213,-0.005 -0.016703,0 -0.00262,0.005 0,0.0899 0,0.10023 0,0.0947 0,0.18932 0,0.28397 0,0.23386 0,0.46773 0,0.70159 0,0.0724 0,0.14477 0,0.21715 0,0.0111 0,0.0223 0,0.0334 0,0.006 -0.00394,0.0128 0,0.0167 0.00394,0.004 0.014213,-0.005 0.016703,0 0.011136,0.0223 -0.011136,0.0612 0,0.0835 0.00249,0.005 0.012766,-0.004 0.016703,0 0.00394,0.004 -0.00498,0.0142 0,0.0167 0.00996,0.005 0.025535,-0.008 0.033409,0 0.00835,0.008 -0.00418,0.0376 0,0.0501 0.00394,0.0118 0.012766,0.0216 0.016703,0.0334 0.00177,0.005 -0.00498,0.0142 0,0.0167 0.047273,0.0236 0.026848,-0.0364 0.050113,0.0334 0.00418,0.0125 -0.00835,0.0418 0,0.0501 0.00787,0.008 0.022844,-0.004 0.033409,0 0.00747,0.002 0.011136,0.0111 0.016703,0.0167 0.011136,0.0111 0.02756,0.0188 0.033409,0.0334 0.0062,0.0155 -0.00405,0.0339 0,0.0501 0.00238,0.01 0.063058,0.0555 0.066817,0.0668 0.032627,0.0979 -0.046439,-0.0297 0.033409,0.0501 0.06909,0.0691 -0.043555,-0.007 0.016706,0.0835 0.00618,0.009 0.022844,-0.004 0.033409,0 0.00747,0.002 0.011136,0.0111 0.016703,0.0167 0.011136,0.0111 0.024672,0.0203 0.033409,0.0334 0.00309,0.005 0,0.0111 0,0.0167 0,0.0111 -0.00498,0.0234 0,0.0334 0.00249,0.005 0.012766,-0.004 0.016703,0 0.02784,0.0278 -0.061249,0.0167 0.033409,0.0167 0.00557,0 0.014213,-0.005 0.016703,0 0.00831,0.0166 -0.00661,0.0468 0,0.0501 0.00996,0.005 0.025535,-0.008 0.033409,0 0.00787,0.008 -0.00498,0.0235 0,0.0334 0.00249,0.005 0.012766,-0.004 0.016703,0 0.00394,0.004 0,0.0111 0,0.0167 0.011136,0 0.024143,-0.006 0.033409,0 0.010359,0.007 0.0079,0.0246 0.016706,0.0334 0.0088,0.009 0.024604,0.008 0.033409,0.0167 0.0088,0.009 0.00674,0.0259 0.016703,0.0334 0.014087,0.0106 0.035015,0.008 0.050113,0.0167 0.013504,0.008 0.020304,0.0247 0.033409,0.0334 0.00463,0.003 0.012766,-0.004 0.016703,0 0.00394,0.004 0,0.0111 0,0.0167 0.011136,0.0111 0.020304,0.0247 0.033409,0.0334 0.031877,0.0213 0.00564,-0.05 0.050113,0.0167 0,0.0947 -0.011136,0.006 0.016706,0.0334 0.00394,0.004 -0.00498,0.0142 0,0.0167 0.00996,0.005 0.025535,-0.008 0.033409,0 0.00787,0.008 -0.00498,0.0235 0,0.0334 0.00249,0.005 0.012766,-0.004 0.016703,0 0.00394,0.004 -0.00498,0.0142 0,0.0167 0.00996,0.005 0.025535,-0.008 0.033409,0 0.00426,0.004 -0.00426,0.0459 0,0.0501 0.00394,0.004 0.01207,-0.003 0.016706,0 0.013105,0.009 0.022273,0.0223 0.033409,0.0334 0.00557,0.006 0.00923,0.0142 0.016703,0.0167 0.010565,0.004 0.025535,-0.008 0.033409,0 0.00787,0.008 -0.00498,0.0234 0,0.0334 0.00249,0.005 0.012766,-0.004 0.016703,0 0.00394,0.004 -0.00309,0.0121 0,0.0167 0.00874,0.0131 0.022273,0.0223 0.033409,0.0334 0.00557,0.006 0.00923,0.0142 0.016706,0.0167 0.010565,0.004 0.025535,-0.008 0.033409,0 0.00787,0.008 -0.00352,0.0228 0,0.0334 0.00249,0.007 0.011136,0.0111 0.016703,0.0167 0.011136,0.0111 0.020304,0.0247 0.033409,0.0334 0.025056,0.0167 0.016706,-0.0334 0.050113,0 0.012451,0.0125 0.00425,0.0377 0.016703,0.0501 0.027165,0.0272 0.035517,-0.0271 0.050113,0.0167 0.00352,0.0106 -0.00787,0.0255 0,0.0334 0.00426,0.004 0.045851,-0.004 0.050113,0 0.00394,0.004 -0.00498,0.0142 0,0.0167 0.016618,0.008 0.046809,-0.007 0.050113,0 0.00498,0.01 -0.00787,0.0255 0,0.0334 0.00787,0.008 0.023447,-0.005 0.033409,0 0.00498,0.002 -0.00394,0.0128 0,0.0167 0.00394,0.004 0.014213,-0.005 0.016703,0 0.00498,0.01 -0.00787,0.0255 0,0.0334 0.00787,0.008 0.022844,-0.004 0.033409,0 0.00747,0.002 0.00923,0.0142 0.016703,0.0167 0.010565,0.004 0.025535,-0.008 0.033409,0 0.00787,0.008 -0.00787,0.0255 0,0.0334 0.012451,0.0125 0.033031,0.0124 0.050113,0.0167 0.0054,10e-4 0.014214,-0.005 0.016703,0 0.00498,0.01 -0.00787,0.0255 0,0.0334 0.00787,0.008 0.023447,-0.005 0.033409,0 0.00498,0.002 -0.00394,0.0128 0,0.0167 0.00388,0.004 0.066172,-10e-4 0.066817,0 0.00498,0.01 -0.00787,0.0255 0,0.0334 0.00787,0.008 0.022273,0 0.033409,0 0.010351,0 0.095,-0.003 0.100226,0 0.00498,0.002 -0.00394,0.0128 0,0.0167 0.00394,0.004 0.011136,0 0.016703,0 0.011136,0 0.022273,0 0.033409,0 0.00557,0 0.011136,0 0.016703,0 0.011136,0 0.025535,-0.008 0.033409,0 0.00787,0.008 -0.00498,0.0234 0,0.0334 0.00249,0.005 0.011136,0 0.016703,0 0.011136,0 0.022273,0 0.033409,0 0.010475,0 0.064754,-0.002 0.066817,0 0.00394,0.004 -0.00498,0.0142 0,0.0167 0.016618,0.008 0.046809,-0.007 0.050113,0 0.00498,0.01 -0.00787,0.0255 0,0.0334 0.00359,0.004 0.078068,0 0.083522,0 0.00557,0 0.012766,-0.004 0.016703,0 0.00394,0.004 -0.00498,0.0142 0,0.0167 0.00996,0.005 0.022273,0 0.033409,0 0.00557,0 0.01207,-0.003 0.016703,0 0.013105,0.009 0.020304,0.0247 0.033409,0.0334 0.00463,0.003 0.011422,-0.002 0.016703,0 0.057583,0.0192 0.012374,0.0167 0.050113,0.0167 0.011136,0 0.022273,0 0.033409,0 0.00557,0 0.014213,-0.005 0.016703,0 0.00498,0.01 -0.00787,0.0255 0,0.0334 0.00359,0.004 0.078069,0 0.083522,0 0.1837479,0 0.3674957,0 0.5512435,0 0.1169303,0 0.2338607,0 0.3507912,0 0.055681,0 0.1113624,0 0.1670434,0 0.011136,0 0.022273,0 0.033409,0 0.00557,0 0.012766,0.004 0.016703,0 0.00394,-0.004 -0.00498,-0.0142 0,-0.0167 0.00996,-0.005 0.022273,0 0.033409,0 0.022273,0 0.044545,0 0.066817,0 0.011136,0 0.025535,0.008 0.033409,0 0.00787,-0.008 -0.00927,-0.0272 0,-0.0334 0.00654,-0.004 0.085842,0 0.100226,0 0.00557,0 0.012766,0.004 0.016703,0 0.00394,-0.004 -0.00498,-0.0142 0,-0.0167 0.00262,-0.001 0.078852,0 0.083521,0 0.00557,0 0.011136,0 0.016706,0 0.011136,0 0.025535,0.008 0.033409,0 0.00787,-0.008 -0.00498,-0.0234 0,-0.0334 0.00249,-0.005 0.011303,0.001 0.016706,0 0.017081,-0.004 0.032847,-0.0132 0.050113,-0.0167 0.010919,-0.002 0.022273,0 0.033409,0 0.00557,0 0.014213,0.005 0.016703,0 0.00498,-0.01 -0.00927,-0.0272 0,-0.0334 0.00405,-0.003 0.084927,0 0.100226,0 0.011136,0 0.023447,0.005 0.033409,0 0.00498,-0.002 -0.00394,-0.0128 0,-0.0167 0.00394,-0.004 0.011136,0 0.016706,0 0.011136,0 0.024143,0.006 0.033409,0 0.010358,-0.007 0.00634,-0.0265 0.016703,-0.0334 0.011075,-0.007 0.070155,0.007 0.083522,0 0.00498,-0.002 -0.00528,-0.0149 0,-0.0167 0.015848,-0.005 0.033409,0 0.050113,0 0.00557,0 0.01207,0.003 0.016703,0 0.013105,-0.009 0.020304,-0.0247 0.033409,-0.0334 0.00463,-0.003 0.011422,0.002 0.016706,0 0.011811,-0.004 0.021598,-0.0128 0.033409,-0.0167 0.012528,-0.004 0.041761,0.008 0.050113,0 0.00787,-0.008 -0.00498,-0.0234 0,-0.0334 0.0033,-0.007 0.033495,0.008 0.050113,0 0.00498,-0.002 -0.00394,-0.0128 0,-0.0167 0.00388,-0.004 0.066172,0.001 0.066817,0 0.00498,-0.01 -0.00787,-0.0255 0,-0.0334 0.00835,-0.008 0.041761,0.008 0.050113,0 0.00394,-0.004 -0.00498,-0.0142 0,-0.0167 0.00996,-0.005 0.025535,0.008 0.033409,0 0.00787,-0.008 -0.00498,-0.0235 0,-0.0334 0.0033,-0.007 0.033495,0.008 0.050113,0 0.00498,-0.002 -0.00394,-0.0128 0,-0.0167 0.00434,-0.004 0.045774,0.004 0.050113,0 0.00787,-0.008 -0.00498,-0.0235 0,-0.0334 6.35e-4,-10e-4 0.062937,0.004 0.066817,0 0.00394,-0.004 -0.00498,-0.0142 0,-0.0167 0.00996,-0.005 0.025535,0.008 0.033409,0 0.00787,-0.008 -0.00498,-0.0235 0,-0.0334 0.00249,-0.005 0.012766,0.004 0.016706,0 0.00394,-0.004 -0.00498,-0.0142 0,-0.0167 0.00772,-0.004 0.079377,0.004 0.083521,0 0.00787,-0.008 -0.00498,-0.0234 0,-0.0334 0.0033,-0.007 0.033495,0.008 0.050113,0 0.00498,-0.002 -0.00394,-0.0128 0,-0.0167 0.00394,-0.004 0.011136,0 0.016703,0 0.011136,0 0.025535,0.008 0.033409,0 0,-0.0947 -0.011136,-0.006 0.016703,-0.0334 0.00394,-0.004 -0.00498,-0.0142 0,-0.0167 0.016618,-0.008 0.046808,0.007 0.050113,0 0.00498,-0.01 -0.00787,-0.0255 0,-0.0334 0.00787,-0.008 0.022844,0.004 0.033409,0 0.00747,-0.002 0.010152,-0.0123 0.016703,-0.0167 0.027014,-0.018 0.054482,-0.0356 0.083522,-0.0501 0.00498,-0.002 0.01207,0.003 0.016703,0 0.050572,0.0412 0.028733,-0.0454 0.033409,-0.0501 0.00394,-0.004 0.014213,0.005 0.016703,0 0.00498,-0.01 -0.00787,-0.0255 0,-0.0334 0.012451,-0.0125 0.036363,-0.006 0.050113,-0.0167 0.015677,-0.0125 0.019211,-0.0359 0.033409,-0.0501 0.00394,-0.004 0.014213,0.005 0.016703,0 0.00498,-0.01 -0.00573,-0.0239 0,-0.0334 0.012155,-0.0202 0.03499,-0.032 0.050113,-0.0501 0.012853,-0.0154 0.019211,-0.0359 0.033409,-0.0501 0.00394,-0.004 0.012766,0.004 0.016706,0 0.00394,-0.004 -0.00287,-0.0119 0,-0.0167 0.030987,-0.0516 0.066817,-0.10023 0.100226,-0.15034 0.011136,-0.0167 0.019214,-0.0359 0.033409,-0.0501 0.00835,-0.008 0.041761,0.008 0.050113,0 0.00787,-0.008 -0.00352,-0.0228 0,-0.0334 0.00249,-0.007 0.014213,-0.009 0.016703,-0.0167 0.00352,-0.0106 0,-0.0223 0,-0.0334 0,-0.006 -0.00498,-0.0142 0,-0.0167 0.00996,-0.005 0.025535,0.008 0.033409,0 0.012451,-0.0125 0.00764,-0.035 0.016706,-0.0501 0.0081,-0.0135 0.024672,-0.0203 0.033409,-0.0334 0.00309,-0.005 -0.00394,-0.0128 0,-0.0167 0.00394,-0.004 0.014213,0.005 0.016703,0 0.00498,-0.01 -0.00787,-0.0255 0,-0.0334 0.00787,-0.008 0.022844,0.004 0.033409,0 0.00747,-0.002 0.00923,-0.0142 0.016703,-0.0167 0.010565,-0.004 0.025535,0.008 0.033409,0 0.00835,-0.008 -0.00835,-0.0418 0,-0.0501 0.00394,-0.004 0.014213,0.005 0.016703,0 0.00747,-0.0149 0,-0.0334 0,-0.0501 0,-0.0334 0,-0.0668 0,-0.10022 0,-0.11137 0,-0.22273 0,-0.33409 0,-0.005 -6.085e-4,-0.0996 0,-0.10023 0.00787,-0.008 0.023447,0.005 0.033409,0 0.00498,-0.002 0,-0.0111 0,-0.0167 0,-0.0278 0,-0.0557 0,-0.0835 0,-0.0167 -0.00528,-0.0343 0,-0.0501 0.00249,-0.007 0.014213,-0.009 0.016703,-0.0167 0.00528,-0.0159 0,-0.0334 0,-0.0501 0,-0.0501 0,-0.10023 0,-0.15034 0,-0.0111 0,-0.0223 0,-0.0334 0,-0.006 0.00394,-0.0128 0,-0.0167 -0.00394,-0.004 -0.014213,0.005 -0.016703,0 -0.00498,-0.01 0,-0.0223 0,-0.0334 0,-0.0334 0,-0.0668 0,-0.10023 0,-0.0167 0.00747,-0.0352 0,-0.0501 -0.00249,-0.005 -0.012766,0.004 -0.016703,0 -0.00394,-0.004 -0.00557,-0.0167 0,-0.0167 0.00557,0 0,0.0223 0,0.0167 0,-0.0167 0,-0.0334 0,-0.0501 0,-0.006 0.00498,-0.0142 0,-0.0167 -0.00996,-0.005 -0.025535,0.008 -0.033409,0 -0.00835,-0.008 0.00418,-0.0376 0,-0.0501 -0.019196,-0.0576 -0.016703,-0.0124 -0.016703,-0.0501 0,-0.0111 0,-0.0223 0,-0.0334 0,-0.006 0.00498,-0.0142 0,-0.0167 -0.00996,-0.005 -0.025535,0.008 -0.033409,0 -0.00787,-0.008 0,-0.0223 0,-0.0334 0,-0.006 0,-0.0111 0,-0.0167 0,-0.0111 0,-0.0223 0,-0.0334 0,-0.006 0.00394,-0.0128 0,-0.0167 -0.00394,-0.004 -0.014213,0.005 -0.016703,0 -0.00262,-0.005 0,-0.0899 0,-0.10023 0,-0.0111 0.00787,-0.0255 0,-0.0334 -0.00787,-0.008 -0.023447,0.005 -0.033409,0 -0.00661,-0.003 0.00831,-0.0335 0,-0.0501 -0.00249,-0.005 -0.012766,0.004 -0.016706,0 -0.00394,-0.004 0.00309,-0.0121 0,-0.0167 -0.00874,-0.0131 -0.024672,-0.0203 -0.033409,-0.0334 -0.00309,-0.005 0,-0.0111 0,-0.0167 0,-0.0111 0.00498,-0.0235 0,-0.0334 -0.00249,-0.005 -0.012766,0.004 -0.016706,0 -0.00206,-0.002 0,-0.0563 0,-0.0668 0,-0.0111 0,-0.0223 0,-0.0334 0,-0.006 0.00498,-0.0142 0,-0.0167 -0.00996,-0.005 -0.025535,0.008 -0.033409,0 -0.00471,-0.005 0.0038,-0.0888 0,-0.10023 -0.00394,-0.0118 -0.012766,-0.0216 -0.016703,-0.0334 -0.00557,-0.0167 0.011136,-0.0334 0,-0.0501 -0.00691,-0.0104 -0.026502,-0.006 -0.033409,-0.0167 -0.00618,-0.009 0,-0.0223 0,-0.0334 0,-0.006 0,-0.0111 0,-0.0167 0,-0.0445 0,-0.0891 0,-0.13363 0,-0.0167 0.00747,-0.0352 0,-0.0501 -0.00249,-0.005 -0.012766,0.004 -0.016703,0 -0.00394,-0.004 0,-0.0111 0,-0.0167 0,-0.0111 0,-0.0223 0,-0.0334 0,-0.0835 0,-0.16704 0,-0.25057 0,-0.0103 -0.00262,-0.095 0,-0.10022 0.00249,-0.005 0.012766,0.004 0.016703,0 0.00394,-0.004 0,-0.0111 0,-0.0167 0,-0.005 -0.0013,-0.0809 0,-0.0835 0.00249,-0.005 0.012766,0.004 0.016703,0 0.00394,-0.004 0,-0.0111 0,-0.0167 0,-0.0111 0,-0.0223 0,-0.0334 0,-0.0891 0,-0.17818 0,-0.26727 0,-0.0111 0,-0.0223 0,-0.0334 0,-0.006 0.00394,-0.0128 0,-0.0167 -0.00394,-0.004 -0.014213,0.005 -0.016703,0 -0.00747,-0.0149 0,-0.0334 0,-0.0501 0,-0.0446 0,-0.0891 0,-0.13364 0,-0.0334 0,-0.0668 0,-0.10023 0,-0.0167 0.00747,-0.0352 0,-0.0501 -0.00249,-0.005 -0.012766,0.004 -0.016703,0 -0.00394,-0.004 0,-0.0111 0,-0.0167 0,-0.0111 0,-0.0223 0,-0.0334 0,-0.01 0.00328,-0.0953 0,-0.10023 -0.00691,-0.0104 -0.026502,-0.006 -0.033409,-0.0167 -0.00618,-0.009 0,-0.0223 0,-0.0334 0,-0.006 0.00394,-0.0128 0,-0.0167 -0.00394,-0.004 -0.014213,0.005 -0.016703,0 -0.00262,-0.005 0,-0.0899 0,-0.10023 0,-0.0111 0.00787,-0.0255 0,-0.0334 -0.00787,-0.008 -0.023447,0.005 -0.033409,0 -0.00661,-0.003 0.00831,-0.0335 0,-0.0501 -0.00249,-0.005 -0.012766,0.004 -0.016706,0 -0.00394,-0.004 0,-0.0111 0,-0.0167 0,-0.005 0.00359,-0.0799 0,-0.0835 -0.00787,-0.008 -0.023447,0.005 -0.033409,0 -0.0013,-6.4e-4 0.00388,-0.0629 0,-0.0668 -0.00394,-0.004 -0.014213,0.005 -0.016706,0 -0.00831,-0.0166 0.00661,-0.0468 0,-0.0501 -0.00996,-0.005 -0.025535,0.008 -0.033409,0 -0.00359,-0.004 0,-0.0781 0,-0.0835 0,-0.006 0.00394,-0.0128 0,-0.0167 -0.00394,-0.004 -0.014214,0.005 -0.016703,0 -0.00386,-0.008 0.00415,-0.0794 0,-0.0835 -0.094658,0 -0.00557,0.0111 -0.033409,-0.0167 -0.00394,-0.004 -0.014213,0.005 -0.016706,0 -0.00831,-0.0166 0.00661,-0.0468 0,-0.0501 -0.00996,-0.005 -0.025535,0.008 -0.033409,0 -0.00835,-0.008 0.00418,-0.0376 0,-0.0501 -0.00394,-0.0118 -0.012766,-0.0216 -0.016703,-0.0334 -0.00177,-0.005 0.00498,-0.0142 0,-0.0167 -0.00996,-0.005 -0.022273,0 -0.033409,0 -0.00557,-0.0167 -0.00425,-0.0377 -0.016703,-0.0501 -0.00787,-0.008 -0.025535,0.008 -0.033409,0 -0.023625,-0.007 0.011811,-0.0383 0,-0.0501 -0.00394,-0.004 -0.011136,0 -0.016703,0 -0.011136,-0.0111 -0.024672,-0.0203 -0.033409,-0.0334 -0.00309,-0.005 0.00394,-0.0128 0,-0.0167 -0.00394,-0.004 -0.014213,0.005 -0.016703,0 -0.00831,-0.0166 0.00661,-0.0468 0,-0.0501 -0.00996,-0.005 -0.024143,0.006 -0.033409,0 -0.066714,-0.0445 0.00455,-0.0182 -0.016706,-0.0501 -0.00874,-0.0131 -0.024672,-0.0203 -0.033409,-0.0334 -0.00309,-0.005 0,-0.0111 0,-0.0167 -0.00557,-0.0111 -0.0079,-0.0246 -0.016703,-0.0334 -0.0088,-0.009 -0.026502,-0.006 -0.033409,-0.0167 -0.00618,-0.009 0.00498,-0.0235 0,-0.0334 -0.00249,-0.005 -0.012766,0.004 -0.016703,0 -0.00394,-0.004 0,-0.0111 0,-0.0167 -0.011136,0 -0.025535,0.008 -0.033409,0 -0.023625,-0.007 0.011811,-0.0383 0,-0.0501 -0.00394,-0.004 -0.014213,0.005 -0.016703,0 -0.00831,-0.0166 0.00661,-0.0468 0,-0.0501 -0.00996,-0.005 -0.025535,0.008 -0.033409,0 -0.00415,-0.004 0.00386,-0.0758 0,-0.0835 -0.00249,-0.005 -0.011422,0.002 -0.016703,0 -0.011811,-0.004 -0.026502,-0.006 -0.033409,-0.0167 -0.00618,-0.009 0.00352,-0.0229 0,-0.0334 -0.00249,-0.007 -0.014213,-0.009 -0.016706,-0.0167 -0.00352,-0.0106 0,-0.0223 0,-0.0334 0,-0.006 0.00498,-0.0142 0,-0.0167 -0.00996,-0.005 -0.025535,0.008 -0.033409,0 -0.00415,-0.004 0.00386,-0.0758 0,-0.0835 -0.00249,-0.005 -0.012766,0.004 -0.016703,0 -0.00486,-0.005 0.00545,-0.0587 0,-0.0668 -0.00874,-0.0131 -0.024672,-0.0203 -0.033409,-0.0334 -0.00309,-0.005 0,-0.0111 0,-0.0167 0,-0.0111 0.00498,-0.0234 0,-0.0334 -0.00249,-0.005 -0.012766,0.004 -0.016703,0 -0.00394,-0.004 0,-0.0111 0,-0.0167 0,-0.0111 0,-0.0223 0,-0.0334 0,-0.0473 0.00557,0.0223 -0.033409,-0.0167 -0.00787,-0.008 0,-0.0223 0,-0.0334 0,-0.0334 0,-0.0668 0,-0.10023 0,-0.006 -0.00394,-0.0128 0,-0.0167 0.00394,-0.004 0.011136,0 0.016703,0 0.011136,0 0.025535,0.008 0.033409,0 0.00787,-0.008 -0.00498,-0.0234 0,-0.0334 0.00249,-0.005 0.011136,0 0.016703,0 0.02784,0 0.055681,0 0.083522,0 0.1169302,0 0.2338607,0 0.3507912,0 0.010475,0 0.064754,-0.002 0.066817,0 0.00394,0.004 -0.00498,0.0142 0,0.0167 0.014941,0.007 0.033409,0 0.050113,0 0.050113,0 0.100226,0 0.1503391,0 0.011136,0 0.022273,0 0.033409,0 0.00557,0 0.012766,0.004 0.016703,0 0.00394,-0.004 -0.00498,-0.0142 0,-0.0167 0.012441,-0.006 0.1211937,0.006 0.1336347,0 0.00498,-0.002 -0.00394,-0.0128 0,-0.0167 0.00835,-0.008 0.041761,0.008 0.050113,0 0.00787,-0.008 -0.00498,-0.0235 0,-0.0334 0.00249,-0.005 0.011136,0 0.016706,0 0.033409,0 0.066817,0 0.100226,0 0.011136,0 0.023447,0.005 0.033409,0 0.00498,-0.002 -0.00394,-0.0128 0,-0.0167 0.00394,-0.004 0.011136,0 0.016703,0 0.011136,0 0.025535,0.008 0.033409,0 0.00787,-0.008 -0.00498,-0.0235 0,-0.0334 6.35e-4,-10e-4 0.062937,0.004 0.066818,0 0.00394,-0.004 0,-0.0111 0,-0.0167 0.011136,0 0.024143,0.006 0.033409,0 0.010358,-0.007 0.00634,-0.0265 0.016703,-0.0334 0.016706,-0.0111 0.033409,0.006 0.050113,0 0.011811,-0.004 0.021598,-0.0128 0.033409,-0.0167 0.011049,-0.004 0.083816,0 0.1002261,0 0.00557,0 0.011136,0 0.016706,0 0.011136,0 0.025535,0.008 0.033409,0 0.00787,-0.008 -0.00498,-0.0234 0,-0.0334 0.00249,-0.005 0.011136,0 0.016703,0 0.011136,0 0.022844,0.004 0.033409,0 0.00747,-0.002 0.00923,-0.0142 0.016703,-0.0167 0.010565,-0.004 0.022273,0 0.033409,0 0.00557,0 0.01207,0.003 0.016703,0 0.013105,-0.009 0.020304,-0.0247 0.033409,-0.0334 0.00817,-0.005 0.061956,0.005 0.066818,0 0.00394,-0.004 -0.00498,-0.0142 0,-0.0167 0.00996,-0.005 0.025535,0.008 0.033409,0 0.00787,-0.008 -0.00498,-0.0235 0,-0.0334 6.35e-4,-10e-4 0.062937,0.004 0.066817,0 0.00394,-0.004 -0.00498,-0.0142 0,-0.0167 0.00262,-10e-4 0.078852,0 0.083521,0 0.00557,0 0.014214,0.005 0.016703,0 0.00498,-0.01 -0.00787,-0.0255 0,-0.0334 0.00787,-0.008 0.022273,0 0.033409,0 0.00557,0 0.011136,0 0.016706,0 0.011136,0 0.022273,0 0.033409,0 0.00557,0 0.012766,0.004 0.016703,0 0.00394,-0.004 -0.00498,-0.0142 0,-0.0167 0.016618,-0.008 0.046809,0.007 0.050113,0 0.00498,-0.01 -0.00787,-0.0255 0,-0.0334 0.00415,-0.004 0.075799,0.004 0.083522,0 0.00498,-0.002 -0.00394,-0.0128 0,-0.0167 0.00394,-0.004 0.011136,0 0.016703,0 0.01114,0 0.02227,0 0.03341,0 0.0056,0 0.01114,0 0.01671,0 0.01114,0 0.02553,0.008 0.03341,0 0.0079,-0.008 -0.005,-0.0234 0,-0.0334 0.0025,-0.005 0.01277,0.004 0.0167,0 0.02784,-0.0278 -0.06125,-0.0167 0.03341,-0.0167 0.0056,0 0.01421,0.005 0.0167,0 0.005,-0.01 -0.0079,-0.0255 0,-0.0334 0.0043,-0.004 0.04585,0.004 0.05011,0 0.0039,-0.004 -0.005,-0.0142 0,-0.0167 0.01494,-0.007 0.03341,0 0.05011,0 0.01114,0 0.02554,0.008 0.03341,0 0.0079,-0.008 -0.005,-0.0235 0,-0.0334 0.0033,-0.007 0.0335,0.008 0.05011,0 0.005,-0.002 -0.0039,-0.0128 0,-0.0167 0.0039,-0.004 0.01114,0 0.0167,0 0,-0.0111 -0.0079,-0.0255 0,-0.0334 0.0069,-0.0236 0.0383,0.0118 0.05011,0 0.0039,-0.004 0,-0.0111 0,-0.0167 0.01114,0 0.02553,0.008 0.03341,0 0.0079,-0.008 -0.005,-0.0235 0,-0.0334 0.0033,-0.007 0.0335,0.008 0.05011,0 0.005,-0.002 -0.0039,-0.0128 0,-0.0167 0.0039,-0.004 0.01114,0 0.0167,0 0,-0.0111 -0.0079,-0.0255 0,-0.0334 0.0079,-0.008 0.02345,0.005 0.03341,0 0.005,-0.002 0,-0.0111 0,-0.0167 0,-0.0111 0,-0.0223 0,-0.0334 0,-0.0145 -0.0032,-0.0571 0,-0.0668 0.0039,-0.0118 0.01426,-0.0212 0.01671,-0.0334 0.0044,-0.0218 0,-0.0445 0,-0.0668 0,-0.0445 0,-0.0891 0,-0.13363 0,-0.0473 -0.0056,0.0223 0.03341,-0.0167 0.0079,-0.008 0,-0.0223 0,-0.0334 0,-0.006 0,-0.0111 0,-0.0167 0,-0.0947 0,-0.18931 0,-0.28397 0,-0.0104 0.0026,-0.095 0,-0.10023 -0.0025,-0.005 -0.01277,0.004 -0.0167,0 -0.0039,-0.004 0.0013,-0.0662 0,-0.0668 -0.01,-0.005 -0.02553,0.008 -0.03341,0 -0.0079,-0.008 0.005,-0.0235 0,-0.0334 -0.0025,-0.005 -0.01277,0.004 -0.0167,0 -0.0039,-0.004 0,-0.0111 0,-0.0167 0,-0.003 6.35e-4,-0.0826 0,-0.0835 -0.0069,-0.0104 -0.0265,-0.006 -0.03341,-0.0167 -0.0074,-0.0111 0.0067,-0.0702 0,-0.0835 -0.0025,-0.005 -0.01277,0.004 -0.0167,0 -0.0039,-0.004 0.005,-0.0142 0,-0.0167 -0.01,-0.005 -0.02553,0.008 -0.03341,0 -0.0044,-0.004 0.0044,-0.0457 0,-0.0501 -0.0039,-0.004 -0.01114,0 -0.0167,0 0,-0.0111 0.0079,-0.0255 0,-0.0334 -0.0079,-0.008 -0.02345,0.005 -0.03341,0 -0.005,-0.002 0.0039,-0.0128 0,-0.0167 -0.0039,-0.004 -0.01421,0.005 -0.0167,0 -0.0083,-0.0166 0.0066,-0.0468 0,-0.0501 -0.01,-0.005 -0.02554,0.008 -0.03341,0 -0.0079,-0.008 0.005,-0.0234 0,-0.0334 -0.0025,-0.005 -0.01277,0.004 -0.0167,0 -0.0039,-0.004 0,-0.0111 0,-0.0167 0,-0.0111 0.0079,-0.0255 0,-0.0334 -0.0079,-0.008 -0.02345,0.005 -0.03341,0 -0.0066,-0.003 0.0083,-0.0335 0,-0.0501 -0.0025,-0.005 -0.01277,0.004 -0.0167,0 -0.0039,-0.004 0.0025,-0.0117 0,-0.0167 -0.01906,-0.0381 -0.03761,-0.046 -0.05011,-0.0835 -0.0038,-0.0114 0.0017,-0.066 0,-0.0668 -0.01,-0.005 -0.02553,0.008 -0.03341,0 -0.0079,-0.008 0,-0.0223 0,-0.0334 0,-0.0103 0.0026,-0.095 0,-0.10022 -0.0025,-0.005 -0.01277,0.004 -0.0167,0 -0.0039,-0.004 0.0013,-0.0662 0,-0.0668 -0.01,-0.005 -0.02553,0.008 -0.03341,0 -0.0079,-0.008 0,-0.0223 0,-0.0334 0,-0.006 0.0039,-0.0128 0,-0.0167 -0.0039,-0.004 -0.01421,0.005 -0.0167,0 -0.0083,-0.0166 0.0066,-0.0468 0,-0.0501 -0.01,-0.005 -0.02553,0.008 -0.03341,0 -0.0041,-0.004 0.0039,-0.0758 0,-0.0835 -0.0025,-0.005 -0.01277,0.004 -0.0167,0 -0.0084,-0.008 0.0084,-0.0418 0,-0.0501 -0.0079,-0.008 -0.02345,0.005 -0.03341,0 -0.005,-0.002 0,-0.0111 0,-0.0167 0,-0.005 0.0013,-0.0809 0,-0.0835 -0.0025,-0.005 -0.01277,0.004 -0.0167,0 -0.0039,-0.004 0,-0.0111 0,-0.0167 -0.01114,0 -0.025535,0.008 -0.033409,0 -0.00787,-0.008 0,-0.0223 0,-0.0334 0,-0.006 0,-0.0111 0,-0.0167 0,-0.0111 0.00498,-0.0234 0,-0.0334 -0.00249,-0.005 -0.016703,0.006 -0.016703,0 0,-0.006 0.021685,0.002 0.016703,0 -0.015748,-0.008 -0.037662,-0.004 -0.050113,-0.0167 0,-0.0947 0.011136,-0.006 -0.016703,-0.0334 -0.00394,-0.004 0.00498,-0.0142 0,-0.0167 -0.014941,-0.007 -0.033409,0 -0.050113,0 -0.050113,0 -0.1002261,0 -0.1503392,0 -0.011136,0 -0.022273,0 -0.033409,0 -0.00557,0 -0.012766,-0.004 -0.016703,0 -0.00394,0.004 0.00498,0.0142 0,0.0167 -0.00996,0.005 -0.022273,0 -0.033409,0 -0.00557,0 -0.012766,-0.004 -0.016703,0 -0.00394,0.004 0.00498,0.0142 0,0.0167 -0.00996,0.005 -0.025535,-0.008 -0.033409,0 -0.00787,0.008 0.00498,0.0234 0,0.0334 -0.00249,0.005 -0.011136,0 -0.016706,0 -0.00467,0 -0.080908,-0.001 -0.083522,0 -0.00498,0.002 0.00394,0.0128 0,0.0167 -0.00394,0.004 -0.011136,0 -0.016703,0 0,0.0111 0.00787,0.0255 0,0.0334 -0.00787,0.008 -0.023447,-0.005 -0.033409,0 -0.00498,0.002 0.00394,0.0128 0,0.0167 -0.00394,0.004 -0.011136,0 -0.016703,0 0,0.0111 0.00787,0.0255 0,0.0334 -0.00787,0.008 -0.023447,-0.005 -0.033409,0 -0.00498,0.002 0,0.0111 0,0.0167 0,0.0111 0,0.0223 0,0.0334 0,0.0334 0,0.0668 0,0.10023 0,0.0167 -0.00747,0.0352 0,0.0501 0.00249,0.005 0.012766,-0.004 0.016703,0 0.00394,0.004 0,0.0111 0,0.0167 0,0.0111 0,0.0223 0,0.0334 0,0.0173 -0.00228,0.0657 0,0.0668 0.00996,0.005 0.025535,-0.008 0.033409,0 0.00787,0.008 0,0.0223 0,0.0334 0,0.0334 0,0.0668 0,0.10023 0,0.006 -0.00394,0.0128 0,0.0167 0.00394,0.004 0.014213,-0.005 0.016703,0 1.31e-4,2.6e-4 2.453e-4,0.0828 0,0.0835 -0.00249,0.007 -0.014213,0.009 -0.016703,0.0167 -0.00528,0.0158 0,0.0334 0,0.0501 0,0.0278 0,0.0557 0,0.0835 0,0.006 0.00394,0.0128 0,0.0167 -0.00394,0.004 -0.014213,-0.005 -0.016703,0 -0.00386,0.008 0.00415,0.0794 0,0.0835 -0.00787,0.008 -0.023447,-0.005 -0.033409,0 -0.00498,0.002 0,0.0111 0,0.0167 0,0.005 0.0013,0.0809 0,0.0835 -0.00249,0.005 -0.012766,-0.004 -0.016703,0 -0.00394,0.004 0.00498,0.0142 0,0.0167 -0.00996,0.005 -0.025535,-0.008 -0.033409,0 -0.00835,0.008 0.00835,0.0418 0,0.0501 -0.00394,0.004 -0.011136,0 -0.016706,0 -0.011136,0 -0.024143,-0.006 -0.033409,0 -0.038775,0.0775 0.011033,0.003 -0.050113,0.0334 -0.00498,0.002 0.00177,0.0114 0,0.0167 -0.00394,0.0118 -0.00634,0.0265 -0.016703,0.0334 -0.00927,0.006 -0.022844,-0.004 -0.033409,0 -0.00747,0.002 -0.00923,0.0142 -0.016703,0.0167 -0.010565,0.004 -0.025535,-0.008 -0.033409,0 -0.00787,0.008 0.00498,0.0235 0,0.0334 -6.35e-4,0.001 -0.062937,-0.004 -0.066817,0 -0.00394,0.004 0.00498,0.0142 0,0.0167 -0.00996,0.005 -0.022273,0 -0.033409,0 -0.033409,0 -0.066817,0 -0.100226,0 -0.00557,0 -0.014214,-0.005 -0.016703,0 -0.00498,0.01 0.00787,0.0255 0,0.0334 -0.00415,0.004 -0.075799,-0.004 -0.083521,0 -0.00498,0.002 0.00394,0.0128 0,0.0167 -0.00394,0.004 -0.014214,-0.005 -0.016706,0 -0.00498,0.01 0.00787,0.0255 0,0.0334 -0.00787,0.008 -0.022273,0 -0.033409,0 -0.00557,0 -0.011136,0 -0.016706,0 -0.011136,0 -0.023447,-0.005 -0.033409,0 -0.044545,0.0223 0.050113,0.0167 -0.016703,0.0167 -0.011136,0 -0.025535,-0.008 -0.033409,0 -0.00787,0.008 0.00498,0.0234 0,0.0334 -0.00249,0.005 -0.011136,0 -0.016703,0 -0.094658,0 -0.00557,-0.0111 -0.033409,0.0167 -0.00394,0.004 -0.014213,-0.005 -0.016703,0 -0.00498,0.01 0.00787,0.0255 0,0.0334 -0.00415,0.004 -0.075799,-0.004 -0.083522,0 -0.00498,0.002 0.00394,0.0128 0,0.0167 -0.00394,0.004 -0.011136,0 -0.016706,0 -0.044545,0 -0.08909,0 -0.1336346,0 -0.017354,0 -0.065673,-0.002 -0.066817,0 -0.00498,0.01 0.00787,0.0255 0,0.0334 -0.00787,0.008 -0.022273,0 -0.033409,0 -0.038977,0 -0.077954,0 -0.1169305,0 -0.011136,0 -0.022273,0 -0.033409,0 -0.00557,0 -0.011422,-0.002 -0.016703,0 -0.011811,0.004 -0.021598,0.0128 -0.033409,0.0167 -0.00206,6.9e-4 -0.097081,0.001 -0.1002263,0 -0.073736,-0.0246 0.06069,-0.0167 -0.050113,-0.0167 -0.1392028,0 -0.2784057,0 -0.4176088,0 -0.02784,0 -0.055681,0 -0.083522,0 -0.00557,0 -0.012766,0.004 -0.016706,0 -0.00835,-0.008 0.00835,-0.0418 0,-0.0501 -0.00787,-0.008 -0.023447,0.005 -0.033409,0 -0.00498,-0.002 0,-0.0111 0,-0.0167 0,-0.0278 0,-0.0557 0,-0.0835 0,-0.11693 0,-0.23386 0,-0.35079 0,-0.0334 0,-0.0668 0,-0.10023 0,-0.0167 -0.00528,-0.0343 0,-0.0501 0.00249,-0.007 0.014213,-0.009 0.016706,-0.0167 0.00254,-0.008 0,-0.0742 0,-0.0835 0,-0.0473 -0.00557,0.0223 0.033409,-0.0167 0.00359,-0.004 0,-0.0781 0,-0.0835 0,-0.0167 -0.00747,-0.0352 0,-0.0501 0.022273,-0.0445 0.016703,0.0501 0.016703,-0.0167 0,-0.0111 0,-0.0223 0,-0.0334 0,-0.006 -0.00498,-0.0142 0,-0.0167 0.00996,-0.005 0.025535,0.008 0.033409,0 0.00359,-0.004 0,-0.0781 0,-0.0835 0,-0.0103 -0.00262,-0.095 0,-0.10023 0.00249,-0.005 0.012766,0.004 0.016703,0 0.00394,-0.004 0,-0.0111 0,-0.0167 0,-0.0334 0,-0.0668 0,-0.10023 0,-0.0111 -0.00787,-0.0255 0,-0.0334 0.00787,-0.008 0.023447,0.005 0.033409,0 0.00498,-0.002 0,-0.0111 0,-0.0167 0,-0.0111 0,-0.0223 0,-0.0334 0,-0.0334 0,-0.0668 0,-0.10022 0,-0.006 -0.00394,-0.0128 0,-0.0167 0.00394,-0.004 0.014213,0.005 0.016703,0 0.00747,-0.0149 0,-0.0334 0,-0.0501 0,-0.0111 0,-0.0223 0,-0.0334 0,-0.006 -0.00498,-0.0142 0,-0.0167 0.00996,-0.005 0.025535,0.008 0.033409,0 0.00787,-0.008 0,-0.0223 0,-0.0334 0,-0.0334 0,-0.0668 0,-0.10023 0,-0.006 -0.00394,-0.0128 0,-0.0167 0.00394,-0.004 0.014213,0.005 0.016703,0 0.00747,-0.0149 0,-0.0334 0,-0.0501 0,-0.0334 0,-0.0668 0,-0.10022 0,-0.0445 0,-0.0891 0,-0.13364 0,-0.0167 0.00747,-0.0352 0,-0.0501 -0.00249,-0.005 -0.012766,0.004 -0.016703,0 -0.00394,-0.004 0,-0.0111 0,-0.0167 0,-0.005 0.0013,-0.0809 0,-0.0835 -0.00249,-0.005 -0.012766,0.004 -0.016703,0 -0.00394,-0.004 0,-0.0111 0,-0.0167 -0.011136,0 -0.025535,0.008 -0.033409,0 -0.023625,-0.007 0.011811,-0.0383 0,-0.0501 -0.00394,-0.004 -0.014213,0.005 -0.016703,0 -0.00498,-0.01 0.00787,-0.0255 0,-0.0334 -0.00787,-0.008 -0.027231,0.009 -0.033409,0 0,-0.15591 0.016703,-0.0167 -0.016703,-0.0501 -0.00394,-0.004 0,-0.0111 0,-0.0167 0,-0.0111 0.00787,-0.0255 0,-0.0334 -0.00787,-0.008 -0.023447,0.005 -0.033409,0 -0.00498,-0.002 0.00177,-0.0114 0,-0.0167 -0.00394,-0.0118 -0.012766,-0.0216 -0.016706,-0.0334 -0.00177,-0.005 0.00498,-0.0142 0,-0.0167 -0.00996,-0.005 -0.025535,0.008 -0.033409,0 -0.00787,-0.008 0,-0.0223 0,-0.0334 0,-0.0167 0.00747,-0.0352 0,-0.0501 -0.00249,-0.005 -0.012766,0.004 -0.016703,0 -0.00394,-0.004 0,-0.0111 0,-0.0167 0,-0.0111 0.00787,-0.0255 0,-0.0334 -0.00787,-0.008 -0.023447,0.005 -0.033409,0 -0.00498,-0.002 0,-0.0111 0,-0.0167 0,-0.0946 0.011136,-0.006 -0.016703,-0.0334 -0.00394,-0.004 0.00498,-0.0142 0,-0.0167 -0.00996,-0.005 -0.025535,0.008 -0.033409,0 -0.00787,-0.008 0.00352,-0.0228 0,-0.0334 -0.00249,-0.007 -0.014213,-0.009 -0.016703,-0.0167 -0.00352,-0.0106 0,-0.0223 0,-0.0334 0,-0.006 0.00498,-0.0142 0,-0.0167 -0.00996,-0.005 -0.025535,0.008 -0.033409,0 -0.027165,-0.0272 0.027083,-0.0355 -0.016703,-0.0501 -0.010565,-0.004 -0.025535,0.008 -0.033409,0 -0.00835,-0.008 0.00835,-0.0418 0,-0.0501 -0.00394,-0.004 -0.014213,0.005 -0.016703,0 -0.00831,-0.0166 0.00661,-0.0468 0,-0.0501 -0.00523,-0.003 -0.089875,0 -0.100226,0 -0.00467,0 -0.080908,-10e-4 -0.083522,0 -0.00498,0.002 0.00394,0.0128 0,0.0167 -0.00394,0.004 -0.011136,0 -0.016703,0 -0.00467,0 -0.080908,-0.001 -0.083522,0 -0.00498,0.002 0.00394,0.0128 0,0.0167 -0.00835,0.008 -0.041761,-0.008 -0.050113,0 -0.00787,0.008 0.00498,0.0235 0,0.0334 -0.00249,0.005 -0.011136,0 -0.016703,0 -0.011136,0 -0.022844,-0.004 -0.033409,0 -0.00747,0.002 -0.00923,0.0142 -0.016703,0.0167 -0.010565,0.004 -0.022273,0 -0.033409,0 -0.00557,0 -0.014213,-0.005 -0.016703,0 -0.00498,0.01 0.00787,0.0255 0,0.0334 -0.00787,0.008 -0.022273,0 -0.033409,0 -0.00557,0 -0.011136,0 -0.016703,0 -0.011136,0 -0.022273,0 -0.033409,0 0,0.006 0.00528,0.0149 0,0.0167 -0.015846,0.005 -0.036214,-0.009 -0.050113,0 -0.00927,0.006 0.00498,0.0235 0,0.0334 -0.00249,0.005 -0.012766,-0.004 -0.016703,0 -0.00394,0.004 0.00498,0.0142 0,0.0167 -0.037121,0.0186 -0.041761,-0.0278 -0.083522,0 -0.00927,0.006 0.00498,0.0234 0,0.0334 -0.0033,0.007 -0.033495,-0.008 -0.050113,0 -0.00498,0.002 0.00394,0.0128 0,0.0167 -0.00394,0.004 -0.01225,-0.003 -0.016703,0 -0.018899,0.0142 -0.033409,0.0334 -0.050113,0.0501 -0.011136,0.0111 -0.020304,0.0247 -0.033409,0.0334 -0.00463,0.003 -0.012766,-0.004 -0.016703,0 -0.00394,0.004 0.00498,0.0142 0,0.0167 -0.00996,0.005 -0.025535,-0.008 -0.033409,0 -0.00787,0.008 0.00498,0.0235 0,0.0334 -0.00249,0.005 -0.012766,-0.004 -0.016703,0 -0.00394,0.004 0.00309,0.0121 0,0.0167 -0.00874,0.0131 -0.024672,0.0203 -0.033409,0.0334 -0.00309,0.005 0.00394,0.0128 0,0.0167 -0.00394,0.004 -0.014214,-0.005 -0.016703,0 -0.00498,0.01 0.00618,0.0241 0,0.0334 -0.00691,0.0104 -0.026502,0.006 -0.033409,0.0167 -0.00618,0.009 0.00498,0.0234 0,0.0334 -0.022273,0.0446 -0.016703,-0.0501 -0.016703,0.0167 0,0.0111 0,0.0223 0,0.0334 0,0.006 0.00498,0.0142 0,0.0167 -0.00996,0.005 -0.025535,-0.008 -0.033409,0 -0.023625,0.007 0.011811,0.0383 0,0.0501 -0.00394,0.004 -0.011136,0 -0.016703,0 0,0.0111 0.00618,0.0241 0,0.0334 -0.00691,0.0104 -0.026503,0.006 -0.033409,0.0167 -0.00618,0.009 0,0.0223 0,0.0334 0,0.0167 0,0.0334 0,0.0501 0,0.0557 0,0.11136 0,0.16704 0,0.14477 0,0.28954 0,0.43431 0,0.0501 0,0.10023 0,0.15034 0,0.0167 -0.00528,0.0343 0,0.0501 0.00249,0.007 0.014214,0.009 0.016703,0.0167 0.00254,0.008 0,0.0742 0,0.0835 0,0.0557 0,0.11136 0,0.16704 0,0.0111 -0.00787,0.0255 0,0.0334 0.00787,0.008 0.023447,-0.005 0.033409,0 0.00661,0.003 -0.00831,0.0335 0,0.0501 0.00249,0.005 0.012766,-0.004 0.016706,0 0.00394,0.004 0,0.0111 0,0.0167 0,0.0111 -0.00787,0.0255 0,0.0334 0.00787,0.008 0.022844,-0.004 0.033409,0 0.043787,0.0146 -0.010462,0.0229 0.016703,0.0501 0.00787,0.008 0.023447,-0.005 0.033409,0 0.00661,0.003 -0.00831,0.0335 0,0.0501 0.00249,0.005 0.011422,-0.002 0.016703,0 0.011811,0.004 0.026502,0.006 0.033409,0.0167 0.00618,0.009 0,0.0223 0,0.0334 0,0.006 -0.00394,0.0128 0,0.0167 0.00394,0.004 0.014213,-0.005 0.016703,0 0.00193,0.004 0.00193,0.0797 0,0.0835 -0.00249,0.005 -0.012766,-0.004 -0.016703,0 -0.00394,0.004 0.00394,0.0128 0,0.0167 -0.00394,0.004 -0.012766,0.004 -0.016703,0 -0.00787,-0.008 0.00996,-0.0284 0,-0.0334 -0.00996,-0.005 -0.025535,0.008 -0.033409,0 -0.00787,-0.008 0.00498,-0.0234 0,-0.0334 -0.00249,-0.005 -0.012766,0.004 -0.016703,0 -0.00394,-0.004 0,-0.0111 0,-0.0167 -0.011136,0 -0.025535,0.008 -0.033409,0 -0.00787,-0.008 0.00498,-0.0234 0,-0.0334 -0.00249,-0.005 -0.012766,0.004 -0.016703,0 -0.00394,-0.004 0,-0.0111 0,-0.0167 0,-0.0111 0.00787,-0.0255 0,-0.0334 -0.00787,-0.008 -0.023447,0.005 -0.033409,0 -0.0013,-6.3e-4 0.00388,-0.0629 0,-0.0668 -0.00394,-0.004 -0.014213,0.005 -0.016703,0 -0.00537,-0.0107 0.00516,-0.0925 0,-0.10022 -0.00874,-0.0131 -0.024672,-0.0203 -0.033409,-0.0334 -0.00309,-0.005 0.00177,-0.0114 0,-0.0167 -0.00394,-0.0118 -0.012766,-0.0216 -0.016703,-0.0334 -0.00368,-0.0111 0,-0.0838 0,-0.10023 0,-0.006 0.00309,-0.0121 0,-0.0167 -0.00874,-0.0131 -0.024672,-0.0203 -0.033409,-0.0334 -0.00461,-0.007 0.00402,-0.0548 0,-0.0668 -0.00394,-0.0118 -0.014658,-0.0211 -0.016703,-0.0334 -0.00366,-0.022 0,-0.0445 0,-0.0668 0,-0.0111 0.00618,-0.0242 0,-0.0334 -0.00691,-0.0104 -0.026502,-0.006 -0.033409,-0.0167 -0.00479,-0.007 0.00354,-0.0729 0,-0.0835 -0.00249,-0.007 -0.014213,-0.009 -0.016703,-0.0167 -0.00528,-0.0159 0,-0.0334 0,-0.0501 0,-0.0334 0,-0.0668 0,-0.10022 0,-0.0111 0.00787,-0.0255 0,-0.0334 -0.00787,-0.008 -0.023447,0.005 -0.033409,0 -0.0023,-0.001 0,-0.0495 0,-0.0668 0,-0.0278 0,-0.0557 0,-0.0835 0,-0.0167 0.00528,-0.0343 0,-0.0501 -0.00249,-0.007 -0.014213,-0.009 -0.016703,-0.0167 -0.00254,-0.008 0,-0.0742 0,-0.0835 0,-0.0167 0,-0.0334 0,-0.0501 0,-0.006 0.00498,-0.0142 0,-0.0167 -0.00996,-0.005 -0.025535,0.008 -0.033409,0 -0.00787,-0.008 0,-0.0223 0,-0.0334 0,-0.0104 0.00262,-0.095 0,-0.10022 -0.00249,-0.005 -0.012766,0.004 -0.016703,0 -0.00835,-0.008 0.00835,-0.0418 0,-0.0501 -0.00787,-0.008 -0.023447,0.005 -0.033409,0 -0.00498,-0.002 0,-0.0111 0,-0.0167 0,-0.0947 0.011136,-0.006 -0.016703,-0.0334 -0.00394,-0.004 0.00498,-0.0142 0,-0.0167 -0.00996,-0.005 -0.025535,0.008 -0.033409,0 -0.023625,-0.007 0.011811,-0.0383 0,-0.0501 -0.00394,-0.004 -0.011136,0 -0.016703,0 0,-0.0111 0.00618,-0.0242 0,-0.0334 -0.00691,-0.0104 -0.026502,-0.006 -0.033409,-0.0167 -0.00618,-0.009 0.00498,-0.0235 0,-0.0334 -0.00249,-0.005 -0.012766,0.004 -0.016703,0 -7.673e-4,-7.7e-4 -0.037408,-0.0626 -0.050113,-0.0668 -0.010565,-0.004 -0.025535,0.008 -0.033409,0 -0.00787,-0.008 0.00352,-0.0229 0,-0.0334 -0.00249,-0.007 -0.011136,-0.0111 -0.016703,-0.0167 -0.013414,-0.0134 -0.073874,-0.069 -0.083522,-0.0835 -0.00309,-0.005 0.00394,-0.0128 0,-0.0167 -0.00394,-0.004 -0.014213,0.005 -0.016703,0 -0.00831,-0.0166 0.00661,-0.0468 0,-0.0501 -0.00996,-0.005 -0.025535,0.008 -0.033409,0 -0.023625,-0.007 0.011811,-0.0383 0,-0.0501 -0.00394,-0.004 -0.014213,0.005 -0.016703,0 -0.00498,-0.01 0.00787,-0.0255 0,-0.0334 -0.00787,-0.008 -0.023447,0.005 -0.033409,0 -0.00661,-0.003 0.00831,-0.0335 0,-0.0501 -0.00249,-0.005 -0.012766,0.004 -0.016703,0 -0.00394,-0.004 0,-0.0111 0,-0.0167 -0.011136,0 -0.025535,0.008 -0.033409,0 -0.027165,-0.0272 0.027083,-0.0355 -0.016703,-0.0501 -0.010565,-0.004 -0.025535,0.008 -0.033409,0 -0.023625,-0.007 0.011811,-0.0383 0,-0.0501 -0.00394,-0.004 -0.011136,0 -0.016703,0 -0.011136,0 -0.025535,0.008 -0.033409,0 -0.00835,-0.008 0.00835,-0.0418 0,-0.0501 -0.00445,-0.004 -0.04566,0.004 -0.050113,0 -0.00787,-0.008 0.00498,-0.0234 0,-0.0334 -0.00249,-0.005 -0.012766,0.004 -0.016703,0 -0.00394,-0.004 0.00498,-0.0142 0,-0.0167 -0.016618,-0.008 -0.046809,0.007 -0.050113,0 -0.00498,-0.01 0.00787,-0.0255 0,-0.0334 -0.00787,-0.008 -0.022273,0 -0.033409,0 -0.022273,0 -0.044545,0 -0.066817,0 -0.011136,0 -0.023447,-0.005 -0.033409,0 -0.044545,0.0223 0.050113,0.0167 -0.016706,0.0167 -0.011136,0 -0.022273,0 -0.033409,0 -0.00557,0 -0.014213,-0.005 -0.016703,0 -0.00498,0.01 0.00787,0.0255 0,0.0334 -0.00557,0.006 -0.038977,-0.003 -0.050113,0 -0.017081,0.004 -0.032847,0.0133 -0.050113,0.0167 -0.010919,0.002 -0.024143,-0.006 -0.033409,0 -0.010358,0.007 -0.00634,0.0265 -0.016703,0.0334 -0.00927,0.006 -0.022844,-0.004 -0.033409,0 -0.00747,0.002 -0.011136,0.0111 -0.016706,0.0167 -0.011136,0.0111 -0.020304,0.0247 -0.033409,0.0334 -0.00493,0.003 -0.08848,0 -0.100226,0 -0.00557,0 -0.012766,-0.004 -0.016703,0 -0.00394,0.004 0.00498,0.0142 0,0.0167 -0.00996,0.005 -0.025535,-0.008 -0.033409,0 -0.00787,0.008 0.00498,0.0235 0,0.0334 -0.00249,0.005 -0.012766,-0.004 -0.016703,0 -0.00394,0.004 0.00498,0.0142 0,0.0167 -0.00996,0.005 -0.025535,-0.008 -0.033409,0 -0.00787,0.008 0.00498,0.0234 0,0.0334 -0.0033,0.007 -0.033495,-0.008 -0.050113,0 -0.00498,0.002 0.00177,0.0114 0,0.0167 -0.00394,0.0118 -0.0079,0.0246 -0.016703,0.0334 -0.08909,0.0446 0.016703,-0.0167 -0.050113,0.0501 -0.0088,0.009 -0.026502,0.006 -0.033409,0.0167 -0.00618,0.009 0.00352,0.0228 0,0.0334 -0.00249,0.007 -0.014214,0.009 -0.016703,0.0167 -0.00352,0.0106 0,0.0223 0,0.0334 0,0.006 0.00309,0.0121 0,0.0167 -0.00874,0.0131 -0.025305,0.0199 -0.033409,0.0334 -0.00906,0.0151 -0.012433,0.033 -0.016703,0.0501 -0.00135,0.005 0.00309,0.0121 0,0.0167 -0.00874,0.0131 -0.024672,0.0203 -0.033409,0.0334 -0.00309,0.005 0,0.0111 0,0.0167 0,0.0111 0.00352,0.0229 0,0.0334 -0.00249,0.007 -0.014213,0.009 -0.016706,0.0167 -0.00528,0.0159 0,0.0334 0,0.0501 0,0.0334 0,0.0668 0,0.10023 0,0.005 -0.0013,0.0809 0,0.0835 0.00249,0.005 0.012766,-0.004 0.016706,0 1.59e-5,10e-6 -2.54e-5,0.05 0,0.0501 0.00249,0.007 0.014213,0.009 0.016703,0.0167 0.00352,0.0106 -0.00618,0.0241 0,0.0334 0.00691,0.0104 0.026502,0.006 0.033409,0.0167 0.00738,0.0111 -0.00668,0.0702 0,0.0835 0.022273,0.0445 0.016703,-0.0501 0.016703,0.0167 0,0.0111 0,0.0223 0,0.0334 0,0.006 -0.00498,0.0142 0,0.0167 0.00996,0.005 0.025535,-0.008 0.033409,0 0.00415,0.004 -0.00386,0.0758 0,0.0835 0.00249,0.005 0.012766,-0.004 0.016703,0 0.00394,0.004 0,0.0111 0,0.0167 0,0.0111 0,0.0223 0,0.0334 0,0.006 0,0.0111 0,0.0167 0,0.0111 -0.00787,0.0255 0,0.0334 0.00787,0.008 0.023447,-0.005 0.033409,0 0.00228,10e-4 0,0.0495 0,0.0668 0,0.0278 0,0.0557 0,0.0835 0,0.006 -0.00394,0.0128 0,0.0167 0.00394,0.004 0.014214,-0.005 0.016703,0 0.00498,0.01 0,0.0223 0,0.0334 0,0.0167 0,0.0334 0,0.0501 0,0.0501 0,0.10023 0,0.15034 0,0.006 0,0.0111 0,0.0167 0,0.0111 -0.00787,0.0255 0,0.0334 0.00787,0.008 0.023447,-0.005 0.033409,0 0.00498,0.002 0,0.0111 0,0.0167 0,0.0111 0,0.0223 0,0.0334 0,0.0668 0,0.13364 0,0.20046 0,0.006 0,-0.0111 0,-0.0167 0,-0.0111 0,-0.0223 0,-0.0334 0,-0.006 0.00177,-0.0114 0,-0.0167 -0.00394,-0.0118 -0.014264,-0.0212 -0.016703,-0.0334 0,-0.15986 0.014941,0.0299 -0.033409,-0.0668 -0.01392,-0.0278 0.00928,-0.0557 0,-0.0835 -0.00249,-0.007 -0.014795,-0.009 -0.016703,-0.0167 -0.00405,-0.0162 0,-0.0334 0,-0.0501 0,-0.0111 0.00618,-0.0242 0,-0.0334 -0.00691,-0.0104 -0.02784,-0.006 -0.033409,-0.0167 -0.00747,-0.0149 0.00528,-0.0343 0,-0.0501 -0.00177,-0.005 -0.014213,0.005 -0.016703,0 -0.00498,-0.01 0.00414,-0.0231 0,-0.0334 -0.00746,-0.0186 -0.024432,-0.0322 -0.033409,-0.0501 -0.00249,-0.005 0,-0.0111 0,-0.0167 0,-0.0111 0.00352,-0.0228 0,-0.0334 -0.00249,-0.007 -0.014213,-0.009 -0.016703,-0.0167 -0.00352,-0.0106 0,-0.0223 0,-0.0334 0,-0.006 0.00498,-0.0142 0,-0.0167 -0.00996,-0.005 -0.025535,0.008 -0.033409,0 -0.00835,-0.008 0.00418,-0.0376 0,-0.0501 -0.019196,-0.0576 -0.016706,-0.0124 -0.016706,-0.0501 0,-0.0111 0,-0.0223 0,-0.0334 0,-0.006 0.00498,-0.0142 0,-0.0167 -0.00996,-0.005 -0.025535,0.008 -0.033409,0 -0.00787,-0.008 0,-0.0223 0,-0.0334 0,-0.0167 0.00405,-0.0339 0,-0.0501 -0.0019,-0.008 -0.014213,-0.009 -0.016703,-0.0167 -0.00352,-0.0106 0,-0.0223 0,-0.0334 0,-0.006 0.00498,-0.0142 0,-0.0167 -0.00996,-0.005 -0.025535,0.008 -0.033409,0 -0.00225,-0.002 0.0019,-0.0778 0,-0.0835 -0.00249,-0.007 -0.01198,-0.0104 -0.016703,-0.0167 -0.012047,-0.0161 -0.025953,-0.0315 -0.033409,-0.0501 -0.00414,-0.0103 0,-0.0223 0,-0.0334 0,-0.006 0.00394,-0.0128 0,-0.0167 -0.00394,-0.004 -0.014213,0.005 -0.016703,0 -0.00498,-0.01 0,-0.0223 0,-0.0334 0,-0.006 0.00309,-0.0121 0,-0.0167 -0.00874,-0.0131 -0.022273,-0.0223 -0.033409,-0.0334 -0.00557,-0.006 -0.014213,-0.009 -0.016703,-0.0167 -0.00352,-0.0106 0,-0.0223 0,-0.0334 -0.011136,-0.0167 -0.024432,-0.0322 -0.033409,-0.0501 -0.00249,-0.005 0.00394,-0.0128 0,-0.0167 -0.00394,-0.004 -0.014213,0.005 -0.016703,0 -0.00498,-0.01 0,-0.0223 0,-0.0334 0,-0.006 0.00309,-0.0121 0,-0.0167 -0.00874,-0.0131 -0.024672,-0.0203 -0.033409,-0.0334 -0.00309,-0.005 0.00394,-0.0128 0,-0.0167 -0.00394,-0.004 -0.014213,0.005 -0.016703,0 -0.00498,-0.01 0.00618,-0.0241 0,-0.0334 -0.00691,-0.0104 -0.026503,-0.006 -0.033409,-0.0167 -0.00618,-0.009 0,-0.0223 0,-0.0334 0,-0.006 0.00394,-0.0128 0,-0.0167 -0.00394,-0.004 -0.014213,0.005 -0.016703,0 -0.00498,-0.01 0.00787,-0.0255 0,-0.0334 -0.00787,-0.008 -0.023447,0.005 -0.033409,0 -0.00498,-0.002 0,-0.0111 0,-0.0167 0,-0.0111 0,-0.0223 0,-0.0334 0,-0.0668 0.00557,0.0278 -0.016703,-0.0167 -0.00498,-0.01 0,-0.0223 0,-0.0334 0,-0.006 0,-0.0111 0,-0.0167 0,-0.0111 0.00787,-0.0255 0,-0.0334 -0.00787,-0.008 -0.023447,0.005 -0.033409,0 -0.00498,-0.002 0.00394,-0.0128 0,-0.0167 -0.00394,-0.004 -0.014213,0.005 -0.016703,0 -0.00498,-0.01 0.00787,-0.0255 0,-0.0334 -0.00787,-0.008 -0.023447,0.005 -0.033409,0 -0.0013,-6.4e-4 0.00388,-0.0629 0,-0.0668 -0.00394,-0.004 -0.014213,0.005 -0.016703,0 -0.00498,-0.01 0.00787,-0.0255 0,-0.0334 -0.00787,-0.008 -0.023447,0.005 -0.033409,0 -0.00498,-0.002 0.00394,-0.0128 0,-0.0167 -0.00394,-0.004 -0.014213,0.005 -0.016703,0 -0.00831,-0.0166 0.00661,-0.0468 0,-0.0501 -0.00996,-0.005 -0.025535,0.008 -0.033409,0 -0.00787,-0.008 0.00498,-0.0234 0,-0.0334 -0.00249,-0.005 -0.012766,0.004 -0.016703,0 -0.00394,-0.004 0,-0.0111 0,-0.0167 0,-0.0111 0.00787,-0.0255 0,-0.0334 -0.00787,-0.008 -0.023447,0.005 -0.033409,0 -0.00498,-0.002 0.00394,-0.0128 0,-0.0167 -0.00394,-0.004 -0.014213,0.005 -0.016703,0 -0.00831,-0.0166 0.00661,-0.0468 0,-0.0501 -0.016618,-0.008 -0.046808,0.007 -0.050113,0 -0.00498,-0.01 0.00787,-0.0255 0,-0.0334 -0.00787,-0.008 -0.023447,0.005 -0.033409,0 -0.00498,-0.002 0.00394,-0.0128 0,-0.0167 -0.00486,-0.005 -0.058649,0.005 -0.066817,0 -0.013105,-0.009 -0.020304,-0.0247 -0.033409,-0.0334 -0.00463,-0.003 -0.011136,0 -0.016703,0 -0.011136,0 -0.022844,0.004 -0.033409,0 -0.00747,-0.002 -0.00906,-0.0148 -0.016703,-0.0167 -0.016206,-0.004 -0.034603,0.006 -0.050113,0 -0.014624,-0.006 -0.020304,-0.0247 -0.033409,-0.0334 -0.00691,-0.005 -0.054749,0.004 -0.066817,0 -0.011811,-0.004 -0.021201,-0.0143 -0.033409,-0.0167 -0.01638,-0.003 -0.033409,0 -0.050113,0 -0.033409,0 -0.066817,0 -0.100226,0 -0.016703,0 -0.035172,-0.007 -0.050113,0 -0.00498,0.002 0.00394,0.0128 0,0.0167 -1.59e-5,2e-5 -0.050037,-2e-5 -0.050113,0 -0.00747,0.002 -0.00906,0.0148 -0.016703,0.0167 -0.016206,0.004 -0.036214,-0.009 -0.050113,0 -0.00927,0.006 0.00787,0.0255 0,0.0334 -0.00835,0.008 -0.037585,-0.004 -0.050113,0 -0.011811,0.004 -0.021598,0.0128 -0.033409,0.0167 -0.00528,0.002 -0.014213,-0.005 -0.016703,0 -0.044545,0.0891 0.055681,-0.0111 -0.033409,0.0334 -0.00661,0.003 0.00831,0.0335 0,0.0501 -0.00249,0.005 -0.012766,-0.004 -0.016703,0 -0.00206,0.002 0,0.0563 0,0.0668 0,0.0111 0,0.0223 0,0.0334 0,0.006 0.00498,0.0142 0,0.0167 -0.00996,0.005 -0.025535,-0.008 -0.033409,0 -6.086e-4,6.2e-4 0,0.0953 0,0.10023 0,0.19488 0,0.38977 0,0.58465 0,0.0557 0,0.11136 0,0.16704 0,0.0164 -0.00368,0.0892 0,0.10023 0.019195,0.0576 0.016703,0.0124 0.016703,0.0501 0,0.0111 0,0.0223 0,0.0334 0,0.006 -0.00498,0.0142 0,0.0167 0.00996,0.005 0.025535,-0.008 0.033409,0 0.00787,0.008 0,0.0223 0,0.0334 0,0.006 0,0.0111 0,0.0167 0,0.1108 -0.00787,-0.0236 0.016703,0.0501 0.0019,0.006 -0.00225,0.0813 0,0.0835 0.00787,0.008 0.023447,-0.005 0.033409,0 0.00661,0.003 -0.00831,0.0335 0,0.0501 0.00249,0.005 0.012766,-0.004 0.016703,0 0.00394,0.004 0,0.0111 0,0.0167 0,0.0111 -0.00618,0.0241 0,0.0334 0.00691,0.0104 0.026502,0.006 0.033409,0.0167 0.00618,0.009 -0.00352,0.0229 0,0.0334 0.00249,0.007 0.014214,0.009 0.016703,0.0167 0.00352,0.0106 -0.00618,0.0241 0,0.0334 0.00691,0.0104 0.026502,0.006 0.033409,0.0167 0,0.0947 -0.011136,0.006 0.016703,0.0334 0.00394,0.004 0,0.0111 0,0.0167 0,0.0111 -0.00787,0.0255 0,0.0334 0.00787,0.008 0.023447,-0.005 0.033409,0 0.00661,0.003 -0.00831,0.0335 0,0.0501 0.00249,0.005 0.012766,-0.004 0.016703,0 0.00394,0.004 0,0.0111 0,0.0167 0,0.0111 -0.00618,0.0241 0,0.0334 0.00691,0.0104 0.026502,0.006 0.033409,0.0167 0.00618,0.009 0,0.0223 0,0.0334 0,0.006 -0.00394,0.0128 0,0.0167 0.00394,0.004 0.014213,-0.005 0.016703,0 0.00831,0.0166 -0.00661,0.0468 0,0.0501 0.00996,0.005 0.025535,-0.008 0.033409,0 0.00835,0.008 -0.00418,0.0376 0,0.0501 0.00394,0.0118 0.012766,0.0216 0.016703,0.0334 0.00368,0.0111 0,0.0838 0,0.10023 0,0.006 0,-0.0111 0,-0.0167 0,-0.0111 0,-0.0223 0,-0.0334 0,-0.006 0.00177,-0.0114 0,-0.0167 -0.00394,-0.0118 -0.012766,-0.0216 -0.016703,-0.0334 -0.00835,-0.0251 0.016703,-0.0167 0,-0.0501 -0.00249,-0.005 -0.012766,0.004 -0.016703,0 -0.00394,-0.004 0.00498,-0.0142 0,-0.0167 -0.00996,-0.005 -0.025535,0.008 -0.033409,0 -0.0043,-0.004 0.0043,-0.0458 0,-0.0501 -0.00394,-0.004 -0.014213,0.005 -0.016703,0 -0.00831,-0.0166 0.00661,-0.0468 0,-0.0501 -0.00996,-0.005 -0.025535,0.008 -0.033409,0 -0.00835,-0.008 0.00835,-0.0418 0,-0.0501 -0.00394,-0.004 -0.014213,0.005 -0.016703,0 -0.00831,-0.0166 0.00661,-0.0468 0,-0.0501 -0.00996,-0.005 -0.025535,0.008 -0.033409,0 -0.00787,-0.008 0.00352,-0.0229 0,-0.0334 -0.00249,-0.007 -0.014213,-0.009 -0.016706,-0.0167 -0.00352,-0.0106 0.00618,-0.0241 0,-0.0334 -0.00691,-0.0104 -0.026502,-0.006 -0.033409,-0.0167 -0.00618,-0.009 0,-0.0223 0,-0.0334 0,-0.006 0.00394,-0.0128 0,-0.0167 -0.00394,-0.004 -0.014213,0.005 -0.016703,0 -0.00831,-0.0166 0.00661,-0.0468 0,-0.0501 -0.00996,-0.005 -0.025535,0.008 -0.033409,0 -0.00787,-0.008 0.00352,-0.0229 0,-0.0334 -0.00249,-0.007 -0.014213,-0.009 -0.016703,-0.0167 -0.0019,-0.006 0.00225,-0.0813 0,-0.0835 -0.00787,-0.008 -0.023447,0.005 -0.033409,0 -0.00661,-0.003 0.00831,-0.0335 0,-0.0501 -0.00249,-0.005 -0.012766,0.004 -0.016703,0 -0.00394,-0.004 0,-0.0111 0,-0.0167 0,-0.0111 0.00787,-0.0255 0,-0.0334 -0.00787,-0.008 -0.023447,0.005 -0.033409,0 -0.00498,-0.002 0,-0.0111 0,-0.0167 0,-0.0111 0.00352,-0.0228 0,-0.0334 -0.00249,-0.007 -0.014213,-0.009 -0.016703,-0.0167 -0.00352,-0.0106 0,-0.0223 0,-0.0334 0,-0.006 0.00498,-0.0142 0,-0.0167 -0.00996,-0.005 -0.025534,0.008 -0.033409,0 -0.00787,-0.008 0.00352,-0.0228 0,-0.0334 -0.00249,-0.007 -0.014214,-0.009 -0.016704,-0.0167 -0.00352,-0.0106 0,-0.0223 0,-0.0334 0,-0.006 0.00309,-0.0121 0,-0.0167 -0.00874,-0.0131 -0.024673,-0.0203 -0.033409,-0.0334 -0.00309,-0.005 0,-0.0111 0,-0.0167 0,-0.0111 0.00498,-0.0234 0,-0.0334 -0.00249,-0.005 -0.012767,0.004 -0.016704,0 -0.00394,-0.004 0,-0.0111 0,-0.0167 0,-0.0111 0.00787,-0.0255 0,-0.0334 -0.00787,-0.008 -0.023448,0.005 -0.033409,0 -0.00129,-6.4e-4 0.00388,-0.0629 0,-0.0668 -0.00394,-0.004 -0.014214,0.005 -0.016704,0 -0.00831,-0.0166 0.00661,-0.0468 0,-0.0501 -0.00996,-0.005 -0.025534,0.008 -0.033409,0 -0.00414,-0.004 0.00386,-0.0758 0,-0.0835 -0.00249,-0.005 -0.012767,0.004 -0.016704,0 -0.00394,-0.004 0,-0.0111 0,-0.0167 0,-0.0111 0.00618,-0.0242 0,-0.0334 -0.00691,-0.0104 -0.026502,-0.006 -0.033409,-0.0167 0,-0.0947 0.011136,-0.006 -0.016704,-0.0334 -0.00388,-0.004 0.00129,-0.0662 0,-0.0668 -0.00996,-0.005 -0.025534,0.008 -0.033409,0 -0.0043,-0.004 0.0043,-0.0458 0,-0.0501 -0.00394,-0.004 -0.014214,0.005 -0.016704,0 -0.00831,-0.0166 0.00661,-0.0468 0,-0.0501 -0.00996,-0.005 -0.025534,0.008 -0.033409,0 -0.00414,-0.004 0.00386,-0.0758 0,-0.0835 -0.00249,-0.005 -0.012767,0.004 -0.016704,0 -0.00394,-0.004 0.00309,-0.0121 0,-0.0167 -0.00874,-0.0131 -0.024673,-0.0203 -0.033409,-0.0334 -0.00309,-0.005 0.00394,-0.0128 0,-0.0167 -0.00394,-0.004 -0.014214,0.005 -0.016704,0 -0.00831,-0.0166 0.00661,-0.0468 0,-0.0501 -0.00996,-0.005 -0.024143,0.006 -0.033409,0 -0.01036,-0.007 -0.012767,-0.0216 -0.016704,-0.0334 -0.00176,-0.005 0.00498,-0.0142 0,-0.0167 -0.00996,-0.005 -0.025534,0.008 -0.033409,0 -0.0043,-0.004 0.0043,-0.0458 0,-0.0501 -0.00394,-0.004 -0.011136,0 -0.016705,0 -0.011136,-0.0167 -0.02308,-0.0329 -0.033409,-0.0501 -0.00641,-0.0107 -0.012767,-0.0216 -0.016704,-0.0334 -0.00176,-0.005 0.00498,-0.0142 0,-0.0167 -0.00996,-0.005 -0.024143,0.006 -0.033409,0 -0.034036,-0.0227 -0.00404,-0.0709 -0.016704,-0.0835 -0.00787,-0.008 -0.023448,0.005 -0.033409,0 -0.00498,-0.002 0.00176,-0.0114 0,-0.0167 -0.00394,-0.0118 -0.012767,-0.0216 -0.016704,-0.0334 -0.00176,-0.005 0.00309,-0.0121 0,-0.0167 -0.0088,-0.0131 -0.022337,-0.0223 -0.033473,-0.0335 -0.022272,-0.0223 -0.044545,-0.0445 -0.066817,-0.0668 -0.011136,-0.0111 -0.022272,-0.0223 -0.033409,-0.0334 -0.00557,-0.006 -0.014214,-0.009 -0.016704,-0.0167 -0.00352,-0.0106 0.00618,-0.0241 0,-0.0334 -0.00691,-0.0104 -0.021597,-0.0128 -0.033409,-0.0167 -0.00528,-0.002 -0.014214,0.005 -0.016704,0 -0.00498,-0.01 0.00787,-0.0255 0,-0.0334 -0.00787,-0.008 -0.023448,0.005 -0.033409,0 -0.00498,-0.002 0.00394,-0.0128 0,-0.0167 -0.00394,-0.004 -0.014214,0.005 -0.016705,0 -0.00831,-0.0166 0.00661,-0.0468 0,-0.0501 -0.063878,-0.0557 -0.020958,0.0167 -0.033409,0.0167 -0.00499,0 0.010996,-0.0554 -0.016704,0 -0.00249,0.005 0.00498,0.0142 0,0.0167 -0.016618,0.008 -0.046809,-0.007 -0.050113,0 -0.00498,0.01 0.00787,0.0255 0,0.0334 -0.00835,0.008 -0.041761,-0.008 -0.050113,0 -0.00394,0.004 0.00498,0.0142 0,0.0167 -0.00996,0.005 -0.025534,-0.008 -0.033409,0 -0.00787,0.008 0.00498,0.0234 0,0.0334 -0.00249,0.005 -0.011136,0 -0.016704,0 -0.011136,0 -0.022272,0 -0.033409,0 -0.037739,0 0.00747,-0.002 -0.050113,0.0167 -0.012528,0.004 -0.041761,-0.008 -0.050113,0 -0.00787,0.008 0.00498,0.0234 0,0.0334 -0.00249,0.005 -0.011136,0 -0.016704,0 -0.011136,0 -0.022272,0 -0.033409,0 -0.037739,0 0.00747,-0.002 -0.050113,0.0167 -0.00528,0.002 -0.014214,-0.005 -0.016704,0 -0.00498,0.01 0.00787,0.0255 0,0.0334 -0.00445,0.004 -0.04566,-0.004 -0.050113,0 -0.00835,0.008 0.00835,0.0418 0,0.0501 -0.00787,0.008 -0.023448,-0.005 -0.033409,0 -0.00661,0.003 0.00831,0.0335 0,0.0501 -0.00249,0.005 -0.012767,-0.004 -0.016704,0 -0.00394,0.004 0,0.0111 0,0.0167 0,0.0111 0.00787,0.0255 0,0.0334 -0.00787,0.008 -0.023448,-0.005 -0.033409,0 -0.00498,0.002 0,0.0111 0,0.0167 0,0.0278 0,0.0557 0,0.0835 0,0.006 0.00394,0.0128 0,0.0167 -0.00394,0.004 -0.014214,-0.005 -0.016705,0 -0.00747,0.0149 0,0.0334 0,0.0501 0,0.0501 0,0.10023 0,0.15034 0,0.005 0.00359,0.0799 0,0.0835 -0.00787,0.008 -0.023448,-0.005 -0.033409,0 -0.00229,0.001 0,0.0495 0,0.0668 0,0.0668 0,0.13363 0,0.20045 0,0.0111 0,0.0223 0,0.0334 0,0.006 0.00394,0.0128 0,0.0167 -0.00394,0.004 -0.014214,-0.005 -0.016705,0 -0.00747,0.0149 0,0.0334 0,0.0501 0,0.0334 0,0.0668 0,0.10022 0,0.0111 0.00787,0.0255 0,0.0334 -0.00787,0.008 -0.023448,-0.005 -0.033409,0 -0.00229,10e-4 0,0.0495 0,0.0668 0,0.0278 0,0.0557 0,0.0835 0,0.006 0.00394,0.0128 0,0.0167 -0.00394,0.004 -0.014214,-0.005 -0.016704,0 -0.00131,0.003 0,0.0788 0,0.0835 0,0.0501 0,0.10022 0,0.15034 0,0.006 0,0.0111 0,0.0167 0,0.0111 0.00787,0.0255 0,0.0334 -0.00787,0.008 -0.023448,-0.005 -0.033409,0 -0.00229,10e-4 0,0.0495 0,0.0668 0,0.0668 0,0.13363 0,0.20045 0,0.005 0.00131,0.0809 0,0.0835 -0.00249,0.005 -0.014944,-0.005 -0.016704,0 -0.003806,0.0114 0,0.0977 0,0.11693 0,0.0779 0,0.15591 0,0.23386 0,0.0557 0,0.11136 0,0.16705 0,0.004 -0.002799,0.0918 0,0.10022 0.00394,0.0118 0.012767,0.0216 0.016704,0.0334 0.00176,0.005 0,0.0111 0,0.0167 0,0.009 -0.00255,0.0759 0,0.0835 0.00249,0.007 0.014214,0.009 0.016704,0.0167 0.00352,0.0106 0,0.0223 0,0.0334 0,0.006 -0.00498,0.0142 0,0.0167 0.00996,0.005 0.025534,-0.008 0.033409,0 0.00787,0.008 0,0.0223 0,0.0334 0,0.0167 -0.00528,0.0343 0,0.0501 0.00176,0.005 0.012767,-0.004 0.016704,0 0.00394,0.004 0,0.0111 0,0.0167 0,0.0111 0,0.0223 0,0.0334 0,0.006 0,0.0111 0,0.0167 0,0.0111 -0.00787,0.0255 0,0.0334 0.00787,0.008 0.023448,-0.005 0.033409,0 0.00498,0.002 0,0.0111 0,0.0167 0,0.0111 0,0.0223 0,0.0334 0,0.0668 -0.00557,-0.0278 0.016704,0.0167 0.00498,0.01 -0.00787,0.0255 0,0.0334 0.00787,0.008 0.023448,-0.005 0.033409,0 0.00661,0.003 -0.00831,0.0335 0,0.0501 0.00249,0.005 0.012767,-0.004 0.016704,0 0.00394,0.004 -0.00309,0.0121 0,0.0167 0.00874,0.0131 0.024673,0.0203 0.033409,0.0334 0.00309,0.005 -0.00394,0.0128 0,0.0167 0.00394,0.004 0.014214,-0.005 0.016705,0 0.00498,0.01 -0.00618,0.0241 0,0.0334 0.00691,0.0104 0.024605,0.008 0.033409,0.0167 0.0088,0.009 0.010299,0.0227 0.016704,0.0334 0.010329,0.0172 0.02443,0.0322 0.033409,0.0501 0.013282,0.0266 -0.03219,0.0175 0.016705,0.0501 0.00927,0.006 0.023448,-0.005 0.033409,0 0.00498,0.002 -0.00176,0.0114 0,0.0167 0.00394,0.0118 0.0079,0.0246 0.016704,0.0334 0.0088,0.009 0.024605,0.008 0.033409,0.0167 0.0088,0.009 0.00634,0.0265 0.016704,0.0334 0.00927,0.006 0.023448,-0.005 0.033409,0 0.00661,0.003 -0.00831,0.0335 0,0.0501 0.00249,0.005 0.011422,-0.002 0.016704,0 0.011812,0.004 0.024605,0.008 0.033409,0.0167 0.0088,0.009 0.0079,0.0246 0.016704,0.0334 0.0088,0.009 0.026502,0.006 0.033409,0.0167 0.00618,0.009 -0.00498,0.0234 0,0.0334 0.00249,0.005 0.012767,-0.004 0.016705,0 0.00394,0.004 -0.00309,0.0121 0,0.0167 -0.04122,0.0506 0.045437,0.0287 0.050113,0.0334 0.00394,0.004 -0.00498,0.0142 0,0.0167 0.00996,0.005 0.025534,-0.008 0.033409,0 0.00835,0.008 -0.00835,0.0418 0,0.0501 0.00394,0.004 0.014214,-0.005 0.016704,0 0.00498,0.01 -0.00787,0.0255 0,0.0334 0.00787,0.008 0.023448,-0.005 0.033409,0 0.00498,0.002 -0.00394,0.0128 0,0.0167 0.00394,0.004 0.014214,-0.005 0.016705,0 0.00498,0.01 -0.00787,0.0255 0,0.0334 0.00787,0.008 0.023448,-0.005 0.033409,0 0.00498,0.002 -0.00394,0.0128 0,0.0167 0.00394,0.004 0.014214,-0.005 0.016704,0 0.00498,0.01 -0.00787,0.0255 0,0.0334 0.00787,0.008 0.023448,-0.005 0.033409,0 0.00498,0.002 -0.00394,0.0128 0,0.0167 0.00394,0.004 0.012071,-0.003 0.016704,0 0.013104,0.009 0.022272,0.0223 0.033409,0.0334 0.00557,0.006 0.014214,0.009 0.016705,0.0167 0.00352,0.0106 -0.00787,0.0255 0,0.0334 0.00787,0.008 0.022844,-0.004 0.033409,0 0.00747,0.002 0.00923,0.0142 0.016704,0.0167 0.010565,0.004 0.025534,-0.008 0.033409,0 0.00835,0.008 -0.00835,0.0418 0,0.0501 0.00394,0.004 0.014214,-0.005 0.016704,0 0.00498,0.01 -0.00787,0.0255 0,0.0334 0.00835,0.008 0.041761,-0.008 0.050113,0 0.00394,0.004 -0.00498,0.0142 0,0.0167 0.00996,0.005 0.025534,-0.008 0.033409,0 0.00787,0.008 -0.00498,0.0234 0,0.0334 0.00249,0.005 0.012767,-0.004 0.016705,0 0.00394,0.004 0,0.0111 0,0.0167 0,0.0111 -0.00787,0.0255 0,0.0334 0.00835,0.008 0.041761,-0.008 0.050113,0 0.00394,0.004 -0.00309,0.0121 0,0.0167 0.00874,0.0131 0.022272,0.0223 0.033409,0.0334 0.00557,0.006 0.00923,0.0142 0.016704,0.0167 0.010565,0.004 0.024143,-0.006 0.033409,0 0.010359,0.007 0.0079,0.0246 0.016704,0.0334 0.0088,0.009 0.024605,0.008 0.033409,0.0167 0.0088,0.009 0.00634,0.0265 0.016704,0.0334 0.00927,0.006 0.023448,-0.005 0.033409,0 0.00498,0.002 -0.00176,0.0114 0,0.0167 0.00394,0.0118 0.00634,0.0265 0.016704,0.0334 0.00927,0.006 0.022272,0 0.033409,0 0.00557,0 0.012767,-0.004 0.016704,0 0.00394,0.004 0,0.0111 0,0.0167 0.011136,0.0111 0.020305,0.0247 0.033409,0.0334 0.00463,0.003 0.012767,-0.004 0.016704,0 0.00394,0.004 -0.00498,0.0142 0,0.0167 0.00996,0.005 0.025534,-0.008 0.033409,0 0.00787,0.008 -0.00498,0.0234 0,0.0334 0.00249,0.005 0.011422,-0.002 0.016705,0 0.011812,0.004 0.026502,0.006 0.033409,0.0167 0,0.0947 -0.011136,0.006 0.016704,0.0334 0.00394,0.004 -0.00498,0.0142 0,0.0167 0.016618,0.008 0.046809,-0.007 0.050113,0 0.00498,0.01 -0.00787,0.0255 0,0.0334 0.00787,0.008 0.023448,-0.005 0.033409,0 0.00498,0.002 -0.00394,0.0128 0,0.0167 0.00394,0.004 0.014214,-0.005 0.016704,0 0.00498,0.01 -0.00787,0.0255 0,0.0334 0.00787,0.008 0.023448,-0.005 0.033409,0 0.00498,0.002 -0.00394,0.0128 0,0.0167 0.00835,0.008 0.041761,-0.008 0.050113,0 0.00787,0.008 -0.00498,0.0234 0,0.0334 0.00249,0.005 0.012766,-0.004 0.016703,0 0.00394,0.004 -0.00309,0.0121 0,0.0167 0.00874,0.0131 0.024672,0.0203 0.033409,0.0334 0.00309,0.005 -0.00394,0.0128 0,0.0167 0.00394,0.004 0.014213,-0.005 0.016703,0 0.00498,0.01 -0.00787,0.0255 0,0.0334 0.00835,0.008 0.041761,-0.008 0.050113,0 0.00835,0.008 -0.00835,0.0418 0,0.0501 0.00787,0.008 0.023447,-0.005 0.033409,0 0.00498,0.002 -0.00394,0.0128 0,0.0167 0.00394,0.004 0.014213,-0.005 0.016703,0 0.00498,0.01 -0.00787,0.0255 0,0.0334 0.00787,0.008 0.023447,-0.005 0.033409,0 0.00498,0.002 0,0.0111 0,0.0167 0,0.0947 -0.011136,0.006 0.016703,0.0334 0.00394,0.004 -0.00498,0.0142 0,0.0167 0.00996,0.005 0.025535,-0.008 0.033409,0 0,0.0947 -0.011136,0.006 0.016703,0.0334 0.00394,0.004 0,0.0111 0,0.0167 0,0.0111 -0.00787,0.0255 0,0.0334 0.00787,0.008 0.023447,-0.005 0.033409,0 0.00498,0.002 -0.00394,0.0128 0,0.0167 0.00394,0.004 0.014213,-0.005 0.016703,0 0.00831,0.0166 -0.00661,0.0468 0,0.0501 0.00996,0.005 0.025535,-0.008 0.033409,0 0.00787,0.008 -0.00498,0.0234 0,0.0334 0.00249,0.005 0.012766,-0.004 0.016703,0 0.00394,0.004 -0.00309,0.0121 0,0.0167 0.00874,0.0131 0.024672,0.0203 0.033409,0.0334 0.00309,0.005 -0.00394,0.0128 0,0.0167 0.00394,0.004 0.014213,-0.005 0.016703,0 0.00498,0.01 -0.00787,0.0255 0,0.0334 0.00787,0.008 0.023447,-0.005 0.033409,0 0.00661,0.003 -0.00831,0.0335 0,0.0501 0.00249,0.005 0.012766,-0.004 0.016703,0 0.00835,0.008 -0.00835,0.0418 0,0.0501 0.00787,0.008 0.023447,-0.005 0.033409,0 0.00498,0.002 -0.00394,0.0128 0,0.0167 0.027841,0.0278 0.016706,-0.0613 0.016706,0.0334 0,0.006 -0.00498,0.0142 0,0.0167 0.00996,0.005 0.025535,-0.008 0.033409,0 0.00835,0.008 -0.00835,0.0418 0,0.0501 0.00394,0.004 0.014213,-0.005 0.016703,0 0.00386,0.008 -0.00415,0.0794 0,0.0835 0.00787,0.008 0.023447,-0.005 0.033409,0 0.0013,6.3e-4 -0.00388,0.0629 0,0.0668 0.00394,0.004 0.014213,-0.005 0.016703,0 0.00498,0.01 -0.00787,0.0255 0,0.0334 0.00787,0.008 0.023447,-0.005 0.033409,0 0.0013,6.4e-4 -0.00388,0.0629 0,0.0668 0.00394,0.004 0.014213,-0.005 0.016703,0 0.00386,0.008 -0.00415,0.0794 0,0.0835 0.00787,0.008 0.023447,-0.005 0.033409,0 0.00661,0.003 -0.00831,0.0335 0,0.0501 0.00249,0.005 0.012766,-0.004 0.016703,0 0.00388,0.004 -0.0013,0.0662 0,0.0668 0.00996,0.005 0.025535,-0.008 0.033409,0 0.00835,0.008 -0.00835,0.0418 0,0.0501 0.00394,0.004 0.014213,-0.005 0.016706,0 0.00831,0.0166 -0.00661,0.0468 0,0.0501 0.00996,0.005 0.025535,-0.008 0.033409,0 0.00359,0.004 0,0.0781 0,0.0835 0,0.006 -0.00394,0.0128 0,0.0167 0.00394,0.004 0.014213,-0.005 0.016703,0 0.0013,0.003 0,0.0789 0,0.0835 0,0.006 -0.00498,0.0142 0,0.0167 0.00996,0.005 0.025535,-0.008 0.033409,0 0.00415,0.004 -0.00386,0.0758 0,0.0835 0.00249,0.005 0.014944,-0.005 0.016703,0 0.00528,0.0159 0,0.0334 0,0.0501 0,0.006 -0.00309,0.0121 0,0.0167 0.00874,0.0131 0.024672,0.0203 0.033409,0.0334 0.00309,0.005 0,0.0111 0,0.0167 0,0.0111 -0.00352,0.0229 0,0.0334 0.00249,0.007 0.014213,0.009 0.016703,0.0167 0.00254,0.008 0,0.0742 0,0.0835 0,0.006 -0.00498,0.0142 0,0.0167 0.00996,0.005 0.025535,-0.008 0.033409,0 0.00835,0.008 -0.00835,0.0418 0,0.0501 0.02784,0.0278 0.016703,-0.0612 0.016703,0.0334"
       id="path3723"
       inkscape:connector-curvature="0" />
    <path
       style="fill:#00ffff;stroke:#000000;stroke-width:0.26458332px;stroke-linecap:butt;stroke-linejoin:miter;stroke-opacity:1"
       d="m 10.356676,286.00884 c -0.10022,-0.0725 -0.196131,-0.15135 -0.30066,-0.21748 -0.0067,-0.004 -0.0092,0.0142 -0.01671,0.0167 -0.01056,0.004 -0.02227,0 -0.03341,0 -0.016704,0 -0.033409,0 -0.050114,0 -0.00557,0 -0.01207,-0.003 -0.016703,0 -0.013105,0.009 -0.020304,0.0247 -0.033409,0.0334 -0.00775,0.005 -0.089494,-0.005 -0.1002261,0 -0.00498,0.002 0.00394,0.0128 0,0.0167 -0.00486,0.005 -0.058649,-0.005 -0.066818,0 -0.013105,0.009 -0.020304,0.0247 -0.033409,0.0334 -0.00463,0.003 -0.011136,0 -0.016703,0 -0.011136,0 -0.022844,-0.004 -0.033409,0 -0.00747,0.002 -0.00923,0.0142 -0.016703,0.0167 -0.00977,0.003 -0.085888,0 -0.100226,0 -0.011136,0 -0.025535,-0.008 -0.033409,0 -0.00787,0.008 0.00498,0.0234 0,0.0334 -0.00249,0.005 -0.011136,0 -0.016703,0 -0.011136,0 -0.023447,-0.005 -0.033409,0 -0.044545,0.0223 0.050113,0.0167 -0.016703,0.0167 -0.011136,0 -0.022273,0 -0.033409,0 -0.00557,0 -0.014214,-0.005 -0.016703,0 -0.00498,0.01 0.00787,0.0255 0,0.0334 -0.00835,0.008 -0.041761,-0.008 -0.050113,0 -0.00445,0.004 0.00445,0.0457 0,0.0501 -0.00787,0.008 -0.023447,-0.005 -0.033409,0 -0.0023,0.001 0,0.0495 0,0.0668 0,0.0111 0,0.0223 0,0.0334 0,0.006 0.00394,0.0128 0,0.0167 -0.00394,0.004 -0.014213,-0.005 -0.016706,0 -0.00747,0.0149 0,0.0334 0,0.0501 0,0.0445 0,0.0891 0,0.13363 0,0.0557 0,0.11137 0,0.16705 0,0.0111 -0.00787,0.0255 0,0.0334 0.00787,0.008 0.023447,-0.005 0.033409,0 0.00498,0.002 -0.00177,0.0114 0,0.0167 0.00394,0.0118 0.00634,0.0265 0.016706,0.0334 0.00927,0.006 0.022844,-0.004 0.033409,0 0.043788,0.0146 -0.010462,0.023 0.016703,0.0501 0.00787,0.008 0.022844,-0.004 0.033409,0 0.00747,0.002 0.00923,0.0142 0.016703,0.0167 0.010565,0.004 0.022273,0 0.033409,0 0.00557,0 0.014213,-0.005 0.016703,0 0.00498,0.01 -0.00787,0.0255 0,0.0334 0.00787,0.008 0.023447,-0.005 0.033409,0 0.00498,0.002 -0.00394,0.0128 0,0.0167 0.00394,0.004 0.011136,0 0.016703,0 0,0.0111 -0.00787,0.0255 0,0.0334 0.00787,0.008 0.023447,-0.005 0.033409,0 0.00498,0.002 -0.00394,0.0128 0,0.0167 0.00394,0.004 0.011136,0 0.016706,0 0.033409,0 0.066817,0 0.1002261,0 0.050113,0 0.100226,0 0.1503391,0 0.011136,0 0.025535,0.008 0.033409,0 0.00787,-0.008 -0.00498,-0.0234 0,-0.0334 0.0033,-0.007 0.033495,0.008 0.050113,0 0.00498,-0.002 -0.00394,-0.0128 0,-0.0167 0.00394,-0.004 0.011136,0 0.016703,0 0.016703,0 0.036214,0.009 0.050113,0 0.00927,-0.006 -0.00787,-0.0255 0,-0.0334 0.00787,-0.008 0.022272,0 0.033409,0 0.0167,0 0.03517,0.007 0.05011,0 0.005,-0.002 -0.0039,-0.0128 0,-0.0167 0.0084,-0.008 0.04176,0.008 0.05011,0 0.0079,-0.008 -0.005,-0.0234 0,-0.0334 0.0033,-0.007 0.0335,0.008 0.05011,0 0.005,-0.002 -0.0039,-0.0128 0,-0.0167 0.0039,-0.004 0.01421,0.005 0.0167,0 0.005,-0.01 -0.0079,-0.0255 0,-0.0334 0.0079,-0.008 0.02284,0.004 0.03341,0 0.0075,-0.002 0.0092,-0.0142 0.0167,-0.0167 0.01056,-0.004 0.02414,0.006 0.03341,0 0.01036,-0.007 0.01277,-0.0216 0.0167,-0.0334 0.0018,-0.005 -0.005,-0.0142 0,-0.0167 0.01,-0.005 0.02553,0.008 0.03341,0 0.02717,-0.0272 -0.02708,-0.0355 0.01671,-0.0501 0.01057,-0.004 0.02554,0.008 0.03341,0 0.0079,-0.008 -0.0035,-0.0229 0,-0.0334 0.0025,-0.007 0.01421,-0.009 0.0167,-0.0167 0.0035,-0.0106 0,-0.0223 0,-0.0334 0,-0.006 -0.005,-0.0142 0,-0.0167 0.01,-0.005 0.02553,0.008 0.03341,0 0.0041,-0.004 -0.0039,-0.0758 0,-0.0835 0.0025,-0.005 0.01277,0.004 0.0167,0 0.0021,-0.002 0,-0.0563 0,-0.0668 0,-0.005 0.0036,-0.0799 0,-0.0835 -0.0079,-0.008 -0.02345,0.005 -0.03341,0 -0.005,-0.002 0.0039,-0.0128 0,-0.0167 -0.0039,-0.004 -0.01421,0.005 -0.0167,0 -0.005,-0.01 0.0079,-0.0255 0,-0.0334 -0.0079,-0.008 -0.02841,0.01 -0.03341,0 -0.01,-0.0198 0.01566,-0.0508 -1.8e-5,-0.0665 -0.02492,-0.0249 -0.06635,-0.024 -0.100208,-0.0337 -0.0053,-0.002 -0.01277,0.004 -0.0167,0 -0.0039,-0.004 0.005,-0.0142 0,-0.0167 -0.01,-0.005 -0.02553,0.008 -0.03341,0 -0.0079,-0.008 0.005,-0.0234 0,-0.0334 -0.0025,-0.005 -0.01277,0.004 -0.0167,0 -0.0039,-0.004 0.005,-0.0142 0,-0.0167 -0.01,-0.005 -0.02553,0.008 -0.03341,0 -0.0079,-0.008 0.005,-0.0235 0,-0.0334 -0.0025,-0.005 -0.01277,0.004 -0.0167,0 -0.0039,-0.004 0.005,-0.0142 0,-0.0167 -0.01,-0.005 -0.04256,-0.006 -0.03341,0 0.08007,0.0556 0.167031,0.10044 0.250547,0.15066"
       id="path3725"
       inkscape:connector-curvature="0" />
    <path
       style="fill:#ff00ff;stroke:#000000;stroke-width:0.26458332px;stroke-linecap:butt;stroke-linejoin:miter;stroke-opacity:1"
       d="m 6.8153729,284.97285 c 0.00854,0.10083 -0.063446,-0.003 -0.083522,0.0167 -0.00394,0.004 0.00498,0.0142 0,0.0167 -0.00996,0.005 -0.025535,-0.008 -0.033409,0 -0.027165,0.0272 0.027083,0.0355 -0.016703,0.0501 -0.010565,0.004 -0.024143,-0.006 -0.033409,0 -0.024395,0.0163 -0.016706,0.0763 -0.016706,0.10023 0,0.0111 0.00787,0.0255 0,0.0334 -0.00787,0.008 -0.023447,-0.005 -0.033409,0 -0.00498,0.002 0,0.0111 0,0.0167 0,0.005 0.0013,0.0809 0,0.0835 -0.00249,0.005 -0.012766,-0.004 -0.016706,0 -0.00388,0.004 0.0013,0.0662 0,0.0668 -0.00996,0.005 -0.025535,-0.008 -0.033409,0 -0.00471,0.005 0.0038,0.0888 0,0.10023 -0.00394,0.0118 -0.012766,0.0216 -0.016703,0.0334 -0.00368,0.0111 0,0.0838 0,0.10023 0,0.0557 0,0.11136 0,0.16704 0,0.0334 0,0.0668 0,0.10023 0,0.0111 -0.00618,0.0241 0,0.0334 0.00691,0.0104 0.026502,0.006 0.033409,0.0167 0.00618,0.009 0,0.0223 0,0.0334 0,0.0668 -0.00557,-0.0278 0.016703,0.0167 0.00498,0.01 -0.00618,0.0241 0,0.0334 0.022691,0.034 0.070858,0.004 0.083522,0.0167 0.00787,0.008 -0.00498,0.0235 0,0.0334 0.00249,0.005 0.011136,0 0.016703,0 0.044545,0 0.08909,0 0.1336347,0 0.1670433,0 0.334087,0 0.5011303,0 0.010475,0 0.064754,0.002 0.066817,0 0.02784,-0.0278 -0.061249,-0.0167 0.033409,-0.0167 0.014338,0 0.090453,0.003 0.100226,0 0.00747,-0.002 0.00923,-0.0142 0.016703,-0.0167 0.010565,-0.004 0.022273,0 0.033409,0 0.00557,0 0.014213,0.005 0.016703,0 0.00498,-0.01 -0.00787,-0.0255 0,-0.0334 0.00692,-0.0236 0.038301,0.0118 0.050113,0 0.00394,-0.004 0,-0.0111 0,-0.0167 0.011136,0 0.025535,0.008 0.033409,0 0.00787,-0.008 0,-0.0223 0,-0.0334 0,-0.0334 0,-0.0668 0,-0.10023 0,-0.0557 0,-0.11136 0,-0.16704 0,-0.0111 0,-0.0223 0,-0.0334 0,-0.006 0.00394,-0.0128 0,-0.0167 -0.00394,-0.004 -0.014213,0.005 -0.016703,0 -0.014152,-0.0283 0.018804,-0.048 -0.016706,-0.0835 -0.0088,-0.009 -0.026502,-0.006 -0.033409,-0.0167 -0.00618,-0.009 0.00352,-0.0228 0,-0.0334 -0.00249,-0.007 -0.011136,-0.0111 -0.016703,-0.0167 0,-0.0167 0,-0.0334 0,-0.0501 0,-0.0111 0.00787,-0.0255 0,-0.0334 -0.00787,-0.008 -0.023447,0.005 -0.033409,0 -0.00661,-0.003 0.00831,-0.0335 0,-0.0501 -0.00249,-0.005 -0.012766,0.004 -0.016703,0 -0.00394,-0.004 0,-0.0111 0,-0.0167 -0.011136,0 -0.025535,0.008 -0.033409,0 -0.00415,-0.004 0.00386,-0.0758 0,-0.0835 -0.00249,-0.005 -0.012766,0.004 -0.016703,0 -0.00486,-0.005 0.00545,-0.0587 0,-0.0668 0.014293,-0.0775 -0.035917,-0.0192 -0.050113,-0.0334 -0.00394,-0.004 0,-0.0111 0,-0.0167 0,-0.0111 0.00787,-0.0255 0,-0.0334 -0.00787,-0.008 -0.022273,0 -0.033409,0 -0.066817,0 0.02784,0.006 -0.016706,-0.0167 -0.013367,-0.007 -0.072448,0.007 -0.083522,0 -0.010358,-0.007 -0.00634,-0.0265 -0.016703,-0.0334 -0.011075,-0.007 -0.070155,0.007 -0.083522,0 -0.00498,-0.002 0.00394,-0.0128 0,-0.0167 -0.00206,-0.002 -0.056342,0 -0.066817,0 -0.02784,0 -0.055681,0 -0.083522,0 -0.00557,0 -0.014213,0.005 -0.016703,0 -0.00498,-0.01 0.00787,-0.0255 0,-0.0334 -0.00787,-0.008 -0.022273,0 -0.033409,0 -0.061249,0 -0.1224986,0 -0.1837478,0 z"
       id="path3727"
       inkscape:connector-curvature="0" />
    <path
       style="fill:#0000ff;stroke:#000000;stroke-width:0.26458332px;stroke-linecap:butt;stroke-linejoin:miter;stroke-opacity:1"
       d="m 5.4122079,284.82251 c 0.036663,-0.16824 -0.060564,-0.0272 -0.083522,-0.0501 -0.02784,-0.0278 0.061249,-0.0167 -0.033409,-0.0167 -0.016703,0 -0.036214,0.009 -0.050113,0 -0.00927,-0.006 0.00498,-0.0234 0,-0.0334 -0.00249,-0.005 -0.011136,0 -0.016703,0 -0.016703,0 -0.034266,0.005 -0.050113,0 -0.00528,-0.002 0.00498,-0.0142 0,-0.0167 -0.00523,-0.003 -0.089875,0 -0.1002263,0 -0.011136,0 -0.025535,0.008 -0.033409,0 -0.00787,-0.008 0.00498,-0.0234 0,-0.0334 -0.00249,-0.005 -0.011136,0 -0.016703,0 -0.011136,0 -0.022273,0 -0.033409,0 -0.016703,0 -0.035172,-0.007 -0.050113,0 -0.00498,0.002 0.00394,0.0128 0,0.0167 -0.00394,0.004 -0.011136,0 -0.016703,0 -0.00467,0 -0.080908,-0.001 -0.083522,0 -0.00498,0.002 0.00394,0.0128 0,0.0167 -0.00445,0.004 -0.04566,-0.004 -0.050113,0 -0.00787,0.008 0.00498,0.0235 0,0.0334 -0.0033,0.007 -0.033495,-0.008 -0.050113,0 -0.00498,0.002 0.00177,0.0114 0,0.0167 -0.00394,0.0118 -0.00634,0.0265 -0.016703,0.0334 -0.00927,0.006 -0.023447,-0.005 -0.033409,0 -0.00498,0.002 0.00177,0.0114 0,0.0167 -0.00394,0.0118 -0.0079,0.0246 -0.016703,0.0334 -0.0088,0.009 -0.026503,0.006 -0.033409,0.0167 -0.00618,0.009 0.00352,0.0228 0,0.0334 -0.00249,0.007 -0.014213,0.009 -0.016703,0.0167 -0.00352,0.0106 0.00618,0.0241 0,0.0334 -0.00691,0.0104 -0.026502,0.006 -0.033409,0.0167 -0.00618,0.009 0.00352,0.0228 0,0.0334 -0.00249,0.007 -0.014213,0.009 -0.016703,0.0167 -0.00352,0.0106 0.00618,0.0241 0,0.0334 -0.00691,0.0104 -0.026502,0.006 -0.033409,0.0167 -0.011136,0.0167 0.00557,0.0334 0,0.0501 -0.012502,0.0375 -0.031052,0.0454 -0.050113,0.0835 -0.00787,0.0158 -0.012433,0.033 -0.016703,0.0501 -0.00135,0.005 0.00309,0.0121 0,0.0167 -0.00874,0.0131 -0.024672,0.0203 -0.033409,0.0334 -0.00309,0.005 0.00177,0.0114 0,0.0167 -0.00394,0.0118 -0.012766,0.0216 -0.016703,0.0334 -0.00557,0.0167 0.011136,0.0334 0,0.0501 -0.00691,0.0104 -0.026503,0.006 -0.033409,0.0167 -0.00618,0.009 0.0022,0.0225 0,0.0334 -0.00345,0.0173 -0.012433,0.033 -0.016703,0.0501 -0.00353,0.0141 0,0.0495 0,0.0668 0,0.0111 0,0.0223 0,0.0334 0,0.006 0.00498,0.0142 0,0.0167 -0.00996,0.005 -0.025535,-0.008 -0.033409,0 -0.00161,0.002 -0.00116,0.0812 0,0.0835 0.00249,0.005 0.011724,-0.002 0.016703,0 0.00704,0.004 0.00923,0.0142 0.016703,0.0167 0.010565,0.004 0.022273,0 0.033409,0 0.016703,0 0.033409,0 0.050113,0 0.039055,0 -0.00591,-0.004 0.050113,0.0334 0.00463,0.003 0.011136,0 0.016706,0 0.016703,0 0.033409,0 0.050113,0 0.094658,0 0.1893159,0 0.2839738,0 0.01792,0 0.1058889,0.004 0.1169305,0 0.011811,-0.004 0.021598,-0.0128 0.033409,-0.0167 0.025056,-0.008 0.016706,0.0167 0.050113,0 0.00498,-0.002 -0.00394,-0.0128 0,-0.0167 0.00394,-0.004 0.01207,0.003 0.016703,0 0.013105,-0.009 0.020304,-0.0247 0.033409,-0.0334 0.00691,-0.005 0.054749,0.004 0.066818,0 0.011811,-0.004 0.021598,-0.0128 0.033409,-0.0167 0.012528,-0.004 0.041761,0.008 0.050113,0 0.00787,-0.008 -0.00498,-0.0234 0,-0.0334 0.00114,-0.002 0.049463,0 0.066817,0 0.094658,0 0.00557,0.0111 0.033409,-0.0167 0.00394,-0.004 0.012073,0.003 0.016703,0 0.013105,-0.009 0.020304,-0.0247 0.033409,-0.0334 0.00817,-0.005 0.061956,0.005 0.066817,0 0.00394,-0.004 -0.00498,-0.0142 0,-0.0167 0.00996,-0.005 0.025535,0.008 0.033409,0 0.00787,-0.008 -0.00498,-0.0235 0,-0.0334 0.0033,-0.007 0.033495,0.008 0.050113,0 0.00498,-0.002 -0.00177,-0.0114 0,-0.0167 0.00394,-0.0118 0.012766,-0.0216 0.016703,-0.0334 0.00177,-0.005 -0.00498,-0.0142 0,-0.0167 0.00996,-0.005 0.025535,0.008 0.033409,0 0.00359,-0.004 0,-0.0781 0,-0.0835 0,-0.006 -0.00394,-0.0128 0,-0.0167 0.00394,-0.004 0.014213,0.005 0.016703,0 0.0013,-0.003 0,-0.0788 0,-0.0835 0,-0.0501 0,-0.10023 0,-0.15034 0,-0.0174 0.00228,-0.0657 0,-0.0668 -0.00996,-0.005 -0.025535,0.008 -0.033409,0 -0.00787,-0.008 0.00498,-0.0235 0,-0.0334 -0.00249,-0.005 -0.012766,0.004 -0.016703,0 -0.00835,-0.008 0.00835,-0.0418 0,-0.0501 -0.00787,-0.008 -0.023447,0.005 -0.033409,0 -0.00498,-0.002 0.00394,-0.0128 0,-0.0167 -0.00394,-0.004 -0.011136,0 -0.016703,0 -0.02784,0 -0.055681,0 -0.083522,0 -0.00557,0 -0.011136,0 -0.016703,0 -0.011136,0 -0.025535,0.008 -0.033409,0 -0.00787,-0.008 0.00498,-0.0234 0,-0.0334 -0.00249,-0.005 -0.011136,0 -0.016706,0 -0.02784,0 -0.055681,0 -0.083522,0 -0.00557,0 -0.012766,0.004 -0.016703,0 -0.00394,-0.004 0.00498,-0.0142 0,-0.0167 -0.016619,-0.008 -0.046809,0.007 -0.050113,0 -0.022273,-0.0445 0.033409,-0.0334 -0.033409,-0.0334"
       id="path3729"
       inkscape:connector-curvature="0" />
    <path
       style="fill:#ff0000;stroke:#000000;stroke-width:0.26458332px;stroke-linecap:butt;stroke-linejoin:miter;stroke-opacity:1"
       d="m 4.1259733,284.4049 c 0.017203,-0.17379 -0.069147,-0.0294 -0.100226,-0.0501 -0.013105,-0.009 -0.020304,-0.0247 -0.033409,-0.0334 -0.00463,-0.003 -0.011422,0.002 -0.016706,0 -0.011811,-0.004 -0.021598,-0.0128 -0.033409,-0.0167 -0.011049,-0.004 -0.083816,0 -0.100226,0 -0.017354,0 -0.065673,0.002 -0.066817,0 -0.00498,-0.01 0.00787,-0.0255 0,-0.0334 -0.00787,-0.008 -0.022273,0 -0.033409,0 -0.066817,0 -0.1336349,0 -0.2004523,0 -0.050113,0 -0.100226,0 -0.1503391,0 -0.00557,0 -0.012766,-0.004 -0.016703,0 -0.00394,0.004 0.00498,0.0142 0,0.0167 -0.00996,0.005 -0.023447,-0.005 -0.033409,0 -0.00498,0.002 0.00394,0.0128 0,0.0167 -0.00835,0.008 -0.041761,-0.008 -0.050113,0 -0.00787,0.008 0.00352,0.0228 0,0.0334 -0.014594,0.0438 -0.022947,-0.0105 -0.050113,0.0167 -0.00787,0.008 0.00498,0.0235 0,0.0334 -0.00249,0.005 -0.012766,-0.004 -0.016706,0 -0.00394,0.004 0.00498,0.0142 0,0.0167 -0.00996,0.005 -0.025535,-0.008 -0.033409,0 -0.00787,0.008 0.00498,0.0235 0,0.0334 -0.00249,0.005 -0.011422,-0.002 -0.016703,0 -0.011811,0.004 -0.026502,0.006 -0.033409,0.0167 -0.00618,0.009 0.00498,0.0234 0,0.0334 -0.00249,0.005 -0.012766,-0.004 -0.016703,0 -0.00394,0.004 0,0.0111 0,0.0167 -0.011136,0 -0.024143,-0.006 -0.033409,0 -0.010358,0.007 -0.012766,0.0216 -0.016703,0.0334 -0.00177,0.005 0.00498,0.0142 0,0.0167 -0.00996,0.005 -0.024143,-0.006 -0.033409,0 -0.010358,0.007 -0.012766,0.0216 -0.016703,0.0334 -0.00177,0.005 0.00498,0.0142 0,0.0167 -0.00996,0.005 -0.025535,-0.008 -0.033409,0 -0.00787,0.008 0.00498,0.0235 0,0.0334 -0.00249,0.005 -0.012766,-0.004 -0.016703,0 -0.00394,0.004 0,0.0111 0,0.0167 0,0.0111 0.00787,0.0255 0,0.0334 -0.00787,0.008 -0.023447,-0.005 -0.033409,0 -0.00498,0.002 0.00394,0.0128 0,0.0167 -0.00394,0.004 -0.014213,-0.005 -0.016703,0 -0.00831,0.0166 0.00661,0.0468 0,0.0501 -0.00996,0.005 -0.025535,-0.008 -0.033409,0 -0.00415,0.004 0.00386,0.0758 0,0.0835 -0.00249,0.005 -0.012766,-0.004 -0.016703,0 -0.00394,0.004 0,0.0111 0,0.0167 0,0.0334 0,0.0668 0,0.10023 0,0.0445 0,0.0891 0,0.13363 0,0.006 -0.00498,0.0142 0,0.0167 0.00996,0.005 0.025535,-0.008 0.033409,0 0.00787,0.008 -0.00498,0.0234 0,0.0334 0.00249,0.005 0.014944,-0.005 0.016703,0 0.00528,0.0159 0,0.0334 0,0.0501 0,0.006 -0.00498,0.0142 0,0.0167 0.00996,0.005 0.025535,-0.008 0.033409,0 0.00835,0.008 -0.00835,0.0418 0,0.0501 0.00394,0.004 0.014213,-0.005 0.016703,0 0.00831,0.0166 -0.00661,0.0468 0,0.0501 0.00996,0.005 0.025535,-0.008 0.033409,0 0.00787,0.008 -0.00352,0.0228 0,0.0334 0.00249,0.007 0.014213,0.009 0.016703,0.0167 0.00352,0.0106 0,0.0223 0,0.0334 0,0.006 -0.00498,0.0142 0,0.0167 0.00996,0.005 0.025535,-0.008 0.033409,0 0.0043,0.004 -0.0043,0.0458 0,0.0501 0.00394,0.004 0.014213,-0.005 0.016703,0 0.00831,0.0166 -0.00661,0.0468 0,0.0501 0.071272,0.0356 0.00668,-0.0468 0.033409,0.0334 0.00249,0.007 0.011136,0.0111 0.016703,0.0167 0.011136,0.0111 0.024672,0.0203 0.033409,0.0334 0.00309,0.005 -0.00394,0.0128 0,0.0167 0.00394,0.004 0.011136,0 0.016703,0 0.033409,0 0.066817,0 0.100226,0 0.011136,0 0.022273,0 0.033409,0 0.00557,0 0.014213,0.005 0.016703,0 0.00498,-0.01 -0.00787,-0.0255 0,-0.0334 0.00787,-0.008 0.023447,0.005 0.033409,0 0.00498,-0.002 -0.00394,-0.0128 0,-0.0167 0.00388,-0.004 0.066172,0.001 0.066818,0 0.00498,-0.01 -0.00787,-0.0255 0,-0.0334 0.00787,-0.008 0.023447,0.005 0.033409,0 0.00498,-0.002 -0.00394,-0.0128 0,-0.0167 0.00835,-0.008 0.041761,0.008 0.050113,0 0.00787,-0.008 -0.00498,-0.0235 0,-0.0334 0.00249,-0.005 0.012766,0.004 0.016703,0 0.00394,-0.004 0,-0.0111 0,-0.0167 0.011136,0 0.025535,0.008 0.033409,0 0.00787,-0.008 -0.00498,-0.0234 0,-0.0334 0.00249,-0.005 0.012766,0.004 0.016703,0 0.00394,-0.004 -0.00498,-0.0142 0,-0.0167 0.00996,-0.005 0.025535,0.008 0.033409,0 0.027165,-0.0272 -0.027083,-0.0355 0.016703,-0.0501 0.010565,-0.004 0.025535,0.008 0.033409,0 0.00835,-0.008 -0.00835,-0.0418 0,-0.0501 0.00394,-0.004 0.011136,0 0.016703,0 0,-0.0111 -0.00618,-0.0242 0,-0.0334 0.00691,-0.0104 0.021598,-0.0128 0.033409,-0.0167 0.00528,-0.002 0.014214,0.005 0.016703,0 0.00498,-0.01 -0.00787,-0.0255 0,-0.0334 0.00787,-0.008 0.023447,0.005 0.033409,0 0.00498,-0.002 -0.00135,-0.0113 0,-0.0167 0.00427,-0.0171 0.00425,-0.0377 0.016703,-0.0501 0.013047,-0.0131 0.0455,0.009 0.050113,0 0.00498,-0.01 -0.00787,-0.0255 0,-0.0334 0.00787,-0.008 0.023447,0.005 0.033409,0 0.00498,-0.002 -0.00394,-0.0128 0,-0.0167 0.00394,-0.004 0.014213,0.005 0.016703,0 0.00498,-0.01 -0.00787,-0.0255 0,-0.0334 0.00787,-0.008 0.023447,0.005 0.033409,0 0.00498,-0.002 -0.00394,-0.0128 0,-0.0167 0.00394,-0.004 0.014213,0.005 0.016703,0 0.00498,-0.01 -0.00787,-0.0255 0,-0.0334 0.00787,-0.008 0.023447,0.005 0.033409,0 0.00498,-0.002 -0.00394,-0.0128 0,-0.0167 0.00394,-0.004 0.014213,0.005 0.016703,0 0.00831,-0.0166 -0.00661,-0.0468 0,-0.0501 0.00996,-0.005 0.025535,0.008 0.033409,0 0.00787,-0.008 -0.00498,-0.0235 0,-0.0334 0.00249,-0.005 0.012766,0.004 0.016703,0 0.00394,-0.004 0,-0.0111 0,-0.0167 0,-0.0111 -0.00618,-0.0241 0,-0.0334 0.00691,-0.0104 0.024604,-0.008 0.033409,-0.0167 0.0088,-0.009 0.012766,-0.0216 0.016703,-0.0334 0.00177,-0.005 -0.00498,-0.0142 0,-0.0167 0.00996,-0.005 0.027231,0.009 0.033409,0 0.00927,-0.0139 -0.00328,-0.0337 0,-0.0501 0.00243,-0.0122 0.012766,-0.0216 0.016703,-0.0334 0.00177,-0.005 -0.00498,-0.0142 0,-0.0167 0.00996,-0.005 0.025535,0.008 0.033409,0 0.00435,-0.004 -0.00435,-0.0458 0,-0.0501 0.00394,-0.004 0.011136,0 0.016703,0 0,-0.0167 -0.00927,-0.0362 0,-0.0501 0.00618,-0.009 0.025535,0.008 0.033409,0 0.00787,-0.008 0,-0.0223 0,-0.0334 0,-0.006 0,-0.0111 0,-0.0167 0,-0.0111 -0.00498,-0.0234 0,-0.0334 0.022273,-0.0445 0.016703,0.0501 0.016703,-0.0167 0,-0.0111 0,-0.0223 0,-0.0334 0,-0.006 -0.00498,-0.0142 0,-0.0167 0.00996,-0.005 0.025535,0.008 0.033409,0 0.00787,-0.008 -0.00498,-0.0235 0,-0.0334 0.00249,-0.005 0.012766,0.004 0.016706,0 0.00486,-0.005 -0.00545,-0.0587 0,-0.0668 0.014986,-0.0225 0.048629,-0.0349 0.033409,-0.0501 -0.00787,-0.008 -0.028428,0.01 -0.033409,0 -0.00498,-0.01 0.00787,-0.0255 0,-0.0334 -0.00787,-0.008 -0.022273,0 -0.033409,0 -0.010351,0 -0.095,0.003 -0.1002263,0 -0.00498,-0.002 0.00394,-0.0128 0,-0.0167 -0.00394,-0.004 -0.011136,0 -0.016703,0 -0.011136,0 -0.022273,0 -0.033409,0 -0.00961,0 -0.095307,0.003 -0.100226,0 -0.010361,-0.007 -0.012766,-0.0216 -0.016706,-0.0334 -0.00177,-0.005 0.00498,-0.0142 0,-0.0167 -0.016618,-0.008 -0.046809,0.007 -0.050113,0 -0.00498,-0.01 0.00787,-0.0255 0,-0.0334 -0.00787,-0.008 -0.022273,0 -0.033409,0 -0.00557,0 -0.011136,0 -0.016703,0"
       id="path3733"
       inkscape:connector-curvature="0" />
    <path
       style="fill:#ffdd55;stroke:#000000;stroke-width:0.26458332px;stroke-linecap:butt;stroke-linejoin:miter;stroke-opacity:1"
       d="m 2.2216779,284.30468 c -0.050113,0 -0.1002261,0 -0.1503391,0 -0.011136,0 -0.023448,0.005 -0.033409,0 -0.00498,-0.002 0.00394,-0.0128 0,-0.0167 -0.00394,-0.004 -0.011136,0 -0.016704,0 -0.033409,0 -0.066817,0 -0.1002261,0 -0.01641,0 -0.089178,0.004 -0.1002261,0 -0.011812,-0.004 -0.021597,-0.0128 -0.033409,-0.0167 -0.00968,-0.003 -0.052342,0 -0.066817,0 -0.011136,0 -0.022272,0 -0.033409,0 -0.00557,0 -0.012071,-0.003 -0.016705,0 -0.013104,0.009 -0.020305,0.0247 -0.033409,0.0334 -0.00817,0.005 -0.061956,-0.005 -0.066817,0 -0.00394,0.004 0,0.0111 0,0.0167 -0.011136,0.0111 -0.020305,0.0247 -0.033409,0.0334 -0.00463,0.003 -0.011136,0 -0.016704,0 -0.011136,0 -0.023448,-0.005 -0.033409,0 -0.00661,0.003 0.00831,0.0335 0,0.0501 -0.0033,0.007 -0.033495,-0.008 -0.050113,0 -0.00498,0.002 0.00394,0.0128 0,0.0167 -0.00394,0.004 -0.014214,-0.005 -0.016704,0 -0.00498,0.01 0.00787,0.0255 0,0.0334 -0.00787,0.008 -0.023448,-0.005 -0.033409,0 -0.00498,0.002 0,0.0111 0,0.0167 0,0.0111 0,0.0223 0,0.0334 0,0.0668 -0.00557,-0.0278 0.016704,0.0167 0.00498,0.01 0,0.0223 0,0.0334 0,0.006 -0.00394,0.0128 0,0.0167 0.00394,0.004 0.014214,-0.005 0.016705,0 0.00498,0.01 -0.00787,0.0255 0,0.0334 0.00787,0.008 0.023448,-0.005 0.033409,0 0.00498,0.002 0,0.0111 0,0.0167 0,0.0111 -0.00352,0.0228 0,0.0334 0.00249,0.007 0.014214,0.009 0.016704,0.0167 0.00352,0.0106 -0.00787,0.0255 0,0.0334 0.00787,0.008 0.023448,-0.005 0.033409,0 0.00661,0.003 -0.00831,0.0335 0,0.0501 0.00249,0.005 0.012767,-0.004 0.016704,0 0.00394,0.004 -0.00309,0.0121 0,0.0167 0.00874,0.0131 0.024673,0.0203 0.033409,0.0334 0.00309,0.005 0,0.0111 0,0.0167 0,0.0111 -0.00498,0.0234 0,0.0334 0.00249,0.005 0.012767,-0.004 0.016704,0 0.00394,0.004 -0.00498,0.0142 0,0.0167 0.00996,0.005 0.025534,-0.008 0.033409,0 0.00787,0.008 -0.00352,0.0228 0,0.0334 0.00249,0.007 0.014214,0.009 0.016704,0.0167 0.00352,0.0106 -0.00787,0.0255 0,0.0334 0.00787,0.008 0.022844,-0.004 0.033409,0 0.00747,0.002 0.00923,0.0142 0.016704,0.0167 0.010565,0.004 0.025534,-0.008 0.033409,0 0.00787,0.008 -0.00498,0.0234 0,0.0334 0.0033,0.007 0.033495,-0.008 0.050113,0 0.00498,0.002 -0.00394,0.0128 0,0.0167 0.00394,0.004 0.014214,-0.005 0.016704,0 0.00498,0.01 -0.00787,0.0255 0,0.0334 0.00787,0.008 0.022844,-0.004 0.033409,0 0.00747,0.002 0.011136,0.0111 0.016705,0.0167 0.011136,0.0111 0.020305,0.0247 0.033409,0.0334 0.00775,0.005 0.089494,-0.005 0.1002261,0 0.00498,0.002 -0.00394,0.0128 0,0.0167 0.00206,0.002 0.056342,0 0.066817,0 0.1169304,0 0.2338608,0 0.3507912,0 0.011136,0 0.022272,0 0.033409,0 0.00557,0 0.014214,0.005 0.016704,0 0.00131,-0.003 0,-0.0788 0,-0.0835 0,-0.006 0.00498,-0.0142 0,-0.0167 -0.00996,-0.005 -0.025534,0.008 -0.033409,0 -0.00359,-0.004 0,-0.0781 0,-0.0835 0,-0.006 0.00394,-0.0128 0,-0.0167 -0.027841,-0.0278 -0.016704,0.0612 -0.016704,-0.0334 0,-0.006 0,-0.0111 0,-0.0167 0,-0.0111 0.00787,-0.0255 0,-0.0334 -0.00787,-0.008 -0.023448,0.005 -0.033409,0 -0.00498,-0.002 0.00176,-0.0114 0,-0.0167 -0.00394,-0.0118 -0.012767,-0.0216 -0.016704,-0.0334 -0.00557,-0.0167 0.011136,-0.0334 0,-0.0501 -0.00691,-0.0104 -0.026502,-0.006 -0.033409,-0.0167 0,-0.0947 0.011136,-0.006 -0.016705,-0.0334 -0.00394,-0.004 0,-0.0111 0,-0.0167 0,-0.0111 0.00787,-0.0255 0,-0.0334 -0.00787,-0.008 -0.023448,0.005 -0.033409,0 -0.00661,-0.003 0.00831,-0.0335 0,-0.0501 -0.00249,-0.005 -0.012767,0.004 -0.016704,0 -0.00835,-0.008 0.00835,-0.0418 0,-0.0501 -0.00787,-0.008 -0.023448,0.005 -0.033409,0 -0.00661,-0.003 0.00831,-0.0335 0,-0.0501 -0.00249,-0.005 -0.012767,0.004 -0.016704,0 -0.00394,-0.004 0,-0.0111 0,-0.0167 0,-0.003 6.403e-4,-0.0826 0,-0.0835 -0.00691,-0.0104 -0.026502,-0.006 -0.033409,-0.0167 -0.00618,-0.009 0.00498,-0.0234 0,-0.0334 -0.00249,-0.005 -0.012767,0.004 -0.016704,0 -0.00394,-0.004 0.00309,-0.0121 0,-0.0167 -0.00874,-0.0131 -0.024673,-0.0203 -0.033409,-0.0334 -0.012814,-0.0192 0.03787,-0.0501 -0.016704,-0.0501"
       id="path3735"
       inkscape:connector-curvature="0" />
    <path
       style="fill:#ff6600;stroke:#000000;stroke-width:0.26458332px;stroke-linecap:butt;stroke-linejoin:miter;stroke-opacity:1"
       d="m 5.5124339,287.17782 c 0,0.13364 0,0.26727 0,0.40091 0,0.0334 0,0.0668 0,0.10023 0,0.0111 -0.00498,0.0234 0,0.0334 0.00249,0.005 0.012766,-0.004 0.016703,0 0.00394,0.004 0,0.0111 0,0.0167 0,0.0501 0,0.10022 0,0.15034 0,0.0111 -0.00787,0.0255 0,0.0334 0.00787,0.008 0.023447,-0.005 0.033409,0 0.00498,0.002 0,0.0111 0,0.0167 0,0.0278 0,0.0557 0,0.0835 0,0.0167 -0.00747,0.0352 0,0.0501 0.00249,0.005 0.012766,-0.004 0.016703,0 0.00486,0.005 -0.00545,0.0587 0,0.0668 0.00874,0.0131 0.024672,0.0203 0.033409,0.0334 0.00238,0.004 0,0.056 0,0.0668 0,0.0111 -0.00498,0.0234 0,0.0334 0.022273,0.0446 0.016703,-0.0501 0.016703,0.0167 0,0.0111 -0.00787,0.0255 0,0.0334 0.00787,0.008 0.023447,-0.005 0.033409,0 0.0013,6.3e-4 -0.00388,0.0629 0,0.0668 0.00394,0.004 0.014213,-0.005 0.016703,0 0.00831,0.0166 -0.00661,0.0468 0,0.0501 0.00996,0.005 0.025535,-0.008 0.033409,0 0.038977,0.039 -0.030625,0.0334 0.016703,0.0334 0.066817,0 0.1336349,0 0.2004523,0 0.011136,0 0.022273,0 0.033409,0 0.00557,0 0.012766,0.004 0.016703,0 0.00394,-0.004 -0.00498,-0.0142 0,-0.0167 0.012441,-0.006 0.1211937,0.006 0.133635,0 0.00498,-0.002 -0.00394,-0.0128 0,-0.0167 0.00426,-0.004 0.045851,0.004 0.050113,0 0.00787,-0.008 -0.00498,-0.0235 0,-0.0334 0.00249,-0.005 0.012766,0.004 0.016703,0 0.00394,-0.004 -0.00309,-0.0121 0,-0.0167 0.00874,-0.0131 0.024672,-0.0203 0.033409,-0.0334 0.00309,-0.005 0,-0.0111 0,-0.0167 0,-0.0111 -0.00498,-0.0234 0,-0.0334 0.00249,-0.005 0.012766,0.004 0.016703,0 0.099984,0.0144 0.015801,-0.0492 0.033409,-0.0668 0.00394,-0.004 0.014213,0.005 0.016703,0 0.00498,-0.01 0,-0.0223 0,-0.0334 0,-0.006 -0.00309,-0.0121 0,-0.0167 0.00874,-0.0131 0.024672,-0.0203 0.033409,-0.0334 0.00309,-0.005 0,-0.0111 0,-0.0167 0,-0.0111 -0.00498,-0.0234 0,-0.0334 0.00249,-0.005 0.012766,0.004 0.016703,0 0.00835,-0.008 -0.00835,-0.0418 0,-0.0501 0.00787,-0.008 0.023447,0.005 0.033409,0 0.00498,-0.002 0,-0.0111 0,-0.0167 0,-0.0111 -0.00352,-0.0228 0,-0.0334 0.00249,-0.007 0.014213,-0.009 0.016703,-0.0167 0.00352,-0.0106 0,-0.0223 0,-0.0334 0,-0.006 -0.00309,-0.0121 0,-0.0167 0.00874,-0.0131 0.024672,-0.0203 0.033409,-0.0334 0.00545,-0.008 -0.00486,-0.062 0,-0.0668 0.033409,-0.0334 0.016703,0.1058 0.016703,-0.0501 0,-0.0278 0,-0.0557 0,-0.0835 0,-0.006 -0.00498,-0.0142 0,-0.0167 0.00996,-0.005 0.025535,0.008 0.033409,0 0.00787,-0.008 0,-0.0223 0,-0.0334 0,-0.0334 0,-0.0668 0,-0.10022 0,-0.006 0.00394,-0.0128 0,-0.0167 -0.00394,-0.004 -0.014213,0.005 -0.016703,0 -0.00622,-0.0124 0.00622,-0.12119 0,-0.13363 -0.022273,-0.0446 -0.016703,0.0501 -0.016703,-0.0167 0,-0.0111 0,-0.0223 0,-0.0334 0,-0.006 0.00498,-0.0142 0,-0.0167 -0.00996,-0.005 -0.025535,0.008 -0.033409,0 -0.00415,-0.004 0.00386,-0.0758 0,-0.0835 -0.00249,-0.005 -0.012766,0.004 -0.016706,0 -0.00394,-0.004 0,-0.0111 0,-0.0167 -0.011136,0 -0.025535,0.008 -0.033409,0 -0.00787,-0.008 0,-0.0223 0,-0.0334 0,-0.0167 0.00747,-0.0352 0,-0.0501 -0.00249,-0.005 -0.012766,0.004 -0.016706,0 -0.00835,-0.008 0.00835,-0.0418 0,-0.0501 -0.00787,-0.008 -0.023447,0.005 -0.033409,0 -0.00661,-0.003 0.00831,-0.0335 0,-0.0501 -0.00249,-0.005 -0.012766,0.004 -0.016703,0 -0.00394,-0.004 0,-0.0111 0,-0.0167 -0.011136,0 -0.025535,0.008 -0.033409,0 -0.00835,-0.008 0.00418,-0.0376 0,-0.0501 -0.00394,-0.0118 -0.012766,-0.0216 -0.016703,-0.0334 -0.00418,-0.0125 0.00835,-0.0418 0,-0.0501 -0.00787,-0.008 -0.023447,0.005 -0.033409,0 -0.00498,-0.002 0.00394,-0.0128 0,-0.0167 -0.00394,-0.004 -0.011136,0 -0.016703,0 -0.011136,0 -0.022273,0 -0.033409,0 -0.050113,0 -0.1002263,0 -0.1503392,0 -0.038977,0 -0.077954,0 -0.1169305,0 -0.011136,0 -0.022273,0 -0.033409,0 -0.00557,0 -0.011724,-0.002 -0.016703,0 -0.017957,0.009 -0.031473,0.026 -0.050113,0.0334 -0.01034,0.004 -0.023447,-0.005 -0.033409,0 -0.00498,0.002 0.00394,0.0128 0,0.0167 -0.00835,0.008 -0.041761,-0.008 -0.050113,0 -0.00787,0.008 0.00498,0.0234 0,0.0334 -0.00249,0.005 -0.011422,-0.002 -0.016703,0 -0.011811,0.004 -0.021598,0.0128 -0.033409,0.0167 -0.00528,0.002 -0.014213,-0.005 -0.016706,0 -0.00498,0.01 0.00787,0.0255 0,0.0334 -0.00415,0.004 -0.075799,-0.004 -0.083522,0 -0.00498,0.002 0.00177,0.0114 0,0.0167 -0.00394,0.0118 -0.00634,0.0265 -0.016703,0.0334 -0.00927,0.006 -0.022844,-0.004 -0.033409,0 -0.00747,0.002 -0.011136,0.0111 -0.016703,0.0167 -0.011136,0.0111 -0.024672,0.0203 -0.033409,0.0334 -0.00309,0.005 0.00394,0.0128 0,0.0167 -0.00394,0.004 -0.01207,-0.003 -0.016703,0 -0.013105,0.009 -0.022273,0.0223 -0.033409,0.0334 -0.00557,0.006 -0.014213,0.009 -0.016706,0.0167 -0.00352,0.0106 0.00787,0.0255 0,0.0334 -0.00787,0.008 -0.023447,-0.005 -0.033409,0 -0.00498,0.002 0.00394,0.0128 0,0.0167 -0.00394,0.004 -0.01207,-0.003 -0.016703,0 -0.013105,0.009 -0.022273,0.0223 -0.033409,0.0334 -0.00557,0.006 -0.014214,0.009 -0.016703,0.0167 -0.0019,0.006 0.00225,0.0813 0,0.0835 -0.00787,0.008 -0.023447,-0.005 -0.033409,0 -0.00661,0.003 0.00831,0.0335 0,0.0501 -0.00249,0.005 -0.012766,-0.004 -0.016703,0 -0.00394,0.004 0.00309,0.0121 0,0.0167 -0.00874,0.0131 -0.024672,0.0203 -0.033409,0.0334 -0.00309,0.005 0.00394,0.0128 0,0.0167 -0.00394,0.004 -0.014213,-0.005 -0.016703,0 -0.00386,0.008 0.00415,0.0794 0,0.0835 -0.00787,0.008 -0.023447,-0.005 -0.033409,0 -0.00498,0.002 0,0.0111 0,0.0167 0,0.005 -0.0013,0.0809 0,0.0835 0.00249,0.005 0.012766,-0.004 0.016703,0 0.00394,0.004 -0.00394,0.0128 0,0.0167 0.00394,0.004 0.014213,-0.005 0.016703,0 0.00498,0.01 -0.00787,0.0255 0,0.0334 0.00787,0.008 0.023447,-0.005 0.033409,0 0.00498,0.002 -0.00394,0.0128 0,0.0167 0.00394,0.004 0.011136,0 0.016703,0 0.02784,0 0.055681,0 0.083522,0 0.00557,0 0.014213,-0.005 0.016703,0 0.022273,0.0445 -0.033409,0.0334 0.033409,0.0334"
       id="path3737"
       inkscape:connector-curvature="0" />
    <path
       style="fill:#00ffff;stroke-width:0.06313454"
       d="m 17.070917,16.704844 c 0,-0.131951 0.02444,-0.266901 0.05432,-0.299889 0.02987,-0.03299 0.106906,-0.216236 0.171183,-0.407218 0.06428,-0.190982 0.167682,-0.422652 0.22979,-0.514822 0.06211,-0.09217 0.112922,-0.185689 0.112922,-0.20782 0,-0.132465 0.403262,-0.861363 0.586021,-1.059235 0.226509,-0.245241 0.374783,-0.283212 0.787155,-0.20158 0.168974,0.03345 0.205358,0.07 0.206154,0.207073 5.31e-4,0.09155 0.02184,0.195521 0.04735,0.231047 0.135312,0.188429 0.744822,0.460448 1.182806,0.527875 l 0.252538,0.03888 0.03673,0.410375 c 0.05678,0.63449 -0.01436,0.750053 -0.61102,0.992465 -0.274447,0.111503 -0.584226,0.220272 -0.688398,0.24171 -0.104172,0.02144 -0.322518,0.09344 -0.485213,0.160015 -0.237494,0.09718 -0.45219,0.121038 -1.08907,0.121038 h -0.793262 z"
       id="path3739"
       inkscape:connector-curvature="0"
       transform="matrix(0.26458333,0,0,0.26458333,0,281.12498)" />
    <path
       style="fill:#00ff00;stroke-width:0.06313454"
       d="m 36.579488,20.70126 c 0,-0.05952 -0.06005,-0.0947 -0.161627,-0.0947 -0.0889,0 -0.301974,-0.09188 -0.473509,-0.204175 l -0.311882,-0.204176 8.62e-4,-0.537655 c 4.75e-4,-0.29571 0.01803,-0.601733 0.03902,-0.68005 0.04059,-0.151469 0.498951,-0.394766 0.741541,-0.39361 0.07371,3.52e-4 0.30449,-0.05383 0.512834,-0.120409 0.208344,-0.06658 0.498151,-0.147774 0.644014,-0.180439 0.253384,-0.05674 0.273599,-0.04991 0.453442,0.153222 0.103529,0.116938 0.271274,0.247567 0.372767,0.290286 0.291886,0.122859 0.540122,0.456499 0.489552,0.657983 -0.06482,0.258281 -0.407113,0.696199 -0.609787,0.780149 -0.100099,0.04146 -0.181999,0.111516 -0.181999,0.155674 0,0.09124 -0.172826,0.174629 -0.255726,0.123394 -0.03021,-0.01867 -0.225711,0.05226 -0.434444,0.157631 -0.413239,0.208602 -0.825059,0.256958 -0.825059,0.09688 z"
       id="path3741"
       inkscape:connector-curvature="0"
       transform="matrix(0.26458333,0,0,0.26458333,0,281.12498)" />
    <text
       xml:space="preserve"
       style="font-style:normal;font-weight:normal;font-size:1.41111112px;line-height:1.25;font-family:sans-serif;letter-spacing:0px;word-spacing:0px;fill:#000000;fill-opacity:1;stroke:none;stroke-width:0.26458332"
       x="3.2573473"
       y="290.86951"
       id="text3745"><tspan
         sodipodi:role="line"
         id="tspan3743"
         x="3.2573473"
         y="290.86951"
         style="font-size:1.41111112px;stroke-width:0.26458332">Thanos</tspan></text>
  </g>
</svg>
