<?xml version="1.0" encoding="UTF-8" standalone="no"?>
<!-- Created with Inkscape (http://www.inkscape.org/) -->

<svg
   xmlns:dc="http://purl.org/dc/elements/1.1/"
   xmlns:cc="http://creativecommons.org/ns#"
   xmlns:rdf="http://www.w3.org/1999/02/22-rdf-syntax-ns#"
   xmlns:svg="http://www.w3.org/2000/svg"
   xmlns="http://www.w3.org/2000/svg"
   xmlns:sodipodi="http://sodipodi.sourceforge.net/DTD/sodipodi-0.dtd"
   xmlns:inkscape="http://www.inkscape.org/namespaces/inkscape"
   width="55px"
   height="60px"
   viewBox="0 0 210 297"
   version="1.1"
   id="svg8"
   inkscape:version="0.92.3 (2405546, 2018-03-11)"
   sodipodi:docname="Twitter.svg">
  <defs
     id="defs2" />
  <sodipodi:namedview
     id="base"
     pagecolor="#ffffff"
     bordercolor="#666666"
     borderopacity="1.0"
     inkscape:pageopacity="0.0"
     inkscape:pageshadow="2"
     inkscape:zoom="0.35"
     inkscape:cx="350"
     inkscape:cy="560"
     inkscape:document-units="px"
     inkscape:current-layer="layer1"
     showgrid="false"
     inkscape:window-width="1233"
     inkscape:window-height="648"
     inkscape:window-x="-8"
     inkscape:window-y="-8"
     inkscape:window-maximized="1"
     inkscape:pagecheckerboard="true" />
  <metadata
     id="metadata5">
    <rdf:RDF>
      <cc:Work
         rdf:about="">
        <dc:format>image/svg+xml</dc:format>
        <dc:type
           rdf:resource="http://purl.org/dc/dcmitype/StillImage" />
        <dc:title></dc:title>
      </cc:Work>
    </rdf:RDF>
  </metadata>
  <g
     inkscape:label="Layer 1"
     inkscape:groupmode="layer"
     id="layer1">
    <g
       id="g23"
       transform="matrix(0.99937492,0,0,1.2307929,43.877169,-46.456092)">
      <path
         style="fill:#cecece;stroke-width:0.0675518"
         d="m 54.460806,122.61109 c -0.969733,-0.15449 -2.32909,-0.67955 -3.04848,-1.17751 l -0.32338,-0.22384 0.730331,-10e-4 c 1.213891,-0.002 2.251656,-0.31858 3.187255,-0.97158 l 0.478054,-0.33366 -0.320389,-0.05 c -0.951124,-0.14842 -1.785902,-0.80591 -2.246758,-1.76961 -0.09705,-0.20295 -0.177089,-0.39161 -0.177859,-0.41926 -7.69e-4,-0.0276 0.267816,-0.0594 0.596854,-0.0706 0.404182,-0.0137 0.556291,-0.0399 0.468901,-0.0808 -0.584556,-0.2735 -0.873657,-0.47122 -1.202916,-0.82269 -0.493703,-0.527 -0.834345,-1.27755 -0.883593,-1.94686 l -0.03421,-0.46497 0.187236,0.10554 c 0.187383,0.10562 0.526295,0.21245 0.907762,0.28614 0.201063,0.0388 0.199671,0.0357 -0.137434,-0.31212 -0.930253,-0.95978 -1.197569,-2.56634 -0.628391,-3.77664 l 0.116542,-0.24782 0.339128,0.42535 c 0.868577,1.08941 2.315302,2.10103 3.67462,2.56947 0.560925,0.19331 1.533742,0.39924 1.887713,0.39961 l 0.216547,2.3e-4 -0.04304,-0.4057 c -0.05392,-0.50819 0.08471,-1.27201 0.324596,-1.78844 0.09636,-0.20744 0.35334,-0.57084 0.571064,-0.80756 0.596717,-0.64875 1.256934,-0.94505 2.109776,-0.94685 0.71036,-0.001 1.224257,0.19658 1.866749,0.71952 l 0.346865,0.28232 0.417856,-0.12339 c 0.229821,-0.0679 0.650463,-0.24611 0.934761,-0.39609 0.487935,-0.25741 0.514388,-0.26381 0.471992,-0.11422 -0.106558,0.37597 -0.325718,0.738 -0.700263,1.15677 -0.262167,0.29312 -0.363198,0.44808 -0.292132,0.44808 0.08925,0 0.716779,-0.19205 1.315246,-0.40253 0.213179,-0.075 -0.258847,0.5739 -0.851896,1.17105 l -0.533067,0.53676 -5.17e-4,0.6434 c -0.0017,2.20319 -0.983324,4.67849 -2.527912,6.37476 -1.216168,1.3356 -2.772922,2.19772 -4.522273,2.50439 -0.658975,0.11553 -2.043003,0.13138 -2.675339,0.0307 z"
         id="path37"
         inkscape:connector-curvature="0" />
      <path
         style="fill:#afafaf;stroke-width:0.0675518"
         d="m 54.38937,122.58172 c -1.029818,-0.18345 -2.619629,-0.83001 -3.106396,-1.26333 -0.12286,-0.10937 -0.114661,-0.113 0.163357,-0.0723 0.35862,0.0525 1.444859,-0.0727 1.970948,-0.22705 0.489968,-0.14379 1.351698,-0.57416 1.75356,-0.87578 l 0.308271,-0.23138 -0.448832,-0.0988 c -0.993864,-0.21867 -1.880547,-1.0232 -2.224696,-2.01858 l -0.06993,-0.20224 0.276136,0.0415 c 0.344672,0.0519 1.049297,-0.0487 0.858219,-0.12251 -0.765915,-0.29573 -1.465787,-0.90822 -1.792629,-1.56882 -0.195729,-0.39559 -0.374015,-1.06751 -0.374015,-1.40957 v -0.22391 l 0.371887,0.16128 c 0.204537,0.0887 0.495856,0.18311 0.647374,0.20978 l 0.275487,0.0485 -0.377047,-0.41201 c -0.875536,-0.95672 -1.126783,-2.34594 -0.645543,-3.56937 0.0725,-0.18433 0.137051,-0.33514 0.143436,-0.33514 0.0064,0 0.301703,0.30956 0.656262,0.68791 0.99125,1.05778 2.074094,1.78084 3.34376,2.23277 0.6004,0.21371 1.441171,0.39543 1.829534,0.39543 h 0.280674 l -0.0028,-0.63269 c -0.0069,-1.58082 0.859847,-2.81731 2.252136,-3.21293 0.929753,-0.26418 1.99415,0.0125 2.65235,0.68951 0.184947,0.19023 0.234591,0.20724 0.480009,0.16443 0.221314,-0.0386 0.795468,-0.27407 1.602508,-0.65718 0.04993,-0.0237 -0.01908,0.18342 -0.155359,0.46635 -0.164641,0.34179 -0.371485,0.63368 -0.629703,0.88859 l -0.384527,0.37961 0.410534,-0.10262 c 0.225794,-0.0564 0.582936,-0.16525 0.79365,-0.2418 0.210713,-0.0766 0.39087,-0.13072 0.400351,-0.12038 0.0455,0.0496 -0.786227,1.0626 -1.094029,1.33241 l -0.34894,0.30586 -0.03908,0.88195 c -0.100738,2.27333 -0.931644,4.38421 -2.371959,6.02588 -1.197085,1.36443 -2.663247,2.24991 -4.336455,2.61899 -0.714996,0.15771 -2.359286,0.19392 -3.06855,0.0676 z"
         id="path35"
         inkscape:connector-curvature="0" />
      <path
         style="fill:#8f8f8f;stroke-width:0.0675518"
         d="m 54.641626,122.61993 c -1.063214,-0.16515 -2.164704,-0.56165 -3.034585,-1.09233 -0.231594,-0.14129 -0.420997,-0.26328 -0.420895,-0.27108 1.03e-4,-0.008 0.342077,-0.0176 0.759943,-0.0219 1.170717,-0.0118 2.29998,-0.4019 3.296177,-1.13858 l 0.272764,-0.20171 -0.427869,-0.0799 c -1.00058,-0.18697 -1.932403,-1.00972 -2.278865,-2.0121 l -0.06721,-0.19446 0.338098,0.0379 c 0.185953,0.0208 0.483618,0.0125 0.661477,-0.0185 l 0.32338,-0.0564 -0.400592,-0.15981 c -0.764246,-0.30487 -1.480195,-1.06644 -1.754529,-1.86632 -0.128083,-0.37346 -0.253283,-1.18157 -0.183059,-1.18157 0.02057,0 0.17843,0.0606 0.350806,0.13476 0.172376,0.0741 0.457219,0.1567 0.632985,0.1835 l 0.319574,0.0487 -0.237339,-0.21924 c -0.762207,-0.70409 -1.155198,-1.84969 -1.014782,-2.95815 0.04665,-0.36827 0.282261,-1.14072 0.347938,-1.14072 0.0097,0 0.231703,0.24145 0.493274,0.53656 0.876645,0.98904 2.106492,1.85918 3.261903,2.30785 0.487116,0.18916 1.528828,0.43989 2.064376,0.49687 l 0.32338,0.0344 v -0.78826 c 0,-0.76477 0.0072,-0.80472 0.241551,-1.34014 0.834066,-1.90558 3.125301,-2.48047 4.557159,-1.14344 0.146616,0.13691 0.329576,0.24892 0.406579,0.24892 0.190394,0 1.035715,-0.31452 1.42769,-0.53121 0.175826,-0.0972 0.319683,-0.14338 0.319683,-0.10263 0,0.21533 -0.390658,0.86257 -0.748946,1.24084 l -0.407858,0.43061 0.335867,-0.0653 c 0.184727,-0.0359 0.53232,-0.1392 0.77243,-0.22952 0.240109,-0.0903 0.436562,-0.14709 0.436562,-0.12617 0,0.11096 -0.757822,1.03739 -1.057337,1.29258 l -0.347427,0.29601 -0.03632,0.85531 c -0.100436,2.36533 -0.98692,4.5475 -2.528479,6.2241 -1.196734,1.30156 -2.466756,2.05391 -4.099158,2.4283 -0.713293,0.16359 -2.269117,0.23991 -2.898347,0.14217 z"
         id="path33"
         inkscape:connector-curvature="0" />
      <path
         style="fill:#6c6c6c;stroke-width:0.0675518"
         d="m 54.969502,122.64871 c -1.208782,-0.1803 -2.098638,-0.45358 -2.975093,-0.91366 -0.886871,-0.46555 -0.908702,-0.49873 -0.308631,-0.469 1.042832,0.0517 2.346344,-0.33786 3.32154,-0.99256 l 0.540001,-0.36253 -0.482937,-0.11271 c -0.686797,-0.16029 -1.068713,-0.38524 -1.553523,-0.91501 -0.363897,-0.39764 -0.708001,-0.97916 -0.708001,-1.19648 0,-0.0355 0.114569,-0.0479 0.254598,-0.0274 0.326989,0.0478 0.987324,-0.0411 0.938963,-0.12643 -0.02037,-0.0359 -0.08267,-0.0654 -0.138457,-0.0654 -0.05579,0 -0.285735,-0.099 -0.510996,-0.21996 -0.787884,-0.42313 -1.426054,-1.38103 -1.587916,-2.38347 -0.03886,-0.2407 -0.06002,-0.44912 -0.047,-0.46315 0.01301,-0.014 0.227388,0.0503 0.476391,0.14287 0.249002,0.0926 0.540044,0.1686 0.646759,0.16884 l 0.194028,4.4e-4 -0.268791,-0.2459 c -0.354988,-0.32476 -0.690895,-0.88751 -0.864603,-1.44848 -0.185229,-0.59817 -0.157497,-1.58672 0.06184,-2.20423 l 0.145229,-0.40887 0.691236,0.72637 c 0.380181,0.39951 0.900539,0.87852 1.156352,1.06447 1.183549,0.86032 2.531807,1.39252 3.966516,1.56571 l 0.360462,0.0435 -0.02876,-0.59769 c -0.08087,-1.6808 0.964677,-3.09185 2.49528,-3.3676 0.825709,-0.14876 1.792781,0.15099 2.391794,0.74136 l 0.259857,0.25611 0.540613,-0.18595 c 0.297337,-0.10228 0.707962,-0.27793 0.9125,-0.39035 0.394434,-0.21678 0.435739,-0.19012 0.265777,0.17156 -0.213576,0.45449 -0.49268,0.83665 -0.812389,1.11234 l -0.327329,0.28226 0.283365,-0.0455 c 0.155851,-0.025 0.523475,-0.13115 0.816942,-0.23587 0.293467,-0.10472 0.533576,-0.17667 0.533576,-0.15989 0,0.0941 -0.703291,0.94612 -1.02603,1.24308 l -0.37806,0.34786 -0.04121,0.85158 c -0.110511,2.28382 -0.957121,4.43976 -2.389332,6.08458 -1.201696,1.38008 -2.68645,2.24365 -4.476227,2.60348 -0.518397,0.10422 -1.963992,0.18591 -2.328333,0.13157 z"
         id="path31"
         inkscape:connector-curvature="0" />
      <path
         style="fill:#4c4c4c;stroke-width:0.0675518"
         d="m 54.872488,122.61953 c -1.059713,-0.11165 -2.028437,-0.42887 -3.039769,-0.99542 l -0.549745,-0.30797 0.746674,-0.0461 c 1.193138,-0.0736 2.230888,-0.43529 3.141978,-1.09501 l 0.371261,-0.26883 -0.415505,-0.0917 c -0.920542,-0.20326 -1.725859,-0.8238 -2.122409,-1.63544 -0.111163,-0.22752 -0.202133,-0.44099 -0.202155,-0.47436 -2.2e-5,-0.0334 0.147778,-0.0495 0.328446,-0.0359 0.398876,0.0301 0.937421,-0.0499 0.859732,-0.12773 -0.03097,-0.031 -0.172726,-0.0967 -0.315013,-0.14584 -0.654497,-0.22621 -1.337405,-0.90717 -1.657045,-1.65232 -0.161001,-0.37533 -0.36401,-1.28054 -0.302113,-1.34712 0.01038,-0.0112 0.222609,0.0555 0.471612,0.14809 0.249002,0.0926 0.53597,0.16922 0.637706,0.17022 0.182728,0.002 0.180763,-0.003 -0.161689,-0.37073 -0.402164,-0.4322 -0.719754,-1.04661 -0.833739,-1.61296 -0.108985,-0.54151 -0.05051,-1.40644 0.12978,-1.91959 l 0.144962,-0.41261 0.591235,0.6396 c 0.706088,0.76385 0.998701,1.01643 1.724343,1.48846 0.97028,0.63116 2.263079,1.09244 3.465677,1.23659 l 0.394848,0.0473 -0.03054,-0.51917 c -0.07087,-1.20475 0.403977,-2.27288 1.310474,-2.9478 1.054158,-0.78485 2.578357,-0.68271 3.56526,0.23892 l 0.266789,0.24914 0.474502,-0.14345 c 0.260977,-0.0789 0.673372,-0.25032 0.916436,-0.38095 0.418245,-0.22478 0.439686,-0.22927 0.399992,-0.0838 -0.116429,0.42665 -0.599531,1.10268 -1.030988,1.44271 -0.132495,0.10441 -0.160402,0.15362 -0.088,0.15514 0.09197,0.002 0.935394,-0.23228 1.412072,-0.39214 0.156265,-0.0524 0.155149,-0.0471 -0.04895,0.23406 -0.114873,0.15822 -0.436657,0.52146 -0.715075,0.80718 l -0.506214,0.5195 -0.04086,0.77502 c -0.205321,3.89428 -2.436709,7.2397 -5.591391,8.38292 -1.173918,0.42542 -2.51838,0.59683 -3.702579,0.47206 z"
         id="path29"
         inkscape:connector-curvature="0" />
      <path
         style="fill:#2f2f2f;stroke-width:0.0675518"
         d="m 55.292881,122.63713 c -1.202329,-0.0505 -2.381878,-0.4039 -3.554736,-1.06491 l -0.455171,-0.25653 0.776111,-0.0487 c 1.198135,-0.0752 2.188035,-0.42251 3.113096,-1.09235 l 0.371816,-0.26924 -0.496187,-0.1234 c -0.667805,-0.16609 -1.098333,-0.41725 -1.538691,-0.89764 -0.299485,-0.32671 -0.706261,-0.99912 -0.706261,-1.16747 0,-0.0207 0.200091,-0.0376 0.444647,-0.0376 0.522058,0 0.861056,-0.0625 0.811667,-0.1497 -0.01931,-0.0341 -0.08432,-0.062 -0.144471,-0.062 -0.06015,-3e-5 -0.29334,-0.095 -0.518197,-0.21105 -0.542186,-0.27981 -1.119459,-0.91086 -1.36874,-1.49623 -0.161938,-0.38027 -0.36419,-1.30666 -0.300453,-1.3762 0.01141,-0.0124 0.158394,0.0438 0.326634,0.12499 0.16824,0.0812 0.466144,0.16565 0.662008,0.1877 l 0.356115,0.0401 -0.383076,-0.39861 c -0.428257,-0.44562 -0.661989,-0.86648 -0.826474,-1.48814 -0.145974,-0.5517 -0.101094,-1.46465 0.09959,-2.02594 l 0.142755,-0.39927 0.597735,0.65208 c 1.39104,1.51749 3.212575,2.46718 5.155508,2.6879 l 0.430922,0.049 -0.03471,-0.55436 c -0.08245,-1.31695 0.54824,-2.51876 1.625723,-3.09787 1.044077,-0.56115 2.27333,-0.41211 3.195668,0.38747 l 0.3451,0.29916 0.531175,-0.18066 c 0.292146,-0.0994 0.697106,-0.27198 0.899912,-0.38357 0.202805,-0.1116 0.368737,-0.19104 0.368737,-0.17653 0,0.0145 -0.08491,0.20989 -0.1887,0.43417 -0.118806,0.25675 -0.35089,0.57331 -0.626588,0.85466 l -0.437889,0.44686 0.319378,-0.0509 c 0.175657,-0.028 0.523106,-0.12493 0.772109,-0.21538 0.249002,-0.0904 0.463516,-0.15286 0.476697,-0.13871 0.04673,0.0502 -0.394799,0.60015 -0.860092,1.07135 l -0.471836,0.47783 -0.04368,0.76446 c -0.197641,3.45892 -1.915544,6.4503 -4.533866,7.89483 -0.803852,0.44349 -1.204269,0.59231 -2.360671,0.87739 -0.236606,0.0583 -1.522247,0.13206 -1.972616,0.11312 z"
         id="path27"
         inkscape:connector-curvature="0" />
      <path
         style="fill:#000000;stroke-width:0.0675518"
         d="m 54.196937,122.50836 c -0.710509,-0.14553 -1.761435,-0.54003 -2.388354,-0.89656 l -0.525609,-0.29891 0.776111,-0.0442 c 0.809586,-0.0461 1.116382,-0.10553 1.719011,-0.33291 0.670472,-0.25297 1.741151,-0.90655 1.741151,-1.06286 0,-0.0316 -0.171332,-0.0743 -0.380737,-0.095 -0.819541,-0.0811 -1.774588,-0.82067 -2.163268,-1.67527 l -0.176492,-0.38805 0.373941,-0.017 c 0.562426,-0.0256 0.923686,-0.0896 0.923686,-0.16369 0,-0.0364 -0.06811,-0.0662 -0.15136,-0.0662 -0.08325,0 -0.327124,-0.0958 -0.541948,-0.21292 -0.923089,-0.50321 -1.502275,-1.38501 -1.628515,-2.4794 l -0.04606,-0.39926 0.326983,0.14196 c 0.279531,0.12136 1.006081,0.28415 1.006081,0.22542 0,-0.0107 -0.160682,-0.18526 -0.357071,-0.38788 -0.826613,-0.85284 -1.137185,-2.10228 -0.807389,-3.24812 0.203965,-0.70867 0.180969,-0.70629 0.751858,-0.0777 1.40341,1.54512 3.295164,2.54499 5.182332,2.73906 l 0.468781,0.0482 -0.04022,-0.52063 c -0.07341,-0.95009 0.222709,-1.8182 0.858379,-2.5165 0.569352,-0.62545 1.082197,-0.87546 1.882181,-0.91754 0.87616,-0.0461 1.500001,0.16974 2.137321,0.73945 l 0.277802,0.24833 0.563003,-0.19148 c 0.309653,-0.10531 0.700282,-0.26736 0.868065,-0.3601 0.167783,-0.0927 0.322287,-0.16863 0.343341,-0.16863 0.02105,0 -0.05598,0.19293 -0.171183,0.42873 -0.128057,0.2621 -0.374608,0.5951 -0.634383,0.85682 l -0.424919,0.4281 0.296021,-0.0424 c 0.162811,-0.0233 0.519115,-0.1197 0.791786,-0.21416 l 0.495766,-0.17175 -0.11269,0.21206 c -0.06198,0.11663 -0.363049,0.47036 -0.669045,0.78608 l -0.556357,0.57403 -0.04693,0.77612 c -0.103014,1.70368 -0.473115,3.03292 -1.242869,4.46382 -1.123698,2.08885 -2.871798,3.51669 -5.077053,4.14693 -0.591475,0.16903 -0.812983,0.19417 -1.898446,0.21539 -0.897124,0.0175 -1.367556,-0.004 -1.742703,-0.0812 z"
         id="path25"
         inkscape:connector-curvature="0" />
    </g>
  </g>
</svg>
