<?xml version="1.0" encoding="UTF-8" standalone="no"?>
<!-- Created with Inkscape (http://www.inkscape.org/) -->

<svg
   xmlns:dc="http://purl.org/dc/elements/1.1/"
   xmlns:cc="http://creativecommons.org/ns#"
   xmlns:rdf="http://www.w3.org/1999/02/22-rdf-syntax-ns#"
   xmlns:svg="http://www.w3.org/2000/svg"
   xmlns="http://www.w3.org/2000/svg"
   xmlns:sodipodi="http://sodipodi.sourceforge.net/DTD/sodipodi-0.dtd"
   xmlns:inkscape="http://www.inkscape.org/namespaces/inkscape"
   width="210mm"
   height="297mm"
   viewBox="0 0 210 297"
   version="1.1"
   id="svg8"
   inkscape:version="0.92.3 (2405546, 2018-03-11)"
   sodipodi:docname="Twitter.svg">
  <defs
     id="defs2" />
  <sodipodi:namedview
     id="base"
     pagecolor="#ffffff"
     bordercolor="#666666"
     borderopacity="1.0"
     inkscape:pageopacity="0.0"
     inkscape:pageshadow="2"
     inkscape:zoom="0.35"
     inkscape:cx="350"
     inkscape:cy="560"
     inkscape:document-units="mm"
     inkscape:current-layer="layer1"
     showgrid="false"
     inkscape:window-width="1366"
     inkscape:window-height="705"
     inkscape:window-x="-8"
     inkscape:window-y="-8"
     inkscape:window-maximized="1" />
  <metadata
     id="metadata5">
    <rdf:RDF>
      <cc:Work
         rdf:about="">
        <dc:format>image/svg+xml</dc:format>
        <dc:type
           rdf:resource="http://purl.org/dc/dcmitype/StillImage" />
        <dc:title></dc:title>
      </cc:Work>
    </rdf:RDF>
  </metadata>
  <g
     inkscape:label="Layer 1"
     inkscape:groupmode="layer"
     id="layer1">
    <path
       style="fill:#000000;stroke-width:0.07536828"
       d="m 94.084659,133.94585 c -1.02292,-0.16115 -2.304144,-0.70917 -3.172686,-1.35705 -0.229072,-0.17087 -0.416565,-0.3171 -0.41665,-0.32495 -8.5e-5,-0.007 0.231544,-0.001 0.514728,0.0138 1.062449,0.058 2.358239,-0.4165 3.341167,-1.22336 l 0.544859,-0.44726 -0.487282,-0.13965 c -0.633762,-0.18164 -1.046794,-0.46272 -1.500799,-1.02137 -0.322903,-0.39731 -0.781073,-1.32083 -0.781073,-1.57436 0,-0.0525 0.103992,-0.0697 0.256888,-0.0424 0.329932,0.059 0.996208,-0.0507 0.947412,-0.15598 -0.02055,-0.0444 -0.08341,-0.0807 -0.139703,-0.0807 -0.05629,0 -0.288306,-0.12214 -0.515594,-0.27137 -0.794973,-0.52202 -1.438885,-1.70379 -1.602203,-2.94051 -0.03921,-0.29695 -0.06056,-0.55408 -0.04742,-0.57139 0.01313,-0.0173 0.229434,0.062 0.480677,0.17626 0.251243,0.11424 0.538875,0.20877 0.639182,0.21 0.177084,0.002 0.171847,-0.0111 -0.180451,-0.47025 -0.248871,-0.3241 -0.439377,-0.68634 -0.606553,-1.15335 -0.238239,-0.66552 -0.243688,-0.70337 -0.242066,-1.68187 0.0014,-0.83941 0.02603,-1.08244 0.152618,-1.50544 l 0.15096,-0.50443 0.697455,0.89613 c 0.383602,0.49288 0.916927,1.0917 1.185169,1.3307 1.156319,1.03034 2.552474,1.70663 3.95126,1.91397 l 0.39643,0.0587 -0.02911,-0.73982 c -0.08666,-2.20229 1.075116,-3.97553 2.750886,-4.19872 0.71844,-0.0957 1.64664,0.31346 2.18621,0.96368 l 0.24712,0.2978 0.32154,-0.11794 c 0.45552,-0.16706 0.80125,-0.34313 1.19086,-0.60647 0.36111,-0.24409 0.40004,-0.20433 0.23089,0.23581 -0.2155,0.56071 -0.49712,1.03219 -0.8197,1.37231 l -0.33028,0.34823 0.28592,-0.0561 c 0.15725,-0.0308 0.52818,-0.1618 0.82429,-0.29099 0.29611,-0.1292 0.53812,-0.21295 0.5378,-0.18613 -0.001,0.10499 -0.65532,1.06128 -1.02578,1.4997 l -0.39096,0.46266 -0.0412,1.021 c -0.19217,4.76703 -2.49465,8.92689 -5.719897,10.33403 -1.081702,0.47195 -2.702044,0.69751 -3.784955,0.52691 z"
       id="path21"
       inkscape:connector-curvature="0" />
  </g>
</svg>
