<?xml version="1.0" encoding="UTF-8" standalone="no"?>
<svg
   xmlns:dc="http://purl.org/dc/elements/1.1/"
   xmlns:cc="http://creativecommons.org/ns#"
   xmlns:rdf="http://www.w3.org/1999/02/22-rdf-syntax-ns#"
   xmlns:svg="http://www.w3.org/2000/svg"
   xmlns="http://www.w3.org/2000/svg"
   xmlns:sodipodi="http://sodipodi.sourceforge.net/DTD/sodipodi-0.dtd"
   xmlns:inkscape="http://www.inkscape.org/namespaces/inkscape"
   width="210mm"
   height="297mm"
   viewBox="0 0 210 297"
   version="1.1"
   id="svg8"
   inkscape:version="1.0.1 (3bc2e813f5, 2020-09-07)"
   sodipodi:docname="wattermellon.svg">
  <defs
     id="defs2" />
  <sodipodi:namedview
     id="base"
     pagecolor="#ffffff"
     bordercolor="#666666"
     borderopacity="1.0"
     inkscape:pageopacity="0.0"
     inkscape:pageshadow="2"
     inkscape:zoom="2.8"
     inkscape:cx="131.8614"
     inkscape:cy="65.073884"
     inkscape:document-units="mm"
     inkscape:current-layer="layer1"
     inkscape:document-rotation="0"
     showgrid="false"
     inkscape:window-width="1366"
     inkscape:window-height="705"
     inkscape:window-x="-8"
     inkscape:window-y="-8"
     inkscape:window-maximized="1" />
  <metadata
     id="metadata5">
    <rdf:RDF>
      <cc:Work
         rdf:about="">
        <dc:format>image/svg+xml</dc:format>
        <dc:type
           rdf:resource="http://purl.org/dc/dcmitype/StillImage" />
        <dc:title />
      </cc:Work>
    </rdf:RDF>
  </metadata>
  <g
     inkscape:label="Layer 1"
     inkscape:groupmode="layer"
     id="layer1">
    <path
       style="fill:#00ff00;stroke:#280b0b;stroke-width:0.0378412"
       id="path10"
       sodipodi:type="arc"
       sodipodi:cx="38.908463"
       sodipodi:cy="13.691847"
       sodipodi:rx="7.2552333"
       sodipodi:ry="7.8883657"
       sodipodi:start="4.3517516"
       sodipodi:end="4.3108062"
       sodipodi:open="true"
       sodipodi:arc-type="arc"
       d="M 36.348303,6.3109231 A 7.2552333,7.8883657 0 0 1 45.67042,10.832867 7.2552333,7.8883657 0 0 1 41.607055,21.014241 7.2552333,7.8883657 0 0 1 32.201752,16.700733 7.2552333,7.8883657 0 0 1 36.072568,6.4310521" />
    <path
       style="fill:#008000;stroke:#000000;stroke-width:0.0313412px;stroke-linecap:butt;stroke-linejoin:miter;stroke-opacity:1"
       d="m 34.218538,7.9139384 c -0.592429,1.7054747 -0.592429,2.1115376 -0.592429,2.1115376 l -0.197477,1.543047 c 0,0 -0.197476,0.730916 -0.296216,1.136986 -0.09884,0.406061 -0.09884,1.786686 -0.09884,1.786686 l -0.09884,1.786685 0.197477,1.461832 0.691169,1.461835 0.296214,0.568491 -0.197476,-2.680027 -0.09884,-1.055771 0.09884,-1.62426 0.296215,-2.273965 0.197478,-2.4363898 z"
       id="path12" />
    <path
       style="fill:#008000;stroke:#000000;stroke-width:0.0313412px;stroke-linecap:butt;stroke-linejoin:miter;stroke-opacity:1"
       d="m 36.348303,6.3109234 -0.05663,2.3339307 -0.296215,4.2230799 -0.197476,2.111537 0.09884,2.436387 0.296217,1.867901 -0.09884,1.136985 0.296215,0.812131 1.184817,0.324852 -0.296214,-3.573376 -0.09884,-1.055766 -0.296213,-2.030326 0.09883,-2.517603 V 9.9442644 l 0.296213,-1.6242616 z"
       id="path14" />
    <path
       style="fill:#008000;stroke:#000000;stroke-width:0.0313412px;stroke-linecap:butt;stroke-linejoin:miter;stroke-opacity:1"
       d="m 43.99332,8.2387908 0.592431,2.0303252 0.197477,1.299407 0.197476,1.136986 0.296218,1.786686 v 1.461832 l -0.09884,1.70547 -0.789909,1.05577 -0.691166,0.568492 0.592427,-1.299408 0.09885,-1.055766 -0.09885,-1.461835 -0.09883,-1.705474 -0.09884,-1.786685 -0.493699,-1.624262 -0.296213,-1.3806205 -0.59243,-1.2994093 -0.493694,-0.7309157 z"
       id="path16" />
    <path
       style="fill:#008000;stroke:#000000;stroke-width:0.0314851px;stroke-linecap:butt;stroke-linejoin:miter;stroke-opacity:1"
       d="m 40.043908,5.8831615 0.296218,2.2129081 0.296216,0.9015558 0.296211,1.0654766 0.296215,1.55723 0.09883,1.557233 0.394956,2.13095 -0.09884,1.721151 v 1.639191 l -0.394955,1.475275 -0.197476,1.311351 -1.086081,0.245882 h -0.296218 l 0.592433,-0.983517 0.296213,-0.983516 0.09884,-0.819594 0.09884,-1.311356 V 16.046151 14.24304 L 40.53784,12.521888 40.340364,10.4729 40.044147,8.7517468 39.649195,7.4403954 39.352977,6.2110006 38.859286,5.96512 Z"
       id="path18" />
  </g>
</svg>
