<?xml version="1.0" encoding="UTF-8" standalone="no"?>
<!-- Created with Inkscape (http://www.inkscape.org/) -->

<svg
   xmlns:dc="http://purl.org/dc/elements/1.1/"
   xmlns:cc="http://creativecommons.org/ns#"
   xmlns:rdf="http://www.w3.org/1999/02/22-rdf-syntax-ns#"
   xmlns:svg="http://www.w3.org/2000/svg"
   xmlns="http://www.w3.org/2000/svg"
   xmlns:sodipodi="http://sodipodi.sourceforge.net/DTD/sodipodi-0.dtd"
   xmlns:inkscape="http://www.inkscape.org/namespaces/inkscape"
   width="55"
   height="60"
   viewBox="0 0 14.552083 15.875"
   version="1.1"
   id="svg8"
   inkscape:version="0.92.3 (2405546, 2018-03-11)"
   sodipodi:docname="witch.svg">
  <defs
     id="defs2">
    <clipPath
       clipPathUnits="userSpaceOnUse"
       id="clipPath852">
      <rect
         style="fill:#fff6d5;fill-opacity:0;stroke:#e4e401;stroke-width:0.26458332;stroke-opacity:1"
         id="rect854"
         width="143.79102"
         height="249.62973"
         x="18.174328"
         y="13.159761" />
    </clipPath>
    <clipPath
       clipPathUnits="userSpaceOnUse"
       id="clipPath856">
      <rect
         style="fill:#fff6d5;fill-opacity:0;stroke:#e4e401;stroke-width:0.26458332;stroke-opacity:1"
         id="rect858"
         width="143.79102"
         height="249.62973"
         x="18.174328"
         y="13.159761" />
    </clipPath>
    <clipPath
       clipPathUnits="userSpaceOnUse"
       id="clipPath860">
      <rect
         style="fill:#fff6d5;fill-opacity:0;stroke:#e4e401;stroke-width:0.26458332;stroke-opacity:1"
         id="rect862"
         width="143.79102"
         height="249.62973"
         x="18.174328"
         y="13.159761" />
    </clipPath>
    <clipPath
       clipPathUnits="userSpaceOnUse"
       id="clipPath864">
      <rect
         style="fill:#fff6d5;fill-opacity:0;stroke:#e4e401;stroke-width:0.26458332;stroke-opacity:1"
         id="rect866"
         width="143.79102"
         height="249.62973"
         x="18.174328"
         y="13.159761" />
    </clipPath>
    <clipPath
       clipPathUnits="userSpaceOnUse"
       id="clipPath868">
      <rect
         style="fill:#fff6d5;fill-opacity:0;stroke:#e4e401;stroke-width:0.26458332;stroke-opacity:1"
         id="rect870"
         width="143.79102"
         height="249.62973"
         x="18.174328"
         y="13.159761" />
    </clipPath>
    <clipPath
       clipPathUnits="userSpaceOnUse"
       id="clipPath872">
      <rect
         style="fill:#fff6d5;fill-opacity:0;stroke:#e4e401;stroke-width:0.26458332;stroke-opacity:1"
         id="rect874"
         width="143.79102"
         height="249.62973"
         x="18.174328"
         y="13.159761" />
    </clipPath>
    <clipPath
       clipPathUnits="userSpaceOnUse"
       id="clipPath876">
      <rect
         style="fill:#fff6d5;fill-opacity:0;stroke:#e4e401;stroke-width:0.26458332;stroke-opacity:1"
         id="rect878"
         width="143.79102"
         height="249.62973"
         x="18.174328"
         y="13.159761" />
    </clipPath>
    <clipPath
       clipPathUnits="userSpaceOnUse"
       id="clipPath880">
      <rect
         style="fill:#fff6d5;fill-opacity:0;stroke:#e4e401;stroke-width:0.26458332;stroke-opacity:1"
         id="rect882"
         width="143.79102"
         height="249.62973"
         x="18.174328"
         y="13.159761" />
    </clipPath>
    <clipPath
       clipPathUnits="userSpaceOnUse"
       id="clipPath884">
      <rect
         style="fill:#fff6d5;fill-opacity:0;stroke:#e4e401;stroke-width:0.26458332;stroke-opacity:1"
         id="rect886"
         width="143.79102"
         height="249.62973"
         x="18.174328"
         y="13.159761" />
    </clipPath>
    <clipPath
       clipPathUnits="userSpaceOnUse"
       id="clipPath888">
      <rect
         style="fill:#fff6d5;fill-opacity:0;stroke:#e4e401;stroke-width:0.47552064;stroke-opacity:1"
         id="rect890"
         width="236.32794"
         height="490.59915"
         x="-32.106548"
         y="-269.98392" />
    </clipPath>
    <clipPath
       clipPathUnits="userSpaceOnUse"
       id="clipPath892">
      <rect
         style="fill:#fff6d5;fill-opacity:0;stroke:#e4e401;stroke-width:0.71316868;stroke-opacity:1"
         id="rect894"
         width="500.91922"
         height="520.61896"
         x="-150.03613"
         y="-241.3152" />
    </clipPath>
    <clipPath
       clipPathUnits="userSpaceOnUse"
       id="clipPath896">
      <rect
         style="fill:#fff6d5;fill-opacity:0;stroke:#e4e401;stroke-width:0.4392353;stroke-opacity:1"
         id="rect898"
         width="197.88257"
         height="499.90793"
         x="1.403811"
         y="-107.83216" />
    </clipPath>
    <clipPath
       clipPathUnits="userSpaceOnUse"
       id="clipPath900">
      <rect
         style="fill:#fff6d5;fill-opacity:0;stroke:#e4e401;stroke-width:0.26458332;stroke-opacity:1"
         id="rect902"
         width="143.79102"
         height="249.62973"
         x="18.174328"
         y="13.159761" />
    </clipPath>
    <clipPath
       clipPathUnits="userSpaceOnUse"
       id="clipPath904">
      <rect
         style="fill:#fff6d5;fill-opacity:0;stroke:#e4e401;stroke-width:0.26458332;stroke-opacity:1"
         id="rect906"
         width="143.79102"
         height="249.62973"
         x="18.174328"
         y="13.159761" />
    </clipPath>
    <clipPath
       clipPathUnits="userSpaceOnUse"
       id="clipPath908">
      <rect
         style="fill:#fff6d5;fill-opacity:0;stroke:#e4e401;stroke-width:0.26458332;stroke-opacity:1"
         id="rect910"
         width="143.79102"
         height="249.62973"
         x="18.174328"
         y="13.159761" />
    </clipPath>
    <clipPath
       clipPathUnits="userSpaceOnUse"
       id="clipPath912">
      <rect
         style="fill:#fff6d5;fill-opacity:0;stroke:#e4e401;stroke-width:0.26458332;stroke-opacity:1"
         id="rect914"
         width="143.79102"
         height="249.62973"
         x="18.174328"
         y="13.159761" />
    </clipPath>
    <clipPath
       clipPathUnits="userSpaceOnUse"
       id="clipPath916">
      <rect
         style="fill:#fff6d5;fill-opacity:0;stroke:#e4e401;stroke-width:0.26458332;stroke-opacity:1"
         id="rect918"
         width="143.79102"
         height="249.62973"
         x="18.174328"
         y="13.159761" />
    </clipPath>
    <clipPath
       clipPathUnits="userSpaceOnUse"
       id="clipPath920">
      <rect
         style="fill:#fff6d5;fill-opacity:0;stroke:#e4e401;stroke-width:0.26458332;stroke-opacity:1"
         id="rect922"
         width="143.79102"
         height="249.62973"
         x="18.174328"
         y="13.159761" />
    </clipPath>
    <clipPath
       clipPathUnits="userSpaceOnUse"
       id="clipPath924">
      <rect
         style="fill:#fff6d5;fill-opacity:0;stroke:#e4e401;stroke-width:0.26458332;stroke-opacity:1"
         id="rect926"
         width="143.79102"
         height="249.62973"
         x="18.174328"
         y="13.159761" />
    </clipPath>
    <clipPath
       clipPathUnits="userSpaceOnUse"
       id="clipPath928">
      <rect
         style="fill:#fff6d5;fill-opacity:0;stroke:#e4e401;stroke-width:0.26458332;stroke-opacity:1"
         id="rect930"
         width="143.79102"
         height="249.62973"
         x="18.174328"
         y="13.159761" />
    </clipPath>
    <clipPath
       clipPathUnits="userSpaceOnUse"
       id="clipPath932">
      <rect
         style="fill:#fff6d5;fill-opacity:0;stroke:#e4e401;stroke-width:0.26458332;stroke-opacity:1"
         id="rect934"
         width="143.79102"
         height="249.62973"
         x="18.174328"
         y="13.159761" />
    </clipPath>
    <clipPath
       clipPathUnits="userSpaceOnUse"
       id="clipPath936">
      <rect
         style="fill:#fff6d5;fill-opacity:0;stroke:#e4e401;stroke-width:0.26458332;stroke-opacity:1"
         id="rect938"
         width="143.79102"
         height="249.62973"
         x="18.174328"
         y="13.159761" />
    </clipPath>
    <clipPath
       clipPathUnits="userSpaceOnUse"
       id="clipPath940">
      <rect
         style="fill:#fff6d5;fill-opacity:0;stroke:#e4e401;stroke-width:0.26458332;stroke-opacity:1"
         id="rect942"
         width="143.79102"
         height="249.62973"
         x="18.174328"
         y="13.159761" />
    </clipPath>
    <clipPath
       clipPathUnits="userSpaceOnUse"
       id="clipPath944">
      <rect
         style="fill:#fff6d5;fill-opacity:0;stroke:#e4e401;stroke-width:0.26458332;stroke-opacity:1"
         id="rect946"
         width="143.79102"
         height="249.62973"
         x="18.174328"
         y="13.159761" />
    </clipPath>
    <clipPath
       clipPathUnits="userSpaceOnUse"
       id="clipPath948">
      <rect
         style="fill:#fff6d5;fill-opacity:0;stroke:#e4e401;stroke-width:0.26458332;stroke-opacity:1"
         id="rect950"
         width="143.79102"
         height="249.62973"
         x="18.174328"
         y="13.159761" />
    </clipPath>
    <clipPath
       clipPathUnits="userSpaceOnUse"
       id="clipPath952">
      <rect
         style="fill:#fff6d5;fill-opacity:0;stroke:#e4e401;stroke-width:0.26458332;stroke-opacity:1"
         id="rect954"
         width="143.79102"
         height="249.62973"
         x="18.174328"
         y="13.159761" />
    </clipPath>
    <clipPath
       clipPathUnits="userSpaceOnUse"
       id="clipPath956">
      <rect
         style="fill:#fff6d5;fill-opacity:0;stroke:#e4e401;stroke-width:0.26458332;stroke-opacity:1"
         id="rect958"
         width="143.79102"
         height="249.62973"
         x="18.174328"
         y="13.159761" />
    </clipPath>
    <clipPath
       clipPathUnits="userSpaceOnUse"
       id="clipPath960">
      <rect
         style="fill:#fff6d5;fill-opacity:0;stroke:#e4e401;stroke-width:0.26458332;stroke-opacity:1"
         id="rect962"
         width="143.79102"
         height="249.62973"
         x="18.174328"
         y="13.159761" />
    </clipPath>
    <clipPath
       clipPathUnits="userSpaceOnUse"
       id="clipPath964">
      <rect
         style="fill:#fff6d5;fill-opacity:0;stroke:#e4e401;stroke-width:0.26458332;stroke-opacity:1"
         id="rect966"
         width="143.79102"
         height="249.62973"
         x="18.174328"
         y="13.159761" />
    </clipPath>
    <clipPath
       clipPathUnits="userSpaceOnUse"
       id="clipPath968">
      <rect
         style="fill:#fff6d5;fill-opacity:0;stroke:#e4e401;stroke-width:0.26458332;stroke-opacity:1"
         id="rect970"
         width="143.79102"
         height="249.62973"
         x="18.174328"
         y="13.159761" />
    </clipPath>
    <clipPath
       clipPathUnits="userSpaceOnUse"
       id="clipPath972">
      <rect
         style="fill:#fff6d5;fill-opacity:0;stroke:#e4e401;stroke-width:0.26458332;stroke-opacity:1"
         id="rect974"
         width="143.79102"
         height="249.62973"
         x="18.174328"
         y="13.159761" />
    </clipPath>
    <clipPath
       clipPathUnits="userSpaceOnUse"
       id="clipPath976">
      <rect
         style="fill:#fff6d5;fill-opacity:0;stroke:#e4e401;stroke-width:0.26458332;stroke-opacity:1"
         id="rect978"
         width="143.79102"
         height="249.62973"
         x="18.174328"
         y="13.159761" />
    </clipPath>
    <clipPath
       clipPathUnits="userSpaceOnUse"
       id="clipPath980">
      <rect
         style="fill:#fff6d5;fill-opacity:0;stroke:#e4e401;stroke-width:0.26458332;stroke-opacity:1"
         id="rect982"
         width="143.79102"
         height="249.62973"
         x="18.174328"
         y="13.159761" />
    </clipPath>
    <clipPath
       clipPathUnits="userSpaceOnUse"
       id="clipPath984">
      <rect
         style="fill:#fff6d5;fill-opacity:0;stroke:#e4e401;stroke-width:0.26458332;stroke-opacity:1"
         id="rect986"
         width="143.79102"
         height="249.62973"
         x="18.174328"
         y="13.159761" />
    </clipPath>
    <clipPath
       clipPathUnits="userSpaceOnUse"
       id="clipPath988">
      <rect
         style="fill:#fff6d5;fill-opacity:0;stroke:#e4e401;stroke-width:0.26458332;stroke-opacity:1"
         id="rect990"
         width="143.79102"
         height="249.62973"
         x="18.174328"
         y="13.159761" />
    </clipPath>
    <clipPath
       clipPathUnits="userSpaceOnUse"
       id="clipPath992">
      <rect
         style="fill:#fff6d5;fill-opacity:0;stroke:#e4e401;stroke-width:0.26458332;stroke-opacity:1"
         id="rect994"
         width="143.79102"
         height="249.62973"
         x="18.174328"
         y="13.159761" />
    </clipPath>
  </defs>
  <sodipodi:namedview
     id="base"
     pagecolor="#ffffff"
     bordercolor="#666666"
     borderopacity="1.0"
     inkscape:pageopacity="0.0"
     inkscape:pageshadow="2"
     inkscape:zoom="7.9195959"
     inkscape:cx="19.402001"
     inkscape:cy="25.602478"
     inkscape:document-units="mm"
     inkscape:current-layer="layer1"
     showgrid="false"
     inkscape:window-width="1920"
     inkscape:window-height="1017"
     inkscape:window-x="-8"
     inkscape:window-y="-8"
     inkscape:window-maximized="1"
     units="px" />
  <metadata
     id="metadata5">
    <rdf:RDF>
      <cc:Work
         rdf:about="">
        <dc:format>image/svg+xml</dc:format>
        <dc:type
           rdf:resource="http://purl.org/dc/dcmitype/StillImage" />
        <dc:title></dc:title>
      </cc:Work>
    </rdf:RDF>
  </metadata>
  <g
     inkscape:label="Layer 1"
     inkscape:groupmode="layer"
     id="layer1"
     transform="translate(0,-281.12498)">
    <path
       style="fill:#800080;stroke-width:0.26458332"
       id="path22"
       d="m 51.090496,105.27752 c 1.637829,-1.19595 3.173061,-2.53092 4.613778,-3.95666 1.203907,-1.512868 2.264203,-3.128668 3.44751,-4.66222 1.14845,-1.712706 2.363136,-3.378813 3.53691,-5.074091 0.931447,-1.463707 2.073765,-2.771249 3.082777,-4.176046 0.738172,-1.319284 1.340996,-2.719747 1.883981,-4.130114 0.418243,-1.347449 0.889228,-2.671596 1.273294,-4.029543 0.488432,-1.788592 0.801778,-3.619455 1.182759,-5.433912 0.347369,-1.744477 1.222912,-3.304479 1.930287,-4.916435 0.714073,-1.433221 1.133173,-2.971101 1.609079,-4.491341 0.570807,-1.451745 1.055867,-2.912185 1.312693,-4.452433 0.41501,-2.112152 1.161576,-4.154958 1.998917,-6.133494 0.833953,-1.701969 1.347769,-3.601939 2.436418,-5.16832 8.883877,-5.559184 8.93391,-7.991179 12.82597,-2.583852 1.103289,1.251789 2.214105,2.505482 3.080962,3.935285 0.851908,1.551057 1.874642,3.001688 3.149222,4.231225 1.365303,1.228032 2.633957,2.577851 3.789567,4.004953 0.99494,1.475301 1.96248,2.951017 2.83261,4.505269 1.26772,1.744739 2.32856,3.622852 3.3653,5.510221 1.14403,1.827567 2.00989,3.773241 2.68443,5.814343 0.73424,1.979011 1.19039,4.023391 1.65556,6.075584 0.51195,2.363356 0.95994,4.744699 1.50231,7.101589 0.43236,1.701969 0.72734,3.430839 1.30347,5.092859 0.51159,1.595022 1.43434,3.005409 2.22914,4.46682 0.75022,1.379971 1.49746,2.775362 2.11159,4.222703 0.51433,1.27622 1.07835,2.53281 1.56719,3.81912 0.59934,1.07092 1.094,2.11045 0.79397,3.34342 -3.08444,4.82199 -8.28528,6.10021 -13.22738,6.1431 -1.51944,0.001 -3.03884,-0.0125 -4.55826,-0.0193 -1.517,-0.006 -3.03401,-0.007 -4.551027,-0.008 -1.564378,0.1446 -3.05939,-0.15927 -4.58905,-0.41883 -1.545505,-0.0969 -3.030653,-0.45311 -4.544795,-0.74516 -1.53397,-0.43439 -3.024219,-1.00208 -4.561657,-1.4214 -1.333638,-0.34871 -2.591687,-0.84631 -3.9668,-1.04488 -1.461784,-0.0786 -2.881895,-0.16914 -4.318188,-0.45069 -1.47937,-0.29477 -2.985969,-0.3799 -4.489844,-0.43067 -1.507668,-0.0366 -3.015941,-0.0312 -4.523931,-0.0298 -1.468313,0.15148 -2.846599,-0.12903 -4.270364,-0.41906 -1.346523,-0.24881 -2.718303,-0.2873 -4.083503,-0.31916 -1.497324,-0.0238 -2.994914,-0.0185 -4.492371,-0.0168 -1.51331,0.002 -3.026621,0.003 -4.539932,0.004 -1.512218,5.3e-4 -3.024436,5.3e-4 -4.536654,5.3e-4 -0.251989,0 -0.503979,0 -0.755965,0 0,0 9.008747,-6.54525 9.008747,-6.54525 v 0 c 0.251984,-1e-5 0.503968,-1e-5 0.755952,-2e-5 1.512078,-5e-5 3.024158,-1.2e-4 4.536236,-10e-4 1.51329,-0.001 3.026577,-0.003 4.539864,-0.004 1.506487,-1e-4 3.013392,-0.004 4.519329,0.043 1.412018,0.059 2.826137,0.15298 4.210582,0.45599 1.364943,0.27131 2.725576,0.31056 4.116909,0.25671 1.517954,0.002 3.036686,10e-4 4.553389,0.0712 1.534713,0.0887 3.063335,0.24562 4.572545,0.54771 1.440362,0.22487 2.903535,0.17546 4.339682,0.44164 1.3667,0.29402 2.654864,0.81831 4.008991,1.15969 1.496208,0.46852 2.980184,0.98453 4.509722,1.33814 1.500433,0.30993 3.009173,0.50669 4.526233,0.71656 1.48941,0.248 2.97282,0.33095 4.48394,0.26706 1.51749,0.002 3.03499,0.004 4.55247,0.0123 1.51434,0.008 3.02926,0.0266 4.54323,-0.0167 0.68215,-0.0343 1.37838,-0.0511 2.04678,-0.20951 0.18876,-0.0447 0.72207,-0.27312 0.55536,-0.17394 -8.97446,5.33857 -12.67501,5.57833 -8.6893,5.24885 1.20054,-0.28211 0.0314,-1.68678 -0.23723,-2.35732 -0.46149,-1.28224 -1.01461,-2.53273 -1.53984,-3.78904 -0.56587,-1.42543 -1.27117,-2.80468 -2.01287,-4.14466 -0.81157,-1.51549 -1.78613,-2.963086 -2.31871,-4.610091 -0.6243,-1.702411 -0.91512,-3.476688 -1.30425,-5.24252 -0.53278,-2.357363 -0.8882,-4.755277 -1.50241,-7.096659 -0.47755,-2.012027 -0.8871,-4.031075 -1.61825,-5.974207 -0.67758,-1.975848 -1.41616,-3.899728 -2.573577,-5.658993 -1.00973,-1.89185 -2.122353,-3.72518 -3.373652,-5.467593 -0.887026,-1.472952 -1.821722,-2.907803 -2.764684,-4.344588 -1.136645,-1.395257 -2.409269,-2.685301 -3.724368,-3.912166 -1.288364,-1.337384 -2.421445,-2.813659 -3.316224,-4.445752 -0.837284,-1.407496 -1.984041,-2.58613 -3.021851,-3.846142 -0.401365,-0.527338 -0.8025,-1.206344 -1.329968,-1.625327 -0.546248,-0.433901 -0.778248,-0.189286 -0.73738,-0.21367 3.051021,-1.820502 6.150829,-3.557971 9.226243,-5.336958 -0.17675,0.03756 -0.377256,0.01654 -0.530246,0.112689 -1.012817,0.636558 -1.702673,3.535881 -2.339287,4.561924 -0.830408,1.882969 -1.500347,3.811813 -1.997626,5.809131 -0.196913,1.593043 -0.543245,3.154143 -1.244287,4.610362 -0.466392,1.548649 -0.847731,3.134852 -1.575816,4.588216 -0.61821,1.609135 -1.55102,3.080362 -2.037705,4.740603 -0.377058,1.831028 -0.774806,3.651922 -1.118912,5.487609 -0.383953,1.381372 -0.765191,2.747717 -1.242806,4.094806 -0.480931,1.498282 -1.185405,2.902712 -1.77468,4.35942 -0.870217,1.538589 -2.198965,2.733429 -3.121678,4.244473 -1.184863,1.688195 -2.437662,3.3299 -3.505301,5.097065 -1.146963,1.600724 -2.463546,3.073008 -3.430452,4.800243 -1.333556,1.488469 -2.86825,2.774024 -4.389459,4.066465 0,0 -10.423358,4.14522 -10.423358,4.14522 z"
       inkscape:connector-curvature="0"
       clip-path="url(#clipPath992)"
       transform="matrix(0.06225349,0,0,0.06225349,1.9171965,280.67961)" />
    <path
       style="fill:#800080;stroke-width:0.26458332"
       id="path24"
       d="m 73.827165,108.84398 c 0.162955,1.76511 0.64411,3.47243 0.987436,5.20582 0.308753,1.61298 0.392078,3.254 0.437766,4.8917 0.02881,1.51803 0.0213,3.03645 0.01841,4.55467 -0.0034,1.51036 -0.0049,3.02073 -0.0058,4.53109 -7.93e-4,1.51171 -5.29e-4,3.02341 -5.29e-4,4.53512 0.03502,1.45299 0.727432,2.71277 1.456973,3.92562 0.654593,1.20078 1.395146,2.41539 2.532034,3.21019 0.990917,0.83454 2.118444,1.50456 3.276777,2.08022 1.380972,0.64212 2.778887,1.11656 4.284959,1.35066 1.504706,0.1824 2.966677,0.32683 4.391919,-0.24811 1.554655,-0.45822 2.998899,-1.18118 4.486688,-1.80781 1.470144,-0.51978 2.907768,-1.0887 4.336322,-1.70413 3.40114,-1.26247 9.52021,-5.18851 -7.856072,4.63105 -0.177842,0.1005 0.346755,-0.21832 0.503656,-0.34913 0.40177,-0.33495 0.599268,-0.61031 0.930841,-1.00994 0.810792,-1.30542 1.664084,-2.57266 2.548295,-3.82993 1.272553,-1.65489 2.47392,-3.35227 3.55954,-5.13526 0.88535,-1.5493 1.99793,-2.9686 2.78594,-4.57132 0.54937,-1.29597 0.60132,-2.7078 0.64574,-4.09376 0.0256,-1.50064 0.01,-3.00161 0.003,-4.50236 -0.007,-1.51341 -0.009,-3.02684 -0.01,-4.54027 -1.2e-4,-0.25209 -2.4e-4,-0.50418 -2.6e-4,-0.75626 0,0 9.92151,-5.05573 9.92151,-5.05573 v 0 c 7e-5,0.25201 1.3e-4,0.50401 2e-4,0.75602 8e-4,1.51213 0.002,3.02428 0.008,4.53641 0.007,1.50912 0.0207,3.01825 0.0147,4.52739 -0.0204,1.49993 -0.0362,3.02098 -0.46112,4.47269 -0.64438,1.75761 -1.856,3.17082 -2.81591,4.76229 -1.07792,1.7702 -2.13844,3.55189 -3.44384,5.16896 -0.89165,1.24751 -1.82602,2.4506 -2.53668,3.81233 -2.57741,4.41981 -7.906094,6.22042 -12.548145,8.09331 -1.416182,0.60524 -2.896497,1.05566 -4.304715,1.68443 -1.491131,0.66515 -3.012848,1.26248 -4.590749,1.69123 -1.562398,0.25972 -3.142289,0.11965 -4.696859,-0.15976 -1.557488,-0.34998 -3.038213,-0.91377 -4.472239,-1.61589 -1.19793,-0.65099 -2.391037,-1.33004 -3.412133,-2.24462 -1.136933,-0.98982 -2.009581,-2.2349 -2.717778,-3.56192 -0.837952,-1.37333 -1.567723,-2.8397 -1.742192,-4.46122 -1.3e-5,-1.51185 -6.8e-5,-3.0237 2.65e-4,-4.53556 5.29e-4,-1.51083 0.0016,-3.02167 0.0048,-4.5325 0.0032,-1.51088 0.01061,-3.02182 -0.003,-4.53267 -0.02503,-1.58611 -0.06771,-3.17706 -0.323514,-4.74612 -0.30575,-1.7263 -0.773282,-3.4148 -1.084228,-5.13921 0,0 9.890148,-5.28772 9.890148,-5.28772 z"
       inkscape:connector-curvature="0"
       clip-path="url(#clipPath988)"
       transform="matrix(0.06225349,0,0,0.06225349,1.9171965,280.67961)" />
    <path
       style="fill:#800080;stroke-width:0.26458332"
       id="path26"
       d="m 73.033085,109.6975 c -0.196736,6.42778 -0.250492,3.28622 -10.158696,8.7567 -0.856453,-1.13885 -1.476838,-2.43973 -2.005121,-3.75752 -0.408911,-0.82779 -0.205716,-0.40933 -0.609319,-1.25552 0,0 9.70344,-5.49296 9.70344,-5.49296 v 0 c 0.398163,0.86319 0.19027,0.42115 0.624803,1.32559 0.307123,0.78636 0.844508,2.21691 1.497975,2.78023 0.02299,0.0199 0.01289,-0.0594 0.01931,-0.089 -3.187004,1.85581 -6.379525,3.70218 -9.56101,5.56744 -0.06929,0.0406 0.173628,-0.0287 0.22252,-0.0924 0.09617,-0.12533 0.139941,-0.28509 0.18364,-0.4369 0.21065,-0.73186 0.123851,-1.4649 0.08771,-2.21301 0,0 9.994743,-5.09258 9.994743,-5.09258 z"
       inkscape:connector-curvature="0"
       clip-path="url(#clipPath984)"
       transform="matrix(0.06225349,0,0,0.06225349,1.9171965,280.67961)" />
    <path
       style="fill:#800080;stroke-width:0.26458332"
       id="path28"
       d="m 80.425247,48.117974 c 0.04929,-1.71405 0.125576,-3.437385 -0.01251,-5.148337 -0.234318,-1.510739 -0.371898,-3.032606 -0.778084,-4.508696 -0.305872,-1.636765 -0.834509,-3.161982 -1.580827,-4.648342 -0.947137,-1.732878 -1.880587,-3.443671 -2.435424,-5.346229 -0.427154,-1.350058 -1.048758,-2.620333 -1.642552,-3.901332 -0.09702,-0.244586 -0.194037,-0.489173 -0.291054,-0.733759 0,0 9.727615,-5.420374 9.727615,-5.420374 v 0 c 0.08545,0.224108 0.17091,0.448215 0.256365,0.672322 0.622184,1.338173 1.313167,2.648121 1.714905,4.076647 0.46351,1.854979 1.350819,3.503971 2.264981,5.173601 0.807495,1.52723 1.509046,3.078736 1.789645,4.796597 0.42288,1.542544 0.566901,3.119755 0.813363,4.698618 0.211487,1.724615 0.05259,3.463497 0.168331,5.196705 0,0 -9.994744,5.092579 -9.994744,5.092579 z"
       inkscape:connector-curvature="0"
       clip-path="url(#clipPath980)"
       transform="matrix(0.06225349,0,0,0.06225349,1.9171965,280.67961)" />
    <path
       style="fill:#800080;stroke-width:0.26458332"
       id="path30"
       d="m 83.671888,15.694143 c 1.669994,0.360085 3.379509,0.470141 5.081812,0.550089 1.600383,0.340134 3.211404,0.590555 4.842312,0.71665 1.503521,0.09287 3.010656,0.09214 4.516408,0.0949 1.50713,0.315002 3.02519,0.538413 4.55983,0.656455 1.54641,-0.02185 3.03267,0.405124 4.55442,0.621585 1.69304,0.03361 2.7519,0.997416 3.67526,2.302857 0.89709,1.634409 1.11627,3.501565 1.47928,5.301468 0.33737,1.720846 0.59842,3.464915 0.58222,5.221302 -1.08765,4.956222 -7.54009,6.614697 -12.20489,7.862376 -1.49038,0.345787 -3.023654,0.401172 -4.546619,0.440884 -1.523982,0.02543 -3.048276,0.01662 -4.572392,0.01307 -1.290026,0.08652 -2.677808,0.322773 -3.907901,0.757563 -1.374145,0.248388 -2.643338,0.779132 -3.981939,1.143341 -0.877467,0.06684 -1.651535,0.365366 -2.472794,0.643673 0,0 8.833737,-6.844736 8.833737,-6.844736 v 0 c 0.817268,-0.244988 1.661445,-0.361286 2.474634,-0.623885 1.313503,-0.43938 2.65851,-0.73641 3.990877,-1.113999 1.345235,-0.274746 2.687752,-0.602935 4.072947,-0.50533 1.51472,0.0019 3.03016,0.0096 4.54402,-0.04987 1.48024,-0.08011 2.96942,-0.204097 4.38329,-0.683993 3.90755,-1.400141 6.1385,-3.562691 -7.78111,4.808008 -0.29032,0.174586 0.69433,-0.16977 0.92747,-0.415554 0.12013,-0.12664 0.1789,-0.299784 0.26835,-0.449675 0.2697,-1.646741 -0.14845,-3.345085 -0.37759,-4.976908 -0.33498,-1.634228 -0.52692,-3.354827 -1.30794,-4.847496 -0.9049,-1.186816 -1.692565,-1.459456 -3.185437,-1.57882 -1.499812,-0.252145 -2.989805,-0.532786 -4.516263,-0.564839 -1.506352,-0.163568 -2.992035,-0.481715 -4.503758,-0.57659 -1.52481,-0.01256 -3.052083,-0.02914 -4.570944,-0.17865 -1.608053,-0.180591 -3.188939,-0.517649 -4.795494,-0.70139 -1.762945,-0.125498 -3.519974,-0.314701 -5.263229,-0.610867 0,0 9.201433,-6.41161 9.201433,-6.41161 z"
       inkscape:connector-curvature="0"
       clip-path="url(#clipPath976)"
       transform="matrix(0.06225349,0,0,0.06225349,1.9171965,280.67961)" />
    <path
       style="fill:#800080;stroke-width:0.26458332"
       id="path32"
       d="m 94.955705,146.73917 c -0.07876,1.73145 -0.05712,3.46587 -0.05125,5.19863 0.007,1.60404 0.01109,3.2081 0.01326,4.81215 0.0016,1.51429 0.0016,3.02857 0.0016,4.54285 -1.3e-5,1.51061 -7.2e-5,3.02123 -1.03e-4,4.53184 0.07867,1.55745 -0.04623,3.08511 -0.302239,4.61896 -0.26878,1.47547 -0.365004,2.97178 -0.420844,4.46788 0.007,1.54501 -0.353658,3.05581 -0.556035,4.58059 -0.152022,1.23721 -0.19037,2.48374 -0.219104,3.72863 0,0 -9.931326,5.03645 -9.931326,5.03645 v 0 c 0.01929,-1.27816 0.04426,-2.55777 0.169545,-3.83089 0.167061,-1.50418 0.537115,-2.98261 0.599326,-4.49086 0.04016,-1.53929 0.105289,-3.08161 0.356442,-4.60362 0.251219,-1.4836 0.516419,-2.9358 0.382428,-4.45172 -3.1e-5,-1.51058 -8.9e-5,-3.02116 -1.03e-4,-4.53174 3.7e-5,-1.51484 1.1e-5,-3.02968 0.0016,-4.54451 0.0021,-1.60856 0.0062,-3.21711 0.01326,-4.82566 0.0058,-1.71533 0.02852,-3.43245 -0.05125,-5.14641 0,0 9.994746,-5.09257 9.994746,-5.09257 z"
       inkscape:connector-curvature="0"
       clip-path="url(#clipPath972)"
       transform="matrix(0.06225349,0,0,0.06225349,1.9171965,280.67961)" />
    <path
       style="fill:#800080;stroke-width:0.26458332"
       id="path34"
       d="m 87.271041,154.60759 c 0.138949,-0.13896 0.762138,-3.78465 -0.08378,-2.65853 -2.706241,2.90104 -0.05443,-0.0155 8.679603,-4.67686 0.278863,-0.14883 -0.498726,0.39069 -0.723977,0.61245 -0.852831,0.8396 -1.537163,1.85724 -2.236959,2.8207 -4.314061,6.2104 -3.355674,4.23693 -13.173879,9.76513 -1.458775,-0.75985 -1.394368,-2.28181 -1.229903,-3.70206 0.218943,-1.52805 0.291547,-3.06729 0.576731,-4.58524 0.24411,-1.41408 0.691623,-2.79295 1.295601,-4.09294 2.452018,-3.69024 0.7801,-1.34946 10.395532,-6.23169 0.04552,-0.0231 0.950931,0.55696 1.021908,0.60154 0,0 -9.353537,6.20073 -9.353537,6.20073 v 0 c -0.109709,-0.024 -0.218286,-0.0901 -0.329128,-0.072 -0.08163,0.0133 -0.263612,0.19865 -0.192177,0.15696 9.635751,-5.62402 12.41962,-6.79763 8.658669,-5.17761 -0.821476,1.05664 -1.155965,2.48466 -1.483529,3.75944 -0.316799,1.49101 -0.442175,2.98467 -0.593797,4.50175 -0.0093,0.0698 -0.508021,2.49644 0.08045,1.75627 -3.049759,1.78376 -6.099521,3.56752 -9.149281,5.35128 0.69913,-0.392 0.699956,-0.32665 1.297829,-0.98382 0.803331,-0.883 1.318364,-1.96736 2.090994,-2.87439 3.135678,-4.43948 7.104185,-10.20532 13.581788,-9.54812 1.655299,1.12057 1.158533,2.43957 0.961985,4.18378 0,0 -10.091145,4.89325 -10.091145,4.89325 z"
       inkscape:connector-curvature="0"
       clip-path="url(#clipPath968)"
       transform="matrix(0.06225349,0,0,0.06225349,1.9171965,280.67961)" />
    <path
       style="fill:#800080;stroke-width:0.26458332"
       id="path36"
       d="m 94.262809,180.43453 c 0.480904,1.45524 1.009941,2.8911 1.503733,4.34225 0.466768,1.44918 0.575379,2.96866 0.641715,4.47907 0.0453,1.51208 0.03512,3.02511 0.03164,4.53766 -0.0044,1.51225 -0.0066,3.0245 -0.0079,4.53675 -0.0011,1.51192 -0.0011,3.02383 -0.0011,4.53575 5e-6,1.5119 4.2e-5,3.0238 5.8e-5,4.5357 0.05587,1.44734 0.0043,2.86603 -0.279022,4.28608 -0.296944,1.33736 -0.384839,2.70448 -0.44087,4.06916 -0.02159,0.23668 -0.04317,0.47335 -0.06476,0.71003 0,0 -10.025107,4.9069 -10.025107,4.9069 v 0 c 0.04866,-0.19704 0.09733,-0.39408 0.145992,-0.59112 0.03459,-1.41269 0.07923,-2.83168 0.336415,-4.22498 0.280247,-1.36914 0.557583,-2.68562 0.405611,-4.10068 -1.5e-5,-1.5119 -4.5e-5,-3.02381 -6.6e-5,-4.53572 -2e-6,-1.51216 -5.3e-5,-3.02432 7.94e-4,-4.53649 0.0011,-1.51282 0.0026,-3.02563 0.007,-4.53844 0.0039,-1.49889 0.01392,-2.99801 -0.01458,-4.49673 -0.04287,-1.41129 -0.100531,-2.83584 -0.495845,-4.20131 -0.447881,-1.40208 -0.934077,-2.80337 -1.502849,-4.15717 0,0 9.759159,-5.55671 9.759159,-5.55671 z"
       inkscape:connector-curvature="0"
       clip-path="url(#clipPath964)"
       transform="matrix(0.06225349,0,0,0.06225349,1.9171965,280.67961)" />
    <path
       style="fill:#800080;stroke-width:0.26458332"
       id="path38"
       d="m 88.63627,181.79824 c -1.403688,-1.25717 -2.835912,-2.48149 -4.334335,-3.62374 -1.275199,-0.74049 -2.42973,-1.66695 -3.676288,-2.45049 -1.396158,-0.73304 -2.845347,-1.35588 -4.243953,-2.08345 -1.581587,-0.95751 -2.979248,-2.17183 -4.557311,-3.13676 -1.541425,-0.69585 -2.671897,-1.91177 -3.994758,-2.90992 -1.515004,-1.23523 -3.122597,-2.33327 -4.754576,-3.40437 -1.519041,-0.81139 -3.089661,-1.51125 -4.625713,-2.28994 -1.356799,-0.773 -2.77572,-1.33902 -4.074551,-2.22148 -2.294843,-1.40344 -4.701662,-2.6148 -7.10071,-3.82792 -1.336048,-0.79132 -0.69859,-0.45197 -1.900241,-1.04053 0,0 9.288526,-6.05979 9.288526,-6.05979 v 0 c 1.119183,0.68571 0.525378,0.32249 1.781625,1.08933 2.415508,1.29913 4.899454,2.46176 7.276039,3.83294 1.308902,0.79051 2.737853,1.33071 4.048585,2.12016 1.531393,0.82613 3.151908,1.48175 4.616903,2.42807 1.656815,1.09348 3.285418,2.22833 4.853299,3.44692 1.265254,1.0161 2.456154,2.09196 3.919265,2.83439 1.508692,1.00323 2.906845,2.17631 4.508984,3.03115 1.454023,0.70163 2.933084,1.35987 4.328076,2.17604 1.247047,0.83437 2.486075,1.6802 3.702124,2.55934 1.45416,1.20026 2.872517,2.45232 4.419258,3.53387 0,0 -9.480248,5.99618 -9.480248,5.99618 z"
       inkscape:connector-curvature="0"
       clip-path="url(#clipPath960)"
       transform="matrix(0.06225349,0,0,0.06225349,1.9171965,280.67961)" />
    <path
       style="fill:#800080;stroke-width:0.26458332"
       id="path40"
       d="m 95.571542,170.89084 c 3.3001,-1.82134 8.129028,-4.47934 -7.08361,4.08478 -0.325105,0.18302 0.62748,-0.40405 0.933719,-0.61713 0.780651,-0.54319 1.056881,-0.78206 1.800712,-1.37328 1.514774,-1.19913 2.83895,-2.60475 4.124502,-4.03992 0.883936,-0.91379 1.683624,-1.9066 2.58589,-2.80202 1.268163,-1.3078 2.363845,-2.76404 3.518075,-4.1696 1.27337,-1.38128 2.51957,-2.79044 3.84284,-4.12464 1.24621,-0.98857 1.92096,-2.40922 2.76093,-3.71617 0.98415,-1.45774 2.291,-2.65387 3.50466,-3.91651 1.3193,-1.11964 2.52297,-2.34307 3.62633,-3.67454 2.92213,-3.80273 6.58054,-4.68017 11.65778,-7.08036 0.15351,-0.0726 1.24734,0.72984 1.30571,0.77017 1.2207,0.9959 2.13497,2.2271 2.98371,3.53839 0.92543,1.369 1.18588,2.96864 1.52525,4.54471 0.54975,1.69467 1.16479,3.3682 1.79731,5.03371 0.44528,1.05972 0.73565,2.16607 0.96914,3.28791 0,0 -9.81487,5.23784 -9.81487,5.23784 v 0 c -0.18696,-1.06918 -0.43099,-2.12462 -0.84848,-3.13155 -0.65772,-1.70807 -1.247,-3.44224 -1.9037,-5.15139 -0.35094,-1.43609 -0.45498,-2.9451 -1.32887,-4.20134 -0.76712,-1.14701 -1.56379,-2.27899 -2.72913,-3.06221 -0.17015,-0.0646 -0.33066,-0.16554 -0.51045,-0.19374 -0.13495,-0.0212 -0.524,0.11999 -0.40676,0.0499 3.03593,-1.81552 6.14462,-3.50697 9.19185,-5.30346 0.17211,-0.10146 -0.3874,0.11326 -0.5597,0.21438 -0.50094,0.294 -0.74461,0.63501 -1.12846,1.06153 -1.00505,1.42622 -2.18326,2.73933 -3.54649,3.83258 -1.29382,1.12011 -2.4368,2.45183 -3.60243,3.69541 -0.92807,1.30916 -1.50128,2.8447 -2.67443,3.96123 -1.44256,1.20773 -2.54946,2.74308 -3.9413,4.0063 -1.1581,1.37249 -2.19943,2.83159 -3.38642,4.17739 -0.83336,0.9776 -1.80555,1.83182 -2.60725,2.8412 -1.43082,1.35382 -2.60655,2.96982 -4.1721,4.19195 -4.382183,3.72883 -9.46716,6.56551 -14.694223,8.95655 0,0 8.810265,-6.92805 8.810265,-6.92805 z"
       inkscape:connector-curvature="0"
       clip-path="url(#clipPath956)"
       transform="matrix(0.06225349,0,0,0.06225349,1.9171965,280.67961)" />
    <path
       style="fill:#800080;stroke-width:0.26458332"
       id="path42"
       d="m 58.578125,152.22476 c -0.798944,1.71576 -1.766081,3.34628 -2.766449,4.95065 -0.878054,1.48499 -1.834499,2.92075 -2.722552,4.39961 -0.924033,1.34439 -1.439751,2.83554 -1.861206,4.39182 0,0 -10.053341,4.7691 -10.053341,4.7691 v 0 c 0.495313,-1.58788 0.741008,-3.26029 1.769647,-4.63581 0.826389,-1.53541 1.860563,-2.93733 2.706664,-4.46092 1.011867,-1.51517 1.979353,-3.05811 2.754524,-4.70972 0,0 10.172713,-4.70473 10.172713,-4.70473 z"
       inkscape:connector-curvature="0"
       clip-path="url(#clipPath952)"
       transform="matrix(0.06225349,0,0,0.06225349,1.9171965,280.67961)" />
    <path
       style="fill:#800080;stroke-width:0.26458332"
       id="path44"
       d="m 81.411619,170.60715 c 0.640262,1.53032 0.975828,3.14995 1.201031,4.78573 0.187655,1.58749 0.206015,3.18764 0.218842,4.78404 -0.01791,1.98461 -0.03102,3.96921 -0.05186,5.95381 -0.0433,2.02312 0.09799,4.05011 -0.03342,6.07012 -0.154887,1.61075 -0.496747,3.18355 -0.88074,4.75149 -0.416912,1.55961 -0.953947,3.09423 -1.772562,4.48895 -0.885786,1.43211 -1.974078,2.71747 -2.973076,4.06825 -1.014952,1.38297 -1.742437,2.94049 -2.790838,4.29772 -1.070583,1.35144 -2.205149,2.65082 -3.24979,4.02253 -0.147079,0.19255 -0.294155,0.38511 -0.441235,0.57766 0,0 -10.263478,4.3379 -10.263478,4.3379 v 0 c 0.171281,-0.17517 0.342564,-0.35034 0.513845,-0.52551 1.032343,-1.39015 2.14114,-2.70823 3.205969,-4.07389 1.180494,-1.26663 1.951866,-2.75491 2.837363,-4.23471 0.982321,-1.34275 2.048795,-2.61861 2.957763,-4.01295 0.958393,-1.22706 1.476148,-2.64892 1.944725,-4.12498 0.352647,-1.5425 0.793779,-3.05407 0.965083,-4.63451 0.296156,-1.98004 0.06747,-4.00704 0.153909,-6.00271 -0.01609,-1.96676 -0.01797,-3.93354 -0.03837,-5.90024 -0.0027,-1.55852 -0.0011,-3.12003 -0.141435,-4.67363 -0.170575,-1.50876 -0.407914,-3.03666 -1.120881,-4.39836 0,0 9.759159,-5.55671 9.759159,-5.55671 z"
       inkscape:connector-curvature="0"
       clip-path="url(#clipPath948)"
       transform="matrix(0.06225349,0,0,0.06225349,1.9171965,280.67961)" />
    <path
       style="fill:#800080;stroke-width:0.26458332"
       id="path46"
       d="m 88.215188,176.65477 c 0.715428,1.77761 0.980594,3.68294 1.181884,5.57499 0.128484,3.03841 -1.030492,5.89705 -2.073982,8.69057 -1.652177,4.03461 -3.288816,8.07561 -4.909468,12.12295 -0.990769,2.27402 -1.821294,4.60885 -2.894576,6.84578 -0.640575,1.21942 -1.356966,2.39703 -2.023126,3.60215 -0.564576,1.29462 -1.452835,2.40076 -2.294519,3.52175 -0.906894,1.11538 -1.667981,2.34385 -2.568734,3.46148 -0.163147,0.15058 -0.326297,0.30117 -0.489445,0.45175 0,0 -10.396124,4.07641 -10.396124,4.07641 v 0 c 0.19001,-0.0886 0.380023,-0.17715 0.570036,-0.26573 1.152002,-0.87901 1.651821,-2.26931 2.677182,-3.28318 0.737407,-1.1386 1.684459,-2.14142 2.330656,-3.33026 0.519893,-1.30338 1.363099,-2.46638 2.101765,-3.65413 1.116799,-2.27382 2.126004,-4.58457 3.165129,-6.89692 1.699408,-3.99495 3.328214,-8.01592 4.898194,-12.0638 0.92429,-2.65241 2.109538,-5.30092 2.106001,-8.16187 -0.161144,-1.74384 -0.346943,-3.54723 -1.140029,-5.13523 0,0 9.759156,-5.55671 9.759156,-5.55671 z"
       inkscape:connector-curvature="0"
       clip-path="url(#clipPath944)"
       transform="matrix(0.06225349,0,0,0.06225349,1.9171965,280.67961)" />
    <path
       style="fill:#800080;stroke-width:0.26458332"
       id="path48"
       d="m 95.766799,171.63017 c 1.589778,0.9355 2.840193,2.24787 3.986831,3.66903 1.5442,2.12753 2.34827,4.66008 3.31951,7.07517 1.22032,2.65666 2.62214,5.22032 3.90575,7.846 0.76861,1.77028 1.85341,3.38233 2.93422,4.9739 1.28514,1.65262 2.52195,3.33214 3.66452,5.08659 0.87917,1.49218 1.97988,2.79267 3.16866,4.04265 1.31822,1.34972 2.46869,2.85044 3.71635,4.26502 1.32628,1.52302 2.73903,2.94656 4.29132,4.23599 0.57244,0.61634 1.22179,1.12151 1.92168,1.579 0,0 -9.39289,5.97235 -9.39289,5.97235 v 0 c -0.67789,-0.52127 -1.32389,-1.07198 -1.92253,-1.68501 -1.56973,-1.34445 -2.99373,-2.83665 -4.37353,-4.37438 -1.24462,-1.40076 -2.39714,-2.88491 -3.71754,-4.21522 -1.24456,-1.29757 -2.34714,-2.67714 -3.26249,-4.22991 -1.12535,-1.75166 -2.32437,-3.44423 -3.61351,-5.08044 -1.133515,-1.6294 -2.319708,-3.25502 -3.017968,-5.13027 -1.224168,-2.67759 -2.48649,-5.33368 -3.798461,-7.97062 -0.968288,-2.29738 -1.865511,-4.65743 -3.335499,-6.69392 -1.078648,-1.31051 -2.251144,-2.5351 -3.856053,-3.19315 0,0 9.38163,-6.17278 9.38163,-6.17278 z"
       inkscape:connector-curvature="0"
       clip-path="url(#clipPath940)"
       transform="matrix(0.06225349,0,0,0.06225349,1.9171965,280.67961)" />
    <path
       style="fill:#800080;stroke-width:0.26458332"
       id="path50"
       d="m 108.66004,172.03503 c 0.87888,1.53289 1.58692,3.15384 2.47565,4.68125 0.94148,1.53105 1.73328,3.13402 2.44586,4.78205 0.59604,1.42671 1.2195,2.80339 2.00083,4.13642 0.62962,1.51423 1.64016,2.7896 2.57936,4.11373 1.09284,1.51855 2.2869,2.95475 3.30165,4.52893 0.94617,1.47287 1.77111,3.02256 2.54745,4.5907 0.75324,1.29049 1.69122,2.4404 2.64769,3.57918 1.07998,1.36296 2.32219,2.58348 3.43498,3.91701 1.11137,1.31898 2.47176,2.35222 3.80885,3.42251 1.55587,1.23852 2.98994,2.60133 4.28703,4.10631 1.39878,1.38977 3.04877,2.48224 4.47469,3.84506 0.14917,0.25142 0.29834,0.50285 0.44752,0.75427 0,0 -9.68485,5.53042 -9.68485,5.53042 v 0 c -0.0623,-0.15865 -0.1246,-0.31729 -0.1869,-0.47594 -1.45959,-1.3762 -3.18564,-2.44393 -4.53874,-3.93285 -1.26149,-1.45087 -2.66581,-2.74934 -4.19303,-3.92052 -1.40324,-1.10118 -2.78584,-2.22826 -3.91898,-3.61943 -1.12082,-1.33212 -2.39118,-2.53159 -3.48312,-3.89047 -1.00429,-1.21111 -1.9862,-2.44722 -2.75631,-3.82533 -0.74377,-1.53724 -1.55735,-3.04668 -2.47169,-4.48913 -0.99241,-1.56795 -2.18991,-2.97928 -3.27424,-4.48213 -0.95859,-1.34839 -2.02874,-2.62979 -2.66862,-4.17582 -0.80313,-1.37906 -1.42654,-2.80263 -2.04599,-4.273 -0.67424,-1.61417 -1.43714,-3.1793 -2.3464,-4.67562 -0.87449,-1.48451 -1.54242,-3.08788 -2.529269,-4.50284 0,0 9.646579,-5.72476 9.646579,-5.72476 z"
       inkscape:connector-curvature="0"
       clip-path="url(#clipPath936)"
       transform="matrix(0.06225349,0,0,0.06225349,1.9171965,280.67961)" />
    <path
       style="fill:#800080;stroke-width:0.26458332"
       id="path52"
       d="m 99.58861,190.93384 c 1.04424,1.45894 2.09653,2.91645 3.45166,4.10313 1.59738,1.13926 2.81409,2.51152 3.74996,4.22369 1.30142,2.72718 1.73312,5.71724 2.25412,8.66248 0.32664,2.52869 0.89668,5.01217 1.35223,7.51782 0.4134,1.59075 1.02233,3.12989 1.5618,4.68461 0.56488,1.40682 1.29436,2.73642 1.89209,4.1267 0.6898,1.24922 1.70275,2.28044 2.57732,3.40189 1.60887,2.03779 3.26111,4.03254 5.02861,5.93592 2.76635,3.10791 6.15814,5.47521 9.5949,7.75997 4.42431,3.23126 1.12823,1.30402 -8.30285,6.99328 0,0 9.41912,-6.17724 9.41912,-6.17724 v 0 c -11.42028,7.5767 -6.40154,8.38638 -10.33563,5.05718 -3.35249,-2.47498 -6.6755,-5.01362 -9.5886,-8.01025 -1.87523,-1.8739 -3.7252,-3.76992 -5.35715,-5.86345 -0.95326,-1.18919 -2.07756,-2.27083 -2.76773,-3.64265 -0.57647,-1.42155 -1.29127,-2.78518 -1.89377,-4.19664 -0.58154,-1.60913 -1.14567,-3.23826 -1.6178,-4.87904 -0.37076,-2.53787 -0.888325,-5.05144 -1.159213,-7.60419 -0.499933,-2.81061 -0.981155,-5.65485 -2.239658,-8.24593 -0.924703,-1.57842 -2.138167,-2.80967 -3.605223,-3.90709 -1.34901,-1.2986 -2.420861,-2.81781 -3.660762,-4.21543 0,0 9.646576,-5.72476 9.646576,-5.72476 z"
       inkscape:connector-curvature="0"
       clip-path="url(#clipPath932)"
       transform="matrix(0.06225349,0,0,0.06225349,1.9171965,280.67961)" />
    <path
       style="fill:#800080;stroke-width:0.26458332"
       id="path54"
       d="m 87.535868,190.11393 c 0.998154,1.30345 2.001435,2.83314 2.125065,4.52619 0.03364,0.46067 -0.03571,0.92311 -0.05357,1.38466 -0.866838,4.11091 -2.210514,8.12116 -3.609686,12.07935 -1.024398,2.75541 -2.208961,5.42807 -3.879226,7.85214 -1.077574,1.59842 -2.242748,3.12348 -3.577772,4.51442 -1.256221,1.3577 -2.533841,2.69495 -3.825253,4.01914 -1.298033,1.45385 -2.832159,2.65827 -4.220742,4.01691 -1.329402,1.40387 -2.689167,2.78084 -3.983733,4.21706 -1.227442,1.40684 -2.310726,2.92694 -3.375137,4.4581 -0.449643,0.65176 -0.749712,1.38401 -1.066038,2.10465 0,0 -10.144508,4.60164 -10.144508,4.60164 v 0 c 0.398486,-0.73758 0.647115,-1.51741 1.047975,-2.25509 1.006996,-1.60031 2.151875,-3.11723 3.338713,-4.58759 1.214216,-1.51268 2.65053,-2.82916 3.934934,-4.2824 1.345658,-1.42829 2.912692,-2.58441 4.24693,-4.02552 1.283674,-1.31105 2.560373,-2.62924 3.79593,-3.98604 1.310036,-1.411 2.698824,-2.74581 3.701968,-4.41833 1.82236,-2.3359 3.141342,-4.94705 4.258021,-7.68855 1.46122,-3.80368 2.659674,-7.71646 3.515551,-11.70193 0.27727,-2.15775 -0.282419,-3.42676 -1.780141,-4.97613 0,0 9.55072,-5.85268 9.550719,-5.85268 z"
       inkscape:connector-curvature="0"
       clip-path="url(#clipPath928)"
       transform="matrix(0.06225349,0,0,0.06225349,1.9171965,280.67961)" />
    <path
       style="fill:#800080;stroke-width:0.26458332"
       id="path56"
       d="m 76.014669,202.7793 c -0.331261,1.56322 -0.855776,3.07033 -1.173168,4.63673 -0.167494,1.95987 -0.873508,3.70843 -1.882145,5.37291 -1.159441,1.6016 -2.433995,3.10864 -3.544067,4.7473 -1.05478,1.62209 -2.363433,3.0507 -3.54892,4.57377 -1.03229,1.55218 -2.13755,3.04539 -3.275124,4.52138 -0.918561,1.24147 -2.0277,2.32567 -2.985264,3.53471 -0.718603,1.43139 -1.508601,2.78962 -2.483625,4.06497 -1.143093,1.19493 -2.288218,2.36021 -3.334113,3.64425 0,0 -10.239539,4.41342 -10.239539,4.41342 v 0 c 0.955765,-1.38269 2.065444,-2.6404 3.377367,-3.7007 1.003109,-1.19955 1.979083,-2.4341 2.457122,-3.94893 0.779915,-1.37824 2.011209,-2.41288 3.03027,-3.61366 1.080368,-1.52087 2.362718,-2.89879 3.269483,-4.54392 1.16669,-1.52319 2.440667,-2.95253 3.569395,-4.50475 1.105789,-1.64914 2.25443,-3.25546 3.573844,-4.74457 1.063884,-1.49926 1.931937,-3.06288 2.013913,-4.94698 0.260538,-1.57067 0.781857,-3.06315 1.083429,-4.61267 0,0 10.091142,-4.89326 10.091142,-4.89326 z"
       inkscape:connector-curvature="0"
       clip-path="url(#clipPath924)"
       transform="matrix(0.06225349,0,0,0.06225349,1.9171965,280.67961)" />
    <path
       style="fill:#800080;stroke-width:0.26458332"
       id="path58"
       d="m 85.939745,119.25962 c 0.949511,0.18783 0.459836,0.059 1.464014,0.40494 0,0 -9.179877,6.28639 -9.179877,6.28639 v 0 c -0.981364,-0.21941 -0.486209,-0.12598 -1.48557,-0.27972 0,0 9.201433,-6.41161 9.201433,-6.41161 z"
       inkscape:connector-curvature="0"
       clip-path="url(#clipPath920)"
       transform="matrix(0.06225349,0,0,0.06225349,1.9171965,280.67961)" />
    <path
       style="fill:#800080;stroke-width:0.26458332"
       id="path60"
       d="m 98.055783,123.11867 c -0.130566,0.41716 1.642327,4.27209 0.741826,2.23899 -12.05824,7.73566 -9.422699,8.71432 -9.269997,3.48362 0,0 9.945454,-5.05102 9.945454,-5.05102 v 0 c 0.01556,5.66362 0.374404,2.93809 -9.622779,8.48555 -0.91046,-1.07462 -1.062903,-2.40252 -1.580086,-3.69261 0,0 9.785582,-5.46453 9.785582,-5.46453 z"
       inkscape:connector-curvature="0"
       clip-path="url(#clipPath916)"
       transform="matrix(0.06225349,0,0,0.06225349,1.9171965,280.67961)" />
    <path
       style="fill:#800080;stroke-width:0.26458332"
       id="path62"
       d="m 88.908085,114.98917 c -0.07963,1.63829 -0.127376,3.27313 0.135628,4.89534 0.117292,0.70729 0.239876,1.40908 0.403442,2.10703 0,0 -9.796391,5.30533 -9.796391,5.30533 v 0 c -0.200261,-0.72598 -0.338207,-1.44937 -0.442558,-2.19591 -0.281477,-1.66801 -0.249002,-3.33193 -0.294865,-5.01922 0,0 9.994744,-5.09257 9.994744,-5.09257 z"
       inkscape:connector-curvature="0"
       clip-path="url(#clipPath912)"
       transform="matrix(0.06225349,0,0,0.06225349,1.9171965,280.67961)" />
    <path
       style="fill:#800080;stroke-width:0.26458332"
       id="path64"
       d="m 86.64023,212.50702 c -0.02138,1.62281 -0.322006,3.21912 -0.740503,4.78143 -0.582983,1.71344 -1.150432,3.43287 -1.666507,5.16812 -0.306422,1.40132 -0.838745,2.73291 -1.134917,4.13578 -0.24507,1.40328 -0.259559,2.83206 -0.27813,4.25234 -0.01045,1.50777 -0.0037,3.0156 -7.94e-4,4.52339 0.003,1.51307 0.0038,3.02614 0.0043,4.53921 2.65e-4,1.51204 2.65e-4,3.02408 2.65e-4,4.53612 -2.2e-5,1.25992 -3.5e-5,2.51983 -4.5e-5,3.77974 0,0 -9.921748,5.05538 -9.921748,5.05538 v 0 c 8e-6,-1.25992 1.8e-5,-2.51983 4.2e-5,-3.77975 2.6e-5,-1.51196 9e-5,-3.02392 -9.5e-5,-4.53588 -2.65e-4,-1.51254 -7.94e-4,-3.02507 -0.0033,-4.53761 -0.0028,-1.51096 -0.0087,-3.02191 -0.0072,-4.53288 0.007,-1.47191 0.0072,-2.94859 0.179136,-4.41262 0.221242,-1.47735 0.750255,-2.82975 1.135856,-4.26045 0.475319,-1.73788 1.039972,-3.46129 1.653233,-5.15177 0.413264,-1.44981 0.857922,-2.94767 0.785633,-4.46797 0,0 9.994746,-5.09258 9.994746,-5.09258 z"
       inkscape:connector-curvature="0"
       clip-path="url(#clipPath908)"
       transform="matrix(0.06225349,0,0,0.06225349,1.9171965,280.67961)" />
    <path
       style="fill:#800080;stroke-width:0.26458332"
       id="path66"
       d="m 98.832658,207.56479 c 0.912276,1.5597 1.875892,3.08744 2.639102,4.72772 0.7238,1.62657 0.88525,3.37637 0.96849,5.13028 0.0482,1.86908 0.0347,3.73957 0.037,5.60927 -0.0602,1.40963 0.32572,2.7794 0.52478,4.165 0.1852,1.45716 0.20965,2.92762 0.22937,4.39434 0.0128,1.51135 0.008,3.02277 0.007,4.53416 -0.002,1.51264 -0.003,3.02528 -0.003,4.53792 0.0474,0.79055 -0.0615,1.57119 -0.17606,2.35013 0,0 -10.000668,4.89109 -10.000668,4.89109 v 0 c 0.133477,-0.72399 0.324676,-1.44258 0.254902,-2.18612 2.65e-4,-1.51296 7.94e-4,-3.02592 0.0028,-4.53888 0.0019,-1.50671 0.0059,-3.01345 -0.0027,-4.52015 -0.01394,-1.42232 -0.02762,-2.84786 -0.181912,-4.26341 -0.185631,-1.44333 -0.60299,-2.86546 -0.546878,-4.32825 0.0168,-1.85469 0.03764,-3.70965 -0.01146,-5.56408 -0.06144,-1.61234 -0.156708,-3.24108 -0.762773,-4.75789 -0.698711,-1.58089 -1.606394,-3.06032 -2.624074,-4.45637 0,0 9.646579,-5.72476 9.646579,-5.72476 z"
       inkscape:connector-curvature="0"
       clip-path="url(#clipPath904)"
       transform="matrix(0.06225349,0,0,0.06225349,1.9171965,280.67961)" />
    <ellipse
       style="fill:#800080;stroke-width:0.26458332"
       id="path68"
       cx="92.693291"
       cy="129.53017"
       rx="18.865969"
       ry="20.686184"
       clip-path="url(#clipPath900)"
       transform="matrix(0.06225349,0,0,0.06225349,1.9171965,280.67961)" />
    <path
       sodipodi:type="star"
       style="fill:#ffff00;stroke-width:0.26458332"
       id="path77"
       sodipodi:sides="5"
       sodipodi:cx="83.710663"
       sodipodi:cy="59.653179"
       sodipodi:r1="14.602955"
       sodipodi:r2="7.301477"
       sodipodi:arg1="0.63231073"
       sodipodi:arg2="1.2606293"
       inkscape:flatsided="false"
       inkscape:rounded="0"
       inkscape:randomized="0"
       d="m 95.490341,68.283676 -9.551138,-1.677427 -6.79651,6.91704 -1.356135,-9.602026 -8.678734,-4.326382 8.713,-4.25695 1.432758,-9.590892 6.741066,6.971086 9.564226,-1.601115 -4.546792,8.565318 z"
       inkscape:transform-center-x="0.062304792"
       inkscape:transform-center-y="-0.00056253068"
       transform="matrix(0.04523639,0,0,0.03108637,2.9851086,284.85096)"
       clip-path="url(#clipPath896)" />
    <path
       sodipodi:type="star"
       style="fill:#ffff00;stroke-width:0.26458332"
       id="path75-1"
       sodipodi:sides="5"
       sodipodi:cx="94.494041"
       sodipodi:cy="93.648811"
       sodipodi:r1="20.259317"
       sodipodi:r2="10.129659"
       sodipodi:arg1="1.5278189"
       sodipodi:arg2="2.1561374"
       inkscape:flatsided="false"
       inkscape:rounded="0"
       inkscape:randomized="0"
       d="m 95.364467,113.88942 -6.466897,-11.7973 -13.384517,-1.36079 9.221518,-9.795953 -2.841851,-13.14994 12.166108,5.743069 11.628152,-6.766315 -1.70244,13.345362 10.02844,8.968127 -13.21828,2.50482 z"
       inkscape:transform-center-x="-0.0048071785"
       inkscape:transform-center-y="0.050057242"
       transform="matrix(0.01787014,0,0,0.0298497,5.7297778,288.70204)"
       clip-path="url(#clipPath892)" />
    <path
       sodipodi:type="star"
       style="fill:#ffff00;stroke-width:0.26458332"
       id="path75-4"
       sodipodi:sides="5"
       sodipodi:cx="94.494041"
       sodipodi:cy="93.648811"
       sodipodi:r1="20.259317"
       sodipodi:r2="10.129659"
       sodipodi:arg1="1.5278189"
       sodipodi:arg2="2.1561374"
       inkscape:flatsided="false"
       inkscape:rounded="0"
       inkscape:randomized="0"
       d="m 95.364467,113.88942 -6.466897,-11.7973 -13.384517,-1.36079 9.221518,-9.795953 -2.841851,-13.14994 12.166108,5.743069 11.628152,-6.766315 -1.70244,13.345362 10.02844,8.968127 -13.21828,2.50482 z"
       inkscape:transform-center-x="-0.010188004"
       inkscape:transform-center-y="0.053121474"
       transform="matrix(0.03787742,0,0,0.03167622,4.2647253,290.05092)"
       clip-path="url(#clipPath888)" />
    <path
       style="fill:#800080;stroke-width:0.26458332"
       id="path100"
       d="m 91.84003,55.462852 c -0.593973,1.673728 -1.477237,3.211081 -2.277451,4.789376 -0.879374,1.520987 -1.713603,3.069291 -2.62237,4.572902 -0.788699,1.527768 -1.996141,2.748603 -3.034051,4.097266 -1.393608,1.951482 -2.677753,3.977119 -3.945496,6.011529 -1.288619,2.013334 -2.409536,4.12835 -3.490113,6.258775 -0.748509,1.627216 -1.674921,3.160117 -2.497087,4.747956 -0.686523,1.376642 -0.807657,2.918634 -1.124808,4.400975 -0.386191,1.823877 -1.060593,3.56134 -1.586883,5.34388 -0.07431,0.239215 -0.148482,0.478472 -0.222933,0.717642 -0.05463,0.175512 -0.07785,0.664771 -0.188722,0.518155 -0.05474,-0.07239 -0.04186,-0.57966 -0.03956,-0.585012 0.04007,-0.09319 0.159244,-0.125712 0.238866,-0.188569 1.169664,-0.335549 2.401948,-0.377541 3.610646,-0.433821 1.509951,-0.05374 3.021151,-0.05101 4.531834,-0.05151 1.516859,0.0011 3.033715,0.0033 4.550571,0.0044 1.648624,-0.0024 3.297198,0.0057 4.945764,0.01834 1.840047,0.0046 3.68009,-0.0057 5.520124,-0.01122 1.729097,-0.103484 3.404721,0.06707 5.066646,0.548153 2.190823,0.549992 4.153053,1.714603 6.133843,2.76134 1.90007,1.081841 3.76238,2.226001 5.62371,3.369421 3.91372,-0.15371 0.32351,-0.0459 -9.4858,5.34943 -0.0387,0.0213 -0.84524,-2.2781 -0.8834,-2.39523 -1.08699,-4.05225 -2.129954,-8.113972 -3.356385,-12.127643 -0.935603,-2.865003 -1.830567,-5.744998 -2.291564,-8.72826 -0.128272,-1.432213 -0.230433,-2.822837 -1.230056,-3.912354 -1.35179,-0.882721 -2.613038,-1.882923 -3.835315,-2.935094 -1.736394,-1.795806 -3.07825,-3.958796 -4.350554,-6.097571 -1.651892,-3.266329 -3.483073,-6.443192 -5.156488,-9.699784 -0.166569,-0.298892 -0.30988,-0.611989 -0.499706,-0.896681 -0.09243,-0.13862 -0.186153,-0.304803 -0.341527,-0.36495 -0.06773,-0.02622 -0.160194,0.229798 -0.09617,0.195514 11.73185,-6.28219 9.267632,-8.86986 9.771097,-4.371637 0.212908,1.620748 0.262895,3.25754 0.289761,4.890254 -0.01421,1.995382 0.345676,3.965919 0.566603,5.943272 0.156742,1.640128 0.186113,3.280595 0.412247,4.913246 0.312695,1.816196 0.45807,3.64784 0.507762,5.48784 0.04895,1.899327 0.06974,3.799189 0.08112,5.699061 0.08383,1.582359 -0.05296,3.130682 -0.566671,4.631555 -0.460378,1.433994 -1.234303,2.729251 -1.871147,4.086947 -0.809752,1.534398 -1.751052,3.006455 -2.823241,4.37092 -1.099701,1.456248 -2.343664,2.792105 -3.600604,4.111695 -3.258256,3.24262 -7.274028,4.81621 -11.561241,7.08613 -0.654492,0.34653 -1.564291,-0.49372 -1.961811,-0.85464 -0.951315,-1.23875 -1.048041,-2.79164 -1.131552,-4.29276 -0.03594,-1.58545 -0.08566,-3.174915 0.05326,-4.755766 0.292404,-1.710801 0.421701,-3.443095 0.664184,-5.159698 0.250182,-2.06221 0.996796,-3.943485 1.886857,-5.801233 2.240571,-5.015989 3.599596,-4.56965 11.639473,-7.368635 0.247566,-0.08619 0.788668,1.421625 1.221701,2.523575 1.136679,3.90585 1.441,7.98355 1.752467,12.020637 0.173556,2.294183 0.244002,4.593841 0.265356,6.89388 -0.07787,1.52211 0.04292,3.00901 0.29327,4.50727 0.421404,2.38594 0.294341,4.82236 0.358052,7.23393 0.120899,4.82017 0.491326,9.63342 0.550273,14.45474 -0.302644,5.80166 -3.317994,4.99946 -10.730585,8.43085 -0.193235,0.0894 -1.128273,-1.01933 -1.189373,-1.0869 -0.859073,-1.30319 -1.17979,-2.83318 -1.868011,-4.22676 -0.800198,-1.62429 -1.780871,-3.14395 -2.633038,-4.74283 -0.849207,-1.45012 -1.361578,-3.03672 -1.979192,-4.58499 -0.510699,-1.30463 -0.891074,-2.66173 -1.256533,-4.01412 -1.021008,-3.30548 -3.578603,0.71885 9.58963,-5.77 0.116549,-0.0574 0.09715,0.24106 0.149183,0.36011 0.0716,0.16385 0.147775,0.32567 0.221665,0.4885 0.586914,1.29762 1.068916,2.61312 1.364329,4.00745 0.294132,1.53225 0.253325,3.09662 0.37429,4.64497 0.222721,1.1989 0.22542,2.51111 0.590881,3.64974 -11.683037,6.5726 -9.832877,7.69609 -9.80341,1.69137 0.0044,-1.55276 -0.0132,-3.10551 0.0039,-4.6582 -0.01646,-1.94807 0.319591,-3.87377 0.523061,-5.80588 0.188018,-1.99391 0.506423,-3.97876 0.949155,-5.93203 0.469646,-2.11295 1.190755,-4.15113 1.652294,-6.26645 0.414459,-2.83297 0.768178,-5.678457 1.096682,-8.523787 0.113027,-1.793345 0.368205,-3.564231 0.784434,-5.311618 0.49362,-1.540328 0.766778,-3.134162 1.117124,-4.709806 0.480451,-1.643224 0.959977,-3.27524 1.217573,-4.970282 0.03799,-0.718204 0.365847,-1.401395 0.421801,-2.114865 0.0098,-0.125082 -0.147659,-0.322477 -0.03367,-0.374894 10.500799,-4.828476 9.965539,-8.005738 10.341412,-3.481916 0.130281,2.039527 -0.81321,3.963048 -0.718325,5.989177 0.05237,0.133868 0.07693,0.282294 0.157104,0.401605 0.044,0.06549 0.125822,0.157872 0.198948,0.128244 0.0818,-0.03314 0.05363,-0.169143 0.09474,-0.24724 0.04975,-0.09451 0.270248,-0.318328 0.176278,-0.267562 -5.238265,2.829925 -12.645051,7.136963 -9.040328,5.042101 0.790853,-0.982586 1.228228,-2.191557 1.718969,-3.341564 1.752936,-4.417578 7.462467,-9.851903 12.239053,-8.00631 1.521873,0.793126 2.415818,2.23311 3.439457,3.538075 1.013309,1.205656 1.311042,2.689296 1.656418,4.173328 0.481693,1.921619 0.614969,3.889341 0.687234,5.860717 -0.135765,2.414291 0.431663,4.726506 0.950852,7.059914 0.403352,1.731563 0.573976,3.499061 0.657119,5.270894 0.05201,1.518769 0.0431,3.038739 0.04011,4.558139 -0.0011,5.22958 1.341918,1.87106 -10.016048,6.85462 -0.105003,0.0461 -0.224227,-0.66894 -0.339135,-1.26884 -0.187071,-1.37951 -0.611601,-2.70564 -0.836126,-4.08075 -0.18718,-1.5857 -0.937083,-2.90457 -1.730597,-4.24955 -0.208839,-0.27235 -1.783869,-3.196482 -2.092817,-3.010261 -0.121124,0.07301 -0.01521,0.282446 -0.02281,0.423667 14.802238,-8.463634 9.57245,-8.268187 9.066656,-3.732958 -0.128402,1.151307 -0.123168,2.319144 -0.139022,3.475656 -0.02944,2.215176 -0.01132,4.430046 0.01497,6.645176 0.207063,4.82066 1.893163,1.08095 -9.955075,6.13971 -0.188737,0.0806 -0.0689,-0.40468 -0.10986,-0.60578 -0.05383,-0.26423 -0.116308,-0.52664 -0.174461,-0.78996 -0.391017,-1.85363 -0.998992,-3.64862 -1.430856,-5.49156 -0.230563,-1.59406 -0.607523,-3.15982 -0.891138,-4.744344 -0.137416,-1.56482 -0.520451,-3.088113 -0.747964,-4.638823 -0.146737,-1.873398 -0.475697,-3.721417 -0.747985,-5.578634 -0.149574,-1.642321 -0.347421,-3.264521 -0.648684,-4.885724 -0.279297,-1.506085 -0.328607,-3.034564 -0.612571,-4.539091 -0.329681,-1.51488 -0.474197,-3.056731 -0.556959,-4.601866 0.03376,-1.948024 0.844103,-3.770313 1.408303,-5.608389 0.34402,-1.458179 1.228821,-2.600481 2.130267,-3.746947 0.739576,-1.051216 0.830281,-2.329918 0.912021,-3.571695 0.02164,-4.527603 -1.389036,-0.912805 10.077982,-5.987558 0.123573,-0.05469 1.262438,2.218002 1.375624,2.441509 1.065353,2.595949 2.58187,4.949378 3.904128,7.411606 1.160727,1.749139 2.084599,3.618963 2.921445,5.539613 1.00925,2.613938 2.47585,4.999056 3.96609,7.357883 0.99182,1.707962 2.09495,3.345825 3.10757,5.041259 0.78967,1.560134 1.67871,3.078877 2.24137,4.740209 0.42507,1.452449 0.47269,2.970202 0.50741,4.472006 0.0184,1.509818 0.006,3.019809 5.3e-4,4.529677 -0.0907,1.504521 0.0437,2.974149 0.29057,4.454799 0.27058,1.52025 0.36743,3.06125 0.42411,4.60179 0.0421,1.51683 0.0386,3.03442 0.0382,4.55168 -0.002,1.51189 -0.003,3.02378 -0.004,4.53567 -0.0188,0.56168 -0.009,1.13885 0.0817,1.68614 0,0 -10.08678,5.13817 -10.08678,5.13817 v 0 c 0.19549,-0.54953 0.005,-1.20746 0.0831,-1.76946 7.9e-4,-1.51191 0.002,-3.02383 0.004,-4.53574 0.002,-1.50659 0.006,-3.01334 -0.0217,-4.51974 -0.0395,-1.49499 -0.10408,-2.99284 -0.3524,-4.47046 -0.25894,-1.5378 -0.510251,-3.05242 -0.38014,-4.6209 0.005,-1.50212 0.0153,-3.00428 0.007,-4.50641 -0.0189,-1.399357 -0.0278,-2.814703 -0.359058,-4.18279 -0.478763,-1.595969 -1.301628,-3.061927 -2.045586,-4.544959 -1.050391,-1.669934 -2.114156,-3.333745 -3.06411,-5.06335 -1.460352,-2.428245 -2.865626,-4.892117 -3.985321,-7.500162 -0.907021,-1.865686 -1.941343,-3.655915 -2.947183,-5.468948 -1.230593,-2.497331 -2.687844,-4.879412 -3.89567,-7.389974 -0.345471,-0.595688 -0.627673,-1.132295 -1.037989,-1.67822 -0.113292,-0.150733 -0.530567,-0.319022 -0.374132,-0.424302 11.156421,-7.508158 9.733883,-9.266174 9.478354,-4.850646 -0.04472,1.38366 -0.08222,2.802641 -0.628436,4.097369 -0.691435,1.24002 -1.934268,2.091442 -2.368978,3.497218 -0.505309,1.745729 -1.219549,3.444753 -1.510596,5.242345 0.0597,1.495412 0.162864,2.992028 0.478253,4.459034 0.305789,1.510789 0.406312,3.02773 0.615312,4.553847 0.294182,1.644319 0.56878,3.273036 0.637043,4.946663 0.238804,1.856756 0.629946,3.688929 0.760042,5.558179 0.234018,1.542222 0.65406,3.048061 0.75698,4.60861 0.252926,1.577007 0.674624,3.118781 0.840764,4.709522 0.3795,1.837324 0.97395,3.616254 1.417087,5.437894 0.186233,0.57785 0.429221,1.30623 0.397981,1.3258 -11.847255,7.42639 -9.935678,9.09473 -9.788419,4.26724 0.01286,-2.22733 0.0058,-4.45458 0.01244,-6.68172 0.138993,-8.317117 -1.360046,-4.540597 9.977075,-11.422471 1.239848,0.95472 1.798238,2.440911 2.657019,3.71292 0.862241,1.461095 1.715339,2.886397 1.974792,4.598521 0.195456,1.36543 0.610312,2.67117 0.842418,4.02568 0.869778,4.32948 0.394657,0.50703 -9.677297,6.13535 -0.0673,0.0376 0.194842,0.008 0.222179,-0.0642 0.157972,-0.41655 -0.137478,-0.92724 0.02524,-1.33626 0.0038,-1.50746 0.01331,-3.01512 -0.01318,-4.52243 -0.04745,-1.72424 -0.153184,-3.4493 -0.493086,-5.14468 C 88.561166,96.8391 87.881062,94.471764 88.014933,92.005601 87.922702,90.122861 87.808362,88.229283 87.328289,86.39748 86.977351,85.073865 86.8448,83.701958 85.911088,82.613388 85.102252,81.537581 84.32108,80.145786 82.89763,79.86346 c -3.689782,1.353044 -0.101955,0.06249 8.728937,-5.200984 0.185836,-0.110762 -0.418396,0.136795 -0.592164,0.265671 -0.568021,0.421264 -0.827534,1.150414 -1.118129,1.758902 -0.413134,1.242362 -1.00742,2.420443 -1.537721,3.612952 -1.558624,4.081743 -0.218961,0.902729 -10.215859,6.203987 -0.60116,0.318788 -1.493348,-1.315768 -1.562333,-1.69613 -0.193169,-2.048431 0.699111,-3.931902 0.737746,-5.969926 -0.514874,-4.462518 -0.249894,-0.285425 9.987878,-5.919819 0.09623,-0.05296 -0.202695,-0.203957 -0.29567,-0.145474 -0.50787,0.319466 -0.271285,1.525143 -0.574566,1.972239 -0.211016,1.730401 -0.59454,3.422375 -1.203047,5.059963 -0.337482,1.590664 -0.571781,3.205218 -1.0667,4.757571 -0.547026,1.682311 -0.774829,3.451357 -0.942112,5.206883 -0.389964,2.870991 -0.894236,5.724438 -1.116531,8.615998 -0.366834,2.129877 -0.955937,4.183927 -1.534298,6.260517 -0.477157,1.90375 -0.852651,3.82991 -0.9906,5.7924 -0.19876,1.89741 -0.597902,3.7868 -0.568319,5.69693 0.02138,1.54787 0.01198,3.09595 0.02527,4.64392 0.04166,6.27908 0.560626,3.81709 -9.989621,8.88335 -0.392105,-1.27746 -0.186179,-2.71724 -0.563772,-4.00767 -0.228049,-1.50847 -0.112503,-3.04119 -0.36019,-4.55114 -0.243718,-1.31939 -0.690891,-2.54105 -1.280168,-3.74521 -0.01524,-0.0315 -0.501499,-1.03596 -0.50061,-1.0366 6.098227,-4.37922 8.900104,-9.7969 10.075336,-4.86957 0.340132,1.31688 0.753977,2.61778 1.197464,3.9018 0.582242,1.51909 1.035508,3.08106 1.872139,4.49642 0.856766,1.61219 1.810872,3.15583 2.693535,4.75251 0.620702,1.28335 0.966935,2.66876 1.694103,3.8817 2.887123,2.2313 13.476115,-7.6485 -8.540268,5.6789 -0.174178,0.10544 0.435657,-0.0365 0.585356,-0.17453 0.518041,-0.4776 0.585975,-1.5378 0.698772,-2.10078 0.256972,-4.79621 -0.142144,-9.6073 -0.489704,-14.39019 -0.209084,-2.32499 -0.246782,-4.6653 -0.593529,-6.97629 -0.263361,-1.56043 -0.504523,-3.09526 -0.355142,-4.6863 0.03113,-2.31667 0.06885,-4.63424 -0.0072,-6.950544 -0.163218,-3.916265 -0.40309,-7.895566 -1.671494,-11.635491 -0.183679,-0.388914 -0.338162,-0.793004 -0.551032,-1.166736 -0.101632,-0.178438 -0.55817,-0.366644 -0.38667,-0.479586 2.99031,-1.969323 6.221949,-3.546279 9.293569,-5.38621 0.168812,-0.101122 -0.410917,0.04162 -0.568331,0.159702 -0.567819,0.425955 -0.802018,1.203518 -1.070948,1.800506 -0.86359,1.764916 -1.68053,3.49691 -1.912647,5.476515 -0.363722,1.675421 -0.346784,3.417776 -0.704754,5.09978 -0.20959,1.517602 -0.0991,3.057186 -0.106141,4.586203 0.04224,1.132919 -0.01691,2.460109 0.691703,3.407671 0.312164,0.14055 0.33424,0.2086 0.709295,0.10774 0.176602,-0.0475 0.661776,-0.30872 0.504711,-0.21506 -16.075853,9.58695 -10.393804,6.54027 -7.369413,4.12055 1.244032,-1.28573 2.490111,-2.57548 3.595929,-3.98456 1.035523,-1.344503 2.0898,-2.660948 2.917803,-4.155947 0.654365,-1.315093 1.335871,-2.625114 1.882984,-3.982501 0.576633,-1.39369 0.930643,-2.755741 0.783527,-4.290716 0.01066,-1.895562 0.02984,-3.79168 -0.02148,-5.686843 -0.07561,-1.790049 -0.17539,-3.582662 -0.483492,-5.350748 -0.284715,-1.652214 -0.350292,-3.298534 -0.426479,-4.973103 -0.180845,-2.010439 -0.542372,-4.006672 -0.596858,-6.02376 -0.0486,-1.578528 -0.08186,-3.16284 -0.325493,-4.726485 -0.03139,-0.186743 -0.06015,-0.373944 -0.09417,-0.560224 -0.03153,-0.172648 -0.247441,-0.417555 -0.102452,-0.516448 7.8599,-5.361167 8.519183,-9.331219 10.792833,-4.116536 1.505563,3.29188 3.234462,6.496122 5.01089,9.645881 1.320097,1.983316 2.692694,3.986416 4.359312,5.69523 1.296205,1.065249 2.697755,1.978795 3.995015,3.0368 1.09578,1.30085 1.43156,2.842122 1.47321,4.528698 0.30317,2.978912 1.01565,5.886077 1.87188,8.752372 1.16549,3.985186 2.32858,7.972165 3.6458,11.910168 0.28991,0.763132 0.61734,1.441962 1.00158,2.158092 0.1136,0.21173 0.5397,0.49891 0.34154,0.63481 -9.29057,6.37147 -6.79755,8.14862 -10.07759,5.62372 -1.675516,-1.28848 -3.509272,-2.36369 -5.361292,-3.37472 -1.964086,-0.98137 -3.925964,-2.01603 -6.091409,-2.47925 -1.631378,-0.32514 -3.268792,-0.36149 -4.929251,-0.31733 -1.829752,-0.005 -3.65951,-0.0157 -5.489273,-0.0113 -1.664494,0.0123 -3.328998,0.0204 -4.993542,0.0153 -1.515936,-0.002 -3.031874,-0.005 -4.547809,-0.002 -1.499693,0.006 -3.001116,0.0102 -4.497766,0.11734 -1.210051,0.10906 -2.40742,0.28109 -3.566578,0.66032 -1.578351,-0.0596 -1.514549,-1.47244 -0.8997,-2.52213 0.463754,-1.789395 1.273183,-3.457091 1.602886,-5.283792 0.345379,-1.551038 0.483819,-3.14384 1.03216,-4.643348 0.735307,-1.649584 1.779252,-3.135175 2.530383,-4.780198 1.068525,-2.188091 2.283216,-4.306453 3.531023,-6.396267 1.269061,-2.007934 2.467573,-4.060828 3.816503,-6.017557 0.921523,-1.438833 2.215539,-2.553197 3.047688,-4.047111 0.967158,-1.446893 1.713339,-3.019777 2.653517,-4.483762 0.812112,-1.510088 1.738286,-3.001478 2.23166,-4.644958 0,0 10.172716,-4.704734 10.172716,-4.704734 z"
       inkscape:connector-curvature="0"
       clip-path="url(#clipPath884)"
       transform="matrix(0.06225349,0,0,0.06225349,1.9171965,280.67961)" />
    <path
       sodipodi:type="star"
       style="fill:#ffff00;stroke-width:0.26458332"
       id="path102"
       sodipodi:sides="5"
       sodipodi:cx="72.839066"
       sodipodi:cy="87.168304"
       sodipodi:r1="9.1791792"
       sodipodi:r2="4.5895891"
       sodipodi:arg1="0.73603189"
       sodipodi:arg2="1.3643504"
       inkscape:flatsided="false"
       inkscape:rounded="0"
       inkscape:randomized="0"
       d="m 79.642108,93.330767 -5.862257,-1.670331 -4.69938,3.882252 -0.222958,-6.091498 -5.144429,-3.269695 5.724461,-2.094422 1.519949,-5.903034 3.760869,4.797074 6.083809,-0.37858 -3.400116,5.059176 z"
       inkscape:transform-center-x="0.036196974"
       inkscape:transform-center-y="-0.018985109"
       clip-path="url(#clipPath880)"
       transform="matrix(0.06225349,0,0,0.06225349,1.9171965,280.67961)" />
    <path
       sodipodi:type="star"
       style="fill:#ffff00;stroke-width:0.26458332"
       id="path104"
       sodipodi:sides="5"
       sodipodi:cx="92.896736"
       sodipodi:cy="104.3407"
       sodipodi:r1="7.3804522"
       sodipodi:r2="3.6902261"
       sodipodi:arg1="-0.20479274"
       sodipodi:arg2="0.42352579"
       inkscape:flatsided="false"
       inkscape:rounded="0"
       inkscape:randomized="0"
       d="m 100.12296,102.83978 -3.862046,3.01752 0.296308,4.89214 -4.063269,-2.74056 -4.561136,1.79356 1.350807,-4.71128 -3.115245,-3.78366 4.898114,-0.17117 2.635809,-4.131989 1.676394,4.605489 z"
       inkscape:transform-center-x="-0.015496388"
       inkscape:transform-center-y="-0.028875383"
       clip-path="url(#clipPath876)"
       transform="matrix(0.06225349,0,0,0.06225349,1.9171965,280.67961)" />
    <path
       sodipodi:type="star"
       style="fill:#ffff00;stroke-width:0.26458332"
       id="path106"
       sodipodi:sides="5"
       sodipodi:cx="95.490341"
       sodipodi:cy="68.283676"
       sodipodi:r1="6.4246478"
       sodipodi:r2="3.2123239"
       sodipodi:arg1="1.017951"
       sodipodi:arg2="1.6462696"
       inkscape:flatsided="false"
       inkscape:rounded="0"
       inkscape:randomized="0"
       d="m 98.863993,73.751269 -3.615866,-2.264414 -3.91526,1.694934 1.036221,-4.138636 -2.821859,-3.199869 4.256286,-0.293404 2.171255,-3.672562 1.594308,3.957302 4.163772,0.930101 -3.270953,2.739152 z"
       inkscape:transform-center-x="-0.0093185224"
       inkscape:transform-center-y="-0.029222047"
       clip-path="url(#clipPath872)"
       transform="matrix(0.06225349,0,0,0.06225349,1.9171965,280.67961)" />
    <path
       sodipodi:type="star"
       style="fill:#ffff00;stroke-width:0.26458332"
       id="path108"
       sodipodi:sides="5"
       sodipodi:cx="74.841499"
       sodipodi:cy="207.41602"
       sodipodi:r1="6.6297622"
       sodipodi:r2="3.3148811"
       sodipodi:arg1="1.1588657"
       sodipodi:arg2="1.7871842"
       inkscape:flatsided="false"
       inkscape:rounded="0"
       inkscape:randomized="0"
       d="m 77.495918,213.4912 -3.366134,-2.83761 -4.245863,1.16426 1.658529,-4.07825 -2.419322,-3.67828 4.391162,0.31711 2.75064,-3.43757 1.055359,4.27424 4.11931,1.55375 -3.738914,2.32451 z"
       inkscape:transform-center-x="-0.02738263"
       inkscape:transform-center-y="-0.012452216"
       clip-path="url(#clipPath868)"
       transform="matrix(0.06225349,0,0,0.06225349,1.9171965,280.67961)" />
    <ellipse
       style="fill:#ffffff;stroke-width:0.26458332"
       id="path110"
       cx="82.323997"
       cy="123.74393"
       rx="3.9788175"
       ry="3.24686"
       clip-path="url(#clipPath864)"
       transform="matrix(0.06225349,0,0,0.06225349,1.9171965,280.67961)" />
    <ellipse
       style="fill:#ffffff;stroke-width:0.26458332"
       id="path112"
       cx="98.426697"
       cy="124.23816"
       rx="0.37091297"
       ry="1.1194949"
       clip-path="url(#clipPath860)"
       transform="matrix(0.06225349,0,0,0.06225349,1.9171965,280.67961)" />
    <ellipse
       style="fill:#ffffff;stroke-width:0.26458332"
       id="path114"
       cx="94.122375"
       cy="123.6746"
       rx="4.6752267"
       ry="1.6830601"
       clip-path="url(#clipPath856)"
       transform="matrix(0.06225349,0,0,0.06225349,1.9171965,280.67961)" />
    <path
       style="fill:#ffffff;stroke:#000000;stroke-width:0.26458332px;stroke-linecap:butt;stroke-linejoin:miter;stroke-opacity:1"
       d="m 79.253455,139.69819 c 0.292499,0.5252 1.402704,1.28312 0.877496,1.57562 -0.525206,0.2925 -1.358427,-1.93632 -0.877496,-1.57562 1.46041,1.09531 2.493338,2.68153 3.901305,3.84348 0.05511,0.0455 2.063001,0 2.267857,0 1.259922,0 2.519842,0 3.779764,0 0.251983,0 0.503967,0 0.755951,0 0.251984,0 0.530572,0.11268 0.755952,0 0.318738,-0.15937 0.437216,-0.59659 0.755954,-0.75596 0.22538,-0.11269 0.530569,0.11269 0.755952,0 0.318738,-0.15937 0.437213,-0.59658 0.755951,-0.75595 1.042729,-0.52136 0.67618,0.9155 1.511906,-0.75595 0.205047,-0.4101 -0.206846,-2.81697 0,-3.02381 0.178179,-0.17818 0.577771,0.17818 0.755952,0 1.564092,-1.5641 -2.39014,0.0611 0.755951,-1.51191 0.225383,-0.11269 0.850773,-0.23346 0.755955,0 -0.839425,2.06684 -2.102242,3.93527 -3.15336,5.90291"
       id="path116"
       inkscape:connector-curvature="0"
       clip-path="url(#clipPath852)"
       transform="matrix(0.06225349,0,0,0.06225349,1.9171965,280.67961)" />
  </g>
</svg>
