<?xml version="1.0" encoding="UTF-8" standalone="no"?>
<!-- Created with Inkscape (http://www.inkscape.org/) -->

<svg
   xmlns:dc="http://purl.org/dc/elements/1.1/"
   xmlns:cc="http://creativecommons.org/ns#"
   xmlns:rdf="http://www.w3.org/1999/02/22-rdf-syntax-ns#"
   xmlns:svg="http://www.w3.org/2000/svg"
   xmlns="http://www.w3.org/2000/svg"
   xmlns:sodipodi="http://sodipodi.sourceforge.net/DTD/sodipodi-0.dtd"
   xmlns:inkscape="http://www.inkscape.org/namespaces/inkscape"
   width="430.54434"
   height="325.29514"
   id="svg2"
   version="1.1"
   inkscape:version="0.48.5 r10040"
   sodipodi:docname="door-right.svg">
  <defs
     id="defs4">
    <inkscape:perspective
       sodipodi:type="inkscape:persp3d"
       inkscape:vp_x="0 : 526.18109 : 1"
       inkscape:vp_y="0 : 1000 : 0"
       inkscape:vp_z="744.09448 : 526.18109 : 1"
       inkscape:persp3d-origin="372.04724 : 350.78739 : 1"
       id="perspective2985" />
  </defs>
  <sodipodi:namedview
     id="base"
     pagecolor="#ffffff"
     bordercolor="#666666"
     borderopacity="1.0"
     inkscape:pageopacity="0.0"
     inkscape:pageshadow="2"
     inkscape:zoom="1.979899"
     inkscape:cx="168.10102"
     inkscape:cy="150.5455"
     inkscape:document-units="mm"
     inkscape:current-layer="layer1"
     showgrid="false"
     inkscape:object-nodes="true"
     inkscape:window-width="1920"
     inkscape:window-height="1036"
     inkscape:window-x="0"
     inkscape:window-y="44"
     inkscape:window-maximized="0"
     showguides="true"
     inkscape:guide-bbox="true"
     units="mm"
     fit-margin-top="0"
     fit-margin-left="0"
     fit-margin-right="0"
     fit-margin-bottom="0" />
  <metadata
     id="metadata7">
    <rdf:RDF>
      <cc:Work
         rdf:about="">
        <dc:format>image/svg+xml</dc:format>
        <dc:type
           rdf:resource="http://purl.org/dc/dcmitype/StillImage" />
        <dc:title></dc:title>
      </cc:Work>
    </rdf:RDF>
  </metadata>
  <g
     inkscape:label="Layer 1"
     inkscape:groupmode="layer"
     id="layer1"
     transform="translate(-53.643411,-569.625)">
    <path
       inkscape:connector-curvature="0"
       id="path3908"
       d="M 63.456744,771.83168 268.91744,649.23729 474.37808,771.83164 268.91739,894.42603 z"
       style="fill:#c4b7c8;stroke:#000000;stroke-width:0.99999994px;stroke-linecap:round;stroke-linejoin:round;stroke-opacity:1" />
    <path
       inkscape:connector-curvature="0"
       id="path3910"
       d="m 268.92493,570.13899 -214.781253,128.125 9.3125,5.5625 205.468753,-122.59375 205.4375,122.59375 0.0312,0 9.2813,-5.5625 -214.75,-128.125 z"
       style="fill:#d7d7f4;fill-opacity:1;stroke:#000000;stroke-width:1px;stroke-linecap:round;stroke-linejoin:round;stroke-opacity:1" />
    <path
       inkscape:connector-curvature="0"
       id="path3914"
       d="m 268.91744,581.23729 0,68 205.46064,122.59435 0,-68 z"
       style="fill:#f2f2f2;stroke:#000000;stroke-width:1px;stroke-linecap:round;stroke-linejoin:round;stroke-opacity:1" />
    <path
       inkscape:connector-curvature="0"
       id="path3916"
       d="m 483.68934,698.27581 0,68 -9.31126,5.55583 0,-68 z"
       style="fill:#b3b3b3;stroke:#000000;stroke-width:1px;stroke-linecap:round;stroke-linejoin:round;stroke-opacity:1" />
    <path
       inkscape:connector-curvature="0"
       id="path3918"
       d="m 54.145499,698.27585 0,68 9.311245,5.55583 0,-68 z"
       style="fill:#f2f2f2;stroke:#000000;stroke-width:1px;stroke-linecap:round;stroke-linejoin:round;stroke-opacity:1" />
    <path
       inkscape:connector-curvature="0"
       style="fill:#aa0000;stroke:#666666;stroke-width:1px;stroke-linecap:round;stroke-linejoin:round;stroke-opacity:1"
       d="m 278.15625,654.78125 -9.28125,5.5625 9.21875,5.53125 0.0312,0 9.28125,-5.5625 -9.25,-5.53125 z m -18.5625,0.0312 -9.28125,5.5625 9.25,5.53125 -9.28125,5.5625 9.25,5.53125 0.0312,0 9.25,-5.5625 -9.21875,-5.53125 9.25,-5.5625 -9.21875,-5.53125 -0.0312,0 z m -9.3125,16.65625 -9.25,-5.53125 -9.3125,5.5625 9.25,5.53125 -9.25,5.5625 9.21875,5.53125 0.0312,0 9.25,-5.5625 -9.21875,-5.53125 9.28125,-5.5625 z m 46.53125,-5.5625 -9.3125,5.5625 9.25,5.53125 -9.21875,5.5625 9.21875,5.53125 -9.28125,5.5625 9.25,5.53125 -9.28125,5.5625 9.21875,5.53125 0.0312,0 9.28125,-5.5625 -9.21875,-5.53125 9.25,-5.5625 -9.21875,-5.53125 9.25,-5.5625 -9.2187,-5.5312 -0.0312,0 9.25,-5.5625 -9.21875,-5.53125 z m -9.34375,27.75 -9.21875,-5.53125 9.25,-5.5625 -9.25,-5.53125 9.25,-5.5625 -9.21875,-5.53125 -0.0312,0 -9.28125,5.5625 9.25,5.53125 -9.25,5.5625 9.25,5.53125 -9.28125,5.5625 9.21875,5.53125 -9.25,5.5625 9.21875,5.53125 -9.25,5.5625 9.21875,5.53125 -9.28125,5.5625 9.21875,5.53125 -9.25,5.5625 9.25,5.53125 -9.28125,5.5625 9.25,5.53125 -9.28125,5.5625 9.21875,5.53125 -9.25,5.5625 9.21875,5.53125 0.0312,0 9.25,-5.5625 -9.21875,-5.53125 9.28125,-5.5625 -9.21875,-5.53125 9.25,-5.5625 -9.21875,-5.53125 4.625,-2.78125 4.625,-2.78125 -9.21875,-5.53125 9.25,-5.5625 -9.09375,-5.46875 -0.125,-0.0625 9.28125,-5.5625 -9.25,-5.53125 9.25,-5.5625 -9.21875,-5.53125 9.28125,-5.5625 z m -0.21875,66.5625 9.25,5.53125 0.0312,0 9.25,-5.5625 -9.21875,-5.53125 4.625,-2.78125 4.625,-2.78125 -9.21875,-5.53125 9.28125,-5.5625 -9.25,-5.53125 -9.28125,5.5625 9.21875,5.53125 -9.25,5.5625 9.21875,5.53125 -9.28125,5.5625 z m -18.5,-11.0625 -9.25,-5.53125 9.25,-5.5625 -9.21875,-5.53125 -0.0312,0 -9.28125,5.5625 9.25,5.53125 -9.28125,5.5625 9.25,5.53125 -9.25,5.5625 9.21875,5.53125 -9.25,5.5625 9.21875,5.53125 -9.28125,5.5625 9.21875,5.53125 0.0312,0 9.28125,-5.5625 -9.21875,-5.53125 4.625,-2.78125 4.625,-2.78125 -9.21875,-5.53125 9.25,-5.5625 -9.21875,-5.53125 9.28125,-5.5625 z m 46.59375,-72.1875 -9.28125,5.5625 9.21875,5.53125 -9.25,5.5625 9.21875,5.53125 0.0312,0 9.25,-5.5625 -9.21875,-5.53125 9.28125,-5.5625 -9.25,-5.53125 z m -92.875,0.0937 -9.3125,5.5625 9.09375,5.4375 -9.25,5.5625 9.21875,5.53125 0.0312,0 9.25,-5.5625 -9.0625,-5.4375 4.625,-2.78125 4.625,-2.78125 -9.21875,-5.53125 z m 37.21875,0 -9.3125,5.5625 9.25,5.53125 -9.21875,5.5625 9.25,5.53125 9.25,-5.5625 -9.25,-5.53125 9.28125,-5.5625 -9.25,-5.53125 z m -0.0312,22.1875 -9.28125,5.5625 9.21875,5.53125 0.0312,0 4.625,-2.78125 4.625,-2.78125 -9.21875,-5.53125 z m -55.9063,-11.15615 -9.3125,5.5625 9.25,5.53125 -9.28125,5.5625 9.25,5.53125 0.0312,0 9.25,-5.5625 -9.21875,-5.53125 4.625,-2.78125 4.625,-2.78125 -9.21875,-5.53125 z m -9.34375,16.65625 -9.25,-5.53125 -9.3125,5.5625 9.25,5.53125 -9.25,5.5625 9.21875,5.53125 0.0312,0 9.25,-5.5625 -9.21875,-5.53125 9.28125,-5.5625 z M 334,688.09375 l -9.28125,5.5625 9.21875,5.53125 -9.25,5.5625 9.25,5.53125 -9.28125,5.5625 9.25,5.53125 -9.28125,5.5625 9.21875,5.53125 -9.25,5.5625 9.21875,5.53125 0.0312,0 9.25,-5.5625 -9.21875,-5.53125 9.28125,-5.5625 -9.21875,-5.53125 9.25,-5.5625 -9.21875,-5.53125 9.25,-5.5625 -9.2187,-5.53125 4.625,-2.78125 4.625,-2.78125 -9.25,-5.53125 z m 9.15625,38.8125 9.25,5.53125 0.0312,0 9.25,-5.5625 -9.21875,-5.53125 9.25,-5.5625 -9.2187,-5.53125 9.28125,-5.5625 -9.25,-5.53125 -9.28125,5.5625 9.21875,5.53125 -9.25,5.5625 9.21875,5.53125 -9.28125,5.5625 z m -18.5,-11.0625 -9.25,-5.53125 9.25,-5.5625 -9.21875,-5.53125 -0.0312,0 -9.28125,5.5625 9.25,5.53125 -9.28125,5.5625 9.25,5.53125 -9.25,5.5625 9.21875,5.53125 -9.25,5.5625 9.21875,5.53125 0.0312,0 4.625,-2.78125 4.625,-2.78125 -9.21875,-5.53125 9.25,-5.5625 -9.21875,-5.53125 9.28125,-5.5625 z M 241.125,688.1875 l -9.3125,5.5625 9.125,5.46875 -9.28125,5.5625 9.25,5.53125 9.28125,-5.5625 -9.09375,-5.46875 9.28125,-5.5625 -9.25,-5.53125 z m -0.21875,22.125 -9.28125,5.5625 9.21875,5.53125 -9.28125,5.5625 9.25,5.53125 -9.28125,5.5625 9.21875,5.53125 0.0312,0 9.28125,-5.5625 -9.21875,-5.53125 9.25,-5.5625 -9.21875,-5.53125 4.625,-2.78125 4.625,-2.78125 -9.21875,-5.53125 z m -9.34375,16.65625 -9.21875,-5.53125 9.25,-5.5625 -9.25,-5.53125 9.28125,-5.5625 -9.25,-5.53125 -9.3125,5.5625 9.25,5.53125 -9.25,5.5625 9.25,5.53125 -9.28125,5.5625 9.21875,5.53125 -9.25,5.5625 9.21875,5.53125 -9.25,5.5625 9.21875,5.53125 0.0312,0 9.28125,-5.5625 -9.25,-5.53125 9.25,-5.5625 -9.21875,-5.53125 9.28125,-5.5625 z m 139.46875,-16.75 -9.28125,5.5625 9.21875,5.53125 0.0312,0 9.28125,-5.5625 -9.25,-5.53125 z m -111.59375,0.0625 -9.28125,5.5625 9.21875,5.53125 -9.25,5.5625 9.21875,5.53125 0.0312,0 9.28125,-5.5625 -9.25,-5.53125 9.28125,-5.5625 -9.25,-5.53125 z m -92.84375,0.0625 -9.3125,5.5625 9.25,5.53125 L 157.25,727 l 9.21875,5.53125 0.0312,0 9.28125,-5.5625 -9.21875,-5.53125 4.625,-2.78125 4.625,-2.78125 -9.21875,-5.53125 z m 130.21875,0 -9.25,5.5625 9.21875,5.53125 -9.25,5.5625 9.25,5.53125 0.0312,0 4.625,-2.78125 4.625,-2.78125 -9.21875,-5.53125 9.21875,-5.5625 -9.21875,-5.53125 -0.0312,0 z m -93.03125,0.0312 -9.3125,5.5625 9.25,5.53125 -9.21875,5.5625 9.25,5.53125 L 213,727 l -9.25,-5.53125 9.28125,-5.5625 -9.25,-5.53125 z m -0.0312,22.1875 -9.28125,5.5625 9.21875,5.53125 -9.28125,5.5625 9.21875,5.53125 -9.25,5.5625 9.21875,5.53125 0.0312,0 9.28125,-5.5625 -9.25,-5.53125 9.28125,-5.5625 -9.21875,-5.53125 4.625,-2.78125 4.625,-2.78125 -9.21875,-5.53125 z m 185.90625,-11.1875 -9.3125,5.5625 9.25,5.53125 -9.21875,5.5625 9.21875,5.53125 -9.28125,5.5625 9.25,5.53125 -9.28125,5.5625 9.21875,5.53125 0.0312,0 9.28125,-5.5625 -9.21875,-5.53125 9.25,-5.5625 -9.21875,-5.53125 9.25,-5.5625 -9.21875,-5.53125 -0.0312,0 9.25,-5.5625 -9.21875,-5.53125 z m -9.34375,27.75 -9.21875,-5.53125 9.25,-5.5625 -9.25,-5.53125 9.25,-5.5625 -9.21875,-5.53125 -0.0312,0 -9.28125,5.5625 9.25,5.53125 -9.25,5.5625 9.25,5.53125 -9.28125,5.5625 9.21875,5.53125 -9.25,5.5625 9.21875,5.53125 -9.25,5.5625 9.21875,5.53125 -9.28125,5.5625 9.21875,5.53125 -9.25,5.5625 9.21875,5.53125 -9.28125,5.5625 9.25,5.53125 -9.28125,5.5625 9.25,5.53125 -9.25,5.5625 9.21875,5.53125 0.0312,0 9.25,-5.5625 -9.21875,-5.53125 9.28125,-5.5625 -9.25,-5.53125 9.25,-5.5625 -9.21875,-5.53125 4.625,-2.78125 4.625,-2.78125 -9.21875,-5.53125 9.28125,-5.5625 -9.09375,-5.46875 -0.125,-0.0625 9.28125,-5.5625 -9.25,-5.53125 9.25,-5.5625 -9.21875,-5.53125 9.28125,-5.5625 z m -0.21875,66.5625 9.25,5.53125 0.0312,0 9.25,-5.5625 -9.21875,-5.53125 4.625,-2.78125 4.625,-2.78125 -9.21875,-5.53125 9.25,-5.5625 -9.25,-5.53125 -9.28125,5.5625 9.21875,5.53125 -9.25,5.5625 9.25,5.53125 -9.28125,5.5625 z m -18.53125,-11.0625 -9.21875,-5.53125 9.25,-5.5625 -9.2188,-5.5312 -0.0312,0 -9.28125,5.5625 9.25,5.53125 -9.28125,5.5625 9.21875,5.53125 -9.25,5.5625 9.21875,5.53125 -9.25,5.5625 9.25,5.53125 -9.28125,5.5625 9.21875,5.53125 0.0312,0 9.28125,-5.5625 -9.21875,-5.53125 4.625,-2.78125 4.625,-2.78125 -9.21875,-5.53125 9.21875,-5.5625 -9.21875,-5.53125 9.28125,-5.5625 z M 148,721.46875 l -9.3125,5.5625 9.25,5.53125 -9.28125,5.5625 9.25,5.53125 0.0312,0 9.25,-5.5625 -9.21875,-5.53125 4.625,-2.78125 L 157.21875,727 148,721.46875 z m -9.34375,16.65625 -9.25,-5.53125 -9.3125,5.5625 9.25,5.53125 -9.25,5.5625 9.21875,5.53125 0.0312,0 9.25,-5.5625 -9.21875,-5.53125 9.28125,-5.5625 z m 46.5625,-16.625 -9.3125,5.5625 9.25,5.53125 -9.25,5.5625 9.25,5.53125 9.25,-5.5625 -9.21875,-5.53125 9.28125,-5.5625 -9.25,-5.53125 z m -0.0625,22.1875 -9.28125,5.5625 9.21875,5.53125 -9.28125,5.5625 9.25,5.53125 -9.28125,5.5625 9.21875,5.53125 0.0312,0 9.28125,-5.5625 -9.21875,-5.53125 9.25,-5.5625 -9.21875,-5.53125 4.625,-2.78125 4.625,-2.78125 -9.21875,-5.53125 z m -9.34375,16.65625 -9.21875,-5.53125 9.25,-5.5625 -9.25,-5.53125 9.28125,-5.5625 -9.25,-5.53125 -9.3125,5.5625 9.25,5.53125 -9.25,5.5625 9.25,5.53125 -9.28125,5.5625 9.21875,5.53125 -9.25,5.5625 9.21875,5.53125 -9.25,5.5625 9.21875,5.53125 0.0312,0 9.28125,-5.5625 L 166.5,777 l 9.25,-5.5625 -9.21875,-5.53125 9.28125,-5.5625 z m 232.375,-27.90625 -9.28125,5.5625 9.21875,5.53125 -9.25,5.5625 9.21875,5.53125 0.0312,0 9.25,-5.5625 -9.21875,-5.53125 9.28125,-5.5625 -9.25,-5.53125 z m -55.65625,0.0937 -9.3125,5.5625 9.25,5.53125 -9.21875,5.5625 9.25,5.53125 9.25,-5.5625 -9.25,-5.53125 9.28125,-5.5625 -9.25,-5.53125 z m -0.0312,22.1875 -9.28125,5.5625 9.0625,5.4375 -9.25,5.5625 9.21875,5.53125 -9.25,5.5625 9.21875,5.53125 0.0312,0 9.28125,-5.5625 -9.25,-5.53125 9.25,-5.5625 -9.0625,-5.4375 4.625,-2.78125 4.625,-2.78125 L 352.5,754.7187 z m -37.375,-11.1875 -9.28125,5.5625 9.21875,5.53125 0.0312,0 9.28125,-5.5625 -9.25,-5.53125 z m 111.71875,0.0312 -9.28125,5.5625 9.21875,5.53125 -9.25,5.5625 9.21875,5.53125 -9.28125,5.5625 9.25,5.53125 -9.28125,5.5625 9.25,5.53125 -9.25,5.5625 9.21875,5.53125 0.0312,0 9.25,-5.5625 -9.21875,-5.53125 9.28125,-5.5625 -9.25,-5.53125 9.25,-5.5625 -9.21875,-5.53125 9.25,-5.5625 -9.21875,-5.53125 9.28125,-5.5625 -9.25,-5.53125 z M 436,782.375 l 9.25,5.53125 0.0312,0 9.25,-5.5625 -9.21875,-5.53125 9.25,-5.5625 -9.21875,-5.53125 4.625,-2.78125 4.625,-2.78125 -9.25,-5.53125 -9.28125,5.5625 9.21875,5.53125 -9.25,5.5625 9.25,5.53125 L 436,782.375 z m -18.53125,-11.0625 -9.21875,-5.53125 9.25,-5.5625 -9.21875,-5.53125 -0.0312,0 -9.28125,5.5625 9.25,5.53125 -9.28125,5.5625 9.21875,5.53125 -9.25,5.5625 9.21875,5.53125 -9.25,5.5625 9.25,5.53125 0.0312,0 4.625,-2.78125 4.625,-2.78125 -9.21875,-5.53125 9.21875,-5.5625 -9.21875,-5.53125 9.28125,-5.5625 z m -176.5625,-27.65625 -9.25,5.5625 9.21875,5.53125 -9.25,5.5625 9.25,5.53125 -9.28125,5.5625 9.21875,5.53125 -9.25,5.5625 9.21875,5.53125 -9.28125,5.5625 9.25,5.53125 0.0312,0 9.25,-5.5625 -9.21875,-5.53125 4.625,-2.78125 4.625,-2.78125 -9.21875,-5.53125 9.28125,-5.5625 -9.21875,-5.53125 4.625,-2.78125 4.625,-2.78125 -9.21875,-5.53125 9.21875,-5.5625 -9.21875,-5.53125 -0.0312,0 z m -9.40625,49.9375 -9.21875,-5.53125 9.25,-5.5625 -9.21875,-5.53125 4.625,-2.78125 4.625,-2.78125 -9.21875,-5.53125 9.25,-5.5625 -9.25,-5.53125 -9.28125,5.5625 9.21875,5.53125 -9.25,5.5625 9.25,5.53125 -9.28125,5.5625 9.25,5.53125 -9.28125,5.5625 9.21875,5.53125 -9.25,5.5625 9.21875,5.53125 0.0312,0 9.25,-5.5625 -9.21875,-5.53125 9.28125,-5.5625 z M 213,782.53125 203.75,777 l 9.25,-5.5625 -9.21875,-5.53125 -0.0312,0 -9.28125,5.5625 9.25,5.53125 -9.28125,5.5625 9.25,5.53125 -9.25,5.5625 9.21875,5.53125 -9.25,5.5625 9.21875,5.53125 -9.28125,5.5625 9.21875,5.53125 0.0312,0 9.28125,-5.5625 -9.21875,-5.53125 4.625,-2.78125 4.625,-2.78125 -9.21875,-5.53125 9.25,-5.5625 -9.21875,-5.53125 9.28125,-5.5625 z m 120.96875,-38.875 -9.3125,5.5625 9.125,5.46875 -9.25,5.53125 9.25,5.53125 9.25,-5.53125 -9.09375,-5.46875 9.28125,-5.5625 -9.25,-5.53125 z m -0.1875,22.09375 -9.28125,5.5625 9.21875,5.53125 -9.28125,5.5625 9.25,5.53125 -9.28125,5.5625 9.21875,5.53125 0.0312,0 9.28125,-5.5625 -9.21875,-5.53125 9.25,-5.5625 -9.21875,-5.53125 4.625,-2.78125 4.625,-2.78125 -9.21875,-5.53125 z m -9.34375,16.65625 -9.21875,-5.53125 9.25,-5.5625 -9.25,-5.53125 9.28125,-5.5625 -9.25,-5.53125 -9.3125,5.5625 9.25,5.53125 -9.25,5.5625 9.25,5.53125 -9.28125,5.5625 9.21875,5.53125 -9.25,5.5625 9.21875,5.53125 -9.25,5.5625 9.21875,5.53125 0.0312,0 9.28125,-5.5625 -9.25,-5.53125 9.25,-5.5625 -9.21875,-5.53125 9.28125,-5.5625 z m -213.59375,-38.6875 -9.3125,5.5625 9.25,5.53125 -9.28125,5.5625 9.21875,5.53125 0.0312,0 9.28125,-5.5625 -9.21875,-5.53125 4.625,-2.78125 4.625,-2.78125 -9.21875,-5.53125 z m 37.1875,0.0312 -9.3125,5.5625 9.25,5.53125 -9.21875,5.5625 9.25,5.53125 9.25,-5.5625 -9.25,-5.53125 9.28125,-5.5625 -9.25,-5.53125 z M 148,765.9375 l -9.28125,5.5625 9.21875,5.53125 -9.28125,5.5625 9.21875,5.53125 -9.25,5.5625 9.21875,5.53125 0.0312,0 9.28125,-5.5625 -9.25,-5.53125 9.28125,-5.5625 -9.21875,-5.53125 4.625,-2.78125 4.625,-2.78125 L 148,765.9375 z m -55.75,-11.09375 -9.3125,5.5625 9.25,5.53125 -9.28125,5.5625 9.25,5.53125 0.03125,0 9.25,-5.5625 -9.21875,-5.53125 4.625,-2.78125 4.625,-2.78125 L 92.25,754.84375 z M 82.90625,771.5 l -9.25,-5.53125 -9.3125,5.5625 9.25,5.53125 0.03125,0 9.28125,-5.5625 z m 46.5625,-16.625 -9.3125,5.5625 9.25,5.53125 -9.25,5.5625 9.25,5.53125 9.25,-5.5625 -9.21875,-5.53125 9.28125,-5.5625 -9.25,-5.53125 z m -0.0625,22.1875 -9.28125,5.5625 9.21875,5.53125 -9.28125,5.5625 9.25,5.53125 -9.28125,5.5625 9.21875,5.53125 0.0312,0 9.28125,-5.5625 -9.21875,-5.53125 9.25,-5.5625 -9.21875,-5.53125 4.625,-2.78125 4.625,-2.78125 -9.21875,-5.53125 z m -9.34375,16.65625 -9.21875,-5.53125 9.25,-5.5625 -9.25,-5.53125 9.28125,-5.5625 -9.25,-5.53125 -9.3125,5.5625 9.25,5.53125 -9.25,5.5625 9.25,5.53125 -9.28125,5.5625 9.21875,5.53125 0.0312,0 9.28125,-5.5625 z m 343.8125,-28.03125 -9.28125,5.5625 9.21875,5.53125 0.0312,0 9.28125,-5.5625 -9.25,-5.53125 z m -167.21875,0.125 -9.3125,5.5625 9.25,5.53125 -9.21875,5.5625 9.25,5.53125 9.25,-5.5625 -9.25,-5.53125 9.28125,-5.5625 -9.25,-5.53125 z M 296.625,788 l -9.28125,5.5625 9.21875,5.53125 -9.28125,5.5625 9.21875,5.53125 -9.25,5.5625 9.21875,5.53125 0.0312,0 9.28125,-5.5625 -9.25,-5.53125 9.28125,-5.5625 -9.21875,-5.53125 4.625,-2.78125 4.625,-2.78125 L 296.625,788 z m 93.03125,-22.1875 -9.25,5.5625 9.21875,5.53125 -9.25,5.5625 9.21875,5.53125 0.0312,0 4.625,-2.78125 4.625,-2.78125 -9.21875,-5.53125 9.25,-5.5625 -9.21875,-5.53125 -0.0312,0 z m -111.5625,11.125 -9.3125,5.5625 9.25,5.53125 -9.25,5.5625 9.25,5.53125 9.25,-5.5625 -9.21875,-5.53125 9.28125,-5.5625 -9.25,-5.53125 z m -0.0625,22.1875 -9.28125,5.5625 9.21875,5.53125 -9.28125,5.5625 9.25,5.53125 -9.28125,5.5625 9.21875,5.53125 0.0312,0 9.28125,-5.5625 -9.21875,-5.53125 9.25,-5.5625 -9.21875,-5.53125 4.625,-2.78125 4.625,-2.78125 -9.21875,-5.53125 z m -9.34375,16.65625 -9.21875,-5.53125 9.25,-5.5625 -9.25,-5.53125 9.28125,-5.5625 -9.25,-5.53125 -9.3125,5.5625 9.25,5.53125 -9.25,5.5625 9.25,5.53125 -9.28125,5.5625 9.21875,5.53125 -9.25,5.5625 9.21875,5.53125 -9.25,5.5625 9.21875,5.53125 0.0312,0 9.28125,-5.5625 -9.25,-5.53125 9.25,-5.5625 -9.21875,-5.53125 9.28125,-5.5625 z m -83.53125,-38.75 -9.25,5.5625 9.21875,5.53125 -9.25,5.5625 9.25,5.53125 -9.28125,5.5625 9.21875,5.53125 -9.25,5.5625 9.21875,5.53125 -9.28125,5.5625 9.25,5.53125 0.0312,0 9.25,-5.5625 -9.21875,-5.53125 4.625,-2.78125 4.625,-2.78125 -9.21875,-5.53125 9.28125,-5.5625 -9.21875,-5.53125 4.625,-2.78125 4.625,-2.78125 -9.21875,-5.53125 9.21875,-5.5625 -9.21875,-5.53125 -0.0312,0 z m -9.40625,49.9375 -9.21875,-5.53125 9.25,-5.5625 -9.21875,-5.53125 4.625,-2.78125 4.625,-2.78125 -9.21875,-5.53125 9.25,-5.5625 -9.25,-5.53125 -9.28125,5.5625 9.21875,5.53125 -9.25,5.5625 9.25,5.53125 -9.28125,5.5625 9.25,5.53125 -9.28125,5.5625 9.21875,5.53125 0.0312,0 9.28125,-5.5625 z m -18.5,-11.0625 -9.25,-5.53125 9.25,-5.5625 -9.21875,-5.53125 -0.0312,0 -9.28125,5.5625 9.25,5.53125 -9.28125,5.5625 9.25,5.53125 0.0312,0 9.28125,-5.5625 z M 92.28125,777.125 l -9.3125,5.5625 9.25,5.53125 0.03125,0 9.28125,-5.5625 -9.25,-5.53125 z m 315.6875,21.875 -9.28125,5.5625 9.21875,5.53125 0.0312,0 9.28125,-5.5625 -9.25,-5.53125 z m -74.21875,0.125 -9.25,5.5625 9.21875,5.53125 -9.25,5.5625 9.21875,5.53125 -9.28125,5.5625 9.21875,5.53125 -9.25,5.5625 9.25,5.53125 -9.28125,5.5625 9.25,5.53125 0.0312,0 9.25,-5.5625 -9.21875,-5.53125 4.625,-2.78125 4.625,-2.78125 -9.21875,-5.53125 9.25,-5.5625 -9.21875,-5.53125 4.625,-2.78125 4.625,-2.78125 -9.21875,-5.53125 9.25,-5.5625 -9.21875,-5.53125 -0.0312,0 z m -9.40625,49.9375 -9.25,-5.53125 9.25,-5.5625 -9.21875,-5.53125 4.625,-2.78125 4.625,-2.78125 -9.21875,-5.53125 9.28125,-5.5625 -9.25,-5.53125 -9.28125,5.5625 9.21875,5.53125 -9.25,5.5625 9.21875,5.53125 -9.28125,5.5625 9.25,5.53125 -9.28125,5.5625 9.25,5.53125 -9.25,5.5625 9.21875,5.53125 0.0312,0 9.25,-5.5625 -9.21875,-5.53125 9.28125,-5.5625 z M 305.8125,838 l -9.21875,-5.53125 9.25,-5.5625 -9.21875,-5.53125 -0.0312,0 -9.28125,5.5625 9.25,5.53125 -9.28125,5.5625 9.21875,5.53125 -9.25,5.5625 9.21875,5.53125 -9.25,5.5625 9.25,5.53125 -9.28125,5.5625 9.21875,5.53125 0.0312,0 9.28125,-5.5625 L 296.5,865.75 l 4.625,-2.78125 4.625,-2.78125 -9.21875,-5.53125 9.21875,-5.5625 -9.21875,-5.53125 L 305.8125,838 z m -64.90625,-38.8125 -9.3125,5.5625 9.25,5.53125 -9.21875,5.5625 9.25,5.53125 9.25,-5.5625 -9.25,-5.53125 9.28125,-5.5625 -9.25,-5.53125 z m -0.0312,22.1875 -9.28125,5.5625 9.21875,5.53125 -9.28125,5.5625 9.21875,5.53125 -9.25,5.5625 9.21875,5.53125 0.0312,0 9.28125,-5.5625 -9.25,-5.53125 9.28125,-5.5625 -9.21875,-5.53125 4.625,-2.78125 4.625,-2.78125 -9.21875,-5.53125 z m -18.53125,-11.0625 -9.3125,5.5625 9.25,5.53125 -9.25,5.5625 9.25,5.53125 9.25,-5.5625 -9.21875,-5.53125 9.28125,-5.5625 -9.25,-5.53125 z M 222.28125,832.5 213,838.0625 l 9.21875,5.53125 -9.28125,5.5625 9.25,5.53125 -9.28125,5.5625 9.21875,5.53125 0.0312,0 9.28125,-5.5625 -9.21875,-5.53125 9.25,-5.5625 -9.21875,-5.53125 4.625,-2.78125 4.625,-2.78125 L 222.2812,832.5 z m -9.34375,16.65625 -9.21875,-5.53125 9.25,-5.5625 -9.25,-5.53125 9.28125,-5.5625 -9.25,-5.53125 -9.3125,5.5625 9.25,5.53125 -9.25,5.5625 9.25,5.53125 -9.28125,5.5625 9.21875,5.53125 0.0312,0 9.28125,-5.5625 z M 278,832.5 l -9.25,5.5625 9.21875,5.53125 -9.25,5.5625 9.21875,5.53125 -9.28125,5.5625 9.21875,5.53125 -9.25,5.5625 9.25,5.53125 -9.28125,5.5625 9.25,5.53125 0.0312,0 9.25,-5.5625 -9.21875,-5.53125 4.625,-2.78125 4.625,-2.78125 -9.21875,-5.53125 9.25,-5.5625 -9.21875,-5.53125 4.625,-2.78125 4.625,-2.78125 -9.21875,-5.53125 9.25,-5.5625 L 278.0312,832.5 278,832.5 z m -9.40625,49.9375 -9.25,-5.53125 9.25,-5.5625 -9.21875,-5.53125 4.625,-2.78125 4.625,-2.78125 -9.21875,-5.53125 9.28125,-5.5625 -9.25,-5.53125 -9.28125,5.5625 9.21875,5.53125 -9.25,5.5625 9.21875,5.53125 -9.28125,5.5625 9.25,5.53125 -9.28125,5.5625 9.25,5.53125 0.0312,0 9.28125,-5.5625 z m -18.53125,-11.0625 -9.21875,-5.53125 9.25,-5.5625 -9.21875,-5.53125 -0.0312,0 -9.28125,5.5625 9.25,5.53125 -9.28125,5.5625 9.21875,5.53125 0.0312,0 9.28125,-5.5625 z m -64.90625,-38.8125 -9.3125,5.5625 9.25,5.53125 0.0312,0 9.28125,-5.5625 -9.25,-5.53125 z"
       id="path3982" />
    <path
       style="fill:none;stroke:#000000;stroke-width:1px;stroke-linecap:butt;stroke-linejoin:miter;stroke-opacity:1"
       d="m 54.209882,764.5965 9.311245,5.55583 -0.03124,-11.0625 -9.25,-5.53125 z"
       id="path5998"
       inkscape:connector-curvature="0" />
    <path
       inkscape:connector-curvature="0"
       id="path6000"
       d="m 54.178642,753.534 9.311245,5.55583 -0.03124,-11.0625 -9.25,-5.53125 z"
       style="fill:none;stroke:#000000;stroke-width:1px;stroke-linecap:butt;stroke-linejoin:miter;stroke-opacity:1" />
    <path
       style="fill:none;stroke:#000000;stroke-width:1px;stroke-linecap:butt;stroke-linejoin:miter;stroke-opacity:1"
       d="m 54.208647,742.49608 9.311245,5.55583 -0.03124,-11.0625 -9.25,-5.53125 z"
       id="path6002"
       inkscape:connector-curvature="0" />
    <path
       inkscape:connector-curvature="0"
       id="path6004"
       d="m 54.238652,731.45816 9.311245,5.55583 -0.03124,-11.0625 -9.25,-5.53125 z"
       style="fill:none;stroke:#000000;stroke-width:1px;stroke-linecap:butt;stroke-linejoin:miter;stroke-opacity:1" />
    <path
       style="fill:none;stroke:#000000;stroke-width:1px;stroke-linecap:butt;stroke-linejoin:miter;stroke-opacity:1"
       d="m 54.207412,720.39566 9.311245,5.55583 -0.03124,-11.0625 -9.25,-5.53125 z"
       id="path6006"
       inkscape:connector-curvature="0" />
    <path
       inkscape:connector-curvature="0"
       id="path6008"
       d="m 54.176172,709.33316 9.311245,5.55583 -0.03124,-11.0625 -9.25,-5.53125 z"
       style="fill:none;stroke:#000000;stroke-width:1px;stroke-linecap:butt;stroke-linejoin:miter;stroke-opacity:1" />
    <path
       sodipodi:nodetypes="ccccc"
       inkscape:connector-curvature="0"
       id="path6042"
       d="m 185.21405,632.97332 -0.089,55.21418 9.31125,5.55583 0.0312,-55.25 z"
       style="fill:#f2f2f2;stroke:#000000;stroke-width:1px;stroke-linecap:round;stroke-linejoin:round;stroke-opacity:1" />
    <path
       style="fill:#f2f2f2;fill-opacity:1;stroke:#000000;stroke-width:1px;stroke-linecap:butt;stroke-linejoin:miter;stroke-opacity:1"
       d="m 185.125,688.1875 9.31125,5.55583 -37.155,22.16292 -9.25,-5.59375 z"
       id="path6059"
       inkscape:connector-curvature="0" />
    <path
       sodipodi:nodetypes="ccccccccc"
       inkscape:connector-curvature="0"
       id="path6053"
       d="m 268.90625,581.25 -205.437497,122.59375 0,68 93.812497,-55.96875 0.03,-55.19417 37.15625,-22.1875 -0.03,55.16292 74.46875,-44.40625 z"
       style="fill:#b3b3b3;stroke:#000000;stroke-width:1px;stroke-linecap:round;stroke-linejoin:round;stroke-opacity:1" />
  </g>
</svg>
