<?xml version="1.0" encoding="UTF-8" standalone="no"?>
<!-- Created with Inkscape (http://www.inkscape.org/) -->

<svg
   xmlns:dc="http://purl.org/dc/elements/1.1/"
   xmlns:cc="http://creativecommons.org/ns#"
   xmlns:rdf="http://www.w3.org/1999/02/22-rdf-syntax-ns#"
   xmlns:svg="http://www.w3.org/2000/svg"
   xmlns="http://www.w3.org/2000/svg"
   xmlns:sodipodi="http://sodipodi.sourceforge.net/DTD/sodipodi-0.dtd"
   xmlns:inkscape="http://www.inkscape.org/namespaces/inkscape"
   width="383.03995"
   height="235.54532"
   id="svg2"
   version="1.1"
   inkscape:version="0.92.2 5c3e80d, 2017-08-06"
   sodipodi:docname="banner-1.svg">
  <defs
     id="defs4">
    <inkscape:path-effect
       effect="powerstroke"
       id="path-effect6729"
       is_visible="true"
       offset_points="0,0.5"
       sort_points="true"
       interpolator_type="CubicBezierJohan"
       interpolator_beta="0.2"
       start_linecap_type="zerowidth"
       linejoin_type="extrp_arc"
       miter_limit="4"
       end_linecap_type="zerowidth" />
    <inkscape:path-effect
       effect="bspline"
       id="path-effect6727"
       is_visible="true"
       weight="33.333333"
       steps="2"
       helper_size="0"
       apply_no_weight="true"
       apply_with_weight="true"
       only_selected="false" />
    <inkscape:perspective
       sodipodi:type="inkscape:persp3d"
       inkscape:vp_x="-532.21524 : -49.572625 : 1"
       inkscape:vp_y="-353.51011 : 360.97203 : 0"
       inkscape:vp_z="1461.3733 : 852.71388 : 1"
       inkscape:persp3d-origin="526.58173 : 338.25824 : 1"
       id="perspective2985" />
    <filter
       style="color-interpolation-filters:sRGB"
       inkscape:label="Invert"
       id="filter6580">
      <feColorMatrix
         type="hueRotate"
         values="263"
         result="color1"
         id="feColorMatrix6576" />
      <feColorMatrix
         type="saturate"
         values="1"
         result="fbSourceGraphic"
         id="feColorMatrix6578" />
      <feColorMatrix
         result="fbSourceGraphicAlpha"
         in="fbSourceGraphic"
         values="0 0 0 -1 0 0 0 0 -1 0 0 0 0 -1 0 0 0 0 1 0"
         id="feColorMatrix6582" />
      <feColorMatrix
         id="feColorMatrix6584"
         type="hueRotate"
         values="263"
         result="color1"
         in="fbSourceGraphic" />
      <feColorMatrix
         id="feColorMatrix6586"
         type="saturate"
         values="1"
         result="fbSourceGraphic" />
      <feColorMatrix
         result="fbSourceGraphicAlpha"
         in="fbSourceGraphic"
         values="0 0 0 -1 0 0 0 0 -1 0 0 0 0 -1 0 0 0 0 1 0"
         id="feColorMatrix6588" />
      <feColorMatrix
         id="feColorMatrix6590"
         type="hueRotate"
         values="263"
         result="color1"
         in="fbSourceGraphic" />
      <feColorMatrix
         id="feColorMatrix6592"
         type="saturate"
         values="1"
         result="fbSourceGraphic" />
      <feColorMatrix
         result="fbSourceGraphicAlpha"
         in="fbSourceGraphic"
         values="0 0 0 -1 0 0 0 0 -1 0 0 0 0 -1 0 0 0 0 1 0"
         id="feColorMatrix6594" />
      <feColorMatrix
         id="feColorMatrix6596"
         type="hueRotate"
         values="263"
         result="color1"
         in="fbSourceGraphic" />
      <feColorMatrix
         id="feColorMatrix6598"
         type="saturate"
         values="1"
         result="fbSourceGraphic" />
      <feColorMatrix
         result="fbSourceGraphicAlpha"
         in="fbSourceGraphic"
         values="0 0 0 -1 0 0 0 0 -1 0 0 0 0 -1 0 0 0 0 1 0"
         id="feColorMatrix6714" />
      <feColorMatrix
         id="feColorMatrix6716"
         values="0 0 -1 0 1 0 -1 0 0 1 -1 0 0 0 1 -0.21 -0.72 -0.07 1.31 0 "
         result="color2"
         in="fbSourceGraphic" />
    </filter>
  </defs>
  <sodipodi:namedview
     id="base"
     pagecolor="#ffffff"
     bordercolor="#666666"
     borderopacity="1.0"
     inkscape:pageopacity="0.0"
     inkscape:pageshadow="2"
     inkscape:zoom="1.4"
     inkscape:cx="116.47111"
     inkscape:cy="137.41241"
     inkscape:document-units="mm"
     inkscape:current-layer="layer1"
     showgrid="false"
     inkscape:object-nodes="true"
     inkscape:window-width="1440"
     inkscape:window-height="766"
     inkscape:window-x="0"
     inkscape:window-y="1"
     inkscape:window-maximized="1"
     showguides="true"
     inkscape:guide-bbox="true"
     units="mm"
     fit-margin-top="0"
     fit-margin-left="0"
     fit-margin-right="0"
     fit-margin-bottom="0" />
  <metadata
     id="metadata7">
    <rdf:RDF>
      <cc:Work
         rdf:about="">
        <dc:format>image/svg+xml</dc:format>
        <dc:type
           rdf:resource="http://purl.org/dc/dcmitype/StillImage" />
        <dc:title />
      </cc:Work>
    </rdf:RDF>
  </metadata>
  <g
     inkscape:label="Layer 1"
     inkscape:groupmode="layer"
     id="layer1"
     transform="translate(-62.983359,-659.35232)">
    <path
       inkscape:connector-curvature="0"
       id="path3908"
       d="M 445.55172,777.125 254.50331,659.82393 63.454937,777.12496 254.50335,894.42603 Z"
       style="fill:#c4b7c8;stroke:#000000;stroke-width:0.94324172px;stroke-linecap:round;stroke-linejoin:round;stroke-opacity:1" />
    <path
       inkscape:connector-curvature="0"
       style="fill:#aa0000;stroke:#666666;stroke-width:1px;stroke-linecap:round;stroke-linejoin:round;stroke-opacity:1;filter:url(#filter6580)"
       d="m 244.53883,659.9349 9.28125,5.5625 -9.21875,5.53125 h -0.0312 l -9.28125,-5.5625 9.25,-5.53125 z m 18.5625,0.0312 9.28125,5.5625 -9.25,5.53125 9.28125,5.5625 -9.25,5.53125 h -0.0312 l -9.25,-5.5625 9.21875,-5.53125 -9.25,-5.5625 9.21875,-5.53125 z m 9.3125,16.65625 9.25,-5.53125 9.3125,5.5625 -9.25,5.53125 9.25,5.5625 -9.21875,5.53125 h -0.0312 l -9.25,-5.5625 9.21875,-5.53125 -9.28125,-5.5625 z m -46.53125,-5.5625 9.3125,5.5625 -9.25,5.53125 9.21875,5.5625 -9.21875,5.53125 9.28125,5.5625 -9.25,5.53125 9.28125,5.5625 -9.21875,5.53125 h -0.0312 l -9.28125,-5.5625 9.21875,-5.53125 -9.25,-5.5625 9.21875,-5.53125 -9.25,-5.5625 9.2187,-5.5312 h 0.0312 l -9.25,-5.5625 9.21875,-5.53125 z m 9.34375,27.75 9.21875,-5.53125 -9.25,-5.5625 9.25,-5.53125 -9.25,-5.5625 9.21875,-5.53125 h 0.0312 l 9.28125,5.5625 -9.25,5.53125 9.25,5.5625 -9.25,5.53125 9.28125,5.5625 -9.21875,5.53125 9.25,5.5625 -9.21875,5.53125 9.25,5.5625 -9.21875,5.53125 9.28125,5.5625 -9.21875,5.53125 9.25,5.5625 -9.25,5.53125 9.28125,5.5625 -9.25,5.53125 9.28125,5.5625 -9.21875,5.53125 9.25,5.5625 -9.21875,5.53125 h -0.0312 l -9.25,-5.5625 9.21875,-5.53125 -9.28125,-5.5625 9.21875,-5.53125 -9.25,-5.5625 9.21875,-5.53125 -4.625,-2.78125 -4.625,-2.78125 9.21875,-5.53125 -9.25,-5.5625 9.09375,-5.46875 0.125,-0.0625 -9.28125,-5.5625 9.25,-5.53125 -9.25,-5.5625 9.21875,-5.53125 z m 0.21875,66.5625 -9.25,5.53125 h -0.0312 l -9.25,-5.5625 9.21875,-5.53125 -4.625,-2.78125 -4.625,-2.78125 9.21875,-5.53125 -9.28125,-5.5625 9.25,-5.53125 9.28125,5.5625 -9.21875,5.53125 9.25,5.5625 -9.21875,5.53125 9.28125,5.5625 z m 18.5,-11.0625 9.25,-5.53125 -9.25,-5.5625 9.21875,-5.53125 h 0.0312 l 9.28125,5.5625 -9.25,5.53125 9.28125,5.5625 -9.25,5.53125 9.25,5.5625 -9.21875,5.53125 9.25,5.5625 -9.21875,5.53125 9.28125,5.5625 -9.21875,5.53125 h -0.0312 l -9.28125,-5.5625 9.21875,-5.53125 -4.625,-2.78125 -4.625,-2.78125 9.21875,-5.53125 -9.25,-5.5625 9.21875,-5.53125 z m -46.59375,-72.1875 9.28125,5.5625 -9.21875,5.53125 9.25,5.5625 -9.21875,5.53125 h -0.0312 l -9.25,-5.5625 9.21875,-5.53125 -9.28125,-5.5625 9.25,-5.53125 z m 92.875,0.0937 9.3125,5.5625 -9.09375,5.4375 9.25,5.5625 -9.21875,5.53125 h -0.0312 l -9.25,-5.5625 9.0625,-5.4375 -4.625,-2.78125 -4.625,-2.78125 9.21875,-5.53125 z m -37.21875,0 9.3125,5.5625 -9.25,5.53125 9.21875,5.5625 -9.25,5.53125 -9.25,-5.5625 9.25,-5.53125 -9.28125,-5.5625 z m 0.0312,22.1875 9.28125,5.5625 -9.21875,5.53125 h -0.0312 l -4.625,-2.78125 -4.625,-2.78125 9.21875,-5.53125 z m 55.9063,-11.15615 9.3125,5.5625 -9.25,5.53125 9.28125,5.5625 -9.25,5.53125 h -0.0312 l -9.25,-5.5625 9.21875,-5.53125 -4.625,-2.78125 -4.625,-2.78125 9.21875,-5.53125 z m 9.34375,16.65625 9.25,-5.53125 9.3125,5.5625 -9.25,5.53125 9.25,5.5625 -9.21875,5.53125 h -0.0312 l -9.25,-5.5625 9.21875,-5.53125 -9.28125,-5.5625 z m -139.59375,-16.65625 9.28125,5.5625 -9.21875,5.53125 9.25,5.5625 -9.25,5.53125 9.28125,5.5625 -9.25,5.53125 9.28125,5.5625 -9.21875,5.53125 9.25,5.5625 -9.21875,5.53125 h -0.0312 l -9.25,-5.5625 9.21875,-5.53125 -9.28125,-5.5625 9.21875,-5.53125 -9.25,-5.5625 9.21875,-5.53125 -9.25,-5.5625 9.2187,-5.53125 -4.625,-2.78125 -4.625,-2.78125 z m -9.15625,38.8125 -9.25,5.53125 h -0.0312 l -9.25,-5.5625 9.21875,-5.53125 -9.25,-5.5625 9.2187,-5.53125 -9.28125,-5.5625 9.25,-5.53125 9.28125,5.5625 -9.21875,5.53125 9.25,5.5625 -9.21875,5.53125 z m 18.5,-11.0625 9.25,-5.53125 -9.25,-5.5625 9.21875,-5.53125 h 0.0312 l 9.28125,5.5625 -9.25,5.53125 9.28125,5.5625 -9.25,5.53125 9.25,5.5625 -9.21875,5.53125 9.25,5.5625 -9.21875,5.53125 h -0.0312 l -4.625,-2.78125 -4.625,-2.78125 9.21875,-5.53125 -9.25,-5.5625 9.21875,-5.53125 z m 83.53125,-27.65625 9.3125,5.5625 -9.125,5.46875 9.28125,5.5625 -9.25,5.53125 -9.28125,-5.5625 9.09375,-5.46875 -9.28125,-5.5625 z m 0.21875,22.125 9.28125,5.5625 -9.21875,5.53125 9.28125,5.5625 -9.25,5.53125 9.28125,5.5625 -9.21875,5.53125 h -0.0312 l -9.28125,-5.5625 9.21875,-5.53125 -9.25,-5.5625 9.21875,-5.53125 -4.625,-2.78125 -4.625,-2.78125 9.21875,-5.53125 z m 9.34375,16.65625 9.21875,-5.53125 -9.25,-5.5625 9.25,-5.53125 -9.28125,-5.5625 9.25,-5.53125 9.3125,5.5625 -9.25,5.53125 9.25,5.5625 -9.25,5.53125 9.28125,5.5625 -9.21875,5.53125 9.25,5.5625 -9.21875,5.53125 9.25,5.5625 -9.21875,5.53125 h -0.0312 l -9.28125,-5.5625 9.25,-5.53125 -9.25,-5.5625 9.21875,-5.53125 -9.28125,-5.5625 z m -139.46875,-16.75 9.28125,5.5625 -9.21875,5.53125 h -0.0312 l -9.28125,-5.5625 9.25,-5.53125 z m 111.59375,0.0625 9.28125,5.5625 -9.21875,5.53125 9.25,5.5625 -9.21875,5.53125 h -0.0312 l -9.28125,-5.5625 9.25,-5.53125 -9.28125,-5.5625 9.25,-5.53125 z m 92.84375,0.0625 9.3125,5.5625 -9.25,5.53125 9.28125,5.5625 -9.21875,5.53125 h -0.0312 l -9.28125,-5.5625 9.21875,-5.53125 -4.625,-2.78125 -4.625,-2.78125 9.21875,-5.53125 z m -130.21875,0 9.25,5.5625 -9.21875,5.53125 9.25,5.5625 -9.25,5.53125 h -0.0312 l -4.625,-2.78125 -4.625,-2.78125 9.21875,-5.53125 -9.21875,-5.5625 9.21875,-5.53125 z m 93.03125,0.0312 9.3125,5.5625 -9.25,5.53125 9.21875,5.5625 -9.25,5.53125 -9.25,-5.56245 9.25,-5.53125 -9.28125,-5.5625 9.25,-5.53125 z m 0.0312,22.1875 9.28125,5.5625 -9.21875,5.53125 9.28125,5.5625 -9.21875,5.53125 9.25,5.5625 -9.21875,5.53125 h -0.0312 l -9.28125,-5.5625 9.25,-5.53125 -9.28125,-5.5625 9.21875,-5.53125 -4.625,-2.78125 -4.625,-2.78125 9.21875,-5.53125 z m -185.90625,-11.1875 9.3125,5.5625 -9.25,5.53125 9.21875,5.5625 -9.21875,5.53125 9.28125,5.5625 -9.25,5.53125 9.28125,5.5625 -9.21875,5.53125 h -0.0312 l -9.28125,-5.5625 9.21875,-5.53125 -9.25,-5.5625 9.21875,-5.53125 -9.25,-5.5625 9.21875,-5.53125 h 0.0312 l -9.25,-5.5625 z m 9.34375,27.75 9.21875,-5.53125 -9.25,-5.5625 9.25,-5.53125 -9.25,-5.5625 9.21875,-5.53125 h 0.0312 l 9.28125,5.5625 -9.25,5.53125 9.25,5.5625 -9.25,5.53125 9.28125,5.5625 -9.21875,5.53125 9.25,5.5625 -9.21875,5.53125 9.25,5.5625 -9.21875,5.53125 9.28125,5.5625 -9.21875,5.53125 9.25,5.5625 -9.21875,5.53125 9.28125,5.5625 -9.25,5.53125 9.28125,5.5625 -9.25,5.53125 9.25,5.5625 -9.21875,5.53125 h -0.0312 l -9.25,-5.5625 9.21875,-5.53125 -9.28125,-5.5625 9.25,-5.53125 -9.25,-5.5625 9.21875,-5.53125 -4.625,-2.78125 -4.625,-2.78125 9.21875,-5.53125 -9.28125,-5.5625 9.09375,-5.46875 0.125,-0.0625 -9.28125,-5.5625 9.25,-5.53125 -9.25,-5.5625 9.21875,-5.53125 z m 0.21875,66.5625 -9.25,5.53125 h -0.0312 l -9.25,-5.5625 9.21875,-5.53125 -4.625,-2.78125 -4.625,-2.78125 9.21875,-5.53125 -9.25,-5.5625 9.25,-5.53125 9.28125,5.5625 -9.21875,5.53125 9.25,5.5625 -9.25,5.53125 9.28125,5.5625 z m 18.53125,-11.0625 9.21875,-5.53125 -9.25,-5.5625 9.2188,-5.5312 h 0.0312 l 9.28125,5.5625 -9.25,5.53125 9.28125,5.5625 -9.21875,5.53125 9.25,5.5625 -9.21875,5.53125 9.25,5.5625 -9.25,5.53125 9.28125,5.5625 -9.21875,5.53125 h -0.0312 l -9.28125,-5.5625 9.21875,-5.53125 -4.625,-2.78125 -4.625,-2.78125 9.21875,-5.53125 -9.21875,-5.5625 9.21875,-5.53125 -9.28125,-5.5625 z m 213.56255,-83.1562 9.3125,5.5625 -9.25,5.53125 9.28125,5.5625 -9.25,5.53125 h -0.0312 l -9.25,-5.5625 9.21875,-5.53125 -4.625,-2.78125 -4.62505,-2.78125 z m 9.34375,16.65625 9.25,-5.53125 9.3125,5.5625 -9.25,5.53125 9.25,5.5625 -9.21875,5.53125 h -0.0312 l -9.25,-5.5625 9.21875,-5.53125 -9.28125,-5.5625 z m -46.5625,-16.625 9.3125,5.5625 -9.25,5.53125 9.25,5.5625 -9.25,5.53125 -9.25,-5.5625 9.21875,-5.53125 -9.28125,-5.5625 z m 0.0625,22.1875 9.28125,5.5625 -9.21875,5.53125 9.28125,5.5625 -9.25,5.53125 9.28125,5.5625 -9.21875,5.53125 h -0.0312 l -9.28125,-5.5625 9.21875,-5.53125 -9.25,-5.5625 9.21875,-5.53125 -4.625,-2.78125 -4.625,-2.78125 9.21875,-5.53125 z m 9.34375,16.65625 9.21875,-5.53125 -9.25,-5.5625 9.25,-5.53125 -9.28125,-5.5625 9.25,-5.53125 9.3125,5.5625 -9.25,5.53125 9.25,5.5625 -9.25,5.53125 9.28125,5.5625 -9.21875,5.53125 9.25,5.5625 -9.21875,5.53125 9.25,5.5625 -9.21875,5.53125 h -0.0312 l -9.28125,-5.5625 9.24995,-5.53125 -9.25,-5.5625 9.21875,-5.53125 z m -232.375,-27.90625 9.28125,5.5625 -9.21875,5.53125 9.25,5.5625 -9.21875,5.53125 h -0.0312 l -9.25,-5.5625 9.21875,-5.53125 -9.28125,-5.5625 9.25,-5.53125 z m 55.65625,0.0937 9.3125,5.5625 -9.25,5.53125 9.21875,5.5625 -9.25,5.53125 -9.25,-5.5625 9.25,-5.53125 -9.28125,-5.5625 z m 0.0312,22.1875 9.28125,5.5625 -9.0625,5.4375 9.25,5.5625 -9.21875,5.53125 9.25,5.5625 -9.21875,5.53125 h -0.0312 l -9.28125,-5.5625 9.25,-5.53125 -9.25,-5.5625 9.0625,-5.4375 -4.625,-2.78125 -4.625,-2.78125 9.21875,-5.53125 z m 37.375,-11.1875 9.28125,5.5625 -9.21875,5.53125 h -0.0312 l -9.28125,-5.5625 9.25,-5.53125 z m -111.71875,0.0312 9.28125,5.5625 -9.21875,5.53125 9.25,5.5625 -9.21875,5.53125 9.28125,5.5625 -9.25,5.53125 9.28125,5.5625 -9.25,5.53125 9.25,5.5625 -9.21875,5.53125 h -0.0312 l -9.25,-5.5625 9.21875,-5.53125 -9.28125,-5.5625 9.25,-5.53125 -9.25,-5.5625 9.21875,-5.53125 -9.25,-5.5625 9.21875,-5.53125 -9.28125,-5.5625 9.25,-5.53125 z m -9.1562,38.8126 -9.250003,5.53125 h -0.0312 l -9.25,-5.5625 9.21875,-5.53125 -9.25,-5.5625 9.21875,-5.53125 -4.625,-2.78125 -4.625,-2.78125 9.25,-5.53125 9.281253,5.5625 -9.218753,5.53125 9.250003,5.5625 -9.250003,5.53125 z m 18.53125,-11.0625 9.21875,-5.53125 -9.25,-5.5625 9.21875,-5.53125 h 0.0312 l 9.28125,5.5625 -9.25,5.53125 9.28125,5.5625 -9.21875,5.53125 9.25,5.5625 -9.21875,5.53125 9.25,5.5625 -9.25,5.53125 h -0.0312 l -4.625,-2.78125 -4.625,-2.78125 9.21875,-5.53125 -9.21875,-5.5625 9.21875,-5.53125 z m 176.5625,-27.65625 9.25,5.5625 -9.21875,5.53125 9.25,5.5625 -9.25,5.53125 9.28125,5.5625 -9.21875,5.53125 9.25,5.5625 -9.21875,5.53125 9.28125,5.5625 -9.25,5.53125 h -0.0312 l -9.25,-5.5625 9.21875,-5.53125 -4.625,-2.78125 -4.625,-2.78125 9.21875,-5.53125 -9.28125,-5.5625 9.21875,-5.53125 -4.625,-2.78125 -4.625,-2.78125 9.21875,-5.53125 -9.21875,-5.5625 9.21875,-5.53125 z m 9.40625,49.9375 9.21875,-5.53125 -9.25,-5.5625 9.21875,-5.53125 -4.625,-2.78125 -4.625,-2.78125 9.21875,-5.53125 -9.25,-5.5625 9.25,-5.53125 9.28125,5.5625 -9.21875,5.53125 9.25,5.5625 -9.25,5.53125 9.28125,5.5625 -9.25,5.53125 9.28125,5.5625 -9.21875,5.53125 9.25,5.5625 -9.21875,5.53125 h -0.0312 l -9.25,-5.5625 9.21875,-5.53125 -9.28125,-5.5625 z m 18.5,-11.0625 9.25,-5.53125 -9.25,-5.5625 9.21875,-5.53125 h 0.0312 l 9.28125,5.5625 -9.25,5.53125 9.28125,5.5625 -9.25,5.53125 9.25,5.5625 -9.21875,5.53125 9.25,5.5625 -9.21875,5.53125 9.28125,5.5625 -9.21875,5.53125 h -0.0312 l -9.28125,-5.5625 9.21875,-5.53125 -4.625,-2.78125 -4.625,-2.78125 9.21875,-5.53125 -9.25,-5.5625 9.21875,-5.53125 z m -120.96875,-38.875 9.3125,5.5625 -9.125,5.46875 9.25,5.53125 -9.25,5.53125 -9.25,-5.53125 9.09375,-5.46875 -9.28125,-5.5625 z m 0.1875,22.09375 9.28125,5.5625 -9.21875,5.53125 9.28125,5.5625 -9.25,5.53125 9.28125,5.5625 -9.21875,5.53125 h -0.0312 l -9.28125,-5.5625 9.21875,-5.53125 -9.25,-5.5625 9.21875,-5.53125 -4.625,-2.78125 -4.625,-2.78125 9.21875,-5.53125 z m 9.34375,16.65625 9.21875,-5.53125 -9.25,-5.5625 9.25,-5.53125 -9.28125,-5.5625 9.25,-5.53125 9.3125,5.5625 -9.25,5.53125 9.25,5.5625 -9.25,5.53125 9.28125,5.5625 -9.21875,5.53125 9.25,5.5625 -9.21875,5.53125 9.25,5.5625 -9.21875,5.53125 h -0.0312 l -9.28125,-5.5625 9.25,-5.53125 -9.25,-5.5625 9.21875,-5.53125 -9.28125,-5.5625 z m 213.59375,-38.6875 9.3125,5.5625 -9.25,5.53125 9.28125,5.5625 -9.21875,5.53125 h -0.0312 l -9.28125,-5.5625 9.21875,-5.53125 -4.625,-2.78125 -4.625,-2.78125 9.21875,-5.53125 z m -37.1875,0.0312 9.3125,5.5625 -9.25,5.53125 9.21875,5.5625 -9.25,5.53125 -9.25,-5.5625 9.25,-5.53125 -9.28125,-5.5625 z m 0.0312,22.18755 9.28125,5.5625 -9.21875,5.53125 9.28125,5.5625 -9.21875,5.53125 9.25,5.5625 -9.21875,5.53125 h -0.0312 l -9.28125,-5.5625 9.25,-5.53125 -9.28125,-5.5625 9.21875,-5.53125 -4.625,-2.78125 -4.625,-2.78125 z m 55.75,-11.09375 9.3125,5.5625 -9.25,5.53125 9.28125,5.5625 -9.25,5.53125 h -0.0312 l -9.25,-5.5625 9.21875,-5.53125 -4.625,-2.78125 -4.625,-2.78125 9.21875,-5.53125 z m 9.34375,16.65625 9.25,-5.53125 9.3125,5.5625 -9.25,5.53125 h -0.0312 l -9.28125,-5.5625 z m -46.5625,-16.625 9.3125,5.5625 -9.25,5.53125 9.25,5.5625 -9.25,5.53125 -9.25,-5.5625 9.21875,-5.53125 -9.28125,-5.5625 z m 0.0625,22.1875 9.28125,5.5625 -9.21875,5.53125 9.28125,5.5625 -9.25,5.53125 9.28125,5.5625 -9.21875,5.53125 h -0.0312 l -9.28125,-5.5625 9.21875,-5.53125 -9.25,-5.5625 9.21875,-5.53125 -4.625,-2.78125 -4.625,-2.78125 9.21875,-5.53125 z m 9.34375,16.65625 9.21875,-5.53125 -9.25,-5.5625 9.25,-5.53125 -9.28125,-5.5625 9.25,-5.53125 9.3125,5.5625 -9.25,5.53125 9.25,5.5625 -9.25,5.53125 9.28125,5.5625 -9.21875,5.53125 h -0.0312 l -9.28125,-5.5625 z m -343.812453,-28.03125 9.28125,5.5625 -9.21875,5.53125 h -0.0312 l -9.28125,-5.5625 9.25,-5.53125 z m 167.218753,0.125 9.3125,5.5625 -9.25,5.53125 9.21875,5.5625 -9.25,5.53125 -9.25,-5.5625 9.25,-5.53125 -9.28125,-5.5625 z m 0.0312,22.1875 9.28125,5.5625 -9.21875,5.53125 9.28125,5.5625 -9.21875,5.53125 9.25,5.5625 -9.21875,5.53125 h -0.0312 l -9.28125,-5.5625 9.25,-5.53125 -9.28125,-5.5625 9.21875,-5.53125 -4.625,-2.78125 -4.625,-2.78125 z m -93.03125,-22.1875 9.25,5.5625 -9.21875,5.53125 9.25,5.5625 -9.21875,5.53125 h -0.0312 l -4.625,-2.78125 -4.625,-2.78125 9.21875,-5.53125 -9.25,-5.5625 9.21875,-5.53125 z m 111.5625,11.125 9.3125,5.5625 -9.25,5.53125 9.25,5.5625 -9.25,5.53125 -9.25,-5.5625 9.21875,-5.53125 -9.28125,-5.5625 z m 0.0625,22.1875 9.28125,5.5625 -9.21875,5.53125 9.28125,5.5625 -9.25,5.53125 9.28125,5.5625 -9.21875,5.53125 h -0.0312 l -9.28125,-5.5625 9.21875,-5.53125 -9.25,-5.5625 9.21875,-5.53125 -4.625,-2.78125 -4.625,-2.78125 9.21875,-5.53125 z m 9.34375,16.65625 9.21875,-5.53125 -9.25,-5.5625 9.25,-5.53125 -9.28125,-5.5625 9.25,-5.53125 9.3125,5.5625 -9.25,5.53125 9.25,5.5625 -9.25,5.53125 9.28125,5.5625 -9.21875,5.53125 9.25,5.5625 -9.21875,5.53125 9.25,5.5625 -9.21875,5.53125 h -0.0312 l -9.28125,-5.5625 9.25,-5.53125 -9.25,-5.5625 9.21875,-5.53125 -9.28125,-5.5625 z m 83.53125,-38.75 9.25,5.5625 -9.21875,5.53125 9.25,5.5625 -9.25,5.53125 9.28125,5.5625 -9.21875,5.53125 9.25,5.5625 -9.21875,5.53125 9.28125,5.5625 -9.25,5.53125 h -0.0312 l -9.25,-5.5625 9.21875,-5.53125 -4.625,-2.78125 -4.625,-2.78125 9.21875,-5.53125 -9.28125,-5.5625 9.21875,-5.53125 -4.625,-2.78125 -4.625,-2.78125 9.21875,-5.53125 -9.21875,-5.5625 9.21875,-5.53125 z m 9.40625,49.9375 9.21875,-5.53125 -9.25,-5.5625 9.21875,-5.53125 -4.625,-2.78125 -4.625,-2.78125 9.21875,-5.53125 -9.25,-5.5625 9.25,-5.53125 9.28125,5.5625 -9.21875,5.53125 9.25,5.5625 -9.25,5.53125 9.28125,5.5625 -9.25,5.53125 9.28125,5.5625 -9.21875,5.53125 h -0.0312 l -9.28125,-5.5625 z m 18.5,-11.0625 9.25,-5.53125 -9.25,-5.5625 9.21875,-5.53125 h 0.0312 l 9.28125,5.5625 -9.25,5.53125 9.28125,5.5625 -9.25,5.53125 h -0.0312 z m 64.96875,-38.78125 9.3125,5.5625 -9.25,5.53125 h -0.0312 l -9.28125,-5.5625 9.25,-5.53125 z m -315.68745,21.875 9.28125,5.5625 -9.21875,5.53125 h -0.0312 l -9.28125,-5.5625 9.25,-5.53125 z m 74.21875,0.125 9.25,5.5625 -9.21875,5.53125 9.25,5.5625 -9.21875,5.53125 9.28125,5.5625 -9.21875,5.53125 9.25,5.5625 -9.25,5.53125 9.28125,5.5625 -9.25,5.53125 h -0.0312 l -9.25,-5.5625 9.21875,-5.53125 -4.625,-2.78125 -4.625,-2.78125 9.21875,-5.53125 -9.25,-5.5625 9.21875,-5.53125 -4.625,-2.78125 -4.625,-2.78125 9.21875,-5.53125 -9.25,-5.5625 9.21875,-5.53125 z m 9.40625,49.9375 9.25,-5.53125 -9.25,-5.5625 9.21875,-5.53125 -4.625,-2.78125 -4.625,-2.78125 9.21875,-5.53125 -9.28125,-5.5625 9.25,-5.53125 9.28125,5.5625 -9.21875,5.53125 9.25,5.5625 -9.21875,5.53125 9.28125,5.5625 -9.25,5.53125 9.28125,5.5625 -9.25,5.53125 9.25,5.5625 -9.21875,5.53125 h -0.0312 l -9.25,-5.5625 9.21875,-5.53125 -9.28125,-5.5625 z m 18.53125,-11.0625 9.21875,-5.53125 -9.25,-5.5625 9.21875,-5.53125 h 0.0312 l 9.28125,5.5625 -9.25,5.53125 9.28125,5.5625 -9.21875,5.53125 9.25,5.5625 -9.21875,5.53125 9.25,5.5625 -9.25,5.53125 9.28125,5.5625 -9.21875,5.53125 h -0.0312 l -9.28125,-5.5625 9.21875,-5.53125 -4.625,-2.78125 -4.625,-2.78125 9.21875,-5.53125 -9.21875,-5.5625 9.21875,-5.53125 z m 64.90625,-38.8125 9.3125,5.5625 -9.25,5.53125 9.21875,5.5625 -9.25,5.53125 -9.25,-5.5625 9.25,-5.53125 -9.28125,-5.5625 z m 0.0312,22.1875 9.28125,5.5625 -9.21875,5.53125 9.28125,5.5625 -9.21875,5.53125 9.25,5.5625 -9.21875,5.53125 h -0.0312 l -9.28125,-5.5625 9.25,-5.53125 -9.28125,-5.5625 9.21875,-5.53125 -4.625,-2.78125 -4.625,-2.78125 9.21875,-5.53125 z m 18.53125,-11.0625 9.3125,5.5625 -9.25,5.53125 9.25,5.5625 -9.25,5.53125 -9.25,-5.5625 9.21875,-5.53125 -9.28125,-5.5625 z m 0.0625,22.1875 9.28125,5.5625 -9.21875,5.53125 9.28125,5.5625 -9.25,5.53125 9.28125,5.5625 -9.21875,5.53125 h -0.0312 l -9.28125,-5.5625 9.21875,-5.53125 -9.25,-5.5625 9.21875,-5.53125 -4.625,-2.78125 -4.625,-2.78125 9.21875,-5.53125 z m 9.34375,16.65625 9.21875,-5.53125 -9.25,-5.5625 9.25,-5.53125 -9.28125,-5.5625 9.25,-5.53125 9.3125,5.5625 -9.25,5.53125 9.25,5.5625 -9.25,5.53125 9.28125,5.5625 -9.21875,5.53125 h -0.0312 l -9.28125,-5.5625 z m -65.06245,-16.65625 9.25,5.5625 -9.21875,5.53125 9.25,5.5625 -9.21875,5.53125 9.28125,5.5625 -9.21875,5.53125 9.25,5.5625 -9.25,5.53125 9.28125,5.5625 -9.25,5.53125 h -0.0312 l -9.25,-5.5625 9.21875,-5.53125 -4.625,-2.78125 -4.625,-2.78125 9.21875,-5.53125 -9.25,-5.5625 9.21875,-5.53125 -4.625,-2.78125 -4.625,-2.78125 9.21875,-5.53125 -9.25,-5.5625 9.21875,-5.53125 z m 9.40625,49.9375 9.25,-5.53125 -9.25,-5.5625 9.21875,-5.53125 -4.625,-2.78125 -4.625,-2.78125 9.21875,-5.53125 -9.28125,-5.5625 9.25,-5.53125 9.28125,5.5625 -9.21875,5.53125 9.25,5.5625 -9.21875,5.53125 9.28125,5.5625 -9.25,5.53125 9.28125,5.5625 -9.25,5.53125 h -0.0312 l -9.28125,-5.5625 z m 18.53125,-11.0625 9.21875,-5.53125 -9.25,-5.5625 9.21875,-5.53125 h 0.0312 l 9.28125,5.5625 -9.25,5.53125 9.28125,5.5625 -9.21875,5.53125 h -0.0312 z m 64.90625,-38.8125 9.3125,5.5625 -9.25,5.53125 h -0.0312 l -9.28125,-5.5625 9.25,-5.53125 z"
       id="path3982"
       transform="matrix(0.92865449,0,0,0.90558945,18.677302,74.51133)" />
    <path
       style="fill:#e3dbdb;stroke-width:0.67374414"
       d="m 133.07207,788.65855 -20.51958,-20.61404 1.63387,-1.04917 c 0.89862,-0.57705 31.52202,-18.05294 68.052,-38.83533 36.52997,-20.78238 69.63849,-39.61899 73.57449,-41.85913 l 7.15636,-4.07297 13.76535,13.95948 c 18.70969,18.97356 22.42069,23.0329 21.68826,23.72407 -0.51636,0.48729 -63.10822,39.12474 -128.51528,79.33149 l -16.3159,10.02963 z"
       id="path6874"
       inkscape:connector-curvature="0" />
    <path
       style="fill:#e3dbdb;stroke-width:0.67374414"
       d="m 135.08148,809.21052 c -1.0959,-1.10723 -10.09128,-10.23348 -19.98974,-20.28055 l -17.997197,-18.26739 4.049387,-0.71277 c 2.22717,-0.39202 5.39436,-0.9187 7.03821,-1.1704 1.64385,-0.25169 3.36242,-0.76084 3.81904,-1.13145 0.55522,-0.45062 0.83023,-0.43089 0.83023,0.0596 0,0.40338 8.97146,9.97509 19.93659,21.27047 10.96512,11.29539 19.7074,20.555 19.4273,20.57692 -0.28011,0.0219 -3.79698,0.40635 -7.81528,0.85431 l -7.30599,0.81445 z"
       id="path6876"
       inkscape:connector-curvature="0" />
    <path
       style="fill:#916f6f;stroke-width:0.67374414"
       d="m 100.54405,768.57909 c 1.0959,-0.70024 24.10979,-13.73437 51.14196,-28.96474 27.03218,-15.23036 58.26531,-32.82793 69.40695,-39.10572 11.14164,-6.27779 20.95907,-11.87193 21.81649,-12.43143 1.60626,-1.04814 14.69903,-4.55864 15.17504,-4.06881 0.14676,0.15101 -1.61563,1.34773 -3.9164,2.65938 -60.94887,34.74638 -141.32891,80.34244 -142.33295,80.73925 -1.32421,0.52333 -11.35773,2.47591 -12.619449,2.45581 -0.365299,-0.006 0.232464,-0.5835 1.328359,-1.28374 z"
       id="path6878"
       inkscape:connector-curvature="0" />
    <path
       style="fill:#e3dbdb;stroke-width:0.67374414"
       d="m 117.19736,790.80219 -19.876666,-20.017 5.264676,-0.84576 c 2.89557,-0.46517 6.39558,-1.14589 7.7778,-1.51269 2.25463,-0.59832 20.78711,-11.04167 123.21879,-69.43578 l 29.42562,-16.77491 10.64188,10.85342 c 5.85303,5.96937 13.83209,14.00419 17.73125,17.85515 3.89916,3.85096 6.82862,7.00334 6.50992,7.0053 -0.31871,0.002 -0.24018,0.42425 0.17452,0.93841 0.61228,0.75916 -12.69678,9.22794 -70.82003,45.06394 -39.36571,24.27101 -72.12545,44.34653 -72.79941,44.61226 -0.96769,0.38154 -3.41221,-1.72996 -11.62318,-10.03977 -5.71878,-5.7876 -13.68547,-13.74953 -17.70377,-17.69317 -4.01829,-3.94363 0.30194,0.73588 9.60052,10.39893 9.29859,9.66303 16.77045,17.70918 16.60413,17.88031 -0.27037,0.27822 -12.43003,1.83725 -13.72507,1.75974 -0.28837,-0.0172 -9.46881,-9.03902 -20.40098,-20.04838 z"
       id="path6880"
       inkscape:connector-curvature="0" />
    <text
       xml:space="preserve"
       style="font-style:normal;font-weight:normal;font-size:32.81175232px;line-height:1.25;font-family:sans-serif;letter-spacing:0px;word-spacing:0px;fill:#000000;fill-opacity:1;stroke:none;stroke-width:0.82029384"
       x="-192.96611"
       y="744.8902"
       id="text6884"
       transform="matrix(0.83804527,-0.48991936,0.43811948,0.93712931,0,0)"><tspan
         sodipodi:role="line"
         id="tspan6882"
         x="-192.96611"
         y="744.8902"
         style="font-style:normal;font-variant:normal;font-weight:normal;font-stretch:normal;font-family:'Showcard Gothic';-inkscape-font-specification:'Showcard Gothic';stroke-width:0.82029384">FOSSASIA</tspan></text>
  </g>
</svg>
