<?xml version="1.0" encoding="UTF-8" standalone="no"?>
<!-- Created with Inkscape (http://www.inkscape.org/) -->

<svg
   xmlns:dc="http://purl.org/dc/elements/1.1/"
   xmlns:cc="http://creativecommons.org/ns#"
   xmlns:rdf="http://www.w3.org/1999/02/22-rdf-syntax-ns#"
   xmlns:svg="http://www.w3.org/2000/svg"
   xmlns="http://www.w3.org/2000/svg"
   xmlns:sodipodi="http://sodipodi.sourceforge.net/DTD/sodipodi-0.dtd"
   xmlns:inkscape="http://www.inkscape.org/namespaces/inkscape"
   width="428.54434"
   height="256"
   id="svg2"
   version="1.1"
   inkscape:version="0.92.2 5c3e80d, 2017-08-06"
   sodipodi:docname="banner-1.svg">
  <defs
     id="defs4">
    <inkscape:path-effect
       effect="powerstroke"
       id="path-effect6729"
       is_visible="true"
       offset_points="0,0.5"
       sort_points="true"
       interpolator_type="CubicBezierJohan"
       interpolator_beta="0.2"
       start_linecap_type="zerowidth"
       linejoin_type="extrp_arc"
       miter_limit="4"
       end_linecap_type="zerowidth" />
    <inkscape:path-effect
       effect="bspline"
       id="path-effect6727"
       is_visible="true"
       weight="33.333333"
       steps="2"
       helper_size="0"
       apply_no_weight="true"
       apply_with_weight="true"
       only_selected="false" />
    <inkscape:perspective
       sodipodi:type="inkscape:persp3d"
       inkscape:vp_x="-573.11496 : 23.484424 : 1"
       inkscape:vp_y="-380.17814 : 377.26123 : 0"
       inkscape:vp_z="1570.8655 : 966.48746 : 1"
       inkscape:persp3d-origin="565.55535 : 428.81652 : 1"
       id="perspective2985" />
    <filter
       style="color-interpolation-filters:sRGB"
       inkscape:label="Invert"
       id="filter6580">
      <feColorMatrix
         type="hueRotate"
         values="263"
         result="color1"
         id="feColorMatrix6576" />
      <feColorMatrix
         type="saturate"
         values="1"
         result="fbSourceGraphic"
         id="feColorMatrix6578" />
      <feColorMatrix
         result="fbSourceGraphicAlpha"
         in="fbSourceGraphic"
         values="0 0 0 -1 0 0 0 0 -1 0 0 0 0 -1 0 0 0 0 1 0"
         id="feColorMatrix6582" />
      <feColorMatrix
         id="feColorMatrix6584"
         type="hueRotate"
         values="263"
         result="color1"
         in="fbSourceGraphic" />
      <feColorMatrix
         id="feColorMatrix6586"
         type="saturate"
         values="1"
         result="fbSourceGraphic" />
      <feColorMatrix
         result="fbSourceGraphicAlpha"
         in="fbSourceGraphic"
         values="0 0 0 -1 0 0 0 0 -1 0 0 0 0 -1 0 0 0 0 1 0"
         id="feColorMatrix6588" />
      <feColorMatrix
         id="feColorMatrix6590"
         type="hueRotate"
         values="263"
         result="color1"
         in="fbSourceGraphic" />
      <feColorMatrix
         id="feColorMatrix6592"
         type="saturate"
         values="1"
         result="fbSourceGraphic" />
      <feColorMatrix
         result="fbSourceGraphicAlpha"
         in="fbSourceGraphic"
         values="0 0 0 -1 0 0 0 0 -1 0 0 0 0 -1 0 0 0 0 1 0"
         id="feColorMatrix6594" />
      <feColorMatrix
         id="feColorMatrix6596"
         type="hueRotate"
         values="263"
         result="color1"
         in="fbSourceGraphic" />
      <feColorMatrix
         id="feColorMatrix6598"
         type="saturate"
         values="1"
         result="fbSourceGraphic" />
      <feColorMatrix
         result="fbSourceGraphicAlpha"
         in="fbSourceGraphic"
         values="0 0 0 -1 0 0 0 0 -1 0 0 0 0 -1 0 0 0 0 1 0"
         id="feColorMatrix6714" />
      <feColorMatrix
         id="feColorMatrix6716"
         values="0 0 -1 0 1 0 -1 0 0 1 -1 0 0 0 1 -0.21 -0.72 -0.07 1.31 0 "
         result="color2"
         in="fbSourceGraphic" />
    </filter>
  </defs>
  <sodipodi:namedview
     id="base"
     pagecolor="#ffffff"
     bordercolor="#666666"
     borderopacity="1.0"
     inkscape:pageopacity="0.0"
     inkscape:pageshadow="2"
     inkscape:zoom="1.4"
     inkscape:cx="206.48428"
     inkscape:cy="154.37961"
     inkscape:document-units="mm"
     inkscape:current-layer="layer1"
     showgrid="false"
     inkscape:object-nodes="true"
     inkscape:window-width="1440"
     inkscape:window-height="792"
     inkscape:window-x="0"
     inkscape:window-y="0"
     inkscape:window-maximized="1"
     showguides="true"
     inkscape:guide-bbox="true"
     units="mm"
     fit-margin-top="0"
     fit-margin-left="0"
     fit-margin-right="0"
     fit-margin-bottom="0" />
  <metadata
     id="metadata7">
    <rdf:RDF>
      <cc:Work
         rdf:about="">
        <dc:format>image/svg+xml</dc:format>
        <dc:type
           rdf:resource="http://purl.org/dc/dcmitype/StillImage" />
        <dc:title></dc:title>
      </cc:Work>
    </rdf:RDF>
  </metadata>
  <g
     inkscape:label="Layer 1"
     inkscape:groupmode="layer"
     id="layer1"
     transform="translate(-53.643411,-638.92014)">
    <path
       inkscape:connector-curvature="0"
       id="path3908"
       d="M 474.37627,771.83168 268.91558,649.23729 63.454937,771.83164 268.91563,894.42603 Z"
       style="fill:#c4b7c8;stroke:#000000;stroke-width:0.99999994px;stroke-linecap:round;stroke-linejoin:round;stroke-opacity:1" />
    <path
       inkscape:connector-curvature="0"
       style="fill:#aa0000;stroke:#666666;stroke-width:1px;stroke-linecap:round;stroke-linejoin:round;stroke-opacity:1;filter:url(#filter6580)"
       d="m 259.67677,654.78125 9.28125,5.5625 -9.21875,5.53125 h -0.0312 l -9.28125,-5.5625 9.25,-5.53125 z m 18.5625,0.0312 9.28125,5.5625 -9.25,5.53125 9.28125,5.5625 -9.25,5.53125 h -0.0312 l -9.25,-5.5625 9.21875,-5.53125 -9.25,-5.5625 9.21875,-5.53125 z m 9.3125,16.65625 9.25,-5.53125 9.3125,5.5625 -9.25,5.53125 9.25,5.5625 -9.21875,5.53125 h -0.0312 l -9.25,-5.5625 9.21875,-5.53125 -9.28125,-5.5625 z m -46.53125,-5.5625 9.3125,5.5625 -9.25,5.53125 9.21875,5.5625 -9.21875,5.53125 9.28125,5.5625 -9.25,5.53125 9.28125,5.5625 -9.21875,5.53125 h -0.0312 l -9.28125,-5.5625 9.21875,-5.53125 -9.25,-5.5625 9.21875,-5.53125 -9.25,-5.5625 9.2187,-5.5312 h 0.0312 l -9.25,-5.5625 9.21875,-5.53125 z m 9.34375,27.75 9.21875,-5.53125 -9.25,-5.5625 9.25,-5.53125 -9.25,-5.5625 9.21875,-5.53125 h 0.0312 l 9.28125,5.5625 -9.25,5.53125 9.25,5.5625 -9.25,5.53125 9.28125,5.5625 -9.21875,5.53125 9.25,5.5625 -9.21875,5.53125 9.25,5.5625 -9.21875,5.53125 9.28125,5.5625 -9.21875,5.53125 9.25,5.5625 -9.25,5.53125 9.28125,5.5625 -9.25,5.53125 9.28125,5.5625 -9.21875,5.53125 9.25,5.5625 -9.21875,5.53125 h -0.0312 l -9.25,-5.5625 9.21875,-5.53125 -9.28125,-5.5625 9.21875,-5.53125 -9.25,-5.5625 9.21875,-5.53125 -4.625,-2.78125 -4.625,-2.78125 9.21875,-5.53125 -9.25,-5.5625 9.09375,-5.46875 0.125,-0.0625 -9.28125,-5.5625 9.25,-5.53125 -9.25,-5.5625 9.21875,-5.53125 z m 0.21875,66.5625 -9.25,5.53125 h -0.0312 l -9.25,-5.5625 9.21875,-5.53125 -4.625,-2.78125 -4.625,-2.78125 9.21875,-5.53125 -9.28125,-5.5625 9.25,-5.53125 9.28125,5.5625 -9.21875,5.53125 9.25,5.5625 -9.21875,5.53125 9.28125,5.5625 z m 18.5,-11.0625 9.25,-5.53125 -9.25,-5.5625 9.21875,-5.53125 h 0.0312 l 9.28125,5.5625 -9.25,5.53125 9.28125,5.5625 -9.25,5.53125 9.25,5.5625 -9.21875,5.53125 9.25,5.5625 -9.21875,5.53125 9.28125,5.5625 -9.21875,5.53125 h -0.0312 l -9.28125,-5.5625 9.21875,-5.53125 -4.625,-2.78125 -4.625,-2.78125 9.21875,-5.53125 -9.25,-5.5625 9.21875,-5.53125 z m -46.59375,-72.1875 9.28125,5.5625 -9.21875,5.53125 9.25,5.5625 -9.21875,5.53125 h -0.0312 l -9.25,-5.5625 9.21875,-5.53125 -9.28125,-5.5625 9.25,-5.53125 z m 92.875,0.0937 9.3125,5.5625 -9.09375,5.4375 9.25,5.5625 -9.21875,5.53125 h -0.0312 l -9.25,-5.5625 9.0625,-5.4375 -4.625,-2.78125 -4.625,-2.78125 9.21875,-5.53125 z m -37.21875,0 9.3125,5.5625 -9.25,5.53125 9.21875,5.5625 -9.25,5.53125 -9.25,-5.5625 9.25,-5.53125 -9.28125,-5.5625 z m 0.0312,22.1875 9.28125,5.5625 -9.21875,5.53125 h -0.0312 l -4.625,-2.78125 -4.625,-2.78125 9.21875,-5.53125 z m 55.9063,-11.15615 9.3125,5.5625 -9.25,5.53125 9.28125,5.5625 -9.25,5.53125 h -0.0312 l -9.25,-5.5625 9.21875,-5.53125 -4.625,-2.78125 -4.625,-2.78125 9.21875,-5.53125 z m 9.34375,16.65625 9.25,-5.53125 9.3125,5.5625 -9.25,5.53125 9.25,5.5625 -9.21875,5.53125 h -0.0312 l -9.25,-5.5625 9.21875,-5.53125 -9.28125,-5.5625 z m -139.59375,-16.65625 9.28125,5.5625 -9.21875,5.53125 9.25,5.5625 -9.25,5.53125 9.28125,5.5625 -9.25,5.53125 9.28125,5.5625 -9.21875,5.53125 9.25,5.5625 -9.21875,5.53125 h -0.0312 l -9.25,-5.5625 9.21875,-5.53125 -9.28125,-5.5625 9.21875,-5.53125 -9.25,-5.5625 9.21875,-5.53125 -9.25,-5.5625 9.2187,-5.53125 -4.625,-2.78125 -4.625,-2.78125 z m -9.15625,38.8125 -9.25,5.53125 h -0.0312 l -9.25,-5.5625 9.21875,-5.53125 -9.25,-5.5625 9.2187,-5.53125 -9.28125,-5.5625 9.25,-5.53125 9.28125,5.5625 -9.21875,5.53125 9.25,5.5625 -9.21875,5.53125 z m 18.5,-11.0625 9.25,-5.53125 -9.25,-5.5625 9.21875,-5.53125 h 0.0312 l 9.28125,5.5625 -9.25,5.53125 9.28125,5.5625 -9.25,5.53125 9.25,5.5625 -9.21875,5.53125 9.25,5.5625 -9.21875,5.53125 h -0.0312 l -4.625,-2.78125 -4.625,-2.78125 9.21875,-5.53125 -9.25,-5.5625 9.21875,-5.53125 z m 83.53125,-27.65625 9.3125,5.5625 -9.125,5.46875 9.28125,5.5625 -9.25,5.53125 -9.28125,-5.5625 9.09375,-5.46875 -9.28125,-5.5625 z m 0.21875,22.125 9.28125,5.5625 -9.21875,5.53125 9.28125,5.5625 -9.25,5.53125 9.28125,5.5625 -9.21875,5.53125 h -0.0312 l -9.28125,-5.5625 9.21875,-5.53125 -9.25,-5.5625 9.21875,-5.53125 -4.625,-2.78125 -4.625,-2.78125 9.21875,-5.53125 z m 9.34375,16.65625 9.21875,-5.53125 -9.25,-5.5625 9.25,-5.53125 -9.28125,-5.5625 9.25,-5.53125 9.3125,5.5625 -9.25,5.53125 9.25,5.5625 -9.25,5.53125 9.28125,5.5625 -9.21875,5.53125 9.25,5.5625 -9.21875,5.53125 9.25,5.5625 -9.21875,5.53125 h -0.0312 l -9.28125,-5.5625 9.25,-5.53125 -9.25,-5.5625 9.21875,-5.53125 -9.28125,-5.5625 z m -139.46875,-16.75 9.28125,5.5625 -9.21875,5.53125 h -0.0312 l -9.28125,-5.5625 9.25,-5.53125 z m 111.59375,0.0625 9.28125,5.5625 -9.21875,5.53125 9.25,5.5625 -9.21875,5.53125 h -0.0312 l -9.28125,-5.5625 9.25,-5.53125 -9.28125,-5.5625 9.25,-5.53125 z m 92.84375,0.0625 9.3125,5.5625 -9.25,5.53125 9.28125,5.5625 -9.21875,5.53125 h -0.0312 l -9.28125,-5.5625 9.21875,-5.53125 -4.625,-2.78125 -4.625,-2.78125 9.21875,-5.53125 z m -130.21875,0 9.25,5.5625 -9.21875,5.53125 9.25,5.5625 -9.25,5.53125 h -0.0312 l -4.625,-2.78125 -4.625,-2.78125 9.21875,-5.53125 -9.21875,-5.5625 9.21875,-5.53125 z m 93.03125,0.0312 9.3125,5.5625 -9.25,5.53125 9.21875,5.5625 -9.25,5.53125 -9.25,-5.56245 9.25,-5.53125 -9.28125,-5.5625 9.25,-5.53125 z m 0.0312,22.1875 9.28125,5.5625 -9.21875,5.53125 9.28125,5.5625 -9.21875,5.53125 9.25,5.5625 -9.21875,5.53125 h -0.0312 l -9.28125,-5.5625 9.25,-5.53125 -9.28125,-5.5625 9.21875,-5.53125 -4.625,-2.78125 -4.625,-2.78125 9.21875,-5.53125 z m -185.90625,-11.1875 9.3125,5.5625 -9.25,5.53125 9.21875,5.5625 -9.21875,5.53125 9.28125,5.5625 -9.25,5.53125 9.28125,5.5625 -9.21875,5.53125 h -0.0312 l -9.28125,-5.5625 9.21875,-5.53125 -9.25,-5.5625 9.21875,-5.53125 -9.25,-5.5625 9.21875,-5.53125 h 0.0312 l -9.25,-5.5625 z m 9.34375,27.75 9.21875,-5.53125 -9.25,-5.5625 9.25,-5.53125 -9.25,-5.5625 9.21875,-5.53125 h 0.0312 l 9.28125,5.5625 -9.25,5.53125 9.25,5.5625 -9.25,5.53125 9.28125,5.5625 -9.21875,5.53125 9.25,5.5625 -9.21875,5.53125 9.25,5.5625 -9.21875,5.53125 9.28125,5.5625 -9.21875,5.53125 9.25,5.5625 -9.21875,5.53125 9.28125,5.5625 -9.25,5.53125 9.28125,5.5625 -9.25,5.53125 9.25,5.5625 -9.21875,5.53125 h -0.0312 l -9.25,-5.5625 9.21875,-5.53125 -9.28125,-5.5625 9.25,-5.53125 -9.25,-5.5625 9.21875,-5.53125 -4.625,-2.78125 -4.625,-2.78125 9.21875,-5.53125 -9.28125,-5.5625 9.09375,-5.46875 0.125,-0.0625 -9.28125,-5.5625 9.25,-5.53125 -9.25,-5.5625 9.21875,-5.53125 z m 0.21875,66.5625 -9.25,5.53125 h -0.0312 l -9.25,-5.5625 9.21875,-5.53125 -4.625,-2.78125 -4.625,-2.78125 9.21875,-5.53125 -9.25,-5.5625 9.25,-5.53125 9.28125,5.5625 -9.21875,5.53125 9.25,5.5625 -9.25,5.53125 9.28125,5.5625 z m 18.53125,-11.0625 9.21875,-5.53125 -9.25,-5.5625 9.2188,-5.5312 h 0.0312 l 9.28125,5.5625 -9.25,5.53125 9.28125,5.5625 -9.21875,5.53125 9.25,5.5625 -9.21875,5.53125 9.25,5.5625 -9.25,5.53125 9.28125,5.5625 -9.21875,5.53125 h -0.0312 l -9.28125,-5.5625 9.21875,-5.53125 -4.625,-2.78125 -4.625,-2.78125 9.21875,-5.53125 -9.21875,-5.5625 9.21875,-5.53125 -9.28125,-5.5625 z m 213.56255,-83.1562 9.3125,5.5625 -9.25,5.53125 9.28125,5.5625 -9.25,5.53125 h -0.0312 l -9.25,-5.5625 9.21875,-5.53125 -4.625,-2.78125 L 380.61427,727 Z m 9.34375,16.65625 9.25,-5.53125 9.3125,5.5625 -9.25,5.53125 9.25,5.5625 -9.21875,5.53125 h -0.0312 l -9.25,-5.5625 9.21875,-5.53125 -9.28125,-5.5625 z m -46.5625,-16.625 9.3125,5.5625 -9.25,5.53125 9.25,5.5625 -9.25,5.53125 -9.25,-5.5625 9.21875,-5.53125 -9.28125,-5.5625 z m 0.0625,22.1875 9.28125,5.5625 -9.21875,5.53125 9.28125,5.5625 -9.25,5.53125 9.28125,5.5625 -9.21875,5.53125 h -0.0312 l -9.28125,-5.5625 9.21875,-5.53125 -9.25,-5.5625 9.21875,-5.53125 -4.625,-2.78125 -4.625,-2.78125 9.21875,-5.53125 z m 9.34375,16.65625 9.21875,-5.53125 -9.25,-5.5625 9.25,-5.53125 -9.28125,-5.5625 9.25,-5.53125 9.3125,5.5625 -9.25,5.53125 9.25,5.5625 -9.25,5.53125 9.28125,5.5625 -9.21875,5.53125 9.25,5.5625 -9.21875,5.53125 9.25,5.5625 -9.21875,5.53125 h -0.0312 l -9.28125,-5.5625 9.24995,-5.53125 -9.25,-5.5625 9.21875,-5.53125 z m -232.375,-27.90625 9.28125,5.5625 -9.21875,5.53125 9.25,5.5625 -9.21875,5.53125 h -0.0312 l -9.25,-5.5625 9.21875,-5.53125 -9.28125,-5.5625 9.25,-5.53125 z m 55.65625,0.0937 9.3125,5.5625 -9.25,5.53125 9.21875,5.5625 -9.25,5.53125 -9.25,-5.5625 9.25,-5.53125 -9.28125,-5.5625 z m 0.0312,22.1875 9.28125,5.5625 -9.0625,5.4375 9.25,5.5625 -9.21875,5.53125 9.25,5.5625 -9.21875,5.53125 h -0.0312 l -9.28125,-5.5625 9.25,-5.53125 -9.25,-5.5625 9.0625,-5.4375 -4.625,-2.78125 -4.625,-2.78125 9.21875,-5.53125 z m 37.375,-11.1875 9.28125,5.5625 -9.21875,5.53125 h -0.0312 l -9.28125,-5.5625 9.25,-5.53125 z m -111.71875,0.0312 9.28125,5.5625 -9.21875,5.53125 9.25,5.5625 -9.21875,5.53125 9.28125,5.5625 -9.25,5.53125 9.28125,5.5625 -9.25,5.53125 9.25,5.5625 -9.21875,5.53125 h -0.0312 l -9.25,-5.5625 9.21875,-5.53125 -9.28125,-5.5625 9.25,-5.53125 -9.25,-5.5625 9.21875,-5.53125 -9.25,-5.5625 9.21875,-5.53125 -9.28125,-5.5625 9.25,-5.53125 z m -9.1562,38.8126 -9.250003,5.53125 h -0.0312 l -9.25,-5.5625 9.21875,-5.53125 -9.25,-5.5625 9.21875,-5.53125 -4.625,-2.78125 -4.625,-2.78125 9.25,-5.53125 9.281253,5.5625 -9.218753,5.53125 9.250003,5.5625 -9.250003,5.53125 z m 18.53125,-11.0625 9.21875,-5.53125 -9.25,-5.5625 9.21875,-5.53125 h 0.0312 l 9.28125,5.5625 -9.25,5.53125 9.28125,5.5625 -9.21875,5.53125 9.25,5.5625 -9.21875,5.53125 9.25,5.5625 -9.25,5.53125 h -0.0312 l -4.625,-2.78125 -4.625,-2.78125 9.21875,-5.53125 -9.21875,-5.5625 9.21875,-5.53125 z m 176.5625,-27.65625 9.25,5.5625 -9.21875,5.53125 9.25,5.5625 -9.25,5.53125 9.28125,5.5625 -9.21875,5.53125 9.25,5.5625 -9.21875,5.53125 9.28125,5.5625 -9.25,5.53125 h -0.0312 l -9.25,-5.5625 9.21875,-5.53125 -4.625,-2.78125 -4.625,-2.78125 9.21875,-5.53125 -9.28125,-5.5625 9.21875,-5.53125 -4.625,-2.78125 -4.625,-2.78125 9.21875,-5.53125 -9.21875,-5.5625 9.21875,-5.53125 z m 9.40625,49.9375 9.21875,-5.53125 -9.25,-5.5625 9.21875,-5.53125 -4.625,-2.78125 -4.625,-2.78125 9.21875,-5.53125 -9.25,-5.5625 9.25,-5.53125 9.28125,5.5625 -9.21875,5.53125 9.25,5.5625 -9.25,5.53125 9.28125,5.5625 -9.25,5.53125 9.28125,5.5625 -9.21875,5.53125 9.25,5.5625 -9.21875,5.53125 h -0.0312 l -9.25,-5.5625 9.21875,-5.53125 -9.28125,-5.5625 z m 18.5,-11.0625 9.25,-5.53125 -9.25,-5.5625 9.21875,-5.53125 h 0.0312 l 9.28125,5.5625 -9.25,5.53125 9.28125,5.5625 -9.25,5.53125 9.25,5.5625 -9.21875,5.53125 9.25,5.5625 -9.21875,5.53125 9.28125,5.5625 -9.21875,5.53125 h -0.0312 l -9.28125,-5.5625 9.21875,-5.53125 -4.625,-2.78125 -4.625,-2.78125 9.21875,-5.53125 -9.25,-5.5625 9.21875,-5.53125 z m -120.96875,-38.875 9.3125,5.5625 -9.125,5.46875 9.25,5.53125 -9.25,5.53125 -9.25,-5.53125 9.09375,-5.46875 -9.28125,-5.5625 z m 0.1875,22.09375 9.28125,5.5625 -9.21875,5.53125 9.28125,5.5625 -9.25,5.53125 9.28125,5.5625 -9.21875,5.53125 h -0.0312 l -9.28125,-5.5625 9.21875,-5.53125 -9.25,-5.5625 9.21875,-5.53125 -4.625,-2.78125 -4.625,-2.78125 9.21875,-5.53125 z m 9.34375,16.65625 9.21875,-5.53125 -9.25,-5.5625 9.25,-5.53125 -9.28125,-5.5625 9.25,-5.53125 9.3125,5.5625 -9.25,5.53125 9.25,5.5625 -9.25,5.53125 9.28125,5.5625 -9.21875,5.53125 9.25,5.5625 -9.21875,5.53125 9.25,5.5625 -9.21875,5.53125 h -0.0312 l -9.28125,-5.5625 9.25,-5.53125 -9.25,-5.5625 9.21875,-5.53125 -9.28125,-5.5625 z m 213.59375,-38.6875 9.3125,5.5625 -9.25,5.53125 9.28125,5.5625 -9.21875,5.53125 h -0.0312 l -9.28125,-5.5625 9.21875,-5.53125 -4.625,-2.78125 -4.625,-2.78125 9.21875,-5.53125 z m -37.1875,0.0312 9.3125,5.5625 -9.25,5.53125 9.21875,5.5625 -9.25,5.53125 -9.25,-5.5625 9.25,-5.53125 -9.28125,-5.5625 z m 0.0312,22.18755 9.28125,5.5625 -9.21875,5.53125 9.28125,5.5625 -9.21875,5.53125 9.25,5.5625 -9.21875,5.53125 h -0.0312 l -9.28125,-5.5625 9.25,-5.53125 -9.28125,-5.5625 9.21875,-5.53125 -4.625,-2.78125 -4.625,-2.78125 z m 55.75,-11.09375 9.3125,5.5625 -9.25,5.53125 9.28125,5.5625 -9.25,5.53125 h -0.0312 l -9.25,-5.5625 9.21875,-5.53125 -4.625,-2.78125 -4.625,-2.78125 9.21875,-5.53125 z m 9.34375,16.65625 9.25,-5.53125 9.3125,5.5625 -9.25,5.53125 h -0.0312 L 454.92677,771.5 Z m -46.5625,-16.625 9.3125,5.5625 -9.25,5.53125 9.25,5.5625 -9.25,5.53125 -9.25,-5.5625 9.21875,-5.53125 -9.28125,-5.5625 z m 0.0625,22.1875 9.28125,5.5625 -9.21875,5.53125 9.28125,5.5625 -9.25,5.53125 9.28125,5.5625 -9.21875,5.53125 h -0.0312 l -9.28125,-5.5625 9.21875,-5.53125 -9.25,-5.5625 9.21875,-5.53125 -4.625,-2.78125 -4.625,-2.78125 9.21875,-5.53125 z m 9.34375,16.65625 9.21875,-5.53125 -9.25,-5.5625 9.25,-5.53125 -9.28125,-5.5625 9.25,-5.53125 9.3125,5.5625 -9.25,5.53125 9.25,5.5625 -9.25,5.53125 9.28125,5.5625 -9.21875,5.53125 h -0.0312 l -9.28125,-5.5625 z M 73.958017,765.6875 l 9.28125,5.5625 -9.21875,5.53125 h -0.0312 l -9.28125,-5.5625 9.25,-5.53125 z m 167.218753,0.125 9.3125,5.5625 -9.25,5.53125 9.21875,5.5625 -9.25,5.53125 -9.25,-5.5625 9.25,-5.53125 -9.28125,-5.5625 z m 0.0312,22.1875 9.28125,5.5625 -9.21875,5.53125 9.28125,5.5625 -9.21875,5.53125 9.25,5.5625 -9.21875,5.53125 h -0.0312 l -9.28125,-5.5625 9.25,-5.53125 -9.28125,-5.5625 9.21875,-5.53125 -4.625,-2.78125 -4.625,-2.78125 z m -93.03125,-22.1875 9.25,5.5625 -9.21875,5.53125 9.25,5.5625 L 148.23922,788 h -0.0312 l -4.625,-2.78125 -4.625,-2.78125 9.21875,-5.53125 -9.25,-5.5625 9.21875,-5.53125 z m 111.5625,11.125 9.3125,5.5625 -9.25,5.53125 9.25,5.5625 -9.25,5.53125 -9.25,-5.5625 9.21875,-5.53125 -9.28125,-5.5625 z m 0.0625,22.1875 9.28125,5.5625 -9.21875,5.53125 9.28125,5.5625 -9.25,5.53125 9.28125,5.5625 -9.21875,5.53125 h -0.0312 l -9.28125,-5.5625 9.21875,-5.53125 -9.25,-5.5625 9.21875,-5.53125 -4.625,-2.78125 -4.625,-2.78125 9.21875,-5.53125 z m 9.34375,16.65625 9.21875,-5.53125 -9.25,-5.5625 9.25,-5.53125 -9.28125,-5.5625 9.25,-5.53125 9.3125,5.5625 -9.25,5.53125 9.25,5.5625 -9.25,5.53125 9.28125,5.5625 -9.21875,5.53125 9.25,5.5625 -9.21875,5.53125 9.25,5.5625 -9.21875,5.53125 h -0.0312 l -9.28125,-5.5625 9.25,-5.53125 -9.25,-5.5625 9.21875,-5.53125 -9.28125,-5.5625 z m 83.53125,-38.75 9.25,5.5625 -9.21875,5.53125 9.25,5.5625 -9.25,5.53125 9.28125,5.5625 -9.21875,5.53125 9.25,5.5625 -9.21875,5.53125 9.28125,5.5625 -9.25,5.53125 h -0.0312 l -9.25,-5.5625 9.21875,-5.53125 -4.625,-2.78125 -4.625,-2.78125 9.21875,-5.53125 -9.28125,-5.5625 9.21875,-5.53125 -4.625,-2.78125 -4.625,-2.78125 9.21875,-5.53125 -9.21875,-5.5625 9.21875,-5.53125 z m 9.40625,49.9375 9.21875,-5.53125 -9.25,-5.5625 9.21875,-5.53125 -4.625,-2.78125 -4.625,-2.78125 9.21875,-5.53125 -9.25,-5.5625 9.25,-5.53125 9.28125,5.5625 -9.21875,5.53125 9.25,5.5625 -9.25,5.53125 9.28125,5.5625 -9.25,5.53125 9.28125,5.5625 -9.21875,5.53125 h -0.0312 l -9.28125,-5.5625 z m 18.5,-11.0625 9.25,-5.53125 -9.25,-5.5625 9.21875,-5.53125 h 0.0312 l 9.28125,5.5625 -9.25,5.53125 9.28125,5.5625 -9.25,5.53125 h -0.0312 z m 64.96875,-38.78125 9.3125,5.5625 -9.25,5.53125 h -0.0312 l -9.28125,-5.5625 9.25,-5.53125 z M 129.86427,799 l 9.28125,5.5625 -9.21875,5.53125 h -0.0312 l -9.28125,-5.5625 9.25,-5.53125 z m 74.21875,0.125 9.25,5.5625 -9.21875,5.53125 9.25,5.5625 -9.21875,5.53125 9.28125,5.5625 -9.21875,5.53125 9.25,5.5625 -9.25,5.53125 9.28125,5.5625 -9.25,5.53125 h -0.0312 l -9.25,-5.5625 9.21875,-5.53125 -4.625,-2.78125 -4.625,-2.78125 9.21875,-5.53125 -9.25,-5.5625 9.21875,-5.53125 -4.625,-2.78125 -4.625,-2.78125 9.21875,-5.53125 -9.25,-5.5625 9.21875,-5.53125 z m 9.40625,49.9375 9.25,-5.53125 -9.25,-5.5625 9.21875,-5.53125 -4.625,-2.78125 -4.625,-2.78125 9.21875,-5.53125 -9.28125,-5.5625 9.25,-5.53125 9.28125,5.5625 -9.21875,5.53125 9.25,5.5625 -9.21875,5.53125 9.28125,5.5625 -9.25,5.53125 9.28125,5.5625 -9.25,5.53125 9.25,5.5625 -9.21875,5.53125 h -0.0312 l -9.25,-5.5625 9.21875,-5.53125 -9.28125,-5.5625 z M 232.02052,838 l 9.21875,-5.53125 -9.25,-5.5625 9.21875,-5.53125 h 0.0312 l 9.28125,5.5625 -9.25,5.53125 9.28125,5.5625 -9.21875,5.53125 9.25,5.5625 -9.21875,5.53125 9.25,5.5625 -9.25,5.53125 9.28125,5.5625 -9.21875,5.53125 h -0.0312 l -9.28125,-5.5625 9.21875,-5.53125 -4.625,-2.78125 -4.625,-2.78125 9.21875,-5.53125 -9.21875,-5.5625 9.21875,-5.53125 z m 64.90625,-38.8125 9.3125,5.5625 -9.25,5.53125 9.21875,5.5625 -9.25,5.53125 -9.25,-5.5625 9.25,-5.53125 -9.28125,-5.5625 z m 0.0312,22.1875 9.28125,5.5625 -9.21875,5.53125 9.28125,5.5625 -9.21875,5.53125 9.25,5.5625 -9.21875,5.53125 h -0.0312 l -9.28125,-5.5625 9.25,-5.53125 -9.28125,-5.5625 9.21875,-5.53125 -4.625,-2.78125 -4.625,-2.78125 9.21875,-5.53125 z m 18.53125,-11.0625 9.3125,5.5625 -9.25,5.53125 9.25,5.5625 -9.25,5.53125 -9.25,-5.5625 9.21875,-5.53125 -9.28125,-5.5625 z m 0.0625,22.1875 9.28125,5.5625 -9.21875,5.53125 9.28125,5.5625 -9.25,5.53125 9.28125,5.5625 -9.21875,5.53125 h -0.0312 l -9.28125,-5.5625 9.21875,-5.53125 -9.25,-5.5625 9.21875,-5.53125 -4.625,-2.78125 -4.625,-2.78125 9.21875,-5.53125 z m 9.34375,16.65625 9.21875,-5.53125 -9.25,-5.5625 9.25,-5.53125 -9.28125,-5.5625 9.25,-5.53125 9.3125,5.5625 -9.25,5.53125 9.25,5.5625 -9.25,5.53125 9.28125,5.5625 -9.21875,5.53125 h -0.0312 l -9.28125,-5.5625 z M 259.83302,832.5 l 9.25,5.5625 -9.21875,5.53125 9.25,5.5625 -9.21875,5.53125 9.28125,5.5625 -9.21875,5.53125 9.25,5.5625 -9.25,5.53125 9.28125,5.5625 -9.25,5.53125 h -0.0312 l -9.25,-5.5625 9.21875,-5.53125 -4.625,-2.78125 -4.625,-2.78125 9.21875,-5.53125 -9.25,-5.5625 9.21875,-5.53125 -4.625,-2.78125 -4.625,-2.78125 9.21875,-5.53125 -9.25,-5.5625 9.21875,-5.53125 z m 9.40625,49.9375 9.25,-5.53125 -9.25,-5.5625 9.21875,-5.53125 -4.625,-2.78125 -4.625,-2.78125 9.21875,-5.53125 -9.28125,-5.5625 9.25,-5.53125 9.28125,5.5625 -9.21875,5.53125 9.25,5.5625 -9.21875,5.53125 9.28125,5.5625 -9.25,5.53125 9.28125,5.5625 -9.25,5.53125 h -0.0312 l -9.28125,-5.5625 z m 18.53125,-11.0625 9.21875,-5.53125 -9.25,-5.5625 9.21875,-5.53125 h 0.0312 l 9.28125,5.5625 -9.25,5.53125 9.28125,5.5625 -9.21875,5.53125 h -0.0312 z m 64.90625,-38.8125 9.3125,5.5625 -9.25,5.53125 h -0.0312 l -9.28125,-5.5625 9.25,-5.53125 z"
       id="path3982" />
    <path
       style="fill:#000000;fill-rule:nonzero;stroke:none;stroke-width:1px;stroke-linecap:butt;stroke-linejoin:miter;stroke-opacity:1"
       d="m -659.34809,1215.3045 c 148.575,-88.7251 594.30001,-354.90018 742.875012,-443.62522 z M 83.014212,770.82072 C -65.560791,859.54576 -511.2858,1125.7209 -659.8608,1214.4459 Z"
       id="path6725"
       inkscape:connector-curvature="0"
       inkscape:path-effect="#path-effect6727;#path-effect6729"
       inkscape:original-d="M 83.270567,771.25 268.98932,660.3437 445.64547,765.9375 269.20802,871.34375 Z" />
    <path
       style="fill:#e3dbdb;stroke-width:0.71428573"
       d="m 84.680419,214.26069 -22.067527,-21.54427 1.757122,-1.09651 c 0.966417,-0.60309 33.899979,-18.8676 73.185696,-40.58781 39.28571,-21.72021 74.89187,-41.40684 79.12479,-43.74806 l 7.69622,-4.25677 14.80378,14.58941 c 20.12111,19.82976 24.11206,24.07229 23.32437,24.79465 -0.55531,0.50927 -67.86896,40.89028 -138.21019,82.91139 l -17.54673,10.48223 z"
       id="path6874"
       inkscape:connector-curvature="0"
       transform="translate(53.643411,569.625)" />
    <path
       style="fill:#e3dbdb;stroke-width:0.71428573"
       d="m 86.841422,235.74009 c -1.178571,-1.1572 -10.852547,-10.69528 -21.497724,-21.19573 l -19.354867,-19.09172 4.354867,-0.74494 c 2.395177,-0.40971 5.801296,-0.96015 7.569153,-1.22321 1.767857,-0.26305 3.616071,-0.79518 4.107143,-1.18251 0.597101,-0.47096 0.892857,-0.45033 0.892857,0.0623 0,0.42158 9.648252,10.42522 21.44056,22.23032 11.792308,11.8051 21.194089,21.48256 20.892859,21.50547 -0.30124,0.0229 -4.08342,0.42469 -8.404848,0.89286 l -7.857143,0.85121 z"
       id="path6876"
       inkscape:connector-curvature="0"
       transform="translate(53.643411,569.625)" />
    <path
       style="fill:#916f6f;stroke-width:0.71428573"
       d="m 49.698565,193.27513 c 1.178571,-0.73184 25.928571,-14.35415 54.999995,-30.2718 29.07143,-15.91765 62.66072,-34.30933 74.64286,-40.87041 11.98214,-6.56108 22.54017,-12.40766 23.46228,-12.99241 1.72743,-1.09543 15.80789,-4.76435 16.31981,-4.25242 0.15783,0.15783 -1.73751,1.40855 -4.21185,2.77939 -65.54672,36.31434 -151.990449,83.96797 -153.070238,84.38269 -1.424098,0.54694 -12.214523,2.58763 -13.571428,2.56663 -0.392857,-0.006 0.25,-0.60983 1.428571,-1.34167 z"
       id="path6878"
       inkscape:connector-curvature="0"
       transform="translate(53.643411,569.625)" />
    <path
       style="fill:#e3dbdb;stroke-width:0.71428573"
       d="m 67.608161,216.50107 -21.376119,-20.92029 5.661833,-0.88393 c 3.114008,-0.48616 6.878052,-1.19759 8.364542,-1.58095 2.424712,-0.62532 22.355238,-11.53993 132.514143,-72.56913 l 31.64543,-17.5319 11.44468,11.34319 c 6.29457,6.23875 14.87555,14.63615 19.06885,18.66088 4.19331,4.02474 7.34376,7.31938 7.00102,7.32143 -0.34275,0.002 -0.2583,0.44339 0.18768,0.98075 0.65847,0.79342 -13.65459,9.64436 -76.16254,47.0975 -42.33537,25.36626 -77.56643,46.3477 -78.29124,46.62543 -1.04069,0.39875 -3.66961,-1.80803 -12.500005,-10.49283 -6.150185,-6.04877 -14.71787,-14.36999 -19.039299,-18.49159 -4.321428,-4.12159 0.324715,0.76909 10.324762,10.86819 10.000049,10.09909 18.035572,18.50833 17.856712,18.68718 -0.29077,0.29077 -13.367728,1.92016 -14.760464,1.83915 -0.310127,-0.018 -10.18312,-9.44692 -21.939985,-20.95308 z"
       id="path6880"
       inkscape:connector-curvature="0"
       transform="translate(53.643411,569.625)" />
    <text
       xml:space="preserve"
       style="font-style:normal;font-weight:normal;font-size:34.78615189px;line-height:1.25;font-family:sans-serif;letter-spacing:0px;word-spacing:0px;fill:#000000;fill-opacity:1;stroke:none;stroke-width:0.86965382"
       x="-215.06003"
       y="745.95532"
       id="text6884"
       transform="matrix(0.85011136,-0.48296567,0.44442748,0.92382813,0,0)"><tspan
         sodipodi:role="line"
         id="tspan6882"
         x="-215.06003"
         y="745.95532"
         style="font-style:normal;font-variant:normal;font-weight:normal;font-stretch:normal;font-family:'Showcard Gothic';-inkscape-font-specification:'Showcard Gothic';stroke-width:0.86965382">FOSSASIA</tspan></text>
  </g>
</svg>
