<?xml version="1.0" encoding="UTF-8" standalone="no"?>
<!-- Created with Inkscape (http://www.inkscape.org/) -->

<svg
   xmlns:dc="http://purl.org/dc/elements/1.1/"
   xmlns:cc="http://creativecommons.org/ns#"
   xmlns:rdf="http://www.w3.org/1999/02/22-rdf-syntax-ns#"
   xmlns:svg="http://www.w3.org/2000/svg"
   xmlns="http://www.w3.org/2000/svg"
   xmlns:sodipodi="http://sodipodi.sourceforge.net/DTD/sodipodi-0.dtd"
   xmlns:inkscape="http://www.inkscape.org/namespaces/inkscape"
   width="426.00534"
   height="279.59802"
   id="svg2"
   version="1.1"
   inkscape:version="0.92.2 5c3e80d, 2017-08-06"
   sodipodi:docname="banner-Chess.svg"
   viewBox="0 0 399.38002 262.12316">
  <defs
     id="defs4">
    <inkscape:path-effect
       effect="powerstroke"
       id="path-effect6729"
       is_visible="true"
       offset_points="0,0.5"
       sort_points="true"
       interpolator_type="CubicBezierJohan"
       interpolator_beta="0.2"
       start_linecap_type="zerowidth"
       linejoin_type="extrp_arc"
       miter_limit="4"
       end_linecap_type="zerowidth" />
    <inkscape:path-effect
       effect="bspline"
       id="path-effect6727"
       is_visible="true"
       weight="33.333333"
       steps="2"
       helper_size="0"
       apply_no_weight="true"
       apply_with_weight="true"
       only_selected="false" />
    <inkscape:perspective
       sodipodi:type="inkscape:persp3d"
       inkscape:vp_x="-573.11498 : 23.484426 : 1"
       inkscape:vp_y="-380.17815 : 377.26126 : 0"
       inkscape:vp_z="1570.8656 : 966.48752 : 1"
       inkscape:persp3d-origin="565.55537 : 428.81655 : 1"
       id="perspective2985" />
    <filter
       style="color-interpolation-filters:sRGB"
       inkscape:label="Invert"
       id="filter6580">
      <feColorMatrix
         type="hueRotate"
         values="263"
         result="color1"
         id="feColorMatrix6576" />
      <feColorMatrix
         type="saturate"
         values="1"
         result="fbSourceGraphic"
         id="feColorMatrix6578" />
      <feColorMatrix
         result="fbSourceGraphicAlpha"
         in="fbSourceGraphic"
         values="0 0 0 -1 0 0 0 0 -1 0 0 0 0 -1 0 0 0 0 1 0"
         id="feColorMatrix6582" />
      <feColorMatrix
         id="feColorMatrix6584"
         type="hueRotate"
         values="263"
         result="color1"
         in="fbSourceGraphic" />
      <feColorMatrix
         id="feColorMatrix6586"
         type="saturate"
         values="1"
         result="fbSourceGraphic" />
      <feColorMatrix
         result="fbSourceGraphicAlpha"
         in="fbSourceGraphic"
         values="0 0 0 -1 0 0 0 0 -1 0 0 0 0 -1 0 0 0 0 1 0"
         id="feColorMatrix6588" />
      <feColorMatrix
         id="feColorMatrix6590"
         type="hueRotate"
         values="263"
         result="color1"
         in="fbSourceGraphic" />
      <feColorMatrix
         id="feColorMatrix6592"
         type="saturate"
         values="1"
         result="fbSourceGraphic" />
      <feColorMatrix
         result="fbSourceGraphicAlpha"
         in="fbSourceGraphic"
         values="0 0 0 -1 0 0 0 0 -1 0 0 0 0 -1 0 0 0 0 1 0"
         id="feColorMatrix6594" />
      <feColorMatrix
         id="feColorMatrix6596"
         type="hueRotate"
         values="263"
         result="color1"
         in="fbSourceGraphic" />
      <feColorMatrix
         id="feColorMatrix6598"
         type="saturate"
         values="1"
         result="fbSourceGraphic" />
      <feColorMatrix
         result="fbSourceGraphicAlpha"
         in="fbSourceGraphic"
         values="0 0 0 -1 0 0 0 0 -1 0 0 0 0 -1 0 0 0 0 1 0"
         id="feColorMatrix6714" />
      <feColorMatrix
         id="feColorMatrix6716"
         values="0 0 -1 0 1 0 -1 0 0 1 -1 0 0 0 1 -0.21 -0.72 -0.07 1.31 0 "
         result="color2"
         in="fbSourceGraphic" />
    </filter>
  </defs>
  <sodipodi:namedview
     id="base"
     pagecolor="#ffffff"
     bordercolor="#666666"
     borderopacity="1.0"
     inkscape:pageopacity="0.0"
     inkscape:pageshadow="2"
     inkscape:zoom="0.98994949"
     inkscape:cx="378.18977"
     inkscape:cy="54.469276"
     inkscape:document-units="mm"
     inkscape:current-layer="layer1"
     showgrid="false"
     inkscape:object-nodes="true"
     inkscape:window-width="1440"
     inkscape:window-height="766"
     inkscape:window-x="0"
     inkscape:window-y="1"
     inkscape:window-maximized="1"
     showguides="true"
     inkscape:guide-bbox="true"
     units="mm"
     fit-margin-top="0"
     fit-margin-left="0"
     fit-margin-right="0"
     fit-margin-bottom="0" />
  <metadata
     id="metadata7">
    <rdf:RDF>
      <cc:Work
         rdf:about="">
        <dc:format>image/svg+xml</dc:format>
        <dc:type
           rdf:resource="http://purl.org/dc/dcmitype/StillImage" />
        <dc:title />
      </cc:Work>
    </rdf:RDF>
  </metadata>
  <g
     inkscape:label="Layer 1"
     inkscape:groupmode="layer"
     id="layer1"
     transform="translate(-21.698229,-627.3937)">
    <path
       inkscape:connector-curvature="0"
       id="path3908"
       d="M 378.76151,746.75517 221.10821,649.23729 63.454937,746.75513 221.10825,844.273 Z"
       style="fill:#000000;fill-opacity:1;stroke:#000000;stroke-width:0.78125709px;stroke-linecap:round;stroke-linejoin:round;stroke-opacity:1" />
    <path
       inkscape:connector-curvature="0"
       style="fill:#000000;fill-opacity:1;stroke:none;stroke-width:0.41082248px;stroke-linecap:round;stroke-linejoin:round;stroke-opacity:1;filter:url(#filter6580)"
       d="m 148.17672,721.37495 9.3125,5.5625 -9.25,5.53125 9.21875,5.5625 -9.21875,5.53125 9.28125,5.5625 -9.25,5.53125 9.28125,5.5625 -9.21875,5.53125 h -0.0312 l -9.28125,-5.5625 9.21875,-5.53125 -9.25,-5.5625 9.21875,-5.53125 -9.25,-5.5625 9.21875,-5.53125 h 0.0312 l -9.25,-5.5625 z m 9.34375,27.75 9.21875,-5.53125 -9.25,-5.5625 9.25,-5.53125 -9.25,-5.5625 c 9.2812,5.5625 0,0 9.2812,5.5625 l 9.25,5.5625 -9.25,5.53125 9.28125,5.5625 -9.21875,5.53125 9.25,5.5625 -9.21875,5.53125 9.25,5.5625 -9.21875,5.53125 9.28125,5.5625 -9.21875,5.53125 9.25,5.5625 -9.21875,5.53125 9.28125,5.5625 -9.25,5.53125 c -9.28115,5.53125 0,0 -9.2812,5.53125 l 9.25,-5.53125 -9.25,-5.5625 9.21875,-5.53125 -4.625,-2.78125 -4.625,-2.78125 9.21875,-5.53125 -9.28125,-5.5625 9.09375,-5.46875 0.125,-0.0625 -9.28125,-5.5625 9.25,-5.53125 -9.25,-5.5625 9.21875,-5.53125 z m 0.21875,66.5625 -9.25,5.53125 h -0.0312 l -9.25,-5.5625 9.21875,-5.53125 -4.625,-2.78125 -4.625,-2.78125 9.21875,-5.53125 -9.25,-5.5625 9.25,-5.53125 9.28125,5.5625 -9.21875,5.53125 9.25,5.5625 -9.25,5.53125 9.28125,5.5625 z m 18.53125,-11.0625 9.21875,-5.53125 -9.25,-5.5625 9.2188,-5.5312 h 0.0312 l 9.28125,5.5625 -9.25,5.53125 c -9.25,5.5312 -0.0312,-5e-5 -9.24995,5.53125 z m -46.62495,-72.18745 9.28125,5.5625 -9.21875,5.53125 9.25,5.5625 -9.21875,5.53125 h -0.0312 l -9.25,-5.5625 9.21875,-5.53125 -9.28125,-5.5625 9.25,-5.53125 z m 55.71875,11.18745 9.21875,5.5625 -9.25,5.53125 -9.25,-5.5625 9.25,-5.53125 -9.28125,-5.5625 c 9.3125,5.5625 -0.0314,0 9.3125,5.5625 z m -0.0313,11.09375 9.28125,5.5625 -9.0625,5.4375 9.25,5.5625 -9.21875,5.53125 9.25,5.5625 -9.21875,5.53125 h -0.0312 l -9.28125,-5.5625 9.25,-5.53125 -9.25,-5.5625 9.0625,-5.4375 -4.625,-2.78125 -4.625,-2.78125 9.21875,-5.53125 z m -74.34375,-11.1563 9.28125,5.5625 -9.21875,5.53125 9.25,5.5625 -9.21875,5.53125 9.28125,5.5625 -9.25,5.53125 9.28125,5.5625 -9.25,5.53125 9.25,5.5625 -9.21875,5.53125 h -0.0312 l -9.25,-5.5625 9.21875,-5.53125 -9.28125,-5.5625 9.25,-5.53125 -9.25,-5.5625 9.21875,-5.53125 -9.25,-5.5625 9.21875,-5.53125 -9.28125,-5.5625 9.25,-5.53125 z m -9.1562,38.8126 -9.250003,5.53125 h -0.0312 l -9.25,-5.5625 9.21875,-5.53125 -9.25,-5.5625 9.21875,-5.53125 -4.625,-2.78125 -4.625,-2.78125 9.25,-5.53125 9.281253,5.5625 -9.218753,5.53125 9.250003,5.5625 -9.250003,5.53125 z m 18.53125,-11.0625 9.21875,-5.53125 -9.25,-5.5625 9.21875,-5.53125 h 0.0312 l 9.28125,5.5625 -9.25,5.53125 9.28125,5.5625 -9.21875,5.53125 9.25,5.5625 -9.21875,5.53125 9.25,5.5625 -9.25,5.53125 h -0.0312 l -4.625,-2.78125 -4.625,-2.78125 9.21875,-5.53125 -9.21875,-5.5625 9.21875,-5.53125 z m 83.6875,-16.625 9.25,5.53125 -9.25,5.53125 -9.25,-5.53125 9.09375,-5.46875 -9.28125,-5.5625 c 9.28125,5.5625 0,0 9.4375,5.5 z m 0,11.0625 9.28125,5.5625 -9.21875,5.53125 9.28125,5.5625 -9.25,5.53125 c -9.24995,5.53125 0,0 -9.24995,5.53125 0,0 -0.1251,0.0937 9.24995,-5.53125 -9.2812,-5.5625 -9.2812,-5.5625 -9.2812,-5.5625 l 9.21875,-5.53125 -4.625,-2.78125 -4.625,-2.78125 9.21875,-5.53125 z m 9.34375,16.65625 9.21875,-5.53125 -9.25,-5.5625 9.25,-5.53125 c -14.97178,-8.92597 -9.3125,-5.5625 0.0312,0 l 9.25,5.5625 -9.25,5.53125 c -9.24995,5.53125 0,0 -9.24995,5.53125 z M 73.958017,765.6875 l 9.28125,5.5625 -9.21875,5.53125 h -0.0312 l -9.28125,-5.5625 9.25,-5.53125 z m 157.968753,5.65625 c -9.3125,5.53125 -9.2813,5.53125 0,0 z m -83.75005,-5.53125 9.25,5.5625 -9.21875,5.53125 9.25,5.5625 L 148.23922,788 h -0.0312 l -4.625,-2.78125 -4.625,-2.78125 9.21875,-5.53125 -9.25,-5.5625 9.21875,-5.53125 z M 129.86427,799 l 9.28125,5.5625 -9.21875,5.53125 h -0.0312 l -9.28125,-5.5625 9.25,-5.53125 z"
       id="path3982"
       transform="matrix(1.9903078,0,0,2.1877778,-73.809072,-928.97081)"
       sodipodi:nodetypes="ccccccccccccccccccccccccccccccccccccccccccccccccccccccccccccccccccccccccccccccccccccccccccccccccccccccccccccccccccccccccccccccccccccccccccccccccccccccccccccccccccccccccccccccccccccccccccccccccccccccccccccccccccccccccccccccccccc" />
    <path
       style="fill:#000000;fill-rule:nonzero;stroke:none;stroke-width:1px;stroke-linecap:butt;stroke-linejoin:miter;stroke-opacity:1"
       d="m -659.34809,1215.3045 c 148.575,-88.7251 594.30001,-354.90018 742.875012,-443.62522 z M 83.014212,770.82072 C -65.560791,859.54576 -511.2858,1125.7209 -659.8608,1214.4459 Z"
       id="path6725"
       inkscape:connector-curvature="0"
       inkscape:path-effect="#path-effect6727;#path-effect6729"
       inkscape:original-d="M 83.270567,771.25 268.98932,660.3437 445.64547,765.9375 269.20802,871.34375 Z" />
  </g>
</svg>
