<?xml version="1.0" encoding="UTF-8" standalone="no"?>
<svg
   xmlns:dc="http://purl.org/dc/elements/1.1/"
   xmlns:cc="http://creativecommons.org/ns#"
   xmlns:rdf="http://www.w3.org/1999/02/22-rdf-syntax-ns#"
   xmlns:svg="http://www.w3.org/2000/svg"
   xmlns="http://www.w3.org/2000/svg"
   xmlns:sodipodi="http://sodipodi.sourceforge.net/DTD/sodipodi-0.dtd"
   xmlns:inkscape="http://www.inkscape.org/namespaces/inkscape"
   version="1.0"
   width="405.58148pt"
   height="260.06805pt"
   viewBox="0 0 405.58148 260.06806"
   preserveAspectRatio="xMidYMid meet"
   id="svg10"
   sodipodi:docname="BeautifulMesh.svg"
   inkscape:version="0.92.2 5c3e80d, 2017-08-06">
  <defs
     id="defs14" />
  <sodipodi:namedview
     pagecolor="#ffffff"
     bordercolor="#666666"
     borderopacity="1"
     objecttolerance="10"
     gridtolerance="10"
     guidetolerance="10"
     inkscape:pageopacity="0"
     inkscape:pageshadow="2"
     inkscape:window-width="640"
     inkscape:window-height="480"
     id="namedview12"
     showgrid="false"
     inkscape:zoom="0.44021739"
     inkscape:cx="368.13333"
     inkscape:cy="108.34842"
     inkscape:window-x="0"
     inkscape:window-y="0"
     inkscape:window-maximized="0"
     inkscape:current-layer="svg10" />
  <metadata
     id="metadata2">
Created by potrace 1.15, written by Peter Selinger 2001-2017
<rdf:RDF>
  <cc:Work
     rdf:about="">
    <dc:format>image/svg+xml</dc:format>
    <dc:type
       rdf:resource="http://purl.org/dc/dcmitype/StillImage" />
  </cc:Work>
</rdf:RDF>
</metadata>
  <g
     transform="matrix(0.0734616,0,0,-0.08841578,0.0734616,259.99811)"
     id="g8"
     style="fill:#000000;stroke:none;stroke-width:1.24080896">
    <path
       d="m 3,2856 c 1,-46 5,-82 8,-80 4,2 22,37 40,79 26,58 39,75 54,74 12,0 15,-3 7,-6 -8,-3 -27,-33 -43,-67 -32,-66 -40,-112 -10,-57 11,21 20,29 23,21 2,-8 15,14 27,48 20,53 27,62 48,62 h 25 l -32,-36 c -37,-43 -50,-73 -50,-120 0,-40 -26,-98 -40,-89 -6,4 -10,2 -10,-3 0,-5 -11,-22 -25,-38 -14,-16 -25,-41 -25,-55 v -26 l 57,19 c 71,24 123,18 189,-23 80,-49 134,-122 134,-179 -1,-33 -3,-31 -34,35 -39,84 -76,118 -153,140 -87,26 -193,8 -193,-32 0,-11 4,-13 13,-6 6,5 31,15 55,22 36,10 52,10 96,-3 l 54,-16 -10,-40 c -8,-29 -19,-45 -39,-56 -16,-8 -29,-18 -29,-23 0,-18 -43,-19 -69,-1 -14,10 -36,21 -49,25 -19,6 -22,3 -22,-25 0,-28 2,-30 21,-19 31,16 70,-25 74,-77 2,-22 1,-33 -2,-26 -9,23 -20,12 -15,-15 4,-27 4,-27 -12,-8 -8,11 -16,15 -16,9 0,-7 -11,-15 -25,-18 l -26,-7 2,-119 1,-119 39,-6 c 21,-4 39,-11 39,-16 0,-6 5,-7 10,-4 6,3 10,2 10,-4 0,-6 7,-7 17,-4 12,5 14,3 8,-7 -6,-10 -4,-12 8,-7 10,4 16,2 14,-6 -1,-7 6,-11 15,-11 10,1 15,-3 11,-9 -4,-6 0,-8 11,-4 10,4 15,3 11,-3 -3,-6 1,-10 9,-10 9,0 16,-7 16,-15 0,-18 -41,-36 -88,-40 -18,-1 -38,-7 -45,-14 -15,-15 -30,-14 -20,2 16,25 12,38 -10,31 -25,-7 -57,-33 -57,-45 0,-5 12,-12 26,-15 l 26,-7 -26,-16 C 4,1778 0,1768 0,1728 v -47 l 43,-4 42,-4 -45,-1 c -33,-2 -41,-5 -30,-12 11,-7 11,-10 2,-10 -7,0 -10,-4 -7,-10 3,-5 23,-10 43,-10 28,0 33,3 22,10 -12,8 -11,10 6,10 12,0 27,7 34,15 6,8 22,17 33,21 12,4 54,21 92,40 106,49 255,70 368,50 58,-10 64,6 8,22 -51,16 -155,15 -217,-1 -55,-14 -115,-13 -141,2 -15,8 -11,10 20,11 26,0 36,4 31,11 -5,9 1,10 20,5 14,-3 26,-2 26,3 0,5 10,12 23,15 21,7 21,7 2,16 -19,8 75,15 147,10 14,-1 29,3 32,8 11,18 109,3 170,-28 80,-39 91,-46 148,-102 44,-44 68,-58 68,-41 0,4 -26,34 -57,66 -32,32 -50,55 -40,51 10,-3 17,-1 17,5 0,6 -12,11 -27,11 -22,0 -25,2 -13,10 12,8 10,10 -10,11 -14,0 -19,3 -12,6 9,3 7,13 -9,34 -17,24 -18,33 -9,44 10,13 8,15 -11,15 -19,0 -21,2 -9,10 8,5 38,9 65,8 l 50,-1 34,-68 c 18,-37 40,-70 47,-73 22,-8 17,11 -22,80 -33,58 -34,64 -17,70 10,3 28,11 41,17 24,12 41,-1 42,-31 0,-7 11,-30 25,-50 23,-34 24,-37 8,-42 -19,-5 -30,-30 -13,-30 6,0 10,-5 10,-11 0,-18 27,-39 52,-40 16,-1 13,-4 -12,-9 -30,-6 -31,-8 -9,-9 39,-2 44,-27 8,-40 -40,-14 -36,-26 14,-40 43,-13 137,-93 137,-118 0,-7 11,-20 25,-29 42,-28 32,-45 -22,-37 -57,7 -68,13 -25,13 18,0 32,4 32,8 0,5 -62,14 -137,21 -142,14 -167,21 -266,79 -98,57 -169,75 -267,69 -81,-5 -140,-21 -140,-38 0,-4 -12,-9 -27,-11 -16,-2 -28,-7 -28,-13 0,-26 -71,-73 -102,-67 -6,2 -14,-2 -18,-8 -3,-5 -19,-10 -36,-10 -16,0 -29,-4 -29,-10 0,-5 -7,-7 -16,-3 -8,3 -26,0 -38,-7 -20,-10 -31,-9 -71,9 -26,12 -49,21 -51,21 -2,0 -4,-20 -4,-45 0,-25 4,-45 9,-45 12,0 23,29 15,41 -3,5 7,4 21,-1 15,-6 42,-10 60,-10 27,0 33,-3 29,-15 -4,-8 -1,-22 6,-30 7,-9 10,-18 7,-22 -4,-3 -9,1 -13,10 -3,9 -12,13 -19,11 -10,-4 -11,-13 -5,-35 5,-18 5,-27 -1,-24 -5,4 -9,1 -9,-5 0,-6 -4,-8 -10,-5 -10,6 -11,0 -12,-71 0,-32 8,-53 33,-89 19,-26 45,-65 59,-86 14,-22 35,-46 48,-55 20,-14 69,-94 58,-94 -3,0 -26,13 -51,29 -25,16 -61,32 -80,35 -31,6 -39,14 -65,69 -34,73 -80,132 -80,104 0,-10 9,-30 20,-45 11,-15 26,-49 34,-77 38,-141 62,-215 68,-215 4,0 5,15 3,33 -5,30 -5,30 10,-8 9,-22 27,-51 40,-65 14,-14 25,-32 25,-38 0,-7 9,-30 20,-52 11,-22 20,-56 20,-76 0,-38 -26,-152 -39,-169 -4,-5 -15,-31 -25,-58 -18,-49 -87,-133 -99,-120 -4,3 -7,-2 -8,-13 0,-10 -3,-13 -6,-6 -2,6 -9,12 -15,12 -6,0 -8,-7 -5,-14 4,-10 1,-13 -10,-9 -8,3 -19,0 -24,-8 C -3,290 -2,153 10,129 17,116 17,110 10,110 -8,110 -1,61 20,40 31,29 35,20 29,20 24,20 22,16 25,10 28,5 54,0 81,0 h 51 l -27,32 c -34,40 -48,75 -46,112 2,41 18,58 42,45 23,-12 24,-34 4,-73 -18,-35 -12,-45 17,-27 24,15 38,2 38,-36 0,-40 11,-53 44,-53 28,0 32,3 32,28 -1,15 -5,30 -9,33 -5,4 6,12 25,19 28,10 30,13 14,19 -23,9 -30,41 -9,41 8,0 23,-5 34,-10 19,-11 19,-11 -1,-50 -11,-22 -20,-44 -20,-50 0,-20 16,-9 34,25 23,41 34,37 42,-16 8,-49 24,-51 24,-3 0,45 -14,71 -59,111 l -36,32 50,-18 c 55,-21 62,-34 64,-113 1,-40 4,-48 20,-48 14,0 20,10 25,47 3,27 2,49 -2,51 -21,7 1,49 31,60 40,16 90,59 82,72 -3,5 -2,17 3,26 8,14 14,5 32,-42 19,-52 21,-65 11,-109 C 584,77 568,43 553,28 527,1 527,0 547,0 c 30,0 61,55 69,121 5,41 1,66 -14,106 -26,68 -18,68 13,1 28,-61 31,-105 10,-173 -8,-27 -12,-51 -10,-53 2,-3 21,-1 42,4 35,7 36,8 10,12 -15,2 -25,8 -22,13 4,5 18,6 32,3 18,-5 24,-3 19,5 -4,6 -17,11 -29,12 -12,0 -17,2 -12,5 13,5 3,149 -13,187 -19,46 -72,87 -110,87 -26,0 -33,-4 -29,-14 3,-8 -3,-26 -14,-40 -12,-16 -16,-26 -9,-26 10,0 10,-3 1,-14 -7,-8 -11,-23 -9,-33 4,-26 -62,-42 -97,-23 -15,8 -21,16 -15,20 6,4 -2,12 -17,20 l -28,13 25,8 c 14,4 19,7 11,8 -10,1 -11,4 -2,14 6,8 8,17 4,20 -3,4 2,9 11,13 28,11 17,24 -21,25 -26,0 -32,3 -20,8 10,4 18,11 17,16 0,6 11,11 24,13 28,4 26,31 -3,33 -9,0 -1,7 18,15 18,8 40,22 48,30 8,7 24,14 37,14 12,0 27,5 32,10 18,18 67,13 129,-13 63,-27 104,-67 70,-67 -14,0 -15,-3 -5,-15 7,-8 20,-15 29,-16 12,0 11,-2 -4,-9 -11,-5 -15,-9 -8,-9 6,-1 14,-10 18,-20 3,-12 17,-22 33,-24 l 27,-4 -27,-2 c -31,-1 -33,-4 -18,-32 6,-11 22,-19 38,-20 17,-1 20,-3 9,-6 -26,-7 -20,-63 8,-64 19,-1 18,-1 -2,-7 -23,-7 -20,-25 7,-35 12,-4 12,-6 -1,-6 -27,-2 -32,-31 -6,-41 l 22,-9 h -22 c -20,-1 -21,-4 -13,-25 6,-17 5,-26 -3,-30 -7,-2 0,-5 14,-5 22,-1 28,5 37,38 7,21 12,56 12,79 0,47 9,53 98,57 88,5 72,20 -21,20 -106,-1 -62,14 65,22 70,4 102,3 112,-6 8,-7 21,-9 27,-5 8,5 9,3 4,-6 -6,-10 -4,-12 8,-7 11,4 17,1 17,-9 0,-8 4,-13 9,-10 5,3 12,-1 15,-10 5,-13 9,-14 21,-4 13,11 14,10 9,-4 -5,-14 4,-21 28,-18 3,1 9,-5 12,-13 7,-18 -46,-45 -90,-45 -18,0 -36,-4 -39,-10 -3,-5 -11,-10 -17,-10 -7,0 -7,4 1,13 26,33 -22,36 -58,5 l -26,-23 19,23 c 12,13 14,22 7,22 -7,0 -9,5 -6,10 8,13 -38,13 -51,0 -5,-5 -22,-11 -38,-12 -17,-2 -44,-19 -73,-48 -55,-53 -44,-61 46,-31 33,12 84,21 113,21 49,0 51,-1 32,-14 -12,-8 -50,-17 -85,-19 -35,-2 108,-4 318,-3 209,1 379,4 377,8 -2,3 -35,12 -73,18 -54,10 -81,10 -132,0 -89,-18 -156,-23 -177,-15 -14,6 -12,10 13,21 17,7 39,13 51,14 11,0 29,6 40,14 18,14 18,15 -5,24 -18,6 1,9 70,11 52,1 121,3 154,5 72,4 133,-16 205,-68 60,-43 97,-50 61,-12 -14,15 -18,25 -11,28 6,2 -4,20 -24,40 -20,20 -36,40 -36,44 0,4 -8,13 -17,20 -17,13 -17,13 1,14 12,0 16,5 12,15 -4,12 4,15 45,15 48,0 51,-1 68,-37 27,-59 55,-102 69,-108 20,-7 14,15 -17,64 -47,74 -47,83 0,103 38,16 40,16 45,0 3,-9 16,-38 30,-64 21,-39 22,-48 10,-48 -24,0 -19,-34 9,-64 13,-14 19,-26 14,-26 -6,0 -7,-4 -4,-10 3,-5 28,-10 56,-10 h 49 l -35,46 c -35,46 -39,57 -35,104 3,37 18,52 41,39 23,-12 24,-34 4,-73 -18,-34 -12,-45 16,-28 26,17 39,7 39,-28 0,-48 9,-60 46,-60 30,0 33,3 31,28 -1,15 -6,30 -10,33 -5,4 6,12 25,19 28,10 30,13 14,19 -23,9 -30,41 -9,41 8,0 23,-5 34,-11 20,-10 20,-11 -5,-55 -14,-26 -20,-46 -15,-50 6,-3 11,-4 13,-3 1,2 12,20 24,39 l 21,34 10,-27 c 6,-16 11,-37 11,-48 0,-10 5,-19 10,-19 14,0 13,66 -2,93 -6,12 -27,36 -47,54 l -36,32 50,-18 c 55,-21 62,-34 64,-113 1,-40 4,-48 20,-48 15,0 20,10 26,47 4,28 3,49 -3,51 -5,1 -7,14 -4,27 3,16 13,26 32,30 15,3 36,15 46,26 9,10 24,19 32,19 10,0 12,7 9,23 -9,35 7,53 21,23 40,-87 34,-166 -16,-218 -25,-27 -25,-28 -5,-28 30,0 61,55 69,121 5,41 1,66 -14,106 -26,68 -18,68 13,1 28,-61 31,-105 10,-173 -8,-27 -12,-51 -10,-53 2,-3 21,-1 42,3 l 38,8 -30,6 c -18,4 -25,9 -18,14 6,4 18,4 27,1 9,-3 16,-1 16,5 0,6 -10,11 -22,12 -13,0 -18,2 -13,5 16,7 2,154 -19,194 -26,49 -65,79 -104,80 -23,0 -32,-4 -29,-12 2,-7 -5,-25 -15,-41 -12,-17 -15,-27 -7,-27 9,0 9,-3 0,-14 -7,-8 -11,-23 -9,-33 4,-25 -61,-41 -99,-24 -18,8 -23,15 -15,20 9,5 4,12 -15,21 l -28,13 25,8 c 14,4 19,7 11,8 -10,1 -11,4 -2,14 6,8 8,17 4,20 -3,4 2,9 11,13 28,11 17,24 -21,25 -26,0 -32,3 -20,8 10,4 18,11 17,16 0,6 11,11 24,13 28,4 26,31 -3,33 -9,0 -1,7 18,15 18,8 40,22 48,30 8,7 24,14 37,14 12,0 27,5 32,10 18,18 67,13 129,-13 63,-27 104,-67 70,-67 -14,0 -15,-3 -5,-15 7,-8 20,-15 29,-16 12,0 11,-2 -4,-9 -11,-5 -15,-9 -8,-9 6,-1 14,-10 18,-20 3,-12 17,-22 33,-24 l 27,-4 -27,-2 c -31,-1 -33,-4 -18,-32 6,-11 22,-19 38,-20 17,-1 20,-3 9,-6 -26,-7 -20,-63 8,-64 19,-1 18,-1 -2,-7 -23,-7 -20,-25 7,-35 12,-4 12,-6 -1,-6 -27,-2 -32,-31 -6,-41 l 22,-9 h -22 c -20,-1 -21,-4 -13,-25 6,-17 5,-26 -3,-30 -7,-2 0,-5 14,-5 23,-1 28,5 38,43 6,25 11,60 11,79 0,41 9,46 102,54 37,3 65,10 62,14 -7,13 -121,11 -145,-1 -11,-6 -19,-7 -19,-2 0,15 36,22 142,29 71,4 101,3 112,-6 8,-7 21,-9 27,-5 8,5 9,3 4,-6 -6,-10 -4,-12 8,-7 11,4 17,1 17,-9 0,-8 4,-13 9,-10 5,3 12,-1 15,-10 5,-13 9,-14 21,-4 13,11 14,10 9,-4 -5,-14 4,-21 28,-18 3,1 9,-5 12,-13 7,-18 -46,-45 -90,-45 -18,0 -36,-4 -39,-10 -3,-5 -11,-10 -17,-10 -7,0 -6,5 2,15 22,27 -18,30 -53,5 -31,-22 -31,-22 -13,-2 12,14 14,22 7,22 -7,0 -9,5 -6,10 9,15 -27,12 -68,-5 -19,-8 -37,-12 -39,-10 -3,3 -26,-16 -53,-42 -57,-57 -46,-65 45,-34 68,24 173,30 152,9 -7,-7 -45,-16 -85,-19 -40,-4 100,-6 310,-5 209,0 379,4 377,8 -2,3 -35,12 -73,18 -54,10 -81,10 -132,0 C 3421,11 3382,7 3352,15 l -27,7 34,14 c 18,8 39,14 46,14 8,0 26,5 42,11 l 28,11 -28,13 c -26,10 -19,12 65,14 51,1 120,3 153,5 72,4 133,-16 205,-68 60,-43 97,-50 61,-12 -16,17 -19,25 -9,28 8,3 -3,20 -32,46 -24,23 -40,42 -35,42 6,0 3,5 -5,10 -13,8 -13,11 -1,19 7,5 10,14 7,20 -5,7 9,11 44,11 46,0 51,-2 61,-27 17,-45 63,-113 77,-113 18,0 15,8 -17,59 -36,58 -47,91 -29,91 7,0 26,7 41,15 25,13 28,13 33,-3 3,-9 16,-38 29,-64 20,-38 22,-48 10,-48 -23,0 -18,-38 10,-65 13,-14 20,-25 14,-25 -6,0 -7,-5 -4,-10 3,-6 28,-10 56,-10 h 49 l -35,46 c -35,46 -39,57 -35,104 3,37 18,52 41,39 23,-12 25,-47 3,-77 -20,-29 -10,-41 18,-23 24,15 38,2 38,-36 0,-41 11,-53 46,-53 30,0 33,3 31,28 -1,15 -6,30 -11,34 -6,4 2,10 17,13 28,7 36,20 15,27 -17,6 -19,38 -1,38 8,0 23,-5 34,-11 20,-10 20,-11 -5,-55 -14,-26 -20,-46 -15,-50 12,-7 11,-8 37,35 l 21,35 11,-28 c 5,-15 10,-36 10,-47 0,-10 5,-19 10,-19 14,0 13,66 -2,93 -6,12 -27,36 -47,54 l -36,32 50,-18 c 55,-21 62,-34 64,-113 1,-40 4,-48 20,-48 15,0 20,10 26,47 4,28 3,49 -3,51 -21,7 1,49 31,60 40,16 90,59 82,72 -3,5 -2,18 4,27 9,16 11,15 19,-8 40,-103 36,-159 -14,-219 -24,-28 -25,-30 -6,-30 29,0 60,56 68,121 5,41 1,66 -14,107 -26,67 -18,67 13,0 29,-61 31,-92 11,-168 -8,-30 -13,-57 -11,-59 2,-2 21,0 42,4 l 38,8 -30,6 c -18,4 -25,9 -18,14 6,4 18,4 26,1 8,-3 18,-1 22,5 4,7 -5,11 -22,12 -15,0 -23,2 -18,5 6,2 8,34 5,81 -6,85 -26,134 -69,170 -30,26 -97,32 -88,9 3,-8 -3,-26 -14,-40 -12,-16 -16,-26 -9,-26 10,0 10,-3 1,-14 -7,-8 -11,-23 -9,-33 4,-26 -62,-42 -97,-23 -18,10 -22,16 -13,21 8,5 3,12 -17,20 l -30,12 25,7 c 14,5 20,8 13,9 -8,1 -8,7 0,26 7,14 15,25 20,25 4,0 7,5 7,10 0,6 -17,11 -37,11 -21,1 -30,3 -20,6 9,2 17,11 17,19 0,8 10,14 25,14 18,0 23,4 19,15 -4,8 -14,15 -23,16 -9,0 3,9 25,19 23,10 45,23 48,29 4,6 18,11 31,11 13,0 26,4 29,9 13,20 60,17 123,-8 67,-28 115,-71 78,-71 -14,0 -15,-3 -5,-15 7,-8 20,-15 29,-16 12,0 11,-2 -4,-9 -11,-5 -15,-9 -8,-9 6,-1 14,-10 18,-20 3,-12 17,-22 33,-24 l 27,-4 -27,-2 c -31,-1 -33,-4 -18,-32 6,-11 22,-19 38,-20 17,-1 20,-3 10,-6 -28,-7 -24,-60 5,-66 19,-4 19,-4 2,-6 -16,-1 -20,-8 -19,-38 1,-26 7,-39 20,-44 17,-7 17,-8 -4,-8 -20,-1 -21,-4 -11,-22 9,-17 8,-23 -2,-30 -10,-6 -6,-9 12,-9 21,0 28,7 37,39 7,21 12,56 12,78 0,40 1,41 44,52 25,6 63,11 86,11 28,0 39,4 34,11 -5,8 -33,10 -88,6 -57,-3 -74,-2 -56,5 43,16 217,23 234,9 8,-7 21,-9 27,-5 8,5 9,3 4,-6 -6,-10 -4,-12 8,-7 11,4 17,1 17,-9 0,-8 4,-13 9,-10 5,3 12,-1 15,-10 5,-13 9,-14 21,-4 13,11 14,10 9,-4 -3,-9 -2,-16 3,-16 5,0 18,-6 28,-14 18,-13 17,-15 -19,-30 -21,-9 -51,-16 -67,-16 -15,0 -31,-4 -34,-10 -3,-5 -11,-10 -17,-10 -7,0 -7,4 1,13 24,29 -21,37 -53,9 -20,-16 -20,-16 -7,0 10,13 10,18 2,18 -7,0 -9,5 -6,10 8,13 -38,13 -51,0 -5,-5 -22,-11 -38,-12 -17,-2 -44,-19 -73,-48 -55,-53 -44,-61 46,-31 69,24 173,29 153,8 -7,-6 -45,-15 -85,-18 -40,-3 41,-6 181,-7 159,-1 252,2 252,8 0,6 -18,7 -44,4 -25,-4 -57,-3 -73,1 l -28,7 34,14 c 18,8 41,14 50,14 10,0 26,6 37,14 18,14 18,15 -6,25 l -25,10 h 28 l 27,1 v 80 c 0,50 -4,80 -11,80 -17,0 -36,24 -33,42 1,10 -6,20 -17,23 -11,4 -17,11 -14,16 6,9 -49,69 -64,69 -26,0 -18,50 7,51 12,0 10,3 -5,9 -15,6 -23,18 -24,35 -1,14 -2,31 -3,38 -1,6 2,17 7,24 5,7 6,17 2,23 -3,5 0,10 7,11 7,1 2,5 -12,9 l -25,8 28,1 c 19,1 26,5 22,14 -4,6 11,-7 32,-30 21,-24 44,-43 51,-43 6,0 12,-7 12,-16 0,-8 5,-12 11,-8 6,3 15,0 20,-7 5,-9 9,14 9,61 0,48 -5,83 -14,95 -7,11 -27,52 -44,90 -17,39 -32,64 -32,56 0,-11 -4,-9 -15,5 -8,10 -15,15 -15,9 0,-5 -7,1 -16,13 -9,13 -26,22 -41,22 -21,0 -24,-4 -20,-21 5,-18 3,-17 -19,6 -24,26 -50,25 -40,-1 3,-8 1,-14 -4,-14 -5,0 -12,9 -15,20 -4,11 -11,17 -17,14 -8,-5 -9,-1 -3,12 4,10 13,39 20,63 6,24 15,39 19,33 6,-10 36,-9 55,2 16,11 161,-48 161,-65 0,-5 -13,-3 -30,6 -16,8 -36,15 -45,15 -21,0 -19,-19 3,-26 54,-17 91,-39 100,-58 10,-20 11,-20 11,7 1,15 -6,43 -13,62 -8,19 -11,35 -6,35 4,0 11,-6 13,-12 3,-7 6,9 6,35 1,31 -3,46 -9,42 -6,-4 -18,-1 -27,7 -14,11 -15,10 -9,-7 5,-16 1,-21 -16,-22 -11,-1 -30,3 -41,9 -11,5 -36,10 -56,10 -20,0 -31,3 -25,5 7,2 9,13 6,25 -3,14 -1,19 6,14 7,-4 12,-2 12,4 0,6 5,8 11,5 6,-4 13,2 16,14 3,11 9,19 13,16 5,-3 11,4 15,15 3,11 12,20 20,20 7,0 20,11 29,25 9,14 20,24 24,24 26,-4 32,4 32,47 0,37 -5,50 -25,66 -14,11 -25,26 -25,34 0,8 -6,17 -14,20 -9,3 -13,17 -12,37 1,17 -3,43 -11,57 -17,33 -17,60 1,60 20,0 25,-9 36,-72 6,-29 18,-59 26,-68 15,-14 16,-12 10,15 -19,87 -19,105 -2,105 12,0 16,9 16,34 0,30 -4,35 -31,41 -35,8 -52,-2 -26,-16 25,-15 21,-27 -8,-21 -14,2 -25,10 -25,17 0,6 -16,20 -35,31 -19,10 -35,22 -35,27 0,11 -41,46 -55,47 -5,0 -21,11 -35,23 -14,12 -23,21 -21,20 2,-1 10,5 18,13 8,8 18,12 23,9 5,-3 12,4 15,16 6,17 9,19 16,8 6,-11 14,-11 38,-2 26,10 32,8 44,-11 l 15,-21 7,27 c 6,25 8,26 27,10 12,-10 29,-25 40,-35 10,-9 20,-17 23,-17 3,0 5,23 5,50 0,28 -4,50 -10,50 -5,0 -10,-5 -10,-11 0,-12 -40,-2 -55,14 -7,7 -6,8 3,2 14,-8 56,28 45,39 -4,3 0,6 9,6 21,0 24,83 3,104 -8,8 -15,19 -15,25 0,6 -10,13 -22,15 -13,3 -32,7 -43,9 -11,3 0,5 25,6 33,1 41,4 30,11 -8,5 -10,10 -5,10 6,0 3,5 -5,10 -13,8 -12,10 4,10 12,0 16,5 12,15 -3,10 1,15 12,15 12,1 9,5 -9,15 -41,22 -45,45 -9,45 28,0 45,20 18,20 -8,1 -6,6 5,14 11,9 17,27 17,56 0,40 -1,42 -25,36 -31,-8 -31,-8 0,45 22,39 25,55 24,144 0,55 -3,95 -5,88 -3,-7 -12,-9 -20,-6 -18,7 -14,-27 6,-54 14,-16 14,-17 -2,-5 -15,12 -18,11 -24,-13 -4,-18 -1,-32 12,-48 19,-22 19,-22 -2,-4 -25,21 -34,14 -34,-30 0,-19 -8,-41 -19,-52 -16,-16 -17,-21 -5,-35 8,-9 9,-11 2,-6 -25,21 -33,3 -13,-30 8,-13 6,-13 -8,-2 -14,12 -19,12 -32,-1 -9,-10 -11,-18 -5,-22 5,-3 10,-11 10,-18 0,-8 -3,-8 -12,1 -13,13 -29,16 -27,5 3,-20 -2,-34 -11,-28 -5,3 -10,1 -10,-6 0,-7 -3,-10 -6,-7 -3,4 10,49 30,101 61,162 57,227 -25,404 -32,69 -35,80 -16,66 6,-6 20,-9 29,-8 9,2 24,-5 34,-16 9,-10 20,-16 24,-14 21,13 67,-29 96,-87 l 33,-63 v 85 c 0,58 -5,92 -15,108 -18,27 -38,29 -31,2 7,-25 -8,-36 -19,-12 -7,17 -9,29 -18,102 -3,19 -5,35 -6,35 -1,0 -3,10 -4,22 -4,31 -9,35 -46,31 l -32,-3 22,-27 c 29,-37 6,-36 -32,2 -16,17 -34,30 -39,30 -20,0 -7,-24 36,-64 38,-35 75,-96 59,-96 -3,0 -22,11 -42,25 -20,14 -54,28 -75,32 -33,5 -41,12 -63,54 -23,47 -44,64 -44,36 0,-8 13,-58 30,-113 16,-54 30,-107 30,-116 0,-9 5,-20 12,-24 8,-5 9,5 5,37 l -6,44 19,-53 c 11,-29 28,-61 38,-70 20,-18 49,-82 62,-140 21,-89 -86,-352 -151,-369 -10,-3 -19,-10 -19,-15 0,-5 -4,-6 -10,-3 -5,3 -10,1 -10,-5 0,-6 -5,-8 -10,-5 -6,3 -14,-4 -19,-17 -6,-13 -10,-17 -10,-10 -1,9 -6,10 -20,2 -11,-5 -29,-10 -40,-10 -15,0 -19,-5 -15,-17 5,-15 3,-15 -10,1 -9,11 -16,16 -16,10 0,-13 -141,-11 -167,4 -14,8 -24,9 -28,2 -4,-7 -13,-7 -26,0 -10,6 -19,7 -19,3 0,-4 -4,-3 -8,2 -7,10 -48,35 -57,35 -3,0 -5,-7 -5,-15 0,-28 -35,1 -78,64 -38,55 -40,61 -31,100 5,23 7,47 3,52 -3,6 1,24 8,42 8,18 20,43 26,57 8,18 11,20 11,8 1,-10 8,-18 17,-18 12,0 15,6 10,25 -5,20 -3,25 13,25 11,0 23,-9 26,-21 l 7,-21 20,22 c 12,13 28,20 39,17 17,-5 19,-1 14,31 l -6,37 17,-35 c 9,-19 18,-30 21,-23 3,8 11,5 24,-8 15,-15 19,-31 17,-62 -2,-24 -8,-43 -15,-43 -7,-1 -17,-2 -23,-3 -5,0 -10,-9 -10,-18 0,-14 -2,-15 -9,-4 -7,11 -13,9 -30,-8 -11,-11 -28,-21 -37,-21 -13,0 -15,-6 -9,-27 19,-79 99,-108 258,-93 26,3 42,-1 48,-10 8,-11 9,-8 6,13 -6,36 9,45 18,10 5,-21 8,-24 16,-12 5,7 9,25 10,39 0,21 2,22 8,7 4,-10 11,-18 16,-18 13,0 25,38 19,59 -5,14 -4,15 5,2 9,-13 11,-13 11,0 0,12 2,12 9,1 10,-16 15,-9 36,52 16,48 14,73 -11,140 -8,20 -14,49 -14,62 0,21 -25,80 -62,145 -5,8 -11,23 -14,33 -6,16 -17,21 -36,18 -5,0 -8,5 -8,12 0,20 -40,55 -41,36 0,-8 -4,-4 -9,9 -5,12 -14,22 -20,22 -5,0 -10,7 -10,16 0,11 -5,14 -17,10 -9,-4 -19,-2 -23,4 -4,6 -20,12 -36,13 -22,2 -29,-2 -28,-15 2,-19 -11,-24 -20,-10 -3,5 -29,14 -58,20 -136,28 -178,26 -178,-9 0,-10 -4,-19 -10,-19 -5,0 -10,6 -10,13 0,8 -4,7 -10,-3 -5,-8 -7,-24 -3,-35 5,-17 3,-16 -14,4 l -20,24 -6,-31 c -4,-19 -13,-32 -21,-32 -20,0 -31,19 -17,33 14,14 15,40 1,32 -5,-3 -10,-2 -10,3 0,5 -11,12 -25,14 -17,4 -25,1 -25,-9 0,-8 -4,-12 -9,-8 -5,3 -12,1 -15,-4 -4,-6 -17,-4 -34,5 -15,7 -37,14 -48,14 -14,0 -24,8 -28,23 -8,32 -6,45 4,22 8,-18 9,-18 9,5 1,18 4,21 10,12 7,-11 11,-11 22,3 8,9 24,27 37,40 l 23,25 h -201 c -116,0 -200,-4 -200,-9 0,-12 -29,-41 -40,-41 -6,0 -6,10 0,25 8,22 7,25 -14,25 -12,0 -33,-9 -46,-20 l -23,-20 24,-8 24,-9 -23,-7 c -12,-4 -20,-12 -17,-17 4,-5 1,-9 -6,-9 -7,0 -9,-3 -6,-6 10,-10 -65,-63 -80,-57 -8,3 -11,15 -9,29 3,14 0,24 -7,24 -8,0 -7,3 2,9 8,5 11,16 8,24 -3,9 -1,18 6,21 7,2 3,5 -8,5 -15,1 -17,3 -6,10 16,10 6,31 -15,31 -11,0 -14,-14 -14,-60 0,-74 -14,-78 -70,-20 -41,42 -51,46 -79,31 -14,-8 -21,-4 -35,20 -14,24 -24,29 -55,29 -25,0 -41,-5 -45,-15 -6,-18 -1,-19 25,-5 13,8 19,7 19,0 0,-6 4,-9 9,-6 5,4 7,-3 4,-14 -3,-11 -1,-20 3,-20 5,0 10,-14 10,-31 1,-17 6,-34 12,-38 5,-3 12,-17 14,-31 2,-14 9,-24 15,-23 13,3 29,-110 18,-128 -4,-6 -2,-15 5,-19 19,-12 13,-69 -13,-132 -24,-57 -37,-65 -37,-23 0,22 -44,97 -61,103 -5,2 -9,23 -9,47 0,71 -54,194 -76,172 -3,-3 -1,-14 5,-24 8,-15 7,-20 -4,-20 -8,0 -17,7 -21,16 -7,16 -9,28 -18,101 -3,19 -5,35 -6,35 -1,0 -3,10 -4,22 -4,31 -9,35 -46,31 l -32,-3 22,-27 c 29,-37 6,-36 -32,2 -16,17 -34,30 -39,30 -19,0 -8,-21 34,-62 38,-38 76,-98 61,-98 -3,0 -22,11 -42,25 -20,14 -54,28 -75,32 -33,5 -41,12 -63,54 -24,47 -44,64 -44,35 0,-7 14,-59 30,-114 17,-56 30,-108 30,-116 0,-8 5,-18 12,-22 8,-5 9,5 5,37 l -6,44 19,-53 c 11,-29 28,-61 38,-70 20,-18 65,-122 67,-156 4,-50 -44,-209 -84,-276 -22,-38 -63,-80 -78,-80 -7,0 -13,-5 -13,-11 0,-5 -5,-7 -10,-4 -5,3 -10,1 -10,-5 0,-6 -4,-9 -9,-5 -6,3 -14,-3 -20,-12 -6,-10 -11,-14 -11,-10 0,4 -10,2 -22,-5 -13,-7 -29,-11 -35,-10 -7,2 -13,-5 -13,-15 -1,-17 -2,-17 -15,1 -8,11 -15,15 -15,9 0,-6 -16,-9 -37,-7 -21,2 -53,-1 -70,-6 -18,-4 -33,-5 -33,-1 0,14 -54,34 -58,22 -3,-8 -9,-8 -23,-1 -10,6 -19,7 -19,3 0,-4 -4,-3 -8,2 -7,10 -48,35 -57,35 -3,0 -5,-7 -5,-15 0,-28 -36,1 -78,65 -37,55 -39,62 -31,101 5,22 8,46 7,52 -1,7 6,36 16,66 15,43 21,50 28,37 14,-25 31,-19 24,9 -5,21 -3,25 15,25 12,0 23,-8 26,-20 3,-11 9,-17 14,-14 5,3 7,10 4,15 -4,5 1,9 9,9 9,0 16,5 16,10 0,7 7,7 21,0 19,-11 20,-9 14,27 l -6,38 17,-35 c 9,-19 18,-30 21,-23 3,8 11,5 24,-8 13,-13 19,-33 19,-64 0,-41 -2,-45 -25,-45 -17,0 -25,-6 -25,-17 0,-14 -2,-15 -9,-4 -7,11 -13,9 -30,-8 -11,-11 -28,-21 -37,-21 -13,0 -15,-6 -9,-27 19,-80 92,-105 258,-92 25,2 42,-2 48,-11 8,-11 9,-8 6,13 -6,36 9,45 18,10 5,-21 8,-24 16,-12 5,7 9,25 10,39 0,21 2,22 8,7 4,-10 11,-18 16,-18 13,0 25,38 19,59 -5,14 -4,15 5,2 9,-13 11,-13 11,0 0,12 2,12 9,1 11,-18 22,-1 38,59 12,48 8,89 -13,132 -8,15 -14,42 -14,61 0,19 -9,46 -20,60 -11,14 -23,39 -26,56 -4,17 -13,36 -20,42 -8,6 -14,18 -14,25 0,13 -12,18 -32,15 -5,0 -8,4 -8,9 0,6 -9,20 -20,32 -14,16 -20,18 -21,7 0,-8 -4,-4 -9,9 -5,12 -14,22 -20,22 -5,0 -10,7 -10,16 0,11 -6,14 -20,9 -11,-3 -20,-3 -20,2 0,4 -11,13 -24,19 -27,13 -48,1 -39,-22 6,-17 4,-17 -38,0 -47,19 -174,39 -199,31 -11,-3 -20,-15 -20,-26 0,-10 -4,-19 -10,-19 -5,0 -10,6 -10,13 0,8 -4,7 -10,-3 -5,-8 -7,-24 -3,-35 5,-17 3,-16 -14,4 l -20,24 -6,-31 c -4,-19 -13,-32 -21,-32 -20,0 -31,19 -17,33 14,14 15,40 1,32 -5,-3 -10,-2 -10,3 0,5 -11,12 -25,14 -17,4 -25,1 -25,-9 0,-8 -4,-12 -9,-8 -5,3 -12,1 -15,-4 -4,-6 -17,-4 -34,5 -15,7 -37,14 -49,14 -13,0 -23,3 -23,8 0,4 -3,18 -5,32 -5,22 -4,22 4,5 9,-18 10,-17 11,10 1,26 3,27 10,10 5,-11 9,-14 9,-7 1,7 5,11 10,7 5,-3 12,4 16,15 4,11 11,18 16,15 5,-4 9,0 9,9 0,8 6,17 13,19 6,3 -76,6 -184,6 l -195,1 -22,-25 c -27,-30 -48,-34 -32,-6 5,11 10,22 10,25 0,14 -50,4 -71,-13 l -24,-20 25,-9 25,-9 -23,-7 c -12,-4 -20,-12 -17,-17 4,-5 1,-9 -6,-9 -7,0 -9,-3 -6,-7 10,-9 -71,-66 -83,-58 -5,3 -7,17 -4,31 4,16 2,24 -7,24 -11,0 -11,2 -2,8 14,9 13,52 -2,52 -5,0 -4,4 4,9 16,10 6,31 -14,31 -10,0 -15,-16 -17,-57 -2,-31 -8,-58 -15,-60 -6,-2 -30,15 -52,37 -35,36 -45,41 -70,35 -24,-5 -33,-2 -46,18 -12,19 -25,25 -55,25 -29,1 -40,-3 -40,-14 0,-12 4,-12 20,-4 14,8 20,8 20,0 0,-6 4,-9 9,-6 5,4 7,-3 4,-14 -3,-11 -1,-20 4,-20 6,0 8,-11 6,-23 -3,-13 2,-31 10,-39 8,-8 17,-26 19,-39 2,-13 9,-23 15,-22 13,3 29,-110 18,-128 -4,-6 -2,-15 5,-19 19,-12 14,-70 -12,-133 -24,-57 -38,-65 -38,-22 0,12 -11,39 -25,59 -14,20 -25,41 -25,47 0,6 -4,7 -10,4 -6,-4 -10,11 -10,39 0,50 -32,147 -56,167 -19,16 -28,6 -15,-18 8,-15 7,-20 -4,-20 -8,0 -17,7 -21,16 -7,16 -9,28 -18,101 -3,19 -5,35 -6,35 -1,0 -3,10 -4,22 -4,31 -9,35 -46,31 l -32,-3 22,-27 c 29,-37 6,-36 -32,2 -16,17 -34,30 -39,30 -19,0 -7,-21 35,-62 39,-37 76,-98 60,-98 -3,0 -22,11 -42,25 -20,14 -54,28 -75,32 -33,5 -41,12 -63,54 -23,47 -44,64 -44,36 0,-8 13,-58 30,-113 16,-54 30,-107 30,-116 0,-9 5,-20 12,-24 8,-5 9,5 5,37 l -6,44 19,-53 c 11,-29 28,-61 38,-70 31,-27 65,-121 64,-177 0,-55 -51,-207 -87,-265 -29,-45 -61,-74 -74,-65 -6,3 -11,-1 -11,-10 0,-9 -4,-13 -10,-10 -5,3 -10,1 -10,-5 0,-6 -5,-8 -10,-5 -6,3 -14,-4 -19,-17 -6,-13 -10,-16 -11,-8 0,12 -2,12 -9,2 -4,-8 -11,-13 -15,-13 -38,5 -55,0 -50,-16 5,-16 4,-17 -8,-2 -9,12 -20,14 -36,8 -12,-5 -28,-6 -36,-3 -8,3 -30,1 -50,-4 -20,-6 -36,-7 -36,-3 0,13 -49,31 -55,21 -4,-7 -13,-6 -26,0 -10,6 -19,7 -19,3 0,-4 -4,-3 -8,2 -7,10 -48,35 -57,35 -3,0 -5,-7 -5,-15 0,-28 -36,1 -78,65 -38,56 -39,62 -31,101 6,23 7,49 5,56 -3,8 -1,21 4,31 6,9 15,31 21,47 6,17 13,24 16,18 3,-7 12,-13 20,-13 11,0 14,7 9,25 -5,20 -3,25 13,25 11,0 23,-9 26,-20 4,-11 11,-18 16,-14 5,3 7,10 4,15 -4,5 1,9 9,9 9,0 16,4 16,10 0,12 22,9 33,-5 5,-5 6,8 3,30 l -6,40 16,-35 c 9,-19 18,-30 21,-23 3,8 11,5 24,-8 13,-13 19,-33 19,-65 0,-25 -4,-43 -9,-40 -15,10 -41,-5 -42,-23 0,-9 -3,-11 -5,-4 -4,9 -11,9 -29,1 -14,-6 -22,-15 -19,-19 3,-5 -5,-9 -16,-9 -19,0 -21,-4 -15,-27 19,-80 92,-105 258,-92 25,2 42,-2 48,-11 8,-11 9,-8 6,13 -2,15 0,30 4,33 5,3 9,-4 9,-15 0,-48 29,-27 31,22 0,20 1,20 8,4 4,-10 11,-18 16,-18 13,0 25,38 19,59 -5,14 -4,15 5,2 9,-13 11,-13 11,0 0,12 2,13 9,1 12,-19 32,18 34,64 1,18 6,31 10,28 12,-7 -3,66 -19,99 -8,15 -14,41 -14,57 0,26 -23,82 -62,151 -5,8 -11,23 -14,33 -6,16 -17,21 -36,18 -5,0 -8,4 -8,9 0,6 -9,20 -20,32 -14,16 -20,18 -21,7 0,-8 -4,-4 -9,9 -5,12 -14,22 -20,22 -5,0 -10,7 -10,16 0,11 -5,14 -17,10 -9,-4 -19,-2 -23,4 -4,6 -20,12 -36,13 -23,2 -28,-2 -26,-15 3,-22 3,-22 -39,-4 -47,19 -174,39 -199,31 -11,-3 -20,-15 -20,-26 0,-10 -4,-19 -10,-19 -5,0 -10,6 -10,13 0,8 -4,7 -10,-3 -5,-8 -7,-24 -3,-35 5,-17 3,-16 -14,4 l -20,24 -6,-31 c -4,-18 -13,-32 -21,-32 -17,0 -29,27 -16,35 6,4 10,13 10,21 0,8 -4,12 -10,9 -5,-3 -10,-2 -10,3 0,5 -11,12 -25,14 -17,4 -25,1 -25,-9 0,-8 -4,-12 -9,-8 -5,3 -12,1 -15,-4 -4,-6 -17,-4 -34,5 -15,7 -37,14 -48,14 -14,0 -24,8 -28,23 -8,32 -6,45 4,22 7,-17 9,-16 10,10 1,24 3,26 9,11 7,-18 8,-18 22,-2 8,9 24,28 37,41 l 23,25 H 161 0 Z m 2154,62 c -17,-13 -67,-119 -67,-141 1,-7 9,3 19,22 11,21 20,29 23,21 2,-7 14,14 27,48 19,54 25,62 48,62 h 25 l -32,-36 c -37,-43 -50,-73 -50,-120 0,-40 -26,-98 -40,-89 -6,4 -10,2 -10,-3 0,-13 -60,-77 -73,-77 -7,0 -11,-9 -9,-18 2,-12 -4,-21 -17,-24 -12,-3 -21,-9 -21,-13 0,-7 -42,-20 -83,-25 -11,-1 -22,-7 -27,-14 -4,-7 -9,-12 -11,-11 -2,1 -15,-3 -29,-10 -39,-18 -123,-158 -134,-222 l -7,-37 -56,24 c -30,14 -64,25 -75,25 -18,0 -19,5 -13,43 11,77 17,97 25,97 5,0 11,14 15,30 4,17 11,30 16,30 9,0 42,48 92,135 15,28 25,40 22,28 -5,-17 -2,-23 9,-23 9,0 16,8 16,18 0,13 2,14 9,3 7,-11 10,-9 16,8 3,11 12,21 18,21 7,0 20,12 30,28 l 18,27 -6,-35 c -3,-19 -19,-51 -35,-70 -78,-91 -112,-142 -131,-195 -30,-86 -8,-93 25,-8 32,84 139,219 213,267 28,19 67,46 87,61 19,14 45,27 57,28 18,1 30,18 58,79 27,58 41,78 55,78 18,0 18,-1 3,-12 z m 2050,0 c -17,-13 -67,-119 -67,-141 1,-7 9,3 19,22 11,21 20,29 23,21 2,-7 14,14 27,48 19,55 25,62 48,62 h 27 l -31,-32 c -37,-39 -53,-76 -53,-124 0,-40 -26,-98 -40,-89 -6,4 -10,2 -10,-3 0,-15 -62,-82 -76,-82 -8,0 -13,-3 -13,-7 3,-21 -2,-33 -16,-33 -8,0 -15,-3 -15,-8 0,-11 -69,-30 -72,-20 -2,5 -12,1 -23,-10 -11,-10 -22,-19 -25,-19 -25,-5 -58,-29 -71,-51 -9,-15 -32,-53 -51,-84 -20,-32 -38,-75 -42,-98 l -6,-40 -56,25 c -31,14 -65,25 -76,25 -17,0 -18,5 -12,53 6,53 40,136 60,149 10,6 42,57 103,163 11,19 12,19 6,-2 -5,-17 -2,-23 9,-23 9,0 16,8 16,18 0,13 2,14 9,3 7,-11 10,-9 16,8 3,11 12,21 18,21 7,0 20,12 29,28 12,19 18,22 18,10 0,-32 -19,-66 -73,-127 -71,-79 -133,-210 -108,-225 5,-4 21,24 35,61 32,84 140,219 213,267 28,19 67,46 87,61 19,14 45,27 57,28 18,1 30,18 58,79 27,58 41,78 55,78 18,0 18,-1 3,-12 z M 201,2764 c 41,-1 69,-8 107,-29 29,-16 50,-30 48,-32 -2,-3 -13,0 -24,6 -26,14 -72,14 -72,1 0,-5 7,-10 15,-10 8,0 35,-9 59,-21 37,-17 47,-28 60,-65 8,-25 32,-68 52,-95 33,-45 35,-52 25,-81 -6,-17 -11,-58 -11,-91 v -61 l -25,34 c -14,19 -25,44 -25,57 0,22 -18,70 -39,103 -5,8 -21,42 -36,74 -14,32 -28,56 -31,53 -3,-3 -17,4 -31,16 -29,25 -63,40 -63,28 0,-11 -19,-9 -46,7 -27,14 -36,6 -23,-22 10,-20 9,-20 -10,2 -10,12 -24,22 -30,22 -8,0 -7,9 3,28 7,15 17,42 21,61 4,18 10,30 14,25 3,-5 31,-10 62,-10 z m 509,6 c 0,-5 -10,-9 -22,-7 -20,2 -23,-3 -26,-36 -2,-27 2,-46 15,-60 14,-18 12,-17 -10,2 -26,24 -39,17 -15,-7 7,-7 13,-30 15,-51 2,-39 2,-39 -43,-46 -28,-4 -57,-17 -78,-36 l -33,-29 -45,48 c -27,28 -55,74 -71,115 -34,83 -34,93 -1,61 24,-25 35,-26 75,-10 12,5 18,1 22,-14 3,-13 10,-19 17,-15 6,4 9,17 6,30 -5,18 1,25 34,40 21,10 46,15 54,12 9,-3 18,-2 21,3 8,13 85,13 85,0 z m 1535,-6 c 35,0 68,-8 109,-28 31,-15 55,-30 52,-33 -2,-2 -14,1 -26,7 -11,6 -33,10 -48,7 -26,-3 -26,-4 13,-21 77,-33 84,-39 99,-83 8,-24 32,-67 52,-94 33,-45 35,-52 25,-81 -6,-17 -11,-56 -11,-87 l -1,-56 -24,28 c -14,15 -25,39 -25,53 0,23 -18,71 -39,104 -5,8 -21,40 -34,71 -18,42 -32,59 -56,68 -17,8 -31,17 -31,21 0,4 -9,10 -20,13 -11,3 -20,1 -20,-3 0,-11 -19,-7 -47,8 -24,13 -41,0 -26,-21 4,-7 1,-5 -9,5 -9,10 -21,18 -27,18 -8,0 -7,9 3,28 7,15 17,42 21,61 4,18 10,30 14,24 3,-5 29,-9 56,-9 z m 515,6 c 0,-5 -10,-9 -22,-7 -20,2 -23,-3 -26,-36 -2,-27 2,-46 15,-60 18,-22 18,-22 -3,-4 -11,9 -24,17 -29,17 -4,0 -1,-8 7,-17 8,-10 15,-34 17,-53 2,-34 1,-35 -50,-47 -29,-7 -65,-24 -79,-38 l -26,-25 -41,43 c -25,25 -54,71 -72,114 -38,88 -39,100 -6,67 14,-14 31,-24 38,-21 48,18 55,17 60,-4 3,-12 10,-18 17,-14 6,4 9,17 6,30 -5,18 1,25 34,40 21,10 46,15 54,12 9,-3 18,-2 21,3 8,13 85,13 85,0 z m 1541,-6 c 41,-1 69,-8 107,-29 57,-31 63,-41 14,-24 -17,6 -39,9 -49,6 -14,-3 -12,-6 12,-16 84,-34 94,-42 109,-87 8,-25 32,-68 52,-95 33,-45 35,-52 25,-81 -6,-17 -11,-58 -11,-91 v -60 l -21,28 c -12,15 -26,48 -31,73 -4,26 -17,59 -28,74 -11,15 -20,32 -20,38 0,17 -51,113 -57,106 -3,-3 -11,0 -19,7 -40,36 -74,53 -74,38 0,-11 -19,-9 -46,7 -27,14 -36,6 -23,-22 10,-20 9,-20 -10,2 -10,12 -24,22 -30,22 -8,0 -7,9 3,28 7,15 17,42 21,61 4,18 10,30 14,25 3,-5 31,-10 62,-10 z m 509,6 c 0,-5 -10,-9 -22,-7 -20,2 -23,-3 -26,-36 -2,-27 2,-46 15,-60 18,-22 18,-22 -3,-4 -26,21 -41,22 -23,1 7,-8 14,-33 15,-54 2,-38 2,-38 -42,-45 -28,-4 -57,-17 -78,-35 l -33,-29 -41,42 c -26,26 -53,70 -72,116 -37,90 -37,97 -4,65 24,-25 35,-26 75,-10 12,5 18,1 22,-14 8,-29 30,-15 24,15 -3,19 3,27 34,40 21,10 45,15 53,12 9,-3 18,-2 21,3 8,13 85,13 85,0 z M 825,2741 c 84,-30 147,-81 194,-159 36,-59 41,-76 41,-127 0,-80 -26,-156 -69,-203 -49,-53 -146,-85 -211,-71 -75,17 -71,24 9,21 102,-5 148,19 209,107 48,72 54,117 26,212 -28,95 -89,149 -167,149 h -49 l 7,30 c 8,35 2,37 -32,10 -29,-23 -54,-25 -71,-8 -18,18 -15,26 16,42 35,19 33,19 97,-3 z m 409,2 c 8,3 20,-1 26,-9 7,-8 18,-14 24,-14 38,0 70,-29 102,-92 33,-66 36,-102 8,-91 -18,7 -14,-27 6,-54 14,-16 13,-17 -1,-5 -14,10 -18,10 -23,-3 -4,-11 -2,-14 7,-9 8,5 7,2 -2,-9 -12,-15 -11,-20 5,-40 19,-22 19,-22 -2,-4 -25,21 -34,14 -34,-28 0,-17 -9,-40 -19,-52 -18,-19 -18,-22 -3,-39 16,-17 16,-17 -1,-5 -24,19 -34,5 -18,-22 13,-20 13,-21 -2,-9 -14,12 -19,12 -32,-1 -9,-10 -11,-18 -5,-22 5,-3 10,-11 10,-18 0,-8 -3,-8 -12,1 -14,14 -32,16 -24,4 3,-5 -4,-16 -15,-25 -25,-22 -25,-20 16,88 60,160 55,225 -26,402 -33,71 -35,80 -14,63 8,-7 21,-10 29,-7 z m 1666,-11 c 67,-28 127,-80 169,-150 36,-59 41,-76 41,-127 0,-137 -60,-229 -172,-263 -60,-19 -71,-20 -118,-7 -29,8 -53,15 -55,17 -2,2 31,1 74,0 67,-3 83,-1 122,21 58,32 119,119 126,180 7,61 -12,137 -50,193 -34,52 -75,74 -137,74 -41,0 -41,0 -35,30 8,35 2,37 -32,10 -29,-23 -54,-25 -71,-8 -19,19 -14,28 21,43 33,14 58,12 117,-13 z m 2023,9 c 84,-29 150,-82 196,-159 36,-60 41,-76 41,-128 0,-106 -48,-207 -114,-241 -57,-29 -122,-42 -167,-32 -74,17 -70,24 10,21 102,-5 148,19 209,107 48,72 54,117 26,212 -28,95 -89,149 -167,149 h -49 l 7,30 c 8,35 2,37 -32,10 -29,-23 -54,-25 -71,-8 -18,18 -15,26 16,42 35,19 33,19 95,-3 z m -1611,-9 c 7,-7 17,-12 23,-12 37,0 69,-29 101,-92 34,-67 36,-102 7,-91 -12,5 -14,1 -9,-15 4,-12 2,-31 -4,-43 -10,-17 -9,-20 2,-13 10,6 10,5 -1,-9 -12,-15 -11,-20 5,-40 19,-22 19,-22 -2,-4 -25,21 -34,14 -34,-28 0,-17 -9,-40 -19,-52 -17,-18 -18,-22 -5,-37 8,-9 9,-11 2,-6 -25,21 -33,3 -13,-30 8,-13 6,-13 -8,-2 -14,12 -19,12 -32,-1 -9,-10 -11,-18 -5,-22 5,-3 10,-11 10,-18 0,-8 -3,-8 -12,1 -14,14 -32,16 -24,4 3,-5 -4,-17 -16,-26 -25,-22 -27,-31 26,119 20,55 36,118 36,140 -1,43 -32,145 -73,237 l -26,56 30,-2 c 16,-1 35,-8 41,-14 z m -1095,-197 51,-15 -10,-40 c -8,-29 -19,-45 -39,-56 -16,-8 -29,-18 -29,-23 0,-15 -44,-21 -60,-7 -27,23 -100,54 -106,45 -3,-5 -15,-9 -27,-9 -33,0 64,94 111,107 52,15 53,15 109,-2 z m 2050,0 51,-15 -10,-40 c -8,-29 -19,-45 -39,-56 -16,-8 -29,-18 -29,-23 0,-18 -44,-20 -65,-2 -31,24 -105,47 -113,35 -9,-12 -32,-16 -32,-6 0,18 94,98 128,108 50,16 51,16 109,-1 z m -2327,-55 c -19,-35 -16,-98 4,-118 12,-11 20,-13 23,-6 2,6 19,9 39,7 21,-2 33,0 30,6 -4,5 2,9 11,9 10,0 25,2 33,6 24,10 62,-36 65,-81 2,-21 1,-32 -2,-25 -9,23 -20,12 -16,-15 4,-26 3,-27 -10,-10 -11,13 -16,14 -19,6 -2,-7 -20,-13 -40,-13 -32,0 -35,-2 -27,-18 6,-10 7,-23 4,-28 -10,-17 -33,-11 -40,10 -9,28 -28,25 -23,-4 4,-22 3,-23 -14,-13 -15,9 -18,19 -13,45 7,36 -1,40 -45,17 -25,-13 -29,-13 -34,2 -4,9 -9,13 -12,10 -13,-12 -52,51 -59,93 -6,43 -5,47 26,70 35,27 109,69 122,70 4,0 3,-9 -3,-20 z m 2050,0 c -19,-35 -16,-98 4,-118 12,-11 20,-13 23,-6 2,6 19,9 39,7 21,-2 33,0 30,6 -4,5 2,9 11,9 10,0 25,2 33,6 25,11 65,-39 66,-82 1,-20 -1,-31 -3,-24 -9,23 -20,12 -16,-15 4,-26 3,-27 -10,-10 -11,13 -16,14 -19,6 -2,-7 -20,-13 -40,-13 -36,0 -36,0 -23,-26 13,-25 12,-26 -11,-26 -14,0 -26,7 -30,18 -7,24 -24,23 -24,-2 0,-14 -5,-18 -16,-13 -12,4 -14,14 -9,39 7,38 -1,42 -45,19 -25,-13 -29,-13 -34,2 -4,9 -9,13 -12,10 -13,-12 -52,51 -59,93 -6,43 -5,47 26,70 35,27 109,69 122,70 4,0 3,-9 -3,-20 z M 962,2353 c 19,-22 13,-39 -26,-80 -39,-40 -82,-53 -89,-26 -4,16 -6,15 -12,-4 -11,-33 -30,-28 -32,7 -2,20 3,33 13,37 13,5 13,7 2,14 -10,7 -8,9 6,9 11,0 16,3 13,6 -4,4 3,15 15,25 14,13 17,19 7,20 -8,0 -4,4 9,9 26,11 29,30 5,31 -12,1 -10,4 7,9 14,5 18,9 10,10 -8,1 -1,5 15,9 28,6 30,4 36,-26 3,-18 13,-41 21,-50 z m 2026,60 c 1,-15 10,-38 19,-52 22,-33 19,-46 -20,-87 -40,-41 -83,-54 -90,-27 -4,16 -6,15 -12,-4 -4,-13 -13,-23 -20,-23 -18,0 -13,62 4,68 11,4 11,6 0,13 -11,7 -9,9 5,9 11,0 16,3 13,6 -4,4 3,15 15,25 14,13 17,19 7,20 -8,0 -4,4 9,9 26,11 29,30 5,31 -12,1 -10,4 7,9 14,5 18,9 10,10 -8,1 -1,6 15,10 17,4 30,8 30,9 0,0 2,-11 3,-26 z m 2074,-60 c 19,-22 13,-39 -26,-80 -39,-40 -82,-53 -89,-26 -4,16 -6,15 -12,-4 -11,-33 -30,-28 -32,7 -2,20 3,33 13,37 13,5 13,7 2,14 -10,7 -8,9 6,9 11,0 16,3 13,6 -4,4 3,15 15,25 14,13 17,19 7,20 -8,0 -4,4 9,9 26,11 29,27 5,33 -12,3 -10,5 7,6 21,1 22,3 10,12 -12,8 -9,10 13,6 15,-2 27,1 28,7 1,6 5,-6 9,-26 4,-21 14,-46 22,-55 z M 367,2313 c 4,3 14,-1 21,-9 7,-8 10,-14 6,-14 -4,0 1,-9 11,-20 10,-11 24,-20 30,-20 14,0 25,-22 25,-47 0,-11 -6,-8 -19,8 -28,35 -36,17 -13,-28 20,-39 72,-92 110,-112 12,-7 22,-18 22,-25 0,-8 7,-19 15,-26 8,-7 15,-19 15,-28 0,-8 14,-28 32,-44 17,-15 29,-30 27,-33 -7,-6 -107,11 -142,24 -16,6 -31,20 -34,31 -3,11 -13,20 -23,20 -25,0 -94,58 -95,81 -1,10 -10,26 -21,34 -10,8 -15,15 -10,15 11,0 -24,40 -36,40 -16,0 -43,35 -40,52 2,9 11,19 20,21 12,2 7,8 -18,19 -19,9 -30,17 -24,17 6,1 10,16 9,34 -1,17 1,37 6,42 4,6 8,15 8,20 5,48 13,48 62,-5 26,-28 52,-50 56,-47 z m 2050,0 c 4,3 14,-1 21,-9 7,-8 10,-14 7,-14 -2,0 3,-9 12,-20 10,-11 23,-20 29,-20 13,0 24,-22 24,-47 0,-11 -6,-8 -19,8 -28,35 -36,17 -12,-28 19,-39 92,-113 110,-113 5,0 20,-21 33,-47 13,-27 27,-51 33,-55 7,-5 7,-8 0,-8 -5,-1 2,-8 18,-16 39,-21 33,-33 -15,-27 -66,7 -138,33 -138,49 0,7 -16,20 -35,28 -19,8 -38,22 -41,30 -3,8 -15,16 -26,19 -12,3 -17,10 -13,17 4,6 -3,22 -16,36 -12,13 -19,24 -14,24 4,0 0,9 -10,20 -10,11 -22,20 -27,20 -4,0 -16,8 -26,18 -17,17 -18,52 -1,52 20,0 7,18 -18,25 -15,3 -23,9 -17,13 5,4 9,21 9,37 0,17 3,35 6,40 4,6 8,15 8,20 5,48 13,48 62,-5 26,-28 52,-50 56,-47 z m 2050,0 c 4,3 14,-1 21,-9 7,-8 10,-14 7,-14 -2,0 3,-9 12,-20 10,-11 23,-20 29,-20 13,0 28,-30 19,-38 -2,-3 -11,1 -20,8 -25,21 -28,5 -6,-37 18,-37 94,-113 112,-113 4,0 18,-21 31,-47 13,-27 27,-51 33,-55 7,-5 7,-8 0,-8 -5,-1 2,-8 18,-16 39,-21 33,-33 -15,-27 -66,7 -138,33 -138,49 0,7 -16,20 -35,28 -19,8 -38,22 -41,30 -3,8 -15,16 -26,19 -12,3 -17,10 -13,17 4,6 -3,22 -16,36 -12,13 -19,24 -14,24 4,0 0,9 -10,20 -10,11 -22,20 -27,20 -4,0 -16,8 -26,18 -17,17 -18,52 -1,52 20,0 7,18 -18,25 -15,3 -23,9 -17,13 5,4 9,21 8,37 0,17 3,35 7,40 4,6 8,15 8,20 5,48 13,48 62,-5 26,-28 52,-50 56,-47 z m -2815,-93 c 62,-28 96,-60 63,-60 -19,0 -19,-16 0,-24 8,-3 15,-12 15,-21 0,-8 5,-15 11,-15 6,0 2,-15 -9,-32 -11,-18 -25,-51 -32,-73 -12,-37 -13,-38 -22,-16 -22,61 -43,92 -73,111 -41,25 -78,27 -73,3 2,-10 -5,-27 -14,-38 -10,-10 -16,-25 -13,-33 6,-16 -64,-83 -84,-80 -12,3 -19,11 -38,47 -1,2 -17,7 -35,11 l -33,8 40,2 c 22,1 34,4 27,7 -6,2 -10,9 -6,14 3,5 0,9 -7,9 -7,0 -4,7 7,15 10,8 15,15 9,15 -5,1 -1,5 10,10 19,7 18,8 -7,15 -14,4 -28,15 -31,26 -4,15 0,19 24,19 16,0 29,5 29,10 0,6 -6,10 -12,10 -7,0 1,11 17,25 17,13 35,29 41,34 7,5 21,7 33,4 11,-3 21,-1 21,5 0,9 13,13 66,21 6,0 41,-12 76,-29 z m 2051,1 c 61,-27 95,-61 62,-61 -19,0 -19,-16 0,-24 8,-3 15,-12 15,-21 0,-8 4,-15 10,-15 5,0 -1,-21 -15,-47 -13,-27 -27,-57 -31,-68 -5,-16 -10,-11 -29,31 -15,34 -35,59 -58,73 -43,26 -80,28 -75,4 2,-10 -5,-27 -14,-38 -10,-10 -16,-25 -13,-33 6,-16 -64,-83 -84,-80 -8,2 -19,12 -25,23 -6,11 -12,22 -13,24 -2,2 -20,7 -40,11 l -38,8 45,2 c 25,1 39,4 32,7 -6,2 -10,9 -6,14 3,5 0,9 -7,9 -7,0 -4,7 7,15 10,8 15,15 9,15 -5,1 -1,5 10,10 19,7 18,8 -7,15 -14,4 -28,15 -31,26 -4,15 0,19 24,19 16,0 29,5 29,10 0,6 -5,10 -12,10 -6,0 -2,9 10,20 12,11 26,20 32,20 6,0 13,7 16,15 4,10 14,13 30,9 14,-4 24,-2 24,4 0,9 15,14 67,21 6,0 40,-12 76,-28 z m -1791,-16 c -6,-54 6,-101 36,-137 24,-28 27,-40 28,-112 1,-48 -3,-87 -10,-95 -8,-11 -8,-15 0,-18 17,-6 -4,-68 -34,-100 -13,-14 -24,-35 -25,-47 0,-11 -5,-24 -11,-28 -12,-8 -15,-97 -4,-166 12,-74 48,-144 120,-234 75,-92 77,-98 118,-245 33,-116 56,-163 45,-90 -5,30 -5,30 10,-8 9,-22 27,-51 40,-65 14,-14 25,-32 25,-38 0,-7 9,-30 20,-52 11,-22 20,-56 20,-76 0,-38 -26,-152 -39,-169 -4,-5 -15,-31 -25,-58 -18,-49 -87,-133 -99,-120 -4,3 -7,-2 -8,-13 0,-10 -3,-13 -6,-6 -2,6 -9,12 -15,12 -6,0 -8,-6 -5,-14 4,-10 0,-12 -14,-9 -11,3 -19,0 -19,-8 0,-7 -3,-9 -7,-6 -3,4 -14,0 -24,-9 -10,-9 -25,-14 -34,-10 -13,4 -15,1 -10,-14 4,-11 2,-20 -4,-20 -6,0 -11,7 -11,15 0,21 -27,19 -39,-2 -6,-10 -11,-13 -11,-7 0,7 -20,10 -52,9 -29,-2 -55,1 -58,5 -3,5 -17,11 -32,15 -22,6 -26,4 -24,-12 2,-10 1,-12 -1,-5 -5,13 -63,47 -63,36 0,-4 -9,1 -20,11 -19,18 -20,17 -20,-4 0,-19 -3,-20 -20,-11 -35,19 -97,121 -98,163 -1,20 3,37 7,37 5,0 7,8 5,18 -6,20 37,123 43,105 3,-7 9,-13 15,-13 7,0 8,14 5,37 -5,26 -3,33 3,23 6,-9 10,-10 10,-3 0,7 7,10 15,7 8,-4 15,-14 15,-24 0,-11 5,-22 10,-25 6,-3 10,0 10,8 0,21 47,51 53,34 3,-6 6,-1 6,12 l 1,23 20,-23 c 10,-13 19,-20 20,-15 0,19 40,-28 40,-48 0,-43 -11,-65 -31,-61 -10,2 -19,-1 -19,-7 0,-5 -6,-8 -14,-5 -8,3 -22,-5 -32,-18 -9,-13 -23,-21 -31,-18 -23,9 -15,-43 12,-75 36,-42 120,-63 198,-47 40,8 57,8 57,1 0,-6 5,-4 10,4 8,13 10,13 10,-2 0,-9 5,-20 11,-24 8,-4 9,4 5,27 -5,31 -5,32 6,11 15,-30 34,-22 31,12 -2,24 0,26 13,15 13,-10 17,-10 25,2 5,8 9,19 9,26 0,6 9,10 20,8 15,-3 22,4 30,33 5,20 10,45 10,55 0,10 5,15 10,12 12,-7 7,19 -15,90 -7,22 -16,58 -20,79 -4,22 -15,51 -25,63 -10,13 -22,38 -25,55 -9,39 -123,157 -135,139 -4,-8 -10,0 -15,21 -4,18 -9,27 -12,21 -4,-10 -9,-10 -26,-1 -12,7 -25,11 -29,10 -5,-1 -8,2 -8,8 0,5 -7,7 -15,4 -8,-4 -15,-12 -15,-20 0,-18 -2,-17 -48,2 -20,8 -74,18 -118,21 l -81,6 -11,-29 c -6,-16 -11,-23 -11,-16 -2,22 -21,13 -21,-10 0,-18 -2,-20 -10,-8 -11,17 -23,8 -27,-22 -4,-28 -7,-30 -27,-22 -18,7 -22,29 -6,39 16,10 12,28 -5,21 -9,-3 -15,0 -15,10 0,8 -5,12 -10,9 -6,-4 -18,-1 -27,7 -14,11 -15,10 -9,-7 5,-16 1,-21 -16,-22 -11,-1 -30,3 -41,9 -11,5 -36,10 -56,10 -20,0 -31,3 -25,5 7,2 9,13 6,25 -3,14 -1,19 6,14 7,-4 12,-2 12,4 0,6 5,8 11,5 6,-4 13,2 16,14 3,11 9,19 13,16 5,-3 11,4 15,15 3,11 12,20 20,20 7,0 19,10 28,23 8,12 24,23 36,24 29,2 49,24 44,48 -3,12 -1,16 4,9 10,-13 83,-17 83,-5 0,12 69,19 73,7 6,-18 29,6 24,26 -5,19 -5,19 13,3 10,-9 23,-14 29,-11 5,3 12,0 14,-6 3,-8 6,-5 6,5 1,21 -1,22 69,-17 28,-16 52,-33 52,-38 0,-4 4,-8 10,-8 5,0 7,7 3,16 -3,9 24,-5 63,-31 47,-32 70,-43 73,-34 2,7 -4,18 -14,24 -124,74 -212,188 -220,287 -7,76 -23,190 -30,213 -6,18 -6,18 5,2 15,-23 33,-12 24,15 -4,13 -2,18 4,14 7,-4 10,3 10,16 -3,45 2,78 11,78 15,0 23,-53 25,-168 1,-95 5,-114 30,-167 34,-71 47,-53 16,24 -26,67 -29,264 -4,350 39,134 47,156 56,162 7,5 4,33 -10,84 -12,43 -19,82 -16,87 11,18 19,6 20,-30 1,-21 11,-59 22,-83 l 19,-44 -2,50 c -1,28 -8,70 -15,94 -13,40 -12,45 5,57 10,8 19,14 20,14 0,0 -1,-16 -3,-35 z m 2050,5 c -7,-46 6,-94 35,-136 24,-34 28,-50 29,-119 1,-45 -3,-86 -9,-93 -8,-10 -7,-16 1,-21 13,-8 -28,-106 -47,-112 -7,-3 -13,-15 -13,-29 -1,-14 -6,-28 -11,-31 -13,-9 -16,-96 -6,-164 13,-78 47,-144 130,-250 42,-53 73,-102 79,-128 6,-23 22,-78 35,-123 14,-44 25,-86 25,-92 0,-7 4,-12 10,-12 5,0 7,15 5,33 -5,30 -5,30 10,-8 9,-22 27,-51 40,-65 14,-14 25,-32 25,-38 0,-7 9,-30 20,-52 11,-22 20,-57 20,-78 0,-37 -21,-125 -40,-167 -5,-11 -18,-41 -29,-67 -21,-50 -83,-123 -94,-111 -4,3 -7,-2 -8,-13 0,-10 -3,-13 -6,-6 -2,6 -9,12 -15,12 -6,0 -8,-6 -5,-14 4,-10 0,-12 -14,-9 -11,3 -19,0 -19,-8 0,-7 -3,-9 -7,-6 -3,4 -14,0 -24,-9 -10,-9 -25,-14 -34,-10 -13,4 -15,1 -10,-14 4,-11 2,-20 -4,-20 -6,0 -11,7 -11,15 0,21 -27,19 -39,-2 -6,-11 -11,-13 -11,-5 0,7 -4,10 -10,7 -5,-3 -10,0 -10,7 0,8 -3,9 -8,3 -9,-13 -75,-16 -82,-4 -4,5 -28,14 -56,19 -72,15 -71,15 -88,29 -14,11 -16,11 -16,-4 0,-32 -34,-10 -76,50 -31,43 -42,69 -42,97 -1,21 2,38 6,38 4,0 7,12 8,28 1,22 19,82 31,101 1,2 10,-2 19,-10 16,-13 17,-11 11,26 -4,22 -3,35 1,29 4,-6 15,-10 25,-8 11,1 17,-4 17,-16 0,-10 5,-22 10,-25 6,-3 10,0 10,8 0,21 47,51 53,34 3,-6 6,-1 6,12 l 1,23 20,-23 c 12,-15 19,-19 20,-10 0,8 8,3 20,-12 31,-39 23,-108 -11,-102 -10,2 -19,-1 -19,-7 0,-5 -6,-8 -14,-5 -8,3 -22,-5 -32,-18 -9,-13 -23,-21 -31,-18 -9,4 -13,-4 -13,-22 0,-18 11,-38 33,-59 44,-41 114,-56 191,-41 39,8 56,8 56,1 0,-6 5,-4 10,4 8,13 10,13 10,-2 0,-9 5,-20 11,-24 8,-4 9,4 5,27 -5,31 -5,32 6,11 15,-30 34,-22 31,12 -2,24 0,26 13,15 13,-10 17,-10 25,2 5,8 9,19 9,26 0,7 9,10 20,8 16,-3 22,3 27,28 4,18 6,35 5,40 -1,4 2,7 8,7 5,0 6,7 3,17 -4,11 -3,14 6,9 13,-9 9,19 -15,89 -8,22 -14,49 -14,60 0,11 -14,47 -30,80 -16,33 -30,66 -30,73 0,14 -114,132 -128,132 -5,0 -12,10 -16,23 -4,15 -8,18 -14,10 -6,-9 -15,-8 -36,7 -31,19 -56,17 -56,-6 0,-18 -2,-17 -48,2 -20,8 -74,18 -118,21 -77,5 -82,5 -88,-15 -4,-13 -13,-19 -22,-15 -9,3 -14,-2 -14,-17 0,-19 -2,-20 -15,-10 -8,7 -16,10 -16,6 -2,-10 -6,-25 -9,-33 -1,-5 -2,-11 -1,-16 1,-10 -11,-9 -29,3 -12,8 -13,13 -2,30 16,26 15,33 -3,26 -9,-3 -15,0 -15,10 0,8 -5,12 -10,9 -6,-4 -18,-1 -27,7 -14,11 -15,10 -9,-7 5,-16 1,-21 -16,-22 -11,-1 -30,3 -41,9 -11,5 -36,10 -56,10 -20,0 -31,3 -25,5 7,2 9,13 6,25 -3,14 -1,19 6,14 7,-4 12,-2 12,4 0,6 5,8 11,5 6,-4 13,2 16,14 3,11 9,19 13,16 5,-3 11,4 15,15 3,11 13,20 20,20 8,0 19,8 24,19 6,10 22,22 37,25 30,8 56,30 47,40 -7,6 26,10 65,6 12,-1 22,3 22,9 0,6 13,11 29,11 16,0 32,6 34,13 3,7 6,4 6,-6 1,-10 7,-17 14,-14 6,2 12,14 11,26 -1,19 1,20 17,5 10,-9 22,-13 28,-10 5,3 12,0 14,-6 3,-8 6,-6 6,5 1,16 8,14 61,-14 33,-17 60,-36 60,-40 0,-5 4,-9 10,-9 5,0 6,8 3,17 -4,10 21,-3 59,-30 71,-51 78,-54 78,-33 0,8 -15,23 -32,33 -58,34 -143,120 -171,172 -17,30 -30,72 -32,103 -7,76 -23,190 -30,213 -6,18 -6,18 5,2 15,-23 33,-12 24,15 -4,13 -2,18 4,14 7,-4 10,3 10,16 -3,45 2,78 11,78 15,0 23,-53 25,-168 1,-94 5,-114 30,-167 35,-73 46,-56 16,24 -19,53 -21,73 -17,192 5,138 27,246 61,305 17,28 16,33 -3,104 -19,68 -20,76 -5,90 15,14 16,13 9,-8 -6,-21 29,-162 40,-162 8,0 -3,107 -15,149 -13,40 -12,45 5,57 10,8 19,14 20,14 1,0 0,-13 -3,-30 z M 224,2155 c 15,-23 15,-26 -4,-45 -24,-24 -25,-41 -6,-95 9,-24 11,-44 5,-49 -13,-15 -209,89 -209,111 0,17 33,33 66,33 32,0 64,26 64,52 0,30 63,25 84,-7 z m 2050,0 c 15,-23 15,-26 -4,-45 -24,-24 -25,-41 -6,-95 21,-59 6,-65 -67,-27 -104,55 -137,76 -137,90 0,14 40,32 72,32 27,0 58,28 58,52 0,30 63,25 84,-7 z m 2049,-1 c 13,-24 12,-29 -4,-45 -23,-23 -23,-41 -5,-94 20,-55 7,-64 -51,-36 -63,30 -153,90 -153,101 0,14 35,30 66,30 32,0 64,26 64,52 0,14 8,18 35,18 27,0 37,-6 48,-26 z m -3075,-39 c 2,-15 -2,-31 -9,-36 -18,-11 -15,-66 5,-88 14,-15 15,-23 5,-45 -10,-20 -19,-26 -46,-26 -21,0 -33,5 -33,14 0,24 -36,60 -61,61 -67,4 -90,37 -42,60 11,6 28,17 37,24 26,21 120,70 131,67 6,-1 11,-15 13,-31 z m 2050,11 c 2,-9 -3,-32 -12,-51 -17,-36 -9,-79 15,-87 10,-3 10,-11 0,-36 -11,-27 -19,-32 -47,-32 -22,0 -34,5 -34,14 0,24 -36,60 -61,61 -107,6 -87,45 66,127 55,29 68,30 73,4 z m 2050,0 c 2,-9 -3,-32 -12,-51 -17,-36 -9,-79 15,-87 10,-3 10,-11 0,-36 -11,-27 -19,-32 -47,-32 -22,0 -34,5 -34,14 0,24 -36,60 -61,61 -39,2 -69,15 -69,31 0,15 54,53 135,95 56,29 68,30 73,5 z M 1605,1990 c 25,-74 13,-141 -33,-191 -19,-22 -37,-37 -40,-34 -9,9 -30,76 -37,114 -6,42 -3,47 47,85 21,16 35,32 32,38 -6,9 2,38 10,38 2,0 12,-23 21,-50 z m 2050,0 c 25,-74 13,-141 -32,-191 -38,-41 -47,-43 -56,-7 -3,13 -10,41 -16,63 -14,55 -6,75 40,108 21,16 37,33 33,38 -6,10 1,39 10,39 2,0 12,-23 21,-50 z m -590,-45 c 26,-54 28,-65 15,-65 -9,0 -17,-7 -17,-15 0,-8 4,-15 9,-15 4,0 8,-5 8,-11 0,-18 27,-39 52,-40 16,-1 13,-4 -12,-9 -30,-6 -31,-8 -9,-9 39,-2 44,-27 8,-41 -39,-17 -37,-25 14,-39 43,-13 137,-93 137,-118 0,-7 11,-20 25,-29 42,-28 32,-45 -22,-37 -57,7 -68,13 -25,13 18,0 32,4 32,8 0,4 -60,14 -132,21 -146,14 -163,18 -258,72 -115,64 -181,83 -280,76 -81,-5 -140,-21 -140,-38 0,-4 -12,-9 -27,-11 -16,-2 -28,-7 -28,-13 0,-26 -71,-73 -102,-67 -6,2 -14,-2 -18,-8 -3,-5 -19,-10 -36,-10 -16,0 -29,-4 -29,-9 0,-5 -9,-7 -20,-4 -11,3 -27,0 -35,-7 -13,-11 -28,-8 -86,15 -63,26 -75,28 -120,19 -50,-11 -55,-9 -40,15 6,10 22,12 57,7 27,-4 69,-3 94,2 l 45,8 -73,13 c -40,7 -79,10 -88,7 -9,-4 -12,-2 -8,5 5,8 34,9 93,5 59,-5 81,-3 71,4 -12,8 -11,10 6,10 12,0 27,7 34,15 6,8 22,17 33,21 12,3 54,21 92,39 107,51 265,72 373,51 54,-11 57,6 3,22 -48,15 -152,15 -211,0 -54,-13 -124,-13 -148,1 -13,8 -9,10 21,11 26,0 36,4 31,11 -5,9 1,10 20,5 14,-3 26,-2 26,3 0,5 10,12 23,15 21,7 21,7 2,16 -19,8 75,15 147,10 14,-1 29,3 32,8 8,13 98,5 147,-14 24,-9 58,-28 76,-41 17,-12 34,-23 37,-23 4,0 29,-22 56,-50 46,-46 70,-61 70,-43 0,4 -26,34 -57,66 -32,32 -50,55 -40,51 10,-3 17,-1 17,5 0,6 -12,11 -27,11 -22,0 -25,2 -13,10 12,8 10,10 -10,11 -14,0 -19,3 -12,6 9,3 7,13 -9,34 -17,24 -18,33 -9,44 10,13 8,15 -11,15 -19,0 -21,2 -9,10 8,5 38,9 65,8 l 50,-1 28,-56 c 33,-68 54,-97 64,-87 4,4 -9,39 -30,77 -35,62 -37,70 -20,75 10,3 25,9 33,14 28,16 35,10 65,-55 z m 2031,38 c 4,-16 18,-44 31,-63 21,-32 22,-35 6,-40 -19,-5 -30,-30 -13,-30 6,0 10,-5 10,-11 0,-18 27,-39 52,-40 16,-1 13,-4 -12,-9 -25,-5 -28,-8 -12,-9 13,0 30,-7 37,-15 12,-11 8,-15 -25,-26 -22,-7 -37,-16 -35,-20 2,-4 25,-13 49,-20 34,-9 58,-26 96,-69 28,-31 59,-65 70,-77 38,-40 23,-51 -45,-34 l -30,8 30,1 c 66,2 2,19 -130,33 -136,15 -142,17 -225,63 -128,72 -187,89 -290,82 -81,-5 -140,-21 -140,-38 0,-4 -12,-9 -27,-11 -16,-2 -28,-7 -28,-13 0,-26 -71,-73 -102,-67 -6,2 -14,-2 -18,-8 -3,-5 -19,-10 -36,-10 -16,0 -29,-4 -29,-10 0,-5 -7,-7 -16,-3 -8,3 -26,0 -38,-7 -20,-10 -31,-9 -70,9 -64,28 -107,35 -150,23 -37,-11 -42,-7 -27,17 6,10 22,12 57,7 27,-4 69,-3 94,2 l 45,9 -40,8 c -22,5 -61,9 -86,9 -26,1 -45,5 -42,10 3,4 47,6 97,2 58,-3 84,-2 71,4 -20,8 -20,9 1,9 12,1 27,8 34,16 6,8 22,17 33,21 12,3 54,21 92,39 106,50 255,71 368,51 32,-6 47,-5 47,2 0,29 -163,42 -250,20 -54,-13 -124,-13 -148,1 -13,8 -9,10 21,11 26,0 36,4 31,11 -5,9 1,10 20,5 14,-3 26,-2 26,3 0,5 10,12 23,15 21,7 21,7 2,16 -19,8 75,15 147,10 14,-1 29,3 32,8 11,18 109,3 170,-28 80,-39 91,-46 148,-102 44,-44 68,-58 68,-41 0,4 -26,34 -57,66 -32,32 -50,55 -40,51 10,-3 17,-1 17,5 0,6 -12,11 -27,11 -22,0 -25,2 -13,10 12,8 10,10 -10,10 -17,0 -21,3 -12,8 10,7 8,15 -9,36 -17,21 -19,29 -9,41 10,13 8,15 -11,15 -19,0 -21,2 -9,10 8,5 38,9 65,8 l 50,-1 27,-56 c 34,-70 54,-98 64,-88 7,7 -3,29 -48,111 -23,41 -22,46 6,46 14,0 28,5 31,10 12,19 35,10 41,-17 z m -2968,-3 c 2,-5 8,-8 13,-4 5,3 9,1 9,-5 0,-6 7,-7 17,-4 12,5 14,3 8,-7 -6,-10 -4,-12 8,-7 12,4 17,1 17,-9 0,-11 6,-14 16,-10 8,3 12,2 9,-4 -3,-5 6,-12 20,-16 55,-14 12,-54 -63,-58 -17,-1 -38,-8 -44,-14 -7,-7 -16,-12 -22,-12 -6,0 -5,5 1,11 16,16 5,39 -15,32 -9,-3 -26,-13 -37,-22 -18,-15 -19,-15 -6,1 17,22 6,38 -25,38 -27,0 -29,6 -14,46 8,19 8,30 0,38 -5,5 -10,14 -10,19 0,13 114,1 118,-13 z m 2035,9 c 20,-5 37,-14 37,-19 0,-5 7,-6 17,-3 12,5 14,3 8,-7 -6,-10 -4,-12 8,-7 10,4 16,2 14,-6 -1,-7 6,-11 15,-11 10,1 15,-3 11,-9 -4,-6 0,-8 11,-4 10,4 15,3 11,-3 -3,-6 1,-10 9,-10 9,0 16,-7 16,-15 0,-18 -41,-36 -88,-40 -18,-1 -38,-7 -45,-14 -6,-6 -15,-11 -21,-11 -6,0 -5,5 1,11 16,16 5,39 -15,32 -9,-3 -26,-13 -37,-22 -18,-15 -19,-15 -6,1 17,22 6,38 -26,38 -26,0 -27,12 -7,64 3,9 1,16 -5,16 -6,0 -11,7 -11,15 0,18 47,20 103,4 z M 1403,1708 c 17,-15 34,-25 39,-22 4,3 17,-2 29,-10 12,-8 26,-13 33,-10 13,5 80,-54 89,-78 4,-10 13,-18 21,-18 21,0 51,-47 74,-113 19,-58 11,-77 -18,-38 -7,11 -17,18 -22,15 -4,-3 -8,1 -8,8 0,9 -3,9 -10,-2 -6,-10 -10,-11 -10,-2 0,6 -9,12 -19,12 -11,0 -23,5 -26,10 -4,6 -10,8 -14,5 -5,-2 -19,7 -32,21 -39,42 -102,82 -142,89 -37,7 -53,-7 -22,-19 25,-9 17,-24 -10,-18 -14,2 -25,10 -25,17 0,6 -16,20 -35,31 -19,10 -35,22 -35,27 0,11 -41,46 -55,47 -5,0 -21,11 -35,23 -14,12 -23,21 -21,20 2,-1 10,5 18,13 8,8 18,12 23,9 5,-3 12,4 15,16 6,17 9,19 16,8 6,-11 14,-11 38,-2 26,10 32,8 44,-11 l 15,-21 7,27 c 8,29 6,30 78,-34 z m 2050,0 c 17,-15 34,-25 39,-22 4,3 17,-2 29,-10 12,-8 26,-13 33,-10 13,5 80,-54 89,-78 4,-10 13,-18 21,-18 21,0 51,-47 74,-113 20,-61 18,-68 -15,-38 -12,11 -24,17 -27,14 -3,-4 -6,-2 -6,3 0,5 -12,11 -26,12 -15,1 -33,7 -40,13 -8,6 -14,8 -14,4 0,-4 -22,13 -50,38 -53,48 -106,77 -139,77 -24,0 -28,-15 -6,-24 25,-9 17,-24 -10,-18 -14,2 -25,10 -25,17 0,6 -16,20 -35,31 -19,10 -35,22 -35,27 0,11 -41,46 -55,47 -5,0 -21,11 -35,23 -14,12 -23,21 -21,20 2,-1 10,5 18,13 8,8 18,12 23,9 5,-3 12,4 15,16 6,17 9,19 16,8 6,-11 14,-11 38,-2 26,10 32,8 44,-11 l 15,-21 7,27 c 8,29 6,30 78,-34 z M 577,1651 c 22,-16 40,-35 40,-42 1,-8 3,-31 6,-51 5,-31 2,-39 -19,-52 -31,-21 -31,-34 1,-42 14,-3 25,-9 26,-13 0,-3 2,-14 4,-25 3,-14 1,-16 -8,-7 -6,6 -17,11 -25,11 -12,0 -11,-4 2,-25 10,-15 12,-25 6,-25 -6,0 -9,-4 -6,-9 11,-18 -24,-5 -39,15 -9,12 -14,14 -15,6 0,-19 -40,-68 -41,-51 0,9 -2,10 -5,2 -3,-6 3,-24 12,-40 l 18,-28 -27,28 c -28,29 -60,39 -37,12 10,-13 7,-12 -18,2 -17,10 -36,28 -41,41 -13,28 -14,62 -3,62 14,0 52,36 52,49 0,6 3,11 8,11 4,0 13,9 20,21 19,31 -6,63 -62,80 -34,10 -43,16 -35,26 11,12 126,73 139,73 4,0 25,-13 47,-29 z m 2052,-1 c 23,-17 40,-34 37,-39 -3,-4 1,-20 9,-35 8,-16 10,-24 3,-20 -8,5 -9,1 -5,-10 5,-13 -1,-24 -18,-38 -32,-25 -32,-36 0,-44 14,-3 25,-9 26,-13 0,-3 2,-14 4,-25 3,-14 1,-16 -8,-7 -6,6 -17,11 -25,11 -12,0 -12,-4 1,-23 14,-21 13,-24 -3,-35 -15,-9 -21,-7 -34,11 -11,17 -15,18 -15,6 -1,-19 -35,-52 -44,-42 -14,13 -6,-19 10,-45 l 17,-27 -27,28 c -25,26 -55,38 -42,17 4,-6 -3,-6 -18,1 -45,20 -63,93 -27,104 11,4 18,10 15,15 -3,4 5,10 16,13 12,3 18,10 14,16 -3,6 -1,11 5,11 6,0 9,4 6,9 -3,5 1,11 9,15 38,14 5,56 -64,78 l -43,15 30,22 c 29,20 110,60 123,61 3,0 25,-14 48,-30 z m 2048,1 c 22,-16 40,-35 40,-42 1,-8 3,-31 6,-51 5,-31 2,-39 -19,-52 -30,-21 -31,-34 0,-42 15,-3 26,-15 29,-31 3,-17 1,-21 -6,-14 -6,6 -17,11 -25,11 -12,0 -11,-4 2,-25 10,-15 12,-25 6,-25 -6,0 -8,-5 -5,-10 11,-18 -19,-6 -37,15 -11,13 -17,15 -18,7 0,-19 -40,-68 -41,-51 0,9 -2,10 -5,2 -3,-6 3,-24 12,-40 l 18,-28 -27,28 c -28,29 -60,39 -37,12 10,-13 7,-12 -18,2 -17,10 -36,28 -41,41 -13,28 -14,62 -3,62 14,0 52,36 52,49 0,6 3,11 8,11 4,0 13,9 20,21 19,31 -6,63 -62,80 -34,10 -43,16 -35,26 11,12 126,73 139,73 4,0 25,-13 47,-29 z M 406,1505 c -27,-22 -30,-29 -30,-89 0,-66 -4,-73 -44,-82 -8,-1 -21,-9 -31,-18 -13,-12 -24,-13 -59,-4 -46,11 -47,14 -31,71 22,79 112,145 199,146 h 25 z m 1750,5 c 38,0 43,-11 16,-38 -13,-13 -16,-25 -11,-45 4,-16 3,-25 -2,-21 -5,3 -9,0 -9,-6 0,-6 -4,-8 -10,-5 -10,6 -11,0 -12,-71 0,-32 8,-53 33,-89 19,-26 45,-65 59,-86 14,-22 35,-46 48,-55 12,-8 32,-33 43,-56 21,-41 18,-42 -32,-7 -14,10 -47,23 -73,30 -44,11 -49,15 -71,65 -13,30 -38,71 -56,93 -30,38 -31,43 -25,101 4,36 3,60 -2,60 -13,0 -22,-25 -23,-63 -1,-31 -1,-31 -9,-6 -13,43 8,141 35,167 14,13 22,29 19,37 -5,13 -2,14 21,5 14,-5 42,-10 61,-10 z m 299,-4 c -26,-23 -29,-31 -29,-90 0,-66 -4,-74 -44,-82 -8,-1 -22,-10 -32,-19 -16,-15 -23,-15 -57,-4 -21,7 -40,14 -42,16 -2,1 2,24 9,51 19,82 108,149 199,151 l 24,1 z m 1750,4 c 27,0 33,-3 29,-15 -4,-8 -1,-22 6,-30 7,-9 10,-18 7,-22 -4,-3 -9,1 -13,10 -3,9 -12,13 -19,11 -10,-4 -11,-13 -5,-35 5,-18 5,-27 -1,-24 -5,4 -9,1 -9,-5 0,-6 -4,-8 -10,-5 -5,3 -10,-2 -11,-12 -4,-82 0,-102 26,-141 15,-23 31,-42 35,-42 4,0 15,-18 25,-41 10,-22 31,-49 47,-60 28,-20 58,-67 58,-90 0,-6 -15,0 -34,14 -18,14 -55,31 -80,38 -44,11 -49,16 -71,65 -13,30 -38,71 -56,93 -30,38 -31,43 -25,101 4,36 3,60 -2,60 -13,0 -22,-25 -23,-63 -1,-31 -1,-31 -9,-7 -4,14 -6,34 -4,45 1,11 5,36 9,56 3,20 16,48 30,63 14,15 22,33 18,41 -4,13 -1,14 22,5 14,-5 42,-10 60,-10 z m 301,-5 c -27,-22 -30,-29 -30,-89 0,-66 -4,-73 -44,-82 -8,-1 -22,-10 -32,-19 -16,-14 -24,-15 -59,-4 -46,14 -45,13 -30,73 20,81 106,141 204,145 17,0 16,-3 -9,-24 z M 779,1458 c 35,-35 61,-58 57,-51 -8,14 44,9 114,-12 25,-8 61,-17 80,-20 19,-4 60,-22 92,-41 31,-19 59,-34 63,-34 4,0 29,-16 56,-36 l 48,-35 -21,-33 c -24,-36 -35,-35 -85,8 -13,11 -23,16 -23,12 0,-4 -9,-2 -20,4 -12,7 -20,7 -20,1 0,-5 -12,-3 -27,4 -16,8 -29,11 -31,7 -5,-16 -105,-5 -118,13 -7,9 -18,14 -24,10 -6,-4 -23,1 -38,11 -15,10 -31,17 -35,16 -4,-1 -10,5 -13,13 -4,8 -14,15 -24,15 -20,0 -60,44 -60,67 0,18 -86,103 -105,103 -20,0 -19,16 2,24 12,5 28,-6 56,-39 21,-25 42,-43 47,-40 4,2 15,-4 25,-15 10,-11 22,-20 27,-20 15,0 -65,92 -97,112 -24,14 -26,18 -10,18 11,0 48,-28 84,-62 z m 576,53 c 3,-5 10,-33 15,-63 6,-29 18,-59 26,-68 15,-14 16,-12 10,20 -22,108 -20,114 25,89 30,-16 41,-53 29,-102 -6,-23 -12,-49 -14,-56 -1,-8 -11,-20 -20,-25 -17,-11 -24,-5 -75,59 -4,6 -7,24 -6,40 0,17 -5,41 -12,55 -7,14 -13,33 -13,43 0,18 25,24 35,8 z m 1474,-53 c 35,-35 61,-58 57,-51 -8,14 44,9 114,-12 25,-8 61,-17 80,-20 19,-4 60,-22 92,-41 31,-19 59,-34 63,-34 4,0 29,-16 56,-36 l 47,-37 -21,-32 c -23,-35 -34,-34 -84,9 -13,11 -23,16 -23,12 0,-4 -9,-2 -20,4 -12,7 -20,7 -20,1 0,-5 -12,-3 -27,4 -15,8 -30,11 -33,6 -10,-15 -102,-5 -116,13 -7,10 -17,15 -23,12 -12,-8 -91,32 -91,46 0,5 -5,6 -11,3 -15,-10 -49,25 -69,71 -19,44 -74,95 -112,105 l -23,5 23,13 c 20,11 26,8 64,-33 22,-25 44,-43 48,-41 4,2 15,-4 25,-15 10,-11 22,-20 27,-20 15,0 -65,92 -97,112 -24,14 -26,18 -10,18 11,0 48,-28 84,-62 z m 576,53 c 3,-5 10,-33 15,-63 6,-29 18,-59 26,-68 15,-14 16,-12 10,20 -19,93 -19,100 -3,100 8,0 24,-8 34,-17 22,-21 47,-73 34,-73 -5,0 -11,-12 -14,-27 -3,-16 -7,-37 -10,-47 -2,-11 -12,-25 -21,-30 -17,-11 -24,-5 -75,59 -4,6 -7,24 -6,40 0,17 -5,41 -12,55 -7,14 -13,33 -13,43 0,18 25,24 35,8 z m 1474,-53 c 35,-35 61,-58 57,-51 -8,14 44,9 114,-12 25,-8 61,-17 80,-20 19,-4 61,-22 93,-41 32,-19 61,-34 64,-34 3,0 27,-16 54,-36 l 48,-35 -21,-33 c -24,-36 -35,-35 -85,8 -13,11 -23,16 -23,12 0,-4 -9,-2 -20,4 -12,7 -20,7 -20,1 0,-5 -12,-3 -27,4 -15,8 -30,11 -33,6 -9,-14 -99,-5 -118,12 -10,10 -21,14 -25,11 -4,-4 -19,2 -34,12 -15,10 -32,19 -36,19 -4,0 -11,5 -15,10 -4,6 -14,11 -22,13 -22,5 -49,32 -56,56 -12,39 -56,88 -97,106 -39,18 -39,18 -17,30 21,11 26,8 62,-34 22,-25 43,-44 48,-41 4,2 15,-4 25,-15 10,-11 22,-20 27,-20 15,0 -65,92 -97,112 -24,14 -26,18 -10,18 11,0 48,-28 84,-62 z m -3756,-45 c 2,7 9,3 16,-11 6,-12 16,-22 22,-22 6,0 7,6 3,13 -4,6 2,3 14,-7 30,-26 39,-13 17,21 -14,22 -7,18 32,-17 74,-67 124,-105 134,-103 21,6 6,-14 -23,-30 -31,-18 -31,-18 -57,6 -14,14 -53,40 -86,57 -61,34 -125,86 -125,103 0,5 11,2 24,-7 18,-11 26,-12 29,-3 z m 2052,-13 c 4,0 3,6 0,13 -3,6 2,2 11,-10 17,-24 41,-32 28,-10 -4,6 2,3 14,-7 30,-26 39,-13 17,21 -14,22 -7,18 32,-17 74,-67 124,-105 134,-103 21,6 7,-14 -21,-30 -29,-18 -29,-17 -76,18 -26,20 -65,45 -88,57 -43,21 -106,75 -106,91 0,5 11,2 25,-7 13,-9 27,-16 30,-16 z m 2050,0 c 4,0 3,6 0,13 -3,6 2,2 11,-10 17,-24 41,-32 28,-10 -4,6 2,3 14,-7 30,-26 39,-13 17,21 -14,22 -7,18 32,-17 74,-67 124,-105 134,-103 21,6 7,-14 -21,-30 -29,-18 -29,-17 -76,18 -26,20 -65,45 -88,57 -43,21 -106,75 -106,91 0,5 11,2 25,-7 13,-9 27,-16 30,-16 z M 694,1165 c 0,-132 -9,-144 -63,-85 -35,39 -43,42 -74,37 -30,-5 -36,-2 -46,20 -9,20 -9,33 -1,54 11,24 16,27 47,22 32,-5 39,-2 74,37 54,59 63,47 63,-85 z m 2050,0 c 0,-132 -9,-144 -63,-85 -35,38 -43,42 -73,37 -29,-4 -36,-1 -49,21 -13,24 -13,30 0,54 13,22 20,25 49,21 30,-5 38,-1 73,37 54,59 63,47 63,-85 z m 2050,0 c 0,-132 -9,-144 -63,-85 -35,38 -43,42 -73,37 -29,-4 -36,-1 -49,21 -13,24 -13,30 0,54 13,22 20,25 49,21 30,-5 38,-1 73,37 54,59 63,47 63,-85 z m -3996,99 c 5,-9 11,-15 13,-14 7,3 59,-12 59,-17 0,-2 -5,-13 -10,-24 -8,-14 -7,-19 2,-19 9,0 9,-3 -2,-10 -12,-8 -12,-10 5,-10 17,0 17,-2 -5,-13 -29,-14 -34,-44 -7,-39 9,2 17,-2 17,-8 0,-5 -6,-10 -14,-10 -7,0 -36,-20 -62,-45 -27,-25 -52,-45 -56,-45 -3,0 -4,20 -2,45 3,32 1,45 -8,45 -9,0 -8,3 2,10 13,9 13,11 0,20 -13,9 -13,10 0,10 12,0 12,2 1,9 -9,6 -10,11 -2,15 6,4 9,12 5,17 -7,11 34,99 46,99 5,0 13,-7 18,-16 z m 2050,0 c 5,-9 11,-15 13,-14 7,3 59,-12 59,-17 0,-2 -5,-13 -10,-24 -8,-14 -7,-19 2,-19 9,0 9,-3 -2,-10 -12,-8 -12,-10 5,-10 17,0 17,-2 -5,-13 -29,-14 -34,-44 -7,-39 9,2 17,-2 17,-8 0,-5 -6,-10 -14,-10 -7,0 -36,-20 -62,-45 -27,-25 -52,-45 -55,-45 -4,0 -5,20 -3,45 2,31 0,45 -9,45 -8,0 -7,4 3,10 13,9 13,11 0,20 -13,9 -13,10 0,10 13,0 13,1 0,10 -12,7 -12,10 -1,10 7,0 11,6 7,15 -6,18 29,105 43,105 6,0 14,-7 19,-16 z m 2050,0 c 5,-9 11,-15 13,-14 7,3 59,-12 59,-17 0,-2 -5,-13 -10,-24 -8,-14 -7,-19 2,-19 9,0 9,-3 -2,-10 -12,-8 -12,-10 5,-10 17,0 17,-2 -5,-13 -29,-14 -34,-43 -7,-41 9,1 17,-2 17,-7 0,-5 -6,-9 -14,-9 -7,0 -36,-20 -62,-45 -27,-25 -52,-45 -55,-45 -4,0 -5,20 -4,45 2,29 -1,45 -8,45 -7,0 -6,4 3,10 13,9 13,11 0,20 -13,9 -13,10 0,10 12,0 12,2 1,9 -9,6 -10,11 -2,15 6,4 9,11 6,16 -7,11 32,100 44,100 6,0 14,-7 19,-16 z M 338,1226 c 12,0 22,-5 22,-9 0,-5 5,-5 10,-2 6,3 10,1 10,-5 0,-6 5,-8 12,-4 6,4 8,3 5,-3 -4,-6 -1,-16 7,-22 8,-7 12,-22 9,-34 -4,-19 -3,-20 9,-7 17,19 38,23 40,8 1,-14 5,-30 7,-38 1,-3 4,-20 6,-39 1,-18 7,-36 13,-40 5,-3 12,-15 14,-26 2,-11 10,-20 19,-19 10,1 15,-11 17,-35 1,-20 5,-56 8,-81 9,-82 5,-124 -16,-173 -23,-51 -32,-54 -36,-12 -1,14 -12,37 -23,51 -12,15 -21,33 -21,40 0,8 -4,14 -10,14 -5,0 -10,10 -10,23 0,40 -30,139 -51,168 -22,32 -46,30 -29,-2 13,-24 -2,-25 -23,-1 -11,12 -13,22 -7,28 6,6 4,19 -5,37 -7,15 -11,27 -7,27 4,0 0,5 -8,10 -8,5 -10,10 -4,10 7,0 11,11 10,25 0,14 -5,25 -10,25 -5,0 -6,3 -3,7 4,3 3,11 -2,17 -4,6 -11,25 -14,43 -6,29 -4,31 16,26 12,-3 32,-6 45,-7 z m 2050,0 c 12,0 22,-5 22,-9 0,-5 5,-5 10,-2 6,3 10,1 10,-5 0,-6 5,-8 12,-4 6,4 8,3 5,-3 -4,-6 -1,-16 7,-22 8,-7 12,-22 9,-34 -4,-19 -3,-20 9,-7 17,19 38,23 39,8 1,-14 5,-30 8,-38 1,-3 4,-20 6,-39 1,-18 7,-36 13,-40 5,-3 12,-15 14,-26 2,-11 10,-20 19,-19 10,1 15,-11 17,-35 1,-20 5,-56 8,-81 9,-82 5,-124 -16,-173 -22,-49 -38,-56 -35,-15 1,13 -9,36 -22,51 -12,16 -23,35 -23,43 0,8 -4,14 -10,14 -5,0 -10,10 -10,23 0,40 -30,139 -51,168 -26,37 -47,28 -23,-9 l 18,-27 -25,16 c -13,9 -24,27 -25,41 -1,13 -6,34 -13,46 -6,12 -8,22 -4,22 4,0 1,5 -7,10 -11,7 -12,10 -2,10 9,0 11,7 7,21 -4,12 -8,27 -10,33 -1,6 -5,18 -8,26 -3,8 -8,27 -11,42 -5,24 -4,26 16,21 13,-3 33,-6 46,-7 z m 2050,0 c 12,0 22,-5 22,-9 0,-5 5,-5 10,-2 6,3 10,1 10,-5 0,-6 5,-8 12,-4 6,4 8,3 5,-3 -4,-6 -1,-16 7,-22 8,-7 12,-22 9,-34 -4,-19 -3,-20 9,-7 17,19 38,23 39,8 1,-14 5,-30 8,-38 1,-3 4,-20 6,-39 1,-18 7,-36 13,-40 5,-3 12,-15 14,-26 2,-11 10,-20 19,-19 14,1 18,-18 20,-106 1,-19 7,-47 15,-61 7,-15 11,-29 7,-32 -3,-4 -15,-35 -27,-69 -22,-64 -38,-80 -41,-43 -4,34 -9,48 -27,67 -10,10 -18,25 -18,33 0,8 -4,15 -10,15 -5,0 -10,10 -10,23 0,40 -30,139 -51,168 -25,36 -47,28 -24,-8 18,-27 7,-25 -27,5 -12,10 -15,19 -8,27 6,7 4,20 -4,37 -8,15 -12,29 -8,32 3,3 -1,6 -9,6 -12,0 -11,2 1,11 12,8 12,12 2,16 -10,4 -10,8 -1,19 9,11 8,14 -1,14 -8,0 -10,3 -7,7 4,3 3,11 -2,17 -4,6 -11,25 -14,43 -6,29 -4,31 16,26 12,-3 32,-6 45,-7 z m -3311,-88 c -9,-7 -28,-42 -42,-77 -25,-64 -28,-93 -4,-49 6,12 18,26 24,30 7,4 21,30 31,58 15,42 22,50 43,50 h 25 l -27,-27 c -33,-36 -57,-93 -57,-138 0,-43 -15,-75 -35,-75 -8,0 -15,-4 -15,-9 0,-15 -53,-71 -67,-71 -7,0 -13,-6 -13,-13 0,-20 -34,-44 -76,-51 -21,-4 -48,-16 -59,-26 -11,-10 -24,-20 -30,-21 -36,-8 -45,-13 -50,-30 -4,-10 -12,-25 -18,-31 -31,-33 -70,-104 -80,-149 -6,-27 -15,-49 -20,-49 -4,0 -24,8 -45,19 -20,10 -50,21 -66,25 -28,7 -29,8 -23,60 3,29 15,70 26,92 12,21 21,46 21,54 0,11 2,12 8,2 6,-9 12,-5 22,15 8,16 23,41 33,56 11,16 30,50 43,75 21,42 23,43 17,15 -5,-32 -5,-32 21,-20 15,7 29,22 32,34 4,13 10,21 14,18 5,-3 15,4 23,15 7,11 17,17 20,14 12,-13 -24,-77 -73,-131 -57,-62 -94,-128 -104,-187 -7,-34 -5,-38 7,-28 7,6 19,31 26,54 24,78 140,221 228,280 97,65 136,87 144,82 4,-2 23,30 43,71 24,50 41,75 53,75 16,0 16,-1 0,-12 z m 2050,0 c -17,-13 -71,-138 -62,-146 2,-3 10,7 16,22 7,14 16,26 21,26 4,0 19,25 33,55 19,43 29,55 46,55 23,0 23,0 -4,-27 -33,-36 -57,-93 -57,-138 0,-43 -15,-75 -35,-75 -8,0 -15,-4 -15,-9 0,-15 -54,-71 -68,-71 -8,0 -12,-6 -9,-14 4,-9 -2,-17 -14,-21 -10,-4 -19,-10 -19,-15 0,-4 -20,-11 -44,-14 -24,-4 -52,-16 -61,-26 -10,-11 -21,-17 -25,-15 -4,3 -13,-2 -20,-10 -7,-8 -16,-13 -20,-10 -5,3 -11,-4 -15,-15 -3,-11 -12,-26 -20,-33 -30,-31 -75,-115 -81,-155 -7,-47 -12,-49 -57,-25 -18,9 -45,19 -62,23 -29,6 -30,8 -29,61 1,34 9,68 23,94 11,22 21,47 21,55 0,11 2,12 8,2 6,-9 12,-5 22,15 8,16 23,41 35,57 11,16 30,50 42,75 19,41 21,42 16,14 -5,-32 -5,-32 21,-20 15,7 29,22 32,34 4,13 10,20 15,17 5,-3 18,10 29,28 l 21,33 -6,-34 c -8,-47 -20,-68 -77,-130 -55,-60 -92,-127 -102,-185 -7,-34 -5,-38 7,-28 7,6 19,31 26,54 25,80 132,213 224,276 99,68 140,91 149,86 5,-3 24,29 43,70 23,52 40,76 52,76 16,0 16,-1 0,-12 z m 2050,0 c -17,-14 -72,-137 -63,-145 2,-3 10,6 17,19 6,12 18,26 24,30 7,4 21,30 31,58 15,42 22,50 43,50 h 25 l -27,-27 c -33,-36 -57,-93 -57,-138 0,-43 -15,-75 -35,-75 -8,0 -15,-4 -15,-9 0,-15 -54,-71 -68,-71 -8,0 -12,-6 -9,-13 6,-16 -39,-41 -100,-57 -24,-6 -43,-15 -43,-19 0,-5 -11,-12 -25,-15 -14,-4 -25,-11 -25,-17 0,-6 -4,-8 -9,-4 -5,3 -12,-4 -16,-15 -3,-11 -12,-26 -18,-32 -30,-32 -68,-102 -79,-145 -7,-27 -13,-49 -14,-51 -1,-2 -19,4 -40,14 -22,9 -52,19 -69,23 -29,7 -30,9 -29,62 1,57 33,133 66,157 10,7 18,18 18,23 0,6 11,25 24,42 14,18 34,53 45,77 17,39 19,41 14,13 -5,-32 -5,-32 21,-20 15,7 29,22 32,34 4,13 10,20 15,17 5,-3 18,10 29,28 l 21,33 -6,-34 c -8,-45 -17,-60 -76,-128 -57,-65 -94,-131 -105,-187 -9,-53 9,-40 32,22 34,91 143,225 231,284 99,66 136,87 145,82 4,-3 23,29 42,71 24,51 41,75 53,75 16,0 16,-1 0,-12 z M 1726,1000 c 9,0 13,-4 9,-10 -3,-5 -12,-7 -20,-4 -25,10 -38,-42 -20,-79 15,-30 15,-30 -5,-12 -11,10 -20,13 -20,7 0,-6 5,-14 10,-17 6,-3 10,-13 10,-22 0,-9 8,-22 18,-29 16,-13 16,-14 -2,-8 -15,6 -17,3 -11,-14 5,-19 3,-22 -24,-22 -39,0 -81,-16 -109,-43 l -23,-21 -42,42 c -28,28 -52,67 -73,119 -33,81 -35,103 -7,64 13,-20 22,-22 55,-18 28,4 41,1 45,-9 9,-24 23,-16 23,14 0,22 7,30 41,45 22,10 44,15 49,12 4,-3 19,-1 32,4 12,6 29,8 36,5 8,-2 20,-4 28,-4 z m 2041,4 c 13,-4 20,-10 17,-16 -3,-5 -11,-5 -19,2 -23,19 -38,-46 -20,-83 15,-30 15,-30 -5,-12 -11,10 -20,13 -20,7 0,-6 5,-14 10,-17 6,-3 10,-13 10,-22 0,-9 8,-22 18,-29 16,-13 16,-14 -2,-8 -15,6 -17,3 -11,-14 5,-19 3,-22 -24,-22 -39,0 -81,-16 -109,-43 l -22,-21 -41,40 c -41,38 -50,54 -90,157 l -21,52 26,-24 c 20,-19 32,-23 61,-18 26,4 38,2 42,-9 9,-24 23,-16 23,14 0,31 29,48 94,56 21,3 41,8 44,11 7,6 12,6 39,-1 z M 1195,987 c 11,3 32,5 47,4 32,0 138,-48 138,-62 0,-5 -13,-3 -30,6 -16,8 -36,15 -45,15 -32,0 -9,-23 42,-42 46,-17 54,-24 69,-64 9,-25 34,-69 55,-99 l 37,-53 -15,-43 c -10,-29 -12,-59 -8,-94 l 7,-50 -31,39 c -20,25 -31,50 -31,70 0,17 -9,45 -19,62 -10,17 -33,62 -50,100 -17,38 -31,64 -31,57 0,-7 -14,1 -31,17 -49,45 -91,46 -74,3 3,-9 -6,-4 -20,11 -25,27 -51,27 -41,0 3,-8 1,-14 -4,-14 -5,0 -12,9 -15,20 -4,11 -11,18 -16,15 -13,-8 -11,0 6,42 8,19 15,44 15,55 0,15 3,18 13,11 6,-6 21,-8 32,-6 z m 2050,0 c 40,9 78,2 133,-24 31,-15 51,-28 45,-30 -7,-3 -21,0 -32,6 -25,14 -51,14 -51,1 0,-6 8,-13 18,-16 71,-23 92,-38 108,-79 8,-23 33,-68 54,-100 37,-56 38,-58 23,-93 -11,-26 -13,-51 -8,-91 l 7,-55 -27,32 c -14,17 -29,48 -32,69 -4,20 -26,76 -50,124 -23,48 -43,93 -43,101 0,11 -2,11 -9,0 -6,-11 -10,-10 -15,4 -3,9 -9,14 -13,10 -3,-3 -13,3 -21,15 -17,25 -58,22 -56,-4 2,-14 -3,-13 -22,8 -24,26 -50,25 -40,-1 3,-8 1,-14 -4,-14 -5,0 -12,9 -15,20 -4,11 -11,18 -16,15 -13,-8 -11,0 6,42 8,19 15,44 15,55 0,15 3,18 13,11 6,-6 21,-8 32,-6 z M 239,956 c 7,-6 19,-11 25,-12 38,-4 59,-22 91,-80 41,-75 46,-115 15,-107 -16,4 -19,2 -14,-13 4,-11 12,-26 18,-34 9,-13 9,-13 -5,-3 -14,11 -16,9 -17,-19 0,-18 7,-42 16,-53 11,-13 7,-12 -11,4 l -27,24 -1,-24 c -4,-58 -17,-101 -30,-93 -10,6 -23,-41 -15,-54 3,-6 -2,-8 -13,-5 -24,6 -36,-13 -21,-32 15,-18 -1,-20 -18,-3 -9,9 -12,7 -12,-9 0,-12 -8,-23 -19,-26 -16,-4 -15,3 11,72 34,89 55,175 52,213 -3,32 -45,158 -67,203 -8,17 -18,40 -21,51 -6,19 -3,21 21,16 16,-2 34,-10 42,-16 z m 1629,4 c 118,-54 205,-159 214,-261 7,-65 -13,-150 -47,-201 -27,-41 -97,-82 -158,-93 -37,-7 -133,10 -142,25 -3,5 12,4 32,-2 50,-14 122,-6 169,19 50,25 121,124 129,179 13,82 -45,215 -108,251 -12,7 -46,12 -74,13 -54,0 -67,12 -41,38 17,17 0,29 -20,14 -40,-29 -64,-33 -83,-16 -21,19 -17,31 15,44 34,14 68,11 114,-10 z m 421,-4 c 7,-6 19,-11 25,-11 36,-3 64,-28 94,-85 38,-74 42,-111 12,-103 -18,5 -19,3 -10,-21 5,-15 6,-25 1,-22 -16,10 -10,-59 7,-79 17,-20 17,-20 -6,-1 -26,22 -33,18 -37,-21 -5,-44 -16,-73 -26,-67 -10,6 -23,-41 -15,-54 3,-6 -2,-8 -13,-5 -24,6 -36,-13 -21,-32 15,-18 -1,-20 -18,-3 -9,9 -12,7 -12,-10 0,-13 -6,-22 -16,-22 -9,0 -12,-5 -8,-12 4,-7 3,-8 -4,-4 -8,5 -5,20 8,51 35,82 61,180 61,227 0,46 -33,160 -64,223 -8,17 -18,40 -21,51 -6,19 -3,21 21,16 16,-2 34,-10 42,-16 z m 1629,4 c 118,-54 205,-159 214,-261 7,-65 -13,-150 -47,-201 -27,-41 -97,-82 -158,-93 -37,-7 -133,10 -142,25 -3,5 9,5 27,-1 76,-21 154,-5 209,43 42,36 88,112 95,155 13,80 -46,215 -109,250 -12,7 -46,12 -74,13 -55,0 -61,6 -43,41 8,15 7,19 -4,19 -8,0 -18,-5 -21,-11 -4,-5 -18,-15 -32,-20 -20,-7 -30,-6 -45,8 -19,17 -19,18 2,35 29,23 74,22 128,-2 z m 421,-3 c 7,-6 18,-12 25,-13 42,-7 64,-27 94,-84 38,-74 42,-111 12,-103 -16,4 -19,2 -14,-13 4,-11 12,-26 18,-34 9,-13 9,-13 -5,-3 -14,11 -16,9 -17,-19 0,-18 7,-42 16,-53 11,-13 7,-12 -11,4 l -27,24 -2,-24 c -1,-13 -2,-32 -3,-41 0,-9 -11,-30 -23,-45 -13,-16 -21,-37 -19,-49 3,-16 0,-20 -14,-17 -22,6 -34,-14 -19,-32 15,-18 -1,-20 -18,-3 -9,9 -12,7 -12,-10 0,-13 -6,-22 -16,-22 -9,0 -12,-5 -8,-12 4,-7 3,-8 -4,-4 -8,5 -5,22 10,59 39,98 59,172 59,219 0,46 -34,166 -64,225 -8,15 -17,38 -21,49 -6,19 -3,21 21,16 16,-2 34,-10 42,-15 z M 1202,758 c 36,-11 38,-13 33,-42 -12,-56 -16,-66 -31,-66 -9,0 -30,-11 -48,-25 -32,-24 -33,-25 -50,-6 -22,24 -106,57 -115,44 -3,-5 -14,-12 -24,-16 -25,-9 -9,18 37,63 61,58 118,72 198,48 z m 2050,0 c 36,-11 38,-13 33,-42 -12,-57 -16,-66 -33,-66 -9,-1 -30,-12 -46,-25 l -30,-24 -29,25 c -16,13 -35,24 -43,24 -8,0 -23,6 -34,13 -15,8 -23,9 -28,1 -4,-6 -15,-13 -25,-17 -25,-9 -9,18 37,63 61,58 118,72 198,48 z m 2050,0 c 36,-11 38,-13 33,-42 -12,-57 -16,-66 -33,-66 -9,0 -28,-12 -43,-26 l -27,-26 -34,24 c -45,33 -98,54 -106,41 -4,-5 -15,-12 -25,-16 -25,-9 -9,18 37,63 61,58 118,72 198,48 z M 915,703 c -14,-32 -17,-81 -7,-100 8,-13 22,-18 56,-18 25,0 46,4 46,9 0,4 6,6 14,3 8,-3 20,1 27,9 10,13 16,11 41,-12 28,-27 42,-94 17,-78 -8,5 -10,-3 -7,-26 l 5,-32 -19,23 c -17,20 -19,21 -13,4 3,-11 3,-16 0,-13 -4,4 -18,3 -31,-2 -15,-6 -24,-6 -24,0 0,6 -4,10 -9,10 -5,0 -8,-15 -6,-33 4,-37 -20,-48 -31,-15 -7,22 -30,18 -28,-5 1,-9 -4,-13 -12,-10 -8,3 -14,9 -14,13 0,8 -48,25 -62,22 -4,-1 -10,9 -14,23 -3,14 -11,25 -18,25 -26,1 -56,48 -56,90 0,46 3,50 79,101 52,33 77,38 66,12 z m 2050,0 c -14,-32 -17,-81 -7,-100 8,-13 23,-18 56,-18 25,0 46,3 46,8 0,5 6,7 14,4 8,-3 20,1 27,9 10,13 16,11 41,-12 28,-27 42,-94 17,-78 -8,5 -10,-3 -7,-26 l 5,-32 -19,23 c -17,20 -19,21 -13,4 3,-11 3,-16 0,-13 -4,4 -18,3 -30,-2 -16,-6 -25,-5 -28,3 -2,7 -7,9 -11,5 -4,-3 -3,-16 4,-27 8,-15 8,-21 0,-21 -6,0 -9,-4 -6,-8 3,-5 -1,-9 -9,-9 -7,0 -19,12 -25,26 -10,23 -13,24 -21,8 -6,-9 -7,-22 -4,-27 3,-6 -1,-7 -9,-4 -9,3 -16,10 -16,14 0,8 -48,25 -62,22 -4,-1 -10,9 -14,23 -3,14 -11,25 -18,25 -27,1 -56,48 -56,91 1,40 5,47 43,76 65,49 115,66 102,36 z m 2045,-9 c -6,-14 -10,-38 -10,-52 0,-36 28,-76 43,-64 7,5 24,8 40,7 15,-1 27,2 27,7 0,5 6,8 13,5 6,-2 19,2 28,10 14,12 20,9 47,-21 20,-23 29,-42 25,-55 -3,-12 -10,-18 -15,-14 -7,4 -9,-6 -6,-27 l 5,-32 -19,23 c -17,20 -19,21 -13,4 3,-11 3,-16 0,-13 -4,4 -18,3 -30,-2 -16,-6 -25,-5 -28,3 -2,7 -7,9 -11,5 -4,-3 -3,-16 4,-27 8,-15 8,-21 0,-21 -6,0 -9,-4 -6,-8 3,-5 -1,-9 -9,-9 -8,0 -17,9 -21,19 -7,22 -30,18 -28,-5 1,-9 -4,-13 -12,-10 -8,3 -14,9 -14,13 0,8 -49,25 -62,22 -5,-1 -8,4 -8,11 0,7 -18,29 -40,47 -36,30 -40,38 -40,78 0,48 3,52 79,103 57,37 74,38 61,3 z M 1979,598 c 20,-43 22,-53 10,-62 -8,-6 -19,-20 -25,-31 -6,-11 -26,-28 -45,-38 -29,-15 -34,-15 -37,-2 -5,22 -22,18 -22,-5 0,-29 -27,-25 -32,5 -3,16 2,33 13,46 10,11 15,27 12,35 -3,8 1,14 11,14 9,0 22,11 28,25 6,14 16,25 22,25 6,0 4,5 -4,10 -13,8 -12,10 3,10 10,0 15,5 12,10 -3,6 2,10 12,10 12,-1 26,-19 42,-52 z m 2045,9 c 11,-23 21,-45 23,-48 2,-4 -2,-13 -9,-21 -7,-8 -18,-23 -24,-33 -6,-11 -26,-28 -45,-38 -29,-15 -34,-15 -37,-2 -5,22 -22,18 -22,-5 0,-13 -7,-20 -18,-20 -23,0 -22,52 3,76 9,9 14,23 11,30 -3,8 0,14 7,14 15,0 48,36 40,44 -4,3 0,6 8,7 8,1 3,5 -11,9 l -25,8 28,1 c 16,1 26,5 22,11 -3,6 2,10 12,10 11,0 25,-16 37,-43 z M 1368,560 c 6,0 12,-7 12,-15 0,-8 6,-12 13,-10 6,3 20,-8 29,-25 9,-16 24,-30 32,-30 17,0 39,-34 29,-44 -4,-3 -15,1 -25,11 -22,19 -23,7 -4,-38 16,-38 51,-73 110,-113 21,-14 33,-26 26,-26 -9,0 -8,-5 3,-18 10,-10 17,-24 17,-31 0,-8 18,-31 41,-53 24,-24 34,-38 23,-35 -11,3 -48,11 -84,17 -63,11 -105,34 -94,51 3,5 -6,9 -20,9 -14,0 -26,4 -26,9 0,5 -9,13 -20,16 -11,4 -18,11 -15,16 4,5 -1,9 -10,9 -9,0 -18,12 -21,30 -4,17 -15,32 -25,35 -11,4 -17,11 -13,16 5,9 -11,27 -67,73 -15,13 -19,21 -11,24 7,2 10,8 6,13 -3,5 3,9 13,10 14,0 14,2 -4,9 -15,6 -23,18 -24,35 -1,14 -2,31 -3,38 -1,6 1,17 5,22 12,18 6,45 -10,46 -9,1 -2,5 14,9 26,6 34,3 60,-26 17,-19 36,-34 43,-34 z m 2050,0 c 6,0 12,-7 12,-16 0,-8 4,-13 9,-9 5,3 19,-8 31,-25 12,-16 28,-30 35,-30 17,0 38,-36 30,-50 -4,-6 -15,-1 -25,12 -23,27 -25,13 -6,-33 16,-38 51,-73 110,-113 21,-14 33,-26 27,-26 -8,0 -7,-5 3,-16 9,-8 16,-22 16,-31 0,-8 18,-33 41,-55 24,-24 33,-38 23,-34 -11,3 -48,10 -84,15 -49,8 -70,17 -87,36 -12,14 -29,25 -38,25 -8,0 -15,4 -15,9 0,5 -9,13 -20,16 -11,4 -18,11 -15,16 4,5 1,9 -5,9 -18,0 -37,24 -34,42 1,10 -6,20 -16,23 -11,4 -17,12 -13,21 3,9 -1,14 -12,14 -9,0 -14,4 -10,9 3,5 -8,18 -25,27 -30,18 -47,44 -29,44 6,0 7,5 4,10 -3,6 2,10 12,11 14,0 14,2 -4,9 -21,9 -30,39 -23,75 9,49 7,65 -8,66 -9,1 -3,5 13,9 26,6 34,3 60,-26 17,-19 36,-34 43,-34 z M 1250,380 c 11,-27 11,-32 -5,-44 -21,-15 -25,-78 -7,-84 14,-4 16,-58 3,-67 -20,-12 -201,96 -201,120 0,15 30,28 69,30 25,1 61,37 61,61 0,9 12,14 34,14 28,0 36,-5 46,-30 z m 2051,-2 c 10,-25 10,-33 0,-36 -24,-8 -32,-52 -16,-85 17,-34 19,-63 6,-72 -20,-12 -201,96 -201,120 0,15 30,28 69,30 25,1 61,37 61,61 0,9 12,14 34,14 28,0 36,-5 47,-32 z m 2048,6 c 10,-22 9,-30 -5,-45 -20,-22 -23,-81 -6,-87 14,-4 16,-58 3,-67 -19,-11 -201,97 -201,120 0,15 30,28 69,30 25,1 61,37 61,61 0,9 12,14 33,14 27,0 36,-6 46,-26 z M 223,362 c 3,-4 -1,-25 -9,-47 -18,-53 -18,-71 5,-94 16,-16 17,-21 4,-45 -11,-20 -21,-26 -48,-26 -26,0 -35,4 -35,17 0,25 -30,53 -56,53 -34,0 -74,18 -74,33 0,7 15,21 33,31 17,9 59,33 92,51 61,35 80,41 88,27 z m 2050,0 c 3,-4 -1,-25 -9,-47 -19,-54 -18,-71 6,-95 19,-19 19,-22 4,-45 -20,-31 -84,-37 -84,-8 0,25 -30,53 -56,53 -34,0 -74,18 -74,33 0,7 15,21 33,31 17,9 59,33 92,51 61,35 80,41 88,27 z m 2050,0 c 3,-4 -1,-25 -9,-47 -18,-53 -18,-71 5,-94 16,-16 17,-21 4,-45 -11,-20 -21,-26 -48,-26 -26,0 -35,4 -35,17 0,27 -31,53 -62,53 -33,0 -68,16 -68,30 0,11 60,52 135,92 53,28 71,33 78,20 z"
       id="path4"
       inkscape:connector-curvature="0"
       style="stroke-width:1.24080896" />
    <path
       d="M 1,827 C 0,812 7,789 15,776 37,744 37,618 16,561 7,537 0,494 1,466 c 1,-47 1,-49 12,-25 8,16 19,25 30,23 13,-2 20,6 25,29 3,18 5,35 4,40 -1,4 2,7 8,7 5,0 6,7 3,17 -4,10 -2,14 4,10 7,-5 6,14 -3,50 -9,32 -20,81 -25,108 -6,28 -17,57 -24,65 -8,9 -18,27 -24,40 L 1,855 Z"
       id="path6"
       inkscape:connector-curvature="0"
       style="stroke-width:1.24080896" />
  </g>
</svg>
