<?xml version="1.0" encoding="UTF-8" standalone="no"?>
<!-- Created with Inkscape (http://www.inkscape.org/) -->

<svg
   xmlns:dc="http://purl.org/dc/elements/1.1/"
   xmlns:cc="http://creativecommons.org/ns#"
   xmlns:rdf="http://www.w3.org/1999/02/22-rdf-syntax-ns#"
   xmlns:svg="http://www.w3.org/2000/svg"
   xmlns="http://www.w3.org/2000/svg"
   xmlns:sodipodi="http://sodipodi.sourceforge.net/DTD/sodipodi-0.dtd"
   xmlns:inkscape="http://www.inkscape.org/namespaces/inkscape"
   width="374.06409"
   height="206.18872"
   id="svg2"
   version="1.1"
   inkscape:version="0.92.2 5c3e80d, 2017-08-06"
   sodipodi:docname="blood.svg">
  <defs
     id="defs4">
    <inkscape:perspective
       sodipodi:type="inkscape:persp3d"
       inkscape:vp_x="0 : 526.18109 : 1"
       inkscape:vp_y="0 : 1000 : 0"
       inkscape:vp_z="744.09448 : 526.18109 : 1"
       inkscape:persp3d-origin="372.04724 : 350.78739 : 1"
       id="perspective2985" />
  </defs>
  <sodipodi:namedview
     id="base"
     pagecolor="#ffffff"
     bordercolor="#666666"
     borderopacity="1.0"
     inkscape:pageopacity="0.0"
     inkscape:pageshadow="2"
     inkscape:zoom="1.4"
     inkscape:cx="188.19399"
     inkscape:cy="94.185001"
     inkscape:document-units="mm"
     inkscape:current-layer="layer1"
     showgrid="false"
     inkscape:object-nodes="true"
     inkscape:window-width="1440"
     inkscape:window-height="766"
     inkscape:window-x="0"
     inkscape:window-y="1"
     inkscape:window-maximized="1"
     showguides="false"
     inkscape:guide-bbox="true"
     units="mm"
     fit-margin-top="0"
     fit-margin-left="0"
     fit-margin-right="0"
     fit-margin-bottom="0" />
  <metadata
     id="metadata7">
    <rdf:RDF>
      <cc:Work
         rdf:about="">
        <dc:format>image/svg+xml</dc:format>
        <dc:type
           rdf:resource="http://purl.org/dc/dcmitype/StillImage" />
        <dc:title />
      </cc:Work>
    </rdf:RDF>
  </metadata>
  <g
     inkscape:label="Layer 1"
     inkscape:groupmode="layer"
     id="layer1"
     transform="translate(-74.383562,-648.73729)">
    <path
       inkscape:connector-curvature="0"
       id="path3908"
       d="M 448.01166,751.83168 261.41559,649.17332 74.819547,751.83164 261.41562,854.48999 Z"
       style="fill:#ffcc00;stroke:#000000;stroke-width:0.87206465px;stroke-linecap:round;stroke-linejoin:round;stroke-opacity:1" />
    <path
       style="fill:#ffcc00;stroke-width:0.44045925"
       d="m 155.09113,707.43878 c 0.15592,-0.23262 0.48991,-0.42294 0.74219,-0.42294 0.25229,0 0.33113,0.19032 0.17522,0.42294 -0.15593,0.23262 -0.48992,0.42294 -0.7422,0.42294 -0.25229,0 -0.33113,-0.19032 -0.17521,-0.42294 z"
       id="path275"
       inkscape:connector-curvature="0" />
    <path
       style="fill:#ffcc00;stroke-width:0.50507629"
       d=""
       id="path277"
       inkscape:connector-curvature="0"
       transform="translate(53.643411,569.625)" />
    <path
       style="fill:#ffcc00;stroke-width:0.50507629"
       d=""
       id="path279"
       inkscape:connector-curvature="0"
       transform="translate(53.643411,569.625)" />
    <path
       style="fill:#ff6600;stroke-width:0.44045925"
       d="m 168.78979,802.87995 c -50.76907,-27.95144 -92.310277,-50.91642 -92.313799,-51.03328 -0.01043,-0.346 184.498889,-101.72048 185.053779,-101.67362 0.93318,0.0788 184.68749,101.36977 184.55494,101.7323 -0.12484,0.34143 -183.57984,101.42422 -184.52882,101.67446 -0.2523,0.0665 -41.99704,-22.74842 -92.7661,-50.69986 z"
       id="path12"
       inkscape:connector-curvature="0" />
    <path
       style="fill:#ff0000;stroke-width:0.62290341"
       d="m 259.81371,852.482 c -3.98136,-1.91549 -102.01833,-55.71984 -157.73459,-86.5674 -13.647092,-7.55577 -24.812887,-13.90894 -24.812887,-14.11817 0,-0.4603 138.068627,-76.58668 175.685637,-96.86712 l 8.64468,-4.6606 5.62678,3.0504 c 48.73686,26.42129 177.85736,97.96757 177.85736,98.5516 0,0.51147 -39.39109,22.4252 -120.65871,67.12386 -68.53668,37.69642 -62.43421,34.53342 -64.60827,33.48743 z"
       id="path166"
       inkscape:connector-curvature="0" />
  </g>
</svg>
