<?xml version="1.0" encoding="UTF-8" standalone="no"?>
<!-- Created with Inkscape (http://www.inkscape.org/) -->

<svg
   xmlns:dc="http://purl.org/dc/elements/1.1/"
   xmlns:cc="http://creativecommons.org/ns#"
   xmlns:rdf="http://www.w3.org/1999/02/22-rdf-syntax-ns#"
   xmlns:svg="http://www.w3.org/2000/svg"
   xmlns="http://www.w3.org/2000/svg"
   xmlns:sodipodi="http://sodipodi.sourceforge.net/DTD/sodipodi-0.dtd"
   xmlns:inkscape="http://www.inkscape.org/namespaces/inkscape"
   width="365.45422"
   height="215.88414"
   id="svg2"
   version="1.1"
   inkscape:version="0.92.2 5c3e80d, 2017-08-06"
   sodipodi:docname="boat.svg">
  <defs
     id="defs4">
    <inkscape:perspective
       sodipodi:type="inkscape:persp3d"
       inkscape:vp_x="0 : 526.18109 : 1"
       inkscape:vp_y="0 : 1000 : 0"
       inkscape:vp_z="744.09448 : 526.18109 : 1"
       inkscape:persp3d-origin="372.04724 : 350.78739 : 1"
       id="perspective2985" />
  </defs>
  <sodipodi:namedview
     id="base"
     pagecolor="#ffffff"
     bordercolor="#666666"
     borderopacity="1.0"
     inkscape:pageopacity="0.0"
     inkscape:pageshadow="2"
     inkscape:zoom="0.9899495"
     inkscape:cx="190.60925"
     inkscape:cy="100.04376"
     inkscape:document-units="mm"
     inkscape:current-layer="layer1"
     showgrid="false"
     inkscape:object-nodes="true"
     inkscape:window-width="1440"
     inkscape:window-height="766"
     inkscape:window-x="0"
     inkscape:window-y="1"
     inkscape:window-maximized="1"
     showguides="false"
     inkscape:guide-bbox="true"
     units="mm"
     fit-margin-top="0"
     fit-margin-left="0"
     fit-margin-right="0"
     fit-margin-bottom="0" />
  <metadata
     id="metadata7">
    <rdf:RDF>
      <cc:Work
         rdf:about="">
        <dc:format>image/svg+xml</dc:format>
        <dc:type
           rdf:resource="http://purl.org/dc/dcmitype/StillImage" />
        <dc:title />
      </cc:Work>
    </rdf:RDF>
  </metadata>
  <g
     inkscape:label="Layer 1"
     inkscape:groupmode="layer"
     id="layer1"
     transform="translate(-62.954985,-648.7373)">
    <path
       inkscape:connector-curvature="0"
       id="path3908"
       d="M 427.96823,756.67939 245.68207,649.17831 63.395958,756.67935 245.68212,864.18044 Z"
       style="fill:#ffcc00;stroke:#000000;stroke-width:0.88203043px;stroke-linecap:round;stroke-linejoin:round;stroke-opacity:1" />
    <path
       style="fill:#ffcc00;stroke-width:0.44549268"
       d="m 141.81346,710.19234 c 0.15232,-0.2436 0.47859,-0.4429 0.72505,-0.4429 0.24646,0 0.32348,0.1993 0.17117,0.4429 -0.15232,0.24359 -0.4786,0.44289 -0.72506,0.44289 -0.24646,0 -0.32348,-0.1993 -0.17116,-0.44289 z"
       id="path275"
       inkscape:connector-curvature="0" />
    <path
       style="fill:#ffcc00;stroke-width:0.50507629"
       d=""
       id="path277"
       inkscape:connector-curvature="0"
       transform="translate(53.643411,569.625)" />
    <path
       style="fill:#ffcc00;stroke-width:0.50507629"
       d=""
       id="path279"
       inkscape:connector-curvature="0"
       transform="translate(53.643411,569.625)" />
    <path
       style="fill:#c87137;stroke-width:0.88203049"
       id="path12"
       d="m 304.36189,769.10628 c -2.35156,-0.0574 -4.70431,-0.0702 -7.05654,-0.0772 -3.79542,-0.12288 -7.57685,0.21033 -11.35984,0.45126 -3.8163,0.16014 -7.62275,0.47167 -11.43536,0.694 -2.25008,0.13869 -4.50442,0.19584 -6.75818,0.23716 -1.65493,-0.0243 -3.29987,-0.25108 -4.95362,-0.34777 -3.50105,-0.18869 -7.00481,-0.13952 -10.50832,-0.0797 -5.87637,0.12426 -11.75358,0.2187 -17.63105,0.27207 -4.03865,-0.0421 -8.08924,0.27245 -12.11818,-0.084 -2.1863,-0.45065 -4.05234,-1.15436 -6.30246,-1.2816 -2.69112,0.0459 -5.27628,0.88656 -7.87394,1.49477 -2.30624,0.5744 -4.61969,1.1297 -6.96337,1.53536 -1.39597,0.12954 -2.76633,0.41561 -4.15806,0.58003 -0.89753,0.10552 -1.80348,0.14992 -2.70726,0.15178 -0.82253,-9e-5 -1.64509,0.004 -2.46754,-0.008 -1.45725,-0.0161 -2.91459,-0.0142 -4.37181,-0.0321 -2.04159,-0.0792 -4.07311,0.12264 -6.10417,0.29387 -1.10683,0.0823 -2.21513,0.13566 -3.32316,0.19664 -0.46878,0.01 -0.93745,-4.4e-4 -1.40629,-5.2e-4 -0.64282,-0.0635 -1.22271,0.20394 -1.85211,0.31252 -0.10028,0.0174 -0.20627,0.0148 -0.30083,0.0521 -0.0787,0.031 -0.12942,0.11121 -0.20579,0.14752 -0.3465,0.16478 -0.75507,0.19979 -1.11695,0.32046 -0.37412,0.0575 -0.74091,0.0616 -1.1176,0.0723 -0.31394,-0.015 -0.62856,-0.0117 -0.94292,-0.0147 -0.34435,-0.008 -0.68877,0.005 -1.03306,-0.003 -2.37018,0.0274 -1.57026,0.72683 5.42817,-3.10801 0.0751,-0.0412 -0.16802,0.0826 -0.19926,0.1618 -0.0425,0.21982 -0.0488,0.2109 0.0875,0.37063 0.23321,0.094 0.40777,0.44416 0.61479,0.63881 0.24986,0.30014 0.35253,0.68792 0.54973,1.0193 0.2457,0.35223 0.54563,0.6624 0.73504,1.04729 0.18267,0.31414 0.24321,0.66967 0.37419,1.00458 0.21644,0.55178 0.47176,1.08643 0.76294,1.60596 0.35133,0.64529 0.5622,1.36187 0.92949,1.99898 0.19584,0.47998 0.54214,0.86625 0.76892,1.3287 0.0894,0.3577 0.35497,0.59888 0.48273,0.94241 0.24314,0.30911 0.49877,0.60111 0.69245,0.94578 0.16078,0.44903 0.39233,0.88682 0.65161,1.28878 0.31142,0.31029 0.41978,0.70379 0.52565,1.11118 0.18346,-0.0212 0.22295,0.33604 0.29555,0.43152 0.0135,0.0177 0.0428,-0.0409 0.0612,-0.028 0.12566,0.0878 0.21897,0.30449 0.28374,0.42527 0.27837,0.2863 0.49399,0.62531 0.70987,0.96709 0.21262,0.37684 0.51302,0.67965 0.68544,1.0746 0.34959,0.68212 0.87859,1.22136 1.28798,1.86442 0.46349,0.53455 0.87958,1.11141 1.3602,1.63391 0.3762,0.39931 0.75614,0.79258 1.24922,1.05575 0.72754,0.43759 1.20509,1.18264 1.90872,1.63765 0.60388,0.39648 1.1043,0.92746 1.68563,1.34743 0.65912,0.58071 1.25837,1.22154 1.90429,1.81795 0.60892,0.62914 1.28313,1.18127 2.01375,1.66768 0.46167,0.47843 1.06608,0.75968 1.67083,1.02294 0.29636,0.0508 0.51965,0.27168 0.79754,0.36204 0.15387,0.0501 0.32291,0.0386 0.47874,0.0823 0.67311,0.18872 1.28941,0.48673 1.97277,0.65817 1.72594,0.65653 3.55491,0.9881 5.33446,1.47455 2.64464,0.54775 5.3023,0.98814 7.98921,1.27029 2.70686,0.24739 5.42751,0.27124 8.14374,0.2946 2.66671,8.7e-4 5.33345,0.005 8.00012,-0.008 2.31024,0.003 4.62037,-0.0128 6.93056,-0.0253 1.20431,-8.8e-4 2.40817,-0.0309 3.61246,-0.0321 1.98847,0.10899 3.95046,-0.21359 5.91693,-0.44063 2.87036,-0.298 5.72233,-0.63897 8.60738,-0.77118 2.12567,-0.079 4.2533,-0.10517 6.38037,-0.10702 0.49674,-0.11164 1.06666,-0.0929 1.55331,-0.25921 0.10736,-0.0367 0.18414,-0.13844 0.29199,-0.17372 0.16668,-0.0545 0.68934,-0.0391 0.82621,-0.0394 0.22332,0.003 0.4471,0.0225 0.66999,0.009 1.28248,-0.081 2.5709,-0.28305 3.84648,-0.42949 2.87648,-0.33022 0.60787,-0.0169 3.62044,-0.46881 4.09489,-0.55257 8.1905,-1.10253 12.2757,-1.72503 2.56468,-0.43671 5.16196,-0.72331 7.69111,-1.33935 1.17721,-0.36614 2.40219,-0.36392 3.61514,-0.49934 1.70935,-0.28577 3.30157,-0.94497 4.80026,-1.78619 0.24048,-0.14028 0.96405,-0.55744 0.72143,-0.42083 -10.54277,5.93615 -5.61374,3.46784 -4.24955,2.27974 0.60323,-0.52537 1.0863,-1.17337 1.5961,-1.78282 0.84566,-1.18118 1.53209,-2.48928 2.12056,-3.81516 0.50678,-1.14038 0.9523,-2.30663 1.48802,-3.4346 0.37032,-0.90998 0.84905,-1.77008 1.22427,-2.67801 0.28495,-0.82492 0.60289,-1.62623 0.80408,-2.47556 0.24244,-0.72087 0.36885,-1.45901 0.44389,-2.21222 0.14616,-0.89437 0.32073,-1.78049 0.41143,-2.68356 0.057,-0.716 0.0739,-1.4334 0.0794,-2.15125 8.9e-4,-0.6803 0.007,-1.36051 -0.004,-2.04084 0.008,-0.60538 -0.0114,-1.21085 -0.002,-1.81625 0.0142,-0.63564 -0.008,-1.27151 -0.002,-1.90697 -0.0153,-0.42449 0.003,-0.84863 -0.0141,-1.27309 0.01,-0.42842 0.008,-0.8567 0.008,-1.28513 -0.0398,-0.30378 0.16053,-0.72908 -0.19185,-0.82764 -0.10323,-0.0309 -0.20647,-0.0616 -0.3097,-0.0925 0,0 5.51942,-3.64859 5.51942,-3.64859 v 0 c 0.1316,0.0641 0.2632,0.12818 0.3948,0.19226 0.58757,0.49411 0.56202,0.69184 0.53292,1.3823 -2.1e-4,0.42585 -0.002,0.85156 0.008,1.27738 -0.0161,0.4292 7.1e-4,0.85807 -0.0141,1.2873 0.006,0.6359 -0.0159,1.27221 -0.002,1.90826 0.0102,0.60516 -0.009,1.21044 8.9e-4,1.81558 -0.008,0.68308 0.002,1.36605 -8.9e-4,2.04905 -0.004,0.73787 -0.002,1.47699 -0.079,2.21173 -0.0722,0.89615 -0.16978,1.79639 -0.40603,2.66687 -0.0344,0.79126 -0.11631,1.5812 -0.38709,2.33168 -0.14355,0.43475 -0.15226,0.91016 -0.31871,1.33418 -0.15633,0.39819 -0.44782,0.74742 -0.44999,1.20734 -0.23568,0.57922 -0.46756,1.1812 -0.76489,1.7322 -0.0829,0.15363 -0.21032,0.28212 -0.28538,0.43963 -0.0838,0.17582 -0.12503,0.36853 -0.18755,0.55279 -0.54414,1.13191 -1.03527,2.2722 -1.5302,3.42343 -0.57021,1.39172 -1.31045,2.69368 -2.05015,4.00028 -0.60404,0.68619 -1.44583,2.01447 -2.1877,2.46807 -2.0629,1.2613 -4.18488,2.42566 -6.28111,3.63207 -0.24205,0.13929 -0.48907,0.26997 -0.73359,0.40495 -1.56867,0.77666 -3.21975,1.39273 -4.97245,1.60518 -1.19572,0.12457 -2.38773,0.24473 -3.5559,0.54434 -2.49631,0.48548 -5.02743,0.78608 -7.54079,1.17008 -4.0884,0.57145 -8.17839,1.1303 -12.26415,1.71894 -2.79347,0.41515 -5.59796,0.78992 -8.41103,1.04632 -0.87671,0.16528 -1.7333,0.45074 -2.64739,0.3784 -2.08626,-0.009 -4.17325,-0.0291 -6.25847,0.0585 -2.87836,0.14142 -5.72647,0.51244 -8.59034,0.81599 -2.03199,0.2516 -4.06558,0.53162 -6.11937,0.4913 -1.1747,-8.8e-4 -2.34895,-0.0308 -3.52365,-0.0314 -2.29091,-0.0111 -4.58179,-0.0238 -6.87273,-0.0154 -2.66137,-0.006 -5.32279,0.013 -7.98412,-0.0114 -2.73027,-0.022 -5.46502,-0.0636 -8.18282,-0.34833 -2.71386,-0.32194 -5.41609,-0.74378 -8.08891,-1.31282 -1.812,-0.44163 -3.64509,-0.81795 -5.40729,-1.43681 -1.13562,-0.33726 -2.28333,-0.66336 -3.36486,-1.14628 -0.64053,-0.29278 -1.24853,-0.64 -1.75657,-1.1327 -0.70075,-0.55399 -1.42142,-1.08249 -2.02376,-1.74605 -0.64591,-0.58089 -1.23587,-1.22163 -1.9186,-1.76032 -0.53596,-0.47047 -1.09337,-0.91117 -1.66522,-1.33797 -0.62904,-0.5348 -1.16929,-1.17863 -1.90104,-1.58808 -0.48051,-0.36363 -0.9605,-0.72382 -1.32557,-1.20685 -0.49771,-0.55282 -0.93451,-1.15837 -1.40427,-1.7346 -0.43641,-0.67086 -0.98537,-1.25648 -1.38626,-1.95235 -0.11331,-0.36255 -0.4837,-0.60341 -0.62592,-0.96054 -0.23795,-0.35296 -0.45803,-0.70033 -0.74108,-1.01989 -0.16677,-0.33576 -0.49739,-0.57769 -0.68509,-0.90844 -0.14756,-0.35402 -0.13002,-0.71688 -0.45513,-0.99402 -0.25023,-0.41877 -0.51276,-0.85559 -0.65978,-1.32041 -0.20693,-0.38803 -0.59028,-0.66119 -0.7852,-1.06022 -0.0208,-0.3309 -0.44501,-0.52056 -0.42773,-0.87325 -0.16189,-0.45301 -0.58316,-0.80031 -0.70381,-1.28064 -0.37552,-0.63625 -0.57658,-1.35363 -0.92621,-2.00112 -0.32481,-0.53712 -0.58151,-1.10491 -0.84502,-1.66358 -0.14476,-0.33544 -0.18287,-0.65434 -0.35316,-0.97584 -0.16295,-0.36737 -0.49539,-0.66168 -0.70959,-1.00076 -0.17326,-0.30321 -0.24383,-0.66745 -0.50213,-0.89676 -0.18617,-0.24463 -0.38436,-0.47263 -0.62431,-0.66902 -0.19532,-0.2563 -0.37878,-0.49642 -0.34031,-0.83238 -0.0415,-2.56354 3.62426,-3.95621 6.17734,-3.86416 0.34627,-0.007 0.69259,0.006 1.03893,0.002 0.31124,-3.5e-4 0.62341,0.009 0.93377,-0.0158 0.33874,-0.0183 0.67769,-0.0836 1.00036,-0.18656 0.55555,-0.13543 1.06311,-0.41119 1.63915,-0.46181 0.6475,-0.14864 1.27736,-0.27345 1.94746,-0.21675 0.46331,0.002 0.92694,-0.004 1.38996,-0.017 1.06853,-0.0111 2.13625,-0.0687 3.20198,-0.14388 2.03564,-0.14088 4.07206,-0.29038 6.11462,-0.23929 1.4853,-0.0173 2.97073,-0.0153 4.45609,-0.0273 0.82592,-0.01 1.65193,0.002 2.47778,-0.0148 0.87808,-0.0292 1.75657,-0.0623 2.62793,-0.18311 1.36236,-0.1848 2.72017,-0.39992 4.08548,-0.5637 2.30627,-0.40142 4.58205,-0.95073 6.85522,-1.50355 2.64167,-0.63273 5.29764,-1.45251 8.04346,-1.37301 0.38281,0.0345 0.76789,0.0499 1.14844,0.10353 1.74481,0.24599 3.35712,1.02834 5.11274,1.22055 3.93305,0.36686 7.89403,0.13867 11.83842,0.20709 5.88388,-0.0381 11.76802,-0.0891 17.64884,-0.29844 3.60642,-0.1224 7.21792,-0.24718 10.82539,-0.084 1.65619,0.0865 3.30539,0.30764 4.96512,0.28682 2.19931,-0.004 4.39819,-0.0468 6.59506,-0.15481 3.78207,-0.1929 7.55961,-0.46427 11.34288,-0.63544 3.82123,-0.25971 7.64044,-0.59258 11.47549,-0.48343 2.42388,-0.007 4.84819,-0.0211 7.27145,-0.0772 0,0 -5.37291,3.85823 -5.37291,3.85823 z"
       inkscape:connector-curvature="0" />
    <path
       style="fill:#c87137;stroke-width:0.44549268"
       d="m 210.19461,802.39377 c -2.0949,-0.34508 -5.84995,-1.24543 -8.34455,-2.00077 -4.46538,-1.35208 -4.61763,-1.44393 -9.82738,-5.92916 -4.05299,-3.48933 -5.88244,-5.43815 -7.81517,-8.32506 -2.83531,-4.23512 -6.96046,-12.173 -6.54133,-12.58726 0.46772,-0.46228 9.26326,-0.93224 13.03578,-0.69654 4.1924,0.26195 9.99495,-0.53078 18.87644,-2.57882 l 6.16842,-1.42242 3.83348,0.75318 c 3.35302,0.65878 7.03477,0.74863 29.37559,0.71685 17.48795,-0.0249 29.14529,-0.25332 36.96884,-0.72447 6.28471,-0.37848 12.92575,-0.57917 14.7579,-0.44598 1.83213,0.13319 3.69738,0.0484 4.14498,-0.18832 0.76423,-0.40424 0.81336,-0.12579 0.80606,4.56766 -0.01,6.4521 -0.78836,9.93534 -3.57642,16.00597 -3.14136,6.83986 -3.17737,6.87695 -7.4242,7.64649 -9.63054,1.74509 -28.56795,4.19443 -35.575,4.60124 -4.3239,0.25102 -9.46952,0.65185 -11.43473,0.89071 -5.57414,0.67751 -32.84923,0.47108 -37.42871,-0.2833 z"
       id="path14"
       inkscape:connector-curvature="0" />
    <path
       style="fill:#c87137;stroke-width:0.44549268"
       d="m 209.52246,806.62669 c -4.52505,-0.44183 -9.72783,-1.50757 -14.24527,-2.91803 -3.22891,-1.00814 -3.95331,-1.47665 -8.84902,-5.72318 -6.38461,-5.53801 -8.74449,-8.68923 -13.07666,-17.46167 -1.0225,-2.07053 -2.23924,-4.31303 -2.70388,-4.98332 -1.91007,-2.75553 0.0185,-4.6621 5.3357,-5.27479 8.00965,-0.92293 12.36852,-1.21569 18.52753,-1.24439 7.46493,-0.0348 10.55169,-0.4101 18.43012,-2.24085 6.32917,-1.47075 9.41617,-1.62381 12.71333,-0.63036 1.94306,0.58545 6.10774,0.6456 31.3675,0.453 16.01984,-0.12215 31.64757,-0.422 34.72831,-0.66631 3.08074,-0.24433 7.88058,-0.45034 10.66632,-0.4578 4.65224,-0.0124 5.19933,-0.10379 6.7136,-1.1208 0.90675,-0.60897 1.80346,-1.10723 1.99271,-1.10723 0.60722,0 0.36667,12.89 -0.29755,15.94417 -0.73661,3.38711 -4.53369,12.06064 -6.25807,14.29512 -1.10231,1.42838 -7.3594,5.39616 -10.18265,6.45707 -1.57812,0.59302 -9.8681,1.96107 -21.67891,3.57756 -5.4221,0.74209 -11.20791,1.55055 -12.85737,1.79656 -1.64946,0.24601 -4.87583,0.44902 -7.16972,0.45114 -2.29388,0.002 -6.6913,0.29934 -9.77204,0.66049 -6.05738,0.7101 -26.85867,0.83074 -33.38398,0.19362 z m 38.98532,-3.74489 4.92918,-0.61428 -4.48107,0.19589 c -2.46459,0.10773 -7.30415,0.31155 -10.75458,0.45293 -3.45042,0.14138 -11.31471,0.0531 -17.47617,-0.19601 -10.26773,-0.41525 -11.63032,-0.56618 -16.32664,-1.80843 -2.81818,-0.74546 -5.94372,-1.83593 -6.94566,-2.42329 -2.81709,-1.65142 -9.91741,-8.14443 -12.13819,-11.09996 -2.41953,-3.22004 -7.73784,-13.30591 -7.26347,-13.77476 0.18697,-0.1848 4.52142,-0.46583 9.63212,-0.62451 l 9.29215,-0.2885 -6.76602,-0.0745 c -3.72132,-0.041 -8.28884,0.0526 -10.15006,0.20816 l -3.38404,0.28272 2.46706,4.85074 c 4.81182,9.46103 8.82552,14.25141 17.08261,20.38823 1.94328,1.44427 9.09751,3.58099 15.0133,4.48394 5.65128,0.86259 30.45977,0.89035 37.26948,0.0417 z m 20.13407,-1.55196 c 9.3207,-1.16934 21.57331,-3.01082 23.55638,-3.54035 1.4661,-0.39148 1.43688,-0.40298 -0.44811,-0.17624 -1.10906,0.13339 -5.34367,0.71341 -9.41025,1.28892 -9.33469,1.32108 -18.15563,2.35234 -24.19779,2.82899 l -4.70512,0.37117 4.03296,0.0616 c 2.21814,0.0338 7.2455,-0.34146 11.17193,-0.83406 z m 28.41719,-4.25045 c 1.01741,-0.20111 1.7388,-0.82192 2.70194,-2.32519 2.06035,-3.21581 4.98389,-10.46233 5.6877,-14.09796 0.8257,-4.26536 0.88057,-12.69413 0.0807,-12.40427 -0.30807,0.11165 -0.45931,0.47703 -0.33608,0.81197 0.12323,0.33494 0.1918,2.82978 0.15238,5.54409 -0.0858,5.90735 -1.06118,9.8459 -3.90806,15.78066 -2.53245,5.27926 -2.82678,5.61987 -5.45979,6.31853 -2.24922,0.59682 -1.44892,0.8723 1.08117,0.37217 z m -97.73103,-24.83296 c -0.4313,-0.1114 -1.13707,-0.1114 -1.56837,0 -0.4313,0.11139 -0.0784,0.20254 0.78419,0.20254 0.8626,0 1.21549,-0.0912 0.78418,-0.20254 z m 2.92123,-0.42811 c -0.30338,-0.12132 -0.90832,-0.1287 -1.34432,-0.0164 -0.43599,0.11229 -0.18777,0.21155 0.55161,0.22058 0.73937,0.009 1.09609,-0.0829 0.79271,-0.20417 z m 2.23201,-0.4457 c -0.30808,-0.12286 -0.8122,-0.12286 -1.12027,0 -0.30807,0.12286 -0.056,0.22339 0.56014,0.22339 0.61615,0 0.8682,-0.10053 0.56013,-0.22339 z m 6.16147,-1.2236 c 2.34136,-0.57393 3.85373,-1.06041 3.3608,-1.08105 -0.49291,-0.0207 -2.71104,0.43774 -4.92918,1.01865 -2.21812,0.5809 -3.73049,1.06737 -3.3608,1.08105 0.36969,0.0137 2.58783,-0.44471 4.92918,-1.01865 z m 46.96834,-0.14314 c -4.35863,-0.0724 -11.61797,-0.0726 -16.13185,-2.6e-4 -4.5139,0.0722 -0.94774,0.13157 7.92479,0.13171 8.87252,1.5e-4 12.5657,-0.059 8.20706,-0.13145 z m -37.55809,-0.55441 c -0.61615,-0.19503 -1.62438,-0.35088 -2.24053,-0.34634 -1.00627,0.007 -0.98347,0.0426 0.22405,0.34634 0.73937,0.18595 1.74762,0.34181 2.24054,0.34634 0.70227,0.006 0.65378,-0.0685 -0.22406,-0.34634 z m 84.20681,-0.28286 c 0.32047,-0.27467 -15.63965,-0.0722 -20.35153,0.25821 -2.46459,0.17282 1.06426,0.22141 7.84187,0.10801 6.77762,-0.11341 12.40697,-0.27821 12.50966,-0.36622 z"
       id="path16"
       inkscape:connector-curvature="0" />
    <path
       style="fill:#c87137;stroke-width:0.44549268"
       d="m 210.64272,806.80174 c -6.64394,-0.65198 -15.69535,-2.73278 -18.65279,-4.28802 -2.48539,-1.30699 -10.80802,-9.08236 -12.94355,-12.09242 -1.18335,-1.66796 -3.5577,-5.72322 -5.27635,-9.01171 -1.71865,-3.28848 -3.31585,-6.21722 -3.54934,-6.50829 -0.69644,-0.86823 -0.21081,-2.42398 1.04472,-3.34687 1.76543,-1.29771 12.57489,-2.50499 22.65289,-2.53005 7.3494,-0.0182 11.16374,-0.47236 19.0369,-2.26628 6.53666,-1.48939 8.43164,-1.56801 13.60026,-0.56429 3.43407,0.66689 6.44875,0.68148 35.705,0.17285 42.51084,-0.73906 44.95238,-0.84911 47.01873,-2.11919 0.8917,-0.54808 1.7487,-0.99651 1.90446,-0.99651 0.5749,0 0.26569,13.07439 -0.3805,16.0887 -0.71263,3.32415 -4.54518,12.03832 -6.28751,14.29606 -1.03937,1.34681 -7.38909,5.28276 -10.26299,6.36163 -3.24522,1.21826 -35.6629,5.76685 -41.19519,5.78018 -2.00941,0.005 -6.37572,0.29984 -9.70291,0.65554 -5.48338,0.58622 -27.91839,0.83907 -32.71183,0.36867 z m 34.50425,-3.63141 c 1.60199,-0.15422 -4.14498,-0.29026 -12.77105,-0.3023 -8.62606,-0.012 -17.39776,-0.17909 -19.49266,-0.3712 -2.0949,-0.19212 -3.68959,-0.23042 -3.54376,-0.0851 0.89505,0.89179 28.37629,1.47401 35.80747,0.75861 z m 5.94595,-0.79237 c -0.30338,-0.12131 -0.90832,-0.1287 -1.34431,-0.0164 -0.436,0.11229 -0.18778,0.21155 0.5516,0.22058 0.73938,0.009 1.0961,-0.0829 0.79271,-0.20418 z m -46.26422,-1.30394 c -5.68558,-1.48575 -7.33075,-2.26029 -10.76594,-5.06859 -4.65765,-3.80766 -7.83527,-7.1295 -10.03515,-10.4906 -2.18574,-3.33949 -6.09671,-10.74445 -6.09671,-11.54339 0,-0.26425 0.75618,-0.55864 1.6804,-0.65419 1.53954,-0.15916 1.50197,-0.17997 -0.44811,-0.24818 -1.17068,-0.041 -2.12851,0.088 -2.12851,0.28658 0,0.79396 4.40788,8.94396 6.75128,12.48287 2.60452,3.93323 9.52555,10.72501 13.05675,12.81291 2.01395,1.1908 9.35481,3.52161 11.11137,3.52799 0.61614,0.003 -0.79027,-0.49519 -3.12538,-1.1054 z m 59.59864,0.70918 c 7.99608,-0.93157 24.32391,-3.27679 23.86536,-3.42785 -0.26425,-0.0871 -4.08111,0.34231 -8.4819,0.95418 -4.4008,0.61185 -11.02617,1.41272 -14.72305,1.7797 -3.69689,0.36699 -7.42738,0.74089 -8.28998,0.83092 -0.94482,0.0986 -0.49473,0.19185 1.13201,0.23455 1.48522,0.039 4.40913,-0.12819 6.49756,-0.3715 z m 26.54712,-3.83417 c -0.30338,-0.12131 -0.90832,-0.1287 -1.34432,-0.0164 -0.43599,0.1123 -0.18777,0.21155 0.55161,0.22058 0.73937,0.009 1.09609,-0.0829 0.79271,-0.20417 z m 7.62933,-1.81849 c 0.8278,-0.73839 3.91733,-6.35999 3.88554,-7.06998 -0.009,-0.18877 -0.86547,1.2496 -1.90446,3.19638 -1.69839,3.18229 -2.09264,3.61981 -3.90557,4.3341 -1.84779,0.72802 -1.88775,0.77419 -0.47751,0.55189 0.84644,-0.13343 1.92734,-0.589 2.402,-1.01239 z m 5.93149,-12.23626 c 1.31761,-4.07038 2.06537,-13.64628 1.18241,-15.14194 -0.39365,-0.66678 -0.44485,-0.2744 -0.23653,1.81263 0.34883,3.49484 -0.48364,10.87941 -1.57217,13.94617 -0.47529,1.33904 -1.00471,2.83322 -1.17649,3.32041 -0.25338,0.71856 -0.21947,0.76037 0.17964,0.22144 0.27059,-0.36538 1.00101,-2.23681 1.62314,-4.15871 z M 191.01843,772.66537 c -1.79761,-0.0843 -4.62069,-0.0837 -6.2735,8.8e-4 -1.65281,0.085 -0.18205,0.15393 3.26838,0.15324 3.45043,-7.1e-4 4.80273,-0.0702 3.00512,-0.1545 z m 19.40024,-2.5185 c 1.23229,-0.33891 1.83723,-0.6187 1.34432,-0.62176 -0.95395,-0.006 -4.7913,1.13593 -4.03297,1.20006 0.24647,0.0209 1.45635,-0.2394 2.68865,-0.5783 z m 44.47464,-0.13881 c -1.91006,-0.083 -5.0356,-0.083 -6.94566,0 -1.91006,0.083 -0.34729,0.15094 3.47283,0.15094 3.82011,0 5.38289,-0.068 3.47283,-0.15094 z m -35.06439,-0.55659 c -0.49292,-0.20935 -1.29951,-0.37478 -1.79243,-0.36762 -0.72046,0.0104 -0.67652,0.0826 0.22406,0.36762 1.53215,0.48497 2.71025,0.48497 1.56837,0 z m 79.65105,-0.32951 c -2.03328,-0.0821 -5.36047,-0.0821 -7.39377,0 -2.03328,0.0821 -0.36969,0.14921 3.69689,0.14921 4.06657,0 5.73017,-0.0672 3.69688,-0.14921 z"
       id="path18"
       inkscape:connector-curvature="0" />
    <path
       style="fill:#c87137;stroke-width:0.44549268"
       d="m 210.41867,806.81067 c -7.09675,-0.81313 -15.20679,-2.65899 -18.10644,-4.12107 -2.54051,-1.28099 -10.98917,-9.03047 -13.22544,-12.13095 -2.69542,-3.73707 -9.29022,-16.21907 -9.12891,-17.27833 0.39977,-2.62522 5.96695,-3.66953 22.76056,-4.2695 11.5939,-0.41421 11.80507,-0.44151 24.16645,-3.12481 2.46849,-0.53583 5.94732,-0.3879 11.00996,0.46817 3.28198,0.55498 42.40314,0.16556 64.52744,-0.64232 14.25637,-0.52057 15.33644,-0.61743 16.80402,-1.50696 0.8626,-0.52284 1.74424,-0.95137 1.9592,-0.95228 0.21622,-8.8e-4 0.29162,3.60935 0.16878,8.08114 -0.18118,6.59499 -0.38722,8.5312 -1.11938,10.51873 -1.41147,3.83162 -4.50306,10.20724 -5.7045,11.76408 -1.08045,1.40007 -6.47386,4.80131 -9.77221,6.16265 -3.52298,1.45405 -31.11529,5.42056 -41.76935,6.00451 -3.94334,0.21614 -8.98455,0.5985 -11.20268,0.84969 -3.64635,0.41294 -28.10425,0.55113 -31.3675,0.17725 z m 31.1061,-3.41666 c -0.10268,-0.0881 -6.74028,-0.25146 -14.75018,-0.36293 -8.00992,-0.11147 -12.54701,-0.078 -10.08242,0.0744 4.96785,0.30727 25.12736,0.54144 24.8326,0.28845 z m -29.86528,-1.01605 c -0.30338,-0.12131 -0.90832,-0.1287 -1.34432,-0.0164 -0.436,0.11229 -0.18777,0.21154 0.55161,0.22058 0.73937,0.009 1.0961,-0.0829 0.79271,-0.20418 z m 54.00775,-0.82976 c 6.82698,-0.75291 11.21719,-1.42328 9.50292,-1.45106 -1.82374,-0.0295 -18.73277,2.02262 -17.12075,2.07787 0.81164,0.0278 4.23966,-0.25424 7.61783,-0.62681 z m -59.17885,-0.0331 c -0.1489,-0.14716 -0.53539,-0.1629 -0.85887,-0.035 -0.35747,0.14139 -0.25129,0.24633 0.27074,0.26758 0.47237,0.0192 0.73703,-0.0854 0.58813,-0.23261 z m -1.79242,-0.44289 c -0.14891,-0.14717 -0.53539,-0.1629 -0.85888,-0.035 -0.35746,0.14138 -0.25128,0.24633 0.27073,0.26758 0.47239,0.0192 0.73705,-0.0855 0.58815,-0.23262 z m 73.94702,-1.3664 c -0.4313,-0.1114 -1.13708,-0.1114 -1.56837,0 -0.43131,0.1114 -0.0784,0.20254 0.78418,0.20254 0.86261,0 1.21549,-0.0911 0.78419,-0.20254 z m -81.55525,-1.44112 c -1.1438,-0.71694 -3.95595,-2.92588 -6.2492,-4.90876 l -4.16955,-3.60524 3.80891,3.58511 c 3.73754,3.51793 7.32227,6.23242 8.23049,6.23242 0.25245,0 -0.47683,-0.58659 -1.62065,-1.30353 z m 84.92458,1.01302 c -0.30338,-0.12132 -0.90833,-0.12871 -1.34432,-0.0164 -0.436,0.11229 -0.18777,0.21155 0.5516,0.22057 0.73938,0.009 1.0961,-0.0829 0.79272,-0.20416 z m 3.13675,-0.4429 c -0.30338,-0.12131 -0.90832,-0.1287 -1.34432,-0.0164 -0.43599,0.1123 -0.18777,0.21156 0.55161,0.22058 0.73937,0.009 1.09609,-0.0829 0.79271,-0.20417 z m 2.44673,-0.41996 c -0.1489,-0.14717 -0.5354,-0.1629 -0.85888,-0.035 -0.35746,0.14138 -0.25128,0.24632 0.27074,0.26758 0.47238,0.0192 0.73704,-0.0854 0.58814,-0.23262 z m 3.13675,-0.44289 c -0.1489,-0.14717 -0.5354,-0.16291 -0.85887,-0.035 -0.35748,0.14139 -0.2513,0.24633 0.27073,0.26758 0.47237,0.0192 0.73704,-0.0854 0.58814,-0.23261 z m 8.00581,-2.01545 0.85364,-0.95435 -1.34432,0.8203 c -1.83009,1.11672 -1.80302,1.0884 -1.04035,1.0884 0.37257,0 1.06153,-0.42946 1.53103,-0.95435 z m 2.22054,-3.51863 c 0.63687,-1.24218 1.0828,-2.33277 0.99097,-2.42353 -0.0918,-0.0908 -0.70814,0.92556 -1.36958,2.2585 -0.66143,1.33295 -1.10737,2.42354 -0.99097,2.42354 0.1164,0 0.73271,-1.01632 1.36958,-2.25851 z M 186.44493,788.7716 c 0,-0.092 -0.35288,-0.44075 -0.78418,-0.77506 -0.71073,-0.55091 -0.72658,-0.53524 -0.16919,0.16721 0.5854,0.73775 0.95337,0.97237 0.95337,0.60785 z m -2.51777,-3.37593 c -0.6524,-0.97437 -1.27211,-1.77158 -1.37713,-1.77158 -0.22696,0 0.15014,0.66922 1.31025,2.32519 1.33494,1.90553 1.39279,1.42666 0.0669,-0.55361 z m 120.76377,-2.21447 c -0.008,-0.36538 -0.28567,0.0332 -0.61786,0.88579 -0.78788,2.02211 -0.77625,2.81771 0.0162,1.10723 0.33856,-0.73077 0.60931,-1.62763 0.60168,-1.99302 z m -124.13429,-3.52481 c -0.80734,-1.45147 -1.53999,-2.56777 -1.62811,-2.48068 -0.19343,0.19119 2.58323,5.1197 2.88438,5.1197 0.1164,0 -0.44893,-1.18755 -1.25627,-2.63902 z m 124.48537,1.19962 c -0.12432,-0.30449 -0.22603,-0.0553 -0.22603,0.55362 0,0.60898 0.10171,0.8581 0.22603,0.55361 0.1243,-0.30449 0.1243,-0.80274 0,-1.10723 z m 0.46826,-3.09509 c -0.10719,-0.55092 -0.19895,-0.20446 -0.20393,0.7699 -0.005,0.97436 0.0827,1.42512 0.19489,1.00167 0.11216,-0.42344 0.11622,-1.22065 0.009,-1.77157 z m -127.09496,-2.48479 c -0.71492,-1.32029 -0.59922,-1.75515 0.52383,-1.96895 0.72911,-0.1388 0.60506,-0.20863 -0.44811,-0.25225 -0.80099,-0.0331 -1.45635,0.0325 -1.45635,0.14611 0,0.47237 1.51963,3.31109 1.685,3.14765 0.099,-0.0979 -0.038,-0.58052 -0.30437,-1.07256 z m 127.21202,-6.16132 c -0.46621,-0.71613 -0.48344,-0.71324 -0.24378,0.0407 0.14184,0.44621 0.29796,2.23993 0.34694,3.98604 l 0.089,3.17475 0.15474,-3.21546 c 0.0908,-1.88688 -0.0525,-3.53386 -0.34693,-3.98605 z m -117.05389,3.57451 c -0.4313,-0.1114 -1.13707,-0.1114 -1.56837,0 -0.43131,0.1114 -0.0784,0.20254 0.78419,0.20254 0.8626,0 1.21549,-0.0911 0.78418,-0.20254 z m 21.94792,-2.61965 c -0.1489,-0.14716 -0.53539,-0.16289 -0.85887,-0.035 -0.35747,0.14138 -0.25129,0.24632 0.27073,0.26758 0.47238,0.0192 0.73704,-0.0854 0.58814,-0.23262 z"
       id="path20"
       inkscape:connector-curvature="0" />
    <path
       style="fill:#c87137;stroke-width:0.44549268"
       d="m 206.60975,806.37255 c -5.29714,-0.79382 -11.97512,-2.51193 -14.27942,-3.67382 -2.6051,-1.31356 -10.93921,-8.94532 -13.21662,-12.10279 -2.71648,-3.76623 -9.31795,-16.251 -9.15583,-17.31562 0.40049,-2.62995 5.61346,-3.62938 22.22222,-4.26048 10.14421,-0.38546 12.05292,-0.58324 18.14834,-1.88054 7.50917,-1.59818 10.72854,-1.74749 18.91073,-0.87701 3.71998,0.39575 11.68971,0.41644 32.48777,0.0843 36.62326,-0.58481 45.27461,-0.98447 47.33629,-2.18674 0.85724,-0.4999 1.74875,-0.90891 1.98111,-0.90891 0.58726,0 0.53789,12.5072 -0.062,15.71473 -0.53709,2.87159 -3.79495,10.5587 -5.79763,13.67986 -1.33055,2.07364 -2.869,3.20488 -8.29664,6.10061 -2.81561,1.50217 -4.03535,1.82399 -11.42674,3.01483 -13.37894,2.15552 -24.81889,3.5861 -32.24838,4.03269 -3.82012,0.22963 -8.9331,0.6169 -11.36219,0.86062 -6.71355,0.67357 -30.11455,0.48648 -35.24097,-0.28176 z m 28.36479,-3.14745 c -2.02118,-0.0819 -5.4492,-0.0823 -7.61782,-8.7e-4 -2.16862,0.0814 -0.51492,0.14835 3.67488,0.14886 4.1898,5.3e-4 5.96412,-0.066 3.94294,-0.14793 z m -16.59344,-0.40424 c -0.30338,-0.12132 -0.90833,-0.12871 -1.34432,-0.0164 -0.436,0.11229 -0.18777,0.21155 0.5516,0.22057 0.73938,0.009 1.0961,-0.0829 0.79272,-0.20416 z m 41.88016,-0.86286 c -0.14891,-0.14717 -0.5354,-0.1629 -0.85887,-0.035 -0.35747,0.14138 -0.2513,0.24633 0.27073,0.26758 0.47237,0.0192 0.73704,-0.0854 0.58814,-0.23262 z m 4.26635,-0.48787 c -0.55453,-0.10557 -1.46195,-0.10557 -2.01648,0 -0.55453,0.10556 -0.10082,0.19193 1.00824,0.19193 1.10906,0 1.56277,-0.0864 1.00824,-0.19193 z m 4.03297,-0.4429 c -0.55453,-0.10556 -1.46195,-0.10556 -2.01649,0 -0.55453,0.10557 -0.10082,0.19194 1.00825,0.19194 1.10906,0 1.56277,-0.0864 1.00824,-0.19194 z m 3.3608,-0.43563 c -0.43131,-0.1114 -1.13707,-0.1114 -1.56838,0 -0.43129,0.1114 -0.0784,0.20255 0.7842,0.20255 0.8626,0 1.21549,-0.0911 0.78418,-0.20255 z m 2.9127,-0.43091 c -0.30807,-0.12287 -0.8122,-0.12287 -1.12027,0 -0.30808,0.12286 -0.056,0.22339 0.56013,0.22339 0.61615,0 0.86822,-0.10053 0.56014,-0.22339 z m 3.79957,-0.41716 c -0.1489,-0.14717 -0.53539,-0.1629 -0.85887,-0.035 -0.35747,0.14138 -0.25129,0.24633 0.27073,0.26759 0.47238,0.0192 0.73704,-0.0855 0.58814,-0.23262 z m -80.08982,-0.38117 c 0,-0.11322 -0.45371,-0.42318 -1.00824,-0.68878 -0.96819,-0.46372 -0.97369,-0.45555 -0.13841,0.20587 0.91425,0.72395 1.14665,0.82182 1.14665,0.48291 z m 83.22658,-0.0617 c -0.14891,-0.14718 -0.5354,-0.16291 -0.85888,-0.035 -0.35747,0.14138 -0.25128,0.24633 0.27073,0.26758 0.47239,0.0192 0.73705,-0.0854 0.58815,-0.23262 z m 3.13674,-0.4429 c -0.1489,-0.14717 -0.53539,-0.16291 -0.85886,-0.035 -0.35748,0.14139 -0.2513,0.24634 0.27073,0.26758 0.47237,0.0192 0.73703,-0.0854 0.58813,-0.23261 z m -88.60386,-0.77101 c 0,-0.084 -0.45371,-0.53247 -1.00824,-0.99651 l -1.00824,-0.84371 0.85364,0.99652 c 0.80221,0.93647 1.16284,1.19813 1.16284,0.8437 z m 101.97076,-1.86465 c 0.82018,-0.64945 0.80588,-0.65866 -0.25043,-0.16145 -1.37166,0.64565 -1.62588,0.85023 -1.05655,0.85023 0.24044,0 0.82858,-0.30996 1.30698,-0.68878 z m -104.21129,0.10164 c 0,-0.0794 -0.55453,-0.62742 -1.2323,-1.21796 l -1.23229,-1.07372 1.08635,1.21796 c 1.01536,1.13836 1.37824,1.42106 1.37824,1.07372 z m 106.8951,-3.88296 c 0.39419,-0.75341 0.63715,-1.44846 0.53992,-1.54457 -0.0972,-0.0961 -0.51213,0.52034 -0.92201,1.36984 -0.92157,1.91007 -0.60225,2.05609 0.38209,0.17473 z m 4.54159,-14.21447 c -0.14305,-0.35331 -0.24923,-0.24836 -0.27073,0.26758 -0.0194,0.46689 0.0864,0.72847 0.23535,0.5813 0.14891,-0.14718 0.16482,-0.52916 0.0354,-0.84888 z m -127.36225,-3.5154 c -0.18961,-0.59043 -0.0757,-1.08297 0.30588,-1.3219 0.44422,-0.27819 0.33638,-0.38265 -0.40016,-0.3876 -1.16745,-0.008 -1.17822,0.0257 -0.4882,1.52251 0.63102,1.36883 1.00003,1.48729 0.58248,0.18699 z m 127.82118,-3.59341 c -0.10719,-0.55093 -0.19895,-0.20447 -0.20393,0.7699 -0.005,0.97436 0.0827,1.42512 0.19489,1.00167 0.11215,-0.42345 0.11622,-1.22065 0.009,-1.77157 z"
       id="path22"
       inkscape:connector-curvature="0" />
    <path
       style="fill:#c87137;stroke-width:0.44549268"
       d="m 207.73002,806.59101 c -4.48468,-0.56381 -12.16502,-2.45721 -14.78714,-3.6454 -2.87838,-1.30432 -10.54518,-8.0869 -13.46412,-11.91128 -2.70333,-3.54191 -9.38974,-16.03411 -9.38974,-17.54283 0,-2.77478 4.77979,-3.78174 21.28509,-4.48416 12.22126,-0.5201 12.49113,-0.54975 21.06104,-2.31423 5.82327,-1.19896 6.89282,-1.29761 10.30647,-0.95056 5.49361,0.5585 61.49925,0.38486 73.93768,-0.22924 8.84055,-0.43646 10.82291,-0.65971 12.3524,-1.39112 1.00203,-0.47917 1.98197,-0.87123 2.17765,-0.87123 0.19566,0 0.26618,3.63726 0.15669,8.0828 -0.22229,9.02619 -0.30844,9.39606 -3.99226,17.13871 -2.52602,5.3092 -2.90461,5.79479 -6.09483,7.81746 -6.42576,4.07409 -8.26871,4.5624 -27.32895,7.24116 -9.93252,1.39593 -13.9866,1.81405 -28.18535,2.90685 -9.3687,0.72105 -32.7677,0.81523 -38.03463,0.15307 z m 24.09429,-3.32726 c -0.30338,-0.12132 -0.90832,-0.1287 -1.34431,-0.0164 -0.436,0.11229 -0.18778,0.21156 0.5516,0.22058 0.73938,0.009 1.0961,-0.0829 0.79271,-0.20416 z m 32.25519,-1.77438 c -0.30807,-0.12287 -0.81219,-0.12287 -1.12027,0 -0.30807,0.12286 -0.056,0.22339 0.56014,0.22339 0.61615,0 0.8682,-0.10053 0.56013,-0.22339 z m 4.03297,-0.44289 c -0.30808,-0.12286 -0.81219,-0.12286 -1.12027,0 -0.30807,0.12286 -0.056,0.22338 0.56014,0.22338 0.61615,0 0.8682,-0.10052 0.56013,-0.22338 z m 3.58486,-0.4429 c -0.30808,-0.12286 -0.8122,-0.12286 -1.12027,0 -0.30808,0.12287 -0.056,0.2234 0.56014,0.2234 0.61614,0 0.8682,-0.10053 0.56013,-0.2234 z m -75.39404,-2.53126 c 0,-0.092 -0.35288,-0.44075 -0.78418,-0.77506 -0.71073,-0.5509 -0.72658,-0.53523 -0.16919,0.16721 0.5854,0.73775 0.95337,0.97237 0.95337,0.60785 z m -2.24053,-1.77157 c 0,-0.092 -0.35289,-0.44075 -0.7842,-0.77506 -0.71072,-0.5509 -0.72656,-0.53524 -0.16918,0.16722 0.5854,0.73774 0.95338,0.97236 0.95338,0.60784 z m -15.50454,-22.96718 c 0.31382,-0.20715 0.23513,-0.32785 -0.21656,-0.33217 -0.97785,-0.009 -1.29525,0.39388 -0.96981,1.23208 0.22897,0.58975 0.31066,0.60111 0.48442,0.0674 0.11496,-0.35307 0.43083,-0.78837 0.70195,-0.96733 z"
       id="path24"
       inkscape:connector-curvature="0" />
    <path
       style="fill:#c87137;stroke-width:0.44549268"
       d="m 206.45669,806.42293 c -5.11263,-0.81234 -11.9027,-2.60297 -14.13096,-3.72652 -2.58598,-1.30391 -10.25416,-8.26399 -12.82646,-11.64201 -2.80283,-3.68078 -9.72602,-16.55362 -9.5449,-17.74762 0.39486,-2.60299 5.31824,-3.61194 20.97163,-4.29773 11.27958,-0.49418 14.93732,-0.90375 22.40537,-2.50887 l 5.15322,-1.1076 10.44656,0.56187 c 8.42271,0.45301 16.40946,0.45421 41.22585,0.006 32.42493,-0.58537 37.46838,-0.84294 39.1381,-1.99884 2.07935,-1.43949 2.17228,-1.17997 2.16396,6.04327 -0.01,8.5702 -0.59912,11.29856 -3.92378,18.16789 -3.00895,6.21704 -3.79372,7.02644 -9.8959,10.20641 -3.63097,1.89218 -4.5443,2.15331 -11.7468,3.35859 -11.43784,1.91403 -24.56724,3.57756 -34.24805,4.33935 -12.11414,0.95327 -40.02017,1.16669 -45.18784,0.3456 z m -28.36375,-32.76398 c 0.14187,-0.36538 0.0626,-0.66433 -0.17611,-0.66433 -0.23872,0 -0.43404,0.29895 -0.43404,0.66433 0,0.36539 0.0792,0.66435 0.17611,0.66435 0.0969,0 0.29218,-0.29896 0.43404,-0.66435 z"
       id="path26"
       inkscape:connector-curvature="0" />
    <path
       style="fill:#c87137;stroke-width:0.44549268"
       d="m 208.85029,806.78984 c -7.15224,-0.75616 -15.66234,-3.24563 -18.63712,-5.45192 -4.45584,-3.30476 -9.96914,-8.87695 -12.17829,-12.30839 -3.31149,-5.14366 -8.23265,-14.72023 -8.0803,-15.72427 0.38576,-2.54251 5.18087,-3.57927 19.77727,-4.27606 13.1072,-0.6257 14.86024,-0.80758 22.23783,-2.30718 l 6.4802,-1.31719 11.8922,0.52816 c 9.14489,0.40615 18.41402,0.40987 40.12295,0.016 29.70445,-0.53883 36.53093,-0.89383 38.72195,-2.01367 0.73653,-0.37644 1.55081,-0.68443 1.8095,-0.68443 0.73475,0 0.58348,12.90799 -0.19376,16.5336 -0.38606,1.80086 -1.78852,5.2964 -3.46506,8.63643 -3.15688,6.2892 -4.17844,7.31197 -10.3631,10.37535 -2.66104,1.31806 -4.60156,1.86293 -9.76215,2.74105 -23.04115,3.92067 -42.48968,5.59958 -63.57458,5.48812 -7.27054,-0.0384 -13.92493,-0.14448 -14.78754,-0.23568 z m -30.75735,-33.13089 c 0.14187,-0.36538 0.0626,-0.66433 -0.17611,-0.66433 -0.23872,0 -0.43404,0.29895 -0.43404,0.66433 0,0.36539 0.0792,0.66435 0.17611,0.66435 0.0969,0 0.29218,-0.29896 0.43404,-0.66435 z"
       id="path28"
       inkscape:connector-curvature="0" />
    <path
       style="fill:#ff0000;stroke-width:0.88203049"
       id="path30"
       d="m 233.6588,766.5803 c 0.045,-1.34059 0.0484,-2.68326 0.0351,-4.02453 -6.1e-4,-1.1626 -0.0114,-2.32516 -0.0175,-3.48773 -0.007,-0.65701 -0.0226,-1.31402 -0.0231,-1.97109 -0.004,-0.36461 -0.0135,-0.72934 -0.009,-1.09396 0.0145,-0.63602 0.0191,-1.27219 0.0226,-1.90834 0.008,-0.82814 8.9e-4,-1.65622 -0.003,-2.48433 -0.0119,-0.73713 0.002,-1.47435 0.007,-2.21153 0.004,-0.92531 0.002,-1.85062 8.8e-4,-2.77593 0.004,-0.82605 -0.008,-1.65201 -0.008,-2.47803 -0.004,-0.77034 0.009,-1.54065 0.002,-2.31095 -8.8e-4,-0.87619 0.009,-1.75227 0.01,-2.62848 0.008,-1.0972 0.008,-2.19443 0.008,-3.29172 -0.007,-0.92399 -0.002,-1.84813 -0.0211,-2.77197 -0.009,-0.511 -0.007,-1.02208 -0.0129,-1.53309 -0.0106,-0.37773 -2.7e-4,-0.75529 0.002,-1.13296 0.009,-0.84294 0.0269,-1.68559 0.0367,-2.52854 3.7e-4,-1.11776 0.004,-2.23575 -0.0155,-3.3534 -0.005,-0.7334 -0.002,-1.46696 -0.0161,-2.20027 -0.004,-0.44865 -0.009,-0.89694 -0.008,-1.34552 -3.4e-4,-0.41495 0.009,-0.82976 -0.004,-1.24453 0.0113,-0.33989 -0.004,-0.67996 2.2e-4,-1.01997 -0.006,-0.36127 0.0121,-0.7221 0.003,-1.08332 0.003,-0.53694 0.0137,-1.07375 0.013,-1.61067 -0.004,-0.5934 0.004,-1.18687 -0.008,-1.78019 0.005,-0.426 -0.007,-0.85157 -0.005,-1.27758 0.002,-0.33495 -0.01,-0.67011 0.002,-1.00487 0.0109,-0.33604 -0.0605,-0.69683 0.0601,-1.01626 0.0358,-0.40971 -0.0144,-0.82096 -0.0291,-1.23086 -0.0267,-0.57582 -0.0185,-1.15236 -0.0136,-1.72853 0.0125,-0.63538 0.23354,-1.23815 0.32724,-1.8621 0.3796,-2.78096 3.30385,-2.61067 6.29009,-4.24311 0.84411,-0.0288 1.68896,-0.0413 2.53349,-0.033 0.63979,0.0309 1.34532,0.066 1.96676,0.24623 0.6974,0.28963 0.35087,0.17243 1.03674,0.35966 0.80876,0.24862 1.47801,0.77952 2.2655,1.07725 0.33893,0.0972 0.56836,0.43215 0.88524,0.56136 0.11653,0.0475 0.2515,0.0187 0.37664,0.0337 0.27308,0.0516 0.425,0.28332 0.63959,0.40705 0.0433,0.025 0.10643,-0.0296 0.15026,-0.005 0.8518,0.46673 -0.20083,0.0691 0.47016,0.30335 0.37581,0.36379 0.81794,0.58296 1.24564,0.88418 0.3485,0.11619 0.6165,0.41525 0.96962,0.51442 0.0785,0.022 0.17123,-0.009 0.24308,0.0293 0.11186,0.0596 0.18924,0.16767 0.28386,0.25151 0.31458,0.0389 0.47862,0.31199 0.72962,0.46658 0.29957,0.18453 0.49624,0.24014 0.75223,0.5079 0.28305,0.0343 0.4183,0.2938 0.64523,0.43088 0.28939,0.1748 0.46451,0.21405 0.71274,0.47526 0.4891,0.16705 0.78922,0.6441 1.22863,0.85741 0.35401,0.18404 0.64463,0.44314 0.97824,0.67197 0.25379,0.26888 0.57609,0.65046 0.91744,0.84628 0.37884,0.20018 0.632,0.70229 1.06406,0.76457 0.3415,0.37715 0.66342,0.74691 1.08011,1.03627 0.18866,0.11201 0.35344,0.31877 0.54414,0.41939 0.19571,0.10327 0.21134,-0.0831 0.50307,0.15026 0.2221,0.31191 0.51604,0.24279 0.85493,0.24412 0.19531,0.1983 0.28378,0.39952 0.55378,0.464 0.0301,0.007 0.0666,-0.0287 0.0922,-0.0113 0.0893,0.0605 0.1521,0.15233 0.22816,0.2285 0.3392,0.30089 0.68076,0.62183 0.94586,0.98807 0.0367,0.0412 0.0735,0.0823 0.11013,0.12357 0.0348,-0.01 0.0757,-0.051 0.10426,-0.0292 0.092,0.0702 0.13238,0.1903 0.21388,0.27222 0.10346,0.10398 0.33363,0.18489 0.45396,0.26933 0.2086,0.44054 0.45693,0.37991 0.70684,0.7852 0.12919,0.2465 0.29139,0.68173 0.2139,0.96507 -0.017,0.0624 -0.10437,0.078 -0.15657,0.11703 -1.96039,1.11172 -3.92079,2.22344 -5.88118,3.33516 -0.079,-0.0104 -0.30589,0.009 -0.23706,-0.0311 1.83994,-1.06262 7.41257,-4.1572 5.59244,-3.06177 -1.95822,1.17854 -3.98884,2.23603 -6.00699,3.31127 -0.0881,0.0469 -0.19764,0.0314 -0.29646,0.0471 -0.10478,0.0642 -0.20955,0.12843 -0.31431,0.19266 -0.31547,0.22941 -0.69792,0.32814 -1.04192,0.50192 -0.13828,0.0699 -0.5397,0.304 -0.40479,0.22797 7.327,-4.12936 7.01208,-3.97716 -0.77692,0.52698 -2.28354,0.91119 -0.85108,0.36007 4.96152,-2.85913 0.10362,-0.0574 -0.18889,0.14261 -0.28719,0.20853 -0.2665,0.1787 -0.50457,0.33587 -0.74491,0.54727 -15.72722,8.86283 -0.51877,0.26728 -0.39151,0.19598 0.0571,-0.032 -0.10351,0.0799 -0.15655,0.1182 -0.11002,0.0794 -0.2062,0.1788 -0.32459,0.2454 -1.97466,1.11077 -3.95965,2.20351 -5.93948,3.30527 -0.18484,0.12119 -0.47235,-0.10245 -0.6471,-0.0167 -0.0486,0.0239 -0.0649,0.086 -0.0974,0.12899 -0.0649,0.0241 -0.12977,0.0483 -0.19466,0.0725 14.73719,-8.41582 -0.16334,0.19107 -0.27136,0.25106 -0.13095,0.0728 -0.30043,-0.006 -0.45063,-0.004 -0.0601,8.8e-4 -0.23245,0.0314 -0.1803,0.002 1.86828,-1.05751 3.76538,-2.06451 5.64807,-3.09676 -1.97247,1.12934 -3.93222,2.28071 -5.91743,3.38805 -0.0717,0.04 -0.16497,0.0196 -0.24224,0.0478 -0.0837,0.0304 -0.31248,0.16954 -0.23509,0.12587 1.84523,-1.04118 7.43444,-4.06668 5.53862,-3.11843 -2.09912,1.04993 -4.06671,2.34182 -6.1475,3.42683 -0.17791,0.0913 -0.41219,0.0278 -0.5928,0.0776 -0.0728,0.0201 -0.12402,0.0956 -0.1985,0.10859 -0.19801,0.0345 -0.40144,-0.0231 -0.60229,-0.0323 -0.34054,0.0139 -0.53747,0.35909 -0.86342,0.39794 -0.15805,0.0189 -0.31882,-0.005 -0.4775,0.008 -0.36684,-0.0116 -0.73358,-0.0283 -1.10064,-0.0324 -0.0992,0.2008 -0.0217,0.12261 -0.24571,0.22076 1.8621,-1.05764 3.71077,-2.13873 5.5863,-3.17294 0.0554,-0.0305 -0.055,0.1221 -0.10999,0.15317 -5.7425,3.24422 -3.72025,2.85317 -6.08313,3.2924 -0.0931,-0.0154 -0.88703,-0.0644 -0.90315,-0.0459 -0.0398,0.0456 -0.003,0.12054 -0.004,0.18081 14.74025,-8.37387 -0.0146,0.022 -0.29197,0.12249 -2.02156,0.73194 7.15806,-4.65588 5.58996,-3.19785 -9.33118,8.67629 -3.42981,3.22818 -6.19795,3.39227 -0.15222,0.0149 -0.38443,-0.0946 -0.53645,-0.0449 -0.0925,0.0303 -0.19716,0.16908 -0.25683,0.23822 1.85335,-1.05571 3.70669,-2.11141 5.56004,-3.16711 -2.3138,-5.65386 -3.86036,3.57604 -6.23363,3.39945 -0.069,-0.005 -0.1452,-0.0496 -0.2067,-0.0183 -0.0499,0.0254 -0.0278,0.11098 -0.062,0.1551 -0.0316,0.0407 -0.0847,0.0591 -0.12707,0.0886 1.84211,-1.05202 7.41143,-4.13082 5.52631,-3.15607 -3.2668,1.68916 -3.9853,3.47689 -6.63636,3.3576 -0.12932,-0.28021 -0.26697,0.19972 -0.19348,0.15953 1.88422,-1.03046 3.71146,-2.15988 5.583,-3.21268 0.0453,-0.0255 -0.0482,0.0982 -0.0931,0.12442 -2.77672,1.62182 -3.95236,2.28162 -5.96144,3.40975 1.85106,-1.0682 3.67745,-2.17933 5.5532,-3.20462 0.11419,-0.0624 -0.10331,0.25778 -0.21611,0.32264 -2.98036,1.71389 -3.776,3.67277 -6.18606,3.29728 0.0257,-0.20098 -0.39247,0.1551 -0.30006,0.10384 1.87445,-1.03981 3.73425,-2.10524 5.60623,-3.14939 0.0326,-0.0182 -0.0651,0.0404 -0.0868,0.0708 -0.0321,0.045 -0.0222,0.12238 -0.0706,0.14959 -1.97749,1.11222 -3.98646,2.16889 -5.97969,3.25332 -0.13278,0.14342 -0.4755,-0.10734 -0.59469,-0.003 -0.38569,0.33924 0.36715,-0.0174 -0.21077,0.21831 14.67655,-8.36834 -0.19128,0.17323 -0.30289,0.23647 -0.34146,0.19348 0.0656,-0.15266 -0.33661,0.009 -0.0507,0.0203 -0.0617,0.0892 -0.0925,0.13384 -0.06,0.0239 -0.1199,0.0479 -0.17985,0.0719 1.87082,-1.05937 7.42809,-4.32743 5.61246,-3.17809 -1.89728,1.20102 -3.88916,2.25007 -5.85769,3.33332 -0.0601,0.0331 -0.13853,-0.007 -0.20651,0.004 -0.0428,0.007 -0.15808,0.0693 -0.12043,0.0481 4.26574,-2.39398 10.97906,-6.09992 -0.25803,0.11781 -0.30226,-0.0893 -0.61339,-0.10893 -0.92614,-0.12569 -0.14503,-0.004 -0.29009,-0.005 -0.43511,-0.01 0,0 5.44083,-3.86824 5.44083,-3.86824 v 0 c 0.14368,0.0101 0.28763,0.015 0.43129,0.0256 0.26227,0.019 0.55531,0.0932 0.78028,-0.0744 -1.88021,1.05996 -7.59041,4.10894 -5.64063,3.17985 2.03483,-0.96961 3.92558,-2.21048 5.89636,-3.30171 0.0846,-0.0468 0.34376,-0.17742 0.2597,-0.12963 -1.86908,1.0624 -7.51646,4.17569 -5.59816,3.20275 2.0026,-1.01569 3.90092,-2.22079 5.85137,-3.33119 0.55057,-0.2821 -0.20524,0.0736 0.37031,-0.0957 0.085,-0.025 0.28813,-0.20391 0.21141,-0.15986 -0.11273,0.0647 -15.25725,8.80402 0.34667,-0.17892 0.26841,-0.1124 0.58483,0.0391 0.85846,-0.13786 -1.85458,1.04882 -3.72433,2.07186 -5.56373,3.14648 -0.0409,0.0238 0.0968,0.0395 0.14075,0.0217 0.0431,-0.0174 0.0424,-0.0879 0.0823,-0.11145 1.94562,-1.1477 3.88908,-2.30008 5.86467,-3.39664 0.11059,-0.0614 0.2654,0.0625 0.38027,-0.0136 0.0739,-0.0344 0.27937,-0.16722 0.2087,-0.12677 -1.82992,1.0472 -7.47943,3.84604 -5.48691,3.14643 0.0656,-0.023 0.14682,0.004 0.20617,-0.0318 1.94383,-1.17423 3.85958,-2.39328 5.78937,-3.58992 2.10967,-0.78438 0.0485,-0.0239 -5.48269,3.19327 -0.0403,0.0234 0.0868,-0.035 0.12697,-0.0587 1.94249,-1.14911 3.88009,-2.30627 5.82013,-3.45941 0.24384,0.0859 0.12514,0.0743 0.35373,0.0537 0.12596,-0.0207 0.27789,-0.0472 0.39442,-0.10024 0.0618,-0.0281 0.23379,-0.13799 0.17491,-0.1042 -6.45398,3.70337 -8.49658,4.89394 0.35447,-0.22873 0.34558,-0.13992 -0.0595,-0.007 0.35038,-0.0283 0.15802,-0.008 0.25541,-0.13768 0.39806,-0.183 -1.84127,1.06531 -3.68252,2.13062 -5.52378,3.19594 2.00334,-1.16555 3.72717,-3.44472 6.05176,-3.42564 0.24509,0.002 0.48942,0.0459 0.72592,-0.0439 0.0879,-0.0281 0.31208,-0.19581 0.23237,-0.14955 -1.85892,1.07899 -7.39096,4.38997 -5.55774,3.26882 1.92249,-1.17574 4.27632,-1.80534 5.82561,-3.43264 0.0128,-0.0135 -15.3499,8.73351 0.27852,-0.16311 0.31305,0.12814 0.67855,0.10553 0.99334,-0.0188 2.14329,-0.74221 -0.20005,0.0616 -5.46527,3.11758 -0.0489,0.0284 0.12011,0.0111 0.16915,-0.0169 0.93448,-0.53469 3.96245,-3.58828 6.25923,-3.44513 0.3423,0.013 0.69077,0.0197 1.0278,-0.0478 0.46157,-0.0954 0.85794,-0.43113 1.36763,-0.34052 0.42644,-0.0539 0.86312,-0.16838 1.24431,-0.37135 1.90254,-0.74837 -7.13211,3.97547 -5.30664,3.05856 0.29042,-0.14587 15.3386,-8.66261 0.88796,-0.33895 1.97167,-1.10788 3.93583,-2.2289 5.915,-3.32362 0.0966,-0.0534 0.22226,-0.0369 0.3194,-0.0893 4.25385,-2.29175 -19.11108,10.86878 0.48157,-0.27445 0.31288,-0.0973 0.6512,0.0145 0.95016,-0.17462 -18.41137,10.55625 13.69136,-8.01894 -4.6759,2.57841 0.31801,-0.14917 0.47139,-0.38417 0.75488,-0.58124 0.0966,-0.0672 0.21646,-0.0949 0.31853,-0.15369 6.92431,-3.9901 3.91276,-2.36278 6.35384,-3.67781 -1.74601,1.01346 -6.93549,4.13139 -5.23801,3.04038 2.43704,-1.56633 4.8854,-3.06765 7.51776,-4.25544 0.22182,-0.0662 0.86073,-0.32853 0.6611,-0.21228 -1.81382,1.05624 -7.45567,3.80882 -5.46745,3.12475 0.74558,-0.25651 14.77385,-8.3709 0.54154,-0.18486 0.27586,-0.21289 0.0198,-0.0913 0.38396,0.0965 0.022,0.0113 0.0244,-0.24161 -0.0165,-0.30701 -0.23087,-0.13574 -0.4075,-0.31522 -0.54679,-0.54514 -0.36461,-0.22169 -0.7164,-0.51528 -0.9971,-0.82856 -0.25794,-0.30492 -0.53977,-0.58781 -0.85517,-0.83411 -0.25148,-0.0781 -0.67993,-0.44372 -0.68859,-0.43933 -0.023,0.0117 0.004,0.0508 0.007,0.0761 -0.3901,-0.0705 -0.70221,-0.24625 -1.01515,-0.48434 -0.40154,-0.0267 -0.75385,-0.42969 -1.06652,-0.64243 -0.36468,-0.27841 -0.64824,-0.64123 -1.00832,-0.92146 -0.40599,-0.26218 -0.74976,-0.60175 -1.15175,-0.87191 -0.30397,-0.2668 -0.58643,-0.55348 -0.88997,-0.81979 -0.33697,-0.21009 -0.6234,-0.48318 -0.9714,-0.67962 -0.42224,-0.3325 -0.85932,-0.63863 -1.29191,-0.95559 -0.42714,-0.32879 -0.94099,-0.55538 -1.35623,-0.90816 -0.43722,-0.34708 -0.96697,-0.59139 -1.43495,-0.89836 -0.51119,-0.2145 -1.00675,-0.46806 -1.47095,-0.77094 -0.42368,-0.2493 -0.80318,-0.54261 -1.21046,-0.81618 -0.37703,-0.22908 -0.75753,-0.48355 -1.1952,-0.57943 -0.47264,-0.17826 -0.85536,-0.49876 -1.31193,-0.70669 -0.70482,-0.37589 -1.39668,-0.80051 -2.1701,-1.02538 -0.94126,-0.29521 -1.90406,-0.49343 -2.89865,-0.44419 -0.82178,0.0157 -1.66912,-0.0257 -2.46536,0.20392 1.83531,-1.04766 3.68204,-2.07603 5.50594,-3.14299 0.0503,-0.0295 -0.11539,0.0258 -0.17386,0.0238 -0.0641,-0.002 -0.14064,-0.0779 -0.18893,-0.0361 -0.0532,0.046 0.013,0.14392 -0.0116,0.20944 -0.0175,0.0464 -0.0712,0.0698 -0.10671,0.10464 -0.0124,0.0588 -0.0248,0.11774 -0.0373,0.17662 -0.1216,0.59436 -0.21632,1.19135 -0.40551,1.77108 0.008,0.56463 0.0152,1.12919 0.0289,1.69372 0.0188,0.43658 0.0485,0.87215 0.076,1.3082 0.0155,0.30152 -0.15157,0.60032 -0.0878,0.95805 0.0116,0.33418 -4e-4,0.66881 0.002,1.00319 8.9e-4,0.42787 -0.0111,0.8553 -0.005,1.28314 -0.0117,0.59608 -0.005,1.19228 -0.008,1.78841 -7.3e-4,0.53256 0.0106,1.06499 0.013,1.59756 -0.009,0.36021 0.009,0.71999 0.003,1.08023 0.004,0.33995 -0.0112,0.67996 2.2e-4,1.01976 -0.0126,0.41625 -0.004,0.83249 -0.004,1.24892 6.3e-4,0.45128 -0.004,0.90226 -0.008,1.35361 -0.0138,0.7387 -0.0107,1.47765 -0.0161,2.21644 -0.0185,1.12287 -0.016,2.24606 -0.0155,3.36904 0.01,0.83061 0.0275,1.66092 0.0367,2.49153 0.002,0.37718 0.0121,0.75423 0.002,1.13147 -0.005,0.51533 -0.004,1.03071 -0.0129,1.54603 -0.0193,0.93093 -0.0145,1.86215 -0.0211,2.79323 4e-5,1.09463 -3.1e-4,2.1892 0.008,3.28374 2.8e-4,0.87297 0.0109,1.7458 0.01,2.61874 -0.007,0.76983 0.006,1.53966 0.002,2.30952 -4.6e-4,0.82884 -0.0129,1.6576 -0.008,2.48647 -7.9e-4,0.92497 -0.003,1.84995 8.9e-4,2.77492 0.005,0.73477 0.0191,1.46958 0.007,2.20431 -0.004,0.82906 -0.0105,1.65809 -0.003,2.48718 0.004,0.62854 0.008,1.25711 0.0226,1.88552 0.004,0.36772 -0.006,0.73557 -0.009,1.10328 -4.1e-4,0.6648 -0.0158,1.32953 -0.0231,1.99428 -0.006,1.16844 -0.0169,2.33687 -0.0175,3.50533 -0.013,1.32949 -0.0106,2.66043 0.0351,3.98918 0,0 -5.92765,2.98515 -5.92765,2.98515 z"
       inkscape:connector-curvature="0" />
    <path
       style="fill:#ff0000;stroke-width:0.44549268"
       d="m 239.76969,716.62819 c 0,-9.80044 0.051,-10.4635 0.78419,-10.18814 2.33759,0.87798 9.71999,5.39282 12.49024,7.63862 1.7556,1.42325 3.77256,2.88444 4.48212,3.2471 0.70957,0.36266 1.64885,1.05116 2.08729,1.53 0.77701,0.84859 0.74296,0.8936 -1.34538,1.77865 -1.17839,0.49942 -2.94914,1.04168 -3.93497,1.20504 -0.98584,0.16335 -2.4556,0.49753 -3.26612,0.74261 -1.0338,0.31259 -1.6522,0.29918 -2.07172,-0.0449 -0.7943,-0.65155 -1.80034,-0.22471 -2.49526,1.05866 -0.5354,0.98876 -3.50454,2.45213 -4.97535,2.45213 -0.37377,0 -0.92156,0.23916 -1.21731,0.53147 -0.41824,0.41336 -0.53773,-1.79802 -0.53773,-9.95121 z"
       id="path32"
       inkscape:connector-curvature="0" />
    <path
       style="fill:#ff0000;stroke-width:0.44549268"
       d="m 233.95041,736.59261 c 0.004,-16.3958 0.13463,-30.28512 0.29169,-30.86515 0.40516,-1.49627 5.19439,-3.59578 8.20236,-3.59578 3.44689,0 10.62536,3.87259 17.84357,9.62612 1.3035,1.03901 2.55258,1.8891 2.77573,1.8891 0.73942,0 3.70845,2.97748 3.52158,3.53159 -0.29437,0.87281 -11.50761,6.87471 -14.94081,7.99709 -1.72522,0.564 -3.64087,1.36449 -4.25702,1.77886 -0.83575,0.56206 -1.30793,0.63471 -1.8592,0.28609 -0.55502,-0.35101 -1.05456,-0.26291 -2.00711,0.35396 -0.69749,0.4517 -1.87734,0.94436 -2.62187,1.09482 l -1.35369,0.27354 -0.11718,17.30651 -0.11717,17.3065 -2.6835,1.41366 -2.68349,1.41364 z m 9.37916,-10.29115 c 1.75342,-1.29435 2.35348,-1.43834 1.97945,-0.47499 -0.14186,0.36539 -0.1275,0.66434 0.0319,0.66434 0.71499,0 3.9062,-1.87218 4.11709,-2.41537 0.31826,-0.81974 2.20732,-1.52228 4.70955,-1.75147 1.14121,-0.10453 2.8976,-0.60487 3.90308,-1.11186 1.00549,-0.50699 2.17822,-0.92181 2.60607,-0.92181 0.60092,0 0.44068,-0.34389 -0.7042,-1.51136 -0.81517,-0.83125 -1.87982,-1.61416 -2.3659,-1.73979 -0.57965,-0.14982 -0.29897,0.27122 0.81562,1.2235 l 1.6994,1.45191 -2.44613,0.90106 c -3.37068,1.2416 -7.44798,2.02273 -8.80329,1.68652 -0.89624,-0.22232 -1.42807,0.0221 -2.56543,1.17905 -0.81808,0.83216 -2.4103,1.76731 -3.70429,2.17563 l -2.2695,0.71614 -0.28166,-2.6634 c -0.36599,-3.46089 -0.36212,-12.45907 0.006,-15.11718 0.22465,-1.61996 0.43932,-2.02058 0.974,-1.81779 1.58874,0.60256 7.89218,4.53725 11.57483,7.22516 2.18187,1.59251 3.69585,2.56984 3.36441,2.17185 -2.01463,-2.41918 -14.04812,-10.05389 -15.84651,-10.05389 -0.74942,0 -0.80299,0.70318 -0.80299,10.54087 0,10.85838 0.1828,12.02609 1.74904,11.17228 0.39355,-0.21453 1.41008,-0.90276 2.25895,-1.5294 z"
       id="path34"
       inkscape:connector-curvature="0" />
    <path
       style="fill:#ff0000;stroke-width:0.44549268"
       d="m 233.95041,736.57301 c 0.004,-16.38502 0.13463,-30.26552 0.29169,-30.84555 0.40433,-1.49317 5.19441,-3.59578 8.19177,-3.59578 2.92679,0 9.69558,3.39459 15.1759,7.61082 2.14122,1.64731 4.59889,3.37961 5.46149,3.84955 1.93384,1.05354 3.74063,2.91469 3.50573,3.6112 -0.28716,0.85147 -11.54563,6.86484 -14.93246,7.97572 -1.72522,0.56588 -3.61897,1.3925 -4.20834,1.83696 -0.78245,0.59005 -1.22718,0.68047 -1.64821,0.33511 -0.41791,-0.3428 -0.98634,-0.26207 -2.06516,0.29328 -0.8187,0.42143 -2.09349,0.89052 -2.83286,1.04239 l -1.34432,0.27614 -0.11723,17.36172 -0.11723,17.36172 -2.68344,1.33884 -2.68344,1.33884 z m 9.02715,-10.0822 c 2.05831,-1.47368 2.71876,-1.66188 2.33146,-0.66434 -0.14186,0.36539 -0.10283,0.66434 0.0868,0.66434 0.60273,0 4.23231,-2.23689 4.23231,-2.60835 0,-0.19609 0.4537,-0.57281 1.00824,-0.83714 0.99782,-0.47564 0.99589,-0.48091 -0.18741,-0.51057 -0.6576,-0.0165 -1.56502,-0.14843 -2.01649,-0.29321 -0.62797,-0.20137 -0.675,-0.16053 -0.20016,0.17384 0.50168,0.35328 0.42423,0.54099 -0.40402,0.9791 -0.89818,0.47509 -0.98881,0.44958 -0.73406,-0.20657 0.16572,-0.42683 -0.26715,-0.1973 -1.00707,0.53402 -0.71374,0.70544 -2.27591,1.5926 -3.47147,1.97148 l -2.17377,0.68887 -0.36142,-1.60659 c -0.41607,-1.84951 -0.23471,-17.55435 0.20776,-17.9903 0.16193,-0.15955 0.91812,0.0287 1.6804,0.41827 0.76228,0.38961 1.38596,0.60873 1.38596,0.48693 0,-0.12179 -0.62314,-0.53994 -1.38477,-0.92921 -2.61223,-1.33512 -2.64881,-1.2047 -2.64207,9.41826 0.004,5.30576 0.1277,10.09526 0.27631,10.64334 0.36169,1.33392 1.1557,1.25574 3.37354,-0.33217 z m 15.16452,-5.39836 c 1.35553,-0.52313 2.54738,-1.01604 2.64856,-1.09537 0.29382,-0.23037 -1.43183,-1.9625 -2.41949,-2.42858 -0.51468,-0.24287 -0.32859,0.0541 0.4339,0.69232 0.86815,0.72671 1.18161,1.26783 0.89621,1.54713 -0.2414,0.23624 -2.15292,0.94611 -4.24782,1.57746 -2.87643,0.86691 -3.31525,1.08799 -1.79243,0.90305 1.10907,-0.13469 3.12555,-0.6729 4.48107,-1.19601 z m -3.8089,-6.37937 c -1.83103,-1.52064 -10.10894,-6.94521 -10.30408,-6.75234 -0.15091,0.14916 10.96617,7.77694 11.42434,7.83862 0.12323,0.0166 -0.38089,-0.47224 -1.12026,-1.08628 z"
       id="path36"
       inkscape:connector-curvature="0" />
    <path
       style="fill:#ff0000;stroke-width:0.44549268"
       d="m 233.9443,735.99825 v -30.36573 l 1.07111,-0.98112 c 1.46716,-1.3439 4.99401,-2.52455 7.53346,-2.52192 2.86834,0.003 9.28439,3.26948 16.04132,8.16684 6.90353,5.00361 8.26339,6.18921 7.96891,6.94769 -0.34928,0.89963 -11.15813,6.71044 -15.02896,8.07953 -1.78813,0.63246 -3.70574,1.44431 -4.26136,1.80413 -0.63266,0.40971 -1.24493,0.51084 -1.63826,0.27057 -0.39522,-0.24142 -1.30725,-0.0814 -2.46025,0.43168 -1.00771,0.44842 -2.15448,0.91061 -2.54836,1.02708 -1.07407,0.3176 -1.30033,3.84633 -1.30033,20.27997 v 14.54414 l -2.68864,1.34143 -2.68864,1.34143 z m 8.91755,-9.5155 c 1.99012,-1.33283 3.01876,-1.69266 2.50918,-0.87773 -0.15232,0.24359 0.0567,0.4429 0.46451,0.4429 0.74414,0 2.81509,-1.28633 4.43714,-2.75605 0.85256,-0.7725 0.84702,-0.7871 -0.29874,-0.7871 -0.64208,0 -1.23464,0.19354 -1.31679,0.43009 -0.0822,0.23654 -0.55674,0.49094 -1.05464,0.56532 -0.4979,0.0744 -1.60698,0.55903 -2.46459,1.07701 -1.31298,0.79298 -4.75944,2.01341 -4.99054,1.7672 -0.0387,-0.0413 -0.20913,-4.16071 -0.37866,-9.15434 l -0.30825,-9.07931 0.0426,9.30076 c 0.0392,8.56284 0.23178,10.42194 1.07727,10.39993 0.1703,-0.004 1.19699,-0.60234 2.28152,-1.32868 z m 15.90672,-5.7294 2.19486,-0.93068 -1.04067,-1.09486 c -0.57237,-0.60218 -1.22952,-1.09486 -1.46033,-1.09486 -0.23079,0 0.0564,0.38445 0.63825,0.85434 1.32775,1.07229 0.96599,1.45319 -2.52697,2.66059 -1.47875,0.51117 -2.0837,0.84091 -1.34432,0.73276 0.73937,-0.10813 2.33201,-0.61542 3.53918,-1.12729 z m -5.07466,-6.40293 c -0.72541,-0.86389 -8.99504,-6.27851 -8.99504,-5.88959 0,0.0995 1.91633,1.42684 4.25852,2.94964 2.34219,1.5228 4.37057,2.94791 4.50752,3.16692 0.13694,0.219 0.36261,0.39819 0.50147,0.39819 0.13886,0 0.0162,-0.28132 -0.27247,-0.62516 z m -13.34627,-7.34691 c 0.1289,-0.48719 0.0516,-0.8858 -0.17179,-0.8858 -0.22339,0 -0.40616,0.39861 -0.40616,0.8858 0,0.48717 0.0773,0.88578 0.17179,0.88578 0.0945,0 0.27725,-0.39861 0.40616,-0.88578 z m 1.88664,0 c -0.15232,-0.2436 -0.51711,-0.43985 -0.81063,-0.43612 -0.32068,0.004 -0.26541,0.17814 0.13847,0.43612 0.86087,0.54985 1.01599,0.54985 0.67216,0 z"
       id="path38"
       inkscape:connector-curvature="0" />
    <path
       style="fill:#ff0000;stroke-width:0.44549268"
       d="m 233.9443,736.06846 c 0,-34.39321 -0.35762,-31.39306 3.93752,-33.0325 3.80158,-1.45103 6.0874,-1.22219 10.69243,1.07046 3.84946,1.91648 5.5561,3.00504 12.99996,8.29183 4.08589,2.90189 5.28172,4.08125 4.9651,4.89674 -0.32594,0.8395 -11.16532,6.63951 -15.11883,8.08988 -1.84845,0.67812 -3.6077,1.42383 -3.90946,1.65714 -0.30176,0.23332 -1.31,0.48214 -2.24054,0.55294 -2.3025,0.17517 -4.9799,1.17855 -5.31466,1.9917 -0.15142,0.36782 -0.38575,8.20435 -0.52072,17.41451 l -0.2454,16.74575 -2.6227,1.30853 -2.6227,1.30853 z m 8.99548,-9.8388 c 0.57345,-0.68292 0.52866,-0.72054 -0.48496,-0.40738 -0.61422,0.18976 -1.25764,0.5625 -1.42983,0.82829 -0.18911,0.29193 -0.48834,0.0491 -0.75578,-0.61331 l -0.44271,-1.09657 -0.0284,1.18105 c -0.045,1.86918 1.61488,1.9262 3.14169,0.10792 z m 4.14111,-0.68959 c 0.53833,-0.27931 1.64116,-1.07652 2.45072,-1.77157 l 1.47194,-1.26373 h -1.13585 c -0.62473,0 -1.13587,0.1993 -1.13587,0.44289 0,0.24359 -0.3088,0.4429 -0.68622,0.4429 -0.37742,0 -0.80878,0.31566 -0.95857,0.70147 -0.1498,0.38581 -0.39553,0.51571 -0.54608,0.28865 -0.15348,-0.2315 -0.86423,-0.0385 -1.61804,0.43928 -1.03395,0.65538 -1.11154,0.78635 -0.33608,0.5673 0.59584,-0.16832 1.00824,-0.0915 1.00824,0.18792 0,0.60105 0.27212,0.59462 1.48581,-0.0351 z m -7.42842,-9.33168 c -0.0908,-1.28702 -0.16605,-0.34702 -0.16723,2.08889 -8.8e-4,2.43592 0.0731,3.48893 0.16511,2.34004 0.092,-1.1489 0.0929,-3.14191 0.002,-4.42893 z m 18.04151,4.9677 c 0.81912,-0.5232 0.11161,-0.5232 -1.12027,0 -0.59094,0.25098 -0.66726,0.38893 -0.22405,0.40498 0.36969,0.0134 0.97463,-0.16885 1.34432,-0.40498 z m 2.87569,-1.26949 c 0.13195,-0.21104 -0.20555,-0.75912 -0.75003,-1.21796 -0.77154,-0.6502 -0.85956,-0.66753 -0.39896,-0.0786 0.32505,0.41561 0.4609,0.96369 0.30192,1.21795 -0.159,0.25426 -0.0875,0.4623 0.15902,0.4623 0.24646,0 0.55608,-0.17266 0.68805,-0.3837 z m -8.25298,-6.42691 c 0,-0.092 -0.35288,-0.44075 -0.78419,-0.77507 -0.71072,-0.5509 -0.72656,-0.53523 -0.16918,0.16722 0.58539,0.73775 0.95337,0.97236 0.95337,0.60785 z m -12.24089,-7.00212 c -0.14305,-0.35332 -0.24923,-0.24837 -0.27073,0.26758 -0.0194,0.46688 0.0864,0.72846 0.23535,0.58129 0.1489,-0.14716 0.16482,-0.52916 0.0354,-0.84887 z"
       id="path40"
       inkscape:connector-curvature="0" />
    <path
       style="fill:#ff0000;stroke-width:0.44549268"
       d="m 233.9443,736.0973 c 0,-26.22717 0.0894,-30.35157 0.67603,-31.17933 0.90153,-1.27213 5.11607,-2.78629 7.75543,-2.78629 3.56642,0 11.07859,4.10579 20.43425,11.16839 3.98088,3.00517 4.40807,3.6731 3.01779,4.71845 -1.82211,1.37003 -10.91174,6.07457 -14.18327,7.34087 -1.72522,0.66778 -3.77996,1.58032 -4.56611,2.02788 -0.92825,0.52847 -1.48698,0.64286 -1.59376,0.32627 -0.18129,-0.53755 -4.57917,0.83685 -5.255,1.64227 -0.21078,0.25118 -0.53108,8.09096 -0.71178,17.42172 l -0.32856,16.96501 -1.83832,0.96711 c -1.01108,0.53191 -2.19121,1.11244 -2.62252,1.29006 -0.74237,0.30575 -0.78418,-1.28857 -0.78418,-29.90241 z m 8.51403,-9.60649 c 1.20854,-1.03597 0.64359,-1.19327 -0.77029,-0.21448 -0.87929,0.60871 -1.01267,0.59839 -1.4304,-0.11072 -0.38761,-0.65796 -0.46286,-0.67078 -0.47432,-0.0808 -0.0296,1.52229 1.16181,1.70311 2.67501,0.40598 z m 6.09686,-2.09771 c 1.80137,-1.35945 2.03587,-1.68469 1.31377,-1.82213 -0.48343,-0.092 -0.95386,0.0547 -1.04539,0.32614 -0.0915,0.2714 -0.45842,0.49345 -0.8153,0.49345 -0.35689,0 -0.76451,0.29781 -0.90583,0.66179 -0.14132,0.36399 -0.41927,0.56265 -0.61766,0.44146 -0.19839,-0.12118 -0.6724,-0.10213 -1.05335,0.0423 -0.54812,0.2079 -0.57993,0.3895 -0.15247,0.87038 0.75928,0.85418 0.83079,0.83206 3.27623,-1.01344 z m 11.82743,-4.741 c 0,-0.35101 -0.15843,-0.73498 -0.35208,-0.85327 -0.19365,-0.11829 -0.35209,0.16891 -0.35209,0.6382 0,0.4693 0.15844,0.85327 0.35209,0.85327 0.19365,0 0.35208,-0.28719 0.35208,-0.6382 z"
       id="path42"
       inkscape:connector-curvature="0" />
    <path
       style="fill:#ff0000;stroke-width:0.44549268"
       d="m 233.9443,736.11156 c 0,-26.23988 0.0894,-30.36582 0.67603,-31.19359 0.90153,-1.27213 5.11607,-2.78629 7.75543,-2.78629 3.43344,0 8.77821,2.85334 19.57523,10.4504 2.89098,2.03416 4.70513,3.74505 4.70513,4.43732 0,0.92368 -9.10033,6.01576 -14.62279,8.18215 -1.93905,0.76067 -4.16243,1.76551 -4.94084,2.23297 -0.80992,0.4864 -1.48076,0.65783 -1.56836,0.40079 -0.0956,-0.28047 -1.05521,-0.16382 -2.55531,0.31064 -1.70444,0.5391 -2.51795,1.06067 -2.80067,1.79562 -0.21915,0.56971 -0.3989,3.46431 -0.39943,6.43245 -5.4e-4,2.96814 -0.13403,10.34375 -0.29667,16.39026 l -0.29569,10.99363 -2.27995,1.2925 c -1.25398,0.71087 -2.43119,1.29437 -2.61604,1.29665 -0.18484,0.003 -0.33607,-13.60369 -0.33607,-30.2355 z m 8.33255,-9.71409 0.85364,-0.97912 -1.21177,0.7546 c -1.14443,0.71267 -1.23705,0.71169 -1.66678,-0.0174 -0.38647,-0.65572 -0.45705,-0.66638 -0.46862,-0.0708 -0.0303,1.56037 1.26422,1.72268 2.49353,0.31265 z m 5.91859,-1.71655 c 1.0344,-0.75184 1.88071,-1.54905 1.88071,-1.77157 0,-0.61718 -0.40508,-0.49518 -1.93815,0.58377 -0.7724,0.54359 -1.61011,0.99202 -1.86161,0.99651 -0.47274,0.009 -0.68131,0.34989 -0.68131,1.11539 0,0.73381 0.62501,0.51169 2.60036,-0.9241 z m 12.04518,-5.35945 c -0.14305,-0.35331 -0.24923,-0.24836 -0.27073,0.26759 -0.0194,0.46688 0.0865,0.72847 0.23536,0.58129 0.1489,-0.14717 0.16482,-0.52916 0.0354,-0.84888 z"
       id="path44"
       inkscape:connector-curvature="0" />
    <path
       style="fill:#ff0000;stroke-width:0.44549268"
       d="m 233.9443,736.11156 c 0,-26.23988 0.0894,-30.36582 0.67603,-31.19359 0.37182,-0.52467 1.83377,-1.38446 3.24878,-1.91065 5.31703,-1.97721 9.47594,-0.56148 20.25407,6.89465 6.25585,4.32769 8.53294,6.22327 8.53294,7.10333 0,1.00504 -9.38178,6.23243 -15.4162,8.58968 -1.94774,0.76086 -3.92686,1.65025 -4.39803,1.97643 -0.47117,0.32618 -1.2363,0.49494 -1.70027,0.37503 -0.46399,-0.11993 -1.7403,0.12042 -2.83625,0.5341 -1.61268,0.60872 -2.04442,1.008 -2.26417,2.09393 -0.14933,0.73798 -0.29685,5.65169 -0.32782,10.91935 -0.031,5.26767 -0.1822,12.46738 -0.33608,15.99935 l -0.27977,6.42179 -2.24054,1.20778 c -1.23229,0.66428 -2.39177,1.21244 -2.57662,1.21813 -0.18484,0.005 -0.33607,-13.5975 -0.33607,-30.22931 z m 8.26213,-10.01735 c -0.11612,-0.11477 -0.44496,0.0224 -0.73074,0.30487 -0.37904,0.37463 -0.68007,0.38193 -1.1128,0.027 -0.39323,-0.32257 -0.5932,-0.33145 -0.5932,-0.0264 0,0.25312 0.25206,0.54494 0.56013,0.64849 0.60941,0.20484 2.22045,-0.61411 1.87661,-0.95395 z m 6.16524,-1.65665 c 1.51529,-1.03788 2.1828,-1.93279 1.44166,-1.93279 -0.30796,0 -4.21825,2.73823 -4.21825,2.95389 0,0.46902 1.29787,-0.008 2.77659,-1.0211 z"
       id="path46"
       inkscape:connector-curvature="0" />
    <path
       style="fill:#000080;stroke-width:0.44549268"
       d="m 233.9443,736.11156 c 0,-26.23988 0.0894,-30.36582 0.67603,-31.19359 0.37182,-0.52467 1.83377,-1.38446 3.24878,-1.91065 5.66948,-2.10827 9.9774,-0.48461 22.73756,8.5698 3.81729,2.7087 6.04945,4.71753 6.04945,5.44423 0,1.05665 -6.806,4.76351 -17.85489,9.72461 -1.56381,0.70217 -3.37865,1.23524 -4.03296,1.18459 -1.73843,-0.13456 -4.23627,1.24827 -4.59945,2.5463 -0.17039,0.60898 -0.3299,5.11127 -0.35447,10.00509 -0.0246,4.89382 -0.17609,12.19149 -0.33672,16.21704 l -0.29206,7.31918 -2.40651,1.16652 c -1.32358,0.64159 -2.50286,1.16654 -2.62064,1.16654 -0.11777,0 -0.21412,-13.60785 -0.21412,-30.23966 z m 6.7216,-9.37316 c 0,-0.10742 -0.20164,-0.31849 -0.44811,-0.46904 -0.24645,-0.15054 -0.4481,-0.0626 -0.4481,0.19531 0,0.25797 0.20165,0.46904 0.4481,0.46904 0.24647,0 0.44811,-0.0879 0.44811,-0.19531 z m 7.87925,-2.70199 c 1.60785,-1.43704 1.6423,-1.51252 0.41074,-0.89986 -2.07695,1.0332 -3.73009,2.44676 -2.87533,2.45863 0.39024,0.005 1.4993,-0.69603 2.46459,-1.55877 z"
       id="path48"
       inkscape:connector-curvature="0" />
    <path
       style="fill:#000080;stroke-width:0.44549268"
       d="m 234.17391,749.06341 c -0.1825,-9.26471 -0.18342,-22.90799 -0.002,-30.31842 0.36869,-15.0627 0.16783,-14.23761 3.77195,-15.49442 3.33063,-1.16145 6.55284,-0.88989 10.25653,0.86441 6.01228,2.84779 18.00766,11.40425 18.00766,12.8451 0,0.31929 -0.95782,1.18726 -2.12851,1.92885 -3.84127,2.43328 -16.8699,8.45831 -18.93253,8.75527 -2.42191,0.34869 -4.30719,1.23427 -4.86149,2.28362 -0.22385,0.42376 -0.5392,7.2478 -0.7008,15.16452 -0.1616,7.91671 -0.40711,15.40996 -0.5456,16.65166 -0.23958,2.14815 -0.34807,2.30386 -2.23717,3.21098 -1.09196,0.52434 -2.0553,0.95334 -2.14078,0.95334 -0.0854,0 -0.30472,-7.58021 -0.48722,-16.84491 z m 6.49199,-22.5726 c 0,-0.24359 -0.20164,-0.44289 -0.44811,-0.44289 -0.24645,0 -0.4481,0.1993 -0.4481,0.44289 0,0.24359 0.20165,0.4429 0.4481,0.4429 0.24647,0 0.44811,-0.19931 0.44811,-0.4429 z m 7.84133,-2.27341 c 0.87947,-0.76319 1.51048,-1.47513 1.40226,-1.58209 -0.2432,-0.24037 -3.68291,1.87523 -4.07913,2.50888 -0.62755,1.00357 1.16932,0.38147 2.67687,-0.92679 z"
       id="path50"
       inkscape:connector-curvature="0" />
    <path
       style="fill:#000080;stroke-width:0.44549268"
       d="m 234.15491,753.61803 c -0.47004,-17.01719 0.0269,-47.82238 0.78604,-48.72928 1.12709,-1.34645 4.07556,-2.29446 7.16712,-2.30445 2.72851,-0.009 3.40853,0.19179 7.25931,2.14154 4.43567,2.24591 13.54748,8.45103 15.75713,10.73056 1.01023,1.04219 1.18442,1.48405 0.82067,2.08193 -0.77505,1.27396 -18.0262,9.61968 -21.13343,10.22387 -5.08194,0.98818 -4.75681,-0.0812 -5.15504,16.95556 -0.18987,8.12274 -0.45387,15.78008 -0.58668,17.01633 -0.23031,2.14398 -0.33405,2.29218 -2.24747,3.21098 -1.10331,0.52978 -2.07851,0.96325 -2.16711,0.96325 -0.0886,0 -0.31384,-5.53063 -0.50054,-12.29029 z m 6.51099,-27.12722 c 0,-0.24359 -0.20164,-0.44289 -0.44811,-0.44289 -0.24645,0 -0.4481,0.1993 -0.4481,0.44289 0,0.24359 0.20165,0.4429 0.4481,0.4429 0.24647,0 0.44811,-0.19931 0.44811,-0.4429 z m 7.49294,-2.03775 c 0.84044,-0.63357 1.43274,-1.24617 1.31623,-1.36133 -0.30014,-0.29665 -2.71168,0.99127 -3.40736,1.81975 -0.96333,1.14724 0.34032,0.86145 2.09113,-0.45842 z"
       id="path52"
       inkscape:connector-curvature="0" />
    <path
       style="fill:#000080;stroke-width:0.44549268"
       d="m 234.15561,756.27539 c -0.52474,-15.04375 -0.009,-50.43753 0.74752,-51.3416 1.1632,-1.3893 4.07672,-2.33939 7.20494,-2.34949 2.7208,-0.009 3.41079,0.19316 7.16971,2.09853 4.69279,2.37873 13.32081,8.20439 15.6133,10.54213 1.2169,1.24091 1.42627,1.70071 1.0522,2.31075 -0.57392,0.93598 -16.90875,9.16696 -19.55506,9.85363 -1.05237,0.27307 -2.6663,0.6879 -3.5865,0.92183 -0.95983,0.24401 -1.90236,0.8435 -2.21092,1.40623 -0.36446,0.66472 -0.65732,5.76339 -0.90855,15.81783 -0.47877,19.16083 -0.33734,18.19864 -2.85242,19.40634 -1.10731,0.53171 -2.0864,0.96675 -2.17576,0.96675 -0.0893,0 -0.31367,-4.33481 -0.49846,-9.63293 z m 6.51029,-29.78458 c 0,-0.24359 -0.20164,-0.44289 -0.44811,-0.44289 -0.24645,0 -0.4481,0.1993 -0.4481,0.44289 0,0.24359 0.20165,0.4429 0.4481,0.4429 0.24647,0 0.44811,-0.19931 0.44811,-0.4429 z m 7.49294,-2.03775 c 0.84044,-0.63357 1.4181,-1.26064 1.2837,-1.39349 -0.24798,-0.24509 -3.84746,1.93501 -3.84746,2.33029 0,0.54161 1.1695,0.11428 2.56376,-0.9368 z"
       id="path54"
       inkscape:connector-curvature="0" />
    <path
       style="fill:#000080;stroke-width:0.44549268"
       d="m 234.15654,758.04697 c -0.18271,-4.32375 -0.23691,-17.86696 -0.12044,-30.09603 0.17394,-18.26251 0.32474,-22.3696 0.84417,-22.98993 1.18504,-1.41524 4.07801,-2.36654 7.2278,-2.37671 2.72437,-0.009 3.41034,0.1927 7.21665,2.11994 4.73622,2.39808 13.22101,8.12909 15.54746,10.50145 1.23228,1.25659 1.44539,1.71986 1.07182,2.33002 -0.7757,1.26697 -18.14644,9.71658 -21.19344,10.30906 -1.47662,0.28714 -3.08097,0.88687 -3.56521,1.33277 -1.06141,0.97735 -1.27381,3.62164 -1.65188,20.56518 -0.14131,6.33337 -0.36766,12.15032 -0.50301,12.92654 -0.19807,1.13603 -0.62975,1.58958 -2.21313,2.32519 -1.08187,0.50263 -2.0484,0.91387 -2.14782,0.91387 -0.0994,0 -0.33026,-3.53761 -0.51297,-7.86135 z m 6.50936,-31.30857 c 0,-0.10742 -0.20164,-0.31849 -0.44811,-0.46904 -0.24645,-0.15054 -0.4481,-0.0626 -0.4481,0.19531 0,0.25797 0.20165,0.46904 0.4481,0.46904 0.24647,0 0.44811,-0.0879 0.44811,-0.19531 z m 7.3246,-2.27998 c 0.93898,-0.63064 1.59484,-1.25771 1.45745,-1.39349 -0.25166,-0.24874 -3.85287,1.92434 -3.85287,2.32493 0,0.46256 0.75959,0.16721 2.39542,-0.93144 z"
       id="path56"
       inkscape:connector-curvature="0" />
    <path
       style="fill:#000080;stroke-width:0.44549268"
       d="m 234.15897,759.45094 c -0.17963,-3.55157 -0.24156,-17.09349 -0.13762,-30.09318 0.1768,-22.1114 0.24174,-23.69341 1.00706,-24.52923 2.41023,-2.63229 8.72151,-2.96591 13.46499,-0.71178 5.92114,2.81375 17.71462,11.3771 17.71462,12.86273 0,0.90568 -1.84215,2.02522 -9.64273,5.86026 -7.02787,3.45516 -9.28582,4.38532 -13.10053,5.39674 -3.29672,0.87409 -3.27624,0.77873 -3.73338,17.39264 -0.52193,18.96953 -0.41231,18.21541 -2.81495,19.36498 -1.05093,0.50282 -2.02779,0.91422 -2.17081,0.91422 -0.14303,0 -0.40702,-2.90582 -0.58665,-6.45738 z m 6.50693,-32.71254 c 0,-0.10742 -0.20164,-0.31849 -0.44811,-0.46904 -0.24645,-0.15054 -0.4481,-0.0626 -0.4481,0.19531 0,0.25797 0.20165,0.46904 0.4481,0.46904 0.24647,0 0.44811,-0.0879 0.44811,-0.19531 z m 7.0048,-2.05529 c 0.83008,-0.50705 1.50924,-1.09822 1.50924,-1.31374 0,-0.42742 -2.98431,1.19066 -3.38869,1.83734 -0.40502,0.64774 0.26955,0.4598 1.87945,-0.5236 z"
       id="path58"
       inkscape:connector-curvature="0" />
    <path
       style="fill:#000080;stroke-width:0.44549268"
       d="m 234.16429,760.45298 c -0.1751,-3.00043 -0.24582,-16.53205 -0.15715,-30.07027 0.15266,-23.30981 0.2057,-24.66352 1.00027,-25.53128 2.44429,-2.66942 8.79946,-3.01931 13.50565,-0.74358 3.75819,1.81732 12.71163,7.80778 15.5436,10.39975 1.98182,1.81386 2.29613,2.30313 1.89697,2.95288 -0.98928,1.61035 -16.88616,9.44101 -21.0288,10.35859 -2.87526,0.63686 -3.77121,1.16847 -4.30412,2.55382 -0.24772,0.64397 -0.63906,7.65725 -0.86966,15.58506 -0.54106,18.60194 -0.43474,17.88791 -2.83462,19.03615 -1.05093,0.50282 -2.02844,0.91422 -2.17228,0.91422 -0.14382,0 -0.40477,-2.4549 -0.57986,-5.45534 z m 6.50161,-33.71458 c 0,-0.10742 -0.20164,-0.31849 -0.44811,-0.46904 -0.24645,-0.15054 -0.4481,-0.0626 -0.4481,0.19531 0,0.25797 0.20165,0.46904 0.4481,0.46904 0.24647,0 0.44811,-0.0879 0.44811,-0.19531 z m 7.16972,-2.24061 c 0.83514,-0.60898 1.35914,-1.10723 1.16444,-1.10723 -0.58932,0 -2.95687,1.49495 -2.95687,1.86706 0,0.50901 0.12508,0.45599 1.79243,-0.75983 z"
       id="path60"
       inkscape:connector-curvature="0" />
    <path
       style="fill:#000080;stroke-width:0.44549268"
       d="m 234.1672,760.92577 c -0.17249,-2.7404 -0.24279,-16.2624 -0.15624,-30.04888 0.13482,-21.4706 0.25381,-25.18144 0.82955,-25.86873 2.03888,-2.43392 7.87101,-3.15607 12.29032,-1.52183 4.9184,1.81879 19.07719,11.86283 19.07719,13.53307 0,0.34817 -0.95783,1.23755 -2.12852,1.97638 -3.43137,2.1656 -14.59565,7.40838 -17.90259,8.40712 -4.35507,1.31529 -5.1768,1.79959 -5.59147,3.2954 -0.20258,0.73077 -0.56759,7.90565 -0.81113,15.94416 -0.24354,8.03852 -0.55511,15.26383 -0.69238,16.05626 -0.1936,1.11755 -0.64307,1.63917 -2.0036,2.32519 -0.9647,0.48642 -1.9438,0.88441 -2.17577,0.88441 -0.23196,0 -0.56288,-2.24215 -0.73536,-4.98255 z m 14.15338,-36.9292 c 0.56201,-0.68206 0.46728,-0.67383 -0.82104,0.0713 -0.80099,0.46329 -1.45635,1.00569 -1.45635,1.20533 0,0.50313 1.50696,-0.34162 2.27739,-1.27663 z"
       id="path62"
       inkscape:connector-curvature="0" />
    <path
       style="fill:#000080;stroke-width:0.50507629"
       d=""
       id="path64"
       inkscape:connector-curvature="0"
       transform="translate(53.643411,569.625)" />
    <path
       style="fill:#000080;stroke-width:0.44549268"
       d="m 234.16884,761.81156 c -0.16896,-2.25322 -0.23819,-15.78983 -0.15384,-30.08136 l 0.15335,-25.9846 1.02421,-1.07725 c 2.10537,-2.21438 7.65947,-2.7643 11.93827,-1.18202 4.9184,1.81879 19.07719,11.86283 19.07719,13.53307 0,0.34817 -0.95783,1.24389 -2.12852,1.99046 -2.60495,1.66126 -13.88261,7.08611 -16.80402,8.08318 -6.20501,2.11775 -6.09313,2.05782 -6.57424,3.52144 -0.25536,0.77688 -0.67311,8.08912 -0.92833,16.24943 -0.25521,8.16031 -0.57902,15.38954 -0.71958,16.06496 -0.17785,0.85468 -0.78356,1.49428 -1.99228,2.10374 -0.9552,0.48164 -1.92759,0.87571 -2.16086,0.87571 -0.23329,0 -0.56239,-1.84354 -0.73135,-4.09676 z m 14.15174,-37.80499 c 0.57809,-0.69249 0.55127,-0.71679 -0.29776,-0.26981 -0.51319,0.27017 -1.21896,0.83369 -1.56838,1.25225 -0.57808,0.6925 -0.55126,0.7168 0.29777,0.26981 0.51318,-0.27017 1.21895,-0.83369 1.56837,-1.25225 z"
       id="path66"
       inkscape:connector-curvature="0" />
    <path
       style="fill:#000080;stroke-width:0.44549268"
       d="m 234.17221,762.25445 c -0.16535,-2.00962 -0.23386,-15.54627 -0.15225,-30.08143 l 0.14839,-26.42756 1.02421,-1.07718 c 2.06441,-2.17116 7.70061,-2.76823 11.75573,-1.24534 5.57627,2.09417 19.25973,11.78572 19.25973,13.64105 0,1.36995 -14.69699,8.88226 -21.01601,10.74224 -1.72957,0.5091 -3.4311,1.20873 -3.78118,1.55474 -0.94965,0.9386 -1.14487,3.12115 -1.64478,18.38872 -0.25125,7.67313 -0.57189,14.50376 -0.71254,15.17918 -0.17795,0.85459 -0.78387,1.49435 -1.99246,2.10374 -0.9552,0.48164 -1.92831,0.87571 -2.16246,0.87571 -0.23415,0 -0.56103,-1.64424 -0.72638,-3.65387 z m 14.36469,-38.46757 c 0.21716,-0.34729 0.0407,-0.34594 -0.62225,0.004 -0.50894,0.2692 -1.06172,0.70757 -1.22842,0.97416 -0.21716,0.34728 -0.0407,0.34593 0.62225,-0.004 0.50893,-0.2692 1.06173,-0.70757 1.22842,-0.97416 z"
       id="path68"
       inkscape:connector-curvature="0" />
    <path
       style="fill:#000080;stroke-width:0.44549268"
       d="m 234.17562,762.69735 c -0.16128,-1.76604 -0.2289,-15.30267 -0.15026,-30.08141 l 0.14299,-26.87043 1.04,-1.0938 c 2.31933,-2.43935 8.58537,-2.73772 13.21574,-0.6293 5.81886,2.6496 17.78393,11.39343 17.78393,12.99614 0,0.34397 -1.15949,1.35856 -2.57662,2.25466 -3.66787,2.31931 -14.65339,7.42657 -18.38176,8.54585 -1.73624,0.52123 -3.45319,1.28264 -3.81545,1.69202 -0.96284,1.08808 -1.1527,3.22893 -1.67645,18.90296 -0.26046,7.79492 -0.58063,14.52471 -0.71149,14.95507 -0.22103,0.7269 -3.18276,2.53921 -4.14966,2.53921 -0.23525,0 -0.55968,-1.44493 -0.72097,-3.21097 z m 13.91176,-38.76269 c -0.1502,-0.14847 -0.62118,0.0903 -1.04662,0.5305 -0.73948,0.76522 -0.72745,0.7771 0.2731,0.26993 0.57565,-0.29178 0.92373,-0.65198 0.77352,-0.80043 z"
       id="path70"
       inkscape:connector-curvature="0" />
    <path
       style="fill:#000080;stroke-width:0.44549268"
       d="m 234.17892,763.14024 c -0.15664,-1.52245 -0.2231,-15.05902 -0.14769,-30.08129 l 0.13712,-27.3132 1.04,-1.09393 c 1.44154,-1.51629 4.40491,-2.23902 8.10713,-1.97721 2.52886,0.17883 3.71869,0.55532 6.58612,2.084 6.85178,3.6528 16.30642,10.77061 16.30642,12.2761 0,0.33508 -1.15949,1.34248 -2.57662,2.23867 -3.53108,2.23303 -14.43825,7.32957 -18.26037,8.53243 -1.72521,0.54294 -3.46546,1.35862 -3.86722,1.81261 -0.99884,1.12869 -1.20403,3.38924 -1.74628,19.2385 -0.25836,7.55134 -0.57762,14.08183 -0.70947,14.51219 -0.22309,0.72814 -3.18593,2.53921 -4.15403,2.53921 -0.23666,0 -0.55845,-1.24564 -0.71511,-2.76808 z m 14.10481,-39.11651 c 0,-0.12179 -0.4033,-0.008 -0.89622,0.25261 -0.49292,0.26074 -0.89621,0.57371 -0.89621,0.69551 0,0.12179 0.40329,0.008 0.89621,-0.25261 0.49292,-0.26073 0.89622,-0.57371 0.89622,-0.69551 z"
       id="path72"
       inkscape:connector-curvature="0" />
    <path
       style="fill:#000080;stroke-width:0.44549268"
       d="m 234.22926,763.85349 c -0.15673,-1.13017 -0.28496,-14.66205 -0.28496,-30.07087 v -28.01604 l 1.54946,-1.34462 c 3.07779,-2.67089 9.04235,-2.52378 14.44458,0.35623 6.75451,3.60094 16.26968,10.7534 16.26968,12.22974 0,0.32035 -0.93055,1.21525 -2.06789,1.98865 -2.74973,1.86985 -14.84159,7.57042 -18.71183,8.82149 -1.69372,0.54749 -3.43538,1.34721 -3.87038,1.77715 -1.01047,0.99871 -1.22801,3.39583 -1.80835,19.92605 -0.25228,7.18594 -0.56727,13.41748 -0.69998,13.84784 -0.22153,0.71844 -3.18323,2.53921 -4.13032,2.53921 -0.22278,0 -0.53328,-0.92467 -0.69001,-2.05483 z m 13.82724,-39.57207 c 0.15699,-0.25106 -0.0229,-0.32531 -0.42166,-0.17406 -0.77631,0.29443 -0.91834,0.61188 -0.27377,0.61188 0.23191,0 0.54485,-0.19702 0.69543,-0.43782 z"
       id="path74"
       inkscape:connector-curvature="0" />
    <path
       style="fill:#000080;stroke-width:0.44549268"
       d="m 234.23191,764.24747 c -0.15276,-0.91347 -0.27997,-14.44535 -0.28269,-30.07087 l -0.005,-28.41002 1.55879,-1.35272 c 1.84925,-1.60476 3.74155,-2.02789 7.77933,-1.73946 3.55737,0.2541 6.28311,1.50998 13.20239,6.08299 5.11113,3.37797 9.72321,7.27869 9.72321,8.22351 0,0.32327 -0.55453,1.02456 -1.2323,1.55843 -1.7985,1.41667 -15.96847,8.17491 -19.43443,9.26909 -1.63157,0.51506 -3.29842,1.1767 -3.7041,1.47028 -1.12807,0.81638 -1.51542,4.52888 -2.05476,19.69337 -0.27083,7.61466 -0.611,14.15029 -0.75595,14.52362 -0.25182,0.64861 -3.25653,2.41263 -4.10949,2.41263 -0.22403,0 -0.53231,-0.74738 -0.68507,-1.66085 z"
       id="path76"
       inkscape:connector-curvature="0" />
    <path
       style="fill:#0000ff;stroke-width:0.44549268"
       d="m 234.22436,764.52428 c -0.15403,-0.76122 -0.28006,-14.28659 -0.28006,-30.05636 v -28.67231 l 1.1596,-1.14611 c 1.68324,-1.66366 3.83061,-2.21203 7.74935,-1.97895 2.71253,0.16134 4.01246,0.50276 6.32669,1.6617 6.22465,3.11723 17.02808,11.14214 17.02808,12.64865 0,0.32327 -0.55453,1.02125 -1.2323,1.55108 -1.89802,1.48375 -14.84505,7.70802 -19.33615,9.29583 -3.27224,1.15689 -4.09317,1.63254 -4.46478,2.58691 -0.62224,1.598 -0.88562,5.27604 -1.42413,19.88692 -0.25373,6.88438 -0.57977,12.8221 -0.72453,13.19495 -0.25195,0.64897 -3.2573,2.41173 -4.11176,2.41173 -0.22546,0 -0.53597,-0.62281 -0.69001,-1.38404 z"
       id="path78"
       inkscape:connector-curvature="0" />
    <path
       style="fill:#00ffff;stroke-width:0.44549268"
       d="M 155.30148,810.16137 C 105.76323,780.93167 65.189005,756.87463 65.136529,756.70129 65.021726,756.32205 245.06002,650.15713 245.7708,650.18494 c 0.47911,0.0187 179.8852,105.72599 180.48146,106.34086 0.25728,0.26531 -178.56123,105.98743 -180.23502,106.55958 -0.35542,0.1215 -41.17751,-23.69431 -90.71576,-52.92401 z m 93.43035,-3.72881 c 5.29887,-0.3699 10.4409,-0.77074 11.42674,-0.89076 7.28707,-0.88716 16.9859,-2.22646 24.19779,-3.34145 7.82974,-1.21051 8.83817,-1.47323 12.547,-3.26884 6.82581,-3.30466 7.47785,-3.93254 10.49682,-10.10795 3.78304,-7.73836 4.12259,-9.08889 4.3964,-17.48596 0.26788,-8.21553 0.0587,-8.97985 -2.14874,-7.85162 -0.7044,0.36003 -2.75101,0.85158 -4.54801,1.09234 -4.44123,0.59503 -33.78602,1.32175 -53.23124,1.31828 l -15.90781,-0.003 1.79242,-1.00184 1.79244,-1.00183 0.0981,-3.75199 c 0.22529,-8.61724 1.11003,-26.46556 1.39109,-28.06339 0.32931,-1.87199 1.81461,-3.30602 3.68713,-3.55984 1.44152,-0.1954 6.50688,-2.43413 13.33122,-5.892 6.93026,-3.51154 9.12674,-4.93881 8.95521,-5.81911 -0.18603,-0.95476 -4.48146,-4.31008 -11.16661,-8.72267 -9.84552,-6.49861 -12.66833,-7.33084 -17.93643,-5.28801 -2.65488,1.02948 -3.25886,1.46098 -3.78413,2.70349 -0.51337,1.21419 -0.62502,6.742 -0.62502,30.94494 v 29.46663 h -1.60993 c -0.88546,0 -3.96059,-0.21869 -6.83364,-0.486 -5.06447,-0.47117 -5.42957,-0.44417 -11.9777,0.88578 -6.77653,1.37635 -11.61643,1.87723 -26.18188,2.70958 -13.23973,0.75659 -16.0112,1.37279 -17.13455,3.80961 -0.40563,0.87988 -0.38215,1.3245 0.10994,2.08244 0.34413,0.53003 2.12354,3.75392 3.95424,7.1642 4.48617,8.3569 6.4993,11.0138 11.93414,15.75047 5.74308,5.00533 5.67093,4.95744 9.20216,6.10568 7.70624,2.50578 10.19399,2.82229 24.86995,3.1641 7.64022,0.17793 15.10121,0.25319 16.57997,0.16723 1.47875,-0.0859 7.02408,-0.45895 12.32294,-0.82885 z"
       id="path80"
       inkscape:connector-curvature="0" />
  </g>
</svg>
