<?xml version="1.0" encoding="UTF-8" standalone="no"?>
<!-- Created with Inkscape (http://www.inkscape.org/) -->

<svg
   xmlns:dc="http://purl.org/dc/elements/1.1/"
   xmlns:cc="http://creativecommons.org/ns#"
   xmlns:rdf="http://www.w3.org/1999/02/22-rdf-syntax-ns#"
   xmlns:svg="http://www.w3.org/2000/svg"
   xmlns="http://www.w3.org/2000/svg"
   xmlns:sodipodi="http://sodipodi.sourceforge.net/DTD/sodipodi-0.dtd"
   xmlns:inkscape="http://www.inkscape.org/namespaces/inkscape"
   width="210mm"
   height="297mm"
   viewBox="0 0 210 297"
   version="1.1"
   id="svg8"
   inkscape:version="0.92.2 5c3e80d, 2017-08-06"
   sodipodi:docname="boat.svg">
  <defs
     id="defs2" />
  <sodipodi:namedview
     id="base"
     pagecolor="#ffffff"
     bordercolor="#666666"
     borderopacity="1.0"
     inkscape:pageopacity="0.0"
     inkscape:pageshadow="2"
     inkscape:zoom="0.35"
     inkscape:cx="-111.42857"
     inkscape:cy="560"
     inkscape:document-units="mm"
     inkscape:current-layer="layer1"
     showgrid="false"
     inkscape:window-width="1440"
     inkscape:window-height="759"
     inkscape:window-x="0"
     inkscape:window-y="1"
     inkscape:window-maximized="1" />
  <metadata
     id="metadata5">
    <rdf:RDF>
      <cc:Work
         rdf:about="">
        <dc:format>image/svg+xml</dc:format>
        <dc:type
           rdf:resource="http://purl.org/dc/dcmitype/StillImage" />
        <dc:title></dc:title>
      </cc:Work>
    </rdf:RDF>
  </metadata>
  <g
     inkscape:label="Layer 1"
     inkscape:groupmode="layer"
     id="layer1">
    <rect
       style="fill:#00e800;fill-opacity:1;stroke:#0000f8;stroke-width:0.26458332;stroke-opacity:1"
       id="rect817"
       width="429.08301"
       height="256.51001"
       x="-135.31548"
       y="-12.940475" />
    <path
       style="fill:#001500;fill-opacity:1;stroke:#0000f8;stroke-width:0.26458332;stroke-opacity:1"
       id="path821"
       d="m -45.482713,131.29491 c 2.755955,3.91684 6.417336,7.04371 9.931233,10.25094 4.856133,4.28588 9.890582,8.37152 15.005236,12.34437 5.216929,4.14486 10.464434,8.25237 15.62526,12.46719 3.7967073,2.99647 7.6849112,5.8638 11.4482955,8.90153 3.0652093,2.19053 5.8810205,4.6813 9.0323145,6.7514 2.045401,1.33258 4.13438,2.56946 5.977892,4.17754 1.630259,1.48356 3.12316,3.10653 4.657873,4.6859 2.252315,2.28418 4.445147,4.62273 6.711155,6.89288 0.894189,1.06818 2.068116,1.87772 2.737456,3.11787 0,0 -9.950774,5.29539 -9.950774,5.29539 v 0 c 0.05091,-0.023 0.174986,-0.0179 0.152739,-0.0692 -0.462923,-1.06684 -1.674005,-1.66178 -2.281673,-2.62173 -2.263273,-2.27727 -4.393008,-4.68424 -6.742969,-6.87663 -1.552049,-1.53574 -3.106578,-3.07116 -4.705989,-4.5575 -1.801807,-1.54962 -3.7996899,-2.82336 -5.7630048,-4.15686 -3.1075503,-2.15484 -5.92156459,-4.68456 -8.9894067,-6.89473 -3.7094526,-3.05664 -7.5471485,-5.95105 -11.2208845,-9.05183 -5.108202,-4.26771 -10.358357,-8.36422 -15.622587,-12.43686 -5.094427,-4.0276 -10.149644,-8.11473 -15.002073,-12.43249 -3.636042,-3.24302 -7.376102,-6.38277 -10.608884,-10.04422 0,0 9.608791,-5.743 9.608791,-5.743 z"
       inkscape:connector-curvature="0" />
    <path
       style="fill:#001500;fill-opacity:1;stroke:#0000f8;stroke-width:0.26458332;stroke-opacity:1"
       id="path823"
       d="m 32.963381,197.6948 c 4.853332,0.20217 9.71382,0.19387 14.570665,0.21893 7.886258,0.059 15.772649,0.047 23.659036,0.0393 7.561493,0.0192 15.116207,-0.35459 22.661811,-0.80562 6.716407,-0.26248 13.414517,-0.82016 20.123217,-1.21546 4.87526,-0.258 9.75794,-0.34138 14.63921,-0.38151 4.39905,0.0389 8.7881,0.0417 13.17815,-0.25055 2.71568,-0.20013 5.42698,-0.45765 8.14857,-0.56006 0.67724,-0.0291 1.35429,-0.0546 2.03202,-0.0667 0,0 -9.0507,6.59713 -9.0507,6.59713 v 0 c -0.64562,0.008 -1.29131,0.009 -1.93677,0.0276 -2.63802,0.0986 -5.27309,0.25848 -7.90827,0.41352 -4.39711,0.23051 -8.79504,0.16932 -13.19702,0.19371 -4.82252,0.0249 -9.64614,0.0673 -14.46343,0.31719 -6.651286,0.34136 -13.295849,0.80093 -19.9498,1.09242 -7.540733,0.43291 -15.093042,0.78519 -22.64829,0.72051 -7.922411,-0.008 -15.844827,-0.0194 -23.767111,0.0393 -5.057841,0.0257 -10.118598,0.0237 -15.173327,0.21893 0,0 9.082039,-6.59849 9.082039,-6.59849 z"
       inkscape:connector-curvature="0" />
    <path
       style="fill:#001500;fill-opacity:1;stroke:#0000f8;stroke-width:0.26458332;stroke-opacity:1"
       id="path825"
       d="m 144.09077,201.8418 c 4.44866,-10.55348 10.90671,-20.15267 17.20277,-29.67353 4.15161,-6.30506 8.53362,-12.46477 12.45977,-18.91625 1.29617,-2.12987 2.54001,-4.2912 3.8267,-6.42681 2.43287,-3.94566 4.81938,-7.91464 7.08156,-11.9606 0.94722,-1.8067 2.13486,-3.46694 3.23734,-5.17792 0.66162,-1.0711 1.42237,-2.06837 2.22925,-3.03232 0,0 10.29003,-4.34257 10.29003,-4.34257 v 0 c -0.84024,0.91872 -1.65501,1.85864 -2.33751,2.904 -1.1297,1.73511 -2.349,3.41188 -3.39943,5.19468 -2.49037,4.08109 -4.92933,8.19261 -7.54804,12.19449 -2.22436,3.52729 -4.36285,7.11103 -6.68027,10.57894 -3.40828,5.10033 -7.01665,10.06712 -10.43244,15.1625 -3.86961,5.84281 -7.69001,11.66417 -11.04216,17.82576 -1.61883,2.97558 -2.9253,5.49896 -4.1419,8.60382 -0.28507,0.72753 -0.48018,1.48717 -0.72027,2.23075 0,0 -10.0254,4.83506 -10.0254,4.83506 z"
       inkscape:connector-curvature="0" />
    <path
       style="fill:#001500;fill-opacity:1;stroke:#0000f8;stroke-width:0.26458332;stroke-opacity:1"
       id="path827"
       d="m -39.608045,128.14718 c 10.819799,0.52325 21.656347,0.57901 32.4865013,0.63174 15.4510124,0.0325 30.9012977,-0.0844 46.3463977,0.40872 5.983685,0.1172 11.964419,0.59692 17.950307,0.46868 5.636525,-0.26412 11.221596,-1.08597 16.83435,-1.61967 5.933707,-0.59036 11.801115,-1.67923 17.659151,-2.76706 5.922987,-0.92145 11.834618,-1.93692 17.790618,-2.62552 3.14282,-0.17108 6.2304,-0.66433 9.31721,-1.24373 3.18266,-0.51977 6.35841,-1.08998 9.51995,-1.72734 3.94439,-0.75837 7.95597,-1.00337 11.94776,-1.38403 4.52207,-0.40434 9.03329,-0.88458 13.56799,-1.13274 4.27339,-0.18608 8.55179,-0.21552 12.82855,-0.24914 2.96002,-0.16405 5.88214,0.0451 8.82151,0.34579 4.13985,0.76676 8.25655,1.64531 12.40988,2.34888 3.04241,0.79718 6.15605,1.34805 9.169,2.25111 0,0 -9.10445,6.20824 -9.10445,6.20824 v 0 c -2.90161,-0.91791 -5.87026,-1.637 -8.83609,-2.31222 -4.19766,-0.73468 -8.38486,-1.56406 -12.61144,-2.11122 -2.87282,-0.27604 -5.74277,-0.42726 -8.63204,-0.3435 -4.24439,5.3e-4 -8.49071,0.0198 -12.73016,0.249 -4.53069,0.27459 -9.04105,0.74735 -13.5586,1.17883 -3.99476,0.39741 -8.01148,0.68911 -11.94732,1.51919 -3.19907,0.6331 -6.40545,1.22985 -9.61913,1.78416 -3.04029,0.56028 -6.10196,0.85633 -9.18724,1.04751 -5.859045,0.63063 -11.69048,1.51636 -17.498745,2.50499 -5.937292,1.12236 -11.883758,2.2699 -17.90646,2.83058 -5.628436,0.51833 -11.236135,1.27025 -16.88456,1.55321 -5.830731,0.0567 -11.630247,-0.49445 -17.441659,-0.91523 -15.166207,-0.90646 -30.35557729,-1.12955 -45.547785,-0.93248 -11.410047,0.0548 -22.824548,0.13262 -34.225536,0.63174 0,0 9.08204,-6.59849 9.08204,-6.59849 z"
       inkscape:connector-curvature="0" />
    <path
       style="fill:#001500;fill-opacity:1;stroke:#0000f8;stroke-width:0.26458332;stroke-opacity:1"
       id="path829"
       d="m 20.112192,130.41504 c 4.360196,1.34775 7.629024,4.80061 10.885624,7.82388 6.340414,6.25769 12.455895,12.75099 18.364493,19.41788 4.174191,4.69107 7.955793,9.69172 11.764751,14.67537 3.640082,5.13856 7.465856,10.13613 11.329072,15.10742 1.464693,1.72982 2.779725,3.5793 4.198154,5.34547 0.807844,1.00589 1.69686,1.91034 2.468906,2.94338 0.552638,0.98247 0.366046,0.49157 0.609561,1.45282 0,0 -9.978337,5.12965 -9.978337,5.12965 v 0 c 0.240673,-0.50167 0.178607,-0.18748 -0.163182,-0.94683 -0.731869,-1.04485 -1.565757,-2.0026 -2.30768,-3.04034 -1.304864,-1.82513 -2.491245,-3.73902 -3.934899,-5.46441 -3.812053,-5.00856 -7.595912,-10.03795 -11.309009,-15.12046 -3.809195,-4.94047 -7.59203,-9.89974 -11.515055,-14.75146 -5.751523,-6.76152 -11.795559,-13.27892 -18.362477,-19.26197 -3.19294,-2.71384 -6.728431,-6.3191 -11.131962,-6.71191 0,0 9.08204,-6.59849 9.08204,-6.59849 z"
       inkscape:connector-curvature="0" />
    <path
       style="fill:#001500;fill-opacity:1;stroke:#0000f8;stroke-width:0.26458332;stroke-opacity:1"
       id="path831"
       d="m 74.653099,127.20539 c 4.034264,4.60673 7.785709,9.45043 11.579686,14.25403 5.637625,7.54022 11.121194,15.19244 16.789475,22.71029 2.41849,3.16681 4.99944,6.17734 7.11136,9.5619 1.71517,2.94368 3.83565,5.57805 6.0199,8.17594 1.41669,1.94211 2.99555,3.79058 4.22734,5.85957 0.67176,1.03875 1.5103,1.94961 2.2488,2.93693 3.13121,4.28535 -1.81874,2.70854 -9.65825,6.90313 0,0 9.14519,-6.29218 9.14519,-6.29218 v 0 c -10.68844,7.54606 -6.61662,8.77229 -9.12323,5.11011 -0.77063,-1.01606 -1.58744,-2.00411 -2.24828,-3.09759 -1.13153,-2.05114 -2.59732,-3.90832 -3.97956,-5.79253 -2.15065,-2.68159 -4.32827,-5.32895 -6.05741,-8.31709 -2.09433,-3.34057 -4.621826,-6.37686 -6.714463,-9.72242 C 88.790573,161.68847 83.361804,154.01432 77.505882,146.682 73.62894,142.00584 69.7921,137.16913 65.165535,133.2062 c 0,0 9.487564,-6.00081 9.487564,-6.00081 z"
       inkscape:connector-curvature="0" />
    <path
       style="fill:#001500;fill-opacity:1;stroke:#0000f8;stroke-width:0.26458332;stroke-opacity:1"
       id="path833"
       d="m 117.75632,123.79693 c 1.93519,3.23311 4.97557,5.63572 7.76427,8.10314 3.25483,2.8332 6.46742,5.72313 9.16305,9.10161 1.87505,2.66091 3.87631,5.21354 5.92826,7.74037 2.82017,3.33525 5.31835,6.92402 8.01272,10.35954 2.02293,2.38043 4.29664,4.53151 6.5515,6.68828 1.4073,1.3744 2.81525,2.76509 4.12889,4.23129 0.80782,0.88245 1.22521,2.02826 2.0723,2.87921 0.74651,0.88533 1.73628,1.4989 2.51054,2.35983 0,0 -9.55649,5.8152 -9.55649,5.8152 v 0 c -0.81311,-0.82032 -1.80856,-1.44971 -2.52629,-2.36696 -0.77975,-0.90798 -1.32558,-1.96844 -2.04554,-2.91815 -1.26867,-1.45588 -2.59256,-2.86606 -3.94592,-4.24333 -2.25513,-2.21766 -4.54588,-4.41248 -6.50517,-6.90502 -2.5991,-3.48733 -5.12486,-7.042 -7.98059,-10.32691 -2.12226,-2.49129 -4.24893,-4.96977 -6.04618,-7.71299 -2.5487,-3.38262 -5.61439,-6.31262 -8.8294,-9.06183 -2.93758,-2.54459 -6.07056,-4.97393 -8.39223,-8.12337 0,0 9.69628,-5.61991 9.69628,-5.61991 z"
       inkscape:connector-curvature="0" />
    <path
       style="fill:#001500;fill-opacity:1;stroke:#0000f8;stroke-width:0.26458332;stroke-opacity:1"
       id="path835"
       d="m 70.572783,126.41116 c -0.357064,-3.45625 -1.278083,-6.8184 -1.896735,-10.23035 -0.591203,-3.26057 -1.107739,-6.5343 -1.685623,-9.79726 C 65.021793,95.278288 62.882589,84.200001 60.342086,73.210483 59.297601,68.944759 58.028154,64.71346 57.405404,60.355149 57.064515,57.969446 57.014816,56.416267 56.859214,53.990575 56.627847,46.951463 56.603611,39.908133 56.443625,32.867166 c -0.0707,-2.771376 -0.145648,-5.541976 -0.169412,-8.314149 0.126886,-1.324352 -0.197308,-2.583407 -0.432266,-3.868446 -0.805812,-4.642349 -2.150356,-0.998934 9.769729,-6.139228 0.212103,-0.09147 0.110146,0.4501 0.19482,0.665006 0.09882,0.250813 0.235826,0.484847 0.35374,0.72727 2.098601,3.791825 6.318399,5.684887 9.955451,7.689494 7.37553,3.926748 15.212359,6.851876 22.876454,10.143756 6.156879,2.704375 12.351459,5.321797 18.385879,8.292115 1.91114,1.128266 3.96695,2.047111 5.48035,3.706085 0.20612,0.48392 0.39268,0.711822 0.2451,1.277117 -0.21234,0.813324 -2.00068,2.609231 -2.55388,3.303074 -1.58958,2.203551 -3.42009,4.208855 -5.34295,6.121951 -2.95102,2.762001 -5.74709,5.671362 -8.41489,8.70645 -4.08839,4.722254 -8.311586,9.322377 -12.533788,13.925119 -2.350495,2.659509 -4.923999,5.099023 -7.477141,7.558926 -1.179171,1.174734 -2.584976,2.063671 -3.787277,3.209152 -0.830982,0.869019 -1.512115,1.86149 -2.365253,2.709932 -0.752695,0.780031 -1.515962,1.560494 -2.215664,2.389838 -0.08249,0.132265 -0.16497,0.264528 -0.247456,0.396793 0,0 -10.23062,4.592635 -10.23062,4.592635 v 0 c 0.07505,-0.16102 0.150095,-0.322041 0.225142,-0.483058 0.517742,-1.043493 1.428821,-1.709499 2.105485,-2.637229 0.906833,-0.814827 1.755973,-1.65985 2.414363,-2.693726 0.498596,-0.52791 1.00471,-1.127479 1.577718,-1.575924 0.755618,-0.59136 1.685795,-0.969142 2.315967,-1.727803 2.725205,-2.414987 5.342249,-4.959964 7.83188,-7.618132 4.307412,-4.544256 8.562692,-9.133367 12.611024,-13.910233 2.523871,-3.009522 5.13299,-5.950098 8.00248,-8.636781 1.94478,-1.864847 3.84927,-3.780276 5.42058,-5.978945 0.49749,-0.686718 1.69487,-2.544903 2.44078,-2.981698 0.0947,-0.05544 0.22601,0.0158 0.32825,-0.024 0.0467,-0.01818 0.0482,-0.0879 0.0723,-0.131861 -1.33087,-1.548341 -3.26696,-2.434637 -4.91337,-3.589861 C 102.57164,44.779816 96.497118,42.142095 90.454042,39.461662 82.72297,36.16865 74.863065,33.158022 67.358143,29.358756 63.37392,27.321229 58.959355,25.422342 56.51479,21.461693 56.112695,20.756967 55.687973,20.057225 55.780209,19.99483 c 9.888519,-6.689381 9.234596,-9.344537 9.93172,-4.566286 0.248769,1.359745 0.643948,2.683392 0.46414,4.084153 -0.04633,2.838767 -0.158125,5.675131 -0.231391,8.513303 -0.155075,7.041597 -0.18995,14.091893 0.248883,21.125219 0.502515,6.497119 1.562227,12.896615 3.173584,19.217259 2.209932,11.087997 3.918778,22.276951 6.440527,33.304202 1.424451,6.55486 2.822938,13.11097 4.629169,19.57421 0,0 -9.864058,5.16426 -9.864058,5.16426 z"
       inkscape:connector-curvature="0" />
    <path
       style="fill:#001500;fill-opacity:1;stroke:#0000f8;stroke-width:0.26458332;stroke-opacity:1"
       id="path837"
       d="m 78.328609,112.71935 c -0.05927,1.6339 -0.05835,3.26944 -0.03965,4.90408 0.133975,1.16689 0.343104,2.34592 0.659667,3.47961 0.292913,0.90763 0.641221,1.75464 1.092407,2.59258 0.685972,1.21328 1.343212,2.10693 1.663636,3.4985 0,0 -9.816653,5.27829 -9.816653,5.27829 v 0 c -0.263689,-1.2108 -0.943226,-2.11204 -1.548773,-3.1775 -0.542626,-0.88763 -0.893116,-1.8189 -1.214363,-2.80468 -0.415541,-1.22234 -0.517618,-2.54562 -0.759082,-3.8107 0.01834,-1.62116 0.02069,-3.24328 -0.03965,-4.86368 0,0 10.002456,-5.0965 10.002456,-5.0965 z"
       inkscape:connector-curvature="0" />
  </g>
</svg>
