<?xml version="1.0" standalone="no"?>
<!DOCTYPE svg PUBLIC "-//W3C//DTD SVG 20010904//EN"
 "http://www.w3.org/TR/2001/REC-SVG-20010904/DTD/svg10.dtd">
<svg version="1.0" xmlns="http://www.w3.org/2000/svg"
 width="552.000000pt" height="294.000000pt" viewBox="0 0 552.000000 294.000000"
 preserveAspectRatio="xMidYMid meet">
<metadata>
Created by potrace 1.15, written by Peter Selinger 2001-2017
</metadata>
<g transform="translate(0.000000,294.000000) scale(0.100000,-0.100000)"
fill="#000000" stroke="none">
<path d="M0 2672 l0 -268 44 -21 c136 -66 199 -210 157 -356 -18 -63 -95 -149
-156 -174 l-45 -18 0 -551 0 -551 51 -23 c138 -65 201 -236 139 -378 -26 -59
-101 -134 -156 -154 l-34 -12 0 -83 0 -83 114 0 c98 0 120 3 150 20 71 43 201
42 274 -1 29 -17 54 -19 213 -19 l180 0 -37 37 c-54 54 -78 115 -79 198 0 87
35 166 100 223 44 39 133 76 148 63 15 -14 -5 -40 -38 -51 -161 -53 -218 -261
-107 -390 52 -61 97 -80 190 -80 70 0 83 3 125 30 29 18 60 50 79 80 26 43 61
70 73 58 9 -9 -40 -97 -73 -130 l-36 -38 153 0 153 0 -3 48 c-1 26 -2 58 -1
71 2 23 3 24 22 6 12 -11 20 -31 20 -49 0 -58 10 -76 41 -76 l28 0 -14 41
c-28 78 -85 129 -172 155 -102 30 -219 -19 -271 -114 -23 -41 -58 -70 -70 -58
-13 13 45 111 90 151 110 99 272 101 382 4 44 -39 96 -126 96 -161 0 -17 13
-18 184 -18 208 0 196 -5 196 86 0 51 1 54 26 54 25 0 26 -1 22 -70 l-3 -70
117 0 c100 0 122 3 152 20 71 43 201 42 274 -1 29 -17 54 -19 213 -19 l180 0
-37 37 c-54 54 -78 115 -79 198 0 87 35 166 100 223 44 39 133 76 148 63 15
-14 -5 -40 -38 -51 -161 -53 -218 -261 -107 -390 52 -61 97 -80 190 -80 70 0
83 3 125 30 29 18 60 50 79 80 26 43 61 70 73 58 9 -9 -40 -97 -73 -130 l-36
-38 153 0 153 0 -3 48 c-1 26 -2 58 -1 71 2 23 3 24 22 6 12 -11 20 -31 20
-49 0 -58 10 -76 41 -76 l28 0 -14 41 c-28 78 -85 129 -172 155 -102 30 -219
-19 -271 -114 -23 -41 -58 -70 -70 -58 -13 13 45 111 90 151 110 99 272 101
382 4 44 -39 96 -126 96 -161 0 -17 13 -18 184 -18 208 0 196 -5 196 86 0 51
1 54 26 54 25 0 26 -1 22 -70 l-3 -70 117 0 c100 0 122 3 152 20 71 43 201 42
274 -1 29 -17 54 -19 213 -19 l180 0 -37 37 c-54 54 -78 115 -79 198 0 87 35
166 100 223 44 39 133 76 148 63 15 -14 -5 -40 -38 -51 -161 -53 -218 -261
-107 -390 54 -64 98 -81 194 -78 58 2 83 7 86 17 3 9 -2 11 -17 6 -27 -8 -27
4 -1 55 16 32 20 59 20 145 l0 105 -37 0 c-52 0 -71 13 -53 35 11 13 23 15 52
11 l38 -6 0 49 c0 43 -3 50 -24 55 -19 5 -23 11 -19 27 4 14 12 19 24 16 18
-5 19 3 19 109 0 62 -6 135 -12 161 -10 37 -10 47 0 50 6 3 12 11 12 19 0 12
-8 13 -37 8 -48 -8 -102 -30 -124 -50 -18 -16 -59 -11 -59 7 0 14 88 68 130
79 19 5 47 10 63 10 27 0 36 13 17 25 -6 4 -6 15 0 31 19 48 12 84 -25 127
-19 22 -44 66 -56 96 -36 96 -13 211 60 293 33 38 44 72 16 48 -8 -7 -15 -11
-15 -9 0 2 -4 19 -9 37 -9 30 -8 34 15 42 45 17 25 25 -55 22 -68 -4 -87 0
-134 21 -111 51 -171 143 -171 262 0 80 21 139 74 199 48 54 180 116 180 84 0
-22 -13 -33 -72 -61 -86 -42 -138 -122 -138 -213 0 -130 85 -230 211 -249 49
-7 129 9 129 26 0 6 -9 8 -20 4 -12 -4 -20 -2 -20 5 0 6 9 28 20 50 16 32 20
59 20 143 l0 104 -45 6 c-55 6 -62 11 -44 33 10 12 23 14 51 10 l38 -6 0 49
c0 43 -3 50 -24 55 -19 5 -23 11 -19 27 4 14 12 19 24 16 18 -5 19 3 19 109 0
62 -6 135 -12 161 -10 37 -10 47 0 50 19 7 15 35 -5 30 -10 -3 -34 -8 -54 -11
-21 -4 -54 -18 -74 -32 -35 -24 -75 -26 -75 -3 0 26 136 89 191 89 28 0 38 13
19 25 -6 4 -6 15 0 31 18 46 12 89 -16 115 -32 30 -59 82 -75 143 l-11 46 -93
0 -93 0 15 -47 c40 -129 -26 -279 -152 -346 -62 -34 -192 -31 -260 5 -27 14
-61 37 -73 51 l-24 25 22 12 c18 10 26 7 56 -19 114 -100 298 -60 369 80 29
57 34 146 10 203 l-15 36 -103 0 -103 0 -39 -40 c-41 -42 -98 -73 -153 -83
-30 -6 -33 -5 -30 14 2 15 18 27 53 40 28 10 64 30 80 44 l30 24 -77 1 c-77 0
-78 0 -95 -32 -13 -24 -18 -54 -17 -110 1 -59 -3 -78 -14 -83 -8 -3 -18 -3
-21 1 -9 9 -7 165 3 197 l8 27 -78 0 -79 -1 30 -24 c16 -14 42 -30 57 -36 26
-11 38 -42 20 -52 -13 -9 -86 33 -127 73 l-41 40 -322 0 -322 0 0 -25 c0 -27
-29 -105 -39 -105 -3 0 -12 4 -19 9 -11 7 -11 16 2 55 9 26 16 51 16 56 0 6
-94 10 -245 10 l-245 0 0 -23 c0 -38 48 -123 85 -152 58 -43 103 -57 170 -53
33 2 77 12 97 22 43 21 87 14 67 -11 -19 -22 -58 -39 -121 -53 -146 -33 -293
60 -335 212 l-16 58 -93 0 -92 0 15 -47 c40 -129 -26 -279 -152 -346 -62 -34
-192 -31 -260 5 -27 14 -61 37 -73 51 l-24 25 22 12 c18 10 26 7 56 -19 114
-100 298 -60 369 80 29 57 34 146 10 203 l-15 36 -103 0 -103 0 -39 -40 c-41
-42 -98 -73 -153 -83 -30 -6 -33 -5 -30 14 2 15 18 27 53 40 28 10 64 30 80
44 l30 24 -77 1 c-77 0 -78 0 -95 -32 -13 -24 -18 -54 -17 -110 1 -59 -3 -78
-14 -83 -8 -3 -18 -3 -21 1 -9 9 -7 165 3 197 l8 27 -78 0 -79 -1 30 -24 c16
-14 42 -30 57 -36 26 -11 38 -42 20 -52 -13 -9 -86 33 -127 73 l-41 40 -322 0
-322 0 0 -25 c0 -27 -29 -105 -39 -105 -3 0 -12 4 -19 9 -11 7 -11 16 2 55 9
26 16 51 16 56 0 6 -94 10 -245 10 l-245 0 0 -23 c0 -38 48 -123 85 -152 58
-43 103 -57 170 -53 33 2 77 12 97 22 43 21 87 14 67 -11 -19 -22 -58 -39
-121 -53 -146 -33 -293 60 -335 212 l-16 58 -93 0 -92 0 15 -47 c40 -129 -26
-279 -152 -346 -62 -34 -192 -31 -260 5 -27 14 -61 37 -73 51 l-24 25 22 12
c18 10 26 7 56 -19 114 -100 298 -60 369 80 29 57 34 146 10 203 l-15 36 -103
0 -103 0 -39 -40 c-41 -42 -98 -73 -153 -83 -30 -6 -33 -5 -30 14 2 15 18 27
53 40 28 10 64 30 80 44 l30 24 -77 1 c-77 0 -78 0 -95 -32 -13 -24 -18 -54
-17 -110 1 -59 -3 -78 -14 -83 -8 -3 -18 -3 -21 1 -9 9 -7 165 3 197 l8 27
-78 0 -79 -1 30 -24 c16 -14 42 -30 57 -36 26 -11 38 -42 20 -52 -13 -9 -86
33 -127 73 -40 40 -41 40 -118 40 l-77 0 0 -268z m1573 138 c56 -21 124 -81
113 -99 -11 -17 -23 -13 -70 23 -78 59 -170 69 -260 25 -30 -14 -43 -16 -59
-7 -20 10 -20 11 4 29 65 50 182 63 272 29z m2160 0 c56 -21 124 -81 113 -99
-11 -17 -23 -13 -70 23 -78 59 -170 69 -260 25 -30 -14 -43 -16 -59 -7 -20 10
-20 11 4 29 65 50 182 63 272 29z m-3067 -105 c27 -14 61 -36 74 -50 22 -23
23 -27 8 -41 -15 -15 -19 -14 -44 10 -49 44 -93 61 -169 61 -59 0 -78 -4 -118
-28 -170 -100 -163 -341 12 -429 30 -16 65 -28 78 -28 18 0 23 -5 23 -25 0
-24 -2 -26 -37 -19 -97 17 -179 82 -221 172 -21 47 -24 65 -20 131 5 84 20
121 75 182 87 96 220 121 339 64z m1304 4 c90 -40 157 -130 167 -224 5 -50 4
-55 -14 -55 -15 0 -21 11 -31 59 -39 188 -256 263 -398 138 -61 -54 -84 -104
-84 -188 0 -47 -4 -70 -15 -79 -21 -17 -23 -13 -31 51 -26 223 200 389 406
298z m856 -4 c27 -14 61 -36 74 -50 22 -23 23 -27 8 -41 -15 -15 -19 -14 -44
10 -49 44 -93 61 -169 61 -59 0 -78 -4 -118 -28 -170 -100 -163 -341 12 -429
30 -16 65 -28 78 -28 18 0 23 -5 23 -25 0 -24 -2 -26 -37 -19 -97 17 -179 82
-221 172 -21 47 -24 65 -20 131 5 84 20 121 75 182 87 96 220 121 339 64z
m1304 4 c90 -40 157 -130 167 -224 5 -50 4 -55 -14 -55 -15 0 -21 11 -31 59
-39 188 -256 263 -398 138 -61 -54 -84 -104 -84 -188 0 -47 -4 -70 -15 -79
-21 -17 -23 -13 -31 51 -26 223 200 389 406 298z m856 -4 c27 -14 61 -36 74
-50 22 -23 23 -27 8 -41 -15 -15 -19 -14 -44 10 -49 44 -93 61 -169 61 -59 0
-78 -4 -118 -28 -170 -100 -163 -341 12 -429 30 -16 65 -28 78 -28 18 0 23 -5
23 -25 0 -24 -2 -26 -37 -19 -97 17 -179 82 -221 172 -21 47 -24 65 -20 131 5
84 20 121 75 182 87 96 220 121 339 64z m-3234 -111 c24 -79 -19 -202 -93
-268 -147 -133 -378 -83 -460 98 -25 55 -25 86 1 86 14 0 22 -10 30 -38 15
-59 61 -114 121 -146 170 -93 375 43 357 236 -7 69 27 93 44 32z m2160 0 c24
-79 -19 -202 -93 -268 -147 -133 -378 -83 -460 98 -25 55 -25 86 1 86 14 0 22
-10 30 -38 15 -59 61 -114 121 -146 170 -93 375 43 357 236 -7 69 27 93 44 32z
m-2581 -51 c30 -17 68 -48 86 -71 30 -40 70 -138 60 -149 -14 -14 -45 11 -55
45 -16 52 -73 116 -127 142 -77 37 -200 25 -256 -26 -18 -16 -59 -11 -59 6 0
13 56 50 108 71 71 29 173 21 243 -18z m2160 0 c30 -17 68 -48 86 -71 30 -40
70 -138 60 -149 -14 -14 -45 11 -55 45 -16 52 -73 116 -127 142 -77 37 -200
25 -256 -26 -18 -16 -59 -11 -59 6 0 13 56 50 108 71 71 29 173 21 243 -18z
m-2664 -77 c11 -107 -54 -229 -148 -276 -47 -25 -59 -25 -59 -2 0 11 21 32 52
52 76 51 111 120 106 215 -2 53 1 73 12 82 20 16 30 -3 37 -71z m2160 0 c11
-107 -54 -229 -148 -276 -47 -25 -59 -25 -59 -2 0 11 21 32 52 52 76 51 111
120 106 215 -2 53 1 73 12 82 20 16 30 -3 37 -71z m2160 0 c11 -107 -54 -229
-148 -276 -47 -25 -59 -25 -59 -2 0 11 21 32 52 52 76 51 111 120 106 215 -2
53 1 73 12 82 20 16 30 -3 37 -71z m-4204 8 c25 -8 66 -33 91 -55 175 -154
110 -435 -115 -499 -26 -8 -29 -6 -29 14 0 18 10 27 44 40 66 25 123 87 142
154 41 141 -37 278 -178 312 -36 9 -48 17 -48 31 0 24 29 25 93 3z m2160 0
c25 -8 66 -33 91 -55 175 -154 110 -435 -115 -499 -26 -8 -29 -6 -29 14 0 18
10 27 44 40 66 25 123 87 142 154 41 141 -37 278 -178 312 -36 9 -48 17 -48
31 0 24 29 25 93 3z m2160 0 c25 -8 66 -33 91 -55 175 -154 110 -435 -115
-499 -26 -8 -29 -6 -29 14 0 18 10 27 44 40 66 25 123 87 142 154 41 141 -37
278 -178 312 -36 9 -48 17 -48 31 0 24 29 25 93 3z m-4503 -17 c0 -15 -9 -28
-23 -34 -44 -20 -90 -68 -113 -118 -60 -128 -1 -280 128 -332 25 -10 38 -21
38 -34 0 -25 -20 -24 -75 2 -134 63 -198 234 -139 374 19 47 88 121 133 145
47 25 51 24 51 -3z m2160 0 c0 -15 -9 -28 -23 -34 -44 -20 -90 -68 -113 -118
-60 -128 -1 -280 128 -332 25 -10 38 -21 38 -34 0 -25 -20 -24 -75 2 -134 63
-198 234 -139 374 19 47 88 121 133 145 47 25 51 24 51 -3z m2160 0 c0 -15 -9
-28 -23 -34 -44 -20 -90 -68 -113 -118 -60 -128 -1 -280 128 -332 25 -10 38
-21 38 -34 0 -25 -20 -24 -75 2 -134 63 -198 234 -139 374 19 47 88 121 133
145 47 25 51 24 51 -3z m-2871 -76 c133 -68 194 -210 152 -354 -18 -63 -90
-143 -156 -173 -77 -36 -173 -34 -253 7 -34 17 -75 47 -92 67 l-31 37 27 3
c19 3 36 -5 58 -26 185 -176 483 13 402 255 -61 184 -317 223 -431 66 -19 -27
-38 -42 -52 -42 -30 -1 -29 8 6 55 46 63 86 95 143 116 67 24 168 19 227 -11z
m2160 0 c133 -68 194 -210 152 -354 -18 -63 -90 -143 -156 -173 -77 -36 -173
-34 -253 7 -34 17 -75 47 -92 67 l-31 37 27 3 c19 3 36 -5 58 -26 185 -176
483 13 402 255 -61 184 -317 223 -431 66 -19 -27 -38 -42 -52 -42 -30 -1 -29
8 6 55 46 63 86 95 143 116 67 24 168 19 227 -11z m-2249 -49 c0 -22 -61 -96
-104 -127 -109 -78 -254 -67 -360 25 -34 31 -36 35 -21 46 14 11 24 7 61 -21
112 -86 271 -67 349 42 19 27 38 42 53 42 12 1 22 -3 22 -7z m2160 0 c0 -22
-61 -96 -104 -127 -109 -78 -254 -67 -360 25 -34 31 -36 35 -21 46 14 11 24 7
61 -21 112 -86 271 -67 349 42 19 27 38 42 53 42 12 1 22 -3 22 -7z m-2810
-120 c0 -36 -65 -127 -113 -159 -62 -41 -117 -56 -189 -51 -64 5 -76 11 -59
32 8 9 32 13 74 13 104 -1 194 56 232 146 16 40 55 53 55 19z m2160 0 c0 -36
-65 -127 -113 -159 -62 -41 -117 -56 -189 -51 -64 5 -76 11 -59 32 8 9 32 13
74 13 104 -1 194 56 232 146 16 40 55 53 55 19z m-2560 -24 c0 -22 -13 -33
-72 -61 -145 -71 -185 -255 -80 -377 109 -129 312 -111 397 34 23 39 58 66 70
54 9 -9 -40 -97 -73 -132 -139 -145 -391 -101 -476 83 -28 63 -28 169 0 232
38 83 107 143 194 170 36 11 40 10 40 -3z m2160 0 c0 -22 -13 -33 -72 -61
-145 -71 -185 -255 -80 -377 109 -129 312 -111 397 34 23 39 58 66 70 54 9 -9
-40 -97 -73 -132 -139 -145 -391 -101 -476 83 -28 63 -28 169 0 232 38 83 107
143 194 170 36 11 40 10 40 -3z m-1238 -177 c49 -26 118 -89 118 -108 0 -23
-31 -14 -68 18 -54 47 -108 69 -177 69 -75 0 -128 -23 -180 -79 -35 -36 -41
-39 -54 -26 -13 13 -13 18 5 42 25 34 105 89 148 103 51 16 159 6 208 -19z
m2160 0 c49 -26 118 -89 118 -108 0 -23 -31 -14 -68 18 -54 47 -108 69 -177
69 -75 0 -128 -23 -180 -79 -35 -36 -41 -39 -54 -26 -13 13 -13 18 5 42 25 34
105 89 148 103 51 16 159 6 208 -19z m-2615 -106 c109 -32 193 -146 193 -262
0 -35 -4 -63 -9 -63 -17 0 -28 25 -33 72 -12 106 -78 183 -185 214 -102 30
-219 -19 -271 -114 -23 -41 -58 -70 -70 -58 -13 13 46 111 90 151 80 71 177
92 285 60z m2160 0 c109 -32 193 -146 193 -262 0 -35 -4 -63 -9 -63 -17 0 -28
25 -33 72 -12 106 -78 183 -185 214 -102 30 -219 -19 -271 -114 -23 -41 -58
-70 -70 -58 -13 13 46 111 90 151 80 71 177 92 285 60z m-1539 -162 c-10 -157
-118 -270 -269 -281 -167 -12 -307 111 -311 273 -1 30 1 58 5 61 15 15 35 -20
40 -72 25 -243 349 -303 460 -85 20 41 27 69 27 113 0 56 1 58 26 58 26 0 26
0 22 -67z m2160 0 c-10 -157 -118 -270 -269 -281 -167 -12 -307 111 -311 273
-1 30 1 58 5 61 15 15 35 -20 40 -72 25 -243 349 -303 460 -85 20 41 27 69 27
113 0 56 1 58 26 58 26 0 26 0 22 -67z m-3827 -34 c109 -28 199 -152 199 -272
0 -139 -103 -265 -237 -290 -29 -6 -33 -4 -33 16 0 19 8 25 44 35 141 37 218
199 159 332 -42 96 -119 144 -229 145 -61 0 -77 -4 -120 -30 -58 -36 -108
-113 -119 -180 -14 -98 52 -217 143 -254 30 -13 44 -43 24 -54 -13 -9 -86 32
-125 71 -55 52 -79 106 -85 183 -8 117 44 216 143 274 72 43 139 50 236 24z
m2160 0 c109 -28 199 -152 199 -272 0 -139 -103 -265 -237 -290 -29 -6 -33 -4
-33 16 0 19 8 25 44 35 141 37 218 199 159 332 -42 96 -119 144 -229 145 -61
0 -77 -4 -120 -30 -58 -36 -108 -113 -119 -180 -14 -98 52 -217 143 -254 30
-13 44 -43 24 -54 -13 -9 -86 32 -125 71 -55 52 -79 106 -85 183 -8 117 44
216 143 274 72 43 139 50 236 24z m2160 0 c109 -28 199 -152 199 -272 0 -139
-103 -265 -237 -290 -29 -6 -33 -4 -33 16 0 19 8 25 44 35 141 37 218 199 159
332 -42 96 -119 144 -229 145 -61 0 -77 -4 -120 -30 -58 -36 -108 -113 -119
-180 -14 -98 52 -217 143 -254 30 -13 44 -43 24 -54 -13 -9 -86 32 -125 71
-55 52 -79 106 -85 183 -8 117 44 216 143 274 72 43 139 50 236 24z m-3310
-161 c26 -11 59 -32 73 -47 23 -24 25 -30 12 -40 -12 -10 -22 -8 -51 14 -99
76 -220 72 -312 -9 -59 -52 -82 -104 -83 -182 0 -181 187 -299 352 -220 38 18
68 19 70 1 3 -18 -62 -54 -119 -65 -142 -30 -281 49 -333 187 -24 64 -25 112
-5 180 50 169 231 252 396 181z m2160 0 c26 -11 59 -32 73 -47 23 -24 25 -30
12 -40 -12 -10 -22 -8 -51 14 -99 76 -220 72 -312 -9 -59 -52 -82 -104 -83
-182 0 -181 187 -299 352 -220 38 18 68 19 70 1 3 -18 -62 -54 -119 -65 -142
-30 -281 49 -333 187 -24 64 -25 112 -5 180 50 169 231 252 396 181z m-1980
-86 c-20 -37 -94 -92 -145 -107 -101 -30 -202 -12 -272 49 -33 29 -37 36 -26
49 12 14 18 12 57 -18 57 -43 136 -61 197 -45 60 16 119 52 147 90 20 28 25
30 38 17 12 -11 12 -19 4 -35z m2160 0 c-20 -37 -94 -92 -145 -107 -101 -30
-202 -12 -272 49 -33 29 -37 36 -26 49 12 14 18 12 57 -18 57 -43 136 -61 197
-45 60 16 119 52 147 90 20 28 25 30 38 17 12 -11 12 -19 4 -35z m-3223 -53
c-2 -16 -15 -25 -46 -35 -119 -35 -193 -147 -177 -270 5 -43 3 -53 -11 -58
-25 -9 -28 -2 -32 74 -8 130 49 228 162 281 75 36 109 38 104 8z m2160 0 c-2
-16 -15 -25 -46 -35 -119 -35 -193 -147 -177 -270 5 -43 3 -53 -11 -58 -25 -9
-28 -2 -32 74 -8 130 49 228 162 281 75 36 109 38 104 8z m2160 0 c-2 -16 -15
-25 -46 -35 -119 -35 -193 -147 -177 -270 5 -43 3 -53 -11 -58 -25 -9 -28 -2
-32 74 -8 130 49 228 162 281 75 36 109 38 104 8z m-4168 -9 c54 -28 108 -84
134 -139 30 -66 29 -179 -2 -242 -32 -66 -96 -125 -162 -150 -101 -38 -240 -9
-308 64 l-24 25 22 12 c18 10 26 7 56 -19 119 -105 316 -55 379 96 22 53 19
145 -6 198 -23 49 -89 112 -126 121 -16 4 -23 14 -23 30 0 29 9 30 60 4z
m2160 0 c54 -28 108 -84 134 -139 30 -66 29 -179 -2 -242 -32 -66 -96 -125
-162 -150 -101 -38 -240 -9 -308 64 l-24 25 22 12 c18 10 26 7 56 -19 119
-105 316 -55 379 96 22 53 19 145 -6 198 -23 49 -89 112 -126 121 -16 4 -23
14 -23 30 0 29 9 30 60 4z m2160 0 c54 -28 108 -84 134 -139 30 -66 29 -179
-2 -242 -32 -66 -96 -125 -162 -150 -101 -38 -240 -9 -308 64 l-24 25 22 12
c18 10 26 7 56 -19 119 -105 316 -55 379 96 22 53 19 145 -6 198 -23 49 -89
112 -126 121 -16 4 -23 14 -23 30 0 29 9 30 60 4z m-3517 -260 c56 -21 124
-81 113 -99 -11 -17 -23 -13 -71 23 -79 61 -196 69 -273 20 -17 -11 -27 -12
-44 -3 l-21 11 24 19 c65 50 182 63 272 29z m2160 0 c56 -21 124 -81 113 -99
-11 -17 -23 -13 -71 23 -79 61 -196 69 -273 20 -17 -11 -27 -12 -44 -3 l-21
11 24 19 c65 50 182 63 272 29z m-3077 -100 c22 -9 57 -32 78 -50 l38 -33 -23
-13 c-21 -11 -28 -8 -63 22 -49 42 -104 58 -174 51 -188 -20 -283 -238 -168
-390 33 -44 122 -97 163 -97 18 0 23 -5 23 -25 0 -24 -2 -26 -37 -19 -137 25
-231 129 -241 264 -5 81 9 137 51 192 87 114 227 153 353 98z m1314 -2 c89
-38 157 -129 167 -223 5 -50 4 -55 -14 -55 -15 0 -21 11 -31 59 -15 73 -56
131 -119 168 -41 24 -58 28 -123 28 -83 -1 -118 -15 -177 -77 -44 -46 -63 -96
-63 -171 0 -46 -4 -68 -15 -77 -21 -18 -25 -11 -32 52 -23 223 200 386 407
296z m846 2 c22 -9 57 -32 78 -50 l38 -33 -23 -13 c-21 -11 -28 -8 -63 22 -49
42 -104 58 -174 51 -188 -20 -283 -238 -168 -390 33 -44 122 -97 163 -97 18 0
23 -5 23 -25 0 -24 -2 -26 -37 -19 -137 25 -231 129 -241 264 -5 81 9 137 51
192 87 114 227 153 353 98z m1314 -2 c89 -38 157 -129 167 -223 5 -50 4 -55
-14 -55 -15 0 -21 11 -31 59 -15 73 -56 131 -119 168 -41 24 -58 28 -123 28
-83 -1 -118 -15 -177 -77 -44 -46 -63 -96 -63 -171 0 -46 -4 -68 -15 -77 -21
-18 -25 -11 -32 52 -23 223 200 386 407 296z m846 2 c22 -9 57 -32 78 -50 l38
-33 -23 -13 c-21 -11 -28 -8 -63 22 -49 42 -104 58 -174 51 -188 -20 -283
-238 -168 -390 33 -44 122 -97 163 -97 18 0 23 -5 23 -25 0 -24 -2 -26 -37
-19 -137 25 -231 129 -241 264 -5 81 9 137 51 192 87 114 227 153 353 98z
m-3222 -170 c0 -213 -218 -352 -409 -262 -66 31 -117 83 -146 146 -25 55 -25
86 1 86 14 0 22 -10 30 -38 15 -59 61 -114 121 -146 169 -93 371 39 357 234
-4 56 18 94 36 63 6 -10 11 -47 10 -83z m2160 0 c0 -213 -218 -352 -409 -262
-66 31 -117 83 -146 146 -25 55 -25 86 1 86 14 0 22 -10 30 -38 15 -59 61
-114 121 -146 169 -93 371 39 357 234 -4 56 18 94 36 63 6 -10 11 -47 10 -83z
m-2583 3 c30 -17 68 -48 86 -71 30 -40 70 -138 60 -149 -13 -13 -46 10 -52 37
-9 41 -58 105 -103 135 -77 51 -192 51 -268 -1 -34 -24 -74 -25 -74 -3 0 12
71 58 117 75 63 24 170 13 234 -23z m2160 0 c30 -17 68 -48 86 -71 30 -40 70
-138 60 -149 -13 -13 -46 10 -52 37 -9 41 -58 105 -103 135 -77 51 -192 51
-268 -1 -34 -24 -74 -25 -74 -3 0 12 71 58 117 75 63 24 170 13 234 -23z
m-2664 -77 c11 -107 -54 -229 -148 -276 -47 -25 -59 -25 -59 -2 0 11 21 32 52
52 76 51 111 120 106 215 -2 53 1 73 12 82 20 16 30 -3 37 -71z m2160 0 c11
-107 -54 -229 -148 -276 -47 -25 -59 -25 -59 -2 0 11 21 32 52 52 76 51 111
120 106 215 -2 53 1 73 12 82 20 16 30 -3 37 -71z m2160 0 c11 -107 -54 -229
-148 -276 -47 -25 -59 -25 -59 -2 0 11 21 32 52 52 76 51 111 120 106 215 -2
53 1 73 12 82 20 16 30 -3 37 -71z m-4205 8 c164 -56 242 -268 153 -419 -28
-48 -94 -106 -140 -122 -65 -24 -65 -24 -65 1 0 18 9 27 44 40 96 37 150 121
151 232 0 61 -4 77 -30 119 -36 59 -92 100 -157 115 -36 9 -48 17 -48 31 0 24
29 25 92 3z m2160 0 c164 -56 242 -268 153 -419 -28 -48 -94 -106 -140 -122
-65 -24 -65 -24 -65 1 0 18 9 27 44 40 96 37 150 121 151 232 0 61 -4 77 -30
119 -36 59 -92 100 -157 115 -36 9 -48 17 -48 31 0 24 29 25 92 3z m2160 0
c164 -56 242 -268 153 -419 -28 -48 -94 -106 -140 -122 -65 -24 -65 -24 -65 1
0 18 9 27 44 40 96 37 150 121 151 232 0 61 -4 77 -30 119 -36 59 -92 100
-157 115 -36 9 -48 17 -48 31 0 24 29 25 92 3z m-4503 -16 c0 -16 -15 -32 -47
-53 -63 -40 -102 -106 -109 -183 -10 -106 39 -193 132 -239 36 -18 55 -33 55
-45 0 -43 -100 1 -163 72 -45 50 -77 132 -77 197 0 88 76 209 159 253 47 25
51 24 50 -2z m2160 0 c0 -16 -15 -32 -47 -53 -63 -40 -102 -106 -109 -183 -10
-106 39 -193 132 -239 36 -18 55 -33 55 -45 0 -43 -100 1 -163 72 -45 50 -77
132 -77 197 0 88 76 209 159 253 47 25 51 24 50 -2z m2160 0 c0 -16 -15 -32
-47 -53 -63 -40 -102 -106 -109 -183 -10 -106 39 -193 132 -239 36 -18 55 -33
55 -45 0 -43 -100 1 -163 72 -45 50 -77 132 -77 197 0 88 76 209 159 253 47
25 51 24 50 -2z m-2862 -81 c177 -90 212 -334 66 -468 -64 -58 -114 -79 -199
-79 -59 0 -81 5 -132 31 -34 17 -75 47 -92 67 l-31 37 27 3 c19 3 36 -5 58
-26 185 -176 483 13 402 255 -61 184 -317 223 -431 66 -19 -27 -38 -42 -52
-42 -27 -1 -28 1 -8 38 21 42 109 117 158 135 62 23 170 15 234 -17z m2160 0
c177 -90 212 -334 66 -468 -64 -58 -114 -79 -199 -79 -59 0 -81 5 -132 31 -34
17 -75 47 -92 67 l-31 37 27 3 c19 3 36 -5 58 -26 185 -176 483 13 402 255
-61 184 -317 223 -431 66 -19 -27 -38 -42 -52 -42 -27 -1 -28 1 -8 38 21 42
109 117 158 135 62 23 170 15 234 -17z m-2257 -45 c0 -25 -64 -102 -106 -130
-116 -74 -254 -63 -358 28 -35 31 -37 35 -21 47 15 10 23 8 49 -14 112 -95
280 -79 361 34 19 27 38 42 53 42 12 1 22 -3 22 -7z m2160 0 c0 -25 -64 -102
-106 -130 -116 -74 -254 -63 -358 28 -35 31 -37 35 -21 47 15 10 23 8 49 -14
112 -95 280 -79 361 34 19 27 38 42 53 42 12 1 22 -3 22 -7z m-2814 -129 c-20
-81 -109 -169 -194 -193 -46 -12 -142 -13 -161 -1 -12 8 -12 13 -3 24 9 10 32
14 75 14 103 -1 195 58 233 150 10 22 21 33 35 33 18 0 20 -4 15 -27z m2160 0
c-20 -81 -109 -169 -194 -193 -46 -12 -142 -13 -161 -1 -12 8 -12 13 -3 24 9
10 32 14 75 14 103 -1 195 58 233 150 10 22 21 33 35 33 18 0 20 -4 15 -27z
m-1634 -192 c49 -26 118 -89 118 -108 0 -23 -31 -14 -68 18 -54 47 -108 69
-178 69 -75 0 -151 -35 -185 -85 -27 -39 -31 -41 -49 -20 -11 13 -10 21 7 43
24 33 104 89 147 102 51 16 159 6 208 -19z m2160 0 c49 -26 118 -89 118 -108
0 -23 -31 -14 -68 18 -54 47 -108 69 -178 69 -75 0 -151 -35 -185 -85 -27 -39
-31 -41 -49 -20 -11 13 -10 21 7 43 24 33 104 89 147 102 51 16 159 6 208 -19z"/>
<path d="M0 2120 c0 -257 -2 -251 68 -200 115 83 134 262 39 360 -31 32 -85
70 -99 70 -5 0 -8 -103 -8 -230z"/>
<path d="M0 450 c0 -257 -2 -251 68 -200 115 83 134 262 39 360 -31 32 -85 70
-99 70 -5 0 -8 -103 -8 -230z"/>
</g>
</svg>
