<?xml version="1.0" encoding="UTF-8" standalone="no"?>
<!-- Created with Inkscape (http://www.inkscape.org/) -->

<svg
   xmlns:dc="http://purl.org/dc/elements/1.1/"
   xmlns:cc="http://creativecommons.org/ns#"
   xmlns:rdf="http://www.w3.org/1999/02/22-rdf-syntax-ns#"
   xmlns:svg="http://www.w3.org/2000/svg"
   xmlns="http://www.w3.org/2000/svg"
   xmlns:sodipodi="http://sodipodi.sourceforge.net/DTD/sodipodi-0.dtd"
   xmlns:inkscape="http://www.inkscape.org/namespaces/inkscape"
   width="429.544"
   height="256.314"
   id="svg2"
   version="1.1"
   inkscape:version="0.92.2 5c3e80d, 2017-08-06"
   sodipodi:docname="burger.svg">
  <defs
     id="defs4">
    <inkscape:perspective
       sodipodi:type="inkscape:persp3d"
       inkscape:vp_x="0 : 526.18109 : 1"
       inkscape:vp_y="0 : 1000 : 0"
       inkscape:vp_z="744.09448 : 526.18109 : 1"
       inkscape:persp3d-origin="372.04724 : 350.78739 : 1"
       id="perspective2985" />
  </defs>
  <sodipodi:namedview
     id="base"
     pagecolor="#ffffff"
     bordercolor="#666666"
     borderopacity="1.0"
     inkscape:pageopacity="0.0"
     inkscape:pageshadow="2"
     inkscape:zoom="1.979899"
     inkscape:cx="176.19191"
     inkscape:cy="110.09707"
     inkscape:document-units="mm"
     inkscape:current-layer="layer1"
     showgrid="false"
     inkscape:object-nodes="true"
     inkscape:window-width="1440"
     inkscape:window-height="766"
     inkscape:window-x="0"
     inkscape:window-y="1"
     inkscape:window-maximized="1"
     showguides="false"
     inkscape:guide-bbox="true"
     units="mm"
     fit-margin-top="0"
     fit-margin-left="0"
     fit-margin-right="0"
     fit-margin-bottom="0" />
  <metadata
     id="metadata7">
    <rdf:RDF>
      <cc:Work
         rdf:about="">
        <dc:format>image/svg+xml</dc:format>
        <dc:type
           rdf:resource="http://purl.org/dc/dcmitype/StillImage" />
        <dc:title></dc:title>
      </cc:Work>
    </rdf:RDF>
  </metadata>
  <g
     inkscape:label="Layer 1"
     inkscape:groupmode="layer"
     id="layer1"
     transform="translate(-86.211154,-648.75996)">
    <path
       inkscape:connector-curvature="0"
       id="path3908"
       d="M 466.76206,761.71738 274.44542,649.22334 82.128809,761.71734 274.44546,874.21138 Z"
       style="fill:#ffcc00;stroke:#000000;stroke-width:0.92677325px;stroke-linecap:round;stroke-linejoin:round;stroke-opacity:1" />
    <path
       style="fill:#ffcc00;stroke-width:0.50507629"
       d="m 98.198458,149.19278 c 0.171685,-0.2778 0.539439,-0.50508 0.817231,-0.50508 0.277792,0 0.364606,0.22728 0.192922,0.50508 -0.171685,0.27779 -0.539439,0.50507 -0.817231,0.50507 -0.277792,0 -0.364607,-0.22728 -0.192922,-0.50507 z"
       id="path275"
       inkscape:connector-curvature="0"
       transform="translate(53.643411,569.625)" />
    <path
       style="fill:#ffcc00;stroke-width:0.50507629"
       d=""
       id="path277"
       inkscape:connector-curvature="0"
       transform="translate(53.643411,569.625)" />
    <path
       style="fill:#ffcc00;stroke-width:0.50507629"
       d=""
       id="path279"
       inkscape:connector-curvature="0"
       transform="translate(53.643411,569.625)" />
    <path
       style="fill:#c87137"
       id="path49"
       d="m 234.53381,743.38909 c 1.69708,-4.53886 3.70571,-8.95767 5.69076,-13.37671 2.75392,-6.30559 5.44371,-12.63931 8.2082,-18.94022 1.06533,-2.35773 2.02053,-4.77646 3.33711,-7.01011 1.65056,-2.47764 5.98172,-3.90503 7.77822,-4.9049 0.1693,-0.0641 0.35247,0.0505 0.52103,0.009 0.0729,-0.0181 0.11857,-0.0939 0.18568,-0.12763 0.25586,-0.12852 0.56568,-0.15584 0.84181,-0.21662 0.10481,-0.0125 0.2148,-0.003 0.31444,-0.0376 0.0892,-0.0312 0.14594,-0.13016 0.23697,-0.15536 0.33297,-0.0922 0.8275,0.0165 1.17066,0.0363 0.0326,0.002 0.56052,0.0318 0.57474,0.0268 0.10717,-0.0374 0.16601,-0.15964 0.26719,-0.21105 0.30346,-0.1542 0.73345,-0.16158 1.06325,-0.19718 0.73892,-0.0649 1.48059,-0.0731 2.22185,-0.0743 0.7093,-0.002 1.4186,0.007 2.1279,0.005 0.72082,0.001 1.44162,4.9e-4 2.16245,0.003 0.68449,-0.001 1.36883,-0.006 2.05328,-0.002 0.76979,0.0221 1.54844,-0.0784 2.29926,0.10928 0.79183,0.27675 1.51401,0.63304 2.2845,0.95929 0.79097,0.37812 1.58185,0.70659 2.39908,1.01705 0.9433,0.41347 1.93426,0.71263 2.92853,0.99335 1.18424,0.4178 2.40461,0.71206 3.57951,1.17342 1.16625,0.58186 2.34862,1.14508 3.46081,1.81881 1.08693,0.68349 2.18142,1.35671 3.21907,2.12171 1.23707,0.77126 2.42001,1.65224 3.58508,2.53728 1.16828,1.01395 2.25471,2.10722 3.35615,3.18983 0.93213,0.8485 1.95297,1.64517 2.78449,2.59333 0.57616,0.72616 1.20853,1.3985 1.79603,2.11559 0.66702,0.81435 1.42274,1.53749 2.15215,2.29306 0.73204,0.88956 1.5302,1.69546 2.24517,2.59813 0.65903,0.66485 1.30269,1.3285 1.84176,2.09352 0.41957,0.69052 0.83993,1.37985 1.30299,2.0444 0.4467,0.85373 0.91705,1.70494 1.32123,2.58311 0.52878,1.01958 0.83646,2.12583 1.24141,3.19826 0.41183,1.11878 0.84559,2.23629 1.21649,3.37101 0.42568,0.84321 0.61643,1.76907 0.93635,2.64759 0.11846,0.51012 0.15914,1.0045 0.33146,1.49721 0.15157,0.2471 0.20484,0.52563 0.26253,0.80575 0.0398,0.27979 0.0438,0.56403 0.0362,0.84622 -0.003,0.27541 0.008,0.55136 0.002,0.82668 -0.0827,2.86816 2.61976,-0.47545 -6.8311,3.65812 -0.1256,0.0549 -0.23989,-0.14047 -0.37302,-0.17317 -0.21605,-0.0531 -0.44164,-0.0541 -0.66245,-0.0811 0,0 6.11266,-4.23466 6.11266,-4.23466 v 0 c 0.27793,0.0869 0.57055,0.1362 0.83378,0.26073 0.19921,0.0942 0.71258,0.25556 0.53586,0.38725 -9.05063,6.7443 -6.26776,6.30347 -6.34701,3.61104 -0.005,-0.27682 0.008,-0.55427 0.007,-0.83117 -0.006,-0.24428 -0.002,-0.48839 0.004,-0.73255 -0.0281,-0.25461 -0.0346,-0.47617 -0.17704,-0.70185 -0.17013,-0.50519 -0.31866,-0.94707 -0.29936,-1.49505 -0.33196,-0.88584 -0.46852,-1.84473 -0.9164,-2.69476 -0.35857,-1.1264 -0.79728,-2.23239 -1.19665,-3.34159 -0.39649,-1.05954 -0.71561,-2.14357 -1.24084,-3.14595 -0.36562,-0.84453 -0.83901,-1.65103 -1.2653,-2.46053 -0.44738,-0.666 -0.89789,-1.33016 -1.28076,-2.03576 -0.5466,-0.7391 -1.20375,-1.37771 -1.81111,-2.06704 -0.7072,-0.86997 -1.46876,-1.68675 -2.20045,-2.53273 -0.7667,-0.74917 -1.5053,-1.52192 -2.20105,-2.33764 -0.59579,-0.69562 -1.20482,-1.3799 -1.77334,-2.09851 -0.85019,-0.9171 -1.80948,-1.73472 -2.73239,-2.57767 -1.06128,-1.07353 -2.1414,-2.12566 -3.29503,-3.10172 -1.17894,-0.85973 -2.34701,-1.742 -3.58254,-2.51824 -1.04861,-0.71262 -2.11388,-1.39433 -3.19758,-2.05154 -1.11192,-0.60318 -2.20644,-1.24458 -3.38268,-1.71825 -1.17665,-0.40026 -2.37234,-0.7429 -3.55792,-1.1156 -1.01507,-0.2782 -2.00639,-0.6461 -2.98447,-1.03284 -0.82356,-0.30151 -1.60816,-0.70097 -2.41934,-1.03455 -0.72363,-0.291 -1.40256,-0.68739 -2.18731,-0.81056 -0.74498,-0.0317 -1.4909,-9.4e-4 -2.23636,-0.0115 -0.68309,0.004 -1.36605,-1.7e-4 -2.04916,-0.002 -0.72284,0.002 -1.44565,8.6e-4 -2.16849,-5.6e-4 -0.70783,-0.005 -1.4158,-0.002 -2.1236,0.004 -0.71831,0.0147 -1.44032,0.0322 -2.14849,0.16571 -0.67285,0.15716 -1.29918,0.39408 -2.00633,0.28034 -0.55943,0.0103 -1.05804,0.18712 -1.59882,0.3104 -0.51297,0.13926 -1.01386,0.25362 -1.52093,0.38461 15.2664,-8.76325 6.4145,-4.12749 5.01238,-2.70231 -1.60306,2.12596 -2.52278,4.69561 -3.7184,7.04993 -2.93726,6.26778 -5.68647,12.62655 -8.36975,19.0062 -1.867,4.30692 -3.80541,8.60577 -5.22505,13.08612 0,0 -6.76294,3.17613 -6.76294,3.17613 z"
       inkscape:connector-curvature="0" />
    <path
       style="fill:#c87137"
       id="path51"
       d="m 240.74124,739.63903 c 2.59428,0.0587 5.18932,0.0605 7.78413,0.0573 2.74333,0.005 5.4866,-0.0104 8.22988,-0.0231 1.8879,0.0943 3.81708,-0.21687 5.67884,0.14953 0.27139,0.0336 0.54657,0.0446 0.81417,0.1009 0.28202,0.0594 0.54881,0.17816 0.82915,0.24501 1.12269,0.26768 2.28911,0.33054 3.42683,0.5078 1.70805,0.45917 3.4778,0.38959 5.202,0.76059 1.24595,0.19743 2.50767,0.23785 3.76674,0.23817 0.95738,0.2022 1.92561,0.33437 2.89826,0.43445 0.91584,0.08 1.83722,-0.0156 2.74118,0.15693 0.99849,8.9e-4 1.99623,-0.0481 2.99433,-0.0727 1.2322,-0.0231 2.46471,-0.0128 3.69705,-0.0193 1.45795,10e-4 2.88155,0.38914 4.31341,0.64373 1.93542,0.34606 3.88227,0.4347 5.84469,0.44598 2.35835,0.0183 4.69223,0.33375 7.05166,0.41096 1.94084,0.21109 3.85113,0.48029 5.80511,0.54031 1.66422,0.034 3.32857,-8.9e-4 4.99284,-0.003 1.09831,-0.10534 2.15891,0.0961 3.22342,0.33665 2.80634,0.75429 5.48262,-2.26547 -5.39359,3.60271 0.27667,-0.1531 0.19026,-0.0338 0.009,-0.44176 0,0 6.49299,-3.7013 6.49299,-3.7013 v 0 c 0.46615,0.86486 0.29679,0.40988 0.50984,1.36429 -5.38436,2.95168 -4.56565,4.30676 -7.79134,3.45829 -1.01098,-0.22063 -2.02521,-0.29952 -3.06134,-0.24686 -1.6613,0.014 -3.32348,0.0117 -4.98405,-0.0432 -1.94465,-0.0896 -3.85303,-0.41481 -5.79318,-0.55308 -2.34553,-0.12543 -4.67977,-0.43075 -7.03099,-0.39863 -1.99927,-0.0407 -3.99564,-0.14459 -5.96638,-0.50835 -1.40598,-0.25301 -2.81373,-0.59249 -4.25164,-0.52338 -1.23678,2.7e-4 -2.47356,0.0148 -3.70987,0.0505 -1.01987,0.0287 -2.04572,0.0934 -3.06248,-0.0197 -0.91887,-0.0532 -1.84287,-0.0234 -2.75779,-0.14079 -0.94449,-0.13526 -1.88531,-0.31863 -2.83745,-0.38225 -1.26703,-0.0466 -2.53468,-0.12817 -3.77981,-0.38424 -1.72236,-0.28467 -3.47792,-0.30681 -5.17817,-0.73637 -1.71029,-0.22622 -3.3967,-0.54137 -5.0923,-0.84697 -1.84472,-0.19689 -3.71251,-0.0257 -5.5646,-0.0921 -2.72204,-0.0128 -5.44407,-0.0278 -8.16617,-0.0231 -2.64737,-0.003 -5.29492,2e-5 -7.9418,0.0573 0,0 6.05792,-4.40134 6.05792,-4.40134 z"
       inkscape:connector-curvature="0" />
    <path
       style="fill:#c87137"
       id="path53"
       d="m 240.18021,759.33376 c 3.65036,0.0867 7.30171,0.11487 10.95295,0.1354 5.79124,0.0455 11.58239,-0.004 17.37352,-0.0336 3.29536,9e-4 6.58706,-0.12668 9.87624,0.10399 2.26045,0.084 4.45379,0.65504 6.67295,1.02159 1.30603,0.357 2.66974,0.39934 3.99531,0.62476 1.29645,0.30683 0.65625,0.17863 1.91957,0.38966 1.65996,0.24928 3.33935,0.28261 5.01424,0.30961 1.38469,-0.0757 2.73944,0.0488 4.10439,0.26154 1.03544,0.17597 2.08735,0.19533 3.13468,0.21894 1.22942,-0.0453 2.43465,0.038 3.65125,0.19649 1.65881,0.21458 3.3266,0.16048 4.95571,0.56381 1.32857,0.12993 2.627,0.44915 3.95081,0.61134 0.92834,0.0151 1.79646,0.23057 2.69238,0.43938 0.68076,0.18286 1.3881,0.18947 2.08769,0.20412 0.82169,-0.005 1.58034,-0.0838 2.313,0.33425 0.31753,0.093 0.64265,0.15264 0.97073,0.19136 0,0 -6.18706,4.31683 -6.18706,4.31683 v 0 c -0.3519,-0.0939 -0.70235,-0.1962 -1.03538,-0.34603 -0.70073,-0.16908 -1.43666,-0.0352 -2.15055,-0.10856 -0.73288,-0.042 -1.46114,-0.10811 -2.16751,-0.32345 -0.86489,-0.2041 -1.738,-0.29276 -2.61868,-0.40627 -1.32354,-0.20349 -2.63962,-0.46256 -3.96155,-0.67445 -1.62536,-0.30547 -3.28432,-0.27554 -4.92196,-0.49635 -1.20822,-0.1219 -2.41641,-0.10498 -3.62943,-0.13018 -1.07161,-0.0308 -2.14421,-0.0874 -3.19957,-0.28974 -1.32986,-0.20351 -2.66234,-0.21159 -4.00595,-0.2079 -1.69437,-0.0335 -3.39088,-0.12817 -5.06304,-0.42029 -1.96204,-0.37683 -3.94169,-0.62108 -5.89994,-1.02354 -2.18707,-0.41726 -4.3737,-0.88428 -6.60624,-0.97308 -3.22144,-0.22739 -6.4512,-0.14991 -9.67869,-0.18362 -5.7603,-0.0294 -11.52063,-0.0792 -17.28104,-0.0336 -3.77547,0.0209 -7.551,0.0506 -11.32567,0.1354 0,0 6.06684,-4.40782 6.06684,-4.40782 z"
       inkscape:connector-curvature="0" />
    <path
       style="fill:#c87137"
       id="path55"
       d="m 237.03426,760.76342 c -0.0124,2.18805 0.42915,4.32686 1.03445,6.41759 0.13139,0.38348 0.2719,0.76395 0.39416,1.15043 0.46534,1.47111 0.17043,0.78504 0.68539,2.15779 0.34266,0.91343 0.78217,1.7798 1.16389,2.6766 0.6216,1.26311 1.39597,2.44829 2.26177,3.55671 0.95656,1.15805 1.93524,2.28528 3.05703,3.28688 1.48154,1.16623 2.89273,2.41655 4.43677,3.50079 1.72205,1.30331 3.63306,2.27916 5.54337,3.26539 1.66944,0.71553 3.33869,1.47119 5.08727,1.97392 1.2873,0.4313 2.5882,0.82375 3.86882,1.27435 1.3292,0.38041 2.70443,0.543 4.06297,0.78484 1.51625,0.27839 3.06291,0.31402 4.59993,0.35183 1.64934,0.0314 3.28339,0.29287 4.92935,0.40738 1.55059,0.0945 3.1046,0.10366 4.65751,0.11503 1.92786,0.0502 3.84291,0.0165 5.76235,-0.16083 2.00686,-0.0675 3.9735,-0.44602 5.94228,-0.80566 1.85636,-0.23334 3.6806,-0.62547 5.5056,-1.02376 1.83665,-0.2861 3.58985,-0.9266 5.36811,-1.45279 2.35646,-0.6008 4.66741,-1.37827 6.95876,-2.19011 2.14952,-0.83065 4.34843,-1.51426 6.51367,-2.29973 0.64777,-0.28535 0.71256,-0.30506 1.31298,-0.60031 0.1887,-0.0928 0.74491,-0.39018 0.56278,-0.28506 -10.38372,5.99341 -7.18047,4.25204 -5.064,2.8186 0.7371,-0.54226 1.27722,-1.2308 1.71386,-2.02353 0.2523,-0.55752 0.59202,-1.09955 0.79116,-1.67763 0.11902,-0.7015 0.0816,-1.42004 0.0753,-2.1289 -0.0122,-0.6703 -0.0292,-1.34059 -0.0321,-2.01101 0.042,-0.37311 -0.15521,-0.66172 -0.30613,-0.98704 -0.10996,-0.33909 -0.26693,-0.66422 -0.28827,-1.02328 -0.14378,-0.88221 0.50964,0.33642 -0.12617,-0.45402 -0.22854,-0.25491 -0.27799,-0.60589 -0.30533,-0.93535 -0.0181,-0.25545 -0.006,-0.51099 -0.006,-0.76666 0.25703,0.25005 -0.32886,-0.45395 -0.33801,-0.47529 -0.0442,-0.10311 -0.0702,-0.21307 -0.10537,-0.31961 -0.0993,-0.34351 -0.0614,-0.69837 -0.0817,-1.05038 -0.256,-1.65744 -0.291,-3.33658 -0.34162,-5.00971 -0.0424,-1.35461 -0.0735,-2.7096 -0.12374,-4.06397 -0.11625,-2.86398 -0.92044,-0.25561 6.70706,-3.63223 0.12802,-0.0567 -0.001,0.28007 0.003,0.41999 -0.002,0.40298 -0.002,0.80616 -5.9e-4,1.20925 -0.003,0.4669 -5e-5,0.93312 -0.008,1.39992 0.005,0.61518 -0.0149,1.23111 0.005,1.84617 0.007,0.41426 -0.01,0.8302 0.008,1.24423 -0.002,0.28695 0.004,0.57338 -0.003,0.86023 0.003,0.0927 0.007,0.18539 0.0121,0.27801 0,0 -6.74568,3.43709 -6.74568,3.43709 v 0 c 0.005,-0.0967 0.009,-0.19352 0.0121,-0.29037 -0.007,-0.28574 -10e-4,-0.5711 -0.003,-0.85695 0.0175,-0.41685 0.002,-0.83545 0.008,-1.25251 0.0191,-0.61671 5.5e-4,-1.23421 0.005,-1.85103 -0.008,-0.46404 -0.005,-0.9275 -0.008,-1.39164 0.002,-0.40192 10e-4,-0.80397 -0.002,-1.20577 0.004,-0.14015 -0.1205,-0.35076 0.001,-0.42061 8.1078,-4.65892 6.80512,-6.08894 6.7041,-3.20804 -0.0393,1.36853 -0.0356,2.73817 -0.006,4.10687 0.0535,1.61989 0.0945,3.25252 0.41198,4.84704 0.0941,0.35005 0.10963,0.66779 0.0951,1.0253 -0.11691,0.20058 0.52199,0.668 0.52838,0.93159 -0.005,0.24561 -0.002,0.49104 -0.0132,0.73653 -0.006,0.20536 -0.0579,0.36988 0.0705,0.52138 0.22233,0.28979 0.53314,0.51852 0.37298,0.90952 -0.0446,0.27488 0.0558,0.46384 0.13867,0.73169 0.17184,0.41343 0.45946,0.80999 0.42947,1.27152 0.003,0.67161 -10e-4,1.34325 0.008,2.01485 0.0151,0.75266 0.0462,1.50581 0.0104,2.25838 -0.014,0.16049 -0.0336,0.55782 -0.10607,0.71236 -0.0407,0.0867 -0.14157,0.13304 -0.18964,0.2159 -0.17613,0.30359 -0.28924,0.68011 -0.3948,1.01125 -0.28423,0.39168 -0.41202,0.83793 -0.67718,1.23617 -0.25521,0.38331 -0.67169,0.6595 -0.95139,1.02243 -0.41279,0.38248 -0.32568,0.3427 -0.82763,0.63511 -2.93774,1.71138 -5.62173,3.63001 -8.77895,4.78128 -2.14838,0.75511 -4.32635,1.42503 -6.45198,2.24529 -2.3161,0.79874 -4.64394,1.56612 -7.01343,2.19302 -1.78912,0.55318 -3.57606,1.12751 -5.42976,1.42724 -1.82246,0.40099 -3.66018,0.70851 -5.50443,0.99062 -1.98271,0.36343 -3.97294,0.6495 -5.98861,0.75152 -1.93895,0.15061 -3.88004,0.13288 -5.82395,0.12221 -1.56558,-0.009 -3.13264,-0.0242 -4.69395,-0.15281 -1.63298,-0.13612 -3.2594,-0.38285 -4.90077,-0.38364 -1.56636,-0.0488 -3.14104,-0.11532 -4.68104,-0.42879 -1.3899,-0.24572 -2.80079,-0.40903 -4.14326,-0.86706 -1.28052,-0.41967 -2.55083,-0.86928 -3.83638,-1.27391 -1.74757,-0.58736 -3.4429,-1.33542 -5.11219,-2.11458 -1.93158,-1.01019 -3.86269,-2.02363 -5.60651,-3.34563 -1.55636,-1.11462 -3.02439,-2.34992 -4.50937,-3.55613 -1.14675,-1.03815 -2.17847,-2.18416 -3.15673,-3.38173 -0.89997,-1.16779 -1.69375,-2.41957 -2.3292,-3.7515 -0.35991,-0.92248 -0.80469,-1.80212 -1.14919,-2.73115 -0.6075,-1.63828 -0.14001,-0.47487 -0.66405,-2.17108 -0.12305,-0.39828 -0.27153,-0.78824 -0.4073,-1.18236 -0.6301,-2.13796 -1.08257,-4.30889 -1.26701,-6.53346 0,0 6.68168,-3.40448 6.68168,-3.40448 z"
       inkscape:connector-curvature="0" />
    <path
       style="fill:#ffe680"
       id="path57"
       d="m 223.11953,743.68288 c 2.22642,0.0473 4.45371,0.0358 6.68053,0.0357 1.96973,-0.005 3.93941,-0.01 5.9091,-0.0237 1.26697,-0.008 2.50909,-0.0779 3.7512,0.18249 0.97558,0.17924 1.96623,0.25143 2.95606,0.28924 0.798,0.0251 1.59634,0.0174 2.39454,0.0141 0.6868,0.001 1.37363,-0.003 2.06046,-0.005 0.64888,0.17438 1.2205,0.52134 1.89084,0.54481 0.6333,0.009 1.26672,-0.011 1.8997,-0.0298 0.60557,0.001 1.21099,-0.0129 1.81657,-0.0124 0.62827,0.003 1.25659,0.001 1.88489,0.002 0.90735,0.003 1.81465,0.0113 2.722,0.0128 1.17891,-0.001 2.35781,5.7e-4 3.53672,0.006 1.82307,0.0112 3.64621,0.0175 5.46932,0.02 2.4834,0.003 4.96676,0.0176 7.45015,0.0193 2.85746,0.008 5.71496,0.003 8.57243,-0.003 2.32081,-7.7e-4 4.64158,-0.008 6.96237,-0.0204 1.88283,-0.004 3.76569,-0.004 5.64851,0.003 2.29434,0.0888 4.57465,-0.0761 6.86066,-0.24069 2.31217,-0.15091 4.62976,-0.22064 6.94651,-0.25 1.87012,-0.0239 3.74047,-0.0267 5.61072,-0.0248 1.74547,0.0519 3.50045,-0.0969 5.23921,0.0806 1.32269,0.17469 2.64979,0.30337 3.98214,0.37126 0.91121,0.0386 1.82347,0.0369 2.73531,0.0381 1.16764,-0.0297 2.29468,-0.0421 3.4232,0.27889 0.59025,0.18183 1.24292,0.0636 1.83696,0.19214 0.45865,0.0992 0.90561,0.31533 1.37174,0.41882 0.50001,0.13142 0.92481,0.46455 1.41612,0.66775 0.27735,0.3989 0.37689,0.80458 0.39591,1.27983 0.0123,0.35567 0.002,0.71116 -0.0107,1.06661 0.0437,0.46162 0.004,0.8186 -0.23631,1.22356 -5.10551,3.54397 -4.70038,3.90403 -8.32487,3.83615 -1.1955,0.0293 -2.3682,-0.0256 -3.54844,-0.209 -1.06307,-0.32547 -2.14165,-0.59395 -3.19914,-0.93672 -0.71678,-0.15635 -1.39744,-0.47353 -2.13358,-0.4691 -0.42092,0.0208 -0.83998,0.0618 -1.26011,0.0945 -0.26679,-0.39058 -0.72112,-0.38944 -1.03736,-0.64019 -0.44268,0.1712 -0.48123,-0.16207 -0.83708,-0.28078 -0.2302,-0.13475 -0.43653,-0.10251 -0.68691,-0.10504 -0.2203,0.009 -0.44093,0.0118 -0.66133,0.0208 -0.27896,-4.3e-4 -0.5583,-0.006 -0.83724,-0.002 -0.39423,7.4e-4 -0.78827,-0.007 -1.18251,-0.005 -1.51294,-0.0444 -3.02687,-0.031 -4.54027,-0.0363 -1.18431,0.006 -2.36869,0.0113 -3.55287,0.0307 -0.50314,0.009 -1.00549,0.0116 -1.5084,-0.006 -1.8987,-0.0357 -3.79805,-0.037 -5.69705,-0.0304 -1.29577,0.007 -2.59162,0.0138 -3.88724,0.0358 -1.51054,-0.0221 -3.02167,-0.0375 -4.53271,-0.0399 -1.89085,-0.002 -3.78175,8e-4 -5.67248,0.0227 -1.00449,0.0325 -2.00875,0.008 -3.0132,-0.007 -1.83523,-0.0669 -3.68215,0.0978 -5.51072,-0.0821 -0.96534,0.11218 -1.87371,-0.11137 -2.80821,-0.293 -0.29065,-0.11403 -0.58253,-0.13342 -0.89269,-0.10448 -0.58132,-0.53733 -1.35348,-0.41202 -2.1004,-0.45642 -1.89601,-0.0899 -3.7947,-0.0844 -5.6923,-0.0777 -1.01557,0.001 -2.03061,0.0336 -3.04609,0.0187 -1.65481,-0.0238 -3.30974,-0.0241 -4.96465,-0.0155 -0.90798,-0.075 -1.83662,0.0933 -2.74305,0.0165 -1.55643,-0.1318 0.49752,-0.0925 -1.07244,-0.0984 -1.46228,-0.003 -2.91645,-0.26464 -4.35688,-0.50165 -1.26329,-0.27522 -2.56301,-0.32239 -3.81181,-0.65106 -0.98155,-0.24029 -1.9963,-0.20534 -2.99236,-0.34795 -1.98867,-0.0271 -3.98482,-0.095 -5.95513,-0.38161 -1.95181,-0.32259 -3.92124,-0.45545 -5.89575,-0.52402 -1.62465,-0.0474 -3.25007,-0.0458 -4.87515,-0.0302 -0.40913,-0.14538 -0.95929,0.16197 -1.36725,0.024 -0.41368,-0.13989 -0.10618,-0.20329 -0.35257,-0.12974 0,0 6.18158,-4.33711 6.18158,-4.33711 v 0 c 0.44063,0.20106 1.10111,-0.0822 1.58269,0.0525 1.60764,0.0202 3.21568,0.0409 4.82229,0.10435 1.99502,0.0925 3.97936,0.24765 5.95284,0.5665 1.98365,0.23768 3.97787,0.28585 5.97296,0.34706 1.03949,0.0765 2.09241,0.0956 3.09958,0.39545 1.2213,0.28111 2.48032,0.40448 3.70994,0.64577 1.43945,0.22352 2.89003,0.39942 4.34918,0.39956 1.25148,0.0943 2.50492,0.0909 3.75962,0.0847 1.67011,0.009 3.34025,0.007 5.01023,-0.0185 1.00098,-0.0163 2.00161,0.008 3.00263,0.0171 1.91044,0.0203 3.82156,0.0364 5.73092,0.10553 0.69559,0.048 1.30705,0.0722 1.94249,0.36569 0.18246,0.0843 0.11881,0.1016 0.23013,0.0204 0.32376,0.0478 0.63024,0.1319 0.94559,0.21688 0.88608,0.19909 1.77467,0.23699 2.68149,0.26408 1.82203,0.10071 3.64861,0.0277 5.47253,0.0388 1.01126,-0.0151 2.0224,-0.0403 3.03366,-0.007 1.86989,0.0224 3.73997,0.0246 5.60998,0.0227 1.54768,-0.003 3.09547,-0.0181 4.64267,-0.04 1.26279,0.0225 2.52582,0.0285 3.78876,0.0358 1.92691,0.007 3.85413,0.005 5.78077,-0.0304 0.5088,-0.0166 1.01698,-0.017 1.52596,-0.006 1.15603,0.0198 2.31227,0.0243 3.46843,0.0307 1.54665,-0.005 3.09377,0.007 4.63999,-0.0362 0.39822,0.002 0.79626,-0.005 1.19446,-0.005 0.28186,0.003 0.56415,-0.005 0.84601,-0.007 0.23549,0.008 0.4728,0.008 0.70482,0.0543 0.30369,0.0609 0.57674,0.19185 0.84407,0.34686 0.26621,0.17905 0.57235,0.0342 0.84545,0.31095 0.1327,0.0263 0.66546,0.41362 0.79457,0.36902 0.0328,-0.0113 -10e-4,-0.0694 -0.002,-0.10407 0.43931,-0.0199 0.87845,-0.0395 1.31634,0.0223 0.73926,0.15554 1.45988,0.40127 2.18296,0.61784 1.02473,0.31913 2.06333,0.61463 3.11138,0.84372 1.16588,0.14365 2.33625,0.11746 3.50925,0.1026 3.00192,-0.10034 5.81931,-2.6549 -4.72591,3.38664 0.51194,-0.13378 0.52293,-0.11635 0.51585,-0.62252 -0.008,-0.34849 -0.006,-0.69644 0.008,-1.04481 6e-4,-0.073 -0.0312,-0.72417 0.0169,-0.55296 -0.41867,-0.2268 -0.81475,-0.4977 -1.29539,-0.57483 -1.04042,-0.30642 -2.08726,-0.45276 -3.15925,-0.61992 -1.11045,-0.18927 -2.2292,-0.12426 -3.3522,-0.12505 -0.91937,-0.004 -1.83977,-0.008 -2.75679,-0.0822 -1.31904,-0.11085 -2.63235,-0.26938 -3.94885,-0.40538 -1.72727,-0.0931 -3.45922,-0.0242 -5.1883,-0.0458 -1.85935,5.2e-4 -3.71874,-0.006 -5.57803,0.0151 -2.30265,0.04 -4.60601,0.0892 -6.90294,0.26933 -2.30364,0.16232 -4.60611,0.2721 -6.91672,0.21676 -1.88595,0.007 -3.77193,0.008 -5.65789,0.003 -2.30206,-0.0121 -4.60411,-0.0196 -6.9062,-0.0204 -2.85457,-0.006 -5.70917,-0.0111 -8.56373,-0.003 -2.50113,0.002 -5.00224,0.0168 -7.50337,0.0193 -1.84145,0.003 -3.68293,0.009 -5.52434,0.02 -1.18419,0.005 -2.36837,0.007 -3.55258,0.006 -0.91898,0.002 -1.8379,0.01 -2.75688,0.0125 -0.63008,7.9e-4 -1.26016,-10e-4 -1.8902,0.005 -0.60333,0.005 -1.20687,0.002 -1.80997,0.0213 -0.65542,0.005 -1.31794,0.0285 -1.96672,-0.0793 -0.60521,-0.15137 -1.18671,-0.47224 -1.82582,-0.45059 -0.68603,2.2e-4 -1.37205,-0.002 -2.05804,0.001 -0.80067,-0.004 -1.60175,-0.0144 -2.40135,-0.0584 -1.00822,-0.0698 -2.01283,-0.18825 -3.00772,-0.36795 -1.19973,-0.18147 -2.42012,-0.0749 -3.62906,-0.10513 -1.94792,-0.0143 -3.89583,-0.0185 -5.84379,-0.0237 -2.25956,-1.6e-4 -4.51953,-0.0109 -6.77871,0.0357 0,0 6.04901,-4.39486 6.04901,-4.39486 z"
       inkscape:connector-curvature="0" />
    <path
       style="fill:#008000"
       id="path59"
       d="m 223.62461,748.22856 c 3.05145,0.0581 6.10401,0.0704 9.15603,0.0833 4.46251,0.0266 8.92505,0.009 13.38758,-0.003 3.24111,-0.003 6.48213,-0.0316 9.72322,-0.0385 1.89176,0.22668 3.82233,0.44253 5.64524,1.01726 1.49634,0.43629 2.99131,0.89966 4.46275,1.42042 1.78483,0.55507 3.61802,0.95514 5.40435,1.51442 1.30168,0.27333 2.61707,0.46786 3.91075,0.77298 3.6796,0.86787 -1.75927,-0.25908 1.82621,0.46369 1.58508,0.13412 3.12687,0.56333 4.69629,0.77523 1.41538,-0.0204 2.7676,0.3753 4.16574,0.50862 1.26149,0.0342 2.50112,0.0803 3.7506,0.25215 1.42008,0.39916 2.9084,0.25089 4.35864,0.42104 1.77769,0.35919 3.60121,0.39791 5.40393,0.58463 1.95525,0.15624 3.90343,0.36398 5.86485,0.39857 1.92214,-0.003 3.84402,-0.0381 5.76609,-0.0486 1.73985,-0.0157 3.47973,-0.0265 5.21966,-0.0264 1.42994,-0.0152 2.85997,-8e-5 4.28993,-0.007 1.34957,0.002 2.69919,-3.3e-4 4.04879,-0.003 0.85195,-0.006 1.70424,-0.003 2.55603,-0.0204 3.21239,-0.36599 -6.3277,6.3953 -5.99339,3.54093 0.0468,-0.50571 0.005,-0.60658 -0.19356,-0.97322 -1.01565,-0.79024 -2.08313,-1.51656 -3.12609,-2.27835 -1.16479,-0.73226 -2.46663,-1.1286 -3.81498,-1.3413 -1.01596,-0.12242 -2.04151,-0.10918 -3.06294,-0.10707 -0.49612,0.0461 -1.00921,-0.0504 -1.50397,0.008 -0.39253,0.0462 -0.78237,0.22566 -1.1719,0.30275 -0.12473,0.0253 -0.25562,0.0297 -0.37421,0.0759 -0.24157,0.0941 -0.36042,0.30675 -0.60846,0.39583 -0.40357,0.14494 -0.96569,0.17677 -1.39192,0.21259 -1.14011,0.0685 -2.26409,0.0241 -3.39903,0.16476 -2.73097,0.21948 -5.47166,0.26648 -8.20989,0.31021 -1.68287,0.0119 -3.3665,0.0787 -5.04943,0.0578 -2.74719,0.0638 -5.46699,-0.16015 -8.18584,-0.53571 -2.67952,-0.29017 -5.30849,-0.78585 -7.90284,-1.50673 -0.98943,-0.24607 -1.96722,-0.49534 -2.92032,-0.8593 -1.96247,-0.21457 -3.87531,-0.72615 -5.82948,-0.98145 -1.14089,-0.2668 -2.33264,-0.28355 -3.47701,-0.52122 -1.18586,-0.24628 0.046,-0.10194 -0.96778,-0.19809 -0.51937,0.0976 -0.84899,-0.20912 -1.29939,-0.38113 -0.37975,-0.24549 -0.56529,-0.34105 -1.01773,-0.41402 0,0 6.18532,-4.26931 6.18532,-4.26931 v 0 c 0.39676,0.12567 0.73369,0.33233 1.10962,0.49634 0.38414,0.17803 0.72926,0.21126 1.15546,0.26249 1.43343,0.32764 2.88732,0.54052 4.33799,0.77854 2.00283,0.32245 4.00234,0.70055 5.99953,1.03669 0.94619,0.29991 1.90355,0.55938 2.84976,0.85931 2.51317,0.76503 5.08839,1.1951 7.69502,1.51264 2.75948,0.32828 5.52262,0.45142 8.3013,0.33808 1.64568,-0.017 3.29202,0.0415 4.93795,0.009 2.73834,-0.0401 5.48139,-0.0986 8.2064,-0.39333 1.15859,-0.1119 2.32086,-0.11524 3.47521,-0.26211 0.8129,-0.18698 1.5261,-0.59923 2.35326,-0.72495 0.90871,-0.21368 1.83169,-0.17897 2.76077,-0.17202 1.04617,0.008 2.09859,0.0377 3.12952,0.23198 1.40337,0.31799 2.76974,0.80278 3.95745,1.63544 1.13543,0.80971 2.35344,1.53421 3.36469,2.49816 0.34956,0.54169 0.45972,0.70321 0.42035,1.33599 0.0621,2.77583 -4.14617,4.43116 -6.83181,4.28298 -0.83304,-0.0177 -1.66666,-0.0136 -2.49988,-0.0204 -1.34673,-0.003 -2.69347,-0.005 -4.04017,-0.003 -1.42338,-0.008 -2.84683,0.007 -4.27021,-0.006 -1.7306,0.004 -3.46117,2.7e-4 -5.19175,0.0129 -1.92637,0.0219 -3.85337,0.0559 -5.77973,0.0288 -1.96892,-0.0597 -3.9302,-0.28752 -5.89294,-0.44699 -1.814,-0.17406 -3.63871,-0.23168 -5.43623,-0.5526 -1.4678,-0.0904 -2.94404,-0.10449 -4.38617,-0.43133 -1.25103,-0.13549 -2.50719,-0.10696 -3.75786,-0.24414 -1.39146,-0.19979 -2.76927,-0.46639 -4.17675,-0.54368 -1.55519,-0.31003 -3.11751,-0.56093 -4.67917,-0.83195 -1.91545,-0.45122 -3.83121,-0.88848 -5.75802,-1.28716 -1.81275,-0.50519 -3.63904,-0.95995 -5.43478,-1.52319 -1.48537,-0.46109 -2.9566,-0.9683 -4.45551,-1.38384 -1.79037,-0.44064 -3.60685,-0.80076 -5.45149,-0.90603 -3.20573,-0.007 -6.41139,-0.0355 -9.61714,-0.0385 -4.46008,-0.0117 -8.92017,-0.0292 -13.38024,-0.003 -3.12844,0.0131 -6.25736,0.0261 -9.38528,0.0833 0,0 6.04901,-4.39485 6.04901,-4.39485 z"
       inkscape:connector-curvature="0" />
    <path
       style="fill:#ff0000"
       id="path61"
       d="m 225.05856,752.3666 c 2.7898,0.36569 5.61421,0.37764 8.42302,0.44504 5.99568,0.10411 11.99221,0.10821 17.98858,0.11527 5.02196,-0.005 10.04383,-0.0478 15.06568,-0.0816 2.6208,0.0276 5.24807,-0.13731 7.86485,0.0374 1.18312,0.26621 2.40309,0.21134 3.59991,0.33889 1.24003,0.13215 2.49,0.32944 3.72643,0.50068 2.54341,0.44582 5.07223,0.96529 7.63013,1.31507 2.39906,0.44215 4.79994,0.84388 7.17097,1.42975 2.16294,0.26954 4.22877,0.99339 6.3596,1.42145 2.08051,0.59788 4.21016,0.98838 6.30929,1.50245 2.20428,0.35948 4.37184,0.93841 6.58003,1.27263 2.26192,0.55903 4.52849,1.14142 6.83383,1.49709 2.15572,0.46038 4.34377,0.81068 6.53623,1.05572 1.86062,0.17315 3.73099,0.17774 5.5979,0.19506 1.74979,0.007 3.50022,0.005 5.24985,-0.0235 0.39455,-0.10075 0.86771,0.0967 1.25742,-0.0182 0.0727,-0.0215 0.24241,-0.18104 0.17623,-0.14396 -6.31229,3.5367 -7.12348,5.80899 -6.19544,3.35764 -1.00926,-1.76304 -2.93612,-2.51132 -4.70557,-3.26553 -2.72898,-1.01744 -5.61269,-1.37959 -8.48403,-1.74354 -3.22154,-0.34528 -6.45783,-0.52316 -9.68404,-0.81419 -2.07785,-0.19155 -4.17277,-0.0338 -6.25017,-0.21437 -1.59089,-0.2034 -0.80866,-0.12253 -2.34626,-0.24687 -3.38825,-0.11162 -6.76161,-0.45636 -10.1477,-0.60527 -2.95134,-0.28928 -5.92172,-0.53628 -8.85706,-0.97071 -1.09183,-0.16159 -2.17242,-0.39218 -3.26134,-0.57236 -1.835,-0.51131 -3.71968,-0.7083 -5.59093,-1.01145 -2.3411,-0.10273 -4.61528,-0.73438 -6.91399,-1.13757 -1.82871,-0.60292 -3.6502,-0.78445 -5.56195,-0.8658 -2.98717,-0.0988 -5.9772,-0.0647 -8.96549,-0.0464 -2.60621,0.037 -5.21239,0.014 -7.81861,10e-4 -4.27563,-0.037 -8.55149,-0.0382 -12.82725,-0.0292 -2.78849,-0.26873 -5.60668,-0.14755 -8.37798,-0.57579 -0.96205,-0.20334 -1.93668,-0.2951 -2.91737,-0.3309 -0.79673,-0.0208 -1.59395,-0.0198 -2.39079,-0.006 0.19034,-0.0976 -0.47318,0.0778 -0.37024,0.01 6.07823,-4.02379 4.44563,-4.6994 8.62701,-3.74281 2.77688,0.36318 5.58457,0.37549 8.38049,0.39567 2.56283,0.0391 5.14061,0.14556 7.68863,0.43943 2.7094,0.0181 5.39644,0.29099 8.10047,0.42613 3.1298,0.43826 6.30598,0.52312 9.41874,1.07266 1.12748,0.0732 2.20152,0.39027 3.28824,0.65948 0.73932,0.18315 1.40305,0.31221 2.10529,0.61589 0.9362,0.42907 1.84492,0.84321 2.67293,1.46649 1.08302,0.72421 2.24911,1.30806 3.35741,2.00123 0.994,0.60917 1.9485,1.29171 2.98841,1.81493 1.6574,2.3494 0.54346,0.59209 -6.31486,4.49835 -0.17428,0.0993 -0.35959,-0.18755 -0.55516,-0.23208 -0.27932,-0.0636 -0.57324,-0.0361 -0.85479,-0.0889 -0.98357,-0.1846 -1.95077,-0.44856 -2.93122,-0.64905 -4.98747,-0.7814 -9.93786,-1.79032 -14.94206,-2.46178 -4.97931,-0.73085 -9.99144,-1.21925 -14.99992,-1.7006 -1.46151,-0.27835 -2.95741,-0.27116 -4.42109,-0.52937 -0.71084,-0.1254 -1.41046,-0.31009 -2.12413,-0.42995 -0.6396,-0.0144 -1.23299,-0.35878 -1.54851,-0.89512 -0.82621,-4.66717 8.12632,-4.44097 11.21402,-4.47245 3.42279,-0.0256 6.84575,-0.0195 10.2686,-0.008 5.10529,-0.15818 10.17946,0.35472 15.23726,0.98541 4.14171,0.55278 8.31166,0.89829 12.43827,1.56141 7.33735,1.17907 -1.66218,-0.1799 4.94544,0.80352 3.09802,0.54878 6.17497,1.19711 9.2817,1.70034 2.54058,0.36436 5.11337,0.54974 7.63783,1.01323 2.96939,0.46125 5.95059,0.86366 8.90985,1.39351 3.15945,0.44603 6.27077,1.15081 9.41786,1.66461 2.19238,0.4558 4.411,0.73645 6.64476,0.8679 2.23067,0.096 4.46413,0.0884 6.69638,0.0873 1.38563,-0.003 2.77134,-0.004 4.15686,-0.0247 0.21319,-0.003 0.43129,0.0323 0.63949,-0.0136 0.14335,-0.0316 0.25714,-0.1417 0.38571,-0.21256 0,0 -5.93991,4.5691 -5.93991,4.5691 v 0 c -1.72668,0.11143 -3.46738,-0.0654 -5.19646,0.008 -2.25367,-0.002 -4.50959,0.0162 -6.76084,-0.10342 -2.22604,-0.17665 -4.42901,-0.5273 -6.61514,-0.98281 -3.12477,-0.58355 -6.24215,-1.20632 -9.38564,-1.6841 -2.98393,-0.48856 -5.97867,-0.90967 -8.96977,-1.35138 -2.53515,-0.40183 -5.09485,-0.64382 -7.63516,-1.01348 -3.05361,-0.53994 -6.07677,-1.22211 -9.12191,-1.80472 -5.72338,-0.98543 -11.45375,-1.88795 -17.24076,-2.42897 -5.10795,-0.55907 -10.22639,-0.97349 -15.37045,-0.78781 -3.44671,0.0117 -6.89392,0.005 -10.34001,0.08 -0.77102,0.0263 -1.7705,0.0534 -2.5538,0.10475 -0.35005,0.023 -0.70035,0.0468 -1.04874,0.0878 -0.26779,0.0315 -1.02218,0.28024 -0.79845,0.12973 5.84488,-3.93202 7.67448,-1.98936 5.65918,-3.91475 -0.16026,-0.16844 0.24874,0.16404 0.27672,0.17668 0.26974,0.1219 0.58247,0.0998 0.86124,0.18557 2.0692,0.49803 4.15676,0.82309 6.27383,1.061 4.96657,0.53169 9.9306,1.10791 14.8748,1.8183 5.06529,0.69045 10.09169,1.64051 15.15264,2.36187 0.5627,0.10077 1.12461,0.20608 1.68811,0.30232 0.44004,0.0752 0.87997,0.15224 1.32239,0.21187 0.31647,0.0427 0.63409,0.0853 0.95327,0.0949 0.13468,0.004 0.50968,-0.13333 0.40058,-0.0542 -5.90243,4.27874 -7.75567,2.41964 -5.96624,4.18115 -0.99033,-0.6076 -1.94005,-1.27952 -2.92991,-1.88928 -1.14211,-0.68165 -2.35472,-1.242 -3.44019,-2.01421 -0.79704,-0.54345 -1.67949,-0.92696 -2.55339,-1.33 -1.66463,-0.61485 -3.43716,-0.93223 -5.1807,-1.22702 -3.09636,-0.49092 -6.23311,-0.67399 -9.34787,-1.0193 -2.73158,-0.139 -5.457,-0.31912 -8.19006,-0.41276 -2.52407,-0.24863 -5.06284,-0.41109 -7.59949,-0.41661 -2.84509,-0.0396 -5.70411,-0.0526 -8.52505,-0.46803 -0.60014,-0.11236 -1.20657,-0.19364 -1.80182,-0.32957 -0.21209,-0.0484 -0.79165,-0.0409 -0.62658,-0.18261 4.87342,-4.18323 3.57493,-4.45442 6.32355,-4.39757 0.79639,0.0125 1.59324,0.0159 2.38881,0.0582 0.9834,0.0692 1.95394,0.21966 2.91846,0.42458 2.67494,0.43285 5.40356,0.41065 8.0992,0.6342 4.30365,0.009 8.60741,0.008 12.91092,-0.0322 2.61675,-0.0159 5.23341,-0.0452 7.85029,-0.0259 3.01495,0.004 6.02995,0.002 9.04476,0.0367 1.9093,0.1092 3.76952,0.39359 5.60108,0.9605 2.2957,0.4574 4.58954,0.9804 6.93649,1.09015 1.86192,0.26165 3.69738,0.59291 5.51389,1.09056 3.943,0.76856 7.93111,1.29208 11.94164,1.54985 3.44672,0.15377 6.89149,0.35247 10.33798,0.51086 0.76498,0.0779 1.52693,0.18692 2.29339,0.24864 2.06234,0.16607 4.14025,0.0562 6.19979,0.28176 3.25353,0.26852 6.51934,0.41455 9.76183,0.79878 2.91336,0.39691 5.84532,0.81819 8.59761,1.9061 2.04518,0.86621 4.12586,1.86825 5.27982,3.87478 0.85036,3.88268 -4.93907,4.82689 -7.93835,4.64382 -1.73289,-0.0222 -3.4663,-0.014 -5.19928,-0.0221 -1.88842,-0.0111 -3.7802,-0.046 -5.65873,-0.2575 -2.18396,-0.30042 -4.35775,-0.68573 -6.52097,-1.10738 -2.29606,-0.42995 -4.56657,-0.97893 -6.84503,-1.48746 -2.20354,-0.40994 -4.39289,-0.89706 -6.59524,-1.31556 -2.1129,-0.45778 -4.21486,-0.95356 -6.31131,-1.48355 -2.12477,-0.4666 -4.20457,-1.13333 -6.36348,-1.44577 -2.3529,-0.55726 -4.72819,-0.98133 -7.11066,-1.39009 -2.54811,-0.40241 -5.08127,-0.88438 -7.62612,-1.30595 -2.43314,-0.31418 -4.86682,-0.55576 -7.3093,-0.77918 -2.5777,-0.0994 -5.15912,-0.0317 -7.73809,-0.0813 -4.94924,-0.0315 -9.89851,-0.0712 -14.84786,-0.0772 -6.05297,0.003 -12.10601,0.0193 -18.15891,-0.005 -2.91483,-0.022 -5.84086,-0.0181 -8.74237,-0.33063 0,0 6.12812,-4.32084 6.12812,-4.32084 z"
       inkscape:connector-curvature="0" />
    <path
       style="fill:#d38d5f;stroke-width:0.50507629"
       d="m 223.71403,95.188219 c -0.25581,-0.255808 -12.7612,-1.132662 -25.45029,-1.784526 -4.72246,-0.242602 -11.76827,-0.911383 -15.65736,-1.486179 -5.29424,-0.782473 -9.58622,-1.045771 -17.08036,-1.04782 l -10.00929,-0.0027 0.33497,-1.136421 c 1.47615,-5.007941 14.58942,-34.23843 15.74768,-35.102801 0.55504,-0.41421 2.72883,-0.631345 6.32053,-0.631345 4.61036,0 5.93055,0.188978 8.36349,1.197192 1.58893,0.658455 4.42156,1.699239 6.29472,2.312852 4.12486,1.351228 10.11475,5.168908 14.43217,9.198401 4.38472,4.092308 11.34677,11.999412 12.89787,14.648693 1.19435,2.039941 4.87209,12.224296 4.87209,13.491738 0,0.56488 -0.63882,0.770357 -1.06622,0.342953 z"
       id="path63"
       inkscape:connector-curvature="0"
       transform="translate(86.211154,648.75996)" />
    <path
       style="fill:#d38d5f;stroke-width:0.50507629"
       d="m 186.91675,142.35103 c -11.07429,-0.9822 -19.65605,-4.46839 -26.67296,-10.83544 -4.00158,-3.63098 -5.69773,-6.10546 -7.37065,-10.75296 -2.25514,-6.26492 -4.01744,-5.65201 16.25129,-5.65201 15.54419,0 18.22036,0.1192 23.10724,1.02926 3.03985,0.56609 10.08096,1.34482 15.64692,1.7305 5.56595,0.38568 12.79156,1.11338 16.05691,1.61711 5.63147,0.86874 5.94912,0.98113 6.17248,2.18384 0.12951,0.69739 0.57665,2.74532 0.99365,4.55097 1.00775,4.36374 0.96303,7.20681 -0.1342,8.53069 -1.16702,1.4081 -13.23294,5.31604 -20.56048,6.65919 -6.59919,1.20965 -16.13829,1.5909 -23.4902,0.93885 z"
       id="path65"
       inkscape:connector-curvature="0"
       transform="translate(86.211154,648.75996)" />
  </g>
</svg>
