<?xml version="1.0" encoding="UTF-8" standalone="no"?>
<!-- Created with Inkscape (http://www.inkscape.org/) -->

<svg
   xmlns:dc="http://purl.org/dc/elements/1.1/"
   xmlns:cc="http://creativecommons.org/ns#"
   xmlns:rdf="http://www.w3.org/1999/02/22-rdf-syntax-ns#"
   xmlns:svg="http://www.w3.org/2000/svg"
   xmlns="http://www.w3.org/2000/svg"
   xmlns:sodipodi="http://sodipodi.sourceforge.net/DTD/sodipodi-0.dtd"
   xmlns:inkscape="http://www.inkscape.org/namespaces/inkscape"
   width="362.42377"
   height="233.05673"
   id="svg2"
   version="1.1"
   inkscape:version="0.92.2 5c3e80d, 2017-08-06"
   sodipodi:docname="caro.svg">
  <defs
     id="defs4">
    <inkscape:perspective
       sodipodi:type="inkscape:persp3d"
       inkscape:vp_x="0 : 526.18109 : 1"
       inkscape:vp_y="0 : 1000 : 0"
       inkscape:vp_z="744.09448 : 526.18109 : 1"
       inkscape:persp3d-origin="372.04724 : 350.78739 : 1"
       id="perspective2985" />
  </defs>
  <sodipodi:namedview
     id="base"
     pagecolor="#ffffff"
     bordercolor="#666666"
     borderopacity="1.0"
     inkscape:pageopacity="0.0"
     inkscape:pageshadow="2"
     inkscape:zoom="0.9899495"
     inkscape:cx="252.81565"
     inkscape:cy="110.14529"
     inkscape:document-units="mm"
     inkscape:current-layer="layer1"
     showgrid="false"
     inkscape:object-nodes="true"
     inkscape:window-width="1358"
     inkscape:window-height="699"
     inkscape:window-x="0"
     inkscape:window-y="0"
     inkscape:window-maximized="0"
     showguides="true"
     inkscape:guide-bbox="true"
     units="mm"
     fit-margin-top="0"
     fit-margin-left="0"
     fit-margin-right="0"
     fit-margin-bottom="0" />
  <metadata
     id="metadata7">
    <rdf:RDF>
      <cc:Work
         rdf:about="">
        <dc:format>image/svg+xml</dc:format>
        <dc:type
           rdf:resource="http://purl.org/dc/dcmitype/StillImage" />
        <dc:title />
      </cc:Work>
    </rdf:RDF>
  </metadata>
  <g
     inkscape:label="Layer 1"
     inkscape:groupmode="layer"
     id="layer1"
     transform="translate(-62.954981,-661.86929)">
    <path
       inkscape:connector-curvature="0"
       id="path3908"
       d="M 424.92246,778.39767 244.16685,662.32561 63.411273,778.39763 244.16689,894.4697 Z"
       style="fill:#c4b7c8;stroke:#000000;stroke-width:0.91266221px;stroke-linecap:round;stroke-linejoin:round;stroke-opacity:1" />
    <path
       inkscape:connector-curvature="0"
       style="fill:#aa0000;stroke:#666666;stroke-width:0.91266227px;stroke-linecap:round;stroke-linejoin:round;stroke-opacity:1"
       d="m 236.03893,667.57461 8.16525,5.26656 -8.11026,5.23698 h -0.0274 l -8.16525,-5.26656 8.13776,-5.23698 z m 16.3305,0.0295 8.16525,5.26656 -8.13775,5.23698 8.16525,5.26656 -8.13776,5.23697 h -0.0274 l -8.13776,-5.26656 8.11027,-5.23697 -8.13776,-5.26656 8.11026,-5.23698 z m 8.19275,15.7701 8.13775,-5.23697 8.19275,5.26656 -8.13776,5.23697 8.13776,5.26656 -8.11027,5.23698 h -0.0275 l -8.13775,-5.26657 8.11026,-5.23697 -8.16525,-5.26656 z m -40.93623,-5.26656 8.19275,5.26656 -8.13776,5.23697 8.11026,5.26656 -8.11026,5.23698 8.16525,5.26656 -8.13776,5.23697 8.16525,5.26656 -8.11026,5.23698 h -0.0274 l -8.16525,-5.26656 8.11026,-5.23698 -8.13776,-5.26656 8.11027,-5.23697 -8.13776,-5.26656 8.11022,-5.23693 h 0.0275 l -8.13776,-5.26656 8.11027,-5.23697 z m 8.22024,26.27363 8.11026,-5.23697 -8.13775,-5.26657 8.13775,-5.23697 -8.13775,-5.26656 8.11026,-5.23697 h 0.0275 l 8.16525,5.26656 -8.13776,5.23697 8.13776,5.26656 -8.13776,5.23698 8.16525,5.26656 -8.11026,5.23697 8.13776,5.26656 -8.11027,5.23698 8.13776,5.26656 -8.11027,5.23697 8.16525,5.26656 -8.11026,5.23698 8.13776,5.26656 -8.13776,5.23697 8.16525,5.26656 -8.13776,5.23698 8.16525,5.26656 -8.11027,5.23697 8.13776,5.26656 -8.11026,5.23698 h -0.0274 l -8.13776,-5.26657 8.11027,-5.23697 -8.16525,-5.26656 8.11026,-5.23697 -8.13776,-5.26657 8.11027,-5.23697 -4.06888,-2.63328 -4.06888,-2.63328 8.11027,-5.23697 -8.13776,-5.26657 8.00029,-5.17779 0.10997,-0.0592 -8.16525,-5.26656 8.13776,-5.23697 -8.13776,-5.26657 8.11027,-5.23697 z m 0.19245,63.02121 -8.13776,5.23697 h -0.0274 l -8.13776,-5.26656 8.11027,-5.23697 -4.06888,-2.63328 -4.06888,-2.63328 8.11026,-5.23698 -8.16525,-5.26656 8.13776,-5.23697 8.16525,5.26656 -8.11026,5.23697 8.13775,5.26656 -8.11026,5.23698 8.16525,5.26656 z m 16.27551,-10.47395 8.13776,-5.23697 -8.13776,-5.26656 8.11027,-5.23698 h 0.0275 l 8.16525,5.26656 -8.13776,5.23698 8.16525,5.26656 -8.13776,5.23697 8.13776,5.26656 -8.11027,5.23698 8.13776,5.26656 -8.11026,5.23697 8.16525,5.26656 -8.11027,5.23698 h -0.0274 l -8.16525,-5.26656 8.11027,-5.23698 -4.06888,-2.63328 -4.06888,-2.63328 8.11027,-5.23697 -8.13776,-5.26656 8.11026,-5.23698 z m -40.99121,-68.34694 8.16525,5.26656 -8.11026,5.23697 8.13776,5.26656 -8.11027,5.23698 h -0.0274 l -8.13776,-5.26657 8.11027,-5.23697 -8.16525,-5.26656 8.13776,-5.23697 z m 81.7075,0.0887 8.19274,5.26656 -8.0003,5.14821 8.13776,5.26656 -8.11026,5.23698 h -0.0274 l -8.13776,-5.26656 7.9728,-5.14821 -4.06888,-2.63328 -4.06888,-2.63329 8.11027,-5.23697 z m -32.74348,0 8.19274,5.26656 -8.13776,5.23698 8.11027,5.26656 -8.13776,5.23697 -8.13776,-5.26656 8.13776,-5.23697 -8.16525,-5.26657 z m 0.0274,21.00707 8.16526,5.26656 -8.11027,5.23698 h -0.0275 l -4.06888,-2.63328 -4.06888,-2.63329 z m 49.184,-10.56261 8.19274,5.26656 -8.13776,5.23697 8.16526,5.26656 -8.13776,5.23698 h -0.0274 l -8.13776,-5.26657 8.11027,-5.23697 -4.06888,-2.63328 -4.06888,-2.63328 8.11026,-5.23697 z m 8.22024,15.77009 8.13775,-5.23697 8.19275,5.26656 -8.13776,5.23697 8.13776,5.26656 -8.11027,5.23698 h -0.0274 l -8.13776,-5.26656 8.11027,-5.23698 -8.16525,-5.26656 z m -122.80867,-15.77009 8.16525,5.26656 -8.11027,5.23697 8.13776,5.26656 -8.13776,5.23698 8.16525,5.26656 -8.13776,5.23697 8.16525,5.26656 -8.11026,5.23698 8.13776,5.26656 -8.11027,5.23697 h -0.0274 l -8.13776,-5.26656 8.11027,-5.23697 -8.16525,-5.26657 8.11026,-5.23697 -8.13775,-5.26656 8.11026,-5.23697 -8.13776,-5.26657 8.11023,-5.23697 -4.06888,-2.63328 -4.06888,-2.63328 z m -8.05529,36.74757 -8.13775,5.23698 h -0.0274 l -8.13776,-5.26656 8.11027,-5.23698 -8.13776,-5.26656 8.11022,-5.23697 -8.16525,-5.26656 8.13776,-5.23698 8.16525,5.26656 -8.11027,5.23698 8.13776,5.26656 -8.11027,5.23697 z m 16.27552,-10.47394 8.13776,-5.23698 -8.13776,-5.26656 8.11027,-5.23697 h 0.0275 l 8.16525,5.26656 -8.13776,5.23697 8.16525,5.26656 -8.13776,5.23698 8.13776,5.26656 -8.11027,5.23697 8.13776,5.26656 -8.11026,5.23698 h -0.0275 l -4.06888,-2.63328 -4.06888,-2.63328 8.11026,-5.23698 -8.13775,-5.26656 8.11026,-5.23697 z m 73.48726,-26.18487 8.19274,5.26656 -8.02779,5.1778 8.16525,5.26656 -8.13776,5.23697 -8.16525,-5.26656 8.0003,-5.1778 -8.16525,-5.26656 z m 0.19244,20.94789 8.16526,5.26656 -8.11027,5.23698 8.16525,5.26656 -8.13776,5.23697 8.16525,5.26656 -8.11026,5.23698 h -0.0274 l -8.16525,-5.26656 8.11026,-5.23698 -8.13776,-5.26656 8.11027,-5.23697 -4.06888,-2.63328 -4.06888,-2.63328 8.11027,-5.23698 z m 8.22024,15.7701 8.11027,-5.23697 -8.13776,-5.26657 8.13776,-5.23697 -8.16525,-5.26656 8.13775,-5.23697 8.19275,5.26656 -8.13776,5.23697 8.13776,5.26656 -8.13776,5.23698 8.16525,5.26656 -8.11027,5.23697 8.13776,5.26656 -8.11026,5.23698 8.13775,5.26656 -8.11026,5.23697 h -0.0274 l -8.16525,-5.26656 8.13776,-5.23697 -8.13776,-5.26657 8.11026,-5.23697 -8.16525,-5.26656 z m -122.6987,-15.85886 8.16525,5.26656 -8.11027,5.23698 h -0.0274 l -8.16525,-5.26657 8.13775,-5.23697 z m 98.17546,0.0592 8.16525,5.26656 -8.11027,5.23697 8.13776,5.26656 -8.11027,5.23698 h -0.0275 l -8.16525,-5.26657 8.13776,-5.23697 -8.16525,-5.26656 8.13776,-5.23697 z m 81.67999,0.0592 8.19275,5.26656 -8.13776,5.23698 8.16525,5.26656 -8.11027,5.23697 h -0.0274 l -8.16525,-5.26656 8.11026,-5.23697 -4.06888,-2.63329 -4.06888,-2.63328 8.11027,-5.23697 z m -114.56094,0 8.13776,5.26656 -8.11026,5.23698 8.13775,5.26656 -8.13775,5.23697 h -0.0274 l -4.06888,-2.63328 -4.06888,-2.63328 8.11026,-5.23697 -8.11026,-5.26657 8.11026,-5.23697 z m 81.84496,0.0295 8.19274,5.26656 -8.13776,5.23698 8.11027,5.26656 -8.13776,5.23697 -8.13776,-5.26651 8.13776,-5.23698 -8.16525,-5.26656 8.13776,-5.23697 z m 0.0274,21.00707 8.16525,5.26656 -8.11027,5.23698 8.16525,5.26656 -8.11026,5.23697 8.13775,5.26656 -8.11026,5.23698 h -0.0275 l -8.16525,-5.26657 8.13776,-5.23697 -8.16525,-5.26656 8.11026,-5.23697 -4.06888,-2.63328 -4.06888,-2.63329 8.11027,-5.23697 z m -163.55245,-10.5923 8.19274,5.26656 -8.13776,5.23698 8.11027,5.26656 -8.11027,5.23697 8.16526,5.26656 -8.13776,5.23698 8.16525,5.26656 -8.11027,5.23697 h -0.0275 l -8.16525,-5.26656 8.11027,-5.23697 -8.13776,-5.26656 8.11027,-5.23698 -8.13776,-5.26656 8.11026,-5.23697 h 0.0274 l -8.13776,-5.26656 z m 8.22024,26.27363 8.11026,-5.23697 -8.13776,-5.26656 8.13776,-5.23697 -8.13776,-5.26657 8.11027,-5.23697 h 0.0274 l 8.16525,5.26656 -8.13776,5.23698 8.13776,5.26656 -8.13776,5.23697 8.16525,5.26656 -8.11027,5.23698 8.13776,5.26656 -8.11026,5.23697 8.13776,5.26656 -8.11027,5.23698 8.16525,5.26656 -8.11027,5.23697 8.13776,5.26656 -8.11026,5.23698 8.16525,5.26656 -8.13776,5.23697 8.16525,5.26656 -8.13776,5.23698 8.13776,5.26656 -8.11027,5.23697 h -0.0274 l -8.13776,-5.26656 8.11026,-5.23697 -8.16525,-5.26657 8.13776,-5.23697 -8.13776,-5.26656 8.11027,-5.23697 -4.06888,-2.63328 -4.06888,-2.63329 8.11027,-5.23697 -8.16525,-5.26656 8.00029,-5.1778 0.10997,-0.0592 -8.16525,-5.26657 8.13776,-5.23697 -8.13776,-5.26656 8.11027,-5.23697 z m 0.19244,63.02121 -8.13776,5.23698 h -0.0274 l -8.13776,-5.26656 8.11026,-5.23698 -4.06888,-2.63328 -4.06888,-2.63328 8.11027,-5.23697 -8.13776,-5.26656 8.13776,-5.23698 8.16525,5.26656 -8.11026,5.23698 8.13775,5.26656 -8.13775,5.23697 8.16525,5.26656 z m 16.30301,-10.47394 8.11027,-5.23698 -8.13776,-5.26656 8.11031,-5.23692 h 0.0275 l 8.16525,5.26656 -8.13776,5.23697 8.16525,5.26656 -8.11027,5.23698 8.13776,5.26656 -8.11026,5.23697 8.13776,5.26656 -8.13776,5.23698 8.16525,5.26656 -8.11027,5.23697 h -0.0275 l -8.16525,-5.26656 8.11027,-5.23697 -4.06888,-2.63328 -4.06888,-2.63329 8.11027,-5.23697 -8.11027,-5.26656 8.11027,-5.23697 -8.16525,-5.26657 z m 187.88329,-78.73209 8.19274,5.26656 -8.13776,5.23698 8.16525,5.26656 -8.13775,5.23697 h -0.0274 l -8.13776,-5.26656 8.11027,-5.23697 -4.06888,-2.63328 -4.06893,-2.63328 z m 8.22023,15.7701 8.13776,-5.23697 8.19275,5.26656 -8.13776,5.23697 8.13776,5.26656 -8.11027,5.23698 h -0.0274 l -8.13776,-5.26657 8.11027,-5.23697 -8.16525,-5.26656 z m -40.96371,-15.74051 8.19274,5.26656 -8.13776,5.23698 8.13776,5.26656 -8.13776,5.23697 -8.13775,-5.26656 8.11026,-5.23697 -8.16525,-5.26657 z m 0.055,21.00707 8.16525,5.26656 -8.11026,5.23698 8.16525,5.26656 -8.13776,5.23697 8.16525,5.26656 -8.11026,5.23698 h -0.0274 l -8.16525,-5.26657 8.11026,-5.23697 -8.13776,-5.26656 8.11027,-5.23697 -4.06888,-2.63329 -4.06888,-2.63328 8.11027,-5.23697 z m 8.22024,15.7701 8.11026,-5.23698 -8.13775,-5.26656 8.13775,-5.23697 -8.16525,-5.26656 8.13776,-5.23698 8.19275,5.26656 -8.13776,5.23698 8.13776,5.26656 -8.13776,5.23697 8.16525,5.26656 -8.11027,5.23698 8.13776,5.26656 -8.11027,5.23697 8.13776,5.26656 -8.11026,5.23698 h -0.0274 l -8.16525,-5.26656 8.13771,-5.23698 -8.13776,-5.26656 8.11027,-5.23697 z m -204.43369,-26.42157 8.16526,5.26656 -8.11027,5.23697 8.13776,5.26656 -8.11027,5.23698 h -0.0275 l -8.13775,-5.26656 8.11026,-5.23698 -8.16525,-5.26656 z m 48.96402,0.0887 8.19274,5.26656 -8.13776,5.23698 8.11027,5.26656 -8.13776,5.23697 -8.13776,-5.26656 8.13776,-5.23697 -8.16525,-5.26656 z m 0.0274,21.00707 8.16526,5.26656 -7.97281,5.14822 8.13776,5.26656 -8.11027,5.23697 8.13776,5.26656 -8.11026,5.23698 h -0.0275 l -8.16525,-5.26657 8.13776,-5.23697 -8.13776,-5.26656 7.9728,-5.14821 -4.06888,-2.63328 -4.06888,-2.63328 z m 32.88095,-10.59229 8.16525,5.26656 -8.11027,5.23697 h -0.0275 l -8.16525,-5.26656 8.13776,-5.23697 z m -98.28543,0.0295 8.16525,5.26656 -8.11026,5.23697 8.13776,5.26656 -8.11027,5.23698 8.16525,5.26656 -8.13776,5.23697 8.16525,5.26656 -8.13776,5.23698 8.13776,5.26656 -8.11026,5.23697 h -0.0275 l -8.13776,-5.26656 8.11027,-5.23697 -8.165255,-5.26656 8.137755,-5.23698 -8.137755,-5.26656 8.110265,-5.23697 -8.137757,-5.26657 8.110267,-5.23697 -8.165252,-5.26656 z m -8.055235,36.74767 -8.137761,5.23697 h -0.02745 l -8.137759,-5.26656 8.110266,-5.23697 -8.137758,-5.26656 8.110266,-5.23698 -4.068879,-2.63328 -4.068879,-2.63328 8.137758,-5.23697 8.165253,5.26656 -8.110268,5.23697 8.137761,5.26656 -8.137761,5.23698 z m 16.303005,-10.47395 8.11027,-5.23697 -8.13776,-5.26656 8.11027,-5.23698 h 0.0275 l 8.16525,5.26656 -8.13776,5.23698 8.16525,5.26656 -8.11027,5.23697 8.13776,5.26656 -8.11026,5.23698 8.13775,5.26656 -8.13775,5.23697 h -0.0275 l -4.06888,-2.63328 -4.06888,-2.63328 8.11026,-5.23697 -8.11026,-5.26656 8.11026,-5.23698 z m 155.33221,-26.18487 8.13776,5.26656 -8.11026,5.23698 8.13776,5.26656 -8.13776,5.23697 8.16525,5.26656 -8.11027,5.23698 8.13776,5.26656 -8.11027,5.23697 8.16525,5.26656 -8.13775,5.23698 h -0.0274 l -8.13776,-5.26656 8.11027,-5.23698 -4.06888,-2.63328 -4.06888,-2.63328 8.11026,-5.23697 -8.16525,-5.26656 8.11027,-5.23698 -4.06888,-2.63328 -4.06888,-2.63328 8.11027,-5.23697 -8.11027,-5.26656 8.11027,-5.23698 z m 8.27522,47.2807 8.11027,-5.23697 -8.13776,-5.26656 8.11027,-5.23697 -4.06888,-2.63329 -4.06888,-2.63328 8.11027,-5.23697 -8.13776,-5.26656 8.13776,-5.23697 8.16525,5.26656 -8.11027,5.23697 8.13776,5.26656 -8.13776,5.23698 8.16525,5.26656 -8.13776,5.23697 8.16525,5.26656 -8.11026,5.23698 8.13776,5.26656 -8.11027,5.23697 h -0.0274 l -8.13776,-5.26656 8.11027,-5.23697 -8.16525,-5.26657 z m 16.27552,-10.47394 8.13776,-5.23698 -8.13776,-5.26656 8.11027,-5.23697 h 0.0274 l 8.16525,5.26656 -8.13776,5.23697 8.16525,5.26656 -8.13776,5.23698 8.13776,5.26656 -8.11027,5.23697 8.13776,5.26656 -8.11026,5.23698 8.16525,5.26656 -8.11027,5.23697 h -0.0275 l -8.16525,-5.26656 8.11027,-5.23697 -4.06888,-2.63328 -4.06888,-2.63328 8.11026,-5.23698 -8.13775,-5.26656 8.11026,-5.23697 z m -106.42318,-36.80676 8.19274,5.26656 -8.02779,5.1778 8.13776,5.23698 -8.13776,5.23697 -8.13776,-5.23697 8.0003,-5.1778 -8.16525,-5.26656 z m 0.16495,20.91831 8.16525,5.26656 -8.11026,5.23698 8.16525,5.26656 -8.13776,5.23697 8.16525,5.26656 -8.11027,5.23698 h -0.0274 l -8.16525,-5.26657 8.11026,-5.23697 -8.13776,-5.26656 8.11027,-5.23697 -4.06888,-2.63328 -4.06888,-2.63329 8.11027,-5.23697 z m 8.22024,15.7701 8.11026,-5.23698 -8.13775,-5.26656 8.13775,-5.23697 -8.16525,-5.26656 8.13776,-5.23698 8.19274,5.26656 -8.13775,5.23698 8.13775,5.26656 -8.13775,5.23697 8.16525,5.26656 -8.11027,5.23698 8.13776,5.26656 -8.11027,5.23697 8.13776,5.26656 -8.11026,5.23698 h -0.0274 l -8.16525,-5.26656 8.13776,-5.23698 -8.13776,-5.26656 8.11026,-5.23697 -8.16525,-5.26656 z m 187.91073,-36.62923 8.19275,5.26656 -8.13776,5.23697 8.16525,5.26656 -8.11027,5.23698 h -0.0274 l -8.16526,-5.26656 8.11027,-5.23698 -4.06888,-2.63328 -4.06888,-2.63328 8.11027,-5.23697 z m -32.71598,0.0295 8.19274,5.26656 -8.13776,5.23697 8.11027,5.26656 -8.13776,5.23698 -8.13776,-5.26656 8.13776,-5.23698 -8.16525,-5.26656 z m 0.0274,21.00712 8.16526,5.26656 -8.11027,5.23697 8.16525,5.26656 -8.11027,5.23698 8.13776,5.26656 -8.11026,5.23697 h -0.0274 l -8.16525,-5.26656 8.13776,-5.23697 -8.16525,-5.26657 8.11026,-5.23697 -4.06888,-2.63328 -4.06888,-2.63328 z m 49.04649,-10.50354 8.19275,5.26656 -8.13776,5.23698 8.16525,5.26656 -8.13776,5.23697 h -0.0274 l -8.13776,-5.26656 8.11027,-5.23697 -4.06888,-2.63329 -4.06888,-2.63328 8.11027,-5.23697 z m 8.22024,15.7701 8.13776,-5.23698 8.19274,5.26656 -8.13776,5.23698 h -0.0274 l -8.16525,-5.26656 z M 366.8477,762.343 l 8.19275,5.26656 -8.13776,5.23697 8.13776,5.26656 -8.13776,5.23698 -8.13776,-5.26656 8.11027,-5.23698 -8.16525,-5.26656 z m 0.055,21.00707 8.16525,5.26656 -8.11027,5.23697 8.16525,5.26656 -8.13775,5.23698 8.16525,5.26656 -8.11027,5.23697 h -0.0274 l -8.16525,-5.26656 8.11027,-5.23697 -8.13776,-5.26656 8.11026,-5.23698 -4.06887,-2.63328 -4.06888,-2.63328 8.11026,-5.23697 z m 8.22023,15.77009 8.11027,-5.23697 -8.13776,-5.26656 8.13776,-5.23697 -8.16525,-5.26657 8.13776,-5.23697 8.19274,5.26656 -8.13776,5.23698 8.13776,5.26656 -8.13776,5.23697 8.16525,5.26656 -8.11026,5.23698 h -0.0274 l -8.16525,-5.26657 z m -302.471632,-26.53991 8.165251,5.26656 -8.110266,5.23697 h -0.02745 l -8.16525,-5.26656 8.137758,-5.23697 z m 147.111982,0.11835 8.19274,5.26656 -8.13776,5.23697 8.11027,5.26656 -8.13776,5.23698 -8.13776,-5.26657 8.13776,-5.23697 -8.16525,-5.26656 z m 0.0274,21.00707 8.16525,5.26656 -8.11026,5.23697 8.16525,5.26656 -8.11027,5.23698 8.13776,5.26656 -8.11026,5.23697 h -0.0274 l -8.16525,-5.26656 8.13776,-5.23697 -8.16526,-5.26657 8.11027,-5.23697 -4.06888,-2.63328 -4.06888,-2.63328 z m -81.84495,-21.00707 8.13776,5.26656 -8.11027,5.23697 8.13776,5.26656 -8.11027,5.23698 h -0.0274 l -4.06888,-2.63328 -4.06888,-2.63329 8.11026,-5.23697 -8.13775,-5.26656 8.11026,-5.23697 z m 98.14796,10.53312 8.19275,5.26656 -8.13776,5.23697 8.13776,5.26656 -8.13776,5.23698 -8.13776,-5.26656 8.11027,-5.23698 -8.16526,-5.26656 z m 0.055,21.00707 8.16525,5.26656 -8.11027,5.23697 8.16525,5.26656 -8.13776,5.23698 8.16526,5.26656 -8.11027,5.23697 h -0.0274 l -8.16525,-5.26656 8.11027,-5.23697 -8.13776,-5.26656 8.11026,-5.23698 -4.06888,-2.63328 -4.06887,-2.63328 8.11026,-5.23697 z m 8.22023,15.77009 8.11027,-5.23697 -8.13776,-5.26656 8.13776,-5.23697 -8.16525,-5.26657 8.13776,-5.23697 8.19274,5.26656 -8.13776,5.23698 8.13776,5.26656 -8.13776,5.23697 8.16525,5.26656 -8.11026,5.23698 8.13775,5.26656 -8.11026,5.23697 8.13776,5.26656 -8.11027,5.23698 h -0.0274 l -8.16525,-5.26657 8.13776,-5.23697 -8.13776,-5.26656 8.11027,-5.23697 -8.16525,-5.26657 z m 73.48726,-36.6884 8.13776,5.26656 -8.11027,5.23698 8.13776,5.26656 -8.13776,5.23697 8.16525,5.26656 -8.11026,5.23698 8.13776,5.26656 -8.11027,5.23697 8.16525,5.26656 -8.13776,5.23698 h -0.0274 l -8.13776,-5.26657 8.11027,-5.23697 -4.06888,-2.63328 -4.06888,-2.63328 8.11027,-5.23697 -8.16525,-5.26657 8.11026,-5.23697 -4.06888,-2.63328 -4.06887,-2.63328 8.11026,-5.23697 -8.11026,-5.26657 8.11026,-5.23697 z m 8.27522,47.2807 8.11027,-5.23697 -8.13776,-5.26656 8.11026,-5.23698 -4.06888,-2.63328 -4.06887,-2.63328 8.11026,-5.23697 -8.13776,-5.26656 8.13776,-5.23698 8.16525,5.26656 -8.11026,5.23698 8.13775,5.26656 -8.13775,5.23697 8.16525,5.26656 -8.13776,5.23698 8.16525,5.26656 -8.11027,5.23697 h -0.0275 l -8.16525,-5.26656 z m 16.27552,-10.47395 8.13775,-5.23697 -8.13775,-5.26656 8.11026,-5.23697 h 0.0274 l 8.16525,5.26656 -8.13776,5.23697 8.16525,5.26656 -8.13775,5.23698 h -0.0274 z m 57.15675,-36.71799 8.19274,5.26656 -8.13775,5.23698 h -0.0274 l -8.16525,-5.26656 8.13776,-5.23698 z m -277.72845,20.7112 8.16525,5.26656 -8.11026,5.23697 h -0.0274 l -8.16525,-5.26656 8.13776,-5.23697 z m 65.29451,0.11835 8.13776,5.26656 -8.11026,5.23697 8.13776,5.26656 -8.11027,5.23698 8.16525,5.26656 -8.11027,5.23697 8.13776,5.26656 -8.13776,5.23698 8.16526,5.26656 -8.13776,5.23697 h -0.0274 l -8.13776,-5.26656 8.11027,-5.23697 -4.06888,-2.63328 -4.06888,-2.63328 8.11026,-5.23698 -8.13775,-5.26656 8.11026,-5.23697 -4.06888,-2.63328 -4.06888,-2.63328 8.11027,-5.23698 -8.13776,-5.26656 8.11027,-5.23697 z m 8.27523,47.2807 8.13775,-5.23697 -8.13775,-5.26657 8.11026,-5.23697 -4.06888,-2.63328 -4.06888,-2.63328 8.11027,-5.23697 -8.16525,-5.26657 8.13776,-5.23697 8.16525,5.26656 -8.11027,5.23698 8.13776,5.26656 -8.11027,5.23697 8.16525,5.26656 -8.13775,5.23698 8.16525,5.26656 -8.13776,5.23697 8.13776,5.26656 -8.11027,5.23698 h -0.0274 l -8.13776,-5.26657 8.11027,-5.23697 -8.16525,-5.26656 z m 16.303,-10.47395 8.11027,-5.23697 -8.13776,-5.26656 8.11027,-5.23698 h 0.0275 l 8.16525,5.26656 -8.13776,5.23698 8.16525,5.26656 -8.11027,5.23697 8.13776,5.26656 -8.11026,5.23698 8.13775,5.26656 -8.13775,5.23697 8.16525,5.26656 -8.11027,5.23698 h -0.0274 l -8.16525,-5.26656 8.11027,-5.23698 -4.06888,-2.63328 -4.06888,-2.63328 8.11027,-5.23697 -8.11027,-5.26656 8.11027,-5.23698 z m 57.10177,-36.74758 8.19275,5.26656 -8.13776,5.23698 8.11027,5.26656 -8.13776,5.23697 -8.13776,-5.26656 8.13776,-5.23697 -8.16525,-5.26656 z m 0.0274,21.00707 8.16525,5.26656 -8.11026,5.23698 8.16525,5.26656 -8.11027,5.23697 8.13776,5.26656 -8.11027,5.23698 h -0.0274 l -8.16525,-5.26656 8.13775,-5.23698 -8.16525,-5.26656 8.11027,-5.23697 -4.06888,-2.63328 -4.06888,-2.63328 8.11027,-5.23698 z m 16.30301,-10.47394 8.19274,5.26656 -8.13775,5.23697 8.13775,5.26656 -8.13775,5.23698 -8.13776,-5.26657 8.11026,-5.23697 -8.16525,-5.26656 z m 0.055,21.00707 8.16525,5.26656 -8.11027,5.23697 8.16525,5.26656 -8.13776,5.23698 8.16525,5.26656 -8.11026,5.23697 h -0.0274 l -8.16525,-5.26656 8.11027,-5.23697 -8.13776,-5.26657 8.11026,-5.23697 -4.06888,-2.63328 -4.06888,-2.63328 8.11027,-5.23697 z m 8.22023,15.77009 8.11027,-5.23697 -8.13776,-5.26656 8.13776,-5.23698 -8.16525,-5.26656 8.13776,-5.23697 8.19274,5.26656 -8.13776,5.23697 8.13776,5.26656 -8.13776,5.23698 8.16525,5.26656 -8.11026,5.23697 h -0.0275 z m -57.23919,-15.77009 8.13776,5.26656 -8.11026,5.23697 8.13775,5.26656 -8.11026,5.23698 8.16525,5.26656 -8.11027,5.23697 8.13776,5.26656 -8.13776,5.23698 8.16525,5.26656 -8.13775,5.23697 h -0.0275 l -8.13776,-5.26656 8.11027,-5.23697 -4.06888,-2.63328 -4.06888,-2.63329 8.11026,-5.23697 -8.13776,-5.26656 8.11027,-5.23697 -4.06888,-2.63328 -4.06888,-2.63329 8.11027,-5.23697 -8.13776,-5.26656 8.11027,-5.23697 z m 8.27522,47.2807 8.13776,-5.23698 -8.13776,-5.26656 8.11027,-5.23697 -4.06888,-2.63328 -4.06888,-2.63328 8.11027,-5.23698 -8.16525,-5.26656 8.13776,-5.23697 8.16525,5.26656 -8.11027,5.23697 8.13776,5.26656 -8.11027,5.23698 8.16525,5.26656 -8.13775,5.23697 8.16525,5.26656 -8.13776,5.23698 h -0.0275 z m 16.30301,-10.47395 8.11027,-5.23697 -8.13776,-5.26657 8.11027,-5.23697 h 0.0274 l 8.16525,5.26656 -8.13776,5.23698 8.16525,5.26656 -8.11027,5.23697 h -0.0274 z m 57.10177,-36.74758 8.19275,5.26656 -8.13776,5.23698 h -0.0274 l -8.16525,-5.26657 8.13776,-5.23697 z"
       id="path3982" />
  </g>
</svg>
