<?xml version="1.0" encoding="UTF-8" standalone="no"?>
<svg
   xmlns:dc="http://purl.org/dc/elements/1.1/"
   xmlns:cc="http://creativecommons.org/ns#"
   xmlns:rdf="http://www.w3.org/1999/02/22-rdf-syntax-ns#"
   xmlns:svg="http://www.w3.org/2000/svg"
   xmlns="http://www.w3.org/2000/svg"
   xmlns:sodipodi="http://sodipodi.sourceforge.net/DTD/sodipodi-0.dtd"
   xmlns:inkscape="http://www.inkscape.org/namespaces/inkscape"
   width="403.49017"
   height="203.39656"
   version="1.1"
   inkscape:version="0.92.2 5c3e80d, 2017-08-06"
   sodipodi:docname="coolsunbull.svg"
   id="svg70">
  <rect
     id="backgroundrect"
     width="100%"
     height="100%"
     x="-15.308853"
     y="-80.760246"
     style="fill:none;stroke:none" />
  <defs
     id="defs4">
    <inkscape:perspective
       sodipodi:type="inkscape:persp3d"
       inkscape:vp_x="0 : 526.18109 : 1"
       inkscape:vp_y="0 : 1000 : 0"
       inkscape:vp_z="744.09448 : 526.18109 : 1"
       inkscape:persp3d-origin="372.04724 : 350.78739 : 1"
       id="perspective2985" />
  </defs>
  <sodipodi:namedview
     id="base"
     pagecolor="#ffffff"
     bordercolor="#666666"
     borderopacity="1.0"
     inkscape:pageopacity="0.0"
     inkscape:pageshadow="2"
     inkscape:zoom="1.979899"
     inkscape:cx="184.61197"
     inkscape:cy="89.204127"
     inkscape:document-units="mm"
     inkscape:current-layer="layer1"
     showgrid="false"
     inkscape:object-nodes="true"
     inkscape:window-width="1440"
     inkscape:window-height="766"
     inkscape:window-x="0"
     inkscape:window-y="1"
     inkscape:window-maximized="1"
     showguides="false"
     inkscape:guide-bbox="true"
     units="mm"
     fit-margin-top="0"
     fit-margin-left="0"
     fit-margin-right="0"
     fit-margin-bottom="0" />
  <metadata
     id="metadata7">
    <rdf:RDF>
      <cc:Work
         rdf:about="">
        <dc:format>image/svg+xml</dc:format>
        <dc:type
           rdf:resource="http://purl.org/dc/dcmitype/StillImage" />
        <dc:title />
      </cc:Work>
    </rdf:RDF>
  </metadata>
  <g
     class="currentLayer"
     id="g68"
     transform="translate(-15.308853,-80.760247)">
    <title
       id="title7">Layer 1</title>
    <g
       inkscape:label="Layer 1"
       inkscape:groupmode="layer"
       id="layer1"
       class=""
       style="fill:#eb1a1a;fill-opacity:1">
      <path
         inkscape:connector-curvature="0"
         id="path3908"
         d="M 474.37627,771.83168 268.91558,649.23729 63.454937,771.83164 268.91563,894.42603 Z"
         style="fill:#eb1a1a;fill-opacity:1;stroke:#000000;stroke-width:1px;stroke-linecap:round;stroke-linejoin:round;stroke-opacity:1" />
      <path
         style="fill:#eb1a1a;fill-opacity:1;stroke-width:0.50507599"
         d="m 151.84187,718.81778 c 0.17168,-0.2778 0.53944,-0.50508 0.81723,-0.50508 0.27779,0 0.3646,0.22728 0.19292,0.50508 -0.17168,0.27779 -0.53944,0.50507 -0.81723,0.50507 -0.27779,0 -0.36461,-0.22728 -0.19292,-0.50507 z"
         id="path275"
         inkscape:connector-curvature="0" />
      <path
         style="fill:#eb1a1a;fill-opacity:1;stroke-width:0.50507599"
         d=""
         id="path277"
         inkscape:connector-curvature="0" />
      <path
         style="fill:#eb1a1a;fill-opacity:1;stroke-width:0.50507599"
         d=""
         id="path279"
         inkscape:connector-curvature="0" />
      <path
         style="fill:#eb1a1a;fill-opacity:1"
         id="path12"
         d="m 335.05552,786.00332 c -2.65052,-0.0655 -5.30238,-0.0801 -7.95366,-0.088 -4.27794,-0.14013 -8.54011,0.23986 -12.80404,0.51462 -4.30148,0.18262 -8.59186,0.53789 -12.88917,0.79143 -2.53614,0.15817 -5.07708,0.22334 -7.61737,0.27046 -1.86533,-0.0277 -3.71939,-0.28633 -5.58339,-0.39659 -3.94614,-0.21519 -7.89535,-0.15911 -11.84427,-0.0909 -6.62345,0.14171 -13.24784,0.24941 -19.87253,0.31027 -4.55209,-0.048 -9.11765,0.31071 -13.6588,-0.0958 -2.46425,-0.51392 -4.56752,-1.31644 -7.10371,-1.46154 -3.03324,0.0524 -5.94706,1.01104 -8.87497,1.70464 -2.59944,0.65504 -5.207,1.28831 -7.84864,1.75093 -1.57345,0.14772 -3.11802,0.47396 -4.68669,0.66146 -1.01163,0.12034 -2.03276,0.17097 -3.05144,0.17309 -0.9271,-10e-5 -1.85423,0.005 -2.78125,-0.009 -1.64251,-0.0184 -3.28513,-0.0162 -4.92761,-0.0366 -2.30114,-0.0903 -4.59093,0.13986 -6.88021,0.33513 -1.24754,0.0938 -2.49674,0.1547 -3.74564,0.22425 -0.52837,0.0114 -1.05663,-5e-4 -1.58507,-6e-4 -0.72455,-0.0724 -1.37816,0.23258 -2.08758,0.3564 -0.11302,0.0198 -0.23249,0.0169 -0.33907,0.0594 -0.0887,0.0354 -0.14588,0.12683 -0.23195,0.16824 -0.39056,0.18791 -0.85107,0.22784 -1.25896,0.36545 -0.42168,0.0656 -0.8351,0.0702 -1.25968,0.0824 -0.35385,-0.0171 -0.70847,-0.0133 -1.06279,-0.0168 -0.38813,-0.009 -0.77634,0.006 -1.1644,-0.003 -2.67151,0.0313 -1.76989,0.82887 6.11827,-3.54438 0.0847,-0.047 -0.18938,0.0942 -0.22459,0.18451 -0.0479,0.25069 -0.055,0.24051 0.0986,0.42267 0.26286,0.10718 0.45961,0.50652 0.69295,0.7285 0.28162,0.34228 0.39735,0.78451 0.61962,1.16241 0.27693,0.40169 0.61499,0.7554 0.82848,1.19433 0.2059,0.35825 0.27413,0.7637 0.42176,1.14563 0.24396,0.62925 0.53174,1.23897 0.85994,1.83144 0.396,0.73589 0.63367,1.55308 1.04766,2.27964 0.22074,0.54737 0.61106,0.98787 0.86667,1.51525 0.10075,0.40792 0.4001,0.68296 0.5441,1.07472 0.27405,0.35251 0.56218,0.68551 0.78049,1.07857 0.18122,0.51208 0.4422,1.01133 0.73445,1.46973 0.35101,0.35385 0.47315,0.8026 0.59247,1.26719 0.20679,-0.0242 0.2513,0.38322 0.33313,0.49211 0.0152,0.0202 0.0483,-0.0466 0.069,-0.0319 0.14164,0.10015 0.24681,0.34724 0.31981,0.48498 0.31377,0.32649 0.5568,0.7131 0.80012,1.10287 0.23965,0.42975 0.57824,0.77507 0.77258,1.22547 0.39404,0.7779 0.99029,1.39284 1.45173,2.12619 0.52241,0.6096 0.9914,1.26745 1.53312,1.86331 0.42403,0.45538 0.85228,0.90386 1.40804,1.20398 0.82004,0.49903 1.3583,1.34869 2.15138,1.86758 0.68066,0.45215 1.2447,1.05768 1.89993,1.53661 0.74292,0.66225 1.41835,1.39305 2.14639,2.0732 0.68633,0.71747 1.44626,1.34712 2.26976,1.90182 0.52037,0.5456 1.20161,0.86634 1.88325,1.16656 0.33404,0.0579 0.58571,0.30983 0.89893,0.41287 0.17343,0.0571 0.36397,0.044 0.53961,0.0939 0.75868,0.21522 1.45333,0.55507 2.22357,0.75058 1.94536,0.74871 4.00685,1.12683 6.01264,1.68158 2.98086,0.62466 5.9764,1.12688 9.0049,1.44864 3.05099,0.28213 6.11753,0.30933 9.17908,0.33596 3.00574,10e-4 6.0115,0.006 9.0172,-0.009 2.60394,0.003 5.20777,-0.0146 7.81166,-0.0288 1.35741,-10e-4 2.71432,-0.0352 4.07172,-0.0366 2.24127,0.1243 4.45269,-0.24357 6.66916,-0.50249 3.23528,-0.33984 6.44983,-0.72868 9.70166,-0.87946 2.39592,-0.0901 4.79404,-0.11993 7.19153,-0.12204 0.55989,-0.12732 1.20227,-0.10592 1.75078,-0.29561 0.12101,-0.0419 0.20755,-0.15787 0.32911,-0.1981 0.18788,-0.0622 0.77698,-0.0446 0.93125,-0.0449 0.25172,0.003 0.50394,0.0257 0.75517,0.01 1.44553,-0.0924 2.89775,-0.32279 4.33549,-0.48979 3.24218,-0.37659 0.68516,-0.0193 4.08072,-0.53463 4.61548,-0.63015 9.23178,-1.25733 13.83634,-1.96723 2.89074,-0.49802 5.81822,-0.82487 8.66891,-1.5274 1.32687,-0.41754 2.70758,-0.41501 4.07474,-0.56944 1.92666,-0.3259 3.7213,-1.07765 5.41053,-2.03698 0.27105,-0.15997 1.08661,-0.63571 0.81314,-0.47991 -11.88309,6.76959 -6.32743,3.95473 -4.7898,2.59981 0.67992,-0.59913 1.2244,-1.33811 1.79901,-2.03313 0.95318,-1.34702 1.72687,-2.83878 2.39016,-4.35081 0.57121,-1.30049 1.07337,-2.63048 1.67719,-3.91682 0.4174,-1.03775 0.95699,-2.0186 1.37992,-3.05401 0.32118,-0.94074 0.67954,-1.85455 0.9063,-2.82313 0.27326,-0.82208 0.41575,-1.66386 0.50033,-2.52282 0.16474,-1.01994 0.3615,-2.03047 0.46373,-3.06034 0.0642,-0.81652 0.0833,-1.63465 0.0895,-2.45328 10e-4,-0.77582 0.008,-1.55153 -0.004,-2.32738 0.009,-0.69038 -0.0129,-1.38086 -0.002,-2.07126 0.016,-0.72488 -0.009,-1.45003 -0.002,-2.17471 -0.0172,-0.48409 0.003,-0.96778 -0.0159,-1.45183 0.0109,-0.48857 0.009,-0.97698 0.009,-1.46557 -0.0449,-0.34643 0.18094,-0.83144 -0.21625,-0.94384 -0.11635,-0.0352 -0.23271,-0.0703 -0.34907,-0.1055 0,0 6.22112,-4.16085 6.22112,-4.16085 v 0 c 0.14833,0.0731 0.29666,0.14617 0.44499,0.21925 0.66227,0.56349 0.63348,0.78898 0.60067,1.57638 -2.3e-4,0.48564 -0.002,0.97112 0.009,1.45673 -0.0182,0.48946 8e-4,0.97854 -0.0159,1.46803 0.007,0.72519 -0.0179,1.45083 -0.002,2.17619 0.0115,0.69012 -0.01,1.38038 10e-4,2.07048 -0.009,0.77899 0.002,1.55785 -10e-4,2.33675 -0.004,0.84146 -0.002,1.68436 -0.0891,2.52226 -0.0814,1.02197 -0.19136,2.0486 -0.45765,3.0413 -0.0388,0.90235 -0.1311,1.8032 -0.4363,2.65905 -0.1618,0.49579 -0.17162,1.03795 -0.35923,1.5215 -0.1762,0.4541 -0.50475,0.85236 -0.5072,1.37685 -0.26564,0.66055 -0.527,1.34704 -0.86213,1.97541 -0.0934,0.17519 -0.23706,0.32172 -0.32166,0.50135 -0.0944,0.20051 -0.14093,0.42027 -0.2114,0.6304 -0.61331,1.29083 -1.16688,2.59122 -1.72473,3.90409 -0.64271,1.58712 -1.47706,3.07187 -2.31079,4.56192 -0.68084,0.78253 -1.62965,2.29731 -2.46583,2.81459 -2.32516,1.43839 -4.71692,2.76623 -7.07965,4.14202 -0.27282,0.15885 -0.55124,0.30787 -0.82685,0.46181 -1.7681,0.8857 -3.62909,1.58827 -5.60461,1.83054 -1.34774,0.14207 -2.69129,0.2791 -4.00797,0.62077 -2.81368,0.55364 -5.66658,0.89645 -8.49947,1.33436 -4.60817,0.65168 -9.21813,1.289 -13.82333,1.96029 -3.14861,0.47343 -6.30964,0.90082 -9.48035,1.19322 -0.98816,0.18849 -1.95366,0.51402 -2.98396,0.43153 -2.35149,-0.0101 -4.7038,-0.0332 -7.05412,0.0667 -3.2443,0.16128 -6.45449,0.58439 -9.68246,0.93055 -2.29032,0.28693 -4.58244,0.60627 -6.89734,0.56028 -1.32404,-10e-4 -2.64757,-0.0351 -3.97162,-0.0358 -2.58216,-0.0127 -5.16428,-0.0271 -7.74648,-0.0176 -2.99971,-0.007 -5.99949,0.0148 -8.99916,-0.013 -3.07738,-0.0251 -6.1598,-0.0725 -9.22312,-0.39724 -3.05888,-0.36714 -6.10465,-0.8482 -9.11728,-1.49714 -2.04236,-0.50363 -4.1085,-0.93279 -6.09473,-1.63854 -1.28,-0.38461 -2.57362,-0.7565 -3.79264,-1.30722 -0.72197,-0.33388 -1.40726,-0.72986 -1.97989,-1.29173 -0.78984,-0.63177 -1.60213,-1.23447 -2.28105,-1.9912 -0.72803,-0.66245 -1.39299,-1.39315 -2.16252,-2.00747 -0.60409,-0.53653 -1.23237,-1.0391 -1.87692,-1.52582 -0.70901,-0.60989 -1.31794,-1.34412 -2.14272,-1.81105 -0.5416,-0.41469 -1.08262,-0.82545 -1.4941,-1.3763 -0.56098,-0.63043 -1.05331,-1.321 -1.5828,-1.97814 -0.49189,-0.76504 -1.11064,-1.43289 -1.5625,-2.22646 -0.12771,-0.41345 -0.54519,-0.68813 -0.70549,-1.0954 -0.2682,-0.40252 -0.51626,-0.79866 -0.8353,-1.16308 -0.18797,-0.38291 -0.56062,-0.6588 -0.77218,-1.03599 -0.16632,-0.40372 -0.14655,-0.81753 -0.513,-1.13358 -0.28204,-0.47757 -0.57794,-0.97572 -0.74365,-1.5058 -0.23324,-0.44251 -0.66533,-0.75402 -0.88503,-1.20908 -0.0234,-0.37736 -0.50158,-0.59364 -0.48211,-0.99585 -0.18247,-0.51662 -0.6573,-0.91268 -0.79329,-1.46045 -0.42325,-0.72558 -0.64988,-1.54368 -1.04396,-2.28208 -0.3661,-0.61253 -0.65543,-1.26004 -0.95245,-1.89715 -0.16316,-0.38253 -0.20612,-0.7462 -0.39805,-1.11284 -0.18367,-0.41895 -0.55837,-0.75459 -0.79981,-1.14127 -0.19528,-0.34578 -0.27482,-0.76116 -0.56596,-1.02267 -0.20984,-0.27898 -0.43323,-0.53899 -0.70368,-0.76295 -0.22015,-0.29229 -0.42694,-0.56612 -0.38358,-0.94925 -0.0468,-2.92346 4.08502,-4.51167 6.96268,-4.40669 0.3903,-0.008 0.78064,0.007 1.17102,0.002 0.3508,-4e-4 0.70266,0.0102 1.05248,-0.018 0.3818,-0.0209 0.76384,-0.0954 1.12754,-0.21275 0.62618,-0.15445 1.19826,-0.46892 1.84754,-0.52665 0.72982,-0.16951 1.43975,-0.31185 2.19504,-0.24719 0.52222,0.002 1.04479,-0.004 1.56667,-0.0194 1.20438,-0.0127 2.40784,-0.0783 3.60906,-0.16409 2.29444,-0.16065 4.58975,-0.33115 6.89199,-0.27288 1.67413,-0.0197 3.3484,-0.0175 5.0226,-0.0311 0.93092,-0.0114 1.86195,0.002 2.79279,-0.0169 0.98971,-0.0333 1.97989,-0.0711 2.96202,-0.20882 1.53557,-0.21075 3.066,-0.45607 4.60488,-0.64284 2.59948,-0.45779 5.16458,-1.08422 7.72674,-1.71465 2.97752,-0.72157 5.97115,-1.65645 9.06605,-1.56579 0.43148,0.0394 0.86552,0.0569 1.29445,0.11807 1.96663,0.28053 3.78391,1.17272 5.76273,1.39191 4.43307,0.41837 8.89762,0.15814 13.34347,0.23617 6.63192,-0.0434 13.26412,-0.10163 19.89259,-0.34034 4.06491,-0.13958 8.13555,-0.28188 12.20165,-0.0958 1.86674,0.0986 3.72561,0.35083 5.59635,0.32708 2.47891,-0.005 4.95734,-0.0534 7.4335,-0.17654 4.2629,-0.21998 8.52069,-0.52945 12.78494,-0.72466 4.30703,-0.29617 8.61179,-0.67578 12.9344,-0.5513 2.73203,-0.008 5.46455,-0.0241 8.19588,-0.088 0,0 -6.05598,4.39993 -6.05598,4.39993 z"
         inkscape:connector-curvature="0" />
      <path
         style="fill:#eb1a1a;fill-opacity:1;stroke-width:0.50507599"
         d="m 228.9165,823.96443 c -2.36123,-0.39354 -6.59367,-1.4203 -9.40542,-2.28169 -5.03307,-1.54191 -5.20468,-1.64666 -11.07676,-6.76162 -4.56826,-3.97924 -6.63029,-6.20167 -8.80873,-9.49391 -3.19577,-4.82974 -7.84537,-13.88211 -7.37295,-14.35453 0.52718,-0.52718 10.44092,-1.06313 14.69305,-0.79433 4.72539,0.29872 11.26564,-0.6053 21.27626,-2.94089 l 6.95263,-1.62213 4.32084,0.85893 c 3.77929,0.75127 7.92911,0.85373 33.11018,0.81749 19.71124,-0.0284 32.85061,-0.28889 41.66879,-0.82619 7.0837,-0.43161 14.56904,-0.66048 16.63411,-0.50859 2.06506,0.15189 4.16744,0.0552 4.67195,-0.21476 0.86138,-0.461 0.91676,-0.14345 0.90853,5.20896 -0.0113,7.35799 -0.88858,11.33028 -4.0311,18.25323 -3.54073,7.80019 -3.58132,7.84249 -8.36805,8.72007 -10.8549,1.99011 -32.19988,4.78334 -40.09775,5.24726 -4.87361,0.28627 -10.67341,0.74337 -12.88846,1.01577 -6.28279,0.77264 -37.02544,0.53722 -42.18712,-0.32307 z"
         id="path14"
         inkscape:connector-curvature="0" />
      <path
         style="fill:#eb1a1a;fill-opacity:1;stroke-width:0.50507599"
         d="m 228.15889,828.79165 c -5.10033,-0.50386 -10.96455,-1.71923 -16.05631,-3.32772 -3.63941,-1.14969 -4.4559,-1.68398 -9.97401,-6.52672 -7.19631,-6.31556 -9.85621,-9.90922 -14.73913,-19.91332 -1.1525,-2.36123 -2.52393,-4.91858 -3.04764,-5.68298 -2.1529,-3.14241 0.0209,-5.31667 6.01404,-6.01538 9.02794,-1.05251 13.94097,-1.38638 20.88299,-1.41911 8.41397,-0.0397 11.89315,-0.46767 20.77319,-2.55547 7.13382,-1.67724 10.61327,-1.85179 14.32961,-0.71886 2.19009,0.66765 6.88424,0.73624 35.35534,0.5166 18.05648,-0.1393 35.67101,-0.48124 39.14341,-0.75986 3.4724,-0.27863 8.88246,-0.51356 12.02236,-0.52207 5.24369,-0.0142 5.86033,-0.11836 7.56712,-1.27816 1.02202,-0.69448 2.03274,-1.26269 2.24605,-1.26269 0.68441,0 0.41328,14.69977 -0.33538,18.18275 -0.83026,3.86267 -5.11007,13.75397 -7.05368,16.30218 -1.24245,1.62893 -8.29502,6.15379 -11.4772,7.36365 -1.77875,0.67628 -11.12265,2.23641 -24.43501,4.07985 -6.11142,0.84629 -12.6328,1.76825 -14.49196,2.0488 -1.85916,0.28055 -5.49571,0.51207 -8.08122,0.51448 -2.58551,0.002 -7.54199,0.34137 -11.01439,0.75323 -6.82747,0.8098 -30.27328,0.94738 -37.62818,0.2208 z m 43.94163,-4.27067 5.55584,-0.70053 -5.05076,0.22339 c -2.77792,0.12286 -8.23274,0.35529 -12.12183,0.51652 -3.88909,0.16123 -12.75318,0.0606 -19.69797,-0.22353 -11.57309,-0.47355 -13.10891,-0.64567 -18.40229,-2.06233 -3.17646,-0.85012 -6.69936,-2.0937 -7.82868,-2.76352 -3.17523,-1.88329 -11.17824,-9.28792 -13.68135,-12.65841 -2.72713,-3.67214 -8.72157,-15.17408 -8.18689,-15.70876 0.21074,-0.21075 5.09624,-0.53123 10.85667,-0.71219 l 10.47349,-0.32901 -7.6262,-0.085 c -4.19442,-0.0468 -9.34263,0.06 -11.44047,0.23738 l -3.81426,0.32242 2.7807,5.53179 c 5.42356,10.78937 9.94754,16.25233 19.25437,23.25076 2.19034,1.64705 10.2541,4.08377 16.92199,5.1135 6.36974,0.98369 34.3322,1.01535 42.00764,0.0476 z m 22.69377,-1.76986 c 10.50567,-1.33352 24.31599,-3.43354 26.55117,-4.03742 1.65249,-0.44645 1.61955,-0.45956 -0.50508,-0.20099 -1.25006,0.15212 -6.02303,0.81358 -10.6066,1.46989 -10.52144,1.50656 -20.4638,2.68261 -27.27412,3.22618 l -5.3033,0.42329 4.54569,0.0702 c 2.50013,0.0386 8.16663,-0.3894 12.59224,-0.95116 z m 32.02995,-4.84722 c 1.14675,-0.22935 1.95985,-0.93732 3.04544,-2.65165 2.32229,-3.66732 5.61751,-11.93126 6.41079,-16.07734 0.93068,-4.86422 0.99252,-14.4764 0.091,-14.14584 -0.34724,0.12732 -0.5177,0.544 -0.37881,0.92597 0.1389,0.38196 0.21619,3.22708 0.17175,6.32249 -0.0967,6.73675 -1.19609,11.22828 -4.4049,17.99628 -2.85441,6.02048 -3.18615,6.40891 -6.15391,7.20567 -2.53516,0.68061 -1.63312,0.99477 1.21863,0.42442 z M 216.6684,789.58435 c -0.48613,-0.12704 -1.28163,-0.12704 -1.76776,0 -0.48614,0.12704 -0.0884,0.23098 0.88388,0.23098 0.97227,0 1.37002,-0.10394 0.88388,-0.23098 z m 3.29261,-0.48821 c -0.34195,-0.13835 -1.0238,-0.14677 -1.51523,-0.0187 -0.49142,0.12805 -0.21164,0.24125 0.62174,0.25154 0.83337,0.0103 1.23544,-0.0945 0.89349,-0.23283 z m 2.51577,-0.50828 c -0.34724,-0.14011 -0.91545,-0.14011 -1.26269,0 -0.34724,0.14011 -0.0631,0.25475 0.63135,0.25475 0.69448,0 0.97858,-0.11464 0.63134,-0.25475 z m 6.9448,-1.39539 c 2.63902,-0.65452 4.34366,-1.2093 3.78807,-1.23284 -0.55558,-0.0236 -3.05571,0.4992 -5.55584,1.16167 -2.50012,0.66246 -4.20476,1.21724 -3.78807,1.23284 0.41669,0.0156 2.91682,-0.50715 5.55584,-1.16167 z m 52.93955,-0.16324 c -4.91276,-0.0826 -13.09499,-0.0828 -18.18274,-3e-4 -5.08776,0.0824 -1.06822,0.15005 8.93229,0.15021 10.00051,1.7e-4 14.16321,-0.0673 9.25045,-0.14991 z m -42.33295,-0.63225 c -0.69448,-0.22241 -1.8309,-0.40015 -2.52538,-0.39497 -1.1342,0.008 -1.1085,0.0486 0.25254,0.39497 0.83337,0.21206 1.9698,0.3898 2.52538,0.39497 0.79155,0.007 0.7369,-0.0781 -0.25254,-0.39497 z m 94.91225,-0.32258 c 0.36121,-0.31323 -17.62796,-0.0823 -22.93888,0.29447 -2.77792,0.19708 1.19956,0.2525 8.83883,0.12317 7.63928,-0.12933 13.9843,-0.31727 14.10005,-0.41764 z"
         id="path16"
         inkscape:connector-curvature="0" />
      <path
         style="fill:#eb1a1a;fill-opacity:1;stroke-width:0.50507599"
         d="m 229.42158,828.99128 c -7.4886,-0.74352 -17.69074,-3.11646 -21.02417,-4.89006 -2.80137,-1.4905 -12.18208,-10.35754 -14.5891,-13.79022 -1.33379,-1.90214 -4.01,-6.52677 -5.94715,-10.27696 -1.93714,-3.75019 -3.7374,-7.09013 -4.00057,-7.42207 -0.78498,-0.99013 -0.23762,-2.76431 1.17753,-3.81677 1.98988,-1.47991 14.17357,-2.8567 25.53282,-2.88528 8.28374,-0.0208 12.58301,-0.53868 21.45711,-2.58446 7.36768,-1.69851 9.50358,-1.78817 15.3293,-0.64352 3.87065,0.76052 7.26859,0.77716 40.24427,0.19712 47.91536,-0.84283 50.6673,-0.96833 52.99635,-2.41673 1.00506,-0.62503 1.97102,-1.13642 2.14658,-1.13642 0.64799,0 0.29947,14.91005 -0.42888,18.34758 -0.80322,3.79086 -5.12302,13.72851 -7.08686,16.30324 -1.1715,1.53591 -8.32848,6.02447 -11.56775,7.25481 -3.65779,1.38931 -40.19682,6.57653 -46.43244,6.59173 -2.26487,0.006 -7.18628,0.34194 -10.93647,0.74758 -6.1805,0.66852 -31.46773,0.95687 -36.87057,0.42043 z m 38.89087,-4.14127 c 1.80565,-0.17587 -4.67195,-0.33101 -14.39467,-0.34474 -9.72272,-0.0137 -19.60959,-0.20423 -21.97082,-0.42332 -2.36123,-0.21909 -4.15866,-0.26277 -3.99429,-0.0971 1.00884,1.017 31.98385,1.68096 40.35978,0.86512 z m 6.70187,-0.90361 c -0.34195,-0.13835 -1.0238,-0.14677 -1.51522,-0.0187 -0.49143,0.12806 -0.21165,0.24126 0.62173,0.25155 0.83338,0.0103 1.23545,-0.0945 0.89349,-0.23284 z m -52.14591,-1.48702 c -6.40841,-1.69435 -8.26273,-2.57764 -12.13465,-5.78023 -5.24979,-4.34226 -8.83139,-8.13049 -11.31094,-11.96349 -2.46362,-3.80836 -6.87181,-12.25299 -6.87181,-13.1641 0,-0.30135 0.85232,-0.63707 1.89404,-0.74604 1.73526,-0.18151 1.69292,-0.20524 -0.50508,-0.28302 -1.31951,-0.0467 -2.39911,0.10036 -2.39911,0.32681 0,0.90543 4.96826,10.19971 7.60959,14.23549 2.93563,4.48545 10.73655,12.23081 14.71668,14.61186 2.26999,1.35799 10.54412,4.01604 12.52399,4.02332 0.69448,0.003 -0.89074,-0.56472 -3.52271,-1.2606 z m 67.17557,0.80875 c 9.01264,-1.06236 27.41628,-3.73685 26.89943,-3.90913 -0.29785,-0.0993 -4.59995,0.39038 -9.56023,1.08815 -4.96028,0.69776 -12.42795,1.61107 -16.59483,2.02958 -4.16688,0.41851 -8.37164,0.84491 -9.34391,0.94758 -1.06493,0.11244 -0.55762,0.21879 1.27593,0.26748 1.67404,0.0445 4.96967,-0.14619 7.32361,-0.42366 z m 29.92213,-4.37249 c -0.34195,-0.13835 -1.0238,-0.14677 -1.51523,-0.0187 -0.49142,0.12806 -0.21164,0.24125 0.62174,0.25155 0.83337,0.0103 1.23544,-0.0945 0.89349,-0.23284 z m 8.59926,-2.07381 c 0.93305,-0.84206 4.41536,-7.25294 4.37952,-8.06262 -0.01,-0.21527 -0.97549,1.42505 -2.14658,3.64516 -1.9143,3.62909 -2.35868,4.12804 -4.40209,4.94261 -2.08271,0.83024 -2.12774,0.88289 -0.53822,0.62938 0.95405,-0.15216 2.17237,-0.6717 2.70737,-1.15453 z m 6.68558,-13.95425 c 1.48512,-4.64187 2.32795,-15.56224 1.33273,-17.26789 -0.44369,-0.7604 -0.5014,-0.31293 -0.2666,2.06713 0.39318,3.98552 -0.54512,12.40689 -1.77204,15.90423 -0.53571,1.52704 -1.13244,3.23101 -1.32606,3.7866 -0.28559,0.81944 -0.24737,0.86712 0.20248,0.25253 0.30499,-0.41668 1.12827,-2.55086 1.82949,-4.7426 z M 207.3024,790.06212 c -2.02615,-0.0961 -5.20813,-0.0955 -7.07107,10e-4 -1.86294,0.0969 -0.20519,0.17554 3.6839,0.17475 3.88909,-8.1e-4 5.41331,-0.0801 3.38717,-0.17619 z m 21.86664,-2.87211 c 1.38896,-0.38649 2.07081,-0.70556 1.51523,-0.70905 -1.07523,-0.007 -5.40043,1.29541 -4.54569,1.36855 0.2778,0.0238 1.6415,-0.27301 3.03046,-0.6595 z m 50.12882,-0.1583 c -2.15289,-0.0947 -5.67579,-0.0947 -7.82868,0 -2.15289,0.0947 -0.39144,0.17214 3.91434,0.17214 4.30578,0 6.06723,-0.0775 3.91434,-0.17214 z m -39.52222,-0.63473 c -0.55558,-0.23874 -1.46472,-0.4274 -2.0203,-0.41923 -0.81206,0.0119 -0.76253,0.0942 0.25254,0.41923 1.72694,0.55306 3.05481,0.55306 1.76776,0 z m 89.77731,-0.37577 c -2.29178,-0.0936 -6.04197,-0.0936 -8.33376,0 -2.29178,0.0936 -0.41669,0.17016 4.16688,0.17016 4.58357,0 6.45866,-0.0766 4.16688,-0.17016 z"
         id="path18"
         inkscape:connector-curvature="0" />
      <path
         style="fill:#eb1a1a;fill-opacity:1;stroke-width:0.50507599"
         d="m 229.16904,829.00146 c -7.99898,-0.92729 -17.14007,-3.03231 -20.40836,-4.69967 -2.86349,-1.46084 -12.38625,-10.29836 -14.90682,-13.83415 -3.0381,-4.26176 -10.47131,-18.49625 -10.2895,-19.70424 0.4506,-2.9938 6.72555,-4.18473 25.65417,-4.86894 13.06787,-0.47236 13.30589,-0.5035 27.2388,-3.56354 2.78232,-0.61106 6.70342,-0.44236 12.40969,0.53391 3.69922,0.6329 47.79396,0.1888 72.73098,-0.73251 16.06883,-0.59366 17.28621,-0.70412 18.94036,-1.71854 0.97227,-0.59625 1.966,-1.08494 2.20828,-1.08598 0.24371,-10e-4 0.3287,4.11611 0.19024,9.21575 -0.20421,7.52093 -0.43645,9.72899 -1.26169,11.99557 -1.59091,4.36958 -5.07555,11.64035 -6.42973,13.41577 -1.21781,1.59664 -7.2969,5.47542 -11.01457,7.0279 -3.97087,1.6582 -35.07107,6.18161 -47.0796,6.84755 -4.44467,0.24649 -10.12678,0.68253 -12.62691,0.96899 -4.10992,0.47091 -31.67722,0.62851 -35.35534,0.20213 z m 35.06071,-3.89636 c -0.11574,-0.10051 -7.59719,-0.28676 -16.62542,-0.41389 -9.02824,-0.12712 -14.14214,-0.0889 -11.36422,0.0849 5.59943,0.35041 28.32187,0.61746 27.98964,0.32895 z m -33.66214,-1.1587 c -0.34195,-0.13835 -1.0238,-0.14677 -1.51522,-0.0187 -0.49143,0.12806 -0.21165,0.24125 0.62173,0.25155 0.83337,0.0103 1.23545,-0.0945 0.89349,-0.23284 z m 60.8739,-0.94626 c 7.69492,-0.85862 12.64327,-1.62311 10.71105,-1.65479 -2.05559,-0.0337 -21.11431,2.30659 -19.29735,2.3696 0.91482,0.0317 4.77866,-0.28994 8.5863,-0.71481 z m -66.70241,-0.0377 c -0.16783,-0.16783 -0.60346,-0.18578 -0.96806,-0.0399 -0.40292,0.16124 -0.28324,0.28092 0.30515,0.30515 0.53243,0.0219 0.83074,-0.0974 0.66291,-0.26527 z m -2.0203,-0.50508 c -0.16784,-0.16783 -0.60346,-0.18577 -0.96807,-0.0399 -0.40291,0.16123 -0.28323,0.28091 0.30515,0.30515 0.53244,0.0219 0.83075,-0.0975 0.66292,-0.26528 z m 83.3481,-1.55824 c -0.48613,-0.12704 -1.28163,-0.12704 -1.76776,0 -0.48614,0.12704 -0.0884,0.23098 0.88388,0.23098 0.97227,0 1.37002,-0.10394 0.88388,-0.23098 z m -91.92358,-1.64346 c -1.28922,-0.8176 -4.45888,-3.33668 -7.04368,-5.59796 l -4.69964,-4.11142 4.29315,4.08847 c 4.2127,4.01185 8.25317,7.10746 9.27685,7.10746 0.28455,0 -0.53745,-0.66895 -1.82668,-1.48655 z m 95.72127,1.15525 c -0.34195,-0.13835 -1.02381,-0.14678 -1.51523,-0.0187 -0.49143,0.12805 -0.21164,0.24125 0.62173,0.25154 0.83338,0.0103 1.23545,-0.0945 0.8935,-0.23283 z m 3.53553,-0.50508 c -0.34195,-0.13835 -1.0238,-0.14677 -1.51523,-0.0187 -0.49142,0.12806 -0.21164,0.24126 0.62174,0.25155 0.83337,0.0103 1.23544,-0.0945 0.89349,-0.23284 z m 2.75779,-0.47893 c -0.16783,-0.16783 -0.60347,-0.18577 -0.96807,-0.0399 -0.40291,0.16123 -0.28323,0.28091 0.30516,0.30515 0.53243,0.0219 0.83074,-0.0974 0.66291,-0.26528 z m 3.53553,-0.50507 c -0.16783,-0.16783 -0.60346,-0.18578 -0.96806,-0.0399 -0.40292,0.16124 -0.28324,0.28092 0.30515,0.30515 0.53243,0.0219 0.83074,-0.0974 0.66291,-0.26527 z m 9.02361,-2.29842 0.96217,-1.08834 -1.51523,0.93547 c -2.06275,1.27351 -2.03224,1.24121 -1.17261,1.24121 0.41993,0 1.19649,-0.48975 1.72567,-1.08834 z m 2.50285,-4.01265 c 0.71783,-1.41658 1.22046,-2.66029 1.11695,-2.7638 -0.10351,-0.10351 -0.79817,1.05551 -1.5437,2.5756 -0.74552,1.5201 -1.24815,2.76381 -1.11695,2.76381 0.1312,0 0.82586,-1.15902 1.5437,-2.57561 z m -129.07244,-4.18108 c 0,-0.10488 -0.39775,-0.50263 -0.88388,-0.88388 -0.80108,-0.62825 -0.81895,-0.61039 -0.1907,0.19069 0.65982,0.84133 1.07458,1.10889 1.07458,0.69319 z m -2.83787,-3.84991 c -0.73534,-1.11117 -1.43383,-2.02031 -1.5522,-2.02031 -0.25582,0 0.16922,0.76318 1.47682,2.65165 1.50466,2.17307 1.56986,1.62696 0.0754,-0.63134 z m 136.1168,-2.52539 c -0.009,-0.41668 -0.32199,0.0379 -0.69641,1.01016 -0.88804,2.30602 -0.87494,3.21332 0.0182,1.26269 0.38161,-0.83338 0.68678,-1.85616 0.67818,-2.27285 z m -139.91582,-4.0197 c -0.90998,-1.65525 -1.73577,-2.92828 -1.83509,-2.82897 -0.21803,0.21804 2.91164,5.83852 3.25108,5.83852 0.13119,0 -0.50601,-1.35429 -1.41599,-3.00955 z m 140.31153,1.36805 c -0.14012,-0.34724 -0.25476,-0.0631 -0.25476,0.63135 0,0.69448 0.11464,0.97858 0.25476,0.63134 0.14011,-0.34724 0.14011,-0.91545 0,-1.26269 z m 0.52779,-3.52964 c -0.12081,-0.62827 -0.22424,-0.23317 -0.22985,0.87799 -0.006,1.11117 0.0932,1.62521 0.21966,1.14231 0.12642,-0.48289 0.131,-1.39203 0.0102,-2.0203 z m -143.25288,-2.83366 c -0.80581,-1.50566 -0.6754,-2.00158 0.59042,-2.24539 0.82181,-0.15829 0.68199,-0.23793 -0.50507,-0.28767 -0.90283,-0.0378 -1.6415,0.0371 -1.6415,0.16662 0,0.53869 1.71282,3.77598 1.89921,3.58959 0.11162,-0.11162 -0.0428,-0.66203 -0.34306,-1.22315 z m 143.38483,-7.02638 c -0.52548,-0.81667 -0.5449,-0.81338 -0.27477,0.0464 0.15987,0.50886 0.33584,2.55442 0.39104,4.54569 l 0.10035,3.62049 0.17441,-3.66692 c 0.10235,-2.1518 -0.0592,-4.03002 -0.39103,-4.54569 z m -131.93527,4.07638 c -0.48613,-0.12704 -1.28163,-0.12704 -1.76776,0 -0.48614,0.12704 -0.0884,0.23098 0.88388,0.23098 0.97227,0 1.37002,-0.10394 0.88388,-0.23098 z m 24.73822,-2.98745 c -0.16783,-0.16783 -0.60346,-0.18577 -0.96806,-0.0399 -0.40292,0.16123 -0.28324,0.28091 0.30515,0.30515 0.53243,0.0219 0.83074,-0.0974 0.66291,-0.26528 z"
         id="path20"
         inkscape:connector-curvature="0" />
      <path
         style="fill:#eb1a1a;fill-opacity:1;stroke-width:0.50507599"
         d="m 224.87589,828.50183 c -5.97059,-0.90527 -13.49756,-2.86461 -16.09481,-4.18963 -2.93629,-1.49798 -12.32994,-10.20125 -14.89688,-13.80204 -3.06184,-4.29501 -10.50257,-18.53266 -10.31984,-19.74676 0.45141,-2.99919 6.32712,-4.13895 25.04739,-4.85865 11.43388,-0.43958 13.58525,-0.66513 20.45559,-2.14457 8.46383,-1.82257 12.09249,-1.99284 21.3149,-1.00015 4.19292,0.45132 13.17586,0.47491 36.61803,0.0962 41.27928,-0.66692 51.03049,-1.12269 53.35428,-2.49376 0.96623,-0.57009 1.97107,-1.03653 2.23298,-1.03653 0.66192,0 0.60627,14.26323 -0.0699,17.9211 -0.60537,3.27477 -4.27741,12.04116 -6.5347,15.60054 -1.4997,2.36478 -3.23374,3.65485 -9.35141,6.95714 -3.17357,1.71308 -4.54837,2.08008 -12.87945,3.43812 -15.07984,2.45816 -27.97418,4.08959 -36.34821,4.59888 -4.30578,0.26187 -10.06879,0.70352 -12.80669,0.98145 -7.56706,0.76814 -33.9431,0.55479 -39.72125,-0.32131 z m 31.97088,-3.58935 c -2.27814,-0.0934 -6.14198,-0.0938 -8.5863,-10e-4 -2.44432,0.0928 -0.58038,0.16918 4.14208,0.16976 4.72246,6.1e-4 6.72236,-0.0753 4.44422,-0.1687 z m -18.70301,-0.461 c -0.34195,-0.13835 -1.02381,-0.14678 -1.51523,-0.0187 -0.49143,0.12805 -0.21164,0.24125 0.62173,0.25154 0.83338,0.0103 1.23545,-0.0945 0.8935,-0.23283 z m 47.2045,-0.98401 c -0.16784,-0.16783 -0.60347,-0.18577 -0.96807,-0.0399 -0.40291,0.16123 -0.28324,0.28091 0.30515,0.30515 0.53243,0.0219 0.83075,-0.0974 0.66292,-0.26528 z m 4.80874,-0.55637 c -0.62503,-0.12039 -1.64781,-0.12039 -2.27284,0 -0.62503,0.12039 -0.11364,0.21888 1.13642,0.21888 1.25006,0 1.76145,-0.0985 1.13642,-0.21888 z m 4.54569,-0.50508 c -0.62503,-0.12038 -1.64781,-0.12038 -2.27285,0 -0.62503,0.12039 -0.11364,0.21889 1.13643,0.21889 1.25006,0 1.76145,-0.0985 1.13642,-0.21889 z m 3.78807,-0.49679 c -0.48614,-0.12704 -1.28163,-0.12704 -1.76777,0 -0.48613,0.12704 -0.0884,0.23099 0.88389,0.23099 0.97227,0 1.37002,-0.10395 0.88388,-0.23099 z m 3.283,-0.49141 c -0.34724,-0.14012 -0.91546,-0.14012 -1.2627,0 -0.34724,0.14011 -0.0631,0.25475 0.63135,0.25475 0.69448,0 0.97859,-0.11464 0.63135,-0.25475 z m 4.28262,-0.47573 c -0.16783,-0.16783 -0.60346,-0.18577 -0.96806,-0.0399 -0.40292,0.16123 -0.28324,0.28091 0.30515,0.30515 0.53243,0.0219 0.83074,-0.0975 0.66291,-0.26528 z m -90.27186,-0.43469 c 0,-0.12912 -0.51139,-0.48259 -1.13642,-0.78548 -1.09128,-0.52883 -1.09748,-0.51951 -0.156,0.23477 1.03048,0.82559 1.29242,0.9372 1.29242,0.55071 z m 93.8074,-0.0704 c -0.16784,-0.16784 -0.60347,-0.18578 -0.96807,-0.0399 -0.40291,0.16123 -0.28323,0.28092 0.30515,0.30515 0.53244,0.0219 0.83075,-0.0974 0.66292,-0.26528 z m 3.53553,-0.50508 c -0.16783,-0.16783 -0.60346,-0.18578 -0.96806,-0.0399 -0.40292,0.16124 -0.28324,0.28092 0.30515,0.30515 0.53243,0.0219 0.83074,-0.0974 0.66291,-0.26527 z m -99.86831,-0.87926 c 0,-0.0958 -0.51139,-0.60723 -1.13642,-1.13642 l -1.13642,-0.96217 0.96216,1.13643 c 0.9042,1.06795 1.31068,1.36635 1.31068,0.96216 z m 114.93458,-2.12645 c 0.92445,-0.74063 0.90833,-0.75114 -0.28227,-0.18412 -1.54605,0.7363 -1.83259,0.9696 -1.19087,0.9696 0.271,0 0.93391,-0.35347 1.47314,-0.78548 z m -117.45996,0.11591 c 0,-0.0905 -0.62503,-0.71551 -1.38896,-1.38896 l -1.38896,-1.22447 1.22446,1.38896 c 1.14445,1.29819 1.55346,1.62058 1.55346,1.22447 z m 120.48496,-4.42813 c 0.44431,-0.85919 0.71816,-1.65183 0.60857,-1.76143 -0.10959,-0.10959 -0.57724,0.59339 -1.03923,1.56217 -1.03873,2.17824 -0.67882,2.34476 0.43066,0.19926 z m 5.11898,-16.21021 c -0.16124,-0.40291 -0.28092,-0.28323 -0.30515,0.30515 -0.0219,0.53244 0.0974,0.83075 0.26527,0.66292 0.16784,-0.16784 0.18578,-0.60346 0.0399,-0.96807 z m -143.55416,-4.00896 c -0.21371,-0.67333 -0.0853,-1.23502 0.34477,-1.5075 0.50069,-0.31725 0.37915,-0.43637 -0.45103,-0.44202 -1.31588,-0.009 -1.32801,0.0293 -0.55027,1.73627 0.71124,1.56102 1.12717,1.69611 0.65653,0.21325 z m 144.07143,-4.09793 c -0.12081,-0.62828 -0.22424,-0.23318 -0.22985,0.87799 -0.006,1.11117 0.0932,1.62521 0.21966,1.14231 0.12641,-0.4829 0.131,-1.39203 0.0102,-2.0203 z"
         id="path22"
         inkscape:connector-curvature="0" />
      <path
         style="fill:#eb1a1a;fill-opacity:1;stroke-width:0.50507599"
         d="m 226.13858,828.75096 c -5.05483,-0.64297 -13.71159,-2.8022 -16.66707,-4.15722 -3.24432,-1.48744 -11.88582,-9.22231 -15.17585,-13.58364 -3.04701,-4.0392 -10.58348,-18.28532 -10.58348,-20.00586 0,-3.16437 5.38745,-4.31271 23.99112,-5.11375 13.77498,-0.59312 14.07916,-0.62693 23.73858,-2.63915 6.5636,-1.3673 7.76913,-1.47979 11.61676,-1.08402 6.19203,0.63691 69.31782,0.4389 83.33758,-0.26142 9.96447,-0.49774 12.19885,-0.75234 13.92279,-1.58644 1.12943,-0.54645 2.23395,-0.99355 2.4545,-0.99355 0.22054,0 0.30002,4.14794 0.17662,9.21764 -0.25055,10.29348 -0.34766,10.71527 -4.49981,19.54501 -2.84716,6.05461 -3.27388,6.60838 -6.86968,8.91504 -7.24269,4.6461 -9.31994,5.20297 -30.80336,8.25783 -11.19526,1.59192 -15.76475,2.06874 -31.76863,3.31497 -10.55976,0.82229 -36.93354,0.92969 -42.87007,0.17456 z m 27.15746,-3.79441 c -0.34195,-0.13835 -1.0238,-0.14677 -1.51522,-0.0187 -0.49143,0.12806 -0.21165,0.24126 0.62173,0.25155 0.83338,0.0103 1.23545,-0.0945 0.89349,-0.23283 z m 36.35588,-2.0235 c -0.34724,-0.14012 -0.91545,-0.14012 -1.26269,0 -0.34724,0.14011 -0.0631,0.25475 0.63135,0.25475 0.69448,0 0.97858,-0.11464 0.63134,-0.25475 z m 4.54569,-0.50508 c -0.34724,-0.14011 -0.91545,-0.14011 -1.26269,0 -0.34724,0.14011 -0.0631,0.25475 0.63135,0.25475 0.69448,0 0.97858,-0.11464 0.63134,-0.25475 z m 4.04061,-0.50508 c -0.34724,-0.14011 -0.91545,-0.14011 -1.26269,0 -0.34724,0.14012 -0.0631,0.25476 0.63135,0.25476 0.69448,0 0.97858,-0.11464 0.63134,-0.25476 z m -84.97908,-2.88665 c 0,-0.10488 -0.39775,-0.50263 -0.88388,-0.88388 -0.80108,-0.62825 -0.81895,-0.61038 -0.1907,0.19069 0.65982,0.84133 1.07458,1.10889 1.07458,0.69319 z m -2.52538,-2.0203 c 0,-0.10488 -0.39775,-0.50263 -0.88389,-0.88388 -0.80108,-0.62825 -0.81894,-0.61039 -0.19069,0.19069 0.65982,0.84133 1.07458,1.10888 1.07458,0.69319 z m -17.47567,-26.19181 c 0.35372,-0.23623 0.26502,-0.37388 -0.24409,-0.37881 -1.10217,-0.0106 -1.45992,0.44919 -1.09311,1.40507 0.25808,0.67255 0.35016,0.68551 0.54601,0.0769 0.12957,-0.40264 0.4856,-0.89906 0.79119,-1.10315 z"
         id="path24"
         inkscape:connector-curvature="0" />
      <path
         style="fill:#eb1a1a;fill-opacity:1;stroke-width:0.50507599"
         d="m 224.70337,828.55929 c -5.76262,-0.9264 -13.41593,-2.96844 -15.92747,-4.24973 -2.91474,-1.48699 -11.5578,-9.42427 -14.45712,-13.27657 -3.15917,-4.19756 -10.96252,-18.87777 -10.75837,-20.23941 0.44506,-2.96845 5.99436,-4.11906 23.63781,-4.90114 12.71358,-0.56356 16.83634,-1.03064 25.25382,-2.86112 l 5.80837,-1.2631 11.77465,0.64075 c 9.49352,0.51661 18.49564,0.51798 46.46701,0.007 36.5472,-0.66755 42.23184,-0.96129 44.11383,-2.27948 2.3437,-1.64159 2.44845,-1.34563 2.43907,6.89176 -0.0111,9.77347 -0.67529,12.88489 -4.42262,20.71869 -3.39149,7.08992 -4.27603,8.01296 -11.15399,11.6394 -4.09259,2.15785 -5.12203,2.45564 -13.24021,3.83014 -12.89196,2.18276 -27.69053,4.07986 -38.60209,4.9486 -13.65424,1.08711 -45.10805,1.3305 -50.93269,0.39413 z M 192.73366,791.1952 c 0.1599,-0.41668 0.0706,-0.75761 -0.1985,-0.75761 -0.26907,0 -0.48922,0.34093 -0.48922,0.75761 0,0.41669 0.0893,0.75762 0.1985,0.75762 0.10917,0 0.32932,-0.34093 0.48922,-0.75762 z"
         id="path26"
         inkscape:connector-curvature="0" />
      <path
         style="fill:#eb1a1a;fill-opacity:1;stroke-width:0.50507599"
         d="m 227.40127,828.97771 c -8.06152,-0.86233 -17.65354,-3.70132 -21.00651,-6.21738 -5.02232,-3.76875 -11.23654,-10.12328 -13.72655,-14.0365 -3.73249,-5.86584 -9.27928,-16.78697 -9.10757,-17.93198 0.43481,-2.89949 5.83953,-4.08181 22.29161,-4.87643 14.77355,-0.71355 16.74946,-0.92096 25.06499,-2.63111 l 7.30404,-1.50213 13.40409,0.60232 c 10.3075,0.46317 20.75504,0.46741 45.22389,0.0183 33.48086,-0.61448 41.17521,-1.01932 43.64478,-2.29639 0.83016,-0.42929 1.74796,-0.78053 2.03954,-0.78053 0.82816,0 0.65766,14.7203 -0.21839,18.85495 -0.43514,2.0537 -2.0159,6.04002 -3.90558,9.84899 -3.55823,7.17222 -4.70966,8.33859 -11.68059,11.83207 -2.99935,1.50312 -5.18657,2.12449 -11.00324,3.1259 -25.97043,4.47113 -47.89151,6.38576 -71.65699,6.25866 -8.19486,-0.0438 -15.69524,-0.16477 -16.66752,-0.26877 z M 192.73366,791.1952 c 0.1599,-0.41668 0.0706,-0.75761 -0.1985,-0.75761 -0.26907,0 -0.48922,0.34093 -0.48922,0.75761 0,0.41669 0.0893,0.75762 0.1985,0.75762 0.10917,0 0.32932,-0.34093 0.48922,-0.75762 z"
         id="path28"
         inkscape:connector-curvature="0" />
      <path
         style="fill:#eb1a1a;fill-opacity:1"
         id="path30"
         d="m 255.36375,783.12269 c 0.0507,-1.52881 0.0546,-3.05999 0.0396,-4.58958 -6.9e-4,-1.32583 -0.0129,-2.65161 -0.0197,-3.97741 -0.008,-0.74926 -0.0255,-1.49851 -0.026,-2.24783 -0.004,-0.4158 -0.0152,-0.83174 -0.0104,-1.24756 0.0163,-0.72531 0.0215,-1.4508 0.0255,-2.17627 0.009,-0.94441 0.001,-1.88876 -0.003,-2.83313 -0.0134,-0.84063 0.002,-1.68136 0.008,-2.52204 0.004,-1.05522 0.002,-2.11045 0.001,-3.16567 0.005,-0.94203 -0.009,-1.88395 -0.009,-2.82595 -0.005,-0.8785 0.01,-1.75696 0.002,-2.63541 -0.001,-0.99921 0.0106,-1.99829 0.0109,-2.99752 0.009,-1.25125 0.009,-2.50253 0.009,-3.75388 -0.008,-1.05372 -0.002,-2.10762 -0.0238,-3.16116 -0.01,-0.58275 -0.008,-1.16558 -0.0145,-1.74834 -0.012,-0.43076 -3e-4,-0.86133 0.002,-1.29203 0.0104,-0.96129 0.0303,-1.92225 0.0414,-2.88355 4.1e-4,-1.2747 0.004,-2.54965 -0.0175,-3.82422 -0.006,-0.83637 -0.002,-1.67293 -0.0181,-2.50919 -0.004,-0.51165 -0.01,-1.02288 -0.009,-1.53444 -3.9e-4,-0.47321 0.01,-0.94626 -0.005,-1.41926 0.0128,-0.38761 -0.005,-0.77543 2.5e-4,-1.16318 -0.007,-0.41199 0.0136,-0.82348 0.003,-1.23542 0.003,-0.61232 0.0155,-1.2245 0.0147,-1.83681 -0.004,-0.67671 0.004,-1.3535 -0.009,-2.03013 0.006,-0.48581 -0.008,-0.97113 -0.006,-1.45695 0.002,-0.38198 -0.0108,-0.7642 0.002,-1.14596 0.0123,-0.38322 -0.0682,-0.79466 0.0678,-1.15894 0.0403,-0.46723 -0.0162,-0.93622 -0.0328,-1.40368 -0.0301,-0.65666 -0.0209,-1.31415 -0.0153,-1.97121 0.0141,-0.72459 0.26323,-1.41199 0.36884,-2.12355 0.42787,-3.17141 3.72388,-2.97721 7.08977,-4.83885 0.95142,-0.0328 1.90368,-0.0471 2.85558,-0.0376 0.72113,0.0352 1.51635,0.0753 2.2168,0.2808 0.78606,0.33029 0.39548,0.19664 1.16854,0.41015 0.91158,0.28353 1.66592,0.88897 2.55352,1.2285 0.38202,0.11087 0.64062,0.49282 0.99779,0.64018 0.13134,0.0542 0.28347,0.0213 0.42452,0.0384 0.3078,0.0588 0.47903,0.3231 0.7209,0.4642 0.0488,0.0285 0.11996,-0.0338 0.16937,-0.006 0.96009,0.53225 -0.22637,0.0788 0.52993,0.34594 0.42358,0.41486 0.92193,0.66481 1.404,1.00832 0.3928,0.1325 0.69488,0.47355 1.09289,0.58664 0.0885,0.0251 0.193,-0.0103 0.27398,0.0334 0.12608,0.068 0.2133,0.19122 0.31995,0.28683 0.35457,0.0443 0.53947,0.35579 0.82238,0.53209 0.33765,0.21043 0.55933,0.27385 0.84786,0.57921 0.31904,0.0391 0.47148,0.33505 0.72726,0.49137 0.32618,0.19934 0.52357,0.2441 0.80335,0.54199 0.55129,0.1905 0.88956,0.73453 1.38483,0.97779 0.39902,0.20988 0.72659,0.50536 1.10261,0.76632 0.28606,0.30663 0.64933,0.74178 1.03408,0.96509 0.427,0.22829 0.71235,0.8009 1.19933,0.87192 0.38492,0.4301 0.74777,0.85178 1.21743,1.18177 0.21265,0.12773 0.39838,0.36352 0.61332,0.47827 0.22059,0.11777 0.23821,-0.0948 0.56703,0.17136 0.25033,0.3557 0.58164,0.27687 0.96361,0.27839 0.22014,0.22614 0.31986,0.45561 0.62419,0.52915 0.0339,0.008 0.0751,-0.0327 0.10391,-0.0129 0.10064,0.069 0.17144,0.17372 0.25716,0.26058 0.38233,0.34313 0.76731,0.70914 1.06611,1.1268 0.0414,0.047 0.0828,0.0939 0.12414,0.14092 0.0392,-0.0111 0.0853,-0.0582 0.11751,-0.0333 0.10366,0.0801 0.14921,0.21701 0.24107,0.31043 0.11662,0.11859 0.37605,0.21085 0.51168,0.30715 0.23512,0.50239 0.51502,0.43325 0.7967,0.89544 0.14561,0.28111 0.32843,0.77745 0.24109,1.10057 -0.0192,0.0712 -0.11764,0.089 -0.17647,0.13346 -2.20962,1.26781 -4.41925,2.53561 -6.62887,3.80342 -0.0891,-0.0118 -0.34478,0.01 -0.2672,-0.0355 2.07386,-1.21181 8.35495,-4.74088 6.30342,-3.49164 -2.20717,1.344 -4.49595,2.54997 -6.77068,3.77617 -0.0993,0.0535 -0.22276,0.0358 -0.33415,0.0537 -0.11809,0.0732 -0.23618,0.14647 -0.35426,0.21971 -0.35558,0.26162 -0.78665,0.37422 -1.17438,0.57239 -0.15587,0.0797 -0.60832,0.34669 -0.45626,0.25998 8.2585,-4.70913 7.90355,-4.53556 -0.87569,0.60097 -2.57385,1.03912 -0.95928,0.41062 5.59229,-3.26056 0.1168,-0.0654 -0.2129,0.16264 -0.3237,0.23781 -0.30038,0.20379 -0.56872,0.38303 -0.83961,0.62411 -17.72667,10.10718 -0.58473,0.3048 -0.44128,0.2235 0.0644,-0.0365 -0.11668,0.0911 -0.17646,0.13479 -0.124,0.0905 -0.23241,0.2039 -0.36585,0.27985 -2.22571,1.26673 -4.46306,2.51289 -6.69459,3.76934 -0.20833,0.1382 -0.5324,-0.11683 -0.72936,-0.019 -0.0548,0.0272 -0.0732,0.0981 -0.10979,0.1471 -0.0731,0.0275 -0.14627,0.0551 -0.2194,0.0827 16.61076,-9.59741 -0.18411,0.2179 -0.30586,0.28631 -0.1476,0.083 -0.33863,-0.007 -0.50792,-0.004 -0.0677,10e-4 -0.26201,0.0358 -0.20323,0.002 2.10581,-1.20599 4.24409,-2.35438 6.36613,-3.53156 -2.22324,1.28791 -4.43213,2.60093 -6.66973,3.86374 -0.0808,0.0456 -0.18594,0.0224 -0.27304,0.0545 -0.0943,0.0347 -0.3522,0.19335 -0.26497,0.14354 2.07981,-1.18736 8.3796,-4.63764 6.24276,-3.55626 -2.36599,1.19734 -4.58373,2.67062 -6.92905,3.90796 -0.20053,0.10408 -0.4646,0.0317 -0.66817,0.0885 -0.0821,0.0229 -0.13978,0.10906 -0.22373,0.12384 -0.22319,0.0393 -0.45248,-0.0264 -0.67886,-0.0368 -0.38384,0.0158 -0.6058,0.4095 -0.97319,0.45381 -0.17814,0.0215 -0.35935,-0.006 -0.53821,0.009 -0.41348,-0.0132 -0.82684,-0.0323 -1.24056,-0.0369 -0.11178,0.229 -0.0245,0.13983 -0.27695,0.25176 2.09883,-1.20614 4.18253,-2.43901 6.2965,-3.61843 0.0624,-0.0348 -0.062,0.13925 -0.12398,0.17468 -6.47255,3.69971 -4.19321,3.25376 -6.85649,3.75466 -0.10488,-0.0176 -0.9998,-0.0734 -1.01797,-0.0523 -0.0449,0.052 -0.003,0.13746 -0.004,0.20619 16.61422,-9.54957 -0.0164,0.0251 -0.32909,0.13969 -2.27857,0.8347 8.06808,-5.30957 6.30063,-3.64683 -10.51748,9.89445 -3.86585,3.68142 -6.98592,3.86855 -0.17157,0.017 -0.4333,-0.10785 -0.60464,-0.0512 -0.10426,0.0345 -0.22223,0.19282 -0.28949,0.27167 2.08897,-1.20393 4.17794,-2.40786 6.26691,-3.61178 -2.60796,-6.44767 -4.35114,4.07812 -7.02613,3.87674 -0.0778,-0.006 -0.16366,-0.0566 -0.23298,-0.0209 -0.0563,0.029 -0.0313,0.12656 -0.0699,0.17687 -0.0356,0.0464 -0.0955,0.0674 -0.14323,0.10109 2.0763,-1.19973 8.35367,-4.71079 6.22889,-3.59919 -3.68212,1.92632 -4.49197,3.96505 -7.48006,3.82901 -0.14577,-0.31955 -0.30091,0.22776 -0.21808,0.18193 2.12377,-1.17513 4.18331,-2.46313 6.29278,-3.66374 0.0511,-0.0291 -0.0543,0.11196 -0.10493,0.14189 -3.12974,1.84952 -4.45484,2.60196 -6.71934,3.88848 2.08639,-1.21818 4.14497,-2.48531 6.25919,-3.65455 0.12871,-0.0712 -0.11644,0.29397 -0.24358,0.36794 -3.35926,1.95452 -4.25605,4.18843 -6.97251,3.76022 0.029,-0.2292 -0.44237,0.17688 -0.33821,0.11842 2.11276,-1.1858 4.209,-2.40082 6.31897,-3.59157 0.0368,-0.0208 -0.0734,0.0461 -0.0978,0.0807 -0.0362,0.0513 -0.025,0.13957 -0.0796,0.1706 -2.2289,1.26838 -4.49327,2.4734 -6.73991,3.71009 -0.14966,0.16355 -0.53595,-0.12241 -0.67029,-0.003 -0.43472,0.38687 0.41382,-0.0198 -0.23757,0.24896 16.54242,-9.54327 -0.21559,0.19755 -0.3414,0.26967 -0.38487,0.22065 0.0739,-0.17409 -0.3794,0.0105 -0.0571,0.0232 -0.0695,0.10176 -0.1042,0.15264 -0.0676,0.0273 -0.13515,0.0546 -0.20272,0.082 2.10866,-1.2081 8.37245,-4.935 6.32599,-3.6243 -2.13849,1.36965 -4.3836,2.56599 -6.60239,3.80133 -0.0678,0.0377 -0.15615,-0.008 -0.23277,0.004 -0.0482,0.008 -0.17818,0.079 -0.13574,0.0549 4.80806,-2.7301 12.37486,-6.95636 -0.29083,0.13435 -0.34069,-0.10181 -0.69137,-0.12423 -1.04388,-0.14334 -0.16347,-0.004 -0.32697,-0.006 -0.49043,-0.011 0,0 6.13253,-4.41135 6.13253,-4.41135 v 0 c 0.16195,0.0115 0.3242,0.0171 0.48613,0.0292 0.29561,0.0216 0.62591,0.10633 0.87948,-0.0848 -2.11925,1.20877 -8.5554,4.68583 -6.35774,3.6263 2.29352,-1.10575 4.42465,-2.52084 6.64598,-3.76527 0.0954,-0.0534 0.38746,-0.20234 0.29271,-0.14784 -2.1067,1.21157 -8.47204,4.76197 -6.30987,3.65243 2.2572,-1.1583 4.39686,-2.5326 6.59528,-3.7989 0.62056,-0.3217 -0.23134,0.0839 0.41738,-0.10918 0.0958,-0.0285 0.32476,-0.23254 0.23829,-0.1823 -0.12706,0.0738 -17.19695,10.04011 0.39074,-0.20405 0.30254,-0.12818 0.65918,0.0446 0.9676,-0.15721 -2.09036,1.19608 -4.19781,2.36275 -6.27106,3.58825 -0.0461,0.0272 0.10906,0.045 0.15864,0.0248 0.0486,-0.0198 0.0478,-0.10021 0.0928,-0.12709 2.19297,-1.30884 4.38351,-2.62302 6.61026,-3.87354 0.12465,-0.07 0.29914,0.0713 0.42862,-0.0155 0.0833,-0.0392 0.31488,-0.19069 0.23523,-0.14457 -2.06256,1.19423 -8.43031,4.38603 -6.18448,3.5882 0.0739,-0.0262 0.16549,0.005 0.23239,-0.0363 2.19095,-1.33909 4.35025,-2.7293 6.52538,-4.09395 2.37788,-0.89451 0.0547,-0.0273 -6.17972,3.64161 -0.0454,0.0267 0.0979,-0.0399 0.14311,-0.0669 2.18945,-1.31044 4.37338,-2.63007 6.56007,-3.94511 0.27484,0.098 0.14104,0.0847 0.3987,0.0612 0.14197,-0.0236 0.31321,-0.0538 0.44456,-0.11431 0.0697,-0.0321 0.26351,-0.15736 0.19715,-0.11883 -7.2745,4.22333 -9.57678,5.58105 0.39953,-0.26085 0.38951,-0.15956 -0.0671,-0.008 0.39492,-0.0323 0.17812,-0.009 0.28789,-0.15701 0.44867,-0.2087 -2.07535,1.21489 -4.15069,2.42977 -6.22603,3.64466 2.25803,-1.3292 4.20101,-3.92837 6.82113,-3.90661 0.27625,0.002 0.55165,0.0523 0.81821,-0.05 0.0991,-0.032 0.35176,-0.22331 0.26192,-0.17055 -2.09526,1.23048 -8.3306,5.00633 -6.26432,3.72777 2.16691,-1.34082 4.81999,-2.05882 6.56624,-3.91459 0.0144,-0.0154 -17.30137,9.95971 0.31393,-0.18601 0.35285,0.14613 0.76482,0.12034 1.11963,-0.0215 2.41577,-0.84641 -0.22549,0.0702 -6.16009,3.55529 -0.0551,0.0324 0.13538,0.0127 0.19066,-0.0193 1.05328,-0.60976 4.4662,-4.09208 7.05498,-3.92883 0.38581,0.0148 0.77859,0.0224 1.15847,-0.0545 0.52024,-0.10882 0.96701,-0.49166 1.54149,-0.38833 0.48066,-0.0615 0.97286,-0.19202 1.40251,-0.42349 2.14441,-0.85344 -8.03884,4.53363 -5.98129,3.48799 0.32734,-0.16635 17.28864,-9.87886 1.00085,-0.38654 2.22233,-1.26343 4.4362,-2.54185 6.66699,-3.79027 0.10883,-0.0609 0.25051,-0.0421 0.36001,-0.10179 4.79465,-2.61351 -21.54073,12.39478 0.54279,-0.31298 0.35266,-0.11097 0.73399,0.0165 1.07095,-0.19914 -20.75205,12.03837 15.43199,-9.14481 -5.27035,2.94043 0.35844,-0.17012 0.53131,-0.43811 0.85084,-0.66285 0.10893,-0.0766 0.24398,-0.10819 0.35903,-0.17527 7.80462,-4.55032 4.4102,-2.69452 7.16162,-4.19418 -1.96798,1.15575 -7.81722,4.71144 -5.90393,3.46725 2.74687,-1.78624 5.50649,-3.49835 8.47351,-4.85291 0.25002,-0.0755 0.97016,-0.37465 0.74515,-0.24208 -2.04442,1.20454 -8.40353,4.34358 -6.16254,3.56347 0.84036,-0.29253 16.65209,-9.54619 0.61039,-0.21081 0.31093,-0.24279 0.0223,-0.10411 0.43277,0.11 0.0248,0.0129 0.0275,-0.27554 -0.0186,-0.35012 -0.26022,-0.1548 -0.4593,-0.35947 -0.6163,-0.62168 -0.41097,-0.25281 -0.80748,-0.58762 -1.12387,-0.94489 -0.29073,-0.34773 -0.60839,-0.67033 -0.96389,-0.95122 -0.28345,-0.089 -0.76637,-0.50602 -0.77613,-0.50101 -0.0259,0.0133 0.005,0.0579 0.008,0.0868 -0.43969,-0.0804 -0.79148,-0.28083 -1.14421,-0.55235 -0.45258,-0.0305 -0.84969,-0.49001 -1.20211,-0.73262 -0.41104,-0.3175 -0.73065,-0.73126 -1.13651,-1.05084 -0.4576,-0.29899 -0.84507,-0.68623 -1.29817,-0.99433 -0.34262,-0.30425 -0.66099,-0.63118 -1.00311,-0.93488 -0.37981,-0.23959 -0.70266,-0.55102 -1.0949,-0.77504 -0.47592,-0.37919 -0.96857,-0.7283 -1.45616,-1.08976 -0.48144,-0.37495 -1.06062,-0.63336 -1.52865,-1.03567 -0.4928,-0.39581 -1.0899,-0.67442 -1.61738,-1.02449 -0.57618,-0.24462 -1.13474,-0.53378 -1.65795,-0.87918 -0.47754,-0.2843 -0.90529,-0.61879 -1.36435,-0.93077 -0.42496,-0.26125 -0.85384,-0.55144 -1.34715,-0.66079 -0.53273,-0.20328 -0.9641,-0.56878 -1.47872,-0.80591 -0.79443,-0.42866 -1.57424,-0.9129 -2.44599,-1.16934 -1.06092,-0.33666 -2.14613,-0.56271 -3.26716,-0.50655 -0.92626,0.0179 -1.88132,-0.0293 -2.77879,0.23254 2.06864,-1.19475 4.15015,-2.3675 6.20592,-3.58427 0.0567,-0.0336 -0.13006,0.0294 -0.19596,0.0271 -0.0723,-0.002 -0.15852,-0.0888 -0.21295,-0.0412 -0.06,0.0525 0.0147,0.16412 -0.0131,0.23884 -0.0197,0.0529 -0.0802,0.0796 -0.12027,0.11934 -0.014,0.0671 -0.028,0.13427 -0.042,0.20141 -0.13706,0.67781 -0.24382,1.35862 -0.45706,2.01975 0.009,0.6439 0.0171,1.28773 0.0326,1.93152 0.0212,0.49787 0.0547,0.9946 0.0857,1.49187 0.0175,0.34385 -0.17084,0.68461 -0.099,1.09256 0.0131,0.3811 -4.5e-4,0.76271 0.002,1.14404 10e-4,0.48794 -0.0125,0.97538 -0.006,1.4633 -0.0132,0.67976 -0.006,1.35967 -0.009,2.0395 -8.2e-4,0.60733 0.012,1.21452 0.0147,1.82186 -0.01,0.41078 0.0103,0.82108 0.003,1.2319 0.005,0.38767 -0.0126,0.77542 2.5e-4,1.16293 -0.0142,0.47469 -0.005,0.94938 -0.005,1.42427 7.1e-4,0.51464 -0.005,1.02894 -0.009,1.54366 -0.0156,0.84242 -0.0121,1.68512 -0.0181,2.52763 -0.0209,1.28052 -0.018,2.56141 -0.0175,3.84206 0.0111,0.94723 0.031,1.89412 0.0414,2.84134 0.002,0.43014 0.0136,0.86013 0.002,1.29034 -0.006,0.58768 -0.004,1.17542 -0.0145,1.76309 -0.0217,1.06163 -0.0163,2.1236 -0.0238,3.1854 5e-5,1.24832 -3.5e-4,2.49657 0.009,3.74479 3.1e-4,0.99553 0.0123,1.99091 0.0109,2.98641 -0.008,0.87791 0.007,1.75583 0.002,2.63378 -5.1e-4,0.94521 -0.0145,1.89033 -0.009,2.83557 -8.9e-4,1.05484 -0.003,2.10969 0.001,3.16453 0.006,0.83793 0.0215,1.67591 0.008,2.5138 -0.005,0.94545 -0.0118,1.89088 -0.003,2.83638 0.004,0.71679 0.009,1.43361 0.0255,2.15025 0.005,0.41935 -0.007,0.83884 -0.0104,1.25818 -4.6e-4,0.75814 -0.0178,1.5162 -0.026,2.27428 -0.007,1.33249 -0.019,2.66497 -0.0197,3.99748 -0.0147,1.51615 -0.012,3.03396 0.0396,4.54927 0,0 -6.68125,3.40427 -6.68125,3.40427 z"
         inkscape:connector-curvature="0" />
      <path
         style="fill:#eb1a1a;fill-opacity:1;stroke-width:0.50507599"
         d="m 262.25154,726.15723 c 0,-11.17643 0.0575,-11.93259 0.88388,-11.61856 2.63478,1.00125 10.95572,6.14997 14.07816,8.71109 1.9788,1.62307 4.25218,3.28942 5.05195,3.703 0.79977,0.41357 1.85847,1.19874 2.35265,1.74481 0.87579,0.96773 0.83741,1.01906 -1.51642,2.02837 -1.32821,0.56954 -3.32408,1.18794 -4.43524,1.37423 -1.11117,0.18629 -2.76778,0.56739 -3.68135,0.84688 -1.16523,0.35648 -1.86225,0.34118 -2.3351,-0.0512 -0.89528,-0.74302 -2.02922,-0.25626 -2.81249,1.2073 -0.60347,1.12759 -3.95008,2.79641 -5.60788,2.79641 -0.42129,0 -1.03872,0.27274 -1.37207,0.60609 -0.47141,0.4714 -0.60609,-2.05046 -0.60609,-11.34837 z"
         id="path32"
         inkscape:connector-curvature="0" />
      <path
         style="fill:#eb1a1a;fill-opacity:1;stroke-width:0.50507599"
         d="m 255.69244,748.92469 c 0.004,-18.6978 0.15174,-34.5372 0.32877,-35.19866 0.45667,-1.70635 5.85477,-4.10064 9.24515,-4.10064 3.8851,0 11.97619,4.41631 20.11207,10.97765 1.46922,1.18488 2.8771,2.15433 3.12862,2.15433 0.83342,0 4.17991,3.39552 3.96928,4.02743 -0.33179,0.99535 -12.9706,7.83993 -16.84027,9.11989 -1.94455,0.64319 -4.10375,1.55607 -4.79823,2.02861 -0.942,0.64098 -1.47421,0.72383 -2.09556,0.32626 -0.62559,-0.40029 -1.18863,-0.29982 -2.26228,0.40366 -0.78617,0.51512 -2.11601,1.07695 -2.9552,1.24853 l -1.52579,0.31195 -0.13207,19.73637 -0.13207,19.73636 -3.02466,1.61213 -3.02465,1.61212 z M 266.264,737.18865 c 1.97633,-1.47608 2.65268,-1.64029 2.2311,-0.54168 -0.1599,0.41669 -0.14371,0.75761 0.036,0.75761 0.80589,0 4.4028,-2.13504 4.64051,-2.75449 0.35872,-0.93483 2.48794,-1.73601 5.30828,-1.99738 1.2863,-0.11921 3.26598,-0.6898 4.39929,-1.26797 1.13332,-0.57817 2.45514,-1.05123 2.93739,-1.05123 0.67731,0 0.4967,-0.39217 -0.79373,-1.72356 -0.9188,-0.94796 -2.11881,-1.84079 -2.66668,-1.98406 -0.65334,-0.17085 -0.33698,0.3093 0.91931,1.39528 l 1.91545,1.65577 -2.75711,1.02756 c -3.79921,1.41593 -8.39486,2.30673 -9.92248,1.92332 -1.01018,-0.25354 -1.60962,0.0252 -2.89158,1.34458 -0.92208,0.949 -2.71673,2.01545 -4.17523,2.4811 l -2.55802,0.81668 -0.31747,-3.03734 c -0.41252,-3.9468 -0.40816,-14.20834 0.007,-17.23966 0.25321,-1.8474 0.49517,-2.30427 1.09783,-2.07301 1.79072,0.68717 8.89553,5.17429 13.04636,8.23959 2.45926,1.8161 4.16572,2.93065 3.79214,2.47678 -2.27075,-2.75884 -15.8341,-11.46547 -17.86112,-11.46547 -0.8447,0 -0.90508,0.8019 -0.90508,12.02082 0,12.38291 0.20605,13.71457 1.97141,12.74089 0.44358,-0.24466 1.58934,-1.02951 2.54613,-1.74413 z"
         id="path34"
         inkscape:connector-curvature="0" />
      <path
         style="fill:#eb1a1a;fill-opacity:1;stroke-width:0.50507599"
         d="m 255.69244,748.90234 c 0.004,-18.68551 0.15174,-34.51485 0.32877,-35.17631 0.45573,-1.70282 5.85479,-4.10064 9.23321,-4.10064 3.29888,0 10.92821,3.8712 17.10526,8.67939 2.41343,1.8786 5.18355,3.85412 6.15582,4.39004 2.17969,1.20145 4.21619,3.32391 3.95142,4.11821 -0.32367,0.97102 -13.01345,7.82868 -16.83086,9.09553 -1.94455,0.64533 -4.07906,1.58801 -4.74336,2.09487 -0.88192,0.67289 -1.38319,0.77601 -1.85775,0.38216 -0.47104,-0.39093 -1.11174,-0.29887 -2.32771,0.33445 -0.92278,0.48061 -2.35964,1.01555 -3.19301,1.18875 l -1.51523,0.31491 -0.13213,19.79933 -0.13213,19.79933 -3.0246,1.52682 -3.02459,1.52681 z m 10.17479,-11.49776 c 2.31999,-1.68059 3.06441,-1.89521 2.62787,-0.75761 -0.1599,0.41669 -0.11591,0.75761 0.0978,0.75761 0.67936,0 4.77037,-2.55095 4.77037,-2.97456 0,-0.22363 0.51138,-0.65324 1.13642,-0.95468 1.12468,-0.54242 1.1225,-0.54843 -0.21123,-0.58226 -0.74121,-0.0188 -1.76399,-0.16927 -2.27285,-0.33437 -0.70781,-0.22965 -0.76082,-0.18307 -0.22561,0.19825 0.56546,0.40288 0.47816,0.61694 -0.45539,1.11656 -1.01236,0.54179 -1.11452,0.5127 -0.82738,-0.23557 0.18679,-0.48676 -0.30111,-0.225 -1.1351,0.609 -0.80448,0.80448 -2.56525,1.8162 -3.91281,2.24828 l -2.45012,0.78558 -0.40737,-1.83215 c -0.46897,-2.10919 -0.26455,-20.01901 0.23417,-20.51617 0.18252,-0.18195 1.03484,0.0327 1.89403,0.477 0.85919,0.44431 1.56217,0.69419 1.56217,0.55529 0,-0.13889 -0.70237,-0.61574 -1.56082,-1.05967 -2.94433,-1.52257 -2.98557,-1.37384 -2.97797,10.7406 0.004,6.05069 0.14394,11.51265 0.31144,12.13768 0.40767,1.5212 1.30263,1.43204 3.80243,-0.37881 z m 17.09243,-6.1563 c 1.52786,-0.59657 2.87123,-1.15869 2.98528,-1.24916 0.33117,-0.26271 -1.61387,-2.23804 -2.72709,-2.76955 -0.58011,-0.27697 -0.37036,0.0617 0.48906,0.78952 0.97852,0.82874 1.33183,1.44583 1.01015,1.76435 -0.27209,0.26941 -2.42662,1.07894 -4.78785,1.79894 -3.24212,0.98862 -3.73673,1.24074 -2.02031,1.02983 1.25007,-0.1536 3.52291,-0.76737 5.05076,-1.36393 z m -4.29314,-7.27504 c -2.06381,-1.73414 -11.39411,-7.92033 -11.61406,-7.70038 -0.1701,0.1701 12.36033,8.86884 12.87675,8.93917 0.13889,0.0189 -0.42932,-0.53854 -1.26269,-1.23879 z"
         id="path36"
         inkscape:connector-curvature="0" />
      <path
         style="fill:#eb1a1a;fill-opacity:1;stroke-width:0.50507599"
         d="m 255.68555,748.24688 v -34.62912 l 1.20728,-1.11887 c 1.65369,-1.53259 5.62892,-2.87901 8.49121,-2.876 3.233,0.003 10.46474,3.72851 18.0807,9.31347 7.78119,5.70612 9.31394,7.05819 8.98202,7.92316 -0.39369,1.02594 -12.5767,7.65259 -16.93964,9.2139 -2.01546,0.72126 -4.17686,1.6471 -4.80311,2.05744 -0.71309,0.46723 -1.40321,0.58256 -1.84654,0.30856 -0.44547,-0.27532 -1.47344,-0.0928 -2.77303,0.49228 -1.13582,0.51138 -2.42838,1.03846 -2.87234,1.17129 -1.21062,0.36219 -1.46564,4.38636 -1.46564,23.1273 v 16.58616 l -3.03046,1.52977 -3.03045,1.52977 z m 10.05126,-10.85149 c 2.24313,-1.51996 3.40255,-1.93031 2.82818,-1.00096 -0.17168,0.27779 0.0639,0.50508 0.52357,0.50508 0.83874,0 3.17298,-1.46694 5.00124,-3.143 0.96095,-0.88096 0.9547,-0.89761 -0.33672,-0.89761 -0.72371,0 -1.3916,0.22071 -1.4842,0.49047 -0.0926,0.26975 -0.62752,0.55987 -1.18872,0.64469 -0.5612,0.0848 -1.81127,0.63752 -2.77792,1.22822 -1.4799,0.90432 -5.36452,2.2961 -5.625,2.01532 -0.0436,-0.0471 -0.23571,-4.74488 -0.4268,-10.43962 l -0.34744,-10.35406 0.048,10.6066 c 0.0442,9.76508 0.26125,11.8852 1.21423,11.8601 0.19195,-0.005 1.34916,-0.68691 2.57157,-1.51523 z m 17.92899,-6.53382 2.4739,-1.06135 -1.17298,-1.24858 c -0.64514,-0.68672 -1.38583,-1.24858 -1.64598,-1.24858 -0.26014,0 0.0636,0.43843 0.71939,0.9743 1.49655,1.22284 1.0888,1.65721 -2.84823,3.03414 -1.66675,0.58293 -2.34861,0.95897 -1.51523,0.83564 0.83337,-0.12332 2.62848,-0.70183 3.98913,-1.28557 z m -5.71982,-7.30191 c -0.81763,-0.98518 -10.1386,-7.16002 -10.1386,-6.7165 0,0.11348 2.15996,1.62718 4.79992,3.36378 2.63995,1.7366 4.92621,3.3618 5.08057,3.61156 0.15435,0.24975 0.40871,0.4541 0.56522,0.4541 0.15652,0 0.0183,-0.32082 -0.30711,-0.71294 z m -15.04302,-8.37843 c 0.14529,-0.55559 0.0582,-1.01016 -0.19363,-1.01016 -0.25179,0 -0.45779,0.45457 -0.45779,1.01016 0,0.55558 0.0871,1.01015 0.19363,1.01015 0.10649,0 0.3125,-0.45457 0.45779,-1.01015 z m 2.1265,0 c -0.17169,-0.2778 -0.58285,-0.5016 -0.91369,-0.49735 -0.36145,0.005 -0.29915,0.20316 0.15607,0.49735 0.97032,0.62706 1.14516,0.62706 0.75762,0 z"
         id="path38"
         inkscape:connector-curvature="0" />
      <path
         style="fill:#eb1a1a;fill-opacity:1;stroke-width:0.50507599"
         d="m 255.68555,748.32695 c 0,-39.22207 -0.40309,-35.80069 4.43811,-37.67031 4.28488,-1.65476 6.86131,-1.39379 12.05179,1.22075 4.33885,2.18556 6.26246,3.42695 14.65268,9.45601 4.60533,3.30932 5.95319,4.65427 5.59632,5.58425 -0.36738,0.95737 -12.5848,7.57171 -17.04093,9.22572 -2.08344,0.77332 -4.06635,1.62373 -4.40648,1.8898 -0.34012,0.26608 -1.47654,0.54983 -2.52538,0.63057 -2.59523,0.19977 -5.61301,1.34402 -5.99033,2.27134 -0.17067,0.41946 -0.43479,9.35625 -0.58692,19.85953 l -0.2766,19.09688 -2.95613,1.49225 -2.95613,1.49225 z m 10.1391,-11.22019 c 0.64635,-0.7788 0.59587,-0.8217 -0.54662,-0.46457 -0.6923,0.2164 -1.41752,0.64147 -1.6116,0.94458 -0.21316,0.33292 -0.55043,0.056 -0.85187,-0.69942 l -0.49899,-1.25053 -0.032,1.34687 c -0.0507,2.13162 1.82019,2.19664 3.5411,0.12307 z m 4.66758,-0.7864 c 0.60677,-0.31853 1.8498,-1.22767 2.76229,-2.0203 l 1.65907,-1.44116 h -1.28026 c -0.70415,0 -1.28027,0.22728 -1.28027,0.50507 0,0.27779 -0.34806,0.50508 -0.77346,0.50508 -0.42541,0 -0.91161,0.35998 -1.08044,0.79996 -0.16884,0.43998 -0.44581,0.58811 -0.6155,0.32917 -0.173,-0.264 -0.9741,-0.0439 -1.82375,0.50096 -1.1654,0.7474 -1.25285,0.89676 -0.3788,0.64695 0.67159,-0.19195 1.13642,-0.1043 1.13642,0.2143 0,0.68544 0.30671,0.67811 1.6747,-0.04 z m -8.37282,-10.64187 c -0.10235,-1.46772 -0.18716,-0.39574 -0.18848,2.38218 -10e-4,2.77792 0.0824,3.97878 0.18609,2.66858 0.10367,-1.3102 0.10474,-3.58304 0.002,-5.05076 z m 20.33518,5.66518 c 0.92326,-0.59666 0.1258,-0.59666 -1.26269,0 -0.66607,0.28621 -0.75209,0.44353 -0.25254,0.46184 0.41669,0.0153 1.09854,-0.19256 1.51523,-0.46184 z m 3.24128,-1.44773 c 0.14873,-0.24067 -0.23168,-0.8657 -0.84538,-1.38896 -0.86963,-0.74149 -0.96884,-0.76126 -0.44968,-0.0896 0.36637,0.47397 0.5195,1.099 0.3403,1.38896 -0.17921,0.28996 -0.0986,0.5272 0.17924,0.5272 0.2778,0 0.62678,-0.1969 0.77552,-0.43757 z m -9.3022,-7.32926 c 0,-0.10489 -0.39774,-0.50263 -0.88388,-0.88389 -0.80108,-0.62825 -0.81894,-0.61038 -0.19069,0.1907 0.65981,0.84133 1.07457,1.10888 1.07457,0.69319 z m -13.79711,-7.98523 c -0.16123,-0.40292 -0.28091,-0.28324 -0.30515,0.30515 -0.0219,0.53243 0.0974,0.83074 0.26528,0.66291 0.16783,-0.16783 0.18577,-0.60346 0.0399,-0.96806 z"
         id="path40"
         inkscape:connector-curvature="0" />
      <path
         style="fill:#eb1a1a;fill-opacity:1;stroke-width:0.50507599"
         d="m 255.68555,748.35983 c 0,-29.9095 0.10079,-34.61297 0.76198,-35.55695 1.01614,-1.45074 5.76649,-3.17749 8.74139,-3.17749 4.01983,0 12.48704,4.68225 23.03212,12.73645 4.48698,3.4271 4.96848,4.18881 3.40144,5.38093 -2.05375,1.56238 -12.29897,6.92745 -15.98642,8.37154 -1.94455,0.76153 -4.26052,1.8022 -5.14661,2.3126 -1.04626,0.60266 -1.67603,0.73311 -1.79638,0.37207 -0.20434,-0.61302 -5.16133,0.95435 -5.92309,1.87285 -0.23757,0.28645 -0.59859,9.22694 -0.80227,19.86775 l -0.37033,19.34693 -2.07203,1.10289 c -1.13962,0.60659 -2.46978,1.26863 -2.95592,1.47119 -0.83676,0.34867 -0.88388,-1.46949 -0.88388,-34.10076 z m 9.59644,-10.95525 c 1.36219,-1.18142 0.72541,-1.36081 -0.86822,-0.24459 -0.99107,0.69417 -1.14141,0.6824 -1.61225,-0.12627 -0.43689,-0.75034 -0.5217,-0.76496 -0.53462,-0.0921 -0.0334,1.73603 1.30951,1.94223 3.01509,0.46298 z m 6.87197,-2.39223 c 2.03038,-1.55032 2.2947,-1.92122 1.4808,-2.07796 -0.5449,-0.10494 -1.07513,0.0624 -1.1783,0.37193 -0.10317,0.3095 -0.5167,0.56273 -0.91895,0.56273 -0.40226,0 -0.8617,0.33962 -1.02099,0.75471 -0.15929,0.41509 -0.47257,0.64164 -0.69618,0.50344 -0.22362,-0.1382 -0.75789,-0.11647 -1.18727,0.0483 -0.6178,0.23708 -0.65366,0.44418 -0.17185,0.99258 0.85581,0.97411 0.93641,0.94888 3.69274,-1.15573 z m 13.33109,-5.40664 c 0,-0.4003 -0.17858,-0.83818 -0.39685,-0.97307 -0.21827,-0.1349 -0.39685,0.19262 -0.39685,0.7278 0,0.53519 0.17858,0.97307 0.39685,0.97307 0.21827,0 0.39685,-0.32751 0.39685,-0.7278 z"
         id="path42"
         inkscape:connector-curvature="0" />
      <path
         style="fill:#eb1a1a;fill-opacity:1;stroke-width:0.50507599"
         d="m 255.68555,748.3761 c 0,-29.924 0.10078,-34.62923 0.76198,-35.57322 1.01614,-1.45074 5.76649,-3.17749 8.74139,-3.17749 3.86995,0 9.89421,3.25396 22.06389,11.91765 3.25851,2.31976 5.3033,4.27087 5.3033,5.06033 0,1.05337 -10.25728,6.86038 -16.48182,9.33094 -2.18557,0.86747 -4.69161,2.01339 -5.56898,2.54648 -0.91289,0.55469 -1.66902,0.75019 -1.76776,0.45706 -0.10776,-0.31985 -1.18936,-0.18682 -2.88017,0.35425 -1.92113,0.61479 -2.83806,1.20959 -3.15672,2.04773 -0.24702,0.6497 -0.44962,3.95071 -0.45022,7.33558 -6e-4,3.38487 -0.15107,11.79603 -0.33438,18.69147 l -0.33328,12.53716 -2.56981,1.47396 c -1.4134,0.81068 -2.74027,1.4761 -2.94862,1.47871 -0.20834,0.003 -0.3788,-15.51367 -0.3788,-34.48061 z m 9.39189,-11.07796 0.96217,-1.1166 -1.36583,0.86055 c -1.28993,0.81273 -1.39432,0.81162 -1.87868,-0.0198 -0.43561,-0.74778 -0.51516,-0.75993 -0.5282,-0.0807 -0.0342,1.77945 1.42494,1.96455 2.81054,0.35655 z m 6.67104,-1.95756 c 1.1659,-0.8574 2.11981,-1.76654 2.11981,-2.0203 0,-0.70384 -0.45658,-0.5647 -2.18456,0.66573 -0.87059,0.61991 -1.81481,1.1313 -2.09828,1.13642 -0.53284,0.01 -0.76792,0.39902 -0.76792,1.272 0,0.83683 0.70446,0.58353 2.93095,-1.05385 z m 13.57651,-6.11192 c -0.16123,-0.40292 -0.28091,-0.28323 -0.30515,0.30515 -0.0219,0.53243 0.0975,0.83075 0.26528,0.66291 0.16783,-0.16783 0.18578,-0.60346 0.0399,-0.96806 z"
         id="path44"
         inkscape:connector-curvature="0" />
      <path
         style="fill:#eb1a1a;fill-opacity:1;stroke-width:0.50507599"
         d="m 255.68555,748.3761 c 0,-29.924 0.10078,-34.62923 0.76198,-35.57322 0.41909,-0.59833 2.0669,-1.57884 3.6618,-2.17891 5.993,-2.25481 10.68064,-0.64031 22.82903,7.86267 7.05117,4.93531 9.61775,7.09703 9.61775,8.10065 0,1.14615 -10.57451,7.10747 -17.3761,9.79568 -2.19536,0.86769 -4.42609,1.88195 -4.95716,2.25393 -0.53108,0.37198 -1.39348,0.56443 -1.91644,0.42768 -0.52297,-0.13676 -1.96154,0.13733 -3.19683,0.60909 -1.8177,0.69419 -2.30433,1.14953 -2.55201,2.38792 -0.16832,0.8416 -0.33459,6.4452 -0.3695,12.45245 -0.0349,6.00725 -0.20537,14.21781 -0.37881,18.24568 l -0.31534,7.32342 -2.52538,1.37735 c -1.38896,0.75755 -2.69584,1.38267 -2.90419,1.38916 -0.20834,0.006 -0.3788,-15.50661 -0.3788,-34.47355 z m 9.31252,-11.4238 c -0.13089,-0.13089 -0.50153,0.0255 -0.82364,0.34767 -0.42723,0.42723 -0.76653,0.43555 -1.25428,0.0308 -0.44322,-0.36785 -0.66861,-0.37798 -0.66861,-0.0301 0,0.28866 0.2841,0.62145 0.63134,0.73954 0.68688,0.2336 2.50274,-0.70034 2.11519,-1.08789 z m 6.94904,-1.88925 c 1.70793,-1.1836 2.4603,-2.20415 1.62494,-2.20415 -0.34711,0 -4.75452,3.12268 -4.75452,3.36861 0,0.53488 1.46287,-0.009 3.12958,-1.16446 z"
         id="path46"
         inkscape:connector-curvature="0" />
      <path
         style="fill:#eb1a1a;fill-opacity:1;stroke-width:0.50507599"
         d="m 255.68555,748.3761 c 0,-29.924 0.10078,-34.62923 0.76198,-35.57322 0.41909,-0.59833 2.0669,-1.57884 3.6618,-2.17891 6.39026,-2.40427 11.24585,-0.55265 25.62825,9.77302 4.30259,3.089 6.81853,5.37988 6.81853,6.2086 0,1.20501 -7.67126,5.43232 -20.12483,11.08996 -1.76262,0.80076 -3.80818,1.40867 -4.54568,1.35091 -1.95944,-0.15345 -4.77484,1.42353 -5.18419,2.90381 -0.19205,0.69448 -0.37184,5.8289 -0.39953,11.40982 -0.0277,5.58092 -0.19848,13.90319 -0.37953,18.49393 l -0.32919,8.3468 -2.71246,1.33031 c -1.49185,0.73167 -2.82106,1.33032 -2.95381,1.33032 -0.13274,0 -0.24134,-15.51841 -0.24134,-34.48535 z m 7.57614,-10.68917 c 0,-0.1225 -0.22728,-0.3632 -0.50508,-0.53489 -0.27779,-0.17168 -0.50507,-0.0714 -0.50507,0.22273 0,0.29419 0.22728,0.53489 0.50507,0.53489 0.2778,0 0.50508,-0.10023 0.50508,-0.22273 z m 8.88095,-3.08135 c 1.81227,-1.6388 1.8511,-1.72488 0.46296,-1.0262 -2.34099,1.17826 -4.2043,2.79029 -3.24088,2.80382 0.43986,0.006 1.68992,-0.79375 2.77792,-1.77762 z"
         id="path48"
         inkscape:connector-curvature="0" />
      <path
         style="fill:#eb1a1a;fill-opacity:1;stroke-width:0.50507599"
         d="m 255.94435,763.14641 c -0.2057,-10.56549 -0.20674,-26.12431 -0.002,-34.57517 0.41556,-17.17753 0.18916,-16.23659 4.25148,-17.66986 3.75407,-1.32452 7.38592,-1.01483 11.56047,0.98577 6.77664,3.24762 20.29703,13.00542 20.29703,14.64857 0,0.36412 -1.0796,1.35396 -2.39912,2.19966 -4.32962,2.77492 -19.01461,9.64588 -21.33947,9.98453 -2.72981,0.39764 -4.85478,1.40756 -5.47955,2.60424 -0.2523,0.48326 -0.60775,8.2654 -0.78989,17.29364 -0.18214,9.02823 -0.45887,17.57354 -0.61496,18.98958 -0.27004,2.44975 -0.39233,2.62733 -2.52159,3.6618 -1.23078,0.59796 -2.3166,1.0872 -2.41294,1.0872 -0.0963,0 -0.34346,-8.64449 -0.54917,-19.20996 z m 7.31734,-25.74183 c 0,-0.27779 -0.22728,-0.50507 -0.50508,-0.50507 -0.27779,0 -0.50507,0.22728 -0.50507,0.50507 0,0.27779 0.22728,0.50508 0.50507,0.50508 0.2778,0 0.50508,-0.22729 0.50508,-0.50508 z m 8.83822,-2.5926 c 0.99127,-0.87034 1.70251,-1.68224 1.58053,-1.80422 -0.27412,-0.27412 -4.15113,2.13852 -4.59772,2.86113 -0.70733,1.14448 1.31797,0.43503 3.01719,-1.05691 z"
         id="path50"
         inkscape:connector-curvature="0" />
      <path
         style="fill:#eb1a1a;fill-opacity:1;stroke-width:0.50507599"
         d="m 255.92293,768.3405 c -0.52979,-19.40643 0.0303,-54.53671 0.88598,-55.57094 1.27038,-1.53549 4.59369,-2.61661 8.07829,-2.628 3.0754,-0.0101 3.84187,0.21872 8.18221,2.44222 4.99959,2.56124 15.26981,9.63756 17.76037,12.23714 1.13867,1.18852 1.335,1.69242 0.92501,2.37424 -0.87359,1.45283 -20.31792,10.9703 -23.82018,11.65932 -5.72802,1.12692 -5.36156,-0.0926 -5.81042,19.33614 -0.214,9.26318 -0.51157,17.99563 -0.66126,19.40545 -0.25959,2.44499 -0.37652,2.614 -2.5332,3.6618 -1.24358,0.60417 -2.34276,1.0985 -2.44262,1.0985 -0.0999,0 -0.35374,-6.30714 -0.56418,-14.01587 z m 7.33876,-30.93592 c 0,-0.27779 -0.22728,-0.50507 -0.50508,-0.50507 -0.27779,0 -0.50507,0.22728 -0.50507,0.50507 0,0.27779 0.22728,0.50508 0.50507,0.50508 0.2778,0 0.50508,-0.22729 0.50508,-0.50508 z m 8.44553,-2.32385 c 0.94729,-0.72253 1.61489,-1.42114 1.48357,-1.55247 -0.3383,-0.3383 -3.05643,1.13045 -3.84055,2.07525 -1.0858,1.30831 0.38359,0.9824 2.35698,-0.52278 z"
         id="path52"
         inkscape:connector-curvature="0" />
      <path
         style="fill:#eb1a1a;fill-opacity:1;stroke-width:0.50507599"
         d="m 255.92372,771.37096 c -0.59145,-17.15592 -0.0106,-57.51903 0.84256,-58.55004 1.31108,-1.58436 4.595,-2.66784 8.12092,-2.67936 3.06671,-0.01 3.84442,0.22028 8.08122,2.39317 5.28939,2.71271 15.01432,9.3563 17.59826,12.02226 1.3716,1.41513 1.60759,1.93949 1.18597,2.63518 -0.64689,1.06739 -19.05841,10.45402 -22.04115,11.2371 -1.18616,0.31141 -3.00527,0.78448 -4.04246,1.05125 -1.08186,0.27827 -2.14422,0.96193 -2.492,1.60367 -0.4108,0.75805 -0.74089,6.57258 -1.02406,18.03867 -0.53964,21.85104 -0.38023,20.75376 -3.21505,22.13102 -1.24809,0.60637 -2.35166,1.10249 -2.45237,1.10249 -0.10072,0 -0.35355,-4.94343 -0.56184,-10.98541 z m 7.33797,-33.96638 c 0,-0.27779 -0.22728,-0.50507 -0.50508,-0.50507 -0.27779,0 -0.50507,0.22728 -0.50507,0.50507 0,0.27779 0.22728,0.50508 0.50507,0.50508 0.2778,0 0.50508,-0.22729 0.50508,-0.50508 z m 8.44553,-2.32385 c 0.94729,-0.72253 1.59839,-1.43764 1.4469,-1.58914 -0.2795,-0.2795 -4.33659,2.20669 -4.33659,2.65747 0,0.61765 1.31818,0.13032 2.88969,-1.06833 z"
         id="path54"
         inkscape:connector-curvature="0" />
      <path
         style="fill:#eb1a1a;fill-opacity:1;stroke-width:0.50507599"
         d="m 255.92477,773.39127 c -0.20594,-4.93081 -0.26703,-20.37551 -0.13575,-34.32156 0.19605,-20.82659 0.36603,-25.51032 0.95149,-26.21774 1.3357,-1.61395 4.59646,-2.69881 8.14669,-2.71041 3.07073,-0.01 3.84391,0.21976 8.13412,2.41759 5.33835,2.73477 14.90184,9.27042 17.52405,11.97586 1.38895,1.43302 1.62915,1.96133 1.20809,2.65716 -0.87432,1.44486 -20.45345,11.0808 -23.88782,11.75647 -1.66435,0.32745 -3.47266,1.01139 -4.01847,1.51989 -1.19635,1.11457 -1.43575,4.13013 -1.86188,23.45256 -0.15928,7.22259 -0.41441,13.85624 -0.56696,14.74145 -0.22325,1.29553 -0.70982,1.81276 -2.49449,2.65165 -1.21942,0.5732 -2.30882,1.04218 -2.42088,1.04218 -0.11207,0 -0.37225,-4.0343 -0.57819,-8.9651 z m 7.33692,-35.70434 c 0,-0.1225 -0.22728,-0.3632 -0.50508,-0.53489 -0.27779,-0.17168 -0.50507,-0.0714 -0.50507,0.22273 0,0.29419 0.22728,0.53489 0.50507,0.53489 0.2778,0 0.50508,-0.10023 0.50508,-0.22273 z m 8.25579,-2.60009 c 1.05836,-0.71918 1.7976,-1.43429 1.64274,-1.58914 -0.28365,-0.28366 -4.34269,2.19452 -4.34269,2.65136 0,0.5275 0.85615,0.19068 2.69995,-1.06222 z"
         id="path56"
         inkscape:connector-curvature="0" />
      <path
         style="fill:#eb1a1a;fill-opacity:1;stroke-width:0.50507599"
         d="m 255.92751,774.99236 c -0.20247,-4.05021 -0.27227,-19.49344 -0.15512,-34.3183 0.19928,-25.21588 0.27248,-27.02001 1.13509,-27.97318 2.71665,-3.00186 9.8303,-3.38232 15.17684,-0.81171 6.67391,3.20881 19.96672,12.97446 19.96672,14.66868 0,1.03284 -2.07634,2.30956 -10.86863,6.68305 -7.92134,3.94026 -10.46635,5.00102 -14.76604,6.15445 -3.71584,0.99681 -3.69276,0.88806 -4.20801,19.83459 -0.58829,21.63288 -0.46473,20.77288 -3.17283,22.08385 -1.18453,0.57342 -2.28558,1.04258 -2.44679,1.04258 -0.16121,0 -0.45876,-3.31381 -0.66123,-7.36401 z m 7.33418,-37.30543 c 0,-0.1225 -0.22728,-0.3632 -0.50508,-0.53489 -0.27779,-0.17168 -0.50507,-0.0714 -0.50507,0.22273 0,0.29419 0.22728,0.53489 0.50507,0.53489 0.2778,0 0.50508,-0.10023 0.50508,-0.22273 z m 7.89533,-2.34385 c 0.93562,-0.57824 1.70112,-1.25242 1.70112,-1.49819 0,-0.48744 -3.36371,1.35783 -3.8195,2.0953 -0.45652,0.73868 0.30381,0.52436 2.11838,-0.59711 z"
         id="path58"
         inkscape:connector-curvature="0" />
      <path
         style="fill:#eb1a1a;fill-opacity:1;stroke-width:0.50507599"
         d="m 255.93351,776.13509 c -0.19736,-3.4217 -0.27707,-18.85318 -0.17713,-34.29218 0.17207,-26.58254 0.23185,-28.12631 1.12744,-29.11591 2.75503,-3.04421 9.91815,-3.44323 15.22265,-0.84798 4.23598,2.07247 14.3277,8.90401 17.51971,11.85989 2.23377,2.06853 2.58804,2.62649 2.13813,3.36747 -1.11505,1.83645 -19.03294,10.76654 -23.70225,11.81295 -3.2408,0.72628 -4.25065,1.33252 -4.85131,2.91238 -0.27921,0.73439 -0.72031,8.73234 -0.98022,17.77323 -0.60985,21.21367 -0.49001,20.39939 -3.195,21.70885 -1.18453,0.57342 -2.28632,1.04258 -2.44844,1.04258 -0.16211,0 -0.45623,-2.79958 -0.65358,-6.22128 z m 7.32818,-38.44816 c 0,-0.1225 -0.22728,-0.3632 -0.50508,-0.53489 -0.27779,-0.17168 -0.50507,-0.0714 -0.50507,0.22273 0,0.29419 0.22728,0.53489 0.50507,0.53489 0.2778,0 0.50508,-0.10023 0.50508,-0.22273 z m 8.08122,-2.55519 c 0.94131,-0.69448 1.53193,-1.26269 1.31248,-1.26269 -0.66424,0 -3.33279,1.70484 -3.33279,2.1292 0,0.58048 0.14099,0.52001 2.02031,-0.86651 z"
         id="path60"
         inkscape:connector-curvature="0" />
      <path
         style="fill:#eb1a1a;fill-opacity:1;stroke-width:0.50507599"
         d="m 255.93679,776.67426 c -0.19442,-3.12516 -0.27366,-18.54567 -0.1761,-34.26779 0.15195,-24.4851 0.28607,-28.71695 0.93501,-29.50074 2.29809,-2.77564 8.87167,-3.59918 13.85282,-1.73549 5.54369,2.07415 21.50252,13.52839 21.50252,15.43313 0,0.39706 -1.0796,1.41131 -2.39912,2.25387 -3.86761,2.46965 -16.45124,8.44853 -20.1786,9.58749 -4.90874,1.49996 -5.83494,2.05226 -6.30232,3.75808 -0.22834,0.83337 -0.63975,9.01561 -0.91426,18.18274 -0.2745,9.16714 -0.62568,17.4069 -0.7804,18.31058 -0.21821,1.27446 -0.72483,1.86932 -2.25832,2.65165 -1.08735,0.55472 -2.19092,1.00859 -2.45238,1.00859 -0.26145,0 -0.63444,-2.55695 -0.82885,-5.68211 z m 15.95274,-42.11411 c 0.63345,-0.77783 0.52668,-0.76844 -0.92543,0.0813 -0.90282,0.52833 -1.6415,1.14688 -1.6415,1.37455 0,0.57378 1.69855,-0.38958 2.56693,-1.45587 z"
         id="path62"
         inkscape:connector-curvature="0" />
      <path
         style="fill:#eb1a1a;fill-opacity:1;stroke-width:0.50507599"
         d=""
         id="path64"
         inkscape:connector-curvature="0" />
      <path
         style="fill:#eb1a1a;fill-opacity:1;stroke-width:0.46027401"
         d="m 204.17584,187.40362 c -0.18879,-2.15263 -0.26614,-15.08493 -0.17189,-28.73846 l 0.17133,-24.82459 1.14441,-1.02916 c 2.35241,-2.11553 8.55824,-2.6409 13.33912,-1.12925 5.49554,1.73759 21.31575,11.33325 21.31575,12.92892 0,0.33263 -1.07022,1.18836 -2.37828,1.90161 -2.91062,1.58709 -15.51163,6.76977 -18.77584,7.72232 -6.93312,2.02321 -6.80812,1.96596 -7.34568,3.36424 -0.28533,0.74219 -0.7521,7.728 -1.03726,15.52402 -0.28516,7.79601 -0.64697,14.70252 -0.80401,15.34779 -0.19873,0.81652 -0.87551,1.42757 -2.22607,2.00982 -1.06728,0.46014 -2.15377,0.83662 -2.41442,0.83662 -0.26066,0 -0.62837,-1.76125 -0.81716,-3.91388 z m 15.81234,-36.11729 c 0.64592,-0.66158 0.61595,-0.68479 -0.33271,-0.25776 -0.5734,0.2581 -1.36199,0.79647 -1.75241,1.19634 -0.64592,0.66158 -0.61596,0.6848 0.3327,0.25777 0.57341,-0.25812 1.36199,-0.79647 1.75242,-1.19635 z"
         id="path66"
         inkscape:connector-curvature="0" />
      <path
         style="fill:#eb1a1a;fill-opacity:1;stroke-width:0.46027401"
         d="m 204.17961,187.82674 c -0.18476,-1.91991 -0.26131,-14.85225 -0.17012,-28.73853 l 0.16579,-25.24778 1.14441,-1.02908 c 2.30665,-2.07424 8.6042,-2.64466 13.13516,-1.18975 6.23061,2.00068 21.51971,11.25958 21.51971,13.03208 0,1.3088 -16.42157,8.48573 -23.48207,10.26269 -1.93252,0.48637 -3.83371,1.15476 -4.22487,1.48532 -1.06109,0.89671 -1.27921,2.98182 -1.83779,17.56782 -0.28073,7.33058 -0.63899,13.85628 -0.79614,14.50155 -0.19884,0.81643 -0.87586,1.42763 -2.22627,2.00982 -1.06728,0.46014 -2.15458,0.83662 -2.4162,0.83662 -0.26163,0 -0.62686,-1.57084 -0.81161,-3.49076 z m 16.05027,-36.75029 c 0.24263,-0.33179 0.0455,-0.3305 -0.69527,0.004 -0.56866,0.25718 -1.1863,0.67599 -1.37256,0.93067 -0.24265,0.33178 -0.0455,0.33049 0.69526,-0.004 0.56865,-0.25719 1.18631,-0.67599 1.37257,-0.93067 z"
         id="path68"
         inkscape:connector-curvature="0" />
      <path
         style="fill:#eb1a1a;fill-opacity:1;stroke-width:0.46027401"
         d="m 204.18341,188.24987 c -0.18021,-1.6872 -0.25576,-14.61953 -0.16789,-28.73851 l 0.15976,-25.67088 1.16204,-1.04497 c 2.59149,-2.33045 9.5928,-2.6155 14.76651,-0.6012 6.50165,2.53131 19.87073,10.8848 19.87073,12.41596 0,0.32861 -1.29554,1.29791 -2.87897,2.15401 -4.09826,2.21576 -16.37284,7.09503 -20.53871,8.16434 -1.93998,0.49796 -3.8584,1.22538 -4.26316,1.61649 -1.07583,1.0395 -1.28797,3.08478 -1.87317,18.05908 -0.29102,7.44694 -0.64876,13.8763 -0.79498,14.28745 -0.24697,0.69445 -3.55623,2.42586 -4.63659,2.42586 -0.26285,0 -0.62536,-1.38043 -0.80557,-3.06763 z m 15.5442,-37.03224 c -0.16783,-0.14184 -0.69408,0.0862 -1.16943,0.50682 -0.82625,0.73105 -0.81282,0.7424 0.30514,0.25788 0.6432,-0.27876 1.03212,-0.62287 0.86429,-0.7647 z"
         id="path70"
         inkscape:connector-curvature="0" />
      <path
         style="fill:#eb1a1a;fill-opacity:1;stroke-width:0.46027401"
         d="m 204.1871,188.67299 c -0.17503,-1.45449 -0.24928,-14.38676 -0.16502,-28.7384 l 0.1532,-26.09387 1.16204,-1.0451 c 1.6107,-1.44861 4.9218,-2.13907 9.05844,-1.88895 2.8256,0.17085 4.15505,0.53053 7.35896,1.99097 7.65577,3.48973 18.21984,10.28979 18.21984,11.72807 0,0.32012 -1.29554,1.28255 -2.87897,2.13873 -3.94541,2.13334 -16.13246,7.00236 -20.40308,8.15152 -1.92765,0.51871 -3.8721,1.29797 -4.321,1.73169 -1.11604,1.07831 -1.34532,3.23794 -1.9512,18.37966 -0.28867,7.21422 -0.64539,13.45318 -0.79272,13.86433 -0.24927,0.69564 -3.55977,2.42586 -4.64147,2.42586 -0.26443,0 -0.62398,-1.19003 -0.79902,-2.64451 z m 15.7599,-37.37027 c 0,-0.11635 -0.45062,-0.008 -1.00139,0.24134 -0.55075,0.24909 -1.00137,0.5481 -1.00137,0.66446 0,0.11635 0.45062,0.008 1.00137,-0.24134 0.55077,-0.24909 1.00139,-0.54809 1.00139,-0.66446 z"
         id="path72"
         inkscape:connector-curvature="0" />
      <path
         style="fill:#eb1a1a;fill-opacity:1;stroke-width:0.46027401"
         d="m 204.24335,189.35439 c -0.17513,-1.07971 -0.3184,-14.0075 -0.3184,-28.72844 v -26.76534 l 1.73128,-1.28459 c 3.43893,-2.55165 10.1034,-2.41111 16.13953,0.34033 7.5471,3.44019 18.1788,10.27334 18.1788,11.68377 0,0.30605 -1.03974,1.161 -2.31054,1.89988 -3.07238,1.78637 -16.58313,7.23246 -20.90752,8.42768 -1.89245,0.52305 -3.83849,1.28706 -4.32453,1.69781 -1.12904,0.95412 -1.37211,3.24423 -2.02055,19.03651 -0.28188,6.86515 -0.63383,12.81849 -0.78212,13.22964 -0.24752,0.68637 -3.55675,2.42586 -4.61498,2.42586 -0.24892,0 -0.59586,-0.8834 -0.77097,-1.96311 z m 15.44975,-37.80548 c 0.17541,-0.23985 -0.0256,-0.31079 -0.47114,-0.16629 -0.8674,0.28129 -1.0261,0.58456 -0.30589,0.58456 0.25912,0 0.60879,-0.18822 0.77703,-0.41827 z"
         id="path74"
         inkscape:connector-curvature="0" />
      <path
         style="fill:#eb1a1a;fill-opacity:1;stroke-width:0.46027401"
         d="m 204.24631,189.73079 c -0.17069,-0.87269 -0.31283,-13.80048 -0.31586,-28.72844 l -0.006,-27.14174 1.7417,-1.29233 c 2.06625,-1.53312 4.1806,-1.93736 8.69218,-1.66181 3.9748,0.24276 7.02038,1.44258 14.75159,5.81143 5.71088,3.22717 10.86414,6.95376 10.86414,7.8564 0,0.30884 -0.6196,0.97882 -1.37689,1.48886 -2.00954,1.35342 -17.84225,7.80996 -21.71492,8.85529 -1.82302,0.49207 -3.68546,1.12417 -4.13874,1.40465 -1.26044,0.77994 -1.69325,4.3267 -2.29587,18.81421 -0.3026,7.27473 -0.68269,13.51859 -0.84466,13.87526 -0.28136,0.61966 -3.63865,2.30493 -4.5917,2.30493 -0.25032,0 -0.59478,-0.71402 -0.76546,-1.58671 z"
         id="path76"
         inkscape:connector-curvature="0" />
      <path
         style="fill:#eb1a1a;fill-opacity:1;stroke-width:0.46027401"
         d="m 204.23788,189.99525 c -0.17212,-0.72724 -0.31293,-13.64881 -0.31293,-28.71459 v -27.39231 l 1.29567,-1.09495 c 1.88076,-1.58939 4.2801,-2.11328 8.65867,-1.89061 3.03083,0.15414 4.48329,0.48032 7.06908,1.58753 6.95506,2.97806 19.02619,10.64472 19.02619,12.08398 0,0.30884 -0.6196,0.97566 -1.3769,1.48184 -2.12073,1.41751 -16.587,7.36392 -21.6051,8.88084 -3.65621,1.10525 -4.57346,1.55966 -4.98868,2.47142 -0.69525,1.52667 -0.98954,5.04051 -1.59124,18.99913 -0.28351,6.57705 -0.6478,12.2497 -0.80955,12.6059 -0.28152,0.62 -3.63952,2.30407 -4.59424,2.30407 -0.25192,0 -0.59886,-0.59501 -0.77097,-1.32225 z"
         id="path78"
         inkscape:connector-curvature="0" />
      <path
         style="fill:#eb1a1a;fill-opacity:1;stroke-width:0.46027401"
         d="M 116.05402,233.595 C 60.702844,205.67017 15.367548,182.68709 15.308914,182.52148 15.180639,182.15918 216.34501,80.733687 217.13919,80.760252 c 0.53533,0.0179 200.99332,101.006158 201.65954,101.593578 0.28747,0.25347 -199.51398,101.25592 -201.38417,101.80254 -0.39713,0.11607 -46.00937,-22.63655 -101.36054,-50.56137 z m 104.39366,-3.56235 c 5.92065,-0.35339 11.66606,-0.73634 12.76758,-0.851 8.14214,-0.84755 18.97905,-2.12707 27.03721,-3.19228 8.7485,-1.15647 9.87525,-1.40747 14.01928,-3.12291 7.62677,-3.15713 8.35532,-3.75699 11.72854,-9.65671 4.22695,-7.3929 4.60635,-8.68314 4.91229,-16.70535 0.29932,-7.84877 0.0656,-8.57897 -2.40087,-7.5011 -0.78707,0.34396 -3.07383,0.81356 -5.0817,1.04357 -4.96236,0.56846 -37.75053,1.26275 -59.4775,1.25943 l -17.77446,-0.003 2.00275,-0.95711 2.00276,-0.95711 0.1096,-3.58449 c 0.25172,-8.23254 1.24028,-25.28408 1.55433,-26.81058 0.36794,-1.78842 2.02753,-3.15843 4.11978,-3.40092 1.61068,-0.18667 7.27041,-2.32547 14.89554,-5.62897 7.74347,-3.35478 10.19768,-4.71833 10.00602,-5.55933 -0.20786,-0.91213 -5.00731,-4.11767 -12.47692,-8.33327 -11.00081,-6.2085 -14.15486,-7.00358 -20.04112,-5.05195 -2.96642,0.98353 -3.64127,1.39577 -4.22817,2.58281 -0.57362,1.15998 -0.69836,6.44101 -0.69836,29.56348 v 28.15118 h -1.79884 c -0.98936,0 -4.42535,-0.20893 -7.63552,-0.4643 -5.65874,-0.45014 -6.06669,-0.42434 -13.38319,0.84624 -7.5717,1.3149 -12.97953,1.79342 -29.25411,2.58862 -14.79332,0.72281 -17.88999,1.3115 -19.14517,3.63953 -0.45321,0.84061 -0.42698,1.26538 0.12285,1.98948 0.38451,0.50637 2.37272,3.58634 4.41824,6.84437 5.01258,7.98383 7.26194,10.52213 13.33451,15.04734 6.41699,4.78188 6.33637,4.73613 10.28197,5.83311 8.6105,2.39392 11.39017,2.69629 27.78824,3.02285 8.53674,0.16999 16.87322,0.24188 18.5255,0.15976 1.65227,-0.0821 7.8483,-0.43846 13.76894,-0.79185 z"
         id="path80"
         inkscape:connector-curvature="0" />
    </g>
    <rect
       stroke-dashoffset=""
       id="svg_1"
       x="169.91609"
       y="138.51865"
       width="122.9229"
       height="103.0418"
       style="color:#000000;fill:#eb1a1a;fill-rule:nonzero;stroke-width:0.91129655"
       class="" />
    <rect
       stroke-dashoffset=""
       id="svg_3"
       x="126.5607"
       y="168.92361"
       width="126.88816"
       height="64.505844"
       style="color:#000000;fill:#eb1a1a;fill-rule:nonzero;stroke-width:0.91129655" />
    <path
       stroke-dashoffset=""
       d="m 170.17851,192.79915 c 0,-19.67065 21.7377,-35.60388 48.57437,-35.60388 26.83667,0 48.57437,15.93323 48.57437,35.60388 0,19.67065 -21.7377,35.60387 -48.57437,35.60387 -26.83667,0 -48.57437,-15.93322 -48.57437,-35.60387 z"
       id="svg_5"
       inkscape:connector-curvature="0"
       style="opacity:1;fill:#ebeb1a;fill-opacity:1;fill-rule:nonzero;stroke:none;stroke-width:0.91129655;stroke-linecap:butt;stroke-linejoin:miter;stroke-dasharray:none;stroke-opacity:1;marker-start:;marker-mid:;marker-end:" />
    <path
       stroke-dashoffset=""
       d="m 266.60574,192.37993 30.6141,3.69591"
       id="svg_7"
       inkscape:connector-curvature="0"
       style="opacity:1;fill:#eb1a1a;fill-opacity:1;fill-rule:nonzero;stroke:#e8e841;stroke-width:0.91129655;stroke-linecap:butt;stroke-linejoin:miter;stroke-dasharray:none;stroke-opacity:1;marker-start:;marker-mid:;marker-end:" />
    <path
       stroke-dashoffset=""
       d="m 263.69011,189.916 34.25863,6.15984"
       id="svg_9"
       inkscape:connector-curvature="0"
       style="opacity:1;fill:#eb1a1a;fill-opacity:1;fill-rule:nonzero;stroke:#e8e841;stroke-width:1.82259309;stroke-linecap:butt;stroke-linejoin:miter;stroke-dasharray:none;stroke-opacity:1;marker-start:;marker-mid:;marker-end:" />
    <path
       stroke-dashoffset=""
       d="m 297.94874,196.07584 -30.6141,-6.77583"
       id="svg_11"
       inkscape:connector-curvature="0"
       style="opacity:1;fill:#eb1a1a;fill-opacity:1;fill-rule:nonzero;stroke:#e8e841;stroke-width:1.82259309;stroke-linecap:butt;stroke-linejoin:miter;stroke-dasharray:none;stroke-opacity:1;marker-start:;marker-mid:;marker-end:" />
    <path
       stroke-dashoffset=""
       d="m 256.40104,173.90041 29.15628,-14.16763"
       id="svg_13"
       inkscape:connector-curvature="0"
       style="opacity:1;fill:#eb1a1a;fill-opacity:1;fill-rule:nonzero;stroke:#e8e841;stroke-width:6.379076;stroke-linecap:butt;stroke-linejoin:miter;stroke-dasharray:none;stroke-opacity:1;marker-start:;marker-mid:;marker-end:" />
    <path
       stroke-dashoffset=""
       d="m 218.49786,162.19672 -10.2047,-30.7992"
       id="svg_15"
       inkscape:connector-curvature="0"
       style="opacity:1;fill:#eb1a1a;fill-opacity:1;fill-rule:nonzero;stroke:#e8e841;stroke-width:6.379076;stroke-linecap:butt;stroke-linejoin:miter;stroke-dasharray:none;stroke-opacity:1;marker-start:;marker-mid:;marker-end:" />
    <path
       stroke-dashoffset=""
       d="M 191.5283,174.5164 133.94463,158.50082"
       id="svg_17"
       inkscape:connector-curvature="0"
       style="opacity:1;fill:#eb1a1a;fill-opacity:1;fill-rule:nonzero;stroke:#e8e841;stroke-width:6.379076;stroke-linecap:butt;stroke-linejoin:miter;stroke-dasharray:none;stroke-opacity:1;marker-start:;marker-mid:;marker-end:" />
    <path
       stroke-dashoffset=""
       d="m 179.86578,189.30001 -53.21022,9.23976"
       id="svg_19"
       inkscape:connector-curvature="0"
       style="opacity:1;fill:#eb1a1a;fill-opacity:1;fill-rule:nonzero;stroke:#e8e841;stroke-width:6.379076;stroke-linecap:butt;stroke-linejoin:miter;stroke-dasharray:none;stroke-opacity:1;marker-start:;marker-mid:;marker-end:" />
    <path
       stroke-dashoffset=""
       d="m 187.88376,203.46765 -31.343,30.79919"
       id="svg_21"
       inkscape:connector-curvature="0"
       style="opacity:1;fill:#eb1a1a;fill-opacity:1;fill-rule:nonzero;stroke:#e8e841;stroke-width:6.379076;stroke-linecap:butt;stroke-linejoin:miter;stroke-dasharray:none;stroke-opacity:1;marker-start:;marker-mid:;marker-end:" />
    <path
       stroke-dashoffset=""
       d="m 203.91972,218.86724 -2.91563,36.95904"
       id="svg_23"
       inkscape:connector-curvature="0"
       style="opacity:1;fill:#eb1a1a;fill-opacity:1;fill-rule:nonzero;stroke:#e8e841;stroke-width:6.379076;stroke-linecap:butt;stroke-linejoin:miter;stroke-dasharray:none;stroke-opacity:1;marker-start:;marker-mid:;marker-end:" />
    <path
       stroke-dashoffset=""
       d="m 234.53382,215.78732 24.78284,30.18322"
       id="svg_25"
       inkscape:connector-curvature="0"
       style="opacity:1;fill:#eb1a1a;fill-opacity:1;fill-rule:nonzero;stroke:#e8e841;stroke-width:6.379076;stroke-linecap:butt;stroke-linejoin:miter;stroke-dasharray:none;stroke-opacity:1;marker-start:;marker-mid:;marker-end:" />
    <path
       stroke-dashoffset=""
       d="m 252.7565,206.54757 40.8188,14.78361"
       id="svg_27"
       inkscape:connector-curvature="0"
       style="opacity:1;fill:#eb1a1a;fill-opacity:1;fill-rule:nonzero;stroke:#e8e841;stroke-width:6.379076;stroke-linecap:butt;stroke-linejoin:miter;stroke-dasharray:none;stroke-opacity:1;marker-start:;marker-mid:;marker-end:" />
    <path
       stroke-dashoffset=""
       d="m 255.67213,186.22009 47.37896,10.47173"
       id="svg_29"
       inkscape:connector-curvature="0"
       style="opacity:1;fill:#eb1a1a;fill-opacity:1;fill-rule:nonzero;stroke:#e8e841;stroke-width:6.379076;stroke-linecap:butt;stroke-linejoin:miter;stroke-dasharray:none;stroke-opacity:1;marker-start:;marker-mid:;marker-end:" />
    <path
       stroke-dashoffset=""
       d="m 235.99164,161.58074 10.9336,-32.64715"
       id="svg_31"
       inkscape:connector-curvature="0"
       style="opacity:1;fill:#eb1a1a;fill-opacity:1;fill-rule:nonzero;stroke:#e8e841;stroke-width:6.379076;stroke-linecap:butt;stroke-linejoin:miter;stroke-dasharray:none;stroke-opacity:1;marker-start:;marker-mid:;marker-end:" />
    <path
       stroke-dashoffset=""
       id="svg_2"
       d="m 199.17664,183.66747 c -0.20848,0.0323 -0.36945,0.24488 -0.35453,0.41904 0.0246,0.19827 0.30649,0.074 0.38965,0.0179 -0.0497,0.16597 -0.44672,0.20008 -0.42442,-0.002 -0.30239,0.1886 -0.52893,0.48423 -0.90348,0.57978 -0.33799,0.0663 -0.69225,0.0444 -1.03307,0.006 -0.2072,-0.0164 -0.40498,-0.10488 -0.61384,-0.0864 -0.22373,0.0519 -0.40321,0.19012 -0.6264,0.24463 -0.23532,0.0871 -0.14544,0.32755 -0.16584,0.4979 0.006,0.25359 -0.0489,0.52226 -0.25801,0.7157 -0.12161,0.15236 -0.13269,0.35285 -0.23038,0.51186 0.32465,-0.003 0.12895,-0.36964 0.30757,-0.51872 0.24921,-0.0975 0.24198,-0.36536 0.27675,-0.56258 0.0254,-0.0797 0.0127,-0.36223 0.11309,-0.32413 0.12337,0.23429 0.19363,0.49614 0.16571,0.75276 -0.1633,0.12946 -0.42289,0.22166 -0.38535,0.46028 0.0124,0.21613 -0.14321,0.37174 -0.26472,0.54137 0.0781,0.0995 0.0172,0.29887 0.24123,0.2405 0.14989,0.0244 0.22401,-0.0343 0.0762,-0.12165 -0.2235,-0.18146 0.0878,-0.42124 0.20859,-0.5801 0.12487,-0.17736 0.37873,-0.18584 0.5644,-0.29085 0.25645,-0.12938 0.44397,-0.32917 0.61402,-0.53126 0.14892,0.13377 -0.23511,0.25626 -0.29173,0.39286 -0.12351,0.11194 -0.34447,0.31565 -0.0513,0.38493 0.22667,0.0655 0.44021,0.19917 0.43338,0.40874 0.004,0.1422 0.41667,0.27101 0.33216,0.0401 -0.14289,-0.2156 -0.48433,-0.30027 -0.5752,-0.54458 -0.0628,-0.18752 0.19846,-0.27835 0.32359,-0.12627 0.22155,-0.0205 0.45423,-0.145 0.69731,-0.16412 0.25058,-0.0788 0.30879,0.20983 0.50951,0.28546 0.16731,0.1398 0.32093,0.3168 0.29979,0.52682 0.0204,0.17776 0.16281,0.36348 0.40882,0.34519 0.28711,-0.0406 -0.0872,-0.29899 -0.21867,-0.35839 -0.19053,-0.19204 -0.15905,-0.46505 -0.27763,-0.68618 -0.0855,-0.0653 0.004,-0.38206 0.007,-0.15544 -0.0154,0.2597 0.42267,0.11066 0.39271,-0.088 0.0745,-0.15823 -0.19799,-0.0606 -0.16195,-0.22013 -0.0296,-0.19857 -0.0127,-0.4441 -0.21657,-0.58017 -0.11747,-0.0976 -0.0817,-0.10714 0.0462,-0.0299 0.24941,0.10915 0.20096,0.35806 0.21845,0.55424 0.0722,0.25709 0.36414,-0.0757 0.35558,-0.21515 0.05,-0.30275 0.22083,-0.61335 0.55405,-0.76082 -0.0896,-0.0371 -0.52888,0.0973 -0.49202,-0.0717 0.18114,0.13001 0.43042,-0.0116 0.64453,0.0268 0.28405,0.01 0.3546,-0.32918 0.0433,-0.34576 -0.20137,-0.10081 -0.37476,-0.279 -0.63501,-0.26514 -0.37729,0.10686 -0.14422,-0.18935 -0.0434,-0.32318 z m 0.36927,0.13722 c -0.0284,0.0837 -0.21558,0.25454 0.01,0.18542 0.0323,-0.0565 0.019,-0.12957 -0.01,-0.18542 z m -0.0598,0.38053 c 0.10099,0.14181 -0.20175,0.0149 0,0 z m 0.4169,0.14663 c -0.035,0.0604 0.0942,0.0717 -0.006,0.0717 -0.0528,0.0592 -0.0757,-0.0765 0.006,-0.0717 z"
       style="color:#000000;fill:#1a1aeb;fill-rule:nonzero;stroke:#e8e841;stroke-width:2.73388958;marker-start:;marker-mid:;marker-end:"
       class=""
       inkscape:connector-curvature="0" />
    <path
       stroke-dashoffset=""
       id="svg_4"
       d="m 196.74519,176.89166 c -0.26805,0.0415 -0.47501,0.31485 -0.45583,0.53877 0.0317,0.25491 0.39406,0.0951 0.50098,0.023 -0.0639,0.21339 -0.57435,0.25725 -0.54569,-0.002 -0.38879,0.24248 -0.68005,0.62258 -1.16162,0.74543 -0.43455,0.0852 -0.89002,0.0571 -1.32822,0.007 -0.2664,-0.0211 -0.5207,-0.13484 -0.78924,-0.11103 -0.28764,0.0667 -0.51841,0.24445 -0.80536,0.31453 -0.30256,0.11198 -0.187,0.42114 -0.21322,0.64016 0.008,0.32605 -0.0628,0.67148 -0.33174,0.92018 -0.15634,0.1959 -0.1706,0.45368 -0.29619,0.65811 0.4174,-0.004 0.16578,-0.47525 0.39543,-0.66692 0.32043,-0.12537 0.31113,-0.46975 0.35583,-0.72333 0.0326,-0.10248 0.0164,-0.46572 0.14541,-0.41673 0.15862,0.30123 0.24895,0.63789 0.21305,0.96783 -0.20995,0.16645 -0.54372,0.285 -0.49545,0.5918 0.0159,0.27787 -0.18413,0.47795 -0.34036,0.69604 0.10036,0.12798 0.0221,0.38426 0.31015,0.30922 0.19272,0.0314 0.28802,-0.0441 0.0979,-0.15641 -0.28736,-0.23331 0.11284,-0.5416 0.26819,-0.74584 0.16054,-0.22804 0.48694,-0.23894 0.72566,-0.37396 0.32973,-0.16634 0.57082,-0.42322 0.78946,-0.68305 0.19147,0.17199 -0.30229,0.32949 -0.37508,0.50512 -0.15881,0.14391 -0.44289,0.40583 -0.0659,0.4949 0.29143,0.0843 0.56598,0.25608 0.55721,0.52553 0.005,0.18282 0.53571,0.34844 0.42705,0.0515 -0.1837,-0.2772 -0.6227,-0.38607 -0.73954,-0.70018 -0.0807,-0.24108 0.25516,-0.35787 0.41604,-0.16233 0.28486,-0.0264 0.58402,-0.18643 0.89654,-0.21103 0.32218,-0.10134 0.39702,0.26979 0.65509,0.36703 0.21512,0.17974 0.41263,0.40731 0.38545,0.67734 0.0262,0.22855 0.20933,0.46734 0.52563,0.44381 0.36914,-0.0522 -0.11208,-0.38441 -0.28115,-0.46079 -0.24496,-0.2469 -0.20449,-0.59791 -0.35696,-0.88222 -0.1099,-0.0839 0.005,-0.49123 0.009,-0.19985 -0.0198,0.3339 0.54344,0.14227 0.50491,-0.11311 0.0958,-0.20345 -0.25455,-0.0779 -0.20821,-0.28303 -0.038,-0.2553 -0.0163,-0.57099 -0.27846,-0.74593 -0.15103,-0.12551 -0.10509,-0.13775 0.0594,-0.0385 0.32067,0.14034 0.25838,0.46036 0.28087,0.71259 0.0928,0.33055 0.46817,-0.0974 0.45717,-0.27662 0.0643,-0.38925 0.28392,-0.78859 0.71235,-0.9782 -0.11514,-0.0477 -0.67999,0.12506 -0.6326,-0.0922 0.23289,0.16716 0.5534,-0.0149 0.82868,0.0344 0.36522,0.0127 0.45592,-0.42323 0.0556,-0.44455 -0.25891,-0.12961 -0.48184,-0.35871 -0.81645,-0.34089 -0.48509,0.13739 -0.18543,-0.24346 -0.0557,-0.41552 z m 0.47477,0.17643 c -0.0365,0.10762 -0.27717,0.32726 0.0125,0.23839 0.0416,-0.0726 0.0245,-0.16659 -0.0125,-0.23839 z m -0.0769,0.48925 c 0.12985,0.18232 -0.25939,0.0191 0,0 z m 0.53602,0.18852 c -0.0451,0.0777 0.12117,0.0922 -0.007,0.0922 -0.0679,0.0761 -0.0974,-0.0984 0.007,-0.0922 z"
       style="color:#000000;fill:#1a1aeb;fill-rule:nonzero;stroke:#e8e841;stroke-width:2.73388958;marker-start:;marker-mid:;marker-end:"
       inkscape:connector-curvature="0" />
    <path
       stroke-dashoffset=""
       id="svg_8"
       d="m 235.82047,173.82714 c -2.05508,0.31801 -3.64176,2.41388 -3.4947,4.13058 0.24292,1.95432 3.02113,0.72897 3.84086,0.17644 -0.49003,1.63596 -4.40339,1.97221 -4.18363,-0.0176 -2.98071,1.859 -5.2137,4.77307 -8.90573,5.71495 -3.33158,0.65351 -6.82355,0.43763 -10.18308,0.0556 -2.04239,-0.16172 -3.99198,-1.03382 -6.05079,-0.85124 -2.20528,0.51123 -3.9745,1.87407 -6.17448,2.41138 -2.31962,0.85849 -1.43365,3.2287 -1.63467,4.90786 0.062,2.49974 -0.48163,5.148 -2.54332,7.05476 -1.19865,1.50185 -1.30794,3.47816 -2.27082,5.04552 3.20006,-0.0281 1.27101,-3.64358 3.03169,-5.11308 2.45656,-0.96117 2.3853,-3.6014 2.72801,-5.54551 0.24989,-0.78572 0.12553,-3.57055 1.11476,-3.19494 1.2161,2.3094 1.90862,4.89047 1.63339,7.42005 -1.60961,1.27608 -4.16849,2.18496 -3.79839,4.53706 0.12206,2.13039 -1.41169,3.66428 -2.60945,5.33635 0.76941,0.98121 0.16948,2.94602 2.37783,2.37069 1.47753,0.24042 2.20812,-0.33838 0.75061,-1.19913 -2.20307,-1.7887 0.86509,-4.15226 2.05611,-5.71815 1.23086,-1.74831 3.73324,-1.83183 5.56341,-2.86701 2.52792,-1.27526 4.37629,-3.24467 6.0525,-5.2367 1.46795,1.31859 -2.31753,2.52607 -2.87561,3.87256 -1.2175,1.10334 -3.39549,3.1114 -0.50517,3.79427 2.23428,0.64601 4.33915,1.96329 4.27191,4.02904 0.0371,1.40165 4.10711,2.67134 3.27407,0.39481 -1.40842,-2.12521 -4.77406,-2.95981 -5.66984,-5.36802 -0.61847,-1.84832 1.95627,-2.74366 3.18969,-1.24457 2.18386,-0.20195 4.47745,-1.42929 6.87348,-1.61783 2.47002,-0.77694 3.04381,2.06837 5.02233,2.8139 1.64923,1.37796 3.1635,3.12269 2.95514,5.1929 0.2009,1.75225 1.60485,3.58291 4.02979,3.40259 2.83005,-0.39997 -0.85931,-2.94722 -2.15547,-3.53275 -1.87807,-1.8929 -1.56774,-4.58402 -2.73667,-6.76369 -0.84263,-0.64357 0.0382,-3.76607 0.0685,-1.53223 -0.15168,2.55991 4.16633,1.0908 3.87094,-0.86716 0.73473,-1.55973 -1.95155,-0.59706 -1.59629,-2.16986 -0.29158,-1.9573 -0.12525,-4.37758 -2.13482,-5.71885 -1.15789,-0.9622 -0.80572,-1.05604 0.45516,-0.29498 2.45847,1.07594 1.98086,3.52943 2.15329,5.46318 0.71187,2.53425 3.58932,-0.74642 3.50502,-2.12076 0.49304,-2.98425 2.1767,-6.04581 5.46131,-7.4995 -0.88272,-0.36542 -5.21321,0.95881 -4.84991,-0.70721 1.78547,1.28155 4.24276,-0.11399 6.35324,0.26374 2.79996,0.0971 3.49533,-3.24475 0.42651,-3.40817 -1.98493,-0.99373 -3.69408,-2.75017 -6.25941,-2.61352 -3.71903,1.05334 -1.42162,-1.86652 -0.42736,-3.18568 z m 3.63993,1.35264 c -0.27996,0.82509 -2.125,2.50903 0.096,1.82766 0.31875,-0.55663 0.1875,-1.27717 -0.096,-1.82766 z m -0.58952,3.7509 c 0.99553,1.39781 -1.98865,0.14662 0,0 z m 4.10949,1.44533 c -0.34538,0.59578 0.92896,0.70717 -0.0548,0.70673 -0.52039,0.58383 -0.74665,-0.75442 0.0548,-0.70673 z"
       style="color:#000000;fill:#1a1aeb;fill-rule:nonzero;stroke:#1aeb1a;stroke-width:2.73388958;marker-start:;marker-mid:;marker-end:"
       inkscape:connector-curvature="0" />
  </g>
</svg>
