<?xml version="1.0" encoding="UTF-8" standalone="no"?>
<!-- Generator: Adobe Illustrator 16.0.0, SVG Export Plug-In . SVG Version: 6.00 Build 0)  -->

<svg
   xmlns:dc="http://purl.org/dc/elements/1.1/"
   xmlns:cc="http://creativecommons.org/ns#"
   xmlns:rdf="http://www.w3.org/1999/02/22-rdf-syntax-ns#"
   xmlns:svg="http://www.w3.org/2000/svg"
   xmlns="http://www.w3.org/2000/svg"
   xmlns:sodipodi="http://sodipodi.sourceforge.net/DTD/sodipodi-0.dtd"
   xmlns:inkscape="http://www.inkscape.org/namespaces/inkscape"
   version="1.1"
   id="svg2"
   sodipodi:docname="Desert.svg"
   inkscape:version="0.92.2 5c3e80d, 2017-08-06"
   x="0px"
   y="0px"
   width="428.543"
   height="256"
   viewBox="0 0 428.543 255.99999"
   enable-background="new 0 0 430.543 325.295"
   xml:space="preserve"><metadata
     id="metadata152"><rdf:RDF><cc:Work
         rdf:about=""><dc:format>image/svg+xml</dc:format><dc:type
           rdf:resource="http://purl.org/dc/dcmitype/StillImage" /><dc:title></dc:title></cc:Work></rdf:RDF></metadata><defs
     id="defs147"><inkscape:perspective
       id="perspective2985"
       inkscape:vp_z="744.09448 : 526.18109 : 1"
       inkscape:vp_y="0 : 1000 : 0"
       inkscape:vp_x="0 : 526.18109 : 1"
       sodipodi:type="inkscape:persp3d"
       inkscape:persp3d-origin="372.04724 : 350.78739 : 1" /></defs><sodipodi:namedview
     units="mm"
     fit-margin-left="0"
     fit-margin-top="0"
     showguides="true"
     showgrid="false"
     inkscape:cy="150.5455"
     inkscape:cx="226.17516"
     inkscape:zoom="1.979899"
     borderopacity="1.0"
     bordercolor="#666666"
     pagecolor="#ffffff"
     id="base"
     inkscape:pageshadow="2"
     inkscape:pageopacity="0.0"
     fit-margin-bottom="0"
     fit-margin-right="0"
     inkscape:guide-bbox="true"
     inkscape:window-maximized="1"
     inkscape:window-y="0"
     inkscape:window-x="0"
     inkscape:window-height="792"
     inkscape:window-width="1440"
     inkscape:object-nodes="true"
     inkscape:current-layer="svg2"
     inkscape:document-units="mm" /><path
     id="path3908"
     inkscape:connector-curvature="0"
     d="M 420.733,132.91099 215.272,10.316988 9.812,132.91099 l 205.461,122.595 z"
     style="fill:#549487" /><path
     style="fill:#ffeeaa;stroke-width:0.50507629"
     d="m 214.25536,255.06816 c 0,-0.2231 -0.56821,-0.54824 -1.26269,-0.72255 -0.69448,-0.1743 -1.26269,-0.53987 -1.26269,-0.81237 0,-0.27249 -0.30571,-0.49545 -0.67934,-0.49545 -0.37363,0 -1.09071,-0.45457 -1.59351,-1.01015 -0.5028,-0.55559 -1.10223,-1.01016 -1.33207,-1.01016 -0.35438,0 -5.55734,-2.96337 -8.01184,-4.56318 -0.41669,-0.2716 -1.49629,-0.87543 -2.39911,-1.34185 -0.90283,-0.46643 -1.6415,-1.03324 -1.6415,-1.25958 0,-0.22634 -0.28929,-0.41153 -0.64286,-0.41153 -0.35358,0 -1.78999,-0.75547 -3.19202,-1.67882 -1.40204,-0.92335 -2.8742,-1.83548 -3.27148,-2.02696 -0.39727,-0.19148 -1.85874,-1.03467 -3.2477,-1.87377 -1.38896,-0.83909 -3.09359,-1.79743 -3.78807,-2.12964 -0.69448,-0.3322 -1.37634,-0.73885 -1.51523,-0.90367 -0.1389,-0.16481 -0.59347,-0.46246 -1.01016,-0.66143 -0.83602,-0.39922 -1.78165,-0.96972 -4.79822,-2.89476 -1.11117,-0.7091 -2.36123,-1.44563 -2.77792,-1.63674 -0.41669,-0.19111 -1.43947,-0.79229 -2.27284,-1.33597 -0.83338,-0.54368 -2.25391,-1.32507 -3.15673,-1.73643 -0.90282,-0.41136 -1.6415,-0.98682 -1.6415,-1.27878 0,-0.29197 -0.37985,-0.53085 -0.84411,-0.53085 -0.46426,0 -1.20294,-0.30457 -1.6415,-0.67683 -1.19111,-1.01103 -8.59285,-5.38409 -9.11298,-5.38409 -0.2481,0 -0.75143,-0.29909 -1.11851,-0.66466 -0.8779,-0.87426 -19.45422,-11.96224 -20.04103,-11.96224 -0.24927,0 -0.75581,-0.36461 -1.12565,-0.81024 -0.36983,-0.44562 -1.13634,-1.0177 -1.70334,-1.27127 -0.567,-0.25358 -2.16733,-1.14806 -3.55629,-1.98775 -1.38896,-0.83968 -3.15041,-1.76719 -3.91434,-2.06112 -0.76393,-0.29394 -1.38896,-0.73948 -1.38896,-0.9901 0,-0.25062 -0.3131,-0.45567 -0.69577,-0.45567 -0.38267,0 -0.96636,-0.32604 -1.29709,-0.72455 -0.33073,-0.3985 -1.55181,-1.22995 -2.7135,-1.84767 -3.15776,-1.6791 -4.4789,-2.433 -6.15278,-3.51103 -0.83338,-0.53673 -2.2539,-1.36158 -3.15673,-1.833 -0.90282,-0.47142 -1.64149,-1.04233 -1.64149,-1.26867 0,-0.22634 -0.28929,-0.41153 -0.64286,-0.41153 -0.35358,0 -1.78999,-0.75546 -3.19203,-1.67881 -1.402033,-0.92336 -2.874199,-1.83549 -3.271476,-2.02697 -0.397273,-0.19148 -1.858742,-1.03467 -3.247701,-1.87376 -1.38896,-0.8391 -3.093593,-1.79743 -3.788072,-2.12964 -0.69448,-0.33221 -1.376333,-0.73886 -1.515229,-0.90368 -0.138896,-0.16481 -0.593465,-0.46245 -1.010153,-0.66143 -0.836027,-0.39922 -1.781651,-0.96971 -4.798224,-2.89476 -1.111168,-0.70909 -2.361232,-1.44563 -2.77792,-1.63674 -0.416688,-0.19111 -1.439467,-0.79229 -2.272843,-1.33596 -0.833376,-0.54368 -2.253903,-1.32508 -3.156727,-1.73644 -0.902824,-0.41136 -1.641498,-0.98681 -1.641498,-1.27878 0,-0.29197 -0.379852,-0.53085 -0.844113,-0.53085 -0.464261,0 -1.202935,-0.30457 -1.641498,-0.67683 -1.191111,-1.01103 -8.592848,-5.38408 -9.11298,-5.38408 -0.248099,0 -0.751427,-0.2991 -1.118507,-0.66466 -0.877903,-0.87427 -19.454226,-11.96225 -20.041035,-11.96225 -0.249267,0 -0.755807,-0.36461 -1.125644,-0.81023 -0.369838,-0.44563 -1.136342,-1.0177 -1.703342,-1.27128 -0.567001,-0.25357 -2.167332,-1.14806 -3.556291,-1.98774 -1.38896,-0.83969 -3.150414,-1.7672 -3.914342,-2.06113 -0.763927,-0.29394 -1.388959,-0.73948 -1.388959,-0.9901 0,-0.25061 -0.305701,-0.45566 -0.679334,-0.45566 -0.373634,0 -1.082549,-0.44555 -1.575368,-0.99011 -0.492818,-0.54456 -1.039434,-0.95032 -1.214702,-0.90169 -0.175268,0.0486 -1.227806,-0.48839 -2.338973,-1.19337 -1.111168,-0.70498 -2.361232,-1.43814 -2.77792,-1.62925 -0.416688,-0.19111 -1.439467,-0.79262 -2.272843,-1.3367 -0.833376,-0.54408 -2.197082,-1.36878 -3.030458,-1.83268 -0.833376,-0.4639 -1.628871,-0.9951 -1.767767,-1.18046 -0.138896,-0.18535 -0.991212,-0.63578 -1.894036,-1.00095 -2.0030558,-0.81019 -2.0489856,-1.15848 -0.252538,-1.91502 0.763928,-0.32172 2.525382,-1.27768 3.914341,-2.12438 1.38896,-0.8467 2.850427,-1.69611 3.247703,-1.88759 0.397277,-0.19148 1.869442,-1.10361 3.271478,-2.02696 1.402037,-0.92335 2.838445,-1.67882 3.19202,-1.67882 0.353574,0 0.642863,-0.18519 0.642863,-0.41153 0,-0.22634 0.738674,-0.79724 1.641498,-1.26867 0.902824,-0.47142 2.323351,-1.29349 3.156726,-1.82682 1.593437,-1.01974 4.64148,-2.74772 6.891652,-3.90697 0.734698,-0.3785 1.614844,-1.0244 1.955881,-1.43532 0.341036,-0.41093 0.933163,-0.74714 1.315837,-0.74714 0.382673,0 0.69577,-0.20505 0.69577,-0.45566 0,-0.25062 0.625032,-0.69616 1.38896,-0.9901 0.763928,-0.29394 2.525381,-1.22145 3.914341,-2.06113 1.38896,-0.83968 2.989291,-1.73417 3.556291,-1.98774 0.567001,-0.25358 1.333504,-0.82566 1.703342,-1.27128 0.369838,-0.44563 0.876377,-0.81023 1.125645,-0.81023 0.586808,0 19.163131,-11.087982 20.041035,-11.962252 0.367079,-0.36556 0.870408,-0.66466 1.118506,-0.66466 0.520133,0 7.921869,-4.37306 9.11298,-5.38409 0.438563,-0.37225 1.177237,-0.67682 1.641498,-0.67682 0.464261,0 0.844114,-0.23889 0.844114,-0.53085 0,-0.29197 0.738674,-0.86742 1.641498,-1.27879 0.902824,-0.41136 2.323351,-1.19275 3.156726,-1.73643 0.833376,-0.54367 1.856156,-1.14486 2.272844,-1.33597 0.416688,-0.19111 1.666751,-0.92764 2.777919,-1.63674 3.016573,-1.92504 3.962197,-2.49553 4.798225,-2.89476 0.41669,-0.19897 0.87126,-0.49662 1.01015,-0.66143 0.1389,-0.16481 0.82075,-0.57147 1.51523,-0.90367 0.69448,-0.33221 2.39911,-1.29055 3.78807,-2.12964 1.38896,-0.83909 2.85043,-1.68229 3.2477,-1.87377 0.39728,-0.19148 1.86945,-1.10361 3.27148,-2.02696 1.40204,-0.92335 2.81951,-1.67882 3.14993,-1.67882 0.33043,0 0.67654,-0.17046 0.76914,-0.3788 0.21659,-0.48733 11.34751,-7.19734 11.93932,-7.19734 0.24576,0 0.85822,-0.45457 1.36102,-1.01015 0.5028,-0.55559 1.21987,-1.01016 1.59351,-1.01016 0.37363,0 0.67933,-0.21196 0.67933,-0.47104 0,-0.25907 0.49054,-0.62673 1.09009,-0.81702 1.21135,-0.38446 8.30716,-4.55098 9.55628,-5.61125 0.43857,-0.37226 1.1583,-0.67683 1.59941,-0.67683 0.44112,0 0.87778,-0.17046 0.97038,-0.37881 0.0926,-0.20834 4.14584,-2.74796 9.0072,-5.6436 4.86136,-2.89565 8.91459,-5.45259 9.00719,-5.68211 0.0926,-0.22952 0.3942,-0.41731 0.67023,-0.41731 0.62899,0 9.95145,-5.54049 10.31661,-6.13132 0.14775,-0.23907 0.70979,-0.43467 1.24898,-0.43467 0.53919,0 0.98034,-0.23888 0.98034,-0.53085 0,-0.29197 0.73868,-0.86742 1.6415,-1.27878 0.90282,-0.41137 2.32335,-1.19276 3.15673,-1.736434 0.83337,-0.543675 1.85615,-1.144861 2.27284,-1.335969 0.41669,-0.191109 1.66675,-0.924272 2.77792,-1.629252 1.11117,-0.70498 2.16371,-1.241995 2.33897,-1.193368 0.17527,0.04863 0.72189,-0.357133 1.21471,-0.901692 0.49281,-0.544558 1.18279,-0.990106 1.53327,-0.990106 0.35049,0 0.71301,-0.170463 0.80561,-0.378807 0.0926,-0.208344 0.96385,-0.804331 1.93612,-1.324417 3.04075,-1.62655 5.25378,-2.879971 6.6401,-3.760833 0.73524,-0.467168 3.97496,-2.406748 7.19937,-4.310178 3.22441,-1.903431 5.98258,-3.654958 6.12925,-3.892283 0.31328,-0.506887 1.78394,-0.07426 2.50718,0.737542 0.27779,0.31181 1.07328,0.85726 1.76776,1.212111 0.69448,0.354851 1.7219,0.920289 2.28315,1.256531 1.75935,1.054002 9.03324,5.423981 10.09122,6.062555 0.55559,0.335339 1.1238,0.72335 1.26269,0.862245 0.1389,0.138896 1.33214,0.816002 2.65165,1.50468 1.31951,0.688678 2.39911,1.427352 2.39911,1.641498 0,0.214146 0.27422,0.389356 0.60936,0.389356 0.74986,0 10.18457,5.567382 10.41814,6.147703 0.0926,0.230059 0.57616,0.418288 1.07458,0.418288 0.49842,0 1.20882,0.3646 1.57865,0.81023 0.36984,0.44563 1.13634,1.01683 1.70334,1.26933 1.42931,0.63652 5.15373,2.82574 7.74849,4.55458 1.19454,0.79589 2.38779,1.44708 2.65165,1.44708 0.26387,0 0.47976,0.20505 0.47976,0.45567 0,0.25062 0.62503,0.7019 1.38896,1.00285 1.3311,0.5244 3.12894,1.54415 3.6618,2.07702 0.1389,0.13889 1.60032,0.92684 3.24759,1.75099 1.64728,0.82414 3.69284,1.96718 4.54569,2.54007 0.85285,0.57289 4.73262,2.94376 8.6217,5.26859 3.88909,2.32483 7.18471,4.3684 7.32361,4.54127 0.13889,0.17287 0.82075,0.59214 1.51523,0.93171 1.59873,0.78171 3.04674,1.70996 3.92909,2.51877 0.37881,0.34724 0.92784,0.63134 1.22005,0.63134 0.29222,0 2.21597,1.02278 4.27499,2.27284 2.05902,1.25007 3.97004,2.27285 4.24669,2.27285 0.27666,0 0.63384,0.34092 0.79374,0.75761 0.1599,0.41669 0.69314,0.75762 1.18499,0.75762 0.49186,0 1.19687,0.3646 1.56671,0.81023 0.36984,0.44562 1.13634,1.01682 1.70334,1.26933 1.4293,0.63651 5.15373,2.82574 7.74849,4.55457 1.19454,0.7959 2.38778,1.44709 2.65165,1.44709 0.26387,0 0.47976,0.17362 0.47976,0.38583 0,0.21222 1.13642,0.92538 2.52538,1.58481 1.38896,0.65944 2.52538,1.39495 2.52538,1.63447 0,0.23952 0.30677,0.4355 0.68172,0.4355 0.80858,0 10.1019,5.51101 10.34578,6.13513 0.0926,0.23697 0.43871,0.43086 0.76913,0.43086 0.33043,0 1.75271,0.73867 3.16063,1.6415 3.12884,2.00636 4.24652,2.66281 6.79807,3.99275 1.09079,0.56855 1.98325,1.23374 1.98325,1.47819 0,0.24445 0.56821,0.58707 1.26269,0.76137 0.69448,0.17431 1.2627,0.49733 1.2627,0.71783 0,0.2205 0.62503,0.66382 1.38896,0.98516 2.37174,0.99766 3.6618,1.75853 3.6618,2.15972 0,0.21192 0.33651,0.38531 0.7478,0.38531 0.4113,0 1.95101,0.73867 3.42158,1.6415 1.47057,0.902822 3.12279,1.911812 3.67161,2.242192 0.54881,0.33038 4.29347,2.58486 8.32145,5.00996 4.02798,2.4251 7.43725,4.54128 7.57614,4.70261 0.1389,0.16133 1.33214,0.8568 2.65165,1.54548 1.31952,0.68868 2.39912,1.41203 2.39912,1.60746 0,0.19543 0.51139,0.51055 1.13642,0.70028 0.62503,0.18973 2.72741,1.29841 4.67195,2.46375 1.94455,1.16533 3.93328,2.26834 4.41942,2.45114 0.48614,0.18279 0.88388,0.56677 0.88388,0.85329 0,0.28651 0.42674,0.52092 0.94831,0.52092 0.52157,0 1.25091,0.36461 1.62074,0.81024 0.36984,0.44562 1.13634,1.01682 1.70334,1.26932 1.42931,0.63652 5.15373,2.82574 7.74849,4.55458 1.19455,0.79589 2.38779,1.44708 2.65165,1.44708 0.26387,0 0.47976,0.17363 0.47976,0.38584 0,0.21221 1.13642,0.92538 2.52538,1.58481 2.79834,1.32856 3.07412,1.84664 1.38896,2.60923 -1.79406,0.81186 -3.32495,1.75325 -4.32944,2.6623 -0.50992,0.46147 -1.30698,0.83904 -1.77124,0.83904 -0.46426,0 -0.84412,0.23442 -0.84412,0.52093 0,0.28651 -0.39774,0.67049 -0.88388,0.85329 -0.48614,0.18279 -2.47487,1.28581 -4.41942,2.45114 -1.94454,1.16533 -4.04692,2.27402 -4.67195,2.46375 -0.62503,0.18972 -1.13642,0.50485 -1.13642,0.70028 0,0.19542 -1.0796,0.91878 -2.39912,1.60746 -1.31951,0.68868 -2.51275,1.38066 -2.65165,1.53774 -0.13889,0.15709 -2.18445,1.44079 -4.54568,2.85269 -2.36123,1.4119 -5.08865,3.04298 -6.06092,3.62463 -0.97227,0.58165 -2.33598,1.33871 -3.03046,1.68236 -0.69448,0.34365 -1.44444,0.91371 -1.66659,1.2668 -0.22215,0.35309 -0.63082,0.64198 -0.90815,0.64198 -0.27733,0 -1.74779,0.7955 -3.2677,1.76777 -1.51991,0.97227 -3.09998,1.76777 -3.51128,1.76777 -0.41129,0 -0.7478,0.22728 -0.7478,0.50507 0,0.2778 -0.32469,0.50508 -0.72154,0.50508 -0.39685,0 -1.03147,0.28411 -1.41029,0.63135 -0.88276,0.80918 -2.33108,1.7375 -3.92909,2.51841 -0.69448,0.33937 -1.44444,0.90593 -1.66659,1.25902 -0.22215,0.35309 -0.60933,0.64198 -0.86039,0.64198 -0.25107,0 -2.7139,1.36371 -5.47295,3.03046 -2.75906,1.66675 -5.25082,3.03046 -5.53725,3.03046 -0.28642,0 -0.59653,0.19388 -0.68913,0.43085 -0.24388,0.62412 -9.5372,6.13514 -10.34578,6.13514 -0.37495,0 -0.68172,0.19597 -0.68172,0.4355 0,0.23952 -1.13642,0.97503 -2.52538,1.63446 -1.38896,0.65944 -2.52538,1.3726 -2.52538,1.58481 0,0.21222 -0.21589,0.38584 -0.47976,0.38584 -0.26387,0 -1.45711,0.65119 -2.65165,1.44708 -2.59476,1.72884 -6.31919,3.91806 -7.74849,4.55458 -0.567,0.2525 -1.3335,0.8237 -1.70334,1.26933 -0.36984,0.44563 -1.07485,0.81023 -1.56671,0.81023 -0.49185,0 -1.02509,0.34093 -1.18499,0.75762 -0.1599,0.41668 -0.51146,0.75761 -0.78124,0.75761 -0.26979,0 -2.3793,1.13599 -4.68781,2.52442 -2.30851,1.38843 -4.48139,2.52485 -4.82863,2.52538 -0.34724,5e-4 -0.63135,0.17617 -0.63135,0.39032 0,0.21414 -1.0796,0.95282 -2.39911,1.6415 -1.31951,0.68867 -2.51276,1.38066 -2.65165,1.53774 -0.1389,0.15708 -2.18446,1.44079 -4.54569,2.85269 -2.36123,1.41189 -5.08864,3.04298 -6.06091,3.62462 -0.97227,0.58165 -2.33598,1.33872 -3.03046,1.68237 -0.69448,0.34365 -1.44445,0.91371 -1.6666,1.2668 -0.22214,0.35309 -0.60111,0.64198 -0.84214,0.64198 -0.24104,0 -2.16821,1.02278 -4.2826,2.27284 -2.1144,1.25007 -4.04886,2.27285 -4.29881,2.27285 -0.24995,0 -0.76439,0.2841 -1.1432,0.63134 -0.86493,0.79284 -2.30031,1.71838 -3.92217,2.52905 -0.69066,0.34523 -1.5998,0.92521 -2.0203,1.28884 -0.4205,0.36364 -3.49195,2.26477 -6.82546,4.22473 -3.3335,1.95995 -7.01208,4.18376 -8.17461,4.94181 -1.16254,0.75804 -3.42873,2.0389 -5.03596,2.84635 -1.60725,0.80745 -3.21265,1.73558 -3.56758,2.06252 -0.35492,0.32695 -1.55483,0.99572 -2.66645,1.48616 -1.11163,0.49045 -2.02114,1.07527 -2.02114,1.2996 0,0.22433 -0.21589,0.40788 -0.47975,0.40788 -0.26387,0 -1.45711,0.65119 -2.65165,1.44708 -2.59477,1.72884 -6.31919,3.91806 -7.7485,4.55458 -0.56699,0.2525 -1.3335,0.8237 -1.70334,1.26932 -0.36983,0.44563 -1.09917,0.81024 -1.62073,0.81024 -0.52158,0 -0.94832,0.23441 -0.94832,0.52092 0,0.28652 -0.39774,0.67186 -0.88388,0.85631 -0.48613,0.18446 -2.70216,1.42696 -4.92449,2.76111 -2.22234,1.33414 -4.32472,2.42615 -4.67196,2.42668 -0.34724,5.1e-4 -0.63134,0.19177 -0.63134,0.42497 0,0.42446 -2.22128,1.65454 -3.40927,1.88796 -0.34724,0.0682 -0.63134,-0.0585 -0.63134,-0.28159 z"
     id="path154"
     inkscape:connector-curvature="0" /></svg>