<?xml version="1.0" encoding="UTF-8" standalone="no"?>
<!-- Generator: Adobe Illustrator 16.0.0, SVG Export Plug-In . SVG Version: 6.00 Build 0)  -->

<svg
   xmlns:dc="http://purl.org/dc/elements/1.1/"
   xmlns:cc="http://creativecommons.org/ns#"
   xmlns:rdf="http://www.w3.org/1999/02/22-rdf-syntax-ns#"
   xmlns:svg="http://www.w3.org/2000/svg"
   xmlns="http://www.w3.org/2000/svg"
   xmlns:sodipodi="http://sodipodi.sourceforge.net/DTD/sodipodi-0.dtd"
   xmlns:inkscape="http://www.inkscape.org/namespaces/inkscape"
   version="1.1"
   id="svg2"
   sodipodi:docname="Desert.svg"
   inkscape:version="0.92.2 5c3e80d, 2017-08-06"
   x="0px"
   y="0px"
   width="367.50876"
   height="225.99611"
   viewBox="0 0 367.50876 225.9961"
   enable-background="new 0 0 430.543 325.295"
   xml:space="preserve"><metadata
     id="metadata152"><rdf:RDF><cc:Work
         rdf:about=""><dc:format>image/svg+xml</dc:format><dc:type
           rdf:resource="http://purl.org/dc/dcmitype/StillImage" /></cc:Work></rdf:RDF></metadata><defs
     id="defs147"><inkscape:perspective
       id="perspective2985"
       inkscape:vp_z="744.09448 : 526.18109 : 1"
       inkscape:vp_y="0 : 1000 : 0"
       inkscape:vp_x="0 : 526.18109 : 1"
       sodipodi:type="inkscape:persp3d"
       inkscape:persp3d-origin="372.04724 : 350.78739 : 1" /></defs><sodipodi:namedview
     units="mm"
     fit-margin-left="0"
     fit-margin-top="0"
     showguides="true"
     showgrid="false"
     inkscape:cy="130.85859"
     inkscape:cx="216.38748"
     inkscape:zoom="0.9899495"
     borderopacity="1.0"
     bordercolor="#666666"
     pagecolor="#ffffff"
     id="base"
     inkscape:pageshadow="2"
     inkscape:pageopacity="0.0"
     fit-margin-bottom="0"
     fit-margin-right="0"
     inkscape:guide-bbox="true"
     inkscape:window-maximized="1"
     inkscape:window-y="1"
     inkscape:window-x="0"
     inkscape:window-height="766"
     inkscape:window-width="1440"
     inkscape:object-nodes="true"
     inkscape:current-layer="svg2"
     inkscape:document-units="mm" /><path
     id="path3908"
     inkscape:connector-curvature="0"
     d="M 367.50876,112.99759 183.76481,0 0.02174639,112.99759 183.7657,225.9961 Z"
     style="fill:#549487;stroke-width:0.90790796" /><path
     style="fill:#ffeeaa;stroke-width:0.45856276"
     d="m 182.85563,225.59254 c 0,-0.20563 -0.50815,-0.50532 -1.12923,-0.66599 -0.62107,-0.16065 -1.12922,-0.49761 -1.12922,-0.74877 0,-0.25116 -0.2734,-0.45667 -0.60754,-0.45667 -0.33414,0 -0.97542,-0.41899 -1.42507,-0.93108 -0.44966,-0.5121 -0.98573,-0.93109 -1.19128,-0.93109 -0.31692,0 -4.96993,-2.7314 -7.16499,-4.20598 -0.37265,-0.25034 -1.33814,-0.8069 -2.14553,-1.23681 -0.8074,-0.42992 -1.46799,-0.95236 -1.46799,-1.16099 0,-0.20862 -0.25872,-0.37931 -0.57491,-0.37931 -0.31621,0 -1.60079,-0.69633 -2.85463,-1.54741 -1.25384,-0.85107 -2.5704,-1.6918 -2.92569,-1.86829 -0.35528,-0.17649 -1.66227,-0.95368 -2.90442,-1.7271 -1.24215,-0.7734 -2.7666,-1.65673 -3.38767,-1.96293 -0.62108,-0.3062 -1.23086,-0.68102 -1.35507,-0.83293 -0.12422,-0.15191 -0.53074,-0.42626 -0.90339,-0.60966 -0.74765,-0.36797 -1.59333,-0.89381 -4.29105,-2.66816 -0.99372,-0.6536 -2.11165,-1.33247 -2.4843,-1.50862 -0.37265,-0.17615 -1.28732,-0.73027 -2.0326,-1.2314 -0.74529,-0.50112 -2.01568,-1.22134 -2.82307,-1.6005 -0.80739,-0.37916 -1.46799,-0.90957 -1.46799,-1.17868 0,-0.26912 -0.3397,-0.4893 -0.75489,-0.4893 -0.41519,0 -1.07579,-0.28073 -1.468,-0.62385 -1.06521,-0.93188 -7.68459,-4.96263 -8.14974,-4.96263 -0.22188,0 -0.67201,-0.27568 -1.00029,-0.61263 -0.7851,-0.80583 -17.39792,-11.02586 -17.92271,-11.02586 -0.22292,0 -0.67592,-0.33607 -1.00667,-0.74682 -0.33074,-0.41074 -1.01623,-0.93803 -1.5233,-1.17176 -0.50706,-0.23373 -1.93824,-1.05819 -3.18039,-1.83215 -1.24215,-0.77395 -2.81741,-1.62886 -3.5006,-1.89978 -0.683183,-0.27093 -1.242153,-0.68159 -1.242153,-0.9126 0,-0.231 -0.28,-0.42 -0.62222,-0.42 -0.34223,0 -0.86422,-0.30051 -1.15999,-0.66783 -0.29577,-0.36731 -1.38779,-1.13367 -2.42669,-1.70304 -2.82398,-1.54766 -4.00548,-2.24255 -5.502434,-3.23619 -0.745292,-0.49472 -2.015664,-1.255 -2.823066,-1.68952 -0.807393,-0.43452 -1.467986,-0.96074 -1.467986,-1.16936 0,-0.20862 -0.258712,-0.37932 -0.57491,-0.37932 -0.316207,0 -1.60079,-0.69632 -2.854636,-1.54739 -1.253839,-0.85108 -2.570398,-1.69181 -2.925683,-1.8683 -0.355282,-0.1765 -1.662275,-0.95368 -2.904422,-1.72709 -1.242148,-0.77342 -2.766603,-1.65673 -3.387676,-1.96294 -0.621075,-0.3062 -1.230856,-0.68102 -1.355071,-0.83294 -0.124215,-0.15191 -0.530736,-0.42625 -0.903381,-0.60965 -0.747659,-0.36797 -1.593332,-0.89381 -4.291056,-2.66817 -0.993718,-0.65358 -2.111652,-1.33247 -2.484296,-1.50862 -0.372644,-0.17615 -1.287317,-0.73027 -2.032606,-1.23138 -0.745288,-0.50112 -2.015667,-1.22136 -2.823063,-1.60052 -0.807397,-0.37915 -1.467993,-0.90956 -1.467993,-1.17868 0,-0.26911 -0.339702,-0.48929 -0.754891,-0.48929 -0.415189,0 -1.075786,-0.28073 -1.467993,-0.62385 -1.065212,-0.93189 -7.684592,-4.96263 -8.149747,-4.96263 -0.221875,0 -0.672001,-0.27568 -1.000281,-0.61263 -0.78511,-0.80583 -17.397932,-11.02587 -17.922716,-11.02587 -0.222919,0 -0.675918,-0.33607 -1.006664,-0.7468 -0.330746,-0.41075 -1.016232,-0.93804 -1.5233,-1.17177 -0.50707,-0.23372 -1.938247,-1.05819 -3.180394,-1.83214 -1.242149,-0.77396 -2.817418,-1.62887 -3.5006,-1.89979 -0.68318,-0.27093 -1.242147,-0.6816 -1.242147,-0.9126 0,-0.23099 -0.273389,-0.41999 -0.607529,-0.41999 -0.334141,0 -0.968125,-0.41067 -1.408853,-0.91261 -0.440728,-0.50193 -0.929567,-0.87593 -1.086309,-0.83111 -0.156743,0.0448 -1.098028,-0.45016 -2.091746,-1.09995 -0.993718,-0.6498 -2.1116523,-1.32557 -2.4842963,-1.50172 -0.372645,-0.17615 -1.287317,-0.73057 -2.032606,-1.23206 -0.745288,-0.50149 -1.964852,-1.26164 -2.710141,-1.68922 -0.745289,-0.42759 -1.456701,-0.91721 -1.580915,-1.08806 -0.124215,-0.17084 -0.886442,-0.58601 -1.693839,-0.9226 -1.79133411,-0.74677 -1.83240911,-1.06779 -0.225844,-1.76511 0.683181,-0.29654 2.258451,-1.17767 3.500598,-1.95809 1.242148,-0.78042 2.54914,-1.56334 2.904424,-1.73983 0.355285,-0.1765 1.671843,-1.01723 2.9256853,-1.8683 1.253843,-0.85107 2.538424,-1.5474 2.854627,-1.5474 0.316201,0 0.574913,-0.1707 0.574913,-0.37932 0,-0.20862 0.660596,-0.73483 1.467993,-1.16936 0.807396,-0.43452 2.077775,-1.19224 2.823063,-1.68382 1.425012,-0.93992 4.150879,-2.53264 6.16321,-3.60114 0.657041,-0.34887 1.444156,-0.94421 1.749146,-1.32297 0.304989,-0.37876 0.834529,-0.68865 1.176754,-0.68865 0.342225,0 0.622228,-0.189 0.622228,-0.41999 0,-0.23101 0.558967,-0.64167 1.242148,-0.9126 0.683182,-0.27093 2.258451,-1.12584 3.500599,-1.89979 1.242148,-0.77395 2.673325,-1.59842 3.180394,-1.83214 0.50707,-0.23373 1.192554,-0.76103 1.5233,-1.17177 0.330747,-0.41075 0.783745,-0.74681 1.006666,-0.74681 0.524782,0 17.137605,-10.22003 17.922715,-11.02587 0.328279,-0.33694 0.778406,-0.61263 1.000281,-0.61263 0.465155,0 7.084534,-4.03074 8.149746,-4.96263 0.392207,-0.34311 1.052804,-0.62384 1.467993,-0.62384 0.415189,0 0.754892,-0.22019 0.754892,-0.4893 0,-0.26911 0.660597,-0.79952 1.467993,-1.17869 0.807396,-0.37916 2.077775,-1.09938 2.823063,-1.6005 0.745289,-0.50112 1.659962,-1.05525 2.032606,-1.2314 0.372645,-0.17615 1.490577,-0.85502 2.484296,-1.50862 2.697723,-1.77435 3.543396,-2.30018 4.291056,-2.66816 0.372647,-0.1834 0.779169,-0.45775 0.903378,-0.60966 0.124219,-0.1519 0.733998,-0.52673 1.355072,-0.83293 0.621074,-0.3062 2.145526,-1.18953 3.387674,-1.96293 1.242148,-0.77341 2.549142,-1.55061 2.904421,-1.7271 0.355288,-0.17649 1.671846,-1.01722 2.925686,-1.86829 1.25385,-0.85107 2.52149,-1.54741 2.81699,-1.54741 0.2955,0 0.60503,-0.15711 0.68784,-0.34915 0.1937,-0.44918 10.148093,-6.63394 10.677343,-6.63394 0.21979,0 0.76751,-0.41899 1.21717,-0.93108 0.44965,-0.5121 1.09093,-0.93109 1.42507,-0.93109 0.33414,0 0.60753,-0.19537 0.60753,-0.43417 0,-0.23879 0.43869,-0.57767 0.97487,-0.75306 1.08331,-0.35437 7.4291,-4.19474 8.54619,-5.17201 0.39221,-0.34312 1.03586,-0.62385 1.43035,-0.62385 0.39449,0 0.785,-0.15712 0.86781,-0.34916 0.0828,-0.19203 3.70763,-2.53286 8.05515,-5.20183 4.34752,-2.66898 7.97232,-5.02577 8.05514,-5.23733 0.0828,-0.21155 0.35253,-0.38464 0.59938,-0.38464 0.56251,0 8.89959,-5.10679 9.22616,-5.65137 0.13213,-0.22036 0.63476,-0.40065 1.11696,-0.40065 0.4822,0 0.87672,-0.22018 0.87672,-0.48929 0,-0.26912 0.6606,-0.799524 1.46799,-1.178684 0.8074,-0.379168 2.07778,-1.099393 2.82307,-1.600509 0.74528,-0.501117 1.65996,-1.055244 2.0326,-1.231392 0.37265,-0.17615 1.49058,-0.851922 2.4843,-1.501718 0.99372,-0.649795 1.93501,-1.144774 2.09174,-1.099953 0.15675,0.04482 0.64559,-0.329178 1.08632,-0.83111 0.44072,-0.501931 1.05777,-0.912602 1.3712,-0.912602 0.31345,0 0.63765,-0.15712 0.72046,-0.349155 0.0828,-0.192035 0.86197,-0.74137 1.73148,-1.220744 2.71934,-1.499227 4.69846,-2.654533 5.93824,-3.466443 0.65753,-0.430599 3.55481,-2.218352 6.43841,-3.972786 2.88359,-1.754434 5.35022,-3.368855 5.48139,-3.587603 0.28017,-0.467209 1.59538,-0.06845 2.24217,0.679809 0.24843,0.287402 0.95984,0.790155 1.58091,1.117229 0.62108,0.327074 1.5399,0.848251 2.04183,1.158173 1.57338,0.971496 8.07843,4.999402 9.02458,5.58799 0.49687,0.309089 1.00502,0.666728 1.12923,0.79475 0.12422,0.128024 1.19133,0.752127 2.37137,1.386897 1.18004,0.63477 2.14553,1.315622 2.14553,1.513005 0,0.197383 0.24523,0.358878 0.54495,0.358878 0.6706,0 9.10807,5.131578 9.31695,5.666473 0.0828,0.212051 0.51526,0.385545 0.961,0.385545 0.44573,0 1.08105,0.33606 1.41178,0.746807 0.33075,0.410747 1.01623,0.937233 1.5233,1.169973 1.27824,0.58669 4.60899,2.60454 6.92948,4.19805 1.06828,0.73359 2.13541,1.33381 2.37138,1.33381 0.23598,0 0.42905,0.189 0.42905,0.42 0,0.231 0.55896,0.64696 1.24215,0.92435 1.1904,0.48335 2.79821,1.42328 3.27475,1.91443 0.12422,0.12802 1.43116,0.85429 2.90432,1.61393 1.47316,0.75963 3.30251,1.81319 4.06521,2.34124 0.76271,0.52804 4.23239,2.71333 7.7104,4.85617 3.47801,2.14285 6.42529,4.02645 6.54951,4.18579 0.12421,0.15934 0.734,0.54579 1.35507,0.85878 1.42975,0.72052 2.7247,1.57611 3.51379,2.32161 0.33877,0.32005 0.82977,0.58192 1.09109,0.58192 0.26133,0 1.98174,0.94271 3.82313,2.09492 1.84138,1.15222 3.55041,2.09494 3.79782,2.09494 0.24741,0 0.56684,0.31423 0.70984,0.6983 0.143,0.38408 0.61987,0.69832 1.05974,0.69832 0.43987,0 1.07036,0.33606 1.40111,0.74681 0.33074,0.41073 1.01623,0.93722 1.5233,1.16997 1.27822,0.58668 4.60898,2.60454 6.92948,4.19804 1.06827,0.7336 2.13539,1.33382 2.37137,1.33382 0.23598,0 0.42905,0.16003 0.42905,0.35563 0,0.1956 1.0163,0.85294 2.25845,1.46075 1.24215,0.60782 2.25845,1.28576 2.25845,1.50653 0,0.22077 0.27434,0.40141 0.60966,0.40141 0.72311,0 9.03414,5.07962 9.25224,5.65488 0.0828,0.21842 0.39234,0.39713 0.68783,0.39713 0.29551,0 1.56745,0.68085 2.82656,1.51301 2.79812,1.84931 3.79767,2.45437 6.07952,3.68021 0.97549,0.52404 1.77362,1.13716 1.77362,1.36248 0,0.22531 0.50815,0.54111 1.12923,0.70177 0.62107,0.16066 1.12923,0.4584 1.12923,0.66164 0,0.20324 0.55896,0.61186 1.24215,0.90804 2.12105,0.91957 3.27475,1.62088 3.27475,1.99066 0,0.19534 0.30094,0.35515 0.66876,0.35515 0.36782,0 1.74479,0.68085 3.05992,1.51301 1.31513,0.83215 2.79271,1.76216 3.28352,2.06668 0.4908,0.30451 3.83966,2.38252 7.44188,4.61779 3.60223,2.23526 6.65114,4.18579 6.77535,4.33449 0.12422,0.14871 1.19134,0.78974 2.37137,1.42451 1.18005,0.63477 2.14554,1.3015 2.14554,1.48163 0,0.18013 0.45734,0.47058 1.0163,0.64546 0.55897,0.17488 2.43913,1.19678 4.17813,2.2709 1.73901,1.07411 3.51754,2.09077 3.95229,2.25926 0.43476,0.16849 0.79046,0.52241 0.79046,0.7865 0,0.26408 0.38163,0.48014 0.84807,0.48014 0.46644,0 1.11869,0.33607 1.44943,0.74682 0.33075,0.41074 1.01623,0.93723 1.5233,1.16996 1.27823,0.5867 4.60898,2.60455 6.92948,4.19806 1.06829,0.73359 2.1354,1.3338 2.37137,1.3338 0.23598,0 0.42905,0.16004 0.42905,0.35564 0,0.1956 1.0163,0.85294 2.25845,1.46075 2.50256,1.22457 2.74919,1.70209 1.24215,2.40499 -1.60443,0.74831 -2.97351,1.61601 -3.87182,2.4539 -0.45602,0.42535 -1.16884,0.77336 -1.58402,0.77336 -0.41519,0 -0.7549,0.21607 -0.7549,0.48015 0,0.26409 -0.3557,0.61801 -0.79046,0.7865 -0.43475,0.16848 -2.21327,1.18516 -3.95229,2.25927 -1.739,1.07411 -3.61916,2.09601 -4.17813,2.27089 -0.55896,0.17487 -1.0163,0.46533 -1.0163,0.64547 0,0.18012 -0.96548,0.84686 -2.14553,1.48163 -1.18004,0.63477 -2.24716,1.27258 -2.37137,1.41737 -0.12421,0.14479 -1.95356,1.328 -4.06521,2.62938 -2.11165,1.30138 -4.55078,2.80479 -5.42029,3.3409 -0.8695,0.53612 -2.08907,1.23392 -2.71014,1.55067 -0.62107,0.31675 -1.29176,0.84219 -1.49043,1.16764 -0.19867,0.32545 -0.56415,0.59173 -0.81216,0.59173 -0.24802,0 -1.56305,0.73323 -2.92231,1.62939 -1.35926,0.89616 -2.77231,1.62939 -3.14014,1.62939 -0.36782,0 -0.66876,0.20949 -0.66876,0.46554 0,0.25605 -0.29037,0.46554 -0.64527,0.46554 -0.35491,0 -0.92245,0.26187 -1.26123,0.58193 -0.78945,0.74584 -2.08468,1.60149 -3.51378,2.32127 -0.62108,0.31281 -1.29177,0.83502 -1.49044,1.16047 -0.19867,0.32545 -0.54492,0.59173 -0.76944,0.59173 -0.22454,0 -2.42705,1.25696 -4.89447,2.79324 -2.46743,1.53628 -4.69581,2.79324 -4.95197,2.79324 -0.25614,0 -0.53347,0.1787 -0.61629,0.39712 -0.2181,0.57527 -8.52912,5.6549 -9.25224,5.6549 -0.33531,0 -0.60966,0.18063 -0.60966,0.40141 0,0.22077 -1.0163,0.8987 -2.25845,1.50652 -1.24215,0.60782 -2.25845,1.26515 -2.25845,1.46075 0,0.19561 -0.19307,0.35564 -0.42905,0.35564 -0.23598,0 -1.30309,0.60021 -2.37137,1.3338 -2.3205,1.59351 -5.65126,3.61137 -6.92948,4.19806 -0.50707,0.23273 -1.19255,0.75922 -1.5233,1.16997 -0.33075,0.41075 -0.96124,0.74681 -1.40111,0.74681 -0.43986,0 -0.91674,0.31424 -1.05974,0.69831 -0.143,0.38406 -0.4574,0.69831 -0.69866,0.69831 -0.24127,0 -2.12781,1.04706 -4.19231,2.32681 -2.06451,1.27975 -4.00772,2.32721 -4.31825,2.3277 -0.31054,4.6e-4 -0.56462,0.16238 -0.56462,0.35977 0,0.19737 -0.96549,0.87823 -2.14553,1.513 -1.18003,0.63476 -2.24716,1.27259 -2.37137,1.41737 -0.12422,0.14478 -1.95356,1.32801 -4.06521,2.62939 -2.11165,1.30137 -4.55078,2.80478 -5.42028,3.34089 -0.8695,0.53612 -2.08907,1.23393 -2.71014,1.55068 -0.62108,0.31675 -1.29178,0.84218 -1.49044,1.16763 -0.19866,0.32546 -0.53758,0.59173 -0.75313,0.59173 -0.21556,0 -1.93903,0.94272 -3.82993,2.09493 -1.89091,1.15222 -3.6209,2.09493 -3.84443,2.09493 -0.22353,0 -0.6836,0.26187 -1.02237,0.58192 -0.77351,0.73078 -2.05717,1.58387 -3.5076,2.33109 -0.61766,0.3182 -1.4307,0.85278 -1.80675,1.18795 -0.37606,0.33517 -3.12286,2.08749 -6.10402,3.89402 -2.98115,1.80653 -6.27091,3.85627 -7.31056,4.55498 -1.03966,0.6987 -3.06632,1.8793 -4.50366,2.62354 -1.43737,0.74425 -2.87308,1.59973 -3.19049,1.90107 -0.31741,0.30136 -1.39049,0.91778 -2.38461,1.36983 -0.99413,0.45206 -1.80751,0.9911 -1.80751,1.19787 0,0.20677 -0.19307,0.37595 -0.42904,0.37595 -0.23598,0 -1.3031,0.60022 -2.37137,1.33381 -2.32051,1.59351 -5.65126,3.61136 -6.92949,4.19805 -0.50706,0.23274 -1.19255,0.75923 -1.5233,1.16996 -0.33074,0.41075 -0.98299,0.74682 -1.44942,0.74682 -0.46645,0 -0.84809,0.21606 -0.84809,0.48014 0,0.2641 -0.3557,0.61927 -0.79045,0.78928 -0.43475,0.17002 -2.41654,1.31526 -4.40398,2.54498 -1.98744,1.22971 -3.8676,2.23624 -4.17813,2.23672 -0.31054,4.7e-4 -0.56461,0.17676 -0.56461,0.39171 0,0.39123 -1.9865,1.52502 -3.04892,1.74017 -0.31053,0.0629 -0.5646,-0.0539 -0.5646,-0.25955 z"
     id="path154"
     inkscape:connector-curvature="0" /></svg>