<?xml version="1.0" encoding="UTF-8" standalone="no"?>
<!-- Created with Inkscape (http://www.inkscape.org/) -->

<svg
   xmlns:dc="http://purl.org/dc/elements/1.1/"
   xmlns:cc="http://creativecommons.org/ns#"
   xmlns:rdf="http://www.w3.org/1999/02/22-rdf-syntax-ns#"
   xmlns:svg="http://www.w3.org/2000/svg"
   xmlns="http://www.w3.org/2000/svg"
   xmlns:sodipodi="http://sodipodi.sourceforge.net/DTD/sodipodi-0.dtd"
   xmlns:inkscape="http://www.inkscape.org/namespaces/inkscape"
   width="430.54434"
   height="325.29514"
   id="svg2"
   version="1.1"
   inkscape:version="0.92.2 (5c3e80d, 2017-08-06)"
   sodipodi:docname="Forbidden.svg">
  <defs
     id="defs4">
    <inkscape:perspective
       sodipodi:type="inkscape:persp3d"
       inkscape:vp_x="0 : 526.18109 : 1"
       inkscape:vp_y="0 : 1000 : 0"
       inkscape:vp_z="744.09448 : 526.18109 : 1"
       inkscape:persp3d-origin="372.04724 : 350.78739 : 1"
       id="perspective2985" />
  </defs>
  <sodipodi:namedview
     id="base"
     pagecolor="#ffffff"
     bordercolor="#666666"
     borderopacity="1.0"
     inkscape:pageopacity="0.0"
     inkscape:pageshadow="2"
     inkscape:zoom="2.6591237"
     inkscape:cx="215.27217"
     inkscape:cy="192.73267"
     inkscape:document-units="mm"
     inkscape:current-layer="layer2"
     showgrid="false"
     inkscape:object-nodes="true"
     inkscape:window-width="1920"
     inkscape:window-height="1018"
     inkscape:window-x="-8"
     inkscape:window-y="-8"
     inkscape:window-maximized="1"
     showguides="true"
     inkscape:guide-bbox="true"
     units="mm"
     fit-margin-top="0"
     fit-margin-left="0"
     fit-margin-right="0"
     fit-margin-bottom="0"
     inkscape:measure-start="0,0"
     inkscape:measure-end="0,0" />
  <metadata
     id="metadata7">
    <rdf:RDF>
      <cc:Work
         rdf:about="">
        <dc:format>image/svg+xml</dc:format>
        <dc:type
           rdf:resource="http://purl.org/dc/dcmitype/StillImage" />
        <dc:title></dc:title>
      </cc:Work>
    </rdf:RDF>
  </metadata>
  <g
     inkscape:label="Layer 1"
     inkscape:groupmode="layer"
     id="layer1"
     transform="translate(-53.643411,-569.625)"
     sodipodi:insensitive="true">
    <path
       inkscape:connector-curvature="0"
       id="path3908"
       d="M 473.43611,771.64365 267.97542,649.04926 62.514778,771.64361 267.97547,894.238 Z"
       style="fill:#2d2d2d;fill-opacity:1;stroke:#000000;stroke-width:0.99999994px;stroke-linecap:round;stroke-linejoin:round;stroke-opacity:1" />
    <path
       style="stroke-width:0.50507629"
       d=""
       id="path3967"
       inkscape:connector-curvature="0"
       transform="translate(53.643411,569.625)" />
    <path
       style="stroke-width:0.50507629"
       d=""
       id="path4211"
       inkscape:connector-curvature="0"
       transform="translate(53.643411,569.625)" />
    <path
       style="stroke-width:0.50507629"
       d=""
       id="path4253"
       inkscape:connector-curvature="0"
       transform="translate(53.643411,569.625)" />
  </g>
  <g
     inkscape:groupmode="layer"
     id="layer3"
     inkscape:label="Layer 3">
    <rect
       style="fill:#673e0d;fill-opacity:1;stroke-width:0.04013202;stroke-miterlimit:4;stroke-dasharray:none"
       id="rect3964"
       width="41.366592"
       height="10.783421"
       x="61.95929"
       y="225.36485"
       transform="matrix(0.99011431,-0.1402628,0.1692743,0.98556898,0,0)" />
    <rect
       style="fill:#372107;fill-opacity:1;stroke-width:0.04690593;stroke-miterlimit:4;stroke-dasharray:none"
       id="rect3966"
       width="7.0175467"
       height="5.3917112"
       x="61.785011"
       y="228.70935"
       transform="matrix(0.99011431,-0.1402628,0.1692743,0.98556898,0,0)" />
    <rect
       style="fill:#372107;fill-opacity:1;stroke-width:0.04690593;stroke-miterlimit:4;stroke-dasharray:none"
       id="rect3966-6"
       width="7.0175467"
       height="5.3917112"
       x="96.842537"
       y="228.69435"
       transform="matrix(0.99011431,-0.1402628,0.1692743,0.98556898,0,0)" />
  </g>
  <g
     inkscape:groupmode="layer"
     id="layer2"
     inkscape:label="Layer 2">
    <path
       id="path858-8"
       style="fill:#000000;stroke-width:0.16262242"
       d="m 125.95963,185.08302 c -1.78831,-0.9891 -3.52932,-1.40058 -6.27594,-1.48533 -2.44563,-0.0754 -6.41501,0.61674 -8.4885,1.48008 -3.66749,1.52699 -5.97286,3.54035 -6.99911,6.11452 -0.65686,1.6476 -0.7341,2.77861 -0.31583,4.62018 0.35771,1.57524 0.91732,2.60488 1.95598,3.60046 0.95549,0.91585 1.1404,1.27971 1.39051,2.7384 0.19464,1.13499 0.32637,1.48031 0.74699,1.95367 l 0.40499,0.45559 c 0.26671,0.14831 0.54413,0.27916 0.81427,0.42196 0.38229,0.15421 0.61772,0.45359 0.79497,0.79693 0.01,0.003 0.0189,0.007 0.0279,0.01 -0.0232,-0.0319 -0.0565,-0.0726 -0.0558,-0.0726 0.0308,-0.002 0.0589,0.0162 0.0874,0.0261 0.19921,0.0681 0.25353,0.11848 0.31968,0.21147 0.35669,0.20581 0.56293,0.46711 0.73398,0.84878 0.16616,0.37072 0.30647,0.70347 0.31194,0.73923 0.008,0.0451 -0.0725,0.0645 -0.22832,0.0657 0.0491,0.12671 0.0977,0.25404 0.15517,0.37219 0.006,0.0123 0.0233,0.0156 0.0352,0.0231 0.0431,0.11884 0.086,0.23808 0.12904,0.35692 0.11829,0.2271 0.14718,0.4138 0.16002,0.58898 0.0592,0.0889 0.0944,0.16746 0.0788,0.24968 0.0179,0.0331 0.0283,0.0774 0.0383,0.11153 0.0811,0.27566 0.0512,0.43284 0.0698,0.38287 3.5e-4,-5.2e-4 7.1e-4,-0.003 0.002,-0.003 0.003,-0.01 0.003,-0.0105 0.0102,-0.0322 0.0127,0.11442 0.009,0.10234 0.0127,0.1535 0.008,0.0318 0.0155,0.0667 0.0289,0.13949 -0.0149,-0.0457 -0.014,-0.0297 0.10042,0.33298 -0.008,-0.032 -0.0493,-0.11677 -0.0235,-0.096 0.0419,0.0334 0.0555,0.0904 0.0777,0.13816 0.1476,0.31952 0.0722,0.18517 0.12285,0.60688 0.002,0.0111 0.0161,-0.0288 0.0256,-0.0241 0.0492,0.11999 0.0663,0.16976 0.0738,0.21256 0.30565,0.41257 0.60808,0.99202 0.50952,1.12024 0.0265,0.0453 0.0208,0.0372 0.0937,0.15715 0.14211,0.83326 0.01,0.10127 0.033,0.1102 0.0761,0.0288 0.0852,0.12747 0.11892,0.2018 0.009,0.0129 0.0209,0.0244 0.0294,0.0379 10e-4,0.002 -0.003,-0.002 -0.007,-0.003 0.0669,0.0898 0.13429,0.17921 0.20121,0.26907 0.008,0.0323 0.007,0.0398 0.0117,0.0662 0.51246,-0.11801 0.95255,-0.0932 1.50343,0.0564 1.48031,0.40161 3.39539,0.42648 5.34874,0.0691 1.99382,-0.36478 3.28647,-0.86195 4.73739,-1.82377 0.10204,-0.0677 0.17167,-0.10322 0.2609,-0.15946 0.0246,-0.039 0.0351,-0.062 0.0626,-0.10494 -0.005,-0.007 -0.007,-0.01 -0.0129,-0.0172 -0.13793,-0.17909 0.23933,-0.40082 0.36025,-0.60005 0.12243,-0.20174 0.24731,-0.4023 0.37038,-0.60373 0.0141,-0.0189 0.024,-0.0403 0.0391,-0.0588 0.043,-0.0743 0.0589,-0.0988 0.11346,-0.19353 0.005,-0.008 0.21997,-0.38404 0.4317,-0.75723 -0.0442,-0.17545 -0.0699,-0.35464 -0.045,-0.54498 -0.002,-0.13573 -0.0113,-0.2715 -0.006,-0.40742 0.002,-0.0306 0.0432,-0.15785 0.0394,-0.20097 -0.0333,-0.41242 -0.0814,-0.20096 -0.0502,-0.70053 0.001,-0.0331 0.0264,-0.062 0.0396,-0.093 -0.005,-0.2391 -0.0174,-0.38101 0.0181,-0.62562 0.006,-0.037 0.037,-0.0691 0.0399,-0.1063 0.0102,-0.13015 -0.004,-0.2597 -10e-4,-0.38992 0.008,-0.37079 0.0433,-0.74115 0.0421,-1.11186 -0.032,-0.0974 -0.0473,-0.264 -0.0513,-0.5498 -0.0124,-0.85907 0.10169,-1.17884 1.32767,-1.93854 -0.0134,-0.3092 0.1324,-0.55761 0.41789,-0.87089 0.14304,-0.15682 0.30458,-0.29728 0.45733,-0.44566 0.0428,-0.0417 0.0836,-0.068 0.12549,-0.10182 -0.0155,0.007 -0.031,0.0134 -0.0469,0.0188 l -0.5969,0.20449 0.39432,-0.93865 c 0.3562,-0.84408 0.37145,-1.03763 0.14967,-1.93168 -0.1356,-0.54656 -0.31676,-1.08777 -0.40143,-1.20127 -0.0954,-0.12744 0.0347,-0.52239 0.34102,-1.03559 1.60306,-2.68482 1.78237,-5.18847 0.54464,-7.6308 -0.75073,-1.48135 -1.52472,-2.23994 -3.26843,-3.20436 z m -12.89976,27.66409 c -0.007,-0.0102 -0.0147,-0.0198 -0.0221,-0.0296 0.002,0.007 0.005,0.015 0.009,0.021 0.004,0.005 0.009,0.007 0.0134,0.008 z m -0.0221,-0.0296 -0.003,-0.005 c -0.0138,-0.0177 -0.0276,-0.0353 -0.0416,-0.0533 0.0145,0.0194 0.0284,0.0392 0.0428,0.0586 z m 12.12726,-27.19989 c 1.61099,0.83343 2.84669,2.06116 3.45278,3.50352 0.47999,1.14234 0.63691,3.1614 0.3386,4.32907 -0.24165,0.94462 -0.91173,2.33451 -1.14723,2.37795 -0.27857,0.0512 -0.53602,-2.51901 -0.37662,-3.76183 0.19542,-1.52369 0.16883,-1.74569 -0.23342,-1.9233 -0.43884,-0.1937 -0.53495,0.0508 -0.63265,1.60134 -0.10467,1.66013 0.31446,4.22445 0.97352,5.95116 0.61857,1.62072 0.57276,2.28282 -0.2144,3.04515 -0.42618,0.41276 -0.61444,0.49364 -1.2214,0.52483 -1.62786,0.0837 -3.05948,1.28793 -3.18647,2.68108 -0.0604,0.66338 -0.16978,0.88532 -0.59294,1.19529 l -10e-4,-2.7e-4 c -0.45722,0.33517 -0.86099,0.4431 -3.37252,0.89497 -3.71114,0.66773 -4.40322,0.56995 -4.60012,-0.65072 -0.0952,-0.58884 -0.82378,-1.26869 -1.52686,-1.4244 -0.30071,-0.0666 -1.17708,-0.0491 -1.94817,0.0379 -1.26495,0.14265 -1.46611,0.12266 -2.05677,-0.20344 -0.59212,-0.32695 -0.66673,-0.44243 -0.78405,-1.20617 -0.0717,-0.46431 -0.0743,-1.25445 -0.007,-1.7563 0.18864,-1.40356 -0.0157,-3.40073 -0.47014,-4.58848 -0.5112,-1.33636 -1.25657,-2.44197 -1.60404,-2.37877 -0.17152,0.0306 -0.21866,0.13212 -0.13131,0.28301 0.73077,1.25896 2.02829,5.88605 1.61638,5.76484 -0.34644,-0.10202 -1.4461,-1.40486 -2.07109,-2.45505 -0.72066,-1.21096 -1.10055,-3.26159 -0.85159,-4.59278 0.53671,-2.86979 2.90116,-5.29389 6.8162,-6.98668 1.14154,-0.49357 1.75673,-0.65362 4.19068,-1.09551 3.27307,-0.59423 4.29632,-0.61406 6.83782,-0.12629 0.73778,0.14123 1.43935,0.35476 2.09206,0.62797 0.24478,0.10241 0.48159,0.21316 0.71173,0.33224 z m -0.49591,9.82858 c -0.45741,-0.23996 -1.08625,-0.23207 -2.79274,-0.0945 -1.95763,0.1578 -2.66323,0.33775 -2.87225,0.73253 -0.19522,0.36871 -0.1365,1.73442 0.0894,2.08582 0.21326,0.33177 2.2209,1.39853 3.36862,1.79045 0.85818,0.293 1.4591,0.0621 2.24169,-0.86178 1.05877,-1.24976 1.21616,-2.55556 0.39945,-3.32538 -0.14782,-0.13935 -0.28166,-0.24713 -0.43412,-0.32709 z m 1.20222,6.57921 c 0.0421,0.0239 0.0114,0.44608 -0.0673,0.93837 -0.0786,0.49222 -0.0845,1.78569 -0.0145,2.87454 0.0699,1.08888 0.0626,2.34707 -0.016,2.79598 -0.18095,1.03602 -1.05794,2.14287 -2.23566,2.82141 -0.76219,0.43918 -1.20558,0.5697 -3.36804,0.9962 -3.22959,0.63701 -4.41424,0.56718 -5.88532,-0.34968 -0.95546,-0.59545 -1.18952,-1.06295 -1.78482,-3.5524 -0.35484,-1.48386 -0.64355,-2.29828 -1.02931,-2.90804 -0.56988,-0.90077 -0.582,-1.01189 -0.11121,-0.95427 0.48053,0.0588 1.35413,1.66301 1.73799,3.19223 0.38148,1.51983 0.69414,1.91304 1.75586,2.20093 2.04725,0.55509 6.81457,-0.26822 8.80848,-1.52158 1.07921,-0.67841 1.24956,-1.07453 1.19472,-2.77392 -0.0532,-1.64862 0.23304,-3.20023 0.65716,-3.56289 0.15432,-0.13178 0.31568,-0.22057 0.35781,-0.19688 z m -10.6349,-5.45477 c -0.0596,-0.0242 -0.11985,-0.0406 -0.18212,-0.0477 -0.47597,-0.0556 -4.16961,0.95171 -4.64739,1.26736 -1.36672,0.90289 -1.08954,2.61076 0.59933,3.69769 0.36005,0.23171 0.82752,0.44534 1.03967,0.47464 0.80544,0.11128 1.19911,-0.0794 2.17963,-1.0607 2.09315,-2.09486 2.0175,-1.98488 1.89154,-2.76565 -0.131,-0.80908 -0.46545,-1.39328 -0.88071,-1.56557 z m 9.17601,5.9896 c 0.0185,0.0178 0.0343,0.0491 0.0445,0.0938 0.0409,0.17878 0.0152,0.57593 -0.0686,1.22831 -0.09,0.70151 -0.10026,1.66891 -0.0235,2.14933 0.0915,0.57361 0.0604,0.98702 -0.0922,1.20387 -0.2129,0.30229 -0.24987,0.18279 -0.43027,-1.41414 -0.19508,-1.72697 -0.1145,-2.59826 0.28474,-3.08457 0.13656,-0.16631 0.22944,-0.23041 0.28528,-0.1766 z m -6.34488,-3.04659 c -0.0642,-0.0393 -0.12315,-0.064 -0.17851,-0.0714 -0.33203,-0.0446 -0.53375,0.52543 -0.91897,2.17589 -0.27342,1.17176 -0.47787,2.2505 -0.45437,2.39765 0.0297,0.18455 0.12649,0.22485 0.3113,0.12926 0.14734,-0.0763 0.50114,-0.18125 0.78725,-0.23326 l 0.52067,-0.0948 -0.22935,-1.42238 c -0.28963,-1.79531 -0.25691,-2.41635 0.11911,-2.25034 0.19903,0.088 0.33813,0.53304 0.52269,1.67696 0.19742,1.22371 0.31814,1.59543 0.56698,1.7332 0.4059,0.22503 1.37384,0.0636 1.3278,-0.22175 -0.0578,-0.35968 -1.83909,-3.36809 -2.16588,-3.65836 -0.0756,-0.067 -0.14469,-0.12129 -0.20879,-0.16068 z m 13.49804,10.95378 c -0.0543,0.0113 -0.10628,0.0241 -0.16772,0.0273 -0.0191,0.0562 -0.0387,0.11355 -0.0587,0.17437 0.0296,0.0102 0.0589,0.0162 0.0889,0.0237 z m -18.89148,-5.80623 c 0.62968,0.27632 0.99709,0.98111 1.38191,2.65149 0.20632,0.89567 0.31991,1.63875 0.25343,1.6507 -0.21443,0.0394 -0.58473,-0.63832 -0.68792,-1.25748 -0.0867,-0.52233 -0.26617,-0.971 -1.14641,-2.86024 -0.14768,-0.31697 -0.13334,-0.33033 0.19906,-0.18448 z m -0.9563,4.69393 c -2.2e-4,6e-4 -0.002,0.003 -0.002,0.003 -0.004,-0.009 0.008,0.02 0.002,-0.003 z m 0.18978,0.717 c 0.006,0.0345 0.004,0.0166 0.0124,0.0605 0.007,0.0375 -0.0305,0.10842 0.009,0.11405 0.0244,0.004 -7.1e-4,-0.10049 -0.0211,-0.17463 z"
       inkscape:connector-curvature="0" />
    <rect
       style="fill:#000000;fill-opacity:1;stroke-width:0.0182376;stroke-miterlimit:4;stroke-dasharray:none"
       id="rect3916"
       width="1.7762259"
       height="17.647999"
       x="-33.834892"
       y="196.70181"
       transform="matrix(0.80181695,-0.59756972,0.63130724,0.77553283,0,0)" />
    <rect
       style="fill:#000000;fill-opacity:1;stroke-width:0.03650743;stroke-miterlimit:4;stroke-dasharray:none"
       id="rect3916-8"
       width="2.5954819"
       height="48.395206"
       x="69.035019"
       y="178.76385"
       transform="matrix(0.99754946,-0.06996481,0.14987966,0.98870425,0,0)" />
    <rect
       style="fill:#000000;fill-opacity:1;stroke-width:0.01897284;stroke-miterlimit:4;stroke-dasharray:none"
       id="rect3916-6"
       width="1.9332314"
       height="17.548458"
       x="-185.20409"
       y="119.93726"
       transform="matrix(-0.95073955,-0.30999082,-0.38231468,0.92403219,0,0)" />
    <rect
       style="fill:#000000;fill-opacity:1;stroke-width:0.03600507;stroke-miterlimit:4;stroke-dasharray:none"
       id="rect3916-8-9"
       width="2.5216942"
       height="48.449921"
       x="-97.357719"
       y="191.10486"
       transform="matrix(-0.97729444,0.21188575,0.18811025,0.98214792,0,0)" />
    <rect
       style="fill:#673e0d;fill-opacity:1;stroke-width:0.04013202;stroke-miterlimit:4;stroke-dasharray:none"
       id="rect3964-5"
       width="41.366592"
       height="10.783421"
       x="115.41281"
       y="226.86296"
       transform="matrix(0.99011431,-0.1402628,0.1692743,0.98556898,0,0)" />
    <rect
       style="fill:#372107;fill-opacity:1;stroke-width:0.04690593;stroke-miterlimit:4;stroke-dasharray:none"
       id="rect3966-1"
       width="7.0175467"
       height="5.3917112"
       x="115.23853"
       y="230.20747"
       transform="matrix(0.99011431,-0.1402628,0.1692743,0.98556898,0,0)" />
    <rect
       style="fill:#372107;fill-opacity:1;stroke-width:0.04690593;stroke-miterlimit:4;stroke-dasharray:none"
       id="rect3966-6-5"
       width="7.0175467"
       height="5.3917112"
       x="150.29605"
       y="230.19246"
       transform="matrix(0.99011431,-0.1402628,0.1692743,0.98556898,0,0)" />
    <path
       id="path858-8-7"
       style="fill:#000000;stroke-width:0.16262242"
       d="m 179.13831,179.06197 c -1.78831,-0.9891 -3.52932,-1.40058 -6.27594,-1.48533 -2.44563,-0.0754 -6.41501,0.61674 -8.4885,1.48008 -3.66749,1.52699 -5.97286,3.54035 -6.99911,6.11452 -0.65686,1.6476 -0.7341,2.77861 -0.31583,4.62018 0.35771,1.57524 0.91732,2.60488 1.95598,3.60046 0.95549,0.91585 1.1404,1.27971 1.39051,2.7384 0.19464,1.13499 0.32637,1.48031 0.74699,1.95367 l 0.40499,0.45559 c 0.26671,0.14831 0.54413,0.27916 0.81427,0.42196 0.38229,0.15421 0.61772,0.45359 0.79497,0.79693 0.01,0.003 0.0189,0.007 0.0279,0.01 -0.0232,-0.0319 -0.0565,-0.0726 -0.0558,-0.0726 0.0308,-0.002 0.0589,0.0162 0.0874,0.0261 0.19921,0.0681 0.25353,0.11848 0.31968,0.21147 0.35669,0.20581 0.56293,0.46711 0.73398,0.84878 0.16616,0.37072 0.30647,0.70347 0.31194,0.73923 0.008,0.0451 -0.0725,0.0645 -0.22832,0.0657 0.0491,0.12671 0.0977,0.25404 0.15517,0.37219 0.006,0.0123 0.0233,0.0156 0.0352,0.0231 0.0431,0.11884 0.086,0.23808 0.12904,0.35692 0.11829,0.2271 0.14718,0.4138 0.16002,0.58898 0.0592,0.0889 0.0944,0.16746 0.0788,0.24968 0.0179,0.0331 0.0283,0.0774 0.0383,0.11153 0.0811,0.27566 0.0512,0.43284 0.0698,0.38287 3.5e-4,-5.2e-4 7.1e-4,-0.003 0.002,-0.003 0.003,-0.01 0.003,-0.0105 0.0102,-0.0322 0.0127,0.11442 0.009,0.10234 0.0127,0.1535 0.008,0.0318 0.0155,0.0667 0.0289,0.13949 -0.0149,-0.0457 -0.014,-0.0297 0.10042,0.33298 -0.008,-0.032 -0.0493,-0.11677 -0.0235,-0.096 0.0419,0.0334 0.0555,0.0904 0.0777,0.13816 0.1476,0.31952 0.0722,0.18517 0.12285,0.60688 0.002,0.0111 0.0161,-0.0288 0.0256,-0.0241 0.0492,0.11999 0.0663,0.16976 0.0738,0.21256 0.30565,0.41257 0.60808,0.99202 0.50952,1.12024 0.0265,0.0453 0.0208,0.0372 0.0937,0.15715 0.14211,0.83326 0.01,0.10127 0.033,0.1102 0.0761,0.0288 0.0852,0.12747 0.11892,0.2018 0.009,0.0129 0.0209,0.0244 0.0294,0.0379 0.001,0.002 -0.003,-0.002 -0.007,-0.003 0.0669,0.0898 0.13429,0.17921 0.20121,0.26907 0.008,0.0323 0.007,0.0398 0.0117,0.0662 0.51246,-0.11801 0.95255,-0.0932 1.50343,0.0564 1.48031,0.40161 3.39539,0.42648 5.34874,0.0691 1.99382,-0.36478 3.28647,-0.86195 4.73739,-1.82377 0.10204,-0.0677 0.17167,-0.10322 0.2609,-0.15946 0.0246,-0.039 0.0351,-0.062 0.0626,-0.10494 -0.005,-0.007 -0.007,-0.01 -0.0129,-0.0172 -0.13793,-0.17909 0.23933,-0.40082 0.36025,-0.60005 0.12243,-0.20174 0.24731,-0.4023 0.37038,-0.60373 0.0141,-0.0189 0.024,-0.0403 0.0391,-0.0588 0.043,-0.0743 0.0589,-0.0988 0.11346,-0.19353 0.005,-0.008 0.21997,-0.38404 0.4317,-0.75723 -0.0442,-0.17545 -0.0699,-0.35464 -0.045,-0.54498 -0.002,-0.13573 -0.0113,-0.2715 -0.006,-0.40742 0.002,-0.0306 0.0432,-0.15785 0.0394,-0.20097 -0.0333,-0.41242 -0.0814,-0.20096 -0.0502,-0.70053 0.001,-0.0331 0.0264,-0.062 0.0396,-0.093 -0.005,-0.2391 -0.0174,-0.38101 0.0181,-0.62562 0.006,-0.037 0.037,-0.0691 0.0399,-0.1063 0.0102,-0.13015 -0.004,-0.2597 -0.001,-0.38992 0.008,-0.37079 0.0433,-0.74115 0.0421,-1.11186 -0.032,-0.0974 -0.0473,-0.264 -0.0513,-0.5498 -0.0124,-0.85907 0.10169,-1.17884 1.32767,-1.93854 -0.0134,-0.3092 0.1324,-0.55761 0.41789,-0.87089 0.14304,-0.15682 0.30458,-0.29728 0.45733,-0.44566 0.0428,-0.0417 0.0836,-0.068 0.12549,-0.10182 -0.0155,0.007 -0.031,0.0134 -0.0469,0.0188 l -0.5969,0.20449 0.39432,-0.93865 c 0.3562,-0.84408 0.37145,-1.03763 0.14967,-1.93168 -0.1356,-0.54656 -0.31676,-1.08777 -0.40143,-1.20127 -0.0954,-0.12744 0.0347,-0.52239 0.34102,-1.03559 1.60306,-2.68482 1.78237,-5.18847 0.54464,-7.6308 -0.75073,-1.48135 -1.52472,-2.23994 -3.26843,-3.20436 z m -12.89976,27.66409 c -0.007,-0.0102 -0.0147,-0.0198 -0.0221,-0.0296 0.002,0.007 0.005,0.015 0.009,0.021 0.004,0.005 0.009,0.007 0.0134,0.008 z m -0.0221,-0.0296 -0.003,-0.005 c -0.0138,-0.0177 -0.0276,-0.0353 -0.0416,-0.0533 0.0145,0.0194 0.0284,0.0392 0.0428,0.0586 z m 12.12726,-27.19989 c 1.61099,0.83343 2.84669,2.06116 3.45278,3.50352 0.47999,1.14234 0.63691,3.1614 0.3386,4.32907 -0.24165,0.94462 -0.91173,2.33451 -1.14723,2.37795 -0.27857,0.0512 -0.53602,-2.51901 -0.37662,-3.76183 0.19542,-1.52369 0.16883,-1.74569 -0.23342,-1.9233 -0.43884,-0.1937 -0.53495,0.0508 -0.63265,1.60134 -0.10467,1.66013 0.31446,4.22445 0.97352,5.95116 0.61857,1.62072 0.57276,2.28282 -0.2144,3.04515 -0.42618,0.41276 -0.61444,0.49364 -1.2214,0.52483 -1.62786,0.0837 -3.05948,1.28793 -3.18647,2.68108 -0.0604,0.66338 -0.16978,0.88532 -0.59294,1.19529 l -0.001,-2.7e-4 c -0.45722,0.33517 -0.86099,0.4431 -3.37252,0.89497 -3.71114,0.66773 -4.40322,0.56995 -4.60012,-0.65072 -0.0952,-0.58884 -0.82378,-1.26869 -1.52686,-1.4244 -0.30071,-0.0666 -1.17708,-0.0491 -1.94817,0.0379 -1.26495,0.14265 -1.46611,0.12266 -2.05677,-0.20344 -0.59212,-0.32695 -0.66673,-0.44243 -0.78405,-1.20617 -0.0717,-0.46431 -0.0743,-1.25445 -0.007,-1.7563 0.18864,-1.40356 -0.0157,-3.40073 -0.47014,-4.58848 -0.5112,-1.33636 -1.25657,-2.44197 -1.60404,-2.37877 -0.17152,0.0306 -0.21866,0.13212 -0.13131,0.28301 0.73077,1.25896 2.02829,5.88605 1.61638,5.76484 -0.34644,-0.10202 -1.4461,-1.40486 -2.07109,-2.45505 -0.72066,-1.21096 -1.10055,-3.26159 -0.85159,-4.59278 0.53671,-2.86979 2.90116,-5.29389 6.8162,-6.98668 1.14154,-0.49357 1.75673,-0.65362 4.19068,-1.09551 3.27307,-0.59423 4.29632,-0.61406 6.83782,-0.12629 0.73778,0.14123 1.43935,0.35476 2.09206,0.62797 0.24478,0.10241 0.48159,0.21316 0.71173,0.33224 z m -0.49591,9.82858 c -0.45741,-0.23996 -1.08625,-0.23207 -2.79274,-0.0945 -1.95763,0.1578 -2.66323,0.33775 -2.87225,0.73253 -0.19522,0.36871 -0.1365,1.73442 0.0894,2.08582 0.21326,0.33177 2.2209,1.39853 3.36862,1.79045 0.85818,0.293 1.4591,0.0621 2.24169,-0.86178 1.05877,-1.24976 1.21616,-2.55556 0.39945,-3.32538 -0.14782,-0.13935 -0.28166,-0.24713 -0.43412,-0.32709 z m 1.20222,6.57921 c 0.0421,0.0239 0.0114,0.44608 -0.0673,0.93837 -0.0786,0.49222 -0.0845,1.78569 -0.0145,2.87454 0.0699,1.08888 0.0626,2.34707 -0.016,2.79598 -0.18095,1.03602 -1.05794,2.14287 -2.23566,2.82141 -0.76219,0.43918 -1.20558,0.5697 -3.36804,0.9962 -3.22959,0.63701 -4.41424,0.56718 -5.88532,-0.34968 -0.95546,-0.59545 -1.18952,-1.06295 -1.78482,-3.5524 -0.35484,-1.48386 -0.64355,-2.29828 -1.02931,-2.90804 -0.56988,-0.90077 -0.582,-1.01189 -0.11121,-0.95427 0.48053,0.0588 1.35413,1.66301 1.73799,3.19223 0.38148,1.51983 0.69414,1.91304 1.75586,2.20093 2.04725,0.55509 6.81457,-0.26822 8.80848,-1.52158 1.07921,-0.67841 1.24956,-1.07453 1.19472,-2.77392 -0.0532,-1.64862 0.23304,-3.20023 0.65716,-3.56289 0.15432,-0.13178 0.31568,-0.22057 0.35781,-0.19688 z m -10.6349,-5.45477 c -0.0596,-0.0242 -0.11985,-0.0406 -0.18212,-0.0477 -0.47597,-0.0556 -4.16961,0.95171 -4.64739,1.26736 -1.36672,0.90289 -1.08954,2.61076 0.59933,3.69769 0.36005,0.23171 0.82752,0.44534 1.03967,0.47464 0.80544,0.11128 1.19911,-0.0794 2.17963,-1.0607 2.09315,-2.09486 2.0175,-1.98488 1.89154,-2.76565 -0.131,-0.80908 -0.46545,-1.39328 -0.88071,-1.56557 z m 9.17601,5.9896 c 0.0185,0.0178 0.0343,0.0491 0.0445,0.0938 0.0409,0.17878 0.0152,0.57593 -0.0686,1.22831 -0.09,0.70151 -0.10026,1.66891 -0.0235,2.14933 0.0915,0.57361 0.0604,0.98702 -0.0922,1.20387 -0.2129,0.30229 -0.24987,0.18279 -0.43027,-1.41414 -0.19508,-1.72697 -0.1145,-2.59826 0.28474,-3.08457 0.13656,-0.16631 0.22944,-0.23041 0.28528,-0.1766 z m -6.34488,-3.04659 c -0.0642,-0.0393 -0.12315,-0.064 -0.17851,-0.0714 -0.33203,-0.0446 -0.53375,0.52543 -0.91897,2.17589 -0.27342,1.17176 -0.47787,2.2505 -0.45437,2.39765 0.0297,0.18455 0.12649,0.22485 0.3113,0.12926 0.14734,-0.0763 0.50114,-0.18125 0.78725,-0.23326 l 0.52067,-0.0948 -0.22935,-1.42238 c -0.28963,-1.79531 -0.25691,-2.41635 0.11911,-2.25034 0.19903,0.088 0.33813,0.53304 0.52269,1.67696 0.19742,1.22371 0.31814,1.59543 0.56698,1.7332 0.4059,0.22503 1.37384,0.0636 1.3278,-0.22175 -0.0578,-0.35968 -1.83909,-3.36809 -2.16588,-3.65836 -0.0756,-0.067 -0.14469,-0.12129 -0.20879,-0.16068 z m 13.49804,10.95378 c -0.0543,0.0113 -0.10628,0.0241 -0.16772,0.0273 -0.0191,0.0562 -0.0387,0.11355 -0.0587,0.17437 0.0296,0.0102 0.0589,0.0162 0.0889,0.0237 z m -18.89148,-5.80623 c 0.62968,0.27632 0.99709,0.98111 1.38191,2.65149 0.20632,0.89567 0.31991,1.63875 0.25343,1.6507 -0.21443,0.0394 -0.58473,-0.63832 -0.68792,-1.25748 -0.0867,-0.52233 -0.26617,-0.971 -1.14641,-2.86024 -0.14768,-0.31697 -0.13334,-0.33033 0.19906,-0.18448 z m -0.9563,4.69393 c -2.2e-4,6e-4 -0.002,0.003 -0.002,0.003 -0.004,-0.009 0.008,0.02 0.002,-0.003 z m 0.18978,0.717 c 0.006,0.0345 0.004,0.0166 0.0124,0.0605 0.007,0.0375 -0.0305,0.10842 0.009,0.11405 0.0244,0.004 -7.1e-4,-0.10049 -0.0211,-0.17463 z"
       inkscape:connector-curvature="0" />
    <rect
       style="fill:#000000;fill-opacity:1;stroke-width:0.0182376;stroke-miterlimit:4;stroke-dasharray:none"
       id="rect3916-7"
       width="1.7762259"
       height="17.647999"
       x="11.249287"
       y="223.67667"
       transform="matrix(0.80181695,-0.59756972,0.63130724,0.77553283,0,0)" />
    <rect
       style="fill:#000000;fill-opacity:1;stroke-width:0.03650743;stroke-miterlimit:4;stroke-dasharray:none"
       id="rect3916-8-2"
       width="2.5954819"
       height="48.395206"
       x="122.68887"
       y="176.47078"
       transform="matrix(0.99754946,-0.06996481,0.14987966,0.98870425,0,0)" />
    <rect
       style="fill:#000000;fill-opacity:1;stroke-width:0.01897284;stroke-miterlimit:4;stroke-dasharray:none"
       id="rect3916-6-1"
       width="1.9332314"
       height="17.548458"
       x="-232.18057"
       y="97.661705"
       transform="matrix(-0.95073955,-0.30999082,-0.38231468,0.92403219,0,0)" />
    <rect
       style="fill:#000000;fill-opacity:1;stroke-width:0.03600507;stroke-miterlimit:4;stroke-dasharray:none"
       id="rect3916-8-9-4"
       width="2.5216942"
       height="48.449921"
       x="-150.7354"
       y="196.48991"
       transform="matrix(-0.97729444,0.21188575,0.18811025,0.98214792,0,0)" />
    <rect
       style="fill:#673e0d;fill-opacity:1;stroke-width:0.04013202;stroke-miterlimit:4;stroke-dasharray:none"
       id="rect3964-3"
       width="41.366592"
       height="10.783421"
       x="104.0697"
       y="282.1026"
       transform="matrix(0.99011431,-0.1402628,0.1692743,0.98556898,0,0)" />
    <rect
       style="fill:#372107;fill-opacity:1;stroke-width:0.04690593;stroke-miterlimit:4;stroke-dasharray:none"
       id="rect3966-3"
       width="7.0175467"
       height="5.3917112"
       x="103.89542"
       y="285.44711"
       transform="matrix(0.99011431,-0.1402628,0.1692743,0.98556898,0,0)" />
    <rect
       style="fill:#372107;fill-opacity:1;stroke-width:0.04690593;stroke-miterlimit:4;stroke-dasharray:none"
       id="rect3966-6-56"
       width="7.0175467"
       height="5.3917112"
       x="138.95294"
       y="285.4321"
       transform="matrix(0.99011431,-0.1402628,0.1692743,0.98556898,0,0)" />
    <path
       id="path858-8-0"
       style="fill:#000000;stroke-width:0.16262242"
       d="m 177.25799,235.09546 c -1.78831,-0.9891 -3.52932,-1.40058 -6.27594,-1.48533 -2.44563,-0.0754 -6.41501,0.61674 -8.4885,1.48008 -3.66749,1.52699 -5.97286,3.54035 -6.99911,6.11452 -0.65686,1.6476 -0.7341,2.77861 -0.31583,4.62018 0.35771,1.57524 0.91732,2.60488 1.95598,3.60046 0.95549,0.91585 1.1404,1.27971 1.39051,2.7384 0.19464,1.13499 0.32637,1.48031 0.74699,1.95367 l 0.40499,0.45559 c 0.26671,0.14831 0.54413,0.27916 0.81427,0.42196 0.38229,0.15421 0.61772,0.45359 0.79497,0.79693 0.01,0.003 0.0189,0.007 0.0279,0.01 -0.0232,-0.0319 -0.0565,-0.0726 -0.0558,-0.0726 0.0308,-0.002 0.0589,0.0162 0.0874,0.0261 0.19921,0.0681 0.25353,0.11848 0.31968,0.21147 0.35669,0.20581 0.56293,0.46711 0.73398,0.84878 0.16616,0.37072 0.30647,0.70347 0.31194,0.73923 0.008,0.0451 -0.0725,0.0645 -0.22832,0.0657 0.0491,0.12671 0.0977,0.25404 0.15517,0.37219 0.006,0.0123 0.0233,0.0156 0.0352,0.0231 0.0431,0.11884 0.086,0.23808 0.12904,0.35692 0.11829,0.2271 0.14718,0.4138 0.16002,0.58898 0.0592,0.0889 0.0944,0.16746 0.0788,0.24968 0.0179,0.0331 0.0283,0.0774 0.0383,0.11153 0.0811,0.27566 0.0512,0.43284 0.0698,0.38287 3.5e-4,-5.2e-4 7.1e-4,-0.003 0.002,-0.003 0.003,-0.01 0.003,-0.0105 0.0102,-0.0322 0.0127,0.11442 0.009,0.10234 0.0127,0.1535 0.008,0.0318 0.0155,0.0667 0.0289,0.13949 -0.0149,-0.0457 -0.014,-0.0297 0.10042,0.33298 -0.008,-0.032 -0.0493,-0.11677 -0.0235,-0.096 0.0419,0.0334 0.0555,0.0904 0.0777,0.13816 0.1476,0.31952 0.0722,0.18517 0.12285,0.60688 0.002,0.0111 0.0161,-0.0288 0.0256,-0.0241 0.0492,0.11999 0.0663,0.16976 0.0738,0.21256 0.30565,0.41257 0.60808,0.99202 0.50952,1.12024 0.0265,0.0453 0.0208,0.0372 0.0937,0.15715 0.14211,0.83326 0.01,0.10127 0.033,0.1102 0.0761,0.0288 0.0852,0.12747 0.11892,0.2018 0.009,0.0129 0.0209,0.0244 0.0294,0.0379 0.001,0.002 -0.003,-0.002 -0.007,-0.003 0.0669,0.0898 0.13429,0.17921 0.20121,0.26907 0.008,0.0323 0.007,0.0398 0.0117,0.0662 0.51246,-0.11801 0.95255,-0.0932 1.50343,0.0564 1.48031,0.40161 3.39539,0.42648 5.34874,0.0691 1.99382,-0.36478 3.28647,-0.86195 4.73739,-1.82377 0.10204,-0.0677 0.17167,-0.10322 0.2609,-0.15946 0.0246,-0.039 0.0351,-0.062 0.0626,-0.10494 -0.005,-0.007 -0.007,-0.01 -0.0129,-0.0172 -0.13793,-0.17909 0.23933,-0.40082 0.36025,-0.60005 0.12243,-0.20174 0.24731,-0.4023 0.37038,-0.60373 0.0141,-0.0189 0.024,-0.0403 0.0391,-0.0588 0.043,-0.0743 0.0589,-0.0988 0.11346,-0.19353 0.005,-0.008 0.21997,-0.38404 0.4317,-0.75723 -0.0442,-0.17545 -0.0699,-0.35464 -0.045,-0.54498 -0.002,-0.13573 -0.0113,-0.2715 -0.006,-0.40742 0.002,-0.0306 0.0432,-0.15785 0.0394,-0.20097 -0.0333,-0.41242 -0.0814,-0.20096 -0.0502,-0.70053 10e-4,-0.0331 0.0264,-0.062 0.0396,-0.093 -0.005,-0.2391 -0.0174,-0.38101 0.0181,-0.62562 0.006,-0.037 0.037,-0.0691 0.0399,-0.1063 0.0102,-0.13015 -0.004,-0.2597 -0.001,-0.38992 0.008,-0.37079 0.0433,-0.74115 0.0421,-1.11186 -0.032,-0.0974 -0.0473,-0.264 -0.0513,-0.5498 -0.0124,-0.85907 0.10169,-1.17884 1.32767,-1.93854 -0.0134,-0.3092 0.1324,-0.55761 0.41789,-0.87089 0.14304,-0.15682 0.30458,-0.29728 0.45733,-0.44566 0.0428,-0.0417 0.0836,-0.068 0.12549,-0.10182 -0.0155,0.007 -0.031,0.0134 -0.0469,0.0188 l -0.5969,0.20449 0.39432,-0.93865 c 0.3562,-0.84408 0.37145,-1.03763 0.14967,-1.93168 -0.1356,-0.54656 -0.31676,-1.08777 -0.40143,-1.20127 -0.0954,-0.12744 0.0347,-0.52239 0.34102,-1.03559 1.60306,-2.68482 1.78237,-5.18847 0.54464,-7.6308 -0.75073,-1.48135 -1.52472,-2.23994 -3.26843,-3.20436 z m -12.89976,27.66409 c -0.007,-0.0102 -0.0147,-0.0198 -0.0221,-0.0296 0.002,0.007 0.005,0.015 0.009,0.021 0.004,0.005 0.009,0.007 0.0134,0.008 z m -0.0221,-0.0296 -0.003,-0.005 c -0.0138,-0.0177 -0.0276,-0.0353 -0.0416,-0.0533 0.0145,0.0194 0.0284,0.0392 0.0428,0.0586 z m 12.12726,-27.19989 c 1.61099,0.83343 2.84669,2.06116 3.45278,3.50352 0.47999,1.14234 0.63691,3.1614 0.3386,4.32907 -0.24165,0.94462 -0.91173,2.33451 -1.14723,2.37795 -0.27857,0.0512 -0.53602,-2.51901 -0.37662,-3.76183 0.19542,-1.52369 0.16883,-1.74569 -0.23342,-1.9233 -0.43884,-0.1937 -0.53495,0.0508 -0.63265,1.60134 -0.10467,1.66013 0.31446,4.22445 0.97352,5.95116 0.61857,1.62072 0.57276,2.28282 -0.2144,3.04515 -0.42618,0.41276 -0.61444,0.49364 -1.2214,0.52483 -1.62786,0.0837 -3.05948,1.28793 -3.18647,2.68108 -0.0604,0.66338 -0.16978,0.88532 -0.59294,1.19529 l -0.001,-2.7e-4 c -0.45722,0.33517 -0.86099,0.4431 -3.37252,0.89497 -3.71114,0.66773 -4.40322,0.56995 -4.60012,-0.65072 -0.0952,-0.58884 -0.82378,-1.26869 -1.52686,-1.4244 -0.30071,-0.0666 -1.17708,-0.0491 -1.94817,0.0379 -1.26495,0.14265 -1.46611,0.12266 -2.05677,-0.20344 -0.59212,-0.32695 -0.66673,-0.44243 -0.78405,-1.20617 -0.0717,-0.46431 -0.0743,-1.25445 -0.007,-1.7563 0.18864,-1.40356 -0.0157,-3.40073 -0.47014,-4.58848 -0.5112,-1.33636 -1.25657,-2.44197 -1.60404,-2.37877 -0.17152,0.0306 -0.21866,0.13212 -0.13131,0.28301 0.73077,1.25896 2.02829,5.88605 1.61638,5.76484 -0.34644,-0.10202 -1.4461,-1.40486 -2.07109,-2.45505 -0.72066,-1.21096 -1.10055,-3.26159 -0.85159,-4.59278 0.53671,-2.86979 2.90116,-5.29389 6.8162,-6.98668 1.14154,-0.49357 1.75673,-0.65362 4.19068,-1.09551 3.27307,-0.59423 4.29632,-0.61406 6.83782,-0.12629 0.73778,0.14123 1.43935,0.35476 2.09206,0.62797 0.24478,0.10241 0.48159,0.21316 0.71173,0.33224 z m -0.49591,9.82858 c -0.45741,-0.23996 -1.08625,-0.23207 -2.79274,-0.0945 -1.95763,0.1578 -2.66323,0.33775 -2.87225,0.73253 -0.19522,0.36871 -0.1365,1.73442 0.0894,2.08582 0.21326,0.33177 2.2209,1.39853 3.36862,1.79045 0.85818,0.293 1.4591,0.0621 2.24169,-0.86178 1.05877,-1.24976 1.21616,-2.55556 0.39945,-3.32538 -0.14782,-0.13935 -0.28166,-0.24713 -0.43412,-0.32709 z m 1.20222,6.57921 c 0.0421,0.0239 0.0114,0.44608 -0.0673,0.93837 -0.0786,0.49222 -0.0845,1.78569 -0.0145,2.87454 0.0699,1.08888 0.0626,2.34707 -0.016,2.79598 -0.18095,1.03602 -1.05794,2.14287 -2.23566,2.82141 -0.76219,0.43918 -1.20558,0.5697 -3.36804,0.9962 -3.22959,0.63701 -4.41424,0.56718 -5.88532,-0.34968 -0.95546,-0.59545 -1.18952,-1.06295 -1.78482,-3.5524 -0.35484,-1.48386 -0.64355,-2.29828 -1.02931,-2.90804 -0.56988,-0.90077 -0.582,-1.01189 -0.11121,-0.95427 0.48053,0.0588 1.35413,1.66301 1.73799,3.19223 0.38148,1.51983 0.69414,1.91304 1.75586,2.20093 2.04725,0.55509 6.81457,-0.26822 8.80848,-1.52158 1.07921,-0.67841 1.24956,-1.07453 1.19472,-2.77392 -0.0532,-1.64862 0.23304,-3.20023 0.65716,-3.56289 0.15432,-0.13178 0.31568,-0.22057 0.35781,-0.19688 z m -10.6349,-5.45477 c -0.0596,-0.0242 -0.11985,-0.0406 -0.18212,-0.0477 -0.47597,-0.0556 -4.16961,0.95171 -4.64739,1.26736 -1.36672,0.90289 -1.08954,2.61076 0.59933,3.69769 0.36005,0.23171 0.82752,0.44534 1.03967,0.47464 0.80544,0.11128 1.19911,-0.0794 2.17963,-1.0607 2.09315,-2.09486 2.0175,-1.98488 1.89154,-2.76565 -0.131,-0.80908 -0.46545,-1.39328 -0.88071,-1.56557 z m 9.17601,5.9896 c 0.0185,0.0178 0.0343,0.0491 0.0445,0.0938 0.0409,0.17878 0.0152,0.57593 -0.0686,1.22831 -0.09,0.70151 -0.10026,1.66891 -0.0235,2.14933 0.0915,0.57361 0.0604,0.98702 -0.0922,1.20387 -0.2129,0.30229 -0.24987,0.18279 -0.43027,-1.41414 -0.19508,-1.72697 -0.1145,-2.59826 0.28474,-3.08457 0.13656,-0.16631 0.22944,-0.23041 0.28528,-0.1766 z m -6.34488,-3.04659 c -0.0642,-0.0393 -0.12315,-0.064 -0.17851,-0.0714 -0.33203,-0.0446 -0.53375,0.52543 -0.91897,2.17589 -0.27342,1.17176 -0.47787,2.2505 -0.45437,2.39765 0.0297,0.18455 0.12649,0.22485 0.3113,0.12926 0.14734,-0.0763 0.50114,-0.18125 0.78725,-0.23326 l 0.52067,-0.0948 -0.22935,-1.42238 c -0.28963,-1.79531 -0.25691,-2.41635 0.11911,-2.25034 0.19903,0.088 0.33813,0.53304 0.52269,1.67696 0.19742,1.22371 0.31814,1.59543 0.56698,1.7332 0.4059,0.22503 1.37384,0.0636 1.3278,-0.22175 -0.0578,-0.35968 -1.83909,-3.36809 -2.16588,-3.65836 -0.0756,-0.067 -0.14469,-0.12129 -0.20879,-0.16068 z m 13.49804,10.95378 c -0.0543,0.0113 -0.10628,0.0241 -0.16772,0.0273 -0.0191,0.0562 -0.0387,0.11355 -0.0587,0.17437 0.0296,0.0102 0.0589,0.0162 0.0889,0.0237 z m -18.89148,-5.80623 c 0.62968,0.27632 0.99709,0.98111 1.38191,2.65149 0.20632,0.89567 0.31991,1.63875 0.25343,1.6507 -0.21443,0.0394 -0.58473,-0.63832 -0.68792,-1.25748 -0.0867,-0.52233 -0.26617,-0.971 -1.14641,-2.86024 -0.14768,-0.31697 -0.13334,-0.33033 0.19906,-0.18448 z m -0.9563,4.69393 c -2.2e-4,6e-4 -0.002,0.003 -0.002,0.003 -0.004,-0.009 0.008,0.02 0.002,-0.003 z m 0.18978,0.717 c 0.006,0.0345 0.004,0.0166 0.0124,0.0605 0.007,0.0375 -0.0305,0.10842 0.009,0.11405 0.0244,0.004 -7.1e-4,-0.10049 -0.0211,-0.17463 z"
       inkscape:connector-curvature="0" />
    <rect
       style="fill:#000000;fill-opacity:1;stroke-width:0.0182376;stroke-miterlimit:4;stroke-dasharray:none"
       id="rect3916-3"
       width="1.7762259"
       height="17.647999"
       x="-25.617029"
       y="267.52176"
       transform="matrix(0.80181695,-0.59756972,0.63130724,0.77553283,0,0)" />
    <rect
       style="fill:#000000;fill-opacity:1;stroke-width:0.03650743;stroke-miterlimit:4;stroke-dasharray:none"
       id="rect3916-8-5"
       width="2.5954819"
       height="48.395206"
       x="112.39825"
       y="232.41624"
       transform="matrix(0.99754946,-0.06996481,0.14987966,0.98870425,0,0)" />
    <rect
       style="fill:#000000;fill-opacity:1;stroke-width:0.01897284;stroke-miterlimit:4;stroke-dasharray:none"
       id="rect3916-6-6"
       width="1.9332314"
       height="17.548458"
       x="-251.92421"
       y="151.67839"
       transform="matrix(-0.95073955,-0.30999082,-0.38231468,0.92403219,0,0)" />
    <rect
       style="fill:#000000;fill-opacity:1;stroke-width:0.03600507;stroke-miterlimit:4;stroke-dasharray:none"
       id="rect3916-8-9-40"
       width="2.5216942"
       height="48.449921"
       x="-138.34451"
       y="250.86873"
       transform="matrix(-0.97729444,0.21188575,0.18811025,0.98214792,0,0)" />
    <rect
       style="fill:#673e0d;fill-opacity:1;stroke-width:0.04013202;stroke-miterlimit:4;stroke-dasharray:none"
       id="rect3964-4"
       width="41.366592"
       height="10.783421"
       x="153.19414"
       y="281.28064"
       transform="matrix(0.99011431,-0.1402628,0.1692743,0.98556898,0,0)" />
    <rect
       style="fill:#372107;fill-opacity:1;stroke-width:0.04690593;stroke-miterlimit:4;stroke-dasharray:none"
       id="rect3966-18"
       width="7.0175467"
       height="5.3917112"
       x="153.01987"
       y="284.62515"
       transform="matrix(0.99011431,-0.1402628,0.1692743,0.98556898,0,0)" />
    <rect
       style="fill:#372107;fill-opacity:1;stroke-width:0.04690593;stroke-miterlimit:4;stroke-dasharray:none"
       id="rect3966-6-9"
       width="7.0175467"
       height="5.3917112"
       x="188.07739"
       y="284.61014"
       transform="matrix(0.99011431,-0.1402628,0.1692743,0.98556898,0,0)" />
    <path
       id="path858-8-72"
       style="fill:#000000;stroke-width:0.16262242"
       d="m 225.75768,227.39504 c -1.78831,-0.9891 -3.52932,-1.40058 -6.27594,-1.48533 -2.44563,-0.0754 -6.41501,0.61674 -8.4885,1.48008 -3.66749,1.52699 -5.97286,3.54035 -6.99911,6.11452 -0.65686,1.6476 -0.7341,2.77861 -0.31583,4.62018 0.35771,1.57524 0.91732,2.60488 1.95598,3.60046 0.95549,0.91585 1.1404,1.27971 1.39051,2.7384 0.19464,1.13499 0.32637,1.48031 0.74699,1.95367 l 0.40499,0.45559 c 0.26671,0.14831 0.54413,0.27916 0.81427,0.42196 0.38229,0.15421 0.61772,0.45359 0.79497,0.79693 0.01,0.003 0.0189,0.007 0.0279,0.01 -0.0232,-0.0319 -0.0565,-0.0726 -0.0558,-0.0726 0.0308,-0.002 0.0589,0.0162 0.0874,0.0261 0.19921,0.0681 0.25353,0.11848 0.31968,0.21147 0.35669,0.20581 0.56293,0.46711 0.73398,0.84878 0.16616,0.37072 0.30647,0.70347 0.31194,0.73923 0.008,0.0451 -0.0725,0.0645 -0.22832,0.0657 0.0491,0.12671 0.0977,0.25404 0.15517,0.37219 0.006,0.0123 0.0233,0.0156 0.0352,0.0231 0.0431,0.11884 0.086,0.23808 0.12904,0.35692 0.11829,0.2271 0.14718,0.4138 0.16002,0.58898 0.0592,0.0889 0.0944,0.16746 0.0788,0.24968 0.0179,0.0331 0.0283,0.0774 0.0383,0.11153 0.0811,0.27566 0.0512,0.43284 0.0698,0.38287 3.5e-4,-5.2e-4 7.1e-4,-0.003 0.002,-0.003 0.003,-0.01 0.003,-0.0105 0.0102,-0.0322 0.0127,0.11442 0.009,0.10234 0.0127,0.1535 0.008,0.0318 0.0155,0.0667 0.0289,0.13949 -0.0149,-0.0457 -0.014,-0.0297 0.10042,0.33298 -0.008,-0.032 -0.0493,-0.11677 -0.0235,-0.096 0.0419,0.0334 0.0555,0.0904 0.0777,0.13816 0.1476,0.31952 0.0722,0.18517 0.12285,0.60688 0.002,0.0111 0.0161,-0.0288 0.0256,-0.0241 0.0492,0.11999 0.0663,0.16976 0.0738,0.21256 0.30565,0.41257 0.60808,0.99202 0.50952,1.12024 0.0265,0.0453 0.0208,0.0372 0.0937,0.15715 0.14211,0.83326 0.01,0.10127 0.033,0.1102 0.0761,0.0288 0.0852,0.12747 0.11892,0.2018 0.009,0.0129 0.0209,0.0244 0.0294,0.0379 0.001,0.002 -0.003,-0.002 -0.007,-0.003 0.0669,0.0898 0.13429,0.17921 0.20121,0.26907 0.008,0.0323 0.007,0.0398 0.0117,0.0662 0.51246,-0.11801 0.95255,-0.0932 1.50343,0.0564 1.48031,0.40161 3.39539,0.42648 5.34874,0.0691 1.99382,-0.36478 3.28647,-0.86195 4.73739,-1.82377 0.10204,-0.0677 0.17167,-0.10322 0.2609,-0.15946 0.0246,-0.039 0.0351,-0.062 0.0626,-0.10494 -0.005,-0.007 -0.007,-0.01 -0.0129,-0.0172 -0.13793,-0.17909 0.23933,-0.40082 0.36025,-0.60005 0.12243,-0.20174 0.24731,-0.4023 0.37038,-0.60373 0.0141,-0.0189 0.024,-0.0403 0.0391,-0.0588 0.043,-0.0743 0.0589,-0.0988 0.11346,-0.19353 0.005,-0.008 0.21997,-0.38404 0.4317,-0.75723 -0.0442,-0.17545 -0.0699,-0.35464 -0.045,-0.54498 -0.002,-0.13573 -0.0113,-0.2715 -0.006,-0.40742 0.002,-0.0306 0.0432,-0.15785 0.0394,-0.20097 -0.0333,-0.41242 -0.0814,-0.20096 -0.0502,-0.70053 0.001,-0.0331 0.0264,-0.062 0.0396,-0.093 -0.005,-0.2391 -0.0174,-0.38101 0.0181,-0.62562 0.006,-0.037 0.037,-0.0691 0.0399,-0.1063 0.0102,-0.13015 -0.004,-0.2597 -0.001,-0.38992 0.008,-0.37079 0.0433,-0.74115 0.0421,-1.11186 -0.032,-0.0974 -0.0473,-0.264 -0.0513,-0.5498 -0.0124,-0.85907 0.10169,-1.17884 1.32767,-1.93854 -0.0134,-0.3092 0.1324,-0.55761 0.41789,-0.87089 0.14304,-0.15682 0.30458,-0.29728 0.45733,-0.44566 0.0428,-0.0417 0.0836,-0.068 0.12549,-0.10182 -0.0155,0.007 -0.031,0.0134 -0.0469,0.0188 l -0.5969,0.20449 0.39432,-0.93865 c 0.3562,-0.84408 0.37145,-1.03763 0.14967,-1.93168 -0.1356,-0.54656 -0.31676,-1.08777 -0.40143,-1.20127 -0.0954,-0.12744 0.0347,-0.52239 0.34102,-1.03559 1.60306,-2.68482 1.78237,-5.18847 0.54464,-7.6308 -0.75073,-1.48135 -1.52472,-2.23994 -3.26843,-3.20436 z m -12.89976,27.66409 c -0.007,-0.0102 -0.0147,-0.0198 -0.0221,-0.0296 0.002,0.007 0.005,0.015 0.009,0.021 0.004,0.005 0.009,0.007 0.0134,0.008 z m -0.0221,-0.0296 -0.003,-0.005 c -0.0138,-0.0177 -0.0276,-0.0353 -0.0416,-0.0533 0.0145,0.0194 0.0284,0.0392 0.0428,0.0586 z m 12.12726,-27.19989 c 1.61099,0.83343 2.84669,2.06116 3.45278,3.50352 0.47999,1.14234 0.63691,3.1614 0.3386,4.32907 -0.24165,0.94462 -0.91173,2.33451 -1.14723,2.37795 -0.27857,0.0512 -0.53602,-2.51901 -0.37662,-3.76183 0.19542,-1.52369 0.16883,-1.74569 -0.23342,-1.9233 -0.43884,-0.1937 -0.53495,0.0508 -0.63265,1.60134 -0.10467,1.66013 0.31446,4.22445 0.97352,5.95116 0.61857,1.62072 0.57276,2.28282 -0.2144,3.04515 -0.42618,0.41276 -0.61444,0.49364 -1.2214,0.52483 -1.62786,0.0837 -3.05948,1.28793 -3.18647,2.68108 -0.0604,0.66338 -0.16978,0.88532 -0.59294,1.19529 l -0.001,-2.7e-4 c -0.45722,0.33517 -0.86099,0.4431 -3.37252,0.89497 -3.71114,0.66773 -4.40322,0.56995 -4.60012,-0.65072 -0.0952,-0.58884 -0.82378,-1.26869 -1.52686,-1.4244 -0.30071,-0.0666 -1.17708,-0.0491 -1.94817,0.0379 -1.26495,0.14265 -1.46611,0.12266 -2.05677,-0.20344 -0.59212,-0.32695 -0.66673,-0.44243 -0.78405,-1.20617 -0.0717,-0.46431 -0.0743,-1.25445 -0.007,-1.7563 0.18864,-1.40356 -0.0157,-3.40073 -0.47014,-4.58848 -0.5112,-1.33636 -1.25657,-2.44197 -1.60404,-2.37877 -0.17152,0.0306 -0.21866,0.13212 -0.13131,0.28301 0.73077,1.25896 2.02829,5.88605 1.61638,5.76484 -0.34644,-0.10202 -1.4461,-1.40486 -2.07109,-2.45505 -0.72066,-1.21096 -1.10055,-3.26159 -0.85159,-4.59278 0.53671,-2.86979 2.90116,-5.29389 6.8162,-6.98668 1.14154,-0.49357 1.75673,-0.65362 4.19068,-1.09551 3.27307,-0.59423 4.29632,-0.61406 6.83782,-0.12629 0.73778,0.14123 1.43935,0.35476 2.09206,0.62797 0.24478,0.10241 0.48159,0.21316 0.71173,0.33224 z m -0.49591,9.82858 c -0.45741,-0.23996 -1.08625,-0.23207 -2.79274,-0.0945 -1.95763,0.1578 -2.66323,0.33775 -2.87225,0.73253 -0.19522,0.36871 -0.1365,1.73442 0.0894,2.08582 0.21326,0.33177 2.2209,1.39853 3.36862,1.79045 0.85818,0.293 1.4591,0.0621 2.24169,-0.86178 1.05877,-1.24976 1.21616,-2.55556 0.39945,-3.32538 -0.14782,-0.13935 -0.28166,-0.24713 -0.43412,-0.32709 z m 1.20222,6.57921 c 0.0421,0.0239 0.0114,0.44608 -0.0673,0.93837 -0.0786,0.49222 -0.0845,1.78569 -0.0145,2.87454 0.0699,1.08888 0.0626,2.34707 -0.016,2.79598 -0.18095,1.03602 -1.05794,2.14287 -2.23566,2.82141 -0.76219,0.43918 -1.20558,0.5697 -3.36804,0.9962 -3.22959,0.63701 -4.41424,0.56718 -5.88532,-0.34968 -0.95546,-0.59545 -1.18952,-1.06295 -1.78482,-3.5524 -0.35484,-1.48386 -0.64355,-2.29828 -1.02931,-2.90804 -0.56988,-0.90077 -0.582,-1.01189 -0.11121,-0.95427 0.48053,0.0588 1.35413,1.66301 1.73799,3.19223 0.38148,1.51983 0.69414,1.91304 1.75586,2.20093 2.04725,0.55509 6.81457,-0.26822 8.80848,-1.52158 1.07921,-0.67841 1.24956,-1.07453 1.19472,-2.77392 -0.0532,-1.64862 0.23304,-3.20023 0.65716,-3.56289 0.15432,-0.13178 0.31568,-0.22057 0.35781,-0.19688 z m -10.6349,-5.45477 c -0.0596,-0.0242 -0.11985,-0.0406 -0.18212,-0.0477 -0.47597,-0.0556 -4.16961,0.95171 -4.64739,1.26736 -1.36672,0.90289 -1.08954,2.61076 0.59933,3.69769 0.36005,0.23171 0.82752,0.44534 1.03967,0.47464 0.80544,0.11128 1.19911,-0.0794 2.17963,-1.0607 2.09315,-2.09486 2.0175,-1.98488 1.89154,-2.76565 -0.131,-0.80908 -0.46545,-1.39328 -0.88071,-1.56557 z m 9.17601,5.9896 c 0.0185,0.0178 0.0343,0.0491 0.0445,0.0938 0.0409,0.17878 0.0152,0.57593 -0.0686,1.22831 -0.09,0.70151 -0.10026,1.66891 -0.0235,2.14933 0.0915,0.57361 0.0604,0.98702 -0.0922,1.20387 -0.2129,0.30229 -0.24987,0.18279 -0.43027,-1.41414 -0.19508,-1.72697 -0.1145,-2.59826 0.28474,-3.08457 0.13656,-0.16631 0.22944,-0.23041 0.28528,-0.1766 z m -6.34488,-3.04659 c -0.0642,-0.0393 -0.12315,-0.064 -0.17851,-0.0714 -0.33203,-0.0446 -0.53375,0.52543 -0.91897,2.17589 -0.27342,1.17176 -0.47787,2.2505 -0.45437,2.39765 0.0297,0.18455 0.12649,0.22485 0.3113,0.12926 0.14734,-0.0763 0.50114,-0.18125 0.78725,-0.23326 l 0.52067,-0.0948 -0.22935,-1.42238 c -0.28963,-1.79531 -0.25691,-2.41635 0.11911,-2.25034 0.19903,0.088 0.33813,0.53304 0.52269,1.67696 0.19742,1.22371 0.31814,1.59543 0.56698,1.7332 0.4059,0.22503 1.37384,0.0636 1.3278,-0.22175 -0.0578,-0.35968 -1.83909,-3.36809 -2.16588,-3.65836 -0.0756,-0.067 -0.14469,-0.12129 -0.20879,-0.16068 z m 13.49804,10.95378 c -0.0543,0.0113 -0.10628,0.0241 -0.16772,0.0273 -0.0191,0.0562 -0.0387,0.11355 -0.0587,0.17437 0.0296,0.0102 0.0589,0.0162 0.0889,0.0237 z m -18.89148,-5.80623 c 0.62968,0.27632 0.99709,0.98111 1.38191,2.65149 0.20632,0.89567 0.31991,1.63875 0.25343,1.6507 -0.21443,0.0394 -0.58473,-0.63832 -0.68792,-1.25748 -0.0867,-0.52233 -0.26617,-0.971 -1.14641,-2.86024 -0.14768,-0.31697 -0.13334,-0.33033 0.19906,-0.18448 z m -0.9563,4.69393 c -2.2e-4,6e-4 -0.002,0.003 -0.002,0.003 -0.004,-0.009 0.008,0.02 0.002,-0.003 z m 0.18978,0.717 c 0.006,0.0345 0.004,0.0166 0.0124,0.0605 0.007,0.0375 -0.0305,0.10842 0.009,0.11405 0.0244,0.004 -7.1e-4,-0.10049 -0.0211,-0.17463 z"
       inkscape:connector-curvature="0" />
    <rect
       style="fill:#000000;fill-opacity:1;stroke-width:0.0182376;stroke-miterlimit:4;stroke-dasharray:none"
       id="rect3916-4"
       width="1.7762259"
       height="17.647999"
       x="16.896276"
       y="290.35025"
       transform="matrix(0.80181695,-0.59756972,0.63130724,0.77553283,0,0)" />
    <rect
       style="fill:#000000;fill-opacity:1;stroke-width:0.03650743;stroke-miterlimit:4;stroke-dasharray:none"
       id="rect3916-8-29"
       width="2.5954819"
       height="48.395206"
       x="161.66345"
       y="228.11406"
       transform="matrix(0.99754946,-0.06996481,0.14987966,0.98870425,0,0)" />
    <rect
       style="fill:#000000;fill-opacity:1;stroke-width:0.01897284;stroke-miterlimit:4;stroke-dasharray:none"
       id="rect3916-6-2"
       width="1.9332314"
       height="17.548458"
       x="-293.92029"
       y="129.2562"
       transform="matrix(-0.95073955,-0.30999082,-0.38231468,0.92403219,0,0)" />
    <rect
       style="fill:#000000;fill-opacity:1;stroke-width:0.03600507;stroke-miterlimit:4;stroke-dasharray:none"
       id="rect3916-8-9-6"
       width="2.5216942"
       height="48.449921"
       x="-187.44138"
       y="253.62036"
       transform="matrix(-0.97729444,0.21188575,0.18811025,0.98214792,0,0)" />
  </g>
</svg>
