<?xml version="1.0" encoding="UTF-8" standalone="no"?>
<!-- Created with Inkscape (http://www.inkscape.org/) -->

<svg
   xmlns:dc="http://purl.org/dc/elements/1.1/"
   xmlns:cc="http://creativecommons.org/ns#"
   xmlns:rdf="http://www.w3.org/1999/02/22-rdf-syntax-ns#"
   xmlns:svg="http://www.w3.org/2000/svg"
   xmlns="http://www.w3.org/2000/svg"
   xmlns:sodipodi="http://sodipodi.sourceforge.net/DTD/sodipodi-0.dtd"
   xmlns:inkscape="http://www.inkscape.org/namespaces/inkscape"
   width="411.92123"
   height="246.18872"
   id="svg2"
   version="1.1"
   inkscape:version="0.92.2 5c3e80d, 2017-08-06"
   sodipodi:docname="Forbidden.svg">
  <defs
     id="defs4">
    <inkscape:perspective
       sodipodi:type="inkscape:persp3d"
       inkscape:vp_x="0 : 526.18109 : 1"
       inkscape:vp_y="0 : 1000 : 0"
       inkscape:vp_z="744.09448 : 526.18109 : 1"
       inkscape:persp3d-origin="372.04724 : 350.78739 : 1"
       id="perspective2985" />
  </defs>
  <sodipodi:namedview
     id="base"
     pagecolor="#ffffff"
     bordercolor="#666666"
     borderopacity="1.0"
     inkscape:pageopacity="0.0"
     inkscape:pageshadow="2"
     inkscape:zoom="1.3295619"
     inkscape:cx="176.81566"
     inkscape:cy="141.07622"
     inkscape:document-units="mm"
     inkscape:current-layer="layer2"
     showgrid="false"
     inkscape:object-nodes="true"
     inkscape:window-width="1440"
     inkscape:window-height="766"
     inkscape:window-x="0"
     inkscape:window-y="1"
     inkscape:window-maximized="1"
     showguides="true"
     inkscape:guide-bbox="true"
     units="mm"
     fit-margin-top="0"
     fit-margin-left="0"
     fit-margin-right="0"
     fit-margin-bottom="0"
     inkscape:measure-start="0,0"
     inkscape:measure-end="0,0" />
  <metadata
     id="metadata7">
    <rdf:RDF>
      <cc:Work
         rdf:about="">
        <dc:format>image/svg+xml</dc:format>
        <dc:type
           rdf:resource="http://purl.org/dc/dcmitype/StillImage" />
        <dc:title />
      </cc:Work>
    </rdf:RDF>
  </metadata>
  <g
     inkscape:label="Layer 1"
     inkscape:groupmode="layer"
     id="layer1"
     transform="translate(-62.014826,-648.54927)"
     sodipodi:insensitive="true">
    <path
       inkscape:connector-curvature="0"
       id="path3908"
       d="M 473.43611,771.64365 267.97542,649.04926 62.514778,771.64361 267.97547,894.238 Z"
       style="fill:#2d2d2d;fill-opacity:1;stroke:#000000;stroke-width:0.99999994px;stroke-linecap:round;stroke-linejoin:round;stroke-opacity:1" />
    <path
       style="stroke-width:0.50507629"
       d=""
       id="path3967"
       inkscape:connector-curvature="0"
       transform="translate(53.643411,569.625)" />
    <path
       style="stroke-width:0.50507629"
       d=""
       id="path4211"
       inkscape:connector-curvature="0"
       transform="translate(53.643411,569.625)" />
    <path
       style="stroke-width:0.50507629"
       d=""
       id="path4253"
       inkscape:connector-curvature="0"
       transform="translate(53.643411,569.625)" />
  </g>
  <g
     inkscape:groupmode="layer"
     id="layer3"
     inkscape:label="Layer 3"
     transform="translate(-8.3714146,-78.924268)">
    <rect
       style="fill:#673e0d;fill-opacity:1;stroke-width:0.04815098;stroke-miterlimit:4;stroke-dasharray:none"
       id="rect3964"
       width="53.531918"
       height="11.995593"
       x="57.968975"
       y="218.21327"
       transform="matrix(0.99278253,-0.11992848,0.19745025,0.98031291,0,0)" />
    <rect
       style="fill:#372107;fill-opacity:1;stroke-width:0.05627842;stroke-miterlimit:4;stroke-dasharray:none"
       id="rect3966"
       width="9.0813065"
       height="5.9977975"
       x="57.743443"
       y="221.93373"
       transform="matrix(0.99278253,-0.11992848,0.19745025,0.98031291,0,0)" />
    <rect
       style="fill:#372107;fill-opacity:1;stroke-width:0.05627842;stroke-miterlimit:4;stroke-dasharray:none"
       id="rect3966-6"
       width="9.0813065"
       height="5.9977975"
       x="103.11089"
       y="221.91704"
       transform="matrix(0.99278253,-0.11992848,0.19745025,0.98031291,0,0)" />
  </g>
  <g
     inkscape:groupmode="layer"
     id="layer2"
     inkscape:label="Layer 2"
     transform="translate(-8.3714146,-78.924268)">
    <path
       id="path858-8"
       style="fill:#000000;stroke-width:0.19485779"
       d="m 134.97631,175.60867 c -2.32046,-1.09442 -4.57955,-1.54971 -8.14349,-1.64349 -3.17339,-0.0834 -8.32395,0.68241 -11.01445,1.63768 -4.75884,1.68958 -7.75022,3.91732 -9.08186,6.76558 -0.85232,1.82304 -0.95255,3.07447 -0.40981,5.11213 0.46415,1.74297 1.19029,2.88224 2.53803,3.98383 1.23981,1.01337 1.47975,1.41597 1.80428,3.02998 0.25256,1.25584 0.42349,1.63793 0.96928,2.16169 l 0.5255,0.50411 c 0.34608,0.1641 0.70605,0.30888 1.05658,0.46688 0.49605,0.17063 0.80153,0.50189 1.03153,0.88179 0.013,0.003 0.0245,0.008 0.0362,0.0111 -0.0301,-0.0353 -0.0733,-0.0803 -0.0724,-0.0803 0.04,-0.002 0.0764,0.0179 0.1134,0.0289 0.25849,0.0754 0.32898,0.1311 0.41481,0.23399 0.46283,0.22773 0.73045,0.51685 0.9524,0.93916 0.2156,0.41019 0.39766,0.77837 0.40476,0.81794 0.0104,0.0499 -0.0941,0.0714 -0.29626,0.0727 0.0637,0.14021 0.12677,0.28109 0.20134,0.41182 0.008,0.0136 0.0302,0.0173 0.0457,0.0256 0.0559,0.1315 0.11159,0.26343 0.16744,0.39493 0.15349,0.25128 0.19097,0.45786 0.20763,0.65169 0.0768,0.0984 0.1225,0.18529 0.10225,0.27627 0.0232,0.0366 0.0367,0.0856 0.0497,0.1234 0.10523,0.30502 0.0664,0.47893 0.0906,0.42364 4.5e-4,-5.7e-4 9.2e-4,-0.003 0.003,-0.003 0.004,-0.0111 0.004,-0.0116 0.0132,-0.0356 0.0165,0.12661 0.0117,0.11324 0.0165,0.16985 0.0104,0.0352 0.0201,0.0738 0.0375,0.15434 -0.0193,-0.0506 -0.0182,-0.0329 0.1303,0.36843 -0.0104,-0.0354 -0.064,-0.1292 -0.0305,-0.10622 0.0544,0.037 0.072,0.10003 0.10082,0.15287 0.19152,0.35355 0.0937,0.20489 0.15941,0.6715 0.003,0.0123 0.0209,-0.0319 0.0332,-0.0267 0.0638,0.13276 0.086,0.18783 0.0958,0.23519 0.3966,0.4565 0.78902,1.09765 0.66114,1.23952 0.0344,0.0501 0.027,0.0412 0.12158,0.17388 0.1844,0.92199 0.013,0.11206 0.0428,0.12194 0.0987,0.0319 0.11055,0.14104 0.15431,0.22329 0.0117,0.0143 0.0271,0.027 0.0381,0.0419 0.001,0.002 -0.004,-0.002 -0.009,-0.003 0.0868,0.0994 0.17425,0.19829 0.26109,0.29772 0.0104,0.0357 0.009,0.044 0.0152,0.0733 0.66495,-0.13057 1.236,-0.10312 1.95081,0.0624 1.92081,0.44437 4.40576,0.47189 6.94038,0.0764 2.58713,-0.40362 4.26443,-0.95373 6.14711,-2.01796 0.1324,-0.0749 0.22275,-0.11421 0.33854,-0.17644 0.0319,-0.0431 0.0455,-0.0686 0.0812,-0.11611 -0.006,-0.008 -0.009,-0.0111 -0.0167,-0.019 -0.17898,-0.19816 0.31054,-0.4435 0.46745,-0.66394 0.15886,-0.22323 0.3209,-0.44514 0.48059,-0.66802 0.0183,-0.0209 0.0311,-0.0446 0.0507,-0.0651 0.0558,-0.0822 0.0764,-0.10932 0.14722,-0.21414 0.006,-0.009 0.28543,-0.42493 0.56016,-0.83785 -0.0574,-0.19414 -0.0907,-0.39241 -0.0584,-0.60301 -0.003,-0.15019 -0.0147,-0.30041 -0.008,-0.4508 0.003,-0.0339 0.0561,-0.17466 0.0511,-0.22237 -0.0432,-0.45634 -0.10562,-0.22236 -0.0651,-0.77512 10e-4,-0.0366 0.0343,-0.0686 0.0514,-0.10291 -0.006,-0.26456 -0.0226,-0.42158 0.0235,-0.69223 0.008,-0.0409 0.048,-0.0765 0.0518,-0.11762 0.0132,-0.14401 -0.005,-0.28735 -0.001,-0.43144 0.0104,-0.41027 0.0562,-0.82007 0.0546,-1.23025 -0.0415,-0.10777 -0.0614,-0.29211 -0.0666,-0.60834 -0.0161,-0.95054 0.13195,-1.30436 1.72275,-2.14495 -0.0174,-0.34212 0.1718,-0.61698 0.54224,-0.96362 0.18561,-0.17352 0.39522,-0.32894 0.59342,-0.49312 0.0555,-0.0461 0.10848,-0.0752 0.16283,-0.11266 -0.0201,0.008 -0.0402,0.0148 -0.0609,0.0208 l -0.77453,0.22627 0.51166,-1.0386 c 0.4622,-0.93395 0.48199,-1.14811 0.19421,-2.13736 -0.17595,-0.60476 -0.41102,-1.20359 -0.52088,-1.32918 -0.12379,-0.14101 0.045,-0.57801 0.44249,-1.14586 2.08009,-2.97069 2.31276,-5.74093 0.70672,-8.44331 -0.97413,-1.63908 -1.97844,-2.47844 -4.24103,-3.54555 z m -16.73838,30.60971 c -0.009,-0.0113 -0.0191,-0.0219 -0.0287,-0.0327 0.003,0.008 0.006,0.0166 0.0117,0.0232 0.005,0.006 0.0117,0.008 0.0174,0.009 z m -0.0287,-0.0327 -0.004,-0.006 c -0.0179,-0.0196 -0.0358,-0.0391 -0.054,-0.059 0.0188,0.0215 0.0369,0.0434 0.0555,0.0648 z m 15.73601,-30.09609 c 2.09037,0.92218 3.69379,2.28063 4.48023,3.87657 0.62282,1.26398 0.82644,3.49802 0.43936,4.79002 -0.31356,1.04521 -1.18304,2.58309 -1.48862,2.63115 -0.36146,0.0567 -0.69552,-2.78723 -0.48869,-4.16238 0.25357,-1.68593 0.21907,-1.93157 -0.30288,-2.12809 -0.56942,-0.21432 -0.69413,0.0562 -0.82091,1.77185 -0.13581,1.8369 0.40804,4.67426 1.26322,6.58483 0.80264,1.79329 0.74319,2.52589 -0.2782,3.36939 -0.553,0.45671 -0.79728,0.5462 -1.58486,0.58071 -2.11227,0.0926 -3.9699,1.42507 -4.13468,2.96656 -0.0784,0.73402 -0.2203,0.97959 -0.76938,1.32256 l -0.001,-3e-4 c -0.59327,0.37086 -1.11719,0.49028 -4.37609,0.99027 -4.81547,0.73883 -5.7135,0.63064 -5.96899,-0.72001 -0.12353,-0.65154 -1.06891,-1.40378 -1.98121,-1.57607 -0.3902,-0.0737 -1.52735,-0.0543 -2.5279,0.0419 -1.64136,0.15784 -1.90238,0.13572 -2.6688,-0.2251 -0.76832,-0.36177 -0.86514,-0.48954 -1.01737,-1.3346 -0.093,-0.51375 -0.0964,-1.38803 -0.009,-1.94331 0.24477,-1.55301 -0.0204,-3.76284 -0.61004,-5.07706 -0.66332,-1.47865 -1.63049,-2.70198 -2.08136,-2.63205 -0.22256,0.0339 -0.28373,0.14619 -0.17038,0.31314 0.94822,1.39301 2.63185,6.51279 2.09737,6.37867 -0.44953,-0.11288 -1.87642,-1.55445 -2.68739,-2.71646 -0.93511,-1.3399 -1.42805,-3.60888 -1.105,-5.08181 0.69642,-3.17536 3.76446,-5.85757 8.84451,-7.73061 1.48124,-0.54612 2.27949,-0.72321 5.43772,-1.21216 4.24704,-0.6575 5.57479,-0.67944 8.87257,-0.13973 0.95732,0.15627 1.86766,0.39253 2.7146,0.69483 0.31762,0.11332 0.6249,0.23586 0.92352,0.36762 z m -0.64348,10.87511 c -0.59353,-0.26551 -1.40949,-0.25678 -3.62379,-0.10456 -2.54016,0.1746 -3.45573,0.37371 -3.72695,0.81053 -0.25331,0.40797 -0.17712,1.9191 0.116,2.30791 0.27672,0.3671 2.88178,1.54745 4.37103,1.9811 1.11355,0.3242 1.89329,0.0687 2.90876,-0.95354 1.37383,-1.38284 1.57806,-2.82767 0.51831,-3.67946 -0.1918,-0.15419 -0.36547,-0.27345 -0.5633,-0.36192 z m 1.55997,7.27976 c 0.0546,0.0264 0.0148,0.49357 -0.0873,1.03828 -0.10199,0.54463 -0.10965,1.97583 -0.0188,3.18062 0.0907,1.20482 0.0812,2.59698 -0.0208,3.09369 -0.23479,1.14633 -1.37275,2.37104 -2.90093,3.12183 -0.989,0.48594 -1.56433,0.63036 -4.37028,1.10227 -4.19063,0.70484 -5.7278,0.62757 -7.63663,-0.38691 -1.23978,-0.65885 -1.54349,-1.17613 -2.31593,-3.93066 -0.46044,-1.64185 -0.83506,-2.54299 -1.33561,-3.21768 -0.73946,-0.99668 -0.75519,-1.11963 -0.1443,-1.05588 0.62352,0.0651 1.75708,1.84009 2.25517,3.53214 0.49499,1.68165 0.90069,2.11673 2.27835,2.43528 2.65646,0.61419 8.84241,-0.29678 11.42965,-1.6836 1.40035,-0.75064 1.6214,-1.18894 1.55024,-3.06928 -0.069,-1.82416 0.30238,-3.54099 0.85271,-3.94226 0.20024,-0.14581 0.40962,-0.24406 0.46428,-0.21784 z m -13.79956,-6.03559 c -0.0773,-0.0268 -0.15552,-0.0449 -0.23632,-0.0528 -0.6176,-0.0615 -5.41037,1.05305 -6.03033,1.40231 -1.77342,0.99903 -1.41375,2.88875 0.77768,4.09141 0.46719,0.25638 1.07377,0.49276 1.34905,0.52518 1.04511,0.12313 1.55593,-0.0879 2.82822,-1.17364 2.71602,-2.31792 2.61786,-2.19623 2.45442,-3.06013 -0.16999,-0.89523 -0.60396,-1.54164 -1.14279,-1.73227 z m 11.90654,6.62736 c 0.024,0.0197 0.0445,0.0543 0.0577,0.10379 0.0531,0.19782 0.0197,0.63726 -0.089,1.3591 -0.11678,0.7762 -0.1301,1.84661 -0.0305,2.37819 0.11873,0.63468 0.0784,1.09211 -0.11963,1.33205 -0.27625,0.33448 -0.32423,0.20226 -0.55831,-1.56471 -0.25313,-1.91086 -0.14857,-2.87492 0.36947,-3.41301 0.1772,-0.18402 0.29772,-0.25495 0.37017,-0.19541 z m -8.23295,-3.37098 c -0.0833,-0.0435 -0.15979,-0.0708 -0.23163,-0.079 -0.43083,-0.0494 -0.69258,0.58137 -1.19243,2.40757 -0.35478,1.29653 -0.62007,2.49013 -0.58958,2.65295 0.0385,0.2042 0.16413,0.24879 0.40394,0.14302 0.19118,-0.0844 0.65027,-0.20055 1.02151,-0.2581 l 0.67561,-0.10489 -0.2976,-1.57383 c -0.37581,-1.98647 -0.33336,-2.67364 0.15456,-2.48995 0.25825,0.0974 0.43875,0.58979 0.67823,1.85552 0.25616,1.354 0.41281,1.7653 0.73569,1.91774 0.52669,0.24899 1.78266,0.0704 1.72292,-0.24536 -0.075,-0.39798 -2.38635,-3.72672 -2.81039,-4.04789 -0.0981,-0.0741 -0.18774,-0.13421 -0.27092,-0.17779 z m 17.5147,12.12012 c -0.0705,0.0125 -0.13791,0.0267 -0.21763,0.0302 -0.0248,0.0622 -0.0502,0.12564 -0.0762,0.19294 0.0384,0.0113 0.0764,0.0179 0.11535,0.0262 z m -24.51308,-6.42447 c 0.81706,0.30574 1.2938,1.08558 1.79313,2.93382 0.26772,0.99104 0.41511,1.81324 0.32884,1.82646 -0.27823,0.0436 -0.75873,-0.70629 -0.89262,-1.39137 -0.1125,-0.57795 -0.34538,-1.0744 -1.48755,-3.1648 -0.19163,-0.35072 -0.17302,-0.3655 0.25829,-0.20412 z m -1.24087,5.19373 c -2.8e-4,6.7e-4 -0.003,0.003 -0.003,0.003 -0.005,-0.01 0.0104,0.0221 0.003,-0.003 z m 0.24626,0.79335 c 0.008,0.0382 0.005,0.0184 0.0161,0.0669 0.009,0.0415 -0.0396,0.11996 0.0117,0.12619 0.0317,0.004 -9.2e-4,-0.11119 -0.0274,-0.19322 z"
       inkscape:connector-curvature="0" />
    <rect
       style="fill:#000000;fill-opacity:1;stroke-width:0.02205499;stroke-miterlimit:4;stroke-dasharray:none"
       id="rect3916"
       width="2.189625"
       height="20.936419"
       x="-42.158138"
       y="192.67792"
       transform="matrix(0.84398654,-0.53636436,0.69050314,0.72332939,0,0)" />
    <rect
       style="fill:#000000;fill-opacity:1;stroke-width:0.04382126;stroke-miterlimit:4;stroke-dasharray:none"
       id="rect3916-8"
       width="3.3655777"
       height="53.773457"
       x="66.444061"
       y="167.59189"
       transform="matrix(0.99821631,-0.05970091,0.17502856,0.98456336,0,0)" />
    <rect
       style="fill:#000000;fill-opacity:1;stroke-width:0.02288665;stroke-miterlimit:4;stroke-dasharray:none"
       id="rect3916-6"
       width="2.4754045"
       height="19.942356"
       x="-198.1619"
       y="115.47005"
       transform="matrix(-0.96345416,-0.26787326,-0.43653121,0.89968911,0,0)" />
    <rect
       style="fill:#000000;fill-opacity:1;stroke-width:0.0431514;stroke-miterlimit:4;stroke-dasharray:none"
       id="rect3916-8-9"
       width="3.2519794"
       height="53.963516"
       x="-104.15859"
       y="178.95758"
       transform="matrix(-0.98333589,0.18179806,0.2191478,0.97569167,0,0)" />
    <rect
       style="fill:#673e0d;fill-opacity:1;stroke-width:0.04815098;stroke-miterlimit:4;stroke-dasharray:none"
       id="rect3964-5"
       width="53.531918"
       height="11.995593"
       x="127.14241"
       y="219.87979"
       transform="matrix(0.99278253,-0.11992848,0.19745025,0.98031291,0,0)" />
    <rect
       style="fill:#372107;fill-opacity:1;stroke-width:0.05627842;stroke-miterlimit:4;stroke-dasharray:none"
       id="rect3966-1"
       width="9.0813065"
       height="5.9977975"
       x="126.91688"
       y="223.60027"
       transform="matrix(0.99278253,-0.11992848,0.19745025,0.98031291,0,0)" />
    <rect
       style="fill:#372107;fill-opacity:1;stroke-width:0.05627842;stroke-miterlimit:4;stroke-dasharray:none"
       id="rect3966-6-5"
       width="9.0813065"
       height="5.9977975"
       x="172.28432"
       y="223.58356"
       transform="matrix(0.99278253,-0.11992848,0.19745025,0.98031291,0,0)" />
    <path
       id="path858-8-7"
       style="fill:#000000;stroke-width:0.19485779"
       d="m 203.97953,168.94651 c -2.32046,-1.09442 -4.57955,-1.54971 -8.14349,-1.64349 -3.17338,-0.0834 -8.32394,0.68241 -11.01445,1.63768 -4.75883,1.68958 -7.75022,3.91732 -9.08185,6.76558 -0.85233,1.82304 -0.95255,3.07447 -0.40982,5.11213 0.46416,1.74297 1.19029,2.88224 2.53803,3.98383 1.23982,1.01337 1.47975,1.41597 1.80429,3.02998 0.25256,1.25584 0.42349,1.63793 0.96927,2.16169 l 0.52551,0.5041 c 0.34607,0.16411 0.70605,0.30889 1.05657,0.46689 0.49605,0.17063 0.80154,0.50189 1.03153,0.88179 0.013,0.003 0.0245,0.008 0.0362,0.0111 -0.0301,-0.0353 -0.0733,-0.0803 -0.0724,-0.0803 0.04,-0.002 0.0764,0.0179 0.11341,0.0289 0.25849,0.0754 0.32897,0.1311 0.41481,0.23399 0.46283,0.22772 0.73044,0.51685 0.95239,0.93916 0.2156,0.41019 0.39767,0.77837 0.40476,0.81794 0.0104,0.0499 -0.0941,0.0714 -0.29626,0.0727 0.0637,0.14021 0.12678,0.28109 0.20135,0.41182 0.008,0.0136 0.0302,0.0173 0.0457,0.0256 0.0559,0.1315 0.11159,0.26343 0.16744,0.39493 0.15349,0.25128 0.19098,0.45786 0.20764,0.65169 0.0768,0.0984 0.12249,0.18529 0.10225,0.27627 0.0232,0.0366 0.0367,0.0856 0.0497,0.1234 0.10524,0.30501 0.0664,0.47893 0.0906,0.42364 4.6e-4,-5.8e-4 9.3e-4,-0.003 0.003,-0.003 0.004,-0.0111 0.004,-0.0116 0.0132,-0.0356 0.0165,0.12661 0.0117,0.11324 0.0165,0.16985 0.0104,0.0352 0.0201,0.0738 0.0375,0.15434 -0.0193,-0.0506 -0.0182,-0.0329 0.13031,0.36843 -0.0104,-0.0354 -0.064,-0.1292 -0.0305,-0.10622 0.0544,0.037 0.072,0.10003 0.10082,0.15287 0.19153,0.35355 0.0937,0.20489 0.15941,0.6715 0.003,0.0123 0.0209,-0.0319 0.0332,-0.0267 0.0638,0.13276 0.086,0.18783 0.0958,0.23519 0.3966,0.4565 0.78903,1.09765 0.66114,1.23952 0.0344,0.0501 0.027,0.0412 0.12158,0.17388 0.1844,0.92199 0.013,0.11206 0.0428,0.12194 0.0987,0.0319 0.11056,0.14104 0.15431,0.22329 0.0117,0.0143 0.0271,0.027 0.0382,0.0419 0.001,0.002 -0.004,-0.002 -0.009,-0.003 0.0868,0.0994 0.17425,0.19829 0.26108,0.29772 0.0104,0.0357 0.009,0.044 0.0152,0.0733 0.66496,-0.13058 1.23601,-0.10312 1.95081,0.0624 1.92081,0.44437 4.40577,0.47189 6.94038,0.0764 2.58713,-0.40362 4.26444,-0.95373 6.14711,-2.01796 0.13241,-0.0749 0.22276,-0.11421 0.33854,-0.17644 0.0319,-0.0431 0.0455,-0.0686 0.0812,-0.11611 -0.006,-0.008 -0.009,-0.0111 -0.0167,-0.019 -0.17898,-0.19816 0.31055,-0.4435 0.46745,-0.66395 0.15886,-0.22322 0.3209,-0.44513 0.4806,-0.66801 0.0183,-0.0209 0.0311,-0.0446 0.0507,-0.0651 0.0558,-0.0822 0.0764,-0.10932 0.14722,-0.21414 0.006,-0.009 0.28543,-0.42493 0.56017,-0.83786 -0.0574,-0.19413 -0.0907,-0.3924 -0.0584,-0.603 -0.003,-0.15019 -0.0147,-0.30041 -0.008,-0.45081 0.003,-0.0339 0.056,-0.17465 0.0511,-0.22236 -0.0432,-0.45634 -0.10562,-0.22236 -0.0651,-0.77513 0.001,-0.0366 0.0343,-0.0686 0.0514,-0.1029 -0.006,-0.26456 -0.0226,-0.42158 0.0235,-0.69223 0.008,-0.0409 0.048,-0.0765 0.0518,-0.11762 0.0132,-0.14401 -0.005,-0.28735 -0.001,-0.43144 0.0104,-0.41027 0.0562,-0.82007 0.0546,-1.23025 -0.0415,-0.10777 -0.0614,-0.29211 -0.0666,-0.60834 -0.0161,-0.95054 0.13195,-1.30436 1.72275,-2.14495 -0.0174,-0.34213 0.1718,-0.61699 0.54224,-0.96362 0.18561,-0.17352 0.39522,-0.32894 0.59342,-0.49312 0.0555,-0.0461 0.10848,-0.0752 0.16284,-0.11266 -0.0201,0.008 -0.0402,0.0148 -0.0609,0.0208 l -0.77452,0.22627 0.51166,-1.0386 c 0.46219,-0.93395 0.48198,-1.14811 0.19421,-2.13736 -0.17596,-0.60476 -0.41102,-1.20359 -0.52089,-1.32918 -0.12379,-0.14101 0.045,-0.57801 0.4425,-1.14586 2.08009,-2.97069 2.31275,-5.74093 0.70671,-8.44331 -0.97413,-1.63908 -1.97844,-2.47845 -4.24103,-3.54556 z m -16.73838,30.60971 c -0.009,-0.0113 -0.0191,-0.0219 -0.0287,-0.0327 0.003,0.008 0.006,0.0166 0.0117,0.0232 0.005,0.006 0.0117,0.008 0.0174,0.009 z m -0.0287,-0.0327 -0.004,-0.006 c -0.0179,-0.0196 -0.0358,-0.0391 -0.054,-0.059 0.0188,0.0215 0.0369,0.0434 0.0555,0.0648 z m 15.73601,-30.09609 c 2.09038,0.92217 3.69379,2.28063 4.48024,3.87657 0.62282,1.26398 0.82643,3.49802 0.43935,4.79002 -0.31355,1.0452 -1.18303,2.58309 -1.48861,2.63115 -0.36147,0.0566 -0.69553,-2.78723 -0.48869,-4.16238 0.25357,-1.68593 0.21907,-1.93157 -0.30288,-2.12809 -0.56943,-0.21432 -0.69414,0.0562 -0.82091,1.77185 -0.13582,1.8369 0.40803,4.67426 1.26321,6.58483 0.80264,1.79329 0.7432,2.52589 -0.2782,3.36939 -0.553,0.45671 -0.79728,0.5462 -1.58485,0.58071 -2.11227,0.0926 -3.9699,1.42507 -4.13468,2.96656 -0.0784,0.73401 -0.2203,0.97959 -0.76939,1.32256 l -0.001,-3e-4 c -0.59328,0.37086 -1.1172,0.49028 -4.37609,0.99027 -4.81548,0.73883 -5.7135,0.63063 -5.969,-0.72001 -0.12352,-0.65154 -1.06891,-1.40378 -1.98121,-1.57607 -0.39019,-0.0737 -1.52735,-0.0543 -2.52789,0.0419 -1.64137,0.15784 -1.90239,0.13572 -2.66881,-0.2251 -0.76832,-0.36177 -0.86513,-0.48954 -1.01736,-1.33461 -0.093,-0.51374 -0.0964,-1.38802 -0.009,-1.9433 0.24478,-1.55301 -0.0204,-3.76284 -0.61004,-5.07706 -0.66332,-1.47865 -1.63049,-2.70198 -2.08136,-2.63205 -0.22256,0.0339 -0.28372,0.14618 -0.17038,0.31314 0.94823,1.39301 2.63185,6.51279 2.09737,6.37867 -0.44953,-0.11288 -1.87642,-1.55445 -2.68739,-2.71646 -0.93511,-1.3399 -1.42804,-3.60888 -1.105,-5.08181 0.69642,-3.17536 3.76447,-5.85757 8.84452,-7.73061 1.48123,-0.54612 2.27948,-0.72321 5.43771,-1.21216 4.24705,-0.6575 5.57479,-0.67944 8.87257,-0.13973 0.95733,0.15626 1.86766,0.39253 2.7146,0.69483 0.31762,0.11332 0.6249,0.23586 0.92353,0.36762 z m -0.64348,10.87511 c -0.59352,-0.26551 -1.40949,-0.25678 -3.62378,-0.10456 -2.54017,0.1746 -3.45574,0.37371 -3.72696,0.81053 -0.25331,0.40797 -0.17712,1.9191 0.11601,2.30791 0.27672,0.3671 2.88178,1.54745 4.37103,1.9811 1.11355,0.3242 1.89329,0.0687 2.90875,-0.95354 1.37383,-1.38284 1.57806,-2.82768 0.51832,-3.67946 -0.19181,-0.15419 -0.36548,-0.27345 -0.5633,-0.36192 z m 1.55997,7.27976 c 0.0546,0.0264 0.0148,0.49357 -0.0873,1.03828 -0.10199,0.54463 -0.10964,1.97583 -0.0188,3.18062 0.0907,1.20482 0.0812,2.59698 -0.0208,3.09369 -0.2348,1.14633 -1.37276,2.37104 -2.90094,3.12183 -0.98899,0.48594 -1.56432,0.63036 -4.37027,1.10227 -4.19063,0.70484 -5.7278,0.62757 -7.63664,-0.38691 -1.23978,-0.65886 -1.54349,-1.17613 -2.31593,-3.93066 -0.46043,-1.64186 -0.83505,-2.54299 -1.33561,-3.21768 -0.73946,-0.99668 -0.75518,-1.11963 -0.1443,-1.05588 0.62352,0.0651 1.75708,1.84009 2.25517,3.53213 0.495,1.68166 0.9007,2.11674 2.27836,2.43529 2.65645,0.61419 8.8424,-0.29678 11.42964,-1.6836 1.40036,-0.75065 1.6214,-1.18894 1.55024,-3.06928 -0.069,-1.82416 0.30239,-3.54099 0.85271,-3.94226 0.20025,-0.14581 0.40962,-0.24406 0.46429,-0.21784 z m -13.79956,-6.03559 c -0.0773,-0.0268 -0.15551,-0.0449 -0.23631,-0.0528 -0.61761,-0.0615 -5.41038,1.05305 -6.03033,1.40231 -1.77342,0.99903 -1.41376,2.88875 0.77767,4.09141 0.46719,0.25638 1.07377,0.49276 1.34905,0.52518 1.04512,0.12313 1.55593,-0.0879 2.82823,-1.17364 2.71601,-2.31792 2.61785,-2.19623 2.45441,-3.06013 -0.16998,-0.89523 -0.60395,-1.54164 -1.14279,-1.73227 z m 11.90654,6.62736 c 0.024,0.0197 0.0445,0.0543 0.0577,0.10379 0.0531,0.19782 0.0197,0.63725 -0.089,1.3591 -0.11678,0.7762 -0.13009,1.84661 -0.0305,2.37819 0.11873,0.63468 0.0784,1.09211 -0.11964,1.33205 -0.27625,0.33448 -0.32422,0.20225 -0.5583,-1.56471 -0.25313,-1.91086 -0.14858,-2.87492 0.36947,-3.41301 0.17719,-0.18402 0.29771,-0.25495 0.37017,-0.19541 z m -8.23294,-3.37098 c -0.0833,-0.0435 -0.1598,-0.0708 -0.23163,-0.079 -0.43084,-0.0493 -0.69258,0.58138 -1.19243,2.40758 -0.35479,1.29653 -0.62007,2.49013 -0.58958,2.65295 0.0385,0.2042 0.16413,0.24879 0.40393,0.14302 0.19119,-0.0844 0.65027,-0.20055 1.02152,-0.2581 l 0.67561,-0.10489 -0.2976,-1.57383 c -0.37582,-1.98647 -0.33336,-2.67364 0.15455,-2.48996 0.25826,0.0974 0.43875,0.5898 0.67823,1.85552 0.25617,1.35401 0.41281,1.76531 0.7357,1.91775 0.52668,0.24899 1.78266,0.0704 1.72291,-0.24536 -0.075,-0.39798 -2.38635,-3.72672 -2.81038,-4.04789 -0.0981,-0.0741 -0.18775,-0.13421 -0.27092,-0.17779 z m 17.51469,12.12012 c -0.0705,0.0125 -0.1379,0.0267 -0.21763,0.0302 -0.0248,0.0622 -0.0502,0.12564 -0.0762,0.19294 0.0384,0.0113 0.0764,0.0179 0.11536,0.0262 z m -24.51307,-6.42447 c 0.81705,0.30574 1.29379,1.08558 1.79312,2.93382 0.26772,0.99103 0.41511,1.81324 0.32885,1.82646 -0.27824,0.0436 -0.75873,-0.70629 -0.89263,-1.39138 -0.1125,-0.57794 -0.34537,-1.07439 -1.48755,-3.16479 -0.19162,-0.35072 -0.17302,-0.3655 0.2583,-0.20412 z m -1.24087,5.19373 c -2.9e-4,6.6e-4 -0.003,0.003 -0.003,0.003 -0.005,-0.01 0.0104,0.0221 0.003,-0.003 z m 0.24625,0.79335 c 0.008,0.0382 0.005,0.0184 0.0161,0.0669 0.009,0.0415 -0.0396,0.11996 0.0117,0.12619 0.0317,0.004 -9.2e-4,-0.11119 -0.0274,-0.19322 z"
       inkscape:connector-curvature="0" />
    <rect
       style="fill:#000000;fill-opacity:1;stroke-width:0.02205499;stroke-miterlimit:4;stroke-dasharray:none"
       id="rect3916-7"
       width="2.189625"
       height="20.936419"
       x="13.418939"
       y="224.67911"
       transform="matrix(0.84398654,-0.53636436,0.69050314,0.72332939,0,0)" />
    <rect
       style="fill:#000000;fill-opacity:1;stroke-width:0.04382126;stroke-miterlimit:4;stroke-dasharray:none"
       id="rect3916-8-2"
       width="3.3655777"
       height="53.773457"
       x="136.01735"
       y="165.04398"
       transform="matrix(0.99821631,-0.05970091,0.17502856,0.98456336,0,0)" />
    <rect
       style="fill:#000000;fill-opacity:1;stroke-width:0.02288665;stroke-miterlimit:4;stroke-dasharray:none"
       id="rect3916-6-1"
       width="2.4754045"
       height="19.942356"
       x="-258.3129"
       y="90.155739"
       transform="matrix(-0.96345416,-0.26787326,-0.43653121,0.89968911,0,0)" />
    <rect
       style="fill:#000000;fill-opacity:1;stroke-width:0.0431514;stroke-miterlimit:4;stroke-dasharray:none"
       id="rect3916-8-9-4"
       width="3.2519794"
       height="53.963516"
       x="-172.99451"
       y="184.95546"
       transform="matrix(-0.98333589,0.18179806,0.2191478,0.97569167,0,0)" />
    <rect
       style="fill:#673e0d;fill-opacity:1;stroke-width:0.04815098;stroke-miterlimit:4;stroke-dasharray:none"
       id="rect3964-3"
       width="53.531918"
       height="11.995593"
       x="112.46346"
       y="281.32895"
       transform="matrix(0.99278253,-0.11992848,0.19745025,0.98031291,0,0)" />
    <rect
       style="fill:#372107;fill-opacity:1;stroke-width:0.05627842;stroke-miterlimit:4;stroke-dasharray:none"
       id="rect3966-3"
       width="9.0813065"
       height="5.9977975"
       x="112.23792"
       y="285.04944"
       transform="matrix(0.99278253,-0.11992848,0.19745025,0.98031291,0,0)" />
    <rect
       style="fill:#372107;fill-opacity:1;stroke-width:0.05627842;stroke-miterlimit:4;stroke-dasharray:none"
       id="rect3966-6-56"
       width="9.0813065"
       height="5.9977975"
       x="157.60536"
       y="285.03271"
       transform="matrix(0.99278253,-0.11992848,0.19745025,0.98031291,0,0)" />
    <path
       id="path858-8-0"
       style="fill:#000000;stroke-width:0.19485779"
       d="m 201.53968,230.94634 c -2.32046,-1.09441 -4.57955,-1.54971 -8.14349,-1.64348 -3.17338,-0.0834 -8.32395,0.68241 -11.01445,1.63767 -4.75884,1.68959 -7.75022,3.91732 -9.08186,6.76559 -0.85232,1.82303 -0.95255,3.07447 -0.40981,5.11213 0.46416,1.74297 1.19029,2.88224 2.53803,3.98383 1.23982,1.01336 1.47975,1.41597 1.80429,3.02998 0.25256,1.25584 0.42348,1.63793 0.96927,2.16169 l 0.5255,0.5041 c 0.34608,0.1641 0.70605,0.30889 1.05658,0.46689 0.49605,0.17063 0.80154,0.50189 1.03153,0.88179 0.013,0.003 0.0245,0.008 0.0362,0.0111 -0.0301,-0.0353 -0.0733,-0.0803 -0.0724,-0.0803 0.04,-0.002 0.0764,0.0179 0.11341,0.0289 0.25849,0.0754 0.32897,0.13109 0.4148,0.23399 0.46284,0.22772 0.73045,0.51684 0.9524,0.93915 0.2156,0.4102 0.39766,0.77838 0.40476,0.81794 0.0104,0.0499 -0.0941,0.0714 -0.29626,0.0727 0.0637,0.1402 0.12677,0.28109 0.20134,0.41182 0.008,0.0136 0.0302,0.0173 0.0457,0.0256 0.0559,0.13149 0.11159,0.26343 0.16744,0.39492 0.15349,0.25129 0.19097,0.45787 0.20764,0.6517 0.0768,0.0984 0.12249,0.18529 0.10224,0.27626 0.0232,0.0366 0.0367,0.0856 0.0497,0.12341 0.10523,0.30501 0.0664,0.47893 0.0906,0.42364 4.6e-4,-5.8e-4 9.2e-4,-0.003 0.003,-0.003 0.004,-0.0111 0.004,-0.0116 0.0132,-0.0356 0.0165,0.1266 0.0117,0.11324 0.0165,0.16984 0.0104,0.0352 0.0201,0.0738 0.0375,0.15435 -0.0193,-0.0506 -0.0182,-0.0329 0.1303,0.36843 -0.0104,-0.0354 -0.064,-0.1292 -0.0305,-0.10622 0.0544,0.037 0.072,0.10002 0.10082,0.15287 0.19152,0.35354 0.0937,0.20489 0.15941,0.6715 0.003,0.0123 0.0209,-0.0319 0.0332,-0.0267 0.0638,0.13277 0.086,0.18784 0.0958,0.2352 0.3966,0.4565 0.78903,1.09764 0.66114,1.23952 0.0344,0.0501 0.027,0.0412 0.12158,0.17388 0.1844,0.92198 0.013,0.11205 0.0428,0.12193 0.0987,0.0319 0.11055,0.14105 0.15431,0.22329 0.0117,0.0143 0.0271,0.027 0.0382,0.0419 0.001,0.002 -0.004,-0.002 -0.009,-0.003 0.0868,0.0994 0.17425,0.19829 0.26109,0.29772 0.0104,0.0357 0.009,0.044 0.0152,0.0733 0.66495,-0.13058 1.236,-0.10313 1.95081,0.0624 1.92081,0.44437 4.40577,0.47189 6.94038,0.0765 2.58713,-0.40362 4.26444,-0.95373 6.14711,-2.01796 0.1324,-0.0749 0.22275,-0.11421 0.33854,-0.17644 0.0319,-0.0432 0.0455,-0.0686 0.0812,-0.11612 -0.006,-0.008 -0.009,-0.0111 -0.0167,-0.019 -0.17898,-0.19816 0.31054,-0.4435 0.46745,-0.66394 0.15886,-0.22322 0.3209,-0.44514 0.48059,-0.66801 0.0183,-0.0209 0.0311,-0.0446 0.0507,-0.0651 0.0558,-0.0822 0.0764,-0.10932 0.14722,-0.21414 0.006,-0.009 0.28543,-0.42493 0.56016,-0.83786 -0.0573,-0.19413 -0.0907,-0.3924 -0.0584,-0.60301 -0.003,-0.15018 -0.0147,-0.30041 -0.008,-0.4508 0.003,-0.0339 0.056,-0.17466 0.0511,-0.22237 -0.0432,-0.45633 -0.10562,-0.22236 -0.0651,-0.77512 0.001,-0.0366 0.0343,-0.0686 0.0514,-0.1029 -0.006,-0.26456 -0.0226,-0.42158 0.0235,-0.69224 0.008,-0.0409 0.048,-0.0764 0.0518,-0.11762 0.0132,-0.144 -0.005,-0.28735 -0.001,-0.43143 0.0104,-0.41027 0.0562,-0.82007 0.0546,-1.23025 -0.0415,-0.10777 -0.0614,-0.29211 -0.0666,-0.60834 -0.0161,-0.95055 0.13195,-1.30436 1.72275,-2.14496 -0.0174,-0.34212 0.1718,-0.61698 0.54224,-0.96362 0.18561,-0.17351 0.39522,-0.32893 0.59342,-0.49311 0.0555,-0.0461 0.10848,-0.0752 0.16283,-0.11266 -0.0201,0.008 -0.0402,0.0148 -0.0609,0.0208 l -0.77452,0.22626 0.51166,-1.03859 c 0.46219,-0.93396 0.48198,-1.14812 0.1942,-2.13736 -0.17595,-0.60476 -0.41102,-1.2036 -0.52088,-1.32918 -0.12379,-0.14101 0.045,-0.57802 0.4425,-1.14586 2.08008,-2.9707 2.31275,-5.74093 0.70671,-8.44331 -0.97413,-1.63909 -1.97844,-2.47845 -4.24103,-3.54556 z m -16.73838,30.60972 c -0.009,-0.0113 -0.0191,-0.0219 -0.0287,-0.0328 0.003,0.008 0.006,0.0166 0.0117,0.0232 0.005,0.006 0.0117,0.008 0.0174,0.009 z m -0.0287,-0.0328 -0.004,-0.006 c -0.0179,-0.0196 -0.0358,-0.0391 -0.054,-0.059 0.0188,0.0215 0.0368,0.0434 0.0555,0.0648 z m 15.73601,-30.09608 c 2.09038,0.92217 3.69379,2.28063 4.48023,3.87657 0.62282,1.26397 0.82644,3.49802 0.43936,4.79002 -0.31356,1.0452 -1.18304,2.58308 -1.48861,2.63115 -0.36147,0.0566 -0.69553,-2.78723 -0.4887,-4.16238 0.25358,-1.68593 0.21907,-1.93157 -0.30288,-2.12809 -0.56942,-0.21433 -0.69413,0.0562 -0.8209,1.77184 -0.13582,1.8369 0.40803,4.67427 1.26321,6.58483 0.80264,1.79329 0.7432,2.52589 -0.2782,3.3694 -0.553,0.45671 -0.79728,0.5462 -1.58486,0.58071 -2.11226,0.0926 -3.9699,1.42506 -4.13467,2.96656 -0.0784,0.73401 -0.22031,0.97958 -0.76939,1.32256 l -0.001,-3e-4 c -0.59327,0.37086 -1.11719,0.49028 -4.37609,0.99026 -4.81547,0.73883 -5.7135,0.63064 -5.96899,-0.72 -0.12353,-0.65154 -1.06891,-1.40378 -1.98121,-1.57607 -0.39019,-0.0737 -1.52735,-0.0543 -2.52789,0.0419 -1.64137,0.15784 -1.90239,0.13572 -2.66881,-0.2251 -0.76832,-0.36176 -0.86513,-0.48954 -1.01737,-1.3346 -0.093,-0.51375 -0.0964,-1.38802 -0.009,-1.94331 0.24478,-1.55301 -0.0204,-3.76283 -0.61004,-5.07705 -0.66332,-1.47865 -1.63049,-2.70199 -2.08136,-2.63206 -0.22256,0.0339 -0.28373,0.14619 -0.17038,0.31315 0.94822,1.39301 2.63185,6.51278 2.09737,6.37867 -0.44953,-0.11289 -1.87642,-1.55445 -2.68739,-2.71646 -0.93511,-1.3399 -1.42805,-3.60888 -1.105,-5.08181 0.69642,-3.17536 3.76446,-5.85758 8.84452,-7.73061 1.48123,-0.54613 2.27948,-0.72322 5.43771,-1.21216 4.24705,-0.6575 5.57479,-0.67944 8.87257,-0.13974 0.95732,0.15627 1.86766,0.39254 2.7146,0.69484 0.31762,0.11331 0.6249,0.23585 0.92352,0.36761 z m -0.64348,10.87511 c -0.59352,-0.26551 -1.40949,-0.25678 -3.62379,-0.10456 -2.54016,0.1746 -3.45573,0.37371 -3.72695,0.81053 -0.25331,0.40796 -0.17712,1.91909 0.116,2.30791 0.27672,0.3671 2.88178,1.54744 4.37103,1.98109 1.11356,0.3242 1.89329,0.0687 2.90876,-0.95354 1.37383,-1.38283 1.57806,-2.82767 0.51832,-3.67946 -0.19181,-0.15419 -0.36548,-0.27344 -0.56331,-0.36192 z m 1.55997,7.27975 c 0.0546,0.0265 0.0148,0.49358 -0.0873,1.03829 -0.10199,0.54463 -0.10964,1.97582 -0.0188,3.18061 0.0907,1.20483 0.0812,2.59698 -0.0208,3.09369 -0.23479,1.14634 -1.37275,2.37104 -2.90093,3.12183 -0.98899,0.48595 -1.56433,0.63036 -4.37028,1.10228 -4.19062,0.70483 -5.72779,0.62757 -7.63663,-0.38692 -1.23978,-0.65885 -1.54349,-1.17613 -2.31593,-3.93065 -0.46043,-1.64186 -0.83506,-2.543 -1.33561,-3.21768 -0.73946,-0.99669 -0.75519,-1.11964 -0.1443,-1.05588 0.62352,0.0651 1.75708,1.84008 2.25517,3.53213 0.495,1.68166 0.9007,2.11674 2.27835,2.43528 2.65646,0.6142 8.84241,-0.29678 11.42965,-1.68359 1.40036,-0.75065 1.6214,-1.18895 1.55024,-3.06929 -0.069,-1.82416 0.30238,-3.54098 0.85271,-3.94226 0.20024,-0.14581 0.40962,-0.24405 0.46429,-0.21784 z m -13.79956,-6.03558 c -0.0773,-0.0268 -0.15552,-0.0449 -0.23632,-0.0528 -0.6176,-0.0615 -5.41037,1.05304 -6.03033,1.4023 -1.77341,0.99903 -1.41375,2.88875 0.77768,4.09142 0.46719,0.25638 1.07377,0.49276 1.34905,0.52518 1.04511,0.12313 1.55593,-0.0879 2.82823,-1.17364 2.71601,-2.31792 2.61785,-2.19623 2.45441,-3.06014 -0.16998,-0.89523 -0.60396,-1.54163 -1.14279,-1.73227 z m 11.90654,6.62736 c 0.024,0.0197 0.0445,0.0543 0.0577,0.10379 0.0531,0.19781 0.0197,0.63725 -0.089,1.35909 -0.11678,0.77621 -0.1301,1.84662 -0.0305,2.37819 0.11872,0.63469 0.0784,1.09212 -0.11964,1.33206 -0.27625,0.33448 -0.32422,0.20225 -0.55831,-1.56472 -0.25313,-1.91085 -0.14857,-2.87492 0.36947,-3.41301 0.1772,-0.18402 0.29772,-0.25494 0.37018,-0.1954 z m -8.23294,-3.37099 c -0.0833,-0.0435 -0.1598,-0.0708 -0.23163,-0.079 -0.43084,-0.0494 -0.69258,0.58138 -1.19244,2.40758 -0.35478,1.29652 -0.62007,2.49013 -0.58957,2.65294 0.0385,0.2042 0.16413,0.2488 0.40393,0.14303 0.19119,-0.0844 0.65027,-0.20055 1.02152,-0.2581 l 0.6756,-0.10489 -0.2976,-1.57384 c -0.37581,-1.98647 -0.33336,-2.67364 0.15456,-2.48995 0.25825,0.0974 0.43875,0.5898 0.67823,1.85552 0.25616,1.35401 0.41281,1.76531 0.73569,1.91775 0.52669,0.24899 1.78266,0.0704 1.72292,-0.24536 -0.075,-0.39798 -2.38635,-3.72672 -2.81039,-4.0479 -0.0981,-0.0741 -0.18774,-0.1342 -0.27092,-0.17779 z m 17.51469,12.12012 c -0.0705,0.0125 -0.13791,0.0267 -0.21763,0.0302 -0.0248,0.0622 -0.0502,0.12564 -0.0762,0.19294 0.0384,0.0113 0.0764,0.0179 0.11536,0.0262 z m -24.51308,-6.42446 c 0.81706,0.30574 1.2938,1.08557 1.79313,2.93381 0.26772,0.99104 0.41511,1.81324 0.32885,1.82647 -0.27824,0.0436 -0.75873,-0.70629 -0.89263,-1.39138 -0.1125,-0.57795 -0.34538,-1.07439 -1.48755,-3.16479 -0.19163,-0.35072 -0.17302,-0.36551 0.25829,-0.20413 z m -1.24087,5.19373 c -2.8e-4,6.6e-4 -0.003,0.003 -0.003,0.003 -0.005,-0.01 0.0104,0.0221 0.003,-0.003 z m 0.24626,0.79334 c 0.008,0.0382 0.005,0.0184 0.0161,0.0669 0.009,0.0415 -0.0396,0.11997 0.0117,0.1262 0.0317,0.004 -9.2e-4,-0.11119 -0.0274,-0.19323 z"
       inkscape:connector-curvature="0" />
    <rect
       style="fill:#000000;fill-opacity:1;stroke-width:0.02205499;stroke-miterlimit:4;stroke-dasharray:none"
       id="rect3916-3"
       width="2.189625"
       height="20.936419"
       x="-32.027649"
       y="276.69403"
       transform="matrix(0.84398654,-0.53636436,0.69050314,0.72332939,0,0)" />
    <rect
       style="fill:#000000;fill-opacity:1;stroke-width:0.04382126;stroke-miterlimit:4;stroke-dasharray:none"
       id="rect3916-8-5"
       width="3.3655777"
       height="53.773457"
       x="122.67343"
       y="227.20676"
       transform="matrix(0.99821631,-0.05970091,0.17502856,0.98456336,0,0)" />
    <rect
       style="fill:#000000;fill-opacity:1;stroke-width:0.02288665;stroke-miterlimit:4;stroke-dasharray:none"
       id="rect3916-6-6"
       width="2.4754045"
       height="19.942356"
       x="-283.59363"
       y="151.54118"
       transform="matrix(-0.96345416,-0.26787326,-0.43653121,0.89968911,0,0)" />
    <rect
       style="fill:#000000;fill-opacity:1;stroke-width:0.0431514;stroke-miterlimit:4;stroke-dasharray:none"
       id="rect3916-8-9-40"
       width="3.2519794"
       height="53.963516"
       x="-157.01521"
       y="245.52258"
       transform="matrix(-0.98333589,0.18179806,0.2191478,0.97569167,0,0)" />
    <rect
       style="fill:#673e0d;fill-opacity:1;stroke-width:0.04815098;stroke-miterlimit:4;stroke-dasharray:none"
       id="rect3964-4"
       width="53.531918"
       height="11.995593"
       x="176.03468"
       y="280.41461"
       transform="matrix(0.99278253,-0.11992848,0.19745025,0.98031291,0,0)" />
    <rect
       style="fill:#372107;fill-opacity:1;stroke-width:0.05627842;stroke-miterlimit:4;stroke-dasharray:none"
       id="rect3966-18"
       width="9.0813065"
       height="5.9977975"
       x="175.80916"
       y="284.13507"
       transform="matrix(0.99278253,-0.11992848,0.19745025,0.98031291,0,0)" />
    <rect
       style="fill:#372107;fill-opacity:1;stroke-width:0.05627842;stroke-miterlimit:4;stroke-dasharray:none"
       id="rect3966-6-9"
       width="9.0813065"
       height="5.9977975"
       x="221.17661"
       y="284.11838"
       transform="matrix(0.99278253,-0.11992848,0.19745025,0.98031291,0,0)" />
    <path
       id="path858-8-72"
       style="fill:#000000;stroke-width:0.19485779"
       d="m 264.47157,222.426 c -2.32046,-1.09442 -4.57955,-1.54971 -8.14349,-1.64349 -3.17338,-0.0834 -8.32394,0.68241 -11.01445,1.63768 -4.75883,1.68958 -7.75022,3.91732 -9.08185,6.76558 -0.85233,1.82303 -0.95255,3.07447 -0.40982,5.11213 0.46416,1.74297 1.19029,2.88224 2.53803,3.98383 1.23982,1.01337 1.47975,1.41597 1.80429,3.02998 0.25256,1.25584 0.42349,1.63793 0.96927,2.16169 l 0.52551,0.5041 c 0.34607,0.16411 0.70605,0.30889 1.05657,0.46689 0.49605,0.17063 0.80154,0.50189 1.03153,0.88179 0.013,0.003 0.0245,0.008 0.0362,0.0111 -0.0301,-0.0353 -0.0733,-0.0803 -0.0724,-0.0803 0.04,-0.002 0.0764,0.0179 0.11341,0.0289 0.25849,0.0754 0.32897,0.1311 0.41481,0.23399 0.46283,0.22772 0.73044,0.51685 0.95239,0.93916 0.2156,0.41019 0.39767,0.77837 0.40476,0.81794 0.0104,0.0499 -0.0941,0.0714 -0.29626,0.0727 0.0637,0.14021 0.12678,0.28109 0.20135,0.41182 0.008,0.0136 0.0302,0.0173 0.0457,0.0256 0.0559,0.1315 0.11159,0.26343 0.16744,0.39493 0.15349,0.25128 0.19098,0.45786 0.20764,0.65169 0.0768,0.0984 0.12249,0.18529 0.10225,0.27627 0.0232,0.0366 0.0367,0.0856 0.0497,0.1234 0.10524,0.30501 0.0664,0.47893 0.0906,0.42364 4.6e-4,-5.8e-4 9.3e-4,-0.003 0.003,-0.003 0.004,-0.0111 0.004,-0.0116 0.0132,-0.0356 0.0165,0.1266 0.0117,0.11324 0.0165,0.16985 0.0104,0.0352 0.0201,0.0738 0.0375,0.15434 -0.0193,-0.0506 -0.0182,-0.0329 0.13031,0.36843 -0.0104,-0.0354 -0.064,-0.1292 -0.0305,-0.10622 0.0544,0.037 0.072,0.10003 0.10082,0.15287 0.19153,0.35354 0.0937,0.20489 0.15941,0.6715 0.003,0.0123 0.0209,-0.0319 0.0332,-0.0267 0.0638,0.13276 0.086,0.18783 0.0958,0.23519 0.3966,0.4565 0.78903,1.09765 0.66114,1.23952 0.0344,0.0501 0.027,0.0412 0.12158,0.17388 0.1844,0.92199 0.013,0.11206 0.0428,0.12194 0.0987,0.0319 0.11056,0.14104 0.15431,0.22328 0.0117,0.0143 0.0271,0.027 0.0382,0.0419 0.001,0.002 -0.004,-0.002 -0.009,-0.003 0.0868,0.0994 0.17425,0.19829 0.26108,0.29772 0.0104,0.0357 0.009,0.044 0.0152,0.0733 0.66496,-0.13058 1.23601,-0.10312 1.95081,0.0624 1.92081,0.44438 4.40577,0.4719 6.94038,0.0765 2.58713,-0.40362 4.26444,-0.95373 6.14711,-2.01796 0.13241,-0.0749 0.22276,-0.11421 0.33854,-0.17644 0.0319,-0.0431 0.0455,-0.0686 0.0812,-0.11611 -0.006,-0.008 -0.009,-0.0111 -0.0167,-0.019 -0.17898,-0.19816 0.31055,-0.4435 0.46745,-0.66395 0.15886,-0.22322 0.3209,-0.44513 0.4806,-0.66801 0.0183,-0.0209 0.0311,-0.0446 0.0507,-0.0651 0.0558,-0.0822 0.0764,-0.10932 0.14722,-0.21414 0.006,-0.009 0.28543,-0.42493 0.56017,-0.83786 -0.0574,-0.19413 -0.0907,-0.3924 -0.0584,-0.603 -0.003,-0.15019 -0.0147,-0.30041 -0.008,-0.45081 0.003,-0.0339 0.056,-0.17465 0.0511,-0.22237 -0.0432,-0.45633 -0.10562,-0.22235 -0.0651,-0.77512 0.001,-0.0366 0.0342,-0.0686 0.0514,-0.1029 -0.006,-0.26456 -0.0226,-0.42158 0.0235,-0.69223 0.008,-0.0409 0.048,-0.0765 0.0518,-0.11762 0.0132,-0.14401 -0.005,-0.28735 -10e-4,-0.43144 0.0104,-0.41027 0.0562,-0.82007 0.0546,-1.23025 -0.0415,-0.10777 -0.0614,-0.29211 -0.0666,-0.60834 -0.0161,-0.95054 0.13195,-1.30436 1.72275,-2.14495 -0.0174,-0.34213 0.1718,-0.61699 0.54224,-0.96362 0.18561,-0.17352 0.39522,-0.32894 0.59342,-0.49312 0.0555,-0.0461 0.10848,-0.0752 0.16284,-0.11266 -0.0201,0.008 -0.0402,0.0148 -0.0609,0.0208 l -0.77452,0.22627 0.51166,-1.0386 c 0.46219,-0.93395 0.48198,-1.14811 0.19421,-2.13736 -0.17596,-0.60476 -0.41102,-1.20359 -0.52089,-1.32918 -0.12379,-0.14101 0.045,-0.57801 0.4425,-1.14586 2.08009,-2.97069 2.31275,-5.74093 0.70671,-8.44331 -0.97413,-1.63908 -1.97844,-2.47845 -4.24103,-3.54556 z m -16.73838,30.60971 c -0.009,-0.0113 -0.0191,-0.0219 -0.0287,-0.0327 0.003,0.008 0.006,0.0166 0.0117,0.0232 0.005,0.006 0.0117,0.008 0.0174,0.009 z m -0.0287,-0.0327 -0.004,-0.006 c -0.0179,-0.0196 -0.0358,-0.0391 -0.054,-0.059 0.0188,0.0215 0.0369,0.0434 0.0555,0.0648 z m 15.73601,-30.09609 c 2.09038,0.92217 3.69379,2.28063 4.48024,3.87657 0.62282,1.26397 0.82643,3.49802 0.43935,4.79002 -0.31355,1.0452 -1.18303,2.58309 -1.48861,2.63115 -0.36147,0.0566 -0.69553,-2.78723 -0.48869,-4.16238 0.25357,-1.68593 0.21907,-1.93157 -0.30288,-2.12809 -0.56943,-0.21433 -0.69414,0.0562 -0.82091,1.77185 -0.13582,1.8369 0.40803,4.67426 1.26321,6.58483 0.80264,1.79329 0.7432,2.52589 -0.2782,3.36939 -0.553,0.45671 -0.79728,0.5462 -1.58485,0.58071 -2.11227,0.0926 -3.9699,1.42507 -4.13468,2.96656 -0.0784,0.73401 -0.2203,0.97959 -0.76938,1.32256 l -0.001,-3e-4 c -0.59328,0.37086 -1.1172,0.49028 -4.37609,0.99027 -4.81548,0.73883 -5.7135,0.63063 -5.969,-0.72001 -0.12352,-0.65154 -1.06891,-1.40378 -1.98121,-1.57607 -0.39019,-0.0737 -1.52735,-0.0543 -2.52789,0.0419 -1.64137,0.15784 -1.90239,0.13572 -2.66881,-0.2251 -0.76832,-0.36177 -0.86513,-0.48954 -1.01736,-1.33461 -0.093,-0.51374 -0.0964,-1.38802 -0.009,-1.9433 0.24478,-1.55301 -0.0204,-3.76284 -0.61004,-5.07706 -0.66332,-1.47865 -1.63049,-2.70198 -2.08136,-2.63205 -0.22256,0.0339 -0.28372,0.14618 -0.17038,0.31314 0.94823,1.39301 2.63185,6.51279 2.09737,6.37867 -0.44953,-0.11288 -1.87642,-1.55445 -2.68739,-2.71646 -0.93511,-1.3399 -1.42804,-3.60888 -1.105,-5.08181 0.69642,-3.17536 3.76447,-5.85757 8.84452,-7.73061 1.48123,-0.54612 2.27948,-0.72322 5.43771,-1.21216 4.24705,-0.6575 5.57479,-0.67944 8.87257,-0.13973 0.95733,0.15626 1.86766,0.39253 2.7146,0.69483 0.31762,0.11332 0.6249,0.23586 0.92353,0.36762 z m -0.64348,10.87511 c -0.59352,-0.26551 -1.40949,-0.25678 -3.62378,-0.10456 -2.54017,0.1746 -3.45574,0.37371 -3.72696,0.81053 -0.25331,0.40797 -0.17712,1.9191 0.11601,2.30791 0.27672,0.3671 2.88178,1.54745 4.37103,1.9811 1.11355,0.32419 1.89329,0.0687 2.90875,-0.95354 1.37383,-1.38284 1.57806,-2.82768 0.51832,-3.67947 -0.19181,-0.15418 -0.36548,-0.27344 -0.5633,-0.36191 z m 1.55997,7.27975 c 0.0546,0.0264 0.0148,0.49358 -0.0873,1.03829 -0.10199,0.54463 -0.10964,1.97583 -0.0188,3.18062 0.0907,1.20482 0.0812,2.59698 -0.0208,3.09369 -0.2348,1.14633 -1.37276,2.37104 -2.90094,3.12183 -0.98899,0.48594 -1.56432,0.63036 -4.37027,1.10227 -4.19063,0.70484 -5.7278,0.62757 -7.63664,-0.38691 -1.23978,-0.65886 -1.54349,-1.17613 -2.31593,-3.93066 -0.46043,-1.64186 -0.83505,-2.54299 -1.33561,-3.21768 -0.73946,-0.99668 -0.75518,-1.11963 -0.1443,-1.05588 0.62352,0.0651 1.75708,1.84009 2.25517,3.53213 0.495,1.68166 0.9007,2.11674 2.27836,2.43529 2.65645,0.61419 8.8424,-0.29678 11.42964,-1.6836 1.40036,-0.75065 1.6214,-1.18894 1.55024,-3.06928 -0.069,-1.82416 0.30239,-3.54099 0.85271,-3.94226 0.20025,-0.14581 0.40962,-0.24406 0.46429,-0.21785 z m -13.79956,-6.03558 c -0.0773,-0.0268 -0.15551,-0.0449 -0.23631,-0.0528 -0.61761,-0.0615 -5.41038,1.05305 -6.03033,1.40231 -1.77342,0.99903 -1.41376,2.88875 0.77767,4.09141 0.46719,0.25638 1.07377,0.49276 1.34905,0.52518 1.04512,0.12313 1.55593,-0.0879 2.82823,-1.17364 2.71601,-2.31792 2.61785,-2.19623 2.45441,-3.06013 -0.16998,-0.89523 -0.60395,-1.54164 -1.14279,-1.73227 z m 11.90654,6.62736 c 0.024,0.0197 0.0445,0.0543 0.0577,0.10379 0.0531,0.19782 0.0197,0.63725 -0.089,1.3591 -0.11678,0.7762 -0.13009,1.84661 -0.0305,2.37818 0.11873,0.63469 0.0784,1.09212 -0.11964,1.33206 -0.27625,0.33448 -0.32422,0.20225 -0.5583,-1.56471 -0.25313,-1.91086 -0.14858,-2.87492 0.36947,-3.41301 0.17719,-0.18402 0.29771,-0.25495 0.37017,-0.19541 z m -8.23294,-3.37098 c -0.0833,-0.0435 -0.1598,-0.0708 -0.23163,-0.079 -0.43084,-0.0493 -0.69258,0.58138 -1.19243,2.40758 -0.35479,1.29653 -0.62007,2.49013 -0.58958,2.65295 0.0385,0.2042 0.16413,0.24879 0.40393,0.14302 0.19119,-0.0844 0.65027,-0.20055 1.02152,-0.2581 l 0.67561,-0.10489 -0.2976,-1.57383 c -0.37582,-1.98648 -0.33336,-2.67364 0.15455,-2.48996 0.25826,0.0974 0.43875,0.5898 0.67823,1.85552 0.25617,1.35401 0.41281,1.76531 0.7357,1.91775 0.52668,0.24899 1.78266,0.0704 1.72291,-0.24536 -0.075,-0.39798 -2.38635,-3.72672 -2.81038,-4.0479 -0.0981,-0.0741 -0.18775,-0.1342 -0.27092,-0.17778 z m 17.51469,12.12012 c -0.0705,0.0125 -0.1379,0.0267 -0.21763,0.0302 -0.0248,0.0622 -0.0502,0.12564 -0.0762,0.19294 0.0384,0.0113 0.0764,0.0179 0.11536,0.0262 z m -24.51307,-6.42447 c 0.81705,0.30574 1.29379,1.08558 1.79312,2.93381 0.26772,0.99104 0.41511,1.81325 0.32885,1.82647 -0.27824,0.0436 -0.75873,-0.70629 -0.89263,-1.39138 -0.1125,-0.57794 -0.34537,-1.07439 -1.48755,-3.16479 -0.19162,-0.35072 -0.17302,-0.3655 0.2583,-0.20412 z m -1.24087,5.19373 c -2.9e-4,6.6e-4 -0.003,0.003 -0.003,0.003 -0.005,-0.01 0.0104,0.0221 0.003,-0.003 z m 0.24625,0.79334 c 0.008,0.0382 0.005,0.0184 0.0161,0.0669 0.009,0.0415 -0.0396,0.11996 0.0117,0.12619 0.0317,0.004 -9.2e-4,-0.11119 -0.0274,-0.19322 z"
       inkscape:connector-curvature="0" />
    <rect
       style="fill:#000000;fill-opacity:1;stroke-width:0.02205499;stroke-miterlimit:4;stroke-dasharray:none"
       id="rect3916-4"
       width="2.189625"
       height="20.936419"
       x="20.380209"
       y="303.77625"
       transform="matrix(0.84398654,-0.53636436,0.69050314,0.72332939,0,0)" />
    <rect
       style="fill:#000000;fill-opacity:1;stroke-width:0.04382126;stroke-miterlimit:4;stroke-dasharray:none"
       id="rect3916-8-29"
       width="3.3655777"
       height="53.773457"
       x="186.55592"
       y="222.42647"
       transform="matrix(0.99821631,-0.05970091,0.17502856,0.98456336,0,0)" />
    <rect
       style="fill:#000000;fill-opacity:1;stroke-width:0.02288665;stroke-miterlimit:4;stroke-dasharray:none"
       id="rect3916-6-2"
       width="2.4754045"
       height="19.942356"
       x="-337.36746"
       y="126.06023"
       transform="matrix(-0.96345416,-0.26787326,-0.43653121,0.89968911,0,0)" />
    <rect
       style="fill:#000000;fill-opacity:1;stroke-width:0.0431514;stroke-miterlimit:4;stroke-dasharray:none"
       id="rect3916-8-9-6"
       width="3.2519794"
       height="53.963516"
       x="-220.33057"
       y="248.58734"
       transform="matrix(-0.98333589,0.18179806,0.2191478,0.97569167,0,0)" />
  </g>
</svg>
