<?xml version="1.0" encoding="UTF-8" standalone="no"?>
<!-- Created with Inkscape (http://www.inkscape.org/) -->

<svg
   xmlns:dc="http://purl.org/dc/elements/1.1/"
   xmlns:cc="http://creativecommons.org/ns#"
   xmlns:rdf="http://www.w3.org/1999/02/22-rdf-syntax-ns#"
   xmlns:svg="http://www.w3.org/2000/svg"
   xmlns="http://www.w3.org/2000/svg"
   xmlns:sodipodi="http://sodipodi.sourceforge.net/DTD/sodipodi-0.dtd"
   xmlns:inkscape="http://www.inkscape.org/namespaces/inkscape"
   width="429.544"
   height="256.314"
   id="svg2"
   version="1.1"
   inkscape:version="0.92.2 5c3e80d, 2017-08-06"
   sodipodi:docname="fries.svg">
  <defs
     id="defs4">
    <inkscape:perspective
       sodipodi:type="inkscape:persp3d"
       inkscape:vp_x="0 : 526.18109 : 1"
       inkscape:vp_y="0 : 1000 : 0"
       inkscape:vp_z="744.09448 : 526.18109 : 1"
       inkscape:persp3d-origin="372.04724 : 350.78739 : 1"
       id="perspective2985" />
  </defs>
  <sodipodi:namedview
     id="base"
     pagecolor="#ffffff"
     bordercolor="#666666"
     borderopacity="1.0"
     inkscape:pageopacity="0.0"
     inkscape:pageshadow="2"
     inkscape:zoom="1.979899"
     inkscape:cx="176.19191"
     inkscape:cy="110.09707"
     inkscape:document-units="mm"
     inkscape:current-layer="layer1"
     showgrid="false"
     inkscape:object-nodes="true"
     inkscape:window-width="1440"
     inkscape:window-height="766"
     inkscape:window-x="0"
     inkscape:window-y="1"
     inkscape:window-maximized="1"
     showguides="false"
     inkscape:guide-bbox="true"
     units="mm"
     fit-margin-top="0"
     fit-margin-left="0"
     fit-margin-right="0"
     fit-margin-bottom="0" />
  <metadata
     id="metadata7">
    <rdf:RDF>
      <cc:Work
         rdf:about="">
        <dc:format>image/svg+xml</dc:format>
        <dc:type
           rdf:resource="http://purl.org/dc/dcmitype/StillImage" />
        <dc:title></dc:title>
      </cc:Work>
    </rdf:RDF>
  </metadata>
  <g
     inkscape:label="Layer 1"
     inkscape:groupmode="layer"
     id="layer1"
     transform="translate(-86.211154,-648.75996)">
    <path
       inkscape:connector-curvature="0"
       id="path3908"
       d="M 466.76206,761.71738 274.44542,649.22334 82.128809,761.71734 274.44546,874.21138 Z"
       style="fill:#ff0000;stroke:#000000;stroke-width:0.92677325px;stroke-linecap:round;stroke-linejoin:round;stroke-opacity:1" />
    <path
       style="fill:#ffcc00;stroke-width:0.50507629"
       d="m 98.198458,149.19278 c 0.171685,-0.2778 0.539439,-0.50508 0.817231,-0.50508 0.277792,0 0.364606,0.22728 0.192922,0.50508 -0.171685,0.27779 -0.539439,0.50507 -0.817231,0.50507 -0.277792,0 -0.364607,-0.22728 -0.192922,-0.50507 z"
       id="path275"
       inkscape:connector-curvature="0"
       transform="translate(53.643411,569.625)" />
    <path
       style="fill:#ffcc00;stroke-width:0.50507629"
       d=""
       id="path277"
       inkscape:connector-curvature="0"
       transform="translate(53.643411,569.625)" />
    <path
       style="fill:#ffcc00;stroke-width:0.50507629"
       d=""
       id="path279"
       inkscape:connector-curvature="0"
       transform="translate(53.643411,569.625)" />
    <path
       style="fill:#ff0000"
       id="path86"
       d="m 226.42766,718.33701 c -0.0622,2.21953 -0.0652,4.44039 -0.088,6.66061 -0.0398,3.5275 -0.0194,7.05512 -0.0206,10.58275 -0.0587,2.7708 0.0517,5.5297 0.47753,8.26842 0.35974,2.42286 0.43972,4.87289 0.65692,7.30994 0.23432,2.60228 0.28182,5.21472 0.52872,7.81606 0.0865,1.53294 0.33639,3.04111 0.70105,4.53001 0.19376,0.49846 0.46365,0.94834 0.64472,1.44966 0.36157,0.59454 0.44681,1.26025 0.52763,1.93784 0.0293,1.41422 0.12898,2.81456 0.29295,4.21959 0.12979,1.30558 0.22113,2.61328 0.297,3.92284 0.0342,0.5318 0.0319,1.06445 0.0451,1.59652 0,0 -6.72001,3.42229 -6.72001,3.42229 v 0 c 0.0151,-0.53045 0.007,-1.06216 0.008,-1.59287 -0.0151,-1.30124 -0.0826,-2.60244 -0.21768,-3.89696 -0.15797,-1.39756 -0.32112,-2.7897 -0.34436,-4.19762 -0.0623,-0.63634 -0.12656,-1.23746 -0.49841,-1.77829 -0.1541,-0.53541 -0.44888,-1.01156 -0.63536,-1.53941 -0.29901,-1.5479 -0.5818,-3.0927 -0.62654,-4.67463 -0.22147,-2.60735 -0.28516,-5.22069 -0.50742,-7.82822 -0.21296,-2.41866 -0.34904,-4.84497 -0.67617,-7.25176 -0.38921,-2.79298 -0.51848,-5.59912 -0.41858,-8.41955 -0.001,-3.52065 0.0194,-7.04129 -0.0206,-10.56181 -0.0227,-2.19032 -0.0253,-4.38132 -0.088,-6.57093 0,0 6.68168,-3.40448 6.68168,-3.40448 z"
       inkscape:connector-curvature="0" />
    <path
       style="fill:#ff0000"
       id="path88"
       d="m 252.18655,713.79132 c -0.0531,2.10325 -0.0685,4.20779 -0.0739,6.31176 -0.0241,2.95967 -0.011,5.91942 -0.0105,8.87914 -0.0228,3.42264 -0.0212,6.84538 -0.029,10.26807 -0.005,3.40401 0.0135,6.80802 0.0197,10.21203 0.001,2.6775 0.0229,5.35494 0.0349,8.03241 -0.10093,2.81686 0.10753,5.62042 0.24351,8.43088 0.10247,4.17882 0.48131,8.33987 0.64787,12.51651 0.10903,2.15242 0.30459,4.30112 0.58215,6.43836 -0.19713,-0.31341 0.18618,0.64887 0.0751,0.51546 -0.11379,-0.13661 -0.0946,-0.54481 -0.25513,-0.46839 -7.27386,3.46298 -6.42673,6.08715 -6.41256,3.16232 -0.0976,-0.44374 -0.21821,-0.93226 -0.43478,-1.33564 -0.51334,-1.09591 -0.75671,-2.27755 -0.98397,-3.45846 -0.21031,-1.49695 -0.12042,-0.68197 -0.24248,-2.44776 0,0 6.49593,-3.37985 6.49593,-3.37985 v 0 c 0.17201,1.678 0.0697,0.9026 0.28873,2.32855 0.23099,1.09302 0.48174,2.18406 0.95082,3.20359 0.30551,0.51803 0.42812,1.11099 0.64154,1.67515 -0.0414,3.28422 -6.73432,7.2918 -6.76178,3.66671 -0.13296,-2.19769 -0.27841,-4.3947 -0.38224,-6.59404 -0.094,-4.17533 -0.43884,-8.33063 -0.63603,-12.50107 -0.18823,-2.80159 -0.51208,-5.59295 -0.38073,-8.40774 0.012,-2.68933 0.0337,-5.37862 0.0349,-8.06798 0.006,-3.4107 0.025,-6.8214 0.0197,-10.2321 -0.008,-3.41284 -0.006,-6.82572 -0.029,-10.23851 5.9e-4,-2.95616 0.0137,-5.91236 -0.0104,-8.86848 -0.005,-2.07886 -0.0204,-4.15833 -0.0739,-6.23643 0,0 6.68168,-3.40449 6.68168,-3.40449 z"
       inkscape:connector-curvature="0" />
    <path
       style="fill:#ff0000"
       id="path90"
       d="m 291.07742,715.81163 c -0.0715,2.61304 -0.0923,5.22745 -0.12439,7.84126 -0.17375,6.43675 -0.10169,12.86821 0.0791,19.30301 0.1421,5.53387 0.51778,11.06543 1.20145,16.55937 0.23596,2.09759 0.82851,4.1204 1.38521,6.1477 0.38778,1.30969 0.71185,2.61683 0.86515,3.97616 0.21261,3.28434 0.30084,6.5745 0.38787,9.86397 0.0248,3.19443 0.18266,6.38356 0.28148,9.57556 0.004,0.68295 0.016,1.36557 0.0135,2.04851 0,0 -6.67673,3.37813 -6.67673,3.37813 v 0 c 0.0364,-0.68984 0.0836,-1.37938 0.0848,-2.0706 0.0661,-3.21423 -0.1234,-6.42871 -0.11222,-9.64393 -0.0911,-3.24418 -0.2582,-6.48231 -0.53851,-9.71558 -0.15001,-1.32006 -0.52719,-2.57611 -0.86114,-3.85735 -0.52333,-2.09575 -1.00674,-4.20227 -1.22666,-6.35648 -0.50394,-5.57228 -0.87102,-11.16069 -0.94094,-16.75651 -0.0719,-2.46957 -0.19389,-4.93763 -0.25206,-7.40756 -0.0923,-3.92079 -0.0114,-7.84587 -0.12323,-11.76668 -0.032,-2.57155 -0.0523,-5.14374 -0.1244,-7.7145 0,0 6.68168,-3.40448 6.68168,-3.40448 z"
       inkscape:connector-curvature="0" />
    <path
       style="fill:#ff0000"
       id="path92"
       d="m 334.50416,717.45269 c -0.0816,2.88432 -0.0923,5.76999 -0.11494,8.6552 -0.002,3.58621 0.007,7.17219 0.0336,10.75839 -0.13807,2.97114 0.22879,5.91335 0.51201,8.86217 0.48107,3.94175 1.05989,7.86977 1.76223,11.77881 0.48172,3.2648 0.95627,6.52827 1.56869,9.77167 0.24085,1.43911 0.79514,2.79589 1.13806,4.20509 0.4567,1.55731 0.63969,3.17604 0.82746,4.7831 0.25471,2.90763 0.54183,5.81198 0.94153,8.70542 0.34981,2.55694 0.60674,5.12486 0.80627,7.69743 0.0156,0.24846 0.0313,0.49691 0.0469,0.74537 0,0 -6.61389,3.40682 -6.61389,3.40682 v 0 c -0.006,-0.24966 -0.0127,-0.49931 -0.0191,-0.74896 -0.095,-2.57588 -0.30619,-5.14726 -0.67541,-7.6992 -0.39846,-2.88545 -0.68755,-5.78516 -1.03549,-8.67458 -0.17971,-1.57712 -0.38825,-3.16001 -0.85989,-4.67867 -0.11159,-0.56578 -0.31355,-1.08568 -0.46001,-1.64343 -0.35528,-1.35302 -0.001,0.0263 -0.3357,-1.57406 -0.0751,-0.35929 -0.16667,-0.71493 -0.25,-1.07239 -0.54938,-3.27112 -0.97485,-6.56089 -1.43646,-9.84491 -0.66511,-3.92219 -1.32429,-7.844 -1.86274,-11.7849 -0.31506,-2.96854 -0.72441,-5.9284 -0.55391,-8.92316 0.0263,-3.59762 0.036,-7.19503 0.0336,-10.79266 -0.0225,-2.84617 -0.0327,-5.69282 -0.11494,-8.53807 0,0 6.66204,-3.39448 6.66204,-3.39448 z"
       inkscape:connector-curvature="0" />
    <path
       style="fill:#ffd42a"
       id="path94"
       d="m 373.44043,718.28996 c 0.25554,3.16625 0.24685,6.34536 0.2435,9.51944 0.001,6.16822 -0.0174,12.33633 0.0132,18.50442 0.0188,5.09418 0.0387,10.18831 0.0767,15.28248 0.0326,3.13021 0.0515,6.26053 0.0616,9.39087 -0.0681,2.02825 0.0816,4.03981 0.24485,6.05765 0.20204,2.01402 0.25256,3.90663 0.0465,5.92299 0,0 -6.53309,3.24528 -6.53309,3.24528 v 0 c 0.0505,-0.49288 0.13095,-0.98361 0.15156,-1.47864 0.0592,-1.42116 -0.1777,-2.85309 -0.22993,-4.27071 -0.2,-2.04817 -0.31208,-4.08793 -0.21253,-6.14806 0.0103,-3.15169 0.0298,-6.30334 0.0637,-9.45488 0.0401,-5.12082 0.0639,-10.24158 0.0812,-15.36244 0.0254,-6.1486 0.011,-12.29793 -0.10716,-18.44566 -0.0907,-3.08971 -0.1213,-6.19626 -0.53217,-9.26416 0,0 6.632,-3.49858 6.632,-3.49858 z"
       inkscape:connector-curvature="0" />
    <path
       style="fill:#ffd42a"
       id="path96"
       d="m 347.13598,722.94561 c -0.12804,3.4242 -0.12398,6.85153 -0.14592,10.27757 -0.0147,3.81414 0.0238,7.62823 0.0707,11.44201 0.0245,1.39831 0.0592,2.79639 0.0836,4.19461 0.0166,0.60277 0.01,1.2058 -7.3e-4,1.80861 0.32224,1.79572 0.37763,3.6263 0.50996,5.44325 0.24724,3.3987 0.27349,6.80555 0.4956,10.20597 0.1665,2.3938 0.31275,4.78896 0.44844,7.1847 0.0625,0.75525 5.5e-4,1.52194 0.1702,2.26349 0.38715,1.22883 0.3692,2.53765 0.49999,3.81067 0.14004,1.25331 0.25818,2.50869 0.36638,3.76507 0,0 -6.66968,3.44678 -6.66968,3.44678 v 0 c -0.0369,-1.2595 -0.13043,-2.51685 -0.2728,-3.76886 -0.14675,-1.22513 -0.14297,-2.50619 -0.53269,-3.67811 -0.22125,-0.80951 -0.21133,-1.59665 -0.18219,-2.43823 -0.0225,-2.41917 -0.12464,-4.83666 -0.27305,-7.25127 -0.19644,-3.3866 -0.27763,-6.7783 -0.54745,-10.1603 -0.17442,-1.80563 -0.23449,-3.65956 -0.69979,-5.41592 -0.0106,-0.60256 -0.0171,-1.20534 -7.4e-4,-1.80786 0.0244,-1.42661 0.0591,-2.85308 0.0836,-4.27977 0.0466,-3.83779 0.0853,-7.6759 0.0707,-11.51405 -0.0218,-3.37646 -0.0163,-6.75433 -0.14591,-10.12888 0,0 6.67186,-3.39948 6.67186,-3.39948 z"
       inkscape:connector-curvature="0" />
    <path
       style="fill:#ffd42a"
       id="path98"
       d="m 308.25001,715.81163 c -0.0932,2.87863 -0.10404,5.75942 -0.13362,8.63925 -0.025,3.99558 0.0109,7.99117 0.0251,11.98669 -0.0424,3.15178 0.0246,6.29482 0.28805,9.43584 0.38129,3.73592 0.78211,7.4729 1.30663,11.19157 0.53778,4.43283 1.16634,8.85409 1.72852,13.28386 0.5466,2.96634 0.67746,6.00404 1.25252,8.96259 0.19752,0.969 0.41275,1.93505 0.57075,2.91154 0,0 -6.67797,3.49861 -6.67797,3.49861 v 0 c -0.064,-0.98604 -0.24793,-1.9604 -0.40476,-2.93443 -0.57219,-2.99371 -0.53217,-6.09196 -1.11531,-9.09141 -0.52666,-4.43135 -1.11536,-8.85364 -1.70333,-13.27669 -0.57841,-3.7107 -1.00513,-7.44551 -1.41952,-11.17767 -0.31763,-3.1628 -0.35496,-6.33278 -0.29023,-9.5099 0.0142,-4.00405 0.0501,-8.00818 0.0251,-12.01228 -0.0294,-2.83444 -0.0395,-5.6699 -0.13362,-8.50309 0,0 6.68167,-3.40448 6.68167,-3.40448 z"
       inkscape:connector-curvature="0" />
    <path
       style="fill:#ffd42a"
       id="path100"
       d="m 327.94308,727.99638 c -0.14793,3.89398 -0.15441,7.79033 -0.2002,11.68622 -0.0858,6.34643 -0.0135,12.69298 0.0127,19.03947 0.0221,3.524 0.0975,7.04752 0.13046,10.57133 -0.0476,1.47256 0.19136,2.9007 0.59134,4.30722 0.50102,1.3009 0.70975,2.6646 0.84336,4.04339 0.0638,0.99187 0.19156,1.97674 0.0551,2.96345 0,0 -6.73573,3.24892 -6.73573,3.24892 v 0 c 0.29946,-0.8877 0.0921,-1.85157 0.082,-2.77506 -0.11129,-1.3368 -0.30275,-2.66012 -0.79872,-3.91683 -0.11613,-0.43873 -0.28639,-0.86289 -0.38595,-1.30568 -0.23491,-1.04476 -0.20868,-2.16384 -0.20917,-3.22403 0.0331,-3.56812 0.10811,-7.13596 0.13046,-10.70427 0.0261,-6.35082 0.0986,-12.7017 0.0127,-19.05244 -0.0455,-3.8279 -0.0505,-7.65631 -0.2002,-11.48221 0,0 6.67186,-3.39948 6.67186,-3.39948 z"
       inkscape:connector-curvature="0" />
    <path
       style="fill:#ffd42a"
       id="path102"
       d="m 364.31348,730.96392 c -0.11429,3.09844 -0.1138,6.19975 -0.13697,9.29983 -0.0228,3.75812 0.0311,7.51599 0.0423,11.274 -0.006,3.07688 10e-4,6.15376 0.0147,9.23061 0.0116,2.12968 0.0283,4.25925 0.0465,6.38888 -0.0727,0.81306 0.0713,1.54329 0.30066,2.30663 0.17797,0.37684 0.11299,0.71825 0.0823,1.12603 0,0 -6.72562,3.28289 -6.72562,3.28289 v 0 c 0.10781,-0.32382 0.17488,-0.4904 0.0359,-0.80471 -0.23271,-0.84357 -0.45376,-1.64507 -0.30781,-2.54054 0.0182,-2.14542 0.0348,-4.29079 0.0465,-6.43626 0.0135,-3.08184 0.0211,-6.1637 0.0147,-9.24557 0.0111,-3.77236 0.0649,-7.54458 0.0422,-11.31705 -0.023,-3.05355 -0.0213,-6.10843 -0.13697,-9.16026 0,0 6.68168,-3.40448 6.68168,-3.40448 z"
       inkscape:connector-curvature="0" />
    <path
       style="fill:#ffd42a"
       id="path104"
       d="m 291.0676,719.473 c -0.17031,4.85289 -0.20002,9.71061 -0.25432,14.56604 -0.032,7.856 -0.0667,15.71186 0.0116,23.56767 0.0383,4.04814 0.0857,8.09648 0.20417,12.14319 0.01,0.21347 0.0197,0.42694 0.0295,0.64041 0,0 -6.64389,3.38523 -6.64389,3.38523 v 0 c 0.01,-0.22349 0.0197,-0.44698 0.0295,-0.67047 0.11705,-4.11612 0.16599,-8.23376 0.20417,-12.35126 0.0776,-7.85975 0.0443,-15.71953 0.0116,-23.57946 -0.0539,-4.76902 -0.0822,-9.54051 -0.25432,-14.30688 0,0 6.66204,-3.39447 6.66204,-3.39447 z"
       inkscape:connector-curvature="0" />
    <path
       style="fill:#ffd42a"
       id="path106"
       d="m 272.89467,720.86239 c -0.21959,4.86466 -0.2071,9.73646 -0.24568,14.60497 -0.0594,6.27244 0.005,12.54465 0.094,18.81641 -0.0552,2.68584 0.30758,5.40348 -0.0539,8.07335 0,0 -6.63298,3.23844 -6.63298,3.23844 v 0 c 0.55951,-2.62728 0.0524,-5.39591 0.30859,-8.06188 0.0878,-6.3037 0.15346,-12.60783 0.094,-18.91219 -0.0382,-4.78502 -0.023,-9.57364 -0.24568,-14.35462 0,0 6.68167,-3.40448 6.68167,-3.40448 z"
       inkscape:connector-curvature="0" />
    <path
       style="fill:#ffd42a"
       id="path108"
       d="m 250.14661,721.11406 c -0.24242,6.30016 -0.29062,12.60715 -0.2963,18.91142 -0.0461,7.65891 3e-5,15.31794 0.1246,22.97592 0.0267,2.01397 0.0893,4.02689 0.15279,6.03989 0,0 -6.60459,3.3652 -6.60459,3.3652 v 0 c 0.0631,-2.06492 0.12561,-4.12975 0.15279,-6.19559 0.12322,-7.70032 0.17114,-15.40165 0.12459,-23.10288 -0.006,-6.20359 -0.0499,-12.41019 -0.29629,-18.60949 0,0 6.64241,-3.38447 6.64241,-3.38447 z"
       inkscape:connector-curvature="0" />
    <path
       style="fill:#ffd42a"
       id="path110"
       d="m 227.47162,730.48056 c 0.23679,5.45069 0.1355,10.91089 0.026,16.36329 -0.1286,12.3207 -0.0735,24.64134 0.053,36.9617 0.0601,5.3535 0.11281,10.70821 0.27802,16.05975 0,0 -6.45009,3.28624 -6.45009,3.28624 v 0 c 0.16616,-5.44647 0.22328,-10.89601 0.28159,-16.34447 0.1194,-12.31643 0.17499,-24.63401 -0.0674,-36.94958 -0.18133,-5.29747 -0.19999,-10.61975 -0.74964,-15.89506 0,0 6.62846,-3.48187 6.62846,-3.48187 z"
       inkscape:connector-curvature="0" />
    <path
       style="fill:#ffd42a"
       id="path112"
       d="m 207.77364,730.98564 c 0.21115,3.00736 0.25237,6.02236 0.28211,9.03587 0.0443,4.37855 0.0305,8.75742 0.0541,13.1361 -0.003,3.49379 0.0309,6.98759 0.0584,10.4813 0.0164,3.4225 -0.0432,6.8445 -0.0731,10.2667 0.0827,4.17259 -0.0305,8.33267 -0.25414,12.49728 -0.19982,1.53679 -0.13368,3.14626 -0.54607,4.65162 -0.20057,0.57692 -0.055,0.2524 -0.50694,0.93894 0,0 -6.82966,2.99168 -6.82966,2.99168 v 0 c 0.39239,-0.59188 0.19462,-0.37262 0.536,-0.70526 0.0681,-0.22142 0.19402,-0.4224 0.26022,-0.64438 0.38096,-1.27752 0.31926,-2.67711 0.5884,-3.97403 0.0898,-1.20315 0.2164,-2.40361 0.28941,-3.60789 0.17956,-2.96161 0.0361,-5.93192 0.0808,-8.89617 -0.0298,-3.39783 -0.0897,-6.79544 -0.0709,-10.19357 0.0297,-3.51405 0.067,-7.02821 0.0629,-10.54235 0.0183,-4.37225 0.006,-8.74463 -0.0663,-13.11642 -0.0726,-2.94825 -0.11467,-5.90914 -0.49357,-8.83755 0,0 6.62846,-3.48187 6.62846,-3.48187 z"
       inkscape:connector-curvature="0" />
  </g>
</svg>
