<?xml version="1.0" encoding="UTF-8" standalone="no"?>
<!-- Created with Inkscape (http://www.inkscape.org/) -->

<svg
   xmlns:dc="http://purl.org/dc/elements/1.1/"
   xmlns:cc="http://creativecommons.org/ns#"
   xmlns:rdf="http://www.w3.org/1999/02/22-rdf-syntax-ns#"
   xmlns:svg="http://www.w3.org/2000/svg"
   xmlns="http://www.w3.org/2000/svg"
   xmlns:xlink="http://www.w3.org/1999/xlink"
   xmlns:sodipodi="http://sodipodi.sourceforge.net/DTD/sodipodi-0.dtd"
   xmlns:inkscape="http://www.inkscape.org/namespaces/inkscape"
   width="430.54434"
   height="325.29514"
   id="svg2"
   version="1.1"
   inkscape:version="0.92.3 (2405546, 2018-03-11)"
   sodipodi:docname="glow - Copy.svg">
  <defs
     id="defs4">
    <linearGradient
       inkscape:collect="always"
       id="linearGradient835">
      <stop
         style="stop-color:#fff6d5;stop-opacity:1"
         offset="0"
         id="stop831" />
      <stop
         style="stop-color:#ffe680;stop-opacity:1"
         offset="1"
         id="stop833" />
    </linearGradient>
    <inkscape:perspective
       sodipodi:type="inkscape:persp3d"
       inkscape:vp_x="0 : 526.18109 : 1"
       inkscape:vp_y="0 : 1000 : 0"
       inkscape:vp_z="744.09448 : 526.18109 : 1"
       inkscape:persp3d-origin="372.04724 : 350.78739 : 1"
       id="perspective2985" />
    <radialGradient
       inkscape:collect="always"
       xlink:href="#linearGradient835"
       id="radialGradient837"
       cx="600.44849"
       cy="585.40173"
       fx="600.44849"
       fy="585.40173"
       r="201.90343"
       gradientTransform="matrix(-0.08098517,0.96729123,-1.726336,-0.1446899,1326.4424,255.24186)"
       gradientUnits="userSpaceOnUse" />
  </defs>
  <sodipodi:namedview
     id="base"
     pagecolor="#ffffff"
     bordercolor="#666666"
     borderopacity="1.0"
     inkscape:pageopacity="0.0"
     inkscape:pageshadow="2"
     inkscape:zoom="1.4"
     inkscape:cx="92.862711"
     inkscape:cy="105.60769"
     inkscape:document-units="mm"
     inkscape:current-layer="layer1"
     showgrid="false"
     inkscape:object-nodes="true"
     inkscape:window-width="1920"
     inkscape:window-height="1017"
     inkscape:window-x="-8"
     inkscape:window-y="-8"
     inkscape:window-maximized="1"
     showguides="true"
     inkscape:guide-bbox="true"
     units="mm"
     fit-margin-top="0"
     fit-margin-left="0"
     fit-margin-right="0"
     fit-margin-bottom="0" />
  <metadata
     id="metadata7">
    <rdf:RDF>
      <cc:Work
         rdf:about="">
        <dc:format>image/svg+xml</dc:format>
        <dc:type
           rdf:resource="http://purl.org/dc/dcmitype/StillImage" />
        <dc:title />
      </cc:Work>
    </rdf:RDF>
  </metadata>
  <g
     inkscape:label="Layer 1"
     inkscape:groupmode="layer"
     id="layer1"
     transform="translate(-53.643411,-569.625)">
    <path
       inkscape:connector-curvature="0"
       id="path3908"
       d="M 474.37627,771.83168 268.91558,649.23729 63.454937,771.83164 268.91563,894.42603 z"
       style="fill:#ffcc00;stroke:#000000;stroke-width:0.99999994px;stroke-linecap:round;stroke-linejoin:round;stroke-opacity:1" />
    <path
       style="fill:#ffcc00;stroke-width:0.50507629"
       d="m 98.198458,149.19278 c 0.171685,-0.2778 0.539439,-0.50508 0.817231,-0.50508 0.277792,0 0.364606,0.22728 0.192922,0.50508 -0.171685,0.27779 -0.539439,0.50507 -0.817231,0.50507 -0.277792,0 -0.364607,-0.22728 -0.192922,-0.50507 z"
       id="path275"
       inkscape:connector-curvature="0"
       transform="translate(53.643411,569.625)" />
    <path
       style="fill:#ffcc00;stroke-width:0.50507629"
       d=""
       id="path277"
       inkscape:connector-curvature="0"
       transform="translate(53.643411,569.625)" />
    <path
       style="fill:#ffcc00;stroke-width:0.50507629"
       d=""
       id="path279"
       inkscape:connector-curvature="0"
       transform="translate(53.643411,569.625)" />
    <path
       style="fill:#ff6600;stroke-width:0.50507629"
       d="M 113.28203,263.16842 C 57.380283,229.78887 11.639313,202.36414 11.635434,202.22459 11.62395,201.81139 214.78691,80.750207 215.3979,80.806168 c 1.02753,0.09411 203.35915,121.055552 203.2132,121.488492 -0.13747,0.40774 -202.13952,121.12059 -203.18444,121.41942 -0.2778,0.0794 -46.24288,-27.16611 -102.14463,-60.54566 z"
       id="path12"
       inkscape:connector-curvature="0"
       transform="translate(53.643411,569.625)" />
    <path
       style="fill:#000000;stroke-width:0.71428573"
       d="M 201.55066,315.46765 C 174.68685,299.66067 15.720383,204.78667 13.147586,203.02536 12.017125,202.25145 14.096999,200.80289 30.290444,191.08598 70.323143,167.06425 172.76596,106.03159 200.86271,89.463638 l 14.28572,-8.423931 4.28571,2.32822 c 8.92017,4.845897 190.34574,113.293443 196.57292,117.501923 l 2.28721,1.54574 -72.28721,43.28522 c -80.99429,48.49896 -128.65992,76.87298 -130.00873,77.39058 -0.49642,0.19049 -6.99787,-3.2402 -14.44767,-7.62374 z"
       id="path22115"
       inkscape:connector-curvature="0"
       transform="translate(53.643411,569.625)" />
    <path
       style="fill:#000000;stroke-width:0.71428573"
       d=""
       id="path22117"
       inkscape:connector-curvature="0"
       transform="translate(53.643411,569.625)" />
    <path
       style="fill:#000000;stroke-width:0.71428573"
       d=""
       id="path22119"
       inkscape:connector-curvature="0"
       transform="translate(53.643411,569.625)" />
    <path
       style="fill:#000000;stroke-width:0.71428573"
       d="m 209.79128,319.74792 c -5.78722,-3.1538 -16.75568,-9.63698 -73.92857,-43.69731 C 60.422456,231.10763 15.122047,203.92325 14.159441,203.01754 c -0.828238,-0.77927 -0.189697,-1.44266 3.928571,-4.08146 5.204721,-3.33494 98.484368,-59.06671 160.273368,-95.75849 l 36.78438,-21.843435 4.64419,2.594116 c 22.7422,12.703163 198.03171,118.161339 197.38607,118.751969 -0.32947,0.3014 -38.68831,23.29096 -85.24188,51.08792 -118.53074,70.77425 -115.41326,68.92691 -116.28827,68.90923 -0.27359,-0.006 -2.90816,-1.32378 -5.85459,-2.92947 z"
       id="path22121"
       inkscape:connector-curvature="0"
       transform="translate(53.643411,569.625)" />
    <path
       style="fill:#000000;stroke-width:0.71428573"
       d="m 207.35408,318.37127 c -4.26883,-2.3739 -18.08285,-10.45666 -30.69786,-17.96168 C 123.11214,268.55468 20.669749,207.3178 17.041959,204.99713 l -3.935565,-2.51755 1.735302,-1.41204 c 1.861374,-1.51463 73.710201,-44.57832 152.022094,-91.11676 l 48.14394,-28.61052 2.72382,1.389592 c 5.21278,2.659364 74.36413,43.887898 164.07333,97.821718 19.76819,11.88477 35.6789,21.84275 35.35714,22.12882 -0.92519,0.82257 -156.33169,93.75131 -190.34977,113.82385 -5.76347,3.40076 -10.75302,6.1832 -11.08787,6.1832 -0.33485,0 -4.10149,-1.94227 -8.3703,-4.31617 z"
       id="path22123"
       inkscape:connector-curvature="0"
       transform="translate(53.643411,569.625)" />
    <path
       style="fill:url(#radialGradient837);fill-opacity:1;stroke-width:0.71428573"
       d="M 263.0271,889.28401 C 256.62917,885.8483 220.64521,864.51049 142.31281,817.70272 113.24139,800.331 84.402697,783.10635 78.22684,779.4257 c -6.175859,-3.68065 -11.238359,-6.91771 -11.250001,-7.19348 -0.01164,-0.27577 1.344905,-1.43487 3.014548,-2.57579 4.332453,-2.96048 95.706263,-57.5808 184.062023,-110.02635 l 14.59773,-8.66482 5.1395,2.82072 c 13.2211,7.25616 194.79996,115.93834 196.99072,117.9068 0.77733,0.69844 -199.55203,120.70878 -201.43346,120.67176 -0.33359,-0.007 -3.17794,-1.3928 -6.3208,-3.08053 z"
       id="path22125"
       inkscape:connector-curvature="0" />
  </g>
</svg>
