<?xml version="1.0" encoding="UTF-8" standalone="no"?>
<svg
   xmlns:dc="http://purl.org/dc/elements/1.1/"
   xmlns:cc="http://creativecommons.org/ns#"
   xmlns:rdf="http://www.w3.org/1999/02/22-rdf-syntax-ns#"
   xmlns:svg="http://www.w3.org/2000/svg"
   xmlns="http://www.w3.org/2000/svg"
   xmlns:sodipodi="http://sodipodi.sourceforge.net/DTD/sodipodi-0.dtd"
   xmlns:inkscape="http://www.inkscape.org/namespaces/inkscape"
   version="1.1"
   id="svg143"
   sodipodi:docname="mushroom.svg"
   inkscape:version="0.92.2 5c3e80d, 2017-08-06"
   x="0px"
   y="0px"
   width="410.92099"
   height="245.189"
   viewBox="0 0 410.92099 245.18899"
   enable-background="new 0 0 430.543 325.295">
  <metadata
     id="metadata149">
    <rdf:RDF>
      <cc:Work
         rdf:about="">
        <dc:format>image/svg+xml</dc:format>
        <dc:type
           rdf:resource="http://purl.org/dc/dcmitype/StillImage" />
      </cc:Work>
    </rdf:RDF>
  </metadata>
  <defs
     id="defs147" />
  <sodipodi:namedview
     pagecolor="#ffffff"
     bordercolor="#666666"
     borderopacity="1"
     objecttolerance="10"
     gridtolerance="10"
     guidetolerance="10"
     inkscape:pageopacity="0"
     inkscape:pageshadow="2"
     inkscape:window-width="1440"
     inkscape:window-height="766"
     id="namedview145"
     showgrid="false"
     inkscape:zoom="0.96187993"
     inkscape:cx="201.75348"
     inkscape:cy="138.68015"
     inkscape:window-x="0"
     inkscape:window-y="1"
     inkscape:window-maximized="1"
     inkscape:current-layer="svg143" />
  <style
     id="style2">
        #rkbxJBatEG{fill: #549487;}#BigMushroom{fill: #97342E;}#H1Ql1rTK4M{fill: #ECD89D;}#Sy4lkSpK4G{fill: #EAB96D;}#HJLxkBpFNG{fill: #E9E9E1;}#HyPlyH6YVM{fill: #C7C6BB;}#B1uxJHpF4G{opacity: 0.3;fill: #FFFFFF;}#SkYxJrTKNf{opacity: 0.3;fill: #FFFFFF;}#BkTl1SpY4f{fill: #EAAB62;}#BkWgl1H6tVM{fill: #EAAB62;}#rJrxlyr6tVz{fill: #EAAB62;}#B1Yel1rTtVG{fill: #EAAB62;}#ry6eekBpYVf{fill: #EAAB62;}#SyZWxySptNf{fill: #EAAB62;}#B1fZxyBTK4z{fill: #FAD4A3;}#Sy7Ze1BTYVG{fill: #FCE0AE;}#rkEbgJBTKNG{fill: #FCE0AE;}#HySZlkB6Y4f{fill: #FCE0AE;}#r18bxJSatNz{fill: #FCE0AE;}#HyDWxJH6tVM{fill: #FCE0AE;}#r1dZgyBpFVf{fill: #FCE0AE;}#HJtbgJSTt4z{fill: #FCE0AE;}#H1qbxyHaF4f{fill: #FCE0AE;}#SyoZg1SpYVM{fill: #FCE0AE;}#SyhWlJrpYVf{fill: #FCE0AE;}#B1p-xkr6FNf{fill: #FCE0AE;}#HkRWe1BTK4f{fill: #FCE0AE;}#ry1MxkBaYNG{fill: #FCE0AE;}#rklzlJBTYNM{fill: #FCE0AE;}#Hk-GxkrTtVG{fill: #C7C6BB;}#SmallMushroom{fill: #97342E;}#Hy7zgyB6YEf{fill: #ECD89D;}#BkNGxyHaFEf{fill: #EAB96D;}#H1UzlkB6t4f{fill: #E9E9E1;}#SywMgkraKEM{fill: #C7C6BB;}#Hkufe1S6YNM{fill: #BE3434;}#HJtGe1H6t4M{fill: #BE3434;}#SJaMxkHTK4M{fill: #EAAB62;}#B1W7e1BpYEz{fill: #EAAB62;}#rJS7gkHpYVf{fill: #EAAB62;}#ryKXxkHptVz{fill: #EAAB62;}#r1aQekrTFVf{fill: #EAAB62;}#SJZ4xyHTY4z{fill: #EAAB62;}#BJfNx1BaYNf{fill: #FAD4A3;}#rk7ElJH6K4M{fill: #FCE0AE;}#HkEVgkr6FEG{fill: #FCE0AE;}#SySNgyH6KVM{fill: #FCE0AE;}#ryUVeJBpK4f{fill: #FCE0AE;}#Byv4eJS6KEG{fill: #FCE0AE;}#BkuVlkrTtVz{fill: #FCE0AE;}#B1t4lJSaY4M{fill: #FCE0AE;}#SycVe1rTKVG{fill: #FCE0AE;}#rJiNg1r6t4M{fill: #FCE0AE;}#Hk2ElyBTYVM{fill: #FCE0AE;}#H1aVlyH6KEf{fill: #FCE0AE;}#H1AVe1BaKEG{fill: #FCE0AE;}#rk1SgyS6KNG{fill: #FCE0AE;}#H1gHxySTYVG{fill: #FCE0AE;}

	@keyframes colorchange {
		0% {
			fill: #97342e;
		}
		16.67% {
			fill: #c08346;
		}
		33.33% {
			fill: #97342e;
		}
		50% {
			fill: #83c567;
		}
		66.67% {
			fill: #97342e;
		}
		83.33% {
			fill: #a64a96;
		}
		100% {
			fill: #97342e;
		}
	}

	#BigMushroom {
		transform-origin: 50% 50% !important;
		animation: colorchange 3s linear infinite;
	}



	@keyframes scale {
		0% {
			transform: scale(1, 1);
		}
		16.67% {
			transform: scale(1.5, 1.5);
		}
		33.33% {
			transform: scale(1, 1);
		}
		50% {
			transform: scale(1.5, 1.5);
		}
		66.67% {
			transform: scale(1, 1);
		}
		83.33% {
			transform: scale(1.5, 1.5);
		}
		100% {
			transform: scale(1, 1);
		}
	}

	#SmallMushroom {
		transform-origin: 50% 50% !important;
		animation: scale 3s linear;
	}



	@keyframes Hy7zgyB6YEfAnimation {
		0% {
			transform: scale(1, 1);
		}
		16.67% {
			transform: scale(1.5, 1.5);
		}
		33.33% {
			transform: scale(1, 1);
		}
		50% {
			transform: scale(1.5, 1.5);
		}
		66.67% {
			transform: scale(1, 1);
		}
		83.33% {
			transform: scale(1.5, 1.5);
		}
		100% {
			transform: scale(1, 1);
		}
	}

	#Hy7zgyB6YEf {
		transform-origin: 50% 50% !important;
		animation: Hy7zgyB6YEfAnimation 3s linear;
	}



	@keyframes BkNGxyHaFEfAnimation {
		0% {
			transform: scale(1, 1);
		}
		16.67% {
			transform: scale(1.5, 1.5);
		}
		33.33% {
			transform: scale(1, 1);
		}
		50% {
			transform: scale(1.5, 1.5);
		}
		66.67% {
			transform: scale(1, 1);
		}
		83.33% {
			transform: scale(1.5, 1.5);
		}
		100% {
			transform: scale(1, 1);
		}
	}

	#BkNGxyHaFEf {
		transform-origin: 50% 50% !important;
		animation: BkNGxyHaFEfAnimation 3s linear;
	}
    </style>
  <svg
     version="1.1"
     id="BkgkrTYEG"
     sodipodi:docname="caro.svg"
     inkscape:version="0.48.5 r10040"
     x="0px"
     y="0px"
     width="430.543"
     height="325.29501"
     viewBox="0 0 430.543 325.295"
     enable-background="new 0 0 430.543 325.295"
     xml:space="preserve"
     transform="translate(-9.812,-79.612)"><defs
       id="defs5"><inkscape:perspective
         id="perspective2985"
         inkscape:vp_z="744.09448 : 526.18108 : 1"
         inkscape:vp_y="0 : 1066.6667 : 0"
         inkscape:vp_x="0 : 526.18108 : 1"
         sodipodi:type="inkscape:persp3d"
         inkscape:persp3d-origin="372.04724 : 350.78739 : 1" /></defs><sodipodi:namedview
       units="mm"
       fit-margin-left="0"
       fit-margin-top="0"
       showguides="true"
       showgrid="false"
       inkscape:cy="150.5455"
       inkscape:cx="169.11117"
       inkscape:zoom="1.979899"
       borderopacity="1.0"
       bordercolor="#666666"
       pagecolor="#ffffff"
       id="SyxxkSpFNM"
       fit-margin-bottom="0"
       fit-margin-right="0"
       inkscape:guide-bbox="true"
       inkscape:window-maximized="0"
       inkscape:window-y="44"
       inkscape:window-x="4"
       inkscape:window-height="1036"
       inkscape:window-width="1920"
       inkscape:object-nodes="true"
       inkscape:current-layer="layer1"
       inkscape:document-units="mm"
       inkscape:pageshadow="2"
       inkscape:pageopacity="0.0" /><path
       id="rkbxJBatEG"
       inkscape:connector-curvature="0"
       d="M 420.733,202.206 215.272,79.612 9.812,202.206 215.273,324.801 Z"
       style="fill:#549487" /><path
       d="m 197.398,185.968 c 0,0 -31.944,-1.806 0,-46.018 31.944,-44.213 76.685,16.915 64.043,32.686 0,0 -22.771,23.98 -64.043,13.332 z"
       id="BigMushroom"
       inkscape:connector-curvature="0"
       style="fill:#97342e" /><path
       d="m 205.999,189.079 c 0,0 32.896,4.988 51.995,-12.344 19.101,-17.333 -32.995,-14.502 -41.13,-11.318 0,0 -47.296,13.723 -10.865,23.662 z"
       id="H1Ql1rTK4M"
       inkscape:connector-curvature="0"
       style="fill:#ecd89d" /><path
       d="m 213.212,184.817 c 0,0 21.699,2.847 34.3,-7.045 12.6,-9.892 -21.766,-8.275 -27.134,-6.459 0,0 -31.198,7.833 -7.166,13.504 z"
       id="Sy4lkSpK4G"
       inkscape:connector-curvature="0"
       style="fill:#eab96d" /><g
       id="g14"><path
         d="m 220.412,182.388 c 0,0 -4.244,45.274 -3.447,49.52 0.795,4.244 1.061,7.428 11.141,7.428 10.082,0 9.815,-11.938 9.285,-23.875 -0.531,-11.938 -4.51,-32.1 -4.51,-32.1 0,0 -0.796,-7.517 -10.081,-3.536 -0.001,-0.002 -2.212,0.966 -2.388,2.563 z"
         id="HJLxkBpFNG"
         inkscape:connector-curvature="0"
         style="fill:#e9e9e1" /><path
         d="m 235.473,198.34 c -0.709,-4.058 -2.593,-14.979 -2.593,-14.979 0,0 -0.796,-7.517 -10.081,-3.536 0,0 -2.211,0.968 -2.388,2.563 0,0 -1.03,11.59 -1.438,16.153 3.652,1.185 10.663,1.429 16.5,-0.201 z"
         id="HyPlyH6YVM"
         inkscape:connector-curvature="0"
         style="fill:#c7c6bb" /></g><path
       d="m 213.648,129.958 c 0,0 8.702,-5.553 13.965,-1.625 5.264,3.927 -10.021,10.248 -14.887,9.748 -4.866,-0.502 -4.696,-1.327 0.922,-8.123 z"
       id="B1uxJHpF4G"
       inkscape:connector-curvature="0"
       style="opacity:0.3;fill:#ffffff" /><path
       d="m 204.06,138.934 c 0,0 -5.18,4.791 -1.997,5.334 3.183,0.543 5.975,-3.478 4.915,-5.334 -1.061,-1.857 -2.918,0 -2.918,0 z"
       id="SkYxJrTKNf"
       inkscape:connector-curvature="0"
       style="opacity:0.3;fill:#ffffff" /><g
       id="g23"><g
         id="g21"><g
           id="g19"><path
             d="m 200.439,180.035 c 0.068,0.503 0.348,0.998 0.683,1.332 0.16,0.192 0.337,0.351 0.52,0.497 0.182,0.154 0.37,0.303 0.568,0.424 0.79,0.529 1.692,0.927 2.869,1.277 0.399,0.119 1.049,0.307 2.409,0.623 0.516,0.125 1.748,0.361 1.748,0.361 0,0 1.029,0.204 1.603,0.297 1.827,0.303 2.976,0.434 3.585,0.484 1.229,0.102 2.221,0.059 3.146,-0.16 0.898,-0.223 1.855,-0.579 2.5,-1.422 -0.942,0.423 -1.76,0.313 -2.604,0.282 -0.846,-0.054 -1.741,-0.147 -2.9,-0.255 -0.57,-0.053 -1.678,-0.182 -3.467,-0.479 -0.559,-0.1 -1.567,-0.278 -1.567,-0.278 0,0 -1.194,-0.254 -1.698,-0.36 -1.316,-0.304 -1.938,-0.48 -2.317,-0.591 -0.878,-0.254 -1.63,-0.471 -2.808,-0.811 -0.211,-0.055 -0.404,-0.123 -0.601,-0.191 -0.203,-0.065 -0.402,-0.133 -0.587,-0.228 -0.408,-0.158 -0.764,-0.38 -1.082,-0.802 z"
             id="BkTl1SpY4f"
             inkscape:connector-curvature="0"
             style="fill:#eaab62" /></g></g></g><g
       id="g30"><g
         id="g28"><g
           id="g26"><path
             d="m 210.269,169.951 c -0.535,0.642 -0.8,1.313 -0.536,2.208 0.088,0.519 0.704,1.885 1.474,2.96 0.754,1.088 1.582,1.942 1.582,1.942 0,0 0.81,0.869 1.821,1.694 0.999,0.841 2.23,1.595 2.683,1.793 0.791,0.409 1.448,0.337 2.234,0.03 -0.564,-0.671 -0.824,-1.036 -1.517,-1.415 -0.377,-0.176 -1.485,-0.854 -2.408,-1.623 -0.931,-0.756 -1.68,-1.551 -1.68,-1.551 0,0 -0.755,-0.793 -1.425,-1.767 -0.684,-0.966 -1.199,-2.117 -1.267,-2.502 -0.225,-0.71 -0.496,-1.015 -0.961,-1.769 z"
             id="BkWgl1H6tVM"
             inkscape:connector-curvature="0"
             style="fill:#eaab62" /></g></g></g><g
       id="g37"><g
         id="g35"><g
           id="g33"><path
             d="m 221.568,166.373 c -0.008,0.815 -0.123,1.174 0.089,1.821 0.116,0.338 0.393,1.436 0.507,2.51 0.131,1.064 0.17,2.061 0.17,2.061 0,0 0.05,0.988 0.057,2.088 0,1.104 0.002,2.31 0.002,2.711 0.006,0.744 0.272,1.177 0.772,1.795 0.496,-0.625 0.769,-1.036 0.786,-1.782 0.01,-0.402 0.021,-1.618 0.008,-2.74 -0.009,-1.121 -0.066,-2.149 -0.066,-2.149 0,0 -0.033,-1.024 -0.17,-2.166 -0.115,-1.14 -0.426,-2.4 -0.586,-2.82 -0.264,-0.765 -0.802,-1.162 -1.569,-1.329 z"
             id="rJrxlyr6tVz"
             inkscape:connector-curvature="0"
             style="fill:#eaab62" /></g></g></g><g
       id="g44"><g
         id="g42"><g
           id="g40"><path
             d="m 235.064,165.755 c -0.791,0.364 -1.242,0.574 -1.74,1.225 -0.26,0.354 -1.104,1.397 -1.912,2.371 -0.809,0.969 -1.514,1.914 -1.514,1.914 0,0 -0.724,0.932 -1.366,2.107 -0.671,1.165 -1.041,2.68 -1.046,3.204 -0.058,0.473 0.066,0.858 0.19,1.19 0.179,0.328 0.435,0.61 0.736,0.895 0.181,-0.41 0.315,-0.708 0.403,-0.997 0.144,-0.294 0.164,-0.573 0.222,-0.937 0.015,-0.393 0.294,-1.582 0.876,-2.612 0.561,-1.033 1.236,-1.921 1.236,-1.921 0,0 0.666,-0.885 1.473,-1.846 0.801,-0.959 1.682,-2.049 1.952,-2.438 0.511,-0.704 0.571,-1.304 0.49,-2.155 z"
             id="B1Yel1rTtVG"
             inkscape:connector-curvature="0"
             style="fill:#eaab62" /></g></g></g><g
       id="g51"><g
         id="g49"><g
           id="g47"><path
             d="m 250.268,166.974 c -1.045,-0.156 -1.978,0.215 -2.797,0.584 -0.834,0.383 -1.654,0.938 -2.585,1.529 -0.325,0.199 -0.918,0.52 -2.103,1.189 -0.596,0.314 -2.026,1.185 -2.026,1.185 0,0 -0.3,0.176 -0.684,0.399 -0.191,0.113 -0.403,0.238 -0.609,0.358 -0.196,0.144 -0.389,0.281 -0.548,0.396 -0.755,0.577 -1.416,0.981 -1.85,1.413 -0.443,0.416 -0.771,0.723 -0.996,0.933 -0.223,0.216 -0.442,0.412 -0.629,0.622 -0.159,0.211 -0.319,0.42 -0.488,0.641 -0.305,0.416 -0.57,0.81 -0.813,1.198 -0.445,0.81 -0.727,1.658 -1.07,2.612 0.775,-0.704 1.354,-1.307 1.979,-1.917 0.332,-0.291 0.656,-0.597 0.991,-0.939 0.176,-0.188 0.343,-0.366 0.512,-0.546 0.187,-0.182 0.398,-0.355 0.607,-0.554 0.209,-0.193 0.514,-0.478 0.928,-0.86 0.399,-0.4 1.021,-0.771 1.72,-1.308 0.146,-0.108 0.324,-0.237 0.508,-0.371 0.198,-0.117 0.403,-0.239 0.588,-0.351 0.369,-0.22 0.658,-0.393 0.658,-0.393 0,0 1.402,-0.813 1.994,-1.156 1.205,-0.685 1.775,-0.994 2.141,-1.222 1.087,-0.707 1.74,-1.323 2.4,-1.905 0.665,-0.564 1.206,-1.188 2.172,-1.537 z"
             id="ry6eekBpYVf"
             inkscape:connector-curvature="0"
             style="fill:#eaab62" /></g></g></g><g
       id="g58"><g
         id="g56"><g
           id="g54"><path
             d="m 253.496,172.911 c -1.945,0.641 -3.271,1.361 -5.063,2.917 -0.309,0.274 -0.812,0.683 -1.852,1.521 -0.303,0.252 -0.87,0.657 -1.332,1.012 -0.466,0.34 -0.85,0.619 -0.85,0.619 0,0 -0.318,0.248 -0.74,0.506 -0.426,0.248 -0.92,0.619 -1.307,0.783 -0.388,0.188 -0.729,0.379 -1.052,0.521 -0.336,0.117 -0.634,0.223 -0.897,0.315 -0.528,0.181 -0.905,0.343 -1.192,0.394 -0.563,0.137 -1.063,0.276 -1.524,0.423 -0.465,0.139 -0.904,0.246 -1.324,0.389 -0.84,0.291 -1.649,0.569 -2.609,0.952 1.023,0.111 1.887,0.214 2.798,0.179 0.456,-0.018 0.925,-0.026 1.429,-0.104 0.504,-0.084 1.043,-0.193 1.646,-0.335 0.301,-0.05 0.726,-0.224 1.306,-0.42 0.289,-0.103 0.617,-0.22 0.986,-0.349 0.359,-0.155 0.748,-0.367 1.184,-0.582 0.441,-0.191 0.963,-0.582 1.426,-0.858 0.457,-0.286 0.776,-0.539 0.776,-0.539 0,0 0.399,-0.287 0.884,-0.634 0.471,-0.355 1.022,-0.749 1.347,-1.021 1.099,-0.885 1.618,-1.313 1.915,-1.582 1.811,-1.607 2.606,-2.599 4.045,-4.107 z"
             id="SyZWxySptNf"
             inkscape:connector-curvature="0"
             style="fill:#eaab62" /></g></g></g><circle
       cx="203.252"
       cy="151.418"
       r="2.813"
       id="B1fZxyBTK4z"
       style="fill:#fad4a3" /><circle
       cx="223.18201"
       cy="144.026"
       r="2.5209999"
       id="Sy7Ze1BTYVG"
       style="fill:#fce0ae" /><circle
       cx="212.045"
       cy="138.838"
       r="1.87"
       id="rkEbgJBTKNG"
       style="fill:#fce0ae" /><circle
       cx="246.08299"
       cy="154.23"
       r="1.8710001"
       id="HySZlkB6Y4f"
       style="fill:#fce0ae" /><circle
       cx="247.953"
       cy="144.026"
       r="0.912"
       id="r18bxJSatNz"
       style="fill:#fce0ae" /><circle
       cx="189.849"
       cy="172.207"
       r="0.91299999"
       id="HyDWxJH6tVM"
       style="fill:#fce0ae" /><circle
       cx="194.243"
       cy="154.23"
       r="0.91299999"
       id="r1dZgyBpFVf"
       style="fill:#fce0ae" /><circle
       cx="236.384"
       cy="142.041"
       r="0.912"
       id="HJtbgJSTt4z"
       style="fill:#fce0ae" /><circle
       cx="222.37399"
       cy="151.41701"
       r="0.91299999"
       id="H1qbxyHaF4f"
       style="fill:#fce0ae" /><circle
       cx="258.11401"
       cy="157.01401"
       r="0.91299999"
       id="SyoZg1SpYVM"
       style="fill:#fce0ae" /><circle
       cx="235.47099"
       cy="154.23"
       r="0.91299999"
       id="SyhWlJrpYVf"
       style="fill:#fce0ae" /><circle
       cx="235.47099"
       cy="134.343"
       r="0.91299999"
       id="B1p-xkr6FNf"
       style="fill:#fce0ae" /><circle
       cx="227.19099"
       cy="132.517"
       r="0.91299999"
       id="HkRWe1BTK4f"
       style="fill:#fce0ae" /><circle
       cx="212.045"
       cy="156.101"
       r="0.91299999"
       id="ry1MxkBaYNG"
       style="fill:#fce0ae" /><circle
       cx="195.155"
       cy="163.026"
       r="0.91299999"
       id="rklzlJBTYNM"
       style="fill:#fce0ae" /><path
       d="m 246.92,204.31 c -11.447,-15.844 -27.479,6.062 -22.95,11.713 0,0 3.474,3.653 9.991,5.138 -0.416,2.272 -1.23,7.045 -1.372,10.208 -0.19,4.277 -0.286,8.555 3.326,8.555 3.612,0 3.708,-1.14 3.994,-2.662 0.217,-1.166 -0.625,-10.99 -1.032,-15.496 2.41,0.061 5.094,-0.203 8.043,-0.965 0,-0.002 11.447,-0.65 0,-16.491 z"
       id="Hk-GxkrTtVG"
       inkscape:connector-curvature="0"
       style="fill:#c7c6bb" /><path
       d="m 252.611,218.797 c 0,0 13.85,-0.782 0,-19.948 -13.846,-19.166 -33.238,7.332 -27.76,14.168 0.001,0 9.872,10.395 27.76,5.78 z"
       id="SmallMushroom"
       inkscape:connector-curvature="0"
       style="fill:#97342e" /><path
       d="m 248.883,220.146 c 0,0 -14.258,2.162 -22.538,-5.352 -8.278,-7.514 14.306,-6.287 17.83,-4.906 0,0 20.503,5.948 4.708,10.258 z"
       id="Hy7zgyB6YEf"
       inkscape:connector-curvature="0"
       style="fill:#ecd89d" /><path
       d="m 245.758,218.298 c 0,0 -9.406,1.233 -14.869,-3.054 -5.462,-4.288 9.437,-3.588 11.764,-2.8 -0.001,0 13.521,3.394 3.105,5.854 z"
       id="BkNGxyHaFEf"
       inkscape:connector-curvature="0"
       style="fill:#eab96d" /><g
       id="g81"><path
         d="m 242.637,217.244 c 0,0 1.84,19.625 1.494,21.465 -0.344,1.84 -0.46,3.22 -4.828,3.22 -4.371,0 -4.256,-5.176 -4.025,-10.35 0.231,-5.174 1.955,-13.913 1.955,-13.913 0,0 0.346,-3.259 4.371,-1.533 0,0 0.957,0.419 1.033,1.111 z"
         id="H1UzlkB6t4f"
         inkscape:connector-curvature="0"
         style="fill:#e9e9e1" /><path
         d="m 236.109,224.159 c 0.307,-1.76 1.123,-6.493 1.123,-6.493 0,0 0.346,-3.259 4.371,-1.533 0,0 0.957,0.419 1.033,1.111 0,0 0.447,5.022 0.624,7.001 -1.582,0.515 -4.623,0.62 -7.151,-0.086 z"
         id="SywMgkraKEM"
         inkscape:connector-curvature="0"
         style="fill:#c7c6bb" /></g><path
       d="m 245.566,194.519 c 0,0 -3.769,-2.408 -6.051,-0.707 -2.283,1.703 4.344,4.443 6.451,4.227 2.112,-0.22 2.038,-0.576 -0.4,-3.52 z"
       id="Hkufe1S6YNM"
       inkscape:connector-curvature="0"
       style="fill:#be3434" /><path
       d="m 249.725,198.406 c 0,0 2.244,2.079 0.866,2.313 -1.38,0.235 -2.591,-1.508 -2.131,-2.313 0.46,-0.802 1.265,0 1.265,0 z"
       id="HJtGe1H6t4M"
       inkscape:connector-curvature="0"
       style="fill:#be3434" /><g
       id="g90"><g
         id="g88"><g
           id="g86"><path
             d="m 251.293,216.224 c -0.329,0.111 -0.514,0.008 -0.71,-0.007 -0.175,-0.026 -0.337,-0.013 -0.532,0.071 -0.197,0.099 -0.908,0.359 -1.617,0.533 -0.703,0.178 -1.363,0.299 -1.363,0.299 0,0 -0.659,0.123 -1.389,0.217 -0.727,0.104 -1.464,0.107 -1.688,0.092 -0.198,-0.022 -0.368,0.038 -0.521,0.113 -0.188,0.096 -0.336,0.215 -0.687,0.292 0.044,0.664 0.506,1.09 1.08,1.149 0.323,0.039 1.243,0.027 2.02,-0.09 0.773,-0.104 1.468,-0.24 1.468,-0.24 0,0 0.696,-0.119 1.463,-0.311 0.767,-0.183 1.613,-0.486 1.903,-0.646 0.263,-0.132 0.451,-0.316 0.569,-0.579 0.111,-0.229 0.168,-0.614 0.004,-0.893 z"
             id="SJaMxkHTK4M"
             inkscape:connector-curvature="0"
             style="fill:#eaab62" /></g></g></g><g
       id="g97"><g
         id="g95"><g
           id="g93"><path
             d="m 247.035,211.854 c -0.485,0.357 -0.755,0.387 -0.842,0.644 -0.022,0.13 -0.219,0.567 -0.49,0.956 -0.268,0.389 -0.574,0.715 -0.574,0.715 0,0 -0.309,0.323 -0.688,0.631 -0.379,0.313 -0.823,0.586 -0.967,0.655 -0.271,0.155 -0.271,0.438 -0.453,1.006 0.402,0.409 0.801,0.563 1.172,0.379 0.217,-0.092 0.785,-0.44 1.24,-0.823 0.463,-0.379 0.83,-0.775 0.83,-0.775 0,0 0.379,-0.389 0.73,-0.893 0.357,-0.496 0.652,-1.149 0.697,-1.412 0.126,-0.442 -0.141,-0.836 -0.655,-1.083 z"
             id="B1W7e1BpYEz"
             inkscape:connector-curvature="0"
             style="fill:#eaab62" /></g></g></g><g
       id="g104"><g
         id="g102"><g
           id="g100"><path
             d="m 242.135,210.302 c -0.496,-0.111 -0.994,0.074 -1.085,0.43 -0.028,0.099 -0.114,0.312 -0.161,0.547 -0.041,0.231 -0.095,0.511 -0.128,0.771 -0.047,0.511 -0.071,0.97 -0.071,0.97 0,0 -0.028,0.457 -0.032,0.948 -0.009,0.494 -0.003,1.021 0.006,1.196 0.014,0.322 0.282,0.496 0.782,0.77 0.498,-0.266 0.768,-0.459 0.777,-0.781 0,-0.176 0.002,-0.689 0.004,-1.164 0.012,-0.467 0.021,-0.889 0.021,-0.889 0,0 0.029,-0.416 0.072,-0.863 0.035,-0.211 0.072,-0.434 0.104,-0.621 0.035,-0.182 0.087,-0.295 0.102,-0.366 0.054,-0.285 -0.143,-0.362 -0.391,-0.948 z"
             id="rJS7gkHpYVf"
             inkscape:connector-curvature="0"
             style="fill:#eaab62" /></g></g></g><g
       id="g111"><g
         id="g109"><g
           id="g107"><path
             d="m 236.286,210.034 c -0.281,0.508 -0.367,0.877 -0.144,1.197 0.121,0.181 0.514,0.664 0.857,1.076 0.35,0.414 0.626,0.779 0.626,0.779 0,0 0.28,0.373 0.499,0.78 0.229,0.409 0.322,0.832 0.332,0.965 0.032,0.252 0.288,0.371 0.711,0.795 0.546,-0.174 0.875,-0.469 0.842,-0.946 0.001,-0.265 -0.186,-1.014 -0.502,-1.557 -0.302,-0.551 -0.629,-0.966 -0.629,-0.966 0,0 -0.316,-0.429 -0.667,-0.851 -0.333,-0.41 -0.694,-0.856 -0.817,-1.009 -0.212,-0.262 -0.519,-0.243 -1.108,-0.263 z"
             id="ryKXxkHptVz"
             inkscape:connector-curvature="0"
             style="fill:#eaab62" /></g></g></g><g
       id="g118"><g
         id="g116"><g
           id="g114"><path
             d="m 229.693,210.563 c 0.212,0.272 0.238,0.502 0.33,0.686 0.086,0.189 0.195,0.337 0.396,0.477 0.115,0.084 0.346,0.248 0.627,0.448 0.137,0.101 0.352,0.242 0.527,0.347 0.17,0.097 0.345,0.196 0.515,0.295 0.685,0.392 1.306,0.746 1.306,0.746 0,0 0.153,0.092 0.394,0.23 0.207,0.152 0.487,0.357 0.78,0.575 0.263,0.251 0.551,0.502 0.773,0.733 0.209,0.244 0.381,0.444 0.469,0.547 0.313,0.373 0.654,0.461 1.34,0.576 0.177,-0.617 0.238,-1.078 -0.111,-1.539 -0.102,-0.121 -0.303,-0.362 -0.549,-0.656 -0.266,-0.277 -0.605,-0.578 -0.924,-0.872 -0.35,-0.255 -0.684,-0.498 -0.93,-0.679 -0.246,-0.142 -0.406,-0.232 -0.406,-0.232 0,0 -0.635,-0.369 -1.332,-0.775 -0.174,-0.101 -0.354,-0.203 -0.525,-0.305 -0.165,-0.098 -0.271,-0.17 -0.422,-0.275 -0.296,-0.205 -0.539,-0.373 -0.661,-0.459 -0.245,-0.156 -0.496,-0.224 -0.767,-0.211 -0.265,0.011 -0.593,0.11 -0.83,0.343 z"
             id="r1aQekrTFVf"
             inkscape:connector-curvature="0"
             style="fill:#eaab62" /></g></g></g><g
       id="g125"><g
         id="g123"><g
           id="g121"><path
             d="m 228.296,213.137 c 0.138,0.704 0.196,1.017 0.597,1.38 0.229,0.17 0.857,0.754 1.561,1.31 0.682,0.536 1.305,0.971 1.305,0.971 0,0 0.166,0.11 0.45,0.271 0.287,0.149 0.651,0.408 1.08,0.572 0.864,0.348 1.807,0.518 2.112,0.56 0.576,0.092 0.931,-0.144 1.453,-0.575 -0.396,-0.557 -0.668,-0.855 -1.184,-0.961 -0.283,-0.049 -1.125,-0.211 -1.798,-0.479 -0.343,-0.131 -0.627,-0.343 -0.858,-0.455 -0.226,-0.123 -0.371,-0.209 -0.373,-0.218 0,0 -0.605,-0.432 -1.221,-0.921 -0.595,-0.471 -1.292,-1.109 -1.553,-1.291 -0.437,-0.368 -0.951,-0.337 -1.571,-0.164 z"
             id="SJZ4xyHTY4z"
             inkscape:connector-curvature="0"
             style="fill:#eaab62" /></g></g></g><circle
       cx="250.075"
       cy="203.819"
       r="1.219"
       id="BJfNx1BaYNf"
       style="fill:#fad4a3" /><circle
       cx="241.438"
       cy="200.61501"
       r="1.092"
       id="rk7ElJH6K4M"
       style="fill:#fce0ae" /><circle
       cx="246.26401"
       cy="198.36501"
       r="0.81"
       id="HkEVgkr6FEG"
       style="fill:#fce0ae" /><path
       d="m 230.697,205.039 c 0,0.446 0.363,0.812 0.813,0.812 0.445,0 0.811,-0.365 0.811,-0.812 0,-0.447 -0.364,-0.812 -0.811,-0.812 -0.449,0.001 -0.813,0.365 -0.813,0.812 z"
       id="SySNgyH6KVM"
       inkscape:connector-curvature="0"
       style="fill:#fce0ae" /><circle
       cx="230.698"
       cy="200.61501"
       r="0.396"
       id="ryUVeJBpK4f"
       style="fill:#fce0ae" /><circle
       cx="255.886"
       cy="212.83"
       r="0.396"
       id="Byv4eJS6KEG"
       style="fill:#fce0ae" /><circle
       cx="253.98"
       cy="205.039"
       r="0.396"
       id="BkuVlkrTtVz"
       style="fill:#fce0ae" /><circle
       cx="235.713"
       cy="199.755"
       r="0.396"
       id="B1t4lJSaY4M"
       style="fill:#fce0ae" /><circle
       cx="241.786"
       cy="203.819"
       r="0.39500001"
       id="SycVe1rTKVG"
       style="fill:#fce0ae" /><circle
       cx="226.29401"
       cy="206.245"
       r="0.39500001"
       id="rJiNg1r6t4M"
       style="fill:#fce0ae" /><circle
       cx="236.10899"
       cy="205.039"
       r="0.396"
       id="Hk2ElyBTYVM"
       style="fill:#fce0ae" /><circle
       cx="236.10899"
       cy="196.41701"
       r="0.396"
       id="H1aVlyH6KEf"
       style="fill:#fce0ae" /><circle
       cx="239.69901"
       cy="195.62601"
       r="0.396"
       id="H1AVe1BaKEG"
       style="fill:#fce0ae" /><circle
       cx="246.26401"
       cy="205.85001"
       r="0.396"
       id="rk1SgyS6KNG"
       style="fill:#fce0ae" /><circle
       cx="253.586"
       cy="208.85201"
       r="0.396"
       id="H1gHxySTYVG"
       style="fill:#fce0ae" /></svg></svg>
