<svg version="1.1" id="BkgkrTYEG" xmlns:dc="http://purl.org/dc/elements/1.1/" xmlns:cc="http://creativecommons.org/ns#" xmlns:rdf="http://www.w3.org/1999/02/22-rdf-syntax-ns#" xmlns:svg="http://www.w3.org/2000/svg" xmlns:sodipodi="http://sodipodi.sourceforge.net/DTD/sodipodi-0.dtd" xmlns:inkscape="http://www.inkscape.org/namespaces/inkscape" sodipodi:docname="caro.svg" inkscape:version="0.48.5 r10040" xmlns="http://www.w3.org/2000/svg" xmlns:xlink="http://www.w3.org/1999/xlink" x="0px" y="0px" width="430.543px" height="325.295px" viewBox="0 0 430.543 325.295" enable-background="new 0 0 430.543 325.295">
    <style>
        #rkbxJBatEG{fill: #549487;}#BigMushroom{fill: #97342E;}#H1Ql1rTK4M{fill: #ECD89D;}#Sy4lkSpK4G{fill: #EAB96D;}#HJLxkBpFNG{fill: #E9E9E1;}#HyPlyH6YVM{fill: #C7C6BB;}#B1uxJHpF4G{opacity: 0.3;fill: #FFFFFF;}#SkYxJrTKNf{opacity: 0.3;fill: #FFFFFF;}#BkTl1SpY4f{fill: #EAAB62;}#BkWgl1H6tVM{fill: #EAAB62;}#rJrxlyr6tVz{fill: #EAAB62;}#B1Yel1rTtVG{fill: #EAAB62;}#ry6eekBpYVf{fill: #EAAB62;}#SyZWxySptNf{fill: #EAAB62;}#B1fZxyBTK4z{fill: #FAD4A3;}#Sy7Ze1BTYVG{fill: #FCE0AE;}#rkEbgJBTKNG{fill: #FCE0AE;}#HySZlkB6Y4f{fill: #FCE0AE;}#r18bxJSatNz{fill: #FCE0AE;}#HyDWxJH6tVM{fill: #FCE0AE;}#r1dZgyBpFVf{fill: #FCE0AE;}#HJtbgJSTt4z{fill: #FCE0AE;}#H1qbxyHaF4f{fill: #FCE0AE;}#SyoZg1SpYVM{fill: #FCE0AE;}#SyhWlJrpYVf{fill: #FCE0AE;}#B1p-xkr6FNf{fill: #FCE0AE;}#HkRWe1BTK4f{fill: #FCE0AE;}#ry1MxkBaYNG{fill: #FCE0AE;}#rklzlJBTYNM{fill: #FCE0AE;}#Hk-GxkrTtVG{fill: #C7C6BB;}#SmallMushroom{fill: #97342E;}#Hy7zgyB6YEf{fill: #ECD89D;}#BkNGxyHaFEf{fill: #EAB96D;}#H1UzlkB6t4f{fill: #E9E9E1;}#SywMgkraKEM{fill: #C7C6BB;}#Hkufe1S6YNM{fill: #BE3434;}#HJtGe1H6t4M{fill: #BE3434;}#SJaMxkHTK4M{fill: #EAAB62;}#B1W7e1BpYEz{fill: #EAAB62;}#rJS7gkHpYVf{fill: #EAAB62;}#ryKXxkHptVz{fill: #EAAB62;}#r1aQekrTFVf{fill: #EAAB62;}#SJZ4xyHTY4z{fill: #EAAB62;}#BJfNx1BaYNf{fill: #FAD4A3;}#rk7ElJH6K4M{fill: #FCE0AE;}#HkEVgkr6FEG{fill: #FCE0AE;}#SySNgyH6KVM{fill: #FCE0AE;}#ryUVeJBpK4f{fill: #FCE0AE;}#Byv4eJS6KEG{fill: #FCE0AE;}#BkuVlkrTtVz{fill: #FCE0AE;}#B1t4lJSaY4M{fill: #FCE0AE;}#SycVe1rTKVG{fill: #FCE0AE;}#rJiNg1r6t4M{fill: #FCE0AE;}#Hk2ElyBTYVM{fill: #FCE0AE;}#H1aVlyH6KEf{fill: #FCE0AE;}#H1AVe1BaKEG{fill: #FCE0AE;}#rk1SgyS6KNG{fill: #FCE0AE;}#H1gHxySTYVG{fill: #FCE0AE;}

	@keyframes colorchange {
		0% {
			fill: #97342e;
		}
		16.67% {
			fill: #c08346;
		}
		33.33% {
			fill: #97342e;
		}
		50% {
			fill: #83c567;
		}
		66.67% {
			fill: #97342e;
		}
		83.33% {
			fill: #a64a96;
		}
		100% {
			fill: #97342e;
		}
	}

	#BigMushroom {
		transform-origin: 50% 50% !important;
		animation: colorchange 3s linear infinite;
	}



	@keyframes scale {
		0% {
			transform: scale(1, 1);
		}
		16.67% {
			transform: scale(1.5, 1.5);
		}
		33.33% {
			transform: scale(1, 1);
		}
		50% {
			transform: scale(1.5, 1.5);
		}
		66.67% {
			transform: scale(1, 1);
		}
		83.33% {
			transform: scale(1.5, 1.5);
		}
		100% {
			transform: scale(1, 1);
		}
	}

	#SmallMushroom {
		transform-origin: 50% 50% !important;
		animation: scale 3s linear;
	}



	@keyframes Hy7zgyB6YEfAnimation {
		0% {
			transform: scale(1, 1);
		}
		16.67% {
			transform: scale(1.5, 1.5);
		}
		33.33% {
			transform: scale(1, 1);
		}
		50% {
			transform: scale(1.5, 1.5);
		}
		66.67% {
			transform: scale(1, 1);
		}
		83.33% {
			transform: scale(1.5, 1.5);
		}
		100% {
			transform: scale(1, 1);
		}
	}

	#Hy7zgyB6YEf {
		transform-origin: 50% 50% !important;
		animation: Hy7zgyB6YEfAnimation 3s linear;
	}



	@keyframes BkNGxyHaFEfAnimation {
		0% {
			transform: scale(1, 1);
		}
		16.67% {
			transform: scale(1.5, 1.5);
		}
		33.33% {
			transform: scale(1, 1);
		}
		50% {
			transform: scale(1.5, 1.5);
		}
		66.67% {
			transform: scale(1, 1);
		}
		83.33% {
			transform: scale(1.5, 1.5);
		}
		100% {
			transform: scale(1, 1);
		}
	}

	#BkNGxyHaFEf {
		transform-origin: 50% 50% !important;
		animation: BkNGxyHaFEfAnimation 3s linear;
	}
    </style>
    <svg version="1.1" id="BkgkrTYEG" xmlns:dc="http://purl.org/dc/elements/1.1/" xmlns:cc="http://creativecommons.org/ns#" xmlns:rdf="http://www.w3.org/1999/02/22-rdf-syntax-ns#" xmlns:svg="http://www.w3.org/2000/svg" xmlns:sodipodi="http://sodipodi.sourceforge.net/DTD/sodipodi-0.dtd" xmlns:inkscape="http://www.inkscape.org/namespaces/inkscape" sodipodi:docname="caro.svg" inkscape:version="0.48.5 r10040" xmlns="http://www.w3.org/2000/svg" xmlns:xlink="http://www.w3.org/1999/xlink" x="0px" y="0px" width="430.543px" height="325.295px" viewBox="0 0 430.543 325.295" enable-background="new 0 0 430.543 325.295" xml:space="preserve"><defs><inkscape:perspective id="perspective2985" inkscape:vp_z="744.09448 : 526.18109 : 1" inkscape:vp_y="0 : 1000 : 0" inkscape:vp_x="0 : 526.18109 : 1" sodipodi:type="inkscape:persp3d" inkscape:persp3d-origin="372.04724 : 350.78739 : 1"></inkscape:perspective></defs><sodipodi:namedview units="mm" fit-margin-left="0" fit-margin-top="0" showguides="true" showgrid="false" inkscape:cy="150.5455" inkscape:cx="169.11117" inkscape:zoom="1.979899" borderopacity="1.0" bordercolor="#666666" pagecolor="#ffffff" id="SyxxkSpFNM" fit-margin-bottom="0" fit-margin-right="0" inkscape:guide-bbox="true" inkscape:window-maximized="0" inkscape:window-y="44" inkscape:window-x="4" inkscape:window-height="1036" inkscape:window-width="1920" inkscape:object-nodes="true" inkscape:current-layer="layer1" inkscape:document-units="mm" inkscape:pageshadow="2" inkscape:pageopacity="0.0"></sodipodi:namedview><path id="rkbxJBatEG" inkscape:connector-curvature="0" d="M420.733,202.206L215.272,79.612L9.812,202.206&#10;&#9;l205.461,122.595L420.733,202.206z"/><path d="M197.398,185.968c0,0-31.944-1.806,0-46.018c31.944-44.213,76.685,16.915,64.043,32.686&#10;&#9;C261.441,172.636,238.67,196.616,197.398,185.968z" id="BigMushroom"/><path d="M205.999,189.079c0,0,32.896,4.988,51.995-12.344c19.101-17.333-32.995-14.502-41.13-11.318&#10;&#9;C216.864,165.417,169.568,179.14,205.999,189.079z" id="H1Ql1rTK4M"/><path d="M213.212,184.817c0,0,21.699,2.847,34.3-7.045c12.6-9.892-21.766-8.275-27.134-6.459&#10;&#9;C220.378,171.313,189.18,179.146,213.212,184.817z" id="Sy4lkSpK4G"/><g><path d="M220.412,182.388c0,0-4.244,45.274-3.447,49.52c0.795,4.244,1.061,7.428,11.141,7.428&#10;&#9;&#9;c10.082,0,9.815-11.938,9.285-23.875c-0.531-11.938-4.51-32.1-4.51-32.1s-0.796-7.517-10.081-3.536&#10;&#9;&#9;C222.799,179.823,220.588,180.791,220.412,182.388z" id="HJLxkBpFNG"/><path d="M235.473,198.34c-0.709-4.058-2.593-14.979-2.593-14.979s-0.796-7.517-10.081-3.536&#10;&#9;&#9;c0,0-2.211,0.968-2.388,2.563c0,0-1.03,11.59-1.438,16.153C222.625,199.726,229.636,199.97,235.473,198.34z" id="HyPlyH6YVM"/></g><path d="M213.648,129.958c0,0,8.702-5.553,13.965-1.625c5.264,3.927-10.021,10.248-14.887,9.748&#10;&#9;C207.86,137.579,208.03,136.754,213.648,129.958z" id="B1uxJHpF4G"/><path d="M204.06,138.934c0,0-5.18,4.791-1.997,5.334s5.975-3.478,4.915-5.334&#10;&#9;C205.917,137.077,204.06,138.934,204.06,138.934z" id="SkYxJrTKNf"/><g><g><g><path d="M200.439,180.035c0.068,0.503,0.348,0.998,0.683,1.332c0.16,0.192,0.337,0.351,0.52,0.497&#10;&#9;&#9;&#9;&#9;c0.182,0.154,0.37,0.303,0.568,0.424c0.79,0.529,1.692,0.927,2.869,1.277c0.399,0.119,1.049,0.307,2.409,0.623&#10;&#9;&#9;&#9;&#9;c0.516,0.125,1.748,0.361,1.748,0.361s1.029,0.204,1.603,0.297c1.827,0.303,2.976,0.434,3.585,0.484&#10;&#9;&#9;&#9;&#9;c1.229,0.102,2.221,0.059,3.146-0.16c0.898-0.223,1.855-0.579,2.5-1.422c-0.942,0.423-1.76,0.313-2.604,0.282&#10;&#9;&#9;&#9;&#9;c-0.846-0.054-1.741-0.147-2.9-0.255c-0.57-0.053-1.678-0.182-3.467-0.479c-0.559-0.1-1.567-0.278-1.567-0.278&#10;&#9;&#9;&#9;&#9;s-1.194-0.254-1.698-0.36c-1.316-0.304-1.938-0.48-2.317-0.591c-0.878-0.254-1.63-0.471-2.808-0.811&#10;&#9;&#9;&#9;&#9;c-0.211-0.055-0.404-0.123-0.601-0.191c-0.203-0.065-0.402-0.133-0.587-0.228C201.113,180.679,200.757,180.457,200.439,180.035z" id="BkTl1SpY4f"/></g></g></g><g><g><g><path d="M210.269,169.951c-0.535,0.642-0.8,1.313-0.536,2.208c0.088,0.519,0.704,1.885,1.474,2.96&#10;&#9;&#9;&#9;&#9;c0.754,1.088,1.582,1.942,1.582,1.942s0.81,0.869,1.821,1.694c0.999,0.841,2.23,1.595,2.683,1.793&#10;&#9;&#9;&#9;&#9;c0.791,0.409,1.448,0.337,2.234,0.03c-0.564-0.671-0.824-1.036-1.517-1.415c-0.377-0.176-1.485-0.854-2.408-1.623&#10;&#9;&#9;&#9;&#9;c-0.931-0.756-1.68-1.551-1.68-1.551s-0.755-0.793-1.425-1.767c-0.684-0.966-1.199-2.117-1.267-2.502&#10;&#9;&#9;&#9;&#9;C211.005,171.01,210.734,170.705,210.269,169.951z" id="BkWgl1H6tVM"/></g></g></g><g><g><g><path d="M221.568,166.373c-0.008,0.815-0.123,1.174,0.089,1.821c0.116,0.338,0.393,1.436,0.507,2.51&#10;&#9;&#9;&#9;&#9;c0.131,1.064,0.17,2.061,0.17,2.061s0.05,0.988,0.057,2.088c0,1.104,0.002,2.31,0.002,2.711c0.006,0.744,0.272,1.177,0.772,1.795&#10;&#9;&#9;&#9;&#9;c0.496-0.625,0.769-1.036,0.786-1.782c0.01-0.402,0.021-1.618,0.008-2.74c-0.009-1.121-0.066-2.149-0.066-2.149&#10;&#9;&#9;&#9;&#9;s-0.033-1.024-0.17-2.166c-0.115-1.14-0.426-2.4-0.586-2.82C222.873,166.937,222.335,166.54,221.568,166.373z" id="rJrxlyr6tVz"/></g></g></g><g><g><g><path d="M235.064,165.755c-0.791,0.364-1.242,0.574-1.74,1.225c-0.26,0.354-1.104,1.397-1.912,2.371&#10;&#9;&#9;&#9;&#9;c-0.809,0.969-1.514,1.914-1.514,1.914s-0.724,0.932-1.366,2.107c-0.671,1.165-1.041,2.68-1.046,3.204&#10;&#9;&#9;&#9;&#9;c-0.058,0.473,0.066,0.858,0.19,1.19c0.179,0.328,0.435,0.61,0.736,0.895c0.181-0.41,0.315-0.708,0.403-0.997&#10;&#9;&#9;&#9;&#9;c0.144-0.294,0.164-0.573,0.222-0.937c0.015-0.393,0.294-1.582,0.876-2.612c0.561-1.033,1.236-1.921,1.236-1.921&#10;&#9;&#9;&#9;&#9;s0.666-0.885,1.473-1.846c0.801-0.959,1.682-2.049,1.952-2.438C235.085,167.206,235.145,166.606,235.064,165.755z" id="B1Yel1rTtVG"/></g></g></g><g><g><g><path d="M250.268,166.974c-1.045-0.156-1.978,0.215-2.797,0.584c-0.834,0.383-1.654,0.938-2.585,1.529&#10;&#9;&#9;&#9;&#9;c-0.325,0.199-0.918,0.52-2.103,1.189c-0.596,0.314-2.026,1.185-2.026,1.185s-0.3,0.176-0.684,0.399&#10;&#9;&#9;&#9;&#9;c-0.191,0.113-0.403,0.238-0.609,0.358c-0.196,0.144-0.389,0.281-0.548,0.396c-0.755,0.577-1.416,0.981-1.85,1.413&#10;&#9;&#9;&#9;&#9;c-0.443,0.416-0.771,0.723-0.996,0.933c-0.223,0.216-0.442,0.412-0.629,0.622c-0.159,0.211-0.319,0.42-0.488,0.641&#10;&#9;&#9;&#9;&#9;c-0.305,0.416-0.57,0.81-0.813,1.198c-0.445,0.81-0.727,1.658-1.07,2.612c0.775-0.704,1.354-1.307,1.979-1.917&#10;&#9;&#9;&#9;&#9;c0.332-0.291,0.656-0.597,0.991-0.939c0.176-0.188,0.343-0.366,0.512-0.546c0.187-0.182,0.398-0.355,0.607-0.554&#10;&#9;&#9;&#9;&#9;c0.209-0.193,0.514-0.478,0.928-0.86c0.399-0.4,1.021-0.771,1.72-1.308c0.146-0.108,0.324-0.237,0.508-0.371&#10;&#9;&#9;&#9;&#9;c0.198-0.117,0.403-0.239,0.588-0.351c0.369-0.22,0.658-0.393,0.658-0.393s1.402-0.813,1.994-1.156&#10;&#9;&#9;&#9;&#9;c1.205-0.685,1.775-0.994,2.141-1.222c1.087-0.707,1.74-1.323,2.4-1.905C248.761,167.947,249.302,167.323,250.268,166.974z" id="ry6eekBpYVf"/></g></g></g><g><g><g><path d="M253.496,172.911c-1.945,0.641-3.271,1.361-5.063,2.917c-0.309,0.274-0.812,0.683-1.852,1.521&#10;&#9;&#9;&#9;&#9;c-0.303,0.252-0.87,0.657-1.332,1.012c-0.466,0.34-0.85,0.619-0.85,0.619s-0.318,0.248-0.74,0.506&#10;&#9;&#9;&#9;&#9;c-0.426,0.248-0.92,0.619-1.307,0.783c-0.388,0.188-0.729,0.379-1.052,0.521c-0.336,0.117-0.634,0.223-0.897,0.315&#10;&#9;&#9;&#9;&#9;c-0.528,0.181-0.905,0.343-1.192,0.394c-0.563,0.137-1.063,0.276-1.524,0.423c-0.465,0.139-0.904,0.246-1.324,0.389&#10;&#9;&#9;&#9;&#9;c-0.84,0.291-1.649,0.569-2.609,0.952c1.023,0.111,1.887,0.214,2.798,0.179c0.456-0.018,0.925-0.026,1.429-0.104&#10;&#9;&#9;&#9;&#9;c0.504-0.084,1.043-0.193,1.646-0.335c0.301-0.05,0.726-0.224,1.306-0.42c0.289-0.103,0.617-0.22,0.986-0.349&#10;&#9;&#9;&#9;&#9;c0.359-0.155,0.748-0.367,1.184-0.582c0.441-0.191,0.963-0.582,1.426-0.858c0.457-0.286,0.776-0.539,0.776-0.539&#10;&#9;&#9;&#9;&#9;s0.399-0.287,0.884-0.634c0.471-0.355,1.022-0.749,1.347-1.021c1.099-0.885,1.618-1.313,1.915-1.582&#10;&#9;&#9;&#9;&#9;C251.262,175.411,252.057,174.419,253.496,172.911z" id="SyZWxySptNf"/></g></g></g><circle cx="203.252" cy="151.418" r="2.813" id="B1fZxyBTK4z"/><circle cx="223.182" cy="144.026" r="2.521" id="Sy7Ze1BTYVG"/><circle cx="212.045" cy="138.838" r="1.87" id="rkEbgJBTKNG"/><circle cx="246.083" cy="154.23" r="1.871" id="HySZlkB6Y4f"/><circle cx="247.953" cy="144.026" r="0.912" id="r18bxJSatNz"/><circle cx="189.849" cy="172.207" r="0.913" id="HyDWxJH6tVM"/><circle cx="194.243" cy="154.23" r="0.913" id="r1dZgyBpFVf"/><circle cx="236.384" cy="142.041" r="0.912" id="HJtbgJSTt4z"/><circle cx="222.374" cy="151.417" r="0.913" id="H1qbxyHaF4f"/><circle cx="258.114" cy="157.014" r="0.913" id="SyoZg1SpYVM"/><circle cx="235.471" cy="154.23" r="0.913" id="SyhWlJrpYVf"/><circle cx="235.471" cy="134.343" r="0.913" id="B1p-xkr6FNf"/><circle cx="227.191" cy="132.517" r="0.913" id="HkRWe1BTK4f"/><circle cx="212.045" cy="156.101" r="0.913" id="ry1MxkBaYNG"/><circle cx="195.155" cy="163.026" r="0.913" id="rklzlJBTYNM"/><path d="M246.92,204.31c-11.447-15.844-27.479,6.062-22.95,11.713c0,0,3.474,3.653,9.991,5.138&#10;&#9;c-0.416,2.272-1.23,7.045-1.372,10.208c-0.19,4.277-0.286,8.555,3.326,8.555s3.708-1.14,3.994-2.662&#10;&#9;c0.217-1.166-0.625-10.99-1.032-15.496c2.41,0.061,5.094-0.203,8.043-0.965C246.92,220.799,258.367,220.151,246.92,204.31z" id="Hk-GxkrTtVG"/><path d="M252.611,218.797c0,0,13.85-0.782,0-19.948c-13.846-19.166-33.238,7.332-27.76,14.168&#10;&#9;C224.852,213.017,234.723,223.412,252.611,218.797z" id="SmallMushroom"/><path d="M248.883,220.146c0,0-14.258,2.162-22.538-5.352c-8.278-7.514,14.306-6.287,17.83-4.906&#10;&#9;C244.175,209.888,264.678,215.836,248.883,220.146z" id="Hy7zgyB6YEf"/><path d="M245.758,218.298c0,0-9.406,1.233-14.869-3.054c-5.462-4.288,9.437-3.588,11.764-2.8&#10;&#9;C242.652,212.444,256.174,215.838,245.758,218.298z" id="BkNGxyHaFEf"/><g><path d="M242.637,217.244c0,0,1.84,19.625,1.494,21.465c-0.344,1.84-0.46,3.22-4.828,3.22&#10;&#9;&#9;c-4.371,0-4.256-5.176-4.025-10.35c0.231-5.174,1.955-13.913,1.955-13.913s0.346-3.259,4.371-1.533&#10;&#9;&#9;C241.604,216.133,242.561,216.552,242.637,217.244z" id="H1UzlkB6t4f"/><path d="M236.109,224.159c0.307-1.76,1.123-6.493,1.123-6.493s0.346-3.259,4.371-1.533c0,0,0.957,0.419,1.033,1.111&#10;&#9;&#9;c0,0,0.447,5.022,0.624,7.001C241.678,224.76,238.637,224.865,236.109,224.159z" id="SywMgkraKEM"/></g><path d="M245.566,194.519c0,0-3.769-2.408-6.051-0.707c-2.283,1.703,4.344,4.443,6.451,4.227&#10;&#9;C248.078,197.819,248.004,197.463,245.566,194.519z" id="Hkufe1S6YNM"/><path d="M249.725,198.406c0,0,2.244,2.079,0.866,2.313c-1.38,0.235-2.591-1.508-2.131-2.313&#10;&#9;C248.92,197.604,249.725,198.406,249.725,198.406z" id="HJtGe1H6t4M"/><g><g><g><path d="M251.293,216.224c-0.329,0.111-0.514,0.008-0.71-0.007c-0.175-0.026-0.337-0.013-0.532,0.071&#10;&#9;&#9;&#9;&#9;c-0.197,0.099-0.908,0.359-1.617,0.533c-0.703,0.178-1.363,0.299-1.363,0.299s-0.659,0.123-1.389,0.217&#10;&#9;&#9;&#9;&#9;c-0.727,0.104-1.464,0.107-1.688,0.092c-0.198-0.022-0.368,0.038-0.521,0.113c-0.188,0.096-0.336,0.215-0.687,0.292&#10;&#9;&#9;&#9;&#9;c0.044,0.664,0.506,1.09,1.08,1.149c0.323,0.039,1.243,0.027,2.02-0.09c0.773-0.104,1.468-0.24,1.468-0.24&#10;&#9;&#9;&#9;&#9;s0.696-0.119,1.463-0.311c0.767-0.183,1.613-0.486,1.903-0.646c0.263-0.132,0.451-0.316,0.569-0.579&#10;&#9;&#9;&#9;&#9;C251.4,216.888,251.457,216.503,251.293,216.224z" id="SJaMxkHTK4M"/></g></g></g><g><g><g><path d="M247.035,211.854c-0.485,0.357-0.755,0.387-0.842,0.644c-0.022,0.13-0.219,0.567-0.49,0.956&#10;&#9;&#9;&#9;&#9;c-0.268,0.389-0.574,0.715-0.574,0.715s-0.309,0.323-0.688,0.631c-0.379,0.313-0.823,0.586-0.967,0.655&#10;&#9;&#9;&#9;&#9;c-0.271,0.155-0.271,0.438-0.453,1.006c0.402,0.409,0.801,0.563,1.172,0.379c0.217-0.092,0.785-0.44,1.24-0.823&#10;&#9;&#9;&#9;&#9;c0.463-0.379,0.83-0.775,0.83-0.775s0.379-0.389,0.73-0.893c0.357-0.496,0.652-1.149,0.697-1.412&#10;&#9;&#9;&#9;&#9;C247.816,212.495,247.549,212.101,247.035,211.854z" id="B1W7e1BpYEz"/></g></g></g><g><g><g><path d="M242.135,210.302c-0.496-0.111-0.994,0.074-1.085,0.43c-0.028,0.099-0.114,0.312-0.161,0.547&#10;&#9;&#9;&#9;&#9;c-0.041,0.231-0.095,0.511-0.128,0.771c-0.047,0.511-0.071,0.97-0.071,0.97s-0.028,0.457-0.032,0.948&#10;&#9;&#9;&#9;&#9;c-0.009,0.494-0.003,1.021,0.006,1.196c0.014,0.322,0.282,0.496,0.782,0.77c0.498-0.266,0.768-0.459,0.777-0.781&#10;&#9;&#9;&#9;&#9;c0-0.176,0.002-0.689,0.004-1.164c0.012-0.467,0.021-0.889,0.021-0.889s0.029-0.416,0.072-0.863&#10;&#9;&#9;&#9;&#9;c0.035-0.211,0.072-0.434,0.104-0.621c0.035-0.182,0.087-0.295,0.102-0.366C242.58,210.965,242.383,210.888,242.135,210.302z" id="rJS7gkHpYVf"/></g></g></g><g><g><g><path d="M236.286,210.034c-0.281,0.508-0.367,0.877-0.144,1.197c0.121,0.181,0.514,0.664,0.857,1.076&#10;&#9;&#9;&#9;&#9;c0.35,0.414,0.626,0.779,0.626,0.779s0.28,0.373,0.499,0.78c0.229,0.409,0.322,0.832,0.332,0.965&#10;&#9;&#9;&#9;&#9;c0.032,0.252,0.288,0.371,0.711,0.795c0.546-0.174,0.875-0.469,0.842-0.946c0.001-0.265-0.186-1.014-0.502-1.557&#10;&#9;&#9;&#9;&#9;c-0.302-0.551-0.629-0.966-0.629-0.966s-0.316-0.429-0.667-0.851c-0.333-0.41-0.694-0.856-0.817-1.009&#10;&#9;&#9;&#9;&#9;C237.182,210.035,236.875,210.054,236.286,210.034z" id="ryKXxkHptVz"/></g></g></g><g><g><g><path d="M229.693,210.563c0.212,0.272,0.238,0.502,0.33,0.686c0.086,0.189,0.195,0.337,0.396,0.477&#10;&#9;&#9;&#9;&#9;c0.115,0.084,0.346,0.248,0.627,0.448c0.137,0.101,0.352,0.242,0.527,0.347c0.17,0.097,0.345,0.196,0.515,0.295&#10;&#9;&#9;&#9;&#9;c0.685,0.392,1.306,0.746,1.306,0.746s0.153,0.092,0.394,0.23c0.207,0.152,0.487,0.357,0.78,0.575&#10;&#9;&#9;&#9;&#9;c0.263,0.251,0.551,0.502,0.773,0.733c0.209,0.244,0.381,0.444,0.469,0.547c0.313,0.373,0.654,0.461,1.34,0.576&#10;&#9;&#9;&#9;&#9;c0.177-0.617,0.238-1.078-0.111-1.539c-0.102-0.121-0.303-0.362-0.549-0.656c-0.266-0.277-0.605-0.578-0.924-0.872&#10;&#9;&#9;&#9;&#9;c-0.35-0.255-0.684-0.498-0.93-0.679c-0.246-0.142-0.406-0.232-0.406-0.232s-0.635-0.369-1.332-0.775&#10;&#9;&#9;&#9;&#9;c-0.174-0.101-0.354-0.203-0.525-0.305c-0.165-0.098-0.271-0.17-0.422-0.275c-0.296-0.205-0.539-0.373-0.661-0.459&#10;&#9;&#9;&#9;&#9;c-0.245-0.156-0.496-0.224-0.767-0.211C230.258,210.231,229.93,210.33,229.693,210.563z" id="r1aQekrTFVf"/></g></g></g><g><g><g><path d="M228.296,213.137c0.138,0.704,0.196,1.017,0.597,1.38c0.229,0.17,0.857,0.754,1.561,1.31&#10;&#9;&#9;&#9;&#9;c0.682,0.536,1.305,0.971,1.305,0.971s0.166,0.11,0.45,0.271c0.287,0.149,0.651,0.408,1.08,0.572&#10;&#9;&#9;&#9;&#9;c0.864,0.348,1.807,0.518,2.112,0.56c0.576,0.092,0.931-0.144,1.453-0.575c-0.396-0.557-0.668-0.855-1.184-0.961&#10;&#9;&#9;&#9;&#9;c-0.283-0.049-1.125-0.211-1.798-0.479c-0.343-0.131-0.627-0.343-0.858-0.455c-0.226-0.123-0.371-0.209-0.373-0.218&#10;&#9;&#9;&#9;&#9;c0,0-0.605-0.432-1.221-0.921c-0.595-0.471-1.292-1.109-1.553-1.291C229.43,212.933,228.916,212.964,228.296,213.137z" id="SJZ4xyHTY4z"/></g></g></g><circle cx="250.075" cy="203.819" r="1.219" id="BJfNx1BaYNf"/><circle cx="241.438" cy="200.615" r="1.092" id="rk7ElJH6K4M"/><circle cx="246.264" cy="198.365" r="0.81" id="HkEVgkr6FEG"/><path d="M230.697,205.039c0,0.446,0.363,0.812,0.813,0.812c0.445,0,0.811-0.365,0.811-0.812&#10;&#9;c0-0.447-0.364-0.812-0.811-0.812C231.061,204.228,230.697,204.592,230.697,205.039z" id="SySNgyH6KVM"/><circle cx="230.698" cy="200.615" r="0.396" id="ryUVeJBpK4f"/><circle cx="255.886" cy="212.83" r="0.396" id="Byv4eJS6KEG"/><circle cx="253.98" cy="205.039" r="0.396" id="BkuVlkrTtVz"/><circle cx="235.713" cy="199.755" r="0.396" id="B1t4lJSaY4M"/><circle cx="241.786" cy="203.819" r="0.395" id="SycVe1rTKVG"/><circle cx="226.294" cy="206.245" r="0.395" id="rJiNg1r6t4M"/><circle cx="236.109" cy="205.039" r="0.396" id="Hk2ElyBTYVM"/><circle cx="236.109" cy="196.417" r="0.396" id="H1aVlyH6KEf"/><circle cx="239.699" cy="195.626" r="0.396" id="H1AVe1BaKEG"/><circle cx="246.264" cy="205.85" r="0.396" id="rk1SgyS6KNG"/><circle cx="253.586" cy="208.852" r="0.396" id="H1gHxySTYVG"/></svg>
</svg>
