<?xml version="1.0" encoding="UTF-8" standalone="no"?>
<!-- Created with Inkscape (http://www.inkscape.org/) -->

<svg
   xmlns:dc="http://purl.org/dc/elements/1.1/"
   xmlns:cc="http://creativecommons.org/ns#"
   xmlns:rdf="http://www.w3.org/1999/02/22-rdf-syntax-ns#"
   xmlns:svg="http://www.w3.org/2000/svg"
   xmlns="http://www.w3.org/2000/svg"
   xmlns:sodipodi="http://sodipodi.sourceforge.net/DTD/sodipodi-0.dtd"
   xmlns:inkscape="http://www.inkscape.org/namespaces/inkscape"
   width="376.92123"
   height="213.33157"
   id="svg2"
   version="1.1"
   inkscape:version="0.92.2 5c3e80d, 2017-08-06"
   sodipodi:docname="nightfloor.svg">
  <defs
     id="defs4">
    <inkscape:perspective
       sodipodi:type="inkscape:persp3d"
       inkscape:vp_x="0 : 526.18109 : 1"
       inkscape:vp_y="0 : 1000 : 0"
       inkscape:vp_z="744.09448 : 526.18109 : 1"
       inkscape:persp3d-origin="372.04724 : 350.78739 : 1"
       id="perspective2985" />
  </defs>
  <sodipodi:namedview
     id="base"
     pagecolor="#ffffff"
     bordercolor="#666666"
     borderopacity="1.0"
     inkscape:pageopacity="0.0"
     inkscape:pageshadow="2"
     inkscape:zoom="1.4"
     inkscape:cx="199.62256"
     inkscape:cy="11.476457"
     inkscape:document-units="mm"
     inkscape:current-layer="layer1"
     showgrid="false"
     inkscape:object-nodes="true"
     inkscape:window-width="1440"
     inkscape:window-height="766"
     inkscape:window-x="0"
     inkscape:window-y="1"
     inkscape:window-maximized="1"
     showguides="false"
     inkscape:guide-bbox="true"
     units="mm"
     fit-margin-top="0"
     fit-margin-left="0"
     fit-margin-right="0"
     fit-margin-bottom="0" />
  <metadata
     id="metadata7">
    <rdf:RDF>
      <cc:Work
         rdf:about="">
        <dc:format>image/svg+xml</dc:format>
        <dc:type
           rdf:resource="http://purl.org/dc/dcmitype/StillImage" />
        <dc:title />
      </cc:Work>
    </rdf:RDF>
  </metadata>
  <g
     inkscape:label="Layer 1"
     inkscape:groupmode="layer"
     id="layer1"
     transform="translate(-62.954987,-648.7373)">
    <path
       inkscape:connector-curvature="0"
       id="path3908"
       d="M 439.43105,755.40311 251.41558,649.18251 63.400158,755.40307 251.41563,861.62367 Z"
       style="fill:#ffcc00;stroke:#000000;stroke-width:0.89043343px;stroke-linecap:round;stroke-linejoin:round;stroke-opacity:1" />
    <path
       style="fill:#ffcc00;stroke-width:0.44973683"
       d="m 144.28235,709.46978 c 0.1571,-0.2407 0.49363,-0.43762 0.74784,-0.43762 0.2542,0 0.33365,0.19692 0.17654,0.43762 -0.15711,0.24069 -0.49364,0.43761 -0.74784,0.43761 -0.25421,0 -0.33365,-0.19692 -0.17654,-0.43761 z"
       id="path275"
       inkscape:connector-curvature="0" />
    <path
       style="fill:#ffcc00;stroke-width:0.50507629"
       d=""
       id="path277"
       inkscape:connector-curvature="0"
       transform="translate(53.643411,569.625)" />
    <path
       style="fill:#ffcc00;stroke-width:0.50507629"
       d=""
       id="path279"
       inkscape:connector-curvature="0"
       transform="translate(53.643411,569.625)" />
    <path
       style="fill:#ff6600;stroke-width:0.44973683"
       d="M 158.08521,808.22275 C 106.92996,779.3014 65.072752,755.53954 65.069202,755.41862 65.058693,755.06061 250.97153,650.16844 251.53064,650.21693 c 0.94028,0.0815 186.09236,104.88729 185.9588,105.26241 -0.12579,0.35328 -184.97629,104.94364 -185.93248,105.20255 -0.25422,0.0688 -42.3165,-23.53778 -93.47175,-52.45914 z"
       id="path12"
       inkscape:connector-curvature="0" />
    <path
       style="fill:#000000;stroke-width:0.63602394"
       d="M 238.85914,853.53686 C 214.27627,839.84107 68.807307,757.63851 66.452961,756.11244 65.418485,755.4419 67.321761,754.18681 82.140256,745.76769 118.77386,724.95432 212.51848,672.07323 238.2296,657.7181 l 13.07275,-7.29882 3.92182,2.01726 c 8.16278,4.19867 174.18389,98.16189 179.88234,101.80828 l 2.093,1.33929 -66.14945,37.50402 c -74.11724,42.02141 -117.73569,66.60577 -118.96997,67.05424 -0.45427,0.16505 -6.4037,-2.80744 -13.22095,-6.60551 z"
       id="path22115"
       inkscape:connector-curvature="0" />
    <path
       style="fill:#000000;stroke-width:0.71428573"
       d=""
       id="path22117"
       inkscape:connector-curvature="0"
       transform="translate(53.643411,569.625)" />
    <path
       style="fill:#000000;stroke-width:0.71428573"
       d=""
       id="path22119"
       inkscape:connector-curvature="0"
       transform="translate(53.643411,569.625)" />
    <path
       style="fill:#000000;stroke-width:0.63602394"
       d="m 246.40006,857.24546 c -5.29584,-2.73258 -15.33299,-8.34986 -67.65145,-37.86107 -69.03479,-38.94036 -110.488835,-62.49398 -111.369709,-63.27872 -0.757914,-0.67519 -0.17359,-1.24998 3.595005,-3.53634 4.762799,-2.88952 90.122274,-51.17772 146.664904,-82.96892 l 33.6611,-18.92601 4.24986,2.24764 c 20.81121,11.00652 181.21726,102.37963 180.62644,102.89138 -0.30149,0.26114 -35.40337,20.1802 -78.00417,44.26458 -108.46655,61.32159 -105.61377,59.72098 -106.41449,59.70566 -0.25036,-0.005 -2.66123,-1.14697 -5.35749,-2.5382 z"
       id="path22121"
       inkscape:connector-curvature="0" />
    <path
       style="fill:#000000;stroke-width:0.63602394"
       d="m 244.1698,856.05267 c -3.90637,-2.05684 -16.54747,-9.06006 -28.09137,-15.5627 C 167.08066,812.88962 73.336433,759.83158 70.016671,757.82086 l -3.601405,-2.1813 1.587962,-1.22345 c 1.703328,-1.31233 67.451622,-38.62441 139.114222,-78.94714 l 44.05615,-24.78928 2.49254,1.204 c 4.77018,2.30417 68.05003,38.0262 150.14222,84.75658 18.08972,10.29743 32.64948,18.92541 32.35504,19.17328 -0.84663,0.7127 -143.0579,81.22982 -174.18758,98.62145 -5.27411,2.94656 -9.84,5.35737 -10.14642,5.35737 -0.30642,0 -3.75324,-1.68286 -7.6596,-3.7397 z"
       id="path22123"
       inkscape:connector-curvature="0" />
    <path
       style="fill:#000000;stroke-width:0.63602394"
       d="m 246.07325,857.11294 c -5.8547,-2.97683 -38.78334,-21.46475 -110.4647,-62.02084 -26.60304,-15.05154 -52.993094,-29.97565 -58.644573,-33.16471 -5.65148,-3.18906 -10.284134,-5.99378 -10.294787,-6.23272 -0.01065,-0.23894 1.230712,-1.24323 2.758589,-2.23176 3.964594,-2.56508 87.580051,-49.89027 168.433711,-95.33116 l 13.35827,-7.50754 4.70312,2.44399 c 12.09852,6.28702 178.25991,100.45353 180.26466,102.15908 0.71133,0.60516 -182.6085,104.58683 -184.33018,104.55476 -0.30526,-0.006 -2.90811,-1.20678 -5.78411,-2.6691 z"
       id="path22125"
       inkscape:connector-curvature="0" />
  </g>
</svg>
