<?xml version="1.0" encoding="UTF-8" standalone="no"?>
<!-- Created with Inkscape (http://www.inkscape.org/) -->

<svg
   xmlns:dc="http://purl.org/dc/elements/1.1/"
   xmlns:cc="http://creativecommons.org/ns#"
   xmlns:rdf="http://www.w3.org/1999/02/22-rdf-syntax-ns#"
   xmlns:svg="http://www.w3.org/2000/svg"
   xmlns="http://www.w3.org/2000/svg"
   xmlns:sodipodi="http://sodipodi.sourceforge.net/DTD/sodipodi-0.dtd"
   xmlns:inkscape="http://www.inkscape.org/namespaces/inkscape"
   width="429.54401"
   height="256.314"
   viewBox="0 0 113.65018 67.816413"
   version="1.1"
   id="svg8"
   inkscape:version="0.92.2 (5c3e80d, 2017-08-06)"
   sodipodi:docname="party2.svg">
  <defs
     id="defs2" />
  <sodipodi:namedview
     id="base"
     pagecolor="#ffffff"
     bordercolor="#666666"
     borderopacity="1.0"
     inkscape:pageopacity="0.0"
     inkscape:pageshadow="2"
     inkscape:zoom="1.4"
     inkscape:cx="153.17686"
     inkscape:cy="109.12834"
     inkscape:document-units="mm"
     inkscape:current-layer="layer1"
     showgrid="false"
     units="px"
     inkscape:window-width="1366"
     inkscape:window-height="705"
     inkscape:window-x="-8"
     inkscape:window-y="-8"
     inkscape:window-maximized="1" />
  <metadata
     id="metadata5">
    <rdf:RDF>
      <cc:Work
         rdf:about="">
        <dc:format>image/svg+xml</dc:format>
        <dc:type
           rdf:resource="http://purl.org/dc/dcmitype/StillImage" />
        <dc:title></dc:title>
      </cc:Work>
    </rdf:RDF>
  </metadata>
  <g
     inkscape:label="Layer 1"
     inkscape:groupmode="layer"
     id="layer1"
     transform="translate(0,-229.18357)">
    <rect
       style="opacity:1;fill:none;fill-opacity:1;stroke:none;stroke-width:0.82574582;stroke-linecap:round;stroke-linejoin:round;stroke-miterlimit:4;stroke-dasharray:none;stroke-opacity:1"
       id="rect815"
       width="66.174248"
       height="66.174248"
       x="-256.68588"
       y="256.68625"
       transform="matrix(0.85867633,-0.51251826,0.85867633,0.51251826,0,0)" />
    <g
       id="g850"
       transform="matrix(0.94786724,-0.15159323,0.25398026,0.56575365,-53.607283,111.42313)">
      <ellipse
         ry="9.0871639"
         rx="7.4835467"
         cy="256.90955"
         cx="23.519718"
         id="path843"
         style="opacity:1;fill:#ffff00;fill-opacity:1;stroke:#000000;stroke-width:0.26458332;stroke-linecap:round;stroke-linejoin:round;stroke-miterlimit:4;stroke-dasharray:none;stroke-opacity:1" />
      <path
         sodipodi:nodetypes="csssc"
         inkscape:connector-curvature="0"
         id="path845"
         d="m 23.54083,266.02956 c 0,0 -2.345516,1.99848 -0.439591,5.13673 1.848382,3.0435 0.104794,4.26776 -0.439591,5.13673 -1.421359,2.26884 -1.255891,3.77461 -0.439591,5.13672 0.853755,1.42461 -0.439591,5.13673 -0.439591,5.13673"
         style="fill:none;stroke:#000000;stroke-width:0.26458332px;stroke-linecap:butt;stroke-linejoin:miter;stroke-opacity:1" />
    </g>
    <g
       id="g874"
       transform="matrix(0.90272616,0.09594506,-0.16074697,0.53881029,78.468575,116.49933)">
      <ellipse
         style="opacity:1;fill:#ff5555;fill-opacity:1;stroke:#000000;stroke-width:0.26458332;stroke-linecap:round;stroke-linejoin:round;stroke-miterlimit:4;stroke-dasharray:none;stroke-opacity:1"
         id="ellipse852"
         cx="50.356026"
         cy="252.37383"
         rx="7.4835467"
         ry="9.0871639" />
      <path
         style="fill:none;stroke:#000000;stroke-width:0.26458332px;stroke-linecap:butt;stroke-linejoin:miter;stroke-opacity:1"
         d="m 50.377139,261.49385 c 0,0 -2.345516,1.99848 -0.439591,5.13673 1.848382,3.0435 0.104794,4.26776 -0.439591,5.13673 -1.421359,2.26884 -1.255891,3.77461 -0.439591,5.13672 0.853755,1.42461 -0.439591,5.13673 -0.439591,5.13673"
         id="path854"
         inkscape:connector-curvature="0"
         sodipodi:nodetypes="csssc" />
    </g>
    <g
       id="g870"
       transform="matrix(0.89882417,0.14374974,-0.24083922,0.5364813,89.797544,126.69614)">
      <ellipse
         style="opacity:1;fill:#55ff55;fill-opacity:1;stroke:#000000;stroke-width:0.26458332;stroke-linecap:round;stroke-linejoin:round;stroke-miterlimit:4;stroke-dasharray:none;stroke-opacity:1"
         id="ellipse860"
         cx="32.780136"
         cy="260.31134"
         rx="7.4835467"
         ry="9.0871639" />
      <path
         style="fill:none;stroke:#000000;stroke-width:0.26458332px;stroke-linecap:butt;stroke-linejoin:miter;stroke-opacity:1"
         d="m 32.801247,269.43135 c 0,0 -2.345516,1.99848 -0.439591,5.13673 1.848382,3.0435 0.104794,4.26776 -0.439591,5.13673 -1.421359,2.26884 -1.255891,3.77461 -0.439591,5.13672 0.853755,1.42461 -0.439591,5.13673 -0.439591,5.13673"
         id="path862"
         inkscape:connector-curvature="0"
         sodipodi:nodetypes="csssc" />
    </g>
  </g>
</svg>
