<?xml version="1.0" encoding="UTF-8" standalone="no"?>
<!-- Created with Inkscape (http://www.inkscape.org/) -->

<svg
   xmlns:dc="http://purl.org/dc/elements/1.1/"
   xmlns:cc="http://creativecommons.org/ns#"
   xmlns:rdf="http://www.w3.org/1999/02/22-rdf-syntax-ns#"
   xmlns:svg="http://www.w3.org/2000/svg"
   xmlns="http://www.w3.org/2000/svg"
   xmlns:sodipodi="http://sodipodi.sourceforge.net/DTD/sodipodi-0.dtd"
   xmlns:inkscape="http://www.inkscape.org/namespaces/inkscape"
   width="429.544"
   height="256.314"
   id="svg2"
   version="1.1"
   inkscape:version="0.92.2 5c3e80d, 2017-08-06"
   sodipodi:docname="pizza.svg">
  <defs
     id="defs4">
    <inkscape:perspective
       sodipodi:type="inkscape:persp3d"
       inkscape:vp_x="0 : 526.18109 : 1"
       inkscape:vp_y="0 : 1000 : 0"
       inkscape:vp_z="744.09448 : 526.18109 : 1"
       inkscape:persp3d-origin="372.04724 : 350.78739 : 1"
       id="perspective2985" />
  </defs>
  <sodipodi:namedview
     id="base"
     pagecolor="#ffffff"
     bordercolor="#666666"
     borderopacity="1.0"
     inkscape:pageopacity="0.0"
     inkscape:pageshadow="2"
     inkscape:zoom="1.979899"
     inkscape:cx="176.19191"
     inkscape:cy="110.09707"
     inkscape:document-units="mm"
     inkscape:current-layer="layer1"
     showgrid="false"
     inkscape:object-nodes="true"
     inkscape:window-width="1440"
     inkscape:window-height="766"
     inkscape:window-x="0"
     inkscape:window-y="1"
     inkscape:window-maximized="1"
     showguides="false"
     inkscape:guide-bbox="true"
     units="mm"
     fit-margin-top="0"
     fit-margin-left="0"
     fit-margin-right="0"
     fit-margin-bottom="0" />
  <metadata
     id="metadata7">
    <rdf:RDF>
      <cc:Work
         rdf:about="">
        <dc:format>image/svg+xml</dc:format>
        <dc:type
           rdf:resource="http://purl.org/dc/dcmitype/StillImage" />
        <dc:title></dc:title>
      </cc:Work>
    </rdf:RDF>
  </metadata>
  <g
     inkscape:label="Layer 1"
     inkscape:groupmode="layer"
     id="layer1"
     transform="translate(-86.211154,-648.75996)">
    <path
       inkscape:connector-curvature="0"
       id="path3908"
       d="M 471.30774,761.71738 278.9911,649.22334 86.674495,761.71734 278.99114,874.21138 Z"
       style="fill:#ffcc00;stroke:#000000;stroke-width:0.92677325px;stroke-linecap:round;stroke-linejoin:round;stroke-opacity:1" />
    <path
       style="fill:#ffcc00;stroke-width:0.50507629"
       d="m 98.198458,149.19278 c 0.171685,-0.2778 0.539439,-0.50508 0.817231,-0.50508 0.277792,0 0.364606,0.22728 0.192922,0.50508 -0.171685,0.27779 -0.539439,0.50507 -0.817231,0.50507 -0.277792,0 -0.364607,-0.22728 -0.192922,-0.50507 z"
       id="path275"
       inkscape:connector-curvature="0"
       transform="translate(53.643411,569.625)" />
    <path
       style="fill:#ffcc00;stroke-width:0.50507629"
       d=""
       id="path277"
       inkscape:connector-curvature="0"
       transform="translate(53.643411,569.625)" />
    <path
       style="fill:#ffcc00;stroke-width:0.50507629"
       d=""
       id="path279"
       inkscape:connector-curvature="0"
       transform="translate(53.643411,569.625)" />
    <path
       style="fill:#aa8800"
       id="path12"
       d="m 217.94801,725.78098 c 0.65575,1.92204 1.51148,3.77665 2.35076,5.62577 0.16842,0.32076 0.35166,0.63418 0.50526,0.9623 0.73641,1.57313 0.15569,0.57193 0.89987,2.13847 0.45917,0.96657 0.98539,1.91057 1.46087,2.87041 1.15916,2.01641 2.32876,4.03265 3.5637,6.00441 1.56448,2.71735 3.22016,5.37698 4.8506,8.05464 1.68328,2.94467 3.35408,5.89014 4.93454,8.8913 1.46082,2.71736 2.93387,5.43045 4.30176,8.19713 1.38711,2.53333 2.7759,5.06421 4.26549,7.53985 1.96988,3.2629 3.89996,6.54876 5.86133,9.81695 2.93268,4.82978 5.51158,9.8622 8.27961,14.78557 2.58236,4.56202 5.13702,9.1397 7.54458,13.79743 1.50043,2.93295 3.09776,5.80892 4.71109,8.68 0.77117,1.45316 1.66328,2.83936 2.56801,4.2112 0.44607,0.64813 0.76607,1.38398 1.23351,2.01569 0.27243,0.39871 0.52137,0.77072 0.79477,1.156 0.0268,0.034 0.0421,0.0821 0.0805,0.102 0.0185,0.01 0.0335,-0.0393 0.0532,-0.0327 0.17948,0.06 0.30719,0.68204 0.26346,0.57708 0.0954,-0.0164 0.37514,0.45961 0.45708,0.61577 0.43256,2.3625 -7.57422,6.11809 -6.58914,2.45517 0.17168,-0.50091 0.30352,-1.01503 0.35952,-1.54177 0.17582,-0.67857 0.11194,-1.37198 0.14678,-2.06365 0.12285,-0.75605 0.27893,-1.50315 0.34662,-2.267 0.0721,-0.69169 0.0353,-1.3881 0.093,-2.07996 0.099,-0.59042 0.0493,-1.19877 0.0115,-1.79373 -0.0142,-0.66286 -0.0548,-1.32563 -0.0166,-1.98803 0.55239,-2.08466 1.56416,-4.03784 2.43166,-6.00625 1.85406,-4.35288 3.64903,-8.73123 5.48368,-13.0931 0.63546,-1.95 1.57013,-3.80366 2.07823,-5.79431 0.11553,-0.48125 0.13684,-0.97112 0.11774,-1.46298 -0.13991,-1.48634 0.68817,-2.79502 1.2794,-4.10251 0.40014,-0.88492 0.79367,-1.77282 1.19051,-2.65923 2.63417,-5.76724 5.38669,-11.48998 7.8353,-17.33915 1.07953,-2.67145 2.34553,-5.27158 3.13643,-8.04957 0.45211,-1.87143 1.48077,-3.56012 2.33526,-5.26421 0.39246,-0.78268 0.76941,-1.57305 1.15411,-2.35957 0.40315,-0.79634 0.80629,-1.59268 1.20944,-2.38902 1.8123,-3.65592 3.56814,-7.337 5.11877,-11.11218 0.4797,-1.10368 0.91715,-2.22398 1.34817,-3.34711 0.12229,-0.32098 0.11715,-0.65262 0.12052,-0.98979 0.15826,-0.4148 -0.0172,-0.85151 0.18809,-1.26998 0.17736,-0.40463 0.24616,-0.83083 0.27735,-1.26774 0.43151,-1.47558 0.91005,-2.96136 1.49857,-4.38936 0.57694,-1.47365 1.08222,-2.97417 1.71038,-4.42699 0.14302,-0.32576 0.25652,-0.65889 0.32613,-1.00734 0,0 6.77008,-3.32128 6.77008,-3.32128 v 0 c -0.0478,0.41364 -0.11219,0.82862 -0.29792,1.2068 -0.30289,0.70256 -0.12939,0.33876 -0.53006,1.0868 -0.49011,1.09259 -0.81417,2.26744 -1.25925,3.37698 -0.31985,0.70458 -0.50626,1.05694 -0.73732,1.79462 -0.18844,0.60162 -0.32812,1.56526 -0.56757,2.13122 -0.0314,0.0741 -0.11781,0.10976 -0.17672,0.16464 -0.0221,0.49619 -0.0284,0.99944 -0.18987,1.47347 -0.0255,0.0931 -0.0509,0.18612 -0.0764,0.27919 -0.0627,0.0155 -0.1547,-0.009 -0.1881,0.0464 -0.12977,0.21479 0.17925,0.68347 0.0846,0.92239 -0.25877,0.10744 -0.0189,0.71193 -0.15029,0.96621 -0.2794,1.23463 -1.07323,2.32824 -1.50155,3.50844 -1.62393,3.81852 -3.48577,7.52872 -5.30671,11.25631 -2.32323,4.56241 -0.12293,0.17962 -2.3135,4.72459 -0.69858,1.4494 -1.50143,2.91488 -2.00074,4.45533 -0.0586,0.18072 -0.067,0.37399 -0.10055,0.56098 -0.91588,2.85818 -2.27515,5.53019 -3.45563,8.28331 -2.49349,5.83597 -5.29497,11.5408 -7.85197,17.35028 -0.35534,0.86999 -0.70677,1.74159 -1.06603,2.60997 -0.50019,1.20906 -1.24417,2.33083 -1.11008,3.64696 0.0244,0.56066 0.0589,1.12146 -0.0771,1.67347 -0.46962,2.10611 -1.63085,3.97373 -2.2745,6.02645 -1.90828,4.33979 -3.72216,8.72215 -5.51534,13.10851 -0.79293,1.87874 -1.60314,3.76589 -2.17397,5.72188 -0.25308,0.5418 -0.0202,1.23478 -0.0686,1.81789 0.0192,0.6536 0.0803,1.30595 0.0665,1.96038 -0.23837,0.6259 -0.0317,1.35223 -0.13956,2.00844 -0.0643,0.77242 -0.13807,1.54083 -0.33462,2.29347 -0.1512,0.6708 0.1062,1.3865 -0.14231,2.03101 -0.0414,0.57697 -0.10362,1.13924 -0.28231,1.69364 -0.0468,0.1189 -0.15328,0.21089 -0.18868,0.33366 -0.002,0.008 0.0156,0.37097 0.0168,0.39615 -2.22334,1.23801 -4.44668,2.47602 -6.67002,3.71404 0.009,0.004 0.0173,0.008 0.026,0.0118 -0.11917,-0.31361 -0.21313,-0.25177 -0.39918,-0.52766 -0.35777,-0.62989 0.25476,0.0559 -0.37041,-0.62739 -0.24815,-0.39401 -0.52469,-0.76367 -0.7777,-1.15519 -0.43309,-0.66871 -0.76622,-1.39707 -1.20685,-2.06241 -0.86115,-1.41959 -1.70444,-2.84928 -2.48463,-4.3168 -1.52678,-2.92588 -3.10318,-5.82445 -4.55525,-8.79036 -2.34945,-4.6784 -4.84585,-9.27806 -7.40933,-13.84251 -2.75062,-4.92187 -5.39215,-9.91004 -8.3733,-14.69891 -2.02739,-3.22974 -3.99583,-6.49647 -5.98658,-9.74858 -1.51844,-2.48225 -2.93502,-5.02013 -4.31302,-7.58218 -1.38514,-2.75294 -2.76457,-5.51103 -4.26316,-8.2026 -1.55973,-2.99571 -3.22093,-5.92802 -4.90074,-8.85601 -1.63219,-2.67227 -3.32816,-5.30501 -4.89937,-8.0146 -1.25575,-1.98815 -2.50645,-3.98418 -3.64694,-6.03998 -0.48801,-0.96982 -0.99759,-1.93848 -1.46666,-2.91663 -1.91151,-3.98612 0.90856,1.70843 -0.87859,-2.08136 -0.16089,-0.34119 -0.35439,-0.66602 -0.53159,-0.99902 -0.83787,-1.85268 -1.6551,-3.71625 -2.45726,-5.58331 0,0 6.53248,-3.66883 6.53248,-3.66883 z"
       inkscape:connector-curvature="0" />
    <path
       style="fill:#aa8800"
       id="path14"
       d="m 217.92956,723.69503 c -10.80621,6.19315 -5.54521,3.22338 -3.32628,1.67153 1.36667,-0.95581 2.68436,-1.98566 4.01815,-2.98625 1.89249,-1.21337 3.51375,-2.86397 5.45904,-3.99976 2.34618,-1.36985 4.71571,-2.69929 7.07356,-4.04894 0.79203,-0.39976 1.63441,-0.53685 2.51018,-0.52211 0.37816,-0.0481 0.82086,0.13918 1.19237,0.0481 0.13299,-0.0326 0.23502,-0.14226 0.36079,-0.19642 0.15886,-0.0684 0.32681,-0.11336 0.49022,-0.17004 1.49959,-0.61039 3.00469,-1.20398 4.51047,-1.79889 1.48068,-0.56545 2.92725,-1.21643 4.41756,-1.75708 2.08472,-1.21761 -0.79896,0.42583 1.25959,-0.6195 0.19868,-0.10089 0.36239,-0.26535 0.56629,-0.35524 0.22729,-0.10022 0.48497,-0.11622 0.7151,-0.20973 2.69862,-1.09649 -1.35748,0.35764 1.26907,-0.56021 0.20258,-0.0521 0.41231,-0.0819 0.60774,-0.15646 0.18767,-0.0716 0.34802,-0.20334 0.53397,-0.27934 0.64163,-0.26226 1.34708,-0.28647 1.99744,-0.51965 0.16228,-0.037 0.32928,-0.0574 0.48684,-0.11102 0.14968,-0.051 0.27864,-0.15418 0.42964,-0.2011 0.58393,-0.18147 1.28005,-0.13745 1.88357,-0.14547 0.67717,0.0758 1.30563,-0.2159 1.95133,-0.34657 1.67087,-0.33811 -0.56665,0.27622 1.27886,-0.2657 2.06128,-0.35674 4.09932,-0.7864 6.17979,-1.02708 2.48245,-0.46578 5.00218,-0.71673 7.50757,-1.04327 1.3464,-0.15024 2.69503,-0.28801 4.04996,-0.32191 0.97591,-0.0122 1.9519,-6e-4 2.92777,0.009 1.81046,0.025 3.62072,-0.0232 5.42747,0.10556 2.43992,0.0764 4.76172,0.83263 7.08333,1.5067 2.14271,0.61074 4.18483,1.49023 6.13982,2.55032 1.50247,0.59027 2.91999,1.36944 4.33713,2.13707 0.97023,0.51093 1.78963,1.25045 2.75379,1.77767 1.0719,0.82148 2.08444,1.7223 3.04512,2.67118 0.7759,0.86097 1.78331,1.4807 2.49472,2.39665 0.38887,0.33109 0.64581,0.76467 0.9808,1.144 0.23004,0.13056 0.32944,0.46671 0.53258,0.5839 0.13253,0.31642 0.34855,0.4696 0.53984,0.75358 0.34964,0.0585 0.29794,0.53829 0.60567,0.59968 0.22646,0.006 0.28474,0.34439 0.37939,0.49008 0.0229,0.0353 0.0934,-0.0153 0.12576,0.0116 0.0604,0.0502 0.10069,0.12055 0.15103,0.18082 0.28945,0.16343 0.46837,0.45591 0.74462,0.6205 -0.0909,0.31236 0.30076,0.19219 0.36184,0.26298 0.0455,0.0527 0.20159,0.32175 0.25317,0.40923 0.2789,0.10788 0.36594,0.43634 0.62195,0.58468 0.2296,0.17455 0.56877,0.75866 0.75297,0.87134 0.46266,0.80639 1.03208,1.52562 1.69631,2.17868 0.14802,0.16203 0.29603,0.32406 0.44405,0.4861 0,0 -6.37321,3.87332 -6.37321,3.87332 v 0 c -0.14617,-0.15465 -0.29235,-0.30929 -0.43852,-0.46393 -0.64193,-0.67136 -1.25448,-1.36199 -1.76198,-2.14198 -0.23402,-0.28401 -0.45824,-0.57102 -0.73114,-0.82265 -0.23798,-0.25823 -0.49571,-0.49339 -0.72334,-0.75936 -0.0409,-0.0568 -0.24084,-0.21353 -0.50052,-0.47655 -0.24548,-0.23762 -0.53687,-0.43898 -0.78658,-0.68713 -0.25065,-0.16239 -0.33612,-0.44498 -0.5817,-0.56078 -0.27368,-0.25936 -0.43051,-0.58016 -0.72763,-0.81942 -0.0734,-0.0933 -0.65817,-0.73418 -0.48871,-0.61895 -0.18696,-0.23818 -0.3574,-0.48339 -0.58285,-0.69061 -0.28835,-0.41169 -0.59962,-0.78488 -0.92796,-1.1656 -0.7131,-0.86675 -1.65872,-1.50694 -2.40716,-2.3426 -0.92663,-0.90265 -1.90019,-1.77367 -2.97356,-2.49841 -0.92085,-0.57063 -1.77254,-1.2496 -2.72086,-1.77578 -1.39726,-0.77978 -2.82059,-1.51638 -4.28461,-2.16298 -1.91911,-1.02241 -3.92501,-1.85554 -6.02165,-2.44456 -2.2886,-0.67651 -4.59947,-1.31428 -7.00526,-1.35543 -1.82305,-0.0738 -3.64779,-0.0203 -5.47209,-0.0238 -0.97959,0.006 -1.95946,0.003 -2.93873,0.0309 -1.30944,0.0537 -2.61691,0.15146 -3.91823,0.309 -2.49955,0.29763 -5.00474,0.57533 -7.48202,1.02666 -2.08375,0.29033 -4.14196,0.71537 -6.19874,1.15493 -1.10904,0.24247 -2.21654,0.53892 -3.36129,0.51768 -0.93443,0.0683 -1.80546,0.31405 -2.69476,0.60364 -1.05396,0.23973 -2.05597,0.60259 -3.06689,0.98423 -1.27893,0.55654 -2.54164,1.14304 -3.80649,1.73045 -1.46608,0.57397 -2.9212,1.17585 -4.38692,1.75077 -1.52495,0.61321 -3.04947,1.23205 -4.59298,1.79587 -0.73215,0.21312 -1.45276,0.18425 -2.20813,0.18774 -0.78925,0.0774 -1.52527,0.34512 -2.22302,0.72118 1.86919,-1.09416 3.73838,-2.18832 5.60757,-3.28248 -0.28772,0.17354 -0.58543,0.33151 -0.86316,0.52062 -1.15332,0.78532 -2.25177,1.65448 -3.36763,2.49053 -0.45131,0.33814 -0.91544,0.65885 -1.37315,0.98827 -4.26323,3.20025 -8.3926,6.38446 -13.32947,8.60989 0,0 5.89142,-4.6121 5.89142,-4.6121 z"
       inkscape:connector-curvature="0" />
    <path
       style="fill:#ff0000"
       id="path16"
       d="m 255.18005,727.98121 c -0.1703,0.95389 -0.30441,1.9136 -0.38781,2.87896 -0.0492,0.45037 -0.0371,0.90469 -0.10093,1.3532 -0.15563,0.18486 -0.30346,0.34973 -0.39325,0.5676 -0.0847,0.27958 -0.0381,0.74875 -0.36354,0.88471 -0.14578,0.18722 -0.17962,0.41196 -0.20674,0.64037 -0.009,0.30715 -0.0107,0.61473 -0.006,0.92201 0.007,0.30601 -0.0283,-0.0281 0.0437,-0.0317 0.16512,-0.008 0.30387,0.13048 0.45758,0.19136 0.5321,0.13554 0.99419,0.42175 1.51984,0.58715 0.55258,0.0998 1.0666,0.23675 1.59187,0.43352 0.48339,0.16049 0.96417,0.38799 1.33317,0.75052 0.46954,0.10484 0.85061,0.49363 1.26652,0.7447 0.0865,0.0652 0.16462,0.14357 0.25966,0.19565 0.2195,0.1203 0.49607,0.1612 0.70813,0.31298 0.16157,0.11564 0.29633,0.2658 0.45697,0.38271 0.29447,0.19919 0.6878,0.36909 1.05215,0.34571 0.32688,-0.005 0.65362,-0.0133 0.98057,-0.0169 0.47792,-0.008 0.95595,-0.002 1.43385,0.005 0.16024,0.0347 0.31764,0.0873 0.48074,0.1042 1.27697,0.13208 -0.30175,-0.18726 1.19916,0.0838 0.73952,0.13358 1.47206,0.32911 2.21127,0.47047 1.12532,0.26376 2.24136,0.42009 3.3988,0.39858 0.0957,-0.004 0.19144,-0.008 0.28718,-0.0117 0.45429,-0.0173 0.81542,-0.44573 0.69024,-0.37552 -5.95963,3.34235 -7.88426,5.21006 -5.94093,3.35676 0.44767,-0.5536 0.7359,-1.21149 1.10725,-1.81613 0.2802,-0.42254 0.39259,-0.91759 0.61167,-1.37313 0.30984,-0.61829 0.32221,-1.33704 0.35566,-2.01493 0.0402,-0.95359 0.0583,-1.90091 -0.088,-2.84539 -0.15357,-0.77414 -0.42146,-1.53736 -0.796,-2.23304 -0.3557,-0.51031 -0.74297,-1.01955 -1.28031,-1.345 -0.4538,-0.41697 -1.02362,-0.82373 -1.61345,-1.02635 -0.50359,-0.15142 -1.03508,-0.11698 -1.55417,-0.1099 -0.72964,0.07 -1.38588,-0.061 -2.03508,-0.39803 -0.59249,-0.13029 -1.20211,-0.11858 -1.80507,-0.10489 -0.48807,0.0135 -0.97627,0.0151 -1.46445,0.0206 -0.37652,6.3e-4 -0.75324,0.0118 -1.12969,0.003 -0.24559,0.0789 -0.60938,-0.10576 -0.84306,1.3e-4 -0.0598,0.0271 -0.0828,0.10185 -0.12421,0.15278 -0.0923,0.0246 -0.18462,0.0492 -0.27693,0.0739 2.08524,-1.17178 8.40924,-4.55635 6.25572,-3.51536 -2.32652,1.12462 -4.52571,2.49577 -6.77565,3.76669 -0.0774,0.0437 -0.27889,0.21868 -0.20168,0.17458 2.0866,-1.19176 4.14749,-2.42815 6.23406,-3.61997 0.0506,-0.0289 -0.0695,0.0978 -0.11963,0.12747 -2.20748,1.30337 -4.43147,2.5786 -6.6472,3.8679 -0.30005,0.1044 -0.59075,0.0181 -0.89491,0.001 -0.29677,-0.0126 -0.59408,-0.0175 -0.89114,-0.0161 -0.28586,0.0106 -0.54521,-0.0812 -0.74293,0.14594 -0.33419,0.34292 -0.95648,0.28404 -1.41222,0.33585 -0.56409,0.009 -1.12729,0.0285 -1.69148,0.0218 -0.48636,0.008 0.0288,-0.0655 -0.24012,0.19292 -0.0756,0.0726 -0.20551,-0.14891 -0.29819,-0.0999 -0.33175,0.17535 0.69439,0.47357 -0.37481,0.0235 -0.1718,-0.0439 -0.34359,-0.0879 -0.51539,-0.13183 0,0 6.12166,-4.30305 6.12166,-4.30305 v 0 c 0.1656,0.009 0.3312,0.0185 0.4968,0.0277 0.3609,-0.28096 -0.0277,-0.056 0.3806,-0.0622 0.0598,-9e-4 0.0436,-0.14643 0.10342,-0.14661 0.13995,-4.3e-4 0.26291,0.13837 0.41358,0.0723 0.54575,-0.0115 1.09529,-0.0122 1.63546,-0.0986 0.48158,-0.0726 0.89343,-0.31421 1.3464,-0.4399 0.29666,0.0253 0.59168,0.0299 0.88925,0.0304 0.29837,0.007 0.59708,0.0155 0.89548,0.0104 0.25824,-0.0125 0.46975,-0.10289 0.69355,-0.23241 -2.07799,1.23135 -4.14829,2.47575 -6.23395,3.69406 -0.0536,0.0313 0.08,-0.0979 0.13297,-0.13026 2.18888,-1.33981 4.37931,-2.67743 6.58828,-3.98383 0.0805,-0.0476 0.35153,-0.12046 0.27103,-0.0728 -3.67068,2.17265 -13.37191,7.64612 0.53666,-0.23625 0.44389,-0.14565 0.91794,-0.0267 1.38533,-0.061 0.37442,-0.009 0.74906,-4.6e-4 1.12357,-0.006 0.49053,-0.003 0.98106,-0.0175 1.47161,-0.007 0.66381,0.0307 1.33351,0.0851 1.95079,0.35377 0.62202,0.17866 1.24029,0.16726 1.88359,0.15347 0.59621,0.022 1.18285,0.0977 1.72215,0.37463 0.59996,0.332 1.19772,0.67246 1.7029,1.14153 0.57059,0.46381 1.06042,1.02889 1.44976,1.65227 0.39429,0.77314 0.72246,1.60052 0.88746,2.4535 0.17641,0.98802 0.21898,1.96734 0.16947,2.97158 -0.0147,0.76392 -0.0395,1.52688 -0.18977,2.27859 -0.23379,0.49208 -0.50303,0.90946 -0.57604,1.47067 -0.4213,0.59515 -0.79398,1.21232 -1.08696,1.88259 -1.64367,2.62428 -4.95671,4.54971 -8.04095,4.38342 -1.15272,-0.0866 -2.27783,-0.3029 -3.40776,-0.54361 -1.27794,-0.25441 -2.55308,-0.5059 -3.86295,-0.50061 -0.48706,0.009 -0.9742,0.0173 -1.46133,0.0163 -0.35635,-0.002 -0.7157,-0.002 -1.0634,-0.0919 -0.44015,-0.15477 -0.86909,-0.34476 -1.23051,-0.64728 -0.43569,-0.33414 -0.95014,-0.51786 -1.39428,-0.84181 -0.43575,-0.28903 -0.88121,-0.55436 -1.32525,-0.82704 -0.37264,-0.22523 -0.75879,-0.39527 -1.17686,-0.518 -0.52845,-0.15887 -1.07091,-0.26487 -1.59442,-0.44425 -0.51084,-0.20073 -1.00262,-0.44508 -1.53293,-0.59466 -0.43685,-0.15442 -0.97996,-0.3687 -0.97981,-0.93396 0.002,-0.3164 -0.004,-0.63272 -0.001,-0.94914 -0.0129,-0.31152 -0.007,-0.61984 0.0638,-0.92568 0.0463,-0.4317 0.44204,-0.33298 0.43882,-0.7131 0.0262,-0.31381 0.0764,-0.60122 0.25943,-0.87142 0.44847,-0.0181 0.21491,-0.68057 0.30705,-0.99649 0.11284,-0.97329 0.23388,-1.94532 0.38786,-2.91314 0,0 6.7286,-3.30899 6.7286,-3.30899 z"
       inkscape:connector-curvature="0" />
    <path
       style="fill:#ff0000"
       id="path18"
       d="m 263.03196,734.07395 c 1.0322,0.50956 1.88877,1.30243 2.96076,1.74054 0.28434,0.11621 0.58313,0.19328 0.87469,0.28992 0.28473,0.12549 0.56945,0.25097 0.85418,0.37646 1.00992,0.39233 2.09648,0.54889 3.12603,0.86208 2.52896,0.76932 -1.00167,-0.14789 1.42616,0.46077 1.12082,0.17116 2.14421,0.58768 3.26765,0.75655 0.69463,0.17445 1.30936,0.59532 2.04514,0.58283 -0.17834,0.10368 0.44725,-0.0618 0.35063,0.004 -6.98012,4.75314 -4.66906,5.38319 -9.15051,2.80358 -2.7315,-1.41246 -5.32979,-3.01434 -7.83218,-4.79802 -1.22786,-0.97705 -2.58699,-1.76951 -3.90558,-2.61297 -0.29983,-0.17353 -0.58401,-0.15389 -0.89349,-0.11078 -0.0718,-0.0658 -0.14364,-0.13151 -0.21547,-0.19727 -0.0217,0.0278 -0.0309,0.0917 -0.0652,0.0835 -0.39416,-0.0938 -0.57691,-0.70846 -0.6782,-0.96913 6.66232,-3.82037 4.87467,-4.90726 8.7282,-2.83005 0.98813,0.17151 1.73769,0.82842 2.6077,1.25945 0.4247,0.0657 0.56748,0.41937 0.85543,0.65724 0.10593,0.0875 0.38971,0.14628 0.52724,0.19493 0.0331,0.008 0.15115,0.0574 0.17559,-0.0193 0.0219,-0.0689 0.0635,-0.25301 9.8e-4,-0.21681 -2.18197,1.26256 -4.21292,2.78672 -6.45016,3.94852 -0.1642,0.0853 -0.23635,-0.29043 -0.38686,-0.39805 -0.16998,-0.12154 -0.37402,-0.18648 -0.56103,-0.27971 -1.93408,-1.24308 -3.95425,-1.61075 -6.1141,-2.1993 -1.66434,-0.35519 -3.36251,-0.51677 -5.06181,-0.55454 -0.19476,0.12798 -0.72849,-0.1396 -0.91815,0.0162 -0.0515,0.0423 -0.0995,0.22824 -0.0414,0.19563 6.15384,-3.45213 7.60758,-5.74667 6.20277,-3.57011 -0.15571,0.41577 0.52658,0.99582 0.83523,1.17508 0.60618,0.5992 1.46005,0.9027 2.27645,1.10982 0.84089,0.21175 1.71218,0.21839 2.57375,0.23255 0.95456,0.10202 1.85244,-0.0908 2.77582,-0.29051 0.53041,-0.29316 1.08105,-0.54865 1.62051,-0.82599 -7.9115,11.17835 -7.93691,4.49082 -5.74438,3.20672 2.19752,-1.28702 4.24872,-2.89653 6.63321,-3.79082 2.269,-0.85098 -4.188,2.4394 -6.28201,3.6591 -0.0338,-0.10782 0.13653,-0.0344 0.14921,-0.0913 0.0166,-0.0746 -0.0666,-0.19001 -9.6e-4,-0.22915 2.19137,-1.30738 4.43149,-2.53203 6.67301,-3.75143 0.16538,-0.09 0.3724,0.13865 0.45683,0.20193 0.43697,0.20973 0.68547,0.63733 1.10358,0.90178 0.5033,-0.0769 0.92877,0.0233 1.36469,0.26555 0.48108,0.18746 0.56318,0.33507 1.07846,0.26807 0.31113,-0.0197 0.52891,0.57347 0.59881,0.84711 0.0562,0.32555 0.0502,0.59689 -0.2637,0.78111 -11.46701,6.72897 -4.00796,2.58425 -7.52845,4.17814 -1.05225,0.41935 -2.21077,0.53976 -3.21645,1.05739 -0.67572,0.29557 -1.3823,0.4822 -2.11099,0.58273 -0.0454,0.004 -0.0909,0.008 -0.13636,0.0124 0,0 6.04462,-4.52887 6.04462,-4.52887 v 0 c 0.0382,-0.008 0.0764,-0.0165 0.11462,-0.0248 0.67114,-0.15191 1.3136,-0.39405 1.94723,-0.66082 1.08184,-0.35233 2.19383,-0.62356 3.23845,-1.08265 2.36673,-0.94099 5.88272,-3.34892 -5.3554,3.22244 -0.0758,0.0443 0.14548,-0.11006 0.23208,-0.12429 0.0472,-0.008 0.28078,0.0764 0.34552,0.0985 0.0509,-0.22353 0.13645,0.13932 -0.0468,0.0409 -0.44018,-0.0971 -0.78779,-0.36703 -1.21842,-0.49503 -0.48819,-0.14135 -1.04105,-0.0502 -1.46414,-0.41102 -0.27483,-0.23937 -0.57746,-0.65381 -0.96824,-0.68463 -0.0715,0.14012 -0.0159,0.079 -0.19058,0.15856 2.10817,-1.21671 4.21634,-2.43343 6.3245,-3.65014 0.0538,-0.0328 -0.0848,-0.12632 -0.14726,-0.11825 -0.10452,0.0135 0.10285,0.32995 -0.0783,0.3063 -2.18587,1.32422 -4.96985,1.97002 -6.55761,3.97267 -1.50029,1.89233 4.19705,-2.39034 6.27654,-3.61815 0.0837,-0.0494 -0.1953,0.032 -0.28085,0.0781 -0.10407,0.056 -0.12541,0.21213 -0.22719,0.27222 -2.20317,1.30081 -4.4266,2.56703 -6.63989,3.85054 -0.55026,0.26813 -1.11535,0.53782 -1.72011,0.65004 -0.95151,0.17514 -1.90701,0.20447 -2.87284,0.15114 -0.90651,-0.0374 -1.81595,-0.10404 -2.68323,-0.39378 -0.88223,-0.29792 -1.74275,-0.67772 -2.43036,-1.32307 -0.56479,-0.48636 -1.27208,-1.17195 -1.31011,-1.95375 0.47685,-4.28919 4.73346,-4.50932 7.64042,-4.24243 1.69924,0.12272 3.39261,0.3565 5.05055,0.75469 2.18187,0.56126 4.34107,1.13884 6.29566,2.31019 0.22884,0.1448 0.47167,0.26954 0.6865,0.4344 0.16514,0.12674 0.60078,0.29505 0.44736,0.43576 -3.92091,3.59586 -3.89182,5.75543 -6.45061,4.31382 -0.47972,-0.28056 -0.84858,-0.69494 -1.36413,-0.91641 -0.83341,-0.4963 -1.67087,-0.95728 -2.59874,-1.25783 -0.39327,-0.20958 -0.78158,-0.45232 -1.22647,-0.53502 -0.11488,-0.0213 -0.23278,-0.0427 -0.34912,-0.0317 -0.0754,0.007 -0.27612,0.12321 -0.21101,0.0845 2.09446,-1.24595 4.2009,-2.47166 6.30135,-3.70749 -0.24067,-0.34555 -0.5505,-0.60414 -0.12626,-0.46278 0.24083,0.0803 0.18779,0.21893 0.22222,0.0416 0.40123,0.0542 0.77658,0.2708 1.11136,0.48867 1.25778,0.90266 2.54493,1.76767 3.75478,2.73552 2.46647,1.79669 5.06662,3.35121 7.80055,4.71062 0.83337,0.4327 1.26374,0.68987 2.11894,1.01599 0.19865,0.0758 0.77138,0.0423 0.61126,0.18218 -4.65778,4.0691 -3.53312,4.79617 -6.2244,4.34979 -0.69448,-0.17277 -1.32747,-0.52735 -2.04024,-0.6328 -1.09803,-0.23949 -2.15784,-0.6186 -3.26075,-0.84094 -1.53187,-0.46221 -3.08084,-0.87095 -4.58375,-1.42394 -0.5826,-0.24475 -1.1838,-0.446 -1.75681,-0.71243 -1.07802,-0.50126 -2.01091,-1.26876 -3.07966,-1.78869 0,0 6.31348,-4.01381 6.31348,-4.01381 z"
       inkscape:connector-curvature="0" />
    <path
       style="fill:#ff0000"
       id="path20"
       d="m 261.20177,766.91862 c -0.38079,1.19912 -0.62984,2.43239 -0.80531,3.67647 -0.0831,0.76791 -0.19622,1.54511 -0.0269,2.30642 0.1721,0.57966 0.22348,1.18968 0.4538,1.75028 0.11154,0.49692 0.36565,0.77244 0.73369,1.0926 0.56402,0.2204 1.16539,0.23175 1.76686,0.25379 0.75526,0.029 1.47416,0.31383 2.22322,0.42691 0.61643,0.0737 1.23738,0.0757 1.85716,0.08 0.57257,10e-4 1.14512,-0.005 1.71768,-0.005 0.35511,-0.26 0.76029,-0.46292 1.20438,-0.49262 0.12019,-0.094 0.30479,0.0583 0.4229,-0.0189 0.056,-0.0366 0.12035,-0.22321 0.0618,-0.19094 -2.12451,1.17039 -8.51665,4.6292 -6.30606,3.63091 0.27864,-0.12583 16.85531,-9.63068 0.41144,-0.20998 0.59532,-0.3301 1.04012,-0.82617 1.49511,-1.32307 0.42878,-0.4588 0.76959,-0.988 1.14501,-1.48934 0.27678,-0.56345 0.55797,-1.1426 0.67931,-1.76069 0.13004,-0.75895 0.29818,-1.50769 0.39727,-2.27205 0.0691,-0.46573 0.0876,-0.9369 0.0912,-1.40711 -0.31202,-0.69907 -1.1609,-1.04512 -1.74751,-1.46202 -0.25922,-0.18421 -0.50225,-0.39019 -0.75338,-0.58529 -1.34958,-1.03245 -2.89028,-1.78552 -4.48066,-2.3674 -0.58272,-0.10697 -1.47927,-0.56081 -2.02465,-0.17423 14.50062,-7.08029 7.16262,-4.69018 5.61441,-2.9527 -0.31817,0.42863 -0.15457,0.2345 -0.48426,0.58781 -0.43105,0.58717 -0.92706,1.1144 -1.24774,1.77364 -0.2771,0.62536 -0.55737,1.21828 -0.69242,1.89314 -0.087,0.57406 -0.0999,1.15506 -0.10981,1.73447 -0.002,0.53063 0.007,1.06125 0.005,1.59201 -0.0441,0.1783 0.12372,1.12176 -0.0621,0.48765 0.50064,-0.0695 1.01872,-0.0343 1.52525,-0.0332 0.61081,-0.007 1.22175,-5.9e-4 1.83242,-0.0135 4.2275,-2.06048 -7.58879,4.5368 -5.17167,3.03855 21.47493,-14.71975 -2.961,3.87447 0.97465,-0.67584 0.27137,-0.13396 0.2428,-0.53554 0.25117,-0.80701 -0.5549,-0.10845 -1.41427,-0.34357 -2.06938,-0.44857 -0.36505,0.003 -2.24516,-0.35427 -2.51064,-0.22254 -0.0873,0.0433 -0.097,0.16914 -0.14555,0.25371 2.07885,-1.19811 4.14173,-2.42436 6.23655,-3.59432 0.0774,-0.0432 -0.12794,0.12673 -0.16868,0.20541 -0.0522,0.10088 -0.0798,0.21341 -0.10547,0.32407 -0.0908,0.39088 -0.0963,0.79813 -0.10322,1.19689 -0.063,0.72456 -0.0165,0.95918 0.31771,1.53971 0.31535,0.23491 0.6482,0.18336 1.02994,0.21373 0.19262,-0.0322 0.3938,0.0373 0.58573,10e-4 0.32212,-0.0601 0.63978,-0.35675 0.93045,-0.49949 -2.04819,1.1695 -4.09638,2.33901 -6.14456,3.50852 0.55559,-0.37208 1.04314,-0.79631 1.53437,-1.24467 0.34334,-0.40387 0.64982,-0.79827 0.8976,-1.27634 0.14466,-0.37454 0.16714,-0.77076 0.21886,-1.16364 0.0159,-0.43744 -0.0561,0.32998 -0.0154,0.30905 2.13919,-1.09917 4.16628,-2.40402 6.24942,-3.60603 -0.48983,0.55167 -1.01229,1.08936 -1.35795,1.74682 -0.35791,0.50709 -0.5841,0.97335 -0.68095,1.58643 -0.0169,0.33125 -0.0268,0.66281 -0.008,0.99408 -0.19399,-0.35493 0.12397,-0.3465 0.39108,-0.35636 0.2409,-0.032 0.48278,-0.0133 0.72501,-0.0256 0.10888,-0.045 0.56632,0.0942 0.62972,0.005 0.0384,-0.0542 0.01,-0.13252 0.0145,-0.19878 -2.0965,1.2172 -8.34011,2.35859 -6.28949,3.65159 2.5368,1.59956 7.07887,-6.3747 7.12514,-2.15167 -0.0651,0.40223 0.0665,0.80245 0.0413,1.2013 0.15982,0.42001 0.0911,0.23071 0.28813,0.0943 2.29045,-1.05183 -0.26503,0.11962 -6.33666,3.50121 -0.0421,0.0235 0.10203,-0.0105 0.13839,-0.0422 0.17849,-0.15551 0.13935,-0.56743 0.14988,-0.76342 0.006,-0.85547 0.002,-1.71186 -0.0256,-2.56694 -0.0507,-0.59496 0.049,-1.21023 -0.0392,-1.80112 -0.0639,-0.43686 -0.3325,-0.68284 -0.47821,-1.06731 -0.74287,-2.89213 -3.14449,0.31349 6.66482,-3.54161 0.004,-0.002 0.006,0.22783 0.01,0.68678 0.0185,0.67822 0.0153,1.35642 0.0194,2.03477 -0.001,0.47219 0.0127,0.94428 0.0125,1.41641 -0.0417,3.08968 1.441,-0.23026 -6.70196,4.22184 -0.44551,-0.91551 -0.64541,-1.95062 -0.8609,-2.94406 -0.13695,-0.93494 -0.41505,-1.83906 -0.5843,-2.76957 -0.0494,-0.37228 -0.0281,-0.19492 -0.0652,-0.53191 0,0 6.68664,-3.47075 6.68664,-3.47075 v 0 c 0.0121,0.31407 0.003,0.14989 0.0279,0.49247 0.10316,0.94025 0.38212,1.832 0.52759,2.75799 0.13836,0.79912 0.42878,1.55936 0.58724,2.35559 -8.07465,4.92834 -6.28792,6.23641 -6.33902,3.31301 1.7e-4,-0.47603 0.0146,-0.952 0.013,-1.42808 0.003,-0.67543 -0.002,-1.35068 -0.007,-2.02611 -0.004,-0.12088 -0.006,-0.24179 -0.0109,-0.36264 -0.003,-0.0941 -0.0953,-0.23737 -0.0125,-0.28211 2.23654,-1.20811 8.23189,-1.62327 6.69625,-3.64896 -0.0247,-0.0326 -0.0163,0.16252 -0.03,0.11884 -0.006,0.27528 0.49807,0.74569 0.46753,1.08956 0.19444,0.6365 0.06,1.3118 0.10114,1.97069 -0.007,0.86129 0.0208,1.72259 0.0383,2.58367 0.0604,3.02901 -0.94891,6.40263 -6.79763,5.09833 -0.38479,-0.16859 -0.61876,-0.51282 -0.77125,-0.8925 -0.12946,-0.36919 -0.13423,-0.98896 -0.11646,-1.38649 6.5e-4,-0.022 -0.006,-0.54625 0.0256,-0.56373 2.17195,-1.19501 6.87403,-6.01027 6.53231,-3.55494 -0.3522,2.53056 -4.38919,2.61653 -6.58378,3.92479 -0.2815,-0.0962 -0.55821,-0.0892 -0.85512,-0.0669 -0.23955,-0.003 -0.47742,0.0233 -0.71664,0.007 -0.47493,-0.01 -0.79358,-0.17771 -1.01449,-0.6292 -0.003,-0.36132 -0.0256,-0.72272 0.002,-1.08364 0.008,-0.64055 0.0268,-1.44037 0.57629,-1.85207 0.11417,-0.24825 0.17156,-0.5224 0.3048,-0.76096 0.12609,-0.22577 0.36815,-0.36743 0.51448,-0.58064 0.39859,-0.58078 -0.0689,-0.17624 0.44595,-0.55301 2.30262,-1.40458 6.61057,-5.78956 7.42418,-3.218 0.0165,0.0523 -0.003,0.10962 -0.004,0.16444 0.0232,0.4497 -0.0542,0.91644 -0.14848,1.3518 -0.0879,0.53684 -0.32127,1.22248 -0.80058,1.48694 -0.23758,0.52721 -0.27328,0.34335 -0.59982,0.70226 -0.0961,0.10564 -0.12214,0.26407 -0.22122,0.36694 -0.17192,0.1785 -0.46947,0.19856 -0.63752,0.38255 -2.09258,1.23404 -5.33699,4.5347 -8.49773,4.13461 -0.58202,-0.10722 -1.03711,-0.33385 -1.41021,-0.80626 -0.33958,-0.65953 -0.57938,-1.12102 -0.48391,-1.90631 0.16287,-4.12218 0.29304,-2.85666 6.74538,-6.19156 0.95515,0.10552 1.91394,0.18518 2.8591,0.36686 0.95958,0.19266 2.21918,0.32785 2.70407,1.30387 -0.006,0.42492 -0.0406,0.84403 -0.0446,1.26688 -0.0251,0.0318 -0.20805,0.26512 -0.22005,0.27257 -4.50569,2.79623 -12.9418,7.64243 -0.53298,0.4653 0.0592,-0.0343 -0.10695,0.0853 -0.16043,0.12795 -2.19052,1.76507 -4.98455,3.89082 -7.92935,4.1577 -0.60786,-0.008 -1.21588,0.006 -1.82381,-0.003 -0.59465,-0.007 -1.25173,0.0396 -1.77816,-0.27467 -0.39137,-0.50003 -0.33708,-0.57626 -0.30719,-1.17434 -0.005,-0.53328 -0.003,-1.06645 -0.004,-1.59966 -0.004,-0.61367 0.003,-1.22692 0.0746,-1.83731 0.076,-0.72083 0.1956,-1.42706 0.62712,-2.02677 0.20212,-0.76416 0.59656,-1.40243 1.16816,-1.95232 0.64304,-1.21586 -0.27098,0.3931 0.4798,-0.58613 0.0809,-0.10557 0.085,-0.25649 0.16302,-0.36424 0.0627,-0.0866 0.17715,-0.12326 0.24786,-0.20341 0.0617,-0.07 0.0958,-0.16024 0.14365,-0.24036 2.24166,-1.25972 4.48332,-2.51945 6.72498,-3.77917 0.76442,0.0896 1.50788,0.25556 2.21854,0.56282 1.59463,0.6919 3.15203,1.49859 4.5374,2.55697 1.06999,0.74726 2.37372,1.36405 2.96117,2.59586 -0.004,0.50102 10e-4,1.00278 -0.0551,1.50161 -0.11787,0.75828 -0.21561,1.52023 -0.42168,2.26077 -0.0346,0.71074 -0.24501,1.34125 -0.55263,1.98488 -0.21329,0.64561 -0.73372,1.11863 -1.07334,1.69179 -0.45294,0.49608 -0.86564,1.09577 -1.41328,1.4679 -19.82603,11.50871 1.55261,-0.91068 -0.38371,0.24931 -2.18311,1.30784 -4.38424,2.58667 -6.61157,3.8177 -0.0947,0.0524 -0.49179,-0.10674 -0.59322,0.061 -0.40908,0.1961 -0.83746,0.39148 -1.30077,0.33833 -0.5743,0.003 -1.14872,0.002 -1.72291,-0.01 -0.64522,-0.0178 -1.29165,-0.0604 -1.92613,-0.18544 -0.71722,-0.15883 -1.42549,-0.3711 -2.16807,-0.35967 -0.7378,-0.0744 -1.4615,-0.18787 -2.06292,-0.6595 -0.42046,-0.39607 -0.76122,-0.80363 -0.89642,-1.38127 -0.25208,-0.60135 -0.34885,-1.22223 -0.50003,-1.855 -0.22721,-0.84899 -0.18999,-1.70209 -0.0738,-2.57254 0.16627,-1.27164 0.44197,-2.52197 0.74604,-3.76707 0,0 6.77104,-3.21591 6.77104,-3.21591 z"
       inkscape:connector-curvature="0" />
    <path
       style="fill:#ff0000"
       id="path22"
       d="m 296.98987,725.5474 c -0.63925,1.0071 -1.21616,2.04616 -1.74504,3.11454 -0.28326,0.52888 -0.48829,1.08136 -0.58658,1.67112 0.047,0.34489 0.15645,0.78173 0.34231,1.08419 0.27724,0.48732 0.52821,0.95168 0.83761,1.41754 0.15725,0.2297 0.22915,0.57774 0.4948,0.72261 0.0838,0.0457 0.19314,0.0111 0.28297,0.0433 0.40682,-0.0202 0.81756,-0.0136 1.22675,-0.024 0.45448,-0.003 0.90863,-0.0126 1.36308,-0.0131 0.0933,-0.11191 0.31184,0.0886 0.41694,-0.002 0.0717,-0.0621 0.20702,-0.30154 0.1237,-0.25623 -15.04192,8.17913 -7.53631,4.70178 -5.79302,3.28393 2.20587,-1.90214 4.82306,-3.36679 7.49574,-4.52975 0.27258,-0.12185 0.58988,-0.0533 0.88984,-0.029 0.0628,-0.33061 0.33779,-0.006 0.44788,-0.0808 0.0454,-0.0308 -0.002,-0.12178 0.0373,-0.16029 0.0459,-0.0453 0.2402,-0.0908 0.18447,-0.0584 -2.10054,1.22431 -4.21528,2.42412 -6.32292,3.63618 0.19169,-0.088 0.23877,-0.30642 0.36818,-0.44103 0.0476,-0.0495 0.1384,-0.0367 0.18788,-0.0842 0.12793,-0.12294 0.15722,-0.32973 0.1989,-0.48721 0.0726,-0.69989 0.28887,-1.37081 0.42779,-2.05719 0.003,-0.25289 0.22769,-0.66545 0.0245,-0.89682 -0.0654,-0.0744 -0.18453,-0.0795 -0.26048,-0.14308 -1.25325,-1.04949 0.3691,0.12685 -0.84687,-0.72591 -0.78175,-0.78436 -1.71782,-1.36 -2.53781,-2.10309 -0.32337,-0.32248 -0.45895,-0.76004 -0.97223,-0.61656 -0.40399,-0.29469 -0.77739,-0.36601 -1.26626,-0.39481 -0.25793,0.0603 -1.0475,-0.16059 -1.2515,-0.0376 -0.0839,0.0506 -0.23502,0.30015 -0.14907,0.25319 2.09077,-1.14226 4.13243,-2.37219 6.19865,-3.55829 -0.69628,0.92161 -0.63293,2.27145 -0.68026,3.38306 -0.0243,1.08908 -0.0353,2.17961 -0.006,3.2687 0.006,0.41676 0.0304,0.83381 0.0281,1.25065 0.0661,0.66274 -0.23829,0.10781 0.10892,0.0901 0.42764,-0.007 0.85561,-0.002 1.28333,-0.0145 0.28845,0.0546 0.32561,-0.12952 0.54775,-0.26276 -2.09035,1.19649 -4.17284,2.40682 -6.27105,3.58945 -0.0967,0.0545 0.17768,-0.14289 0.28448,-0.17321 0.0358,-0.34416 0.48346,-0.24205 0.62528,-0.45138 0.2565,-0.3786 -0.0233,-0.19519 0.31108,-0.35953 0.2694,-0.20634 0.38787,-0.79187 0.45981,0.0242 -0.18874,-0.0517 -0.14661,0.21614 -0.2836,0.3151 -0.10445,0.0755 -0.2393,0.0957 -0.35847,0.14465 2.10307,-1.20943 4.20613,-2.41885 6.3092,-3.62828 -0.12908,0.0826 -0.39881,0.28314 -0.42602,0.29634 0.31229,-0.0643 0.62503,0.0969 0.90734,-0.13043 1.74536,-2.02324 0.22683,-0.21446 -6.00674,3.3457 -0.098,0.056 0.19147,-0.11975 0.28229,-0.18667 0.24298,-0.17904 0.46095,-0.39568 0.68036,-0.60185 0.2586,-0.2565 0.13581,-0.1329 0.36883,-0.37033 0,0 6.95513,-2.89066 6.95513,-2.89066 v 0 c -0.2401,0.24713 -0.11489,0.11822 -0.37561,0.38673 -2.13143,2.22546 -4.80279,4.44547 -7.91507,4.85779 -0.5568,-0.0874 -1.08792,-0.17614 -1.44825,-0.65809 -0.25042,-0.46376 -0.31069,-0.77786 -0.015,-1.22447 2.20028,-1.29075 4.39721,-2.58723 6.60083,-3.87226 0.15811,-0.0922 0.36565,-0.20373 0.55518,-0.16817 0.12987,0.0244 0.2898,0.0948 0.42095,0.14983 0.54302,0.52377 0.53888,0.66954 0.23166,1.28197 -0.31938,0.68681 0.12375,-0.0673 -0.35247,0.24094 -0.21617,0.13994 0.006,0.69145 -0.56352,0.5938 -0.13865,0.33154 0.007,0.12152 -0.25577,0.27381 -5.15108,2.98865 -4.31477,3.9234 -7.37183,3.91249 -0.45932,-0.0129 -0.92871,0.005 -1.37594,-0.11505 -0.4334,-0.17122 -0.69708,-0.49858 -0.63769,-0.96601 -0.005,-0.42364 0.0128,-0.84767 0.014,-1.27131 0.0191,-1.1062 -8.6e-4,-2.21313 0.0357,-3.3192 0.0436,-1.29313 0.10014,-2.58817 0.39069,-3.85458 5.01924,-3.03134 4.66777,-4.35153 8.28509,-3.88289 0.45843,0.0895 0.85198,0.31663 1.30175,0.39597 0.51165,0.216 0.83768,0.57357 1.17052,1.00615 0.79405,0.72368 1.69064,1.3284 2.47968,2.05718 0.86266,0.6871 1.77171,1.23549 1.52517,2.47081 -0.11743,0.69383 -0.36115,1.356 -0.42501,2.05401 -0.0297,0.25273 0.006,0.86909 -0.14852,1.07311 -0.0452,0.0598 -0.16733,-0.0265 -0.22362,0.023 -0.064,0.0562 -0.0526,0.16193 -0.0789,0.2429 -0.0321,0.0268 -0.0642,0.0537 -0.0963,0.0806 -2.19466,1.29879 -4.38516,2.60465 -6.58398,3.89638 -0.0572,0.0336 -0.11645,0.0757 -0.18269,0.0788 -0.0736,0.003 -0.13902,-0.0561 -0.21255,-0.0604 -0.11867,-0.007 -0.26472,0.34282 -0.43164,0.0904 -0.27291,0.0426 -0.46557,0.11491 -0.69544,0.26967 -2.43717,1.24324 8.84726,-5.67355 5.37951,-3.0018 -2.17022,2.02735 -4.77414,4.46145 -7.81884,4.24384 -0.45412,0.005 -0.90812,0.004 -1.36229,0.007 -0.48599,-0.013 -0.97286,-0.0181 -1.41952,-0.23835 -0.45816,-0.25488 -0.78387,-0.65323 -0.99235,-1.13256 -0.30358,-0.48438 -0.56517,-0.95875 -0.8592,-1.44582 -0.26568,-0.46475 -0.36831,-1.01014 -0.56509,-1.50851 0.0411,-0.68583 0.19671,-1.32301 0.51001,-1.94117 0.27674,-0.51485 0.4853,-1.08403 0.76746,-1.58885 0.2979,-0.53298 0.76103,-0.98811 0.9338,-1.59758 0,0 6.86807,-3.00501 6.86807,-3.00501 z"
       inkscape:connector-curvature="0" />
    <path
       style="fill:#008000"
       id="path24"
       d="m 251.17639,749.14666 c -0.10683,1.06345 0.15794,2.05265 0.53243,3.0322 0.20949,0.53193 0.6386,0.90179 0.99233,1.33351 0.26786,0.27029 0.38371,0.28586 0.73081,0.28159 0.36789,-0.0139 0.73603,-0.0201 1.10429,-0.0206 0.63401,-0.0195 0.80411,0.12749 1.33067,-0.26738 -10.29178,6.9231 -7.53464,4.72768 -5.47263,2.87804 0.26765,-0.25025 0.66512,-0.38528 0.90162,-0.63649 0.19902,-0.16495 0.23958,-0.25832 0.26255,-0.51732 -9.8e-4,-0.40685 0.10381,-0.78727 -0.2098,-1.08384 -0.62063,-0.53562 -1.36578,-0.88065 -2.07249,-1.28365 -0.45253,-0.341 -1.04105,-0.42175 -1.5035,-0.74108 -1.13291,-0.78229 0.25207,0.0754 -0.5683,-0.42294 -0.4072,-0.0996 -0.81406,-0.11382 -1.2307,-0.092 -0.31263,0.0183 -0.62573,0.0195 -0.93867,0.03 10.27518,-5.8521 6.23672,-5.52882 6.12857,-2.47069 -0.0422,0.50461 0.34284,0.8107 0.72567,1.09028 0.41064,0.49525 1.04809,0.78181 1.61545,1.09617 0.39133,0.29336 0.82622,0.33856 1.28543,0.41789 0.26779,-0.002 0.53526,-0.0153 0.80289,-0.0238 0.22068,8e-4 0.13515,0.048 0.24097,-0.16671 -2.11557,1.19816 -4.23465,2.39014 -6.3467,3.59449 -0.5041,0.28745 0.33905,-0.1443 0.47197,-0.26285 0.12816,-0.40698 0.34646,-0.75407 0.45409,-1.16851 0.0927,-0.24701 0.12067,-0.53311 0.12143,-0.79794 -3.7e-4,-0.0344 -0.0293,-0.12279 -0.001,-0.10309 0.0429,0.03 0.0783,0.0955 0.0609,0.14492 -0.0508,0.14389 -0.28135,-0.1183 -0.42057,-0.18076 -0.10679,-0.0479 -0.46554,-0.11872 -0.5838,-0.14402 -0.57614,-0.0579 -1.15742,-0.0524 -1.73571,-0.0378 -0.0653,0.003 -0.14546,-0.0337 -0.19599,0.008 -0.0505,0.0415 -0.1025,0.22264 -0.0456,0.1906 6.11199,-3.43875 7.831,-5.64149 6.24863,-3.6333 0,0 -6.89407,3.08597 -6.89407,3.08597 v 0 c 1.02828,-2.55801 4.31366,-4.56434 6.97883,-4.07572 0.62252,0.0177 1.25366,0.0277 1.85263,0.22078 0.49858,0.18664 1.41789,0.47338 1.46697,1.10444 -0.006,0.3328 -0.004,0.66244 -0.0244,0.99528 -0.14844,0.40622 -0.1494,0.8537 -0.46303,1.18312 -0.0135,0.22609 -0.007,0.6233 -0.24798,0.76422 -13.77754,8.04388 -3.79397,3.71967 -7.04731,3.72186 -0.29863,-0.007 -0.59992,-0.0242 -0.88814,-0.10923 -0.49886,-0.12262 -0.94623,-0.35516 -1.38327,-0.62136 -0.60391,-0.32803 -1.21633,-0.70898 -1.68892,-1.2101 -0.49048,-0.42904 -1.08465,-0.97205 -1.06443,-1.67357 -0.0582,-3.59851 0.90419,-2.47569 6.67992,-5.39031 0.31611,-0.001 0.63245,-0.0153 0.94819,0.005 0.51592,0.0493 1.01253,0.18379 1.45802,0.45861 0.6173,0.46594 1.34096,0.72604 1.99982,1.1279 0.78552,0.42312 1.59422,0.83768 2.23076,1.47647 0.46186,0.55493 0.54287,0.86187 0.51324,1.55271 0.0199,0.31965 0.0993,0.68 -0.0634,0.96124 -0.0906,0.14377 -0.10229,0.33292 -0.20942,0.46485 -0.0303,0.0373 -0.1033,-0.0174 -0.14407,0.008 -0.0509,0.0319 -0.40876,0.34955 -0.4702,0.39989 -2.64493,1.20666 -2.16183,7.41527 -7.45269,4.53169 -0.49353,0.0831 -1.00469,-0.002 -1.50443,0.0325 -0.39776,0.003 -0.80287,0.0184 -1.19175,-0.0793 -0.42375,-0.13348 -0.7155,-0.42407 -1.01287,-0.7429 -0.40232,-0.49733 -0.86032,-0.94778 -1.08785,-1.56468 -0.37746,-1.05908 -0.7077,-2.12311 -0.65705,-3.26614 0,0 6.68167,-3.40448 6.68167,-3.40448 z"
       inkscape:connector-curvature="0" />
    <path
       style="fill:#008000"
       id="path26"
       d="m 290.97294,749.24225 c -0.48612,0.87675 -1.09861,1.67175 -1.56868,2.55762 -0.20587,0.33206 -0.30762,0.67369 -0.33202,1.06049 -0.0121,0.32704 -0.009,0.65438 -0.001,0.98148 -0.0437,0.33653 0.15081,0.50046 0.37224,0.72274 0.25862,0.28967 0.26241,0.24883 0.5826,0.25067 0.3238,-0.0417 0.65226,-0.0297 0.97891,-0.0319 0.31193,-0.0727 0.696,0.0946 0.99896,-0.003 0.0707,-0.0227 0.23801,-0.1763 0.173,-0.14039 -2.0918,1.15555 -4.17088,2.33396 -6.25632,3.50094 0.58536,-0.32554 1.14465,-0.68627 1.66511,-1.10797 0.43323,-0.35987 0.83992,-0.75084 1.24091,-1.14597 0.31398,-0.31633 0.64828,-0.59521 0.89151,-0.9702 0.25925,-0.52483 0.26775,-1.10407 0.38623,-1.66319 0.15032,-0.48176 0.25412,-0.97359 0.30046,-1.47586 0.0478,-0.43494 0.10125,-0.68985 -0.30601,-0.9266 -0.90418,-0.17761 -1.81969,-0.22742 -2.73885,-0.24986 -0.79027,-0.008 -1.58062,-0.003 -2.37083,0.009 -2.77504,0.0354 -1.97895,0.88253 5.95057,-3.50792 0.0449,-0.0249 -0.10451,0.0206 -0.14471,0.0524 -0.12673,0.10049 -0.13361,0.25533 -0.17028,0.3983 -0.0903,0.70596 -0.0623,1.42015 -0.0575,2.13005 0.0291,0.25279 -0.0871,0.91661 0.24194,1.03559 0.24994,0.0985 0.52933,0.0509 0.79555,0.036 0.33016,-0.007 0.65995,-0.0216 0.99024,-0.0189 2.72382,0.004 2.35086,-1.0174 -5.89417,3.47162 -0.0582,0.0317 0.12283,-0.0596 0.16494,-0.11066 0.0431,-0.0522 0.0534,-0.12443 0.0801,-0.18664 0.051,-0.39297 0.0905,-0.83587 -0.004,-1.22732 -0.0813,-0.0841 -0.50156,-0.12479 -0.62016,-0.0635 -0.0554,0.0286 -0.0677,0.10473 -0.10153,0.15709 2.09995,-1.17252 4.20072,-2.34356 6.29983,-3.51757 0.0991,-0.0554 -0.20961,0.008 -0.44329,0.35909 -0.21189,0.31803 -0.28085,0.69717 -0.35694,1.06299 -0.10888,0.61467 -0.12923,1.24138 -0.13204,1.86442 9e-4,0.071 0.002,0.14207 0.003,0.21311 0,0 -6.71471,3.42221 -6.71471,3.42221 v 0 c 7.5e-4,-0.0739 0.001,-0.14777 0.002,-0.22165 0.005,-0.66514 0.0212,-1.32971 0.0959,-1.99155 0.59924,-3.83102 1.96795,-3.22726 7.24541,-5.76179 0.52552,0.14378 1.03795,0.26383 1.3053,0.79883 0.22431,0.50416 0.16172,1.07039 0.19276,1.61532 -0.1742,3.19251 -4.17888,4.60539 -7.22177,4.55565 -0.33818,0.009 -0.677,0.008 -1.01456,-0.0159 -0.41939,-0.0562 -0.79916,-0.18154 -1.09999,-0.49753 -0.36978,-0.45037 -0.56172,-0.97386 -0.50762,-1.56189 -0.006,-0.7393 -0.004,-1.47872 0.006,-2.21797 0.004,-0.11445 -0.041,-0.8676 0.0738,-0.93669 5.51656,-3.31795 4.22338,-3.79824 7.11616,-3.75755 0.78704,0.004 1.57461,-8.7e-4 2.36092,0.0392 1.03461,0.0559 2.10941,0.10827 3.03611,0.61905 0.47664,0.44125 0.79699,0.89487 0.6755,1.56458 -0.0354,0.54447 -0.0786,1.08764 -0.23991,1.61258 -0.209,0.56575 -0.16942,1.14356 -0.3561,1.71702 -0.10862,0.52581 -0.34295,0.92234 -0.75916,1.26569 -0.40637,0.40803 -0.81707,0.81132 -1.23561,1.207 -0.50438,0.44993 -1.00699,0.90477 -1.60934,1.22256 -5.27325,2.96394 -4.59749,3.86118 -8.02879,3.77616 -0.3662,-2.9e-4 -0.74545,0.0352 -1.09594,-0.0926 -0.33209,-0.13024 -0.57359,-0.36625 -0.80872,-0.62884 -0.3126,-0.33508 -0.65701,-0.73175 -0.65691,-1.21496 1.5e-4,-0.33898 -0.0123,-0.67764 -0.0157,-1.0165 0.009,-0.46387 -0.0113,-0.95094 0.21633,-1.37045 0.45461,-0.90003 0.99769,-1.7345 1.58542,-2.55387 0,0 6.83521,-3.09247 6.83521,-3.09247 z"
       inkscape:connector-curvature="0" />
    <path
       style="fill:#008000"
       id="path28"
       d="m 275.96071,791.52602 c 0.19587,0.94251 0.53724,1.84901 0.96997,2.7064 0.26882,0.45453 0.37632,0.61747 0.72279,0.94939 0.26473,0.0445 0.53747,0.0254 0.80742,0.0152 0.24231,-0.004 0.13279,0.0377 0.31944,-0.14799 -2.10842,1.19689 -4.20377,2.41711 -6.32526,3.59069 -0.19365,0.10712 0.34939,-0.30617 0.6041,-0.68262 0.4206,-0.62717 0.70116,-1.33071 1.04174,-2.00181 0.18174,-0.31632 0.21417,-0.63392 0.20531,-0.99262 0.0302,-0.44909 -0.20228,-0.75245 -0.57848,-0.99365 -0.66616,-0.57408 -1.43304,-0.98178 -2.27235,-1.23478 -0.67823,-0.18766 -1.38804,-0.21825 -2.0884,-0.21523 -3.62263,0.54084 6.53762,-6.23779 5.60529,-3.18263 -0.11255,0.71944 -0.0929,1.45245 -0.0791,2.17826 0.004,0.55623 0.006,1.15513 0.0579,1.68743 0.44791,0.3915 0.99311,0.38607 1.56399,0.45601 0.44939,0.0449 0.90277,0.0222 1.35379,0.0183 0.76476,-2.52068 0.0631,-0.0567 -6.23963,3.51928 -0.0175,0.01 0.0842,-0.0117 0.13731,-0.45323 0.0291,-0.24175 0.0252,-0.42966 0.0283,-0.67191 0.0226,-0.61215 -0.0225,-1.22351 -0.034,-1.83516 0.0457,-0.40314 -0.16579,-0.23887 -0.48689,-0.237 -0.17094,0.028 -0.34359,0.0371 -0.51572,0.0539 0,0 6.10043,-4.45671 6.10043,-4.45671 v 0 c 0.20203,0.009 0.41093,0.006 0.60353,0.0755 0.50413,0.17052 1.02062,0.54352 1.00946,1.13164 0.008,0.61975 -0.006,1.23986 0.0197,1.85938 0.0124,3.06356 -0.57468,7.01425 -6.71972,5.44389 -0.47184,-0.004 -0.94565,-0.0302 -1.4088,-0.12654 -0.75775,-0.15159 -1.42509,-0.37231 -1.92741,-0.99614 -0.0717,-0.12716 -0.16971,-0.24275 -0.2152,-0.38148 -0.16638,-0.50749 0.14764,-1.15824 -0.007,-1.6723 -0.006,-0.76739 -0.0549,-1.53632 0.009,-2.30227 0.24942,-2.97454 4.39495,-4.75723 7.26167,-4.51131 0.73606,0.0685 1.47627,0.15631 2.17084,0.42607 0.88008,0.34873 1.71649,0.81453 2.43623,1.4346 0.4432,0.40698 0.94676,0.90881 0.92818,1.54919 0.007,0.43709 0.0919,0.88592 -0.0779,1.30113 -0.28915,0.71793 -0.70788,1.3841 -1.00468,2.10076 -1.52762,2.59679 -4.31584,5.08543 -7.59941,4.67228 -0.41264,-0.0513 -0.80209,-0.15037 -1.1066,-0.45544 -0.38362,-0.35267 -0.55426,-0.77064 -0.83028,-1.20096 -0.44571,-0.93805 -0.76447,-1.9272 -1.07143,-2.91892 0,0 6.632,-3.49858 6.632,-3.49858 z"
       inkscape:connector-curvature="0" />
  </g>
</svg>
