<?xml version="1.0" encoding="UTF-8" standalone="no"?>
<!-- Generator: Adobe Illustrator 16.0.0, SVG Export Plug-In . SVG Version: 6.00 Build 0)  -->

<svg
   xmlns:dc="http://purl.org/dc/elements/1.1/"
   xmlns:cc="http://creativecommons.org/ns#"
   xmlns:rdf="http://www.w3.org/1999/02/22-rdf-syntax-ns#"
   xmlns:svg="http://www.w3.org/2000/svg"
   xmlns="http://www.w3.org/2000/svg"
   xmlns:sodipodi="http://sodipodi.sourceforge.net/DTD/sodipodi-0.dtd"
   xmlns:inkscape="http://www.inkscape.org/namespaces/inkscape"
   version="1.1"
   id="svg2"
   sodipodi:docname="programmer.svg"
   inkscape:version="0.92.3 (2405546, 2018-03-11)"
   x="0px"
   y="0px"
   width="429px"
   height="256.295px"
   viewBox="0 0 430.543 325.295"
   enable-background="new 0 0 430.543 325.295"
   xml:space="preserve"><metadata
   id="metadata8"><rdf:RDF><cc:Work
       rdf:about=""><dc:format>image/svg+xml</dc:format><dc:type
         rdf:resource="http://purl.org/dc/dcmitype/StillImage" /><dc:title></dc:title></cc:Work></rdf:RDF></metadata>
<defs
   id="defs3">


		<inkscape:perspective
   id="perspective2985"
   inkscape:vp_z="744.09448 : 526.18109 : 1"
   inkscape:vp_y="0 : 1000 : 0"
   inkscape:vp_x="0 : 526.18109 : 1"
   sodipodi:type="inkscape:persp3d"
   inkscape:persp3d-origin="372.04724 : 350.78739 : 1">
		</inkscape:perspective>
</defs>
<sodipodi:namedview
   units="mm"
   fit-margin-left="0"
   fit-margin-top="0"
   showguides="true"
   showgrid="false"
   inkscape:cy="134.80464"
   inkscape:cx="169.11117"
   inkscape:zoom="1.979899"
   borderopacity="1.0"
   bordercolor="#666666"
   pagecolor="#ffffff"
   id="base"
   inkscape:pageshadow="2"
   inkscape:pageopacity="0.0"
   fit-margin-bottom="0"
   fit-margin-right="0"
   inkscape:guide-bbox="true"
   inkscape:window-maximized="1"
   inkscape:window-y="-8"
   inkscape:window-x="-8"
   inkscape:window-height="705"
   inkscape:window-width="1366"
   inkscape:object-nodes="true"
   inkscape:current-layer="svg2"
   inkscape:document-units="mm">
	</sodipodi:namedview>
<path
   id="path3908"
   inkscape:connector-curvature="0"
   fill="#549487"
   d="M420.733,202.206L215.272,79.612L9.812,202.206  l205.461,122.595L420.733,202.206z" />
<g
   transform="matrix(1.5851763,0,0,1.3837534,108.60415,-114.3584)"
   id="layer1"
   inkscape:label="Layer 1"><g
     transform="matrix(0.99999757,0,0,0.99999791,0,4.2388444e-4)"
     id="g3860"><path
       inkscape:connector-curvature="0"
       style="color:#000000;fill:#000000;stroke-width:2.64783883"
       d="m 58.063882,277.29357 -14.146175,6.54263 c 0,0 -4.639278,3.62917 0.207014,7.17487 4.846291,3.5457 14.12924,2.53401 14.12924,2.53401 l 13.256367,-6.59748 c 0,0 4.495607,-5.38705 1.632532,-7.89456 -2.862838,-2.50778 -15.920764,-1.22819 -15.078317,-1.75947 z"
       id="path4" /><path
       inkscape:connector-curvature="0"
       style="fill:#000000;stroke-width:2.64783883;enable-background:new"
       d="m 45.876978,235.69165 -0.386324,4.64272 -5.022401,2.70863 -22.794484,-1.93462 v -6.57761 l 28.202389,1.16088 z"
       id="path6" /><path
       inkscape:connector-curvature="0"
       style="fill:#000000;stroke-width:2.64783883;enable-background:new"
       d="m 10.425948,204.42397 c 0,0 -20.2983646,6.01214 -4.2498055,34.82372 0.2661486,0.47802 -4.2498056,-16.63732 8.4993465,-18.95882 12.749417,-2.32149 -3.090647,-15.47697 -4.249806,-15.86357 z"
       id="path8" /><path
       inkscape:connector-curvature="0"
       style="fill:#000000;stroke:#000000;stroke-width:0.76842594;enable-background:new"
       d="m 3.7686602,185.87534 3.8619202,-1.7433 18.1597036,28.82721 -5.217932,18.37904 -4.440838,-0.5811 -12.363383,-44.88237 z"
       id="path10" /><path
       inkscape:connector-curvature="0"
       style="fill:#0b1728;stroke-width:2.64783883;enable-background:new"
       d="m 120.82935,210.25354 c 1.54529,1.93462 1.06364,15.45842 -0.77271,25.14928 -1.46915,7.75386 -12.27421,18.4482 -21.59828,25.99988 -9.324066,7.55141 -14.765045,2.82575 -14.765045,2.82575 l -9.539969,-23.04614 1.214298,-1.00904 21.894622,-21.7949 23.567084,-8.12536 z"
       id="path12" /><path
       inkscape:connector-curvature="0"
       style="fill:#f6e6cc;stroke:#000000;stroke-width:2.30527806;stroke-linecap:round;stroke-linejoin:round;enable-background:new"
       d="m 98.529905,170.2415 c -7.581228,0.18549 -12.919282,4.80834 -12.676655,13.55004 l -0.044,8.10204 c -2.088655,0.28061 -5.276935,0.97168 -5.276935,2.64238 0,1.59121 3.213945,3.46992 5.504745,4.04493 l 0.130282,4.07778 c 0,0 3.972783,4.54971 8.858657,5.13771 l 3.304963,10.52078 17.868128,-11.27094 -5.17904,-10.69991 c 1.80729,-0.81482 4.39665,-2.53613 5.48861,-6.03493 1.76329,-5.65097 1.47359,-11.74737 -5.57963,-16.69111 -2.20406,-1.5451 -8.9539,-3.46277 -12.400156,-3.3785 z"
       id="path14" /><path
       inkscape:connector-curvature="0"
       d="m 101.32395,186.67029 -13.605623,0.4086 -2.543533,0.12189 1.391731,8.45923 0.743861,-0.14309 -0.383916,-6.87306 13.55641,-1.02945 c 2.93401,-0.21198 2.42489,2.1943 2.6405,3.865 0.24856,1.92721 -2.71519,2.64398 -1.22382,2.40311 1.4914,-0.24113 2.97714,-1.43354 2.23153,-5.04655 -0.37286,-1.80637 -1.63515,-2.21656 -2.80754,-2.16277 z"
       style="fill:#000c00;stroke-width:2.64783883;enable-background:new"
       id="path18" /><path
       inkscape:connector-curvature="0"
       style="fill:#ffffff;stroke:#000000;stroke-width:2.30527806;stroke-linecap:round;stroke-linejoin:round;enable-background:new"
       d="M 8.4066157,184.55044 21.54233,187.25881 33.519416,227.49872 20.769999,230.59396 8.4066157,184.55097 Z"
       id="path20" /><path
       inkscape:connector-curvature="0"
       style="fill:#4d4d4d;stroke:#000000;stroke-width:0.72180563;enable-background:new"
       d="m 47.313689,234.36675 -11.589994,-3.86924 -18.158381,3.86924 24.725709,4.64299 5.022401,-4.64299 z"
       id="path22" /><path
       inkscape:connector-curvature="0"
       style="fill:#f6e6cc;stroke:#000000;stroke-width:2.30527806;stroke-linecap:round;stroke-linejoin:round;enable-background:new"
       d="m 73.896802,223.76754 c -1.756623,0.0318 -6.517321,0.67729 -7.773054,1.35431 -5.022401,2.70837 -10.42131,8.8159 -10.42131,8.8159 l -2.248122,-1.69296 -0.01667,-0.0662 -2.377901,-2.62251 c -0.303376,0.45285 -12.103029,-0.10334 -16.63171,0.29042 0,0 -0.792731,3.48529 4.465974,3.49059 2.054945,-0.55196 3.664537,-0.12189 5.656353,0.43933 l -5.656353,6.91652 c 0,0 3.05678,2.50036 5.761129,-2.5295 0.557169,-1.03634 4.265681,-0.55858 4.825019,-0.71624 0.827286,2.59998 2.053941,5.43156 3.517957,5.43156 2.704349,0 32.840609,-3.1045 34.772098,-7.74776 1.931701,-4.64272 -3.864566,-11.99301 -4.250864,-12.38014 0,0 -1.612661,0.56944 -6.882716,0.62376 l -2.740069,0.39191 h 2.83e-4 z"
       id="path24" /><path
       inkscape:connector-curvature="0"
       style="fill:#001400;stroke-width:2.64783883;enable-background:new"
       d="m 93.968415,196.20958 c -0.161901,0.49313 -0.797176,1.72555 -3.387515,3.60453 -1.454543,1.05515 -3.185634,1.20486 -4.690608,1.04402 v 1.28833 c 2.267939,0.57263 4.427344,-0.13779 5.586237,-0.995 1.623033,-1.20327 2.354777,-4.31096 2.491859,-4.94188 z"
       id="path26" /><path
       inkscape:connector-curvature="0"
       style="color:#000000;fill:#000000;stroke-width:2.64783883"
       d="m 85.607448,190.64499 4.054275,1.64314 c 0,0 -2.799336,-6.47691 -4.054275,-1.64314 z"
       id="path28" /><path
       inkscape:connector-curvature="0"
       style="color:#000000;fill:#6c5d53;stroke:#000000;stroke-width:2.30527806;stroke-linecap:round;stroke-linejoin:round"
       d="m 74.857255,242.84612 -23.474209,6.04208 c -6.217544,1.60022 -14.534854,7.41521 -6.581616,18.12599 7.952708,10.7113 9.38254,15.78673 11.407957,17.30242 5.964598,4.46306 17.414096,-7.48411 17.414096,-7.48411 l -7.651079,-11.68563 c 0,0 22.81618,0.49445 25.009876,-0.0556 2.193854,-0.54904 -14.479555,-21.69632 -16.125025,-22.24616 z"
       id="path30" /><rect
       ry="4.9380465"
       style="color:#000000;fill:#000000;stroke:#000000;stroke-width:0.91842937"
       transform="matrix(0.99124409,0.13204227,-0.13187768,0.991266,0,0)"
       height="34.780426"
       width="8.6255131"
       y="187.53207"
       x="149.92824"
       id="rect32" /><path
       inkscape:connector-curvature="0"
       style="color:#000000;text-indent:0;text-transform:none;fill:#ffffff;stroke-width:2.64783883"
       d="m 78.177829,239.66636 c -6.750158,0 -12.204367,5.51079 -12.204367,12.30145 h 48.692048 c 0,-6.78986 -5.45394,-12.30145 -12.20436,-12.30145 H 78.178093 Z m 0,2.01146 h 24.283051 c 5.67461,0 10.20514,4.57727 10.20514,10.28999 H 67.974538 c 0,-5.71272 4.530269,-10.28999 10.205143,-10.28999 z"
       id="path34" /><path
       inkscape:connector-curvature="0"
       style="color:#000000;fill:#000000;stroke-width:2.64783883"
       d="m 76.35482,241.25624 c -7.157887,0 -12.909227,5.78399 -12.909227,12.95304 v 5.52696 c 0,7.16851 5.751604,12.95303 12.909227,12.95303 h 27.98014 c 7.15788,0 12.90922,-5.78452 12.90922,-12.95303 v -5.52696 c 0,-7.16852 -5.7516,-12.95304 -12.90922,-12.95304 z m -1.751622,7.69 h 31.938362 c 4.58398,0 8.27815,3.69965 8.27815,8.2907 v 3.53245 c 0,1.46508 -0.37021,2.82072 -1.03183,4.01313 -0.47343,-1.78226 -3.28195,-3.16042 -6.71868,-3.17208 l -33.089318,-0.098 c -3.34227,0 -6.125996,1.24938 -6.742749,2.95585 -0.556084,-1.11795 -0.887797,-2.36177 -0.887797,-3.70071 v -3.53272 c 0,-4.59078 3.670358,-8.29044 8.254338,-8.29044 z"
       id="path36" /><path
       inkscape:connector-curvature="0"
       style="color:#000000;fill:#000000;stroke-width:2.64783883"
       d="m 84.990959,170.77146 c 0,0 -2.001685,3.88303 1.000882,4.08733 3.002539,0.20668 3.102553,-0.8172 3.102553,-0.8172 0,0 7.406336,-2.75871 8.40727,1.73694 1.000882,4.49566 -0.600508,5.00654 -0.600508,5.00654 0,0 1.901618,2.14581 1.401203,3.57671 -0.500441,1.4301 4.003211,0.20403 4.003211,0.20403 0,0 3.60289,-1.12378 3.80318,2.45213 0.20019,3.57671 0.20019,5.00733 0.20019,5.00733 l 6.80572,3.37161 c 0,0 4.00321,-1.83922 4.90413,-5.92655 0.90076,-4.08679 0.70057,-12.0566 -2.80251,-14.91786 -3.50288,-2.86099 -13.11137,-7.76525 -18.115254,-6.2326 -5.004409,1.53238 -11.209517,5.61943 -12.110173,2.45212 z"
       id="path38" /><path
       inkscape:connector-curvature="0"
       style="fill:#0b1728;stroke-width:2.64783883;enable-background:new"
       d="m 110.40195,206.54381 c 0,0 8.49935,-2.32149 11.20369,3.86898 2.70435,6.19074 0.77271,12.38174 -5.79499,15.47671 -6.56786,3.0955 -24.72571,11.22059 -24.72571,11.22059 0,0 -0.772702,1.16062 -3.863508,0.38714 -3.090648,-0.77401 -5.408699,-12.38174 -5.794997,-16.25072 -0.386377,-3.86897 8.113049,-5.8036 11.977085,-6.96448 3.863508,-1.16087 18.15838,-8.51196 16.99869,-7.73822 z"
       id="path16" /></g></g></svg>
