<?xml version="1.0" encoding="UTF-8" standalone="no"?>
<!-- Created with Inkscape (http://www.inkscape.org/) -->

<svg
   xmlns:dc="http://purl.org/dc/elements/1.1/"
   xmlns:cc="http://creativecommons.org/ns#"
   xmlns:rdf="http://www.w3.org/1999/02/22-rdf-syntax-ns#"
   xmlns:svg="http://www.w3.org/2000/svg"
   xmlns="http://www.w3.org/2000/svg"
   xmlns:sodipodi="http://sodipodi.sourceforge.net/DTD/sodipodi-0.dtd"
   xmlns:inkscape="http://www.inkscape.org/namespaces/inkscape"
   width="370.49179"
   height="217.61816"
   id="svg2"
   version="1.1"
   inkscape:version="0.92.2 5c3e80d, 2017-08-06"
   sodipodi:docname="quirky.svg">
  <defs
     id="defs4">
    <inkscape:perspective
       sodipodi:type="inkscape:persp3d"
       inkscape:vp_x="0 : 526.18109 : 1"
       inkscape:vp_y="0 : 1000 : 0"
       inkscape:vp_z="744.09448 : 526.18109 : 1"
       inkscape:persp3d-origin="372.04724 : 350.78739 : 1"
       id="perspective2985" />
  </defs>
  <sodipodi:namedview
     id="base"
     pagecolor="#ffffff"
     bordercolor="#666666"
     borderopacity="1.0"
     inkscape:pageopacity="0.0"
     inkscape:pageshadow="2"
     inkscape:zoom="0.7"
     inkscape:cx="359.22707"
     inkscape:cy="134.9181"
     inkscape:document-units="mm"
     inkscape:current-layer="layer1"
     showgrid="false"
     inkscape:object-nodes="true"
     inkscape:window-width="1362"
     inkscape:window-height="729"
     inkscape:window-x="0"
     inkscape:window-y="18"
     inkscape:window-maximized="0"
     showguides="false"
     inkscape:guide-bbox="true"
     units="mm"
     fit-margin-top="0"
     fit-margin-left="0"
     fit-margin-right="0"
     fit-margin-bottom="0" />
  <metadata
     id="metadata7">
    <rdf:RDF>
      <cc:Work
         rdf:about="">
        <dc:format>image/svg+xml</dc:format>
        <dc:type
           rdf:resource="http://purl.org/dc/dcmitype/StillImage" />
        <dc:title />
      </cc:Work>
    </rdf:RDF>
  </metadata>
  <g
     inkscape:label="Layer 1"
     inkscape:groupmode="layer"
     id="layer1"
     transform="translate(-62.955419,-648.73686)">
    <path
       inkscape:connector-curvature="0"
       id="path3908"
       d="M 433.00144,757.54596 248.2013,649.18268 63.401199,757.54593 248.20134,865.90921 Z"
       style="fill:#ffcc00;stroke:#000000;stroke-width:0.89164615px;stroke-linecap:round;stroke-linejoin:round;stroke-opacity:1" />
    <path
       style="fill:#ffcc00;stroke-width:0.45034933"
       d="m 142.90019,710.68607 c 0.15442,-0.24555 0.48519,-0.44645 0.73505,-0.44645 0.24986,0 0.32794,0.2009 0.17352,0.44645 -0.15442,0.24554 -0.48519,0.44644 -0.73505,0.44644 -0.24986,0 -0.32794,-0.2009 -0.17352,-0.44644 z"
       id="path275"
       inkscape:connector-curvature="0" />
    <path
       style="fill:#ffcc00;stroke-width:0.50507629"
       d=""
       id="path277"
       inkscape:connector-curvature="0"
       transform="translate(53.643411,569.625)" />
    <path
       style="fill:#ffcc00;stroke-width:0.50507629"
       d=""
       id="path279"
       inkscape:connector-curvature="0"
       transform="translate(53.643411,569.625)" />
    <path
       style="fill:#ff6600;stroke-width:0.45034933"
       d="m 156.467,811.43109 c -50.28042,-29.50476 -91.421811,-53.74595 -91.4253,-53.8693 -0.01033,-0.36523 182.72313,-107.37328 183.27268,-107.32382 0.92421,0.0832 182.90993,107.00308 182.77866,107.38576 -0.12365,0.36041 -181.81294,107.06056 -182.75279,107.3247 -0.24986,0.0702 -41.59282,-24.01259 -91.87325,-53.51734 z"
       id="path12"
       inkscape:connector-curvature="0" />
    <path
       style="fill:#ff0000;stroke-width:0.63689011"
       d="M 246.61484,863.78963 C 242.6718,861.76769 145.57841,804.97332 90.398399,772.4115 76.882664,764.43584 65.824337,757.72961 65.824337,757.50876 c 0,-0.48588 136.739753,-80.84275 173.994703,-102.25022 l 8.56148,-4.9196 5.57262,3.21992 c 48.26778,27.88957 176.14553,103.41181 176.14553,104.0283 0,0.5399 -39.01195,23.67142 -119.49739,70.85407 -67.87704,39.79128 -61.83331,36.45251 -63.98644,35.3484 z"
       id="path166"
       inkscape:connector-curvature="0" />
    <path
       style="fill:#000080;stroke-width:0.64249587"
       d="M 232.1913,855.64778 C 161.71831,815.48569 63.172391,758.31141 63.21202,757.60953 63.26017,756.7567 246.67548,650.64335 248.10145,650.64335 c 0.83751,0 130.85973,75.05394 170.77563,98.57841 l 14.12436,8.3242 -4.78414,2.94678 c -10.48392,6.45754 -143.83822,83.59076 -170.15701,98.42022 -5.01066,2.82328 -9.57105,5.12992 -10.13419,5.12585 -0.56315,-0.004 -7.64381,-3.78002 -15.7348,-8.39103 z"
       id="path447"
       inkscape:connector-curvature="0" />
    <path
       sodipodi:type="spiral"
       style="fill:#d45500;fill-rule:evenodd;stroke:#000000"
       id="path461"
       sodipodi:cx="262.92914"
       sodipodi:cy="776.34869"
       sodipodi:expansion="1"
       sodipodi:revolution="3.0358601"
       sodipodi:radius="108.00605"
       sodipodi:argument="-18.420788"
       sodipodi:t0="0.020314001"
       d="m 264.43195,777.94724 c 2.21407,5.46589 -6.04518,7.26375 -9.58153,5.99638 -8.97287,-3.21571 -9.93485,-14.93828 -5.60833,-22.15383 7.24232,-12.07835 24.00643,-12.91576 34.72613,-5.22025 15.2764,10.96669 15.96898,33.16753 4.83219,47.29842 -14.5977,18.52224 -42.36474,19.05528 -59.87071,4.44412 -21.79284,-18.18913 -22.15928,-51.58006 -4.05606,-72.44301 21.76032,-25.07756 60.80591,-25.27376 85.0153,-3.66799 28.37103,25.31982 28.39494,70.03844 3.27993,97.5876 -28.87199,31.67026 -79.2755,31.52064 -110.15989,2.89186 -34.9735,-32.41923 -34.64954,-88.51576 -2.5038,-122.73219 35.96303,-38.27961 97.75839,-37.78077 135.30448,-2.11573 36.7125,34.87321 41.23626,92.86619 12.83371,134.23043"
       transform="matrix(0.84167695,0.63155092,-0.87422632,0.45102493,693.40594,239.29795)" />
  </g>
</svg>
