<?xml version="1.0" encoding="UTF-8" standalone="no"?>
<svg
   xmlns:dc="http://purl.org/dc/elements/1.1/"
   xmlns:cc="http://creativecommons.org/ns#"
   xmlns:rdf="http://www.w3.org/1999/02/22-rdf-syntax-ns#"
   xmlns:svg="http://www.w3.org/2000/svg"
   xmlns="http://www.w3.org/2000/svg"
   xmlns:sodipodi="http://sodipodi.sourceforge.net/DTD/sodipodi-0.dtd"
   xmlns:inkscape="http://www.inkscape.org/namespaces/inkscape"
   version="1.0"
   width="425.02094px"
   height="256px"
   viewBox="0 0 425.02094 309.74576"
   preserveAspectRatio="xMidYMid meet"
   id="svg26"
   sodipodi:docname="Random.svg"
   inkscape:version="0.92.2 5c3e80d, 2017-08-06">
  <defs
     id="defs30" />
  <sodipodi:namedview
     pagecolor="#ffffff"
     bordercolor="#666666"
     borderopacity="1"
     objecttolerance="10"
     gridtolerance="10"
     guidetolerance="10"
     inkscape:pageopacity="0"
     inkscape:pageshadow="2"
     inkscape:window-width="1224"
     inkscape:window-height="722"
     id="namedview28"
     showgrid="false"
     inkscape:zoom="0.41162791"
     inkscape:cx="188.50847"
     inkscape:cy="286.66666"
     inkscape:window-x="0"
     inkscape:window-y="0"
     inkscape:window-maximized="0"
     inkscape:current-layer="svg26" />
  <metadata
     id="metadata2">
Created by potrace 1.15, written by Peter Selinger 2001-2017
<rdf:RDF>
  <cc:Work
     rdf:about="">
    <dc:format>image/svg+xml</dc:format>
    <dc:type
       rdf:resource="http://purl.org/dc/dcmitype/StillImage" />
  </cc:Work>
</rdf:RDF>
</metadata>
  <g
     transform="matrix(0.07494115,0,0,-0.0720339,0,309.74577)"
     id="g24"
     style="fill:#000000;stroke:none">
    <path
       d="m 1410,4289 c 0,-11 30,-39 41,-39 5,0 9,-5 9,-12 0,-6 -3,-8 -7,-5 -9,10 -34,-13 -27,-25 3,-5 13,-4 22,4 15,12 16,11 2,-6 -14,-17 -16,-17 -45,17 -39,46 -80,63 -102,42 -9,-9 -23,-13 -34,-10 -11,4 -19,2 -19,-4 0,-6 -9,-11 -19,-11 -11,0 -23,-9 -27,-22 -9,-30 -31,-51 -45,-42 -8,4 -9,3 -5,-4 4,-6 -3,-21 -14,-32 -24,-24 -19,-40 5,-20 13,11 14,10 9,-5 -14,-35 13,-6 31,35 10,22 22,40 27,40 5,0 6,5 3,10 -3,6 0,12 7,14 7,2 37,11 66,21 58,19 85,15 75,-11 -4,-11 -3,-15 5,-10 6,4 24,-7 41,-25 25,-26 28,-34 19,-49 -9,-14 -16,-16 -30,-9 -10,6 -23,7 -28,4 -5,-3 -19,-1 -31,5 -32,18 -32,6 1,-28 26,-28 30,-29 30,-12 0,11 4,20 10,20 5,0 9,-10 7,-22 -1,-17 3,-23 16,-22 14,2 16,-3 11,-20 -4,-11 -12,-24 -18,-28 -7,-5 -4,-8 7,-8 9,0 17,-5 17,-11 0,-7 8,-6 23,4 12,8 21,20 20,26 -2,6 4,11 12,11 8,0 14,3 13,8 -2,11 14,46 25,53 5,3 1,9 -9,13 -10,4 -15,4 -11,0 8,-8 -11,-34 -24,-34 -5,0 -9,6 -9,14 0,8 -4,16 -10,18 -6,2 -6,8 0,18 8,13 10,12 10,-2 0,-10 5,-18 11,-18 6,0 9,7 6,14 -4,10 -1,13 9,9 8,-3 14,-2 13,3 -3,20 2,26 14,16 10,-8 13,-6 13,9 0,10 -3,19 -7,19 -4,0 -9,7 -12,14 -4,10 -1,13 9,9 9,-3 14,2 14,16 0,23 -34,42 -58,33 -8,-2 -16,4 -19,16 -5,19 -43,28 -43,11 z"
       id="path4"
       inkscape:connector-curvature="0" />
    <path
       d="m 3372,4275 c 2,-25 22,-40 40,-29 6,4 9,2 7,-4 -6,-16 -449,-233 -461,-226 -6,4 -8,3 -5,-3 3,-5 -21,-22 -53,-37 -54,-26 -63,-27 -92,-16 -18,8 -171,82 -340,167 -170,84 -317,153 -328,153 -11,0 -102,-41 -202,-91 -99,-49 -187,-88 -195,-85 -8,3 -12,2 -9,-2 3,-5 -62,-42 -145,-82 l -149,-74 -169,84 c -94,46 -168,87 -165,92 3,4 -1,6 -8,3 -7,-3 -87,31 -176,75 -90,44 -172,80 -182,80 -10,0 -168,-74 -352,-166 C 128,3985 49,3950 28,3954 l -28,6 v -755 -755 l 28,1 c 34,3 326,-137 317,-152 -4,-6 -12,-4 -20,7 -11,16 -15,14 -33,-23 -12,-22 -39,-55 -62,-73 -50,-39 -53,-26 -4,21 47,45 70,87 54,103 -8,8 -13,7 -20,-4 -5,-8 -7,-17 -4,-21 2,-4 0,-10 -6,-14 -10,-6 -14,6 -11,35 1,12 0,12 -7,2 -5,-7 -13,-12 -18,-11 -18,3 -34,-1 -34,-10 0,-5 10,-7 22,-3 17,4 20,2 15,-11 -3,-9 -1,-19 5,-23 7,-5 8,-2 3,6 -5,9 -4,11 4,6 12,-8 8,-19 -17,-48 -17,-20 -37,-25 -26,-6 5,7 3,8 -5,4 -7,-5 -10,-10 -7,-13 2,-3 1,-16 -4,-29 -9,-23 -5,-38 32,-119 15,-33 37,-59 44,-52 4,4 1,13 -6,22 -10,13 -10,19 4,33 9,10 13,21 10,24 -3,4 10,14 30,23 20,10 33,21 30,26 -3,5 6,9 20,9 14,0 26,5 26,10 0,6 5,10 11,10 7,0 17,7 24,17 11,15 14,15 34,1 22,-15 22,-16 -14,-22 -20,-4 -44,-16 -53,-27 -9,-10 -22,-19 -29,-19 -7,0 -10,-7 -7,-15 4,-8 1,-15 -5,-15 -6,0 -11,-5 -11,-12 0,-7 15,2 33,20 21,21 49,35 84,42 29,7 55,16 59,21 3,5 10,7 15,3 13,-7 41,15 33,27 -3,5 -10,9 -15,9 -6,0 -8,-4 -5,-9 8,-12 -78,6 -113,24 -17,8 -35,15 -40,15 -6,0 -36,-22 -66,-50 -30,-27 -60,-50 -65,-50 -6,0 -10,-14 -10,-32 0,-39 -9,-31 -20,17 -7,29 -5,35 6,31 7,-3 16,-1 19,4 4,6 1,10 -5,10 -6,0 5,14 25,31 20,18 43,45 51,60 17,35 40,40 24,7 -11,-22 -10,-22 4,-4 14,17 18,18 43,6 16,-8 31,-16 36,-18 4,-2 7,0 7,6 0,5 -12,14 -26,21 -15,6 -24,14 -21,17 3,3 74,-29 158,-71 133,-67 150,-79 133,-88 -10,-6 -35,-12 -54,-14 -42,-3 -80,-22 -80,-39 0,-6 -21,-22 -47,-35 -27,-13 -50,-25 -53,-26 -3,-2 22,26 55,62 54,58 88,84 69,54 -5,-8 -1,-8 14,0 12,6 24,17 28,24 5,9 4,9 -7,0 -19,-18 -34,-16 -19,2 7,9 10,18 7,21 -6,6 -172,-158 -169,-168 1,-4 -6,-4 -15,-1 -9,4 -14,2 -10,-3 8,-13 -318,-175 -338,-168 -8,3 -12,10 -9,15 3,5 -2,6 -10,3 C 2,1859 0,1775 0,1094 V 329 l 22,12 c 18,10 35,5 119,-37 54,-26 97,-50 95,-52 -3,-2 -14,2 -26,8 -17,9 -26,8 -43,-3 -19,-12 -23,-12 -39,7 -13,16 -17,17 -18,6 0,-8 -10,-21 -21,-29 -18,-10 -23,-10 -30,0 -6,11 -12,11 -32,0 C 6,230 2,221 1,170 1,137 4,108 10,105 15,102 20,94 20,89 20,83 15,82 8,86 1,90 0,89 4,81 c 4,-6 11,-9 16,-6 4,3 15,2 24,-1 13,-5 14,-9 5,-20 -8,-10 -8,-14 0,-14 10,0 13,8 10,27 -1,3 14,16 33,27 19,12 33,27 31,34 -3,7 1,10 10,6 18,-6 57,12 57,27 0,8 67,79 75,79 15,0 289,-143 288,-150 -2,-5 3,-7 11,-4 8,3 51,-13 96,-36 l 83,-42 346,171 c 191,94 350,171 353,171 4,0 161,-77 350,-171 L 2136,9 2295,86 c 88,42 164,79 169,82 5,3 6,0 2,-6 -4,-7 -1,-12 9,-12 10,0 15,6 12,13 -3,9 52,42 171,101 l 177,88 280,-137 c 191,-93 275,-139 266,-145 -8,-5 -11,-15 -7,-25 5,-15 4,-16 -8,-6 -10,8 -16,9 -21,1 -3,-5 -1,-10 4,-10 6,0 11,-5 11,-12 0,-6 -7,-4 -18,5 -10,10 -21,15 -24,12 -2,-3 -5,2 -5,10 0,8 6,16 14,19 7,3 13,1 13,-5 0,-6 5,-7 11,-4 11,8 -14,40 -43,56 -13,7 -20,2 -32,-23 -20,-39 -20,-44 -1,-28 12,10 16,9 21,-4 4,-11 -1,-22 -12,-31 -11,-7 -16,-17 -11,-21 4,-4 13,-2 19,4 7,7 19,12 27,11 11,0 10,-3 -4,-9 -15,-6 -11,-8 16,-6 20,1 43,7 51,14 12,10 18,9 27,-2 12,-15 110,-15 145,-1 15,6 17,5 11,-5 -5,-9 -4,-11 4,-6 6,4 9,11 7,15 -3,4 130,74 295,156 243,119 303,145 311,134 8,-11 9,-11 5,3 -4,11 3,20 22,28 25,10 53,-2 362,-155 184,-91 333,-169 332,-173 -1,-4 9,-7 22,-7 13,0 22,2 19,4 -9,9 476,239 494,234 11,-2 23,1 28,8 5,9 2,11 -9,6 -10,-3 -17,-4 -17,-2 0,3 41,25 91,50 60,30 97,44 110,40 20,-7 20,-7 2,-21 -17,-14 -17,-15 2,-12 20,3 20,12 23,401 2,373 1,397 -15,397 -17,1 -17,1 0,11 35,21 16,29 -23,9 -22,-11 -40,-16 -40,-12 0,5 18,17 40,27 l 40,18 v 349 c -1,338 -1,348 -20,338 -20,-11 -53,-3 -45,10 3,5 -1,15 -9,23 -8,8 -12,17 -9,21 3,3 -8,9 -25,12 -19,4 -29,11 -25,17 4,7 0,8 -11,4 -10,-4 -27,-7 -39,-7 -18,0 -19,-2 -7,-10 8,-5 27,-10 43,-10 25,0 75,-36 64,-46 -2,-3 -136,61 -297,141 l -293,145 316,154 c 215,106 322,153 336,149 l 21,-5 v 751 c 0,683 -3,788 -23,739 -4,-10 -8,-10 -14,-2 -4,6 -158,85 -341,175 -230,112 -331,167 -328,176 3,7 1,13 -4,13 -6,0 -10,-4 -10,-10 0,-5 -8,-10 -19,-10 -10,0 -169,-74 -354,-165 -184,-91 -340,-165 -345,-165 -5,0 -160,74 -345,165 -184,91 -342,165 -350,165 -8,0 -31,-7 -50,-15 -26,-11 -38,-12 -43,-3 -4,6 -3,8 3,5 9,-6 23,12 23,29 0,2 -22,4 -50,4 -47,0 -50,-1 -48,-25 z m -2311,-919 313,-154 -99,-50 c -55,-27 -117,-57 -139,-66 -36,-15 -38,-15 -25,1 7,10 9,15 5,11 -5,-4 -15,-3 -23,3 -9,9 -13,8 -13,0 0,-6 -5,-11 -10,-11 -6,0 -9,5 -8,12 2,6 -6,14 -16,16 -32,7 -41,24 -39,71 1,32 -4,53 -20,75 -19,27 -20,29 -2,22 18,-7 18,-6 0,14 -23,25 -47,27 -38,3 5,-14 0,-12 -20,6 -31,28 -49,21 -22,-9 10,-11 13,-20 7,-20 -7,0 -12,5 -12,11 0,5 -5,7 -11,4 -6,-5 -3,-13 10,-22 12,-8 19,-19 16,-24 -4,-5 5,-5 20,1 29,11 45,6 44,-13 0,-9 -2,-8 -6,1 -2,6 -9,10 -14,6 -5,-3 -3,-15 6,-26 11,-17 12,-25 2,-37 -10,-12 -9,-14 6,-8 14,5 17,1 17,-21 0,-16 5,-33 12,-40 7,-7 9,-12 5,-12 -4,0 3,-11 14,-24 12,-14 28,-22 38,-20 9,3 -59,-33 -150,-80 l -166,-85 -85,42 c -60,30 -84,46 -81,57 4,12 3,12 -5,2 -7,-11 -58,11 -234,99 l -224,112 216,107 c 119,59 238,118 265,130 28,12 64,29 80,37 27,13 28,13 11,-2 -12,-9 -15,-15 -7,-15 10,0 11,-3 2,-14 -20,-24 6,-28 28,-5 18,20 21,20 35,6 9,-9 16,-21 16,-27 0,-6 4,-8 10,-5 11,7 -16,54 -37,68 -13,8 -9,27 6,27 5,0 149,-69 322,-154 z m 1222,87 c 101,-49 136,-71 132,-81 -4,-12 -2,-12 8,-4 8,7 17,9 20,6 9,-9 -41,-72 -63,-79 -20,-6 -33,-52 -16,-59 7,-3 6,-8 -4,-16 -12,-9 -11,-10 8,-5 24,7 27,-1 12,-39 -5,-14 -16,-26 -25,-26 -18,0 -20,17 -3,22 7,3 8,10 3,17 -6,10 -11,8 -21,-10 -7,-13 -10,-27 -8,-31 2,-3 0,-18 -6,-33 -7,-17 -7,-24 0,-20 6,3 10,-1 10,-9 0,-9 -6,-16 -13,-16 -7,0 -17,-13 -23,-29 -11,-27 -13,-28 -77,-27 -70,2 -89,-10 -59,-37 21,-18 55,-30 47,-17 -3,6 -1,10 5,10 6,0 8,5 4,11 -4,8 1,9 16,4 17,-5 21,-4 15,5 -6,10 0,12 24,7 20,-4 30,-3 26,3 -3,6 3,10 14,10 12,0 21,4 21,8 0,5 12,14 26,21 19,8 24,16 19,29 -11,29 -11,37 2,35 7,-2 10,3 7,11 -3,7 2,16 10,19 9,4 12,14 9,25 -2,11 0,23 6,26 7,5 5,16 -7,34 l -17,27 33,-23 c 33,-24 45,-20 15,5 -17,14 -17,14 0,9 9,-3 17,-2 17,3 0,5 10,11 23,15 16,4 27,17 34,41 12,37 6,43 -17,23 -12,-11 -12,-10 -1,4 10,14 9,17 -9,23 -12,4 -19,9 -17,11 2,3 72,-29 154,-69 l 150,-75 -313,-155 -313,-156 -318,156 c -175,86 -313,158 -306,160 7,2 21,0 32,-6 27,-15 31,-14 31,7 0,11 -3,13 -8,5 -5,-8 -13,-9 -22,-3 -11,7 -1,15 42,34 31,14 106,50 167,80 62,31 108,50 105,42 -3,-8 4,-19 16,-26 28,-15 37,-6 16,15 -9,9 -16,20 -16,23 0,8 238,130 255,131 5,1 72,-29 148,-66 z m 1431,-19 c 136,-67 173,-90 169,-103 -4,-14 -3,-14 6,-1 9,13 30,5 143,-51 l 133,-66 -33,-17 c -18,-9 -38,-14 -44,-10 -6,4 -8,3 -5,-3 5,-8 -536,-281 -549,-277 -3,1 -32,14 -65,29 -39,17 -57,30 -52,38 4,7 8,21 10,32 1,16 0,15 -9,-5 -7,-14 -13,-27 -15,-29 -2,-3 -115,51 -252,119 l -248,123 181,89 c 100,48 240,117 311,152 72,36 133,65 137,65 4,1 86,-38 182,-85 z m 1448,-26 c 197,-97 226,-114 215,-127 -10,-14 -10,-14 4,-3 14,11 25,9 62,-9 26,-13 43,-27 40,-32 -3,-6 -1,-7 5,-3 6,3 26,0 44,-7 l 33,-14 -130,-63 c -71,-34 -134,-63 -140,-64 -5,-1 -21,-9 -35,-18 -14,-9 -32,-18 -40,-20 -8,-2 -17,-6 -20,-9 -3,-4 -64,-36 -137,-73 l -132,-66 -315,156 -314,156 310,154 c 170,85 313,154 316,154 4,0 109,-50 234,-112 z M 1498,2431 c 54,-27 58,-32 80,-92 12,-35 22,-84 22,-107 0,-36 6,-49 30,-72 17,-15 30,-32 30,-37 0,-4 -5,-1 -10,7 -8,13 -10,12 -10,-2 0,-10 -5,-18 -11,-18 -5,0 -7,-5 -3,-12 4,-7 3,-8 -5,-4 -6,4 -18,20 -26,36 -8,16 -25,30 -37,32 -16,2 -22,9 -20,23 2,16 -1,14 -15,-7 -16,-26 -28,-32 -60,-31 -7,1 -13,-3 -13,-8 0,-5 -9,-9 -20,-9 -12,0 -24,-10 -30,-24 -10,-28 -78,-98 -88,-92 -4,2 -16,0 -26,-3 -19,-7 -19,-8 3,-30 12,-12 19,-27 15,-33 -5,-8 -1,-9 10,-5 10,4 29,10 42,13 13,3 24,11 24,18 0,6 4,5 9,-3 5,-7 14,-10 20,-7 6,4 9,12 6,17 -4,5 5,14 19,21 14,6 26,15 26,20 0,5 10,7 23,3 21,-6 21,-6 3,9 -25,21 -50,20 -67,0 -12,-15 -11,-16 11,-9 29,9 25,3 -9,-15 -15,-8 -21,-8 -17,-1 4,6 2,11 -4,11 -6,0 -13,-7 -17,-15 -7,-19 -63,-50 -63,-35 0,5 5,10 10,10 6,0 10,6 10,14 0,7 18,32 41,54 22,23 40,44 39,49 -1,4 4,9 11,12 8,2 9,-1 3,-10 -4,-8 8,-2 28,13 19,15 38,24 42,21 3,-3 12,-1 19,6 11,8 20,6 41,-14 14,-13 26,-29 26,-35 0,-6 4,-9 9,-5 5,3 12,1 16,-5 4,-6 10,-8 14,-6 3,3 7,-4 7,-15 0,-12 -5,-18 -14,-14 -7,2 -10,0 -7,-5 10,-15 -5,-32 -18,-22 -7,5 -26,11 -44,14 -24,3 -33,0 -36,-14 -3,-10 0,-21 5,-25 7,-3 8,-1 4,5 -4,7 -1,12 8,12 9,0 16,-7 16,-15 0,-23 36,-38 61,-25 19,11 20,10 9,-9 -6,-12 -9,-21 -7,-21 13,0 87,42 87,50 0,14 -13,13 -28,-2 -9,-9 -12,-8 -12,4 0,9 -4,18 -10,20 -6,2 -6,8 0,18 8,13 10,12 10,-3 0,-10 5,-17 11,-15 6,2 10,8 9,13 -1,6 9,13 22,16 24,6 25,9 14,46 -5,15 -2,22 9,25 13,2 14,6 3,20 -11,15 -34,24 -70,27 -5,1 -8,10 -8,20 0,26 -17,36 -23,14 -3,-10 -4,-6 -4,10 1,20 5,26 16,22 13,-5 13,-3 0,12 -9,10 -21,38 -28,63 -7,25 -19,55 -27,68 -8,12 -13,22 -10,22 2,0 115,-54 251,-120 l 247,-120 -315,-157 -315,-157 -196,97 c -108,53 -196,99 -196,102 0,3 8,1 19,-4 10,-6 21,-7 25,-4 3,3 6,0 6,-8 1,-10 5,-9 15,5 11,14 12,24 3,40 -6,11 -14,23 -19,26 -4,3 -10,17 -14,31 -6,24 -4,27 19,27 15,0 29,-4 32,-9 3,-5 1,-9 -5,-9 -5,0 -9,-9 -8,-19 0,-11 6,-17 14,-14 7,3 13,0 13,-6 0,-6 5,-11 11,-11 5,0 7,5 4,10 -3,6 -1,10 4,10 6,0 11,-4 11,-10 0,-5 4,-10 10,-10 5,0 7,7 4,15 -4,10 0,15 11,15 17,0 17,2 -1,22 -13,14 -14,19 -4,14 12,-6 12,-5 -1,6 -8,7 -19,22 -23,33 -7,19 -8,19 -17,2 -6,-9 -7,-23 -3,-30 4,-6 -4,-3 -17,9 -13,12 -31,25 -39,29 -13,8 -13,7 -1,-9 13,-16 13,-17 -5,-14 -22,3 -44,20 -38,29 2,3 -2,6 -9,6 -7,1 -26,2 -43,4 -44,4 -94,-19 -86,-39 5,-14 3,-15 -9,-5 -11,9 -14,6 -16,-18 -1,-16 2,-29 8,-29 6,0 8,4 4,9 -3,5 -1,12 4,15 5,4 8,-2 7,-11 -4,-22 34,-44 52,-30 8,6 12,6 12,-2 0,-6 -5,-11 -12,-11 -6,0 -8,-3 -4,-7 4,-5 14,1 22,11 10,15 11,23 2,33 -8,11 -7,12 6,7 19,-7 21,-35 4,-52 -16,-16 -3,-15 22,0 15,10 22,10 32,0 11,-11 10,-12 -4,-7 -13,5 -16,2 -13,-14 2,-12 2,-21 0,-21 -2,0 -53,24 -114,54 l -110,54 312,155 c 172,86 313,156 315,156 1,1 28,-12 60,-28 z m 1642,-121 c 165,-82 305,-150 310,-150 35,0 -24,-33 -296,-166 -168,-82 -311,-150 -317,-152 -7,-1 -2,3 9,9 12,6 27,21 32,33 6,11 11,15 11,9 1,-7 5,-13 11,-13 5,0 7,7 3,16 -4,11 0,14 18,12 13,-2 25,2 26,7 1,6 -9,9 -22,7 -31,-4 -32,6 -2,18 21,8 21,9 -5,9 -14,1 -28,-5 -30,-11 -3,-7 -10,17 -17,52 -17,83 -30,108 -80,148 -49,40 -53,31 -8,-17 l 32,-34 -40,28 -40,29 29,-32 c 24,-26 26,-32 12,-32 -10,0 -14,-5 -10,-12 4,-7 3,-8 -4,-4 -6,4 -9,13 -6,20 3,8 -4,16 -15,19 -12,3 -19,1 -15,-4 3,-5 -5,-9 -18,-9 l -23,-1 25,-14 25,-14 -25,-1 c -22,-1 -23,-2 -7,-11 9,-6 27,-7 38,-4 15,5 22,2 26,-15 3,-11 11,-19 18,-16 7,2 18,-1 24,-7 8,-8 11,-5 12,14 0,15 6,5 14,-26 15,-53 12,-99 -9,-128 -12,-16 -37,-6 -316,132 l -304,150 253,125 c 140,69 256,126 260,126 3,0 -4,-7 -16,-15 -14,-10 -20,-22 -17,-33 5,-13 4,-14 -4,-3 -6,8 -12,9 -16,3 -3,-5 1,-13 10,-16 10,-4 14,-14 11,-26 -3,-10 1,-27 8,-36 11,-15 12,-12 12,22 0,72 21,109 77,137 28,14 52,26 53,26 1,1 137,-66 303,-149 z m 1164,113 c 54,-26 72,-41 68,-51 -3,-10 -1,-13 6,-8 7,4 12,2 12,-3 0,-6 -7,-11 -15,-11 -8,0 -15,3 -15,8 0,4 -11,7 -23,7 -19,0 -23,-4 -19,-20 3,-11 11,-24 18,-30 10,-8 10,-15 -2,-35 -9,-14 -13,-17 -10,-7 4,11 2,16 -5,12 -6,-4 -8,-13 -5,-20 5,-15 -9,-75 -29,-120 -24,-56 -28,-77 -14,-87 11,-8 10,-9 -2,-5 -17,6 -39,-10 -39,-26 0,-5 8,-3 18,4 16,13 16,13 2,-5 -24,-30 -22,-61 4,-89 28,-30 41,-35 32,-11 -3,8 -1,24 4,34 7,13 7,21 -2,26 -7,5 -8,3 -3,-6 5,-9 4,-11 -4,-6 -7,5 -8,13 -2,23 4,9 6,24 4,34 -3,12 0,19 8,19 11,0 11,2 0,9 -13,8 -13,14 -2,38 8,15 22,54 31,85 21,67 52,137 62,138 5,0 -9,-44 -38,-115 -7,-18 -6,-18 9,-6 9,7 17,20 17,27 0,8 4,14 9,14 5,0 12,7 15,16 4,9 2,13 -5,8 -6,-3 -3,5 6,20 16,24 34,39 20,16 -3,-5 -2,-10 3,-10 5,0 12,9 15,20 4,14 11,18 24,14 17,-5 17,-5 -1,10 -10,8 -23,13 -27,10 -5,-3 -9,0 -9,5 0,6 3,11 6,11 4,0 104,-48 223,-106 l 216,-106 -50,-24 c -27,-13 -56,-22 -63,-19 -7,2 -11,1 -8,-3 7,-11 -143,-84 -156,-76 -6,4 -8,3 -5,-2 3,-6 -74,-50 -172,-98 l -177,-89 -312,153 c -172,85 -312,157 -312,161 0,15 57,25 105,18 61,-9 120,-11 113,-4 -2,3 -18,6 -34,9 -16,2 -37,7 -47,11 -9,4 -29,4 -45,1 -15,-3 85,51 222,120 136,69 255,123 263,120 8,-3 11,-2 8,3 -4,8 18,29 32,31 2,0 36,-17 77,-37 z M 768,1391 c 8,-4 13,-11 13,-15 -3,-19 1,-25 17,-29 9,-3 4,-5 -13,-5 -41,1 -65,8 -65,19 0,6 5,7 12,3 6,-4 8,-3 4,4 -3,5 0,13 6,15 9,4 9,6 1,6 -18,1 -43,-28 -37,-44 8,-20 67,-29 94,-15 21,11 21,12 3,32 -18,20 -18,20 17,6 19,-9 151,-73 293,-144 L 1371,1095 1063,942 C 894,858 749,790 742,790 c -7,0 -40,14 -73,31 -46,23 -58,33 -50,43 6,7 13,28 15,47 3,19 8,45 11,59 6,23 5,24 -6,5 -7,-10 -16,-39 -21,-64 -4,-24 -10,-47 -13,-50 -8,-7 -145,61 -139,70 2,4 -1,11 -7,15 -8,4 -9,3 -5,-4 10,-16 3,-15 -39,5 -24,12 -31,19 -23,25 9,5 9,8 2,8 -17,0 -1,75 30,143 31,67 32,71 5,96 l -21,20 71,35 c 76,39 86,42 75,24 -5,-7 -3,-8 5,-4 7,5 10,11 6,14 -7,7 153,91 175,91 8,1 21,-3 28,-8 z m 1491,-45 c 61,-31 99,-56 93,-60 -7,-4 -12,-2 -12,4 0,6 -4,9 -9,6 -5,-3 -14,1 -21,10 -10,11 -15,12 -20,3 -4,-6 -13,-8 -19,-5 -6,4 -9,11 -6,16 3,4 -4,6 -16,3 -16,-5 -18,-8 -7,-15 8,-6 0,-7 -23,-4 -34,5 -37,3 -46,-27 -5,-17 -14,-33 -21,-33 -7,-1 -15,-3 -19,-4 -5,-1 -11,-2 -15,-1 -5,0 -8,-6 -8,-15 0,-9 -5,-12 -12,-8 -8,5 -9,0 -5,-15 4,-18 2,-21 -10,-17 -13,5 -14,4 -4,-8 9,-10 9,-16 1,-21 -8,-5 -7,-12 2,-23 7,-9 -1,-6 -20,7 -19,13 -31,17 -30,10 2,-7 -3,-14 -9,-15 -7,-1 -14,-2 -15,-4 -2,-1 -12,-3 -22,-5 -11,-2 -23,-11 -28,-19 -7,-12 -14,-13 -34,-6 -33,13 -34,13 -34,-5 0,-9 -9,-15 -25,-15 -14,0 -24,-3 -24,-7 3,-20 -2,-24 -16,-13 -9,8 -15,9 -15,2 0,-6 4,-13 9,-16 5,-3 14,-20 20,-37 8,-25 8,-30 -3,-26 -7,3 -13,-1 -13,-9 0,-8 5,-14 11,-14 7,0 6,-4 -1,-11 -7,-7 -56,13 -167,68 l -157,78 308,153 c 169,83 314,152 323,151 8,0 62,-24 119,-53 z m 1303,5 c -1,-24 -8,-58 -16,-75 -7,-17 -21,-47 -30,-68 -21,-48 -21,-55 12,-85 39,-36 96,-63 134,-63 22,0 29,-3 19,-9 -10,-7 -9,-11 6,-22 17,-13 20,-23 14,-46 -1,-5 -6,2 -11,15 -5,12 -16,22 -25,22 -8,0 -15,5 -15,10 0,18 -18,11 -25,-9 -4,-14 -12,-18 -23,-14 -9,3 -14,3 -10,-2 12,-13 -12,-35 -38,-35 -12,0 -26,-5 -30,-12 -5,-8 -2,-9 9,-5 10,3 17,2 17,-3 0,-13 -32,-28 -50,-23 -9,3 -7,-2 5,-12 12,-9 21,-12 23,-5 2,5 7,8 12,5 4,-3 11,7 15,23 6,25 8,26 20,9 12,-17 14,-15 35,18 12,19 26,33 31,29 5,-3 9,0 9,5 0,6 7,11 15,11 13,0 14,-4 5,-20 -6,-11 -18,-20 -28,-20 -9,0 -26,-13 -36,-29 -11,-16 -26,-27 -33,-24 -11,4 -12,-1 -7,-21 4,-18 2,-26 -7,-26 -21,0 -1,-13 25,-15 14,-2 30,3 37,11 16,20 29,18 23,-3 -3,-10 1,-7 9,7 11,18 12,27 4,32 -11,7 -2,12 16,9 4,0 7,4 7,10 0,6 -9,9 -20,6 -11,-3 -17,-1 -14,4 15,25 124,60 124,40 0,-6 -9,-11 -19,-11 -33,0 -50,-11 -44,-27 4,-11 2,-14 -5,-9 -7,4 -12,2 -12,-3 0,-20 20,-11 30,12 5,12 9,16 9,10 1,-7 8,-13 16,-13 8,0 15,-6 16,-12 0,-10 2,-10 6,0 2,6 10,9 15,6 7,-4 8,-2 4,5 -4,6 -11,9 -16,6 -4,-3 -3,6 3,20 9,17 17,23 30,19 16,-5 18,-2 12,18 -6,23 -6,23 11,3 11,-14 18,-16 21,-7 3,6 12,12 21,12 14,0 15,2 2,9 -8,6 -18,7 -22,5 -11,-7 -38,21 -38,38 0,7 11,18 25,25 20,9 25,8 25,-3 0,-8 -7,-14 -15,-14 -8,0 -15,-7 -15,-15 0,-9 9,-15 23,-14 12,0 16,3 8,6 -7,3 11,13 40,23 29,10 59,15 67,12 13,-4 12,-7 -4,-13 -14,-6 -9,-8 19,-8 30,-1 40,3 44,18 4,15 12,18 35,15 31,-3 45,-11 37,-18 -20,-18 -554,-276 -571,-275 -19,1 -17,2 7,10 40,11 47,50 9,43 -14,-3 -23,-1 -20,4 3,5 -8,7 -25,3 -29,-6 -38,-28 -10,-24 8,1 10,-2 4,-8 -13,-13 -517,236 -522,258 -2,11 -5,12 -10,4 -6,-9 -14,-8 -35,3 -26,13 -27,14 -7,21 11,3 26,3 32,-1 7,-4 9,-3 6,3 -8,13 320,176 335,167 6,-4 8,-3 5,3 -9,14 81,55 107,48 15,-5 17,-4 7,3 -11,8 0,17 45,41 32,17 70,29 84,28 23,-2 25,-6 22,-46 z m 1689,-103 311,-152 -154,-78 c -157,-79 -177,-87 -161,-65 5,6 10,22 11,35 1,20 -2,21 -14,11 -8,-6 -12,-19 -9,-28 2,-9 1,-22 -3,-29 -9,-13 -68,-46 -112,-63 -21,-8 -22,-7 -9,3 9,7 16,28 17,47 0,20 7,38 16,43 18,10 22,68 5,68 -6,0 -8,-9 -4,-21 5,-15 4,-19 -4,-15 -6,4 -11,16 -11,27 0,10 -5,19 -11,19 -5,0 -8,4 -5,9 4,5 1,11 -6,13 -10,4 -9,9 3,21 16,15 29,13 29,-5 0,-5 -4,-6 -10,-3 -12,8 -13,-5 -1,-24 6,-10 10,-10 16,-1 5,8 12,6 26,-6 16,-14 19,-15 14,-3 -4,10 3,20 17,26 l 23,11 -22,-1 c -13,-1 -23,-6 -23,-11 0,-5 -15,7 -34,27 -25,27 -39,35 -52,30 -10,-4 -13,-8 -7,-10 13,-5 5,-43 -9,-43 -5,0 -6,4 -3,10 3,6 -1,7 -10,4 -14,-6 -14,-9 0,-30 20,-30 19,-32 -7,-36 -19,-2 -22,-9 -22,-38 0,-57 22,-120 42,-120 14,0 15,-2 2,-10 -10,-6 -19,-2 -32,17 -9,15 -15,30 -12,34 2,4 -12,24 -31,43 -39,39 -39,41 0,26 21,-8 26,-7 22,2 -2,7 -10,12 -16,10 -8,-1 -8,4 1,18 17,26 4,36 -24,18 -29,-19 -60,-30 -54,-20 2,4 0,14 -6,22 -8,12 -9,12 -4,-2 8,-27 -9,-21 -37,12 -14,17 -33,30 -42,30 -23,0 -30,-28 -12,-48 10,-11 15,-28 11,-46 -4,-24 -2,-27 15,-21 13,4 23,0 30,-12 6,-10 11,-13 11,-6 0,6 -12,22 -27,34 l -28,22 30,-7 30,-7 -29,26 c -16,14 -33,25 -38,25 -4,0 -8,7 -8,15 0,25 4,23 74,-39 22,-19 43,-33 47,-30 10,6 32,-32 54,-90 14,-37 20,-44 25,-31 5,14 9,15 14,6 5,-7 6,-14 5,-15 -10,-9 -110,-56 -118,-56 -6,0 -132,59 -280,131 -179,87 -268,136 -265,144 3,7 1,16 -5,20 -7,3 -8,0 -5,-9 8,-20 3,-20 -42,2 l -37,17 309,152 c 170,84 315,152 322,152 7,1 152,-67 323,-151 z m -1349,-24 c 221,-110 254,-130 240,-141 -20,-15 -36,-17 -27,-3 3,6 -1,13 -9,16 -9,3 -13,10 -10,15 5,8 -9,13 -28,10 -5,0 -8,3 -8,9 0,13 -75,13 -118,1 -37,-11 -43,-5 -9,10 21,9 21,9 -4,6 -23,-3 -27,0 -24,20 1,12 -2,23 -7,23 -5,0 -7,4 -4,8 6,10 -24,9 -41,-1 -6,-4 -9,-17 -5,-30 5,-19 3,-20 -11,-9 -9,8 -13,20 -10,28 3,8 1,14 -5,14 -6,0 -12,-6 -15,-12 -3,-10 -8,-10 -21,1 -17,14 -17,12 -13,-18 3,-19 10,-38 16,-44 14,-14 14,-27 0,-27 -5,0 -7,5 -3,12 5,7 3,8 -6,3 -10,-6 -9,-11 5,-21 15,-12 17,-18 7,-39 -9,-19 -9,-25 0,-25 9,0 9,-3 0,-12 -10,-10 -15,-10 -21,1 -5,7 -13,11 -19,7 -6,-3 -13,3 -17,14 -3,11 -14,21 -23,21 -15,1 -15,2 -1,6 11,3 15,12 13,26 -5,22 -5,22 5,0 6,-13 15,-23 21,-23 14,0 13,7 -5,34 -12,18 -13,30 -5,50 8,21 7,31 -5,42 -8,9 -15,12 -15,7 0,-5 5,-14 12,-21 9,-9 9,-12 1,-12 -7,0 -15,5 -18,10 -3,6 -12,10 -18,10 -7,0 -4,-7 7,-15 12,-9 16,-20 11,-32 -6,-14 -9,-15 -12,-4 -8,20 -41,51 -56,51 -12,0 -13,11 -9,78 2,23 27,27 27,5 0,-6 3,-15 8,-19 4,-4 7,-2 7,5 0,7 4,10 9,7 11,-7 8,21 -4,31 -4,4 -5,2 -1,-4 4,-7 2,-13 -3,-13 -6,0 -11,9 -11,21 0,16 -4,19 -22,14 -17,-6 -20,-4 -15,9 4,9 2,16 -2,16 -5,0 -12,-7 -15,-16 -8,-22 -23,-9 -28,25 -4,30 -4,30 26,17 17,-7 147,-71 288,-142 z m -1449,27 c 26,-13 45,-27 42,-32 -4,-5 0,-6 8,-3 8,3 72,-23 142,-58 l 127,-64 -281,-137 c -155,-75 -284,-137 -287,-137 -3,0 -2,5 2,12 4,7 3,8 -5,4 -6,-4 -9,-11 -6,-16 2,-4 -9,-13 -25,-20 -35,-15 -44,-12 -201,67 l -105,52 -2,42 c -3,45 11,69 39,69 11,0 19,7 19,16 0,9 5,12 12,8 17,-11 48,-13 48,-3 0,4 16,10 36,13 31,6 34,9 22,23 -12,15 -13,15 -16,0 -4,-20 -22,-23 -22,-4 0,24 16,36 45,33 16,-2 31,-9 33,-15 2,-6 16,-11 32,-11 21,0 29,6 34,25 6,24 26,35 26,14 0,-5 5,-7 11,-3 8,5 8,9 -1,14 -13,8 24,40 47,40 7,0 13,7 13,15 0,10 10,15 28,16 24,0 25,1 7,9 -21,9 -9,14 31,11 11,-1 28,7 38,18 10,11 23,18 27,15 5,-3 6,2 2,12 -5,13 -3,15 13,7 10,-6 40,-20 67,-32 z M 397,1218 c -2,-7 -12,-13 -22,-13 -10,0 -20,-6 -23,-13 -2,-7 2,-10 12,-6 17,6 20,-4 10,-30 -3,-9 -10,-13 -15,-10 -5,3 -9,1 -9,-5 0,-5 5,-13 10,-16 9,-5 4,-52 -6,-64 -2,-2 -17,-5 -33,-6 -23,-1 -31,3 -35,20 -3,12 -11,22 -18,23 -53,6 -63,9 -61,20 2,6 -3,9 -11,6 -15,-6 -10,-50 7,-61 5,-3 15,1 22,10 13,18 25,13 25,-10 0,-8 -5,-11 -12,-7 -7,5 -8,3 -4,-5 6,-9 13,-8 29,6 20,18 20,17 15,-4 -5,-18 -2,-21 21,-20 16,1 25,-3 24,-10 -2,-7 4,-10 13,-6 13,5 13,7 2,14 -10,7 -9,9 3,9 12,0 18,-11 21,-35 2,-20 2,-34 -1,-32 -4,1 -62,29 -130,62 l -123,60 138,67 c 148,71 158,75 151,56 z"
       id="path6"
       inkscape:connector-curvature="0" />
    <path
       d="m 3351,3149 c -1,-33 3,-38 47,-61 26,-14 52,-24 59,-21 16,6 68,-48 93,-97 29,-57 43,-52 34,13 -4,28 -7,78 -8,110 0,59 -4,64 -37,47 -13,-7 -19,-7 -19,-1 0,7 -9,7 -25,-1 -14,-6 -25,-15 -25,-19 0,-5 -7,-6 -15,-3 -8,4 -12,10 -9,16 3,5 -3,4 -15,-4 -12,-7 -21,-16 -21,-20 0,-5 -5,-8 -11,-8 -5,0 -8,4 -5,9 3,5 -3,11 -13,14 -12,3 -21,16 -24,33 -4,26 -4,25 -6,-7 z"
       id="path8"
       inkscape:connector-curvature="0" />
    <path
       d="m 2531,2248 c 0,-15 -6,-30 -13,-34 -7,-5 -8,-3 -3,6 5,9 4,11 -3,6 -16,-9 -15,-12 6,-33 22,-21 38,-58 21,-47 -6,3 -5,-4 2,-17 8,-13 14,-29 14,-34 0,-6 8,-21 18,-35 13,-19 17,-21 17,-7 0,9 -4,17 -10,17 -5,0 -7,7 -4,15 4,8 -1,33 -10,55 -15,38 -15,41 4,60 l 21,21 24,-30 c 14,-16 25,-33 25,-39 0,-14 -44,-108 -61,-129 -13,-16 -12,-17 4,-4 19,15 24,2 5,-17 -8,-8 -8,-15 2,-27 20,-24 25,-18 27,27 1,23 7,59 14,80 10,31 19,40 48,48 20,5 42,20 50,32 46,74 53,88 39,83 -8,-3 -24,-22 -34,-42 -24,-46 -51,-64 -64,-43 -6,10 -4,20 7,32 9,10 11,18 5,18 -6,0 -12,-6 -15,-12 -2,-7 -8,-10 -12,-6 -4,4 -2,14 5,23 8,9 9,15 2,15 -6,0 -15,-7 -20,-16 -8,-14 -10,-13 -16,9 -5,23 -10,25 -45,20 -32,-4 -40,-2 -44,13 -3,14 -5,11 -6,-8 z"
       id="path10"
       inkscape:connector-curvature="0" />
    <path
       d="m 2837,2244 c -3,-3 -3,-13 0,-22 5,-11 3,-13 -8,-7 -8,5 -7,1 4,-12 23,-26 22,-36 -3,-23 -15,8 -20,8 -20,-1 0,-7 -3,-9 -7,-5 -8,7 -9,11 -12,37 0,6 -8,3 -17,-6 -15,-14 -12,-19 29,-58 24,-23 53,-61 63,-84 19,-43 46,-56 99,-50 31,4 28,22 -3,19 l -27,-2 25,14 c 15,10 19,15 10,16 -8,0 -21,10 -29,21 -12,20 -11,21 6,14 10,-5 30,-9 46,-9 15,-1 27,-4 27,-8 0,-4 7,-5 15,-2 8,4 15,10 15,15 0,4 -8,5 -17,2 -12,-5 -15,-2 -10,9 5,14 3,15 -21,2 -20,-10 -29,-11 -41,-1 -12,10 -11,13 9,15 13,2 30,10 37,18 17,17 13,17 -23,4 -19,-7 -30,-7 -40,1 -11,9 -14,9 -14,0 0,-7 -5,-9 -10,-6 -6,4 -8,10 -5,15 3,4 0,10 -6,12 -6,2 -12,18 -12,35 -2,30 -3,31 -22,19 -18,-12 -21,-12 -21,5 0,12 5,18 14,14 7,-2 10,0 7,5 -7,11 -28,13 -38,4 z"
       id="path12"
       inkscape:connector-curvature="0" />
    <path
       d="m 838,1290 c -8,-25 -21,-44 -27,-42 -7,1 -10,-2 -7,-7 8,-12 -30,-24 -72,-23 -21,1 -30,-2 -26,-9 4,-7 25,-9 53,-6 41,5 44,4 26,-9 -22,-16 -62,-18 -102,-4 -26,9 -27,9 -9,-5 11,-8 30,-15 42,-15 13,0 26,-4 29,-10 3,-5 -1,-10 -10,-10 -9,0 -14,-4 -11,-8 10,-16 -31,-10 -54,9 -21,16 -21,18 -5,13 18,-6 17,-4 -3,10 -12,10 -19,22 -16,28 4,6 2,8 -4,4 -5,-3 -24,5 -41,19 -30,26 -30,26 -41,5 -9,-17 -7,-26 12,-49 56,-70 157,-95 204,-50 26,24 34,49 9,29 -10,-9 -15,-9 -15,-1 0,6 5,12 10,12 6,1 15,2 22,3 14,1 59,123 55,146 -2,8 -10,-5 -19,-30 z"
       id="path14"
       inkscape:connector-curvature="0" />
    <path
       d="m 3215,1238 c -62,-34 -69,-40 -51,-50 9,-5 29,-12 44,-14 15,-3 28,-9 30,-14 2,-5 10,-6 18,-3 14,5 48,-13 78,-42 10,-10 16,-12 16,-4 0,8 4,8 16,-2 13,-11 17,-10 26,4 5,10 12,16 16,13 4,-2 8,7 8,20 1,13 -2,24 -7,24 -4,0 -6,8 -3,18 5,14 4,14 -4,2 -6,-8 -8,-19 -4,-25 4,-6 -3,0 -15,14 -12,14 -21,27 -21,30 3,16 -16,41 -31,41 -12,-1 -11,-5 8,-20 30,-25 21,-25 -29,0 -44,22 -66,24 -95,8 z"
       id="path16"
       inkscape:connector-curvature="0" />
    <path
       d="m 5183,1227 c -12,-19 -28,-33 -42,-34 -12,-1 -20,1 -17,5 2,4 -9,8 -25,9 -15,1 -31,-2 -34,-7 -11,-17 -24,-11 -40,20 -9,17 -20,30 -25,30 -5,0 0,-16 11,-35 20,-33 40,-42 87,-36 15,2 16,-15 2,-22 -6,-3 -5,-4 2,-3 7,2 21,-6 31,-18 15,-17 20,-18 27,-6 8,12 14,10 37,-15 16,-16 36,-45 46,-65 l 17,-35 -5,35 c -5,32 -3,35 20,35 14,0 26,-7 28,-16 3,-12 -1,-15 -14,-12 -20,6 -26,-11 -8,-23 14,-8 71,54 63,68 -4,6 -2,8 3,5 17,-11 32,16 26,46 -4,21 -11,27 -30,27 -13,0 -22,4 -19,9 3,5 -10,16 -30,26 -36,17 -36,17 -63,-9 -15,-14 -35,-26 -44,-26 -16,0 -16,3 3,40 25,48 20,53 -7,7 z"
       id="path18"
       inkscape:connector-curvature="0" />
    <path
       d="m 5404,4291 c 9,-14 -20,-21 -33,-8 -9,9 -11,8 -6,-5 4,-10 11,-18 17,-18 5,0 6,-4 3,-10 -3,-5 1,-10 10,-10 9,0 13,5 10,10 -3,6 -2,10 4,10 5,0 13,-4 16,-10 3,-5 1,-10 -4,-10 -6,0 -11,-5 -11,-11 0,-5 8,-9 18,-8 9,1 22,1 27,0 13,-1 16,-91 3,-91 -5,0 -7,-4 -4,-9 3,-4 17,-6 32,-3 19,3 22,7 12,13 -14,9 -11,10 62,14 53,4 57,5 33,15 -17,7 -23,18 -23,39 0,37 -9,63 -20,56 -5,-3 -11,-1 -14,4 -4,5 -2,12 4,16 22,14 7,20 -51,23 -41,2 -58,-1 -54,-8 4,-6 16,-8 28,-5 22,6 22,6 2,-10 -12,-9 -21,-12 -23,-5 -2,5 -8,8 -13,4 -5,-3 -9,2 -9,10 0,9 -5,16 -11,16 -5,0 -8,-4 -5,-9 z"
       id="path20"
       inkscape:connector-curvature="0" />
    <path
       d="m 1363,302 c -9,-6 -6,-23 12,-67 14,-33 25,-80 25,-105 0,-33 7,-53 24,-72 12,-15 26,-25 30,-21 3,3 6,-1 6,-9 0,-10 -9,-15 -27,-14 -32,1 -65,25 -56,39 3,6 1,7 -5,3 -6,-4 -21,-2 -32,4 -14,8 -20,8 -20,0 0,-6 -4,-9 -9,-5 -5,3 -13,0 -16,-6 -4,-5 -13,-8 -21,-5 -8,3 -14,1 -14,-5 0,-6 -4,-8 -8,-5 -4,2 -19,-4 -32,-15 l -25,-19 30,5 c 17,2 51,11 77,20 45,16 47,16 67,-4 17,-17 33,-21 91,-21 61,0 70,2 70,18 0,11 -12,24 -26,30 -18,9 -23,9 -18,1 4,-7 1,-10 -7,-7 -19,6 -50,71 -37,79 5,4 3,9 -6,12 -9,4 -16,14 -16,24 -1,10 -11,48 -23,85 -15,46 -26,65 -34,60 z"
       id="path22"
       inkscape:connector-curvature="0" />
  </g>
</svg>
