<?xml version="1.0" encoding="UTF-8" standalone="no"?>
<!-- Created with Inkscape (http://www.inkscape.org/) -->

<svg
   xmlns:dc="http://purl.org/dc/elements/1.1/"
   xmlns:cc="http://creativecommons.org/ns#"
   xmlns:rdf="http://www.w3.org/1999/02/22-rdf-syntax-ns#"
   xmlns:svg="http://www.w3.org/2000/svg"
   xmlns="http://www.w3.org/2000/svg"
   xmlns:sodipodi="http://sodipodi.sourceforge.net/DTD/sodipodi-0.dtd"
   xmlns:inkscape="http://www.inkscape.org/namespaces/inkscape"
   width="368.48468"
   height="203.76231"
   id="svg2"
   version="1.1"
   inkscape:version="0.92.2 5c3e80d, 2017-08-06"
   sodipodi:docname="river.svg">
  <defs
     id="defs4">
    <inkscape:perspective
       sodipodi:type="inkscape:persp3d"
       inkscape:vp_x="0 : 526.18109 : 1"
       inkscape:vp_y="0 : 1000 : 0"
       inkscape:vp_z="744.09448 : 526.18109 : 1"
       inkscape:persp3d-origin="372.04724 : 350.78739 : 1"
       id="perspective2985" />
  </defs>
  <sodipodi:namedview
     id="base"
     pagecolor="#ffffff"
     bordercolor="#666666"
     borderopacity="1.0"
     inkscape:pageopacity="0.0"
     inkscape:pageshadow="2"
     inkscape:zoom="0.9899495"
     inkscape:cx="170.40619"
     inkscape:cy="87.921933"
     inkscape:document-units="mm"
     inkscape:current-layer="layer1"
     showgrid="false"
     inkscape:object-nodes="true"
     inkscape:window-width="1440"
     inkscape:window-height="766"
     inkscape:window-x="0"
     inkscape:window-y="1"
     inkscape:window-maximized="1"
     showguides="false"
     inkscape:guide-bbox="true"
     units="mm"
     fit-margin-top="0"
     fit-margin-left="0"
     fit-margin-right="0"
     fit-margin-bottom="0" />
  <metadata
     id="metadata7">
    <rdf:RDF>
      <cc:Work
         rdf:about="">
        <dc:format>image/svg+xml</dc:format>
        <dc:type
           rdf:resource="http://purl.org/dc/dcmitype/StillImage" />
        <dc:title />
      </cc:Work>
    </rdf:RDF>
  </metadata>
  <g
     inkscape:label="Layer 1"
     inkscape:groupmode="layer"
     id="layer1"
     transform="translate(-83.15804,-648.7373)">
    <path
       inkscape:connector-curvature="0"
       id="path3908"
       d="M 451.21254,750.61847 267.40036,649.16751 83.588209,750.61844 267.40039,852.06941 Z"
       style="fill:#ffcc00;stroke:#000000;stroke-width:0.86043px;stroke-linecap:round;stroke-linejoin:round;stroke-opacity:1" />
    <path
       style="fill:#ffcc00;stroke-width:0.43458283"
       d="m 162.6622,706.7477 c 0.15359,-0.22989 0.48259,-0.41798 0.73111,-0.41798 0.24853,0 0.3262,0.18809 0.1726,0.41798 -0.15359,0.22988 -0.4826,0.41795 -0.73112,0.41795 -0.24853,0 -0.32619,-0.18807 -0.17259,-0.41795 z"
       id="path275"
       inkscape:connector-curvature="0" />
    <path
       style="fill:#ffcc00;stroke-width:0.50507629"
       d=""
       id="path277"
       inkscape:connector-curvature="0"
       transform="translate(53.643411,569.625)" />
    <path
       style="fill:#ffcc00;stroke-width:0.50507629"
       d=""
       id="path279"
       inkscape:connector-curvature="0"
       transform="translate(53.643411,569.625)" />
    <path
       style="fill:#2a7fff;stroke-width:0.43458283"
       d="m 176.26313,801.09052 c -49.95296,-27.58467 -90.866863,-50.2878 -90.919778,-50.45138 -0.115765,-0.3579 181.429738,-100.5479 182.146468,-100.52166 0.48312,0.0177 181.39113,99.77578 181.99238,100.35605 0.25944,0.25038 -180.05608,100.0225 -181.74387,100.56245 -0.3584,0.11466 -41.52223,-22.3608 -91.4752,-49.94546 z"
       id="path18"
       inkscape:connector-curvature="0" />
    <path
       style="fill:none;stroke:#000000;stroke-width:0.86043006px;stroke-linecap:butt;stroke-linejoin:miter;stroke-opacity:1"
       d="m 356.31837,751.74811 c -0.7531,-0.13931 -1.5062,-0.27863 -2.2593,-0.41796 0,-0.13932 0.12533,-0.34068 0,-0.41797 -1.12262,-0.69228 -1.21333,-0.0116 -1.80742,-0.83593 -0.15818,-0.21946 -0.4597,-1.117 -0.90372,-1.2539 -0.28578,-0.0881 -0.61794,0.0881 -0.90372,0 -0.20208,-0.0623 -0.24522,-0.37019 -0.45186,-0.41798 -0.43837,-0.10136 -0.97961,0.23186 -1.35558,0 -0.25064,-0.15455 0.213,-0.63889 0,-0.83593 -3.20269,-2.96248 0.15063,1.11458 -2.25929,0 -0.26944,-0.12461 0.28578,-0.74782 0,-0.83593 -0.45185,-0.13933 -0.87927,0.41796 -1.35557,0.41796 -0.15063,0 0.13471,-0.35566 0,-0.41796 -0.26944,-0.12462 -0.60249,0 -0.90372,0 -1.55446,0 -0.20211,0 -2.25929,0 -0.15063,0 0.60248,0 0.45185,0 -0.45185,0 -0.90371,0 -1.35558,0 -0.15061,0 -0.38449,-0.12462 -0.45185,0 -0.13472,0.24923 0.26944,0.71132 0,0.83593 -0.30124,0.13933 -0.56692,-0.41797 -0.90372,-0.41797 -0.30124,0 0.30124,0.83594 0,0.83594 -0.15062,0 0.15062,-0.41797 0,-0.41797 -2.18523,0 -0.45185,0.51776 -0.45185,0.83593 0,0.13933 -0.32654,-0.0772 -0.45186,0 -0.30125,0.27865 -0.60248,0.55729 -0.90372,0.83594 0.15062,0 0.45185,-0.13932 0.45185,0 0,0.13933 -0.3845,-0.12461 -0.45185,0 -0.13473,0.24923 0.0953,0.57159 0,0.83594 -0.0895,0.24859 -1.35558,1.08301 -1.35558,1.2539 0,0.19703 0.60248,0.27865 0.45187,0.41796 -0.21302,0.19704 -0.769,-0.24922 -0.90373,0 -0.15062,0.27865 0.55837,0.54039 0.45186,0.83594 -0.1065,0.29555 -0.75309,0.13933 -0.90371,0.41797 -0.0953,0.17623 0.54711,0.24174 0.45185,0.41796 -0.15062,0.27866 -0.75309,0.13933 -0.90372,0.41798 -0.0952,0.17623 0.54713,0.24173 0.45187,0.41796 -0.15063,0.27865 -0.7169,0.15875 -0.90373,0.41797 -0.16709,0.23185 0.15499,0.597 0,0.83593 -0.32876,0.50687 -1.0698,0.72522 -1.35557,1.25391 -0.0952,0.17623 0.54712,0.24174 0.45185,0.41797 -0.15061,0.27864 -0.66556,0.19767 -0.9037,0.41796 -2.1873,2.02325 0.97986,-0.31463 -0.45186,1.67188 -0.004,0.004 -1.35558,0.5149 -1.35558,0.83593 0,0.19703 0.54711,0.24174 0.45186,0.41797 -0.15062,0.27864 -0.62349,0.24516 -0.90372,0.41796 -0.17723,0.10929 -0.23885,0.41797 -0.45186,0.41797 -0.15062,0 0,-0.55729 0,-0.41797 0,0.27865 0.1671,0.60409 0,0.83594 -0.18682,0.25922 -0.56692,0.41797 -0.90372,0.41797 -0.15062,0 0,-0.55729 0,-0.41797 0,0.66217 0.26944,1.2539 -0.90371,1.2539 -0.21301,0 -0.26134,-0.50608 -0.45186,-0.41796 -0.30124,0.13932 -0.34536,0.54039 -0.45187,0.83593 -0.0476,0.13218 0.15063,0.41797 0,0.41797 -0.1506,0 0.13473,-0.48027 0,-0.41797 -0.27555,0.12744 -1.50582,1.57888 -1.80742,1.67187 -0.28578,0.0881 -0.69071,-0.19703 -0.90372,0 -0.15062,0.13932 0.60247,0.27864 0.45186,0.41797 -0.213,0.19703 -0.65307,-0.15457 -0.90372,0 -0.28022,0.1728 -0.15062,0.69661 -0.45186,0.83593 -0.19051,0.0881 -0.30123,-0.55729 -0.45185,-0.41797 -0.21302,0.19704 0.26943,0.71133 0,0.83594 -0.30124,0.13932 -0.56692,-0.41797 -0.90372,-0.41797 -0.21301,0 -0.45186,0.22094 -0.45186,0.41797 0,0.19704 0.66486,0.41797 0.45186,0.41797 -0.33681,0 -0.5842,-0.31945 -0.90373,-0.41797 -0.28578,-0.0881 -0.60246,0 -0.90371,0 -0.45186,0 -0.90371,0 -1.35557,0 -1.20497,0 -2.40992,0 -3.61488,0 -0.15061,0 0.55837,0.0985 0.45187,0 -0.384,-0.3552 -0.84038,-0.67708 -1.35558,-0.83594 -0.14289,-0.044 0,0.27865 0,0.41797 -0.30124,0 -0.63427,0.12462 -0.90372,0 -0.38104,-0.17623 -0.60248,-0.55729 -0.90371,-0.83593 -0.15062,-0.13933 0.64238,0.50609 0.45186,0.41796 -0.48574,-0.22464 -0.84038,-0.67708 -1.35558,-0.83593 -0.14289,-0.044 0.13472,0.48027 0,0.41797 -0.38105,-0.17624 -0.49042,-0.74037 -0.90372,-0.83593 -0.32674,-0.0756 -0.60248,0.55728 -0.90371,0.41796 -0.26944,-0.12462 0.13471,-0.58671 0,-0.83594 -0.12479,-0.23084 -1.00264,0.32647 -1.35558,0 -0.21301,-0.19702 0.213,-0.6389 0,-0.83593 -0.21301,-0.19704 -0.63428,0.12461 -0.90373,0 -0.1347,-0.0623 0.13473,-0.35566 0,-0.41797 -0.26942,-0.12461 -0.65305,0.15457 -0.9037,0 -0.28024,-0.17281 -0.21372,-0.61565 -0.45186,-0.83593 -0.10651,-0.0985 -0.31715,0.0623 -0.45186,0 -0.19053,-0.0881 -0.24978,-0.35567 -0.45186,-0.41797 -0.28578,-0.0881 -0.76899,0.24922 -0.90372,0 -0.15062,-0.27865 0.69001,-0.61565 0.45186,-0.83594 -0.31951,-0.29554 -0.95142,0.18692 -1.35557,0 -0.19052,-0.0881 0.30123,-0.27864 0.45185,-0.41796 -0.30123,0 -0.60248,0 -0.90372,0 -0.30124,0 -0.769,0.24923 -0.90371,0 -0.15062,-0.27864 0.63868,-0.57672 0.45186,-0.83595 -0.2642,-0.36657 -0.87928,-0.41795 -1.35558,-0.41795 -0.21301,0 0.66487,0.41795 0.45185,0.41795 -0.47629,0 -0.89349,-0.3111 -1.35556,-0.41795 -0.14613,-0.0338 -0.3845,0.12461 -0.45186,0 -0.13472,-0.24923 0.26944,-0.71132 0,-0.83594 -0.30125,-0.13932 -0.57698,0.49353 -0.90371,0.41796 -0.41331,-0.0956 -0.49957,-0.71132 -0.90373,-0.83593 -0.20207,-0.0623 -0.24978,0.35566 -0.45185,0.41797 -0.28579,0.0881 -0.60249,0 -0.90373,0 -0.30123,0 -0.60248,0 -0.90371,0 -1.45451,0 0.77137,0.0985 -0.90372,-0.41797 -0.42867,-0.13217 -0.90372,0 -1.35557,0 -2.96219,0 1.6066,0 -1.35558,0 -0.15062,0 -0.30124,0 -0.45185,0 -0.15063,0 -0.34536,-0.0985 -0.45186,0 -0.10651,0.0985 0.1065,0.31946 0,0.41797 -0.21302,0.19703 -0.69072,-0.19703 -0.90372,0 -0.21301,0.19703 0.30123,0.83594 0,0.83594 -0.21301,0 -0.30124,-0.5573 -0.45186,-0.41798 -0.21301,0.19704 0.21301,0.63891 0,0.83593 -0.15063,0.13933 -0.23886,-0.41795 -0.45187,-0.41795 -0.213,0 -0.45185,0.22093 -0.45185,0.41795 0,0.19705 0.60248,0.27866 0.45185,0.41798 -0.1506,0.13933 -0.30123,-0.55729 -0.45185,-0.41798 -0.21301,0.19705 0.213,0.63891 0,0.83595 -0.15061,0.13932 -0.60248,-0.27864 -0.45186,-0.41797 0.52554,-0.48611 0.45186,0.60866 0.45186,0.83593"
       id="path20"
       inkscape:connector-curvature="0" />
    <path
       style="fill:none;stroke:#000000;stroke-width:0.86043006px;stroke-linecap:butt;stroke-linejoin:miter;stroke-opacity:1"
       d="m 237.0277,722.90836 c -5.57291,0 -11.14584,0 -16.71876,0 -0.90371,0 -1.80744,0 -2.71116,0 -0.45186,0 -0.90986,-0.0686 -1.35557,0 -0.46982,0.0724 -0.8935,0.31111 -1.35557,0.41796 -0.14612,0.0338 -0.30574,-0.0338 -0.45186,0 -0.46208,0.10685 -0.88852,0.33157 -1.35558,0.41797 -0.29538,0.0546 -0.63427,-0.12461 -0.90371,0 -0.38104,0.17623 -0.54926,0.61734 -0.90373,0.83594 -0.12532,0.0773 -0.30896,-0.044 -0.45185,0 -3.273,1.00917 0.7124,-0.12051 -1.35557,0.83593 -0.13473,0.0623 -0.34536,-0.0985 -0.45186,0 -0.23816,0.2203 -0.26504,0.57672 -0.45186,0.83594 0.0451,0.82802 -0.66557,0.19768 -0.90372,0.41796 -0.1065,0.0985 0.1065,0.31946 0,0.41797 -0.1065,0.0985 -0.3845,-0.12461 -0.45186,0 -0.13472,0.24923 0,0.55729 0,0.83594 0,0.13933 0.15063,0.41797 0,0.41797 -0.21301,0 -0.26134,-0.50608 -0.45186,-0.41797 -1.17565,0.54374 -0.15829,0.7108 -0.45186,1.25391 -0.18319,0.3389 -1.27204,0.94482 -1.35557,1.25389 -0.10959,0.40549 0.14288,0.85739 0,1.2539 -0.0476,0.13217 -0.31715,-0.0623 -0.45186,0 -0.19052,0.0881 -0.32405,0.26035 -0.45186,0.41797 -0.32583,0.40187 -0.62432,0.82316 -0.90371,1.25391 -1.73613,2.67651 1.48579,-1.91278 -0.90372,2.5078 -0.0674,0.12461 -0.34536,-0.0985 -0.45186,0 -0.23816,0.2203 -0.30124,0.55729 -0.45186,0.83594 -0.15062,0.27865 -0.26504,0.57673 -0.45186,0.83593 -0.11815,0.16394 -0.3566,0.24174 -0.45186,0.41797 -0.213,0.39406 -0.23885,0.85984 -0.45185,1.2539 -0.0674,0.12461 0.10649,-0.51648 0,-0.41796 -0.23815,0.22029 -0.21371,0.61564 -0.45187,0.83593 -0.1065,0.0985 -0.34535,-0.0985 -0.45186,0 -0.1065,0.0985 0.0673,0.29335 0,0.41796 -0.94026,1.73949 0.0312,-0.44682 -0.90372,0.41798 -0.23814,0.22028 -0.2137,0.61564 -0.45185,0.83593 -0.22593,0.20898 -1.12965,-0.20898 -1.35557,0 -0.004,0.004 -0.55769,1.25391 -0.90372,1.25391 -0.21301,0 -0.23886,-0.41798 -0.45186,-0.41798 -0.21301,0 -0.24978,0.35566 -0.45186,0.41798 -0.28578,0.0881 -0.60248,0 -0.90372,0 -1.05433,0 -2.10867,0 -3.16301,0 -1.50619,0 -3.01238,0 -4.51859,0 -0.60246,0 -1.26855,0.24922 -1.80742,0 -0.19053,-0.0881 0.60247,-0.27865 0.45185,-0.41798 -3.00314,-2.77789 -0.31749,0.9188 -1.80743,0 -0.35447,-0.21858 -0.49956,-0.71132 -0.90371,-0.83593 -0.91129,-0.28097 0.0107,0.98186 -0.90373,0.41797 -3.20963,-1.97927 1.6292,0.0633 -2.25929,-0.83594 -0.4133,-0.0956 -0.49956,-0.71133 -0.90371,-0.83594 -2.05699,0 -0.0259,0.19704 -1.35558,-0.41796 -0.13472,-0.0623 -0.30125,0 -0.45186,0 -0.45186,0 -0.92691,0.13217 -1.35557,0 -0.14289,-0.044 0.0674,-0.29336 0,-0.41797 -0.0953,-0.17622 -0.26135,-0.32985 -0.45186,-0.41796 -0.13473,-0.0623 -0.30898,0.044 -0.45187,0 -0.3195,-0.0985 -0.56692,-0.41798 -0.90371,-0.41798 -0.15062,0 0.15062,0.41798 0,0.41798 -0.15062,0 0.13472,-0.35566 0,-0.41798 -0.26944,-0.12461 -0.60247,0 -0.90372,0 -0.15061,0 0.45185,0.13933 0.45185,0 0,-0.19702 -0.34225,-0.24901 -0.45185,-0.41796 -0.34656,-0.53428 -0.60248,-1.11458 -0.90371,-1.67187"
       id="path22"
       inkscape:connector-curvature="0" />
    <path
       style="fill:none;stroke:#000000;stroke-width:0.86043006px;stroke-linecap:butt;stroke-linejoin:miter;stroke-opacity:1"
       d="m 319.71783,709.5334 c -1.30463,0.16103 -2.06006,-0.96241 -3.16302,-1.25391 -0.73845,-0.19516 -1.54017,-0.16853 -2.25929,-0.41796 -2.21245,-0.76745 -0.50218,-1.12492 -3.16301,-1.67188 -0.73516,-0.15111 -1.55153,0.23807 -2.25929,0 -2.23819,0.46345 -2.26769,-1.88473 -3.61487,-2.50781 -0.26944,-0.12461 -0.62683,0.10977 -0.90372,0 -0.80724,-0.32 -1.47375,-0.89058 -2.2593,-1.25389 -0.42601,-0.19704 -0.94714,-0.1913 -1.35556,-0.41797 -0.36531,-0.20274 -0.51215,-0.6807 -0.90372,-0.83593 -0.70592,-0.27985 -1.5307,-0.19332 -2.2593,-0.41797 -0.20208,-0.0623 -0.24978,-0.35566 -0.45186,-0.41797 -0.28577,-0.0881 -0.60832,0.0546 -0.90371,0 -0.9341,-0.1728 -1.78699,-0.62223 -2.71115,-0.83594 -0.43837,-0.10137 -0.9125,0.082 -1.35557,0 -0.46706,-0.0864 -0.88854,-0.33155 -1.35558,-0.41797 -0.29539,-0.0546 -0.60249,0 -0.90373,0 -0.60246,0 -1.20495,0 -1.80743,0 -0.45185,0 -0.95142,-0.18691 -1.35557,0 -0.30125,0.13932 -0.26504,0.57673 -0.45186,0.83594 -0.11816,0.16394 -0.27463,0.30868 -0.45185,0.41797 -1.06971,0.65964 -1.13909,0.21772 -2.2593,1.2539 -0.1065,0.0985 0.1065,0.31945 0,0.41797 -0.1065,0.0985 -0.31714,-0.0623 -0.45186,0 -0.57157,0.26435 -0.78401,0.98956 -1.35558,1.25391 -0.26943,0.12461 -0.63427,-0.12462 -0.90371,0 -0.13472,0.0623 0,0.27863 0,0.41795 -0.15062,0.13933 -0.24521,0.37019 -0.45186,0.41798 -0.43836,0.10137 -0.90372,0 -1.35558,0 -0.30123,0 -0.65307,-0.15457 -0.90371,0 -0.55359,0.34138 -0.20962,1.03988 -0.90372,1.2539 -0.57157,0.17623 -1.23588,-0.17623 -1.80744,0 -0.40415,0.12461 -0.52267,0.6597 -0.90371,0.83593 -0.42602,0.19704 -0.8935,0.31112 -1.35558,0.41798 -0.14612,0.0338 -0.32653,-0.0773 -0.45185,0 -1.08031,0.66617 -0.57136,0.96805 -1.80744,1.2539 -0.29224,0.0676 -0.65308,-0.15456 -0.90372,0 -0.28023,0.1728 -0.21371,0.61564 -0.45186,0.83594 -0.10651,0.0985 -0.30124,0 -0.45185,0 -0.30124,0 -0.63429,-0.12462 -0.90372,0 -0.13472,0.0623 0.14289,0.3739 0,0.41796 -0.42867,0.13217 -0.95142,-0.18692 -1.35558,0 -0.30124,0.13932 -0.12511,0.76038 -0.45185,0.83593 -0.81876,-0.25245 -1.79522,-0.70038 -2.71116,-0.41796 -0.14289,0.044 0.14289,0.37391 0,0.41796 -0.42868,0.13218 -0.90372,0 -1.35558,0 -4.44327,0 2.18398,0 -2.25928,0 -0.29132,0 -1.71035,0.0599 -1.80744,0 -0.35447,-0.21858 -0.52268,-0.6597 -0.90372,-0.83593 -0.26944,-0.12462 -0.61147,0.0676 -0.90372,0 -0.32673,-0.0755 -0.5842,-0.31945 -0.90371,-0.41796 -0.14289,-0.044 -0.30124,0 -0.45186,0 -0.45185,-0.27865 -0.8899,-0.5775 -1.35558,-0.83594 -0.57759,-0.32057 -1.26855,-0.4621 -1.80743,-0.83594 -1.36799,1.03139 -0.77723,-1.1369 -0.90372,-1.2539 -0.23814,-0.22029 -0.56692,-0.41797 -0.90372,-0.41797 -0.33679,0 -0.66556,0.63826 -0.90372,0.41797 -0.23814,-0.22029 0.63869,-0.57673 0.45187,-0.83594 -0.42498,-0.58965 -1.40491,-0.41796 -1.80744,-0.41796 -0.15062,0 -0.34535,0.0985 -0.45186,0 -0.10649,-0.0985 0.10651,-0.31945 0,-0.41797 -0.10649,-0.0985 -0.30124,0 -0.45185,0 -0.30124,0 -0.60249,0 -0.90372,0 -0.15062,0 0.60248,0 0.45186,0 -0.26036,0 -2.0946,-0.0761 -2.2593,0 -0.19052,0.0881 -0.24978,0.35566 -0.45186,0.41797 -0.28578,0.0881 -0.76899,-0.24923 -0.90372,0 -0.15061,0.27864 0.75311,0.69661 0.45186,0.83593 -0.42601,0.19703 -0.87926,-0.41797 -1.35557,-0.41797 -0.15062,0 0.13471,0.35567 0,0.41797 -0.26944,0.12461 -0.63428,-0.12462 -0.90371,0 -0.13473,0.0623 0.10649,0.31946 0,0.41797 -0.0145,0.0134 -1.246,0 -1.35558,0"
       id="path24"
       inkscape:connector-curvature="0" />
    <path
       style="fill:none;stroke:#000000;stroke-width:0.86043006px;stroke-linecap:butt;stroke-linejoin:miter;stroke-opacity:1"
       d="m 260.52436,804.83 c -2.8486,-4.39158 0.11255,-0.20944 -2.71116,-3.34375 -0.34766,-0.3859 -0.60248,-0.83593 -0.90372,-1.2539 -0.60247,-0.6966 -1.16669,-1.42307 -1.80743,-2.08984 -2.16892,-2.25702 -1.69446,-1.25389 -4.06673,-3.76171 -0.35761,-0.37803 -0.49139,-0.92699 -0.90372,-1.25389 -0.66681,-0.52869 -1.52854,-0.80328 -2.25929,-1.25391 -0.62661,-0.38641 -1.1688,-0.88469 -1.80743,-1.25389 -0.57121,-0.33024 -1.20495,-0.5573 -1.80744,-0.83594 -0.30124,-0.13932 -0.59101,-0.30227 -0.90372,-0.41797 -0.44223,-0.16363 -0.94714,-0.19129 -1.35557,-0.41797 -0.3653,-0.20275 -0.53841,-0.63319 -0.90371,-0.83594 -0.40843,-0.22667 -0.95927,-0.17358 -1.35558,-0.41797 -0.5317,-0.32787 -0.78401,-0.98955 -1.35558,-1.2539 -0.19052,-0.0881 -0.23885,0.41797 -0.45186,0.41797 -0.47629,0 -0.88853,-0.33156 -1.35558,-0.41797 -0.59077,-0.10929 -1.20496,0 -1.80742,0 -0.90372,0 -1.80744,0 -2.71116,0 -0.75309,0 -1.50619,0 -2.25929,0 -0.60247,0 -1.21315,-0.0916 -1.80743,0 -0.24825,0.0383 -2.35625,1.08976 -2.71116,1.2539 -0.30123,0.13933 -0.5842,0.31945 -0.90371,0.41797 -0.14289,0.044 -0.31715,-0.0623 -0.45186,0 -0.19052,0.0881 -0.27463,0.30868 -0.45187,0.41798 -0.28022,0.1728 -0.66556,0.19767 -0.9037,0.41796 -0.10651,0.0985 0.58657,-0.0623 0.45186,0 -0.42602,0.19704 -0.92957,0.22093 -1.35558,0.41797 -0.25107,0.11612 -0.75803,0.83593 -0.90373,0.83593 -0.213,0 -0.26133,-0.50608 -0.45185,-0.41796 -0.30124,0.13931 -0.17163,0.66312 -0.45186,0.83594 -0.25064,0.15455 -0.61793,-0.0881 -0.90372,0 -0.40415,0.12461 -0.49956,0.71132 -0.90371,0.83593 -0.28579,0.0881 -0.61795,-0.0881 -0.90373,0 -0.20207,0.0623 -0.27462,0.30867 -0.45184,0.41796 -0.28025,0.17282 -0.58421,0.31946 -0.90372,0.41797 -0.14289,0.044 -0.30125,0 -0.45186,0 -0.30125,0.13933 -0.58421,0.31945 -0.90372,0.41797 -0.14289,0.044 -0.31713,-0.0623 -0.45186,0 -0.19052,0.0881 -0.24978,0.35565 -0.45186,0.41797 -0.28578,0.0881 -0.61794,-0.0881 -0.90372,0 -0.20207,0.0623 -0.26133,0.32985 -0.45185,0.41796 -0.13472,0.0623 -0.30124,0 -0.45187,0 -0.30123,0 -0.61793,-0.0881 -0.90371,0 -0.20208,0.0623 -0.24978,0.35566 -0.45186,0.41797 -0.2491,0.0768 -2.32769,0 -2.71115,0 -0.45186,0 -0.90372,0 -1.35558,0 -0.45185,0 -0.91721,0.10137 -1.35557,0 -0.20665,-0.0478 -0.28145,-0.29974 -0.45186,-0.41797 -0.43445,-0.30139 -1.01632,-0.44367 -1.35557,-0.83593 -0.29755,-0.34404 -0.11507,-0.94237 -0.45187,-1.2539 -0.213,-0.19705 -0.60247,0 -0.90371,0 -0.45186,-0.41798 -0.94648,-0.79981 -1.35558,-1.25391 -0.34766,-0.3859 -0.57787,-0.85203 -0.90372,-1.2539 -0.1278,-0.15762 -0.33369,-0.25403 -0.45186,-0.41796 -0.18681,-0.25923 -0.26503,-0.57673 -0.45185,-0.83595 -0.41775,-0.57961 -0.96811,-1.07452 -1.35557,-1.67186 -0.0775,-0.11947 0.0835,-0.30204 0,-0.41798 -0.78178,-1.08469 -0.80737,-0.63718 -1.80744,-1.25389 -1.03809,-0.64016 0.19375,-0.23874 -0.90372,-1.25391 -0.213,-0.19703 -0.63428,0.12462 -0.90372,0 -0.19051,-0.0881 -0.26134,-0.32984 -0.45186,-0.41796 -0.13472,-0.0623 -0.31714,0.0623 -0.45185,0 -0.19052,-0.0881 -0.26134,-0.32986 -0.45186,-0.41797 -0.13471,-0.0623 -0.31714,0.0623 -0.45187,0 -1.32973,-0.615 0.70142,-0.41797 -1.35557,-0.41797"
       id="path26"
       inkscape:connector-curvature="0" />
    <path
       style="fill:none;stroke:#000000;stroke-width:0.86043006px;stroke-linecap:butt;stroke-linejoin:miter;stroke-opacity:1"
       d="m 312.03623,804.83 c -8.63284,-1.14076 -0.58613,0.23724 -4.06674,-0.83593 -0.58913,-0.18165 -1.21827,-0.23633 -1.80742,-0.41798 -0.31952,-0.0985 -0.59102,-0.30227 -0.90372,-0.41796 -0.44223,-0.16363 -0.90372,-0.27865 -1.35557,-0.41797 -0.45187,-0.13933 -0.88853,-0.33157 -1.35558,-0.41797 -0.29539,-0.0546 -0.61147,0.0676 -0.90372,0 -0.32673,-0.0756 -0.62348,-0.24516 -0.90371,-0.41796 -0.17723,-0.10929 -0.24522,-0.37018 -0.45186,-0.41798 -0.40242,-0.093 -2.56296,0 -3.16302,0 -0.15061,0 0.45186,-0.13931 0.45186,0 0,0.19705 -0.35659,0.24174 -0.45186,0.41798 -0.0673,0.12461 0.0674,0.29335 0,0.41796 -0.0953,0.17623 -0.35659,0.24173 -0.45185,0.41797 -0.27823,0.51472 0.75685,0.83593 -0.90372,0.83593 -0.21301,0 0.23885,-0.41796 0.45186,-0.41796 0.22366,0 -0.005,0.83594 -0.45186,0.83594 -0.21301,0 -0.23885,-0.41798 -0.45186,-0.41798 -0.15062,0 0.1065,0.31945 0,0.41798 -1.76348,1.63121 -0.24266,-0.0968 -1.35557,0.41795 -0.19053,0.0881 -0.23885,0.41798 -0.45186,0.41798 -0.21301,0 -0.23885,-0.41798 -0.45186,-0.41798 -0.21301,0 -0.26134,0.32986 -0.45186,0.41798 -0.26944,0.12462 -0.63428,-0.12461 -0.90371,0 -0.19052,0.0881 -0.24979,0.35566 -0.45187,0.41796 -0.28578,0.0881 -0.63428,-0.12461 -0.90371,0 -0.13472,0.0623 0.15062,0.41797 0,0.41797 -0.21301,0 -0.24979,-0.35565 -0.45187,-0.41797 -0.28577,-0.0881 -0.60246,0 -0.90371,0 -0.45186,0 -0.90372,0 -1.35557,0 -0.15063,0 0.60248,0 0.45185,0 -0.45185,0 -0.95142,0.18693 -1.35557,0 -0.30125,-0.13932 -0.24978,-0.58671 -0.45186,-0.83594 -0.25561,-0.31524 -0.60248,-0.55728 -0.90372,-0.83593 -0.30124,-0.27865 -0.60247,-0.55728 -0.90371,-0.83593"
       id="path28"
       inkscape:connector-curvature="0" />
  </g>
</svg>
