<?xml version="1.0" encoding="UTF-8" standalone="no"?>
<!-- Created with Inkscape (http://www.inkscape.org/) -->

<svg
   xmlns:dc="http://purl.org/dc/elements/1.1/"
   xmlns:cc="http://creativecommons.org/ns#"
   xmlns:rdf="http://www.w3.org/1999/02/22-rdf-syntax-ns#"
   xmlns:svg="http://www.w3.org/2000/svg"
   xmlns="http://www.w3.org/2000/svg"
   xmlns:sodipodi="http://sodipodi.sourceforge.net/DTD/sodipodi-0.dtd"
   xmlns:inkscape="http://www.inkscape.org/namespaces/inkscape"
   width="210mm"
   height="297mm"
   viewBox="0 0 210 297"
   version="1.1"
   id="svg8"
   inkscape:version="0.92.2 5c3e80d, 2017-08-06"
   sodipodi:docname="river.svg">
  <defs
     id="defs2" />
  <sodipodi:namedview
     id="base"
     pagecolor="#ffffff"
     bordercolor="#666666"
     borderopacity="1.0"
     inkscape:pageopacity="0.0"
     inkscape:pageshadow="2"
     inkscape:zoom="0.35"
     inkscape:cx="-111.42857"
     inkscape:cy="560"
     inkscape:document-units="mm"
     inkscape:current-layer="layer1"
     showgrid="false"
     inkscape:window-width="1440"
     inkscape:window-height="759"
     inkscape:window-x="0"
     inkscape:window-y="1"
     inkscape:window-maximized="1" />
  <metadata
     id="metadata5">
    <rdf:RDF>
      <cc:Work
         rdf:about="">
        <dc:format>image/svg+xml</dc:format>
        <dc:type
           rdf:resource="http://purl.org/dc/dcmitype/StillImage" />
        <dc:title></dc:title>
      </cc:Work>
    </rdf:RDF>
  </metadata>
  <g
     inkscape:label="Layer 1"
     inkscape:groupmode="layer"
     id="layer1">
    <rect
       style="fill:#00ffff;fill-opacity:1;stroke:#0000f8;stroke-width:0.26458332;stroke-opacity:1"
       id="rect815"
       width="429.798"
       height="256.11301"
       x="-96.761909"
       y="-0.089285709" />
    <path
       style="fill:none;stroke:#000000;stroke-width:0.26458332px;stroke-linecap:butt;stroke-linejoin:miter;stroke-opacity:1"
       d="m -41.577381,41.488095 c 1.007938,1.259919 1.944444,2.580468 3.023809,3.779761 2.860704,3.178558 6.161609,5.937776 9.07143,9.07143 1.580809,1.702408 3.005889,3.543294 4.535714,5.291666 1.998094,2.283537 4.040066,4.528344 6.047619,6.80357 1.772238,2.008537 3.28313,4.275381 5.291666,6.047621 2.306395,2.035053 5.0209959,3.554777 7.559524,5.291666 7.262304,4.968944 6.92255623,4.757487 15.1190474,9.071428 1.9944416,1.049705 4.0589586,1.96319 6.0476186,3.023809 1.792554,0.956029 3.424368,2.22354 5.291667,3.023809 1.686146,0.722635 3.551333,0.931794 5.291667,1.511906 1.287341,0.429114 2.4633,1.182791 3.779761,1.511906 1.728597,0.432146 3.527777,0.503968 5.291667,0.755951 1.904666,0.272095 9.678458,1.414209 11.339285,1.511904 2.263944,0.133175 4.535715,0 6.803572,0 2.519841,0 5.039683,0 7.559524,0 5.543651,0 11.087301,0 16.630952,0 2.267857,0 4.59211,0.502605 6.803572,0 2.308296,-0.524614 16.459186,-6.565601 18.898806,-7.559522 3.77006,-1.535948 7.55027,-3.047172 11.33929,-4.535715 3.26669,-1.283343 6.68818,-2.210162 9.82738,-3.779763 3.4403,-1.720149 6.45484,-4.198157 9.82738,-6.047618 21.29854,-11.679846 6.24962,-1.873713 21.92262,-12.095237 3.04401,-1.985229 5.98142,-4.13476 9.07143,-6.047621 12.84801,-7.953531 0.96914,0.361839 12.85119,-7.559524 5.07826,-3.385508 4.87072,-4.262427 10.58333,-6.047618 2.21743,-0.692946 4.55688,-0.920671 6.80357,-1.511903 6.70344,-1.764065 6.69088,-2.583789 12.85119,-3.023812 1.75941,-0.125672 3.52778,0 5.29167,0 3.52778,0 7.05555,0 10.58333,0 3.77976,0 7.5679,-0.251426 11.33929,0 4.6943,0.312954 5.86074,1.337172 10.58333,3.023812 2.45156,0.875556 8.61826,2.731722 10.58333,3.77976 6.49163,3.4622 4.2915,3.786111 9.82739,8.315476 1.13718,0.930421 2.68158,1.291704 3.77976,2.267858 1.20594,1.071941 1.96133,2.56549 3.02381,3.77976 6.62557,6.625577 -1.48254,-1.779053 3.77976,4.535715 1.14067,1.368814 2.51984,2.519842 3.77976,3.779764 0.25199,0.251984 0.55827,0.459441 0.75594,0.755951 1.83065,2.745963 -0.22135,0.534583 1.51191,2.267858"
       id="path819"
       inkscape:connector-curvature="0" />
    <path
       style="fill:none;stroke:#000000;stroke-width:0.26458332px;stroke-linecap:butt;stroke-linejoin:miter;stroke-opacity:1"
       d="m -30.238094,114.05952 c 9.049134,7.33412 18.053926,14.7252 27.2142846,21.92262 3.24973324,2.55336 6.4475121,5.1811 9.8273808,7.55953 0.3751316,0.26398 12.7148656,8.42287 15.8749996,9.82738 2.695195,1.19786 5.500334,2.14407 8.315477,3.0238 2.308749,0.72149 7.980489,1.28105 9.827379,1.51191 2.015874,0.25198 4.029974,0.51858 6.047621,0.75595 2.084784,0.24527 12.563435,1.40605 14.363094,1.51191 1.760844,0.10358 3.527777,0 5.291666,0 1.76389,0 3.527777,0 5.291667,0 4.283731,0 8.567459,0 12.851191,0 6.295726,0 6.911369,0.20058 13.607142,-0.75595 8.672902,-1.23899 9.842142,-1.9481 18.898812,-4.53572 1.76389,-0.50397 3.6293,-0.73613 5.29166,-1.5119 2.1542,-1.00529 3.9757,-2.61431 6.04762,-3.77977 3.38601,-1.90463 6.70689,-3.02221 9.82738,-5.29166 1.59164,-1.15756 2.86681,-2.7367 4.53572,-3.77977 2.38904,-1.49314 5.0639,-2.47252 7.55952,-3.77976 2.79688,-1.46503 5.52148,-3.06519 8.31548,-4.53571 1.99444,-1.04971 4.11499,-1.86423 6.04762,-3.02381 1.85874,-1.11525 3.44557,-2.6437 5.29166,-3.77976 4.72583,-2.9082 4.48477,-1.99889 9.82738,-3.77976 3.71997,-1.23999 4.30048,-2.09727 8.31548,-3.02381 1.73617,-0.40066 3.52778,-0.50397 5.29167,-0.75596 4.18715,-0.59816 8.65157,-1.31192 12.85119,-1.5119 2.76868,-0.13184 5.54365,0 8.31547,0 2.26786,0 4.53572,0 6.80358,0 4.09036,0 8.11651,-0.41426 12.09523,0.75595 10.72737,3.15511 5.40846,1.94828 13.60714,6.04762 6.69095,3.34547 9.46849,3.89866 15.875,7.55953 2.85258,1.63005 5.47214,3.64552 8.31549,5.29166 4.10374,2.37585 5.50764,2.59184 9.07142,4.53571 1.7835,0.97282 3.51576,2.0372 5.29167,3.02382 0.49254,0.27363 1.07193,0.40396 1.5119,0.75595 2.21203,1.76961 2.74215,3.04971 4.5357,5.29166 1.51191,1.88989 0,-0.75595 2.26788,2.26786 0.67614,0.90153 0.8868,2.08617 1.51191,3.02381 0.43487,0.65231 1.67738,1.67739 2.26785,2.26786"
       id="path821"
       inkscape:connector-curvature="0" />
    <path
       style="fill:none;stroke:#000000;stroke-width:0.26458332px;stroke-linecap:butt;stroke-linejoin:miter;stroke-opacity:1"
       d="m -38.553572,162.44048 c 2.285817,2.24558 5.74675,2.14511 8.315478,3.77976 1.660374,1.0566 2.940249,2.62748 4.535713,3.77976 2.946144,2.12777 6.291614,3.70672 9.071429,6.04762 2.048912,1.7254 3.200009,4.37429 5.291666,6.04762 5.6384349,4.51074 9.9663684,5.92015 15.8750002,9.07143 2.5998741,1.38659 5.5104558,3.33356 8.3154758,4.53571 0.732415,0.31389 1.535442,0.44206 2.267857,0.75595 1.035792,0.44391 1.988019,1.068 3.02381,1.51191 1.46483,0.62778 3.070884,0.88412 4.535714,1.5119 1.035791,0.44391 1.944428,1.18809 3.02381,1.5119 1.468118,0.44044 3.032721,0.45536 4.535713,0.75596 1.018783,0.20375 2.005028,0.55219 3.023811,0.75595 1.502993,0.3006 3.067595,0.31552 4.535713,0.75595 1.079381,0.32382 1.968653,1.11622 3.023809,1.51191 0.972807,0.3648 2.015874,0.50397 3.023812,0.75595 1.007935,0.25198 1.991206,0.64122 3.023809,0.75595 2.003541,0.22262 4.031744,0 6.047618,0 4.787699,0 9.575398,0 14.363094,0 2.771825,0 5.543653,0 8.315478,0 2.015871,0 4.044074,0.22262 6.047618,0 2.554026,-0.28378 5.094201,-0.78681 7.559525,-1.5119 0.01445,-0.004 10.515668,-4.50865 10.583333,-4.53572 3.997936,-1.59917 8.150346,-2.80982 12.095236,-4.53571 20.05743,-10.02872 -4.98903,2.13815 10.58333,-4.53571 2.07159,-0.88783 3.98277,-2.12044 6.04762,-3.02382 1.97245,-0.86294 4.07518,-1.40491 6.04762,-2.26785 2.06485,-0.90337 4.00125,-2.07933 6.04762,-3.02381 9.46565,-4.36877 -3.64489,2.5784 10.58333,-4.53572 7.46527,-3.73263 -0.10686,-0.92613 8.31548,-4.53571 1.97888,-0.84809 4.17833,-1.19969 6.04762,-2.26786 1.70875,-0.97643 2.82696,-2.80333 4.53571,-3.77976 1.86929,-1.06816 4.03817,-1.49499 6.04762,-2.26786 8.95678,-3.44491 -0.76186,0.002 6.80357,-2.26785 10.77881,-3.59294 -0.43782,0.0171 7.55953,-2.26786 0.76618,-0.21891 1.48185,-0.62495 2.26786,-0.75595 1.24277,-0.20713 2.51984,0 3.77976,0 2.01587,0 4.03174,0 6.04762,0 2.26785,0 4.53571,0 6.80357,0 1.00793,0 2.04596,-0.24446 3.02381,0 1.09326,0.27331 2.01587,1.00793 3.0238,1.5119 1.51191,0.75596 2.9321,1.73332 4.53572,2.26786 1.4541,0.4847 3.07074,0.30519 4.53571,0.75595 1.8342,0.56437 3.4711,1.661 5.29167,2.26786 1.97128,0.65709 4.06429,0.89211 6.04762,1.5119 2.05495,0.64218 4.02009,1.54374 6.04762,2.26786 1.50084,0.53601 3.08871,0.84406 4.53571,1.5119 1.84458,0.85135 3.47459,2.11527 5.29167,3.02382 1.21372,0.60685 2.53974,0.96078 3.77976,1.5119 1.02978,0.45768 2.01587,1.00793 3.02381,1.5119 1.00794,0.50397 2.04538,0.95281 3.02381,1.51191 0.78883,0.45076 1.48879,1.04446 2.26786,1.5119 0.48315,0.2899 1.04308,0.44341 1.51189,0.75596 0.29652,0.19767 0.45945,0.55827 0.75597,0.75595 2.74595,1.83064 0.53459,-0.22137 2.26785,1.5119"
       id="path827"
       inkscape:connector-curvature="0" />
    <path
       style="fill:none;stroke:#000000;stroke-width:0.26458332px;stroke-linecap:butt;stroke-linejoin:miter;stroke-opacity:1"
       d="m -210.91071,182.09524 -1.51191,1.5119"
       id="path829"
       inkscape:connector-curvature="0" />
  </g>
</svg>
