<?xml version="1.0" encoding="UTF-8" standalone="no"?>
<!-- Created with Inkscape (http://www.inkscape.org/) -->

<svg
   xmlns:dc="http://purl.org/dc/elements/1.1/"
   xmlns:cc="http://creativecommons.org/ns#"
   xmlns:rdf="http://www.w3.org/1999/02/22-rdf-syntax-ns#"
   xmlns:svg="http://www.w3.org/2000/svg"
   xmlns="http://www.w3.org/2000/svg"
   xmlns:sodipodi="http://sodipodi.sourceforge.net/DTD/sodipodi-0.dtd"
   xmlns:inkscape="http://www.inkscape.org/namespaces/inkscape"
   width="430.54434"
   height="325.29514"
   id="svg2"
   version="1.1"
   inkscape:version="0.92.2 5c3e80d, 2017-08-06"
   sodipodi:docname="river.svg">
  <defs
     id="defs4">
    <inkscape:perspective
       sodipodi:type="inkscape:persp3d"
       inkscape:vp_x="0 : 526.18109 : 1"
       inkscape:vp_y="0 : 1000 : 0"
       inkscape:vp_z="744.09448 : 526.18109 : 1"
       inkscape:persp3d-origin="372.04724 : 350.78739 : 1"
       id="perspective2985" />
  </defs>
  <sodipodi:namedview
     id="base"
     pagecolor="#ffffff"
     bordercolor="#666666"
     borderopacity="1.0"
     inkscape:pageopacity="0.0"
     inkscape:pageshadow="2"
     inkscape:zoom="1.979899"
     inkscape:cx="199.92082"
     inkscape:cy="130.34245"
     inkscape:document-units="mm"
     inkscape:current-layer="layer1"
     showgrid="false"
     inkscape:object-nodes="true"
     inkscape:window-width="1280"
     inkscape:window-height="709"
     inkscape:window-x="0"
     inkscape:window-y="1"
     inkscape:window-maximized="1"
     showguides="false"
     inkscape:guide-bbox="true"
     units="mm"
     fit-margin-top="0"
     fit-margin-left="0"
     fit-margin-right="0"
     fit-margin-bottom="0" />
  <metadata
     id="metadata7">
    <rdf:RDF>
      <cc:Work
         rdf:about="">
        <dc:format>image/svg+xml</dc:format>
        <dc:type
           rdf:resource="http://purl.org/dc/dcmitype/StillImage" />
        <dc:title />
      </cc:Work>
    </rdf:RDF>
  </metadata>
  <g
     inkscape:label="Layer 1"
     inkscape:groupmode="layer"
     id="layer1"
     transform="translate(-53.643411,-569.625)">
    <path
       inkscape:connector-curvature="0"
       id="path3908"
       d="M 474.37627,771.83168 268.91558,649.23729 63.454937,771.83164 268.91563,894.42603 z"
       style="fill:#ffcc00;stroke:#000000;stroke-width:0.99999994px;stroke-linecap:round;stroke-linejoin:round;stroke-opacity:1" />
    <path
       style="fill:#ffcc00;stroke-width:0.50507629"
       d="m 98.198458,149.19278 c 0.171685,-0.2778 0.539439,-0.50508 0.817231,-0.50508 0.277792,0 0.364606,0.22728 0.192922,0.50508 -0.171685,0.27779 -0.539439,0.50507 -0.817231,0.50507 -0.277792,0 -0.364607,-0.22728 -0.192922,-0.50507 z"
       id="path275"
       inkscape:connector-curvature="0"
       transform="translate(53.643411,569.625)" />
    <path
       style="fill:#ffcc00;stroke-width:0.50507629"
       d=""
       id="path277"
       inkscape:connector-curvature="0"
       transform="translate(53.643411,569.625)" />
    <path
       style="fill:#ffcc00;stroke-width:0.50507629"
       d=""
       id="path279"
       inkscape:connector-curvature="0"
       transform="translate(53.643411,569.625)" />
    <path
       style="fill:#2a7fff;stroke-width:0.50507629"
       d="M 113.40125,263.19761 C 57.565069,229.86402 11.832528,202.42933 11.773381,202.23165 11.643982,201.79917 214.57103,80.728543 215.37217,80.760253 c 0.54002,0.02137 202.7545,120.570077 203.42656,121.271277 0.28999,0.30256 -201.2622,120.86821 -203.14878,121.5207 -0.40061,0.13855 -46.41252,-27.02103 -102.2487,-60.35462 z"
       id="path18"
       inkscape:connector-curvature="0"
       transform="translate(53.643411,569.625)" />
    <path
       style="fill:none;stroke:#000000;stroke-width:1px;stroke-linecap:butt;stroke-linejoin:miter;stroke-opacity:1"
       d="m 368.30593,773.19675 c -0.8418,-0.16835 -1.68359,-0.33671 -2.52539,-0.50507 0,-0.16836 0.14009,-0.41169 0,-0.50508 -1.25484,-0.83656 -1.35623,-0.014 -2.0203,-1.01015 -0.1768,-0.2652 -0.51384,-1.34979 -1.01015,-1.51523 -0.31944,-0.10648 -0.69072,0.10648 -1.01016,0 -0.22587,-0.0753 -0.27409,-0.44733 -0.50507,-0.50508 -0.49,-0.12249 -1.09498,0.28017 -1.51523,0 -0.28017,-0.18677 0.23809,-0.77205 0,-1.01015 -3.57989,-3.57989 0.16836,1.34687 -2.52538,0 -0.30117,-0.15058 0.31944,-0.90367 0,-1.01015 -0.50508,-0.16836 -0.98283,0.50508 -1.51523,0.50508 -0.16836,0 0.15058,-0.42979 0,-0.50508 -0.30117,-0.15059 -0.67344,0 -1.01015,0 -1.73753,0 -0.22591,0 -2.52538,0 -0.16836,0 0.67343,0 0.50507,0 -0.50507,0 -1.01015,0 -1.51523,0 -0.16836,0 -0.42978,-0.15059 -0.50507,0 -0.15059,0.30117 0.30117,0.85957 0,1.01015 -0.33672,0.16836 -0.63369,-0.50507 -1.01016,-0.50507 -0.33671,0 0.33672,1.01015 0,1.01015 -0.16836,0 0.16836,-0.50508 0,-0.50508 -2.4426,0 -0.50507,0.62566 -0.50507,1.01015 0,0.16836 -0.365,-0.0934 -0.50508,0 -0.33672,0.33672 -0.67343,0.67344 -1.01015,1.01016 0.16836,0 0.50507,-0.16836 0.50507,0 0,0.16836 -0.42978,-0.15059 -0.50507,0 -0.15059,0.30117 0.10648,0.69071 0,1.01015 -0.10013,0.30039 -1.51523,1.30872 -1.51523,1.51523 0,0.23809 0.67343,0.33672 0.50508,0.50507 -0.2381,0.2381 -0.85957,-0.30116 -1.01016,0 -0.16836,0.33672 0.62413,0.65301 0.50508,1.01016 -0.11905,0.35714 -0.84179,0.16836 -1.01015,0.50507 -0.10648,0.21296 0.61155,0.29212 0.50507,0.50508 -0.16836,0.33672 -0.84179,0.16836 -1.01015,0.50508 -0.10648,0.21295 0.61156,0.29211 0.50508,0.50507 -0.16836,0.33672 -0.80133,0.19184 -1.01016,0.50508 -0.18677,0.28016 0.17324,0.72142 0,1.01015 -0.36749,0.6125 -1.19579,0.87635 -1.51522,1.51523 -0.10648,0.21296 0.61155,0.29212 0.50507,0.50508 -0.16836,0.33671 -0.74395,0.23887 -1.01015,0.50507 -2.4449,2.44491 1.09527,-0.38021 -0.50508,2.02031 -0.004,0.005 -1.51523,0.62222 -1.51523,1.01015 0,0.2381 0.61156,0.29212 0.50508,0.50508 -0.16836,0.33671 -0.69692,0.29625 -1.01015,0.50507 -0.19811,0.13207 -0.26698,0.50508 -0.50508,0.50508 -0.16836,0 0,-0.67344 0,-0.50508 0,0.33672 0.18678,0.72999 0,1.01016 -0.20882,0.31323 -0.63369,0.50507 -1.01015,0.50507 -0.16836,0 0,-0.67343 0,-0.50507 0,0.80017 0.30117,1.51522 -1.01015,1.51522 -0.2381,0 -0.29212,-0.61155 -0.50508,-0.50507 -0.33672,0.16836 -0.38603,0.65301 -0.50508,1.01015 -0.0532,0.15972 0.16836,0.50508 0,0.50508 -0.16835,0 0.15059,-0.58037 0,-0.50508 -0.30802,0.15401 -1.68318,1.90793 -2.0203,2.02031 -0.31944,0.10647 -0.77206,-0.2381 -1.01015,0 -0.16836,0.16835 0.67343,0.33671 0.50507,0.50507 -0.23809,0.2381 -0.72998,-0.18678 -1.01015,0 -0.31323,0.20882 -0.16836,0.8418 -0.50508,1.01015 -0.21295,0.10648 -0.33671,-0.67343 -0.50507,-0.50507 -0.2381,0.23809 0.30117,0.85957 0,1.01015 -0.33672,0.16836 -0.63369,-0.50508 -1.01015,-0.50508 -0.2381,0 -0.50508,0.26699 -0.50508,0.50508 0,0.2381 0.74317,0.50508 0.50508,0.50508 -0.37647,0 -0.65301,-0.38603 -1.01016,-0.50508 -0.31944,-0.10648 -0.67343,0 -1.01015,0 -0.50508,0 -1.01015,0 -1.51523,0 -1.34687,0 -2.69374,0 -4.04061,0 -0.16836,0 0.62413,0.11905 0.50508,0 -0.42923,-0.42923 -0.93936,-0.81819 -1.51523,-1.01015 -0.15972,-0.0532 0,0.33672 0,0.50507 -0.33672,0 -0.70898,0.15059 -1.01015,0 -0.42592,-0.21295 -0.67344,-0.67343 -1.01016,-1.01015 -0.16835,-0.16836 0.71804,0.61156 0.50508,0.50508 -0.54294,-0.27147 -0.93935,-0.8182 -1.51523,-1.01015 -0.15972,-0.0532 0.15059,0.58036 0,0.50507 -0.42592,-0.21296 -0.54818,-0.89466 -1.01015,-1.01015 -0.36522,-0.0913 -0.67344,0.67343 -1.01015,0.50508 -0.30117,-0.15059 0.15058,-0.70899 0,-1.01016 -0.13948,-0.27896 -1.12073,0.39451 -1.51523,0 -0.2381,-0.23809 0.23809,-0.77205 0,-1.01015 -0.2381,-0.2381 -0.70899,0.15058 -1.01016,0 -0.15058,-0.0753 0.15059,-0.42978 0,-0.50508 -0.30116,-0.15058 -0.72998,0.18678 -1.01015,0 -0.31323,-0.20882 -0.23888,-0.74395 -0.50507,-1.01015 -0.11905,-0.11905 -0.3545,0.0753 -0.50508,0 -0.21296,-0.10648 -0.2792,-0.42978 -0.50508,-0.50507 -0.31943,-0.10648 -0.85956,0.30116 -1.01015,0 -0.16836,-0.33672 0.77128,-0.74396 0.50508,-1.01016 -0.35715,-0.35714 -1.06348,0.22588 -1.51523,0 -0.21296,-0.10648 0.33672,-0.33671 0.50507,-0.50507 -0.33671,0 -0.67343,0 -1.01015,0 -0.33672,0 -0.85957,0.30117 -1.01015,0 -0.16836,-0.33672 0.7139,-0.69692 0.50508,-1.01016 -0.29532,-0.44298 -0.98284,-0.50507 -1.51523,-0.50507 -0.2381,0 0.74317,0.50507 0.50507,0.50507 -0.53239,0 -0.99872,-0.37595 -1.51523,-0.50507 -0.16333,-0.0408 -0.42978,0.15058 -0.50507,0 -0.15059,-0.30117 0.30117,-0.85957 0,-1.01016 -0.33672,-0.16835 -0.64493,0.59639 -1.01015,0.50508 -0.46198,-0.11549 -0.5584,-0.85957 -1.01016,-1.01015 -0.22587,-0.0753 -0.2792,0.42978 -0.50507,0.50507 -0.31944,0.10648 -0.67344,0 -1.01016,0 -0.33671,0 -0.67343,0 -1.01015,0 -1.62581,0 0.86222,0.11905 -1.01015,-0.50507 -0.47916,-0.15972 -1.01015,0 -1.51523,0 -3.31106,0 1.79583,0 -1.51523,0 -0.16836,0 -0.33672,0 -0.50507,0 -0.16836,0 -0.38603,-0.11905 -0.50508,0 -0.11905,0.11905 0.11905,0.38603 0,0.50507 -0.2381,0.2381 -0.77206,-0.23809 -1.01015,0 -0.2381,0.2381 0.33671,1.01016 0,1.01016 -0.2381,0 -0.33672,-0.67344 -0.50508,-0.50508 -0.23809,0.2381 0.2381,0.77206 0,1.01015 -0.16836,0.16836 -0.26698,-0.50507 -0.50508,-0.50507 -0.23809,0 -0.50507,0.26698 -0.50507,0.50507 0,0.2381 0.67343,0.33672 0.50507,0.50508 -0.16835,0.16836 -0.33671,-0.67343 -0.50507,-0.50508 -0.2381,0.2381 0.23809,0.77206 0,1.01016 -0.16836,0.16836 -0.67344,-0.33672 -0.50508,-0.50508 0.58743,-0.58742 0.50508,0.73551 0.50508,1.01015"
       id="path20"
       inkscape:connector-curvature="0" />
    <path
       style="fill:none;stroke:#000000;stroke-width:1px;stroke-linecap:butt;stroke-linejoin:miter;stroke-opacity:1"
       d="m 234.96579,738.34649 c -6.22927,0 -12.45855,0 -18.68782,0 -1.01015,0 -2.02031,0 -3.03046,0 -0.50508,0 -1.01702,-0.083 -1.51523,0 -0.52515,0.0875 -0.99873,0.37595 -1.51523,0.50508 -0.16333,0.0408 -0.34174,-0.0408 -0.50507,0 -0.5165,0.12912 -0.99317,0.40066 -1.51523,0.50507 -0.33018,0.066 -0.70898,-0.15058 -1.01015,0 -0.42592,0.21296 -0.61394,0.74601 -1.01016,1.01016 -0.14008,0.0934 -0.34535,-0.0532 -0.50507,0 -3.65848,1.21949 0.7963,-0.14562 -1.51523,1.01015 -0.15059,0.0753 -0.38603,-0.11905 -0.50508,0 -0.2662,0.2662 -0.29625,0.69692 -0.50507,1.01015 0.0504,1.00059 -0.74396,0.23888 -1.01016,0.50508 -0.11904,0.11905 0.11905,0.38603 0,0.50507 -0.11904,0.11905 -0.42978,-0.15058 -0.50507,0 -0.15059,0.30117 0,0.67344 0,1.01016 0,0.16836 0.16836,0.50507 0,0.50507 -0.2381,0 -0.29212,-0.61155 -0.50508,-0.50507 -1.31412,0.65706 -0.17693,0.85894 -0.50508,1.51523 -0.20477,0.40954 -1.42185,1.14174 -1.51522,1.51522 -0.1225,0.49 0.15971,1.03608 0,1.51523 -0.0532,0.15972 -0.3545,-0.0753 -0.50508,0 -0.21296,0.10648 -0.36222,0.3146 -0.50508,0.50508 -0.36421,0.48562 -0.69784,0.99471 -1.01015,1.51523 -1.9406,3.23433 1.66078,-2.31142 -1.01015,3.03046 -0.0753,0.15058 -0.38603,-0.11905 -0.50508,0 -0.2662,0.2662 -0.33672,0.67343 -0.50507,1.01015 -0.16836,0.33672 -0.29626,0.69692 -0.50508,1.01015 -0.13207,0.19811 -0.3986,0.29212 -0.50508,0.50508 -0.23809,0.47619 -0.26698,1.03904 -0.50507,1.51523 -0.0753,0.15058 0.11904,-0.62413 0,-0.50508 -0.2662,0.2662 -0.23888,0.74395 -0.50508,1.01015 -0.11905,0.11905 -0.38603,-0.11904 -0.50508,0 -0.11904,0.11905 0.0753,0.35449 0,0.50508 -1.051,2.10201 0.0349,-0.53995 -1.01015,0.50508 -0.2662,0.26619 -0.23888,0.74395 -0.50507,1.01015 -0.25254,0.25254 -1.2627,-0.25254 -1.51523,0 -0.004,0.004 -0.62337,1.51523 -1.01016,1.51523 -0.23809,0 -0.26698,-0.50508 -0.50507,-0.50508 -0.2381,0 -0.2792,0.42978 -0.50508,0.50508 -0.31944,0.10648 -0.67343,0 -1.01015,0 -1.17851,0 -2.35702,0 -3.53554,0 -1.68358,0 -3.36717,0 -5.05076,0 -0.67343,0 -1.41796,0.30117 -2.0203,0 -0.21296,-0.10648 0.67343,-0.33672 0.50507,-0.50508 -3.35683,-3.35684 -0.35488,1.11028 -2.0203,0 -0.39622,-0.26414 -0.5584,-0.85957 -1.01015,-1.01015 -1.01862,-0.33954 0.012,1.18649 -1.01016,0.50507 -3.58765,-2.39176 1.82108,0.0765 -2.52538,-1.01015 -0.46197,-0.11549 -0.5584,-0.85957 -1.01015,-1.01015 -2.29925,0 -0.0289,0.23809 -1.51523,-0.50508 -0.15058,-0.0753 -0.33672,0 -0.50508,0 -0.50507,0 -1.03607,0.15972 -1.51522,0 -0.15972,-0.0532 0.0753,-0.35449 0,-0.50507 -0.10648,-0.21296 -0.29212,-0.3986 -0.50508,-0.50508 -0.15059,-0.0753 -0.34536,0.0532 -0.50508,0 -0.35714,-0.11905 -0.63369,-0.50508 -1.01015,-0.50508 -0.16836,0 0.16836,0.50508 0,0.50508 -0.16836,0 0.15059,-0.42978 0,-0.50508 -0.30117,-0.15058 -0.67343,0 -1.01015,0 -0.16836,0 0.50507,0.16836 0.50507,0 0,-0.23809 -0.38257,-0.30091 -0.50507,-0.50507 -0.38738,-0.64563 -0.67344,-1.34687 -1.01015,-2.02031"
       id="path22"
       inkscape:connector-curvature="0" />
    <path
       style="fill:none;stroke:#000000;stroke-width:1px;stroke-linecap:butt;stroke-linejoin:miter;stroke-opacity:1"
       d="m 327.39475,722.18405 c -1.45828,0.19459 -2.30269,-1.16298 -3.53554,-1.51523 -0.82543,-0.23584 -1.72157,-0.20365 -2.52538,-0.50507 -2.47302,-0.92739 -0.56133,-1.35937 -3.53553,-2.02031 -0.82175,-0.18261 -1.73427,0.28768 -2.52538,0 -2.50179,0.56003 -2.53477,-2.27753 -4.04061,-3.03046 -0.30117,-0.15058 -0.70066,0.13264 -1.01016,0 -0.90231,-0.3867 -1.64732,-1.0762 -2.52538,-1.51523 -0.47619,-0.23809 -1.0587,-0.23116 -1.51523,-0.50507 -0.40833,-0.245 -0.57246,-0.82257 -1.01015,-1.01015 -0.78905,-0.33817 -1.71097,-0.23361 -2.52538,-0.50508 -0.22588,-0.0753 -0.2792,-0.42978 -0.50508,-0.50508 -0.31943,-0.10648 -0.67997,0.066 -1.01015,0 -1.04411,-0.20882 -1.99745,-0.7519 -3.03046,-1.01015 -0.48999,-0.1225 -1.01996,0.0991 -1.51522,0 -0.52206,-0.10441 -0.99318,-0.40066 -1.51523,-0.50508 -0.33018,-0.066 -0.67344,0 -1.01016,0 -0.67343,0 -1.34687,0 -2.0203,0 -0.50508,0 -1.06348,-0.22587 -1.51523,0 -0.33672,0.16836 -0.29625,0.69692 -0.50508,1.01016 -0.13207,0.1981 -0.30697,0.373 -0.50507,0.50507 -1.19568,0.79712 -1.27324,0.26309 -2.52538,1.51523 -0.11905,0.11905 0.11904,0.38603 0,0.50508 -0.11905,0.11905 -0.3545,-0.0753 -0.50508,0 -0.63888,0.31944 -0.87635,1.19579 -1.51523,1.51523 -0.30117,0.15058 -0.70898,-0.15059 -1.01015,0 -0.15059,0.0753 0,0.33671 0,0.50507 -0.16836,0.16836 -0.27409,0.44733 -0.50508,0.50508 -0.48999,0.1225 -1.01015,0 -1.51523,0 -0.33671,0 -0.72998,-0.18678 -1.01015,0 -0.61879,0.41253 -0.2343,1.25661 -1.01015,1.51523 -0.63888,0.21296 -1.38143,-0.21296 -2.02031,0 -0.45175,0.15058 -0.58423,0.79719 -1.01015,1.01015 -0.47619,0.2381 -0.99873,0.37595 -1.51523,0.50508 -0.16333,0.0408 -0.36499,-0.0934 -0.50507,0 -1.20754,0.80502 -0.63865,1.16981 -2.02031,1.51523 -0.32666,0.0817 -0.72999,-0.18678 -1.01015,0 -0.31324,0.20882 -0.23888,0.74395 -0.50508,1.01015 -0.11905,0.11905 -0.33672,0 -0.50507,0 -0.33672,0 -0.70899,-0.15059 -1.01016,0 -0.15058,0.0753 0.15972,0.45184 0,0.50508 -0.47915,0.15971 -1.06347,-0.22588 -1.51523,0 -0.33671,0.16835 -0.13985,0.91884 -0.50507,1.01015 -0.91519,-0.30507 -2.00665,-0.84635 -3.03046,-0.50508 -0.15972,0.0532 0.15972,0.45184 0,0.50508 -0.47916,0.15972 -1.01015,0 -1.51523,0 -4.96658,0 2.4412,0 -2.52538,0 -0.32562,0 -1.91178,0.0724 -2.0203,0 -0.39622,-0.26415 -0.58424,-0.7972 -1.01016,-1.01015 -0.30117,-0.15059 -0.68349,0.0817 -1.01015,0 -0.36522,-0.0913 -0.65301,-0.38603 -1.01015,-0.50508 -0.15972,-0.0532 -0.33672,0 -0.50508,0 -0.50507,-0.33672 -0.99471,-0.69784 -1.51523,-1.01015 -0.64562,-0.38738 -1.41796,-0.5584 -2.0203,-1.01016 -1.52911,1.24634 -0.86877,-1.37384 -1.01016,-1.51522 -0.26619,-0.2662 -0.63369,-0.50508 -1.01015,-0.50508 -0.37646,0 -0.74395,0.77127 -1.01015,0.50508 -0.2662,-0.2662 0.7139,-0.69692 0.50508,-1.01016 -0.47503,-0.71254 -1.57038,-0.50507 -2.02031,-0.50507 -0.16836,0 -0.38603,0.11904 -0.50508,0 -0.11904,-0.11905 0.11905,-0.38603 0,-0.50508 -0.11904,-0.11905 -0.33671,0 -0.50507,0 -0.33672,0 -0.67344,0 -1.01015,0 -0.16836,0 0.67343,0 0.50507,0 -0.29102,0 -2.34129,-0.092 -2.52538,0 -0.21296,0.10648 -0.2792,0.42978 -0.50508,0.50508 -0.31943,0.10648 -0.85956,-0.30117 -1.01015,0 -0.16836,0.33671 0.8418,0.84179 0.50508,1.01015 -0.47619,0.23809 -0.98283,-0.50508 -1.51523,-0.50508 -0.16836,0 0.15058,0.42979 0,0.50508 -0.30117,0.15058 -0.70898,-0.15059 -1.01015,0 -0.15059,0.0753 0.11904,0.38603 0,0.50508 -0.0162,0.0162 -1.39274,0 -1.51523,0"
       id="path24"
       inkscape:connector-curvature="0" />
    <path
       style="fill:none;stroke:#000000;stroke-width:1px;stroke-linecap:butt;stroke-linejoin:miter;stroke-opacity:1"
       d="m 261.22976,837.34144 c -3.18409,-5.30682 0.12581,-0.25308 -3.03046,-4.04061 -0.38861,-0.46633 -0.67344,-1.01015 -1.01015,-1.51523 -0.67344,-0.84179 -1.30411,-1.71966 -2.02031,-2.52538 -2.42436,-2.72741 -1.89403,-1.51523 -4.54569,-4.54569 -0.39972,-0.45683 -0.54926,-1.12018 -1.01015,-1.51522 -0.74535,-0.63888 -1.70856,-0.97069 -2.52538,-1.51523 -0.70041,-0.46695 -1.30646,-1.06908 -2.0203,-1.51523 -0.63848,-0.39905 -1.34687,-0.67344 -2.02031,-1.01015 -0.33672,-0.16836 -0.66062,-0.36527 -1.01015,-0.50508 -0.49432,-0.19773 -1.0587,-0.23116 -1.51523,-0.50508 -0.40833,-0.245 -0.60182,-0.76515 -1.01015,-1.01015 -0.45653,-0.27392 -1.07225,-0.20976 -1.51523,-0.50508 -0.59432,-0.39621 -0.87635,-1.19579 -1.51523,-1.51523 -0.21296,-0.10647 -0.26698,0.50508 -0.50508,0.50508 -0.53239,0 -0.99317,-0.40066 -1.51523,-0.50508 -0.66035,-0.13207 -1.34687,0 -2.0203,0 -1.01015,0 -2.02031,0 -3.03046,0 -0.84179,0 -1.68359,0 -2.52538,0 -0.67343,0 -1.35603,-0.11071 -2.0203,0 -0.27748,0.0463 -2.63376,1.31688 -3.03046,1.51523 -0.33672,0.16836 -0.65301,0.38603 -1.01015,0.50508 -0.15972,0.0532 -0.3545,-0.0753 -0.50508,0 -0.21296,0.10648 -0.30697,0.373 -0.50508,0.50508 -0.31323,0.20882 -0.74395,0.23887 -1.01015,0.50507 -0.11905,0.11905 0.65566,-0.0753 0.50508,0 -0.47619,0.2381 -1.03904,0.26698 -1.51523,0.50508 -0.28064,0.14032 -0.8473,1.01015 -1.01016,1.01015 -0.23809,0 -0.29211,-0.61155 -0.50507,-0.50507 -0.33672,0.16835 -0.19184,0.80132 -0.50508,1.01015 -0.28016,0.18677 -0.69071,-0.10648 -1.01015,0 -0.45175,0.15058 -0.5584,0.85957 -1.01015,1.01015 -0.31944,0.10648 -0.69072,-0.10648 -1.01016,0 -0.22587,0.0753 -0.30696,0.37301 -0.50507,0.50508 -0.31324,0.20882 -0.65301,0.38603 -1.01015,0.50507 -0.15972,0.0532 -0.33672,0 -0.50508,0 -0.33672,0.16836 -0.65301,0.38603 -1.01015,0.50508 -0.15972,0.0532 -0.35449,-0.0753 -0.50508,0 -0.21296,0.10648 -0.2792,0.42978 -0.50508,0.50508 -0.31943,0.10647 -0.69071,-0.10648 -1.01015,0 -0.22587,0.0753 -0.29212,0.39859 -0.50507,0.50507 -0.15059,0.0753 -0.33672,0 -0.50508,0 -0.33672,0 -0.69071,-0.10648 -1.01015,0 -0.22588,0.0753 -0.2792,0.42979 -0.50508,0.50508 -0.27844,0.0928 -2.60183,0 -3.03046,0 -0.50507,0 -1.01015,0 -1.51523,0 -0.50507,0 -1.02523,0.1225 -1.51522,0 -0.23099,-0.0577 -0.3146,-0.36222 -0.50508,-0.50508 -0.48562,-0.36421 -1.13602,-0.53614 -1.51523,-1.01015 -0.33259,-0.41573 -0.12861,-1.13877 -0.50508,-1.51523 -0.23809,-0.2381 -0.67343,0 -1.01015,0 -0.50507,-0.50508 -1.05795,-0.9665 -1.51523,-1.51523 -0.38861,-0.46633 -0.64593,-1.02961 -1.01015,-1.51523 -0.14286,-0.19047 -0.373,-0.30697 -0.50508,-0.50507 -0.20882,-0.31324 -0.29625,-0.69692 -0.50507,-1.01016 -0.46695,-0.70041 -1.08213,-1.29847 -1.51523,-2.0203 -0.0866,-0.14437 0.0934,-0.36499 0,-0.50508 -0.87384,-1.31076 -0.90245,-0.76999 -2.02031,-1.51523 -1.16034,-0.77356 0.21658,-0.28849 -1.01015,-1.51523 -0.23809,-0.23809 -0.70898,0.15059 -1.01015,0 -0.21296,-0.10647 -0.29212,-0.39859 -0.50508,-0.50507 -0.15058,-0.0753 -0.35449,0.0753 -0.50507,0 -0.21296,-0.10648 -0.29212,-0.3986 -0.50508,-0.50508 -0.15058,-0.0753 -0.35449,0.0753 -0.50508,0 -1.48634,-0.74317 0.78403,-0.50507 -1.51523,-0.50507"
       id="path26"
       inkscape:connector-curvature="0" />
    <path
       style="fill:none;stroke:#000000;stroke-width:1px;stroke-linecap:butt;stroke-linejoin:miter;stroke-opacity:1"
       d="m 318.80845,837.34144 c -9.64957,-1.37851 -0.65516,0.28669 -4.54569,-1.01015 -0.65853,-0.21951 -1.36176,-0.28557 -2.0203,-0.50508 -0.35714,-0.11905 -0.66062,-0.36526 -1.01015,-0.50507 -0.49432,-0.19773 -1.01016,-0.33672 -1.51523,-0.50508 -0.50508,-0.16836 -0.99317,-0.40067 -1.51523,-0.50508 -0.33018,-0.066 -0.68349,0.0817 -1.01015,0 -0.36522,-0.0913 -0.69692,-0.29625 -1.01016,-0.50507 -0.1981,-0.13207 -0.27409,-0.44733 -0.50507,-0.50508 -0.44981,-0.11245 -2.86481,0 -3.53554,0 -0.16835,0 0.50508,-0.16836 0.50508,0 0,0.2381 -0.3986,0.29212 -0.50508,0.50508 -0.0753,0.15058 0.0753,0.35449 0,0.50507 -0.10648,0.21296 -0.39859,0.29212 -0.50507,0.50508 -0.311,0.62199 0.84599,1.01015 -1.01015,1.01015 -0.2381,0 0.26698,-0.50507 0.50507,-0.50507 0.25,0 -0.005,1.01015 -0.50507,1.01015 -0.2381,0 -0.26699,-0.50508 -0.50508,-0.50508 -0.16836,0 0.11905,0.38603 0,0.50508 -1.97118,1.97118 -0.27125,-0.11691 -1.51523,0.50507 -0.21296,0.10648 -0.26698,0.50508 -0.50508,0.50508 -0.23809,0 -0.26698,-0.50508 -0.50507,-0.50508 -0.2381,0 -0.29212,0.3986 -0.50508,0.50508 -0.30117,0.15059 -0.70898,-0.15058 -1.01015,0 -0.21296,0.10648 -0.2792,0.42978 -0.50508,0.50508 -0.31944,0.10648 -0.70898,-0.15059 -1.01015,0 -0.15058,0.0753 0.16836,0.50507 0,0.50507 -0.23809,0 -0.2792,-0.42978 -0.50508,-0.50507 -0.31943,-0.10648 -0.67343,0 -1.01015,0 -0.50507,0 -1.01015,0 -1.51523,0 -0.16836,0 0.67344,0 0.50508,0 -0.50508,0 -1.06348,0.22587 -1.51523,0 -0.33672,-0.16836 -0.2792,-0.70899 -0.50508,-1.01016 -0.28571,-0.38095 -0.67343,-0.67343 -1.01015,-1.01015 -0.33672,-0.33672 -0.67343,-0.67343 -1.01015,-1.01015"
       id="path28"
       inkscape:connector-curvature="0" />
  </g>
</svg>
