<?xml version="1.0" encoding="UTF-8" standalone="no"?>
<!-- Created with Inkscape (http://www.inkscape.org/) -->

<svg
   xmlns:dc="http://purl.org/dc/elements/1.1/"
   xmlns:cc="http://creativecommons.org/ns#"
   xmlns:rdf="http://www.w3.org/1999/02/22-rdf-syntax-ns#"
   xmlns:svg="http://www.w3.org/2000/svg"
   xmlns="http://www.w3.org/2000/svg"
   xmlns:sodipodi="http://sodipodi.sourceforge.net/DTD/sodipodi-0.dtd"
   xmlns:inkscape="http://www.inkscape.org/namespaces/inkscape"
   width="210mm"
   height="297mm"
   viewBox="0 0 210 297"
   version="1.1"
   id="svg8"
   inkscape:version="0.92.2 5c3e80d, 2017-08-06"
   sodipodi:docname="river.svg">
  <defs
     id="defs2" />
  <sodipodi:namedview
     id="base"
     pagecolor="#ffffff"
     bordercolor="#666666"
     borderopacity="1.0"
     inkscape:pageopacity="0.0"
     inkscape:pageshadow="2"
     inkscape:zoom="0.48640572"
     inkscape:cx="396.85039"
     inkscape:cy="1054.6751"
     inkscape:document-units="mm"
     inkscape:current-layer="layer1"
     showgrid="false"
     inkscape:window-width="1440"
     inkscape:window-height="759"
     inkscape:window-x="0"
     inkscape:window-y="1"
     inkscape:window-maximized="1" />
  <metadata
     id="metadata5">
    <rdf:RDF>
      <cc:Work
         rdf:about="">
        <dc:format>image/svg+xml</dc:format>
        <dc:type
           rdf:resource="http://purl.org/dc/dcmitype/StillImage" />
        <dc:title />
      </cc:Work>
    </rdf:RDF>
  </metadata>
  <g
     inkscape:label="Layer 1"
     inkscape:groupmode="layer"
     id="layer1">
    <rect
       style="fill:#00ffff;fill-opacity:1;stroke:#0000f8;stroke-width:0.16808429;stroke-opacity:1"
       id="rect815"
       width="153.62059"
       height="149.58136"
       x="-97.545746"
       y="99.164284"
       transform="matrix(0.69767926,-0.71641025,0.69767926,0.71641025,0,0)" />
    <path
       style="fill:none;stroke:#000000;stroke-width:0.12229459px;stroke-linecap:butt;stroke-linejoin:miter;stroke-opacity:1"
       d="m 25.817721,118.34683 c 0.45543,0.59572 0.87859,1.22011 1.3663,1.78716 1.2926,1.5029 2.7841,2.80752 4.09889,4.28918 0.71429,0.80494 1.3582,1.67535 2.04945,2.50202 0.90283,1.07971 1.82549,2.14111 2.7326,3.21689 0.80078,0.94968 1.48347,2.0215 2.39102,2.85945 1.04213,0.96222 2.26872,1.68078 3.41574,2.50202 3.28145,2.34943 3.12794,2.24945 6.83149,4.28918 0.90118,0.49633 1.83403,0.92824 2.7326,1.42973 0.80996,0.45203 1.54729,1.05134 2.39102,1.42972 0.76188,0.34168 1.60466,0.44058 2.39102,0.71487 0.58168,0.20289 1.11304,0.55925 1.70787,0.71486 0.78107,0.20433 1.59402,0.23829 2.39103,0.35743 0.86061,0.12865 4.37318,0.66867 5.12361,0.71487 1.02296,0.063 2.04945,0 3.07418,0 1.13858,0 2.27716,0 3.41574,0 2.50488,0 5.00976,0 7.51464,0 1.02472,0 2.07493,0.23764 3.07417,0 1.043,-0.24805 7.43703,-3.10437 8.53936,-3.57432 1.70349,-0.72623 3.41157,-1.44077 5.12362,-2.14459 1.47604,-0.60679 3.02203,-1.04502 4.440469,-1.78716 1.55449,-0.81332 2.9166,-1.98498 4.44047,-2.85945 9.62367,-5.5225 2.82387,-0.88594 9.90566,-5.71891 1.37542,-0.93866 2.70268,-1.95501 4.09889,-2.85945 5.80533,-3.76061 0.43791,0.17109 5.80677,-3.57432 2.2946,-1.60074 2.20082,-2.01537 4.78204,-2.85945 1.00194,-0.32764 2.05901,-0.43531 3.07417,-0.71486 3.02893,-0.83409 3.02325,-1.22168 5.80677,-1.42973 0.79498,-0.0594 1.59401,0 2.39102,0 1.59402,0 3.18803,0 4.78204,0 1.70788,0 3.41953,-0.11888 5.12362,0 2.12111,0.14797 2.64816,0.63225 4.78205,1.42973 1.10772,0.41398 3.89413,1.29162 4.78204,1.78716 2.93322,1.637 1.9391,1.79016 4.44047,3.93174 0.51383,0.43993 1.21166,0.61075 1.70787,1.0723 0.5449,0.50684 0.88622,1.21302 1.3663,1.78716 2.99374,3.13272 -0.66988,-0.84118 1.70787,2.14459 0.51541,0.6472 1.13858,1.19143 1.70787,1.78715 0.11386,0.11915 0.25226,0.21724 0.34157,0.35744 0.82718,1.29835 -0.10001,0.25276 0.68315,1.07229"
       id="path819"
       inkscape:connector-curvature="0" />
    <path
       style="fill:none;stroke:#000000;stroke-width:0.11421963px;stroke-linecap:butt;stroke-linejoin:miter;stroke-opacity:1"
       d="m 41.515644,142.83409 c 3.24571,3.81067 6.47551,7.65095 9.76112,11.39059 1.16561,1.32668 2.31257,2.692 3.52485,3.92779 0.13455,0.13716 4.56052,4.37637 5.69399,5.10613 0.9667,0.62238 1.97284,1.11402 2.98256,1.5711 0.8281,0.37488 2.86242,0.66562 3.52486,0.78557 0.72304,0.13092 1.44545,0.26944 2.16913,0.39277 0.74777,0.12744 4.50621,0.73056 5.15171,0.78556 0.63157,0.0538 1.26533,0 1.89799,0 0.63267,0 1.26533,0 1.898,0 1.53647,0 3.07294,0 4.60942,0 2.25813,0 2.47894,0.10422 4.88056,-0.39277 3.11077,-0.64376 3.53015,-1.0122 6.77856,-2.35668 0.63266,-0.26185 1.30174,-0.38248 1.898,-0.78555 0.77265,-0.52234 1.42598,-1.35835 2.16913,-1.9639 1.21448,-0.98961 2.405606,-1.57029 3.524846,-2.74945 0.57089,-0.60145 1.02826,-1.42194 1.62686,-1.9639 0.85689,-0.77581 1.8163,-1.28468 2.71142,-1.9639 1.00318,-0.7612 1.98043,-1.59261 2.98257,-2.35666 0.71535,-0.54541 1.47594,-0.96862 2.16913,-1.57112 0.66669,-0.57946 1.23585,-1.37362 1.898,-1.9639 1.69504,-1.51104 1.60858,-1.03858 3.52485,-1.96389 1.33426,-0.64428 1.54248,-1.0897 2.98257,-1.57111 0.62272,-0.20818 1.26533,-0.26186 1.89799,-0.39278 1.50183,-0.3108 3.10311,-0.68165 4.60942,-0.78556 0.99306,-0.0685 1.98838,0 2.98256,0 0.81343,0 1.62686,0 2.44029,0 1.46711,0 2.9112,-0.21525 4.33827,0.39277 3.84766,1.63934 1.93989,1.0123 4.88056,3.14223 2.39989,1.73825 3.39613,2.02568 5.69399,3.9278 1.02316,0.84694 1.96273,1.89415 2.98258,2.74945 1.47191,1.23445 1.97546,1.34667 3.2537,2.35667 0.6397,0.50546 1.26102,1.05849 1.89799,1.57112 0.17667,0.14217 0.38448,0.20989 0.54229,0.39278 0.7934,0.91946 0.98354,1.58457 1.62685,2.74945 0.54229,0.98195 0,-0.39278 0.81343,1.17834 0.24252,0.46842 0.31808,1.08393 0.54229,1.57111 0.15598,0.33893 0.60164,0.87154 0.81343,1.17834"
       id="path821"
       inkscape:connector-curvature="0" />
    <path
       style="fill:none;stroke:#000000;stroke-width:0.1155481px;stroke-linecap:butt;stroke-linejoin:miter;stroke-opacity:1"
       d="m 45.305823,99.843568 c 0.941605,1.039682 2.367286,0.993162 3.425444,1.749992 0.683965,0.48919 1.211187,1.21649 1.868421,1.74999 1.213625,0.98513 2.591743,1.71617 3.736849,2.79998 0.844015,0.79884 1.318195,2.02525 2.179825,2.79998 2.322673,2.08843 4.105504,2.74097 6.539484,4.19998 1.070979,0.64198 2.269949,1.5434 3.425445,2.09998 0.301701,0.14533 0.632496,0.20467 0.934206,0.35 0.426684,0.20553 0.818935,0.49447 1.245619,0.7 0.603411,0.29065 1.26501,0.40934 1.868421,0.69999 0.426683,0.20552 0.800978,0.55008 1.245619,0.7 0.604768,0.20391 1.249281,0.21082 1.86842,0.35 0.41967,0.0943 0.825941,0.25566 1.24562,0.34999 0.619131,0.13918 1.263652,0.14608 1.86842,0.35 0.444633,0.14993 0.810958,0.5168 1.245619,0.7 0.400732,0.1689 0.830408,0.23333 1.245611,0.35 0.415204,0.11666 0.820251,0.29687 1.24562,0.34999 0.825329,0.10307 1.660822,0 2.49123,0 1.972227,0 3.944447,0 5.916674,0 1.141812,0 2.283633,0 3.425445,0 0.830407,0 1.665901,0.10307 2.49123,0 1.052091,-0.13139 2.098484,-0.36428 3.11404,-0.69999 0.0059,-0.002 4.331785,-2.08746 4.359655,-2.09999 1.64689,-0.7404 3.35742,-1.30092 4.98246,-2.09999 8.26238,-4.64319 -2.05516,0.98994 4.35966,-2.09998 0.85335,-0.41106 1.64064,-0.98174 2.49123,-1.4 0.81252,-0.39953 1.67871,-0.65045 2.49123,-1.04999 0.85058,-0.41825 1.64826,-0.96271 2.49123,-1.39999 3.89924,-2.02269 -1.50146,1.19377 4.35965,-2.09999 3.07522,-1.72817 -0.044,-0.42879 3.42545,-2.09998 0.81517,-0.39267 1.72121,-0.55545 2.49123,-1.05 0.7039,-0.45208 1.16453,-1.29791 1.86842,-1.74999 0.77003,-0.49455 1.66347,-0.69216 2.49124,-1.04999 3.68961,-1.594965 -0.31384,6.8e-4 2.80263,-1.05 4.44018,-1.663491 -0.18035,0.008 3.11404,-1.049989 0.31562,-0.101357 0.61043,-0.289346 0.93422,-0.349995 0.51194,-0.09591 1.03801,0 1.55702,0 0.83041,0 1.66082,0 2.49123,0 0.93421,0 1.86842,0 2.80263,0 0.41521,0 0.84281,-0.113187 1.24562,0 0.45035,0.126536 0.83041,0.46666 1.24561,0.69999 0.62281,0.350002 1.20784,0.802504 1.86843,1.049994 0.599,0.22441 1.26494,0.1413 1.86842,0.35 0.75557,0.26129 1.42987,0.76903 2.17983,1.04999 0.81204,0.30423 1.67423,0.41304 2.49123,0.7 0.84651,0.29732 1.65602,0.71473 2.49124,1.04999 0.61824,0.24817 1.27234,0.39079 1.86841,0.69999 0.75985,0.39417 1.43131,0.97935 2.17983,1.4 0.49997,0.28097 1.04621,0.44483 1.55702,0.69999 0.4242,0.21191 0.83041,0.46666 1.24562,0.7 0.4152,0.23333 0.84256,0.44114 1.24561,0.7 0.32495,0.20869 0.61329,0.48357 0.93421,0.69999 0.19903,0.13422 0.42969,0.2053 0.6228,0.35 0.12215,0.0915 0.18927,0.25847 0.31142,0.35 1.13115,0.84756 0.22021,-0.1025 0.9342,0.69999"
       id="path827"
       inkscape:connector-curvature="0" />
    <path
       style="fill:none;stroke:#000000;stroke-width:0.26458332px;stroke-linecap:butt;stroke-linejoin:miter;stroke-opacity:1"
       d="m -210.91071,182.09524 -1.51191,1.5119"
       id="path829"
       inkscape:connector-curvature="0" />
  </g>
</svg>
