<?xml version="1.0" encoding="UTF-8" standalone="no"?>
<!-- Created with Inkscape (http://www.inkscape.org/) -->

<svg
   xmlns:dc="http://purl.org/dc/elements/1.1/"
   xmlns:cc="http://creativecommons.org/ns#"
   xmlns:rdf="http://www.w3.org/1999/02/22-rdf-syntax-ns#"
   xmlns:svg="http://www.w3.org/2000/svg"
   xmlns="http://www.w3.org/2000/svg"
   xmlns:sodipodi="http://sodipodi.sourceforge.net/DTD/sodipodi-0.dtd"
   xmlns:inkscape="http://www.inkscape.org/namespaces/inkscape"
   width="210mm"
   height="297mm"
   viewBox="0 0 210 297"
   version="1.1"
   id="svg8"
   inkscape:version="0.92.2 (5c3e80d, 2017-08-06)"
   sodipodi:docname="stars.svg">
  <defs
     id="defs2" />
  <sodipodi:namedview
     id="base"
     pagecolor="#ffffff"
     bordercolor="#666666"
     borderopacity="1.0"
     inkscape:pageopacity="0.0"
     inkscape:pageshadow="2"
     inkscape:zoom="0.35"
     inkscape:cx="400"
     inkscape:cy="560"
     inkscape:document-units="mm"
     inkscape:current-layer="layer1"
     showgrid="false"
     inkscape:window-width="1366"
     inkscape:window-height="705"
     inkscape:window-x="-8"
     inkscape:window-y="-8"
     inkscape:window-maximized="1" />
  <metadata
     id="metadata5">
    <rdf:RDF>
      <cc:Work
         rdf:about="">
        <dc:format>image/svg+xml</dc:format>
        <dc:type
           rdf:resource="http://purl.org/dc/dcmitype/StillImage" />
        <dc:title></dc:title>
      </cc:Work>
    </rdf:RDF>
  </metadata>
  <g
     inkscape:label="Layer 1"
     inkscape:groupmode="layer"
     id="layer1">
    <rect
       id="rect43"
       width="429.54401"
       height="256.314"
       x="2.2678571"
       y="16.541666"
       style="stroke-width:0.26458332" />
    <path
       style="stroke-width:2.85714293"
       d="M 9.1428571,545.94826 V 63.091114 H 820.57143 1632 V 545.94826 1028.8054 H 820.57143 9.1428571 Z"
       id="path45"
       inkscape:connector-curvature="0"
       transform="scale(0.26458333)" />
    <path
       style="stroke-width:2.85714293"
       d="M 9.1428571,545.94826 V 63.091114 H 820.57143 1632 V 545.94826 1028.8054 H 820.57143 9.1428571 Z"
       id="path47"
       inkscape:connector-curvature="0"
       transform="scale(0.26458333)" />
    <path
       sodipodi:type="star"
       style="fill:#ffd42a;stroke-width:0.26458332"
       id="path51"
       sodipodi:sides="5"
       sodipodi:cx="21.922619"
       sodipodi:cy="31.660711"
       sodipodi:r1="15.566012"
       sodipodi:r2="7.7830062"
       sodipodi:arg1="1.0636978"
       sodipodi:arg2="1.6920164"
       inkscape:flatsided="false"
       inkscape:rounded="0"
       inkscape:randomized="0"
       d="m 29.482143,45.267854 -8.500672,-5.881249 -9.663993,3.668479 2.966549,-9.902025 -6.4752695,-8.057381 10.3340995,-0.238538 5.662056,-8.648215 3.420276,9.7546 9.974613,2.71249 -8.220253,6.267213 z"
       inkscape:transform-center-x="-0.58166076"
       inkscape:transform-center-y="-0.92232217" />
    <path
       sodipodi:type="star"
       style="fill:#ffd42a;stroke-width:0.26458332"
       id="path53"
       sodipodi:sides="5"
       sodipodi:cx="372.68451"
       sodipodi:cy="83.065475"
       sodipodi:r1="23.28775"
       sodipodi:r2="11.643875"
       sodipodi:arg1="-1.8000283"
       sodipodi:arg2="-1.1717097"
       inkscape:flatsided="false"
       inkscape:rounded="0"
       inkscape:randomized="0"
       d="m 367.39284,60.386905 9.81621,11.949714 15.40885,-1.311882 -8.33148,13.028434 6.00927,14.249289 -14.96535,-3.897699 -11.69491,10.118429 -0.91761,-15.437346 -13.23713,-7.995757 14.39823,-5.643105 z"
       inkscape:transform-center-x="1.6352196"
       inkscape:transform-center-y="-0.61043009" />
    <path
       sodipodi:type="star"
       style="fill:#ffd42a;stroke-width:0.26458332"
       id="path55"
       sodipodi:sides="5"
       sodipodi:cx="189.74405"
       sodipodi:cy="99.696426"
       sodipodi:r1="40.378052"
       sodipodi:r2="20.189022"
       sodipodi:arg1="-2.2367656"
       sodipodi:arg2="-1.608447"
       inkscape:flatsided="false"
       inkscape:rounded="0"
       inkscape:randomized="0"
       d="m 164.79762,67.946425 24.18648,11.575287 23.24712,-13.362042 -3.53472,26.579671 19.89182,17.980229 -26.37106,4.85186 -10.95331,24.47443 -12.76349,-23.58106 -26.66133,-2.8542 18.48279,-19.425747 z"
       inkscape:transform-center-x="-0.46967343"
       inkscape:transform-center-y="3.4063384" />
    <path
       sodipodi:type="star"
       style="fill:#ffd42a;stroke-width:0.26458332"
       id="path57"
       sodipodi:sides="5"
       sodipodi:cx="90.714287"
       sodipodi:cy="185.11903"
       sodipodi:r1="46.942146"
       sodipodi:r2="23.471073"
       sodipodi:arg1="-1.8313987"
       sodipodi:arg2="-1.2030802"
       inkscape:flatsided="false"
       inkscape:rounded="0"
       inkscape:randomized="0"
       d="m 78.61905,139.76189 20.53274,23.45509 30.96207,-3.61733 -15.96215,26.77582 13.00809,28.32886 -30.397894,-6.90673 -22.922626,21.12553 -2.824779,-31.0444 -27.175054,-15.27257 28.652084,-12.27977 z"
       inkscape:transform-center-x="3.7376352"
       inkscape:transform-center-y="-0.77652277" />
    <path
       sodipodi:type="star"
       style="fill:#ffd42a;stroke-width:0.26458332"
       id="path59"
       sodipodi:sides="5"
       sodipodi:cx="318.25592"
       sodipodi:cy="222.16071"
       sodipodi:r1="51.476971"
       sodipodi:r2="25.738485"
       sodipodi:arg1="-2.0935854"
       sodipodi:arg2="-1.4652669"
       inkscape:flatsided="false"
       inkscape:rounded="0"
       inkscape:randomized="0"
       d="m 292.55354,177.55952 28.41351,19.00589 31.76465,-12.63165 -9.29542,32.896 21.82922,26.30659 -34.15839,1.32495 -18.27345,28.89001 -11.81563,-32.07713 -33.12283,-8.45158 26.85593,-21.14971 z"
       inkscape:transform-center-x="1.6755742"
       inkscape:transform-center-y="3.2947027" />
    <path
       sodipodi:type="star"
       style="fill:#ffd42a;stroke-width:0.26458332"
       id="path61"
       sodipodi:sides="5"
       sodipodi:cx="306.16074"
       sodipodi:cy="105.74404"
       sodipodi:r1="19.508844"
       sodipodi:r2="9.7544222"
       sodipodi:arg1="-2.1910458"
       sodipodi:arg2="-1.5627273"
       inkscape:flatsided="false"
       inkscape:rounded="0"
       inkscape:randomized="0"
       d="m 294.82145,89.869042 11.41799,6.120895 11.51529,-5.935841 -2.29297,12.750614 9.20374,9.11741 -12.83512,1.75942 -5.82706,11.57071 -5.63958,-11.66324 -12.80506,-1.96631 9.34967,-8.9677 z"
       inkscape:transform-center-x="0.048648086"
       inkscape:transform-center-y="1.8166035" />
    <path
       sodipodi:type="star"
       style="fill:#ffd42a;stroke-width:0.26458332"
       id="path63"
       sodipodi:sides="5"
       sodipodi:cx="99.785713"
       sodipodi:cy="85.333328"
       sodipodi:r1="32.036686"
       sodipodi:r2="16.018343"
       sodipodi:arg1="-1.9074711"
       sodipodi:arg2="-1.2791526"
       inkscape:flatsided="false"
       inkscape:rounded="0"
       inkscape:randomized="0"
       d="m 89.202382,55.095234 15.189038,14.896165 20.882,-4.067502 -9.47342,19.0488 10.32131,18.603033 -21.04393,-3.12335 L 90.574302,116.01719 87.04186,95.038044 67.757147,86.05459 86.617913,76.212126 Z"
       inkscape:transform-center-x="2.8464834"
       inkscape:transform-center-y="0.22288139" />
    <path
       sodipodi:type="star"
       style="fill:#ffd42a;stroke-width:0.26458332"
       id="path65"
       sodipodi:sides="5"
       sodipodi:cx="201.08333"
       sodipodi:cy="228.96428"
       sodipodi:r1="35.537804"
       sodipodi:r2="17.768902"
       sodipodi:arg1="-0.90602183"
       sodipodi:arg2="-0.2777033"
       inkscape:flatsided="false"
       inkscape:rounded="0"
       inkscape:randomized="0"
       d="m 223.00595,200.99404 -4.83449,23.09894 16.28761,17.07767 -23.46233,2.54009 -11.20869,20.76773 -9.66603,-21.52907 -23.21496,-4.24251 17.4884,-15.8458 -3.13895,-23.38974 20.47446,11.73583 z"
       inkscape:transform-center-x="0.40026542"
       inkscape:transform-center-y="3.0106278" />
    <path
       sodipodi:type="star"
       style="fill:#ffd42a;stroke-width:0.26458332"
       id="path67"
       sodipodi:sides="5"
       sodipodi:cx="254"
       sodipodi:cy="62.654762"
       sodipodi:r1="31.132023"
       sodipodi:r2="15.566012"
       sodipodi:arg1="0.5070985"
       sodipodi:arg2="1.135417"
       inkscape:flatsided="false"
       inkscape:rounded="0"
       inkscape:randomized="0"
       d="m 281.21428,77.773809 -20.64925,-1.005186 -12.53442,16.440504 -5.42498,-19.949224 -19.5092,-6.840551 17.29643,-11.324113 0.47707,-20.668197 16.11477,12.950537 19.80404,-5.933097 -7.33695,19.327985 z"
       inkscape:transform-center-x="1.8446467"
       inkscape:transform-center-y="1.1633213" />
    <path
       sodipodi:type="star"
       style="fill:#ffd42a;stroke-width:0.26458332"
       id="path69"
       sodipodi:sides="5"
       sodipodi:cx="18.142857"
       sodipodi:cy="145.05356"
       sodipodi:r1="15.306869"
       sodipodi:r2="7.6534343"
       sodipodi:arg1="0.57430483"
       sodipodi:arg2="1.2026234"
       inkscape:flatsided="false"
       inkscape:rounded="0"
       inkscape:randomized="0"
       d="m 30.994047,153.36903 -10.096632,-1.17492 -6.69181,7.65128 -2.00261,-9.96554 -9.3446836,-3.99991 8.8589506,-4.98412 0.916478,-10.12336 7.477743,6.88518 9.911097,-2.25667 -4.237451,9.2394 z"
       inkscape:transform-center-x="1.2166779"
       inkscape:transform-center-y="0.25536323" />
    <path
       sodipodi:type="star"
       style="fill:#ffd42a;stroke-width:0.26458332"
       id="path71"
       sodipodi:sides="5"
       sodipodi:cx="20.410715"
       sodipodi:cy="241.05952"
       sodipodi:r1="11.23804"
       sodipodi:r2="5.61902"
       sodipodi:arg1="-0.83298127"
       sodipodi:arg2="-0.20466274"
       inkscape:flatsided="false"
       inkscape:rounded="0"
       inkscape:randomized="0"
       d="m 27.970239,232.74405 -2.057775,7.17348 4.74276,5.76191 -7.458276,0.25966 -4.014302,6.29116 -2.551693,-7.013 -7.2237353,-1.87375 5.8812433,-4.59394 -0.450212,-7.4492 6.186501,4.17379 z"
       inkscape:transform-center-x="0.37949443"
       inkscape:transform-center-y="0.70578712" />
    <path
       sodipodi:type="star"
       style="fill:#ffd42a;stroke-width:0.26458332"
       id="path73"
       sodipodi:sides="5"
       sodipodi:cx="104.32142"
       sodipodi:cy="241.81548"
       sodipodi:r1="14.343187"
       sodipodi:r2="7.1715937"
       sodipodi:arg1="-0.32175055"
       sodipodi:arg2="0.30656798"
       inkscape:flatsided="false"
       inkscape:rounded="0"
       inkscape:randomized="0"
       d="m 117.92856,237.27976 -6.76992,6.70002 1.68134,9.37524 -8.46412,-4.36816 -8.396825,4.49616 1.538813,-9.39969 -6.870864,-6.59646 9.415156,-1.44117 4.1504,-8.573 4.28007,8.509 z"
       inkscape:transform-center-x="0.033647776"
       inkscape:transform-center-y="-1.3376165" />
    <path
       sodipodi:type="star"
       style="fill:#ffd42a;stroke-width:0.26458332"
       id="path75"
       sodipodi:sides="5"
       sodipodi:cx="228.29761"
       sodipodi:cy="166.22023"
       sodipodi:r1="24.95788"
       sodipodi:r2="12.47894"
       sodipodi:arg1="0.61320735"
       sodipodi:arg2="1.2415259"
       inkscape:flatsided="false"
       inkscape:rounded="0"
       inkscape:randomized="0"
       d="m 248.70832,180.58333 -16.37561,-2.55455 -11.38796,12.04163 -2.63083,-16.36353 -14.97134,-7.10952 14.74967,-7.55868 2.13516,-16.43556 11.74663,11.69202 16.29094,-3.04821 -7.48986,14.78474 z"
       inkscape:transform-center-x="2.2721608"
       inkscape:transform-center-y="0.11653708" />
    <path
       sodipodi:type="star"
       style="fill:#ffd42a;stroke-width:0.26458332"
       id="path77"
       sodipodi:sides="5"
       sodipodi:cx="387.80359"
       sodipodi:cy="167.73215"
       sodipodi:r1="7.7092319"
       sodipodi:r2="3.8546159"
       sodipodi:arg1="-0.19739556"
       sodipodi:arg2="0.43092297"
       inkscape:flatsided="false"
       inkscape:rounded="0"
       inkscape:randomized="0"
       d="m 395.36311,166.22024 -4.05729,3.12202 0.2717,5.11222 -4.22299,-2.89396 -4.77805,1.83816 1.44735,-4.91058 -3.2247,-3.97617 5.11749,-0.14095 2.78508,-4.29557 1.71544,4.82347 z"
       inkscape:transform-center-x="-0.27752774"
       inkscape:transform-center-y="-0.46720637" />
    <path
       sodipodi:type="star"
       style="fill:#ffd42a;stroke-width:0.26458332"
       id="path79"
       sodipodi:sides="5"
       sodipodi:cx="400.65475"
       sodipodi:cy="247.10715"
       sodipodi:r1="11.759859"
       sodipodi:r2="5.8799295"
       sodipodi:arg1="-0.78539816"
       sodipodi:arg2="-0.15707963"
       inkscape:flatsided="false"
       inkscape:rounded="0"
       inkscape:randomized="0"
       d="m 408.97023,238.79167 -2.50794,7.39565 4.67058,6.25869 -7.80868,-0.0998 -4.50908,6.37602 -2.31809,-7.45733 -7.45734,-2.3181 6.37602,-4.50907 -0.0998,-7.80868 6.25869,4.67057 z"
       inkscape:transform-center-x="0.56848731"
       inkscape:transform-center-y="0.56847915" />
    <path
       sodipodi:type="star"
       style="fill:#ffd42a;stroke-width:0.26458332"
       id="path81"
       sodipodi:sides="5"
       sodipodi:cx="335.64285"
       sodipodi:cy="43"
       sodipodi:r1="10.529198"
       sodipodi:r2="5.2645993"
       sodipodi:arg1="-0.36717383"
       sodipodi:arg2="0.2611447"
       inkscape:flatsided="false"
       inkscape:rounded="0"
       inkscape:randomized="0"
       d="m 345.47023,39.220238 -4.74127,5.139011 1.54549,6.819135 -6.35263,-2.921181 -6.0078,3.577078 0.81514,-6.9444 -5.25851,-4.608379 6.85641,-1.370694 2.75785,-6.425213 3.42236,6.097264 z"
       inkscape:transform-center-x="0.172417"
       inkscape:transform-center-y="-0.84006261" />
    <path
       sodipodi:type="star"
       style="fill:#ffd42a;stroke-width:0.26458332"
       id="path83"
       sodipodi:sides="5"
       sodipodi:cx="415.7738"
       sodipodi:cy="38.464287"
       sodipodi:r1="5.5034165"
       sodipodi:r2="2.7517083"
       sodipodi:arg1="-0.27829966"
       sodipodi:arg2="0.35001887"
       inkscape:flatsided="false"
       inkscape:rounded="0"
       inkscape:randomized="0"
       d="m 421.06547,36.952382 -2.7068,2.455508 0.48826,3.621867 -3.17178,-1.815531 -3.29372,1.583581 0.74654,-3.577568 -2.52389,-2.643159 3.63316,-0.395528 1.73387,-3.217144 1.49888,3.333119 z"
       inkscape:transform-center-x="-0.060966303"
       inkscape:transform-center-y="-0.46720474" />
  </g>
</svg>
