<?xml version="1.0" encoding="UTF-8" standalone="no"?>
<!-- Created with Inkscape (http://www.inkscape.org/) -->

<svg
   xmlns:dc="http://purl.org/dc/elements/1.1/"
   xmlns:cc="http://creativecommons.org/ns#"
   xmlns:rdf="http://www.w3.org/1999/02/22-rdf-syntax-ns#"
   xmlns:svg="http://www.w3.org/2000/svg"
   xmlns="http://www.w3.org/2000/svg"
   xmlns:sodipodi="http://sodipodi.sourceforge.net/DTD/sodipodi-0.dtd"
   xmlns:inkscape="http://www.inkscape.org/namespaces/inkscape"
   width="430.54434"
   height="325.29514"
   id="svg2"
   version="1.1"
   inkscape:version="0.92.2 (5c3e80d, 2017-08-06)"
   sodipodi:docname="treasureKey.svg">
  <defs
     id="defs4">
    <inkscape:perspective
       sodipodi:type="inkscape:persp3d"
       inkscape:vp_x="0 : 526.18109 : 1"
       inkscape:vp_y="0 : 1000 : 0"
       inkscape:vp_z="744.09448 : 526.18109 : 1"
       inkscape:persp3d-origin="372.04724 : 350.78739 : 1"
       id="perspective2985" />
  </defs>
  <sodipodi:namedview
     id="base"
     pagecolor="#ffffff"
     bordercolor="#666666"
     borderopacity="1.0"
     inkscape:pageopacity="0.0"
     inkscape:pageshadow="2"
     inkscape:zoom="1.4"
     inkscape:cx="161.02099"
     inkscape:cy="143.94531"
     inkscape:document-units="mm"
     inkscape:current-layer="layer1"
     showgrid="false"
     inkscape:object-nodes="true"
     inkscape:window-width="1366"
     inkscape:window-height="705"
     inkscape:window-x="-8"
     inkscape:window-y="-8"
     inkscape:window-maximized="1"
     showguides="true"
     inkscape:guide-bbox="true"
     units="mm"
     fit-margin-top="0"
     fit-margin-left="0"
     fit-margin-right="0"
     fit-margin-bottom="0" />
  <metadata
     id="metadata7">
    <rdf:RDF>
      <cc:Work
         rdf:about="">
        <dc:format>image/svg+xml</dc:format>
        <dc:type
           rdf:resource="http://purl.org/dc/dcmitype/StillImage" />
        <dc:title />
      </cc:Work>
    </rdf:RDF>
  </metadata>
  <g
     inkscape:label="Layer 1"
     inkscape:groupmode="layer"
     id="layer1"
     transform="translate(-53.643411,-569.625)">
    <path
       inkscape:connector-curvature="0"
       id="path3908"
       d="M 474.37627,771.83168 268.91558,649.23729 63.454937,771.83164 268.91563,894.42603 Z"
       style="fill:#c4b7c8;stroke:#000000;stroke-width:0.99999994px;stroke-linecap:round;stroke-linejoin:round;stroke-opacity:1" />
    <path
       inkscape:connector-curvature="0"
       style="fill:#aa0000;stroke:#666666;stroke-width:1px;stroke-linecap:round;stroke-linejoin:round;stroke-opacity:1"
       d="m 259.67677,654.78125 9.28125,5.5625 -9.21875,5.53125 h -0.0312 l -9.28125,-5.5625 9.25,-5.53125 z m 18.5625,0.0312 9.28125,5.5625 -9.25,5.53125 9.28125,5.5625 -9.25,5.53125 h -0.0312 l -9.25,-5.5625 9.21875,-5.53125 -9.25,-5.5625 9.21875,-5.53125 z m 9.3125,16.65625 9.25,-5.53125 9.3125,5.5625 -9.25,5.53125 9.25,5.5625 -9.21875,5.53125 h -0.0312 l -9.25,-5.5625 9.21875,-5.53125 -9.28125,-5.5625 z m -46.53125,-5.5625 9.3125,5.5625 -9.25,5.53125 9.21875,5.5625 -9.21875,5.53125 9.28125,5.5625 -9.25,5.53125 9.28125,5.5625 -9.21875,5.53125 h -0.0312 l -9.28125,-5.5625 9.21875,-5.53125 -9.25,-5.5625 9.21875,-5.53125 -9.25,-5.5625 9.2187,-5.5312 h 0.0312 l -9.25,-5.5625 9.21875,-5.53125 z m 9.34375,27.75 9.21875,-5.53125 -9.25,-5.5625 9.25,-5.53125 -9.25,-5.5625 9.21875,-5.53125 h 0.0312 l 9.28125,5.5625 -9.25,5.53125 9.25,5.5625 -9.25,5.53125 9.28125,5.5625 -9.21875,5.53125 9.25,5.5625 -9.21875,5.53125 9.25,5.5625 -9.21875,5.53125 9.28125,5.5625 -9.21875,5.53125 9.25,5.5625 -9.25,5.53125 9.28125,5.5625 -9.25,5.53125 9.28125,5.5625 -9.21875,5.53125 9.25,5.5625 -9.21875,5.53125 h -0.0312 l -9.25,-5.5625 9.21875,-5.53125 -9.28125,-5.5625 9.21875,-5.53125 -9.25,-5.5625 9.21875,-5.53125 -4.625,-2.78125 -4.625,-2.78125 9.21875,-5.53125 -9.25,-5.5625 9.09375,-5.46875 0.125,-0.0625 -9.28125,-5.5625 9.25,-5.53125 -9.25,-5.5625 9.21875,-5.53125 z m 0.21875,66.5625 -9.25,5.53125 h -0.0312 l -9.25,-5.5625 9.21875,-5.53125 -4.625,-2.78125 -4.625,-2.78125 9.21875,-5.53125 -9.28125,-5.5625 9.25,-5.53125 9.28125,5.5625 -9.21875,5.53125 9.25,5.5625 -9.21875,5.53125 9.28125,5.5625 z m 18.5,-11.0625 9.25,-5.53125 -9.25,-5.5625 9.21875,-5.53125 h 0.0312 l 9.28125,5.5625 -9.25,5.53125 9.28125,5.5625 -9.25,5.53125 9.25,5.5625 -9.21875,5.53125 9.25,5.5625 -9.21875,5.53125 9.28125,5.5625 -9.21875,5.53125 h -0.0312 l -9.28125,-5.5625 9.21875,-5.53125 -4.625,-2.78125 -4.625,-2.78125 9.21875,-5.53125 -9.25,-5.5625 9.21875,-5.53125 z m -46.59375,-72.1875 9.28125,5.5625 -9.21875,5.53125 9.25,5.5625 -9.21875,5.53125 h -0.0312 l -9.25,-5.5625 9.21875,-5.53125 -9.28125,-5.5625 9.25,-5.53125 z m 92.875,0.0937 9.3125,5.5625 -9.09375,5.4375 9.25,5.5625 -9.21875,5.53125 h -0.0312 l -9.25,-5.5625 9.0625,-5.4375 -4.625,-2.78125 -4.625,-2.78125 9.21875,-5.53125 z m -37.21875,0 9.3125,5.5625 -9.25,5.53125 9.21875,5.5625 -9.25,5.53125 -9.25,-5.5625 9.25,-5.53125 -9.28125,-5.5625 z m 0.0312,22.1875 9.28125,5.5625 -9.21875,5.53125 h -0.0312 l -4.625,-2.78125 -4.625,-2.78125 9.21875,-5.53125 z m 55.9063,-11.15615 9.3125,5.5625 -9.25,5.53125 9.28125,5.5625 -9.25,5.53125 h -0.0312 l -9.25,-5.5625 9.21875,-5.53125 -4.625,-2.78125 -4.625,-2.78125 9.21875,-5.53125 z m 9.34375,16.65625 9.25,-5.53125 9.3125,5.5625 -9.25,5.53125 9.25,5.5625 -9.21875,5.53125 h -0.0312 l -9.25,-5.5625 9.21875,-5.53125 -9.28125,-5.5625 z m -139.59375,-16.65625 9.28125,5.5625 -9.21875,5.53125 9.25,5.5625 -9.25,5.53125 9.28125,5.5625 -9.25,5.53125 9.28125,5.5625 -9.21875,5.53125 9.25,5.5625 -9.21875,5.53125 h -0.0312 l -9.25,-5.5625 9.21875,-5.53125 -9.28125,-5.5625 9.21875,-5.53125 -9.25,-5.5625 9.21875,-5.53125 -9.25,-5.5625 9.2187,-5.53125 -4.625,-2.78125 -4.625,-2.78125 z m -9.15625,38.8125 -9.25,5.53125 h -0.0312 l -9.25,-5.5625 9.21875,-5.53125 -9.25,-5.5625 9.2187,-5.53125 -9.28125,-5.5625 9.25,-5.53125 9.28125,5.5625 -9.21875,5.53125 9.25,5.5625 -9.21875,5.53125 z m 18.5,-11.0625 9.25,-5.53125 -9.25,-5.5625 9.21875,-5.53125 h 0.0312 l 9.28125,5.5625 -9.25,5.53125 9.28125,5.5625 -9.25,5.53125 9.25,5.5625 -9.21875,5.53125 9.25,5.5625 -9.21875,5.53125 h -0.0312 l -4.625,-2.78125 -4.625,-2.78125 9.21875,-5.53125 -9.25,-5.5625 9.21875,-5.53125 z m 83.53125,-27.65625 9.3125,5.5625 -9.125,5.46875 9.28125,5.5625 -9.25,5.53125 -9.28125,-5.5625 9.09375,-5.46875 -9.28125,-5.5625 z m 0.21875,22.125 9.28125,5.5625 -9.21875,5.53125 9.28125,5.5625 -9.25,5.53125 9.28125,5.5625 -9.21875,5.53125 h -0.0312 l -9.28125,-5.5625 9.21875,-5.53125 -9.25,-5.5625 9.21875,-5.53125 -4.625,-2.78125 -4.625,-2.78125 9.21875,-5.53125 z m 9.34375,16.65625 9.21875,-5.53125 -9.25,-5.5625 9.25,-5.53125 -9.28125,-5.5625 9.25,-5.53125 9.3125,5.5625 -9.25,5.53125 9.25,5.5625 -9.25,5.53125 9.28125,5.5625 -9.21875,5.53125 9.25,5.5625 -9.21875,5.53125 9.25,5.5625 -9.21875,5.53125 h -0.0312 l -9.28125,-5.5625 9.25,-5.53125 -9.25,-5.5625 9.21875,-5.53125 -9.28125,-5.5625 z m -139.46875,-16.75 9.28125,5.5625 -9.21875,5.53125 h -0.0312 l -9.28125,-5.5625 9.25,-5.53125 z m 111.59375,0.0625 9.28125,5.5625 -9.21875,5.53125 9.25,5.5625 -9.21875,5.53125 h -0.0312 l -9.28125,-5.5625 9.25,-5.53125 -9.28125,-5.5625 9.25,-5.53125 z m 92.84375,0.0625 9.3125,5.5625 -9.25,5.53125 9.28125,5.5625 -9.21875,5.53125 h -0.0312 l -9.28125,-5.5625 9.21875,-5.53125 -4.625,-2.78125 -4.625,-2.78125 9.21875,-5.53125 z m -130.21875,0 9.25,5.5625 -9.21875,5.53125 9.25,5.5625 -9.25,5.53125 h -0.0312 l -4.625,-2.78125 -4.625,-2.78125 9.21875,-5.53125 -9.21875,-5.5625 9.21875,-5.53125 z m 93.03125,0.0312 9.3125,5.5625 -9.25,5.53125 9.21875,5.5625 -9.25,5.53125 -9.25,-5.56245 9.25,-5.53125 -9.28125,-5.5625 9.25,-5.53125 z m 0.0312,22.1875 9.28125,5.5625 -9.21875,5.53125 9.28125,5.5625 -9.21875,5.53125 9.25,5.5625 -9.21875,5.53125 h -0.0312 l -9.28125,-5.5625 9.25,-5.53125 -9.28125,-5.5625 9.21875,-5.53125 -4.625,-2.78125 -4.625,-2.78125 9.21875,-5.53125 z m -185.90625,-11.1875 9.3125,5.5625 -9.25,5.53125 9.21875,5.5625 -9.21875,5.53125 9.28125,5.5625 -9.25,5.53125 9.28125,5.5625 -9.21875,5.53125 h -0.0312 l -9.28125,-5.5625 9.21875,-5.53125 -9.25,-5.5625 9.21875,-5.53125 -9.25,-5.5625 9.21875,-5.53125 h 0.0312 l -9.25,-5.5625 z m 9.34375,27.75 9.21875,-5.53125 -9.25,-5.5625 9.25,-5.53125 -9.25,-5.5625 9.21875,-5.53125 h 0.0312 l 9.28125,5.5625 -9.25,5.53125 9.25,5.5625 -9.25,5.53125 9.28125,5.5625 -9.21875,5.53125 9.25,5.5625 -9.21875,5.53125 9.25,5.5625 -9.21875,5.53125 9.28125,5.5625 -9.21875,5.53125 9.25,5.5625 -9.21875,5.53125 9.28125,5.5625 -9.25,5.53125 9.28125,5.5625 -9.25,5.53125 9.25,5.5625 -9.21875,5.53125 h -0.0312 l -9.25,-5.5625 9.21875,-5.53125 -9.28125,-5.5625 9.25,-5.53125 -9.25,-5.5625 9.21875,-5.53125 -4.625,-2.78125 -4.625,-2.78125 9.21875,-5.53125 -9.28125,-5.5625 9.09375,-5.46875 0.125,-0.0625 -9.28125,-5.5625 9.25,-5.53125 -9.25,-5.5625 9.21875,-5.53125 z m 0.21875,66.5625 -9.25,5.53125 h -0.0312 l -9.25,-5.5625 9.21875,-5.53125 -4.625,-2.78125 -4.625,-2.78125 9.21875,-5.53125 -9.25,-5.5625 9.25,-5.53125 9.28125,5.5625 -9.21875,5.53125 9.25,5.5625 -9.25,5.53125 9.28125,5.5625 z m 18.53125,-11.0625 9.21875,-5.53125 -9.25,-5.5625 9.2188,-5.5312 h 0.0312 l 9.28125,5.5625 -9.25,5.53125 9.28125,5.5625 -9.21875,5.53125 9.25,5.5625 -9.21875,5.53125 9.25,5.5625 -9.25,5.53125 9.28125,5.5625 -9.21875,5.53125 h -0.0312 l -9.28125,-5.5625 9.21875,-5.53125 -4.625,-2.78125 -4.625,-2.78125 9.21875,-5.53125 -9.21875,-5.5625 9.21875,-5.53125 -9.28125,-5.5625 z m 213.56255,-83.1562 9.3125,5.5625 -9.25,5.53125 9.28125,5.5625 -9.25,5.53125 h -0.0312 l -9.25,-5.5625 9.21875,-5.53125 -4.625,-2.78125 L 380.61427,727 Z m 9.34375,16.65625 9.25,-5.53125 9.3125,5.5625 -9.25,5.53125 9.25,5.5625 -9.21875,5.53125 h -0.0312 l -9.25,-5.5625 9.21875,-5.53125 -9.28125,-5.5625 z m -46.5625,-16.625 9.3125,5.5625 -9.25,5.53125 9.25,5.5625 -9.25,5.53125 -9.25,-5.5625 9.21875,-5.53125 -9.28125,-5.5625 z m 0.0625,22.1875 9.28125,5.5625 -9.21875,5.53125 9.28125,5.5625 -9.25,5.53125 9.28125,5.5625 -9.21875,5.53125 h -0.0312 l -9.28125,-5.5625 9.21875,-5.53125 -9.25,-5.5625 9.21875,-5.53125 -4.625,-2.78125 -4.625,-2.78125 9.21875,-5.53125 z m 9.34375,16.65625 9.21875,-5.53125 -9.25,-5.5625 9.25,-5.53125 -9.28125,-5.5625 9.25,-5.53125 9.3125,5.5625 -9.25,5.53125 9.25,5.5625 -9.25,5.53125 9.28125,5.5625 -9.21875,5.53125 9.25,5.5625 -9.21875,5.53125 9.25,5.5625 -9.21875,5.53125 h -0.0312 l -9.28125,-5.5625 9.24995,-5.53125 -9.25,-5.5625 9.21875,-5.53125 z m -232.375,-27.90625 9.28125,5.5625 -9.21875,5.53125 9.25,5.5625 -9.21875,5.53125 h -0.0312 l -9.25,-5.5625 9.21875,-5.53125 -9.28125,-5.5625 9.25,-5.53125 z m 55.65625,0.0937 9.3125,5.5625 -9.25,5.53125 9.21875,5.5625 -9.25,5.53125 -9.25,-5.5625 9.25,-5.53125 -9.28125,-5.5625 z m 0.0312,22.1875 9.28125,5.5625 -9.0625,5.4375 9.25,5.5625 -9.21875,5.53125 9.25,5.5625 -9.21875,5.53125 h -0.0312 l -9.28125,-5.5625 9.25,-5.53125 -9.25,-5.5625 9.0625,-5.4375 -4.625,-2.78125 -4.625,-2.78125 9.21875,-5.53125 z m 37.375,-11.1875 9.28125,5.5625 -9.21875,5.53125 h -0.0312 l -9.28125,-5.5625 9.25,-5.53125 z m -111.71875,0.0312 9.28125,5.5625 -9.21875,5.53125 9.25,5.5625 -9.21875,5.53125 9.28125,5.5625 -9.25,5.53125 9.28125,5.5625 -9.25,5.53125 9.25,5.5625 -9.21875,5.53125 h -0.0312 l -9.25,-5.5625 9.21875,-5.53125 -9.28125,-5.5625 9.25,-5.53125 -9.25,-5.5625 9.21875,-5.53125 -9.25,-5.5625 9.21875,-5.53125 -9.28125,-5.5625 9.25,-5.53125 z m -9.1562,38.8126 -9.250003,5.53125 h -0.0312 l -9.25,-5.5625 9.21875,-5.53125 -9.25,-5.5625 9.21875,-5.53125 -4.625,-2.78125 -4.625,-2.78125 9.25,-5.53125 9.281253,5.5625 -9.218753,5.53125 9.250003,5.5625 -9.250003,5.53125 z m 18.53125,-11.0625 9.21875,-5.53125 -9.25,-5.5625 9.21875,-5.53125 h 0.0312 l 9.28125,5.5625 -9.25,5.53125 9.28125,5.5625 -9.21875,5.53125 9.25,5.5625 -9.21875,5.53125 9.25,5.5625 -9.25,5.53125 h -0.0312 l -4.625,-2.78125 -4.625,-2.78125 9.21875,-5.53125 -9.21875,-5.5625 9.21875,-5.53125 z m 176.5625,-27.65625 9.25,5.5625 -9.21875,5.53125 9.25,5.5625 -9.25,5.53125 9.28125,5.5625 -9.21875,5.53125 9.25,5.5625 -9.21875,5.53125 9.28125,5.5625 -9.25,5.53125 h -0.0312 l -9.25,-5.5625 9.21875,-5.53125 -4.625,-2.78125 -4.625,-2.78125 9.21875,-5.53125 -9.28125,-5.5625 9.21875,-5.53125 -4.625,-2.78125 -4.625,-2.78125 9.21875,-5.53125 -9.21875,-5.5625 9.21875,-5.53125 z m 9.40625,49.9375 9.21875,-5.53125 -9.25,-5.5625 9.21875,-5.53125 -4.625,-2.78125 -4.625,-2.78125 9.21875,-5.53125 -9.25,-5.5625 9.25,-5.53125 9.28125,5.5625 -9.21875,5.53125 9.25,5.5625 -9.25,5.53125 9.28125,5.5625 -9.25,5.53125 9.28125,5.5625 -9.21875,5.53125 9.25,5.5625 -9.21875,5.53125 h -0.0312 l -9.25,-5.5625 9.21875,-5.53125 -9.28125,-5.5625 z m 18.5,-11.0625 9.25,-5.53125 -9.25,-5.5625 9.21875,-5.53125 h 0.0312 l 9.28125,5.5625 -9.25,5.53125 9.28125,5.5625 -9.25,5.53125 9.25,5.5625 -9.21875,5.53125 9.25,5.5625 -9.21875,5.53125 9.28125,5.5625 -9.21875,5.53125 h -0.0312 l -9.28125,-5.5625 9.21875,-5.53125 -4.625,-2.78125 -4.625,-2.78125 9.21875,-5.53125 -9.25,-5.5625 9.21875,-5.53125 z m -120.96875,-38.875 9.3125,5.5625 -9.125,5.46875 9.25,5.53125 -9.25,5.53125 -9.25,-5.53125 9.09375,-5.46875 -9.28125,-5.5625 z m 0.1875,22.09375 9.28125,5.5625 -9.21875,5.53125 9.28125,5.5625 -9.25,5.53125 9.28125,5.5625 -9.21875,5.53125 h -0.0312 l -9.28125,-5.5625 9.21875,-5.53125 -9.25,-5.5625 9.21875,-5.53125 -4.625,-2.78125 -4.625,-2.78125 9.21875,-5.53125 z m 9.34375,16.65625 9.21875,-5.53125 -9.25,-5.5625 9.25,-5.53125 -9.28125,-5.5625 9.25,-5.53125 9.3125,5.5625 -9.25,5.53125 9.25,5.5625 -9.25,5.53125 9.28125,5.5625 -9.21875,5.53125 9.25,5.5625 -9.21875,5.53125 9.25,5.5625 -9.21875,5.53125 h -0.0312 l -9.28125,-5.5625 9.25,-5.53125 -9.25,-5.5625 9.21875,-5.53125 -9.28125,-5.5625 z m 213.59375,-38.6875 9.3125,5.5625 -9.25,5.53125 9.28125,5.5625 -9.21875,5.53125 h -0.0312 l -9.28125,-5.5625 9.21875,-5.53125 -4.625,-2.78125 -4.625,-2.78125 9.21875,-5.53125 z m -37.1875,0.0312 9.3125,5.5625 -9.25,5.53125 9.21875,5.5625 -9.25,5.53125 -9.25,-5.5625 9.25,-5.53125 -9.28125,-5.5625 z m 0.0312,22.18755 9.28125,5.5625 -9.21875,5.53125 9.28125,5.5625 -9.21875,5.53125 9.25,5.5625 -9.21875,5.53125 h -0.0312 l -9.28125,-5.5625 9.25,-5.53125 -9.28125,-5.5625 9.21875,-5.53125 -4.625,-2.78125 -4.625,-2.78125 z m 55.75,-11.09375 9.3125,5.5625 -9.25,5.53125 9.28125,5.5625 -9.25,5.53125 h -0.0312 l -9.25,-5.5625 9.21875,-5.53125 -4.625,-2.78125 -4.625,-2.78125 9.21875,-5.53125 z m 9.34375,16.65625 9.25,-5.53125 9.3125,5.5625 -9.25,5.53125 h -0.0312 L 454.92677,771.5 Z m -46.5625,-16.625 9.3125,5.5625 -9.25,5.53125 9.25,5.5625 -9.25,5.53125 -9.25,-5.5625 9.21875,-5.53125 -9.28125,-5.5625 z m 0.0625,22.1875 9.28125,5.5625 -9.21875,5.53125 9.28125,5.5625 -9.25,5.53125 9.28125,5.5625 -9.21875,5.53125 h -0.0312 l -9.28125,-5.5625 9.21875,-5.53125 -9.25,-5.5625 9.21875,-5.53125 -4.625,-2.78125 -4.625,-2.78125 9.21875,-5.53125 z m 9.34375,16.65625 9.21875,-5.53125 -9.25,-5.5625 9.25,-5.53125 -9.28125,-5.5625 9.25,-5.53125 9.3125,5.5625 -9.25,5.53125 9.25,5.5625 -9.25,5.53125 9.28125,5.5625 -9.21875,5.53125 h -0.0312 l -9.28125,-5.5625 z M 73.958017,765.6875 l 9.28125,5.5625 -9.21875,5.53125 h -0.0312 l -9.28125,-5.5625 9.25,-5.53125 z m 167.218753,0.125 9.3125,5.5625 -9.25,5.53125 9.21875,5.5625 -9.25,5.53125 -9.25,-5.5625 9.25,-5.53125 -9.28125,-5.5625 z m 0.0312,22.1875 9.28125,5.5625 -9.21875,5.53125 9.28125,5.5625 -9.21875,5.53125 9.25,5.5625 -9.21875,5.53125 h -0.0312 l -9.28125,-5.5625 9.25,-5.53125 -9.28125,-5.5625 9.21875,-5.53125 -4.625,-2.78125 -4.625,-2.78125 z m -93.03125,-22.1875 9.25,5.5625 -9.21875,5.53125 9.25,5.5625 L 148.23922,788 h -0.0312 l -4.625,-2.78125 -4.625,-2.78125 9.21875,-5.53125 -9.25,-5.5625 9.21875,-5.53125 z m 111.5625,11.125 9.3125,5.5625 -9.25,5.53125 9.25,5.5625 -9.25,5.53125 -9.25,-5.5625 9.21875,-5.53125 -9.28125,-5.5625 z m 0.0625,22.1875 9.28125,5.5625 -9.21875,5.53125 9.28125,5.5625 -9.25,5.53125 9.28125,5.5625 -9.21875,5.53125 h -0.0312 l -9.28125,-5.5625 9.21875,-5.53125 -9.25,-5.5625 9.21875,-5.53125 -4.625,-2.78125 -4.625,-2.78125 9.21875,-5.53125 z m 9.34375,16.65625 9.21875,-5.53125 -9.25,-5.5625 9.25,-5.53125 -9.28125,-5.5625 9.25,-5.53125 9.3125,5.5625 -9.25,5.53125 9.25,5.5625 -9.25,5.53125 9.28125,5.5625 -9.21875,5.53125 9.25,5.5625 -9.21875,5.53125 9.25,5.5625 -9.21875,5.53125 h -0.0312 l -9.28125,-5.5625 9.25,-5.53125 -9.25,-5.5625 9.21875,-5.53125 -9.28125,-5.5625 z m 83.53125,-38.75 9.25,5.5625 -9.21875,5.53125 9.25,5.5625 -9.25,5.53125 9.28125,5.5625 -9.21875,5.53125 9.25,5.5625 -9.21875,5.53125 9.28125,5.5625 -9.25,5.53125 h -0.0312 l -9.25,-5.5625 9.21875,-5.53125 -4.625,-2.78125 -4.625,-2.78125 9.21875,-5.53125 -9.28125,-5.5625 9.21875,-5.53125 -4.625,-2.78125 -4.625,-2.78125 9.21875,-5.53125 -9.21875,-5.5625 9.21875,-5.53125 z m 9.40625,49.9375 9.21875,-5.53125 -9.25,-5.5625 9.21875,-5.53125 -4.625,-2.78125 -4.625,-2.78125 9.21875,-5.53125 -9.25,-5.5625 9.25,-5.53125 9.28125,5.5625 -9.21875,5.53125 9.25,5.5625 -9.25,5.53125 9.28125,5.5625 -9.25,5.53125 9.28125,5.5625 -9.21875,5.53125 h -0.0312 l -9.28125,-5.5625 z m 18.5,-11.0625 9.25,-5.53125 -9.25,-5.5625 9.21875,-5.53125 h 0.0312 l 9.28125,5.5625 -9.25,5.53125 9.28125,5.5625 -9.25,5.53125 h -0.0312 z m 64.96875,-38.78125 9.3125,5.5625 -9.25,5.53125 h -0.0312 l -9.28125,-5.5625 9.25,-5.53125 z M 129.86427,799 l 9.28125,5.5625 -9.21875,5.53125 h -0.0312 l -9.28125,-5.5625 9.25,-5.53125 z m 74.21875,0.125 9.25,5.5625 -9.21875,5.53125 9.25,5.5625 -9.21875,5.53125 9.28125,5.5625 -9.21875,5.53125 9.25,5.5625 -9.25,5.53125 9.28125,5.5625 -9.25,5.53125 h -0.0312 l -9.25,-5.5625 9.21875,-5.53125 -4.625,-2.78125 -4.625,-2.78125 9.21875,-5.53125 -9.25,-5.5625 9.21875,-5.53125 -4.625,-2.78125 -4.625,-2.78125 9.21875,-5.53125 -9.25,-5.5625 9.21875,-5.53125 z m 9.40625,49.9375 9.25,-5.53125 -9.25,-5.5625 9.21875,-5.53125 -4.625,-2.78125 -4.625,-2.78125 9.21875,-5.53125 -9.28125,-5.5625 9.25,-5.53125 9.28125,5.5625 -9.21875,5.53125 9.25,5.5625 -9.21875,5.53125 9.28125,5.5625 -9.25,5.53125 9.28125,5.5625 -9.25,5.53125 9.25,5.5625 -9.21875,5.53125 h -0.0312 l -9.25,-5.5625 9.21875,-5.53125 -9.28125,-5.5625 z M 232.02052,838 l 9.21875,-5.53125 -9.25,-5.5625 9.21875,-5.53125 h 0.0312 l 9.28125,5.5625 -9.25,5.53125 9.28125,5.5625 -9.21875,5.53125 9.25,5.5625 -9.21875,5.53125 9.25,5.5625 -9.25,5.53125 9.28125,5.5625 -9.21875,5.53125 h -0.0312 l -9.28125,-5.5625 9.21875,-5.53125 -4.625,-2.78125 -4.625,-2.78125 9.21875,-5.53125 -9.21875,-5.5625 9.21875,-5.53125 z m 64.90625,-38.8125 9.3125,5.5625 -9.25,5.53125 9.21875,5.5625 -9.25,5.53125 -9.25,-5.5625 9.25,-5.53125 -9.28125,-5.5625 z m 0.0312,22.1875 9.28125,5.5625 -9.21875,5.53125 9.28125,5.5625 -9.21875,5.53125 9.25,5.5625 -9.21875,5.53125 h -0.0312 l -9.28125,-5.5625 9.25,-5.53125 -9.28125,-5.5625 9.21875,-5.53125 -4.625,-2.78125 -4.625,-2.78125 9.21875,-5.53125 z m 18.53125,-11.0625 9.3125,5.5625 -9.25,5.53125 9.25,5.5625 -9.25,5.53125 -9.25,-5.5625 9.21875,-5.53125 -9.28125,-5.5625 z m 0.0625,22.1875 9.28125,5.5625 -9.21875,5.53125 9.28125,5.5625 -9.25,5.53125 9.28125,5.5625 -9.21875,5.53125 h -0.0312 l -9.28125,-5.5625 9.21875,-5.53125 -9.25,-5.5625 9.21875,-5.53125 -4.625,-2.78125 -4.625,-2.78125 9.21875,-5.53125 z m 9.34375,16.65625 9.21875,-5.53125 -9.25,-5.5625 9.25,-5.53125 -9.28125,-5.5625 9.25,-5.53125 9.3125,5.5625 -9.25,5.53125 9.25,5.5625 -9.25,5.53125 9.28125,5.5625 -9.21875,5.53125 h -0.0312 l -9.28125,-5.5625 z M 259.83302,832.5 l 9.25,5.5625 -9.21875,5.53125 9.25,5.5625 -9.21875,5.53125 9.28125,5.5625 -9.21875,5.53125 9.25,5.5625 -9.25,5.53125 9.28125,5.5625 -9.25,5.53125 h -0.0312 l -9.25,-5.5625 9.21875,-5.53125 -4.625,-2.78125 -4.625,-2.78125 9.21875,-5.53125 -9.25,-5.5625 9.21875,-5.53125 -4.625,-2.78125 -4.625,-2.78125 9.21875,-5.53125 -9.25,-5.5625 9.21875,-5.53125 z m 9.40625,49.9375 9.25,-5.53125 -9.25,-5.5625 9.21875,-5.53125 -4.625,-2.78125 -4.625,-2.78125 9.21875,-5.53125 -9.28125,-5.5625 9.25,-5.53125 9.28125,5.5625 -9.21875,5.53125 9.25,5.5625 -9.21875,5.53125 9.28125,5.5625 -9.25,5.53125 9.28125,5.5625 -9.25,5.53125 h -0.0312 l -9.28125,-5.5625 z m 18.53125,-11.0625 9.21875,-5.53125 -9.25,-5.5625 9.21875,-5.53125 h 0.0312 l 9.28125,5.5625 -9.25,5.53125 9.28125,5.5625 -9.21875,5.53125 h -0.0312 z m 64.90625,-38.8125 9.3125,5.5625 -9.25,5.53125 h -0.0312 l -9.28125,-5.5625 9.25,-5.53125 z"
       id="path3982" />
    <path
       style="fill:#ffff00"
       id="path1737"
       d="m 226.76117,731.75777 c 1.00984,1.31101 2.34118,2.34408 3.54736,3.4692 0.36008,0.32635 2.09383,1.4723 1.90894,2.06919 -0.12122,0.39131 -1.98935,2.66811 -2.00468,3.28079 -0.008,0.32558 0.52695,0.3829 0.79042,0.57435 1.52447,0.90835 3.0734,1.77867 4.54849,2.76949 2.9334,1.72202 -0.1797,0.88686 5.42208,-0.72051 0.34899,-0.10013 0.71307,0.13723 1.06929,0.20744 0.30885,0.0609 0.63534,0.0647 0.92592,0.18581 0.25102,0.10459 0.44169,0.31733 0.66254,0.476 1.1564,0.77426 2.20499,1.69743 3.37665,2.45065 0.62642,0.40434 1.19975,0.87341 1.79554,1.31811 0.21315,0.1591 0.54092,0.21266 0.65789,0.45154 0.14074,0.28743 0.19456,0.68324 0.0331,0.95954 -0.4399,0.75264 -1.15784,1.30358 -1.73676,1.95537 -0.11386,0.35273 -0.39743,0.69177 -0.34157,1.05818 0.0372,0.24397 0.38458,0.3094 0.57415,0.46741 0.67502,0.56264 1.38056,1.07671 2.02793,1.67241 1.01261,1.0847 2.12916,2.0548 3.33665,2.91509 1.93956,-0.70891 3.53114,-1.98569 5.55278,-1.3167 0.31031,0.10269 0.52528,0.38929 0.79331,0.57637 0.64314,0.44888 1.2845,0.87967 1.90618,1.3591 0.59496,0.45101 1.19255,0.89873 1.77282,1.3687 0.19757,0.16001 0.44656,0.27478 0.5875,0.48637 0.15454,0.23203 0.16492,0.53306 0.26485,0.79332 0.086,0.22385 0.1948,0.43823 0.29219,0.65734 0.87047,1.24752 2.25974,1.95463 3.32996,2.99746 0.77802,0.83058 1.97822,1.01795 2.84533,1.70596 1.20676,0.95751 -0.29649,0.23459 1.235,0.84355 0.0574,0.0404 1.09215,0.75722 1.12207,0.8291 0.0887,0.21298 -0.15029,0.46348 -0.0901,0.68617 0.049,0.18123 0.37344,0.2225 0.38638,0.40979 0.0596,0.86202 -2.43572,2.52186 -2.59239,2.65616 0.73102,0.58743 1.41357,1.2452 2.00713,1.97013 0.873,0.9022 1.71952,1.83315 2.62863,2.70075 1.64271,2.06557 0.54561,0.63323 4.63522,-0.525 0.14716,-0.0417 1.2628,0.47829 1.40295,0.5899 0.15532,0.1237 0.24356,0.31367 0.36534,0.4705 0.42085,0.47404 0.77171,0.99608 1.10838,1.53075 0,0 -12.42068,7.20665 -12.42068,7.20665 v 0 c -0.28772,-0.49812 -0.60123,-0.97289 -1.00046,-1.3921 -0.12743,-0.16 -0.3011,-0.29227 -0.38227,-0.48002 -0.0593,-0.13714 -0.17477,-1.15924 -0.0569,-1.28531 2.84765,-3.04688 3.73013,-1.55763 2.09314,-3.49966 -0.90563,-0.89778 -1.84069,-1.76432 -2.74051,-2.66815 -0.66851,-0.65748 -1.33255,-1.30795 -2.05994,-1.90009 -0.96979,0.44993 -1.90515,0.98305 -2.90935,1.34979 -1.89165,0.69083 -0.44522,0.0274 -1.45221,-0.18812 -0.33599,-0.0719 -0.69887,0.0671 -1.03054,-0.0226 -0.42973,-0.11627 -0.57349,-0.78325 -1.06809,-0.80181 -1.7164,-2.19718 0.97911,1.13347 -1.17152,-1.08649 -0.65888,-0.68011 -0.73535,-1.85048 -1.65038,-2.34108 -1.26186,-0.88085 -2.3458,-1.96853 -3.48771,-2.99545 -0.267,-0.12261 -0.52804,-0.25915 -0.801,-0.36784 -0.28066,-0.11176 -0.59073,-0.15135 -0.85773,-0.29267 -0.21536,-0.114 -0.37617,-0.30987 -0.56697,-0.46143 -0.5891,-0.46795 -1.19817,-0.9095 -1.80062,-1.35985 -0.33214,-0.2707 -2.33908,-1.81189 -2.43804,-1.97754 -0.17102,-0.28625 -0.39059,-0.6889 -0.22054,-0.97573 0.60443,-1.01948 1.5802,-1.76682 2.37031,-2.65024 -1.2186,-0.90915 -2.52154,-1.71577 -3.54955,-2.85323 -0.32106,-0.30548 -2.25206,-2.13819 -2.47212,-2.17575 -0.50031,-0.0854 -1.01219,0.0767 -1.51829,0.11498 -1.28226,0.4249 -2.75849,1.32589 -4.21341,0.90173 -0.26092,-0.0761 -0.43771,-0.32251 -0.66213,-0.47582 -0.6111,-0.41747 -1.27341,-0.75536 -1.8513,-1.22064 -1.14031,-0.79552 -2.20113,-1.68819 -3.33411,-2.49291 -0.20096,-0.13031 -0.4311,-0.22404 -0.60288,-0.39095 -0.0671,-0.0652 -0.82044,-1.15411 -0.73392,-1.28033 2.32524,-3.39211 3.82352,-1.82001 1.16482,-3.50923 -1.51184,-0.92506 -3.00661,-1.87869 -4.50421,-2.82582 -0.26199,-0.18324 -0.46628,-0.54661 -0.78598,-0.54973 -0.79274,-0.008 -4.46734,1.11542 -5.14364,1.1593 -0.74704,0.0485 -1.39421,-0.62206 -1.88352,-1.04853 -0.25071,-0.21851 -0.49406,-0.44533 -0.74108,-0.668 -1.32069,-1.12335 -2.68928,-2.19154 -4.06593,-3.24526 0,0 12.40185,-7.59986 12.40185,-7.59986 z"
       inkscape:connector-curvature="0" />
    <path
       style="fill:#ffff00"
       id="path1739"
       d="m 283.02942,778.28848 c -0.68275,0.17639 -1.47758,0.0348 -2.14586,0.25575 -1.10484,0.36527 -2.5373,1.25698 -3.44904,1.76499 -1.33638,-0.0817 -2.3447,0.7442 -3.4894,1.26412 -1.25077,0.4266 -2.47893,0.97488 -3.64227,1.60654 22.65978,-13.01134 -0.67309,0.41207 -1.01584,0.60747 -2.87506,1.63907 5.7351,-3.30431 8.60266,-4.95646 -3.20646,1.84455 -6.40714,3.6992 -9.61939,5.53364 -2.84629,1.62544 5.67782,-3.2766 8.52147,-4.90665 0.19922,-0.11419 -0.39198,0.23932 -0.58796,0.35898 -0.597,0.25215 -1.04154,0.78643 -1.60651,1.08223 -0.89118,0.46659 -1.8369,0.82675 -2.71519,1.31718 -0.12195,0.0681 -0.13716,0.25291 -0.24826,0.33756 -0.33565,0.25575 -0.71607,0.44666 -1.07411,0.66998 -0.78635,0.72172 -1.53803,1.47989 -2.28559,2.24139 -0.64351,0.63107 -1.23657,1.30984 -1.86349,1.95652 -1.43594,1.49244 -0.87596,0.55971 2.26348,-0.23256 0.0733,-0.0185 0.052,0.14548 0.10109,0.20287 0.29016,0.33897 0.35832,-0.0888 -0.0831,0.59397 -0.777,1.11224 -1.52805,2.24966 -2.32188,3.35564 -1.24081,1.13344 -1.72353,2.99261 -3.14715,3.94194 -1.22309,0.8156 -2.53279,1.49319 -3.79919,2.23978 0.33727,0.1257 -0.66014,0.9887 -0.29824,1.14753 0.53815,0.23619 2.91319,-0.59671 3.33817,-0.61545 0.16953,-0.007 0.18911,0.28189 0.28805,0.41976 0.10105,0.14081 0.20786,0.2774 0.31179,0.4161 -0.0537,1.0626 0.018,2.10653 0.1994,3.15193 0.19473,1.0341 0.74942,1.93714 1.27509,2.83046 -0.0269,0.64595 -0.0522,1.48044 0.4141,2.01217 0.14976,0.17077 1.16054,0.73041 1.33739,0.85129 0.20519,0.14026 0.39168,0.30609 0.58752,0.45914 0.79378,0.70845 1.65266,1.46227 2.61807,1.93558 0.37366,0.22077 0.83715,0.11893 1.23033,0.22941 0.16483,0.0463 0.29884,0.17801 0.46557,0.21693 1.08556,0.25344 0.30699,-0.2114 1.02488,0.3047 -0.19263,0.50677 1.12416,0.17443 0.93565,0.46778 -0.54651,0.85046 -3.09651,1.98669 -2.1049,2.18335 1.32337,0.26245 2.34258,-1.35003 3.57847,-1.89111 0.21044,-0.0921 2.23189,-0.37626 2.4886,-0.4142 0.4326,-0.0784 0.86007,-0.19411 1.2978,-0.23504 0.69125,-0.0647 1.38837,0.0233 2.08262,0.0262 1.0647,0.005 2.12862,-6e-5 3.19314,-0.0182 1.99455,0.004 3.9892,0.0103 5.98342,-0.0296 0.27892,-0.007 0.55784,-0.0134 0.83675,-0.0201 0.0618,0.10635 0.0627,0.30963 0.18536,0.31906 0.26556,0.0204 0.92661,-0.45425 0.76011,-0.24636 -0.64174,0.80129 -1.62335,1.29031 -2.24841,2.10468 -0.20507,0.26718 0.74702,-0.21696 1.57814,-0.62128 0.44619,-0.28688 0.86244,-0.62678 1.33857,-0.86063 0.0553,-0.0272 -8e-4,0.20553 0.0537,0.17683 0.60506,-0.31861 1.09935,-0.83332 1.72351,-1.11266 0.16237,-0.0727 -0.41736,0.55831 -0.26822,0.46135 3.45274,-2.24471 3.55797,-3.932 3.39077,-2.25572 0.76182,-0.5002 1.52176,-0.81205 2.29288,-1.26485 0.13378,-0.0786 0.53267,-0.31833 0.3981,-0.24112 -9.29554,5.33286 -19.39762,11.17274 1.15404,-0.68994 -3.42557,1.97608 -6.84933,3.9553 -10.27671,5.92825 -0.2304,0.13263 0.45583,-0.27377 0.68574,-0.40726 3.92102,-2.27661 7.84032,-4.5562 11.76701,-6.82301 3.40849,-1.96766 -6.80431,3.95723 -10.21242,5.92557 -0.24628,0.14224 0.48607,-0.29547 0.72667,-0.44711 0.25273,-0.15928 0.50216,-0.32373 0.75324,-0.4856 1.62566,-0.96332 3.25972,-1.90007 4.76515,-3.04675 0.33143,-0.21628 0.63957,-0.47337 0.9943,-0.64883 1.33745,-0.66153 2.73605,-1.19444 4.07277,-1.85745 0.74423,-0.36913 1.86091,-1.44529 2.51324,-2.01363 1.14769,-1.10347 2.31247,-2.18987 3.42088,-3.33327 -0.91569,10e-4 -1.75262,0.46794 -2.65171,0.54447 -0.0976,0.008 -0.23873,-0.11968 -0.20426,-0.2114 0.0675,-0.17976 1.21817,-1.3523 1.42346,-1.60838 0.90656,-1.25969 1.72903,-2.57737 2.43858,-3.95755 0.4362,-0.92805 0.13722,-0.42879 0.89379,-1.34907 1.93387,-2.35232 -1.18471,1.17488 4.43918,-3.09412 0.0294,-0.0224 0.43869,-1.50127 0.44434,-1.52138 -0.84513,-0.0859 -2.65419,0.40951 -3.40554,-0.21591 -0.40892,-0.34037 -0.11551,-1.33259 -0.0864,-1.75908 0.16625,-1.07381 -0.16262,-2.32348 0.33873,-3.33442 0.20525,-0.41389 0.50543,-0.77348 0.75814,-1.16022 2.40879,-1.68149 3.23534,-1.69347 2.47526,-3.88447 -0.0795,-0.22927 -0.0427,-0.70445 -0.28303,-0.67074 -5.03444,0.70626 -2.17077,1.84312 -4.20548,0.90534 -0.25201,-0.0971 -0.53174,-0.14098 -0.75603,-0.29144 -0.16396,-0.10999 -0.24046,-0.31346 -0.36902,-0.4633 -0.58486,-0.68166 -1.2215,-1.31694 -1.9599,-1.82624 -1.24118,-1.00372 -2.73215,-1.45477 -4.2849,-1.6733 -0.2259,-0.0189 -0.47445,0.0438 -0.67769,-0.0566 -0.1277,-0.0631 -0.0803,-0.30109 -0.20068,-0.37721 -0.16086,-0.10172 -0.68117,0.0432 -0.56131,-0.10465 2.09264,-2.58138 3.78323,-2.3039 1.25171,-2.27497 -0.66317,0.12599 -1.87634,-0.1871 -2.47198,0.0615 -0.73345,0.30617 -1.40693,0.73981 -2.11094,1.10866 -0.67378,0.35301 -1.34828,0.70462 -2.02242,1.05693 -0.99872,1.4e-4 -1.92563,0.39874 -2.90483,0.51294 -0.0954,0.0111 -1.10241,0.009 -1.20493,0.01 -1.17201,0.0181 -2.34369,-0.006 -3.51569,-0.003 -1.11168,0.007 -2.22334,0.0153 -3.33504,0.0196 -0.29986,-0.16609 -0.72773,0.16752 -1.028,0.002 -0.0954,-0.0525 0.012,-0.24541 -0.0677,-0.31953 -0.11062,-0.10281 -0.35472,-0.012 -0.42991,-0.14296 -0.0871,-0.15174 0.22226,-0.53529 0.0477,-0.52273 -0.46673,0.0336 -0.84282,0.40684 -1.26424,0.61026 0.24716,-0.28767 0.47893,-0.58932 0.74148,-0.86303 0.33817,-0.35253 0.76993,-0.61938 1.05857,-1.01349 0.0658,-0.0898 -0.22684,-0.01 -0.33328,0.0232 -0.53322,0.16406 -1.70901,0.99684 -1.8765,1.12016 -0.8863,0.65252 -1.73344,1.35663 -2.60016,2.03494 -0.20312,0.0977 -0.41594,0.17743 -0.60937,0.29317 -0.32333,0.19346 -1.26476,0.81818 -0.93709,0.63215 3.9537,-2.2447 7.86427,-4.56478 11.81786,-6.80967 0.16199,-0.092 -0.29338,0.2297 -0.43748,0.34777 -0.0633,0.0519 -0.91275,0.77114 -0.94343,0.79709 -0.70159,0.69935 -1.70303,1.05672 -2.40652,1.74579 -0.0809,0.0792 -0.10625,0.19996 -0.15937,0.29994 -0.20168,0.15349 -0.40336,0.30699 -0.60505,0.46049 -0.65675,0.68161 -1.47231,0.94379 -2.30129,1.36246 -0.3647,0.18418 -0.74052,0.46051 -1.07589,0.69485 -0.79636,0.56774 -1.42231,1.2677 -2.01186,2.04025 -0.28408,0.49225 -1.84896,2.69432 -1.87273,3.10507 -0.008,0.1443 0.17639,0.22904 0.26458,0.34355 0.27809,0.0588 0.68842,-0.0677 0.83427,0.17627 0.13546,0.22658 -0.18126,0.49629 -0.2878,0.73783 -0.11349,0.25729 -0.16088,0.57126 -0.37172,0.75734 -0.65102,0.57456 -1.41651,1.00614 -2.15106,1.46915 -2.99127,1.88548 -2.07411,0.6709 -3.01715,2.08588 -0.68011,0.89288 -1.36929,1.78095 -2.08686,2.64459 -0.56802,0.66311 -1.20838,1.2318 -1.70882,1.95085 -1.30582,1.9825 -0.83399,0.65294 2.24909,0.15592 0.14274,-0.023 -0.12925,0.28232 -0.0959,0.42301 0.19128,0.80746 0.94332,-0.48432 -0.30651,0.93974 -2.07626,2.30704 0.21017,0.62998 -4.46359,3.23829 0,0 -5.60961,2.4603 -5.60961,2.4603 v 0 c -5.23776,1.50913 -2.72922,1.38496 -2.33311,0.27682 0.0415,-0.1161 -0.0356,-0.24401 -0.0533,-0.36601 0.11889,-1.05046 -0.0978,-0.29251 1.04158,-1.3807 0.22149,-0.21154 0.3444,-0.52994 0.60406,-0.69237 2.82354,-1.76625 3.28598,-0.99167 4.23838,-2.98064 0.47369,-0.77541 1.02179,-1.4083 1.67831,-2.03243 0.82252,-0.80001 1.48257,-1.74866 2.22068,-2.62521 0.12229,-0.16756 0.57429,-0.50115 0.36687,-0.50266 -0.20742,-0.002 -3.11892,0.8478 -3.38816,0.76148 -0.21985,-0.0705 0.19672,-0.41776 0.29021,-0.62885 0.57092,-1.2891 0.0222,-0.44351 1.65517,-1.93245 0.26454,-0.31655 0.55474,-0.61331 0.79362,-0.94965 0.13822,-0.19461 0.21511,-0.42636 0.33163,-0.6347 0.47239,-0.84468 0.99261,-1.66312 1.42877,-2.52766 0.46691,-0.83847 0.96438,-1.73355 1.78549,-2.26924 0.14739,-0.15372 0.46698,-0.50281 0.64466,-0.62491 0.12731,-0.0875 0.42064,-0.0576 0.41218,-0.2118 -0.008,-0.14085 -0.33013,0.13517 -0.42224,0.0283 -0.17672,-0.20497 1.06155,-0.0758 0.70757,-0.39811 0.70823,-0.85784 -0.46865,0.51143 0.93191,-0.76825 0.40925,-0.37394 0.55558,-1.05923 1.07757,-1.34325 0.42394,-0.31697 0.78158,-0.81474 1.2279,-1.08382 4.21953,-2.54389 8.47858,-5.02165 12.71787,-7.53248 0.12045,0.23016 0.0215,0.13569 0.40708,-0.0515 -0.5723,0.5171 -1.16519,1.01229 -1.71689,1.55131 -0.13996,0.13673 -0.44509,0.29784 -0.35184,0.46986 0.0858,0.15837 0.34257,-0.1121 0.51071,-0.17679 0.24049,-0.0925 0.48977,-0.16887 0.71468,-0.29463 0.73025,-0.40833 1.42971,-0.86943 2.14457,-1.30415 0.62848,-0.34327 1.25695,-0.68655 1.88542,-1.02982 -0.0121,0.16314 -0.19998,0.49345 -0.0364,0.48943 0.49524,-0.0122 0.91679,-0.38013 1.39121,-0.52273 0.2668,-0.0802 0.55391,-0.0726 0.82346,-0.14296 0.79643,-0.20802 1.1553,-0.42323 1.96866,-0.31711 1.09365,0.004 2.18728,0.0124 3.28092,0.0198 1.17416,0.003 2.34803,-0.0204 3.5222,-0.003 0.0587,2e-5 1.11488,-0.002 1.17847,0.009 1.13139,0.19234 -0.25388,0.0621 0.59192,0.37278 0.28658,0.10528 0.62928,-0.0414 0.90638,0.13184 -0.29332,0.35085 -0.58581,0.7024 -0.87996,1.05256 -0.3095,0.36843 -0.77422,0.64827 -0.93099,1.10319 -0.0335,0.0972 1.6481,0.0348 1.776,0.0343 0.18786,-7.6e-4 0.37569,0.004 0.56353,0.007 0.19656,0.004 0.39315,0.007 0.58968,0.0122 0.20727,0.006 0.43621,0.11324 0.6217,0.0206 8.47706,-4.23514 1.52573,-1.84668 4.65142,-2.27054 1.73722,-0.23558 0.64349,-0.3678 1.91149,-0.10309 1.67695,0.45505 3.19454,1.22765 4.63898,2.19472 0.47564,0.38645 2.51556,2.207 2.65776,2.70966 0.0744,0.26289 -0.0493,0.54418 -0.0739,0.81627 0.0629,2.41714 0.22021,-0.38178 -3.01287,3.35247 -0.16889,0.19507 0.17556,0.48534 0.25614,0.73046 0.70291,2.1382 0.56255,1.77588 3.67314,0.76078 0.30868,0.10937 0.668,0.12646 0.92602,0.32811 0.67139,0.5247 0.31219,2.45794 0.34108,3.22436 -0.009,0.12243 -0.0863,1.24517 -0.11544,1.34619 -0.61797,2.14368 -3.28686,3.48125 -4.76422,4.93147 -0.22197,0.78771 -0.43945,1.5328 -0.38732,1.53036 1.14176,-0.0535 2.17094,-0.7675 3.30412,-0.91708 0.0464,-0.006 0.15917,0.94384 0.15909,0.94418 -0.0553,0.23126 -0.2183,0.42247 -0.32744,0.6337 -0.66618,1.44542 -1.50383,2.81118 -2.3383,4.16395 -0.37294,0.59991 -0.76165,1.31762 -1.31958,1.77375 -1.7214,1.40733 -3.87009,2.15279 -5.75983,3.28667 -1.12214,1.13848 -2.28536,2.23482 -3.4054,3.37552 -0.61765,0.51408 -1.21141,1.03961 -1.8404,1.53916 -0.19812,0.15736 -0.83309,0.52651 -0.58342,0.48554 2.29803,-0.37711 3.4069,-1.57924 2.09845,-0.33054 -1.57912,1.08073 -3.05737,2.31776 -4.80988,3.13137 -0.48926,0.31827 -0.95481,0.67389 -1.45783,0.96993 -3.89625,2.293 -7.83774,4.50912 -11.71765,6.82965 -3.39652,2.03142 6.84422,-3.97601 10.26736,-5.96225 0.22924,-0.13301 -0.45634,0.26971 -0.68567,0.40256 -3.84817,2.22939 -7.69789,4.4561 -11.54683,6.68415 25.50856,-14.75097 1.05084,-0.60479 -1.23727,0.7058 -0.16231,0.093 -0.33895,0.1583 -0.50843,0.23745 -0.0659,9.1e-4 -0.13652,-0.0217 -0.19772,0.003 -0.8307,0.33242 -0.89639,0.69266 -0.6538,0.0837 -2.97026,1.85181 0.15959,0.002 0.91164,-1.1671 0.32488,-0.50485 -0.95562,0.76817 -1.5252,0.95787 -0.25699,0.0856 0.78602,-0.68005 0.52114,-0.62347 -1.44332,0.30829 -1.07252,1.30746 -1.29172,0.59111 -0.25608,0.10123 -0.50762,0.21479 -0.76824,0.30371 -0.26431,0.0902 -0.56472,0.0903 -0.80478,0.23298 -8.16605,4.85462 -1.59675,1.91854 -4.94966,2.77039 -2.00508,0.50942 -0.71501,0.45727 -2.17733,0.4204 -1.96983,-0.0405 -3.94017,-0.0294 -5.91031,-0.0226 -1.05079,-0.0169 -2.101,-0.0185 -3.15192,-0.0156 -0.71856,0.002 -1.44401,0.11518 -2.15562,0.0155 -0.22763,-0.0319 -0.42833,-0.16691 -0.6425,-0.25036 -0.64938,-0.19107 -1.34789,-0.37623 -1.29215,-0.48457 0.39985,-0.77708 2.61642,-2.00972 1.74406,-1.95751 -1.47427,0.0882 -2.55432,1.49738 -3.90841,2.08703 -0.29217,0.12723 -0.63783,0.006 -0.9555,0.031 -0.35589,0.0282 -0.70883,0.086 -1.06324,0.12892 -2.16972,0.0991 0.008,0.12989 -1.35956,-0.15946 -0.21008,-0.0445 -0.43112,-0.001 -0.64326,-0.0344 -0.56315,-0.0882 -1.07195,-0.3518 -1.54847,-0.6496 -0.98913,-0.72333 -1.94514,-1.51805 -2.76162,-2.43321 -0.1031,-0.22469 -0.22919,-0.44019 -0.30929,-0.67406 -5.5e-4,-0.002 -0.35128,-1.47942 -0.356,-1.4882 -0.35719,-0.66464 -1.23199,-0.94701 -1.83356,-1.30195 -0.60353,-1.04607 -1.26395,-2.07478 -1.56517,-3.26045 -0.18952,-1.14011 -0.38506,-2.25981 -0.27498,-3.42319 0.004,-0.0103 0.68385,-1.57551 0.68594,-1.57754 0.67518,-0.65476 2.85986,-2.01799 3.61113,-2.92596 0.27771,-0.33563 -0.0182,-0.9517 0.3459,-1.26027 -1.08854,0.30495 -2.14339,0.77888 -3.26563,0.91486 -0.18175,0.022 -0.27114,-0.30691 -0.25044,-0.48882 0.0739,-0.64897 1.55646,-2.49882 1.95615,-3.11592 0.45574,-0.52451 0.90625,-1.10594 1.24847,-1.71403 0.28272,-0.50235 0.41838,-1.0421 0.92166,-1.39841 0.36962,-0.63328 1.14905,-1.46812 1.79186,-1.82161 4.38636,-2.41215 2.74305,-0.76401 4.33394,-2.60553 0.68396,-0.59176 1.19219,-1.35626 1.86757,-1.95869 0.80759,-0.70947 1.52005,-1.52106 2.29451,-2.26399 -0.0454,-0.0525 -0.17994,-0.10368 -0.13623,-0.15765 0.19609,-0.24214 1.04128,-0.53225 0.73332,-0.57966 -0.55923,-0.0861 -1.07364,0.44858 -1.63939,0.44017 -0.69871,-0.0104 2.24914,-1.34809 1.56657,-1.24453 3.481,-1.97195 6.03583,-3.41643 10.23282,-5.93702 2.84296,-1.7074 -11.48497,6.63762 -8.61101,4.98292 31.93026,-18.38396 -21.30806,12.22473 10.65979,-6.12531 1.18551,-0.53168 2.38565,-1.02561 3.57631,-1.54381 1.20265,-0.62136 2.43126,-1.01868 3.8028,-1.00873 -0.33328,0.37209 -0.71603,0.70521 -0.99982,1.11629 -0.0825,0.11943 -0.18986,0.35165 -0.0678,0.4301 0.23896,0.15351 1.97899,-0.3999 2.38453,-0.35273 0,0 -4.28383,3.11238 -4.28383,3.11238 z"
       inkscape:connector-curvature="0" />
    <path
       style="fill:#ffff00"
       id="path1741"
       d="m 227.14392,735.86535 c -0.45795,1.09345 -1.05782,2.11473 -1.58121,3.17728 -0.28336,0.29567 -0.71144,1.90948 -0.9561,2.09633 -0.61185,0.46728 -1.32555,0.78386 -1.97648,1.19496 -0.38846,0.24533 -0.76046,0.51579 -1.14068,0.77369 0.24865,-0.0143 -0.69515,0.64514 -0.43019,0.77755 0.22718,0.11353 0.56387,-0.19319 0.76115,-0.0333 0.13168,0.10673 -0.43514,0.38029 -0.27282,0.42909 0.37373,0.11237 0.76938,-0.15001 1.15944,-0.1625 0.19417,-0.006 0.38193,0.0713 0.5729,0.10703 -0.0843,0.12938 -0.16858,0.25876 -0.25287,0.38815 -0.0319,0.113 -0.0378,0.23689 -0.0958,0.33902 -0.0822,0.14483 -0.22548,0.24717 -0.31621,0.38683 -0.0424,0.0653 -0.052,0.14666 -0.078,0.22 -0.0104,0.0855 0.0154,0.18393 -0.0312,0.25636 -0.0927,0.14427 -0.24393,0.24108 -0.36589,0.36163 -1.6552,1.4776 -3.78773,2.03133 -5.72927,3.03418 -1.75897,0.90855 -3.43194,1.97508 -5.16421,2.93355 -1.20853,0.66868 2.39523,-1.37607 3.59285,-2.06411 -13.78993,7.93089 -0.87499,0.51114 -1.3151,0.76215 -2.27997,1.30034 -4.29357,2.60107 -6.64263,3.60135 -0.09,0.0445 -1.14197,0.56452 -1.17582,0.57774 -0.83598,0.32639 -0.16557,-0.28551 -1.42222,0.54341 -3.41668,2.25377 -2.12781,3.10733 -3.34921,2.23662 -0.71272,0.61004 -1.53928,0.78281 -2.37894,1.09435 -0.20648,0.0766 -0.38996,0.22418 -0.60717,0.26056 -0.0684,0.0114 -0.0948,-0.153 -0.16081,-0.13192 -0.36933,0.11785 -0.69493,0.34389 -1.04239,0.51584 0.39484,-0.76742 1.16395,-1.22944 1.65167,-1.91786 0.28701,-0.40512 -0.34576,0.0332 -0.67608,0.0741 -0.41974,0.0519 -0.32541,-0.34012 -0.38671,-0.63697 0.10262,-0.70164 1.26888,-0.84521 1.52769,-1.34118 0.0494,-0.0947 -0.2055,-0.10822 -0.30936,-0.0834 -0.75001,0.1795 -1.47298,0.45747 -2.20947,0.68621 0.13101,-0.0975 0.30564,-0.15452 0.39304,-0.29247 0.0314,-0.0495 -0.17808,-0.0568 -0.14231,-0.10326 0.12313,-0.15975 1.57993,-1.1086 1.8778,-1.3499 0.40568,-0.29676 0.82305,-0.60516 1.25935,-0.85636 42.44597,-24.43871 -28.86225,16.72906 13.65756,-7.87051 -20.63742,13.29015 -13.70776,7.94474 -9.15286,5.06792 1.70591,-1.17798 3.70791,-1.84256 5.54808,-2.76111 0.62686,-0.3129 1.23973,-0.89265 1.80024,-1.3119 1.00109,-0.77927 2.12183,-1.37859 3.10175,-2.18377 -0.40753,-0.0843 1.24082,-0.69327 0.86292,-0.78234 -0.36463,-0.0859 -0.72913,0.18239 -1.10158,0.22258 -0.17616,0.019 -0.35302,-0.031 -0.52953,-0.0465 0,0 9.78063,-4.06556 9.78063,-4.06556 v 0 c -0.48236,0.29806 -0.95569,0.61125 -1.44708,0.89417 -1.1147,0.64178 -2.04704,0.95125 -2.86297,1.86862 -0.97699,0.89418 -2.1311,1.50597 -3.21261,2.26309 -0.59424,0.46027 -0.56898,0.44789 -1.171,0.88601 -0.18306,0.13322 -0.77629,0.42764 -0.55217,0.39556 0.69108,-0.0989 1.32997,-0.42747 2.00551,-0.60359 0.20992,-0.0547 0.43348,-0.13599 0.64491,-0.0874 0.0825,0.019 -0.10492,0.13297 -0.15738,0.19945 -0.28483,0.4461 -0.68148,0.67457 -1.0836,1.00686 -4.08217,3.37325 -10.70228,2.42734 -13.64851,8.05922 39.55986,-22.95901 -28.96558,16.78851 10.98254,-6.35654 0.14093,-0.0817 -0.2952,0.13983 -0.43233,0.22772 -0.92804,0.59477 0.0952,0.089 -0.9439,0.55614 -0.65014,0.41359 -1.17787,1.01392 -1.85221,1.38756 -0.35399,0.19614 -0.73852,0.33419 -1.08967,0.53537 -0.2187,0.12529 -0.40954,0.29391 -0.61431,0.44087 -1.26332,0.54262 -3.39834,1.34629 -4.74637,2.18833 -0.17272,0.10789 -0.29422,0.28256 -0.454,0.40883 -0.22901,0.18099 -0.53731,0.43905 -0.83572,0.46116 -0.37261,-0.59067 -0.16855,-0.0538 0.86523,-0.64875 1.30469,-0.75082 2.51303,-1.66081 3.8194,-2.4095 0.0311,0.0507 0.0376,0.17305 0.0933,0.15212 0.36446,-0.13693 0.66878,-0.4009 1.01939,-0.57018 0.30388,-0.14672 1.57597,-0.67328 1.87146,-0.74676 0.0753,-0.0187 0.14901,0.0434 0.22351,0.0651 3.38844,-1.9014 -2.14371,1.66927 -0.83079,1.42413 0.36185,-0.0676 0.67687,-0.28956 1.01642,-0.43168 0.18281,-0.0765 0.3604,-0.16497 0.5406,-0.24745 0.5574,-0.24999 0.54512,-0.24007 1.10812,-0.51115 0.19214,-0.0925 0.75746,-0.391 0.57459,-0.2813 -1.2901,0.77391 -10.12555,5.86215 1.26156,-0.71991 1.18497,-0.68495 -2.36815,1.37298 -3.55222,2.05947 12.93604,-7.50263 1.10894,-0.6379 0.93176,-0.55315 -0.85307,0.40806 -1.77897,0.6486 -2.69148,0.8967 -0.0987,0.0268 0.18873,-0.12264 0.21125,-0.22236 0.0115,-0.0511 -0.10296,-0.0195 -0.15444,-0.0292 0.0959,-0.10099 0.19189,-0.20198 0.28784,-0.30296 0.85738,-0.75525 1.9289,-1.32977 2.60625,-2.26528 0.47919,-0.30506 2.62868,-1.66506 2.86399,-1.8602 0.14378,-0.11922 0.11284,-0.37681 0.25348,-0.49972 0.75081,-0.65619 1.72245,-0.95087 2.22962,-1.85849 -1.0491,-0.079 -0.38905,-0.0931 -1.95332,0.32753 -0.16746,-0.005 0.21581,-0.25831 0.30058,-0.40282 0.30307,-0.51659 0.54972,-1.09389 0.73756,-1.66035 0.27901,-0.53137 0.50593,-1.08576 0.80905,-1.60431 0.16439,-0.28122 0.42015,-0.61419 0.5304,-0.92923 0.0526,-0.15038 0.0614,-0.31268 0.092,-0.46901 0,0 9.85173,-4.55629 9.85173,-4.55629 z"
       inkscape:connector-curvature="0" />
    <path
       style="fill:#ffff00"
       id="path1743"
       d="m 230.65678,733.66394 c 0.21624,-0.0288 0.43272,-0.0559 0.64873,-0.0863 1.58701,-0.22366 0.2746,-0.0184 1.91167,-0.38091 0.39201,-0.0868 1.09632,-0.6267 1.18149,-0.23434 0.31335,1.44371 -2.59669,1.77204 0.32522,1.13549 1.16161,-0.55243 2.65104,-0.43698 3.75262,-1.13317 1.20548,-0.76183 2.2916,-1.71006 3.53092,-2.4155 0.20505,-0.11672 -0.23935,0.40666 -0.35902,0.61 0.81562,-0.56885 2.04493,-1.3713 2.616,-1.64085 0.15746,-0.0743 0.34806,-0.0503 0.50935,-0.11591 0.16949,-0.069 1.24777,-0.65358 1.47838,-0.77763 0.22074,-0.14178 0.44148,-0.28355 0.66222,-0.42533 -0.19373,0.23553 -0.85919,0.83195 -0.58118,0.7066 0.66301,-0.29894 2.4233,-1.60441 1.78784,-1.25067 -3.12491,1.73954 -6.15491,3.64511 -9.26416,5.4125 -0.037,0.021 -0.10712,-0.0865 -0.0698,-0.10681 0.61514,-0.33441 1.26851,-0.59311 1.90276,-0.88966 4.3133,-2.56767 22.33421,-13.20857 -0.22392,-0.12999 -0.41789,0.24228 0.89152,-0.38383 1.29707,-0.64626 0.0572,-0.037 -0.23287,-0.0137 -0.19247,-0.0685 0.28618,-0.38837 0.75407,-0.602 1.12651,-0.90863 0.58789,-0.3229 0.81677,-1.08352 1.39157,-1.41603 1.2334,-0.71348 2.56093,-1.25639 3.78909,-1.97886 0.0246,-0.0145 0.58529,-0.81268 0.6134,-0.85245 0.30055,-0.49784 0.87201,-1.29221 0.15121,-1.65731 -1.06324,-0.28003 -2.19042,-0.286 -3.28423,-0.30618 -2.72453,-0.0782 -2.46747,0.33339 -5.26085,2.33436 -0.50317,0.36043 -2.05713,1.37117 -1.51246,1.07719 3.65447,-1.97247 7.235,-4.07894 10.8525,-6.1184 -4.7911,3.12269 -9.82264,5.74948 -14.77978,8.66873 -3.81768,2.24822 7.67396,-4.43025 11.51313,-6.64158 0.21366,-0.12306 -0.42438,0.25118 -0.63657,0.37676 -0.92629,0.46266 -1.63336,1.25615 -2.47793,1.82724 -0.3224,0.218 -2.92233,1.73665 -3.07169,1.82438 -2.33883,0.83445 -4.15084,2.36937 -6.15035,3.73683 -0.54647,0.38255 -1.12041,0.72212 -1.67999,1.08465 -0.15708,0.10177 -0.65224,0.35118 -0.47049,0.30648 1.81938,-0.44748 2.7586,-1.20831 1.63434,-0.3791 -3.39255,2.31135 -0.83835,0.58475 -9.98873,5.76337 -0.17337,0.0981 -0.71926,0.34075 -0.54702,0.24066 2.85077,-1.65661 11.47457,-6.50119 8.58567,-4.91199 -1.88872,1.03899 -22.35095,12.7761 -1.08848,0.5903 -12.51025,7.20346 -12.81004,7.37657 -0.90058,0.51721 0,0 -9.96533,3.9117 -9.96533,3.9117 v 0 c 12.41781,-7.26963 12.75051,-7.44081 0.93978,-0.61378 27.01199,-15.51 -0.0828,0.0347 1.09207,-0.59295 0.0459,-0.0245 24.60725,-14.20123 1.55471,-0.81645 -0.19326,0.11221 0.3911,-0.21636 0.58665,-0.32454 1.89247,-0.93314 3.86298,-1.67082 5.56792,-2.93407 0.77555,-0.54791 1.57928,-1.04901 2.35664,-1.59402 1.2165,-0.85289 1.1198,-0.58676 -1.25295,5.5e-4 -0.76293,-0.51175 -0.34952,-0.48803 0.27135,-1.01167 0.58062,-0.48968 1.09921,-1.05859 1.74709,-1.46887 4.63867,-3.1731 1.51003,-1.05605 13.43653,-7.83252 3.85431,-2.18997 -7.67371,4.44082 -11.50849,6.66481 -0.21933,0.12721 0.44696,-0.24028 0.66212,-0.37441 0.23227,-0.1448 0.45269,-0.30779 0.67904,-0.46169 0.24277,-0.14996 0.48555,-0.29992 0.72832,-0.44988 4.11546,-2.35088 8.19124,-4.77262 12.34637,-7.05264 0.081,-0.0445 0.0608,0.20668 0.001,0.27727 -0.47654,0.56385 -1.19822,0.92761 -1.56224,1.56988 -0.11872,0.20945 0.47735,-0.0683 0.71783,-0.08 0.51257,-0.0249 1.02687,0.0469 1.53945,0.0152 1.24939,-0.001 2.6056,-0.17247 3.77777,0.34161 0.91733,0.75764 0.60032,1.51768 0.0925,2.44707 -1.17906,1.74972 -1.24272,0.49003 2.50829,-0.19756 0.18058,-0.0331 -0.081,0.36496 -0.17654,0.5217 -0.13731,0.22519 -0.33485,0.40777 -0.5103,0.60469 -0.16182,0.18161 -0.33408,0.35362 -0.50112,0.53044 -0.38645,0.39385 -0.63124,0.68316 -1.09142,0.99469 -0.40186,0.27205 -0.85999,0.46093 -1.24026,0.76243 -0.0598,0.0474 0.14981,0.0285 0.22471,0.0428 -3.75274,2.16784 -7.50549,4.33569 -11.25823,6.50354 -3.06869,1.49991 5.85049,-3.52677 8.77574,-5.29015 0.2313,-0.0476 0.87109,-0.29874 0.69389,-0.14266 -0.3811,0.33568 -0.90509,0.46195 -1.34483,0.71601 -3.54492,2.04815 -7.07217,4.12674 -10.60825,6.19011 0.12852,-0.16927 0.5696,-0.61413 0.38555,-0.50783 -0.71339,0.41207 -1.33732,0.96255 -2.00599,1.44382 -0.23616,0.12198 -0.47232,0.24396 -0.70848,0.36594 -0.25663,0.12052 -0.51326,0.24104 -0.7699,0.36155 -0.19474,0.0635 -0.39657,0.10837 -0.58423,0.19045 -0.27594,0.1207 -0.51745,0.31759 -0.80212,0.41593 -0.0421,0.0146 0.0221,-0.14964 -0.0189,-0.1323 -0.35578,0.15032 -0.6583,0.726 -1.01037,0.56719 -0.293,-0.13215 0.40486,-0.49934 0.60729,-0.74901 -3.18588,1.87612 -0.86726,0.65702 0.62842,-1.08286 0.12603,-0.1466 -0.38168,0.0624 -0.5712,0.10059 -0.90692,0.18266 -1.79816,0.43327 -2.70635,0.61029 -2.86504,0.57093 0.30534,-0.19007 -4.72409,2.23017 -0.41906,0.20165 -0.89682,0.2473 -1.34915,0.35534 -1.01867,0.2433 -2.05729,0.40819 -3.09134,0.56848 0,0 8.7189,-6.33465 8.7189,-6.33465 z"
       inkscape:connector-curvature="0" />
    <path
       style="fill:#ffff00"
       id="path1745"
       d="m 217.47534,739.92697 c -0.13359,-0.18291 -0.91464,-1.5306 -1.02258,-1.53303 -0.66176,-0.0148 -1.26797,0.51528 -1.92857,0.47325 -0.20339,-0.0129 -0.0643,-0.40258 -0.10378,-0.60253 -0.0437,-0.22171 -0.0972,-0.4414 -0.14576,-0.66209 0.91415,-0.86175 2.01352,-1.56204 2.74246,-2.58524 0.14261,-0.20018 -0.37203,-0.32136 -0.55435,-0.48619 -0.62382,-0.56398 -1.26671,-1.1028 -1.89774,-1.6591 -0.83984,-0.91655 -1.75502,-1.73735 -2.80828,-2.39918 -1.99023,-1.57836 -1.13501,-0.43432 -4.77656,0.90848 -0.24718,0.0911 -0.52483,-0.0651 -0.7882,-0.0583 -1.63209,0.042 -0.60959,0.29507 -1.84186,-0.14678 -1.03427,-0.39097 -2.01349,-0.8788 -2.99914,-1.37278 -0.61319,0.0228 -1.12922,-0.84404 -1.63186,-0.94619 -0.16403,-0.0333 -0.30157,0.20585 -0.37086,0.29815 4.17629,-2.41818 8.37953,-4.79038 12.52885,-7.25452 0.054,-0.032 -0.1685,-0.14944 -0.1671,-0.0867 0.003,0.12274 0.47382,0.91581 0.47664,0.92021 0.13445,0.20936 0.65591,0.88974 0.78911,1.06577 0.32239,0.53882 2.06676,1.57433 1.40706,2.38468 -2.44307,3.00097 -2.91918,1.15579 -2.25793,2.9263 0.80599,0.67464 1.68694,1.24461 2.5296,1.87022 0.13329,0.1088 0.26657,0.21759 0.39985,0.32639 0,0 -4.33696,2.73549 -4.33696,2.73549 v 0 c -0.13817,-0.10016 -0.27634,-0.20032 -0.41451,-0.30049 -0.85576,-0.60939 -1.67447,-1.27651 -2.44894,-1.98581 -2.09876,-0.74747 0.31391,-0.0695 -4.30183,1.17821 -1.27367,0.34428 -2.10323,-1.12586 -2.83383,-1.84543 -4.68232,-6.06008 -3.28839,-3.5431 10.50638,-10.52496 0.70761,0.50644 1.40114,1.00227 2.21391,1.33145 0.92381,0.52408 1.9185,0.89759 2.85352,1.40091 0.89651,0.61286 0.0903,-0.0891 0.57833,0.91616 0.0861,0.17733 0.50135,0.29159 0.38386,0.44988 -2.28928,3.08442 -3.54474,1.64012 -1.24563,3.08785 1.02437,0.72485 1.99392,1.53253 2.85199,2.45033 0.63084,0.55207 1.20686,1.13853 1.80529,1.72352 0.1789,0.17488 0.30792,0.56536 0.55164,0.5089 1.34105,-0.31067 2.55836,-1.01713 3.83754,-1.5257 0.002,6.3e-4 1.77973,0.50585 1.76188,0.61575 -0.099,0.60957 -0.9146,0.88286 -1.1467,1.45513 -0.11537,0.28446 0.8749,1.11119 1.04882,1.28345 0,0 -9.24376,5.66459 -9.24376,5.66459 z"
       inkscape:connector-curvature="0" />
  </g>
</svg>
