<?xml version="1.0" encoding="UTF-8" standalone="no"?>
<!-- Created with Inkscape (http://www.inkscape.org/) -->

<svg
   xmlns:dc="http://purl.org/dc/elements/1.1/"
   xmlns:cc="http://creativecommons.org/ns#"
   xmlns:rdf="http://www.w3.org/1999/02/22-rdf-syntax-ns#"
   xmlns:svg="http://www.w3.org/2000/svg"
   xmlns="http://www.w3.org/2000/svg"
   xmlns:sodipodi="http://sodipodi.sourceforge.net/DTD/sodipodi-0.dtd"
   xmlns:inkscape="http://www.inkscape.org/namespaces/inkscape"
   width="379.77838"
   height="207.61729"
   id="svg2"
   version="1.1"
   inkscape:version="0.92.2 5c3e80d, 2017-08-06"
   sodipodi:docname="treasureKey.svg">
  <defs
     id="defs4">
    <inkscape:perspective
       sodipodi:type="inkscape:persp3d"
       inkscape:vp_x="0 : 526.18109 : 1"
       inkscape:vp_y="0 : 1000 : 0"
       inkscape:vp_z="744.09448 : 526.18109 : 1"
       inkscape:persp3d-origin="372.04724 : 350.78739 : 1"
       id="perspective2985" />
  </defs>
  <sodipodi:namedview
     id="base"
     pagecolor="#ffffff"
     bordercolor="#666666"
     borderopacity="1.0"
     inkscape:pageopacity="0.0"
     inkscape:pageshadow="2"
     inkscape:zoom="1.4"
     inkscape:cx="141.70941"
     inkscape:cy="105.37977"
     inkscape:document-units="mm"
     inkscape:current-layer="layer1"
     showgrid="false"
     inkscape:object-nodes="true"
     inkscape:window-width="1440"
     inkscape:window-height="766"
     inkscape:window-x="0"
     inkscape:window-y="1"
     inkscape:window-maximized="1"
     showguides="true"
     inkscape:guide-bbox="true"
     units="mm"
     fit-margin-top="0"
     fit-margin-left="0"
     fit-margin-right="0"
     fit-margin-bottom="0" />
  <metadata
     id="metadata7">
    <rdf:RDF>
      <cc:Work
         rdf:about="">
        <dc:format>image/svg+xml</dc:format>
        <dc:type
           rdf:resource="http://purl.org/dc/dcmitype/StillImage" />
        <dc:title />
      </cc:Work>
    </rdf:RDF>
  </metadata>
  <g
     inkscape:label="Layer 1"
     inkscape:groupmode="layer"
     id="layer1"
     transform="translate(-72.95499,-648.7373)">
    <path
       inkscape:connector-curvature="0"
       id="path3908"
       d="M 452.29254,752.54596 262.84415,649.17816 73.39581,752.54593 262.8442,855.91373 Z"
       style="fill:#c4b7c8;stroke:#000000;stroke-width:0.88173562px;stroke-linecap:round;stroke-linejoin:round;stroke-opacity:1" />
    <path
       inkscape:connector-curvature="0"
       style="fill:#aa0000;stroke:#666666;stroke-width:0.88173568px;stroke-linecap:round;stroke-linejoin:round;stroke-opacity:1"
       d="m 254.32536,653.85266 8.55792,4.69012 -8.50029,4.66378 h -0.0287 l -8.55794,-4.69012 8.52912,-4.66378 z m 17.11585,0.0263 8.55793,4.69013 -8.52911,4.66378 8.55792,4.69013 -8.52911,4.66378 h -0.0288 l -8.52911,-4.69013 8.5003,-4.66378 -8.52911,-4.69012 8.5003,-4.66379 z m 8.58674,14.04404 8.52913,-4.66378 8.58674,4.69012 -8.52912,4.66378 8.52912,4.69013 -8.5003,4.66378 h -0.0287 l -8.52911,-4.69012 8.5003,-4.66379 -8.55793,-4.69012 z m -42.90489,-4.69013 8.58674,4.69013 -8.52911,4.66378 8.5003,4.69013 -8.5003,4.66378 8.55793,4.69012 -8.52912,4.66378 8.55793,4.69013 -8.5003,4.66378 h -0.0287 l -8.55793,-4.69013 8.5003,-4.66378 -8.52912,-4.69012 8.5003,-4.66378 -8.52911,-4.69013 8.50025,-4.66374 h 0.0287 l -8.52912,-4.69013 8.5003,-4.66378 z m 8.61556,23.39794 8.50029,-4.66378 -8.52911,-4.69012 8.52911,-4.66379 -8.52911,-4.69012 8.5003,-4.66378 h 0.0288 l 8.55792,4.69012 -8.52911,4.66378 8.52911,4.69013 -8.52911,4.66378 8.55793,4.69013 -8.5003,4.66378 8.52911,4.69013 -8.5003,4.66378 8.52912,4.69012 -8.5003,4.66378 8.55792,4.69013 -8.5003,4.66378 8.52912,4.69013 -8.52912,4.66378 8.55793,4.69012 -8.52911,4.66378 8.55793,4.69014 -8.5003,4.66377 8.52911,4.69014 -8.5003,4.66377 h -0.0287 l -8.52912,-4.69013 8.5003,-4.66378 -8.55793,-4.69012 8.5003,-4.66379 -8.52911,-4.69012 8.5003,-4.66378 -4.26456,-2.34507 -4.26455,-2.34506 8.5003,-4.66378 -8.52912,-4.69013 8.38503,-4.61108 0.11527,-0.0527 -8.55794,-4.69012 8.52913,-4.66378 -8.52913,-4.69013 8.50031,-4.66378 z m 0.20169,56.12345 -8.52911,4.66378 h -0.0287 l -8.52912,-4.69013 8.5003,-4.66378 -4.26456,-2.34506 -4.26456,-2.34507 8.5003,-4.66378 -8.55793,-4.69012 8.52911,-4.66379 8.55794,4.69013 -8.5003,4.66378 8.52912,4.69013 -8.5003,4.66378 8.55792,4.69013 z m 17.05823,-9.32757 8.52911,-4.66377 -8.52911,-4.69013 8.5003,-4.66377 h 0.0287 l 8.55793,4.69012 -8.52911,4.66378 8.55793,4.69013 -8.52912,4.66378 8.52912,4.69013 -8.5003,4.66378 8.52911,4.69012 -8.5003,4.66378 8.55793,4.69013 -8.5003,4.66378 h -0.0287 l -8.55793,-4.69012 8.5003,-4.66379 -4.26456,-2.34506 -4.26456,-2.34506 8.5003,-4.66378 -8.52911,-4.69013 8.5003,-4.66378 z m -42.96253,-60.86627 8.55794,4.69014 -8.5003,4.66377 8.52911,4.69014 -8.5003,4.66377 h -0.0287 l -8.52912,-4.69013 8.5003,-4.66378 -8.55792,-4.69013 8.52911,-4.66378 z m 85.63692,0.079 8.58674,4.69013 -8.38504,4.58473 8.52911,4.69013 -8.5003,4.66378 h -0.0287 l -8.52912,-4.69012 8.35622,-4.58474 -4.26455,-2.34506 -4.26456,-2.34506 8.5003,-4.66379 z m -34.31816,0 8.58674,4.69013 -8.52911,4.66378 8.5003,4.69013 -8.52912,4.66378 -8.52911,-4.69013 8.52911,-4.66378 -8.55792,-4.69012 z m 0.0287,18.70782 8.55793,4.69013 -8.5003,4.66378 h -0.0287 l -4.26455,-2.34507 -4.26457,-2.34506 8.5003,-4.66378 z m 51.54931,-9.40653 8.58675,4.69013 -8.52911,4.66378 8.55793,4.69014 -8.52911,4.66377 h -0.0288 l -8.52912,-4.69013 8.50031,-4.66378 -4.26456,-2.34506 -4.26457,-2.34506 z m 8.61557,14.04405 8.52911,-4.66378 8.58674,4.69012 -8.52911,4.66378 8.52911,4.69013 -8.5003,4.66378 h -0.0287 l -8.52911,-4.69013 8.50029,-4.66378 -8.55792,-4.69012 z m -128.71471,-14.04405 8.55793,4.69013 -8.5003,4.66378 8.52912,4.69014 -8.52912,4.66377 8.55794,4.69013 -8.52912,4.66378 8.55793,4.69013 -8.50029,4.66377 8.52911,4.69014 -8.5003,4.66377 h -0.0288 l -8.52912,-4.69013 8.5003,-4.66378 -8.55793,-4.69012 8.5003,-4.66378 -8.52911,-4.69013 8.5003,-4.66378 -8.52912,-4.69013 8.50026,-4.66378 -4.26456,-2.34506 -4.26455,-2.34506 z m -8.44267,32.72551 -8.52911,4.66378 h -0.0287 l -8.52912,-4.69013 8.5003,-4.66378 -8.52911,-4.69013 8.50025,-4.66378 -8.55793,-4.69012 8.52911,-4.66378 8.55793,4.69012 -8.5003,4.66378 8.52912,4.69013 -8.5003,4.66378 z m 17.05824,-9.32756 8.52911,-4.66378 -8.52911,-4.69012 8.5003,-4.66378 h 0.0287 l 8.55793,4.69012 -8.52911,4.66378 8.55792,4.69013 -8.52911,4.66378 8.52911,4.69013 -8.50029,4.66378 8.52911,4.69012 -8.5003,4.66379 h -0.0288 l -4.26455,-2.34507 -4.26456,-2.34506 8.5003,-4.66378 -8.52911,-4.69013 8.5003,-4.66378 z m 77.02135,-23.3189 8.58674,4.69014 -8.41385,4.61108 8.55792,4.69012 -8.52911,4.66378 -8.55793,-4.69012 8.38505,-4.61109 -8.55793,-4.69013 z m 0.2017,18.65512 8.55793,4.69013 -8.5003,4.66378 8.55793,4.69013 -8.52912,4.66378 8.55793,4.69012 -8.5003,4.66379 h -0.0287 l -8.55793,-4.69013 8.5003,-4.66378 -8.52912,-4.69013 8.5003,-4.66378 -4.26456,-2.34506 -4.26456,-2.34507 8.5003,-4.66378 z m 8.61556,14.04404 8.5003,-4.66378 -8.52912,-4.69013 8.52912,-4.66378 -8.55793,-4.69013 8.52911,-4.66378 8.58674,4.69013 -8.52911,4.66378 8.52911,4.69013 -8.52911,4.66378 8.55793,4.69012 -8.5003,4.66378 8.52911,4.69013 -8.5003,4.66378 8.52911,4.69013 -8.50029,4.66378 h -0.0287 l -8.55793,-4.69013 8.52912,-4.66378 -8.52912,-4.69013 8.5003,-4.66378 -8.55792,-4.69012 z m -128.59944,-14.12308 8.55793,4.69012 -8.5003,4.66378 h -0.0288 l -8.55793,-4.69013 z m 102.89684,0.0527 8.55793,4.69013 -8.5003,4.66378 8.52911,4.69013 -8.5003,4.66377 h -0.0287 l -8.55793,-4.69012 8.52911,-4.66378 -8.55792,-4.69013 8.52911,-4.66378 z m 85.6081,0.0527 8.58674,4.69013 -8.52912,4.66378 8.55793,4.69012 -8.5003,4.66378 h -0.0287 l -8.55793,-4.69012 8.5003,-4.66378 -4.26456,-2.34507 -4.26456,-2.34506 8.5003,-4.66378 z m -120.07033,0 8.52911,4.69013 -8.5003,4.66378 8.52912,4.69012 -8.52912,4.66378 h -0.0287 l -4.26455,-2.34506 -4.26456,-2.34506 8.5003,-4.66378 -8.5003,-4.69013 8.5003,-4.66378 z m 85.78098,0.0263 8.58675,4.69013 -8.52911,4.66378 8.5003,4.69012 -8.52913,4.66378 -8.52911,-4.69009 8.52911,-4.66378 -8.55792,-4.69012 8.52911,-4.66378 z m 0.0287,18.70781 8.55793,4.69013 -8.5003,4.66378 8.55793,4.69013 -8.5003,4.66378 8.52911,4.69012 -8.50029,4.66379 h -0.0288 l -8.55793,-4.69013 8.52912,-4.66378 -8.55793,-4.69013 8.5003,-4.66378 -4.26456,-2.34506 -4.26456,-2.34507 z m -171.41789,-9.43295 8.58674,4.69013 -8.52911,4.66378 8.50029,4.69012 -8.50029,4.66378 8.55792,4.69013 -8.52911,4.66378 8.55793,4.69013 -8.5003,4.66378 h -0.0287 l -8.55792,-4.69013 8.50029,-4.66378 -8.52911,-4.69012 8.5003,-4.66379 -8.52911,-4.69012 8.5003,-4.66378 h 0.0287 l -8.52911,-4.69013 z m 8.61555,23.39794 8.5003,-4.66378 -8.52911,-4.69013 8.52911,-4.66378 -8.52911,-4.69012 8.5003,-4.66378 h 0.0287 l 8.55793,4.69012 -8.52911,4.66378 8.52911,4.69013 -8.52911,4.66378 8.55792,4.69013 -8.50029,4.66378 8.52911,4.69013 -8.5003,4.66377 8.52911,4.69014 -8.5003,4.66377 8.55793,4.69014 -8.5003,4.66377 8.52911,4.69013 -8.50029,4.66378 8.55792,4.69013 -8.52911,4.66377 8.55793,4.69014 -8.52912,4.66377 8.52912,4.69014 -8.5003,4.66378 h -0.0288 l -8.52911,-4.69014 8.5003,-4.66378 -8.55793,-4.69013 8.52911,-4.66378 -8.52911,-4.69012 8.5003,-4.66378 -4.26455,-2.34507 -4.26456,-2.34506 8.5003,-4.66378 -8.55793,-4.69013 8.38504,-4.61108 0.11526,-0.0527 -8.55793,-4.69013 8.52911,-4.66378 -8.52911,-4.69012 8.5003,-4.66378 z m 0.20171,56.12344 -8.52911,4.66378 h -0.0288 l -8.52912,-4.69012 8.5003,-4.66378 -4.26455,-2.34507 -4.26456,-2.34506 8.5003,-4.66378 -8.52912,-4.69013 8.52912,-4.66378 8.55793,4.69013 -8.5003,4.66378 8.52912,4.69013 -8.52912,4.66378 z m 17.08704,-9.32755 8.5003,-4.66378 -8.52911,-4.69013 8.50035,-4.66374 h 0.0287 l 8.55793,4.69013 -8.52912,4.66378 8.55793,4.69013 -8.5003,4.66378 8.52912,4.69013 -8.5003,4.66377 8.52911,4.69014 -8.52911,4.66377 8.55792,4.69014 -8.50029,4.66377 h -0.0288 l -8.55793,-4.69013 8.5003,-4.66378 -4.26455,-2.34506 -4.26456,-2.34507 8.5003,-4.66378 -8.5003,-4.69012 8.5003,-4.66378 -8.55793,-4.69013 z m 196.91884,-70.11475 8.58675,4.69014 -8.52912,4.66377 8.55793,4.69014 -8.52911,4.66377 h -0.0287 l -8.52911,-4.69013 8.5003,-4.66378 -4.26456,-2.34506 -4.2646,-2.34507 z m 8.61556,14.04405 8.52911,-4.66378 8.58674,4.69012 -8.52911,4.66378 8.52911,4.69013 -8.5003,4.66378 h -0.0287 l -8.52911,-4.69013 8.50029,-4.66378 -8.55792,-4.69012 z m -42.93372,-14.01769 8.58674,4.69013 -8.52911,4.66378 8.52911,4.69012 -8.52911,4.66378 -8.52911,-4.69012 8.5003,-4.66378 -8.55793,-4.69013 z m 0.0576,18.70781 8.55793,4.69013 -8.5003,4.66378 8.55793,4.69013 -8.52912,4.66378 8.55793,4.69012 -8.5003,4.66379 h -0.0287 l -8.55793,-4.69013 8.5003,-4.66378 -8.52912,-4.69013 8.5003,-4.66378 -4.26456,-2.34506 -4.26456,-2.34507 8.5003,-4.66378 z m 8.61556,14.04404 8.5003,-4.66378 -8.52912,-4.69013 8.52912,-4.66378 -8.55793,-4.69013 8.52911,-4.66378 8.58674,4.69013 -8.52911,4.66378 8.52911,4.69013 -8.52911,4.66378 8.55793,4.69012 -8.5003,4.66378 8.52911,4.69013 -8.5003,4.66378 8.52912,4.69013 -8.5003,4.66378 h -0.0288 l -8.55793,-4.69013 8.52908,-4.66378 -8.52912,-4.69013 8.5003,-4.66378 z M 134.42776,719.33 l 8.55792,4.69013 -8.5003,4.66378 8.52912,4.69012 -8.5003,4.66378 h -0.0288 l -8.52911,-4.69012 8.5003,-4.66378 -8.55793,-4.69013 z m 51.31874,0.079 8.58675,4.69013 -8.52912,4.66378 8.5003,4.69012 -8.52911,4.66378 -8.52911,-4.69013 8.52911,-4.66377 -8.55793,-4.69014 z m 0.0288,18.70781 8.55793,4.69013 -8.35622,4.58473 8.52911,4.69013 -8.5003,4.66378 8.52912,4.69013 -8.5003,4.66378 h -0.0288 l -8.55793,-4.69013 8.52912,-4.66378 -8.52912,-4.69013 8.35622,-4.58473 -4.26455,-2.34506 -4.26456,-2.34507 z m 34.46223,-9.43295 8.55793,4.69013 -8.5003,4.66378 h -0.0288 l -8.55792,-4.69014 z m -103.0121,0.0263 8.55793,4.69014 -8.5003,4.66377 8.52911,4.69013 -8.5003,4.66377 8.55793,4.69014 -8.52911,4.66378 8.55793,4.69013 -8.52912,4.66378 8.52912,4.69012 -8.5003,4.66378 h -0.0288 l -8.52911,-4.69013 8.5003,-4.66377 -8.55793,-4.69014 8.52911,-4.66377 -8.52911,-4.69014 8.5003,-4.66378 -8.52911,-4.69012 8.50029,-4.66378 -8.55792,-4.69013 z m -8.44262,32.72559 -8.52912,4.66378 h -0.0287 l -8.529111,-4.69013 8.500291,-4.66378 -8.529105,-4.69013 8.500295,-4.66378 -4.264553,-2.34506 -4.264557,-2.34506 8.52911,-4.66379 8.55793,4.69013 -8.5003,4.66378 8.52911,4.69013 -8.52911,4.66378 z m 17.08704,-9.32756 8.5003,-4.66378 -8.52911,-4.69012 8.50029,-4.66378 h 0.0288 l 8.55793,4.69012 -8.52912,4.66378 8.55793,4.69013 -8.5003,4.66378 8.52911,4.69013 -8.50029,4.66378 8.52911,4.69012 -8.52911,4.66378 h -0.0288 l -4.26455,-2.34506 -4.26456,-2.34506 8.5003,-4.66378 -8.5003,-4.69013 8.5003,-4.66378 z m 162.80234,-23.3189 8.52911,4.69014 -8.50029,4.66378 8.52911,4.69012 -8.52911,4.66378 8.55792,4.69013 -8.5003,4.66378 8.52912,4.69013 -8.5003,4.66378 8.55793,4.69012 -8.52912,4.66379 h -0.0287 l -8.52913,-4.69014 8.5003,-4.66377 -4.26455,-2.34507 -4.26456,-2.34507 8.5003,-4.66377 -8.55793,-4.69013 8.5003,-4.66378 -4.26455,-2.34507 -4.26456,-2.34506 8.5003,-4.66377 -8.5003,-4.69014 8.5003,-4.66378 z m 8.67319,42.10576 8.50029,-4.66378 -8.52911,-4.69012 8.5003,-4.66378 -4.26455,-2.34507 -4.26456,-2.34506 8.5003,-4.66378 -8.52912,-4.69013 8.52912,-4.66378 8.55792,4.69013 -8.5003,4.66378 8.52912,4.69013 -8.52912,4.66378 8.55793,4.69012 -8.52911,4.66378 8.55792,4.69013 -8.50029,4.66378 8.52911,4.69013 -8.5003,4.66378 h -0.0288 l -8.52911,-4.69013 8.5003,-4.66378 -8.55793,-4.69013 z m 17.05822,-9.32756 8.52911,-4.66378 -8.52911,-4.69012 8.5003,-4.66378 h 0.0287 l 8.55793,4.69012 -8.52911,4.66378 8.55793,4.69013 -8.52912,4.66378 8.52912,4.69014 -8.5003,4.66377 8.52911,4.69013 -8.5003,4.66377 8.55793,4.69014 -8.5003,4.66377 h -0.0288 l -8.55792,-4.69013 8.5003,-4.66378 -4.26457,-2.34506 -4.26455,-2.34506 8.5003,-4.66378 -8.52911,-4.69013 8.5003,-4.66378 z m -111.54121,-32.7782 8.58674,4.69014 -8.41385,4.61108 8.52912,4.66378 -8.52912,4.66378 -8.52912,-4.66378 8.38504,-4.61108 -8.55792,-4.69014 z m 0.17289,18.62878 8.55793,4.69012 -8.5003,4.66378 8.55793,4.69013 -8.52911,4.66378 8.55792,4.69013 -8.5003,4.66378 h -0.0287 l -8.55793,-4.69014 8.5003,-4.66377 -8.52911,-4.69013 8.5003,-4.66378 -4.26456,-2.34507 -4.26456,-2.34506 8.5003,-4.66377 z m 8.61556,14.04403 8.5003,-4.66378 -8.52912,-4.69013 8.52912,-4.66378 -8.55793,-4.69012 8.52911,-4.66378 8.58674,4.69012 -8.52911,4.66378 8.52911,4.69013 -8.52911,4.66378 8.55793,4.69013 -8.5003,4.66378 8.52911,4.69012 -8.5003,4.66378 8.52912,4.69013 -8.5003,4.66378 h -0.0288 l -8.55792,-4.69012 8.52911,-4.66379 -8.52911,-4.69012 8.50029,-4.66378 z m 196.94761,-32.62011 8.58674,4.69013 -8.52912,4.66378 8.55793,4.69012 -8.5003,4.66379 h -0.0287 l -8.55793,-4.69013 8.5003,-4.66378 -4.26455,-2.34507 -4.26456,-2.34506 8.50029,-4.66378 z m -34.28935,0.0263 8.58674,4.69013 -8.52911,4.66378 8.5003,4.69012 -8.52912,4.66378 -8.52911,-4.69012 8.52911,-4.66378 -8.55792,-4.69013 z m 0.0288,18.70786 8.55792,4.69013 -8.5003,4.66378 8.55793,4.69012 -8.5003,4.66379 8.52911,4.69012 -8.50029,4.66378 h -0.0288 l -8.55793,-4.69012 8.52912,-4.66378 -8.55793,-4.69014 8.5003,-4.66377 -4.26455,-2.34507 -4.26456,-2.34507 z m 51.4052,-9.35391 8.58674,4.69013 -8.52912,4.66378 8.55793,4.69013 -8.52911,4.66378 h -0.0287 l -8.52912,-4.69014 8.50031,-4.66377 -4.26456,-2.34506 -4.26456,-2.34507 8.50029,-4.66378 z m 8.61555,14.04404 8.52911,-4.66378 8.58675,4.69012 -8.52912,4.66378 h -0.0287 l -8.55793,-4.69012 z m -42.93372,-14.01769 8.58676,4.69013 -8.52912,4.66378 8.52912,4.69012 -8.52912,4.66378 -8.52912,-4.69012 8.5003,-4.66378 -8.55793,-4.69013 z m 0.0576,18.70781 8.55794,4.69013 -8.5003,4.66378 8.55793,4.69013 -8.52911,4.66378 8.55792,4.69012 -8.5003,4.66379 h -0.0287 l -8.55793,-4.69013 8.5003,-4.66378 -8.52911,-4.69013 8.5003,-4.66378 -4.26457,-2.34506 -4.26455,-2.34507 8.5003,-4.66378 z m 8.61557,14.04404 8.5003,-4.66378 -8.52912,-4.69013 8.52912,-4.66378 -8.55793,-4.69013 8.52911,-4.66378 8.58674,4.69013 -8.52911,4.66378 8.52911,4.69014 -8.52911,4.66377 8.55793,4.69013 -8.5003,4.66377 h -0.0287 l -8.55792,-4.69012 z m -317.017896,-23.63508 8.557929,4.69012 -8.5003,4.66378 h -0.02877 l -8.557928,-4.69012 8.529114,-4.66378 z m 154.186786,0.10539 8.58674,4.69013 -8.52911,4.66378 8.5003,4.69012 -8.52911,4.66378 -8.52912,-4.69012 8.52912,-4.66378 -8.55793,-4.69013 z m 0.0288,18.70781 8.55792,4.69013 -8.5003,4.66378 8.55793,4.69013 -8.5003,4.66378 8.52912,4.69013 -8.5003,4.66378 h -0.0288 l -8.55793,-4.69013 8.52912,-4.66378 -8.55793,-4.69013 8.5003,-4.66378 -4.26456,-2.34506 -4.26455,-2.34507 z M 151.515,747.4707 l 8.52911,4.69013 -8.5003,4.66378 8.52911,4.69012 -8.50029,4.66378 h -0.0288 l -4.26455,-2.34506 -4.26456,-2.34506 8.5003,-4.66378 -8.52912,-4.69013 8.5003,-4.66378 z m 102.86803,9.38026 8.58674,4.69013 -8.52912,4.66378 8.52912,4.69013 -8.52912,4.66378 -8.52911,-4.69014 8.5003,-4.66377 -8.55793,-4.69014 z m 0.0576,18.70782 8.55793,4.69012 -8.5003,4.66378 8.55793,4.69013 -8.52911,4.66378 8.55792,4.69013 -8.50029,4.66378 h -0.0288 l -8.55793,-4.69013 8.5003,-4.66378 -8.52911,-4.69013 8.5003,-4.66378 -4.26456,-2.34506 -4.26456,-2.34507 z m 8.61556,14.04403 8.5003,-4.66378 -8.52911,-4.69013 8.52911,-4.66378 -8.55793,-4.69012 8.52911,-4.66379 8.58675,4.69013 -8.52912,4.66378 8.52912,4.69013 -8.52912,4.66378 8.55793,4.69013 -8.5003,4.66378 8.52911,4.69012 -8.50029,4.66378 8.52911,4.69013 -8.5003,4.66378 h -0.0287 l -8.55792,-4.69013 8.52911,-4.66378 -8.52911,-4.69012 8.5003,-4.66378 -8.55793,-4.69013 z m 77.02135,-32.6728 8.52912,4.69012 -8.5003,4.66379 8.52911,4.69012 -8.52911,4.66378 8.55792,4.69013 -8.50029,4.66378 8.52911,4.69013 -8.5003,4.66378 8.55793,4.69012 -8.52912,4.66378 h -0.0287 l -8.52911,-4.69012 8.50029,-4.66378 -4.26456,-2.34507 -4.26455,-2.34506 8.5003,-4.66378 -8.55793,-4.69013 8.5003,-4.66378 -4.26456,-2.34506 -4.26455,-2.34506 8.5003,-4.66378 -8.5003,-4.69014 8.5003,-4.66377 z m 8.67319,42.10575 8.50031,-4.66378 -8.52913,-4.69012 8.50031,-4.66378 -4.26456,-2.34507 -4.26456,-2.34506 8.5003,-4.66378 -8.52912,-4.69013 8.52912,-4.66378 8.55793,4.69013 -8.50029,4.66378 8.52911,4.69012 -8.52911,4.66379 8.55792,4.69012 -8.52911,4.66378 8.55793,4.69013 -8.5003,4.66378 h -0.0288 z m 17.05823,-9.32756 8.52912,-4.66378 -8.52912,-4.69013 8.5003,-4.66378 h 0.0288 l 8.55792,4.69014 -8.52911,4.66377 8.55793,4.69014 -8.52912,4.66377 h -0.0287 z m 59.9055,-32.69915 8.58674,4.69013 -8.52911,4.66378 h -0.0287 l -8.55792,-4.69012 8.52911,-4.66379 z m -291.08477,18.44432 8.55792,4.69013 -8.5003,4.66378 h -0.0287 l -8.55793,-4.69013 8.52911,-4.66378 z m 68.43461,0.10541 8.52911,4.69012 -8.5003,4.66378 8.52911,4.69013 -8.50029,4.66378 8.55792,4.69013 -8.5003,4.66378 8.52912,4.69012 -8.52912,4.66378 8.55793,4.69013 -8.52911,4.66378 h -0.0288 l -8.52911,-4.69012 8.5003,-4.66379 -4.26456,-2.34506 -4.26455,-2.34506 8.50029,-4.66378 -8.52911,-4.69013 8.5003,-4.66378 -4.26456,-2.34506 -4.26455,-2.34507 8.5003,-4.66378 -8.52912,-4.69013 8.5003,-4.66377 z m 8.67318,42.10575 8.52911,-4.66378 -8.52911,-4.69013 8.5003,-4.66378 -4.26455,-2.34506 -4.26456,-2.34506 8.5003,-4.66378 -8.55793,-4.69013 8.52911,-4.66378 8.55793,4.69013 -8.5003,4.66378 8.52911,4.69012 -8.5003,4.66378 8.55793,4.69013 -8.52911,4.66378 8.55792,4.69013 -8.52911,4.66378 8.52911,4.69012 -8.50029,4.66378 h -0.0288 l -8.52911,-4.69012 8.5003,-4.66378 z m 17.08704,-9.32756 8.5003,-4.66378 -8.52911,-4.69013 8.5003,-4.66378 h 0.0287 l 8.55793,4.69014 -8.52912,4.66377 8.55793,4.69013 -8.5003,4.66378 8.52912,4.69013 -8.5003,4.66378 8.52911,4.69013 -8.52911,4.66378 8.55792,4.69013 -8.50029,4.66378 h -0.0288 l -8.55793,-4.69014 8.5003,-4.66377 -4.26456,-2.34507 -4.26455,-2.34507 8.5003,-4.66377 -8.5003,-4.69013 8.5003,-4.66378 z m 59.84787,-32.7255 8.58674,4.69013 -8.52911,4.66377 8.5003,4.69014 -8.52911,4.66377 -8.52912,-4.69012 8.52912,-4.66379 -8.55793,-4.69012 z m 0.0288,18.70781 8.55792,4.69014 -8.50029,4.66377 8.55792,4.69013 -8.5003,4.66378 8.52912,4.69013 -8.5003,4.66378 h -0.0288 l -8.55792,-4.69013 8.52911,-4.66378 -8.55793,-4.69013 8.5003,-4.66378 -4.26455,-2.34506 -4.26456,-2.34507 z m 17.08704,-9.32755 8.58675,4.69013 -8.52912,4.66378 8.52912,4.69012 -8.52912,4.66378 -8.52912,-4.69012 8.5003,-4.66378 -8.55793,-4.69013 z m 0.0576,18.70781 8.55793,4.69013 -8.50031,4.66378 8.55794,4.69013 -8.52911,4.66378 8.55792,4.69012 -8.50029,4.66379 h -0.0287 l -8.55793,-4.69013 8.5003,-4.66378 -8.52911,-4.69013 8.5003,-4.66378 -4.26456,-2.34506 -4.26455,-2.34507 8.50029,-4.66378 z m 8.61556,14.04404 8.5003,-4.66378 -8.52911,-4.69013 8.52911,-4.66378 -8.55793,-4.69013 8.52911,-4.66378 8.58675,4.69013 -8.52912,4.66378 8.52912,4.69013 -8.52912,4.66378 8.55793,4.69012 -8.5003,4.66378 h -0.0287 l -8.55793,-4.69012 z m -59.9919,-14.04404 8.52911,4.69013 -8.5003,4.66378 8.52911,4.69013 -8.50029,4.66378 8.55793,4.69012 -8.5003,4.66379 8.52912,4.69012 -8.52912,4.66378 8.55793,4.69013 -8.52911,4.66378 h -0.0287 l -8.52911,-4.69013 8.5003,-4.66378 -4.26456,-2.34506 -4.26455,-2.34506 8.50029,-4.66378 -8.52911,-4.69013 8.5003,-4.66378 -4.26456,-2.34506 -4.26455,-2.34507 8.5003,-4.66378 -8.52912,-4.69013 8.5003,-4.66378 z m 8.67319,42.10576 8.52911,-4.66378 -8.52911,-4.69013 8.5003,-4.66378 -4.26456,-2.34506 -4.26455,-2.34507 8.5003,-4.66378 -8.55794,-4.69012 8.52912,-4.66378 8.55793,4.69012 -8.5003,4.66378 8.52911,4.69013 -8.5003,4.66378 8.55793,4.69013 -8.52911,4.66378 8.55793,4.69013 -8.52912,4.66378 h -0.0287 l -8.55793,-4.69013 z m 17.08704,-9.32756 8.5003,-4.66377 -8.52911,-4.69014 8.5003,-4.66377 h 0.0287 l 8.55793,4.69013 -8.52911,4.66378 8.55793,4.69012 -8.5003,4.66378 h -0.0287 z m 59.84787,-32.7255 8.58674,4.69013 -8.52911,4.66378 h -0.0288 l -8.55792,-4.69013 z"
       id="path3982" />
    <path
       style="fill:#ffff00;stroke-width:0.88173568"
       id="path1737"
       d="m 223.97499,718.75688 c 0.93114,1.1054 2.15872,1.97646 3.2709,2.92512 0.33202,0.27517 1.93065,1.2414 1.76017,1.74468 -0.11177,0.32994 -1.83431,2.24966 -1.84844,2.76626 -0.008,0.27451 0.48588,0.32285 0.72882,0.48427 1.40565,0.7659 2.83387,1.49973 4.194,2.33515 2.70479,1.45196 -0.16569,0.74778 4.99952,-0.60751 0.32179,-0.0844 0.65749,0.11571 0.98596,0.17491 0.28478,0.0514 0.58582,0.0546 0.85375,0.15667 0.23146,0.0882 0.40728,0.26756 0.61092,0.40135 1.06627,0.65282 2.03314,1.43121 3.11348,2.06631 0.57761,0.34093 1.10625,0.73643 1.65561,1.11139 0.19655,0.13414 0.49877,0.17931 0.60662,0.38072 0.12978,0.24236 0.1794,0.57608 0.0305,0.80906 -0.40561,0.6346 -1.06761,1.09913 -1.6014,1.6487 -0.10499,0.29741 -0.36646,0.58328 -0.31495,0.89223 0.0343,0.2057 0.35461,0.26088 0.5294,0.39411 0.62241,0.4744 1.27297,0.90784 1.86988,1.41012 0.9337,0.91458 1.96323,1.73254 3.07661,2.45791 1.78841,-0.59773 3.25595,-1.67427 5.12003,-1.1102 0.28614,0.0865 0.48435,0.32824 0.7315,0.48598 0.59301,0.37848 1.18439,0.74171 1.75762,1.14595 0.54859,0.38028 1.0996,0.75778 1.63466,1.15405 0.18217,0.13491 0.41176,0.23168 0.54171,0.41009 0.14249,0.19564 0.15207,0.44945 0.24421,0.6689 0.0793,0.18874 0.17962,0.36951 0.26942,0.55425 0.80263,1.05187 2.08363,1.64808 3.07044,2.52737 0.71739,0.70031 1.82405,0.8583 2.62359,1.43841 1.11271,0.80734 -0.27339,0.1978 1.13875,0.71125 0.0529,0.034 1.00703,0.63847 1.03462,0.69908 0.0817,0.17958 -0.13858,0.39079 -0.0831,0.57855 0.0452,0.15281 0.34433,0.18761 0.35627,0.34553 0.055,0.72682 -2.2459,2.12635 -2.39036,2.23958 0.67405,0.49531 1.30341,1.04992 1.85071,1.66116 0.80496,0.76071 1.58551,1.54565 2.42378,2.27719 1.51468,1.74163 0.50308,0.53392 4.27397,-0.44267 0.13569,-0.0352 1.16439,0.40328 1.29362,0.49739 0.14321,0.1043 0.22457,0.26448 0.33686,0.39671 0.38805,0.3997 0.71157,0.83986 1.022,1.29068 0,0 -11.45269,6.07643 -11.45269,6.07643 v 0 c -0.26529,-0.42001 -0.55437,-0.82031 -0.92249,-1.17377 -0.1175,-0.13491 -0.27763,-0.24644 -0.35248,-0.40475 -0.0547,-0.11563 -0.16115,-0.97743 -0.0524,-1.08373 2.62572,-2.56903 3.43943,-1.31334 1.93001,-2.9508 -0.83505,-0.75699 -1.69724,-1.48763 -2.52693,-2.24971 -0.61641,-0.55437 -1.2287,-1.10282 -1.89941,-1.60209 -0.89421,0.37936 -1.75667,0.82887 -2.68261,1.1381 -1.74422,0.58248 -0.41052,0.0231 -1.33903,-0.15862 -0.3098,-0.0606 -0.64441,0.0566 -0.95022,-0.019 -0.39625,-0.098 -0.5288,-0.66041 -0.98486,-0.67606 -1.58263,-1.85259 0.90281,0.95571 -1.08021,-0.91609 -0.60754,-0.57346 -0.67805,-1.56027 -1.52176,-1.97393 -1.16352,-0.74271 -2.16299,-1.6598 -3.2159,-2.52567 -0.2462,-0.10338 -0.48689,-0.21851 -0.73858,-0.31015 -0.25879,-0.0942 -0.54469,-0.12762 -0.79088,-0.24678 -0.19858,-0.0961 -0.34686,-0.26126 -0.52279,-0.38906 -0.54319,-0.39456 -1.10479,-0.76686 -1.6603,-1.14658 -0.30624,-0.22825 -2.15678,-1.52773 -2.24802,-1.6674 -0.1577,-0.24136 -0.36016,-0.58086 -0.20336,-0.8227 0.55733,-0.8596 1.45705,-1.48974 2.18559,-2.23461 -1.12364,-0.76656 -2.32503,-1.44668 -3.27293,-2.40576 -0.29603,-0.25756 -2.07654,-1.80285 -2.27945,-1.83452 -0.46132,-0.072 -0.93331,0.0647 -1.39997,0.0969 -1.18232,0.35827 -2.54351,1.11795 -3.88504,0.76031 -0.24058,-0.0642 -0.4036,-0.27193 -0.61053,-0.40119 -0.56348,-0.352 -1.17417,-0.6369 -1.70702,-1.02922 -1.05144,-0.67075 -2.02959,-1.42342 -3.07428,-2.10194 -0.18529,-0.10987 -0.3975,-0.1889 -0.55588,-0.32964 -0.0619,-0.0549 -0.75651,-0.9731 -0.67673,-1.07953 2.14403,-2.86012 3.52554,-1.53457 1.07404,-2.95888 -1.39402,-0.77997 -2.77229,-1.58404 -4.15318,-2.38263 -0.24157,-0.15451 -0.42994,-0.46089 -0.72473,-0.46352 -0.73095,-0.007 -4.11918,0.94048 -4.74277,0.97749 -0.68882,0.0409 -1.28555,-0.52451 -1.73674,-0.88409 -0.23116,-0.18425 -0.45555,-0.37549 -0.68332,-0.56324 -1.21776,-0.94717 -2.47969,-1.84784 -3.74906,-2.73631 0,0 11.43533,-6.40796 11.43533,-6.40796 z"
       inkscape:connector-curvature="0" />
    <path
       style="fill:#ffff00;stroke-width:0.88173568"
       id="path1739"
       d="m 275.85805,757.99013 c -0.62954,0.14873 -1.36242,0.0294 -1.97863,0.21565 -1.01873,0.30798 -2.33956,1.05984 -3.18024,1.48818 -1.23223,-0.0689 -2.16197,0.62749 -3.21745,1.06587 -1.1533,0.3597 -2.28574,0.82198 -3.35842,1.35459 20.89382,-10.97077 -0.62063,0.34744 -0.93667,0.5122 -2.651,1.38201 5.28814,-2.7861 7.93222,-4.17914 -2.95657,1.55527 -5.90781,3.11905 -8.86972,4.66579 -2.62447,1.37052 5.23533,-2.76272 7.85736,-4.13713 0.18369,-0.0963 -0.36143,0.20178 -0.54214,0.30268 -0.55047,0.2126 -0.96036,0.66309 -1.4813,0.91251 -0.82173,0.39341 -1.69375,0.69708 -2.50359,1.11059 -0.11244,0.0575 -0.12647,0.21325 -0.22891,0.28463 -0.30949,0.21564 -0.66027,0.37661 -0.9904,0.5649 -0.72507,0.60854 -1.41817,1.2478 -2.10746,1.88988 -0.59337,0.5321 -1.1402,1.10441 -1.71827,1.64967 -1.32403,1.25839 -0.80769,0.47193 2.08708,-0.19609 0.0676,-0.0156 0.0479,0.12267 0.0933,0.17106 0.26755,0.28581 0.3304,-0.0749 -0.0766,0.50082 -0.71645,0.9378 -1.40896,1.89684 -2.14093,2.82937 -1.14411,0.95568 -1.58921,2.52327 -2.90188,3.32372 -1.12777,0.68769 -2.3354,1.25901 -3.50311,1.88851 0.31099,0.10599 -0.60869,0.83364 -0.27499,0.96757 0.49621,0.19914 2.68615,-0.50313 3.07801,-0.51894 0.15631,-0.006 0.17437,0.23768 0.2656,0.35393 0.0932,0.11873 0.19166,0.23391 0.2875,0.35085 -0.0495,0.89595 0.0166,1.77616 0.18385,2.65761 0.17955,0.87192 0.69102,1.63333 1.17572,2.38656 -0.0249,0.54464 -0.0481,1.24826 0.38182,1.69659 0.13809,0.144 1.0701,0.61586 1.23317,0.71778 0.1892,0.11827 0.36115,0.25809 0.54174,0.38714 0.73191,0.59734 1.52385,1.23294 2.41403,1.63202 0.34453,0.18615 0.7719,0.10027 1.13444,0.19343 0.15198,0.0391 0.27555,0.15009 0.42929,0.18291 1.00095,0.2137 0.28306,-0.17825 0.94501,0.25691 -0.17762,0.4273 1.03655,0.14708 0.86273,0.39442 -0.50392,0.71708 -2.85519,1.67512 -1.94086,1.84094 1.22023,0.22128 2.16001,-1.13831 3.29959,-1.59454 0.19404,-0.0777 2.05795,-0.31724 2.29465,-0.34923 0.39889,-0.0661 0.79304,-0.16367 1.19666,-0.19818 0.63738,-0.0546 1.28017,0.0197 1.92031,0.0221 0.98173,0.005 1.96273,-5e-5 2.94429,-0.0154 1.83911,0.004 3.6783,0.008 5.51711,-0.025 0.25718,-0.006 0.51436,-0.0113 0.77154,-0.017 0.057,0.0896 0.0578,0.26107 0.17091,0.26901 0.24487,0.0172 0.8544,-0.383 0.70088,-0.20771 -0.59173,0.67562 -1.49685,1.08794 -2.07319,1.77459 -0.18909,0.22528 0.6888,-0.18292 1.45515,-0.52383 0.41142,-0.2419 0.79523,-0.52849 1.23425,-0.72566 0.051,-0.0229 -7.4e-4,0.17329 0.0495,0.14909 0.5579,-0.26863 1.01367,-0.70263 1.58919,-0.93815 0.14971,-0.0613 -0.38484,0.47074 -0.24731,0.38899 3.18365,-1.89267 3.28068,-3.31534 3.12651,-1.90196 0.70244,-0.42175 1.40316,-0.68469 2.11418,-1.06648 0.12335,-0.0663 0.49116,-0.26841 0.36708,-0.2033 -8.57111,4.4965 -17.88589,9.42051 1.0641,-0.58173 -3.15861,1.66616 -6.31553,3.33498 -9.47581,4.99851 -0.21244,0.11183 0.4203,-0.23083 0.6323,-0.34339 3.61544,-1.91957 7.22929,-3.84165 10.84996,-5.75296 3.14286,-1.65906 -6.27402,3.33662 -9.41653,4.99626 -0.22708,0.11994 0.44819,-0.24913 0.67004,-0.37699 0.23304,-0.13429 0.46303,-0.27295 0.69454,-0.40943 1.49896,-0.81225 3.00568,-1.60209 4.39379,-2.56893 0.3056,-0.18237 0.58972,-0.39913 0.91681,-0.54708 1.23322,-0.55778 2.52282,-1.00711 3.75535,-1.56614 0.68624,-0.31124 1.71589,-1.21863 2.31738,-1.69783 1.05824,-0.93041 2.13225,-1.84643 3.15428,-2.81051 -0.84433,8.5e-4 -1.61603,0.39455 -2.44505,0.45908 -0.09,0.007 -0.22013,-0.10091 -0.18834,-0.17824 0.0623,-0.15158 1.12323,-1.14022 1.31252,-1.35614 0.83591,-1.06213 1.59428,-2.17316 2.24854,-3.33689 0.4022,-0.7825 0.12652,-0.36154 0.82413,-1.13749 1.78315,-1.98341 -1.09239,0.99063 4.09321,-2.60887 0.0271,-0.0189 0.40451,-1.26582 0.40972,-1.28278 -0.77927,-0.0725 -2.44734,0.34529 -3.14014,-0.18204 -0.37705,-0.287 -0.10651,-1.1236 -0.0796,-1.48321 0.15329,-0.9054 -0.14995,-1.95908 0.31233,-2.81148 0.18925,-0.34898 0.46604,-0.65217 0.69906,-0.97826 2.22105,-1.41778 2.98319,-1.42788 2.28235,-3.27527 -0.0733,-0.19331 -0.0394,-0.59396 -0.26098,-0.56554 -4.64209,0.59549 -2.00159,1.55406 -3.87773,0.76335 -0.23237,-0.0819 -0.49029,-0.11887 -0.69711,-0.24573 -0.15117,-0.0927 -0.22171,-0.2643 -0.34025,-0.39064 -0.53929,-0.57475 -1.12631,-1.11041 -1.80717,-1.53983 -1.14445,-0.8463 -2.51922,-1.22661 -3.95096,-1.41088 -0.20829,-0.0159 -0.43747,0.0369 -0.62487,-0.0477 -0.11775,-0.0533 -0.0741,-0.25387 -0.18504,-0.31806 -0.14833,-0.0858 -0.62808,0.0364 -0.51756,-0.0882 1.92954,-2.17653 3.48838,-1.94257 1.15415,-1.91819 -0.61149,0.10624 -1.7301,-0.15774 -2.27933,0.0519 -0.67629,0.25815 -1.29728,0.62378 -1.94643,0.93478 -0.62126,0.29765 -1.2432,0.59412 -1.8648,0.89117 -0.92088,1.2e-4 -1.77555,0.33621 -2.67845,0.4325 -0.088,0.009 -1.01649,0.007 -1.11102,0.008 -1.08068,0.0153 -2.16104,-0.005 -3.2417,-0.003 -1.02504,0.006 -2.05007,0.0129 -3.07513,0.0165 -0.27649,-0.14005 -0.67102,0.14124 -0.94789,0.002 -0.088,-0.0443 0.0111,-0.20693 -0.0625,-0.26942 -0.10199,-0.0867 -0.32707,-0.0102 -0.3964,-0.12055 -0.0803,-0.12794 0.20493,-0.45134 0.0439,-0.44074 -0.43036,0.0284 -0.77714,0.34303 -1.16571,0.51455 0.22789,-0.24256 0.4416,-0.4969 0.68368,-0.72769 0.31182,-0.29723 0.70993,-0.52223 0.97608,-0.85453 0.0607,-0.0757 -0.20917,-0.008 -0.30731,0.0196 -0.49166,0.13833 -1.57581,0.84051 -1.73025,0.94449 -0.81724,0.55018 -1.59836,1.14387 -2.39752,1.71579 -0.1873,0.0824 -0.38353,0.14961 -0.56188,0.2472 -0.29814,0.16312 -1.1662,0.68986 -0.86407,0.53301 3.64558,-1.89266 7.25138,-3.84888 10.89686,-5.74171 0.14936,-0.0776 -0.27052,0.19368 -0.40339,0.29324 -0.0584,0.0437 -0.84161,0.65019 -0.8699,0.67208 -0.64691,0.58967 -1.57031,0.89099 -2.21897,1.472 -0.0746,0.0668 -0.098,0.16859 -0.14696,0.25289 -0.18596,0.12942 -0.37192,0.25885 -0.55789,0.38827 -0.60557,0.57471 -1.35757,0.79578 -2.12194,1.14879 -0.33628,0.15529 -0.68281,0.38829 -0.99205,0.58588 -0.7343,0.4787 -1.31146,1.06888 -1.85507,1.72027 -0.26193,0.41505 -1.70485,2.27177 -1.72678,2.6181 -0.008,0.12167 0.16265,0.19312 0.24396,0.28967 0.25643,0.0496 0.63477,-0.0571 0.76925,0.14863 0.12491,0.19104 -0.16712,0.41845 -0.26537,0.62211 -0.10464,0.21694 -0.14833,0.48167 -0.34274,0.63857 -0.60029,0.48444 -1.30612,0.84834 -1.98343,1.23873 -2.75814,1.58979 -1.91246,0.56569 -2.78201,1.75875 -0.62711,0.75286 -1.26258,1.50165 -1.92422,2.22985 -0.52375,0.5591 -1.1142,1.03861 -1.57565,1.64489 -1.20404,1.67159 -0.76899,0.55053 2.07381,0.13146 0.13162,-0.0194 -0.11917,0.23805 -0.0884,0.35667 0.17637,0.68084 0.8698,-0.40836 -0.28263,0.79236 -1.91445,1.94523 0.1938,0.53118 -4.11572,2.73043 0,0 -5.17243,2.07445 -5.17243,2.07445 v 0 c -4.82957,1.27246 -2.51652,1.16775 -2.15128,0.23341 0.0383,-0.0979 -0.0328,-0.20574 -0.0491,-0.30861 0.10962,-0.88572 -0.0901,-0.24664 0.9604,-1.16416 0.20423,-0.17837 0.31756,-0.44684 0.55699,-0.58379 2.60349,-1.48925 3.02989,-0.83614 3.90806,-2.51318 0.43678,-0.65381 0.94217,-1.18744 1.54752,-1.71369 0.75841,-0.67454 1.36703,-1.47441 2.04762,-2.21349 0.11276,-0.14128 0.52952,-0.42256 0.33827,-0.42383 -0.19125,-0.002 -2.87585,0.71484 -3.12411,0.64205 -0.20271,-0.0594 0.1814,-0.35224 0.26759,-0.53022 0.52644,-1.08693 0.0205,-0.37395 1.52618,-1.62938 0.24393,-0.26691 0.51151,-0.51713 0.73177,-0.80072 0.12745,-0.16409 0.19835,-0.35949 0.30579,-0.53516 0.43558,-0.7122 0.91525,-1.40229 1.31742,-2.13125 0.43052,-0.70697 0.88922,-1.46167 1.64634,-1.91334 0.1359,-0.12961 0.43059,-0.42396 0.59442,-0.52691 0.11738,-0.0738 0.38786,-0.0486 0.38005,-0.17858 -0.008,-0.11877 -0.30439,0.11397 -0.38932,0.0239 -0.16296,-0.17282 0.97881,-0.0639 0.65242,-0.33567 0.65303,-0.7233 -0.43212,0.43123 0.85928,-0.64777 0.37736,-0.31529 0.51228,-0.8931 0.9936,-1.13257 0.39089,-0.26727 0.72066,-0.68697 1.1322,-0.91385 3.89069,-2.14493 7.81781,-4.2341 11.72672,-6.35115 0.11106,0.19406 0.0198,0.11441 0.37535,-0.0435 -0.52769,0.43599 -1.07438,0.85353 -1.58308,1.30801 -0.12905,0.11528 -0.4104,0.25113 -0.32442,0.39617 0.0791,0.13353 0.31587,-0.0945 0.47091,-0.14906 0.22174,-0.078 0.45159,-0.14239 0.65898,-0.24843 0.67334,-0.34428 1.31828,-0.73307 1.97743,-1.09961 0.57951,-0.28944 1.159,-0.57888 1.73849,-0.86832 -0.0111,0.13756 -0.1844,0.41607 -0.0335,0.41267 0.45664,-0.0103 0.84533,-0.32051 1.28278,-0.44074 0.246,-0.0676 0.51074,-0.0612 0.75929,-0.12055 0.73435,-0.17539 1.06525,-0.35685 1.81523,-0.26737 1.00842,0.004 2.01681,0.0104 3.02522,0.0167 1.08266,0.003 2.16505,-0.0172 3.24771,-0.003 0.0541,2e-5 1.02799,-0.002 1.08662,0.007 1.04322,0.16217 -0.23409,0.0523 0.5458,0.31432 0.26424,0.0888 0.58024,-0.0349 0.83573,0.11116 -0.27045,0.29583 -0.54015,0.59224 -0.81137,0.88748 -0.28539,0.31065 -0.71389,0.54661 -0.85843,0.93018 -0.0309,0.082 1.51965,0.0294 1.63758,0.0289 0.17322,-6.4e-4 0.34641,0.004 0.51962,0.006 0.18123,0.004 0.3625,0.006 0.54371,0.0103 0.19112,0.005 0.40222,0.0955 0.57326,0.0173 7.81641,-3.57094 1.40682,-1.55705 4.28891,-1.91444 1.60184,-0.19864 0.59334,-0.31012 1.76252,-0.0869 1.54626,0.38368 2.94559,1.03511 4.27745,1.85052 0.43857,0.32584 2.31951,1.86087 2.45063,2.2847 0.0686,0.22166 -0.0454,0.45884 -0.0681,0.68825 0.058,2.03806 0.20305,-0.32191 -2.77807,2.8267 -0.15572,0.16448 0.16188,0.40922 0.23618,0.6159 0.64814,1.80287 0.51871,1.49737 3.38688,0.64147 0.28463,0.0922 0.61595,0.10662 0.85386,0.27665 0.61906,0.44242 0.28785,2.07246 0.3145,2.71868 -0.009,0.10323 -0.0796,1.04989 -0.10645,1.13507 -0.56981,1.80748 -3.0307,2.93528 -4.39293,4.15806 -0.20467,0.66417 -0.4052,1.29241 -0.35714,1.29035 1.05279,-0.0451 2.00176,-0.64713 3.04662,-0.77325 0.0428,-0.005 0.14677,0.79582 0.14669,0.7961 -0.051,0.19499 -0.20128,0.35621 -0.30191,0.53432 -0.61427,1.21873 -1.38664,2.3703 -2.15608,3.51092 -0.34387,0.50582 -0.70228,1.11097 -1.21673,1.49557 -1.58725,1.18661 -3.56848,1.81516 -5.31095,2.77121 -1.03469,0.95994 -2.10725,1.88434 -3.14,2.84614 -0.56951,0.43346 -1.117,0.87656 -1.69698,1.29777 -0.18267,0.13268 -0.76816,0.44394 -0.53795,0.40939 2.11894,-0.31796 3.14139,-1.33156 1.93492,-0.2787 -1.45606,0.91124 -2.8191,1.95426 -4.43503,2.64028 -0.45114,0.26835 -0.88041,0.5682 -1.34422,0.81781 -3.5926,1.93339 -7.22691,3.80195 -10.80445,5.75855 -3.13182,1.71283 6.31083,-3.35245 9.46719,-5.02718 0.21137,-0.11216 -0.42078,0.22741 -0.63224,0.33942 -3.54827,1.87976 -7.09796,3.75725 -10.64694,5.63587 23.52058,-12.43756 0.96894,-0.50994 -1.14085,0.59511 -0.14966,0.0784 -0.31253,0.13347 -0.4688,0.20021 -0.0608,7.6e-4 -0.12589,-0.0183 -0.18232,0.003 -0.76595,0.28029 -0.82652,0.58403 -0.60284,0.0706 -2.73878,1.56139 0.14716,0.002 0.8406,-0.98406 0.29956,-0.42567 -0.88115,0.6477 -1.40634,0.80764 -0.23697,0.0722 0.72476,-0.57339 0.48052,-0.52569 -1.33084,0.25994 -0.98894,1.10241 -1.19105,0.49841 -0.23612,0.0853 -0.46805,0.18111 -0.70837,0.25608 -0.24371,0.076 -0.5207,0.0761 -0.74206,0.19644 -7.52964,4.09327 -1.4723,1.61766 -4.56391,2.3359 -1.84882,0.42954 -0.65929,0.38557 -2.00765,0.35447 -1.81631,-0.0341 -3.6331,-0.0248 -5.44969,-0.019 -0.96891,-0.0143 -1.93726,-0.0156 -2.90628,-0.0131 -0.66256,0.002 -1.33148,0.0971 -1.98762,0.0131 -0.2099,-0.0269 -0.39495,-0.14074 -0.59243,-0.2111 -0.59878,-0.1611 -1.24285,-0.31723 -1.19145,-0.40858 0.36869,-0.65521 2.41251,-1.69453 1.60814,-1.65051 -1.35937,0.0743 -2.35526,1.26255 -3.60382,1.75972 -0.2694,0.10728 -0.58812,0.005 -0.88103,0.0261 -0.32816,0.0238 -0.65359,0.0725 -0.98038,0.10871 -2.00063,0.0836 0.008,0.10951 -1.2536,-0.13445 -0.19371,-0.0375 -0.39753,-8.5e-4 -0.59314,-0.029 -0.51925,-0.0743 -0.9884,-0.29663 -1.42778,-0.54773 -0.91205,-0.60989 -1.79355,-1.27997 -2.5464,-2.0516 -0.0951,-0.18945 -0.21133,-0.37116 -0.28518,-0.56835 -5.1e-4,-0.002 -0.32391,-1.2474 -0.32826,-1.2548 -0.32935,-0.5604 -1.13598,-0.7985 -1.69066,-1.09777 -0.5565,-0.88201 -1.16545,-1.74939 -1.44319,-2.7491 -0.17476,-0.96131 -0.35506,-1.90541 -0.25355,-2.88634 0.004,-0.008 0.63055,-1.32842 0.63248,-1.33013 0.62255,-0.55207 2.63697,-1.70151 3.3297,-2.46708 0.25606,-0.283 -0.0168,-0.80244 0.31894,-1.06262 -1.00371,0.25713 -1.97635,0.65673 -3.01113,0.77138 -0.16758,0.0186 -0.25001,-0.25878 -0.23092,-0.41216 0.0681,-0.54719 1.43516,-2.10693 1.8037,-2.62725 0.42022,-0.44224 0.83562,-0.93249 1.15118,-1.44521 0.26068,-0.42357 0.38577,-0.87866 0.84982,-1.1791 0.34081,-0.53395 1.0595,-1.23787 1.65222,-1.53592 4.04452,-2.03385 2.52927,-0.64419 3.99617,-2.19691 0.63066,-0.49895 1.09929,-1.14355 1.72203,-1.6515 0.74465,-0.5982 1.40159,-1.28251 2.11569,-1.90892 -0.0419,-0.0443 -0.16591,-0.0874 -0.12561,-0.13294 0.1808,-0.20416 0.96013,-0.44877 0.67617,-0.48874 -0.51565,-0.0727 -0.98997,0.37822 -1.51163,0.37113 -0.64426,-0.008 2.07386,-1.13667 1.44448,-1.04935 3.20971,-1.66269 5.56544,-2.88062 9.43534,-5.00591 2.6214,-1.43963 -10.5899,5.59664 -7.93992,4.20144 29.44182,-15.50078 -19.64744,10.30752 9.82904,-5.16466 1.09311,-0.4483 2.19972,-0.86477 3.29758,-1.3017 1.10893,-0.52391 2.24179,-0.85892 3.50644,-0.85053 -0.30731,0.31374 -0.66023,0.59461 -0.92189,0.94123 -0.0761,0.10069 -0.17507,0.2965 -0.0626,0.36263 0.22034,0.12944 1.82476,-0.33717 2.19869,-0.2974 0,0 -3.94997,2.62426 -3.94997,2.62426 z"
       inkscape:connector-curvature="0" />
    <path
       style="fill:#ffff00;stroke-width:0.88173568"
       id="path1741"
       d="m 224.32792,722.22026 c -0.42227,0.92197 -0.97539,1.78308 -1.45799,2.67899 -0.26128,0.2493 -0.65599,1.61001 -0.88158,1.76756 -0.56417,0.394 -1.22225,0.66092 -1.82246,1.00755 -0.35818,0.20686 -0.70118,0.4349 -1.05178,0.65235 0.22928,-0.012 -0.64097,0.54396 -0.39666,0.65561 0.20947,0.0957 0.51993,-0.16289 0.70183,-0.0281 0.12142,0.09 -0.40123,0.32065 -0.25155,0.36179 0.3446,0.0948 0.70942,-0.12647 1.06907,-0.137 0.17905,-0.005 0.35217,0.0602 0.52826,0.0903 -0.0778,0.1091 -0.15545,0.21818 -0.23317,0.32728 -0.0294,0.0953 -0.0349,0.19974 -0.0883,0.28586 -0.0758,0.12211 -0.20791,0.20839 -0.29156,0.32615 -0.0391,0.055 -0.0479,0.12366 -0.0719,0.1855 -0.01,0.0721 0.0142,0.15508 -0.0288,0.21616 -0.0855,0.12164 -0.22492,0.20327 -0.33738,0.30491 -1.5262,1.24587 -3.49253,1.71276 -5.28276,2.55833 -1.6219,0.76606 -3.16448,1.66532 -4.76175,2.47347 -1.11435,0.56382 2.20856,-1.16026 3.31285,-1.74039 -12.71524,6.68708 -0.8068,0.43098 -1.21261,0.64263 -2.10229,1.0964 -3.95896,2.19314 -6.12494,3.03654 -0.083,0.0375 -1.05298,0.47599 -1.08419,0.48713 -0.77083,0.27521 -0.15267,-0.24073 -1.31138,0.4582 -3.15041,1.9003 -1.96199,2.62 -3.08819,1.88584 -0.65718,0.51436 -1.41932,0.66004 -2.19355,0.92272 -0.19039,0.0646 -0.35957,0.18902 -0.55985,0.2197 -0.063,0.01 -0.0874,-0.12901 -0.14828,-0.11123 -0.34054,0.0994 -0.64077,0.28995 -0.96115,0.43494 0.36407,-0.64707 1.07324,-1.03662 1.52295,-1.61708 0.26464,-0.34159 -0.31881,0.028 -0.62339,0.0625 -0.38703,0.0437 -0.30005,-0.28677 -0.35658,-0.53707 0.0946,-0.5916 1.17,-0.71265 1.40864,-1.13084 0.0455,-0.0798 -0.18949,-0.0912 -0.28526,-0.0703 -0.69155,0.15135 -1.35818,0.38572 -2.03727,0.57859 0.1208,-0.0822 0.28182,-0.13028 0.36241,-0.24661 0.0289,-0.0418 -0.1642,-0.0479 -0.13122,-0.087 0.11353,-0.1347 1.4568,-0.93473 1.73145,-1.13819 0.37407,-0.25022 0.75891,-0.51026 1.16121,-0.72206 39.138,-20.60597 -26.6129,14.10543 12.59318,-6.63617 -19.02907,11.20584 -12.63946,6.69876 -8.43955,4.27312 1.57296,-0.99324 3.41895,-1.55359 5.1157,-2.32809 0.578,-0.26382 1.14311,-0.75265 1.65994,-1.10615 0.92307,-0.65706 1.95647,-1.16239 2.86002,-1.84129 -0.37577,-0.0711 1.14412,-0.58455 0.79567,-0.65965 -0.33621,-0.0725 -0.67231,0.15379 -1.01573,0.18768 -0.16243,0.016 -0.32551,-0.0261 -0.48826,-0.0392 0,0 9.01839,-3.42796 9.01839,-3.42796 v 0 c -0.44477,0.25132 -0.88121,0.51539 -1.3343,0.75394 -1.02783,0.54113 -1.88751,0.80207 -2.63985,1.57556 -0.90085,0.75395 -1.96502,1.26979 -2.96225,1.90817 -0.54792,0.38808 -0.52463,0.37765 -1.07973,0.74706 -0.16879,0.11232 -0.7158,0.36056 -0.50914,0.33352 0.63722,-0.0834 1.22632,-0.36043 1.84921,-0.50893 0.19357,-0.0462 0.3997,-0.11466 0.59466,-0.0737 0.0761,0.016 -0.0968,0.11212 -0.14512,0.16816 -0.26264,0.37615 -0.62837,0.56878 -0.99916,0.84896 -3.76403,2.84422 -9.8682,2.04665 -12.58482,6.79528 36.47681,-19.35832 -26.70819,14.15556 10.12663,-5.35963 0.12994,-0.0689 -0.2722,0.1179 -0.39864,0.192 -0.85572,0.50149 0.0878,0.0751 -0.87034,0.46893 -0.59947,0.34872 -1.08608,0.8549 -1.70786,1.16994 -0.3264,0.16538 -0.68096,0.28178 -1.00475,0.45141 -0.20166,0.10564 -0.37762,0.24782 -0.56643,0.37173 -1.16487,0.45752 -3.1335,1.13514 -4.37647,1.84513 -0.15926,0.091 -0.27129,0.23825 -0.41862,0.34471 -0.21116,0.1526 -0.49544,0.3702 -0.77059,0.38884 -0.34357,-0.49803 -0.15541,-0.0453 0.7978,-0.54701 1.20301,-0.63307 2.31718,-1.40034 3.52174,-2.03161 0.0286,0.0427 0.0347,0.14591 0.086,0.12826 0.33606,-0.11546 0.61667,-0.33803 0.93995,-0.48076 0.2802,-0.12371 1.45315,-0.56768 1.72561,-0.62965 0.0694,-0.0158 0.1374,0.0366 0.20609,0.0549 3.12436,-1.6032 -1.97664,1.40748 -0.76604,1.20078 0.33365,-0.057 0.62412,-0.24414 0.9372,-0.36397 0.16856,-0.0645 0.33232,-0.13911 0.49847,-0.20865 0.51397,-0.21078 0.50264,-0.20242 1.02176,-0.43098 0.17717,-0.078 0.69843,-0.32968 0.52981,-0.23719 -1.18956,0.65254 -9.33643,4.94279 1.16324,-0.607 1.09262,-0.57753 -2.18359,1.15766 -3.27538,1.73648 11.92789,-6.32598 1.02252,-0.53786 0.85915,-0.4664 -0.78659,0.34406 -1.64034,0.54688 -2.48172,0.75607 -0.091,0.0226 0.17401,-0.1034 0.19478,-0.18749 0.0106,-0.0431 -0.0949,-0.0164 -0.14241,-0.0246 0.0885,-0.0851 0.17694,-0.1703 0.26541,-0.25544 0.79056,-0.63681 1.77857,-1.12122 2.40314,-1.91002 0.44184,-0.25721 2.42382,-1.40393 2.64079,-1.56846 0.13257,-0.10052 0.10404,-0.31771 0.23373,-0.42135 0.69229,-0.55328 1.5882,-0.80174 2.05585,-1.56702 -0.96734,-0.0666 -0.35873,-0.0785 -1.80109,0.27616 -0.15441,-0.005 0.19899,-0.2178 0.27715,-0.33964 0.27945,-0.43558 0.50689,-0.92234 0.68008,-1.39996 0.25727,-0.44803 0.4665,-0.91548 0.746,-1.35271 0.15158,-0.23711 0.38741,-0.51786 0.48906,-0.7835 0.0485,-0.12679 0.0566,-0.26363 0.0848,-0.39544 0,0 9.08396,-3.84173 9.08396,-3.84173 z"
       inkscape:connector-curvature="0" />
    <path
       style="fill:#ffff00;stroke-width:0.88173568"
       id="path1743"
       d="m 227.567,720.3641 c 0.19939,-0.0242 0.399,-0.0471 0.59818,-0.0727 1.46332,-0.18858 0.25319,-0.0155 1.76268,-0.32117 0.36146,-0.0732 1.01088,-0.52841 1.08941,-0.19758 0.28893,1.21729 -2.39432,1.49412 0.29987,0.95741 1.07109,-0.4658 2.44444,-0.36845 3.46017,-0.95546 1.11154,-0.64235 2.11301,-1.44187 3.25574,-2.03667 0.18907,-0.0984 -0.22069,0.34288 -0.33104,0.51433 0.75206,-0.47964 1.88556,-1.15623 2.41213,-1.38352 0.14519,-0.0627 0.32093,-0.0424 0.46966,-0.0977 0.15628,-0.0582 1.15052,-0.55108 1.36316,-0.65568 0.20353,-0.11954 0.40707,-0.23908 0.61061,-0.35862 -0.17863,0.19859 -0.79223,0.70147 -0.53589,0.59578 0.61134,-0.25205 2.23444,-1.35279 1.64851,-1.05452 -2.88137,1.46671 -5.67523,3.07343 -8.54218,4.56364 -0.0341,0.0177 -0.0988,-0.0729 -0.0643,-0.0901 0.56719,-0.28196 1.16965,-0.5001 1.75447,-0.75014 3.97715,-2.16498 20.59362,-11.13705 -0.20647,-0.10959 -0.38533,0.20427 0.82204,-0.32364 1.19598,-0.54492 0.0527,-0.0312 -0.21471,-0.0116 -0.17746,-0.0577 0.26388,-0.32746 0.6953,-0.50758 1.03871,-0.76612 0.54208,-0.27226 0.75311,-0.91359 1.28312,-1.19396 1.13728,-0.60158 2.36135,-1.05935 3.49379,-1.66851 0.0227,-0.0122 0.53968,-0.68522 0.5656,-0.71876 0.27712,-0.41976 0.80405,-1.08955 0.13943,-1.39739 -0.98039,-0.23611 -2.01972,-0.24115 -3.02828,-0.25817 -2.5122,-0.0659 -2.27517,0.28111 -4.85086,1.96827 -0.46396,0.3039 -1.89681,1.15613 -1.39458,0.90825 3.36966,-1.66313 6.67115,-3.43924 10.00672,-5.15885 -4.41772,2.63296 -9.05712,4.84779 -13.62794,7.30921 -3.52015,1.89563 7.0759,-3.73545 10.61587,-5.59998 0.19701,-0.10376 -0.3913,0.21179 -0.58696,0.31767 -0.8541,0.39011 -1.50606,1.05915 -2.28482,1.54068 -0.29727,0.18381 -2.69457,1.46429 -2.8323,1.53826 -2.15655,0.70358 -3.82735,1.99778 -5.67102,3.15078 -0.50389,0.32256 -1.03309,0.60886 -1.54907,0.91454 -0.14484,0.0858 -0.6014,0.29611 -0.43382,0.25841 1.67758,-0.3773 2.54362,-1.0188 1.50697,-0.31963 -3.12816,1.94885 -0.77301,0.49304 -9.21027,4.85949 -0.15986,0.0827 -0.66321,0.2873 -0.50439,0.20291 2.6286,-1.3968 10.58031,-5.4816 7.91656,-4.14164 -1.74153,0.87606 -20.60906,10.77241 -1.00365,0.49773 -11.53529,6.07373 -11.81171,6.21969 -0.8304,0.43609 0,0 -9.18869,3.29823 -9.18869,3.29823 v 0 c 11.45004,-6.12953 11.75681,-6.27387 0.86654,-0.51752 24.90685,-13.07755 -0.0763,0.0293 1.00695,-0.49996 0.0423,-0.0207 22.68953,-11.97404 1.43355,-0.6884 -0.1782,0.0946 0.36062,-0.18244 0.54093,-0.27364 1.74498,-0.78681 3.56193,-1.40879 5.13399,-2.47392 0.71511,-0.46198 1.4562,-0.88449 2.17298,-1.34403 1.1217,-0.71913 1.03253,-0.49474 -1.1553,4.7e-4 -0.70347,-0.4315 -0.32228,-0.4115 0.2502,-0.85302 0.53537,-0.41288 1.01355,-0.89257 1.61093,-1.2385 4.27717,-2.67546 1.39235,-0.89043 12.38937,-6.60414 3.55394,-1.84652 -7.07567,3.74436 -10.61158,5.61956 -0.20225,0.10726 0.41212,-0.2026 0.61051,-0.31569 0.21418,-0.12209 0.41741,-0.25952 0.62612,-0.38928 0.22386,-0.12645 0.44772,-0.25289 0.67156,-0.37933 3.79473,-1.98219 7.55287,-4.02412 11.38417,-5.94657 0.0746,-0.0375 0.056,0.17427 9.3e-4,0.23379 -0.43941,0.47542 -1.10484,0.78213 -1.4405,1.32367 -0.10946,0.1766 0.44016,-0.0576 0.66189,-0.0674 0.47263,-0.021 0.94684,0.0395 1.41948,0.0128 1.15202,-8.5e-4 2.40253,-0.14542 3.48336,0.28803 0.84583,0.63882 0.55353,1.27966 0.0853,2.0633 -1.08717,1.47531 -1.14587,0.41318 2.31281,-0.16658 0.16651,-0.0279 -0.0747,0.30773 -0.16278,0.43989 -0.12661,0.18986 -0.30875,0.34381 -0.47052,0.50984 -0.14922,0.15314 -0.30805,0.29817 -0.46207,0.44726 -0.35634,0.33208 -0.58204,0.57601 -1.00636,0.83869 -0.37054,0.22938 -0.79297,0.38864 -1.1436,0.64285 -0.0552,0.04 0.13813,0.0241 0.20719,0.0361 -3.46028,1.82785 -6.92056,3.65572 -10.38084,5.48358 -2.82953,1.26467 5.39454,-2.97367 8.09182,-4.46049 0.21327,-0.0401 0.80321,-0.2519 0.63981,-0.12029 -0.3514,0.28304 -0.83456,0.3895 -1.24002,0.60372 -3.26866,1.72694 -6.52101,3.47954 -9.78151,5.21931 0.1185,-0.14273 0.52521,-0.51782 0.35551,-0.42819 -0.6578,0.34745 -1.23311,0.81159 -1.84966,1.21738 -0.21776,0.10286 -0.43551,0.20571 -0.65327,0.30855 -0.23663,0.10163 -0.47326,0.20324 -0.7099,0.30486 -0.17957,0.0535 -0.36566,0.0914 -0.53869,0.16057 -0.25444,0.10178 -0.47713,0.26779 -0.73961,0.3507 -0.0388,0.0123 0.0204,-0.12617 -0.0175,-0.11154 -0.32805,0.12674 -0.60699,0.61213 -0.93163,0.47823 -0.27016,-0.11143 0.37331,-0.42103 0.55996,-0.63154 -2.93759,1.58188 -0.79967,0.55398 0.57945,-0.91304 0.11621,-0.12361 -0.35193,0.0526 -0.52669,0.0849 -0.83623,0.154 -1.65802,0.36531 -2.49543,0.51457 -2.64176,0.48139 0.28155,-0.16026 -4.35592,1.88041 -0.38641,0.17003 -0.82693,0.20852 -1.24401,0.29962 -0.93928,0.20514 -1.89696,0.34417 -2.85042,0.47932 0,0 8.0394,-5.34118 8.0394,-5.34118 z"
       inkscape:connector-curvature="0" />
    <path
       style="fill:#ffff00;stroke-width:0.88173568"
       id="path1745"
       d="m 215.41284,725.6449 c -0.12318,-0.15423 -0.84336,-1.29055 -0.94289,-1.29261 -0.61018,-0.0125 -1.16915,0.43447 -1.77827,0.39903 -0.18753,-0.0109 -0.0592,-0.33944 -0.0957,-0.50804 -0.0403,-0.18694 -0.0897,-0.37217 -0.1344,-0.55825 0.8429,-0.7266 1.8566,-1.31706 2.52873,-2.17979 0.1315,-0.16879 -0.34303,-0.27096 -0.51115,-0.40994 -0.5752,-0.47554 -1.16799,-0.92985 -1.74984,-1.39891 -0.77439,-0.7728 -1.61824,-1.46488 -2.58942,-2.0229 -1.83512,-1.33083 -1.04655,-0.36622 -4.40431,0.76599 -0.22791,0.0769 -0.48392,-0.0549 -0.72676,-0.0492 -1.50491,0.0354 -0.56209,0.2488 -1.69832,-0.12375 -0.95367,-0.32966 -1.85657,-0.74098 -2.76541,-1.15749 -0.5654,0.0192 -1.04122,-0.71166 -1.50468,-0.7978 -0.15125,-0.0281 -0.27808,0.17357 -0.34196,0.25139 3.85082,-2.03893 7.72648,-4.0391 11.55243,-6.11679 0.0498,-0.0269 -0.15537,-0.126 -0.15407,-0.0731 0.003,0.10349 0.43689,0.77218 0.43949,0.77589 0.12397,0.17653 0.60479,0.7502 0.72761,0.89863 0.29726,0.45431 1.90569,1.32742 1.2974,2.01068 -2.25267,2.53033 -2.69167,0.97453 -2.08196,2.46737 0.74318,0.56884 1.55547,1.04941 2.33246,1.57691 0.1229,0.0918 0.24579,0.18346 0.36869,0.2752 0,0 -3.99897,2.30649 -3.99897,2.30649 v 0 c -0.1274,-0.0845 -0.2548,-0.16892 -0.38221,-0.25337 -0.78906,-0.51382 -1.54397,-1.07632 -2.25808,-1.67438 -1.9352,-0.63024 0.28944,-0.0586 -3.96657,0.99344 -1.17441,0.29028 -1.93932,-0.9493 -2.61298,-1.55602 -4.31741,-5.10967 -3.03212,-2.98743 9.68758,-8.87432 0.65246,0.42702 1.29195,0.84509 2.04137,1.12264 0.85181,0.44189 1.76898,0.75682 2.63114,1.1812 0.82663,0.51675 0.0832,-0.0752 0.53326,0.77248 0.0794,0.14952 0.46227,0.24586 0.35393,0.37932 -2.11086,2.60069 -3.26848,1.38291 -1.14855,2.60359 0.94455,0.61117 1.83853,1.29217 2.62973,2.06604 0.58167,0.46549 1.11281,0.95998 1.66459,1.45322 0.16497,0.14745 0.28393,0.47669 0.50865,0.42909 1.23654,-0.26195 2.35898,-0.85761 3.53847,-1.28643 0.002,5.3e-4 1.64103,0.42652 1.62457,0.51919 -0.0913,0.51397 -0.84332,0.74439 -1.05733,1.22692 -0.10638,0.23984 0.80672,0.93692 0.96708,1.08216 0,0 -8.52336,4.77621 -8.52336,4.77621 z"
       inkscape:connector-curvature="0" />
  </g>
</svg>
