<?xml version="1.0" encoding="UTF-8" standalone="no"?>
<!-- Generator: Adobe Illustrator 16.0.0, SVG Export Plug-In . SVG Version: 6.00 Build 0)  -->

<svg
   xmlns:dc="http://purl.org/dc/elements/1.1/"
   xmlns:cc="http://creativecommons.org/ns#"
   xmlns:rdf="http://www.w3.org/1999/02/22-rdf-syntax-ns#"
   xmlns:svg="http://www.w3.org/2000/svg"
   xmlns="http://www.w3.org/2000/svg"
   xmlns:xlink="http://www.w3.org/1999/xlink"
   xmlns:sodipodi="http://sodipodi.sourceforge.net/DTD/sodipodi-0.dtd"
   xmlns:inkscape="http://www.inkscape.org/namespaces/inkscape"
   version="1.1"
   id="svg2"
   sodipodi:docname="universeFloor.svg"
   inkscape:version="0.92.2 5c3e80d, 2017-08-06"
   x="0px"
   y="0px"
   width="368.30658"
   height="245.72856"
   viewBox="0 0 368.30658 245.72855"
   enable-background="new 0 0 430.543 325.295"
   xml:space="preserve"><metadata
     id="metadata152"><rdf:RDF><cc:Work
         rdf:about=""><dc:format>image/svg+xml</dc:format><dc:type
           rdf:resource="http://purl.org/dc/dcmitype/StillImage" /><dc:title /></cc:Work></rdf:RDF></metadata><defs
     id="defs147"><linearGradient
       inkscape:collect="always"
       id="linearGradient2737"><stop
         style="stop-color:#00006f;stop-opacity:1;"
         offset="0"
         id="stop2733" /><stop
         style="stop-color:#00006f;stop-opacity:0;"
         offset="1"
         id="stop2735" /></linearGradient><linearGradient
       inkscape:collect="always"
       id="linearGradient2715"><stop
         style="stop-color:#000a53;stop-opacity:1;"
         offset="0"
         id="stop2711" /><stop
         style="stop-color:#000a53;stop-opacity:0;"
         offset="1"
         id="stop2713" /></linearGradient><inkscape:perspective
       id="perspective2985"
       inkscape:vp_z="744.09448 : 526.18109 : 1"
       inkscape:vp_y="0 : 999.99999 : 0"
       inkscape:vp_x="0 : 526.18109 : 1"
       sodipodi:type="inkscape:persp3d"
       inkscape:persp3d-origin="372.04724 : 350.78739 : 1" /><linearGradient
       inkscape:collect="always"
       xlink:href="#linearGradient2715"
       id="linearGradient2717"
       x1="9.5355034"
       y1="202.1564"
       x2="420.48727"
       y2="202.1564"
       gradientUnits="userSpaceOnUse"
       gradientTransform="matrix(0.89473559,0,0,1,-7.923367,-79.17417)" /><linearGradient
       inkscape:collect="always"
       xlink:href="#linearGradient2737"
       id="linearGradient2739"
       x1="109.46445"
       y1="168.96155"
       x2="276.04648"
       y2="168.96155"
       gradientUnits="userSpaceOnUse"
       gradientTransform="translate(-36.335995,-52.337882)" /></defs><sodipodi:namedview
     units="mm"
     fit-margin-left="0"
     fit-margin-top="0"
     showguides="true"
     showgrid="false"
     inkscape:cy="116.37913"
     inkscape:cx="145.91452"
     inkscape:zoom="1.4"
     borderopacity="1.0"
     bordercolor="#666666"
     pagecolor="#ffffff"
     id="base"
     inkscape:pageshadow="2"
     inkscape:pageopacity="0.0"
     fit-margin-bottom="0"
     fit-margin-right="0"
     inkscape:guide-bbox="true"
     inkscape:window-maximized="1"
     inkscape:window-y="1"
     inkscape:window-x="0"
     inkscape:window-height="766"
     inkscape:window-width="1440"
     inkscape:object-nodes="true"
     inkscape:current-layer="svg2"
     inkscape:document-units="mm" /><path
     id="path3908"
     inkscape:connector-curvature="0"
     d="M 367.55617,122.594 183.77764,0 0,122.594 183.77853,245.189 Z"
     style="fill:#549487;stroke-width:0.94576383" /><path
     style="fill:url(#linearGradient2717);fill-opacity:1;stroke:#000000;stroke-width:0.477754"
     d="m 183.77853,245.189 c 0,-0.2231 -0.5084,-0.54824 -1.12978,-0.72255 -0.62137,-0.1743 -1.12977,-0.53987 -1.12977,-0.81237 0,-0.27249 -0.27353,-0.49545 -0.60783,-0.49545 -0.3343,0 -0.9759,-0.45457 -1.42577,-1.01015 -0.44988,-0.55559 -0.98621,-1.01016 -1.19185,-1.01016 -0.31708,0 -4.97235,-2.96337 -7.16848,-4.56318 -0.37283,-0.2716 -1.33878,-0.87543 -2.14657,-1.34185 -0.80779,-0.46643 -1.46871,-1.03324 -1.46871,-1.25958 0,-0.22634 -0.25884,-0.41153 -0.57519,-0.41153 -0.31636,0 -1.60157,-0.75547 -2.85601,-1.67882 -1.25446,-0.92335 -2.57165,-1.83548 -2.92711,-2.02696 -0.35545,-0.19148 -1.66308,-1.03467 -2.90583,-1.87377 -1.24276,-0.83909 -2.76795,-1.79743 -3.38933,-2.12964 -0.62137,-0.3322 -1.23146,-0.73885 -1.35573,-0.90367 -0.12427,-0.16481 -0.53099,-0.46246 -0.90382,-0.66143 -0.74802,-0.39922 -1.59411,-0.96972 -4.29314,-2.89476 -0.9942,-0.7091 -2.11268,-1.44563 -2.4855,-1.63674 -0.37283,-0.19111 -1.28795,-0.79229 -2.03359,-1.33597 -0.74566,-0.54368 -2.01666,-1.32507 -2.82444,-1.73643 -0.80779,-0.41136 -1.46871,-0.98682 -1.46871,-1.27878 0,-0.29197 -0.33987,-0.53085 -0.75526,-0.53085 -0.41539,0 -1.07631,-0.30457 -1.46871,-0.67683 -1.06572,-1.01103 -7.68832,-5.38409 -8.1537,-5.38409 -0.22199,0 -0.67233,-0.29909 -1.00077,-0.66466 -0.78549,-0.87426 -17.40639,-11.96224 -17.93143,-11.96224 -0.22303,0 -0.67625,-0.36461 -1.00716,-0.81024 -0.3309,-0.44562 -1.01672,-1.0177 -1.52403,-1.27127 -0.50732,-0.25358 -1.93919,-1.14806 -3.18194,-1.98775 -1.24276,-0.83968 -2.81879,-1.76719 -3.5023,-2.06112 -0.68352,-0.29394 -1.242756,-0.73948 -1.242756,-0.9901 0,-0.25062 -0.28014,-0.45567 -0.62253,-0.45567 -0.34238,0 -0.86463,-0.32604 -1.16055,-0.72455 -0.29591,-0.3985 -1.38846,-1.22995 -2.42786,-1.84767 -2.82536,-1.6791 -4.00743,-2.433 -5.50511,-3.51103 -0.74566,-0.53673 -2.01665,-1.36158 -2.82444,-1.833 -0.80779,-0.47142 -1.4687,-1.04233 -1.4687,-1.26867 0,-0.22634 -0.25884,-0.41153 -0.57519,-0.41153 -0.31636,0 -1.60157,-0.75546 -2.85603,-1.67881 -1.25444,-0.92336 -2.57164,-1.83549 -2.9271,-2.02697 -0.35546,-0.19148 -1.66308,-1.03467 -2.90583,-1.87376 -1.24276,-0.8391 -2.76795,-1.79743 -3.38933,-2.12964 -0.62137,-0.33221 -1.23145,-0.73886 -1.35573,-0.90368 -0.12427,-0.16481 -0.53099,-0.46245 -0.90382,-0.66143 -0.74802,-0.39922 -1.5941,-0.96971 -4.29314,-2.89476 -0.9942,-0.70909 -2.11268,-1.44563 -2.4855,-1.63674 -0.37283,-0.19111 -1.28794,-0.79229 -2.0336,-1.33596 -0.74565,-0.54368 -2.01664,-1.32508 -2.82443,-1.73644 -0.80779,-0.41136 -1.46871,-0.98681 -1.46871,-1.27878 0,-0.29197 -0.33987,-0.53085 -0.75526,-0.53085 -0.41539,0 -1.07631,-0.30457 -1.4687,-0.67683 -1.06573,-1.01103 -7.68833,-5.38408 -8.15371,-5.38408 -0.22198,0 -0.67233,-0.2991 -1.000769,-0.66466 -0.785491,-0.87427 -17.406388,-11.96225 -17.931427,-11.96225 -0.223028,0 -0.676248,-0.36461 -1.007154,-0.81023 -0.330907,-0.44563 -1.016726,-1.0177 -1.524041,-1.27128 -0.507316,-0.25357 -1.939189,-1.14806 -3.18194,-1.98774 -1.242752,-0.83969 -2.818788,-1.7672 -3.502301,-2.06113 -0.683513,-0.29394 -1.242751,-0.73948 -1.242751,-0.9901 0,-0.25061 -0.273522,-0.45566 -0.607824,-0.45566 -0.334304,0 -0.968596,-0.44555 -1.409538,-0.99011 -0.440942,-0.54456 -0.930019,-0.95032 -1.086837,-0.90169 -0.156819,0.0486 -1.098562,-0.48839 -2.092763,-1.19337 -0.994201,-0.70498 -2.112678,-1.43814 -2.485504,-1.62925 -0.372825,-0.19111 -1.287942,-0.79262 -2.033593,-1.3367 -0.745651,-0.54408 -1.965808,-1.36878 -2.711459,-1.83268 -0.745651,-0.4639 -1.457409,-0.9951 -1.581684,-1.18046 -0.124275,-0.18535 -0.886873,-0.63578 -1.694661,-1.00095 -1.792206,-0.81019 -1.833301,-1.15848 -0.225955,-1.91502 0.683514,-0.32172 2.259549,-1.27768 3.5023,-2.12438 1.242752,-0.8467 2.550379,-1.69611 2.905836,-1.88759 0.355457,-0.19148 1.672656,-1.10361 2.927107,-2.02696 1.254453,-0.92335 2.539658,-1.67882 2.856014,-1.67882 0.316356,0 0.575193,-0.18519 0.575193,-0.41153 0,-0.22634 0.660918,-0.79724 1.468706,-1.26867 0.807789,-0.47142 2.078785,-1.29349 2.824436,-1.82682 1.425704,-1.01974 4.152897,-2.74772 6.166206,-3.90697 0.65736,-0.3785 1.444858,-1.0244 1.749996,-1.43532 0.305137,-0.41093 0.834934,-0.74714 1.177326,-0.74714 0.342392,0 0.622531,-0.20505 0.622531,-0.45566 0,-0.25062 0.559238,-0.69616 1.242752,-0.9901 0.683513,-0.29394 2.259548,-1.22145 3.5023,-2.06113 1.242752,-0.83968 2.674625,-1.734173 3.18194,-1.987743 0.507316,-0.25358 1.193133,-0.82566 1.524041,-1.27128 0.330907,-0.44563 0.784125,-0.81023 1.007154,-0.81023 0.525038,0 17.145933,-11.08798 17.931423,-11.96225 0.32844,-0.36556 0.77879,-0.66466 1.00077,-0.66466 0.46538,0 7.08798,-4.37306 8.15371,-5.38409 0.3924,-0.37225 1.05332,-0.67682 1.46871,-0.67682 0.41539,0 0.75525,-0.23889 0.75525,-0.53085 0,-0.29197 0.66092,-0.86742 1.46871,-1.27879 0.80779,-0.41136 2.07879,-1.19275 2.82444,-1.73643 0.74565,-0.54367 1.66077,-1.14486 2.03359,-1.33597 0.37283,-0.19111 1.4913,-0.92764 2.4855,-1.63674 2.69904,-1.92504 3.54512,-2.49553 4.29315,-2.89476 0.37282,-0.19897 0.77954,-0.49662 0.90381,-0.66143 0.12428,-0.16481 0.73436,-0.57147 1.35573,-0.90367 0.62138,-0.33221 2.14657,-1.29055 3.38933,-2.12964 1.24275,-0.83909 2.55038,-1.68229 2.90583,-1.87377 0.35546,-0.19148 1.67266,-1.10361 2.92711,-2.02696 1.25445,-0.92335 2.52271,-1.67882 2.81835,-1.67882 0.29565,0 0.60533,-0.17046 0.68818,-0.3788 0.19379,-0.48733 10.153016,-7.19734 10.682526,-7.19734 0.21989,0 0.76788,-0.45457 1.21776,-1.01015 0.44987,-0.55559 1.09146,-1.01016 1.42577,-1.01016 0.3343,0 0.60782,-0.21196 0.60782,-0.47104 0,-0.25907 0.4389,-0.62673 0.97534,-0.81702 1.08384,-0.38446 7.43271,-4.550977 8.55034,-5.611247 0.39241,-0.37226 1.03638,-0.67683 1.43105,-0.67683 0.39469,0 0.78538,-0.17046 0.86824,-0.37881 0.0828,-0.20834 3.70943,-2.74796 8.05906,-5.6436 4.34963,-2.89565 7.9762,-5.45259 8.05905,-5.68211 0.0828,-0.22952 0.35271,-0.41731 0.59968,-0.41731 0.56278,0 8.90392,-5.54049 9.23064,-6.13132 0.1322,-0.23907 0.63507,-0.43467 1.11751,-0.43467 0.48243,0 0.87714,-0.23888 0.87714,-0.53085 0,-0.29197 0.66092,-0.86742 1.46871,-1.27878 0.80778,-0.41137 2.07878,-1.19276 2.82444,-1.73643 0.74564,-0.543679 1.66076,-1.144865 2.03359,-1.335973 0.37283,-0.191109 1.4913,-0.924272 2.4855,-1.629252 0.99421,-0.70498 1.93595,-1.241995 2.09276,-1.193368 0.15682,0.04863 0.6459,-0.357133 1.08685,-0.901692 0.44093,-0.544558 1.05828,-0.990106 1.37187,-0.990106 0.31359,0 0.63795,-0.170463 0.72081,-0.378807 0.0829,-0.208344 0.86239,-0.804331 1.73231,-1.324417 2.72067,-1.62655 4.70075,-2.879971 5.94114,-3.760833 0.65784,-0.467168 3.55653,-2.406748 6.44153,-4.310178 2.88499,-1.903431 5.35282,-3.654958 5.48406,-3.892283 0.2803,-0.506887 1.59615,-0.07426 2.24326,0.737542 0.24855,0.31181 0.9603,0.85726 1.58168,1.212111 0.62137,0.354851 1.54064,0.920289 2.04281,1.256531 1.57416,1.054002 8.08236,5.423981 9.02898,6.062555 0.4971,0.335339 1.0055,0.72335 1.12977,0.862245 0.12428,0.138896 1.19191,0.816002 2.37253,1.50468 1.18061,0.688678 2.14656,1.427352 2.14656,1.641498 0,0.214146 0.24536,0.389356 0.54522,0.389356 0.67093,0 9.1125,5.567382 9.32148,6.147701 0.0829,0.23006 0.51551,0.41829 0.96147,0.41829 0.44595,0 1.08157,0.3646 1.41247,0.81023 0.33091,0.44563 1.01672,1.01683 1.52404,1.26933 1.27885,0.63652 4.61123,2.82574 6.93285,4.55458 1.0688,0.79589 2.13644,1.44708 2.37252,1.44708 0.2361,0 0.42926,0.20505 0.42926,0.45567 0,0.25062 0.55924,0.7019 1.24276,1.00285 1.19098,0.5244 2.79957,1.54415 3.27634,2.07702 0.12428,0.13889 1.43186,0.92684 2.90573,1.75099 1.47388,0.82414 3.30412,1.96718 4.06719,2.54007 0.76308,0.57289 4.23445,2.94376 7.71414,5.26859 3.47971,2.32483 6.42842,4.368397 6.5527,4.541267 0.12427,0.17287 0.73435,0.59214 1.35573,0.93171 1.43044,0.78171 2.72603,1.70996 3.5155,2.51877 0.33893,0.34724 0.83017,0.63134 1.09162,0.63134 0.26146,0 1.98271,1.02278 3.82498,2.27284 1.84228,1.25007 3.55214,2.27285 3.79967,2.27285 0.24754,0 0.56712,0.34092 0.71019,0.75761 0.14306,0.41669 0.62017,0.75762 1.06025,0.75762 0.44008,0 1.07088,0.3646 1.40179,0.81023 0.33091,0.44562 1.01672,1.01682 1.52404,1.26933 1.27884,0.63651 4.61122,2.82574 6.93285,4.55457 1.0688,0.7959 2.13643,1.44709 2.37252,1.44709 0.2361,0 0.42926,0.17362 0.42926,0.38583 0,0.21222 1.0168,0.92538 2.25955,1.58481 1.24275,0.65944 2.25955,1.39495 2.25955,1.63447 0,0.23952 0.27448,0.4355 0.60996,0.4355 0.72346,0 9.03853,5.51101 9.25673,6.13513 0.0829,0.23697 0.39253,0.43086 0.68817,0.43086 0.29565,0 1.56821,0.73867 2.82793,1.6415 2.79949,2.00636 3.79951,2.66281 6.08248,3.99275 0.97596,0.56855 1.77448,1.23374 1.77448,1.47819 0,0.24445 0.5084,0.58707 1.12977,0.76137 0.62138,0.17431 1.12979,0.49733 1.12979,0.71783 0,0.2205 0.55923,0.66382 1.24275,0.98516 2.12208,0.99766 3.27634,1.75853 3.27634,2.15972 0,0.21192 0.30109,0.38531 0.66908,0.38531 0.36801,0 1.74564,0.73867 3.06141,1.6415 1.31578,0.90282 2.79408,1.91181 3.28512,2.24219 0.49104,0.33038 3.84152,2.58486 7.4455,5.00996 3.60398,2.4251 6.65437,4.541283 6.77864,4.702613 0.12428,0.16133 1.19192,0.8568 2.37253,1.54548 1.18062,0.68868 2.14658,1.41203 2.14658,1.60746 0,0.19543 0.45756,0.51055 1.01679,0.70028 0.55924,0.18973 2.44031,1.29841 4.18016,2.46375 1.73986,1.16533 3.51925,2.26834 3.95422,2.45114 0.43496,0.18279 0.79083,0.56677 0.79083,0.85329 0,0.28651 0.38182,0.52092 0.84849,0.52092 0.46667,0 1.11923,0.36461 1.45013,0.81024 0.33091,0.44562 1.01673,1.01682 1.52404,1.26932 1.27886,0.63652 4.61123,2.82574 6.93285,4.55458 1.06881,0.79589 2.13644,1.44708 2.37253,1.44708 0.23609,0 0.42926,0.17363 0.42926,0.38584 0,0.21221 1.01679,0.92538 2.25954,1.58481 2.50378,1.32856 2.75053,1.84664 1.24276,2.60923 -1.60521,0.81186 -2.97495,1.75325 -3.87371,2.6623 -0.45624,0.46147 -1.1694,0.83904 -1.58479,0.83904 -0.41539,0 -0.75526,0.23442 -0.75526,0.52093 0,0.28651 -0.35588,0.67049 -0.79084,0.85329 -0.43497,0.18279 -2.21436,1.28581 -3.95421,2.45114 -1.73985,1.16533 -3.62093,2.27402 -4.18016,2.46375 -0.55924,0.18972 -1.0168,0.50485 -1.0168,0.70028 0,0.19542 -0.96596,0.91878 -2.14658,1.60746 -1.18061,0.68868 -2.24824,1.38066 -2.37252,1.53774 -0.12427,0.15709 -1.95451,1.44079 -4.06719,2.85269 -2.11267,1.4119 -4.55299,3.04298 -5.42292,3.62463 -0.86992,0.58165 -2.09008,1.33871 -2.71146,1.68236 -0.62137,0.34365 -1.29239,0.91371 -1.49115,1.2668 -0.19877,0.35309 -0.56442,0.64198 -0.81256,0.64198 -0.24814,0 -1.56381,0.7955 -2.92373,1.76777 -1.35991,0.97227 -2.77366,1.76777 -3.14166,1.76777 -0.368,0 -0.66909,0.22728 -0.66909,0.50507 0,0.2778 -0.29051,0.50508 -0.64558,0.50508 -0.35508,0 -0.9229,0.28411 -1.26184,0.63135 -0.78984,0.80918 -2.0857,1.7375 -3.5155,2.51841 -0.62137,0.33937 -1.29239,0.90593 -1.49115,1.25902 -0.19877,0.35309 -0.54519,0.64198 -0.76983,0.64198 -0.22464,0 -2.42822,1.36371 -4.89684,3.03046 -2.46863,1.66675 -4.69809,3.03046 -4.95437,3.03046 -0.25627,0 -0.53374,0.19388 -0.61659,0.43085 -0.21821,0.62412 -8.53328,6.13514 -9.25674,6.13514 -0.33548,0 -0.60996,0.19597 -0.60996,0.4355 0,0.23952 -1.01679,0.97503 -2.25955,1.63446 -1.24275,0.65944 -2.25954,1.3726 -2.25954,1.58481 0,0.21222 -0.19317,0.38584 -0.42926,0.38584 -0.2361,0 -1.30373,0.65119 -2.37253,1.44708 -2.32162,1.72884 -5.654,3.91806 -6.93285,4.55458 -0.50731,0.2525 -1.19313,0.8237 -1.52404,1.26933 -0.33091,0.44563 -0.9617,0.81023 -1.40179,0.81023 -0.44007,0 -0.91718,0.34093 -1.06025,0.75762 -0.14307,0.41668 -0.45762,0.75761 -0.699,0.75761 -0.24139,0 -2.12885,1.13599 -4.19435,2.52442 -2.06551,1.38843 -4.00966,2.52485 -4.32035,2.52538 -0.31069,5e-4 -0.56489,0.17617 -0.56489,0.39032 0,0.21414 -0.96596,0.95282 -2.14657,1.6415 -1.18061,0.68867 -2.24826,1.38066 -2.37253,1.53774 -0.12428,0.15708 -1.95451,1.44079 -4.06719,2.85269 -2.11267,1.41189 -4.55299,3.04298 -5.42291,3.62462 -0.86992,0.58165 -2.09008,1.33872 -2.71146,1.68237 -0.62138,0.34365 -1.2924,0.91371 -1.49117,1.2668 -0.19875,0.35309 -0.53783,0.64198 -0.75349,0.64198 -0.21567,0 -1.93997,1.02278 -3.83179,2.27284 -1.89183,1.25007 -3.62266,2.27285 -3.8463,2.27285 -0.22364,0 -0.68393,0.2841 -1.02286,0.63134 -0.77389,0.79284 -2.05817,1.71838 -3.50931,2.52905 -0.61796,0.34523 -1.4314,0.92521 -1.80763,1.28884 -0.37624,0.36364 -3.12438,2.26477 -6.10699,4.22473 -2.9826,1.95995 -6.27395,4.18376 -7.31411,4.94181 -1.04017,0.75804 -3.06781,2.0389 -4.50585,2.84635 -1.43807,0.80745 -2.87448,1.73558 -3.19204,2.06252 -0.31756,0.32695 -1.39117,0.99572 -2.38577,1.48616 -0.99462,0.49045 -1.80839,1.07527 -1.80839,1.2996 0,0.22433 -0.19316,0.40788 -0.42925,0.40788 -0.23609,0 -1.30373,0.65119 -2.37252,1.44708 -2.32164,1.72884 -5.65401,3.91806 -6.93286,4.55458 -0.50731,0.2525 -1.19313,0.8237 -1.52404,1.26932 -0.3309,0.44563 -0.98347,0.81024 -1.45012,0.81024 -0.46668,0 -0.8485,0.23441 -0.8485,0.52092 0,0.28652 -0.35587,0.67186 -0.79084,0.85631 -0.43496,0.18446 -2.41772,1.42696 -4.40612,2.76111 -1.9884,1.33414 -3.86948,2.42615 -4.18016,2.42668 -0.31069,5.1e-4 -0.56489,0.19177 -0.56489,0.42497 0,0.42446 -1.98746,1.65454 -3.05039,1.88796 -0.31069,0.0682 -0.56488,-0.0585 -0.56488,-0.28159 z"
     id="path154"
     inkscape:connector-curvature="0" /><text
     xml:space="preserve"
     style="font-style:normal;font-weight:normal;font-size:40px;line-height:1.25;font-family:sans-serif;letter-spacing:0px;word-spacing:0px;fill:url(#linearGradient2739);fill-opacity:1;stroke:none"
     x="69.730026"
     y="131.53578"
     id="text2723"><tspan
       sodipodi:role="line"
       id="tspan2721"
       x="69.730026"
       y="131.53578"
       style="fill:url(#linearGradient2739);fill-opacity:1">universe</tspan></text>
</svg>