<?xml version="1.0" encoding="UTF-8" standalone="no"?>
<!-- Created with Inkscape (http://www.inkscape.org/) -->

<svg
   xmlns:dc="http://purl.org/dc/elements/1.1/"
   xmlns:cc="http://creativecommons.org/ns#"
   xmlns:rdf="http://www.w3.org/1999/02/22-rdf-syntax-ns#"
   xmlns:svg="http://www.w3.org/2000/svg"
   xmlns="http://www.w3.org/2000/svg"
   xmlns:sodipodi="http://sodipodi.sourceforge.net/DTD/sodipodi-0.dtd"
   xmlns:inkscape="http://www.inkscape.org/namespaces/inkscape"
   version="1.1"
   id="svg1386"
   xml:space="preserve"
   width="429.54401"
   height="256.314"
   viewBox="0 0 429.544 256.31398"
   sodipodi:docname="kuba_rysunek_2.svg"
   inkscape:version="0.92.2 (5c3e80d, 2017-08-06)"><metadata
     id="metadata1392"><rdf:RDF><cc:Work
         rdf:about=""><dc:format>image/svg+xml</dc:format><dc:type
           rdf:resource="http://purl.org/dc/dcmitype/StillImage" /><dc:title></dc:title></cc:Work></rdf:RDF></metadata><defs
     id="defs1390" /><sodipodi:namedview
     pagecolor="#ffffff"
     bordercolor="#666666"
     borderopacity="1"
     objecttolerance="10"
     gridtolerance="10"
     guidetolerance="10"
     inkscape:pageopacity="0"
     inkscape:pageshadow="2"
     inkscape:window-width="1366"
     inkscape:window-height="705"
     id="namedview1388"
     showgrid="false"
     inkscape:zoom="1"
     inkscape:cx="96.07058"
     inkscape:cy="139.56747"
     inkscape:window-x="-8"
     inkscape:window-y="-8"
     inkscape:window-maximized="1"
     inkscape:current-layer="g1394" /><g
     id="g1394"
     inkscape:groupmode="layer"
     inkscape:label="kuba_rysunek_2"
     transform="matrix(1.3333333,0,0,-1.3333333,0,256.31395)"><rect
       style="opacity:1;fill:#ffffff;fill-opacity:1;stroke:#000000;stroke-width:1.57364762;stroke-linecap:round;stroke-linejoin:round;stroke-miterlimit:4;stroke-dasharray:none;stroke-opacity:1"
       id="rect2170"
       width="186.93979"
       height="186.93979"
       x="-90.875412"
       y="-278.75647"
       transform="matrix(0.85693376,-0.51542656,-0.85693376,-0.51542656,0,0)" /><path
       style="opacity:1;fill:#a05a2c;fill-opacity:1;stroke:none;stroke-width:0.84093779;stroke-linecap:round;stroke-linejoin:round;stroke-miterlimit:4;stroke-dasharray:none;stroke-opacity:1"
       d=""
       id="path2033"
       inkscape:connector-curvature="0"
       transform="matrix(0.75000002,0,0,-0.75000002,0,842.00005)" /><path
       style="opacity:1;fill:#a05a2c;fill-opacity:1;stroke:none;stroke-width:0.0078125;stroke-linecap:round;stroke-linejoin:round;stroke-miterlimit:4;stroke-dasharray:none;stroke-opacity:1"
       d=""
       id="path2043"
       inkscape:connector-curvature="0"
       transform="matrix(0.75000002,0,0,-0.75000002,0,842.00005)" /><path
       style="opacity:1;fill:#a05a2c;fill-opacity:1;stroke:none;stroke-width:0.0078125;stroke-linecap:round;stroke-linejoin:round;stroke-miterlimit:4;stroke-dasharray:none;stroke-opacity:1"
       d=""
       id="path2047"
       inkscape:connector-curvature="0"
       transform="matrix(0.75000002,0,0,-0.75000002,0,842.00005)" /><path
       style="opacity:1;fill:#a05a2c;fill-opacity:1;stroke:none;stroke-width:0.0078125;stroke-linecap:round;stroke-linejoin:round;stroke-miterlimit:4;stroke-dasharray:none;stroke-opacity:1"
       d=""
       id="path2051"
       inkscape:connector-curvature="0"
       transform="matrix(0.75000002,0,0,-0.75000002,0,842.00005)" /><path
       style="opacity:1;fill:#a05a2c;fill-opacity:1;stroke:none;stroke-width:0.0078125;stroke-linecap:round;stroke-linejoin:round;stroke-miterlimit:4;stroke-dasharray:none;stroke-opacity:1"
       d=""
       id="path2053"
       inkscape:connector-curvature="0"
       transform="matrix(0.75000002,0,0,-0.75000002,0,842.00005)" /><path
       style="opacity:1;fill:#a05a2c;fill-opacity:1;stroke:none;stroke-width:0.0078125;stroke-linecap:round;stroke-linejoin:round;stroke-miterlimit:4;stroke-dasharray:none;stroke-opacity:1"
       d=""
       id="path2059"
       inkscape:connector-curvature="0"
       transform="matrix(0.75000002,0,0,-0.75000002,0,842.00005)" /><path
       style="opacity:1;fill:#a05a2c;fill-opacity:1;stroke:none;stroke-width:0.0078125;stroke-linecap:round;stroke-linejoin:round;stroke-miterlimit:4;stroke-dasharray:none;stroke-opacity:1"
       d=""
       id="path2067"
       inkscape:connector-curvature="0"
       transform="matrix(0.75000002,0,0,-0.75000002,0,842.00005)" /><path
       style="opacity:1;fill:#a05a2c;fill-opacity:1;stroke:none;stroke-width:0.0078125;stroke-linecap:round;stroke-linejoin:round;stroke-miterlimit:4;stroke-dasharray:none;stroke-opacity:1"
       d=""
       id="path2069"
       inkscape:connector-curvature="0"
       transform="matrix(0.75000002,0,0,-0.75000002,0,842.00005)" /><path
       style="opacity:1;fill:#a05a2c;fill-opacity:1;stroke:none;stroke-width:0.0078125;stroke-linecap:round;stroke-linejoin:round;stroke-miterlimit:4;stroke-dasharray:none;stroke-opacity:1"
       d=""
       id="path2073"
       inkscape:connector-curvature="0"
       transform="matrix(0.75000002,0,0,-0.75000002,0,842.00005)" /><path
       style="opacity:1;fill:#a05a2c;fill-opacity:1;stroke:none;stroke-width:0.0078125;stroke-linecap:round;stroke-linejoin:round;stroke-miterlimit:4;stroke-dasharray:none;stroke-opacity:1"
       d=""
       id="path2081"
       inkscape:connector-curvature="0"
       transform="matrix(0.75000002,0,0,-0.75000002,0,842.00005)" /><path
       style="opacity:1;fill:#a05a2c;fill-opacity:1;stroke:none;stroke-width:0.0078125;stroke-linecap:round;stroke-linejoin:round;stroke-miterlimit:4;stroke-dasharray:none;stroke-opacity:1"
       d=""
       id="path2085"
       inkscape:connector-curvature="0"
       transform="matrix(0.75000002,0,0,-0.75000002,0,842.00005)" /><path
       style="opacity:1;fill:#a05a2c;fill-opacity:1;stroke:none;stroke-width:0.0078125;stroke-linecap:round;stroke-linejoin:round;stroke-miterlimit:4;stroke-dasharray:none;stroke-opacity:1"
       d=""
       id="path2089"
       inkscape:connector-curvature="0"
       transform="matrix(0.75000002,0,0,-0.75000002,0,842.00005)" /><path
       style="opacity:1;fill:#a05a2c;fill-opacity:1;stroke:none;stroke-width:0.04419417;stroke-linecap:round;stroke-linejoin:round;stroke-miterlimit:4;stroke-dasharray:none;stroke-opacity:1"
       d=""
       id="path2093"
       inkscape:connector-curvature="0"
       transform="matrix(0.75000002,0,0,-0.75000002,0,842.00005)" /><g
       id="g2168"
       transform="matrix(0.26646659,0,0,0.26646659,89.05423,-24.006629)"><circle
         transform="scale(1,-1)"
         r="103.46612"
         cy="-290.77545"
         cx="190.87714"
         id="path1943"
         style="opacity:1;fill:#ffffff;fill-opacity:1;stroke:#000000;stroke-width:0.75;stroke-linecap:round;stroke-linejoin:round;stroke-miterlimit:4;stroke-dasharray:none;stroke-opacity:1" /><ellipse
         ry="67.878189"
         rx="91.068871"
         style="opacity:1;fill:#ffffff;fill-opacity:1;stroke:#000000;stroke-width:0.56991905;stroke-linecap:round;stroke-linejoin:round;stroke-miterlimit:4;stroke-dasharray:none;stroke-opacity:1"
         id="circle1945"
         cx="219.73189"
         cy="-411.62811"
         transform="matrix(0.99668708,0.08133185,0.08133185,-0.99668708,0,0)" /><circle
         style="opacity:1;fill:#ffffff;fill-opacity:1;stroke:#000000;stroke-width:0.4665446;stroke-linecap:round;stroke-linejoin:round;stroke-miterlimit:4;stroke-dasharray:none;stroke-opacity:1"
         id="circle1947"
         cx="180.17374"
         cy="-536.95349"
         r="64.362076"
         transform="scale(1,-1)" /><ellipse
         ry="8.0471478"
         rx="115.08105"
         transform="matrix(0.99805841,0.06228486,0.06228486,-0.99805841,0,0)"
         cy="-580.93909"
         cx="214.09729"
         id="path1949"
         style="opacity:1;fill:#00002b;fill-opacity:1;stroke:#000000;stroke-width:0.7107904;stroke-linecap:round;stroke-linejoin:round;stroke-miterlimit:4;stroke-dasharray:none;stroke-opacity:1" /><rect
         transform="matrix(0.99771618,0.06754578,0.06754578,-0.99771618,0,0)"
         y="-687.50482"
         x="173.8326"
         height="101.49615"
         width="94.360558"
         id="rect1951"
         style="opacity:1;fill:#00002b;fill-opacity:1;stroke:#000000;stroke-width:0.93606836;stroke-linecap:round;stroke-linejoin:round;stroke-miterlimit:4;stroke-dasharray:none;stroke-opacity:1" /><path
         id="path1953"
         transform="matrix(0.75000002,0,0,-0.75000002,0,842.00005)"
         d="m 246.60547,516.35156 a 8.4093778,8.4093778 0 0 0 -8.41016,8.40821 8.4093778,8.4093778 0 0 0 8.41016,8.41015 8.4093778,8.4093778 0 0 0 8.4082,-8.41015 8.4093778,8.4093778 0 0 0 -8.4082,-8.40821 z m -2.73438,6.30664 a 2.1023445,2.1023445 0 0 1 2.10352,2.10157 2.1023445,2.1023445 0 0 1 -2.10352,2.10351 2.1023445,2.1023445 0 0 1 -2.10156,-2.10351 2.1023445,2.1023445 0 0 1 2.10156,-2.10157 z m 5.4668,0 a 2.1023445,2.1023445 0 0 1 2.10156,2.10157 2.1023445,2.1023445 0 0 1 -2.10156,2.10351 2.1023445,2.1023445 0 0 1 -2.10156,-2.10351 2.1023445,2.1023445 0 0 1 2.10156,-2.10157 z"
         style="opacity:1;fill:#000000;fill-opacity:1;stroke:none;stroke-width:1;stroke-linecap:round;stroke-linejoin:round;stroke-miterlimit:4;stroke-dasharray:none;stroke-opacity:1"
         inkscape:connector-curvature="0" /><path
         inkscape:connector-curvature="0"
         style="opacity:1;fill:#000000;fill-opacity:1;stroke:none;stroke-width:0.75;stroke-linecap:round;stroke-linejoin:round;stroke-miterlimit:4;stroke-dasharray:none;stroke-opacity:1"
         d="m 184.95411,434.11003 a 6.3070335,6.3070335 0 0 1 -6.30762,-6.30616 6.3070335,6.3070335 0 0 1 6.30762,-6.30761 6.3070335,6.3070335 0 0 1 6.30615,6.30761 6.3070335,6.3070335 0 0 1 -6.30615,6.30616 z m -2.05079,-4.72998 a 1.5767584,1.5767584 0 0 0 1.57764,-1.57618 1.5767584,1.5767584 0 0 0 -1.57764,-1.57763 1.5767584,1.5767584 0 0 0 -1.57617,1.57763 1.5767584,1.5767584 0 0 0 1.57617,1.57618 z m 4.1001,0 a 1.5767584,1.5767584 0 0 0 1.57617,-1.57618 1.5767584,1.5767584 0 0 0 -1.57617,-1.57763 1.5767584,1.5767584 0 0 0 -1.57617,1.57763 1.5767584,1.5767584 0 0 0 1.57617,1.57618 z"
         id="path1971" /><path
         id="path1973"
         d="m 184.95411,413.48372 a 6.3070335,6.3070335 0 0 1 -6.30762,-6.30616 6.3070335,6.3070335 0 0 1 6.30762,-6.30761 6.3070335,6.3070335 0 0 1 6.30615,6.30761 6.3070335,6.3070335 0 0 1 -6.30615,6.30616 z m -2.05079,-4.72998 a 1.5767584,1.5767584 0 0 0 1.57764,-1.57618 1.5767584,1.5767584 0 0 0 -1.57764,-1.57763 1.5767584,1.5767584 0 0 0 -1.57617,1.57763 1.5767584,1.5767584 0 0 0 1.57617,1.57618 z m 4.1001,0 a 1.5767584,1.5767584 0 0 0 1.57617,-1.57618 1.5767584,1.5767584 0 0 0 -1.57617,-1.57763 1.5767584,1.5767584 0 0 0 -1.57617,1.57763 1.5767584,1.5767584 0 0 0 1.57617,1.57618 z"
         style="opacity:1;fill:#000000;fill-opacity:1;stroke:none;stroke-width:0.75;stroke-linecap:round;stroke-linejoin:round;stroke-miterlimit:4;stroke-dasharray:none;stroke-opacity:1"
         inkscape:connector-curvature="0" /><path
         inkscape:connector-curvature="0"
         style="opacity:1;fill:#000000;fill-opacity:1;stroke:none;stroke-width:0.75;stroke-linecap:round;stroke-linejoin:round;stroke-miterlimit:4;stroke-dasharray:none;stroke-opacity:1"
         d="m 184.95411,321.83593 a 6.3070335,6.3070335 0 0 1 -6.30762,-6.30615 6.3070335,6.3070335 0 0 1 6.30762,-6.30762 6.3070335,6.3070335 0 0 1 6.30615,6.30762 6.3070335,6.3070335 0 0 1 -6.30615,6.30615 z m -2.05079,-4.72998 a 1.5767584,1.5767584 0 0 0 1.57764,-1.57617 1.5767584,1.5767584 0 0 0 -1.57764,-1.57764 1.5767584,1.5767584 0 0 0 -1.57617,1.57764 1.5767584,1.5767584 0 0 0 1.57617,1.57617 z m 4.1001,0 a 1.5767584,1.5767584 0 0 0 1.57617,-1.57617 1.5767584,1.5767584 0 0 0 -1.57617,-1.57764 1.5767584,1.5767584 0 0 0 -1.57617,1.57764 1.5767584,1.5767584 0 0 0 1.57617,1.57617 z"
         id="path1975" /><path
         id="path1977"
         d="m 184.95411,301.20959 a 6.3070335,6.3070335 0 0 1 -6.30762,-6.30616 6.3070335,6.3070335 0 0 1 6.30762,-6.30761 6.3070335,6.3070335 0 0 1 6.30615,6.30761 6.3070335,6.3070335 0 0 1 -6.30615,6.30616 z m -2.05079,-4.72998 a 1.5767584,1.5767584 0 0 0 1.57764,-1.57618 1.5767584,1.5767584 0 0 0 -1.57764,-1.57763 1.5767584,1.5767584 0 0 0 -1.57617,1.57763 1.5767584,1.5767584 0 0 0 1.57617,1.57618 z m 4.1001,0 a 1.5767584,1.5767584 0 0 0 1.57617,-1.57618 1.5767584,1.5767584 0 0 0 -1.57617,-1.57763 1.5767584,1.5767584 0 0 0 -1.57617,1.57763 1.5767584,1.5767584 0 0 0 1.57617,1.57618 z"
         style="opacity:1;fill:#000000;fill-opacity:1;stroke:none;stroke-width:0.75;stroke-linecap:round;stroke-linejoin:round;stroke-miterlimit:4;stroke-dasharray:none;stroke-opacity:1"
         inkscape:connector-curvature="0" /><path
         inkscape:connector-curvature="0"
         style="opacity:1;fill:#000000;fill-opacity:1;stroke:none;stroke-width:0.75;stroke-linecap:round;stroke-linejoin:round;stroke-miterlimit:4;stroke-dasharray:none;stroke-opacity:1"
         d="m 184.95411,280.58328 a 6.3070335,6.3070335 0 0 1 -6.30762,-6.30616 6.3070335,6.3070335 0 0 1 6.30762,-6.30761 6.3070335,6.3070335 0 0 1 6.30615,6.30761 6.3070335,6.3070335 0 0 1 -6.30615,6.30616 z m -2.05079,-4.72998 a 1.5767584,1.5767584 0 0 0 1.57764,-1.57618 1.5767584,1.5767584 0 0 0 -1.57764,-1.57763 1.5767584,1.5767584 0 0 0 -1.57617,1.57763 1.5767584,1.5767584 0 0 0 1.57617,1.57618 z m 4.1001,0 a 1.5767584,1.5767584 0 0 0 1.57617,-1.57618 1.5767584,1.5767584 0 0 0 -1.57617,-1.57763 1.5767584,1.5767584 0 0 0 -1.57617,1.57763 1.5767584,1.5767584 0 0 0 1.57617,1.57618 z"
         id="path1979" /><path
         inkscape:connector-curvature="0"
         style="opacity:1;fill:#000000;fill-opacity:1;stroke:none;stroke-width:0.75;stroke-linecap:round;stroke-linejoin:round;stroke-miterlimit:4;stroke-dasharray:none;stroke-opacity:1"
         d="m 164.43928,553.74274 a 6.3070335,6.3070335 0 0 1 -6.30762,-6.30616 6.3070335,6.3070335 0 0 1 6.30762,-6.30761 6.3070335,6.3070335 0 0 1 6.30615,6.30761 6.3070335,6.3070335 0 0 1 -6.30615,6.30616 z m -2.05079,-4.72998 a 1.5767584,1.5767584 0 0 0 1.57764,-1.57618 1.5767584,1.5767584 0 0 0 -1.57764,-1.57763 1.5767584,1.5767584 0 0 0 -1.57617,1.57763 1.5767584,1.5767584 0 0 0 1.57617,1.57618 z m 4.1001,0 a 1.5767584,1.5767584 0 0 0 1.57617,-1.57618 1.5767584,1.5767584 0 0 0 -1.57617,-1.57763 1.5767584,1.5767584 0 0 0 -1.57617,1.57763 1.5767584,1.5767584 0 0 0 1.57617,1.57618 z"
         id="path1995" /><path
         id="path1997"
         d="m 200.11725,553.74274 a 6.3070335,6.3070335 0 0 1 -6.30762,-6.30616 6.3070335,6.3070335 0 0 1 6.30762,-6.30761 6.3070335,6.3070335 0 0 1 6.30615,6.30761 6.3070335,6.3070335 0 0 1 -6.30615,6.30616 z m -2.05079,-4.72998 a 1.5767584,1.5767584 0 0 0 1.57764,-1.57618 1.5767584,1.5767584 0 0 0 -1.57764,-1.57763 1.5767584,1.5767584 0 0 0 -1.57617,1.57763 1.5767584,1.5767584 0 0 0 1.57617,1.57618 z m 4.1001,0 a 1.5767584,1.5767584 0 0 0 1.57617,-1.57618 1.5767584,1.5767584 0 0 0 -1.57617,-1.57763 1.5767584,1.5767584 0 0 0 -1.57617,1.57763 1.5767584,1.5767584 0 0 0 1.57617,1.57618 z"
         style="opacity:1;fill:#000000;fill-opacity:1;stroke:none;stroke-width:0.75;stroke-linecap:round;stroke-linejoin:round;stroke-miterlimit:4;stroke-dasharray:none;stroke-opacity:1"
         inkscape:connector-curvature="0" /><ellipse
         ry="7.5815687"
         rx="4.0137715"
         transform="scale(1,-1)"
         cy="-522.23627"
         cx="189.53922"
         id="path1999"
         style="opacity:1;fill:#ff7f2a;fill-opacity:1;stroke:none;stroke-width:0.75;stroke-linecap:round;stroke-linejoin:round;stroke-miterlimit:4;stroke-dasharray:none;stroke-opacity:1" /><path
         inkscape:connector-curvature="0"
         id="path2001"
         d="m 189.65071,529.70633 65.0008,-4.34826 -65.28283,-10.54649 z"
         style="fill:#ff6600;stroke:none;stroke-width:0.75px;stroke-linecap:butt;stroke-linejoin:miter;stroke-opacity:1" /><path
         inkscape:connector-curvature="0"
         id="path2003"
         d="m 193.33,517.55351 4.23676,10.03443"
         style="fill:none;stroke:#000000;stroke-width:0.75px;stroke-linecap:butt;stroke-linejoin:miter;stroke-opacity:1" /><path
         inkscape:connector-curvature="0"
         id="path2005"
         d="m 200.68858,518.66845 3.12183,6.91261"
         style="fill:none;stroke:#000000;stroke-width:0.75px;stroke-linecap:butt;stroke-linejoin:miter;stroke-opacity:1" /><path
         inkscape:connector-curvature="0"
         id="path2007"
         d="m 206.48625,519.5604 1.7839,4.23676"
         style="fill:none;stroke:#000000;stroke-width:0.75px;stroke-linecap:butt;stroke-linejoin:miter;stroke-opacity:1" /><path
         sodipodi:nodetypes="csc"
         inkscape:connector-curvature="0"
         id="path2009"
         d="m 151.68416,506.77011 c 0,0 11.87991,-13.09251 30.43143,-13.24477 16.97875,-0.13935 26.96257,12.29872 26.96257,12.29872"
         style="fill:none;stroke:#000000;stroke-width:1.5;stroke-linecap:butt;stroke-linejoin:miter;stroke-miterlimit:4;stroke-dasharray:none;stroke-opacity:1" /><path
         sodipodi:nodetypes="cscccccccc"
         inkscape:connector-curvature="0"
         id="path2011"
         d="m 118.18328,462.92162 c 0,0 -40.706698,8.36792 -55.746833,21.40679 C 44.686013,499.71694 28.096401,545.8729 28.096401,545.8729 L 38.799792,561.48201 27.204452,554.34642 -0.44597462,573.07736 11.149365,548.10278 0.89194922,525.35807 18.730934,542.75108 45.489411,480.76061"
         style="fill:none;stroke:#000000;stroke-width:0.75px;stroke-linecap:butt;stroke-linejoin:miter;stroke-opacity:1" /><path
         sodipodi:nodetypes="ccsc"
         inkscape:connector-curvature="0"
         id="path2013"
         d="m 44.151487,487.8962 -14.717162,-4.45974 c 0,0 -1.978683,-11.05666 1.783899,-11.14937 23.921689,-0.58941 79.383486,-17.83898 79.383486,-17.83898"
         style="fill:none;stroke:#000000;stroke-width:0.75px;stroke-linecap:butt;stroke-linejoin:miter;stroke-opacity:1" /><g
         style="fill:#a05a2c"
         id="g2027"><path
           style="fill:#a05a2c;stroke:#000000;stroke-width:0.75px;stroke-linecap:butt;stroke-linejoin:miter;stroke-opacity:1"
           d="m 263.571,459.35383 62.43645,42.81356"
           id="path2015"
           inkscape:connector-curvature="0" /><path
           style="fill:#a05a2c;stroke:#000000;stroke-width:0.75px;stroke-linecap:butt;stroke-linejoin:miter;stroke-opacity:1"
           d="m 318.42588,496.36972 19.17691,45.93538 -7.58157,-32.11017 21.85276,15.16314 -25.86653,-33.89407"
           id="path2017"
           inkscape:connector-curvature="0" /><path
           style="fill:#a05a2c;stroke:#000000;stroke-width:0.75px;stroke-linecap:butt;stroke-linejoin:miter;stroke-opacity:1"
           d="m 328.68329,495.92375 18.28497,-9.36547 -28.54238,-0.89195"
           id="path2019"
           inkscape:connector-curvature="0" /><path
           style="fill:#a05a2c;stroke:#000000;stroke-width:0.75px;stroke-linecap:butt;stroke-linejoin:miter;stroke-opacity:1"
           d="M 326.8994,486.55828 267.58477,450.43433"
           id="path2021"
           inkscape:connector-curvature="0" /></g><path
         transform="matrix(0.75000002,0,0,-0.75000002,0,842.00005)"
         inkscape:connector-curvature="0"
         id="path2029"
         d="m 361.07922,514.99979 c -0.72837,-1.44536 -1.97053,-3.6399 -2.76035,-4.87677 -0.78981,-1.23686 -1.37916,-2.41261 -1.30966,-2.61278 0.0695,-0.20017 13.27653,-9.37826 29.34895,-20.39576 16.07242,-11.01749 31.21733,-21.40954 33.65535,-23.09344 l 4.43276,-3.06164 4.28467,2.80625 4.28468,2.80624 -3.88995,3.87377 c -2.13946,2.13057 -4.13677,3.87377 -4.43845,3.87377 -0.30169,0 -0.48734,0.31322 -0.41257,0.69604 0.11551,0.59139 0.67327,0.6822 3.70993,0.60403 2.16347,-0.0557 3.40804,0.0587 3.15352,0.28979 -0.50162,0.45548 -68.31681,41.71844 -68.56377,41.71844 -0.0939,0 -0.76673,-1.18257 -1.49511,-2.62794 z"
         style="opacity:1;fill:#a05a2c;fill-opacity:1;stroke:none;stroke-width:0.84093779;stroke-linecap:round;stroke-linejoin:round;stroke-miterlimit:4;stroke-dasharray:none;stroke-opacity:1" /><path
         transform="matrix(0.75000002,0,0,-0.75000002,0,842.00005)"
         inkscape:connector-curvature="0"
         id="path2031"
         d="m 361.50579,515.42026 c -0.4965,-0.98284 -1.65208,-3.05559 -2.56795,-4.60609 -0.91587,-1.55051 -1.54451,-3.01443 -1.39696,-3.25317 0.37554,-0.60764 23.04567,-16.32011 61.85527,-42.87136 l 5.07681,-3.47325 4.09241,2.66218 4.09241,2.66218 -4.22871,4.1284 c -2.32579,2.27061 -4.22871,4.28256 -4.22871,4.471 0,0.51661 1.62609,0.84901 4.18476,0.85541 l 2.29266,0.006 -4.18477,2.57919 c -18.61209,11.47115 -63.49204,38.62677 -63.83826,38.62677 -0.13543,0 -0.65246,-0.80415 -1.14896,-1.787 z"
         style="opacity:1;fill:#a05a2c;fill-opacity:1;stroke:none;stroke-width:0.84093779;stroke-linecap:round;stroke-linejoin:round;stroke-miterlimit:4;stroke-dasharray:none;stroke-opacity:1" /><path
         transform="matrix(0.75000002,0,0,-0.75000002,0,842.00005)"
         inkscape:connector-curvature="0"
         id="path2035"
         d="m 424.62381,474.59447 c 1e-5,-0.004 0.0815,-0.097 0.1812,-0.20765 0.12331,-0.13696 0.25239,-0.25449 0.40416,-0.368 0.63886,-0.4778 1.69935,-1.41622 2.88955,-2.55695 0.13797,-0.13224 1.30293,-1.28541 2.5888,-2.56259 1.87498,-1.86231 2.33311,-2.32654 2.3135,-2.34431 -0.0134,-0.0122 -0.72663,-0.48131 -1.58483,-1.0425 l -1.56038,-1.02033 0.16216,-0.005 0.16217,-0.005 1.51435,0.97976 c 0.83289,0.53887 1.51435,0.98448 1.51435,0.99025 0,0.006 -1.82919,1.83917 -4.06487,4.07423 l -4.06487,4.06374 -0.22766,0.006 c -0.12521,0.003 -0.22765,0.003 -0.22763,-6.7e-4 z"
         style="opacity:1;fill:#a05a2c;fill-opacity:1;stroke:none;stroke-width:0.03716455;stroke-linecap:round;stroke-linejoin:round;stroke-miterlimit:4;stroke-dasharray:none;stroke-opacity:1" /><path
         transform="matrix(0.75000002,0,0,-0.75000002,0,842.00005)"
         inkscape:connector-curvature="0"
         id="path2037"
         d="m 412.00738,473.65785 9.2e-4,-4.12991 1.09967,-0.75259 c 1.30502,-0.89312 6.89093,-4.73255 7.78082,-5.34808 l 0.62251,-0.43059 3.01524,-2.1e-4 3.01524,-2e-4 2.72457,1.78446 c 1.49851,0.98146 2.72856,1.78048 2.73343,1.7756 0.009,-0.009 -0.3365,-0.23848 -2.06307,-1.36774 l -1.03641,-0.67787 0.13517,-0.0117 0.13517,-0.0117 1.04061,0.67277 c 1.53793,0.9943 1.97862,1.28215 1.97883,1.29256 1.8e-4,0.005 -1.82906,1.83851 -4.06479,4.07416 l -4.06498,4.06482 h -0.21068 -0.21068 l 0.0743,-0.0883 c 0.13693,-0.1627 0.4006,-0.40227 0.70034,-0.63633 0.50739,-0.39622 1.20326,-1.0057 2.0899,-1.83047 0.49863,-0.46383 2.5926,-2.53127 4.2002,-4.14697 0.93828,-0.94301 1.01917,-1.0273 0.35306,-0.36789 -0.47524,0.47046 -1.51631,1.50332 -2.31349,2.29524 -0.79718,0.79192 -1.65847,1.63708 -1.91398,1.87813 -1.17495,1.10848 -2.03896,1.86721 -2.65726,2.33349 -0.15373,0.11593 -0.27688,0.2292 -0.39652,0.3647 -0.30127,0.34121 -0.50472,0.59329 -0.50472,0.62534 0,0.0672 0.0611,0.20436 0.12335,0.27712 0.12411,0.14499 0.29981,0.21919 0.66158,0.27939 0.49566,0.0825 0.81221,0.0865 3.54474,0.0456 1.39107,-0.0209 2.36465,0.0516 2.52288,0.18766 0.0794,0.0683 0.12926,0.0313 -0.95268,0.70675 -0.34749,0.21693 -0.95202,0.59203 -1.34341,0.83356 l -0.71161,0.43913 h -8.05458 -8.05457 z"
         style="opacity:1;fill:#a05a2c;fill-opacity:1;stroke:none;stroke-width:0.03716455;stroke-linecap:round;stroke-linejoin:round;stroke-miterlimit:4;stroke-dasharray:none;stroke-opacity:1" /><path
         transform="matrix(0.75000002,0,0,-0.75000002,0,842.00005)"
         inkscape:connector-curvature="0"
         id="path2039"
         d="m 424.44023,475.32031 c -0.0818,-0.0818 -0.15088,-0.21811 -0.15088,-0.29778 0,-0.0227 0.24369,-0.34363 0.2525,-0.33249 0.002,0.002 0.009,0.16474 0.0162,0.36148 0.01,0.26191 0.008,0.35771 -0.008,0.35771 -0.0116,0 -0.0611,-0.04 -0.10998,-0.0889 z"
         style="opacity:1;fill:#a05a2c;fill-opacity:1;stroke:none;stroke-width:0.03716455;stroke-linecap:round;stroke-linejoin:round;stroke-miterlimit:4;stroke-dasharray:none;stroke-opacity:1" /><path
         transform="matrix(0.75000002,0,0,-0.75000002,0,842.00005)"
         inkscape:connector-curvature="0"
         id="path2041"
         d="m 420.91667,482.22326 c 0.0204,-0.0144 0.87755,-0.54042 1.90468,-1.16892 5.95009,-3.64082 8.32811,-5.11381 8.35065,-5.17254 0.0851,-0.22168 -1.00528,-0.31601 -3.1365,-0.27134 -0.59377,0.0125 -1.31373,0.0224 -1.5999,0.0221 -0.50082,-5e-4 -1.00251,-0.0168 -0.98725,-0.032 0.009,-0.009 7.02213,-0.22974 7.03056,-0.22131 0.003,0.003 -2.52574,1.54792 -5.62009,3.43249 l -5.6261,3.42649 -0.17661,0.006 c -0.15622,0.005 -0.17232,0.003 -0.13944,-0.0206 z"
         style="opacity:1;fill:#a05a2c;fill-opacity:1;stroke:none;stroke-width:0.03716455;stroke-linecap:round;stroke-linejoin:round;stroke-miterlimit:4;stroke-dasharray:none;stroke-opacity:1" /><path
         transform="matrix(0.75000002,0,0,-0.75000002,0,842.00005)"
         inkscape:connector-curvature="0"
         id="path2045"
         d="m 430.00515,469.6786 1.55469,-1.55468 h 0.3916 0.3916 v 1.55468 1.55469 h -1.94628 -1.94629 z"
         style="opacity:1;fill:#a05a2c;fill-opacity:1;stroke:none;stroke-width:0.0078125;stroke-linecap:round;stroke-linejoin:round;stroke-miterlimit:4;stroke-dasharray:none;stroke-opacity:1" /><path
         transform="matrix(0.75000002,0,0,-0.75000002,0,842.00005)"
         inkscape:connector-curvature="0"
         id="path2049"
         d="m 430.00515,469.6786 1.55469,-1.55468 h 0.3916 0.3916 v 1.55468 1.55469 h -1.94628 -1.94629 z"
         style="opacity:1;fill:#a05a2c;fill-opacity:1;stroke:none;stroke-width:0.0078125;stroke-linecap:round;stroke-linejoin:round;stroke-miterlimit:4;stroke-dasharray:none;stroke-opacity:1" /><path
         transform="matrix(0.75000002,0,0,-0.75000002,0,842.00005)"
         inkscape:connector-curvature="0"
         id="path2055"
         d="m 430.00515,469.6786 1.55469,-1.55468 h 0.3916 0.3916 v 1.55468 1.55469 h -1.94628 -1.94629 z"
         style="opacity:1;fill:#a05a2c;fill-opacity:1;stroke:none;stroke-width:0.0078125;stroke-linecap:round;stroke-linejoin:round;stroke-miterlimit:4;stroke-dasharray:none;stroke-opacity:1" /><path
         transform="matrix(0.75000002,0,0,-0.75000002,0,842.00005)"
         inkscape:connector-curvature="0"
         id="path2057"
         d="m 430.00125,469.6786 1.55468,-1.55468 h 0.39356 0.39355 v 1.55468 1.55469 h -1.94824 -1.94824 z"
         style="opacity:1;fill:#a05a2c;fill-opacity:1;stroke:none;stroke-width:0.0078125;stroke-linecap:round;stroke-linejoin:round;stroke-miterlimit:4;stroke-dasharray:none;stroke-opacity:1" /><path
         transform="matrix(0.75000002,0,0,-0.75000002,0,842.00005)"
         inkscape:connector-curvature="0"
         id="path2061"
         d="m 430.00125,469.6786 1.55468,-1.55468 h 0.39356 0.39355 v 1.55468 1.55469 h -1.94824 -1.94824 z"
         style="opacity:1;fill:#a05a2c;fill-opacity:1;stroke:none;stroke-width:0.0078125;stroke-linecap:round;stroke-linejoin:round;stroke-miterlimit:4;stroke-dasharray:none;stroke-opacity:1" /><path
         transform="matrix(0.75000002,0,0,-0.75000002,0,842.00005)"
         inkscape:connector-curvature="0"
         id="path2063"
         d="m 430.00125,469.6786 1.55468,-1.55468 h 0.39356 0.39355 v 1.55468 1.55469 h -1.94824 -1.94824 z"
         style="opacity:1;fill:#a05a2c;fill-opacity:1;stroke:none;stroke-width:0.0078125;stroke-linecap:round;stroke-linejoin:round;stroke-miterlimit:4;stroke-dasharray:none;stroke-opacity:1" /><path
         transform="matrix(0.75000002,0,0,-0.75000002,0,842.00005)"
         inkscape:connector-curvature="0"
         id="path2065"
         d="m 432.19851,467.47395 c 0,-0.002 0.22764,-0.23174 0.50586,-0.51073 0.27823,-0.279 0.50586,-0.50864 0.50586,-0.51032 0,-0.006 -0.48897,-0.3277 -1.18669,-0.77988 -0.0823,-0.0533 -0.14873,-0.0978 -0.14768,-0.0989 0.001,-10e-4 1.0627,0.6827 1.35277,0.87181 4.5e-4,2.9e-4 -0.23115,0.23249 -0.51465,0.51599 -0.28351,0.2835 -0.51547,0.51389 -0.51547,0.51198 z"
         style="opacity:1;fill:#a05a2c;fill-opacity:1;stroke:none;stroke-width:0.0078125;stroke-linecap:round;stroke-linejoin:round;stroke-miterlimit:4;stroke-dasharray:none;stroke-opacity:1" /><path
         transform="matrix(0.75000002,0,0,-0.75000002,0,842.00005)"
         inkscape:connector-curvature="0"
         id="path2071"
         d="m 432.8489,466.45985 c -0.001,-0.002 -6.5e-4,-0.004 10e-4,-0.004 0.002,0 0.005,0.002 0.006,0.004 10e-4,0.002 6.5e-4,0.004 -0.002,0.004 -0.002,0 -0.005,-0.002 -0.006,-0.004 z"
         style="opacity:1;fill:#a05a2c;fill-opacity:1;stroke:none;stroke-width:0.0078125;stroke-linecap:round;stroke-linejoin:round;stroke-miterlimit:4;stroke-dasharray:none;stroke-opacity:1" /><path
         transform="matrix(0.75000002,0,0,-0.75000002,0,842.00005)"
         inkscape:connector-curvature="0"
         id="path2075"
         d="m 432.82547,466.44423 c -10e-4,-0.002 -6.6e-4,-0.004 10e-4,-0.004 0.002,0 0.005,0.002 0.006,0.004 10e-4,0.002 6.6e-4,0.004 -10e-4,0.004 -0.002,0 -0.005,-0.002 -0.006,-0.004 z"
         style="opacity:1;fill:#a05a2c;fill-opacity:1;stroke:none;stroke-width:0.0078125;stroke-linecap:round;stroke-linejoin:round;stroke-miterlimit:4;stroke-dasharray:none;stroke-opacity:1" /><path
         transform="matrix(0.75000002,0,0,-0.75000002,0,842.00005)"
         inkscape:connector-curvature="0"
         id="path2077"
         d="m 428.49539,466.8661 v -1.55468 h 1.29633 1.29632 l 0.14801,0.0969 c 1.41747,0.92835 1.51462,0.99185 1.66949,1.09122 0.0856,0.0549 0.0937,0.0597 0.0937,0.0547 0,-0.006 -0.41219,-0.27757 -1.39062,-0.91772 -0.26748,-0.175 -0.488,-0.31974 -0.49004,-0.32165 -0.002,-0.002 0.0681,-0.003 0.16843,-0.003 h 0.17214 l 0.3804,0.24658 c 0.73004,0.47323 1.32264,0.86083 1.35498,0.88625 l 0.0125,0.01 -0.97889,0.9824 -0.97889,0.9824 -0.0381,10e-4 -0.0381,10e-4 0.54103,-0.5421 c 0.61952,-0.62074 0.78193,-0.78463 0.77284,-0.77985 -0.004,0.002 -0.30437,0.30001 -0.6685,0.66256 l -0.66205,0.65918 h -1.33053 -1.33052 z"
         style="opacity:1;fill:#a05a2c;fill-opacity:1;stroke:none;stroke-width:0.0078125;stroke-linecap:round;stroke-linejoin:round;stroke-miterlimit:4;stroke-dasharray:none;stroke-opacity:1" /><path
         transform="matrix(0.75000002,0,0,-0.75000002,0,842.00005)"
         inkscape:connector-curvature="0"
         id="path2079"
         d="m 429.17429,464.05444 -0.67852,-0.4442 -1.9e-4,-0.0869 -1.9e-4,-0.0869 h 0.0408 0.0408 l 0.81878,0.52979 c 0.45032,0.29139 0.81786,0.53071 0.81675,0.53183 -10e-4,10e-4 -0.009,-0.002 -0.0171,-0.008 l -0.0151,-0.01 -0.15787,0.005 c -0.0868,0.003 -0.16017,0.005 -0.16298,0.005 -0.003,7e-5 -0.004,0.002 -0.003,0.004 10e-4,0.002 9.9e-4,0.004 -7.5e-4,0.004 -0.002,-8e-5 -0.30849,-0.20003 -0.68168,-0.44434 z"
         style="opacity:1;fill:#a05a2c;fill-opacity:1;stroke:none;stroke-width:0.0078125;stroke-linecap:round;stroke-linejoin:round;stroke-miterlimit:4;stroke-dasharray:none;stroke-opacity:1" /><path
         transform="matrix(0.75000002,0,0,-0.75000002,0,842.00005)"
         inkscape:connector-curvature="0"
         id="path2083"
         d="m 430.7841,465.10898 c -0.51044,-0.33446 -0.92665,-0.60868 -0.92489,-0.60938 0.003,-10e-4 0.5462,0.35345 1.77579,1.15792 0.0734,0.048 0.0906,0.0609 0.0801,0.0599 -0.002,-1.6e-4 -0.42056,-0.27394 -0.93101,-0.6084 z"
         style="opacity:1;fill:#a05a2c;fill-opacity:1;stroke:none;stroke-width:0.0078125;stroke-linecap:round;stroke-linejoin:round;stroke-miterlimit:4;stroke-dasharray:none;stroke-opacity:1" /><path
         transform="matrix(0.75000002,0,0,-0.75000002,0,842.00005)"
         inkscape:connector-curvature="0"
         id="path2087"
         d="m 430.31075,464.56471 c -0.0167,-0.011 -0.0295,-0.0209 -0.0284,-0.022 0.002,-0.002 0.0646,0.0377 0.0646,0.0407 0,0.004 -0.008,-3.4e-4 -0.0362,-0.0187 z"
         style="opacity:1;fill:#a05a2c;fill-opacity:1;stroke:none;stroke-width:0.0078125;stroke-linecap:round;stroke-linejoin:round;stroke-miterlimit:4;stroke-dasharray:none;stroke-opacity:1" /><path
         transform="matrix(0.75000002,0,0,-0.75000002,0,842.00005)"
         inkscape:connector-curvature="0"
         id="path2091"
         d="m 430.24434,464.52175 c -0.0167,-0.0111 -0.0295,-0.0209 -0.0284,-0.022 0.002,-0.002 0.0646,0.0377 0.0646,0.0407 0,0.004 -0.008,-3.4e-4 -0.0362,-0.0187 z"
         style="opacity:1;fill:#a05a2c;fill-opacity:1;stroke:none;stroke-width:0.0078125;stroke-linecap:round;stroke-linejoin:round;stroke-miterlimit:4;stroke-dasharray:none;stroke-opacity:1" /><path
         transform="matrix(0.75000002,0,0,-0.75000002,0,842.00005)"
         inkscape:connector-curvature="0"
         id="path2095"
         d="m 407.47955,472.49036 0.007,-0.11502 8.24221,-5.65181 c 4.53322,-3.10849 8.33834,-5.7175 8.45583,-5.79779 l 0.21362,-0.14599 0.0957,0.0426 c 0.15094,0.0671 4.04571,2.59564 4.02132,2.61071 -0.012,0.007 -0.0251,0.0454 -0.0292,0.0844 l -0.007,0.0709 -2.00603,-1.31406 c -1.10332,-0.72274 -2.01451,-1.31407 -2.02487,-1.31407 -0.0104,0 -0.94225,0.63789 -2.07088,1.41754 -3.92,2.7079 -14.86816,10.22762 -14.89066,10.22762 -0.007,0 -0.0101,-0.0518 -0.006,-0.11502 z"
         style="opacity:1;fill:#a05a2c;fill-opacity:1;stroke:none;stroke-width:0.04419417;stroke-linecap:round;stroke-linejoin:round;stroke-miterlimit:4;stroke-dasharray:none;stroke-opacity:1" /><path
         transform="matrix(0.75000002,0,0,-0.75000002,0,842.00005)"
         inkscape:connector-curvature="0"
         id="path2097"
         d="m 428.50737,463.42351 c -0.0577,-0.048 -0.71441,-0.48284 -1.55987,-1.03302 -0.30499,-0.19847 -0.33062,-0.21545 -0.32529,-0.21554 0.004,-6e-5 1.93717,1.24816 1.94606,1.25625 8.9e-4,8.2e-4 -0.01,0.001 -0.0241,0.001 -0.0213,0 -0.0276,-0.002 -0.0368,-0.009 z"
         style="opacity:1;fill:#a05a2c;fill-opacity:1;stroke:none;stroke-width:0.0078125;stroke-linecap:round;stroke-linejoin:round;stroke-miterlimit:4;stroke-dasharray:none;stroke-opacity:1" /><path
         transform="matrix(0.75000002,0,0,-0.75000002,0,842.00005)"
         inkscape:connector-curvature="0"
         id="path2099"
         d="m 427.40027,462.89239 c -0.60068,-0.39356 -1.09004,-0.71608 -1.08747,-0.71672 0.003,-6.4e-4 0.0608,0.0355 0.12926,0.0804 0.0685,0.0448 0.55325,0.36234 1.07717,0.70555 0.52393,0.3432 0.95481,0.62486 0.95753,0.6259 0.004,0.001 0.006,-0.008 0.008,-0.0345 0.005,-0.0688 0.009,-0.0712 0.009,-0.006 2.4e-4,0.0338 10e-6,0.0614 -5.3e-4,0.0613 -5.4e-4,-1.4e-4 -0.49245,-0.32226 -1.09313,-0.71582 z"
         style="opacity:1;fill:#a05a2c;fill-opacity:1;stroke:none;stroke-width:0.0078125;stroke-linecap:round;stroke-linejoin:round;stroke-miterlimit:4;stroke-dasharray:none;stroke-opacity:1" /><path
         transform="matrix(0.75000002,0,0,-0.75000002,0,842.00005)"
         inkscape:connector-curvature="0"
         id="path2101"
         d="m 399.82086,495.08894 c 0.0365,-0.0229 2.05503,-1.25291 4.48571,-2.73331 5.07521,-3.09104 10.1045,-6.15823 13.92085,-8.48985 l 2.65134,-1.61985 0.16604,4.2e-4 0.16604,4.2e-4 -0.0994,0.0622 c -0.0547,0.0342 -4.80777,2.9301 -10.56241,6.43536 l -10.46297,6.37319 -0.16573,0.007 -0.16572,0.007 z"
         style="opacity:1;fill:#a05a2c;fill-opacity:1;stroke:none;stroke-width:0.04419417;stroke-linecap:round;stroke-linejoin:round;stroke-miterlimit:4;stroke-dasharray:none;stroke-opacity:1" /><path
         transform="matrix(0.75000002,0,0,-0.75000002,0,842.00005)"
         inkscape:connector-curvature="0"
         id="path2103"
         d="m 402.48625,475.80357 4.9802,-3.41506 0.007,0.11399 c 0.004,0.0627 0.004,0.11666 0,0.11993 -0.004,0.003 -1.65244,1.13422 -3.66383,2.51322 -2.01139,1.379 -4.17388,2.86181 -4.80554,3.29513 l -1.14847,0.78785 h -0.17466 -0.17466 z"
         style="opacity:1;fill:#a05a2c;fill-opacity:1;stroke:none;stroke-width:0.04419417;stroke-linecap:round;stroke-linejoin:round;stroke-miterlimit:4;stroke-dasharray:none;stroke-opacity:1" /><path
         transform="matrix(0.75000002,0,0,-0.75000002,0,842.00005)"
         inkscape:connector-curvature="0"
         id="path2105"
         d="m 362.1133,517.46754 c -1.1994,-2.54162 -2.90106,-5.59364 -4.60231,-8.25446 l -0.22849,-0.35738 4.7e-4,-0.25267 4.7e-4,-0.25268 0.1745,0.32813 c 0.23625,0.44425 0.4479,0.80437 0.91831,1.5625 0.8528,1.37442 1.71931,2.90071 2.49266,4.39062 0.97501,1.87846 1.42978,2.69765 1.61644,2.91177 l 0.094,0.10785 0.59375,-0.35035 c 2.89645,-1.70907 18.8166,-11.35463 35.21688,-21.33689 1.24034,-0.75495 1.35265,-0.81671 1.48437,-0.81616 l 0.1425,6e-4 -0.14062,0.0878 c -0.38654,0.24135 -37.46511,22.81726 -37.47497,22.81726 -0.006,0 -0.13591,-0.26367 -0.28798,-0.58594 z"
         style="opacity:1;fill:#a05a2c;fill-opacity:1;stroke:none;stroke-width:0.0625;stroke-linecap:round;stroke-linejoin:round;stroke-miterlimit:4;stroke-dasharray:none;stroke-opacity:1" /><path
         transform="matrix(0.75000002,0,0,-0.75000002,0,842.00005)"
         inkscape:connector-curvature="0"
         id="path2107"
         d="m 357.28894,507.03703 0.009,-0.24096 16.01563,-10.98227 c 8.80859,-6.04025 16.42646,-11.26356 16.92859,-11.60735 0.90946,-0.62266 0.91356,-0.62503 1.06527,-0.61558 l 0.1523,0.009 -0.90902,0.62295 c -5.69103,3.90003 -13.81812,9.48551 -17.20589,11.82504 -8.43675,5.82626 -14.89579,10.33637 -15.88418,11.09135 l -0.18106,0.1383 z"
         style="opacity:1;fill:#a05a2c;fill-opacity:1;stroke:none;stroke-width:0.0625;stroke-linecap:round;stroke-linejoin:round;stroke-miterlimit:4;stroke-dasharray:none;stroke-opacity:1" /><path
         transform="matrix(0.75000002,0,0,-0.75000002,0,842.00005)"
         inkscape:connector-curvature="0"
         id="path2109"
         d="m 356.81226,508.15853 c -0.25352,-0.38179 -0.46303,-0.69938 -0.46557,-0.70575 -0.004,-0.0111 0.93449,-0.66292 0.9403,-0.65277 0.002,0.003 2e-4,0.11189 -0.003,0.24263 l -0.006,0.23771 -0.1392,0.10995 c -0.12958,0.10235 -0.1392,0.11389 -0.1392,0.16686 0,0.10293 0.10276,0.39317 0.23941,0.67619 l 0.0496,0.10284 -0.008,0.25825 -0.008,0.25826 z"
         style="opacity:1;fill:#a05a2c;fill-opacity:1;stroke:none;stroke-width:0.03125;stroke-linecap:round;stroke-linejoin:round;stroke-miterlimit:4;stroke-dasharray:none;stroke-opacity:1" /><path
         transform="matrix(0.75000002,0,0,-0.75000002,0,842.00005)"
         inkscape:connector-curvature="0"
         id="path2111"
         d="m 131.90396,511.39143 c -30.75885,-9.24605 -69.8212,-17.88167 -84.884666,-18.76568 -2.961567,-0.17381 -5.730501,-0.56889 -6.153187,-0.87796 -1.209024,-0.88406 -1.809145,-4.64975 -1.443849,-9.05997 l 0.333456,-4.02582 8.358027,-2.49871 8.358029,-2.49871 1.716095,4.14711 c 0.94385,2.28091 1.997345,4.1482 2.341095,4.14953 0.941425,0.003 0.7828,-0.733 -1.08685,-5.04736 -1.27794,-2.94895 -1.53141,-3.95022 -1,-3.95022 0.39152,0 0.71185,-0.36374 0.71185,-0.80832 0,-0.55044 -0.30574,-0.72836 -0.95835,-0.5577 -0.843345,0.22054 -2.862965,-4.16764 -16.829448,-36.56668 -8.729104,-20.24952 -15.939548,-36.90275 -16.023211,-37.00719 -0.08366,-0.10445 -4.827855,4.32186 -10.542649,9.83623 -5.7147939,5.51437 -10.4589992,9.95767 -10.542678,9.87399 -0.083679,-0.0837 2.4525612,-5.94708 5.6360891,-13.02978 L 15.681946,391.82655 8.6157836,376.61393 c -3.886389,-8.36694 -6.9864356,-15.27912 -6.8889924,-15.36041 0.097443,-0.0813 7.9211519,5.1089 17.3860198,11.53373 15.897811,10.79157 17.288169,11.62994 18.25,11.00454 4.805961,-3.12494 10.402792,-6.38317 10.609541,-6.17643 0.13906,0.13907 -1.976967,3.48057 -4.702283,7.42556 -2.725317,3.945 -5.341793,7.77174 -5.814392,8.50388 -0.847236,1.31251 -0.806198,1.46434 2.930033,10.84054 8.862024,22.23956 18.25397,41.027 27.533955,55.0783 11.568795,17.51691 19.92363,23.99449 42.234295,32.74464 8.33055,3.2672 21.60254,7.55462 30.29733,9.78733 l 6.54732,1.68126 -2.54732,3.02539 c -1.40103,1.66396 -3.10983,3.86445 -3.79733,4.88997 -0.6875,1.02551 -1.475,1.83949 -1.75,1.80883 -0.275,-0.0307 -3.425,-0.93499 -7,-2.00963 z"
         style="opacity:1;fill:#a05a2c;fill-opacity:1;stroke:none;stroke-width:1;stroke-linecap:round;stroke-linejoin:round;stroke-miterlimit:4;stroke-dasharray:none;stroke-opacity:1" /></g></g></svg>